<svg width="2679" height="534" fill="none" xmlns="http://www.w3.org/2000/svg"><path d="M213.5 262.1V212H53.4a52.7 52.7 0 0 0-37.2 16.2 61.5 61.5 0 0 0-16.2 42 54.8 54.8 0 0 0 55 50.2h158.5v160.1c0 30.8 27.5 55 56.7 53.4a54.8 54.8 0 0 0 50.1-55V320.4h-50.1a57.6 57.6 0 0 1-56.7-58.3z" fill="#094063"/><path d="M532.2 262.1a54.8 54.8 0 0 0-55-50.1H318.6V53.5c0-30.8-27.5-55-56.6-53.4A54.8 54.8 0 0 0 212 55v158.5H262a57.3 57.3 0 0 1 56.6 56.6v50.2h160.2c14.5 0 27.5-6.5 37.2-16.2a57.3 57.3 0 0 0 16.2-42z" fill="#89CBF0"/><path d="M262 213.6H212v50.2a57.3 57.3 0 0 0 56.6 56.6h50.1v-50.2a55.3 55.3 0 0 0-56.6-56.6z" fill="#5299D3"/><path d="M695.5 155.4h58.3c32.3 0 74.4 3.2 87.3 38.8 14.6 42-11.3 79.3-53.3 85.7L854 386.7h-34l-63-103.5h-35.7v103.5h-25.9V155.4zM723 257.3h24.3c24.3 0 61.5 1.6 68-27.5 8-37.2-26-48.5-55-48.5h-38.9v76h1.6zM1025.6 359.2c-25.9 32.4-76 42-111.6 19.4-30.7-21-40.4-63-29.1-97 13-35.6 48.5-55 85.7-50.2 40.5 6.5 59.9 40.5 59.9 79.3v8h-123c3.3 51.8 68 63.2 98.7 26l19.4 14.5zm-21-63c-1.6-58.3-89-55-95.5 0h95.5zM1072.5 139.2h26v245.9h-26V139.2zM1164.7 155.4c24.3 0 24.3 37.2 0 37.2s-24.3-37.2 0-37.2zm-13 77.6h26v152.1h-26v-152zM1224.6 254c22.7-22.6 63.1-30.7 92.2-17.7 24.3 9.7 32.4 34 32.4 59.8v66.3c0 8.1 1.6 17.8 1.6 26h-24.3c-1.6-6.5-1.6-16.2-1.6-22.7-25.9 42-113.2 34-106.8-24.3 4.9-45.3 61.5-46.9 95.5-46.9h9.7v-4.9c0-43.6-59.9-38.8-82.5-16.1l-16.2-19.4zm74.4 58.3c-14.5 0-35.6 1.6-46.9 13-9.7 9.6-8 29 3.3 37.1 30.7 22.7 67.9-8 69.5-40.4v-9.7H1299zM1396 270.2c0-14.5-1.6-25.9-1.6-35.6h24.3v26c13-27.6 48.5-34 74.4-26 24.3 9.7 34 34 34 58.3v93.8h-22.7v-92.2c0-27.5-17.8-47-46.9-40.4-27.5 6.4-35.6 32.3-35.6 58.2v74.4H1396V270.2zM1685.6 271.8a51.5 51.5 0 0 0-63-12.9 55 55 0 0 0-27.5 48.5c0 21 8 42.1 27.5 53.4a50 50 0 0 0 63-13l19.5 17.9c-22.7 25.9-64.8 30.7-93.9 16.2-27.5-13-42-42.1-42-71.2a79.8 79.8 0 0 1 42-72.8c30.8-14.6 71.2-9.7 95.5 16.2l-21 17.7zM1871.6 359.2c-25.9 32.4-76 42-111.6 19.4-30.7-21-40.5-63-29.1-97 13-35.6 48.5-55 85.7-50.2 40.5 6.5 59.9 40.5 59.9 79.3v8h-123c3.3 51.8 68 63.2 98.7 26l19.4 14.5zm-22.6-63c-1.7-58.3-89-55-95.5 0h95.5z" fill="#094063"/><path d="M1920.2 155.4h27.5v97h122.9v-97h27.5v231.3h-27.5V280h-123v106.8h-27.4V155.4zM2156.3 155.4h40.4l77.7 181.2 79.3-181.2h40.4v231.3h-27.5V192.6l-82.5 194.1h-16.2l-82.5-194.1v194.1H2158V155.4h-1.6zM2437.9 270.2c0-50.1 29-97 77.6-114.8 48.5-16.2 105.2-3.3 137.5 35.6 30.8 38.8 34 97 9.7 140.7-25.9 45.3-79.3 64.7-129.4 56.6-56.6-8-95.4-59.8-95.4-118zm211.9 0c0-38.8-21-76-58.3-90.5a92.4 92.4 0 0 0-105.1 27.5c-51.8 66.3 1.6 171.4 89 156.9 45.3-6.5 74.4-48.6 74.4-93.9z" fill="#89CBF0"/></svg>