<svg xmlns="http://www.w3.org/2000/svg" viewBox="0 0 1000 1000"><title>Nigeria-Logo</title><rect x="10" y="10.01" width="980" height="979.97" style="fill:#ffc325"/><path d="M24.9,500C24.9,397.65,237.61,314.67,500,314.67s475.1,83,475.1,185.34S762.4,685.31,500,685.31,24.9,602.34,24.9,500Z" style="fill:#006891"/><path d="M24.9,500C24.9,397.65,237.61,314.67,500,314.67s475.1,83,475.1,185.34S762.4,685.31,500,685.31,24.9,602.34,24.9,500Z" style="fill:none;stroke:#006891;stroke-miterlimit:3.8636000000000004;stroke-width:1.4050876434876893px"/><polygon points="199.02 590.08 248.33 406.01 326.16 406.01 326.16 514.27 326.67 514.27 379.47 406.01 458.53 406.01 409.22 590.08 357.83 590.08 389.44 472.01 388.93 472.01 326.16 590.08 285.01 590.08 285.01 472.01 284.17 472.01 252.56 590.08 199.02 590.08" style="fill:#fff;fill-rule:evenodd"/><polygon points="472.44 593.72 479.44 567.56 536.16 567.56 529.15 593.72 472.44 593.72" style="fill:#ee4034;fill-rule:evenodd"/><polygon points="481.4 560.21 510.09 453.19 458.53 453.19 471.18 406.01 631.01 406.01 618.37 453.19 566.81 453.19 538.13 560.18 481.4 560.21" style="fill:#ffc325;fill-rule:evenodd"/><polygon points="594.36 590.08 643.64 406.01 699.34 406.01 724.47 504.5 724.96 504.5 751.34 406.01 802.83 406.01 753.54 590.08 700.55 590.08 673.26 489.55 672.77 489.55 645.85 590.08 594.36 590.08" style="fill:#fff;fill-rule:evenodd"/></svg>