<svg xmlns="http://www.w3.org/2000/svg" xml:space="preserve" width="529.134" height="264.567" style="shape-rendering:geometricPrecision;text-rendering:geometricPrecision;image-rendering:optimizeQuality;fill-rule:evenodd;clip-rule:evenodd" viewBox="0 0 4950.37 2475.19"><path d="M2475.19 0C1108.19 0 0 554.1 0 1237.59c0 683.5 1108.19 1237.59 2475.19 1237.59s2475.19-554.1 2475.19-1237.59C4950.38 554.09 3842.19 0 2475.19 0zm0 2279.8c-1259.1 0-2279.8-466.61-2279.8-1042.21S1216.1 195.38 2475.19 195.38c1259.1 0 2279.8 466.61 2279.8 1042.21S3734.28 2279.8 2475.19 2279.8zm-312.15-1259.33V825.05h698.28v195.42h-251.39v629.66h-195.46v-629.66h-251.43zm1541.15-195.42v825.09h-195.38l-354.38-491.17v491.17h-195.39V825.05h195.38l354.38 491.17V825.05h195.39zm-2463.82 825.09V825.05h195.39l217.08 333.92 217.08-333.92h195.31v825.09h-195.31v-466.69l-148.2 227.8h-137.76l-148.2-227.8v466.69h-195.39z" style="fill:#000;fill-rule:nonzero"/></svg>