<svg width="1552" height="639" fill="none" xmlns="http://www.w3.org/2000/svg"><path d="M776 639c428 0 776-143 776-319 0-177-348-320-776-320C347 0 0 143 0 320c0 176 347 319 776 319z" fill="#005C87"/><path d="M970 241l20-81H725l-20 81h87l-43 170h92l42-170h87z" fill="#FAC705"/><path d="M703 160H571l-85 186V160H358l-80 319h88l52-206v206h68l101-206-48 206h84l80-319zM1273 160h-84l-44 170-40-170h-92l-80 319h84l44-174 44 174h88l80-319z" fill="#fff"/><path d="M744 434l-12 45h92l11-45h-91z" fill="#211E1E"/></svg>