<svg xmlns="http://www.w3.org/2000/svg" viewBox="0 0 1000 1000"><title>Nigeria-Logo</title><path d="M307.87,437.94H279.16v13.51c0,9.71-5.27,17.1-16.25,17.1h-5.28v28.07h18.58v45c0,20.9,13.3,33.77,35,33.77,10.13,0,15.41-2.32,16.67-3V545.8a39,39,0,0,1-8.44,1.06c-7,0-11.61-2.32-11.61-11V496.62h20.48V468.55H307.87Z" style="fill:#4f5c66"/><path d="M365.68,508.44c.63-7.81,7.39-17.73,20.9-17.73,15.19,0,20.68,9.71,21.1,17.73ZM410,535.67c-3,8.23-9.5,13.72-21.11,13.72-12.46,0-23.22-8.44-23.85-20.26h73a67.4,67.4,0,0,0,.63-9.92c0-33.78-20-53.83-52.56-53.83-27.23,0-52.35,21.53-52.35,55.3,0,35.25,25.76,55.94,54.68,55.94,26.59,0,43.27-15.2,48.33-33.35Z" style="fill:#4f5c66"/><path d="M444.54,544.54c0,16.67,13.3,31.87,36.31,31.87,13.93,0,24.06-5.91,29.55-14.78,0,7.18-.21,11,0,11.82h28.7c-.21-1.05,0-8,0-16.25V505.91c0-21.53-12.45-40.53-46.43-40.53-30.82,0-44.75,19.84-46,34.83l27.86,5.7c.64-7.81,6.76-15.41,17.95-15.41,10.13,0,15.4,5.28,15.4,11.4,0,3.59-1.9,6.33-7.59,7.17l-24.7,3.8C458.26,515.41,444.54,526,444.54,544.54Zm44.12,8.65c-8.87,0-12.46-5.28-12.46-10.76,0-7.39,5.07-10.56,11.82-11.61l19.84-3.17v4.64C507.86,548.55,498.15,553.19,488.66,553.19Z" style="fill:#4f5c66"/><path d="M584,573.45V513.08c0-9.49,6.12-18.15,17.31-18.15,11.61,0,16.88,7.81,16.88,17.73v60.79H649.9V512.87c0-9.28,6.12-17.94,17.52-17.94s16.67,7.81,16.67,17.73v60.79h31v-68c0-28.5-19-40.11-38.84-40.11-14.14,0-24.27,4.64-32.51,16.46-5.27-10.34-16-16.46-31-16.46-11.4,0-24.91,5.91-30.19,15.2v-12H552v104.9Z" style="fill:#4f5c66"/><path d="M728.83,546.23c0,16,13.3,30.39,34,30.39,18.15,0,28.28-9.71,32.71-16.89,0,7.39-.42,11.19,0,13.72h19.21c-.42-2.53,0-7.81,0-16.67V505.91c0-19.84-11.82-37.15-42.21-37.15-22,0-39.48,13.51-41.59,32.93l19,4.43c1.27-11.82,9.08-20.48,23-20.48,15.41,0,21.95,8.24,21.95,18.16,0,3.59-1.69,6.75-7.81,7.6l-27.44,4C742.13,517.94,728.83,528.07,728.83,546.23ZM765.56,560c-10.13,0-16.47-7.18-16.47-14.78,0-9.08,6.34-13.93,14.78-15.2l31-4.64V530C794.9,552.14,781.81,560,765.56,560Z" style="fill:#4f5c66"/><path d="M845.43,613.56V559.73c5.49,9.08,17.31,16.47,32.93,16.47,29.76,0,47.28-23.43,47.28-53.62,0-29.55-16.25-53-46.65-53-16.46,0-28.49,8-34,18.15V471.92H825.8V613.56Zm60-91c0,20.9-11.61,35.89-30,35.89-18.15,0-30.18-15-30.18-35.89,0-20.26,12-35.46,30.18-35.46C894,487.12,905.38,502.32,905.38,522.58Z" style="fill:#4f5c66"/><path d="M968.05,439.84H949.89V456.3c0,8.87-4.64,15.62-15.62,15.62h-5.48v17.95h19.42v55.72c0,18.37,11,28.92,28.28,28.92a43.51,43.51,0,0,0,13.51-1.9V555.72a39.56,39.56,0,0,1-7.81.85c-10.34,0-14.14-4.65-14.14-13.93V489.87h22V471.92h-22Z" style="fill:#4f5c66"/><path d="M88.92,559.35l4.71,7.59A36.33,36.33,0,0,0,67,563.08l-18.16,4.29c-31,7.45-52.18-30.94-29.16-53.29L71,463.93a75.4,75.4,0,0,0,4.15,73.5Z" style="fill:#0371ac"/><path d="M198.43,549.75l-.29,28.8a36.42,36.42,0,0,1-67.48,19.05L101.5,551,87.06,528.26a70.24,70.24,0,0,1-10.44-45,67.42,67.42,0,0,1,5.29-19.63,37.24,37.24,0,0,0,1.29,7.88A42.08,42.08,0,0,0,112.65,502L174.41,520A33.93,33.93,0,0,1,198.43,549.75Z" style="fill:#29abe2"/><path d="M198.86,417.93v7.17L198,519.8a.14.14,0,0,0-.14-.14,40.41,40.41,0,0,0-21-14.33l-59.48-17.19a32.1,32.1,0,0,1-22.3-23.21,31.67,31.67,0,0,1,5-26.79,36.44,36.44,0,0,1,3.71-4.3l40.32-39.4a32.24,32.24,0,0,1,54.76,23.49Z" style="fill:#fbb416"/></svg>