<?xml version="1.0" encoding="utf-8"?>
<!-- Generator: Adobe Illustrator 23.0.1, SVG Export Plug-In . SVG Version: 6.00 Build 0)  -->
<svg version="1.1" id="Layer_1" xmlns="http://www.w3.org/2000/svg" xmlns:xlink="http://www.w3.org/1999/xlink" x="0px" y="0px"
	 viewBox="0 0 1000 1000" style="enable-background:new 0 0 1000 1000;" xml:space="preserve">
<style type="text/css">
	.st0{fill:#FFFFFF;}
	.st1{fill:#FAB417;}
	.st2{fill:#0372AD;}
	.st3{fill:#2AAAE2;}
</style>
<g>
	<path class="st0" d="M330.74,440.83h-24.37v11.45c0,8.23-4.48,14.49-13.8,14.49h-4.48v23.8h15.77v38.11
		c0,17.71,11.29,28.63,29.74,28.63c8.6,0,13.08-1.97,14.15-2.51v-22.54c-1.61,0.36-4.3,0.89-7.17,0.89c-5.91,0-9.85-1.97-9.85-9.3
		v-33.28h17.38v-23.8h-17.38V440.83z"/>
	<path class="st0" d="M379.8,500.59c0.54-6.62,6.27-15.03,17.74-15.03c12.9,0,17.56,8.23,17.92,15.03H379.8z M417.43,523.67
		c-2.51,6.98-8.06,11.63-17.92,11.63c-10.57,0-19.71-7.16-20.25-17.18h61.99c0.18-0.54,0.54-4.65,0.54-8.41
		c0-28.63-17.02-45.62-44.61-45.62c-23.11,0-44.43,18.25-44.43,46.87c0,29.88,21.86,47.41,46.4,47.41
		c22.58,0,36.73-12.88,41.03-28.27L417.43,523.67z"/>
	<path class="st0" d="M446.74,531.18c0,14.13,11.29,27.02,30.82,27.02c11.83,0,20.43-5.01,25.08-12.52c0,6.08-0.18,9.3,0,10.02
		h24.37c-0.18-0.89,0-6.8,0-13.78v-43.48c0-18.25-10.57-34.35-39.42-34.35c-26.16,0-37.98,16.82-39.06,29.52l23.65,4.83
		c0.54-6.62,5.73-13.06,15.23-13.06c8.6,0,13.08,4.47,13.08,9.66c0,3.04-1.61,5.37-6.45,6.08l-20.96,3.22
		C458.39,506.49,446.74,515.44,446.74,531.18z M484.19,538.52c-7.53,0-10.57-4.47-10.57-9.12c0-6.26,4.3-8.95,10.03-9.84l16.84-2.68
		v3.94C500.49,534.58,492.25,538.52,484.19,538.52z"/>
	<path class="st0" d="M565.15,555.69v-51.17c0-8.05,5.2-15.39,14.69-15.39c9.85,0,14.33,6.62,14.33,15.03v51.53h26.88v-51.35
		c0-7.87,5.2-15.21,14.87-15.21c9.67,0,14.15,6.62,14.15,15.03v51.53h26.34v-57.61c0-24.15-16.13-33.99-32.97-33.99
		c-12,0-20.6,3.94-27.59,13.95c-4.48-8.77-13.62-13.95-26.34-13.95c-9.67,0-21.14,5.01-25.62,12.88v-10.2h-25.98v88.92H565.15z"/>
	<path class="st0" d="M688.04,532.62c0,13.6,11.29,25.76,28.85,25.76c15.41,0,24.01-8.23,27.77-14.31c0,6.26-0.36,9.48,0,11.63
		h16.31c-0.36-2.15,0-6.62,0-14.13v-43.12c0-16.82-10.04-31.49-35.84-31.49c-18.63,0-33.5,11.45-35.29,27.91l16.13,3.76
		c1.07-10.02,7.71-17.35,19.53-17.35c13.08,0,18.63,6.98,18.63,15.39c0,3.04-1.44,5.73-6.63,6.44l-23.29,3.4
		C699.33,508.64,688.04,517.23,688.04,532.62z M719.22,544.24c-8.6,0-13.98-6.08-13.98-12.52c0-7.69,5.38-11.81,12.55-12.88
		l26.34-3.94v3.94C744.13,537.63,733.02,544.24,719.22,544.24z"/>
	<path class="st0" d="M787.01,589.69v-45.62c4.66,7.69,14.7,13.95,27.95,13.95c25.27,0,40.14-19.86,40.14-45.44
		c0-25.05-13.8-44.91-39.6-44.91c-13.98,0-24.19,6.8-28.85,15.39v-13.42h-16.3v120.05H787.01z M837.9,512.58
		c0,17.71-9.85,30.42-25.44,30.42c-15.41,0-25.62-12.7-25.62-30.42c0-17.18,10.21-30.06,25.62-30.06
		C828.22,482.52,837.9,495.4,837.9,512.58z"/>
	<path class="st0" d="M891.09,442.44h-15.41v13.96c0,7.51-3.94,13.24-13.25,13.24h-4.66v15.21h16.48v47.23
		c0,15.57,9.32,24.51,24.01,24.51c5.74,0,10.03-1.07,11.47-1.61v-14.31c-1.44,0.36-4.48,0.72-6.63,0.72
		c-8.78,0-12.01-3.94-12.01-11.81v-44.73h18.63v-15.21h-18.63V442.44z"/>
</g>
<path class="st1" d="M144.88,543.74l4,6.44c-6.67-3.89-14.68-5.1-22.57-3.28l-15.41,3.64c-26.33,6.31-44.29-26.23-24.76-45.18
	l43.57-42.5c-3.16,6.56-5.34,13.6-6.07,20.77c-1.7,14.45,1.7,29.27,9.59,41.53L144.88,543.74z"/>
<path class="st2" d="M237.84,535.6l-0.24,24.41c-0.12,7.29-2.43,13.97-6.8,19.31c-4,4.86-9.59,8.5-15.9,10.2
	c-6.31,1.82-12.98,1.58-18.81-0.49c-6.43-2.31-11.89-6.68-15.78-12.87l-24.76-39.47l-12.26-19.31c-7.16-11.29-10.32-24.9-8.86-38.13
	c0.61-5.71,2.18-11.29,4.49-16.64c0.12,2.19,0.49,4.49,1.09,6.68c3.16,12.63,12.5,22.22,25,25.87l52.43,15.18
	C228.74,513.62,236.87,523.82,237.84,535.6z"/>
<path class="st3" d="M238.2,423.88v0.61v5.46l-0.73,80.27c0,0,0-0.12-0.12-0.12c-4.37-5.71-10.56-10.08-17.84-12.14l-50.48-14.57
	c-9.47-2.79-16.5-10.08-18.93-19.67c-2.06-8.01-0.49-16.27,4.25-22.71c0.97-1.34,2.06-2.55,3.15-3.64l34.22-33.4
	c8.01-7.89,19.54-9.96,29.85-5.59C231.89,402.75,238.32,412.58,238.2,423.88z"/>
</svg>
