<svg xmlns="http://www.w3.org/2000/svg" xmlns:xlink="http://www.w3.org/1999/xlink" viewBox="0 0 828.87 193.87"><defs><style>.cls-1{isolation:isolate;}.cls-2{fill:#2a2727;}.cls-10,.cls-20,.cls-3,.cls-7,.cls-9{mix-blend-mode:overlay;}.cls-3{fill:url(#linear-gradient);}.cls-13,.cls-4{fill:#fbb416;}.cls-19,.cls-5{opacity:0.53;}.cls-11,.cls-13,.cls-15,.cls-18,.cls-19,.cls-5,.cls-8{mix-blend-mode:multiply;}.cls-5{fill:url(#linear-gradient-2);}.cls-6{fill:#0471ab;}.cls-7,.cls-9{opacity:0.59;}.cls-7{fill:url(#linear-gradient-3);}.cls-8{fill:url(#linear-gradient-4);}.cls-9{fill:url(#linear-gradient-5);}.cls-10{fill:url(#linear-gradient-6);}.cls-11{fill:url(#linear-gradient-7);}.cls-12,.cls-16,.cls-17{mix-blend-mode:lighten;}.cls-12{fill:url(#linear-gradient-8);}.cls-13{opacity:0.43;}.cls-14{fill:#29abe2;}.cls-15{fill:url(#linear-gradient-9);}.cls-16{fill:url(#linear-gradient-10);}.cls-17{fill:url(#linear-gradient-11);}.cls-18{fill:url(#linear-gradient-12);}.cls-19{fill:url(#linear-gradient-13);}.cls-20{opacity:0.58;}.cls-21{fill:#fff;}</style><linearGradient id="linear-gradient" x1="270.28" y1="583.56" x2="186.26" y2="454.39" gradientUnits="userSpaceOnUse"><stop offset="0.1" stop-color="#fff"/><stop offset="1" stop-color="#72cff4" stop-opacity="0"/></linearGradient><linearGradient id="linear-gradient-2" x1="44.98" y1="598.68" x2="173.83" y2="524.52" gradientUnits="userSpaceOnUse"><stop offset="0" stop-color="#f15b2a"/><stop offset="0.2" stop-color="#f15d2a" stop-opacity="0.99"/><stop offset="0.34" stop-color="#f1622a" stop-opacity="0.95"/><stop offset="0.46" stop-color="#f26b2b" stop-opacity="0.89"/><stop offset="0.56" stop-color="#f2782b" stop-opacity="0.8"/><stop offset="0.66" stop-color="#f3892c" stop-opacity="0.68"/><stop offset="0.76" stop-color="#f49d2d" stop-opacity="0.54"/><stop offset="0.85" stop-color="#f5b62e" stop-opacity="0.37"/><stop offset="0.93" stop-color="#f7d12f" stop-opacity="0.18"/><stop offset="1" stop-color="#f8eb30" stop-opacity="0"/></linearGradient><linearGradient id="linear-gradient-3" x1="160.79" y1="563.37" x2="167.09" y2="531.53" gradientUnits="userSpaceOnUse"><stop offset="0.17" stop-color="#b4e2f9"/><stop offset="0.24" stop-color="#b2e1f9" stop-opacity="0.97"/><stop offset="0.35" stop-color="#ace0f8" stop-opacity="0.89"/><stop offset="0.49" stop-color="#a3ddf8" stop-opacity="0.75"/><stop offset="0.64" stop-color="#97daf7" stop-opacity="0.56"/><stop offset="0.81" stop-color="#87d5f6" stop-opacity="0.32"/><stop offset="0.99" stop-color="#74cff4" stop-opacity="0.02"/><stop offset="1" stop-color="#72cff4" stop-opacity="0"/></linearGradient><linearGradient id="linear-gradient-4" x1="165.3" y1="410.33" x2="229.69" y2="533.61" gradientUnits="userSpaceOnUse"><stop offset="0.1" stop-color="#282560"/><stop offset="1" stop-color="#72cff4" stop-opacity="0"/></linearGradient><linearGradient id="linear-gradient-5" x1="141.57" y1="445.46" x2="170.04" y2="478.21" xlink:href="#linear-gradient-3"/><linearGradient id="linear-gradient-6" x1="255.81" y1="632.88" x2="208.95" y2="500.39" gradientUnits="userSpaceOnUse"><stop offset="0" stop-color="#b4e2f9"/><stop offset="0.15" stop-color="#b3e2f9" stop-opacity="0.99"/><stop offset="0.28" stop-color="#b0e1f9" stop-opacity="0.94"/><stop offset="0.4" stop-color="#abe0f8" stop-opacity="0.87"/><stop offset="0.52" stop-color="#a5def8" stop-opacity="0.77"/><stop offset="0.63" stop-color="#9cdbf7" stop-opacity="0.63"/><stop offset="0.75" stop-color="#91d8f6" stop-opacity="0.47"/><stop offset="0.86" stop-color="#84d4f5" stop-opacity="0.28"/><stop offset="0.97" stop-color="#76d0f4" stop-opacity="0.06"/><stop offset="1" stop-color="#72cff4" stop-opacity="0"/></linearGradient><linearGradient id="linear-gradient-7" x1="172.66" y1="412.76" x2="235.16" y2="532.43" xlink:href="#linear-gradient-4"/><linearGradient id="linear-gradient-8" x1="274.96" y1="514.12" x2="222.44" y2="498.59" gradientUnits="userSpaceOnUse"><stop offset="0" stop-color="#b4e2f9"/><stop offset="0.09" stop-color="#b0e1f9" stop-opacity="0.94"/><stop offset="0.28" stop-color="#a6def8" stop-opacity="0.79"/><stop offset="0.52" stop-color="#96d9f7" stop-opacity="0.54"/><stop offset="0.82" stop-color="#80d3f5" stop-opacity="0.21"/><stop offset="1" stop-color="#72cff4" stop-opacity="0"/></linearGradient><linearGradient id="linear-gradient-9" x1="151" y1="405.42" x2="196.83" y2="446.37" xlink:href="#linear-gradient-4"/><linearGradient id="linear-gradient-10" x1="-193.97" y1="-462.12" x2="-282.02" y2="-446.9" gradientTransform="matrix(0.89, -0.19, 0, 0.91, 449.77, 835.62)" xlink:href="#linear-gradient-6"/><linearGradient id="linear-gradient-11" x1="-203.41" y1="-454.52" x2="-294.46" y2="-489.57" gradientTransform="matrix(0.89, -0.19, 0, 0.91, 449.77, 835.62)" xlink:href="#linear-gradient-6"/><linearGradient id="linear-gradient-12" x1="246.84" y1="541.15" x2="247.18" y2="540.44" xlink:href="#linear-gradient-4"/><linearGradient id="linear-gradient-13" x1="190.01" y1="545.46" x2="200.72" y2="479.3" xlink:href="#linear-gradient-4"/></defs><title>TeamApt Logo 3D</title><g class="cls-1"><g id="Layer_1" data-name="Layer 1"><path class="cls-2" d="M340.63,440.83H316.27v11.45c0,8.23-4.48,14.5-13.8,14.5H298v23.79h15.77v38.11c0,17.71,11.29,28.63,29.74,28.63,8.6,0,13.08-2,14.16-2.51V532.26a33.7,33.7,0,0,1-7.17.89c-5.91,0-9.86-2-9.86-9.3V490.57H358V466.78H340.63Z" transform="translate(-90.75 -401.23)"/><path class="cls-2" d="M389.7,500.59c.54-6.62,6.27-15,17.74-15,12.9,0,17.56,8.23,17.92,15Zm37.63,23.08c-2.51,7-8.07,11.63-17.92,11.63-10.57,0-19.71-7.16-20.25-17.18h62a56.86,56.86,0,0,0,.53-8.41c0-28.62-17-45.62-44.61-45.62-23.11,0-44.43,18.25-44.43,46.88,0,29.88,21.86,47.41,46.4,47.41,22.58,0,36.73-12.88,41-28.27Z" transform="translate(-90.75 -401.23)"/><path class="cls-2" d="M456.64,531.18c0,14.14,11.29,27,30.81,27,11.83,0,20.43-5,25.09-12.52,0,6.08-.18,9.3,0,10h24.37c-.18-.89,0-6.79,0-13.77V498.44c0-18.25-10.58-34.35-39.42-34.35-26.16,0-38,16.82-39.06,29.52l23.65,4.83c.54-6.62,5.73-13.06,15.23-13.06,8.6,0,13.08,4.48,13.08,9.66,0,3-1.61,5.37-6.45,6.09l-21,3.22C468.28,506.49,456.64,515.44,456.64,531.18Zm37.44,7.34c-7.52,0-10.57-4.47-10.57-9.13,0-6.26,4.3-8.94,10-9.84l16.84-2.68v3.94C510.39,534.58,502.15,538.52,494.08,538.52Z" transform="translate(-90.75 -401.23)"/><path class="cls-2" d="M575.05,555.69V504.53c0-8,5.19-15.39,14.69-15.39,9.85,0,14.33,6.62,14.33,15v51.52H631V504.35c0-7.87,5.19-15.21,14.87-15.21s14.15,6.62,14.15,15v51.52h26.34v-57.6c0-24.16-16.13-34-33-34-12,0-20.6,3.94-27.59,14-4.48-8.77-13.62-14-26.34-14-9.67,0-21.14,5-25.62,12.88V466.78h-26v88.91Z" transform="translate(-90.75 -401.23)"/><path class="cls-2" d="M697.94,532.62c0,13.59,11.29,25.76,28.85,25.76,15.41,0,24-8.23,27.77-14.31,0,6.26-.36,9.48,0,11.62h16.31c-.36-2.14,0-6.61,0-14.13V498.44c0-16.81-10-31.49-35.84-31.49-18.64,0-33.5,11.46-35.3,27.91l16.13,3.76c1.07-10,7.71-17.35,19.53-17.35,13.08,0,18.63,7,18.63,15.38,0,3.05-1.43,5.73-6.63,6.45l-23.29,3.39C709.23,508.64,697.94,517.23,697.94,532.62Zm31.18,11.62c-8.6,0-14-6.08-14-12.52,0-7.69,5.38-11.81,12.55-12.88L754,514.9v3.94C754,537.63,742.91,544.24,729.12,544.24Z" transform="translate(-90.75 -401.23)"/><path class="cls-2" d="M796.91,589.69V544.07c4.66,7.69,14.7,13.95,28,13.95,25.27,0,40.14-19.86,40.14-45.44,0-25.05-13.8-44.91-39.6-44.91-14,0-24.19,6.8-28.85,15.39V469.64h-16.3V589.69Zm50.89-77.11c0,17.71-9.85,30.41-25.45,30.41-15.4,0-25.62-12.7-25.62-30.41,0-17.18,10.22-30.06,25.62-30.06C838.12,482.52,847.8,495.4,847.8,512.58Z" transform="translate(-90.75 -401.23)"/><path class="cls-2" d="M901,442.44H885.58v14c0,7.51-3.94,13.24-13.26,13.24h-4.65v15.21h16.48v47.23c0,15.56,9.32,24.51,24,24.51A36.75,36.75,0,0,0,919.62,555V540.67a34.66,34.66,0,0,1-6.62.71c-8.79,0-12-3.93-12-11.81V484.85h18.63V469.64H901Z" transform="translate(-90.75 -401.23)"/><path class="cls-3" d="M248.14,432.72l-1.28,128.49c-.33,33.55-44.24,45.92-62,17.49L161,540.61l-11.85-18.54a60,60,0,0,1,8.67-75.34l37.52-36.6C215.13,390.81,248.42,405,248.14,432.72Z" transform="translate(-90.75 -401.23)"/><path class="cls-4" d="M248.14,433.31,246.86,561.8c-.33,33.55-44.24,45.92-62,17.49l-12-19.2a31.1,31.1,0,0,0-33.52-13.76L123.84,550C97.39,556.22,79.5,523.68,99,504.7l96.35-94C215.13,391.4,248.42,405.63,248.14,433.31Z" transform="translate(-90.75 -401.23)"/><path class="cls-5" d="M250.64,435.45,249.4,559.77c-.32,32.47-42.8,44.44-60,16.92l-11.63-18.57a30.1,30.1,0,0,0-32.43-13.32l-14.94,3.53c-25.6,6-42.9-25.44-24.07-43.8l93.22-90.93C218.7,394.9,250.91,408.66,250.64,435.45Z" transform="translate(-90.75 -401.23)"/><path class="cls-6" d="M248.14,433.31,246.86,561.8c-.33,33.55-44.24,45.92-62,17.49L161,541.2l-11.85-18.54a60,60,0,0,1,8.67-75.34l37.52-36.6C215.13,391.4,248.42,405.63,248.14,433.31Z" transform="translate(-90.75 -401.23)"/><path class="cls-7" d="M202.42,556.22c0,9.28-7.42,17.43-18.62,22.1a33.19,33.19,0,0,1-2.42-3.39l-11-17.5c-6.45-10.3-18.68-14.2-30.5-11.41l-14,3c-.89.22-1.92-.41-2.79-.3,5-10.84,20.48-18.73,38.8-18.73C184.3,530,202.42,541.71,202.42,556.22Z" transform="translate(-90.75 -401.23)"/><path class="cls-6" d="M248.14,433.31,246.86,561.8c-.33,33.55-44.24,45.92-62,17.49L161,541.2l-11.85-18.54a60,60,0,0,1,8.67-75.34l37.52-36.6C215.13,391.4,248.42,405.63,248.14,433.31Z" transform="translate(-90.75 -401.23)"/><path class="cls-8" d="M248.14,433.31,246.86,561.8c-.18,17.74-12.53,29.55-26.77,32.55a32.81,32.81,0,0,1-35.27-15.06L161,541.2l-11.85-18.54a60,60,0,0,1,8.67-75.34l37.52-36.6a30.43,30.43,0,0,1,26.49-8.49C236,404.51,248.31,416.4,248.14,433.31Z" transform="translate(-90.75 -401.23)"/><path class="cls-9" d="M248.14,433.31,246.86,561.8c-.33,33.55-44.24,45.92-62,17.49l-12-19.2a31.1,31.1,0,0,0-33.52-13.76L123.84,550C97.39,556.22,79.5,523.68,99,504.7l96.35-94C215.13,391.4,248.42,405.63,248.14,433.31Z" transform="translate(-90.75 -401.23)"/><path class="cls-10" d="M247.24,460.92l-1,103.11c-.14,14.24-10.06,23.72-21.48,26.13a26.35,26.35,0,0,1-28.31-12.09L177.29,547.5l-9.51-14.88a48.19,48.19,0,0,1,6.95-60.45l30.11-29.37A24.47,24.47,0,0,1,226.1,436,24.84,24.84,0,0,1,247.24,460.92Z" transform="translate(-90.75 -401.23)"/><path class="cls-11" d="M248.14,433.31,246.86,561.8c-.18,17.74-12.53,29.55-26.77,32.55a32.62,32.62,0,0,1-23.3-15.47l-23.85-38.09-11.85-18.54a60.07,60.07,0,0,1,8.67-75.34l37.52-36.59a30.83,30.83,0,0,1,14.52-8.09C236,404.51,248.31,416.4,248.14,433.31Z" transform="translate(-90.75 -401.23)"/><path class="cls-12" d="M248.41,434.57l-1.26,125.66a31.88,31.88,0,0,1-15.63,27.71,21.66,21.66,0,0,1-22.06.11,32.92,32.92,0,0,1-11.27-11.12l-23.32-37.24-11.59-18.14a58.72,58.72,0,0,1,8.47-73.67l36.7-35.79.13-.13a21.79,21.79,0,0,1,28.84-1.15A29.8,29.8,0,0,1,248.41,434.57Z" transform="translate(-90.75 -401.23)"/><path class="cls-13" d="M161,541.2,172.75,560a31,31,0,0,0-11.92-11l-4.08-6.33-11.85-18a57.16,57.16,0,0,1,7.21-71.81L154,451l2.21-2.1a60,60,0,0,0-7.08,73.73Z" transform="translate(-90.75 -401.23)"/><path class="cls-14" d="M195.31,410.13c19.82-19.32,53.11-5.09,52.83,22.59l-1,107.85a31.13,31.13,0,0,0-22.47-30.23l-50.58-14.62A31.11,31.11,0,0,1,161,443.56Z" transform="translate(-90.75 -401.23)"/><path class="cls-15" d="M195.31,410.13c19.82-19.32,53.11-5.09,52.83,22.59l-1,107.85a31.13,31.13,0,0,0-22.47-30.23l-50.58-14.62A31.11,31.11,0,0,1,161,443.56Z" transform="translate(-90.75 -401.23)"/><path class="cls-16" d="M200.32,420.79c6.22-6.39,14.39-11.29,23.32-12.06a25.27,25.27,0,0,1,7.56.48c9.62,2.11,17,10,16.94,22.63l-.5,98.12a25.19,25.19,0,0,0-2.52-11.44l-.05-.1A19,19,0,0,0,233.9,509a179.47,179.47,0,0,0-18.24-4.8c-2.51-.54-5-1.05-7.55-1.55-18.33-6.93-45.29-6.52-53.47-26.54-3.27-7.76-.41-15.93,4.5-22.88,6.54-7.76,15.12-11.85,23.43-17.35Q185.34,434,188,432a64.71,64.71,0,0,0,9.84-8.89C199.4,421.68,200.32,420.79,200.32,420.79Z" transform="translate(-90.75 -401.23)"/><path class="cls-17" d="M204.63,415.78c10.49-8.32,27.65-12.82,37.86-1,2.86,3.27,4.09,6.95,4.91,11,1.63,7.36-.41,14.3.64,21.71,0,2.82,0,5.85,0,9l-.26,49.63a19.55,19.55,0,0,0-2-8.9l0-.08a14.73,14.73,0,0,0-8.69-7.33,140.38,140.38,0,0,0-14.18-3.74c-2-.42-3.91-.81-5.88-1.2-9.5-3.59-22-4.65-31.15-9.57a25.1,25.1,0,0,1-6.14-4.51c-10.3-12.55-4.43-25.24,5-35.86,1.88-2.13,3.91-4.17,6-6.17,4-3.79,7.67-7.47,11.76-11.19C203.8,416.47,204.63,415.78,204.63,415.78Z" transform="translate(-90.75 -401.23)"/><path class="cls-18" d="M247.18,539.81v1.34c0-.46,0-.91,0-1.36Z" transform="translate(-90.75 -401.23)"/><path class="cls-19" d="M247.62,538l0,3.44c.16-14.08-15.15-20.28-28.67-24.19L168,502.56A31.33,31.33,0,0,1,154.8,450l4.41-4.31a31.34,31.34,0,0,0,15,50.6l50.94,14.73A31.32,31.32,0,0,1,247.62,538Z" transform="translate(-90.75 -401.23)"/><g class="cls-20"><path class="cls-21" d="M240.13,426.59l-2,51.27a.8.8,0,0,1-.85.78.82.82,0,0,1-.78-.78l-2-51.27a2.81,2.81,0,0,1,5.61-.22Z" transform="translate(-90.75 -401.23)"/></g></g></g></svg>