<svg id="Layer_1" data-name="Layer 1" xmlns="http://www.w3.org/2000/svg" viewBox="0 0 831.83 194.62"><defs><style>.cls-1{fill:#231f20;}.cls-2{fill:#fab417;}.cls-3{fill:#0372ad;}.cls-4{fill:#2aaae2;}</style></defs><title>TeamApt 3D Logo</title><path class="cls-1" d="M330.74,440.83H306.37v11.45c0,8.23-4.48,14.5-13.8,14.5h-4.48v23.79h15.77v38.11c0,17.71,11.29,28.63,29.74,28.63,8.6,0,13.08-2,14.16-2.51V532.26a33.61,33.61,0,0,1-7.17.89c-5.91,0-9.85-2-9.85-9.3V490.57h17.37V466.78H330.74Z" transform="translate(-77.9 -396.12)"/><path class="cls-1" d="M379.8,500.59c.54-6.62,6.27-15,17.74-15,12.9,0,17.56,8.23,17.92,15Zm37.63,23.08c-2.51,7-8.06,11.63-17.92,11.63-10.57,0-19.71-7.16-20.24-17.18h62a56.32,56.32,0,0,0,.54-8.41c0-28.62-17-45.62-44.62-45.62-23.11,0-44.43,18.25-44.43,46.88,0,29.88,21.86,47.41,46.4,47.41,22.58,0,36.73-12.88,41-28.27Z" transform="translate(-77.9 -396.12)"/><path class="cls-1" d="M446.74,531.18c0,14.14,11.29,27,30.82,27,11.82,0,20.42-5,25.08-12.52,0,6.08-.18,9.3,0,10H527c-.18-.89,0-6.79,0-13.77V498.44c0-18.25-10.57-34.35-39.42-34.35-26.16,0-38,16.82-39.06,29.52l23.65,4.83c.54-6.62,5.74-13.06,15.23-13.06,8.6,0,13.08,4.48,13.08,9.66,0,3-1.61,5.37-6.45,6.09l-21,3.22C458.39,506.49,446.74,515.44,446.74,531.18Zm37.45,7.34c-7.53,0-10.58-4.47-10.58-9.13,0-6.26,4.31-8.94,10-9.84l16.84-2.68v3.94C500.49,534.58,492.25,538.52,484.19,538.52Z" transform="translate(-77.9 -396.12)"/><path class="cls-1" d="M565.15,555.69V504.53c0-8,5.19-15.39,14.69-15.39,9.85,0,14.33,6.62,14.33,15v51.52h26.88V504.35c0-7.87,5.19-15.21,14.87-15.21s14.15,6.62,14.15,15v51.52h26.34v-57.6c0-24.16-16.12-34-33-34-12,0-20.6,3.94-27.59,14-4.48-8.77-13.61-14-26.34-14-9.67,0-21.14,5-25.62,12.88V466.78h-26v88.91Z" transform="translate(-77.9 -396.12)"/><path class="cls-1" d="M688,532.62c0,13.59,11.29,25.76,28.85,25.76,15.41,0,24-8.23,27.77-14.31,0,6.26-.36,9.48,0,11.62H761c-.36-2.14,0-6.61,0-14.13V498.44c0-16.81-10-31.49-35.84-31.49-18.63,0-33.5,11.46-35.29,27.91L706,498.62c1.07-10,7.71-17.35,19.53-17.35,13.08,0,18.64,7,18.64,15.38,0,3.05-1.44,5.73-6.64,6.45l-23.29,3.39C699.33,508.64,688,517.23,688,532.62Zm31.18,11.62c-8.6,0-14-6.08-14-12.52,0-7.69,5.38-11.81,12.55-12.88l26.34-3.94v3.94C744.13,537.63,733,544.24,719.22,544.24Z" transform="translate(-77.9 -396.12)"/><path class="cls-1" d="M787,589.69V544.07c4.66,7.69,14.7,13.95,28,13.95,25.27,0,40.14-19.86,40.14-45.44,0-25.05-13.8-44.91-39.6-44.91-14,0-24.19,6.8-28.85,15.39V469.64h-16.3V589.69Zm50.89-77.11c0,17.71-9.85,30.41-25.45,30.41-15.4,0-25.61-12.7-25.61-30.41,0-17.18,10.21-30.06,25.61-30.06C828.22,482.52,837.9,495.4,837.9,512.58Z" transform="translate(-77.9 -396.12)"/><path class="cls-1" d="M891.09,442.44H875.68v14c0,7.51-3.94,13.24-13.25,13.24h-4.66v15.21h16.48v47.23c0,15.56,9.32,24.51,24,24.51A36.89,36.89,0,0,0,909.73,555V540.67a34.87,34.87,0,0,1-6.63.71c-8.79,0-12-3.93-12-11.81V484.85h18.64V469.64H891.09Z" transform="translate(-77.9 -396.12)"/><path class="cls-2" d="M144.88,543.74l4,6.43a30.88,30.88,0,0,0-22.58-3.27l-15.41,3.64c-26.33,6.31-44.29-26.23-24.75-45.18l43.56-42.5a63.84,63.84,0,0,0,3.52,62.3Z" transform="translate(-77.9 -396.12)"/><path class="cls-3" d="M237.84,535.6,237.6,560a30.93,30.93,0,0,1-57.28,16.15l-24.76-39.47-12.25-19.3a59.44,59.44,0,0,1-8.86-38.14,57,57,0,0,1,4.49-16.63A31.77,31.77,0,0,0,140,469.3a35.68,35.68,0,0,0,25,25.86l52.42,15.18A28.78,28.78,0,0,1,237.84,535.6Z" transform="translate(-77.9 -396.12)"/><path class="cls-4" d="M238.2,423.88V430l-.72,80.27a.12.12,0,0,0-.13-.12A34.13,34.13,0,0,0,219.51,498L169,483.38a27.23,27.23,0,0,1-18.93-19.67A26.86,26.86,0,0,1,154.35,441a31.21,31.21,0,0,1,3.15-3.64L191.72,404a27.37,27.37,0,0,1,46.48,19.92Z" transform="translate(-77.9 -396.12)"/></svg>