<svg id="Layer_1" data-name="Layer 1" xmlns="http://www.w3.org/2000/svg" viewBox="0 0 1000 1000"><defs><style>.cls-1{fill:#0074bc;}</style></defs><title>tecno</title><path class="cls-1" d="M376.44,455.4c16,0,31.92,0,47.89,0,2,0,2.78-.61,2.71-2.65-.12-3.36,0-6.72,0-10.08,0-3.52,0-3.53-3.45-3.53-22.4,0-44.8.07-67.21,0-17.12-.07-29.35,14.21-28.9,28.88.32,10.63.06,21.28.06,31.92V532.7c0,.21,0,.42,0,.63.28,14.57,12.3,27.2,26.85,27.38,23.44.28,46.9.07,70.35.11,1.77,0,2.33-.73,2.3-2.4-.06-3.57,0-7.14,0-10.71,0-3.08-.05-3.12-3.22-3.13-16.11,0-32.21,0-48.31,0a16,16,0,0,1-16-15.67c-.14-6.58,0-13.16-.06-19.74,0-1.83.74-2.49,2.51-2.46,4.13.05,45.58,0,62.17,0,2.7,0,2.87-.17,2.88-2.85,0-3.15,0-6.3,0-9.45,0-3.7,0-3.7-3.75-3.7H377.47c-4.45,0-8.56-.92-12.15-3.83-6.19-5-7.15-14.06-4.76-21C362.82,459.28,368.84,455.4,376.44,455.4Z"/><path class="cls-1" d="M473.89,468.86a16,16,0,0,1,15.9-13.45c16.1,0,32.19,0,48.29,0,2.66,0,2.87-.21,2.88-2.87,0-3.29,0-6.58,0-9.87,0-3.48,0-3.49-3.53-3.49q-33.48,0-67,0a28.57,28.57,0,0,0-29,28.88q-.08,31.9,0,63.82c0,16.41,12.65,28.92,29.1,28.93h67.6c2.53,0,2.74-.22,2.75-2.78q0-5.14,0-10.29c0-3-.13-3.14-3.25-3.15H490.49c-9.92,0-16.8-6.85-16.81-16.74q0-27.93,0-55.85A18.23,18.23,0,0,1,473.89,468.86Z"/><path class="cls-1" d="M312.8,442.45c0-3.28,0-3.29-3.27-3.29H198.67c-2.78,0-2.89.11-2.9,2.8,0,3.5,0,7,0,10.49,0,2.83.1,2.93,3,2.93h35.06c4.37,0,4.37,0,4.37,4.32v97.84c0,3.24,0,3.25,3.3,3.25H266.9c3.46,0,3.47,0,3.47-3.5q0-42.63,0-85.24c0-9.77,6.91-16.64,16.68-16.66,7.77,0,15.53,0,23.3,0,1.82,0,2.5-.66,2.46-2.47C312.74,449.45,312.8,446,312.8,442.45Z"/><path class="cls-1" d="M672.67,467.68c-.11-16.33-12.81-28.51-29.1-28.51H559.15c-3.45,0-3.46,0-3.46,3.53v69.09q0,23.1,0,46.19c0,1.63.1,2.87,2.28,2.85,9.24-.06,18.48,0,27.72,0,1.66,0,2.23-.7,2.21-2.28,0-3.85,0-7.7,0-11.55v-88.4c0-2.95.16-3.18,2.55-3.18,11.55,0,23.1-.05,34.65,0a14.81,14.81,0,0,1,9.94,3.95c4,3.52,5.58,8,5.56,13.28q-.09,42.51,0,85c0,3,.07,3.1,3,3.1,8.89,0,17.78,0,26.66,0,1.79,0,2.5-.59,2.49-2.43C672.72,528.16,672.87,497.92,672.67,467.68Z"/><path class="cls-1" d="M804.22,467.64a28.5,28.5,0,0,0-28.48-28.47q-29.93,0-59.83,0a28.46,28.46,0,0,0-28.66,28.31q-.24,32.53,0,65.07A28.43,28.43,0,0,0,716,560.79q29.7,0,59.41,0c16.33,0,28.82-12.56,28.86-28.92,0-10.64,0-21.28,0-31.91C804.23,489.19,804.27,478.41,804.22,467.64ZM772.07,528c0,9.79-6.87,16.6-16.69,16.63q-9.76,0-19.53,0c-9.48,0-16.43-7-16.44-16.48q0-28.14,0-56.27c0-9.47,7-16.4,16.48-16.43q9.87,0,19.74,0c9.52,0,16.39,6.93,16.43,16.48,0,9.38,0,18.76,0,28.14S772.1,518.64,772.07,528Z"/></svg>