 <svg viewBox="0 0 125 28" fill="none" xmlns="http://www.w3.org/2000/svg">
 	<path
 		d="M33.6035 13.9451H36.3185V25.732C36.3185 26.3111 36.5621 26.5496 37.1538 26.5496H40.1472C40.7389 26.5496 40.9825 26.3111 40.9825 25.732V13.9451H43.7671C44.3588 13.9451 44.6024 13.7066 44.6024 13.1275V10.7088C44.6024 10.1297 44.3588 9.85718 43.7671 9.85718H40.9825V6.04178C40.9825 5.46265 40.7389 5.22419 40.1472 5.22419H37.1538C36.5621 5.22419 36.3185 5.46265 36.3185 6.04178V9.85718H33.6035C33.0118 9.85718 32.7682 10.1297 32.7682 10.7088V13.1275C32.7682 13.7066 33.0118 13.9451 33.6035 13.9451Z"
 		fill="white" />
 	<path
 		d="M50.0355 1.40879C48.3996 1.40879 47.251 2.66924 47.251 4.16814C47.251 5.70112 48.3996 6.89343 50.0355 6.89343C51.741 6.89343 52.8549 5.70112 52.8549 4.16814C52.8549 2.66924 51.741 1.40879 50.0355 1.40879ZM48.504 9.85718C47.9123 9.85718 47.6687 10.0956 47.6687 10.6748V25.732C47.6687 26.3111 47.9123 26.5496 48.504 26.5496H51.5322C52.1239 26.5496 52.4024 26.3111 52.4024 25.732V10.6748C52.4024 10.0956 52.1239 9.85718 51.5322 9.85718H48.504Z"
 		fill="white" />
 	<path
 		d="M58.2262 9.85718C57.6345 9.85718 57.3561 10.1297 57.3561 10.7088V25.9364C57.3561 26.3792 57.5301 26.5496 57.9826 26.5496H61.498C61.9157 26.5496 62.0898 26.3792 62.0898 25.9364V17.9649C62.0898 15.1374 63.0991 13.6385 65.1875 13.6385C67.2411 13.6385 68.2157 15.1374 68.2157 17.9649V25.9364C68.2157 26.3792 68.4246 26.5496 68.8422 26.5496H72.3577C72.7754 26.5496 72.9494 26.3792 72.9494 25.9364V17.9649C72.9494 15.1374 73.9588 13.6385 76.0472 13.6385C78.066 13.6385 79.0754 15.0693 79.0754 17.9649V25.9364C79.0754 26.3792 79.2842 26.5496 79.7019 26.5496H83.2174C83.635 26.5496 83.8091 26.3792 83.8091 25.9364V17.488C83.8091 12.2759 81.6511 9.51652 77.6135 9.51652C75.3511 9.51652 73.3323 10.4704 71.94 12.5484C70.861 10.5385 69.2251 9.51652 66.7538 9.51652C64.8047 9.51652 63.0992 10.3682 62.0898 11.7308V10.7088C62.0898 10.1297 61.7765 9.85718 61.1848 9.85718H58.2262Z"
 		fill="white" />
 	<path
 		d="M89.463 1C88.8713 1 88.6276 1.23846 88.6276 1.78352V25.766C88.6276 26.3452 88.8713 26.5496 89.463 26.5496H94.9624C101.402 26.5496 105.091 23.3133 105.091 18.1012C105.091 12.7528 101.367 9.85718 94.8928 9.85718H93.8138C93.5005 9.85718 93.3613 9.72091 93.3613 9.41432V1.78352C93.3613 1.23846 93.1177 1 92.526 1H89.463ZM100.253 18.1012C100.253 20.8605 98.3038 22.4957 94.8232 22.4957H93.8138C93.5005 22.4957 93.3613 22.3935 93.3613 22.0188V14.388C93.3613 14.0814 93.5005 13.9451 93.8138 13.9451H94.8232C98.269 13.9451 100.253 15.3418 100.253 18.1012Z"
 		fill="white" />
 	<path
 		d="M109.407 9.85718C108.989 9.85718 108.815 10.0275 108.815 10.4704V18.7484C108.815 24.0968 111.704 26.9243 116.89 26.9243C122.076 26.9243 125 24.1309 125 18.7144V10.4704C125 10.0275 124.826 9.85718 124.408 9.85718H120.893C120.475 9.85718 120.301 10.0275 120.301 10.4704V18.4418C120.301 21.3034 119.152 22.7342 116.89 22.7342C114.628 22.7342 113.549 21.2693 113.549 18.4418V10.4704C113.549 10.0275 113.34 9.85718 112.922 9.85718H109.407Z"
 		fill="white" />
 	<path
 		d="M14.2254 27.2257C21.6498 27.2257 27.6768 21.3338 27.6768 14.0556C27.6768 6.77747 21.6498 0.885599 14.2254 0.885599C6.80098 0.885599 0.773969 6.77747 0.773969 14.0556C0.773969 21.3338 6.80098 27.2257 14.2254 27.2257Z"
 		fill="#C1EAFF" stroke="white" stroke-width="0.452061" />
 	<path
 		d="M11.8232 17.7867C13.9309 17.7867 15.6395 16.1139 15.6395 14.0504C15.6395 11.9868 13.9309 10.314 11.8232 10.314C9.71555 10.314 8.00696 11.9868 8.00696 14.0504C8.00696 16.1139 9.71555 17.7867 11.8232 17.7867Z"
 		fill="#FFE17D" />
 	<path
 		d="M12.641 14.8508C10.7305 14.8508 9.15252 13.4747 8.87331 11.6805C8.33231 12.3254 8.0072 13.1505 8.0072 14.0501C8.0072 16.1136 9.71573 17.7863 11.8233 17.7863C13.9309 17.7863 15.6394 16.1136 15.6394 14.0501C15.6394 13.8572 15.6199 13.6692 15.591 13.4842C14.8912 14.3184 13.8298 14.8508 12.641 14.8508Z"
 		fill="#FFCE86" />
 	<path opacity="0.5"
 		d="M7.09205 8.97971C6.70876 8.97971 6.36281 9.12739 6.1023 9.36389C5.95816 9.30161 5.79953 9.26565 5.63183 9.26565C4.98664 9.26565 4.46362 9.77771 4.46362 10.4094H8.55228C8.55228 9.61981 7.89852 8.97971 7.09205 8.97971Z"
 		fill="white" />
 	<path opacity="0.9"
 		d="M14.6461 12.8876C15.0294 12.8876 15.3754 13.0353 15.6359 13.2718C15.78 13.2095 15.9387 13.1736 16.1064 13.1736C16.7516 13.1736 17.2746 13.6856 17.2746 14.3173H13.1859C13.1859 13.5277 13.8397 12.8876 14.6461 12.8876Z"
 		fill="white" />
 	<path
 		d="M18.8185 16.4685L18.772 16.4861C18.6184 16.5442 18.4734 16.5992 18.3008 16.643C18.1645 16.6777 18.0827 16.814 18.1181 16.9475C18.1479 17.0599 18.2514 17.1345 18.3648 17.1345C18.386 17.1345 18.4076 17.1318 18.4291 17.1264C18.6301 17.0752 18.7958 17.0125 18.956 16.9518L19.0019 16.9344C19.1333 16.8848 19.1988 16.7403 19.1482 16.6116C19.0975 16.483 18.9498 16.4189 18.8185 16.4685Z"
 		fill="black" />
 	<path
 		d="M17.2839 16.7335C16.7398 16.7143 16.4475 16.6036 16.1381 16.4863C15.77 16.3469 15.3892 16.2027 14.6371 16.2027C13.8855 16.2027 13.505 16.3469 13.1371 16.4864C12.7979 16.6149 12.4775 16.7364 11.8212 16.7364C11.1645 16.7364 10.8441 16.6149 10.5048 16.4863C10.1367 16.3469 9.75613 16.2026 9.00427 16.2026C8.25265 16.2026 7.87218 16.3469 7.50423 16.4863C7.19557 16.6034 6.90402 16.7139 6.36214 16.7333C6.22136 16.7384 6.11146 16.8542 6.11663 16.992C6.1218 17.1298 6.24013 17.2371 6.38084 17.2324C7.00835 17.2098 7.3541 17.0788 7.68843 16.952C8.02761 16.8234 8.34796 16.702 9.00431 16.702C9.66089 16.702 9.98137 16.8234 10.3207 16.9521C10.6887 17.0915 11.0693 17.2358 11.8212 17.2358C12.5728 17.2358 12.9533 17.0915 13.3213 16.9521C13.6605 16.8235 13.9808 16.702 14.6372 16.702C15.294 16.702 15.6147 16.8235 15.9541 16.9521C16.2892 17.079 16.6357 17.2103 17.2655 17.2325C17.4054 17.2374 17.5245 17.1298 17.5296 16.992C17.5346 16.8542 17.4246 16.7384 17.2839 16.7335Z"
 		fill="black" />
 	<path
 		d="M14.6374 17.2701C13.8858 17.2701 13.5053 17.4144 13.1373 17.5538C12.7981 17.6824 12.4778 17.8038 11.8214 17.8038C11.1648 17.8038 10.8444 17.6824 10.505 17.5538C10.137 17.4143 9.7564 17.2701 9.00454 17.2701C8.8637 17.2701 8.74951 17.3819 8.74951 17.5198C8.74951 17.6577 8.8637 17.7695 9.00454 17.7695C9.66112 17.7695 9.98161 17.8909 10.3209 18.0195C10.689 18.159 11.0696 18.3032 11.8214 18.3032C12.5731 18.3032 12.9535 18.159 13.3215 18.0195C13.6607 17.8909 13.9811 17.7695 14.6374 17.7695C14.7783 17.7695 14.8924 17.6577 14.8924 17.5198C14.8924 17.3819 14.7783 17.2701 14.6374 17.2701Z"
 		fill="black" />
 	<path
 		d="M5.3466 16.6438C5.17301 16.5998 5.02751 16.5446 4.87347 16.4861C4.74215 16.4363 4.5944 16.5002 4.54353 16.6288C4.49266 16.7574 4.55788 16.902 4.6892 16.9518C4.85004 17.0128 5.01635 17.0759 5.21861 17.1272C5.24007 17.1327 5.26159 17.1353 5.28277 17.1353C5.39618 17.1353 5.49968 17.0606 5.52947 16.9482C5.56484 16.8147 5.48296 16.6784 5.3466 16.6438Z"
 		fill="black" />
 	<path
 		d="M7.76225 14.3348C7.77174 14.4664 7.88371 14.5669 8.0164 14.5669C8.02245 14.5669 8.0285 14.5667 8.03462 14.5663C8.17513 14.5566 8.28098 14.4372 8.27105 14.2996C8.2651 14.2173 8.26211 14.1335 8.26211 14.0503C8.26211 12.1279 9.85958 10.5638 11.8232 10.5638C12.9872 10.5638 14.0801 11.1227 14.7467 12.059C14.8272 12.1721 14.9862 12.1998 15.1017 12.121C15.2173 12.0422 15.2457 11.8865 15.1651 11.7734C14.4032 10.7033 13.1539 10.0644 11.8232 10.0644C9.57836 10.0644 7.75205 11.8525 7.75205 14.0503C7.75202 14.1452 7.75545 14.2409 7.76225 14.3348Z"
 		fill="#FBB540" />
 	<path
 		d="M5.00869 13.8007C4.86785 13.8007 4.75366 13.9125 4.75366 14.0504C4.75366 14.1883 4.86785 14.3001 5.00869 14.3001H6.64417C6.78502 14.3001 6.8992 14.1883 6.8992 14.0504C6.8992 13.9125 6.78502 13.8007 6.64417 13.8007H5.00869Z"
 		fill="#FBB540" />
 	<path
 		d="M11.8232 9.22946C11.964 9.22946 12.0782 9.11766 12.0782 8.97977V7.37852C12.0782 7.24063 11.964 7.12883 11.8232 7.12883C11.6823 7.12883 11.5681 7.24063 11.5681 7.37852V8.97977C11.5681 9.1177 11.6823 9.22946 11.8232 9.22946Z"
 		fill="#FBB540" />
 	<path
 		d="M15.4853 10.7146C15.5505 10.7146 15.6158 10.6902 15.6656 10.6415L16.8221 9.50921C16.9217 9.4117 16.9217 9.25359 16.8221 9.15612C16.7225 9.0586 16.561 9.0586 16.4614 9.15612L15.305 10.2884C15.2054 10.3859 15.2054 10.544 15.305 10.6415C15.3547 10.6902 15.42 10.7146 15.4853 10.7146Z"
 		fill="#FBB540" />
 	<path
 		d="M9.60564 9.4613C9.64631 9.55745 9.74128 9.61551 9.84136 9.61551C9.8739 9.61551 9.90695 9.60938 9.93885 9.59643C10.069 9.54367 10.1308 9.39758 10.0769 9.27021L9.86825 8.77709C9.81436 8.64968 9.66518 8.58922 9.53505 8.64195C9.40492 8.69472 9.34313 8.84081 9.39703 8.96818L9.60564 9.4613Z"
 		fill="#FBB540" />
 	<path
 		d="M16.3723 12.2055C16.413 12.3016 16.508 12.3597 16.6081 12.3597C16.6406 12.3597 16.6736 12.3536 16.7055 12.3406L17.2092 12.1364C17.3393 12.0836 17.4011 11.9375 17.3472 11.8102C17.2933 11.6828 17.1442 11.6223 17.014 11.675L16.5104 11.8793C16.3802 11.932 16.3184 12.0781 16.3723 12.2055Z"
 		fill="#FBB540" />
 	<path
 		d="M13.7075 9.59643C13.7394 9.60939 13.7725 9.61551 13.805 9.61551C13.905 9.61551 14 9.55745 14.0407 9.4613L14.2493 8.96818C14.3032 8.84077 14.2414 8.69472 14.1113 8.64195C13.9812 8.58919 13.832 8.64968 13.7781 8.77709L13.5695 9.27021C13.5156 9.39758 13.5774 9.54363 13.7075 9.59643Z"
 		fill="#FBB540" />
 	<path
 		d="M7.03828 12.3597C7.13835 12.3597 7.23332 12.3016 7.27399 12.2055C7.32789 12.0781 7.2661 11.932 7.13597 11.8792L6.63231 11.675C6.50214 11.6222 6.353 11.6827 6.2991 11.8101C6.24521 11.9375 6.30699 12.0836 6.43712 12.1363L6.94079 12.3406C6.97272 12.3535 7.00577 12.3597 7.03828 12.3597Z"
 		fill="#FBB540" />
 	<path d="M1.0603 15.2695C1.68572 21.8489 7.34014 27 14.226 27C21.1118 27 26.7662 21.8489 27.3916 15.2695H1.0603Z"
 		fill="#00AEFF" />
 	<g opacity="0.35">
 		<path opacity="0.35"
 			d="M26.2913 19.3591C26.8738 18.0911 27.2543 16.7148 27.3916 15.2695H1.0603C1.15908 16.3084 1.38386 17.3115 1.71847 18.2646C6.414 18.7727 18.7821 19.2629 26.2913 19.3591Z"
 			fill="#9AF4EF" />
 	</g>
 	<path
 		d="M1.13687 15.8762H27.3077C27.3368 15.6743 27.3722 15.4743 27.3916 15.2695H1.0603C1.07973 15.4735 1.10788 15.675 1.13687 15.8762Z"
 		fill="#00AEFF" />
 	<path
 		d="M10.4727 6.53717C10.4226 6.53717 10.3746 6.54491 10.3281 6.55623C10.1711 6.39039 9.94869 6.28491 9.69953 6.28491C9.54237 6.28491 9.39705 6.32926 9.27032 6.40131C9.11322 6.2839 8.91923 6.21145 8.70628 6.21145C8.62842 6.21145 8.55398 6.22353 8.48165 6.24108C8.23791 5.98346 7.8923 5.81964 7.50525 5.81964C6.76824 5.81964 6.17078 6.40439 6.17078 7.12572H8.84039H9.64037H11.0741C11.0741 6.80065 10.8048 6.53717 10.4727 6.53717Z"
 		fill="white" />
 	<g opacity="0.5">
 		<path opacity="0.5"
 			d="M10.0732 9.33791C10.0732 8.97259 9.77066 8.6765 9.39746 8.6765C9.34115 8.6765 9.28727 8.68519 9.23493 8.69794C9.05861 8.51156 8.80857 8.39304 8.52856 8.39304C7.99536 8.39304 7.56311 8.8161 7.56311 9.33796H10.0732V9.33791Z"
 			fill="white" />
 	</g>
 	<g opacity="0.5">
 		<path opacity="0.5"
 			d="M22.8285 9.15375C22.7737 9.15375 22.7213 9.16225 22.6704 9.17459C22.499 8.99332 22.2558 8.87809 21.9835 8.87809C21.718 8.87809 21.4793 8.9869 21.3086 9.16033C21.138 8.98811 20.9025 8.87809 20.6381 8.87809C20.1195 8.87809 19.6992 9.28952 19.6992 9.79696H21.0446H22.1403H23.4857C23.4857 9.44176 23.1914 9.15375 22.8285 9.15375Z"
 			fill="white" />
 	</g>
 	<path
 		d="M21.6518 7.42709C21.6518 6.82474 21.1529 6.33641 20.5374 6.33641C20.4205 6.33641 20.31 6.35891 20.2041 6.39162C19.8686 5.91962 19.3121 5.60927 18.6801 5.60927C18.2106 5.60927 17.7833 5.78103 17.4568 6.06251C17.1849 5.73153 16.7693 5.51846 16.3016 5.51846C15.8714 5.51846 15.4873 5.70053 15.2163 5.98692C15.1359 5.9674 15.0532 5.954 14.9666 5.954C14.3932 5.954 13.9283 6.40901 13.9283 6.97021H15.8138C15.7478 7.10961 15.7083 7.26332 15.7083 7.42709H21.6518Z"
 		fill="white" />
 	<g opacity="0.5">
 		<path opacity="0.5"
 			d="M13.0114 4.27405H15.0692C15.0692 3.95652 14.8062 3.6991 14.4818 3.6991C14.4202 3.6991 14.3619 3.71098 14.3061 3.72823C14.1293 3.47941 13.8359 3.31584 13.5028 3.31584C13.1696 3.31584 12.8763 3.47941 12.6994 3.72823C12.6436 3.71098 12.5854 3.6991 12.5237 3.6991C12.3484 3.6991 12.1929 3.77575 12.0853 3.89488C11.898 3.77247 11.678 3.6947 11.4358 3.6947C11.0329 3.6947 10.6782 3.8925 10.4643 4.1934C10.3968 4.17257 10.3264 4.15821 10.2519 4.15821C9.85953 4.15821 9.5415 4.46947 9.5415 4.85344H13.33C13.33 4.61125 13.2032 4.39848 13.0114 4.27405Z"
 			fill="white" />
 	</g>
 </svg>
