<svg xmlns="http://www.w3.org/2000/svg" viewBox="0 0 1000 1000"><title>Nigeria-Logo</title><rect x="7" y="341" width="986" height="294" style="fill:#3e4095"/><path d="M147.09,485.09q0,20.75-10.89,33.59-11.65,13.64-32.13,13.63-3.43,0-10.33-.39t-10.33-.38q-3.68,0-3.68,3.17,0,3.94.77,11.74t.77,11.65q0,2-1.8,2c-3.48,0-8.71-.11-15.68-.3s-12.2-.3-15.69-.3A2.2,2.2,0,0,1,45.62,557q0-9.51.3-28.58t.3-28.58q0-26.91-2.31-56.56l-.09-1.2c-.12-1.09.74-1.74,2.57-2q6.69-.86,29.48-.86,13.45,0,25.8.34,20.31.6,32.73,12.77Q147.09,464.86,147.09,485.09Zm-34.2,1.37q0-20-19.45-20-13.71,0-14.4,1.54-.6,1.13-.6,19.8c0,1.77.07,4.39.22,7.84s.21,6.07.21,7.84q0,1.73,15.43,1.72Q112.89,505.23,112.89,486.46Z" style="fill:#fff"/><path d="M356.64,467.18c0,.63-.57.94-1.72.94q-6.42,0-19.49-1.11t-19.58-1.12q-8.24,0-9.6.6c-2.12,1-3.17,3.72-3.17,8.23q0,8.14,4.11,9.25a23,23,0,0,0,5.23.43q5.91,0,17.69-.64t17.7-.64q2.83,0,2.83,15.08,0,13.11-.94,15.26a2.29,2.29,0,0,1-2.32,1.54q1.11,0-5.4-.6-9.17-.85-27.76-.86-6,0-6.77.09c-2.92.45-4.37,1.68-4.37,3.68q0,12.16,1,28,.86,14.31.86,12.76,0,2.24-5.4,2.58,1.45-.09-7.62-.09-16,0-20.66-1.11c-1.66-.4-2.48-1.29-2.48-2.66q0-9.51.64-28.58t.64-28.58q0-11.31-1-28.45-1.53-26.49-1.62-28.46l-.09-1c-.06-1.42.8-2.14,2.57-2.14q6.34,0,19.15.26t19.24.26q6.85,0,20.61-1t20.61-1q4.29,0,4.8,3.51,0,3.69.35,11.06c.11,1.26.48,3.68,1.11,7.28A44.11,44.11,0,0,1,356.64,467.18Z" style="fill:#fff"/><path d="M444.65,512.94q0,8.65-5.57,9.86-.94.16-17.74,1.88-10.11,1.11-30.16,2.66,1.19,5.56,7.28,8.48a25.67,25.67,0,0,0,11.31,2.4,32.37,32.37,0,0,0,15.34-4.11l6.52-4.12q1.8.87,6,8.75c2.82,5.25,4.24,8.6,4.24,10,0,.4-.43,1.06-1.29,2Q430.17,562,408.14,562q-20.38,0-32.9-11.91Q362.39,538,362.38,517.74q0-19.71,11.48-32.31,11.83-13,31.37-13a37.25,37.25,0,0,1,27.94,12A39.88,39.88,0,0,1,444.65,512.94Zm-30-5.23a13.28,13.28,0,0,0-3.77-9.34,12,12,0,0,0-9-4,10.84,10.84,0,0,0-8.92,4.55,15.6,15.6,0,0,0-3.25,9.85,2.09,2.09,0,0,0,2.4,2.32,149.77,149.77,0,0,0,19.71-2C413.71,508.8,414.66,508.34,414.66,507.71Z" style="fill:#fff"/><path d="M485.27,507.88q0,23.4.17,35.91c0,1.32.09,3.57.26,6.77.17,2.92.26,5.17.26,6.77,0,1.2-.72,1.92-2.14,2.15a94.44,94.44,0,0,1-13.89.68q-10.28,0-13.11-.68a2.55,2.55,0,0,1-2.14-2.32v-3.68q0-7.63.17-22.84t.17-22.76q0-36,.09-32.82A269.73,269.73,0,0,0,453,442.41a9.18,9.18,0,0,1-.17-1.46c0-1.25.74-1.88,2.23-1.88h30.6c1.42,0,2.08.6,2,1.8l-.09,1.54Q485.27,479.43,485.27,507.88Z" style="fill:#fff"/><path d="M587.08,516.63q0,6.6.77,19.62t.78,19.54c0,2.29-1,3.51-3,3.69q-10.64.76-24.34.77c-1.09,0-1.82-1.65-2.19-4.93s-.81-5-1.33-5a8,8,0,0,0-1.8,1.45q-9.59,9.69-20.56,9.69-16.71,0-27.68-13.2-10.38-12.35-10.37-29.48,0-19.8,10.71-31.88,11.15-12.51,30.51-12.51,13.45,0,21.25,9.42c.23.29.43.43.6.43.52,0,1.1-1.38,1.76-4.15s1.44-4.16,2.35-4.16a75.2,75.2,0,0,1,12.09,1.8,122.4,122.4,0,0,1,12.17,2.91c.85.35,1.28.8,1.28,1.37a14.94,14.94,0,0,1-.25,1.8A188.32,188.32,0,0,0,587.08,516.63Zm-27.59.51a16.63,16.63,0,0,0-4.59-12,17.38,17.38,0,0,0-23.86,0,17.73,17.73,0,0,0,.25,24A15.58,15.58,0,0,0,543,534a15.89,15.89,0,0,0,11.91-4.75A16.67,16.67,0,0,0,559.49,517.14Z" style="fill:#fff"/><path d="M641.59,540.71a20,20,0,0,1-5.87,14.48,19.22,19.22,0,0,1-14.27,6,19,19,0,0,1-14.23-6,20.77,20.77,0,0,1,0-28.84,19.92,19.92,0,0,1,28.5,0A19.87,19.87,0,0,1,641.59,540.71Z" style="fill:#fff"/><path d="M710.15,503.09q-.09,0-5.19-1.38a33.61,33.61,0,0,0-8.27-1.37q-7.62,0-12.17,4.59T680,517.14q0,7.89,5,12.38t12.94,4.5a22.67,22.67,0,0,0,8.49-1.93,40.28,40.28,0,0,0,4.45-1.92q1.45,0,3.77,10.88,2,9.94,2,13.2T706,559.82a65.3,65.3,0,0,1-13.29,1.8q-18.84,0-31.1-12.69T649.3,517.31q0-18.76,12.3-31.58t31.06-12.81a44.86,44.86,0,0,1,22.46,5.48c1.48.8,2.23,1.58,2.23,2.32s-.86,4.11-2.57,10.11q-2.4,8.66-3.13,10.46T710.15,503.09Z" style="fill:#fff"/><path d="M808.87,517.31q0,19.55-12,31.71t-31.41,12.17q-18.85,0-31-12t-12.17-30.85q0-19.88,11.65-32.27t31.54-12.38q19.37,0,31.37,12.13T808.87,517.31Zm-28.11,0a18.43,18.43,0,0,0-4.2-11.95,13.34,13.34,0,0,0-10.88-5.19,13.78,13.78,0,0,0-11.14,5.32,19.18,19.18,0,0,0,0,23.73,14.24,14.24,0,0,0,22.2,0A18.33,18.33,0,0,0,780.76,517.31Z" style="fill:#fff"/><path d="M956.19,556.31c0,2-.86,3.11-2.57,3.34s-5.94.34-12.68.34q-10.47,0-13-.51t-2.57-4.2q0-3.94.26-11.79t.25-11.78q0-15-.34-21.34-.51-10.2-9.68-10.2-4,0-8,3.39c-2.65,2.25-4.13,4.75-4.41,7.5q-.35,3.6-.34,21.08,0,4,.25,12.21t.26,12.3c0,1.88-.83,2.83-2.48,2.83h-26c-1.6,0-2.4-1.17-2.4-3.52q0-4,.26-12.08t.25-12.17c0-2.11-.05-5.31-.17-9.6s-.17-7.51-.17-9.68q0-12.25-9.34-12.26a14.84,14.84,0,0,0-8.14,2.92q-4.8,3.17-4.8,6.68,0,7.8.08,23.31t.09,23.23c0,1.42-.17,2.31-.51,2.65a4.92,4.92,0,0,1-2.66.69q-3.86.33-12.17.34-5.4,0-12.25-.51a4.63,4.63,0,0,1-2.45-.6,5,5,0,0,1-.38-2.57q0-6.87.08-20.53t.09-20.52a275,275,0,0,0-2.06-31.63,10.8,10.8,0,0,1-.17-1.54,1.94,1.94,0,0,1,1.2-2,29.46,29.46,0,0,1,7.11-1.29c4.29-.4,6.83-.65,7.63-.77q.85-.17,6.77-1.8a26,26,0,0,1,6.77-1.2q1.63,0,1.71,6t.69,6a8,8,0,0,0,2-1.2,81,81,0,0,1,12.17-8.22,32.53,32.53,0,0,1,14.31-3.17,28,28,0,0,1,14.06,3.51,18.29,18.29,0,0,1,9,11.05,35.92,35.92,0,0,1,12.51-10.36,33.16,33.16,0,0,1,15.51-4.2q11.31,0,18.42,5.22,8.05,5.92,8.06,16.89,0,4.54-.26,13.67t-.25,13.66q0,5.4.25,16.24T956.19,556.31Z" style="fill:#fff"/><path d="M267.8,514.83A61.53,61.53,0,1,1,223,440.23a61.53,61.53,0,0,1,44.82,74.6Z" style="fill:#f7931a"/><path d="M235.24,491.17c1.22-8.19-5-12.59-13.54-15.53l2.76-11.1-6.75-1.68L215,473.66c-1.78-.44-3.6-.86-5.41-1.27l2.71-10.87-6.75-1.69-2.77,11.09c-1.47-.33-2.91-.66-4.31-1v0l-9.32-2.33-1.8,7.21s5,1.15,4.91,1.22c2.74.69,3.23,2.5,3.15,3.93l-3.15,12.64a6.2,6.2,0,0,1,.7.23l-.72-.18-4.41,17.71a2.47,2.47,0,0,1-3.1,1.6c.07.1-4.91-1.22-4.91-1.22l-3.35,7.73,8.79,2.19c1.63.41,3.24.84,4.81,1.24l-2.79,11.22,6.75,1.69,2.76-11.11c1.85.5,3.64,1,5.39,1.4l-2.76,11.05,6.75,1.68,2.8-11.2c11.51,2.18,20.17,1.3,23.82-9.11,2.94-8.39-.15-13.23-6.21-16.38,4.42-1,7.74-3.92,8.63-9.92Zm-15.43,21.64c-2.09,8.39-16.21,3.85-20.79,2.72l3.71-14.87c4.58,1.14,19.26,3.4,17.08,12.15Zm2.08-21.76c-1.9,7.63-13.65,3.75-17.47,2.8l3.37-13.48C211.6,481.32,223.88,483.09,221.89,491.05Z" style="fill:#fff"/></svg>