<svg version="1" xmlns="http://www.w3.org/2000/svg" width="2478.667" height="2478.667" viewBox="0 0 1859 1859"><path d="M657.5 825.6c-11 .9-31.7 1.3-58.3 1.2-35.1-.2-41.5 0-42.2 1.3-.5.8-.7 3.6-.5 6.4 1.4 14 3.7 66.7 3.8 86 .1 12.1-.2 39.6-.7 61-.8 35.3-.7 39.2.7 40.4 4 3.2 53.1 4.2 56.1 1.1 1.2-1.3 1.2-4.3 0-22-.7-11.3-1.3-27.1-1.4-35.2 0-14.1.1-14.8 2.2-16.2 1.9-1.3 6.1-1.6 25.8-1.6 12.9 0 28.4.5 34.4 1 9.6.9 11.2.9 12.5-.5 1.4-1.3 1.6-4.9 1.6-23.8 0-16.2-.3-22.8-1.3-24.5-1.6-2.7-4.4-2.8-39.9-1-28.3 1.3-31.5.9-33.9-4.7-1.7-4.1-1.8-14.9-.3-19.4.6-1.7 1.9-3.6 2.9-4.1 2.7-1.5 29-1.2 48.5.5 9.4.8 20.9 1.5 25.8 1.5h8.7v-2.8c0-1.5-.6-6.5-1.4-11.2-.8-4.7-1.8-13.8-2.1-20.3-.6-10.4-.9-11.9-2.8-13.2-2.6-1.8-13.8-1.8-38.2.1zM226.8 826.9c-3.7.3-7.2 1.1-7.7 1.6-.7.7-.5 7.6.6 21 1.3 15.9 1.7 35.5 1.8 95.7 0 46.6.5 76.1 1 76.7.6.5 13.2 1.2 28 1.6 22.7.6 27.2.5 28.2-.7.9-1 .8-6.2-.5-21.7l-1.6-20.3 2.2-1.8c2-1.6 4.2-1.7 24.9-1.3 26.7.6 33.1-.3 46-6.7 8.7-4.3 18.1-12.1 22.5-18.7 2.1-3 2.7-5.5 3.2-12.4.9-11.6 3.9-23.4 8.2-32.7 3.4-7.3 3.5-8.1 3-14.9-.9-10.2-3-17.5-7.8-27.3-3.3-6.9-5.7-10.1-12.7-17.1-13-12.9-25.9-18.7-46.6-20.9-9.6-1-81.4-1.1-92.7-.1zm85.8 45.6c6.7 2 11.7 6.4 15.1 13.3 2.6 5.2 2.8 6.7 2.8 16.7 0 13.5-1.7 18.6-8 24.4-6.6 6.1-12.5 7.4-30.2 6.9-9.3-.3-14.7-.8-15.5-1.6-1.4-1.4-2.5-49.4-1.4-55.7.5-2.4 1.5-3.9 2.9-4.5 3.8-1.5 28.8-1.2 34.3.5zM859.5 826.9c-.3.6.2 7.7 1.2 15.8 1.6 13 1.8 24.5 1.8 96.5 0 65.7.3 82 1.3 83s6.4 1.3 22.5 1.3c11.7 0 22.3-.3 23.7-.7l2.5-.7v-66.3c0-43.5.5-75.9 1.4-94.3.8-15.4 1.5-29.6 1.5-31.5l.1-3.5-27.7-.3c-16.9-.1-27.9.1-28.3.7zM457.5 855.2c-14.1 1.1-30.5 6.9-42.5 15.1-6.3 4.3-13 10.7-13 12.3 0 .7 2 3.4 4.5 5.8 2.5 2.5 4.5 5.2 4.5 6.1 0 .8.5 1.5 1 1.5.6 0 1 .9 1 2s.5 2 1 2c.6 0 1 .7 1 1.5s.5 1.5 1 1.5c.6 0 1 1.3 1 3 0 1.6.5 3 1 3 .6 0 1 1.3 1 3 0 1.6.5 3 1 3 .6 0 1 1.8 1 3.9 0 2.2.5 4.1 1.1 4.3.7.2 1.3 4.2 1.7 9.6.2 5.1.9 9.2 1.3 9.2.5 0 .9 1.1.9 2.5s-.4 2.5-1 2.5c-.5 0-1 2.3-1 5.1 0 3.8-.5 5.5-1.7 6.5-1.6 1.2-1.5 1.3 1.5 1.4 1.7 0 3.2.4 3.2 1 0 .5 1.3 1 2.8 1 2.5 0 3.1-.6 4-3.9.7-2.1 1.2-4.8 1.2-5.9 0-1.1.4-2.3.9-2.6.8-.6 1.1-1.8 2.7-10.9.3-2 1-4 1.5-4.3.5-.3.9-2 .9-3.9s.5-3.7 1-4c.6-.3 1-2.1 1-4s.5-3.7 1-4c.6-.3 1-2.3 1-4.4 0-3.1-.5-4-2.5-4.9-1.4-.7-3.6-1.2-4.9-1.2-4.2 0-5.2-2.4-3.5-8.8 1.4-5.4 1.7-5.7 4.5-5.5 1.6.1 4.9.7 7.4 1.3 2.5.6 6.1 1.4 8.1 1.7l3.6.5 1.7-7.6 1.8-7.6h3.5c1.9 0 4.7.7 6.4 1.5 3.2 1.7 3.1 1 .4 12-1.1 4.4-1.1 5.1.4 5.7 4 1.7 4.7.9 6.5-6.7 1-4.1 2.2-7.8 2.7-8.1 1.3-.8 10.7 1.7 11.2 3 .3.6-.1 3.3-.8 6.1-2.8 11.3-3.1 10.1 2.8 12.9 6.3 3.1 12.7 8.2 12.7 10.1 0 .7.6 1.5 1.2 1.7.9.3 1.2 2.9 1.2 7.9-.1 6.4-.5 8-2.8 11.6-1.6 2.3-4.1 4.8-5.6 5.5l-2.8 1.2 4.4 4.9c4.3 4.9 4.4 5 4.4 12.1-.1 9.6-3.5 16.6-10.5 21.6l-4.9 3.5h-23.1l-.8 3c-.5 1.6-1.3 4.4-1.8 6.1-.5 1.7-.9 3.8-.9 4.7 0 .9-.5 1.9-1 2.2-1.5.9-11.1-1.7-11.7-3.1-.3-.7.4-4.4 1.4-8.1 2.2-7.9 2-9.3-1.1-9.3-2.3 0-4.6 3.4-4.6 6.6 0 .8-.6 3.2-1.2 5.4-1.4 4.4-3 4.9-10 2.9-2.7-.7-3.8-1.5-3.8-2.9 0-2.7 2-11.1 3.2-13.3 1.2-2.4 1.1-2.5-4.8-3.8-7.8-1.7-15.2-2.2-13.4-.9 1.1.9 1.2 1.3.3 1.7-.7.2-1.3 1.8-1.3 3.4 0 1.6-.4 2.9-1 2.9-.5 0-1 .7-1 1.5s-.4 1.5-1 1.5c-.5 0-1 .9-1 2s-.4 2-1 2c-.5 0-1 .8-1 1.8s-.9 2.4-2 3.2c-1.1.8-2 2-2 2.8 0 .7-1.1 2.4-2.5 3.8s-2.5 2.8-2.5 3.3c0 1.3 12.4 10.9 19.6 15.1 15.2 8.9 37.1 13.3 55 11.1 39.5-4.8 69.9-32 79-70.6 2.1-9 2.2-27.6.1-37-3.6-16.6-12-32.3-23.4-43.9-20-20.4-45.3-29.7-74.8-27.4zM772.5 880.7c-15.8 1.9-29.8 8.5-40 18.9-12.3 12.4-18.6 26.5-20.5 45.4-4 39 15.2 69 50.7 79.2 6.8 2 10 2.3 24.3 2.2 18.2-.1 26.5-1.6 37.6-7.1 6.8-3.3 16.4-11.7 16.4-14.3 0-4-10.9-24.8-14.9-28.4-1.8-1.6-2.2-1.5-8.3 2.4-10.8 6.7-16.6 8.4-29.3 8.4-13.2.1-19.1-2-25.5-9-3.9-4.2-5.3-8.4-2.7-8.4 2.9 0 37.9-3.2 56.7-5.1 12.9-1.3 21.3-2.6 22.7-3.5 4.7-3 5.8-6.1 5.7-16.4-.1-11.2-2.2-19.9-7-29-13.2-25.1-38.4-38.6-65.9-35.3zm9 36.4c6 1.6 12.9 9.2 14.5 15.8.7 3 .9 5.6.4 6.1-1.2 1.2-24.1 4-32.6 4-6.4 0-6.8-.1-7.4-2.5-1.4-5.7 3.8-17.4 9.4-21.1 5.1-3.3 9.5-4 15.7-2.3zM989.3 884c-27 3-47.4 21.2-55 49-1.4 5-1.8 10.3-1.8 23 .1 15.5.2 17 2.9 24.5 9.4 27 29.4 43.7 54.1 45.2 14.3.9 23.9-2.6 35.2-12.9 6.2-5.6 6.6-5.5 7.8 2.7 1.2 8.8.7 8.5 16.4 8.5 7.6 0 17.3-.3 21.5-.7 11.7-.9 11.2 1.5 9.1-39.3-1.9-36.4-1.4-54.3 2.1-78 1.4-9.7 1.4-10.5-.1-11.6-2.1-1.5-16.5-4.9-30.3-7.2-11.8-1.9-11.1-2.2-13.9 6.5-1.7 5.5-3.5 6.6-5.3 3.4-1.5-3-12.7-10-18.4-11.5-7-2-15.7-2.5-24.3-1.6zm29.2 44.8c9 4.6 13.6 12.2 14.3 23.5.4 7.1.2 8.2-2.7 14.1-4.8 9.8-12.2 14.5-23.1 14.6-8.2 0-12.7-1.6-18.1-6.7-6.8-6.3-9.3-12.1-9.3-20.8.1-12.6 6.7-22.6 17.4-26 6.1-2 16.4-1.4 21.5 1.3zM1238 898.5c-17.8 4-33.2 16.6-42 34.3-8.7 17.6-8.2 44.6 1.2 62.5 4.9 9.3 17.6 21.7 26.8 26.1 14.8 7.1 32.3 8.4 50.5 3.7 9.4-2.5 12.9-4.7 13.3-8.6.7-5.6-5.6-34.5-7.5-34.5-.3 0-3.8 1.2-7.7 2.6-12.8 4.7-25.5 2.2-32.5-6.3-5.9-7.1-7-19.2-2.5-28.1 5.7-11.4 17.1-14.8 34.2-10.3 5.4 1.4 7.4 1.6 8.1.7 1.5-1.7 9.2-29.8 8.9-32.1-.4-2.4-6.3-5.9-14.8-8.6-8.7-2.7-26.9-3.5-36-1.4zM1349.5 898.9c-24.7 4.1-42.2 19.1-49.5 42.6-3 9.7-3.8 27.4-1.6 37.5 5.5 26.2 26 44.6 53.2 48 32 4 59.4-12.1 69-40.5 3.5-10.3 4.4-28.9 2-40.4-4.6-21.9-21.9-40-43.3-45.5-7.5-2-22.8-2.8-29.8-1.7zm20.5 40.6c3.3 1.8 8.3 7.2 10.6 11.5 2.6 4.9 2.6 19.1 0 24-4.8 9.2-11.9 13.4-21.2 12.8-8.1-.5-13.4-4-17.8-11.8-2.7-4.8-3.1-6.5-3.1-13 .1-9.1 2.7-15.3 8.7-20.5 6.2-5.3 15.9-6.6 22.8-3zM1515.5 900.4c-7.7 2-11.3 3.8-20 10.1-4.4 3.2-8.7 5.8-9.5 5.9-1.2.1-1.6-1.5-2-7.1-.3-4-1.1-7.8-1.7-8.4-1-1-3.5-.7-12 1.3-6 1.5-15.1 3.2-20.3 3.8-5.2.6-10.1 1.7-10.9 2.5-1.1 1.1-1.1 2.9 0 11.2.8 6.1 1.5 27.5 1.8 57.3l.6 47.5 8 .8c8.8.9 33.6.4 35.4-.7.8-.5 1.1-11.8 1.1-38.6v-37.8l2.5-3.1c3.9-4.6 12.6-8.5 17.6-7.8 5.3.7 8.2 2.7 10.5 7.4 1.7 3.5 1.8 6.8 1.9 40.8 0 20.3.4 37.6.8 38.2 1.1 1.7 42.2 1.9 43.3.2.4-.6.6-17 .5-36.3-.2-34.9-.2-35.1 2.1-39.5 1.3-2.3 4.3-5.7 6.7-7.5 3.5-2.5 5.2-3.1 9.5-3.1 6.3 0 9.6 1.6 12.2 5.8 1.8 3 1.9 5.8 2.2 41.4.3 33.6.5 38.3 1.9 39.5 2.3 1.8 39.3 1.9 41.5 0 1.4-1.1 1.6-7.3 1.6-49.5 0-38.3-.2-49.2-1.4-53.3-1.6-5.9-7.6-13.2-13.8-16.9-5.1-3-15.3-5.5-22.6-5.5-12 0-26.9 6.3-36.8 15.6-3.1 3-5.6 5.2-5.6 5.1-.1-.1-1-1.9-2.1-4.1-2.7-5.3-9.7-11.1-16.4-13.7-7-2.6-19.6-3.4-26.6-1.5z"/><path d="M466.2 917.9c-1.5 4.2-3.2 11.9-3.2 14.5 0 2 .8 2.6 4.4 3.5 11.9 3 19.5 0 19.6-7.6 0-3.6-4.4-8.7-8.2-9.6-1.3-.2-4.4-1.2-7-2l-4.7-1.5-.9 2.7zM458.6 949.1c-2 5.6-4.5 18.4-3.8 19.1 1.1 1.1 13.6 3.8 17.4 3.8 2.9 0 7.5-1.8 9.4-3.5 1.8-1.7 2.6-6.9 1.5-9.8-1.1-2.8-8.2-7.4-13.9-8.9-7.2-1.9-10.2-2.1-10.6-.7zM417.8 963.6c-1.2 2.5-1.4 4.2-.8 4.8.7.7 1 .3 1-1.1 0-1.2.5-2.3 1.1-2.5.6-.2.9-1.4.7-2.7-.3-2.1-.5-1.9-2 1.5zM1141 968.3c-6.5 1.8-11.5 5.2-15.6 10.5-11.7 15.4-6.3 37.8 11.3 46.3 6.3 3 16.9 3.1 23.4.2 5.6-2.5 12-8.6 15.1-14.5 3.3-6.2 3.3-20.4 0-26.5-6.9-13.1-21.1-19.7-34.2-16zM415.2 972.5c0 1.6.2 2.2.5 1.2.2-.9.2-2.3 0-3-.3-.6-.5.1-.5 1.8z"/></svg>