<?xml version="1.0" standalone="no"?>
<!DOCTYPE svg PUBLIC "-//W3C//DTD SVG 20010904//EN"
 "http://www.w3.org/TR/2001/REC-SVG-20010904/DTD/svg10.dtd">
<svg version="1.0" xmlns="http://www.w3.org/2000/svg"
 width="1859.000000pt" height="1859.000000pt" viewBox="0 0 1859.000000 1859.000000"
 preserveAspectRatio="xMidYMid meet">

<g transform="translate(0.000000,1859.000000) scale(0.100000,-0.100000)"
fill="#000000" stroke="none">
<path d="M6575 10334 c-110 -9 -317 -13 -583 -12 -351 2 -415 0 -422 -13 -5
-8 -7 -36 -5 -64 14 -140 37 -667 38 -860 1 -121 -2 -396 -7 -610 -8 -353 -7
-392 7 -404 40 -32 531 -42 561 -11 12 13 12 43 0 220 -7 113 -13 271 -14 352
0 141 1 148 22 162 19 13 61 16 258 16 129 0 284 -5 344 -10 96 -9 112 -9 125
5 14 13 16 49 16 238 0 162 -3 228 -13 245 -16 27 -44 28 -399 10 -283 -13
-315 -9 -339 47 -17 41 -18 149 -3 194 6 17 19 36 29 41 27 15 290 12 485 -5
94 -8 209 -15 258 -15 l87 0 0 28 c0 15 -6 65 -14 112 -8 47 -18 138 -21 203
-6 104 -9 119 -28 132 -26 18 -138 18 -382 -1z"/>
<path d="M2268 10321 c-37 -3 -72 -11 -77 -16 -7 -7 -5 -76 6 -210 13 -159 17
-355 18 -957 0 -466 5 -761 10 -767 6 -5 132 -12 280 -16 227 -6 272 -5 282 7
9 10 8 62 -5 217 l-16 203 22 18 c20 16 42 17 249 13 267 -6 331 3 460 67 87
43 181 121 225 187 21 30 27 55 32 124 9 116 39 234 82 327 34 73 35 81 30
149 -9 102 -30 175 -78 273 -33 69 -57 101 -127 171 -130 129 -259 187 -466
209 -96 10 -814 11 -927 1z m858 -456 c67 -20 117 -64 151 -133 26 -52 28 -67
28 -167 0 -135 -17 -186 -80 -244 -66 -61 -125 -74 -302 -69 -93 3 -147 8
-155 16 -14 14 -25 494 -14 557 5 24 15 39 29 45 38 15 288 12 343 -5z"/>
<path d="M8595 10321 c-3 -6 2 -77 12 -158 16 -130 18 -245 18 -965 0 -657 3
-820 13 -830 10 -10 64 -13 225 -13 117 0 223 3 237 7 l25 7 0 663 c0 435 5
759 14 943 8 154 15 296 15 315 l1 35 -277 3 c-169 1 -279 -1 -283 -7z"/>
<path d="M4575 10038 c-141 -11 -305 -69 -425 -151 -63 -43 -130 -107 -130
-123 0 -7 20 -34 45 -58 25 -25 45 -52 45 -61 0 -8 5 -15 10 -15 6 0 10 -9 10
-20 0 -11 5 -20 10 -20 6 0 10 -7 10 -15 0 -8 5 -15 10 -15 6 0 10 -13 10 -30
0 -16 5 -30 10 -30 6 0 10 -13 10 -30 0 -16 5 -30 10 -30 6 0 10 -18 10 -39 0
-22 5 -41 11 -43 7 -2 13 -42 17 -96 2 -51 9 -92 13 -92 5 0 9 -11 9 -25 0
-14 -4 -25 -10 -25 -5 0 -10 -23 -10 -51 0 -38 -5 -55 -17 -65 -16 -12 -15
-13 15 -14 17 0 32 -4 32 -10 0 -5 13 -10 28 -10 25 0 31 6 40 39 7 21 12 48
12 59 0 11 4 23 9 26 8 6 11 18 27 109 3 20 10 40 15 43 5 3 9 20 9 39 0 19 5
37 10 40 6 3 10 21 10 40 0 19 5 37 10 40 6 3 10 23 10 44 0 31 -5 40 -25 49
-14 7 -36 12 -49 12 -42 0 -52 24 -35 88 14 54 17 57 45 55 16 -1 49 -7 74
-13 25 -6 61 -14 81 -17 l36 -5 17 76 18 76 35 0 c19 0 47 -7 64 -15 32 -17
31 -10 4 -120 -11 -44 -11 -51 4 -57 40 -17 47 -9 65 67 10 41 22 78 27 81 13
8 107 -17 112 -30 3 -6 -1 -33 -8 -61 -28 -113 -31 -101 28 -129 63 -31 127
-82 127 -101 0 -7 6 -15 12 -17 9 -3 12 -29 12 -79 -1 -64 -5 -80 -28 -116
-16 -23 -41 -48 -56 -55 l-28 -12 44 -49 c43 -49 44 -50 44 -121 -1 -96 -35
-166 -105 -216 l-49 -35 -115 0 -116 0 -8 -30 c-5 -16 -13 -44 -18 -61 -5 -17
-9 -38 -9 -47 0 -9 -5 -19 -10 -22 -15 -9 -111 17 -117 31 -3 7 4 44 14 81 22
79 20 93 -11 93 -23 0 -46 -34 -46 -66 0 -8 -6 -32 -12 -54 -14 -44 -30 -49
-100 -29 -27 7 -38 15 -38 29 0 27 20 111 32 133 12 24 11 25 -48 38 -78 17
-152 22 -134 9 11 -9 12 -13 3 -17 -7 -2 -13 -18 -13 -34 0 -16 -4 -29 -10
-29 -5 0 -10 -7 -10 -15 0 -8 -4 -15 -10 -15 -5 0 -10 -9 -10 -20 0 -11 -4
-20 -10 -20 -5 0 -10 -8 -10 -18 0 -10 -9 -24 -20 -32 -11 -8 -20 -20 -20 -28
0 -7 -11 -24 -25 -38 -14 -14 -25 -28 -25 -33 0 -13 124 -109 196 -151 152
-89 371 -133 550 -111 395 48 699 320 790 706 21 90 22 276 1 370 -36 166
-120 323 -234 439 -200 204 -453 297 -748 274z"/>
<path d="M7725 9783 c-158 -19 -298 -85 -400 -189 -123 -124 -186 -265 -205
-454 -40 -390 152 -690 507 -792 68 -20 100 -23 243 -22 182 1 265 16 376 71
68 33 164 117 164 143 0 40 -109 248 -149 284 -18 16 -22 15 -83 -24 -108 -67
-166 -84 -293 -84 -132 -1 -191 20 -255 90 -39 42 -53 84 -27 84 29 0 379 32
567 51 129 13 213 26 227 35 47 30 58 61 57 164 -1 112 -22 199 -70 290 -132
251 -384 386 -659 353z m90 -364 c60 -16 129 -92 145 -158 7 -30 9 -56 4 -61
-12 -12 -241 -40 -326 -40 -64 0 -68 1 -74 25 -14 57 38 174 94 211 51 33 95
40 157 23z"/>
<path d="M9893 9750 c-270 -30 -474 -212 -550 -490 -14 -50 -18 -103 -18 -230
1 -155 2 -170 29 -245 94 -270 294 -437 541 -452 143 -9 239 26 352 129 62 56
66 55 78 -27 12 -88 7 -85 164 -85 76 0 173 3 215 7 117 9 112 -15 91 393 -19
364 -14 543 21 780 14 97 14 105 -1 116 -21 15 -165 49 -303 72 -118 19 -111
22 -139 -65 -17 -55 -35 -66 -53 -34 -15 30 -127 100 -184 115 -70 20 -157 25
-243 16z m292 -448 c90 -46 136 -122 143 -235 4 -71 2 -82 -27 -141 -48 -98
-122 -145 -231 -146 -82 0 -127 16 -181 67 -68 63 -93 121 -93 208 1 126 67
226 174 260 61 20 164 14 215 -13z"/>
<path d="M12380 9605 c-178 -40 -332 -166 -420 -343 -87 -176 -82 -446 12
-625 49 -93 176 -217 268 -261 148 -71 323 -84 505 -37 94 25 129 47 133 86 7
56 -56 345 -75 345 -3 0 -38 -12 -77 -26 -128 -47 -255 -22 -325 63 -59 71
-70 192 -25 281 57 114 171 148 342 103 54 -14 74 -16 81 -7 15 17 92 298 89
321 -4 24 -63 59 -148 86 -87 27 -269 35 -360 14z"/>
<path d="M13495 9601 c-247 -41 -422 -191 -495 -426 -30 -97 -38 -274 -16
-375 55 -262 260 -446 532 -480 320 -40 594 121 690 405 35 103 44 289 20 404
-46 219 -219 400 -433 455 -75 20 -228 28 -298 17z m205 -406 c33 -18 83 -72
106 -115 26 -49 26 -191 0 -240 -48 -92 -119 -134 -212 -128 -81 5 -134 40
-178 118 -27 48 -31 65 -31 130 1 91 27 153 87 205 62 53 159 66 228 30z"/>
<path d="M15155 9586 c-77 -20 -113 -38 -200 -101 -44 -32 -87 -58 -95 -59
-12 -1 -16 15 -20 71 -3 40 -11 78 -17 84 -10 10 -35 7 -120 -13 -60 -15 -151
-32 -203 -38 -52 -6 -101 -17 -109 -25 -11 -11 -11 -29 0 -112 8 -61 15 -275
18 -573 l6 -475 80 -8 c88 -9 336 -4 354 7 8 5 11 118 11 386 l0 378 25 31
c39 46 126 85 176 78 53 -7 82 -27 105 -74 17 -35 18 -68 19 -408 0 -203 4
-376 8 -382 11 -17 422 -19 433 -2 4 6 6 170 5 363 -2 349 -2 351 21 395 13
23 43 57 67 75 35 25 52 31 95 31 63 0 96 -16 122 -58 18 -30 19 -58 22 -414
3 -336 5 -383 19 -395 23 -18 393 -19 415 0 14 11 16 73 16 495 0 383 -2 492
-14 533 -16 59 -76 132 -138 169 -51 30 -153 55 -226 55 -120 0 -269 -63 -368
-156 -31 -30 -56 -52 -56 -51 -1 1 -10 19 -21 41 -27 53 -97 111 -164 137 -70
26 -196 34 -266 15z"/>
<path d="M4662 9411 c-15 -42 -32 -119 -32 -145 0 -20 8 -26 44 -35 119 -30
195 0 196 76 0 36 -44 87 -82 96 -13 2 -44 12 -70 20 l-47 15 -9 -27z"/>
<path d="M4586 9099 c-20 -56 -45 -184 -38 -191 11 -11 136 -38 174 -38 29 0
75 18 94 35 18 17 26 69 15 98 -11 28 -82 74 -139 89 -72 19 -102 21 -106 7z"/>
<path d="M4178 8954 c-12 -25 -14 -42 -8 -48 7 -7 10 -3 10 11 0 12 5 23 11
25 6 2 9 14 7 27 -3 21 -5 19 -20 -15z"/>
<path d="M11410 8907 c-65 -18 -115 -52 -156 -105 -117 -154 -63 -378 113
-463 63 -30 169 -31 234 -2 56 25 120 86 151 145 33 62 33 204 0 265 -69 131
-211 197 -342 160z"/>
<path d="M4152 8865 c0 -16 2 -22 5 -12 2 9 2 23 0 30 -3 6 -5 -1 -5 -18z"/>
</g>
</svg>
