<svg id="Layer_1" data-name="Layer 1" xmlns="http://www.w3.org/2000/svg" viewBox="0 0 825.84 198.65"><defs><style>.cls-1{fill:#1e314c}.cls-2{fill:#3eaef7}</style></defs><g id="Layer_2" data-name="Layer 2"><g id="Layer_1-2" data-name="Layer 1-2"><path class="cls-1" d="M101.92 549.65v-61.11H87.08v-17.26h14.84V466c0-21.28 14.31-31.07 30.31-31.07a38.35 38.35 0 0 1 20.64 6.45L145.61 456c-4.19-2.74-8.06-4.19-12.09-4.19-6.77 0-11.94 4.51-11.94 14.19v5.32H145v17.25h-23.42v61.11zM180.27 447.75c0 15.32-23.22 15.32-23.22 0s23.22-15.32 23.22 0zm-21.44 22.09v79.84h19.67v-79.84zM213 516.92c1.27 9.83 9.83 16.93 23.7 16.93 7.26 0 16.77-2.74 21.29-7.41l12.57 12.42c-8.39 8.71-22.09 12.9-34.22 12.9-27.41 0-43.69-16.93-43.69-42.4 0-24.18 16.47-41.6 42.25-41.6 26.61 0 43.21 16.47 40.15 49.18zm43.21-16.28c-1.27-10.32-9.35-15.47-20.64-15.47-10.64 0-19.35 5.16-22.25 15.47zM309.74 436.94v112.71h-19.51V436.94zM409.55 436.94v112.71h-18.34l-1.27-11c-6.13 9.52-16 12.74-25.64 12.74-23.38 0-41-15.47-41-41.6 0-27.41 17.25-41.6 40.48-41.6 8.39 0 21.44 4.51 26.12 12.74v-44zM343 509.82c0 13.86 10 23.38 22.57 23.38s23.05-9 23.05-23.38a22.68 22.68 0 0 0-22.14-23.21h-.91c-12.57 0-22.57 8.87-22.57 23.21zM448.09 447.75c0 15.32-23.22 15.32-23.22 0s23.22-15.32 23.22 0zm-21.39 22.09v79.84h19.67v-79.84zM522.58 549.65V508c0-12.09-6.61-21.29-19.19-21.29-12.09 0-20.28 10.14-20.28 22.25v40.63H463.6V470h17.59l1.27 10.81c8.06-7.91 16.12-11.94 26.12-11.94 18.7 0 33.7 14 33.7 39v41.82zM611.09 491.28c-5.64-5.32-12.09-7.1-19.67-7.1-9.35 0-14.51 2.9-14.51 7.89s4.68 8.06 14.84 8.71c15 1 34 4.36 34 25.47 0 14-11.41 26.12-34.22 26.12-12.57 0-25.15-2.09-36.75-14.19l9.67-14c5.64 6.34 18.54 11 27.41 11.13 7.41.16 14.35-3.71 14.35-9.52 0-5.49-4.51-7.74-15.8-8.39-15-1.13-32.95-6.61-32.95-24.67 0-18.39 19-24.83 33.54-24.83 12.42 0 21.77 2.42 31 10.48z" transform="translate(-87.08 -400.67)"/><path class="cls-1" d="M551.26 69.17h19.67v79.81h-19.67z"/><path class="cls-1" d="M738.15 462.1l14.51 11-8.87 11.29c6.13 6.93 8.39 14.84 8.39 23.55 0 9.83-3.71 23.7-16.77 29.67 13.22 6.61 16.47 16.12 16.47 26.28 0 21.92-16.77 35.48-39.83 35.48s-40.31-14-40.31-35.48h19.52c0 10.32 9.52 17.1 20.8 17.1s20.15-6.12 20.15-17.1-10.32-16-20.15-16c-24.83 0-40.31-15.21-40.31-40s18-40.3 40.27-40.3c6.34 0 12.74.81 18.22 4.51zm-46.89 45.79c0 13.86 9.35 22.09 20.8 22.09s20.64-8.39 20.64-22.09-9.35-22.42-20.64-22.42-20.83 8.55-20.83 22.43zM786 436.78V481c7.1-9.19 15.8-11.94 24.83-11.94 22.57 0 32.57 15.32 32.57 38.7v41.92h-19.64v-41.85c0-14.51-7.6-20.64-18.06-20.64-11.61 0-19.7 9.81-19.7 21.81v40.63h-19.68V436.78zM887.77 447.75v22.62h21.92v16.88H887.6v34.34c0 7.6 4.19 11.29 10.32 11.29a22.47 22.47 0 0 0 9.52-2.42l5.49 16.77a43.92 43.92 0 0 1-16.28 3.38c-17.25.65-28.54-9.19-28.54-29v-34.36h-14.85v-16.88h14.84v-20.53z" transform="translate(-87.08 -400.67)"/><circle class="cls-2" cx="519.53" cy="44.94" r="8.29"/><circle class="cls-2" cx="539.87" cy="22.75" r="10.15"/><circle class="cls-2" cx="560.17" cy="46.81" r="13.22"/><circle class="cls-2" cx="586.59" cy="15.7" r="15.7"/><path class="cls-2" transform="rotate(-47.5 117.938 333.118)" d="M601.73 432.85h30.1v3.32h-30.1z"/><path class="cls-2" transform="rotate(-47.51 159.22 333.095)" d="M642.9 432.85H673v3.32h-30.1z"/><path class="cls-2" transform="rotate(-42.49 78.66 346.143)" d="M635.84 419.44h3.32v30.1h-3.32z"/></g></g></svg>