<svg xmlns="http://www.w3.org/2000/svg" viewBox="0 0 1000 1000"><title>Nigeria-Logo</title><path d="M178.2,485.21q-12.62-12.66-25.24-25.3-27-26.94-54-53.83a5,5,0,0,1-1.69-3.9q.06-36.39,0-72.77c0-.4.08-.8.13-1.41,1.39.33,2,1.39,2.77,2.16q45.6,45.58,91.15,91.19,30.57,30.6,61.12,61.19c.8.81,1.91,1.4,2.09,2.7Z" style="fill:#bbd408"/><path d="M178.2,485.21l76.33,0c-.17,1.17-1.17,1.72-1.9,2.44q-59.76,59.82-119.56,119.6c-.73.72-1.27,1.75-2.47,1.89,0-1.28,0-2.55,0-3.83V532.92Q154.37,509.06,178.2,485.21Z" style="fill:#029ca2"/><path d="M130.55,532.92v72.42c0,1.28,0,2.55,0,3.83-1.23-.06-1.76-1.1-2.49-1.82q-60-60-119.91-119.93c-.64-.63-1.6-1.09-1.59-2.22l76.34.05q14.24,14.28,28.48,28.58Q121,523.39,130.55,532.92Z" style="fill:#d32f13"/><path d="M83,485.25,6.61,485.2c0-1.09,1-1.59,1.61-2.24q20.22-20.35,40.46-40.71a5.35,5.35,0,0,1,4.16-1.81q34.75.07,69.51,0a2.47,2.47,0,0,1,2,.42c-.34,1.22-1.43,2-2.26,2.82q-18.93,20.05-37.91,40.07C83.74,484.25,83.35,484.76,83,485.25Z" style="fill:#d38602"/><path d="M350.64,461q25.89,0,41.74,15.26t15.85,40q0,24.75-15.85,40t-41.74,15.26H309.06V461Zm-.94,86.92q14.74,0,23.61-8.66t8.87-23q0-14.34-8.87-23t-23.61-8.66H335v63.34Z" style="fill:#414141"/><path d="M447.07,453.69a15,15,0,0,1,4.16,10.56,14.29,14.29,0,0,1-4.16,10.47,14,14,0,0,1-10.44,4.21,13.79,13.79,0,0,1-10.35-4.21,14.43,14.43,0,0,1-4.08-10.47,15,15,0,0,1,4.08-10.64,13.52,13.52,0,0,1,10.35-4.37A13.67,13.67,0,0,1,447.07,453.69Zm-23,117.77v-82.8h25.11v82.8Z" style="fill:#414141"/><path d="M551.5,571.46H526.39v-6.6q-9.57,9.07-24.48,9.07-16,0-27.22-12.28t-11.22-31.59q0-19.14,11.22-31.5t27.22-12.37q14.91,0,24.48,9.07v-6.6H551.5Zm-30.84-26q5.73-6,5.73-15.42a21.53,21.53,0,0,0-5.73-15.34,18,18,0,0,0-13.57-6.1,17.41,17.41,0,0,0-13.65,6q-5.34,6-5.34,15.42,0,9.57,5.34,15.5a17.53,17.53,0,0,0,13.65,5.94A18.08,18.08,0,0,0,520.66,545.48Z" style="fill:#414141"/><path d="M693.2,495.5q8.63,9.33,8.63,24.17v51.79h-25V525.28q0-6.93-3.77-11.14a12.12,12.12,0,0,0-9.41-4.2,13.43,13.43,0,0,0-11.22,5.36q-4.15,5.36-4.16,15.58v40.58H623.21V525.28q0-6.93-3.76-11.14a12.29,12.29,0,0,0-9.58-4.2,13,13,0,0,0-11.06,5.36q-4,5.36-4,15.58v40.58H569.7v-82.8h25.11v7.59q8.63-10.06,23.22-10.06,17.43,0,25.74,14,10.2-14,27.93-14A28.1,28.1,0,0,1,693.2,495.5Z" style="fill:#414141"/><path d="M788,498.72q12.56,12.21,12.55,31.34,0,19.31-12.55,31.5t-30.6,12.21q-18.36,0-31-12.21t-12.63-31.5q0-19.14,12.63-31.34t31-12.21Q775.43,486.51,788,498.72Zm-17.26,46.76q5.65-6,5.65-15.42t-5.73-15.42a17.77,17.77,0,0,0-13.26-6,18.34,18.34,0,0,0-13.65,6q-5.81,6-5.81,15.42t5.73,15.42a18.27,18.27,0,0,0,13.73,6A17.69,17.69,0,0,0,770.72,545.48Z" style="fill:#414141"/><path d="M885,495.67q8.38,9.48,8.39,25v50.8H868.48V526.27q0-7.26-3.76-11.8a12.08,12.08,0,0,0-9.73-4.53q-7.69,0-12,5.69T838.67,533v38.43H813.56v-82.8h25.11v7.92q9.41-10.4,24.16-10.39Q876.65,486.19,885,495.67Z" style="fill:#414141"/><path d="M993.39,571.46h-25.1v-6.6q-9.59,9.07-24.48,9.07-16,0-27.23-12.28t-11.22-31.59q0-19.14,11.22-31.5t27.23-12.37q14.9,0,24.48,9.07V452.7h25.1Zm-30.83-26q5.73-6,5.73-15.42a21.53,21.53,0,0,0-5.73-15.34,18,18,0,0,0-13.58-6.1,17.41,17.41,0,0,0-13.65,6q-5.33,6-5.33,15.42,0,9.57,5.33,15.5A17.53,17.53,0,0,0,949,551.5,18.1,18.1,0,0,0,962.56,545.48Z" style="fill:#414141"/><path d="M640.9,639.08l-19.34-35.61h12l9.09,18c.48,1,.93,1.92,1.34,2.9s.78,1.86,1.1,2.65.58,1.43.76,1.94.3.74.32.71h.2c.32-.87.67-1.77,1-2.69s.7-1.66,1.12-2.63.89-1.93,1.37-2.88l9-18h12l-19.33,35.61v25.58H640.9Z" style="fill:#bdd510"/><path d="M666.67,642.69a23.48,23.48,0,0,1,1.8-9.28,21.94,21.94,0,0,1,12.19-12,24.49,24.49,0,0,1,17.93,0,22,22,0,0,1,12.23,12,24.69,24.69,0,0,1,0,18.56,22,22,0,0,1-12.19,12,24.49,24.49,0,0,1-17.93,0,22.43,22.43,0,0,1-7.31-4.76,22.18,22.18,0,0,1-4.92-7.28A23.45,23.45,0,0,1,666.67,642.69Zm10.56,0a15.21,15.21,0,0,0,1,5.6,12.84,12.84,0,0,0,2.68,4.31,12,12,0,0,0,8.79,3.77,11.67,11.67,0,0,0,4.76-1,12.07,12.07,0,0,0,3.94-2.78,13,13,0,0,0,2.69-4.31,15.42,15.42,0,0,0,1-5.6,15.26,15.26,0,0,0-1-5.55,13.22,13.22,0,0,0-2.69-4.33,12.19,12.19,0,0,0-3.94-2.82,11.37,11.37,0,0,0-4.76-1,11.62,11.62,0,0,0-4.83,1,12.05,12.05,0,0,0-4,2.82,13,13,0,0,0-2.68,4.33A15.05,15.05,0,0,0,677.23,642.69Z" style="fill:#bdd510"/><path d="M718.06,620.73h10.4v26a22.73,22.73,0,0,0,.28,3.67,7.57,7.57,0,0,0,1,2.81,5,5,0,0,0,2,1.83,6.82,6.82,0,0,0,3.18.66,10.14,10.14,0,0,0,5-1.22,11.32,11.32,0,0,0,3.69-3.26,15.41,15.41,0,0,0,2.26-4.72,19.93,19.93,0,0,0,.78-5.62V620.73h10.41v43.93h-10v-5c0-.42,0-.82,0-1.2s0-.7.06-1,.05-.62.08-.93h-.16a14.52,14.52,0,0,1-2.12,3.37,16.53,16.53,0,0,1-3.22,2.94,16.11,16.11,0,0,1-4.17,2.08,15.38,15.38,0,0,1-5,.78,18.7,18.7,0,0,1-6.05-.92,11.22,11.22,0,0,1-4.58-2.95,13.16,13.16,0,0,1-2.9-5.2,25.61,25.61,0,0,1-1-7.68Z" style="fill:#bdd510"/><path d="M766.16,620.73h10v7.57c0,.42,0,.82,0,1.18s0,.69-.06,1-.05.62-.08.92h.16a19.06,19.06,0,0,1,2-4.41,15.74,15.74,0,0,1,3-3.58,13.59,13.59,0,0,1,3.83-2.4,11.6,11.6,0,0,1,4.52-.88c.24,0,.48,0,.7,0a5.22,5.22,0,0,1,.62.06l.56.08V631l-.72-.09c-.21,0-.46-.05-.76-.06l-1,0a11.08,11.08,0,0,0-3.38.53,10.77,10.77,0,0,0-3.24,1.64,12.33,12.33,0,0,0-2.81,2.86,13.68,13.68,0,0,0-2,4.19,21.8,21.8,0,0,0-.7,3.42,30,30,0,0,0-.22,3.73v17.42H766.16Z" style="fill:#bdd510"/><path d="M815.21,603.47h20.86a23.43,23.43,0,0,1,7.23,1.06,16.31,16.31,0,0,1,5.68,3.05,13.62,13.62,0,0,1,3.71,4.94,16.33,16.33,0,0,1,1.32,6.73,16.06,16.06,0,0,1-1.86,7.75,13.21,13.21,0,0,1-5.19,5.34v.17a12.28,12.28,0,0,1,4.17,2.23,14,14,0,0,1,2.94,3.39,14.38,14.38,0,0,1,1.74,4.19,19.2,19.2,0,0,1,.56,4.58,18,18,0,0,1-1.62,7.93,15.68,15.68,0,0,1-4.38,5.54,18.46,18.46,0,0,1-6.41,3.24,27.5,27.5,0,0,1-7.65,1h-21.1Zm20.86,25a7.32,7.32,0,0,0,3.07-.61,6.73,6.73,0,0,0,2.26-1.66,7.22,7.22,0,0,0,1.4-2.51,9.71,9.71,0,0,0,.48-3.09,9.53,9.53,0,0,0-.46-3,6.69,6.69,0,0,0-1.4-2.4,6.59,6.59,0,0,0-2.32-1.58,8.67,8.67,0,0,0-3.23-.56h-10v15.44Zm1,26.64a9.41,9.41,0,0,0,3.61-.65,7.53,7.53,0,0,0,2.64-1.83,7.91,7.91,0,0,0,1.64-2.82,11.15,11.15,0,0,0,.56-3.58,10.26,10.26,0,0,0-.58-3.51,8.16,8.16,0,0,0-1.66-2.8,7.28,7.28,0,0,0-2.64-1.83,9.09,9.09,0,0,0-3.57-.66H825.82v17.68Z" style="fill:#bdd510"/><path d="M860.32,652a12.11,12.11,0,0,1,1.36-6,13.06,13.06,0,0,1,3.54-4.12,17.47,17.47,0,0,1,4.93-2.61,37.87,37.87,0,0,1,5.5-1.46,43,43,0,0,1,5.25-.63q2.48-.12,4.2-.12h1.4v-.63a9.76,9.76,0,0,0-.6-3.64,5.9,5.9,0,0,0-1.68-2.4,6.62,6.62,0,0,0-2.56-1.31,12.6,12.6,0,0,0-3.21-.4,14.12,14.12,0,0,0-4.34.66,23.86,23.86,0,0,0-3.66,1.45,22.74,22.74,0,0,0-3.49,2.1L863,625.1a25.81,25.81,0,0,1,4.48-2.69,35.86,35.86,0,0,1,5.15-1.87,24.12,24.12,0,0,1,6.74-.86,21.89,21.89,0,0,1,7.37,1.15,14.32,14.32,0,0,1,5.47,3.41,15,15,0,0,1,3.4,5.51,21.69,21.69,0,0,1,1.18,7.43v27.48h-9.61V661c0-.42,0-.82,0-1.2s0-.71.06-1,.06-.61.08-.92h-.16l-.24.54a11.06,11.06,0,0,1-.9,1.48,13.51,13.51,0,0,1-1.62,1.87,14.37,14.37,0,0,1-2.4,1.87,13.08,13.08,0,0,1-3.29,1.45,14.55,14.55,0,0,1-4.24.57,16.2,16.2,0,0,1-5.38-.9,13.42,13.42,0,0,1-4.55-2.65,12.6,12.6,0,0,1-3.12-4.32A14.11,14.11,0,0,1,860.32,652Zm10.49-.5a5.7,5.7,0,0,0,.4,2.12,5,5,0,0,0,1.18,1.81,6,6,0,0,0,2,1.27,7.39,7.39,0,0,0,2.78.48,7.22,7.22,0,0,0,3.79-1,10.42,10.42,0,0,0,3-2.74,13.5,13.5,0,0,0,2-3.72,12.39,12.39,0,0,0,.7-4.06v-1h-1.8c-.91,0-1.88,0-2.9.08a30.46,30.46,0,0,0-3.11.34,21.88,21.88,0,0,0-3,.71,9.26,9.26,0,0,0-2.54,1.25,6.14,6.14,0,0,0-1.76,1.87A5,5,0,0,0,870.81,651.49Z" style="fill:#bdd510"/><path d="M905.26,620.73h10v5c0,.42,0,.81,0,1.18s0,.68-.06,1-.05.61-.08.89h.16a18.25,18.25,0,0,1,1.9-3,15.62,15.62,0,0,1,3-3,16.76,16.76,0,0,1,4.29-2.27,16.32,16.32,0,0,1,5.62-.9,18.25,18.25,0,0,1,6.17,1,11.15,11.15,0,0,1,4.54,3,13.64,13.64,0,0,1,2.83,5.22,25.91,25.91,0,0,1,1,7.49v28.28H934.29v-26A22.7,22.7,0,0,0,934,635a7.86,7.86,0,0,0-1-2.82,5.17,5.17,0,0,0-2-1.83,7.45,7.45,0,0,0-3.31-.65,11.41,11.41,0,0,0-3.88.65,10.7,10.7,0,0,0-3.22,1.85,12.37,12.37,0,0,0-2.47,2.85,14.82,14.82,0,0,0-1.64,3.61,14.41,14.41,0,0,0-.6,2.82,27.43,27.43,0,0,0-.16,3v20.16H905.26Z" style="fill:#bdd510"/><path d="M953.13,603.47h10.41v32.74h5.16l10.09-15.48h11.57l-13.21,19.61v.21L992,664.66H980l-11-19.23h-5.44v19.23H953.13Z" style="fill:#bdd510"/></svg>