<svg id="Layer_1" data-name="Layer 1" xmlns="http://www.w3.org/2000/svg" viewBox="0 0 841.89 595.28"><title>FilmHouse- Colour</title><path d="M147.16,306.94H137V284.4h10.2V267.55c0-19.92,7.83-32.26,38-32.26h1.42v24.43h-2.13c-5.93,0-8.54,2.61-8.54,10.44V284.4h10.44v22.54H175.87V410.85H147.16V306.94ZM190.81,240H220V268.5H190.81Zm.24,44.37h28.71V410.85H191.05V284.4Z"/><path d="M227.35,235.29h28.71V410.85H227.35V235.29Z"/><path d="M262.7,284.4h28.94v13.76c5.22-7.12,15.9-15.42,25.62-15.42,9.49,0,15.43,3.56,17.32,15.66,5.93-7.83,17.56-15.66,26.34-15.66,11.62,0,18.26,4.74,18.26,26.33V410.85h-28.7V319.27c0-6.4-1-9.49-4.75-9.49-3.08,0-7.35,2.85-10.44,5.93v95.14h-28.7V319.27c0-6.4-.95-9.49-4.51-9.49s-7.83,3.09-10.44,5.93v95.14H262.7V284.4Z"/><path d="M389.38,235.29h10.21V301c5.22-7.12,14.23-16.37,25.14-16.37,11.63,0,17.32,7.35,17.32,29.89v96.32h-10.2V315.48c0-13.53-.71-21.12-9.25-21.12-6.88,0-16.13,8.07-23,17.08v99.41H389.38Z"/><path d="M452.73,348.69c0-43.18,7.83-64.05,28.47-64.05,20.4,0,28.46,20.87,28.46,64.05,0,42.71-8.06,63.82-28.46,63.82S452.73,391.4,452.73,348.69Zm46.5-.24c0-28.94-2.14-54.32-18-54.32-15.19,0-18.27,23.24-18.27,54.32,0,29.18,2.13,54.57,18.27,54.57C496.38,403,499.23,380,499.23,348.45Z"/><path d="M520.34,382.14V286.3h10.2v94.89c0,13.53.71,21.12,9.25,21.12,6.88,0,16.13-8.07,23-17.08V286.3H573V410.85H562.8v-15C557.58,403,548.57,412,537.66,412,526,412,520.34,404.68,520.34,382.14Z"/><path d="M578.93,387.6l9-3.32c4.51,12.33,11.15,19.21,21.59,19.21,10.2,0,14.71-7.11,14.71-18,0-12.57-8.54-22.77-17.8-33.92C596,339,585.1,326.15,585.1,310c0-14.95,9.73-25.86,24.2-25.86,13.52,0,20.4,8.78,25.86,23.49l-9,3.32c-3.56-10-7.83-17.32-16.85-17.32-8.3,0-13.76,6.88-13.76,16.37,0,13.76,9.73,24.2,18.74,34.88,10.68,13,20.41,25.62,20.41,40.56,0,16.14-8.78,27.52-25.15,27.52C594.36,413,585.34,404.68,578.93,387.6Z"/><path d="M640.62,348.69c0-44.13,8.06-64.05,28.47-64.05,23.25,0,26.57,32,26.57,62.86v1.19H650.82c0,34.88,3.56,54.33,18.5,54.33,10.92,0,13.76-8.07,16.37-26.33l9,.94c-3.08,26.1-13.05,34.88-25.86,34.88C648.68,412.51,640.62,392.34,640.62,348.69Zm44.6-9c-.24-25.39-3.08-45.55-16.13-45.55-13.29,0-16.61,14.47-18.27,45.55Z"/><path d="M417.11,254.21c0-14.92,10.07-20.28,18.74-20.28,9.7,0,13.82,5.36,16.17,11.39L444.37,248c-1.54-4.41-4.33-6.54-8.67-6.54-5.14,0-9.48,3.38-9.48,12.71,0,8.31,3.38,12.86,9.34,12.86,4.11,0,7-1.25,9.11-6.76l7.49,2.72c-2.79,6.25-7.42,11.46-16.82,11.46C426.3,274.49,417.11,268.47,417.11,254.21Z"/><path d="M457.46,220h9.25v7.86h-9.25Zm.07,14.62h9.11v39h-9.11Z"/><path d="M474.94,234.66h9.12V240a19.34,19.34,0,0,1,14.25-6c6.84,0,11.25,4,11.25,11.76v28h-9.12V248c0-4.33-1.83-6.32-5.8-6.32s-7.28,2.06-10.58,5.08v27h-9.12Z"/><path d="M514.85,254.21c0-14.84,10.5-20.28,18.59-20.28,8.74,0,17.12,5.22,17.12,21.09v2.13H523.88c.37,7.05,4.71,10.14,10.44,10.14a14.16,14.16,0,0,0,10.95-4.55l4.78,4.7a21.08,21.08,0,0,1-16.39,7.05C523.88,274.49,514.85,268.54,514.85,254.21Zm27.41-3.82c-.52-5.95-3.46-9.11-8.9-9.11-4.4,0-8.45,2.5-9.33,9.11Z"/><path d="M556.29,234.66h9V240a17.74,17.74,0,0,1,13.37-6.1c6.54,0,9.12,2.57,10.66,6.39A18.47,18.47,0,0,1,603,233.93c7.93,0,11.39,4.78,11.39,11.76v28h-9V248c0-4.33-1.25-6.31-5.51-6.31-3.68,0-6.62,2-10,5.07v27h-9V248c0-4.33-1.24-6.31-5.51-6.31-3.6,0-6.61,2-10,5.07v27h-9v-39Z"/><path d="M619.49,264.28c0-8.45,7.2-14.11,25.42-16.17v-1.17c0-3.9-2-5.59-6.39-5.59-5.44,0-9.85,2.65-13.15,5.29L621,241a28,28,0,0,1,18.81-7c10.43,0,14,5,14,14.11v16.09c0,4.7.29,7.57,1.1,9.55H645.8a14,14,0,0,1-.89-5c-4,4-8.59,5.58-14.4,5.58C624.19,274.27,619.49,270.74,619.49,264.28Zm25.42-1.47v-8.6c-10.8,1.47-16.53,4.12-16.53,8.38,0,3.08,2.13,4.7,5.44,4.7A15.55,15.55,0,0,0,644.91,262.81Z"/><path d="M658.36,268.32l4.92-5.51a19.24,19.24,0,0,0,12.28,4.63c4.85,0,7.79-1.25,7.79-4.48s-4-4.12-8.68-5.22C668,256.2,660,254.43,660,245.39c0-6.83,5.88-11.46,14.47-11.46,7.43,0,12,2.13,16,5.51l-4.33,5.88c-2.87-2.35-7.5-4.26-11-4.26-5,0-6.62,1.76-6.62,4,0,3.16,3.9,4.11,8.53,5.14,6.68,1.47,14.84,3.16,14.84,12.27,0,8.23-7.42,12.05-16.31,12.05C668.35,274.49,661.89,271.92,658.36,268.32Z"/></svg>