<svg xmlns="http://www.w3.org/2000/svg" width="571" height="164" viewBox="0 0 571 164">
  <g fill="#0090FC">
    <path d="M162.72,90.87 L121.59,90.87 L121.51,90.87 L121.3,91.09 L121.41,91.27 L120.81,91.48 L120.48,91.93 L120,91.93 L119.78,92 L119.78,92.13 L119.53,92.42 L119.53,92.63 L119.65,92.72 L119.35,93.17 L119.07,93.53 L119.07,94 L118.81,94.56 L118.17,95.49 L117.79,95.65 L117.57,95.65 L117.66,95.75 L117.66,96.02 L117.54,96.2 L117.16,97.37 L116.87,98.11 L116.87,98.52 L117.37,98.95 L117.74,99.37 L117.98,99.37 L118.21,100.02 L118.11,100.23 L117.96,100.18 L117.75,100.32 L117.64,100.75 L117.64,101.4 L117.9,101.66 L117.9,102.08 L117.66,102.28 L117.72,102.67 L117.91,103.14 L117.81,103.14 L117.92,103.36 L117.99,103.7 L118.2,103.88 L118.02,104.17 L118.19,104.37 L118.37,104.9 L118.31,105.17 L118.94,105.77 L119.4,105.84 L119.78,106.16 L119.78,106.34 L119.91,106.42 L119.85,106.84 L119.75,107.05 L119.85,107.13 L119.48,107.65 L119.48,107.84 L119.55,107.97 L119.55,108.08 L119.41,108.21 L119.49,108.84 L119.69,109.22 L119.59,109.33 L119.59,109.78 L119.69,109.89 L119.69,110.33 L119.5,110.51 L119.57,110.98 L119.44,111.86 L119.37,111.86 L119.47,112.01 L119.47,112.8 L119.2,112.8 L119.2,112.9 L119.29,113.03 L119.64,113.03 L119.74,113.11 L119.82,113.79 L119.64,114.05 L119.45,114.15 L119.56,114.31 L119.56,114.48 L119.33,114.48 L119.08,114.74 L119.15,114.83 L119.23,114.76 L119.45,114.76 L119.29,114.99 L119.29,115.35 L119.07,115.35 L118.68,115.84 L118.68,116.06 L118.33,116.54 L118.04,116.54 L118.04,116.87 L116.86,117.51 L116.69,117.51 L116.6,117.76 L115.47,118.36 L115.04,118.36 L115.04,118.45 L114.52,118.69 L113.81,119.16 L113.64,119.04 L113.64,119.26 L113.21,119.79 L112.99,119.89 L112.87,119.6 L112.79,120.06 L112.59,120.12 L112.52,120.38 L111.81,120.81 L111.81,120.99 L111.63,121.15 L111.46,121.2 L111.46,121.45 L111,121.45 L110,122.08 L110,122.48 L109.69,122.71 L109.27,122.71 L109.09,122.94 L108.76,122.73 L108.57,122.73 L108.57,123 L108.74,123.2 L108.74,123.48 L108.61,123.66 L108.61,123.92 L108.42,124.2 L108.93,124.89 L108.93,125.13 L108.71,125.31 L108.88,125.39 L109.07,125.7 L109.07,126.12 L109.28,126.51 L109.19,127.61 L109.29,128 L109.42,128 L109.42,127.69 L109.62,127.27 L109.62,127.64 L109.7,127.64 L109.7,128.12 L109.56,128.3 L109.56,128.78 L109.64,128.85 L109.43,129.41 L109.43,129.71 L109.27,129.91 L109.27,130.27 L109.17,130.27 L109.24,130.58 L109.51,130.42 L109.57,130.62 L109.35,130.95 L109.24,131.41 L108.6,132.09 L107.45,132.61 L105.9,132.92 L105.3,133.49 L104.85,133.6 L104.71,133.81 L104.49,133.99 L104.36,134.43 L104.18,134.43 L104.01,134.54 L104.09,134.64 L104.26,134.96 L104.26,135.28 L104.42,135.07 L104.67,135.15 L104.75,134.85 L104.87,134.85 L104.87,135 L104.8,135.5 L104.62,135.79 L104.62,136.15 L104.41,136.43 L104.51,136.43 L104.3,137.07 L104.24,137.62 L103.98,138.15 L103.81,138.83 L103.55,139.14 L103.47,139.45 L103,140 L102.84,140 L102.74,140.15 L102.38,140.32 L102.21,140.52 L101.78,140.8 L101.57,141.22 L101.22,141.62 L101.22,141.79 L101.02,142.17 L100.68,142.17 L100.41,142.69 L99.71,144 L99.14,144.53 L99.05,145.03 L98.72,145.17 L98.41,145.54 L98.23,145.54 L98.15,145.68 L96.3,147.5 L96.08,147.5 L96.08,147.59 L95.78,147.93 L94.57,148.71 L94.31,148.99 L93.88,149.12 L93.88,149.23 L93.2,149.41 L92.82,149.65 L92.42,149.65 L92.22,149.5 L91.68,149.5 L91.24,149.64 L91.05,149.96 L91.31,150.18 L91.31,150.28 L90.69,150.28 L90.33,150.1 L90.04,150.1 L89.79,150.35 L89.9,150.57 L89.79,150.68 L88.94,150.5 L88.7,150.31 L87.88,150.11 L87.35,150.21 L87.35,150.34 L87.07,150.44 L86.66,150.22 L85.71,150.22 L85.43,150.35 L85.35,150.65 L85.16,150.56 L84.94,150.62 L84.74,150.78 L84.64,150.92 L84.22,150.92 L83.94,151.04 L83.42,150.85 L83,151 L82.92,151.12 L82.49,151.03 L82.11,151.46 L81.79,151.52 L81.68,151.78 L81.49,151.71 L81.32,151.79 L80.44,151.38 L80.26,151.48 L80.26,151.06 L79.93,150.88 L79.67,151.01 L79.51,150.94 L79.65,150.82 L79.56,150.45 L79.15,150.38 L78.85,150.64 L78.85,150.96 L78.63,150.79 L78.63,150.43 L78.75,150.13 L78.67,149.69 L78.91,149.29 L78.6,148.73 L78.29,148.45 L78,148 L78,147.54 L78.19,147.37 L78.36,147.55 L78.52,147.55 L78.73,147.32 L78.83,146.78 L78.64,146.18 L78.64,145.91 L78.14,145.07 L78.14,144.68 L77.65,144.04 L77.42,143.04 L77,142 L77,141.5 L76.62,140.42 L76.05,140 L75.95,139.43 L75.35,139 L75.25,138.75 L74.83,138.33 L74.4,137.48 L74.08,137.04 L74.08,136.36 L73.8,136.05 L73.8,135.69 L73.99,135.55 L73.83,135.23 L73.59,135.1 L73.46,134.18 L73.25,133.91 L73.5,133.75 L73.34,133.24 L73.4,132.49 L72.87,131.1 L72.87,129.74 L72.62,128.83 L72.84,128.73 L72.84,128 L71.91,126.65 L71.91,126.15 L71.02,124.89 L70.89,124.1 L70.01,122.1 L69.45,121.1 L68.45,120.03 L68.35,118.52 L68.35,118.34 L68.43,117.78 L68.43,116.92 L68.51,116.36 L68.51,115.72 L69,115.13 L69.1,114.46 L69.53,113.89 L69.53,112.47 L69.69,112.34 L69.69,111.75 L70.69,110.89 L70.69,110.46 L71.47,109.87 L71.68,109.87 L72.38,108.56 L72.38,107.01 L72.16,106.74 L72.16,106.45 L71.49,105.35 L71.49,104.89 L71.22,104.46 L71.22,103.82 L70.9,103.66 L71.46,102.94 L71.54,102.24 L71.01,101.49 L71.01,100.11 L70.01,99.01 L70.01,98.76 L69.82,98.53 L70.33,98.25 L70,98.14 L69.49,98.14 L69.4,97.93 L69.31,97.72 L69.51,97.35 L69.39,96.84 L69.17,96.61 L68.97,96.38 L69,96 L68.72,95.69 L68.72,95.37 L68.19,95.03 L68,94.84 L67.65,94.5 L67.57,94.42 L67.26,94.3 L67.24,94 L66.6,93.69 L66.43,93.3 L65.63,92.66 L65.15,92.15 L65.28,92.06 L64.83,91.68 L64.64,91.27 L64.37,91 L64.37,90.46 L64.05,90.05 L64.05,89.77 L63.85,89.61 L63.48,88.83 L63.48,88.65 L63.91,88.79 L64.25,88.51 L64.33,87.51 L64.38,87.02 L64.58,87.22 L65.36,87.03 L64.81,86.9 L64.46,86.34 L64.84,86.28 L64.84,85.86 L64.84,85.76 L64.4,85.53 L64.84,84.69 L65.4,84.06 L65.27,83.75 L65.34,83.68 L65.62,83.41 L65.36,83.14 L65.6,82.52 L65.54,81.84 L65.22,81.39 L65.22,80.89 L65.34,80.66 L65.07,80.24 L64.55,80.46 L64.39,80.28 L64.08,80.28 L63.87,79.19 L63.59,79.34 L63.35,79.23 L63.22,79.31 L62.92,79 L62.74,79.5 L62.29,79.59 L62,79.42 L61.18,79.72 L61,79.61 L60.65,79.82 L58.94,79.92 L58.3,79.74 L57.84,79.33 L57.64,78.71 L57.4,78.59 L57.4,78 L56.96,77.14 L56.24,76.44 L54.94,75.75 L54.38,75.98 L53.69,75.84 L53.62,75.84 L52.4,76.25 L51.77,76.17 L51.58,76.17 L50.63,76.76 L50.48,76.76 L49.48,76.88 L48.64,77.29 L47.72,78.06 L46.65,78.16 L45.12,78.89 L44.43,78.58 L43.43,78.45 L43.34,78.29 L43.09,77.82 L42.75,77.9 L42.67,78.34 L41.9,78 L41.01,78.29 L38.67,78.29 L38,78.38 L38,78.56 L36.77,79 L36.64,79.18 L36.25,79.18 L35.63,79.71 L35.47,79.65 L33.72,79 L32.37,78 L32,78 L30.9,76.9 L30.82,76.9 L30.16,76.46 L29.89,76.46 L29.44,75.81 L29.15,75.68 L29.28,75.43 L29.23,75.43 L29,75.17 L28.33,75.17 L27.39,74.68 L26.99,74.58 L27.09,74.36 L26.83,74.08 L26.61,73.86 L26.76,73.56 L26.76,73.48 L26.4,73.61 L26,73.18 L26,72.78 L25.82,72.22 L25.48,72.22 L25.35,71.94 L25.59,71.49 L25.34,71.35 L25.34,71.08 L25.53,70.75 L25.27,70.54 L24.79,70.29 L24.65,69.75 L24.28,69.75 L24.12,69.59 L24.12,69.31 L24.26,69.17 L24,69 L23.84,69.23 L23.57,69.12 L23.17,69.12 L22.77,68.57 L22.93,67.92 L22.65,67.61 L22.23,67.73 L22.14,67.63 L22.14,67.33 L21.39,67.41 L21.81,66.96 L21.61,66.96 L21.71,66.8 L21.55,66.62 L21.26,66.62 L21.15,66.47 L22,66.47 L22.15,66.36 L21.68,66 L21.25,66.09 L20.8,66.25 L20.6,66.25 L20.5,66 L20.14,66 L19.82,65.68 L20.14,65.43 L19.9,65.43 L19.31,65.43 L19.16,65.16 L19.16,64.82 L19,64.63 L19.3,64.71 L19.49,64.77 L19.87,64.53 L19.27,64.32 L18.87,64.53 L18.78,64.4 L18.95,64.21 L18.95,63.68 L18.75,63.42 L19.06,63.11 L19.42,63.57 L19.9,63.57 L20.17,63.32 L19.77,63.43 L19.31,63.2 L19.23,62.93 L19.18,62.79 L19.42,62.61 L19,62.31 L19.14,62.31 L19.14,61.95 L18.81,61.9 L18.42,61.22 L17.82,60.73 L18.93,59.73 L19.39,58.9 L19.46,58.32 L19.56,57.6 L19.84,56.5 L20.27,55.9 L20.39,54.63 L20.04,52.8 L19.55,52 L19.75,51.85 L20,51.85 L20.13,51.25 L20,50.86 L20.23,50.63 L19.72,49.87 L19.51,50.04 L19.34,50 L19.19,49.57 L18.8,50 L18.8,49.32 L19,48.9 L19,48.83 L19,48.25 L19.19,47.87 L19.19,47.43 L19.44,47.16 L19.66,47.16 L20.22,46.16 L20.53,46.04 L20.31,45.88 L20.31,45.71 L21.02,44.77 L21.02,44.5 L21.46,43.5 L21.72,43.36 L22.55,42.59 L22.61,42.08 L23.7,40.5 L23.42,40 L23.9,39.72 L24.02,39.37 L25.25,38.73 L25.57,38.73 L25.57,38 L26.26,37 L26.68,36.4 L28.41,36.08 L29.64,35 L30.2,35 L30.71,34.45 L30.83,33.96 L31.94,32.7 L32.06,32.19 L31.86,31.94 L31.71,31.79 L31.94,31.13 L31.65,30.54 L31.65,30.16 L32.11,29.22 L32.82,28.58 L32.82,28.15 L32.54,27.54 L33.34,26.96 L33.59,26.58 L34.02,26.44 L34.72,25.97 L35,25.97 L35.49,25.45 L36.14,25.23 L36.53,24.96 L36.72,24.96 L37.52,24.22 L37.76,23.76 L37.84,23.03 L38.22,22.53 L38.29,21.53 L38.63,21.15 L38.91,21.15 L39.05,21.02 L39.4,20.9 L39.5,21.03 L39.44,21.13 L39.44,21.33 L39.52,21.61 L39.71,21.76 L40.2,22.28 L40.58,22.36 L41.12,22.28 L41.49,22.08 L41.78,22.08 L42.35,22.24 L42.92,22.12 L43.23,21.78 L43.36,21.78 L43.45,22.12 L43.67,22.34 L44.67,22.42 L44.92,22.42 L45.39,22.42 L45.93,22.25 L46.27,21.88 L46.33,21.67 L46.55,21.47 L46.97,21.25 L47.47,21.25 L47.57,21.11 L47.76,20.98 L48,20.98 L48.12,21.09 L48.31,21.09 L48.53,20.8 L48.53,20.53 L48.95,20.27 L49.2,20.27 L49.69,20.2 L50.55,19.54 L50.94,19.6 L51.62,19.6 L52,19.47 L52.41,19.69 L52.68,19.69 L53.13,19.25 L53.47,19.38 L53.84,19.38 L54.02,19.02 L54.24,18.97 L54.56,19.07 L54.74,19.07 L55.11,19.13 L55.58,19.05 L55.8,19.11 L56.28,19.11 L56.51,19.47 L56.91,19.47 L57.27,19.19 L57.55,19.19 L57.78,19.28 L58,19 L58.36,18.93 L58.36,18.69 L58.77,18.59 L59.02,18.78 L59.02,19.06 L59.63,19.13 L59.93,18.83 L59.93,18.65 L60.41,18.82 L60.8,19.16 L61.55,18.94 L61.81,19 L62.31,18.9 L62.4,19.01 L62.86,18.61 L63.5,18.29 L63.97,18.19 L64.15,18.45 L64.15,18.22 L64.54,18.14 L64.76,18.34 L64.76,18.65 L64.94,18.71 L65.2,19.32 L65.38,19.42 L65.59,19.2 L66.22,18.62 L66.38,18.74 L66.38,19.09 L66.03,19.61 L66.03,19.93 L65.6,20.23 L65.52,20.69 L65.95,21.27 L66.47,21.47 L66.47,22.05 L66.6,22.14 L66.67,22.39 L66.48,22.59 L66.63,22.8 L66.5,23 L65.99,23.5 L65.11,24.12 L64.94,24.64 L65.22,25.15 L65.78,25.54 L66.04,25.48 L66.12,25.75 L66.36,25.86 L66.49,25.75 L66.49,25.62 L66.6,25.54 L66.87,25.69 L66.87,25.94 L66.92,26.13 L67.45,26.45 L67.66,26.45 L68.06,26.53 L68.4,26.85 L69.27,27.04 L70.51,26.81 L71,27 L72,27 L72.6,27.39 L73.73,27.55 L74.18,28.14 L74.18,28.69 L74.73,29.74 L75.32,30.04 L76,30.04 L76.19,29.93 L76.76,30 L78.08,30.55 L78.9,30.97 L79.43,31.4 L80.11,31.96 L80.88,32.27 L81.25,32.13 L81.85,31.62 L81.91,31.45 L82.37,30.99 L82.52,30.59 L82.3,29.88 L81.98,29.38 L82.04,28.47 L82.26,28.3 L82.37,27.82 L82.8,27.4 L83.55,27.04 L84.42,26.96 L84.97,26.68 L85.1,26.68 L85.48,26.87 L85.66,26.71 L85.81,26.79 L86.43,26.95 L86.81,26.95 L87.56,27.36 L87.56,27.58 L87.42,27.63 L87.56,27.83 L88.19,28 L88.65,28 L88.89,28.22 L90.08,28.36 L90.41,28.31 L90.73,28.36 L90.98,28.65 L91.14,29.14 L91.32,29.14 L92.2,29.14 L92.88,29.36 L94.26,29.47 L94.83,29.59 L95.33,29.94 L95.54,29.81 L95.74,29.81 L96.25,30.13 L96.85,30.13 L97.27,30.13 L97.91,30.53 L98.5,30.53 L98.57,30.37 L99,30 L99.46,29.85 L99.68,29.73 L100.16,29.47 L100.37,29.32 L100.87,29.32 L101.22,29.32 L100.94,29.44 L100.6,29.44 L100.6,29.52 L100.72,29.64 L101.11,29.48 L101.45,29.48 L101.78,29.48 L101.78,29.36 L101.52,29.31 L101.62,29.2 L102.22,29.36 L102.58,29.48 L102.87,29.48 L103.02,29.63 L102.85,29.71 L102.93,30.02 L103.29,30.22 L103.53,30.58 L103.53,30.35 L103.2,30 L103.28,29.7 L103.93,30.15 L104.81,29.91 L105.94,30.1 L106.42,29.91 L106.65,29.6 L106.84,29.69 L107.19,30.2 L107.37,30.86 L107.87,31.62 L108.26,32.54 L108.11,32.97 L108.34,33.57 L108.27,33.68 L108,34.68 L108,35.06 L107.79,35.59 L107.95,35.75 L107.82,36.38 L107.58,36.61 L107.51,36.82 L107.51,36.72 L107.04,36.46 L106.19,35.56 L106.09,35.23 L105.62,35.02 L105.45,34.67 L105.45,34.32 L104.76,33.74 L104.76,33.52 L104.6,33.33 L104.48,32.88 L104.31,32.88 L104.24,32.77 L104.16,32.89 L104.16,33.13 L104.16,33.37 L104.53,33.85 L104.53,34.25 L105.19,35.03 L105.27,35.31 L106.27,36.18 L106.42,36.46 L106.35,36.74 L106.35,37 L106.95,37.65 L106.95,37.85 L107.13,38.08 L107.2,38.76 L107.39,39.06 L107.39,39.43 L108.41,41 L108.49,41.5 L108.78,41.69 L109.48,42.69 L109.64,43.16 L109.84,43.4 L109.84,43.28 L109.95,43.37 L110.24,43.82 L110.41,43.82 L110.61,44.03 L110.09,44.03 L109.96,43.92 L109.96,44.07 L110.08,44.31 L110.08,44.75 L110,45 L110.27,45.93 L110.82,46.28 L111.15,46.28 L111.37,46.18 L111.59,46.65 L111.96,46.76 L112.07,46.98 L112.48,47.4 L112.79,47.52 L112.79,47.67 L112.79,47.83 L112.88,47.97 L112.88,48.06 L112.94,48.14 L112.94,48.21 L113.01,48.31 L113.13,48.8 L113.47,49.21 L113.47,49.38 L113.39,49.38 L113.34,49.27 L113.2,49.1 L113.14,49.16 L113.14,49.48 L113.57,50.75 L113.66,51.45 L113.56,52.1 L113.8,52.86 L114.12,53.47 L114.41,53.53 L115.19,54.05 L115.19,54.39 L115.55,54.39 L115.93,54.59 L115.93,54.84 L116,54.84 L116.41,55.28 L117.15,57.22 L117.39,58.49 L117.52,58.49 L117.62,58.96 L117.62,59.12 L117.86,59.2 L118.01,59.57 L118.1,60.12 L118.41,60.2 L118.41,59.7 L118.33,59.7 L118.33,59.34 L118.46,59.28 L118.78,59.74 L118.66,59.87 L118.96,60.32 L119.16,60.53 L119.34,60.41 L119.6,60.41 L119.71,60.48 L119.94,60.4 L120.26,60.76 L120.43,60.97 L120.92,61.09 L121.03,61.27 L121.63,61.94 L121.89,62.39 L122.25,62.54 L122.51,62.85 L122.65,62.85 L122.65,62.75 L122.77,62.91 L123.06,63.65 L123.28,63.71 L123.53,64.03 L123.47,64.14 L123.63,64.49 L123.81,64.49 L124.01,64.59 L124.15,64.46 L124.21,64.56 L124.3,64.56 L124.3,64.69 L124.71,65.09 L124.82,65.09 L124.82,65.26 L124.88,65.81 L124.7,65.88 L124.37,66.25 L124.12,66.25 L123.94,66.52 L123.56,66.52 L123.76,66.76 L123.88,66.76 L124.15,66.64 L124.61,66.64 L124.67,66.76 L124.78,66.98 L124.89,66.98 L126,68.33 L126.13,68.6 L126.31,68.65 L126.75,69.05 L127.18,69.15 L127.69,69.09 L127.85,68.89 L128.31,68.61 L128.6,68.61 L129.19,68.13 L129.37,68.13 L129.47,68.23 L129.95,68.23 L130.12,68.17 L130.47,68.33 L130.99,68.27 L132.06,67.61 L132.41,67.54 L132.76,67.69 L133.02,67.61 L133.5,67.61 L133.99,67.36 L134.55,67.36 L134.72,67.46 L134.9,67.46 L135.76,67.3 L136,67 L136.52,66.93 L136.67,67.06 L136.67,66.91 L137.21,66.85 L137.53,66.54 L137.59,66.54 L137.73,66.29 L137.95,66.08 L138.1,66.08 L138.1,66 L138.31,66.15 L138.76,66.31 L138.97,66.31 L139.05,66.31 L138.86,66.58 L138.75,66.86 L138.75,67.15 L138.65,67.33 L138.73,67.48 L139,67.48 L139,67.58 L138.81,67.74 L138.66,68.11 L138.81,68.32 L138.87,68.62 L138.74,68.9 L138.98,68.9 L138.98,68.81 L139.09,68.81 L139.2,69.02 L139.08,69.08 L139.08,69.01 L138.85,69.01 L138.7,69.01 L138.44,69.45 L138.58,69.68 L138.51,70.1 L138.4,70.29 L138.4,70.75 L137.79,71.6 L137.38,72.48 L137.12,72.8 L136.98,72.8 L162.82,72.8 C162.957193,72.8004579 163.088294,72.7433793 163.181429,72.6426418 C163.274564,72.5419043 163.3212,72.4067357 163.31,72.27 C163.31,72.04 163.25,71.82 163.22,71.6 C163.05,70.21 162.84,68.83 162.6,67.46 C162.53,67.04 162.45,66.61 162.37,66.19 C162.06,64.59 161.72,63 161.32,61.43 C161.32,61.31 161.25,61.2 161.22,61.08 C160.84,59.62 160.41,58.17 159.95,56.74 C159.82,56.33 159.69,55.92 159.55,55.52 C159.07,54.12 158.55,52.74 158.03,51.37 C157.97,51.24 157.93,51.1 157.87,50.97 C157.27,49.49 156.62,48.04 155.94,46.61 C155.76,46.23 155.57,45.86 155.39,45.49 C154.796667,44.29 154.176667,43.11 153.53,41.95 L153.11,41.18 C152.33,39.8466667 151.51,38.5133333 150.65,37.18 L150.01,36.18 C149.296667,35.1066667 148.556667,34.0566667 147.79,33.03 L147,32.3 C146.05,31.06 145.08,29.84 144.06,28.66 L143.43,27.95 C142.57,26.95 141.69,26.01 140.78,25.07 L140,24.2 C138.9,23.09 137.77,22 136.61,20.95 L136.16,20.57 C135.16,19.64 134.04,18.75 132.95,17.88 L131.95,17.09 C130.73,16.15 129.49,15.23 128.22,14.36 L128.13,14.29 C126.82,13.4 125.48,12.55 124.13,11.73 L123,11.1 C121.81,10.41 120.61,9.74 119.39,9.1 L118.75,8.76 C117.35,8.05 115.91,7.39 114.46,6.76 L113.35,6.3 C112.14,5.79 110.91,5.3 109.67,4.87 L108.67,4.51 C107.17,3.99 105.67,3.51 104.1,3.08 L103.1,2.8 C101.82,2.46 100.53,2.15 99.22,1.87 L98.03,1.61 C96.44,1.29 94.84,1.01 93.21,0.79 L92.41,0.69 C91,0.51 89.62,0.37 88.2,0.26 L86.88,0.17 C85.2,0.07 83.52,0 81.82,0 L81.52,0 C79.92,0 78.31,0.07 76.69,0.17 L75,0.31 C73.86,0.4 72.72,0.52 71.58,0.66 C70.86,0.75 70.12,0.83 69.4,0.94 L69.24,0.94 C32.5359334,6.68938958 4.29625258,36.4190419 0.44,73.37 C0.44,73.53 0.44,73.69 0.44,73.85 C0.29,74.93 0.21,76 0.15,77.1 C0.15,77.42 0.15,77.74 0.15,78.1 C0,79.31 0,80.57 0,81.84 C0,81.94 0,82.04 0,82.14 C0,83.31 0,84.46 0.08,85.62 L0.14,86.62 C0.2,87.62 0.27,88.62 0.37,89.68 L0.43,90.39 C0.56,91.61 0.72,92.82 0.9,94.02 C0.9,94.32 0.99,94.61 1.04,94.91 C1.19,95.91 1.36,96.81 1.55,97.75 C1.61,98.07 1.67,98.39 1.74,98.75 C1.98,99.93 2.25,101.11 2.55,102.27 C2.55,102.4 2.62,102.54 2.66,102.67 C2.93,103.67 3.23,104.74 3.54,105.76 L3.84,106.76 C4.15,107.76 4.47,108.66 4.84,109.61 C4.91,109.8 4.97,110 5.04,110.19 C5.45,111.3 5.89,112.4 6.34,113.49 L6.7,114.32 C7.07,115.17 7.45,116.02 7.85,116.87 L8.25,117.71 C8.77,118.77 9.25,119.81 9.85,120.84 L10.1,121.28 C10.59,122.18 11.1,123.06 11.63,123.94 L12.15,124.79 C12.68,125.65 13.22,126.5 13.78,127.34 C13.88,127.48 13.97,127.63 14.07,127.78 C14.72,128.78 15.4,129.69 16.07,130.63 L16.62,131.36 C17.18,132.09 17.75,132.82 18.33,133.53 C18.52,133.77 18.7,134 18.9,134.23 C19.64,135.12 20.4,136 21.18,136.86 L21.57,137.29 C22.24,138.02 22.93,138.73 23.62,139.44 L24.32,140.14 C25.06,140.87 25.81,141.58 26.57,142.28 L26.88,142.57 C27.74,143.36 28.63,144.12 29.52,144.86 L30.25,145.45 C30.96,146.03 31.69,146.61 32.43,147.17 L33.12,147.69 C34.05,148.38 35,149.06 35.96,149.69 L36.51,150.04 C37.32,150.58 38.14,151.11 38.97,151.62 L39.82,152.14 C40.74,152.69 41.67,153.23 42.61,153.75 L42.9,153.91 C43.9,154.47 44.98,155 46.04,155.51 L46.9,155.93 C47.75,156.33 48.61,156.71 49.47,157.09 L50.25,157.43 C51.34,157.88 52.44,158.32 53.55,158.72 L54.23,158.97 C55.15,159.29 56.07,159.61 57,159.9 L58,160.21 C59.09,160.54 60.19,160.85 61.29,161.14 L61.47,161.19 C62.64,161.49 63.82,161.76 65,162.01 L66,162.2 C67,162.39 67.9,162.56 68.87,162.72 L69.7,162.85 C70.9,163.03 72.11,163.18 73.32,163.31 L74.13,163.38 C75.13,163.48 76.13,163.55 77.13,163.61 L78.13,163.67 C79.38,163.72 80.64,163.76 81.9,163.76 C83.16,163.76 84.52,163.76 85.82,163.67 C86.32,163.67 86.82,163.6 87.29,163.57 C88.1,163.51 88.9,163.47 89.7,163.4 C90.22,163.4 90.7,163.27 91.24,163.21 C92.01,163.13 92.77,163.05 93.53,162.94 L95.18,162.67 C95.89,162.55 96.59,162.45 97.29,162.32 C97.99,162.19 98.43,162.07 99,161.95 C99.57,161.83 100.34,161.68 101,161.52 C101.66,161.36 102.15,161.22 102.72,161.07 C103.29,160.92 104.01,160.74 104.65,160.56 C105.29,160.38 105.78,160.21 106.34,160.03 C106.9,159.85 107.6,159.65 108.22,159.44 C108.84,159.23 109.32,159.04 109.87,158.84 C110.42,158.64 111.11,158.4 111.73,158.16 C112.35,157.92 112.82,157.7 113.37,157.47 C113.92,157.24 114.56,156.99 115.15,156.73 C115.74,156.47 116.23,156.22 116.76,155.97 C117.29,155.72 117.93,155.43 118.5,155.15 C119.07,154.87 119.5,154.6 120.06,154.32 C120.62,154.04 121.2,153.73 121.76,153.42 C122.32,153.11 122.76,152.83 123.27,152.53 C123.78,152.23 124.39,151.89 124.93,151.53 C125.47,151.17 125.93,150.9 126.4,150.58 C126.87,150.26 127.48,149.89 128.01,149.53 C128.54,149.17 128.96,148.85 129.44,148.53 C129.92,148.21 130.44,147.8 130.99,147.42 L132.38,146.33 C132.88,145.94 133.38,145.56 133.87,145.16 L135.2,144 C135.68,143.59 136.2,143.19 136.63,142.77 C137.06,142.35 137.48,141.97 137.91,141.57 C138.34,141.17 138.84,140.71 139.3,140.26 C139.76,139.81 140.11,139.42 140.52,139.01 C140.93,138.6 141.41,138.1 141.84,137.64 C142.27,137.18 142.63,136.76 143.02,136.33 C143.41,135.9 143.87,135.39 144.28,134.91 C144.69,134.43 145.02,134 145.39,133.54 C145.76,133.08 146.2,132.54 146.59,132.07 C146.98,131.6 147.29,131.07 147.65,130.64 C148.01,130.21 148.4,129.64 148.77,129.12 C149.14,128.6 149.43,128.12 149.77,127.65 C150.11,127.18 150.48,126.65 150.77,126.08 C151.06,125.51 151.39,125.08 151.71,124.56 C152.03,124.04 152.37,123.49 152.71,122.94 C153.05,122.39 153.29,121.94 153.58,121.36 C153.87,120.78 154.19,120.27 154.48,119.72 C154.77,119.17 155.03,118.63 155.3,118.09 C155.57,117.55 155.86,116.97 156.12,116.4 C156.38,115.83 156.61,115.29 156.86,114.73 C157.11,114.17 157.37,113.59 157.61,113.01 C157.85,112.43 158.05,111.88 158.27,111.31 C158.49,110.74 158.73,110.13 158.95,109.53 C159.17,108.93 159.33,108.38 159.53,107.81 C159.73,107.24 159.94,106.59 160.13,105.98 C160.32,105.37 160.47,104.81 160.63,104.22 C160.79,103.63 160.99,102.99 161.15,102.36 C161.31,101.73 161.44,101.16 161.58,100.55 C161.72,99.94 161.88,99.31 162.01,98.68 C162.14,98.05 162.24,97.45 162.35,96.84 C162.46,96.23 162.6,95.57 162.7,94.93 C162.8,94.29 162.87,93.68 162.96,93.06 C163.05,92.44 163.12,91.94 163.18,91.38 C163.191394,91.1130047 162.986752,90.8861185 162.72,90.87 Z M66.42,25.43 L66.14,25.21 L66.14,25.08 L66.47,25.08 L66.6,25.24 L66.42,25.43 Z M26.52,74.37 L26.28,74.22 L26.23,74.06 L26.31,73.93 L26.5,73.93 L26.64,74.1 L26.64,74.34 L26.52,74.37 Z M59.91,87.28 L59.71,87.41 L59.57,87.41 L59.57,87.08 L59.78,86.86 L60,87 L59.91,87.28 Z M62.91,81.64 L62.91,81.37 L63.14,81.37 L63.28,80.96 L63.65,80.58 L63.78,80.7 L63.78,81.2 L63.52,81.89 L63.18,81.84 L62.91,81.64 Z"/>
    <polygon points="103.7 135.89 103.53 135.92 103.41 135.95"/>
    <path d="M196,133.41 L192,142.91 L187.92,142.91 L203.37,107.83 L218.43,142.91 L214.3,142.91 L210.35,133.41 L196,133.41 Z M203.24,116.53 L197.51,129.94 L208.8,129.94 L203.24,116.53 Z"/>
    <polygon points="272.54 112.89 272.54 122.89 283.69 122.89 283.69 126.35 272.54 126.35 272.54 142.96 268.81 142.96 268.81 109.42 284 109.42 284 112.89"/>
    <path d="M339.35,142.91 L335.62,142.91 L335.62,109.42 L340.46,109.42 C346.82,109.42 352.72,111.11 352.72,118.66 C352.72,123.81 349.48,127.46 344.33,127.9 L354.99,142.9 L350.41,142.9 L340.29,128.2 L339.35,128.2 L339.35,142.91 Z M339.35,124.91 L340.51,124.91 C344.73,124.91 348.99,124.11 348.99,118.91 C348.99,113.4 344.99,112.91 340.46,112.91 L339.35,112.91 L339.35,124.91 Z"/>
    <polygon points="409.83 142.91 406.1 142.91 406.1 109.42 409.83 109.42"/>
    <path d="M489.26 116.75C486.581495 113.942928 482.87983 112.341038 479 112.31 471.54 112.31 465.5 118.8 465.5 126.17 465.547123 133.710942 471.590545 139.843041 479.13 140 482.958767 139.898875 486.595437 138.301325 489.26 135.55L489.26 140.17C486.351214 142.282456 482.854825 143.432769 479.26 143.46 473.07216 143.46 467.35436 140.158827 464.26044 134.8 461.166519 129.441173 461.166519 122.838827 464.26044 117.48 467.35436 112.121173 473.07216 108.82 479.26 108.82 482.866061 108.766113 486.386397 109.920783 489.26 112.1L489.26 116.75zM547.2 133.41L543.2 142.91 539.11 142.91 554.57 107.83 569.62 142.91 565.49 142.91 561.49 133.41 547.2 133.41zM554.44 116.53L548.71 129.94 560 129.94 554.44 116.53zM234.79 68.42L197 68.42C197 75.72 200.84 79.66 208.24 79.66 212.09 79.66 214.85 78.38 216.82 75.03L234.1 75.03C232.828095 80.5233189 229.37232 85.2610157 224.53 88.15 219.627032 91.0191311 214.029949 92.4858577 208.35 92.39 191.58 92.39 179.05 82.92 179.05 65.46 179.05 48.59 190.59 38.46 207.05 38.46 224.61 38.46 234.77 49.31 234.77 66.57L234.79 68.42zM218.12 58.06C217.111787 53.2883599 212.835005 49.9208146 207.96 50.06 202.73 50.06 198.39 52.82 197.3 58.06L218.12 58.06z"/>
    <polygon points="290.25 45 290.25 16.33 309.59 16.33 309.59 90.71 290.25 90.71 290.25 60.23 262.33 60.23 262.33 90.71 243 90.71 243 16.33 262.33 16.33 262.33 45"/>
    <path d="M372.3 68.42L334.52 68.42C334.52 75.72 338.37 79.66 345.76 79.66 349.61 79.66 352.37 78.38 354.35 75.03L371.61 75.03C370.332885 80.5322369 366.860695 85.2726255 362 88.15 357.097032 91.0191311 351.499949 92.4858577 345.82 92.39 329.05 92.39 316.52 82.92 316.52 65.46 316.52 48.59 328.06 38.46 344.52 38.46 362.08 38.46 372.24 49.31 372.24 66.57L372.3 68.42zM355.63 58.06C354.621787 53.2883599 350.345005 49.9208146 345.47 50.06 340.24 50.06 335.9 52.82 334.81 58.06L355.63 58.06zM437.35 90.71L419.35 90.71 419.35 85.09 419.16 85.09C416 90.09 409.78 92.39 403.86 92.39 388.86 92.39 378.31 79.86 378.31 65.39 378.31 50.92 388.67 38.46 403.67 38.46 409.49 38.46 415.6 40.63 419.35 45.07L419.35 40.1 437.35 40.1 437.35 90.71zM396.9 65.46C396.9 71.87 401.14 76.8 408.44 76.8 415.74 76.8 420 71.87 420 65.46 420 59.24 415.74 54 408.44 54 401.14 54 396.9 59.24 396.9 65.46z"/>
    <polygon points="465.2 90.71 447.25 90.71 447.25 8.83 465.2 8.83"/>
    <path d="M535.23,8.83 L535.23,46.52 L535.43,46.52 C539.57,40.99 544.6,38.43 551.61,38.43 C564.43,38.43 570.61,46.91 570.61,59.73 L570.61,90.73 L552.61,90.73 L552.61,64.77 C552.61,58.85 551.72,52.77 544.52,52.77 C537.32,52.77 535.15,58.89 535.15,64.77 L535.15,90.71 L517.15,90.71 L517.15,8.83 L535.23,8.83 Z"/>
    <polygon points="510.38 40.1 500.22 40.1 500.22 8.83 482.26 8.83 482.26 40.1 472.11 40.1 472.11 54.9 482.26 54.9 482.26 90.71 500.22 90.71 500.22 54.9 510.38 54.9"/>
  </g>
</svg>
