<?xml version="1.0" encoding="utf-8"?>
<!-- Generator: Adobe Illustrator 21.0.2, SVG Export Plug-In . SVG Version: 6.00 Build 0)  -->
<svg version="1.1" id="Layer_1" xmlns="http://www.w3.org/2000/svg" xmlns:xlink="http://www.w3.org/1999/xlink" x="0px" y="0px"
	 viewBox="0 0 1000 1000" style="enable-background:new 0 0 1000 1000;" xml:space="preserve">
<style type="text/css">
	.st0{display:none;fill:#FEFEFE;}
	.st1{fill:#193B7E;}
	.st2{fill:#F05968;}
	.st3{fill:#23478B;}
	.st4{fill:#F26F2A;}
	.st5{fill:#F8B39A;}
	.st6{fill:#FEFEFE;}
</style>
<title>Nigeria-Logo</title>
<g>
	<path class="st0" d="M38.8,772.3c0-190,0-380.1-0.1-570.1c0-3.9,0.8-4.7,4.7-4.7c303.2,0.1,606.5,0.1,909.7,0
		c3.9,0,4.7,0.7,4.7,4.7c-0.1,190-0.1,380.1-0.1,570.1C651.3,772.3,345.1,772.3,38.8,772.3z M754.6,340.3c-1.6,1.9-2.6,4-1.5,6.6
		c-0.9,3.6-0.2,7.4,0.8,10.7c1.2,3.8-0.2,4-3.2,4.3c-12.8,1-25.4,2.5-37.2,8c-32.5,12-57.2,49.4-55.5,70.5c7.2-9.6,17.3-13.8,28-17
		c9.8-2,19.7-1.9,29.7-2.1c16.4-0.3,31-5.5,43.5-16.3c1.2,0,1.9-0.7,2.3-1.7c15-14.4,23.7-31.6,23-52.8c-0.4-10.6-5.5-20.1-8.2-30.2
		c0-2.2,1-4.7-0.9-6.3c-0.9-0.8-2.4,0.5-3,1.8C762.1,320.8,756.1,329,754.6,340.3z M204.1,536.2c1.9,0.5,3.2,0.8,4.4,1.2
		c22.6,7.1,45.8-2.8,51-29.4c0.9-4.9,1.6-9.8,1.5-14.8c-0.4-26.1-14.4-42.1-39.4-45.1c-9.6-1.1-19.1,0.3-28.5,1.7
		c-14,2.1-14,2.1-13.9,15.7c0,1.7,0,3.4,0,5.2c0,31,0.1,61.9-0.1,92.9c0,4.3,1.1,5.7,5.4,5.4c4.9-0.4,9.9-0.3,14.9,0
		c3.6,0.2,5-0.7,4.9-4.7C203.8,555.1,204.1,545.9,204.1,536.2z M126.1,420.3c-6.9-1.3-13.8,0.3-20.6,2.9
		c-11.3,4.4-18.7,12.3-20.7,24.1c-2.2,13,1,24.4,12.7,32.5c7,4.8,14.9,7.2,22.6,10.3c5.6,2.2,11.5,3.9,16,8.3
		c5.9,5.7,4.2,15.6-3.7,17.9c-9.6,2.7-19.4,2.5-29-0.3c-4.6-1.3-10-5.5-13.2-4.2c-3.8,1.6-3.8,8.6-5.7,13.1
		c-0.3,0.7-0.4,1.5-0.8,2.1c-2,3.5-0.6,5.3,2.9,6.8c16.2,6.8,32.9,8.7,50.2,5.2c15.9-3.2,27.4-11.7,29.3-28.6
		c1.8-15.6-3.2-29.6-23-37.5c-8.5-3.4-17-6.8-25.4-10.4c-4.8-2.1-7.3-6.1-7.1-11.3c0.2-6.8,5.4-8.5,10.9-9
		c9.2-0.8,18.3-0.4,26.8,3.6c2.4,1.1,5.4,2,6.2-1.1c1.2-4.9,3.3-9.4,5.1-13.9c1.5-3.7-0.4-4-2.6-4.9
		C147.3,421.7,137.3,418.9,126.1,420.3z M294.8,502.1c2.4,0,4.5,0,6.6,0c15.3,0,30.6-0.1,45.8,0.1c3.5,0,5.3-0.6,5-4.6
		c-0.4-5.1,0.1-10.4-0.5-15.4c-3.1-24.4-23.1-38.6-47.2-33.9c-20.7,4-33.3,20-34.6,43.8c-1.6,28.5,15.3,47.1,43.8,48.2
		c7.7,0.3,15.3-0.7,22.8-2.2c11.1-2.3,11.1-2.3,9.1-13.6c-0.4-2.1-0.8-4.1-1-6.2c-0.3-3-1.5-3.7-4.4-2.7c-6.7,2.3-13.7,3.2-20.9,3.1
		C308,518.5,298.8,514.9,294.8,502.1z M802.7,502.1c3.8,0,7.6,0.2,11.5,0c5.7-0.3,13.8,2.6,16.4-1.1c3.4-5,1.5-12.9,0.5-19.6
		c-2.2-13.8-8.5-24.9-22-30.6c-23.1-9.8-48.5,1.5-56.8,25.2c-3.7,10.5-3.9,21.3-1.4,32.2c3.8,16.3,14.1,26.2,30.1,30.4
		c12.1,3.1,24.3,1.8,36.3-0.8c9.8-2.1,9.7-2.3,7.9-12.3c-0.4-2.1-0.8-4.1-1-6.2c-0.3-3.5-1.3-4.8-5.3-3.4
		c-7.3,2.5-14.9,3.4-22.6,2.8c-9.1-0.6-16.4-3.8-20.8-12.7c-2.2-4.4-0.2-3.9,2.6-3.9C786.2,502.1,794.5,502.1,802.7,502.1z
		 M644.4,505.7C644.4,505.7,644.3,505.7,644.4,505.7c0-8.4,0.2-16.8-0.1-25.2c-0.7-20.6-11-31.2-31.5-32.7c-8.1-0.6-16,0-24,1.2
		c-12.3,1.9-12.3,2-10.1,14.3c0.2,0.9,0.4,1.9,0.4,2.8c0,4.3,1.2,5.9,6.1,4.5c8.3-2.3,16.9-3.3,25.5-1.3c5.5,1.2,8.4,4.9,9.5,10.2
		c0.7,3.3,0.4,5.1-4.2,4.4c-10.5-1.6-21-1.2-31,2.8c-10.5,4.2-16,12.3-16.2,23.3c-0.3,15.6,7.3,25.3,22.8,28.2
		c16.8,3.2,33.5,1.1,50.1-2.2c3-0.6,2.9-2.4,2.9-4.5C644.4,522.9,644.4,514.3,644.4,505.7z M660.8,495c0,12.8,0.1,25.6-0.1,38.4
		c-0.1,3.5,0.9,4.8,4.5,4.6c5.1-0.3,10.3-0.4,15.5,0c4.5,0.4,5.3-1.4,5.3-5.5c-0.2-19.3,0-38.6-0.2-57.9c0-3.5,0.7-4.9,4.6-5.2
		c16.3-1.2,20.6,2.4,21.4,18.8c0.1,2.1,0.1,4.2,0.1,6.3c0,12.8,0.2,25.6-0.1,38.4c-0.1,4.1,1.2,5.3,5.2,5c5.3-0.3,10.7-0.2,16,0
		c2.5,0.1,3.9-0.4,3.9-3.4c-0.4-18.7,0.9-37.5-0.7-56.2c-1.6-17.8-11.4-27.7-29.1-29.9c-14.4-1.8-28.5,0.4-42.6,3.5
		c-3.3,0.7-3.6,2.4-3.6,5.2C660.9,469.8,660.8,482.4,660.8,495z M851.6,569.8c-15.9,0-31.7,0.1-47.6-0.1c-3.5,0-5,0.8-5.6,4.5
		c-2.3,14.9-4.7,29.8-7.4,44.6c-0.7,4.1,0.1,5.1,4.3,5.1c31.1-0.2,62.3-0.1,93.4,0c3.5,0,5-0.9,5.6-4.5c2.3-15.1,4.7-30.2,7.5-45.2
		c0.7-3.9-0.4-4.5-3.9-4.5C882.6,569.9,867.1,569.8,851.6,569.8z M844.1,472c0.6,12.3-1.1,27.3,1,42.1c2,14.1,10.2,22.7,23.8,25
		c7.2,1.2,14.5,1.2,21.7-0.1c12.1-2.3,12.1-2.4,9.9-14.3c-0.1-0.8-0.3-1.5-0.3-2.3c-0.3-4.3-1.3-7.4-6.8-4.9c-2.4,1-5.2,1.1-7.9,1.2
		c-11.3,0.7-15.8-3.4-16.3-14.8c-0.2-6.3-0.2-12.6,0-18.9c0.1-4.5-2-10.4,0.8-13.3c2.8-2.9,8.7-0.6,13.2-0.9
		c5.1-0.4,11.8,2.2,14.8-1.1c3-3.2,0.4-9.8,1-14.9c0.5-4.3-1.4-5.1-5.2-4.9c-7.1,0.3-14.1,0-21.2,0.1c-2.8,0.1-3.6-0.9-3.6-3.6
		c0.2-5.9-0.1-11.9,0.1-17.8c0.2-3.5-0.5-4.8-4.4-4c-5.4,1.2-10.9,2-16.4,2.6c-3.6,0.4-4.5,2-4.5,5.6
		C844.2,444.9,844.1,457.2,844.1,472z M442.5,472.4c0.7,12.5-1.3,27.6,1.1,42.6c2.2,13.5,10.1,21.7,23.4,24
		c8.1,1.4,16.4,1.3,24.5-0.7c9.6-2.4,9.6-2.4,7.8-11.8c-0.4-2.2-1-4.5-1.2-6.8c-0.2-2.9-1.1-3.9-4.3-3c-3.6,1-7.5,1.6-11.3,1.8
		c-9.8,0.4-14.1-3.4-14.7-13.3c-0.4-6.8-0.2-13.7-0.2-20.6c-0.1-13.9,0-13.8,13.8-14c5.2-0.1,12.4,2.5,15.2-1.2
		c2.6-3.4,0.6-10.2,1-15.5c0.2-3.4-1.1-4.2-4.3-4.1c-7.1,0.2-14.1-0.1-21.2,0.1c-3.5,0.1-4.7-0.8-4.6-4.4c0.3-5.9,0-11.8,0.1-17.8
		c0.1-2.7-0.7-3.8-3.6-3.3c-6,1.1-12,2-18.1,2.8c-3,0.4-3.4,2-3.4,4.7C442.5,444.6,442.5,457.2,442.5,472.4z M408.4,447.5
		c-29.8-0.1-49.6,22.1-46.8,51c2.2,22.9,13.3,36.6,33,40.5c9.9,2,19.8,1.6,29.6-0.8c8.4-2,8.4-2,7-10.3c-0.5-3.2-1.1-6.4-1.5-9.6
		c-0.3-2.5-1.3-3-3.8-2.1c-5.5,1.9-11.2,2.5-16.9,2.4c-9.1-0.1-16.2-3.2-20.3-12.1c-2.5-5.5-2.9-11.2-2.2-16.9
		c1.4-10.8,7.7-20.4,21.1-20.7c5-0.1,10,0.3,14.6,2.1c2.9,1.1,4.1,0.3,4.6-2.7c0.9-4.3,1.9-8.6,3.3-12.7c1-3-0.1-4-2.7-4.9
		C420.9,448.8,414.2,447.4,408.4,447.5z M511.5,495.8c0,12.2,0.3,24.5-0.1,36.7c-0.2,4.8,1.5,5.8,5.8,5.5c4.8-0.3,9.6-0.3,14.3,0
		c4,0.3,5.2-1,5.1-5.1c-0.2-16.8-0.1-33.6-0.1-50.4c0-13.5,0.4-13.8,14.4-13.1c4.6,0.2,10.4,4.4,13.4,1.1c2.9-3.2,2.1-9.4,3.5-14.2
		c1.3-4.2,0-5.6-4.1-6.5c-16.8-3.6-33-1.4-49.1,3.6c-2.8,0.9-3.2,2.6-3.2,5.1C511.6,471,511.5,483.4,511.5,495.8z M762.9,624.2
		c14.3-0.1,20.6-4.4,22.8-15.8c3.4-17.5,3.4-17.5-14.9-15.5c-0.2,0-0.4,0-0.6,0c-4.9,1.1-3.2,5.5-3.9,8.4c-0.8,3.2,2.5,1.7,4,2.1
		c1.3,0.4,3.4-0.8,3.7,1.4c0.3,2.1-0.1,4.1-2.3,5.4c-3.7,2.2-11.3,1.9-14.7-0.8c-5.5-4.3-5.4-15.9,0.1-22.7
		c5.2-6.3,13.6-7.2,19.6-1.7c1.8,1.6,2.9,1.6,4.9,0.7c8.5-4.1,8.8-7.4,0.9-13.1c-2.5-1.8-5.3-2.9-8.4-3.5
		c-17.4-3.1-32.6,8.8-35.2,27.7C736.9,612.6,747.1,624.3,762.9,624.2z M704.3,614c0.6,0,1.1,0,1.7,0c4.4,0.3,11.3-2.5,8.3,6.8
		c-0.1,0.4,0.1,1.4,0.4,1.5c2.9,1.2,6,0.4,9,0.5c2.5,0.1,2-2.2,2.7-3.6c0.8-1.8-0.6-5.1,3-5.2c4.9-0.2,2.8-4.6,4-7
		c1.2-2.3-0.3-3-2.5-3.7c-2-0.7-1.9-3.3-1.2-4.9c2.9-6.9,3-14.5,4.9-21.6c0.3-1.2,1.1-3.3-0.6-3.4c-4.4-0.2-9.5-2.5-13,1.4
		c-8.5,9.5-16.6,19.4-24.7,29.3c-2,2.5-2.8,6.4-1.8,9.2c0.6,1.8,4.5,0.5,7,0.7C702.4,614.1,703.4,614,704.3,614z"/>
	<path class="st1" d="M204.1,536.2c0,9.7-0.2,18.9,0.1,28.1c0.1,4-1.3,4.9-4.9,4.7c-5-0.2-10-0.4-14.9,0c-4.3,0.3-5.5-1.1-5.4-5.4
		c0.2-31,0.1-61.9,0.1-92.9c0-1.7,0-3.4,0-5.2c0-13.6,0-13.6,13.9-15.7c9.5-1.4,19-2.8,28.5-1.7c25,3,39,18.9,39.4,45.1
		c0.1,5-0.5,9.9-1.5,14.8c-5.1,26.5-28.4,36.5-51,29.4C207.2,537,205.9,536.7,204.1,536.2z M204,492.6c0,6.7-0.1,13.4,0,20.1
		c0,1.5-0.5,3,2.1,3.8c18.1,5.9,28.4-1.1,29-20c0-1.1,0-2.3,0-3.4c-0.6-17.9-9.7-25.7-27.4-23.6c-2.9,0.3-3.9,1.3-3.8,4.2
		C204.2,480,204,486.3,204,492.6z"/>
	<path class="st1" d="M126.1,420.3c11.2-1.4,21.1,1.4,30.9,5.5c2.2,0.9,4.1,1.2,2.6,4.9c-1.8,4.6-3.9,9.1-5.1,13.9
		c-0.8,3.1-3.8,2.2-6.2,1.1c-8.6-3.9-17.6-4.4-26.8-3.6c-5.5,0.5-10.7,2.2-10.9,9c-0.2,5.2,2.3,9.2,7.1,11.3
		c8.4,3.6,16.9,7,25.4,10.4c19.8,7.9,24.8,21.9,23,37.5c-2,16.8-13.5,25.3-29.3,28.6c-17.3,3.5-33.9,1.6-50.2-5.2
		c-3.5-1.5-4.8-3.2-2.9-6.8c0.4-0.7,0.5-1.4,0.8-2.1c1.9-4.5,1.9-11.5,5.7-13.1c3.2-1.4,8.6,2.8,13.2,4.2c9.6,2.8,19.4,3.1,29,0.3
		c7.9-2.3,9.7-12.2,3.7-17.9c-4.5-4.3-10.4-6-16-8.3c-7.7-3-15.6-5.5-22.6-10.3c-11.7-8-14.9-19.5-12.7-32.5
		c2-11.8,9.4-19.7,20.7-24.1C112.4,420.5,119.2,419,126.1,420.3z"/>
	<path class="st1" d="M294.8,502.1c4,12.8,13.2,16.5,24.6,16.6c7.1,0.1,14.1-0.8,20.9-3.1c3-1,4.1-0.2,4.4,2.7
		c0.2,2.1,0.6,4.2,1,6.2c2,11.2,2.1,11.3-9.1,13.6c-7.5,1.5-15.1,2.5-22.8,2.2c-28.5-1.1-45.4-19.7-43.8-48.2
		c1.3-23.8,13.9-39.8,34.6-43.8c24.1-4.7,44.1,9.5,47.2,33.9c0.6,5.1,0.2,10.3,0.5,15.4c0.3,4-1.6,4.6-5,4.6
		c-15.3-0.2-30.6-0.1-45.8-0.1C299.3,502.1,297.2,502.1,294.8,502.1z M294.7,485c10.4,0,20.3-0.1,30.2,0c3.1,0,3.4-1.3,3-3.9
		c-1.1-6.4-6-11.7-12.3-12.8c-7.8-1.3-14.5,1.9-17.6,8.6C296.8,479.3,296,481.8,294.7,485z"/>
	<path class="st1" d="M802.7,502.1c-8.2,0-16.4,0-24.6,0c-2.8,0-4.9-0.5-2.6,3.9c4.5,8.9,11.8,12,20.8,12.7
		c7.7,0.5,15.3-0.3,22.6-2.8c4-1.4,5-0.1,5.3,3.4c0.2,2.1,0.6,4.2,1,6.2c1.8,10,1.8,10.2-7.9,12.3c-12,2.6-24.2,3.9-36.3,0.8
		c-16-4.1-26.3-14.1-30.1-30.4c-2.5-10.9-2.3-21.6,1.4-32.2c8.3-23.7,33.7-34.9,56.8-25.2c13.5,5.7,19.8,16.7,22,30.6
		c1,6.6,3,14.5-0.5,19.6c-2.6,3.7-10.7,0.9-16.4,1.1C810.3,502.2,806.5,502.1,802.7,502.1z M790.4,485c4.6,0,9.2-0.1,13.7,0
		c2.9,0.1,3.6-1,3.1-3.7c-1.2-7.4-7-12.7-14.5-13.1c-8.9-0.4-16.9,6-18.5,14.7c-0.4,2,0.9,2.1,2.4,2.1
		C781.2,485,785.8,485,790.4,485z"/>
	<path class="st1" d="M644.4,505.7c0,8.6,0,17.2,0,25.8c0,2.2,0.1,4-2.9,4.5c-16.6,3.2-33.3,5.4-50.1,2.2
		c-15.5-2.9-23-12.6-22.8-28.2c0.2-11.1,5.7-19.2,16.2-23.3c10-4,20.6-4.5,31-2.8c4.6,0.7,4.9-1,4.2-4.4c-1-5.3-4-9-9.5-10.2
		c-8.6-1.9-17.2-1-25.5,1.3c-4.9,1.4-6.1-0.2-6.1-4.5c0-0.9-0.2-1.9-0.4-2.8c-2.1-12.3-2.2-12.4,10.1-14.3c7.9-1.2,15.9-1.9,24-1.2
		c20.5,1.6,30.8,12.1,31.5,32.7C644.6,488.9,644.3,497.3,644.4,505.7C644.3,505.7,644.4,505.7,644.4,505.7z M620.3,510.6
		c0-2.3,0-4.6,0-6.9c0-1.7-0.3-3-2.3-3.2c-5.9-0.5-11.8-1.1-17.6,0.7c-4.8,1.5-7.2,4.8-6.9,9.9c0.3,5,3.3,7.6,7.9,8.5
		c3,0.6,6.1,0.6,9.1,0.6C620.4,520.2,620.4,520.1,620.3,510.6z"/>
	<path class="st1" d="M660.8,495c0-12.6,0.1-25.2,0-37.8c0-2.8,0.3-4.5,3.6-5.2c14.1-3,28.2-5.3,42.6-3.5
		c17.7,2.2,27.5,12.1,29.1,29.9c1.7,18.7,0.3,37.4,0.7,56.2c0.1,3-1.4,3.5-3.9,3.4c-5.3-0.1-10.7-0.3-16,0c-3.9,0.2-5.3-0.9-5.2-5
		c0.3-12.8,0.1-25.6,0.1-38.4c0-2.1,0-4.2-0.1-6.3c-0.9-16.4-5.1-20-21.4-18.8c-3.8,0.3-4.6,1.7-4.6,5.2c0.2,19.3,0,38.6,0.2,57.9
		c0,4.1-0.7,5.9-5.3,5.5c-5.1-0.4-10.3-0.3-15.5,0c-3.6,0.2-4.5-1.1-4.5-4.6C660.9,520.6,660.8,507.8,660.8,495z"/>
	<path class="st2" d="M713.5,369.8c11.8-5.5,24.5-7,37.2-8c3-0.2,4.4-0.4,3.2-4.3c-1-3.3-1.7-7.1-0.8-10.7c3-0.3,4.4-2.6,6.1-4.7
		c5.8-7.3,10.4-15.4,17.1-22c2.7,10.1,7.8,19.6,8.2,30.2c0.7,21.2-8.1,38.4-23,52.8c0-1.3,0-2.5,0-3.8c3.3-7.8,2.5-15.5-1.1-22.9
		c-0.1-1.2,0.1-2.6-1.1-3.5c-0.1-1.9-0.5-3.6-2.2-4.7c-0.2-1.8,0-3.8-2.5-5.2c0.5,2.4,0.9,4.1,2.3,5.4c0.1,1.9,0.3,3.7,2.3,4.6
		c0,1.3-0.3,2.7,1.2,3.4c1.3,7.6,1.4,15.3,1.2,23c-1.7,1.4-2.1,3.4-2.4,5.5c-12.5,10.8-27.1,16-43.5,16.3
		c-9.9,0.2-19.9,0.1-29.7,2.1c-0.5-2.5,0.9-4.4,2-6.3c3.4-5.7,6.8-11.3,10.3-16.9C704.3,390.5,709.8,380.6,713.5,369.8z"/>
	<path class="st3" d="M851.6,569.8c15.5,0,30.9,0.1,46.4-0.1c3.5,0,4.6,0.5,3.9,4.5c-2.8,15-5.2,30.1-7.5,45.2
		c-0.5,3.6-2,4.6-5.6,4.5c-31.1-0.1-62.3-0.2-93.4,0c-4.2,0-5.1-1-4.3-5.1c2.7-14.8,5.1-29.7,7.4-44.6c0.6-3.6,2.1-4.5,5.6-4.5
		C819.9,569.9,835.8,569.8,851.6,569.8z M870.7,616.4c3.2,0,6.5,0,9.7,0c0.2,0,0.4,0,0.6,0c2.7,0.1,2.9-1.8,3.2-3.8
		c0.5-2.9-1.7-2.4-3.3-2.5c-2.5-0.1-5,0-7.5,0c-7.6,0-7.7-0.4-5.6-7.7c1.2-4.3,4.2-2.2,6.5-2.5c3.2-0.4,7.7,1.2,7.3-4.3
		c-0.4-4.8-4.6-1.1-6.8-2.2c-1.6-0.8-5.3,1.8-4.6-2.6c0.5-2.8-0.6-7,4.8-6.7c3.6,0.3,7.3,0,10.9,0.1c2.8,0.1,2.8-1.9,3.1-3.8
		c0.5-3-1.7-2.4-3.3-2.4c-5.2-0.1-10.3,0.2-15.5-0.1c-3.6-0.2-5.1,1-5.6,4.6c-1.1,7.2-2.6,14.3-4.1,21.4
		C858.1,616.5,858,616.5,870.7,616.4z M844.6,578c-4.6,0-9.2,0.1-13.8,0c-3.2-0.1-3,2.4-3.2,4.3c-0.3,2.7,1.9,1.7,3.2,1.8
		c1.7,0.2,3.5,0.2,5.1,0c3.5-0.4,3.7,1.1,3,4c-1.7,7.8-3.2,15.7-4.6,23.6c-0.3,1.5-2.2,3.9,1,4.5c2.6,0.5,5.2,0.8,5.7-3.3
		c0.9-6.4,2.4-12.7,3.7-19.1c1.8-9.2,1.8-9.2,10.8-9.7c0.8,0,1.6,0.1,2.3-0.1c2-0.7,1.9-2.7,2-4.3c0.2-2.1-1.6-1.7-2.8-1.7
		C853,578,848.8,578,844.6,578z M812.2,616.4c3.9,0,7.2-0.2,10.4,0.1c3.4,0.3,3.7-2,3.9-4.3c0.3-3-2.3-1.9-3.7-2
		c-3.4-0.2-6.9-0.2-10.3,0c-3,0.1-4.1-0.4-3.3-3.9c1.8-7.8,3.3-15.7,4.6-23.6c0.3-1.6,2.2-4.4-1.7-4.7c-2.8-0.3-4.6,0.1-5.1,3.6
		c-1.1,7.5-2.9,15-4.3,22.5c-0.7,3.9-3.1,9.1-1.4,11.4C803.3,618.2,808.9,616,812.2,616.4z"/>
	<path class="st1" d="M844.1,472c0-14.8,0.1-27.1-0.1-39.3c-0.1-3.5,0.9-5.2,4.5-5.6c5.5-0.6,11-1.4,16.4-2.6c3.8-0.8,4.5,0.5,4.4,4
		c-0.3,5.9,0,11.9-0.1,17.8c-0.1,2.7,0.8,3.7,3.6,3.6c7.1-0.2,14.2,0.1,21.2-0.1c3.8-0.2,5.7,0.7,5.2,4.9c-0.5,5.1,2.1,11.7-1,14.9
		c-3.1,3.3-9.8,0.7-14.8,1.1c-4.5,0.3-10.4-2-13.2,0.9c-2.8,2.9-0.7,8.7-0.8,13.3c-0.1,6.3-0.2,12.6,0,18.9
		c0.4,11.4,4.9,15.5,16.3,14.8c2.7-0.2,5.5-0.2,7.9-1.2c5.5-2.4,6.4,0.7,6.8,4.9c0.1,0.8,0.2,1.5,0.3,2.3c2.2,12,2.2,12.1-9.9,14.3
		c-7.2,1.3-14.5,1.4-21.7,0.1c-13.6-2.3-21.8-10.9-23.8-25C843,499.3,844.7,484.3,844.1,472z"/>
	<path class="st1" d="M442.5,472.4c0-15.2,0.1-27.8-0.1-40.4c0-2.6,0.4-4.3,3.4-4.7c6.1-0.8,12.1-1.7,18.1-2.8
		c2.9-0.5,3.7,0.5,3.6,3.3c-0.1,5.9,0.2,11.9-0.1,17.8c-0.2,3.6,1.1,4.5,4.6,4.4c7.1-0.3,14.1,0.1,21.2-0.1c3.2-0.1,4.5,0.7,4.3,4.1
		c-0.3,5.3,1.7,12.1-1,15.5c-2.8,3.7-10,1.1-15.2,1.2c-13.8,0.2-13.8,0.1-13.8,14c0,6.9-0.2,13.8,0.2,20.6
		c0.6,10,4.9,13.7,14.7,13.3c3.8-0.2,7.6-0.7,11.3-1.8c3.2-0.9,4.1,0,4.3,3c0.2,2.3,0.8,4.5,1.2,6.8c1.8,9.4,1.8,9.4-7.8,11.8
		c-8.1,2-16.3,2.1-24.5,0.7c-13.2-2.3-21.2-10.5-23.4-24C441.1,500,443.1,484.9,442.5,472.4z"/>
	<path class="st1" d="M408.4,447.5c5.8-0.1,12.5,1.2,19.1,3.4c2.6,0.9,3.8,1.8,2.7,4.9c-1.4,4.1-2.5,8.4-3.3,12.7
		c-0.6,3-1.7,3.8-4.6,2.7c-4.7-1.8-9.6-2.2-14.6-2.1c-13.4,0.2-19.7,9.9-21.1,20.7c-0.8,5.6-0.3,11.3,2.2,16.9
		c4.1,8.9,11.2,12,20.3,12.1c5.8,0.1,11.5-0.6,16.9-2.4c2.5-0.8,3.5-0.4,3.8,2.1c0.4,3.2,1,6.4,1.5,9.6c1.4,8.3,1.4,8.3-7,10.3
		c-9.8,2.3-19.7,2.7-29.6,0.8c-19.8-3.9-30.8-17.6-33-40.5C358.8,469.6,378.6,447.4,408.4,447.5z"/>
	<path class="st1" d="M511.5,495.8c0-12.4,0-24.8,0-37.2c0-2.5,0.3-4.2,3.2-5.1c16.1-5,32.4-7.2,49.1-3.6c4.1,0.9,5.4,2.3,4.1,6.5
		c-1.4,4.7-0.6,11-3.5,14.2c-3,3.3-8.7-0.8-13.4-1.1c-14-0.7-14.4-0.4-14.4,13.1c0,16.8-0.1,33.6,0.1,50.4c0.1,4.1-1.2,5.3-5.1,5.1
		c-4.8-0.3-9.6-0.3-14.3,0c-4.3,0.3-6-0.7-5.8-5.5C511.8,520.2,511.5,508,511.5,495.8z"/>
	<path class="st4" d="M762.9,624.2c-15.9,0.1-26-11.6-23.8-27.3c2.6-18.9,17.8-30.9,35.2-27.7c3.1,0.6,5.9,1.7,8.4,3.5
		c7.9,5.7,7.6,9-0.9,13.1c-2,1-3.1,0.9-4.9-0.7c-6-5.5-14.5-4.6-19.6,1.7c-5.6,6.8-5.6,18.4-0.1,22.7c3.4,2.7,11,3,14.7,0.8
		c2.2-1.3,2.6-3.3,2.3-5.4c-0.3-2.3-2.4-1.1-3.7-1.4c-1.5-0.4-4.8,1.1-4-2.1c0.7-2.9-1-7.4,3.9-8.4c0.2,0,0.4,0,0.6,0
		c18.3-2,18.3-2,14.9,15.5C783.5,619.7,777.2,624.1,762.9,624.2z"/>
	<path class="st5" d="M713.5,369.8c-3.6,10.8-9.1,20.6-15.1,30.2c-3.5,5.6-7,11.2-10.3,16.9c-1.1,1.9-2.5,3.9-2,6.3
		c-10.7,3.3-20.8,7.4-28,17C656.2,419.2,680.9,381.9,713.5,369.8z"/>
	<path class="st4" d="M704.3,614c-1,0-1.9,0.1-2.9,0c-2.4-0.2-6.3,1.1-7-0.7c-1-2.8-0.2-6.7,1.8-9.2c8-9.9,16.2-19.8,24.7-29.3
		c3.5-3.9,8.6-1.6,13-1.4c1.7,0.1,0.9,2.2,0.6,3.4c-1.8,7.2-1.9,14.7-4.9,21.6c-0.7,1.6-0.8,4.3,1.2,4.9c2.2,0.7,3.7,1.4,2.5,3.7
		c-1.2,2.4,1,6.7-4,7c-3.6,0.2-2.2,3.4-3,5.2c-0.7,1.4-0.2,3.7-2.7,3.6c-3-0.1-6.1,0.7-9-0.5c-0.3-0.1-0.5-1.1-0.4-1.5
		c3-9.3-3.9-6.5-8.3-6.8C705.5,614,704.9,614,704.3,614z M707.9,603c10.5,1.6,10.9,1.1,11.7-13C715.7,594.3,712.1,598.3,707.9,603z"
		/>
	<path class="st5" d="M776.2,320.2c-6.6,6.6-11.3,14.7-17.1,22c-1.7,2.1-3,4.4-6.1,4.7c-1.1-2.6-0.2-4.6,1.5-6.6
		c6.7-7.6,13-15.6,17.7-24.6c0.6-1.3,2.1-2.6,3-1.8C777.2,315.5,776.3,318,776.2,320.2z"/>
	<path class="st2" d="M772.3,315.7c-4.8,9-11,17-17.7,24.6C756.1,329,762.1,320.8,772.3,315.7z"/>
	<path class="st5" d="M761.4,399.4c0,1.3,0,2.5,0,3.8c-0.4,1-1.2,1.6-2.3,1.7C759.4,402.9,759.8,400.9,761.4,399.4L761.4,399.4z"/>
	<path class="st6" d="M204,492.6c0-6.3,0.1-12.6-0.1-18.9c-0.1-3,1-3.9,3.8-4.2c17.7-2.1,26.8,5.6,27.4,23.6c0,1.1,0,2.3,0,3.4
		c-0.6,18.9-10.9,26-29,20c-2.6-0.8-2.1-2.3-2.1-3.8C204,506,204,499.3,204,492.6z"/>
	<path class="st6" d="M294.7,485c1.3-3.2,2.1-5.7,3.3-8c3.2-6.7,9.9-9.9,17.6-8.6c6.2,1.1,11.2,6.3,12.3,12.8c0.4,2.6,0.1,3.9-3,3.9
		C315,484.9,305.1,485,294.7,485z"/>
	<path class="st6" d="M790.4,485c-4.6,0-9.2,0-13.7,0c-1.4,0-2.7-0.1-2.4-2.1c1.6-8.7,9.6-15.1,18.5-14.7
		c7.4,0.3,13.2,5.7,14.5,13.1c0.5,2.8-0.2,3.8-3.1,3.7C799.5,484.9,794.9,485,790.4,485z"/>
	<path class="st6" d="M620.3,510.6c0,9.5,0,9.6-9.8,9.6c-3,0-6.1-0.1-9.1-0.6c-4.5-0.9-7.6-3.4-7.9-8.5c-0.3-5.1,2-8.4,6.9-9.9
		c5.8-1.8,11.7-1.2,17.6-0.7c2,0.2,2.4,1.5,2.3,3.2C620.3,506,620.3,508.3,620.3,510.6z"/>
	<path class="st5" d="M761.5,399.5c0.3-7.7,0.1-15.4-1.2-23l0,0C764,384,764.8,391.6,761.5,399.5
		C761.4,399.4,761.5,399.5,761.5,399.5z"/>
	<path class="st5" d="M756.8,368.5c-1.5-1.3-1.9-3-2.3-5.4c2.6,1.5,2.3,3.4,2.5,5.2L756.8,368.5z"/>
	<path class="st5" d="M757,368.4c1.7,1.1,2.1,2.8,2.2,4.7l-0.1,0.1c-2-0.9-2.2-2.7-2.3-4.6C756.8,368.5,757,368.4,757,368.4z"/>
	<path class="st5" d="M759.2,373c1.2,0.9,1,2.2,1.1,3.5c0,0,0,0,0,0C758.8,375.8,759.1,374.4,759.2,373
		C759.1,373.1,759.2,373,759.2,373z"/>
	<path class="st6" d="M870.7,616.4c-12.6,0-12.6,0-10.1-12.5c1.4-7.1,3-14.2,4.1-21.4c0.5-3.6,2.1-4.8,5.6-4.6
		c5.1,0.3,10.3,0,15.5,0.1c1.6,0,3.8-0.6,3.3,2.4c-0.3,1.9-0.3,3.9-3.1,3.8c-3.6-0.1-7.3,0.2-10.9-0.1c-5.4-0.4-4.3,3.9-4.8,6.7
		c-0.7,4.4,3,1.8,4.6,2.6c2.2,1.1,6.4-2.6,6.8,2.2c0.4,5.5-4.1,3.9-7.3,4.3c-2.2,0.3-5.3-1.9-6.5,2.5c-2,7.3-1.9,7.7,5.6,7.7
		c2.5,0,5,0,7.5,0c1.6,0,3.7-0.5,3.3,2.5c-0.3,1.9-0.5,3.9-3.2,3.8c-0.2,0-0.4,0-0.6,0C877.2,616.4,873.9,616.4,870.7,616.4z"/>
	<path class="st6" d="M844.6,578c4.2,0,8.4,0,12.6,0c1.2,0,3-0.4,2.8,1.7c-0.1,1.6,0,3.6-2,4.3c-0.7,0.2-1.5,0.1-2.3,0.1
		c-9,0.5-9,0.5-10.8,9.7c-1.3,6.4-2.8,12.7-3.7,19.1c-0.6,4.1-3.2,3.8-5.7,3.3c-3.2-0.6-1.3-3-1-4.5c1.4-7.9,2.9-15.8,4.6-23.6
		c0.6-2.9,0.4-4.4-3-4c-1.7,0.2-3.4,0.2-5.1,0c-1.3-0.1-3.5,0.8-3.2-1.8c0.2-1.9,0-4.4,3.2-4.3C835.4,578.1,840,578,844.6,578z"/>
	<path class="st0" d="M812.2,616.4c-3.3-0.4-8.9,1.8-10.8-0.9c-1.6-2.3,0.7-7.5,1.4-11.4c1.4-7.5,3.1-15,4.3-22.5
		c0.5-3.5,2.3-3.9,5.1-3.6c3.9,0.4,2,3.1,1.7,4.7c-1.4,7.9-2.8,15.8-4.6,23.6c-0.8,3.4,0.3,4,3.3,3.9c3.4-0.2,6.9-0.2,10.3,0
		c1.4,0.1,3.9-1.1,3.7,2c-0.2,2.3-0.5,4.6-3.9,4.3C819.4,616.2,816.1,616.4,812.2,616.4z"/>
	<path class="st0" d="M707.9,603c4.2-4.7,7.8-8.7,11.7-13C718.9,604.1,718.5,604.6,707.9,603z"/>
</g>
</svg>
