<svg width="10255" height="3203" fill="none" xmlns="http://www.w3.org/2000/svg"><path d="M844.115 270c69.281-120 242.485-120 311.765 0l554.26 960c69.28 120-17.32 270-155.88 270H445.743c-138.564 0-225.167-150-155.885-270l554.257-960z" fill="#06F"/><path d="M1820.88 2933c-69.28 120-242.48 120-311.76 0l-554.261-960c-69.282-120 17.321-270 155.881-270h1108.52c138.56 0 225.16 150 155.88 270l-554.26 960z" fill="#99C2FF"/><path d="M3612 1492h-248v480c0 41.33 9.33 71.33 28 90 18.67 17.33 46 27.33 82 30 37.33 1.33 83.33.67 138-2v194c-165.33 20-284 6-356-42-72-49.33-108-139.33-108-270v-480h-184v-208h184v-216l216-64v280h248v208zm721.91-234c114.66 0 207.33 36.67 278 110 70.66 73.33 106 174 106 302v614h-216v-592c0-74.67-20-132-60-172s-94.67-60-164-60c-76 0-137.34 24-184 72-46.67 46.67-70 118.67-70 216v536h-216V884h216v528c65.33-102.67 168.66-154 310-154zm786.57 618c16 76 52.67 134.67 110 176 57.34 40 127.34 60 210 60 114.67 0 200.67-41.33 258-124l178 104c-98.66 145.33-244.66 218-438 218-162.66 0-294-49.33-394-148-100-100-150-226-150-378 0-149.33 49.34-274 148-374 98.67-101.33 225.34-152 380-152 146.67 0 266.67 51.33 360 154 94.67 102.67 142 227.33 142 374 0 22.67-2.66 52.67-8 90h-796zm-2-176h588c-14.66-81.33-48.66-142.67-102-184-52-41.33-113.33-62-184-62-80 0-146.66 22-200 66-53.33 44-87.33 104-102 180zm1562.07-442c137.33 0 254.66 51.33 352 154 97.33 101.33 146 225.33 146 372 0 148-48.67 272.67-146 374-97.34 101.33-214.67 152-352 152-152 0-268.67-56-350-168v542h-216V1284h216v144c81.33-113.33 198-170 350-170zm-260 756c60 60 135.33 90 226 90 90.66 0 166-30 226-90 60-61.33 90-138 90-230s-30-168-90-228c-60-61.33-135.34-92-226-92-90.67 0-166 30.67-226 92-60 60-90 136-90 228s30 168.67 90 230zm1123.76-138c16 76 52.67 134.67 110 176 57.34 40 127.34 60 210 60 114.67 0 200.67-41.33 258-124l178 104c-98.66 145.33-244.66 218-438 218-162.66 0-294-49.33-394-148-100-100-150-226-150-378 0-149.33 49.34-274 148-374 98.67-101.33 225.34-152 380-152 146.67 0 266.67 51.33 360 154 94.67 102.67 142 227.33 142 374 0 22.67-2.66 52.67-8 90h-796zm-2-176h588c-14.66-81.33-48.66-142.67-102-184-52-41.33-113.33-62-184-62-80 0-146.66 22-200 66-53.33 44-87.33 104-102 180zm1160.21 176c16 76 52.66 134.67 110 176 57.33 40 127.33 60 210 60 114.66 0 200.66-41.33 258-124l178 104c-98.67 145.33-244.67 218-438 218-162.67 0-294-49.33-394-148-100-100-150-226-150-378 0-149.33 49.33-274 148-374 98.66-101.33 225.33-152 380-152 146.66 0 266.66 51.33 360 154 94.66 102.67 142 227.33 142 374 0 22.67-2.67 52.67-8 90h-796zm-2-176h588c-14.67-81.33-48.67-142.67-102-184-52-41.33-113.34-62-184-62-80 0-146.67 22-200 66-53.34 44-87.34 104-102 180zm1212.06-248c54.66-124 157.32-186 308.02-186v234c-82.7-5.33-154.7 14.67-216 60-61.36 44-92.02 117.33-92.02 220v504h-216V1284h216v168z" fill="#24366B"/></svg>