<svg id="Layer_1" data-name="Layer 1" xmlns="http://www.w3.org/2000/svg" viewBox="0 0 753.35 304.79"><defs><style>.cls-3{fill:#ec2328}.cls-4{fill:#ed2b30}.cls-5{fill:#f04e52}.cls-6{fill:#fdeded}.cls-8{fill:#fdefef}.cls-16{fill:#fbd3d4}</style></defs><path d="M870.33 348.17c.81 17.74 4.57 35 8.89 52.13 1.9 7.54 5 14.76 7.43 22.18a14.58 14.58 0 0 1 .52 5.77c-.23 2.31-2.82 2.89-5.15 1.09s-4.66-3.52-7.94-3c-2.51.41-3.91 1.28-3.79 4.25.27 6.79-.9 13.58 1.52 20.34.89 2.47-.58 5.75-.8 8.68a15.55 15.55 0 0 0 .48 3.62c.06.35.44.7.39 1-.63 4-1.31 7.93-2.06 12.39 2.08 1.61 2.86 3.84-.49 6.42a6.72 6.72 0 0 1 1.5.51c.34.25.89.78.82 1-1.6 3.63 1.5 7 .5 10.54-.25.87-1.56 1.43-3 2.67 2.19 1.72 4.35 3.37 6.46 5.09 1.54 1.25 1.7 6.48-.06 8.63-1.24 1.52-3.09 2.52-4.64 3.79a3.55 3.55 0 0 0-1.44 2.46 10 10 0 0 1 2.49-.54 18.73 18.73 0 0 1 3.39.84l-3.5 4.78c.15.16.44.51.76.83l2.52 2.55a15.14 15.14 0 0 1-2.62 2.2c-4.47 2.29-5.18 5.56-1.48 10l-3.13 1.29c3.28 2.19 3.88 4 1 5.87a.83.83 0 0 0-.37.6c.39 2.8.92 5.58 1.2 8.38a15.29 15.29 0 0 1-.52 3.17c-.18 1.47-.32 3-.39 4.43 0 .63.43 1.35.25 1.89-1.18 3.41-1.22 3.39 1.16 6.64-5.17 2.54-1.53 7.17-2.38 10.9-.88 3.88-.35 8.09-.44 12.15l.55 1.6c-.17 2.35-.25 4.71-.52 7s-.74 4.87-1.12 7.29l1.35 1.3c-.71 3.48-2.75 4.91-6.27 4.06l-1.46-.53-2.31-6.63c1-1.9 2.19-3.71 1-6.09-.31-.63.45-1.76.61-2.67s.69-2.34.26-3c-1.43-2.34-2.11-4.4.44-6.37a.37.37 0 0 0 .1-.33c-2.2-3.38.5-6.93-.38-10.35a5.54 5.54 0 0 1-.29-1.79c.53-5.86 1.24-11.71 1.63-17.58.36-5.44.32-10.91.55-16.36q.21-4.93.72-9.85a5.68 5.68 0 0 0-2.9-6.07c-3.46-2.19-3.2-3.56.53-5.34-1-2.93-3-5.46-.89-9.08 1.06-1.81-.42-4.95 0-7.36.26-1.56 1.86-2.9 3.54-3.87.34-5.47.75-10.94 1-16.42.22-5 .26-10.06.92-15 .29-2.58-4.06-5.41.43-7.22-.41-5.93-2.67-12.18-.72-16.58 2.92-6.61.35-12.81 2-18.86-7.5-3.22-9.31-2.85-14.44 2.71-.41.45-.77 1.11-1.28 1.28-1.78.6-3.61 1-5.42 1.51-.18-1.79-1-3.83-.43-5.33 4-10.52 8.41-20.88 12.46-31.38a115.13 115.13 0 0 0 4.7-14.66c2.38-10 4.39-20 6.48-30a14.28 14.28 0 0 0-.15-3.54zm5.83 61.09l-4.47-12.71-1 .22.78 16.24v4.66l7.37-1.26zm-10-8l-.94-.14-8.63 16.12 9.57.76zM862.7 605.8l-1 .57 1.55 3.6 1.35-.71z" transform="translate(-133.9 -348.17)" fill="#ed2a2f"/><path d="M141.32 463.7c-1.94 4.14-3.92 8.26-5.81 12.42-.65 1.44-1.08 3-1.61 4.47v-5.89l6.43-12z" transform="translate(-133.9 -348.17)" fill="#f26568"/><path class="cls-3" d="M402.8 545.42l-5.14 2.58c-1.13-.47-2.2-1-3.32-1.37-.95-.32-2.76-.4-2.79-.71-.11-1.24-.1-2.91.64-3.71a48.66 48.66 0 0 1 7.52-6.94c2.95-2.09 3.62-4 1.85-7.34-2.89-5.38-5.36-11-8.31-17.15-3.28 3.26-6.71 5.9-9.16 9.26a153.2 153.2 0 0 1-36.9 36.54 84.1 84.1 0 0 0-8.39 6.58c-2.67 2.4-5.49 2-8.9 1.24 1.64-6.39 6.72-10 10.53-14.69-.35-.67-.79-1.37-1.11-2.13-1.22-2.86-1.44-5.31 1.14-7.92 14.62-14.81 29-29.82 43.61-44.69a12 12 0 0 0 3.77-8.81 127.93 127.93 0 0 1 .72-13.92c.17-1.53 1.29-3.65 2.55-4.19 2.06-.89 4.63-.92 6 1.85a10.72 10.72 0 0 0 1.48 1.74l3.35-8c3.89 1.49 7.71 2.66 11.27 4.38 3.31 1.6 3.23 5 3 8.08-.92 12.44.72 24.71 2.23 37 0 .36.16.71.27 1.19 2.9-2.78 5.77-5.49 8.6-8.23 1-.94 1.83-2 2.79-2.92 5.16-5.09 10.87-9.89 7.82-18.52-.46-1.3 0-2.92 0-4.39.09-3.09.68-5.53 4.79-5a4.06 4.06 0 0 0 3.08-1.86c1.54-2.61 3.6-2.67 6-1.76 3.72 1.42 5.86.73 7.85-2.71.43-.74.65-1.75 1.28-2.2 1.31-.92 3-2.31 4.21-2.08a5.33 5.33 0 0 1 3.27 3.4c.93 3.5 1 7.36-1.75 10.07-6.49 6.38-6.11 13.78-4.1 21.68a104.77 104.77 0 0 0 16 35.27c2.55 3.58 5.41 6.95 9.86 8.42 6.08-8.13 7.75-17.46 8.85-27 1.52-13.21-.88-25.72-5.7-38.08-3-7.67-4.54-15.9-6.69-23.9a5.22 5.22 0 0 1 .14-1.75c5.69-2 5.71-2 7.9 3.21.9 2.14 1.82 4.27 2.75 6.4a9.85 9.85 0 0 0 1.08 1.23c0-2.49-.47-4.49.13-6.1a7.51 7.51 0 0 1 3.51-4.12c2.52-1 2.24 1.64 3.18 3.05 2.23 3.36 4.74 6.86 7.95 9.17 3.4 2.45 7.75 3.56 11.66 5.32 10.34 4.64 21 5.14 31.95 2.64 1.65-.38 3.37-.43 5.4-.68-.22 3.86 1.95 3.42 4.52 2.95 1.36-.25 2.88.44 4.13.68 2.92-5.86 9.14-2.65 14-5.33 1.58 9.45 3.24 18.2 4.47 27 1.4 10.11 6.69 18 13.52 25.11 1.12 1.17 2.63 2 5 3.71 0-6.11-.2-11.09 0-16.06.63-13.35 1.51-26.68 5.26-39.62a22.7 22.7 0 0 1 2.79-6.35 5.41 5.41 0 0 1 3.73-1.84c2-.14 2.87 1.3 2.89 3.36a32.28 32.28 0 0 0 .71 4.57 75.49 75.49 0 0 1 5.46-6c3.23-2.88 6.68-2.44 9.81.48a7.48 7.48 0 0 0 4.61 2c2.94 0 4.54 1.45 5 3.88.46 2.65 1.83 5.57-1.63 7.8a18.71 18.71 0 0 0-5.17 5.61 84.23 84.23 0 0 0-10.73 24.82c-2.29 8.79-4 17.52-4.1 26.65-.1 7.07.75 13.61 5.33 19.31 1.34 1.67 2.38 3.58 3.92 5.93l-9.77-1 4.18 7.67c-.85 2.39-6 3.38-9.7.92-4.59-3.09-8.31-7-9.76-12.48-1.3-4.94-2.06-10-3.28-15a8.54 8.54 0 0 0-2.3-3.74c-5.28-5.25-10.84-10.23-16-15.63-1.93-2-2.94-4.93-4.58-7.8-.46.78-.89 1.21-1 1.69a77.41 77.41 0 0 1-14.37 34.17 18.28 18.28 0 0 0-1.64 2.87c-3.15 6.44-3.14 6.44-10.67 6l-1.43-4.06-3.42 8.86c-2.53-2.35-4.16-4.12-6.06-5.53-1.58-1.17-3.43-2.59-5.23-2.69a42 42 0 0 0-11 .77c-10.37 2.21-21 3.49-30.55 8.71a16.33 16.33 0 0 1-2.72 1.1c-4 1.31-6.07.14-7-3.91-.23-.94-.41-1.89-.64-3a6.75 6.75 0 0 0-2.2-.07c-5.4 1.8-9.45-.54-13.21-4.05-4.65-4.35-9.49-8.5-14-13-6.55-6.49-9.59-15-12.66-23.38-.76-2.08-1.89-4-3.21-6.8-5.58 8.08-10.6 15.3-15.53 22.59a2.46 2.46 0 0 0 .06 2.26c2.52 3.45 5.22 6.77 7.79 10.18a39.91 39.91 0 0 1 4.42 7c-7.37-.6-15 .78-20.73-5.16-2.23-2.3-4.18-2-6 .59-2.25 3.25-5.13 5.45-9.34 5.06-.89-.08-2.25-.36-2.5-.93a4 4 0 0 1 .32-3 47.43 47.43 0 0 1 3-4.6l.25-1.13zM623.09 488l-3.4 16.45 1 .21 3.95-16.66 6.71-17.26-1.36-.53zm-166 26.12c-1.6-5.28-1.31-11.19-5.35-15.81-.82 1.48-1.65 3.13-1.22 4.32 1.57 4.31 3.57 8.48 5.41 12.69 2.39 5.08 4.48 10.33 7.25 15.2a137.13 137.13 0 0 0 9.57 14.23c1.09 1.46 3.19 2.18 4.83 3.23l.56-.8c-.59-.74-1.21-1.45-1.78-2.21-3.8-5.05-7.92-9.9-11.27-15.23-3.09-4.99-5.34-10.44-7.97-15.67zm56.41-11.4c7.1-.32 13.68-.6 20.27-.91 4.67-.22 8 1.68 10 6 .59 1.34 1.22 2.67 1.84 4 2.33 5 1.94 5.6-3.59 5.6h-28.54l-2.56 16.8c2.6-.26 4.64-.6 6.69-.66 11-.28 22.32-1.87 30.4 8.46 1.06 1.35 4.4.2 5-1.55.82-2.36 1.68-4.71 2.38-7.11 4.41-14.95 7.63-30.11 7.83-45.76 0-2.16-1-4.32-1.7-7.18-16.38 7.65-33.37 5.11-50.08 6.11zM151.83 446.62c3.47-4.86 7.06-9.64 10.34-14.62 1.12-1.7 1.47-3.91 2.1-5.69a31.68 31.68 0 0 0 3.11-2.55c5.48-5.74 10.77-11.67 16.39-17.26 3.53-3.52 7.16-7.22 11.43-9.64a101.51 101.51 0 0 1 17.48-7.33c10.75-3.66 22.06-4.41 33.28-4.91a67.12 67.12 0 0 1 17.84 1.86c11.9 2.75 23.66 6.11 35.42 9.43 2.21.63 4.15 2.24 6.21 3.4l-.26.94-5.18.35c5.19 3.84 10.15 7.32 14.88 11.09 2.23 1.78 4 4.13 6 6.22 9 9.52 18.43 18.77 23.65 31.06 2.26 5.33 5 11.23 4.69 16.73-.86 16.87-.72 34.18-7.1 50.1-4.42 11-9.26 22.05-17.94 31-12 12.35-25.42 22.52-41 29.47a88.21 88.21 0 0 1-54.6 6c-9.06-1.86-18-4.23-26.94-6.77-9.94-2.83-17.25-9.81-25-16.25-9.63-8-16.28-18.11-20.95-29.35-3.29-7.92-4.48-16.69-7.33-24.83-1.37-3.9 0-8.24-2.84-11.91-1.12-1.47-.82-4.28-.65-6.44.35-4.62 1.86-9.3 1.39-13.8-.93-8.71 4.39-15.1 7-22.49l1.28-3a1 1 0 0 0 .26-.1s0-.12.06-.18l-.3.3zm191.66 6.07l-1.81-4.37-1.06.53 1.52 3.79 1 1.81.53-.19zm-37.33-14.21l-1.05.72c-.88-1.2-1.82-2.37-2.63-3.61-1.74-2.65-3.22-5.5-5.16-8-8.5-10.9-18.93-19.22-33.19-20.15a175.56 175.56 0 0 0-31.47.67c-8.68 1-17.66 2.17-25.29 7.54-9.22 6.5-18.37 13.06-25.37 22.05-11.88 15.22-15.83 33-16.71 51.85-.66 14.08 2.82 26.87 9.54 39a17.82 17.82 0 0 0 2.13 2.95c1.79 2.08 3.82 4 5.44 6.17 1.87 2.54 3.19 5.51 5.14 8 5.89 7.47 13.82 12.32 22.08 16.73 14.58 7.78 30 10.46 46.17 7.2 10.7-2.16 21.28-5.21 30.43-11.53 5.49-3.79 11.64-7.26 15.74-12.29 10.29-12.63 17.69-27 20.76-43.21 2.7-14.26 2.88-28.6-.88-42.65-4-14.94-12.28-27.71-22.35-39.28-1.57-1.8-4.35-2.55-6.57-3.78l-.49.91c5.83 6.09 10.9 12.7 13.74 20.7zm-120.88 112.3c6.93 7.62 15.75 11.92 25.05 15.36zm142.29-49.05l.92.14c2-5.8 3.5-11.7 1.76-18.09zm15.33-46.81l4 13.64c.64-6.27-.66-11.1-3.99-13.64zM159.5 472.2l1.64.37 2.15-9.11-1.7-.39zM670.68 521.5c-2.5 1-3.49 2.68-3.58 5.39a40.53 40.53 0 0 1-5.71 18.75c-2.54 4.52-3.73 9.8-5.5 14.74-.66 1.84-1.26 3.7-2 5.87-2.19-2.8-5-2.48-7.16-.88-3 2.19-5.28.1-6.63-1.44-1-1.12 0-3.94.1-6a.52.52 0 0 1 .21-.29c8-6.5 8-16.32 10.31-25.17.4-1.56 0-3.35-.13-5 0-.84-.42-1.79-.16-2.51 3.77-10.22 4.32-21 2.88-31.42a166.23 166.23 0 0 1-1.47-19.61c-.05-2.82-.67-6.27 3.55-6.94 6.65-1.07 11 .82 12.26 5.27a16.93 16.93 0 0 1 .48 2.9c.65 6.13 1.29 12.26 2 18.92 4.07-1.47 7.08-.85 9.23 3.22 1 2 3.18.76 4.68-.62 8.2-7.56 16.44-15.06 24.64-22.62 4-3.65 7.78-7.47 11.83-11 1.32-1.15 3.18-1.68 4.93-2.57 2.26 4.32 2 8 .11 11.25a42.68 42.68 0 0 1-7.72 10.1c-9.82 8.87-20 17.28-30 26a6.09 6.09 0 0 0-1.7 4.64 160.09 160.09 0 0 0 3.26 17.68c.47 1.89 2.53 3.4 3.94 5 .8.92 1.78 1.68 2.68 2.52 4.43 4.13 5.68 4.19 9.8-.24 10.74-11.56 19.93-24.14 25.36-39.17 1.16-3.2 3.47-6.12 4-9.38.72-4.39.31-9 .25-13.47 0-2.27-1-4.86 2.24-5.71 3-.79 4.1 1.4 5.14 3.58.21.43.43.86 1.69 1.71 1.11-2.65 2.44-5.22 3.29-7.95 1.65-5.26 3.29-6.69 9.34-6.73.1 3.3.42 6.65.25 10-.24 4.76.64 5.9 5.4 6 1.66 0 3.57-.44 3.87 2.15 0 .27.77.67 1.17.66 6.94-.12 6.92 5.38 7.64 9.85 1.61 9.9 2.4 20 4.44 29.77 1.25 6 3.93 11.8 6.48 17.45 1.62 3.6 4.68 6 8.57 7.59 5 2.05 9.59 4.91 15 7.76l-2.44.8 3.63 4.71a19.69 19.69 0 0 1-3.9 1.23c-5.51.39-11 .84-16.54.85-2 0-3.93-1.24-5.93-1.76a9.19 9.19 0 0 0-3.47-.31c-6.79 1-10.35-.81-13.53-7.11-2.27-4.48-4.47-9-6.53-13.57a4.14 4.14 0 0 0-4.49-2.79c-6.49.16-13 0-19.49.13a4.42 4.42 0 0 0-3.27 1.54c-3.68 6.2-7.12 12.53-10.79 19.09a15.79 15.79 0 0 1 2.86.72 4.84 4.84 0 0 1 .87 8.46c-9.22 7.06-21.95 5.46-29.67-3.37-1.4-1.6-4.13-2.27-6.37-2.82s-2.43-1.65-2.18-3.68c.22-1.84.35-4.24-.61-5.57-3.17-4.34-7.28-8-10.24-12.48s-4.8-9.36-7.17-14.12zm88.73-35.44l-.79-.06c-.84 2.13-1.81 4.22-2.49 6.4-.63 2-1.73 4.37-1.23 6.19 1.53 5.5 3.69 10.84 5.72 16.19a14.65 14.65 0 0 0 2 2.93l.81-.43zm-6 35.48l-4.85-11.89-7.4 13.14zm-35.08 19.69c-3.39 2.74-6.55 5.68-8.35 9.76 4.38-1.87 6.14-5.99 8.31-9.75z" transform="translate(-133.9 -348.17)"/><path class="cls-4" d="M867.7 611l-1.35-1.3c2.41-2.85 6.88-2.39 9.75 1.44a26.28 26.28 0 0 1 4.28 8.06c2.55 8.63 3.37 17.17-4 24.25a7.29 7.29 0 0 0-1.2 1.39c-4.84 7.89-12.43 8.72-20.56 7.93-6.59-.64-14.44-9.7-14.54-16.36-.15-9.75 4.08-17.71 10.28-24.73 1.37-1.55 3.95-2 6-3-.6 1.24-.9 2.83-1.86 3.66-4.54 3.93-6.94 9.13-8.94 14.55-2.3 6.24-.84 12 4 16.32.06-.57.29-1.11.11-1.45-3.28-6.48-1.61-12.94.28-19.3a26.15 26.15 0 0 1 3.58-6.73c.43-.65 1.8-.66 2.74-1 .1 1 .51 2 .25 2.9-1.09 3.62-2.55 7.13-3.57 10.77-1.44 5.16-.41 8.08 3 9.94-.21.79-.81 1.78-.53 2.28a14.51 14.51 0 0 0 2.91 3.72 3.38 3.38 0 0 0 2.68.74c3.33-.89 6.49-2.12 8.4-5.37 5.58-9.49 5.49-18.93-.13-28.34-.16-.37-1.02-.28-1.58-.37z" transform="translate(-133.9 -348.17)"/><path class="cls-5" d="M154.48 447.48l-1.28 3c-.45-2.38-1.35-1.32-2.16-.25-2.91 3.87-5.8 7.76-8.69 11.64l-1-.7 10.52-14.54 2.67.89z" transform="translate(-133.9 -348.17)"/><path class="cls-4" d="M868 595.33l-.55-1.6z" transform="translate(-133.9 -348.17)"/><path class="cls-5" d="M142.35 461.86l-1.08.47v-1.17zM141.32 463.7l-1-1z" transform="translate(-133.9 -348.17)"/><path class="cls-6" d="M856.6 417.24l8.63-16.12.94.14" transform="translate(-133.9 -348.17)"/><path d="M871.49 413l-.78-16.24 1-.22 4.47 12.71z" transform="translate(-133.9 -348.17)" fill="#f8b4b6"/><path class="cls-8" d="M871.49 413l4.67-3.75 2.7 7.16-7.37 1.26z" transform="translate(-133.9 -348.17)"/><path class="cls-4" d="M862.7 605.8l1.93 3.46-1.35.71-1.55-3.6zM861.44 615l-.93.83-.53-1.36z" transform="translate(-133.9 -348.17)"/><path d="M457.12 514.07c2.63 5.23 4.89 10.69 8 15.62 3.35 5.33 7.48 10.18 11.27 15.23.57.76 1.19 1.47 1.78 2.21l-.56.8c-1.64-1.06-3.74-1.77-4.83-3.23a137.13 137.13 0 0 1-9.57-14.23c-2.76-4.87-4.86-10.12-7.25-15.2z" transform="translate(-133.9 -348.17)" fill="#fbd9da"/><path d="M457.12 514.07l-1.16 1.2c-1.84-4.22-3.83-8.38-5.41-12.69-.43-1.19.4-2.84 1.22-4.32 4.04 4.62 3.75 10.53 5.35 15.81z" transform="translate(-133.9 -348.17)" fill="#fce8e8"/><path d="M623.09 488l6.9-17.77 1.36.53-6.71 17.24z" transform="translate(-133.9 -348.17)" fill="#fad0d1"/><path d="M623.09 488h1.55l-3.92 16.64-1-.21z" transform="translate(-133.9 -348.17)" fill="#f7abad"/><path d="M402.8 545.42l.87-.22-.25 1.13z" transform="translate(-133.9 -348.17)" fill="#fefdfd"/><path d="M185.28 550.78l25.05 15.36c-9.33-3.44-18.12-7.74-25.05-15.36z" transform="translate(-133.9 -348.17)" fill="#facdce"/><path d="M327.58 501.73l2.68-17.95c1.74 6.39.29 12.29-1.76 18.09z" transform="translate(-133.9 -348.17)" fill="#f9c0c1"/><path class="cls-16" d="M342.91 454.92c3.33 2.54 4.63 7.37 4 13.64z" transform="translate(-133.9 -348.17)"/><path d="M159.5 472.2l2.09-9.13 1.7.39-2.15 9.11z" transform="translate(-133.9 -348.17)" fill="#f7a6a8"/><path d="M342.14 452.64l-1.52-3.79 1.06-.53 1.81 4.37z" transform="translate(-133.9 -348.17)" fill="#f69597"/><path class="cls-16" d="M342.14 452.64h1.36l.13 1.58-.53.19z" transform="translate(-133.9 -348.17)"/><path class="cls-5" d="M154.5 447.5l.3-.3c0 .06 0 .15-.06.18a1 1 0 0 1-.26.1z" transform="translate(-133.9 -348.17)"/><path class="cls-8" d="M756.13 492.4c.67-2.18 1.65-4.27 2.49-6.4l.79.06 4 31.21-.81.43a14.65 14.65 0 0 1-2-2.93" transform="translate(-133.9 -348.17)"/><path class="cls-6" d="M741.12 522.8l7.4-13.14" transform="translate(-133.9 -348.17)"/><path d="M718.29 541.24c-2.17 3.77-3.93 7.89-8.35 9.76 1.8-4.08 4.96-7 8.35-9.76z" transform="translate(-133.9 -348.17)" fill="#fbd2d3"/></svg>