<svg xmlns="http://www.w3.org/2000/svg" width="150" height="26" fill="none"><path d="M45.556 20.3h3.116v-6.096l5.52-8.962h-3.559l-3.52 6.02-3.48-6.02h-3.596l5.52 9.096V20.3zM63.301 15.992c.02-.23.038-.596.038-1.077 0-1.52-.48-2.77-1.423-3.712-.942-.942-2.173-1.423-3.692-1.423-1.481 0-2.77.52-3.846 1.577-1.058 1.058-1.597 2.308-1.597 3.789 0 1.577.539 2.865 1.616 3.885 1.096 1 2.423 1.5 4.02 1.5 2.095 0 3.557-.77 4.422-2.327l-2.173-1.423c-.461.75-1.384 1.23-2.288 1.23-1.289 0-2.366-.769-2.539-2.019h7.462zm-7.385-1.98c.058-.405.289-.809.692-1.193.404-.404.924-.596 1.539-.596 1.365 0 2.115.884 2.192 1.788h-4.423zM68.493 4.626h-3.02V20.3h3.02V4.626zM74.277 4.626h-3.02V20.3h3.02V4.626zM76.408 15.184c0 1.539.538 2.808 1.615 3.828 1.077 1.019 2.404 1.519 3.981 1.519 1.558 0 2.885-.52 3.981-1.539 1.096-1.038 1.635-2.327 1.635-3.865 0-1.52-.539-2.77-1.616-3.789C84.927 10.318 83.6 9.8 82.042 9.8c-1.557 0-2.904.519-4 1.557-1.096 1.02-1.634 2.308-1.634 3.827zm3.077-.038c0-.75.25-1.385.73-1.866.481-.5 1.078-.75 1.789-.75.712 0 1.327.25 1.808.75.48.481.73 1.116.73 1.866 0 1.538-1.076 2.635-2.519 2.635-.711 0-1.327-.25-1.807-.731-.481-.5-.731-1.135-.731-1.904zM100.277 16.454l-1.924-6.424h-2.769l-1.923 6.366h-.02l-1.846-6.366h-3.077l3.193 10.27h2.904l2.115-6.558h.02l2.096 6.558h2.942l3.231-10.27h-3l-1.942 6.424zM120.332 15.396c-.327.865-.846 1.73-1.788 2.712-.943.98-2.481 1.634-4.25 1.634-1.904 0-3.481-.692-4.731-2.058-1.231-1.365-1.847-3.019-1.847-4.961 0-1.923.616-3.558 1.847-4.904 1.25-1.346 2.807-2.02 4.711-2.02 1.693 0 3.154.577 4.097 1.481.942.866 1.557 1.808 1.923 2.827l.692-.327c-.384-1.134-1.096-2.192-2.173-3.134-1.058-.943-2.673-1.577-4.5-1.577-2.135 0-3.904.75-5.308 2.25-1.404 1.48-2.096 3.308-2.096 5.462 0 2.173.692 3.98 2.077 5.461 1.384 1.481 3.154 2.212 5.288 2.212 1.866 0 3.539-.654 4.597-1.635 1.077-.98 1.769-2.02 2.154-3.096l-.693-.327zM131.081 20.3v-6.462c0-2.538-1.539-3.98-3.924-3.98-1.98 0-3.384.942-4.077 2.422l.673.385c.712-1.404 1.847-2.096 3.424-2.096 2.019 0 3.134 1.25 3.134 3.327v.711h-3.327c-1.077 0-2.019.25-2.827.75-.788.481-1.192 1.212-1.192 2.193 0 .942.327 1.654.981 2.173.654.5 1.481.75 2.461.75 1.635 0 3.135-.884 3.904-2.442V20.3h.77zm-.75-4.212c0 1.096-.385 2-1.135 2.674-.75.673-1.673 1-2.769 1-1.558 0-2.674-.789-2.674-2.231 0-.75.327-1.308.981-1.673.673-.366 1.423-.558 2.289-.558h3.308v.788zM139.166 9.896c-.846 0-1.634.269-2.346.807a4.01 4.01 0 0 0-1.481 2V10.03h-.75V20.3h.75v-5.173c0-1.25.346-2.289 1.019-3.154.674-.866 1.635-1.308 2.847-1.308h.154v-.75c-.039-.02-.097-.02-.193-.02zM150 20.3V4.646h-.731v8.134c-.75-1.75-2.346-2.923-4.346-2.923-1.442 0-2.616.52-3.558 1.558-.942 1.02-1.404 2.27-1.404 3.731 0 1.462.462 2.712 1.366 3.75.923 1.039 2.115 1.558 3.596 1.558.981 0 1.865-.27 2.635-.827a4.873 4.873 0 0 0 1.711-2.135V20.3H150zm-5.039-.577c-1.25 0-2.269-.442-3.057-1.308-.789-.884-1.174-1.98-1.174-3.288v-.02c0-1.288.385-2.365 1.174-3.23.788-.866 1.807-1.289 3.057-1.289 1.27 0 2.308.462 3.116 1.366a4.61 4.61 0 0 1 1.212 3.173v.057c0 1.231-.404 2.289-1.231 3.193-.808.904-1.847 1.346-3.097 1.346z" fill="#0D0727"/><path d="M2.726 6.074c.103-.581.657-.97 1.238-.867l19.798 3.49c.58.103.969.658.866 1.239l-2.54 14.41c-.103.58-.657.968-1.238.866L1.052 21.72a1.068 1.068 0 0 1-.867-1.238l2.541-14.41z" fill="#FEE5B0"/><path d="M8.575 3.141c.202-.555.815-.84 1.37-.639l18.89 6.876c.555.202.84.815.639 1.37l-5.005 13.749c-.201.554-.814.84-1.369.639L4.21 18.26a1.068 1.068 0 0 1-.64-1.37L8.576 3.14z" fill="#FDCA5F"/><path d="M15.33.925a1.068 1.068 0 0 1 1.459-.39l17.41 10.05c.51.296.686.95.39 1.46l-7.315 12.672a1.068 1.068 0 0 1-1.46.39l-17.41-10.05a1.068 1.068 0 0 1-.39-1.46L15.328.925z" fill="#FCB41C"/><script id="globalVarsDetection"/></svg>