<svg  viewBox="0 0 3927 1342" fill="none" xmlns="http://www.w3.org/2000/svg">
<rect fill="white"/>
<g clip-path="url(#clip0_2_41)">
<path d="M843.055 578.859C843.055 441.996 954.005 331.046 1090.87 331.046H1155.3V763.232C1155.3 900.096 1044.35 1011.05 907.486 1011.05H843.055V578.859Z" fill="#FFCF33"/>
<path d="M475.297 543.174C475.297 680.038 586.247 790.988 723.11 790.988H787.542V578.859C787.542 441.996 676.592 331.046 539.728 331.046H475.297V543.174Z" fill="#FFCF33"/>
<path d="M787.54 789.182L477.18 331.046H539.726C676.59 331.046 787.54 441.996 787.54 578.859V789.182Z" fill="#FFD755"/>
<path d="M1642.48 698.801C1779.35 698.801 1890.3 809.751 1890.3 946.614V1011.05H1458.11C1321.25 1011.05 1210.3 900.096 1210.3 763.232V698.801H1642.48Z" fill="#4FA58C"/>
<path d="M1799.72 1011.05L1588.2 698.8H1642.48C1779.34 698.8 1890.29 809.75 1890.29 946.614V1011.05H1799.72Z" fill="#6CB49F"/>
<path d="M1642.48 643.291C1779.35 643.291 1890.3 532.341 1890.3 395.478V331.046H1458.11C1321.25 331.046 1210.3 441.996 1210.3 578.86V643.291H1642.48Z" fill="#492B7C"/>
<path d="M1550.59 643.291L1354.42 353.715C1385.97 339.163 1421.09 331.046 1458.11 331.046H1890.3V395.478C1890.3 532.341 1779.35 643.291 1642.48 643.291H1550.59Z" fill="#674E92"/>
<path d="M3027 699V1011H2950.66V984.394C2935.76 1002.13 2913.41 1011 2883.61 1011C2862.8 1011 2843.82 1006.21 2826.67 996.641C2809.52 986.787 2795.88 972.85 2785.76 954.831C2775.92 936.812 2771 915.977 2771 892.327C2771 868.677 2775.92 847.983 2785.76 830.245C2795.88 812.226 2809.52 798.43 2826.67 788.858C2843.82 779.285 2862.8 774.499 2883.61 774.499C2910.88 774.499 2931.97 782.382 2946.87 798.149V748C2946.87 720.938 2968.81 699 2995.87 699H3027ZM2900.48 947.229C2914.25 947.229 2925.64 942.443 2934.64 932.87C2943.63 923.016 2948.13 909.501 2948.13 892.327C2948.13 875.434 2943.63 862.201 2934.64 852.628C2925.92 843.056 2914.53 838.269 2900.48 838.269C2886.42 838.269 2874.89 843.056 2865.89 852.628C2856.9 862.201 2852.4 875.434 2852.4 892.327C2852.4 909.501 2856.9 923.016 2865.89 932.87C2874.89 942.443 2886.42 947.229 2900.48 947.229Z" fill="black"/>
<path d="M2688.29 805.829C2696.54 795.22 2707.22 787.334 2720.31 782.172C2733.69 776.724 2748.92 774 2766 774V847.552C2758.6 846.691 2752.48 846.261 2747.64 846.261C2730.27 846.261 2716.61 850.993 2706.65 860.456C2696.97 869.918 2692.13 884.399 2692.13 903.898V1011H2611V774H2688.29V805.829Z" fill="black"/>
<path fill-rule="evenodd" clip-rule="evenodd" d="M2385.41 995.543C2401.8 1005.85 2420.36 1011 2441.07 1011C2456.23 1011 2469.99 1008.03 2482.36 1002.1C2490.35 998.268 2497.3 993.524 2503.23 987.868V1011H2580V774H2503.23V797.587C2497.11 791.685 2490 786.789 2481.89 782.899C2469.83 776.966 2456.23 774 2441.07 774C2420.36 774 2401.8 779.152 2385.41 789.457C2369.33 799.761 2356.5 813.812 2346.92 831.611C2337.64 849.409 2333 869.706 2333 892.5C2333 915.294 2337.64 935.591 2346.92 953.389C2356.5 971.188 2369.33 985.239 2385.41 995.543ZM2492.1 931.375C2482.82 941.368 2470.61 946.364 2455.45 946.364C2445.87 946.364 2437.21 944.022 2429.48 939.338C2421.75 934.654 2415.72 928.253 2411.39 920.134C2407.06 912.016 2404.9 902.804 2404.9 892.5C2404.9 881.883 2407.06 872.516 2411.39 864.397C2416.03 856.279 2422.06 850.034 2429.48 845.662C2437.21 840.978 2446.02 838.636 2455.92 838.636C2465.81 838.636 2474.47 840.978 2481.89 845.662C2489.62 850.034 2495.5 856.279 2499.52 864.397C2503.85 872.516 2506.01 881.883 2506.01 892.5C2506.01 908.113 2501.37 921.071 2492.1 931.375Z" fill="black"/>
<path d="M2204 1011C2172.57 1011 2144.29 1004.43 2119.14 991.286C2094.29 977.857 2074.71 959.286 2060.43 935.571C2046.14 911.857 2039 885 2039 855C2039 825 2046.14 798.143 2060.43 774.429C2074.71 750.714 2094.29 732.286 2119.14 719.143C2144.29 705.714 2172.57 699 2204 699C2231.43 699 2256.14 703.857 2278.14 713.571C2300.14 723.286 2318.43 737.286 2333 755.571L2279 804.429C2259.57 781 2236 769.286 2208.29 769.286C2192 769.286 2177.43 772.857 2164.57 780C2152 787.143 2142.14 797.286 2135 810.429C2128.14 823.286 2124.71 838.143 2124.71 855C2124.71 871.857 2128.14 886.857 2135 900C2142.14 912.857 2152 922.857 2164.57 930C2177.43 937.143 2192 940.714 2208.29 940.714C2236 940.714 2259.57 929 2279 905.571L2333 954.429C2318.43 972.714 2300.14 986.714 2278.14 996.429C2256.14 1006.14 2231.43 1011 2204 1011Z" fill="black"/>
<path fill-rule="evenodd" clip-rule="evenodd" d="M3374.14 642L3452.14 403.075H3380.01L3336.94 538.316L3294.99 403H3226.77L3183.7 537.069L3142.13 403.075H3064.87L3142.86 642H3219.7L3259.23 521.909L3297.28 642H3374.14Z" fill="black"/>
<path d="M2939.5 643C2914.01 643 2891 637.721 2870.49 627.163C2849.98 616.605 2833.86 601.941 2822.14 583.171C2810.71 564.401 2805 543.138 2805 519.382C2805 495.92 2810.71 474.804 2822.14 456.034C2833.86 437.264 2849.83 422.746 2870.05 412.482C2890.56 401.924 2913.71 396.645 2939.5 396.645C2965.29 396.645 2988.44 401.924 3008.95 412.482C3029.46 422.746 3045.43 437.264 3056.86 456.034C3068.29 474.51 3074 495.627 3074 519.382C3074 543.138 3068.29 564.401 3056.86 583.171C3045.43 601.941 3029.46 616.605 3008.95 627.163C2988.44 637.721 2965.29 643 2939.5 643ZM2939.5 576.572C2954.15 576.572 2966.16 571.586 2975.54 561.615C2984.92 551.35 2989.61 537.272 2989.61 519.382C2989.61 501.785 2984.92 488.001 2975.54 478.03C2966.16 468.058 2954.15 463.072 2939.5 463.072C2924.85 463.072 2912.83 468.058 2903.46 478.03C2894.08 488.001 2889.39 501.785 2889.39 519.382C2889.39 537.272 2894.08 551.35 2903.46 561.615C2912.83 571.586 2924.85 576.572 2939.5 576.572Z" fill="black"/>
<path d="M2575.78 331H2610.3C2637.36 331 2659.3 352.938 2659.3 380V643H2575.78V331Z" fill="black"/>
<path d="M2698 331H2732.51C2759.58 331 2781.51 352.938 2781.51 380V643H2698V331Z" fill="black"/>
<path d="M2552.98 520.262C2552.98 520.849 2552.54 527.741 2551.66 540.938H2378.48C2382 553.256 2388.74 562.788 2398.7 569.533C2408.96 575.985 2421.71 579.211 2436.94 579.211C2448.37 579.211 2458.19 577.598 2466.39 574.372C2474.89 571.146 2483.39 565.867 2491.89 558.535L2535.84 604.287C2512.69 630.096 2478.85 643 2434.31 643C2406.47 643 2382 637.721 2360.9 627.163C2339.8 616.605 2323.39 601.941 2311.67 583.171C2300.24 564.401 2294.53 543.138 2294.53 519.382C2294.53 495.92 2300.1 474.95 2311.23 456.474C2322.66 437.704 2338.34 423.04 2358.26 412.482C2378.19 401.924 2400.61 396.645 2425.52 396.645C2449.25 396.645 2470.79 401.63 2490.13 411.602C2509.47 421.28 2524.71 435.504 2535.84 454.274C2547.27 472.751 2552.98 494.747 2552.98 520.262ZM2425.95 456.034C2413.06 456.034 2402.22 459.7 2393.43 467.032C2384.93 474.364 2379.51 484.335 2377.17 496.946H2474.74C2472.4 484.335 2466.83 474.364 2458.04 467.032C2449.54 459.7 2438.85 456.034 2425.95 456.034Z" fill="black"/>
<path d="M2215.39 528.524V642.794H2128.36V527.204L2011 331H2084.13C2095.75 331 2106.51 337.112 2112.47 347.092L2175.83 453.298L2239.19 347.092C2245.15 337.112 2255.91 331 2267.53 331H2333.19L2215.39 528.524Z" fill="black"/>
</g>
<defs>
<clipPath id="clip0_2_41">
<rect width="2977" height="680" fill="white" transform="translate(475 331)"/>
</clipPath>
</defs>
</svg>
