<svg width="121" height="47" xmlns="http://www.w3.org/2000/svg">
  <path d="M18.253 28.47l.048-.434c.536-2.702-.73-3.86-4.725-3.86-3.849 0-5.554 1.158-6.041 3.86l-.097.482c-.536 2.703 1.218 3.91 4.676 3.91 3.557 0 5.7-1.642 6.139-3.958zm13.591-1.978L36.424.818A.992.992 0 0137.4 0h5.344a.992.992 0 01.976 1.164l-1.499 8.487c1.851-1.351 3.897-2.316 7.649-2.316 7.307 0 10.181 4.825 9.158 10.567l-1.705 9.458c-1.218 6.9-5.261 10.23-14.274 10.23-8.476 0-12.374-4.68-11.205-11.098zm18.367-.29l1.364-7.576c.535-2.992-.634-5.018-4.58-5.018-3.994 0-5.846 2.026-6.382 5.018l-1.364 7.576c-.536 2.992.634 5.019 4.628 5.019 3.946 0 5.798-2.027 6.334-5.019zm38.826-1.737H70.282l-.39 2.316c-.439 2.558.34 4.874 5.018 4.874 4.043 0 5.992-1.158 6.43-3.57a.3.3 0 01.295-.242h5.842a.84.84 0 01.83.965c-1.023 5.694-5.067 8.782-13.982 8.782-8.818 0-12.617-4.777-11.497-10.905l1.559-8.927c1.315-6.949 5.359-10.423 14.371-10.423 8.672 0 12.52 4.68 11.4 10.954l-1.12 6.176zM71.402 18.24l-.243 1.496h11.643l.292-1.544c.536-3.088-.73-4.922-4.92-4.922-4.336 0-6.236 2.027-6.772 4.97zm34.686 10.761c3.995 0 5.846-2.027 6.382-4.922l.926-5.356c.535-2.944-.634-4.922-4.58-4.922s-5.797 1.978-6.333 4.922l-.925 5.356c-.536 2.895.584 4.922 4.53 4.922zm3.41-21.666c8.477 0 12.472 4.777 11.302 11.291l-3.117 17.468C116.22 44.056 111.69 47 103.75 47h-.828c-7.064 0-11.644-3.523-10.913-9.265a.648.648 0 01.637-.53h6.427c-.39 2.219 1.218 3.763 4.628 3.763 4.336 0 6.138-1.978 6.625-4.729l.682-3.619c-1.85 1.448-3.848 2.268-7.745 2.268-6.723 0-10.182-4.584-9.062-10.905l1.072-6.129c1.218-6.9 5.261-10.52 14.225-10.52zM21.476 3.804a.992.992 0 01.961 1.234l-.739 2.934c4.47 1.45 6.645 5.238 5.81 9.93l-1.753 9.844c-1.08 6.023-4.59 8.825-10.047 9.634l-.65 2.575a.992.992 0 01-.962.75H8.26a.992.992 0 01-.962-1.235l.519-2.055c-5.357-.867-8.361-4.181-7.737-8.8l.098-.676c.682-5.26 4.287-8.348 12.715-8.348 3.215 0 5.602.483 6.723 1.11l.438-2.557c.536-2.799-.73-4.681-4.336-4.681-3.02 0-5.212 1.013-5.65 3.57H3.052c.832-5.857 4.029-9.023 10.899-9.601l.727-2.88a.992.992 0 01.962-.748h5.835z" fill="#753FF6" fill-rule="evenodd"/>
</svg>
