<svg xmlns="http://www.w3.org/2000/svg" viewBox="0 0 1000 1000"><title>Nigeria-Logo</title><path d="M733.37,331c.56,125.89-101.61,233.14-233.16,233.31C371.87,564.46,266.53,461,266.63,330.76c.1-131.94,107.54-233.61,233.8-233.34C629.7,97.69,734,203.22,733.37,331ZM509.22,238.83c-.41,37.66,31.16,68.18,68.16,68.17,35.37,0,68.1-28.56,68.18-68.27.08-40.08-32.66-68.44-67.84-68.51C541.36,170.15,508.79,200.45,509.22,238.83Z" style="fill:#db353a"/><path d="M952.1,787.83c-.77-.26-1-.09-1.24.31-5.73,9.72-14.72,15-25.35,17.08-18.81,3.73-36.33.12-51.81-11.4-12.76-9.5-19.92-22.61-22-38.23a79.9,79.9,0,0,1,7.12-46.3c10.13-21,26.93-33.65,49.58-38.55a80,80,0,0,1,28-1.4c23.31,3.19,39.17,15.79,47.78,37.54a61.69,61.69,0,0,1,4.6,23.18c-.17,23.41.83,46.79,1.24,70.19a72.43,72.43,0,0,1-4.64,27.07c-7.5,19.84-21.31,33.36-41.4,40.06a84.92,84.92,0,0,1-50.08,1.3,52,52,0,0,1-16.93-7.91c-8.65-6.22-13.52-14.37-13-25.34.18-3.86,0-7.74.05-11.61,0-.76.17-1.56.95-1.81a2,2,0,0,1,2,.73,44.28,44.28,0,0,0,11.87,8,73.07,73.07,0,0,0,18.94,5.83A91.53,91.53,0,0,0,918,837.69a48.31,48.31,0,0,0,16.15-3.34c9.84-4,15.72-11.33,17.78-21.64a50.78,50.78,0,0,0,.78-16C952.39,793.74,952.3,790.69,952.1,787.83Zm-.71-50c0-9.06-1-14.7-3.49-20.22-4.92-11.07-14.35-16.18-26.14-15.58s-21,6.46-26.76,16.89a42.92,42.92,0,0,0-2.82,36.75c4.77,13,17,22.08,34.57,18.42,11-2.3,18-9.46,21.93-19.77A45,45,0,0,0,951.39,737.86Z" style="fill:#686767"/><path d="M138.74,680.32c-1.38-.12-2-1.15-2.77-1.88-10.14-9.36-22.31-14-35.83-15.66a97.9,97.9,0,0,0-24.25.05A47,47,0,0,0,60,667.24c-8.19,4.2-12.17,10.86-11.9,20.12a14.73,14.73,0,0,0,5.29,11.12,32.76,32.76,0,0,0,8.46,5.16,124.39,124.39,0,0,0,21.54,6.87c6.26,1.5,12.58,2.8,18.79,4.51a71.89,71.89,0,0,1,23.39,11c10.16,7.38,17,17.11,18.5,29.63,3.37,27.7-7.66,54.29-38.13,65.43-13.72,5-28,6.2-42.48,5.06a88.58,88.58,0,0,1-21.15-3.8A53.32,53.32,0,0,1,28.89,816c-9.53-6.48-14.49-15.47-14.73-27-.11-5.16,0-10.32,0-15.48,0-1.15.94-1.64,1.83-1,1.18.88,2.29,1.86,3.45,2.76,17.62,13.68,37.53,19,59.63,16.42A50,50,0,0,0,93,788.37c4.92-2.08,8.94-5.2,11.19-10.16,2.71-6,2.77-12.17,1.27-18.39-.76-3.14-3-5.45-5.54-7.38a37.34,37.34,0,0,0-9.28-4.85,179.43,179.43,0,0,0-26-7.26,138.15,138.15,0,0,1-19.67-5.46,66.48,66.48,0,0,1-19.63-11.08C13.86,714.13,9,701.61,10.18,687c2.14-25.71,16.43-42.67,39.57-52.72a70.92,70.92,0,0,1,25.75-5.71c10.7-.41,21.37-.22,31.86,2.33a57.47,57.47,0,0,1,16.39,6.43,32.25,32.25,0,0,1,12.54,12.91,22.23,22.23,0,0,1,2.81,9.47c.17,6.44.22,12.89.27,19.34C139.37,679.45,139,679.91,138.74,680.32Z" style="fill:#686767"/><path d="M329.81,763.73c-6.81,0-13.63,0-20.45,0-2.08,0-2.63.72-2.19,2.73a31.62,31.62,0,0,0,6.74,13.75c6.06,7.21,13.94,11.27,23,13.3,7.48,1.68,15,1.39,22.56.76a75.13,75.13,0,0,0,16.77-3.3,52.32,52.32,0,0,0,17.87-9.65c1.14-1,2.27-.46,2.27.95,0,5.34.32,10.67-.56,16a27.23,27.23,0,0,1-11.71,18.62,45.71,45.71,0,0,1-17.8,7.21c-11.25,2.2-22.57,3.13-34.06,1.62-27.47-3.59-53.52-23.41-61.67-53.79a84.35,84.35,0,0,1-2.56-29,102.89,102.89,0,0,1,4.91-25.41c5.47-15.82,14.72-28.79,29-37.85,9.51-6,19.95-9.21,31.12-10.47a64.75,64.75,0,0,1,34,4.85c17.86,7.88,29.3,21.29,33.51,40.49a51,51,0,0,1,.67,20.3c-1.47,8-5.41,14.38-12.28,18.86a50.63,50.63,0,0,1-16.33,6.53,136.87,136.87,0,0,1-26.83,3.28c-5.34.16-10.68,0-16,0Zm-4.48-26.58c7.46-.08,15.55,0,23.59-1.15a42.86,42.86,0,0,0,11.17-2.85,10.31,10.31,0,0,0,6.61-9.94c.12-8.55-3.28-16.08-12-20a37.08,37.08,0,0,0-24.81-2c-9.95,2.58-16.46,9.28-20.5,18.54-1.95,4.45-2.51,9.2-2.93,14-.26,2.89.05,3.31,2.81,3.34C314.41,737.19,319.56,737.15,325.33,737.15Z" style="fill:#686767"/><path d="M827.76,773.48q0,21,0,42c0,1.11,0,2.22,0,3.32-.09,4.17-.16,4.26-4.41,4.3-4.42,0-8.85.16-13.2-.87-9.52-2.25-16.23-7.6-19.07-17.21-.85-2.87-.74-5.84-.74-8.79q0-27.93,0-55.85a70.91,70.91,0,0,0-1.86-17,33.22,33.22,0,0,0-3.46-8.7,23.17,23.17,0,0,0-12.39-10.51A33.25,33.25,0,0,0,752.51,703a23.56,23.56,0,0,0-14.07,10,33.61,33.61,0,0,0-5.35,14.37,89.21,89.21,0,0,0-.84,12.12q.07,38.72,0,77.42c0,6.76.44,6.19-6.34,6.19a53.46,53.46,0,0,1-11-.72c-11.39-2.32-18.55-10-19.77-21.46a58.58,58.58,0,0,1-.28-6.07q0-29.6,0-59.17c0-8,.75-15.84,3.25-23.45,6.48-19.71,19.41-33.19,39.22-39.62,14.89-4.83,30-5.52,45.18-1.16,23.83,6.87,38,22.85,43.46,46.83A86.79,86.79,0,0,1,827.75,737C827.81,749.14,827.76,761.31,827.76,773.48Z" style="fill:#676767"/><path d="M169.92,723.6c0-15.31,0-30.61,0-45.91a57.69,57.69,0,0,1,.48-8.82c1.91-12.29,9.17-21.06,19-27.94,4.82-3.36,10.42-3.29,16-2.84a1.78,1.78,0,0,1,1.67,1.87c.07,1.29.07,2.58.07,3.87,0,7.37,0,14.75,0,22.12,0,1.29,0,2.58,0,3.87a1.88,1.88,0,0,0,2,2.12c1.48,0,2.95.06,4.42.06h38.72c1.11,0,2.21,0,3.32,0,3.59.08,3.67.14,3.73,3.79,0,3.14,0,6.27,0,9.4-.07,10.66-6.52,18.17-17.08,19.7a61.63,61.63,0,0,1-8.27.51c-6.82.07-13.64,0-20.46,0-1.29,0-2.58,0-3.87,0-1.79.1-2.37.63-2.48,2.26-.08,1.1-.06,2.21-.06,3.32q0,26.26,0,52.54a45.8,45.8,0,0,0,1.33,12.6c2.58,9,8.11,14,17.77,14.88,10.33.88,20.64.34,30.31-4.22,2.05-1,2.75-.53,2.78,1.62,0,4,.15,8.12,0,12.16-.47,9.74-5.16,16.68-14.12,20.69a33.76,33.76,0,0,1-10.63,2.86c-10.34,1-20.63.6-30.66-2.46-16.74-5.09-27.25-16.23-31.71-33.09a71.89,71.89,0,0,1-2.32-18.6q0-23.22,0-46.45Z" style="fill:#686868"/><path d="M526.11,704.33q0-38.7,0-77.38c0-5.3-.17-5.09,5.16-5.07,2.77,0,5.53,0,8.29.06a27.71,27.71,0,0,1,9.17,1.82c7.55,2.72,12.07,8.13,14,15.84a40.86,40.86,0,0,1,.94,9.87q0,60.24,0,120.48c0,2.58,0,5.17.17,7.73.63,7.76,4.67,12.61,12.11,14.6a37.41,37.41,0,0,0,9.83,1.28c3.69,0,7.37,0,11.06.06,1.23,0,2.19.48,2.23,1.86.14,5,.35,10-1,14.82a17,17,0,0,1-11.07,12.13,30.86,30.86,0,0,1-8,1.81,63.81,63.81,0,0,1-24.57-2.55c-15.15-4.8-23.77-15.36-27-30.68a68.59,68.59,0,0,1-1.22-14.29Q526.12,740.53,526.11,704.33Z" style="fill:#686868"/><path d="M461.56,775q0,21.59,0,43.15c0,5-.06,5-4.81,5s-9.59.1-14.31-1c-8.49-1.9-14.84-6.36-17.54-15a29.17,29.17,0,0,1-1.27-8.72c0-23.23-.11-46.46.07-69.69a67.78,67.78,0,0,1,6-28.46c7.59-16.3,20.36-25.7,38-28.63a59,59,0,0,1,22,.09,30,30,0,0,1,9.75,3.74,22.35,22.35,0,0,1,11.21,19.18c.14,3.68.07,7.37,0,11.06,0,2.68-.72,3.1-3.45,2.24-1.23-.38-2.43-.87-3.66-1.26a50.36,50.36,0,0,0-21.85-1.92c-8.42,1.12-14.23,5.66-17.35,13.55a32.76,32.76,0,0,0-2.42,10.74c-.18,4.23-.33,8.47-.34,12.71C461.53,752.85,461.56,763.91,461.56,775Z" style="fill:#686868"/><path d="M613.58,731.22q0-25.46,0-50.89c0-4.91,0-4.92,4.77-5a65.07,65.07,0,0,1,13.22.79c9.9,2,16,7.86,18.39,17.59a45.74,45.74,0,0,1,1.15,11q-.07,33.19,0,66.38c0,2.39-.06,4.8.17,7.18.71,7.25,3.94,12.73,12.73,14.52a61.48,61.48,0,0,0,12.1.78c4.93,0,4.91-.05,4.88,4.86a55.84,55.84,0,0,1-.89,12.1c-1.58,7-5.67,11.37-12.72,13a35.5,35.5,0,0,1-7.1.92,60.53,60.53,0,0,1-17.51-2c-14-3.84-22.84-12.92-26.86-26.74a61.32,61.32,0,0,1-2.34-17.48c0-15.67,0-31.34,0-47Z" style="fill:#686868"/><path d="M610.26,639.36A21.8,21.8,0,0,1,632,617.61c12.12,0,22.52,10.21,22.14,22.09a22.13,22.13,0,0,1-21.93,21.83A21.8,21.8,0,0,1,610.26,639.36Z" style="fill:#686868"/><path d="M609.51,875.08c1.08-1,2-1.86,3-2.6,6.39-4.77,16.61-2.2,18,6.79a26.32,26.32,0,0,1,.53,3.83c.06,5.34,0,10.69,0,16,0,1.11,0,2.35-1.46,2.58a3.25,3.25,0,0,1-3.31-1.55,5.55,5.55,0,0,1-.63-3.21c0-4.05,0-8.11,0-12.17a14.68,14.68,0,0,0-1.06-5.94c-1.11-2.57-3.06-3.64-6.27-3.49-3,.14-5.12,1.55-5.75,4.24a28.88,28.88,0,0,0-.63,6c-.09,4.43,0,8.85,0,13.28,0,1.08.12,2.33-1.19,2.81a3.29,3.29,0,0,1-3.91-2.23,18.83,18.83,0,0,1-.36-3.83c-.05-3.32,0-6.64-.05-10a26.36,26.36,0,0,0-.62-5.47,6.14,6.14,0,0,0-6.49-4.86c-3.13.06-4.92,1.51-6,4.74a19.12,19.12,0,0,0-.63,6c0,4.61,0,9.22-.08,13.83a1.83,1.83,0,0,1-2.69,1.64c-2.08-.76-2.64-2.43-2.65-4.38,0-4.8-.11-9.59.07-14.38a15.71,15.71,0,0,1,1.25-5.34,12.2,12.2,0,0,1,15.68-6.55C606.4,871.77,607.83,873.47,609.51,875.08Z" style="fill:#706e6e"/><path d="M727.42,881.19c.27,1,1.18,1.28,1.88,1.79,6,4.32,4.09,12.73-.51,16.27a11,11,0,0,1-3.38,1.81,27.73,27.73,0,0,1-14.71.27c-3.16-.74-4.91-3.13-5.29-6.39a23.07,23.07,0,0,1-.1-2.76c0-8.11,0-16.22,0-24.33,0-4.36.05-4.4,4.49-5.26a39.35,39.35,0,0,1,13.21-.25c5.37.78,9.68,4.55,9.14,11.14a8,8,0,0,1-2.41,5.41C729,879.64,727.8,880,727.42,881.19Zm-16.73,8c0,.92,0,1.83,0,2.75a10,10,0,0,0,0,1.1c.24,2.27,1.12,3.56,3.17,3.93a18,18,0,0,0,9.76-.51c3-1.15,4.19-3.42,3.89-7.08-.25-3-1.57-4.68-4.64-5.27a37.82,37.82,0,0,0-6.55-.6C710.43,883.44,710.66,883.24,710.69,889.21Zm6.18-10a54.45,54.45,0,0,0,6-.63c2.52-.53,3.87-2.5,4-5.23.1-2.89-1-4.71-3.38-5.68a17,17,0,0,0-7-.89c-5.46.17-5.81.51-5.8,6C710.63,879.48,710.16,879,716.87,879.17Z" style="fill:#737070"/><path d="M349.75,882.94a30.45,30.45,0,0,1-1.42,7.58c-2.77,7.65-8.84,12-16.76,11.84a16.93,16.93,0,0,1-16.28-12.52,25.64,25.64,0,0,1,.38-16.26c2.83-8.05,9-12.06,17.89-11.65,7.43.34,13.28,5.19,15.31,12.85A26.08,26.08,0,0,1,349.75,882.94Zm-30.24-1.38a20.56,20.56,0,0,0,1,7.06c1.57,5.65,5.93,8.82,11.82,8.8,5.5,0,9.64-3.24,11.25-8.76a23.91,23.91,0,0,0,0-13c-1.52-5.78-5.57-8.89-11.64-9-5.73,0-9.84,2.9-11.5,8.4A17.67,17.67,0,0,0,319.51,881.56Z" style="fill:#706e6e"/><path d="M414.07,894.81c.95,3.2-.42,4.93-2.75,6.14-7.75,4-17.76.28-20.63-7.9a18.44,18.44,0,0,1,1.74-16.47,13.16,13.16,0,0,1,17.85-4.67,10.44,10.44,0,0,1,5.31,10.7,5.6,5.6,0,0,1-3.37,4.7,15.38,15.38,0,0,1-6.46,1.32c-2.94,0-5.89,0-8.84.12a1.47,1.47,0,0,0-1.3,1.94c1,3.83,4.17,6.34,8.5,6.68C406.94,897.59,408.85,897.11,414.07,894.81Zm-11.45-10.54c.88-.06,3.1-.09,5.26-.42,1.89-.29,2.68-1.74,2.43-3.66a5.13,5.13,0,0,0-3.53-4.52c-4.41-1.48-9.72-.1-11.28,5.67-.52,1.92.05,2.84,1.95,2.92C398.73,884.32,400,884.27,402.62,884.27Z" style="fill:#737070"/><path d="M662.87,894.42c.46,4.32-1.44,6.21-4.27,7.06-10.47,3.11-18.48-2.13-20.25-11.32a18.18,18.18,0,0,1,2.37-13.3c3.54-5.78,10.32-8.21,16.28-5.82a10.91,10.91,0,0,1,7.14,8.49c.6,3.27-.33,7.33-5.18,8.41a27.85,27.85,0,0,1-4.35.65c-2.21.12-4.43,0-6.63.11-1.23,0-2.85-.53-3.54.74-.89,1.66.2,3.18,1.26,4.47,2.47,3,5.77,3.77,9.45,3.39A19.29,19.29,0,0,0,662.87,894.42Zm-19-10.43a46.12,46.12,0,0,0,12-.06c2.86-.36,3.86-2.64,2.56-5.28a5.9,5.9,0,0,0-3.62-3.14C649,873.66,644.07,877.38,643.92,884Z" style="fill:#737070"/><path d="M740.83,878.22c-.75-2.19.19-3.84,1.78-5.27,4.15-3.72,12.7-3.82,17-.2a8.6,8.6,0,0,1,3.3,6.17c.21,5,.29,9.94,0,14.89a8.18,8.18,0,0,1-5.68,7.47,15.61,15.61,0,0,1-11.84-.08c-3.7-1.54-6.07-4.16-6-8.38a8.78,8.78,0,0,1,5.88-8.52,21.1,21.1,0,0,1,4.78-1.22c1.63-.25,3.3-.22,5-.34,2.21-.16,2.94-1.11,2.5-3.16a4.85,4.85,0,0,0-4.5-4.17,14.36,14.36,0,0,0-9.12,1.37C742.93,877.29,742.24,878.3,740.83,878.22Zm12.85,9.18c-3.61,0-5.19.34-6.83,1.46a4.34,4.34,0,0,0-.64,6.66c2.41,2.14,5.25,2.34,8.21,1.4,2.76-.88,3.3-3.14,3.34-5.66,0-.54,0-1.09,0-1.64-.1-1.65-.59-2.11-2.42-2.21C754.78,887.38,754.23,887.4,753.68,887.4Z" style="fill:#737070"/><path d="M809.61,882.55c2-.22,2.45-1.32,3.18-2.09,2.27-2.4,4.51-4.85,6.77-7.26a7,7,0,0,1,7.83-2c0,1.28-1,1.66-1.58,2.28-2.69,2.77-5.47,5.46-8.1,8.28-3.38,3.62-3.38,3-.13,7.16,2.94,3.77,5.86,7.56,9.95,10.22.77.5.45,1.89-.44,2.26a5.05,5.05,0,0,1-5.66-.81,46.79,46.79,0,0,1-4.18-4.38c-1.92-2.23-3.74-4.55-5.6-6.83a1.16,1.16,0,0,0-1.39-.47c-.72.25-.6.88-.61,1.38-.07,3.31-.06,6.62-.16,9.93a1.68,1.68,0,0,1-2.42,1.36,3.06,3.06,0,0,1-2.22-2.23,17.15,17.15,0,0,1-.35-3.28q0-16.27,0-32.57c0-.36,0-.73,0-1.1.06-1.13.13-2.3,1.62-2.39a2.86,2.86,0,0,1,3.07,1.85,10.07,10.07,0,0,1,.4,3.25c0,4.05,0,8.1,0,12.15Z" style="fill:#706e6e"/><path d="M240.69,886.3a17.6,17.6,0,0,1-1.14,6.75c-1.9,5.29-5.44,8.63-11.27,9.17S217,900.17,214.47,895a18.8,18.8,0,0,1,.65-18.51c2.62-4.56,7-6.51,12.11-6.3A12.86,12.86,0,0,1,239.06,878,18,18,0,0,1,240.69,886.3Zm-5.45.27a13.08,13.08,0,0,0-1.56-7.15c-2.85-5.16-10.6-5.59-13.88-.8-2.87,4.17-2.59,11.68.62,15.56a8.33,8.33,0,0,0,7.86,3c3.21-.41,5.19-2.44,6.24-5.49A15.06,15.06,0,0,0,235.24,886.57Z" style="fill:#706e6e"/><path d="M580.25,886a19.24,19.24,0,0,1-1.34,7.4c-1.9,5.08-5.43,8.23-11,8.76s-10.14-1.4-13.31-6.12c-3.85-5.76-3.42-15.4.84-20.86,5.9-7.56,18.38-6.4,22.84,2.12A19.7,19.7,0,0,1,580.25,886Zm-5.43.69a14.43,14.43,0,0,0-1.84-7.65c-3-4.81-10.35-5.12-13.58-.56-2.94,4.15-2.74,11.67.44,15.57,3.73,4.56,11.8,4.71,14.15-2.24A14.53,14.53,0,0,0,574.82,886.73Z" style="fill:#706e6e"/><path d="M247.79,880.85c0-2.58,0-5.15,0-7.73,0-1,.21-1.9,1.27-2.17a3.05,3.05,0,0,1,2.62.53A3.26,3.26,0,0,1,253,873.8c.13,1.28.2,2.56.21,3.85,0,2.94-.06,5.89.05,8.83a23,23,0,0,0,.7,5.44,7.09,7.09,0,0,0,9.08,5,5.7,5.7,0,0,0,4.22-4,20.19,20.19,0,0,0,.76-6c0-4.6,0-9.2,0-13.8,0-.92,0-1.92,1.19-2.17a2.91,2.91,0,0,1,2.61.54,4.39,4.39,0,0,1,1.2,1.78,8.81,8.81,0,0,1,.43,2.7c0,4.42,0,8.83,0,13.25a16.29,16.29,0,0,1-.24,2.19c-1.35,8.78-9.4,13.4-17.68,10.1a11.32,11.32,0,0,1-7-8,30.76,30.76,0,0,1-.83-6c-.14-2.2,0-4.41,0-6.62Z" style="fill:#737070"/><path d="M463.74,870.25c-1.19,0-1.84-1.06-2.76-1.57a13.76,13.76,0,0,0-20.43,8.86,18.2,18.2,0,0,0,1.25,11.87c2.8,6.39,9.83,9.33,16.63,7.27a19.27,19.27,0,0,0,4.41-2.24,1,1,0,0,1,.92,0,1.34,1.34,0,0,1,.3,1,6.47,6.47,0,0,1-3.16,4.94,11.25,11.25,0,0,1-4.08,1.61,17.86,17.86,0,0,1-18.69-7.9c-4.62-7.51-4.81-15.33-.54-23.09,3.41-6.19,10.23-10.26,19.28-8.91a8.43,8.43,0,0,1,7.06,5.49A2.71,2.71,0,0,1,463.74,870.25Z" style="fill:#737070"/><path d="M796.55,891.07c0,2.76,0,5.52,0,8.28,0,1.11-.07,2.28-1.6,2.4a2.88,2.88,0,0,1-3.19-1.66,9.16,9.16,0,0,1-.52-3.23c-.07-3.68,0-7.36-.06-11a32.47,32.47,0,0,0-.47-5.49c-.6-3-2.64-4.62-5.82-5-3.72-.39-6.12.69-7.5,3.36a11.07,11.07,0,0,0-1.12,5.34q0,6.63,0,13.26a22.66,22.66,0,0,1-.18,3.3c-.14.81-.87,1.08-1.66,1.1a3,3,0,0,1-3-2,7.59,7.59,0,0,1-.46-2.68q-.06-6.9,0-13.8a13.57,13.57,0,0,1,19.18-11.91,10.32,10.32,0,0,1,6,8.66c.41,3.64.41,7.34.59,11Z" style="fill:#706e6e"/><path d="M469.74,881.33c0-2.94,0-5.88,0-8.82,0-1.22,1.07-1.83,2.3-1.59a3.31,3.31,0,0,1,2.8,3,35.65,35.65,0,0,1,.2,4.39c.07,3.86-.05,7.73.2,11.58.21,3.37,1.86,5.93,5.28,7a6.59,6.59,0,0,0,8.68-4.55,19.15,19.15,0,0,0,.51-4.91c.07-4.59,0-9.19.06-13.79,0-1.06-.15-2.31,1.3-2.66a3.15,3.15,0,0,1,3.61,1.82,4.27,4.27,0,0,1,.42,1.58c0,5.52.29,11-.09,16.54-.51,7.22-5.19,11.3-12.37,11.45-6.91.14-12-4.1-12.76-11.12a86.33,86.33,0,0,1-.07-9.92Z" style="fill:#737070"/><path d="M382.32,890.46c0,3.32.06,6.63,0,9.94,0,1.13-1,1.46-2,1.34-1.77-.21-2.81-1.06-3.07-2.65a21.35,21.35,0,0,1-.19-3.3c0-3.31,0-6.63,0-9.95a38.27,38.27,0,0,0-.1-3.86c-.59-5.61-5.95-8.49-11-5.91a6.15,6.15,0,0,0-3.36,4.78,34.14,34.14,0,0,0-.28,5c0,4.42,0,8.84,0,13.26,0,1.09,0,2.31-1.39,2.63a3.15,3.15,0,0,1-3.59-1.89,7.15,7.15,0,0,1-.38-2.15c0-5-.18-10,0-14.92.53-11.77,11.39-14.49,18.57-11.62,4.44,1.77,6.36,5.48,6.76,10,.27,3.1.05,6.25.05,9.38Z" style="fill:#747373"/><path d="M503,894.39a29.24,29.24,0,0,0,6.7,2.66,11.11,11.11,0,0,0,6.5-.44,3.56,3.56,0,0,0,2.43-3.34,3.27,3.27,0,0,0-2-3.59c-1.87-.73-3.82-1.27-5.74-1.88a33.66,33.66,0,0,1-4.72-1.49c-3.54-1.72-4.76-5-3.52-8.8a9.35,9.35,0,0,1,2.23-3.76c3.66-3.73,10.82-4.81,15.39-2.24a9.54,9.54,0,0,1,2.47,2.15c1,1.16,1.06,3.1.33,3.52-1,.59-1.72-.22-2.49-.58a14.52,14.52,0,0,0-8.09-1.14A6.25,6.25,0,0,0,509,877a3,3,0,0,0,.48,5,24.61,24.61,0,0,0,3.62,1.27c2.09.68,4.25,1.2,6.28,2,6.71,2.73,5.58,11.08,1.85,14.2s-11.46,3.82-15.63,1.14a6.5,6.5,0,0,1-1.64-1.45,5.25,5.25,0,0,1-.93-2A15.47,15.47,0,0,1,503,894.39Z" style="fill:#737070"/><path d="M208.62,864.68a12.16,12.16,0,0,1-1.76,4.51,92.52,92.52,0,0,1-8.24,13,10.19,10.19,0,0,0-2.23,7.12c.14,3.31,0,6.62,0,9.94,0,1.11-.11,2.3-1.59,2.45a3.23,3.23,0,0,1-3.56-2,11.24,11.24,0,0,1-.31-2.72c0-2.76-.12-5.52,0-8.28a9.53,9.53,0,0,0-1.92-6.13,91.1,91.1,0,0,1-9.16-16.33,11.73,11.73,0,0,1-.93-2.58,1.21,1.21,0,0,1,1.23-1.45,4.39,4.39,0,0,1,4.62,2.33c1,1.77,1.72,3.66,2.71,5.42,1.7,3.05,3.48,6.06,5.31,9,.77,1.25,1.68,1.19,2.56-.07a92.78,92.78,0,0,0,7.12-12.44,38,38,0,0,1,1.74-3.43c.71-1.11,1.87-1,3-.64A2.15,2.15,0,0,1,208.62,864.68Z" style="fill:#747373"/><path d="M536.75,864.93c1.21,1.74-.66,4.5,1.5,5.52,1.53.73,3.6.3,5.43.38.55,0,1.1,0,1.65,0,1.12,0,2.36,0,2.4,1.56a2.72,2.72,0,0,1-2,3,27,27,0,0,1-3.8.54c-.91.09-1.84,0-2.76.12s-1.78.61-1.79,1.67c0,5-.18,9.94.07,14.89.14,3,2.11,4.56,5.13,4.66a23.14,23.14,0,0,0,2.73-.27c1.57-.14,2.31.8,1.91,2.26a3.71,3.71,0,0,1-2.56,2.65c-5.88,2-11.37-1.12-12.56-7.16a14.86,14.86,0,0,1-.25-2.74c0-6.62,0-13.24,0-19.87a8.42,8.42,0,0,1,1.71-5.68C534.38,865.46,535.3,864.5,536.75,864.93Z" style="fill:#737070"/><path d="M671.59,889.73c0-2.39-.11-4.78,0-7.16a15.63,15.63,0,0,1,1.82-6.87,9.58,9.58,0,0,1,11.36-4.48,3.94,3.94,0,0,1,2.81,4.23c0,.72-.32,1.44-1.36,1.22a21.68,21.68,0,0,0-3.24-.6c-3.23-.19-4.87,1-5.49,4.11a31.32,31.32,0,0,0-.47,5.47c-.06,4.6,0,9.19,0,13.79,0,.92-.08,1.88-1.11,2.28a3.35,3.35,0,0,1-3.45-1.15,5.38,5.38,0,0,1-.92-3.12c0-2.58,0-5.15,0-7.72Z" style="fill:#747373"/><path d="M281.72,889.64c0-2.39,0-4.78,0-7.16a13.76,13.76,0,0,1,2.14-7.32,9.38,9.38,0,0,1,10.56-4.06,4,4,0,0,1,2.91,2.31,3.1,3.1,0,0,1,.24,2.66c-.57,1.12-1.55.51-2.39.32a11.42,11.42,0,0,0-1.63-.31c-3.95-.3-5.81,1.17-6.25,5.19-.23,2.19-.14,4.41-.16,6.61,0,4,0,8.08-.1,12.12,0,1.43-1.13,2.09-2.77,1.66a3.18,3.18,0,0,1-2.53-3.2c-.09-2.94,0-5.88,0-8.82Z" style="fill:#747373"/><path d="M509.22,238.83c-.43-38.38,32.14-68.68,68.5-68.61,35.18.07,67.92,28.43,67.84,68.51-.08,39.71-32.81,68.27-68.18,68.27C540.38,307,508.81,276.49,509.22,238.83Z" style="fill:#fffefe"/><path d="M325.33,737.15c-5.77,0-10.92,0-16.07,0-2.76,0-3.07-.45-2.81-3.34.42-4.77,1-9.52,2.93-14,4-9.26,10.55-16,20.5-18.54a37.08,37.08,0,0,1,24.81,2c8.73,3.88,12.13,11.41,12,20a10.31,10.31,0,0,1-6.61,9.94A42.86,42.86,0,0,1,348.92,736C340.88,737.18,332.79,737.07,325.33,737.15Z" style="fill:#fcfcfc"/><path d="M710.69,889.21c0-6-.26-5.77,5.67-5.68a37.82,37.82,0,0,1,6.55.6c3.07.59,4.39,2.25,4.64,5.27.3,3.66-.91,5.93-3.89,7.08a18,18,0,0,1-9.76.51c-2-.37-2.93-1.66-3.17-3.93a10,10,0,0,1,0-1.1C710.68,891,710.69,890.13,710.69,889.21Z" style="fill:#f7f8f8"/><path d="M716.87,879.17c-6.71-.16-6.24.31-6.24-6.39,0-5.53.34-5.87,5.8-6a17,17,0,0,1,7,.89c2.42,1,3.48,2.79,3.38,5.68-.11,2.73-1.46,4.7-4,5.23A54.45,54.45,0,0,1,716.87,879.17Z" style="fill:#f7f8f8"/><path d="M319.51,881.56a17.67,17.67,0,0,1,1-6.5c1.66-5.5,5.77-8.45,11.5-8.4,6.07.06,10.12,3.17,11.64,9a23.91,23.91,0,0,1,0,13c-1.61,5.52-5.75,8.73-11.25,8.76-5.89,0-10.25-3.15-11.82-8.8A20.56,20.56,0,0,1,319.51,881.56Z" style="fill:#f7f8f8"/><path d="M402.62,884.27c-2.6,0-3.89.05-5.17,0-1.9-.08-2.47-1-1.95-2.92,1.56-5.77,6.87-7.15,11.28-5.67a5.13,5.13,0,0,1,3.53,4.52c.25,1.92-.54,3.37-2.43,3.66C405.72,884.18,403.5,884.21,402.62,884.27Z" style="fill:#f7f8f8"/><path d="M643.92,884c.15-6.61,5-10.33,10.91-8.48a5.9,5.9,0,0,1,3.62,3.14c1.3,2.64.3,4.92-2.56,5.28A46.12,46.12,0,0,1,643.92,884Z" style="fill:#f7f8f8"/><path d="M753.68,887.4c.55,0,1.1,0,1.64,0,1.83.1,2.32.56,2.42,2.21,0,.55,0,1.1,0,1.64,0,2.52-.58,4.78-3.34,5.66-3,.94-5.8.74-8.21-1.4a4.34,4.34,0,0,1,.64-6.66C748.49,887.74,750.07,887.4,753.68,887.4Z" style="fill:#f7f8f8"/><path d="M235.24,886.57a15.06,15.06,0,0,1-.72,5.16c-1.05,3-3,5.08-6.24,5.49a8.33,8.33,0,0,1-7.86-3c-3.21-3.88-3.49-11.39-.62-15.56,3.28-4.79,11-4.36,13.88.8A13.08,13.08,0,0,1,235.24,886.57Z" style="fill:#f7f8f8"/><path d="M574.82,886.73a14.53,14.53,0,0,1-.83,5.12c-2.35,6.95-10.42,6.8-14.15,2.24-3.18-3.9-3.38-11.42-.44-15.57,3.23-4.56,10.56-4.25,13.58.56A14.43,14.43,0,0,1,574.82,886.73Z" style="fill:#f7f8f8"/></svg>