<svg xmlns="http://www.w3.org/2000/svg" viewBox="0 0 493.7 170.83"><defs><style>.cls-1{font-size:65.33px;}.cls-1,.cls-10,.cls-4{fill:#060862;}.cls-1,.cls-4{font-family:SegoeUI-Bold, Segoe UI;font-weight:700;}.cls-2{letter-spacing:0.01em;}.cls-3{letter-spacing:-0.02em;}.cls-4{font-size:86.54px;}.cls-5{letter-spacing:0.02em;}.cls-6{letter-spacing:0.03em;}.cls-7{letter-spacing:0.03em;}.cls-8{letter-spacing:0.02em;}.cls-9{letter-spacing:0.03em;}.cls-11{fill:#ff7302;}.cls-12{fill:#fff;}</style></defs><title>Asset 4</title><g id="Layer_2" data-name="Layer 2"><g id="Layer_1-2" data-name="Layer 1"><text class="cls-1" transform="translate(0 55.54)">P<tspan class="cls-2" x="40.13" y="0">E</tspan><tspan class="cls-3" x="75.83" y="0">A</tspan><tspan x="120.78" y="0">CE MASS</tspan></text><text class="cls-4" transform="translate(4 133.57)"><tspan class="cls-5">T</tspan><tspan class="cls-6" x="52.44" y="0">R</tspan><tspan class="cls-7" x="111.44" y="0">A</tspan><tspan class="cls-8" x="174.62" y="0">NS</tspan><tspan class="cls-9" x="295.48" y="0">I</tspan><tspan x="325.67" y="0">T</tspan></text><polygon points="447.01 11.77 414.51 133.07 375.17 133.07 407.67 11.77 447.01 11.77"/><polygon points="493.6 11.77 461.1 133.07 421.76 133.07 454.26 11.77 493.6 11.77"/><polygon class="cls-10" points="452.68 11.84 420.2 133.07 461.22 133.07 493.7 11.84 452.68 11.84"/><polygon class="cls-11" points="407.65 11.84 375.17 133.07 414.53 133.07 447.01 11.84 407.65 11.84"/><path class="cls-12" d="M457.86,40.83a57.6,57.6,0,0,0,1.52,8.38c1.07,3.84,3,10.08,3,10.08s1.61,2.76,2.86-.45a26.35,26.35,0,0,0-1.88-11.77l-2.76-6.69S458.13,36.19,457.86,40.83Z"/><path class="cls-12" d="M463,73.56v6.33s-2.5,5.44-4.28,0l-.45-5.17s1.25-4.64,4.73-3.84Z"/><path class="cls-12" d="M457.87,53.93s-1.1-1.51-1.22-1.64A6.4,6.4,0,0,0,455,51.06c-1.55-.79-3.35-.6-5-.6-.61,0-1.29-.1-1.93,0a3,3,0,0,0-1.83.91l1.39,1.18c.17.14,1.29.85,1.29,1a7.65,7.65,0,0,0,2.85,1.53,7.14,7.14,0,0,0,2.48-.14A24.63,24.63,0,0,0,457.87,53.93Z"/><path class="cls-12" d="M470.53,41.63a3.88,3.88,0,0,1,1.83-.92c1.39-.08,1.15,2.09,1.11,2.95a8.54,8.54,0,0,1-1.5,5c-.92,1.25-2.72,2.36-4.34,1.84-.8-.25-1-1.4-1-2.12a6.35,6.35,0,0,1,.94-3.14,5.76,5.76,0,0,0,.77-3.17A4.09,4.09,0,0,0,470.53,41.63Z"/><path class="cls-12" d="M464,34.32l2-2.59s1.43-2.4,2.23.54a17.41,17.41,0,0,1,0,5.88c-.27,1.79-1,4.71-3.5,4.18-.9-.19-1.42-1.19-1.76-1.95C461.61,37.44,464,34.32,464,34.32Z"/><path class="cls-12" d="M458.8,29.64v6s-.89,2.81-2.68,3c-2,.2-2.79-2.53-2.72-4s0-3.21.18-4.79c0,0,.32-3.17,2.68-3S458.8,29.64,458.8,29.64Z"/><path class="cls-12" d="M450.15,42.36a10.27,10.27,0,0,1,2.27.21,4.51,4.51,0,0,1,3,3.43c.15.64-.16,1-.73,1.21-2.41,1.09-4.65-.05-6.71-1.26-1.63-1-4.27-2.46-4.58-4.54-.13-.88,0-1.77,1.09-1.46s1.64,1.26,2.58,1.72A8.43,8.43,0,0,0,450.15,42.36Z"/><path class="cls-12" d="M396.87,92.64s-.27,11.06,5.88,17.39a3.73,3.73,0,0,0,4.37-.36c2.32-1.78,3.53-9.27,27.11-8.38,0,0,13.11,1.43,17.3-18.1,0,0,2.5-10.44,6.47-13.69a16.15,16.15,0,0,1,6.91-3.61s-2.5-8.92-13.47-4.19l-7.06,4.89s-10.31-18.11-17.71-23.46c0,0-5.86,16.6,3.55,20.26l-.36,2.41L405,47.87S400.75,71,417.07,83.78c0,0,2.18,2.44-.23,4.22S407,92,407,92A53.73,53.73,0,0,1,396.87,92.64Z"/></g></g></svg>