<?xml version="1.0" encoding="UTF-8"?>
<!DOCTYPE svg PUBLIC "-//W3C//DTD SVG 1.1//EN" "http://www.w3.org/Graphics/SVG/1.1/DTD/svg11.dtd">
<!-- Creator: CorelDRAW -->
<svg xmlns="http://www.w3.org/2000/svg" xml:space="preserve" width="83.4422mm" height="16.8114mm" version="1.1" style="shape-rendering:geometricPrecision; text-rendering:geometricPrecision; image-rendering:optimizeQuality; fill-rule:evenodd; clip-rule:evenodd"
viewBox="0 0 8329.98 1678.27"
 xmlns:xlink="http://www.w3.org/1999/xlink"
 xmlns:xodm="http://www.corel.com/coreldraw/odm/2003">
 <defs>
  <style type="text/css">
   <![CDATA[
    .fil0 {fill:#315BE2;fill-rule:nonzero}
   ]]>
  </style>
 </defs>
 <g id="Layer_x0020_1">
  <metadata id="CorelCorpID_0Corel-Layer"/>
  <g id="_105553367808928">
   <path class="fil0" d="M1022.14 0c129.99,0 259.97,0 389.95,0l-571.78 839.15 571.78 839.13c-129.99,0 -259.97,0 -389.95,0 -50.94,0 -107.35,-36.16 -135.51,-77.55l-282.63 -414.79 -139.51 204.73c-28.19,41.38 -84.56,77.55 -135.54,77.55l-328.96 0.02c0,-419.38 0,-838.79 0,-1258.17 109.66,0 219.32,0 328.98,0 50.94,0 107.35,36.18 135.5,77.56l139.51 204.72 282.64 -414.79c28.19,-41.38 84.56,-77.55 135.52,-77.55zm-598.23 433.09l0 323.52 110.06 -161.52 -110.06 -161.99zm-115.96 -107.07l-191.99 0 0 879.47 191.99 -281.75 0 -597.72zm462.35 615.85l-96.3 141.32 308.21 452.31c12.22,18.04 29.73,26.82 50.73,26.82l160.08 0 -422.73 -620.45zm-612.23 410.4l155.83 0c23.42,0 40.54,-5.6 55.02,-26.82l824.11 -1209.48 -160.37 0c-20.85,0 -38.31,8.99 -50.46,26.8l-824.13 1209.5z"/>
   <g>
    <polygon class="fil0" points="1539.61,1268.43 1671.98,1268.43 1671.98,1013.23 1834.16,851.05 2115.6,1268.43 2276.59,1268.43 1927.19,758.03 2276.59,409.82 2106.05,409.82 1671.98,854.63 1671.98,409.82 1539.61,409.82 "/>
    <path class="fil0" d="M2690.25 1268.43l118.06 0 0 -451.97c0,-112.1 -79.89,-182.46 -246.85,-182.46 -140.72,0 -264.75,59.63 -268.31,208.7l124.02 0c3.57,-81.09 72.75,-106.15 144.29,-106.15 83.48,0 124.03,27.43 124.03,93.01l0 40.55 -187.24 34.58c-149.06,27.43 -230.16,83.48 -230.16,193.19 0,119.26 88.25,184.85 225.39,184.85 75.12,0 143.11,-21.46 196.76,-87.06l0 72.75zm-293.36 -174.1c0,-63.21 47.7,-81.1 122.82,-96.59l165.78 -34.58 0 62.01c0,110.89 -88.25,157.4 -172.92,157.4 -79.89,0 -115.67,-35.78 -115.67,-88.24z"/>
    <path class="fil0" d="M3281.17 882.05l0 386.38 124.02 0 0 -399.49c0,-127.61 -70.36,-234.94 -220.61,-234.94 -90.64,0 -155.03,42.93 -196.77,101.36l0 -87.04 -120.44 0 0 620.11 125.23 0 0 -343.44c0,-152.64 110.89,-180.07 158.61,-180.07 90.63,0 129.98,57.24 129.98,137.14z"/>
    <path class="fil0" d="M3770.74 1282.75c193.19,0 307.67,-138.34 307.67,-324.38 0,-186.02 -114.48,-324.37 -307.67,-324.37 -191.99,0 -306.49,138.34 -306.49,324.37 0,186.03 114.49,324.38 306.49,324.38zm-177.68 -324.38c0,-127.59 57.23,-217.04 177.68,-217.04 121.64,0 178.88,89.45 178.88,217.04 0,127.6 -57.24,217.05 -178.88,217.05 -120.44,0 -177.68,-89.45 -177.68,-217.05z"/>
    <path class="fil0" d="M4481.29 1282.75c192,0 319.59,-98.98 319.59,-250.43 0,-122.83 -58.43,-200.34 -308.86,-252.82 -201.53,-41.73 -227.77,-81.1 -227.77,-160.99 0,-78.71 72.75,-127.6 182.46,-127.6 156.22,0 223,64.41 230.17,186.03l107.33 0c-3.58,-151.44 -96.59,-281.43 -337.49,-281.43 -164.56,0 -290.97,85.86 -290.97,223 0,156.22 102.56,213.48 294.55,254.01 199.16,42.93 242.09,81.09 242.09,159.81 0,103.74 -88.24,155.03 -211.08,155.03 -126.39,0 -240.89,-50.08 -246.86,-207.51l-108.5 0c7.15,214.67 163.37,302.91 355.36,302.91z"/>
    <path class="fil0" d="M5640.14 1282.75c141.91,0 248.04,-66.78 248.04,-186.04 0,-102.55 -50.08,-155.02 -232.53,-187.22 -130,-22.66 -160.99,-42.93 -160.99,-100.18 0,-57.24 57.25,-88.24 127.59,-88.24 84.69,0 150.26,25.03 153.85,118.06l100.17 0c-1.2,-131.18 -97.79,-205.12 -254.02,-205.12 -132.35,0 -227.77,69.16 -227.77,176.49 0,97.79 46.52,159.81 236.13,190.8 137.14,22.66 156.22,46.51 156.22,101.38 0,59.63 -54.85,93.01 -146.68,93.01 -98.97,0 -153.84,-34.58 -163.37,-129.99l-101.38 0c8.35,150.27 115.67,217.05 264.75,217.05z"/>
    <path class="fil0" d="M6004.23 457.52l0 190.8 -114.47 0 0 88.24 114.47 0 0 391.15c0,95.41 38.16,140.72 145.49,140.72l121.64 0 0 -88.24 -102.55 0c-45.32,0 -64.4,-19.09 -64.4,-64.4l0 -379.23 166.95 0 0 -88.24 -166.95 0 0 -190.8 -100.18 0z"/>
    <path class="fil0" d="M6561.14 1282.75c134.76,0 237.32,-79.91 276.67,-202.73l-103.74 0c-28.61,70.36 -91.82,112.09 -172.92,112.09 -109.7,0 -172.9,-81.08 -183.64,-197.95l473.42 0 0 -35.78c0,-186.02 -114.47,-324.37 -289.78,-324.37 -175.28,0 -289.77,138.34 -289.77,324.37 0,186.03 114.49,324.38 289.77,324.38zm-181.25 -379.22c15.49,-106.15 77.51,-178.89 181.25,-178.89 103.76,0 165.78,72.75 181.28,178.89l-362.53 0z"/>
    <path class="fil0" d="M7671.55 870.12l0 398.31 100.18 0 0 -407.84c0,-109.71 -64.4,-226.58 -207.51,-226.58 -100.18,0 -164.57,53.66 -201.54,120.44 -29.82,-67.96 -89.45,-120.44 -186.04,-120.44 -91.82,0 -150.25,44.12 -184.83,102.55l0 -88.24 -95.42 0 0 620.11 100.18 0 0 -347.03c0,-176.49 118.06,-196.77 160.99,-196.77 81.09,0 126.4,59.63 126.4,145.49l0 398.31 100.18 0 0 -347.03c0,-176.49 118.06,-196.77 160.99,-196.77 81.09,0 126.4,59.63 126.4,145.49z"/>
    <path class="fil0" d="M8081.95 1282.75c141.91,0 248.04,-66.78 248.04,-186.04 0,-102.55 -50.08,-155.02 -232.53,-187.22 -130,-22.66 -160.99,-42.93 -160.99,-100.18 0,-57.24 57.25,-88.24 127.59,-88.24 84.69,0 150.26,25.03 153.85,118.06l100.17 0c-1.2,-131.18 -97.79,-205.12 -254.02,-205.12 -132.35,0 -227.77,69.16 -227.77,176.49 0,97.79 46.52,159.81 236.13,190.8 137.14,22.66 156.22,46.51 156.22,101.38 0,59.63 -54.85,93.01 -146.68,93.01 -98.97,0 -153.84,-34.58 -163.37,-129.99l-101.38 0c8.35,150.27 115.67,217.05 264.75,217.05z"/>
    <polygon class="fil0" points="5397.92,648.32 5289.41,648.32 5110.52,1144.4 4931.65,648.32 4823.12,648.32 5059.25,1267.23 4983.11,1468.22 5089.61,1468.22 "/>
   </g>
  </g>
 </g>
</svg>
