<svg xmlns="http://www.w3.org/2000/svg" width="196.453" height="44.09"><defs/><path d="M123.475 27.756a5.315 5.315 0 0 0 3.941 2.045 3.906 3.906 0 0 0 .858-.092 2.111 2.111 0 0 0 .686-.286 1.521 1.521 0 0 0 .455-.509 1.609 1.609 0 0 0 .166-.749 1.118 1.118 0 0 0-.137-.572 1.543 1.543 0 0 0-.36-.438 2.622 2.622 0 0 0-.5-.326 3.543 3.543 0 0 0-.549-.243c-.34-.14-.681-.269-1.018-.383s-.672-.237-1.012-.38a19.718 19.718 0 0 1-.692-.255 7.68 7.68 0 0 1-.858-.386 6.784 6.784 0 0 1-.858-.54 4.038 4.038 0 0 1-.766-.749 3.755 3.755 0 0 1-.555-.992 3.517 3.517 0 0 1-.212-1.275 2.825 2.825 0 0 1 .435-1.57 3.717 3.717 0 0 1 1.161-1.144 5.59 5.59 0 0 1 1.639-.683 7.631 7.631 0 0 1 1.887-.229 10.112 10.112 0 0 1 2.808.36 6.438 6.438 0 0 1 2.313 1.21l-1.47 2.265a11.303 11.303 0 0 0-.755-.689 4.748 4.748 0 0 0-.778-.523 3.95 3.95 0 0 0-.9-.332 5.145 5.145 0 0 0-1.11-.109 2.963 2.963 0 0 0-.9.123 1.9 1.9 0 0 0-.618.335 1.321 1.321 0 0 0-.352.486 1.462 1.462 0 0 0-.114.572 1.024 1.024 0 0 0 .16.572 1.653 1.653 0 0 0 .42.426 2.8 2.8 0 0 0 .572.312c.217.089.435.169.658.24.349.129.7.252 1.055.372s.7.243 1.052.366c.174.069.386.143.638.237a5.975 5.975 0 0 1 .769.349 5.025 5.025 0 0 1 .792.52 3.57 3.57 0 0 1 .706.729 3.717 3.717 0 0 1 .5 1 3.929 3.929 0 0 1 .2 1.315 2.974 2.974 0 0 1-.463 1.65 3.935 3.935 0 0 1-1.212 1.2 5.907 5.907 0 0 1-1.716.732 7.817 7.817 0 0 1-1.97.246 14.436 14.436 0 0 1-1.693-.1 7.886 7.886 0 0 1-1.513-.337 6.208 6.208 0 0 1-1.367-.641 6.109 6.109 0 0 1-1.221-1.018Zm-12.414-9.534v9.222a2.44 2.44 0 0 0 .157.924 1.716 1.716 0 0 0 .418.629 1.53 1.53 0 0 0 .618.355 2.456 2.456 0 0 0 .764.109 8.292 8.292 0 0 0 1.907-.229 5.965 5.965 0 0 0 1.782-.715V18.222h3.254v11.116a7.844 7.844 0 0 0 .077.929c.046.4.123.875.22 1.416h-3.074c-.017-.051-.046-.143-.08-.286s-.077-.286-.117-.443-.071-.306-.106-.446a2.8 2.8 0 0 1-.06-.315 6.212 6.212 0 0 1-.952.692 7.153 7.153 0 0 1-1.11.549 6.9 6.9 0 0 1-1.167.355 5.241 5.241 0 0 1-1.121.126 5.892 5.892 0 0 1-2.233-.36 3.6 3.6 0 0 1-1.43-1 3.718 3.718 0 0 1-.764-1.493 7.334 7.334 0 0 1-.22-1.847v-8.988Zm-14.779 11.33a7.722 7.722 0 0 0 1.218.306 8.681 8.681 0 0 0 1.43.12 2.88 2.88 0 0 0 1.4-.352 3.223 3.223 0 0 0 1.092-1.015 5.149 5.149 0 0 0 .721-1.621 8.431 8.431 0 0 0 .255-2.162 8.007 8.007 0 0 0-.189-1.79 3.9 3.9 0 0 0-.586-1.378 2.713 2.713 0 0 0-1.012-.884 3.283 3.283 0 0 0-1.481-.312 6.432 6.432 0 0 0-.8.054 8.43 8.43 0 0 0-.778.154 5.772 5.772 0 0 0-.7.217 3.3 3.3 0 0 0-.572.286Zm-3.237-17.4h3.237v7.081a5.719 5.719 0 0 1 1.682-.878 6.537 6.537 0 0 1 2.159-.343 5.645 5.645 0 0 1 2.614.572 5.027 5.027 0 0 1 1.758 1.511 6.32 6.32 0 0 1 1 2.182 10.362 10.362 0 0 1 .317 2.574 7.881 7.881 0 0 1-.572 3.146 6.537 6.537 0 0 1-1.513 2.21 6.13 6.13 0 0 1-2.113 1.3 7.149 7.149 0 0 1-2.388.423q-.935 0-1.716-.02c-.523-.014-1.029-.031-1.513-.054s-.969-.06-1.447-.109-.978-.106-1.5-.177ZM84.312 29.78a2.287 2.287 0 0 0 1.43-.452 3.4 3.4 0 0 0 .981-1.184 6 6 0 0 0 .572-1.659 9.122 9.122 0 0 0 .189-1.879 8.316 8.316 0 0 0-.166-1.679 4.133 4.133 0 0 0-.558-1.381 2.823 2.823 0 0 0-1-.941 2.943 2.943 0 0 0-1.487-.352 2.674 2.674 0 0 0-1.387.36 3.051 3.051 0 0 0-1 .992 4.89 4.89 0 0 0-.6 1.5 8.125 8.125 0 0 0-.026 3.546 5.433 5.433 0 0 0 .572 1.547 3.472 3.472 0 0 0 1.009 1.144 2.485 2.485 0 0 0 1.473.44Zm.109 2.242a7.748 7.748 0 0 1-2.908-.512 5.759 5.759 0 0 1-2.122-1.45 6.234 6.234 0 0 1-1.3-2.273 9.237 9.237 0 0 1-.449-2.957 8.331 8.331 0 0 1 .409-2.619 6.134 6.134 0 0 1 1.247-2.165 5.945 5.945 0 0 1 2.1-1.487 7.473 7.473 0 0 1 2.974-.546 7.24 7.24 0 0 1 2.94.546 5.568 5.568 0 0 1 2.033 1.5 6.137 6.137 0 0 1 1.178 2.242 9.808 9.808 0 0 1 .38 2.76 8.154 8.154 0 0 1-.443 2.7 6.657 6.657 0 0 1-1.284 2.213 6.146 6.146 0 0 1-2.042 1.493 6.487 6.487 0 0 1-2.711.549ZM71.504 12.153h3.237V28.43a1.461 1.461 0 0 0 .206.9.683.683 0 0 0 .572.263 1.867 1.867 0 0 0 .7-.114c.192-.072.415-.163.661-.26l.549 1.667a5.4 5.4 0 0 1-.681.4 6.174 6.174 0 0 1-.769.332 6.836 6.836 0 0 1-.838.232 4.356 4.356 0 0 1-.858.089 4.745 4.745 0 0 1-1.035-.114 2.048 2.048 0 0 1-.884-.432 2.19 2.19 0 0 1-.626-.875 3.8 3.8 0 0 1-.232-1.447Zm-2.119 18.222c-.452.243-.915.463-1.393.666a11.091 11.091 0 0 1-1.579.532 14.194 14.194 0 0 1-1.919.349 20.723 20.723 0 0 1-2.4.126 8.379 8.379 0 0 1-2.668-.4 7.37 7.37 0 0 1-3.752-2.774 9.455 9.455 0 0 1-1.127-2.093 12.435 12.435 0 0 1-.663-2.374 14.582 14.582 0 0 1-.217-2.519 13.155 13.155 0 0 1 .263-2.631 11.648 11.648 0 0 1 .769-2.425 9.748 9.748 0 0 1 1.273-2.09 8.143 8.143 0 0 1 1.753-1.639 7.988 7.988 0 0 1 2.213-1.072 8.649 8.649 0 0 1 2.654-.389c.472 0 .907.014 1.3.04a9.529 9.529 0 0 1 1.092.132 5.911 5.911 0 0 1 .967.255 6.8 6.8 0 0 1 .924.406 8.128 8.128 0 0 1 .964.586q.5.34 1.1.8l-1.807 2.491a12.553 12.553 0 0 0-1.2-.987 5.653 5.653 0 0 0-1.1-.623 4.936 4.936 0 0 0-1.121-.326 8.115 8.115 0 0 0-1.29-.092 4.335 4.335 0 0 0-2.2.552 4.9 4.9 0 0 0-1.613 1.524 7.192 7.192 0 0 0-.989 2.268 11.064 11.064 0 0 0-.337 2.8 14.687 14.687 0 0 0 .286 2.994 8.2 8.2 0 0 0 .927 2.518 5.116 5.116 0 0 0 1.639 1.739 4.376 4.376 0 0 0 2.414.646 6.47 6.47 0 0 0 .829-.037c.295-.037.589-.06.889-.106s.595-.1.881-.163.552-.126.8-.192v-6.594h3.432ZM187.606 23.292l4.4-4.973h4.052l-6.123 6.005 6.52 7.452h-3.886l-4.962-5.819v5.819h-3.243V12.245h3.243Zm-17.633-2.665c0-.269 0-.609-.023-1.032a7.915 7.915 0 0 0-.14-1.275h3.054a2.149 2.149 0 0 1 .074.243c.023.1.049.217.08.335s.054.249.077.375.037.249.054.357a5.3 5.3 0 0 1 .724-.549 6.162 6.162 0 0 1 2.016-.841 5.544 5.544 0 0 1 1.227-.132 5.773 5.773 0 0 1 1.947.323 4.557 4.557 0 0 1 1.57.935 4.4 4.4 0 0 1 1.055 1.5 4.993 4.993 0 0 1 .386 2v8.911h-3.24v-8.293a5.046 5.046 0 0 0-.163-1.37 2.261 2.261 0 0 0-.48-.906 1.8 1.8 0 0 0-.778-.5 3.339 3.339 0 0 0-1.061-.157 5.066 5.066 0 0 0-.749.06 5.577 5.577 0 0 0-.815.166 8.06 8.06 0 0 0-.821.263 5.221 5.221 0 0 0-.755.335v10.406h-3.24Zm-6.672 4.126a11.058 11.058 0 0 0-2.373.309 4.271 4.271 0 0 0-1.467.655 2.161 2.161 0 0 0-.758.947 3.27 3.27 0 0 0-.209 1.19 2.779 2.779 0 0 0 .123.912 1.429 1.429 0 0 0 .355.586 1.3 1.3 0 0 0 .572.315 2.5 2.5 0 0 0 .709.094c.234 0 .472-.014.715-.034a4.711 4.711 0 0 0 .758-.146 4.868 4.868 0 0 0 .781-.286 5.065 5.065 0 0 0 .809-.472Zm-7.881-4.6a7.6 7.6 0 0 1 2.519-1.5 8.735 8.735 0 0 1 3.065-.543 8.578 8.578 0 0 1 2.082.252 5.678 5.678 0 0 1 1.77.755 3.874 3.874 0 0 1 1.232 1.315 3.775 3.775 0 0 1 .46 1.9v6.005a4.362 4.362 0 0 0 .052.732 1.1 1.1 0 0 0 .166.457.66.66 0 0 0 .306.24 1.37 1.37 0 0 0 .463.066 3.255 3.255 0 0 0 .375-.037q.286-.04.523-.086l.349 1.43c-.2.123-.406.237-.612.349a4.369 4.369 0 0 1-.669.286 5.207 5.207 0 0 1-.769.2 5.649 5.649 0 0 1-.921.077 2.731 2.731 0 0 1-1.561-.435 1.908 1.908 0 0 1-.8-1.227 5.84 5.84 0 0 1-1.084.809 6.057 6.057 0 0 1-1.127.512 6.3 6.3 0 0 1-1.144.263 9.179 9.179 0 0 1-1.1.077 5.4 5.4 0 0 1-1.633-.24 3.312 3.312 0 0 1-1.235-.706 3.086 3.086 0 0 1-.786-1.144 4.391 4.391 0 0 1-.286-1.619 4.762 4.762 0 0 1 .317-1.81 4.044 4.044 0 0 1 .878-1.341 4.777 4.777 0 0 1 1.335-.927 7.889 7.889 0 0 1 1.69-.572 13.73 13.73 0 0 1 1.936-.3q1.021-.086 2.079-.086v-.486a3.128 3.128 0 0 0-.183-1.144 2.1 2.1 0 0 0-.518-.775 2.207 2.207 0 0 0-.792-.44 3.454 3.454 0 0 0-1.021-.143 4.477 4.477 0 0 0-.9.083 3.45 3.45 0 0 0-.858.286 5.412 5.412 0 0 0-.889.549 11.153 11.153 0 0 0-1.027.881Zm-11.582-5.388v5.8h1.819a7.217 7.217 0 0 0 1.676-.174 3.718 3.718 0 0 0 1.287-.54 2.525 2.525 0 0 0 .815-.924 2.858 2.858 0 0 0 .286-1.313 3.457 3.457 0 0 0-.212-1.261 1.928 1.928 0 0 0-.715-.884 3.613 3.613 0 0 0-1.327-.523 10.225 10.225 0 0 0-2.046-.181Zm0 8.313v6.187h2.628a5.447 5.447 0 0 0 1.779-.26 3.778 3.778 0 0 0 1.247-.695 2.728 2.728 0 0 0 .726-.961 2.608 2.608 0 0 0 .237-1.075 3.275 3.275 0 0 0-.237-1.235 2.634 2.634 0 0 0-.735-1.015 3.717 3.717 0 0 0-1.278-.686 6.1 6.1 0 0 0-1.876-.255Zm2.814-10.832a9.984 9.984 0 0 1 2.665.332 6.1 6.1 0 0 1 2 .952 4.347 4.347 0 0 1 1.281 1.533 4.678 4.678 0 0 1 .446 2.082 3.62 3.62 0 0 1-.286 1.43 4.778 4.778 0 0 1-.789 1.281 5.243 5.243 0 0 1-1.172 1.007 5.084 5.084 0 0 1-1.43.632 6.7 6.7 0 0 1 1.567.5 5.293 5.293 0 0 1 1.467.987 4.955 4.955 0 0 1 1.1 1.513 4.687 4.687 0 0 1 .429 2.073 4.593 4.593 0 0 1-.435 1.939 4.861 4.861 0 0 1-1.3 1.667 6.391 6.391 0 0 1-2.13 1.167 8.912 8.912 0 0 1-2.94.44h-6.724V12.248Z" class="a"/><path fill="#eb2232" fill-rule="evenodd" d="M22.079 0A22.045 22.045 0 1 1 0 22.045 22.045 22.045 0 0 1 22.079 0"/><path fill="#fff" fill-rule="evenodd" d="M23.876 25.817v-4.152l5.268.034c2.537.017 3.772 2.045 3.772 4.164 0 5.859-9.025 7.115-9.034-.046m0-11.013c9.717-5.1 10.575 6.1 4.707 5.568h-4.73Zm8.467 6.08c6.966-2.668 1.144-13.054-10.258-6.629a8.888 8.888 0 0 0-4.051-1.861c-2.817-.572-6.594-.074-8.713 1.9l1.024 1a7.641 7.641 0 0 1 8.093-1.192 3.282 3.282 0 0 1 1.784 2.2l.051 9.543c-.418 6.629-8.956 6.117-8.954 0v-4.187h6.715v-1.264H7.79v4.121c.026 7.833 9.554 9.151 14.273 5.339a10.512 10.512 0 0 0 6.692 2.059c8.459-.057 10.2-9.18 3.572-11.035Z"/></svg>