<svg xmlns="http://www.w3.org/2000/svg" viewBox="0 0 1000 1000"><title>Nigeria-Logo</title><path d="M8,522.77c0-24.61,22.35-40.93,59.77-41.19a161.49,161.49,0,0,1,25.31,2l.81-4.27C96.58,462.75,87.43,455,69.39,455a114.45,114.45,0,0,0-35.27,6L32.5,433.87c12.66-4.27,26.93-7.53,42.81-7.53,39.85,0,61.12,19.08,53.59,57.76l-12.39,65.54c-11.58,5.27-30.43,11.05-54.39,11.05C28.46,560.69,8,545.12,8,522.77Zm80.78-17.33a100.56,100.56,0,0,0-19.66-2c-15.62,0-24.5,7-24.5,17.08,0,9.54,8.35,15.32,21.81,15.32a43.31,43.31,0,0,0,17.23-3.52Z" style="fill:#114185"/><path d="M245.38,461.24c-9.43-4-17.5-6.28-27.74-6.28-24.5,0-40.38,19.59-40.38,46,0,22.35,13.73,31.14,32.58,31.14,8.61,0,17.23-2.26,28-6.53l.81,27.88c-10,4.27-22.89,7.28-38.51,7.28-38.5,0-61.12-23.35-61.12-56,0-47.21,32-78.35,80.78-78.35,15.35,0,28.27,3.26,37.42,7.53Z" style="fill:#114185"/><path d="M356.82,461.24c-9.42-4-17.5-6.28-27.73-6.28-24.5,0-40.39,19.59-40.39,46,0,22.35,13.73,31.14,32.58,31.14,8.62,0,17.23-2.26,28-6.53l.81,27.88c-10,4.27-22.89,7.28-38.5,7.28-38.51,0-61.12-23.35-61.12-56,0-47.21,32-78.35,80.77-78.35,15.35,0,28.27,3.26,37.43,7.53Z" style="fill:#114185"/><path d="M485.77,502.43H400.41c1.08,21.09,13.47,29.13,35.81,29.13A136.62,136.62,0,0,0,479,523.85L465.22,556.4c-12.12,4.78-20.65,4.29-37.88,4.29-39,0-65.43-21.6-65.43-57.76,0-39.93,30.69-76.59,76.47-76.59,30.69,0,53.31,19.08,53.31,46.45C491.69,481.08,489.27,492.13,485.77,502.43Zm-29.08-29.89c0-11.05-7.81-18.58-20.47-18.58-15.61,0-28,10.8-33.11,27.37h52.23A33,33,0,0,0,456.69,472.54Z" style="fill:#114185"/><path d="M559.72,455c-13.46,0-18.58,4.53-18.58,10.55,0,17.33,59,13.56,58.7,51.23-.27,26.62-23.42,44-60.58,44-19.39,0-38-3.26-51.43-8.29L498.06,524c10.5,4,24,8,39.58,8,17.5,0,25.31-4,25.31-11,0-16.57-59-12.81-59-53.74,0-23.1,20.19-40.93,56.81-40.93,18,0,35.81,3,46.85,7.28l-9.42,28.13C584,457.23,570.22,455,559.72,455Z" style="fill:#114185"/><path d="M672,455c-13.46,0-18.58,4.53-18.58,10.55,0,17.33,59,13.56,58.7,51.23-.27,26.62-23.42,44-60.58,44-19.39,0-38-3.26-51.43-8.29L610.32,524c10.5,4,24,8,39.58,8,17.51,0,25.31-4,25.31-11,0-16.57-59-12.81-59-53.74,0-23.1,20.19-40.93,56.81-40.93,18,0,35.81,3,46.85,7.28l-9.42,28.13C696.22,457.23,682.48,455,672,455Z" style="fill:#114185"/><polygon points="992 498.5 972.04 478.54 924.4 430.9 902.41 452.89 950.05 500.53 950.05 500.53 903.57 547 923.54 566.96 970.01 520.49 970.01 520.49 992 498.5" style="fill:#f2802b"/><polygon points="913.84 498.5 893.88 478.54 846.24 430.9 824.25 452.89 871.89 500.53 871.89 500.53 825.41 547 845.38 566.96 891.85 520.49 891.85 520.49 913.84 498.5" style="fill:#f2802b"/><polygon points="835.68 498.5 815.72 478.54 768.08 430.9 746.09 452.89 793.73 500.53 793.73 500.53 747.25 547 767.22 566.96 813.69 520.49 813.69 520.49 835.68 498.5" style="fill:#f2802b"/></svg>