<svg id="Layer_1" data-name="Layer 1" xmlns="http://www.w3.org/2000/svg" viewBox="0 0 963.91 231.72"><defs><style>.cls-1{fill:#1d396b;}.cls-2{fill:#e57c20;}</style></defs><title>access_bank</title><path class="cls-1" d="M348.12,532.19c2.63-7.9,4.8-14.88,7.33-21.73A6,6,0,0,1,359,507c18.2-3.45,36.5-6.6,55-2.34,23.71,5.45,36.46,22.68,33.76,46.83-2.31,20.69-5.73,41.25-8.9,61.83-.27,1.73-2.09,3.77-3.73,4.64-13.82,7.4-28.91,10.11-44.32,10.51A139.73,139.73,0,0,1,362,626.67c-24.79-4.58-37.92-26.51-29.5-48.6,5.07-13.33,16.33-19.74,29.14-23.75,15.17-4.75,30.81-5.19,46.53-4.24,2,.12,4,.17,6,.42,3.12.38,4.05-1.07,4.11-4,.23-11-7.51-19.45-19.75-21.36-11.29-1.76-22.24.55-33.17,2.82C359.88,529.09,354.48,530.62,348.12,532.19Zm67.32,37.94c-14.51-1.79-28.37-2.53-41.67,3.11-8.94,3.8-12.51,10.76-11.1,19.59,1.11,7,7.14,12.66,16.31,12.79,9.71.13,19.47-1.39,29.16-2.54,1.22-.14,2.93-2.25,3.15-3.65C412.81,590.07,414,580.66,415.44,570.13Z" transform="translate(-58.05 -424.14)"/><path class="cls-1" d="M718.37,574c-2.46,17.62,8,29.84,26.53,31.7,14.37,1.44,28.13-1.76,41.76-5.82.78-.23,1.56-.44,3.67-1-2.93,8.57-5.53,16.31-8.28,24a3.63,3.63,0,0,1-2.38,1.57c-18,4.38-36.14,7.12-54.31,2-24.73-6.94-37.65-24.24-38.45-50.75-1.21-40.11,32.38-83,86.89-71.32,22.17,4.77,35.18,24,33.85,48.71-.29,5.31-1.27,10.58-1.56,15.89-.22,4.17-2.22,5.12-6.08,5.1-25.15-.14-50.3-.07-75.45-.07Zm4-20.59c.73.36,1.16.77,1.59.77,17.44.05,34.88.09,52.32,0a3.91,3.91,0,0,0,3-1.89c3.74-9.71-2.64-23-12.68-26.73C747.56,518.48,725.68,532.13,722.38,553.38Z" transform="translate(-58.05 -424.14)"/><path class="cls-1" d="M912.11,621.15c2.64-7.93,5.08-15.3,7.39-22.26,8.75,2.06,16.86,4.71,25.17,5.67,6.82.79,13.94.06,20.8-.93,5.75-.83,10.88-3.6,12.09-10.24,1.28-7-3.13-10.85-8.35-13.93-7.17-4.23-14.6-8-21.71-12.33-11.35-6.88-18.33-16.46-16.82-30.43,1.53-14.27,10.26-23.08,22.83-28.48,14.9-6.41,30.5-6.46,46.17-4,7.2,1.14,14.26,3.1,22.27,4.89l-7.38,22.74c-3.33-1.17-6.17-2.64-9.17-3.12-9-1.42-18-2.81-27-3.45-3.26-.24-6.94,1.15-10,2.72-8.36,4.33-9,13.7-1.12,18.81,7.67,5,15.87,9.11,23.81,13.65,16.45,9.39,23,23.21,17.92,39.57-4.38,14-15.54,21.27-28.84,25.23-18.4,5.49-36.93,3.83-55.33-.39C920.69,623.94,916.64,622.5,912.11,621.15Z" transform="translate(-58.05 -424.14)"/><path class="cls-1" d="M806.68,620.38c2.48-7.51,4.87-14.74,7.19-21.74,7.76,2,15,5,22.46,5.55,8.64.67,17.5-.28,26.15-1.43a10.82,10.82,0,0,0,9.53-9.63c.83-5.48-1.83-9.4-6.24-12.09-5.53-3.38-11.29-6.37-16.88-9.65-3.58-2.1-7.1-4.34-10.54-6.67-20.45-13.85-16.72-41.79,3.41-53.43,13.7-7.93,28.64-9.61,44-7.93,10,1.1,19.9,3.41,30.76,5.34l-7.6,23.06c-4.31-1.43-8.17-2.83-12.1-4-9.2-2.76-18.59-4-28.1-2-5.7,1.21-11,3.5-12.23,10.14-1.26,6.89,3.46,10.38,8.47,13.3,6.89,4,14.12,7.48,20.94,11.62,8.71,5.28,16.29,11.74,18.35,22.5,2.85,14.89-3.61,28.58-16.92,36.39-10.33,6.06-21.63,8.5-33.43,8.87a128.34,128.34,0,0,1-42.36-5.77c-1.11-.35-2.22-.69-3.3-1.13C807.77,621.49,807.45,621.05,806.68,620.38Z" transform="translate(-58.05 -424.14)"/><path class="cls-1" d="M688.3,509.47c-2.24,6.8-4.39,12.73-6.12,18.79-1,3.52-2.6,3.75-5.81,2.66-12.35-4.21-24.9-5.82-37.77-2.18-32.17,9.11-36.33,46.87-22.23,62.94,7.41,8.44,16.79,12.81,27.73,12.58,9.57-.2,19.11-1.89,29.37-3-1.22,3.64-3.24,7.65-3.82,11.86-1.48,10.6-7.46,14.3-17.75,14.66-12.5.44-25,1.8-37.22-1.63-23.39-6.53-37.21-22.84-40-46.92-3.33-28.6,13.48-58.72,39.83-69.91,19-8.07,38.94-8,58.93-4C678.41,506.29,683.24,508,688.3,509.47Z" transform="translate(-58.05 -424.14)"/><path class="cls-1" d="M560.27,600.14c-2.74,8.3-5.18,16-7.92,23.64-.38,1.05-2.14,2.07-3.39,2.28-13.86,2.3-27.78,3.69-41.77,1.41C476.86,622.55,458,597.73,461,567c3.54-35.8,28.57-60.48,64.44-63.55,15.26-1.3,30.25-.23,44.91,4.64,3.57,1.19,4.33,2.75,3,6.16a136.77,136.77,0,0,0-4.73,14.21c-.91,3.39-2.44,3.55-5.41,2.55-12-4.06-24.26-5.83-36.83-2.61-23.54,6-37.08,30.52-29.25,53,5,14.21,17.93,23,34.55,23.11a89.07,89.07,0,0,0,13.92-1.11C550.2,602.64,554.7,601.37,560.27,600.14Z" transform="translate(-58.05 -424.14)"/><path class="cls-2" d="M153.92,424.14c.81.8,1.5,1.45,2.16,2.12l73.13,74.4Q252.15,524,275.08,547.3c.6.61.56.88,0,1.45q-34.27,33.94-68.51,67.92-19.5,19.35-39,38.71c-.66.65-1,.63-1.59,0Q114,603.69,61.9,552.07c-1.13-1.12-2.22-2.27-3.4-3.33-.61-.55-.59-.86,0-1.45q7.83-8.12,15.59-16.29,13.17-13.77,26.32-27.58a2.78,2.78,0,0,1,2.48-1c5.22.35,10.45.6,15.67.89.13,0,.27,0,.43.07-.09.49-.47.7-.74,1Q97.35,525.3,76.44,546.21c-.6.6-.75.91-.06,1.61q44.1,45.06,88.15,90.17c1.27,1.3,1.26,1.3,2.59,0l88.64-88.75c1.18-1.18,1.18-1.18.07-2.31l-76.27-77.82q-12.76-13-25.54-26a3.25,3.25,0,0,1-1-2.79c.36-4.85.57-9.71.84-14.57C153.85,425.23,153.88,424.77,153.92,424.14Z" transform="translate(-58.05 -424.14)"/><path class="cls-2" d="M150.75,504.53c-.48.55-1,1.13-1.48,1.69q-19.58,21.46-39.18,42.92c-.59.65-.66,1,0,1.65q28.46,28,56.87,56c.51.51.8.83,1.51.11Q197,578.25,225.56,549.7c.55-.54.56-.83,0-1.38Q195.77,518.11,166,487.88l-11.48-11.65a1.63,1.63,0,0,1-.61-1.22c0-6,0-11.93,0-17.95.51,0,.69.44,1,.7q33.33,34.1,66.65,68.2,10.4,10.63,20.79,21.24c.65.67.62,1,0,1.64q-29.74,30.1-59.44,60.26c-4.7,4.78-9.43,9.53-14.1,14.34-.73.75-1.1.88-1.93.06q-37.24-36.9-74.58-73.73c-.62-.61-.61-.92,0-1.54q21.14-22.07,42.22-44.18a1.87,1.87,0,0,1,1.64-.63c4.7.33,9.4.6,14.11.9C150.36,504.33,150.56,504.25,150.75,504.53Z" transform="translate(-58.05 -424.14)"/><path class="cls-2" d="M207,549.88q-19.52-19.54-39-39.1c-.66-.66-1-.74-1.7,0q-19.47,19.59-39,39.09c-.58.58-.68.87,0,1.51q19.56,19.51,39,39.09c.76.76,1.12.62,1.78,0q8.24-8.32,16.54-16.59l22.49-22.51c.2-.21.39-.43.62-.69C207.45,550.36,207.25,550.11,207,549.88Zm-14,1.19-14.79,14.81c-3.63,3.63-7.27,7.26-10.88,10.91-.44.44-.67.53-1.17,0q-12.82-12.89-25.69-25.72c-.42-.42-.35-.61,0-1q12.86-12.84,25.68-25.72c.47-.47.68-.42,1.11,0q12.82,12.87,25.68,25.72c.15.15.29.31.44.49C193.24,550.79,193.12,550.93,193,551.07Z" transform="translate(-58.05 -424.14)"/></svg>