<svg id="Layer_1" data-name="Layer 1" xmlns="http://www.w3.org/2000/svg" viewBox="0 0 839.06 172.07"><defs><style>.cls-2{fill:#213f7d}</style><linearGradient id="linear-gradient" x1="84.77" y1="391.96" x2="209.66" y2="599.31" gradientTransform="matrix(1 0 0 -1 0 1000)" gradientUnits="userSpaceOnUse"><stop offset="0" stop-color="#213f7d"/><stop offset="1" stop-color="#39cdcc"/></linearGradient></defs><path d="M94.74 440.75a4.78 4.78 0 0 1 4.78-4.75h14.34a4.78 4.78 0 0 1 4.78 4.78v86a4.78 4.78 0 0 0 4.78 4.78h62.15a4.78 4.78 0 0 0 4.78-4.78v-14.32a4.78 4.78 0 0 0-4.78-4.78h-28.68a14.34 14.34 0 0 1-14.34-14.34v-43A14.34 14.34 0 0 1 156.89 436h43a14.34 14.34 0 0 1 14.34 14.34v90.83a14.34 14.34 0 0 1-14.34 14.34h-90.81a14.34 14.34 0 0 1-14.34-14.34zm95.61 23.9a4.78 4.78 0 0 0-4.78-4.78h-19.12V479a4.78 4.78 0 0 0 4.78 4.78h19.12z" transform="translate(-94.74 -428.01)" fill="url(#linear-gradient)"/><path class="cls-2" d="M265.31 428v132.9h23V428zM401.55 522.32c3.61-38.6-16-58-47.34-58-30.42 0-49.81 20.53-49.81 49.05 0 30 19.2 50 51.52 50 14.26 0 30.42-4.94 40.31-15.21l-14.83-14.64c-5.32 5.51-16.54 8.75-25.1 8.75-16.35 0-26.43-8.37-27.95-20zm-72.82-19.2c3.42-12.17 13.69-18.25 26.24-18.25 13.31 0 22.81 6.08 24.34 18.25zM511.63 560.91v-49.24c0-29.47-17.68-46-39.74-46-11.79 0-21.29 4.75-30.8 14.07L439.58 467h-20.73v93.92h23V513c0-14.26 9.7-26.24 24-26.24 14.83 0 22.63 10.84 22.63 25.1v49.05zM577 486.57c14.64 0 27.19 11 27.19 27.38 0 16.92-12.55 27.57-27.19 27.57-14.83 0-26.62-11.22-26.62-27.57.01-16.95 11.8-27.38 26.62-27.38zM605.72 428v51.91c-5.51-9.7-20.91-15-30.8-15-27.38 0-47.72 16.73-47.72 49.05 0 30.8 20.72 49.05 48.29 49.05 11.41 0 23-3.8 30.23-15l1.52 12.93h21.68V428zM723.25 476.88c-10.84-9.51-21.86-12.36-36.51-12.36-17.11 0-39.55 7.61-39.55 29.28 0 21.29 21.11 27.76 38.79 29.09 13.31.76 18.63 3.42 18.63 9.89 0 6.84-8.18 11.41-16.92 11.22-10.46-.19-25.67-5.7-32.32-13.12L644 547.41c13.69 14.26 28.52 16.73 43.35 16.73 26.81 0 40.31-14.26 40.31-30.8 0-24.91-22.44-28.9-40.12-30-12-.76-17.49-4.18-17.49-10.27 0-5.89 6.08-9.32 17.11-9.32 8.94 0 16.54 2.09 23.19 8.37zM787.74 540.76c-15.78 0-26.62-12-26.62-26.62s9.89-26.62 26.62-26.62 26.62 12 26.62 26.62-10.84 26.62-26.62 26.62zm51.91 59.32v-132.9H818l-1.52 12.93c-7.22-10.46-19.77-15-30.42-15-28.9 0-48.1 21.48-48.1 49.05 0 27.38 17.3 49.05 47.34 49.05 9.89 0 24.53-3 31.18-13.31v50.19zM860 467.18v93.73h23.2v-49.43c0-17.3 11.22-23.77 23.39-23.77 7.61 0 12 2.09 16.73 6.08l10.46-20.15c-5.13-5.13-14.45-8.94-24.15-8.94-9.51 0-19.2 1.71-26.43 13.31l-1.71-10.84z" transform="translate(-94.74 -428.01)"/></svg>