<svg xmlns="http://www.w3.org/2000/svg" viewBox="0 0 1000 1000"><title>Nigeria-Logo</title><path d="M531.1,390.09c.13-.22.28-.22.46,0l-.27.22Z" style="fill:#0124dd"/><path d="M301.36,466.93c2.89-8.74,5.63-17,8.31-25.19.33-1,1-1.23,1.87-1.39,14.47-2.7,29-5,43.78-4.27,10.43.49,20.46,2.62,29.44,8.22,12.18,7.58,17.75,19,18.54,33,.46,8.05-.85,16-2,23.88-2.39,16.06-4.85,32.1-7.16,48.16a3.77,3.77,0,0,1-2.26,3.11c-9.42,5.17-19.64,8-30.14,9.72a135.11,135.11,0,0,1-39.34,1c-10.91-1.37-21.08-4.76-29-12.78a35.5,35.5,0,0,1,2.87-52.24c8.12-6.68,17.72-10,27.83-12.15,15.31-3.24,30.76-2.8,46.22-1.62,1.93.14,2.35-.45,2.44-2.17.69-12.06-6.55-20.72-19.26-23.05-8.82-1.62-17.48-.22-26.14,1.2A159,159,0,0,0,301.36,466.93Zm54.08,36.38A103.16,103.16,0,0,0,339,504.52c-5.88,1-11.59,2.55-16.33,6.45-5.36,4.41-6.79,10.33-5.73,16.85,1,5.95,5.16,9.21,10.55,11.13a31.18,31.18,0,0,0,7.65,1.65c9.64.93,19-.75,28.3-3.05a2.6,2.6,0,0,0,2.26-2.61c1.27-9.45,2.53-18.91,3.93-28.34.24-1.63-.3-1.94-1.66-2.2A81.9,81.9,0,0,0,355.44,503.31Z" style="fill:#114185"/><path d="M747.8,532.79c-1.6,4.86-3,9.21-4.48,13.56-1.18,3.57-2.44,7.11-3.56,10.71a2.84,2.84,0,0,1-2.22,2.24c-15.3,4.08-30.8,6.29-46.6,4.3-18-2.27-32.88-10-42-26.51-5.61-10.22-7.39-21.35-6.63-32.82,1.45-21.82,10.54-39.91,27.44-53.92,10.27-8.52,22.25-12.9,35.43-14.2,9.09-.89,18.13-.72,27,1.75,18.06,5,30.1,19.05,32.41,37.65,1.33,10.69,0,21.19-1.73,31.7-.21,1.31-.87,1.35-1.87,1.35-4.85,0-9.71,0-14.56,0q-35,0-70,0c-1.88,0-2.43.46-2.46,2.39-.26,15.72,8.42,26.1,23.87,28.75,11.42,2,22.53.27,33.62-2.15A129.65,129.65,0,0,0,747.8,532.79ZM707,488.19h22.4c6.84,0,6.84,0,7.07-6.84.47-13.85-8-22.88-21.77-23.65-16.47-.93-32,11-36,28.7-.33,1.47,0,1.83,1.5,1.82C689.11,488.15,698,488.19,707,488.19Z" style="fill:#114185"/><path d="M805.3,564a138.61,138.61,0,0,1-43.18-7.2c-1.39-.48-1.76-.88-1.26-2.39q3.43-10.39,6.57-20.88c.52-1.72,1.13-1.58,2.51-.92a70.32,70.32,0,0,0,43.13,6.08,21.85,21.85,0,0,0,9.52-3.9,10.61,10.61,0,0,0,1.18-16.49,37.76,37.76,0,0,0-8.48-5.92c-7.65-4.28-15.43-8.29-22.7-13.25-19.53-13.37-17.15-41.2,2.08-53.41,8.52-5.41,17.85-8.12,27.76-9.15,16.52-1.71,32.49,1.12,48.23,5.86,1.44.43,1.81.82,1.26,2.35-2.37,6.57-4.66,13.18-6.81,19.83-.57,1.75-1.25,1.62-2.6,1A71.21,71.21,0,0,0,831,458.81c-5.28.13-10.43,1-14.9,4.12a10.29,10.29,0,0,0-4.3,11.71,11.78,11.78,0,0,0,4.63,5.89c4.63,3.48,9.93,5.83,15,8.61a125.21,125.21,0,0,1,17.7,11.22c16.48,13.08,14.81,38-1,50.66-10.2,8.15-22.14,11.41-34.84,12.57C810.1,563.87,806.93,563.92,805.3,564Z" style="fill:#114185"/><path d="M913.17,564a138.91,138.91,0,0,1-42.61-7.13c-1.59-.53-2-1-1.41-2.68,2.26-6.78,4.4-13.6,6.48-20.44.5-1.66,1-1.9,2.62-1.12a70.67,70.67,0,0,0,42.92,6.1,23.58,23.58,0,0,0,8.81-3.28c6.63-4.23,7.44-12,1.84-17.44a36.65,36.65,0,0,0-7.77-5.35c-8-4.54-16.31-8.6-23.84-14C882.84,486.11,885,463.4,895.62,452c7.16-7.67,16.2-11.79,26.23-14,13.31-3,26.61-2.28,39.9.18,5.6,1,11.08,2.52,16.56,4,1.82.51,2.48,1.05,1.71,3.13-2.31,6.27-4.41,12.61-6.45,19-.57,1.75-1.14,2-2.86,1.25a71.64,71.64,0,0,0-31.06-6.79c-5,.09-9.83.83-14.19,3.45-4.13,2.47-6.22,6.06-5.6,11,.39,3.14,2.28,5.33,4.66,7.13,5,3.79,10.75,6.29,16.19,9.29,6.2,3.43,12.32,7,17.73,11.61,15.16,13,13.45,37.1-1.76,49.5-8.17,6.67-17.65,10.13-27.88,11.92A103.08,103.08,0,0,1,913.17,564Z" style="fill:#114185"/><path d="M517,534.56c-.51,3-1.8,5.69-2.75,8.52-1.81,5.39-3.74,10.73-5.53,16.13a2.63,2.63,0,0,1-2.36,2c-12,2-24.13,3.27-36.32,2.35-18.19-1.37-33.79-8-44.51-23.5-7.56-10.92-10.23-23.33-9.56-36.4,1.12-21.8,10.36-39.64,27.39-53.3,9.76-7.82,21.24-11.66,33.47-13.26a114,114,0,0,1,45.33,2.71c2.82.77,5.54,1.85,8.31,2.75,1,.32,1.26.75.89,1.84-2.36,6.9-4.7,13.82-6.91,20.77-.49,1.53-1.18,1.22-2.17.83a71.85,71.85,0,0,0-22.15-5.19c-16.47-.93-30.79,3.6-41.07,17.31-9.63,12.85-11.12,34.19-.81,47.09,6.41,8,14.87,12.24,24.91,13.41,10.83,1.26,21.3-.83,31.64-3.8.66-.19,1.33-.32,2-.48Z" style="fill:#114185"/><path d="M631,534.42c-2.3,6.62-4.94,13.17-6.83,19.93-1.37,4.93-3.68,7.27-9.06,7.81-15,1.5-30,3.18-45-.79-23.59-6.27-39-25.09-40.28-49.55-1.4-26.58,8.78-47.82,30.19-63.53,9-6.59,19.5-9.71,30.46-11.14a114.33,114.33,0,0,1,45.32,2.7c2.74.75,5.37,1.87,8.1,2.66,1.43.42,1.47,1.07,1,2.32-2.29,6.69-4.56,13.38-6.69,20.12-.51,1.61-1.12,1.55-2.43,1.05-10.48-4-21.2-6.17-32.51-5-19.21,2.06-33.83,14.76-37.52,33.45-2.66,13.49-.22,25.83,10.53,35.38,8.57,7.6,19,9.72,30.11,9.07a95.84,95.84,0,0,0,23.06-4.4C629.9,534.42,630.3,534.05,631,534.42Z" style="fill:#114185"/><polygon points="250.04 506.9 125.47 382.33 125.47 401.45 230.92 506.9 230.96 506.94 139.62 598.28 139.51 598.17 48.23 506.9 48.15 506.82 92.96 462.01 73.51 462.01 28.66 506.86 28.7 506.9 139.47 617.67 139.51 617.63 250.14 507 250.04 506.9" style="fill:#fe6309"/><polygon points="125.43 414.61 125.43 433.73 198.64 506.94 139.66 565.92 80.63 506.9 80.55 506.82 125.36 462.01 105.91 462.01 61.06 506.86 61.1 506.9 129.89 575.69 139.51 585.31 149.29 575.54 217.82 507 125.43 414.61" style="fill:#fe6309"/><path d="M185.53,506.9,149,470.33l-9.72-9.72-9.56,9.56L93,506.86l0,0,36.74,36.74,9.62,9.62,9.76-9.77L185.63,507Zm-46,27-27-27-.08-.08,26.93-26.93,27,27,0,0Z" style="fill:#fe6309"/></svg>