<?xml version="1.0" encoding="utf-8"?>
<!-- Generator: Adobe Illustrator 25.4.1, SVG Export Plug-In . SVG Version: 6.00 Build 0)  -->
<svg version="1.1" id="Layer_1" xmlns="http://www.w3.org/2000/svg" xmlns:xlink="http://www.w3.org/1999/xlink" x="0px" y="0px"
	 viewBox="0 0 257 48" style="enable-background:new 0 0 257 48;" xml:space="preserve">
<style type="text/css">
	.st0{fill:none;}
	.st1{fill-rule:evenodd;clip-rule:evenodd;fill:#00BFFF;}
	.st2{fill-rule:evenodd;clip-rule:evenodd;fill:#81BE00;}
	.st3{fill-rule:evenodd;clip-rule:evenodd;}
</style>
<rect class="st0" width="256.6" height="48"/>
<path class="st1" d="M14.4,41.1h6h1.5h3.3H40V25.9H24.9h-3v-3H6.7v10.5C6.7,37.6,10.2,41.1,14.4,41.1z"/>
<path class="st2" d="M5.7,6.7C2.3,7.5,0,10.7,0,14.3c0,3.5,2.4,6.7,5.7,7.6V8.6V6.7z"/>
<path class="st1" d="M21.9,5.7c-0.8-3.4-4-5.7-7.6-5.7c-3.5,0-6.7,2.4-7.6,5.7H20H21.9z"/>
<path class="st1" d="M41.1,41.1c3.4-0.8,5.7-4,5.7-7.6c0-3.5-2.4-6.7-5.7-7.6v13.3V41.1L41.1,41.1z"/>
<path class="st2" d="M24.9,42.1c0.8,3.4,4,5.7,7.6,5.7c3.5,0,6.7-2.4,7.6-5.7H26.8H24.9z"/>
<path class="st2" d="M32.4,6.7h-6h-1.5h-3.3H6.7v15.1h15.1h3v3H40V14.4C40,10.2,36.6,6.7,32.4,6.7z"/>
<path class="st3" d="M53.5,17.2l3.1-1.9l3.3-5.1l1.4,0.2v5.4h9l-0.1,3.5l-8.8-0.4v11.8c0,1.7,0.4,2.9,1.2,3.6c0.8,0.7,1.8,1.1,3,1.1
	c1,0,1.9-0.1,2.7-0.4s1.6-0.7,2.5-1.2l1.4,3c-0.9,0.7-1.9,1.1-3,1.4c-1.1,0.3-2.4,0.5-3.9,0.5c-2.6,0-4.5-0.7-5.9-2
	c-1.4-1.4-2-3.3-2-6V19.2l-3.5-0.5L53.5,17.2L53.5,17.2z"/>
<path class="st3" d="M92,24.8c0-2.2-0.6-3.8-1.7-4.8c-1.1-0.9-2.8-1.4-5.2-1.4c-0.9,0-1.8,0.1-2.7,0.4c-0.9,0.3-1.7,0.6-2.4,1.2
	c-0.7,0.5-1.3,1.2-1.7,1.9c-0.5,0.8-0.7,1.7-0.8,2.7L92,24.8L92,24.8z M77.6,28c0.1,1.2,0.4,2.3,0.9,3.2c0.5,0.9,1.1,1.7,1.9,2.3
	c0.8,0.6,1.7,1,2.7,1.3s2,0.4,3.1,0.4c1.6,0,3-0.1,4.2-0.4c1.2-0.3,2.4-0.7,3.6-1.4l1.2,3.4c-0.8,0.4-1.5,0.7-2.1,0.9
	c-0.7,0.2-1.4,0.4-2.1,0.5c-0.7,0.1-1.5,0.2-2.3,0.3c-0.8,0.1-1.7,0.1-2.7,0.1c-2,0-3.8-0.3-5.4-0.8c-1.6-0.5-2.9-1.3-3.9-2.3
	c-1.1-1-1.9-2.3-2.4-3.7c-0.6-1.4-0.8-3-0.8-4.8c0-1.7,0.3-3.3,0.9-4.8c0.6-1.5,1.5-2.7,2.6-3.7c1.1-1,2.4-1.8,3.9-2.4
	c1.5-0.6,3.1-0.9,4.9-0.9c1.8,0,3.4,0.2,4.7,0.7c1.3,0.5,2.4,1.1,3.3,1.9c0.9,0.8,1.5,1.8,1.9,2.9c0.4,1.1,0.6,2.4,0.6,3.7
	c0,0.6,0,1.2-0.1,1.7c-0.1,0.5-0.2,1.1-0.3,1.7L77.6,28L77.6,28z"/>
<path class="st3" d="M104.4,15.8l0.3,3.6c1.1-1.4,2.2-2.5,3.5-3.1c1.3-0.6,2.7-0.9,4.3-0.9c1.6,0,2.9,0.2,3.9,0.7
	c1,0.5,2.1,1.3,3,2.5l-2.8,2.6c-0.6-0.8-1.3-1.4-2.1-1.7c-0.8-0.4-1.6-0.6-2.4-0.6c-1.7,0-3,0.3-4.1,1c-1.1,0.7-2.1,1.7-3,3v15.5
	h-4.2V15.8H104.4z"/>
<path class="st3" d="M137.8,27.6c-2.6,0.1-4.8,0.2-6.6,0.4c-1.8,0.2-3.4,0.5-4.9,0.9c-0.6,0.7-0.9,1.6-0.9,2.7
	c0,1.2,0.4,2.1,1.1,2.7c0.8,0.6,1.8,0.9,3.2,0.9c1.5,0,2.9-0.2,4.1-0.7c1.3-0.4,2.5-1.2,3.8-2.3L137.8,27.6L137.8,27.6z M122.6,17.3
	c1.7-0.7,3.2-1.2,4.7-1.5c1.4-0.3,3.1-0.5,4.9-0.5c3.3,0,5.8,0.6,7.4,1.8c1.6,1.2,2.4,3.2,2.4,6v9.4c0,1.1,0.2,1.8,0.5,2.2
	c0.4,0.4,1.1,0.6,2.2,0.6v3c-0.5,0.2-1,0.3-1.4,0.3c-0.4,0.1-1,0.1-1.6,0.1c-0.9,0-1.7-0.3-2.2-1c-0.5-0.7-0.9-1.6-0.9-2.7
	c-2.1,2.5-5.2,3.7-9.3,3.7c-2.6,0-4.6-0.6-6-1.8c-1.4-1.2-2-2.9-2-5c0-1,0.2-1.9,0.5-2.8c0.3-0.8,0.9-1.7,1.6-2.6
	c1-0.3,2-0.6,3.1-0.8c1-0.2,2.1-0.4,3.3-0.6c1.2-0.2,2.4-0.3,3.7-0.4c1.3-0.1,2.8-0.1,4.4-0.2v-1.3c0-1.6-0.4-2.7-1.3-3.4
	c-0.9-0.7-2.4-1.1-4.6-1.1c-2.8,0-5.7,0.6-8.5,1.8L122.6,17.3z"/>
<path class="st3" d="M146.3,15.8h4.3l6,18.6h0.4l6-18.6h3.4l6.2,18.6h0.4l5.7-18.6h4.2l-7.6,22.5h-5.4l-5-15.5h-0.3l-5.1,15.5h-5.6
	L146.3,15.8z"/>
<path class="st3" d="M188.5,27c0,2.6,0.8,4.6,2.3,6.1c1.5,1.5,3.6,2.2,6.2,2.2c2.6,0,4.7-0.7,6.2-2.2c1.5-1.5,2.3-3.5,2.3-6.1
	c0-2.6-0.8-4.6-2.3-6.1c-1.5-1.5-3.6-2.2-6.2-2.2c-2.6,0-4.7,0.7-6.2,2.2C189.2,22.4,188.5,24.4,188.5,27z M209.5,27
	c0,1.8-0.3,3.4-1,4.9c-0.7,1.4-1.5,2.7-2.7,3.7c-1.1,1-2.4,1.8-4,2.3c-1.5,0.5-3.2,0.8-4.9,0.8c-1.7,0-3.4-0.3-4.9-0.8
	c-1.5-0.5-2.9-1.3-4-2.3c-1.1-1-2-2.3-2.7-3.7c-0.7-1.4-1-3.1-1-4.9c0-1.8,0.3-3.4,1-4.9c0.7-1.4,1.5-2.7,2.7-3.7s2.4-1.8,4-2.3
	c1.5-0.5,3.2-0.8,4.9-0.8c1.7,0,3.4,0.3,4.9,0.8c1.5,0.5,2.8,1.3,4,2.3c1.1,1,2,2.3,2.7,3.7C209.1,23.6,209.5,25.2,209.5,27z"/>
<path class="st3" d="M217.9,15.8l0.3,3.6c1.1-1.4,2.2-2.5,3.5-3.1c1.3-0.6,2.7-0.9,4.3-0.9c1.6,0,2.9,0.2,3.9,0.7
	c1.1,0.5,2.1,1.3,3,2.5l-2.8,2.6c-0.6-0.8-1.3-1.4-2.1-1.7c-0.8-0.4-1.6-0.6-2.4-0.6c-1.7,0-3,0.3-4.1,1c-1.1,0.7-2.1,1.7-3,3v15.5
	h-4.2V15.8H217.9z"/>
<path class="st3" d="M239.6,5.4v19.7l3.6-2.4l7.8-7h4.9l0.1,0.4l-9.8,8.5l10.2,13.2l-0.1,0.4h-4.7L243,26.8l-3.5,1.9v9.5h-4.1V5.4
	H239.6z"/>
</svg>
