<svg width="257" height="48" fill="none" xmlns="http://www.w3.org/2000/svg"><g clip-path="url(#a)" fill-rule="evenodd" clip-rule="evenodd"><path d="M14.408 41.065H40.047V25.934H21.873v-3.006H6.739v10.467c0 4.209 3.461 7.67 7.67 7.67Z" fill="#00BFFF"/><path d="M5.68 6.74C2.319 7.51 0 10.712 0 14.31c0 3.518 2.414 6.72 5.68 7.56V6.739Z" fill="#81BE00"/><path d="M21.87 5.68C21.098 2.319 17.894 0 14.296 0c-3.518 0-6.72 2.414-7.56 5.68H21.87ZM41.105 41.065c3.363-.772 5.681-3.974 5.681-7.571 0-3.518-2.413-6.72-5.68-7.56v15.131Z" fill="#00BFFF"/><path d="M24.916 42.123c.772 3.363 3.974 5.68 7.571 5.68 3.518 0 6.72-2.413 7.56-5.68H24.916ZM32.378 6.74H6.74v15.13h18.174v3.005h15.134V14.408c0-4.21-3.46-7.669-7.669-7.669Z" fill="#81BE00"/><path d="m53.509 17.168 3.057-1.933 3.284-5.081 1.394.226v5.397h8.95l-.133 3.464-8.815-.407v11.829c0 1.71.39 2.923 1.17 3.643.78.72 1.784 1.078 3.014 1.078.99 0 1.882-.134 2.675-.404.794-.27 1.612-.66 2.452-1.17l1.35 3.014a9.526 9.526 0 0 1-3.035 1.437c-1.094.3-2.392.45-3.89.45-2.58 0-4.548-.674-5.912-2.024-1.364-1.35-2.045-3.343-2.045-5.98V19.234l-3.508-.496v-1.57h-.008ZM92.007 24.813c-.03-2.234-.584-3.821-1.658-4.757-1.077-.935-2.826-1.404-5.245-1.404-.897 0-1.786.128-2.67.384a7.322 7.322 0 0 0-2.353 1.157 6.666 6.666 0 0 0-1.727 1.925c-.463.772-.739 1.67-.829 2.698h14.482v-.003ZM77.572 28.05c.09 1.23.376 2.302.856 3.215a6.618 6.618 0 0 0 1.887 2.25 8.098 8.098 0 0 0 2.676 1.304 11.44 11.44 0 0 0 3.125.428c1.59 0 2.992-.128 4.206-.382 1.213-.253 2.405-.711 3.575-1.371l1.214 3.417c-.75.36-1.462.652-2.136.875-.676.227-1.371.407-2.091.54-.72.137-1.492.232-2.316.292-.824.06-1.732.09-2.722.09-2.04 0-3.837-.27-5.397-.81s-2.872-1.32-3.936-2.337c-1.063-1.02-1.873-2.25-2.43-3.687-.556-1.44-.831-3.041-.831-4.811 0-1.74.305-3.336.922-4.79.613-1.453 1.475-2.691 2.585-3.709 1.107-1.02 2.405-1.813 3.89-2.383 1.483-.57 3.11-.854 4.878-.854 1.8 0 3.357.232 4.677.699 1.32.463 2.414 1.11 3.284 1.933a7.63 7.63 0 0 1 1.934 2.945c.42 1.14.63 2.384.63 3.734 0 .63-.03 1.208-.09 1.732a13.09 13.09 0 0 1-.317 1.685H77.572v-.005ZM104.419 15.772l.27 3.554c1.08-1.44 2.247-2.466 3.507-3.082 1.26-.614 2.698-.922 4.318-.922 1.557 0 2.863.229 3.913.687 1.05.458 2.054 1.296 3.014 2.51l-2.834 2.557c-.63-.78-1.333-1.355-2.113-1.731a5.56 5.56 0 0 0-2.428-.562c-1.68 0-3.043.33-4.093.992-1.05.66-2.054 1.667-3.014 3.02v15.46h-4.184V15.772h3.644ZM137.836 27.556c-2.599.06-4.786.202-6.564.426-1.778.224-3.398.529-4.863.916-.597.715-.897 1.61-.897 2.684 0 1.222.382 2.138 1.143 2.749.76.61 1.843.916 3.248.916 1.494 0 2.874-.223 4.145-.67 1.268-.448 2.531-1.209 3.786-2.28v-4.74h.002Zm-15.245-10.254c1.68-.69 3.232-1.192 4.655-1.506 1.424-.313 3.066-.471 4.926-.471 3.327 0 5.779.616 7.353 1.843 1.573 1.23 2.361 3.224 2.361 5.981v9.401c0 1.08.18 1.806.54 2.182.36.373 1.11.562 2.248.562v2.967c-.51.15-.982.262-1.416.338a9.409 9.409 0 0 1-1.552.112c-.93 0-1.663-.33-2.203-.99-.54-.66-.854-1.56-.944-2.697-2.067 2.46-5.157 3.687-9.264 3.687-2.638 0-4.64-.614-6.003-1.844-1.364-1.23-2.046-2.907-2.046-5.037 0-1.02.159-1.947.472-2.787.314-.84.862-1.694 1.642-2.564a54.3 54.3 0 0 1 3.082-.81 33.385 33.385 0 0 1 3.305-.584 63.25 63.25 0 0 1 3.734-.36c1.32-.09 2.774-.15 4.364-.18v-1.26c0-1.56-.429-2.697-1.282-3.417-.854-.72-2.376-1.08-4.566-1.08-2.817 0-5.651.614-8.501 1.844l-.905-3.33ZM146.337 15.772h4.318l6.024 18.575h.36l5.984-18.575h3.417l6.161 18.575h.36l5.711-18.575h4.184l-7.555 22.489h-5.444l-5.037-15.472h-.27l-5.081 15.472h-5.577l-7.555-22.49ZM188.476 27.016c0 2.594.753 4.637 2.256 6.129 1.503 1.489 3.578 2.236 6.223 2.236 2.646 0 4.719-.745 6.224-2.236 1.503-1.492 2.256-3.535 2.256-6.129 0-2.593-.753-4.636-2.256-6.128-1.503-1.492-3.578-2.236-6.224-2.236-2.645 0-4.72.744-6.223 2.236-1.503 1.492-2.256 3.535-2.256 6.128Zm21.003 0c0 1.8-.33 3.418-.987 4.858-.66 1.44-1.549 2.67-2.67 3.687-1.121 1.02-2.447 1.8-3.974 2.337-1.527.54-3.158.81-4.893.81-1.734 0-3.368-.27-4.892-.81-1.527-.54-2.85-1.32-3.974-2.337a11.247 11.247 0 0 1-2.67-3.687c-.657-1.44-.987-3.058-.987-4.858 0-1.8.33-3.417.987-4.857a11.22 11.22 0 0 1 2.67-3.687c1.121-1.02 2.447-1.8 3.974-2.34 1.524-.54 3.158-.81 4.892-.81 1.735 0 3.369.27 4.893.81 1.527.54 2.85 1.32 3.974 2.34a11.247 11.247 0 0 1 2.67 3.687c.657 1.44.987 3.06.987 4.857ZM217.89 15.772l.27 3.554c1.08-1.44 2.247-2.466 3.507-3.082 1.26-.614 2.698-.922 4.318-.922 1.557 0 2.863.229 3.913.687 1.05.458 2.054 1.296 3.014 2.51l-2.834 2.557c-.63-.78-1.333-1.355-2.113-1.731a5.56 5.56 0 0 0-2.428-.562c-1.68 0-3.043.33-4.093.992-1.05.66-2.054 1.667-3.014 3.02v15.46h-4.184V15.772h3.644ZM239.566 5.43v19.7l3.6-2.387 7.825-6.971h4.901l.09.45-9.758 8.5 10.208 13.179-.134.36h-4.723l-8.545-11.468-3.464 1.933v9.535h-4.137V5.43h4.137Z" fill="#000"/></g><defs><clipPath id="a"><path fill="#fff" d="M0 0h256.636v48H0z"/></clipPath></defs></svg>