<svg width="570" height="570" viewBox="0 0 570 570" fill="none" xmlns="http://www.w3.org/2000/svg">
<g clip-path="url(#clip0)">
<rect width="570" height="570" fill="#8934AD"/>
<path d="M109.158 377.501C109.158 381.59 107.554 385.018 104.347 387.784C101.14 390.549 97.3924 391.932 93.1032 391.932C91.179 391.932 89.315 391.612 87.5111 390.97C88.5133 390.97 89.4152 390.85 90.2169 390.61C90.3773 390.57 91.2592 390.229 92.8626 389.587C95.1876 388.706 96.9915 387.523 98.2743 386.04C99.8777 384.196 100.679 381.971 100.679 379.365C100.679 378.484 100.599 377.662 100.439 376.9C100.078 374.655 98.9758 372.972 97.1318 371.849C95.328 370.727 93.043 370.166 90.2771 370.166C89.315 370.166 88.2928 370.226 87.2105 370.346L84.9255 370.647V406.123C84.9255 407.286 84.9857 408.308 85.1059 409.19C85.2262 410.031 85.5469 410.813 86.068 411.535C86.3887 412.016 86.7695 412.477 87.2105 412.918C87.6915 413.319 88.2327 413.679 88.834 414H73.982C74.7837 413.599 75.2647 413.339 75.4251 413.218C75.8259 412.938 76.1867 412.417 76.5074 411.655C76.8682 410.893 77.1087 410.031 77.229 409.069C77.3492 408.067 77.4094 407.065 77.4094 406.063V372.33C77.4094 371.969 77.4094 371.709 77.4094 371.549C77.4094 370.466 77.3492 369.624 77.229 369.023C77.1488 368.382 76.8682 367.7 76.3872 366.979C76.0665 366.498 75.7257 366.097 75.365 365.776C75.0042 365.455 74.5031 365.135 73.8617 364.814H92.3215C96.8512 364.814 100.7 365.876 103.866 368.001C107.394 370.366 109.158 373.533 109.158 377.501ZM187.419 390.73C187.419 397.224 185.114 402.856 180.504 407.626C175.533 412.757 169.18 415.323 161.443 415.323C152.945 415.323 146.05 412.878 140.758 407.987C135.467 403.056 132.821 396.903 132.821 389.527C132.821 382.632 135.086 376.7 139.616 371.729C144.547 366.317 150.94 363.611 158.797 363.611C168.298 363.611 175.614 366.458 180.745 372.15C185.194 377.121 187.419 383.314 187.419 390.73ZM179.061 389.708C179.061 384.015 177.578 379.305 174.611 375.577C171.164 371.248 166.253 369.083 159.88 369.083C154.147 369.083 149.557 371.248 146.11 375.577C142.983 379.506 141.42 384.316 141.42 390.008C141.42 395.821 143.224 400.651 146.832 404.5C150.479 408.308 155.109 410.212 160.721 410.212C166.173 410.212 170.663 408.047 174.191 403.718C177.437 399.709 179.061 395.039 179.061 389.708ZM246.2 403.958L242.412 414H211.025C211.465 413.8 211.926 413.599 212.408 413.399C213.089 412.998 213.61 412.437 213.971 411.715C214.372 410.994 214.632 410.212 214.753 409.37C214.913 408.528 214.993 407.606 214.993 406.604C214.993 406.003 214.993 405.542 214.993 405.221V372.751C214.993 372.35 214.993 372.07 214.993 371.909C214.993 370.667 214.933 369.705 214.813 369.023C214.733 368.342 214.452 367.62 213.971 366.858C213.65 366.297 213.309 365.896 212.949 365.656C212.628 365.415 212.087 365.135 211.325 364.814H226.418C225.696 365.135 225.155 365.435 224.794 365.716C224.433 365.957 224.073 366.357 223.712 366.919C223.231 367.72 222.93 368.542 222.81 369.384C222.69 370.226 222.63 371.448 222.63 373.052V407.626C222.99 407.747 224.273 407.947 226.478 408.228C228.723 408.508 230.907 408.648 233.032 408.648C235.477 408.648 237.401 408.388 238.804 407.867C240.528 407.185 241.63 406.744 242.111 406.544C243.234 406.063 244.597 405.201 246.2 403.958ZM323.57 414H307.335C308.176 413.92 309.078 413.359 310.041 412.316C310.361 411.956 310.522 411.515 310.522 410.994C310.522 410.512 310.381 409.891 310.101 409.13L304.689 395.6H286.109L281.599 407.867C281.279 408.749 281.118 409.651 281.118 410.573C281.118 411.535 281.339 412.236 281.78 412.677C282.541 413.399 283.323 413.84 284.125 414H269.754C270.355 413.719 270.876 413.439 271.317 413.158C271.758 412.837 272.199 412.477 272.64 412.076C273.281 411.434 273.822 410.713 274.263 409.911C274.544 409.39 274.925 408.548 275.406 407.386L290.378 370.045C290.539 369.644 290.659 369.304 290.739 369.023C290.819 368.702 290.859 368.362 290.859 368.001C290.859 367.72 290.799 367.36 290.679 366.919C290.318 365.756 289.476 365.055 288.153 364.814H300.3L316.655 405.161C316.935 405.963 317.256 406.784 317.617 407.626C317.978 408.428 318.459 409.25 319.06 410.092C319.701 410.933 320.363 411.655 321.044 412.256C321.726 412.858 322.567 413.439 323.57 414ZM302.945 390.309L295.609 371.669L288.153 390.309H302.945ZM394.143 414C394.023 414.04 393.361 414.08 392.159 414.12C390.996 414.16 389.593 414.18 387.95 414.18C387.549 414.18 387.248 414.18 387.048 414.18C384.562 414.18 382.758 414.06 381.636 413.82C380.554 413.539 379.191 412.597 377.547 410.994C376.224 409.711 374.641 407.887 372.797 405.522C371.955 404.439 370.332 402.315 367.926 399.148C366.804 397.745 365.341 395.62 363.537 392.774C362.174 390.61 361.292 389.187 360.891 388.505C361.613 388.505 362.535 388.385 363.657 388.144C364.78 387.864 365.902 387.483 367.024 387.002C369.029 386.12 370.592 385.018 371.715 383.695C373.118 382.051 373.819 380.127 373.819 377.922C373.819 377.682 373.799 377.401 373.759 377.08C373.719 376.72 373.699 376.439 373.699 376.239C373.378 374.234 372.336 372.631 370.572 371.428C368.808 370.186 366.624 369.564 364.018 369.564C362.936 369.564 361.713 369.725 360.35 370.045L359.208 370.346V406.003C359.208 406.444 359.208 406.845 359.208 407.205C359.208 408.288 359.228 409.13 359.268 409.731C359.348 410.292 359.548 410.893 359.869 411.535C360.19 412.176 360.51 412.657 360.831 412.978C361.152 413.258 361.653 413.599 362.334 414H348.024C348.705 413.679 349.246 413.359 349.647 413.038C350.088 412.717 350.449 412.236 350.729 411.595C351.05 410.913 351.251 410.232 351.331 409.55C351.451 408.829 351.511 408.027 351.511 407.145C351.511 406.624 351.511 406.263 351.511 406.063V372.27C351.511 370.787 351.411 369.705 351.21 369.023C351.05 368.302 350.769 367.62 350.369 366.979C349.807 366.057 348.966 365.335 347.843 364.814H366.604C370.773 364.814 374.22 365.796 376.946 367.76C380.033 369.965 381.576 373.092 381.576 377.141C381.576 379.746 380.494 382.332 378.329 384.897C376.164 387.423 373.498 389.106 370.332 389.948L369.61 390.129L381.636 405.341C382.438 406.303 383.52 407.386 384.883 408.588C386.005 409.55 387.048 410.332 388.01 410.933C388.972 411.495 389.994 412.076 391.076 412.677C391.958 413.158 392.98 413.599 394.143 414ZM434.915 414H419.882C420.403 413.719 420.804 413.499 421.085 413.339C421.726 412.938 422.187 412.437 422.468 411.835C422.788 411.194 423.029 410.492 423.189 409.731C423.39 408.929 423.49 408.047 423.49 407.085C423.49 406.564 423.49 406.203 423.49 406.003V372.33C423.49 371.969 423.49 371.709 423.49 371.549C423.49 370.426 423.43 369.564 423.31 368.963C423.189 368.362 422.869 367.64 422.347 366.798C421.826 365.957 421.005 365.295 419.882 364.814H434.854C434.213 365.095 433.692 365.395 433.291 365.716C432.89 366.037 432.529 366.458 432.209 366.979C431.928 367.5 431.688 368.342 431.487 369.504C431.287 370.627 431.186 371.649 431.186 372.571V406.183C431.186 406.624 431.186 406.985 431.186 407.265C431.186 408.228 431.247 409.029 431.367 409.671C431.487 410.272 431.768 411.014 432.209 411.895C432.489 412.417 432.83 412.837 433.231 413.158C433.672 413.439 434.233 413.719 434.915 414ZM496.148 399.749C496.148 404.6 493.963 408.468 489.593 411.354C485.625 413.96 480.835 415.263 475.222 415.263C473.619 415.263 472.176 415.203 470.893 415.082C469.65 414.962 468.348 414.722 466.985 414.361L462.475 413.218L460.491 403.778L461.513 404.5C466.524 408.027 471.334 409.791 475.944 409.791C479.391 409.791 482.157 409.13 484.242 407.807C486.366 406.444 487.429 404.74 487.429 402.696C487.429 400.13 486.467 398.046 484.543 396.442C482.659 394.799 478.83 392.734 473.058 390.249C468.889 388.445 465.882 386.28 464.038 383.755C462.555 381.71 461.814 379.405 461.814 376.84C461.814 372.27 463.617 368.863 467.225 366.618C470.392 364.654 474.762 363.672 480.334 363.672C482.418 363.672 484.282 363.792 485.926 364.032C487.569 364.233 489.293 364.614 491.097 365.175L491.878 365.415V373.833L490.976 372.992C489.613 371.749 487.87 370.727 485.745 369.925C483.661 369.123 481.536 368.722 479.371 368.722C476.926 368.722 474.822 369.304 473.058 370.466C471.294 371.589 470.412 373.112 470.412 375.036C470.412 377.602 471.535 379.766 473.779 381.53C475.383 382.813 478.349 384.396 482.679 386.28C487.048 388.124 490.315 390.068 492.48 392.113C494.925 394.438 496.148 396.983 496.148 399.749Z" fill="white"/>
<path d="M194.485 475.607C194.485 479.656 192.721 483.183 189.193 486.19C185.425 489.397 180.695 491 175.003 491H155.942C156.543 490.759 157.004 490.519 157.325 490.278C157.686 490.038 158.026 489.697 158.347 489.256C158.828 488.575 159.149 487.893 159.309 487.212C159.469 486.53 159.55 485.709 159.55 484.747C159.55 484.145 159.55 483.704 159.55 483.424V449.691C159.55 449.29 159.55 449.01 159.55 448.849C159.55 448.529 159.55 448.288 159.55 448.128C159.55 447.126 159.469 446.304 159.309 445.662C159.189 444.981 158.928 444.38 158.527 443.858C158.167 443.297 157.766 442.876 157.325 442.596C156.884 442.315 156.343 442.055 155.701 441.814H174.883C179.172 441.814 182.72 442.796 185.526 444.76C188.332 446.725 189.735 449.13 189.735 451.976C189.735 455.023 189.133 457.267 187.931 458.71C187.329 459.432 185.866 460.454 183.541 461.777L182.7 462.258L183.601 462.619C187.289 464.102 189.915 465.645 191.478 467.249C193.483 469.333 194.485 472.119 194.485 475.607ZM181.497 453.118C181.096 450.593 179.994 448.749 178.19 447.586C176.787 446.665 175.023 446.204 172.898 446.204C171.375 446.204 170.173 446.404 169.291 446.805L167.306 447.647V461.537L170.253 461.597C173.019 461.597 175.484 461.035 177.649 459.913C180.294 458.55 181.617 456.666 181.617 454.261C181.617 454.06 181.577 453.68 181.497 453.118ZM186.067 475.907C186.067 472.701 184.744 470.215 182.098 468.451C179.773 466.888 176.927 466.106 173.56 466.106C172.678 466.106 171.776 466.167 170.854 466.287L167.366 466.828V484.626L168.569 485.167C170.493 486.049 172.638 486.49 175.003 486.49C178.09 486.49 180.635 485.669 182.639 484.025C184.924 482.141 186.067 479.435 186.067 475.907ZM271.931 491H255.696C256.538 490.92 257.44 490.359 258.402 489.316C258.723 488.956 258.883 488.515 258.883 487.994C258.883 487.512 258.743 486.891 258.462 486.13L253.051 472.6H234.471L229.961 484.867C229.64 485.749 229.48 486.651 229.48 487.573C229.48 488.535 229.701 489.236 230.141 489.677C230.903 490.399 231.685 490.84 232.487 491H218.116C218.717 490.719 219.238 490.439 219.679 490.158C220.12 489.837 220.561 489.477 221.002 489.076C221.643 488.434 222.184 487.713 222.625 486.911C222.906 486.39 223.287 485.548 223.768 484.386L238.74 447.045C238.9 446.644 239.021 446.304 239.101 446.023C239.181 445.702 239.221 445.362 239.221 445.001C239.221 444.72 239.161 444.36 239.041 443.919C238.68 442.756 237.838 442.055 236.515 441.814H248.661L265.017 482.161C265.297 482.963 265.618 483.784 265.979 484.626C266.339 485.428 266.82 486.25 267.422 487.092C268.063 487.933 268.725 488.655 269.406 489.256C270.087 489.858 270.929 490.439 271.931 491ZM251.307 467.309L243.971 448.669L236.515 467.309H251.307ZM346.533 441.814C344.93 442.455 343.767 443.458 343.046 444.821C342.765 445.302 342.525 445.863 342.324 446.504C342.164 447.105 342.084 447.847 342.084 448.729C342.084 449.21 342.084 449.571 342.084 449.811L342.144 493.465C340.981 493.105 339.979 492.704 339.137 492.263C338.296 491.862 337.354 491.261 336.311 490.459C335.63 489.978 334.989 489.437 334.387 488.835C334.107 488.555 333.245 487.492 331.802 485.648L305.465 452.397L305.525 483.123C305.525 483.444 305.525 483.704 305.525 483.905C305.525 484.867 305.625 485.749 305.826 486.55C306.066 487.352 306.587 488.294 307.389 489.377C307.59 489.617 307.99 489.938 308.592 490.339C309.193 490.699 309.634 490.92 309.915 491H295.544C296.065 490.8 296.606 490.519 297.167 490.158C297.889 489.677 298.45 489.116 298.851 488.475C299.292 487.793 299.592 487.031 299.753 486.19C299.953 485.308 300.053 484.546 300.053 483.905C300.053 483.584 300.053 483.364 300.053 483.243V449.39C300.053 448.428 299.993 447.566 299.873 446.805C299.793 446.043 299.572 445.382 299.211 444.821C298.65 444.019 298.129 443.418 297.648 443.017C297.207 442.576 296.546 442.175 295.664 441.814H307.63C307.71 442.415 307.79 442.796 307.87 442.957C308.111 443.397 308.271 443.678 308.351 443.798C308.632 444.239 308.972 444.74 309.373 445.302L336.492 479.515V449.691C336.492 448.408 336.412 447.386 336.251 446.624C336.131 445.863 335.79 445.041 335.229 444.159C334.908 443.638 334.528 443.197 334.087 442.836C333.646 442.475 333.084 442.135 332.403 441.814H346.533ZM385.021 491H370.169C370.81 490.639 371.311 490.298 371.672 489.978C372.073 489.657 372.393 489.216 372.634 488.655C372.914 488.094 373.135 487.392 373.295 486.55C373.496 485.709 373.596 484.787 373.596 483.784C373.596 483.424 373.596 483.163 373.596 483.003V449.27C373.596 448.909 373.596 448.649 373.596 448.488C373.596 447.366 373.536 446.504 373.416 445.903C373.295 445.302 372.995 444.62 372.514 443.858C372.193 443.337 371.852 442.936 371.491 442.656C371.171 442.375 370.69 442.095 370.048 441.814H385.021C384.379 442.055 383.858 442.335 383.457 442.656C383.056 442.936 382.676 443.357 382.315 443.919C381.834 444.64 381.533 445.322 381.413 445.963C381.333 446.604 381.293 447.526 381.293 448.729C381.293 449.05 381.293 449.31 381.293 449.511V483.183C381.293 484.466 381.333 485.508 381.413 486.31C381.533 487.072 381.834 487.933 382.315 488.895C382.595 489.377 382.956 489.797 383.397 490.158C383.878 490.479 384.419 490.759 385.021 491ZM414.544 491C414.103 491 413.622 491 413.101 491C412.58 491 411.918 491.02 411.117 491.06C409.153 491.06 407.329 491 405.645 490.88C403.961 490.719 402.779 490.459 402.097 490.098C401.095 489.617 400.534 489.336 400.414 489.256C399.652 488.815 398.81 487.953 397.888 486.671L382.194 465.565L395.062 448.609C395.303 448.248 395.543 447.747 395.784 447.105C396.024 446.464 396.145 445.863 396.145 445.302C396.145 444.7 396.044 444.219 395.844 443.858C395.403 442.856 394.601 442.175 393.439 441.814H407.629L390.132 464.002L405.525 484.265C406.006 484.907 406.487 485.488 406.968 486.009C407.489 486.49 408.13 487.011 408.892 487.573C410.295 488.615 411.297 489.316 411.898 489.677C412.5 490.038 413.382 490.479 414.544 491Z" fill="white"/>
<path d="M299.5 80L205 177.5H251.5L347 80H299.5Z" fill="#F2A809"/>
<path d="M305 136L210.5 233.5H257L352.5 136H305Z" fill="#F2A809"/>
<path d="M317 185L222.5 282.5H269L364.5 185H317Z" fill="#F2A809"/>
</g>
<defs>
<clipPath id="clip0">
<rect width="570" height="570" fill="white"/>
</clipPath>
</defs>
</svg>
