<svg width="1568" height="588" viewBox="0 0 1568 588" fill="none" xmlns="http://www.w3.org/2000/svg">
<path d="M656.124 414.292L621.285 414.117L770.316 48.7822H778.387L924.786 414.292H892.464L852.574 314.328H696.052L656.124 414.292ZM708.13 283.541H840.419L774.303 118.966L708.13 283.541Z" fill="#272425" stroke="#272425" stroke-width="2" stroke-miterlimit="10"/>
<path d="M1001.28 368.605C1015.03 378.468 1031.57 383.687 1048.5 383.505C1058.4 383.598 1068.24 381.887 1077.53 378.455C1086.12 375.29 1094.01 370.486 1100.76 364.31C1107.32 358.253 1112.49 350.845 1115.91 342.598C1119.55 333.623 1121.35 324.01 1121.22 314.327C1121.28 305.375 1120.09 296.458 1117.67 287.837C1115.17 279.306 1111.06 271.333 1105.56 264.345C1099.12 256.296 1091.45 249.314 1082.84 243.66C1071.58 236.318 1059.55 230.225 1046.97 225.49C1020.38 215.041 1000.19 202.14 986.392 186.789C972.599 171.438 965.695 151.662 965.682 127.461C965.599 116.838 967.659 106.308 971.74 96.5003C975.681 87.1028 981.527 78.6233 988.908 71.5963C996.644 64.3312 1005.74 58.6689 1015.68 54.9356C1026.81 50.7792 1038.63 48.7255 1050.51 48.879C1065.57 48.6954 1080.43 52.3445 1093.69 59.483C1106.5 66.4532 1117.2 76.7393 1124.66 89.2632L1100.51 106.853C1088.39 88.6634 1071.73 79.5751 1050.51 79.588C1035.71 79.588 1023.6 83.9612 1014.17 92.7076C1004.73 101.454 1000.02 112.896 1000.02 127.035C999.742 141.38 1004.79 155.318 1014.19 166.162C1023.62 177.088 1040.28 187.408 1064.16 197.122C1096.48 209.919 1119.8 225.651 1134.11 244.318C1148.42 262.984 1155.54 285.986 1155.47 313.321C1155.58 326.855 1153.18 340.292 1148.39 352.951C1143.87 364.997 1136.85 375.946 1127.78 385.072C1118.19 394.47 1106.75 401.777 1094.2 406.532C1079.58 411.945 1064.08 414.571 1048.5 414.272C1026.01 414.467 1003.91 408.44 984.631 396.857C965.416 385.403 950.311 368.175 941.47 347.629L968.74 327.95C975.718 344.188 986.961 358.236 1001.28 368.605Z" fill="#272425" stroke="#272425" stroke-width="2" stroke-miterlimit="10"/>
<path d="M1551.41 303.801C1537.04 336.844 1513.33 364.971 1483.19 384.727C1453.05 404.482 1417.79 415.007 1381.75 415.007C1345.71 415.007 1310.45 404.482 1280.31 384.727C1250.17 364.971 1226.46 336.844 1212.09 303.801C1202.21 281.03 1197.22 256.442 1197.44 231.624C1197.22 206.799 1202.21 182.204 1212.09 159.428C1226.47 126.391 1250.18 98.272 1280.32 78.522C1310.46 58.7721 1345.71 48.2512 1381.75 48.2512C1417.79 48.2512 1453.04 58.7721 1483.18 78.522C1513.32 98.272 1537.03 126.391 1551.41 159.428C1561.3 182.202 1566.29 206.798 1566.06 231.624C1566.29 256.443 1561.3 281.033 1551.41 303.801ZM1243.67 291.688C1258.77 327.919 1287.52 356.758 1323.71 371.972C1342.1 379.637 1361.84 383.583 1381.77 383.583C1401.7 383.583 1421.44 379.637 1439.83 371.972C1457.66 364.457 1473.87 353.569 1487.56 339.909C1501.73 325.668 1512.93 308.757 1520.52 290.156C1528.1 271.554 1531.92 251.633 1531.75 231.547C1531.92 211.46 1528.1 191.539 1520.52 172.938C1512.93 154.337 1501.73 137.425 1487.56 123.184C1473.87 109.524 1457.66 98.642 1439.83 91.1402C1421.44 83.476 1401.7 79.53 1381.77 79.53C1361.84 79.53 1342.1 83.476 1323.71 91.1402C1305.88 98.6467 1289.67 109.528 1275.98 123.184C1261.81 137.43 1250.62 154.343 1243.04 172.943C1235.46 191.543 1231.64 211.462 1231.81 231.547C1231.62 252.166 1235.65 272.607 1243.65 291.61L1243.67 291.688Z" fill="#272425" stroke="#272425" stroke-width="2" stroke-miterlimit="10"/>
<path d="M641.356 531.594C643.891 533.417 646.943 534.38 650.066 534.342C651.894 534.359 653.71 534.044 655.427 533.413C657.009 532.829 658.462 531.942 659.704 530.801C660.909 529.688 661.859 528.328 662.491 526.815C663.168 525.157 663.504 523.381 663.478 521.59C663.485 519.942 663.263 518.301 662.82 516.714C662.366 515.139 661.61 513.667 660.594 512.38C659.41 510.874 657.992 509.568 656.395 508.51C654.314 507.155 652.095 506.026 649.775 505.142C645.594 503.665 641.807 501.248 638.704 498.08C636.067 495.062 634.682 491.151 634.833 487.147C634.804 485.155 635.186 483.179 635.956 481.342C636.682 479.607 637.755 478.04 639.111 476.736C640.539 475.403 642.216 474.364 644.046 473.679C646.098 472.903 648.278 472.523 650.472 472.556C653.246 472.507 655.986 473.174 658.427 474.492C660.831 475.754 662.841 477.656 664.233 479.987L659.762 483.238C658.802 481.665 657.446 480.373 655.829 479.49C654.212 478.607 652.391 478.164 650.549 478.207C648.088 478.113 645.686 478.98 643.853 480.626C642.99 481.432 642.311 482.415 641.86 483.506C641.409 484.598 641.198 485.773 641.24 486.953C641.182 489.6 642.114 492.174 643.853 494.171C646.448 496.774 649.597 498.759 653.066 499.976C658.066 501.67 662.518 504.677 665.956 508.684C667.977 511.558 669.274 514.879 669.736 518.363C670.198 521.846 669.811 525.39 668.607 528.692C667.761 530.922 666.44 532.943 664.736 534.613C662.96 536.315 660.851 537.632 658.543 538.483C655.251 539.685 651.735 540.15 648.244 539.846C644.753 539.542 641.371 538.475 638.337 536.722C634.799 534.606 632.016 531.431 630.382 527.647L635.414 524.009C636.667 527.031 638.722 529.654 641.356 531.594Z" fill="#272425" stroke="#272425" stroke-width="2" stroke-miterlimit="10"/>
<path d="M679.582 540.03H672.924L700.64 472.633H702.13L729.826 540.03H723.169L715.814 521.589H686.937L679.582 540.03ZM689.162 515.92H713.569L701.375 485.559L689.162 515.92Z" fill="#272425" stroke="#272425" stroke-width="2" stroke-miterlimit="10"/>
<path d="M722.781 474.297L728.742 472.633L750.536 527.085L772.252 472.633L778.213 474.297L751.213 540.088H749.723L722.781 474.297Z" fill="#272425" stroke="#272425" stroke-width="2" stroke-miterlimit="10"/>
<path d="M792.342 538.908H785.993V473.755H792.342V538.908Z" fill="#272425" stroke="#272425" stroke-width="2" stroke-miterlimit="10"/>
<path d="M812.896 538.908H806.548V473.272L808.483 472.633L852.418 526.059V473.813H858.747V539.431L856.812 540.088L812.896 486.681V538.908Z" fill="#272425" stroke="#272425" stroke-width="2" stroke-miterlimit="10"/>
<path d="M930.96 519.693C929.629 523.579 927.574 527.177 924.902 530.297C922.279 533.322 919.039 535.75 915.399 537.418C911.392 539.22 907.036 540.112 902.644 540.03C898.259 540.051 893.913 539.206 889.855 537.546C885.797 535.886 882.106 533.443 878.993 530.355C875.923 527.275 873.461 523.645 871.735 519.655C869.959 515.441 869.044 510.914 869.044 506.341C869.044 501.769 869.959 497.242 871.735 493.028C874.376 486.94 878.749 481.763 884.31 478.14C889.871 474.517 896.374 472.609 903.012 472.652C908.353 472.588 913.628 473.831 918.379 476.271C922.899 478.55 926.864 481.793 929.992 485.772L925.154 489.41C922.602 486.059 919.345 483.311 915.612 481.36C911.749 479.321 907.438 478.277 903.07 478.322C899.393 478.301 895.751 479.032 892.367 480.47C885.567 483.483 880.216 489.038 877.46 495.945C874.704 502.852 874.76 510.564 877.618 517.429C879.007 520.736 881.01 523.75 883.522 526.311C885.975 528.772 888.871 530.748 892.057 532.136C895.377 533.557 898.955 534.282 902.567 534.264C905.785 534.32 908.983 533.734 911.973 532.542C914.666 531.466 917.12 529.868 919.192 527.84C921.228 525.822 922.887 523.456 924.089 520.854C925.339 518.154 926.124 515.263 926.412 512.301H907.967V506.612H933.128C933.08 511.058 932.349 515.47 930.96 519.693Z" fill="#272425" stroke="#272425" stroke-width="2" stroke-miterlimit="10"/>
<path d="M950.005 531.594C952.54 533.416 955.592 534.379 958.714 534.342C960.543 534.358 962.359 534.043 964.076 533.413C965.658 532.828 967.111 531.941 968.353 530.8C969.57 529.698 970.522 528.335 971.14 526.814C971.817 525.157 972.153 523.38 972.127 521.59C972.143 519.941 971.922 518.299 971.469 516.713C971.015 515.138 970.259 513.666 969.243 512.379C968.059 510.873 966.641 509.567 965.043 508.509C962.97 507.154 960.757 506.025 958.444 505.142C954.215 503.663 950.386 501.226 947.257 498.021C944.619 495.003 943.234 491.092 943.386 487.088C943.356 485.096 943.738 483.12 944.508 481.283C945.234 479.548 946.308 477.981 947.663 476.677C949.091 475.344 950.768 474.305 952.598 473.62C954.651 472.845 956.831 472.464 959.024 472.498C961.804 472.451 964.549 473.118 966.998 474.433C969.395 475.706 971.401 477.606 972.805 479.928L968.334 483.179C967.368 481.608 966.008 480.317 964.388 479.434C962.768 478.552 960.946 478.108 959.102 478.148C956.64 478.054 954.238 478.922 952.405 480.567C951.542 481.374 950.863 482.356 950.412 483.447C949.961 484.539 949.75 485.714 949.792 486.894C949.735 489.541 950.666 492.115 952.405 494.112C955.003 496.711 958.151 498.695 961.618 499.917C966.621 501.616 971.078 504.623 974.527 508.625C977.206 512.309 978.57 516.786 978.398 521.338C978.411 523.828 977.971 526.3 977.101 528.633C976.246 530.859 974.927 532.878 973.23 534.554C971.454 536.256 969.346 537.574 967.037 538.424C963.748 539.626 960.236 540.091 956.748 539.786C953.26 539.482 949.881 538.416 946.85 536.664C943.303 534.553 940.512 531.377 938.876 527.588L943.908 523.95C945.195 527.012 947.305 529.658 950.005 531.594Z" fill="#272425" stroke="#272425" stroke-width="2" stroke-miterlimit="10"/>
<path d="M1055.18 542.082L1048.29 533.238C1045.54 535.212 1042.57 536.861 1039.44 538.153C1036.13 539.479 1032.58 540.137 1029.01 540.088C1024.34 540.088 1019.84 538.342 1016.39 535.193C1014.75 533.688 1013.43 531.864 1012.52 529.833C1011.57 527.764 1011.09 525.511 1011.11 523.234C1011.1 521.203 1011.44 519.185 1012.13 517.274C1012.84 515.381 1013.83 513.606 1015.08 512.011C1016.42 510.3 1017.92 508.714 1019.55 507.27C1021.33 505.68 1023.21 504.2 1025.18 502.839C1022.91 500.123 1020.92 497.194 1019.22 494.093C1018.01 491.896 1017.34 489.44 1017.28 486.933C1017.26 484.985 1017.62 483.052 1018.35 481.244C1019.04 479.553 1020.07 478.019 1021.37 476.735C1022.71 475.443 1024.29 474.43 1026.03 473.755C1027.88 473.037 1029.85 472.676 1031.84 472.691C1033.68 472.685 1035.5 473.047 1037.2 473.755C1040.64 475.174 1043.39 477.902 1044.82 481.341C1045.61 483.227 1046.01 485.256 1045.99 487.301C1046.01 489.076 1045.66 490.836 1044.96 492.467C1044.27 494.075 1043.33 495.564 1042.17 496.879C1040.94 498.304 1039.56 499.6 1038.07 500.749C1036.52 501.968 1034.91 503.129 1033.23 504.252L1049.26 524.995C1050.75 523.699 1052.2 522.344 1053.63 520.951C1055.06 519.558 1056.42 518.107 1057.71 516.617L1061.35 521.183C1059.98 522.731 1058.62 524.202 1057.25 525.614C1055.86 527.036 1054.4 528.386 1052.88 529.659L1059.86 538.676L1055.18 542.082ZM1018.06 527.588C1018.6 528.958 1019.42 530.198 1020.48 531.226C1021.6 532.288 1022.91 533.128 1024.35 533.703C1026.05 534.347 1027.85 534.662 1029.67 534.632C1032.34 534.628 1034.98 534.054 1037.41 532.948C1040.04 531.767 1042.52 530.301 1044.82 528.575L1028.53 507.29C1025.39 509.373 1022.56 511.88 1020.11 514.74C1018.17 517.098 1017.13 520.066 1017.17 523.118C1017.16 524.652 1017.47 526.172 1018.06 527.588ZM1037.8 480.547C1037.07 479.737 1036.17 479.093 1035.17 478.659C1034.17 478.225 1033.08 478.011 1031.99 478.032C1030.81 477.946 1029.63 478.131 1028.53 478.574C1027.43 479.017 1026.45 479.705 1025.66 480.586C1024.22 482.321 1023.46 484.522 1023.51 486.778C1023.51 487.795 1023.69 488.804 1024.04 489.758C1024.4 490.758 1024.89 491.712 1025.47 492.603C1026.09 493.551 1026.8 494.538 1027.58 495.757C1028.35 496.976 1029.17 498.195 1030.04 499.627C1031.41 498.756 1032.69 497.866 1033.91 496.976C1035.07 496.117 1036.14 495.151 1037.12 494.093C1038.03 493.091 1038.78 491.955 1039.35 490.726C1039.92 489.456 1040.2 488.074 1040.18 486.681C1040.21 484.398 1039.34 482.195 1037.76 480.547H1037.8Z" fill="#272425" stroke="#272425" stroke-width="2" stroke-miterlimit="10"/>
<path d="M1101.53 533.238H1127.33V538.908H1095.2V473.755H1101.53V533.238Z" fill="#272425" stroke="#272425" stroke-width="2" stroke-miterlimit="10"/>
<path d="M1194.55 519.635C1191.9 525.728 1187.53 530.915 1181.98 534.558C1176.42 538.201 1169.92 540.141 1163.27 540.141C1156.63 540.141 1150.13 538.201 1144.57 534.558C1139.02 530.915 1134.65 525.728 1132 519.635C1130.21 515.424 1129.29 510.897 1129.29 506.322C1129.29 501.748 1130.21 497.22 1132 493.009C1134.65 486.916 1139.02 481.73 1144.57 478.087C1150.13 474.444 1156.63 472.503 1163.27 472.503C1169.92 472.503 1176.42 474.444 1181.98 478.087C1187.53 481.73 1191.9 486.916 1194.55 493.009C1196.34 497.22 1197.26 501.748 1197.26 506.322C1197.26 510.897 1196.34 515.424 1194.55 519.635ZM1137.8 517.41C1139.23 520.745 1141.29 523.774 1143.86 526.331C1146.37 528.8 1149.33 530.77 1152.57 532.136C1155.96 533.541 1159.6 534.264 1163.27 534.264C1166.95 534.264 1170.58 533.541 1173.98 532.136C1177.27 530.746 1180.26 528.736 1182.78 526.214C1188.04 520.897 1190.99 513.722 1190.99 506.245C1190.99 498.768 1188.04 491.593 1182.78 486.275C1180.25 483.76 1177.26 481.756 1173.98 480.373C1170.59 478.956 1166.95 478.225 1163.27 478.225C1159.6 478.225 1155.96 478.956 1152.57 480.373C1149.28 481.756 1146.29 483.76 1143.76 486.275C1139.86 490.295 1137.22 495.366 1136.16 500.866C1135.1 506.366 1135.67 512.056 1137.8 517.236V517.41Z" fill="#272425" stroke="#272425" stroke-width="2" stroke-miterlimit="10"/>
<path d="M1206.01 540.03H1199.37L1227.09 472.633H1228.58L1256.27 540.03H1249.62L1242.26 521.589H1213.36L1206.01 540.03ZM1215.59 515.92H1240L1227.8 485.559L1215.59 515.92Z" fill="#272425" stroke="#272425" stroke-width="2" stroke-miterlimit="10"/>
<path d="M1268.58 538.908H1262.25V473.272L1264.19 472.633L1308.12 526.059V473.813H1314.47V539.431L1312.54 540.088L1268.6 486.739L1268.58 538.908Z" fill="#272425" stroke="#272425" stroke-width="2" stroke-miterlimit="10"/>
<path d="M1334.64 531.594C1337.18 533.416 1340.23 534.379 1343.35 534.342C1345.17 534.358 1346.98 534.043 1348.69 533.413C1350.28 532.828 1351.74 531.941 1352.99 530.8C1354.19 529.687 1355.14 528.328 1355.78 526.814C1356.45 525.155 1356.78 523.378 1356.74 521.59C1356.76 519.942 1356.54 518.302 1356.1 516.713C1355.64 515.137 1354.88 513.665 1353.86 512.379C1352.69 510.868 1351.28 509.561 1349.68 508.509C1347.6 507.154 1345.38 506.025 1343.06 505.142C1338.84 503.665 1335.01 501.227 1331.89 498.021C1329.25 495.008 1327.86 491.094 1328.02 487.088C1328 485.098 1328.37 483.124 1329.12 481.283C1329.86 479.547 1330.94 477.98 1332.3 476.677C1333.72 475.34 1335.4 474.3 1337.23 473.62C1339.29 472.845 1341.47 472.464 1343.66 472.498C1346.43 472.448 1349.17 473.115 1351.61 474.433C1354.02 475.701 1356.02 477.601 1357.42 479.928L1352.89 483.334C1351.93 481.761 1350.58 480.469 1348.96 479.586C1347.34 478.703 1345.52 478.26 1343.68 478.303C1341.22 478.205 1338.81 479.073 1336.98 480.722C1336.12 481.528 1335.44 482.511 1334.99 483.602C1334.54 484.694 1334.33 485.869 1334.37 487.049C1334.31 489.696 1335.24 492.27 1336.98 494.267C1339.57 496.875 1342.72 498.86 1346.2 500.072C1351.2 501.766 1355.65 504.773 1359.09 508.78C1361.11 511.654 1362.4 514.975 1362.87 518.459C1363.33 521.942 1362.94 525.486 1361.74 528.788C1360.88 531.011 1359.56 533.028 1357.87 534.709C1356.09 536.407 1353.98 537.723 1351.67 538.579C1348.98 539.588 1346.13 540.08 1343.25 540.03C1339.1 540.065 1335.02 538.953 1331.47 536.818C1327.93 534.702 1325.15 531.527 1323.51 527.743L1328.54 524.105C1329.85 527.115 1331.96 529.706 1334.64 531.594Z" fill="#272425" stroke="#272425" stroke-width="2" stroke-miterlimit="10"/>
<path d="M1398.55 538.908V473.755H1412.23C1415.29 473.702 1418.34 474.187 1421.23 475.187C1423.7 476.039 1425.99 477.353 1427.97 479.057C1429.81 480.704 1431.26 482.74 1432.21 485.017C1434.14 489.795 1434.14 495.139 1432.21 499.917C1431.26 502.197 1429.81 504.234 1427.97 505.877C1426 507.595 1423.71 508.91 1421.23 509.747C1418.34 510.754 1415.3 511.246 1412.23 511.198H1404.88V538.908H1398.55ZM1423.19 502.142C1424.5 500.91 1425.54 499.424 1426.25 497.776C1426.96 496.127 1427.33 494.35 1427.33 492.554C1427.33 490.758 1426.96 488.982 1426.25 487.333C1425.54 485.684 1424.5 484.198 1423.19 482.966C1420.03 480.476 1416.08 479.217 1412.06 479.425H1404.88V505.683H1412.06C1416.08 505.891 1420.03 504.633 1423.19 502.142Z" fill="#272425" stroke="#272425" stroke-width="2" stroke-miterlimit="10"/>
<path d="M1448.74 533.238H1474.54V538.908H1442.41V473.755H1448.74V533.238Z" fill="#272425" stroke="#272425" stroke-width="2" stroke-miterlimit="10"/>
<path d="M1479.18 493.009C1481.82 486.918 1486.2 481.739 1491.77 478.116C1497.33 474.493 1503.84 472.586 1510.48 472.633C1514.87 472.599 1519.22 473.401 1523.31 474.994C1527.25 476.547 1530.86 478.84 1533.94 481.747L1529.66 486.043C1527.13 483.63 1524.18 481.702 1520.95 480.354C1517.63 478.974 1514.07 478.276 1510.48 478.303C1506.8 478.283 1503.15 479.014 1499.76 480.451C1494.68 482.614 1490.35 486.22 1487.31 490.822C1484.27 495.423 1482.65 500.817 1482.65 506.332C1482.65 511.847 1484.27 517.24 1487.31 521.842C1490.35 526.443 1494.68 530.05 1499.76 532.213C1503.15 533.637 1506.8 534.361 1510.48 534.342C1514.07 534.368 1517.63 533.671 1520.95 532.29C1524.17 530.949 1527.13 529.027 1529.66 526.621L1533.94 530.897C1530.86 533.805 1527.25 536.097 1523.31 537.65C1519.23 539.259 1514.87 540.067 1510.48 540.03C1501.54 540.078 1492.93 536.602 1486.54 530.355C1483.42 527.295 1480.92 523.661 1479.18 519.655C1477.41 515.441 1476.49 510.914 1476.49 506.342C1476.49 501.769 1477.41 497.242 1479.18 493.028V493.009Z" fill="#272425" stroke="#272425" stroke-width="2" stroke-miterlimit="10"/>
<path d="M0 0H564.015L1.62579 588V0" fill="#E22630"/>
<path d="M540.983 312.722L369.19 315.643L540.983 136.44V312.722Z" fill="#272425"/>
<path d="M540.983 391.632V561.335H130.741L294.346 390.8H540.983" fill="#272425"/>
</svg>
