<svg width="713" height="735" viewBox="0 0 713 735" fill="none" xmlns="http://www.w3.org/2000/svg">
<path d="M356.5 0H1.11133V157.89H356.5V0Z" fill="#00A75F"/>
<path d="M1.11133 259.391H356.5V383.448H98.6472V465.607H356.5V625.119H1.11133V259.391Z" fill="#026635"/>
<path d="M544.618 30.6049H702.937L528.907 323.395V412.732L702.937 625.119H540.608L401.618 435.317V241.926L544.618 30.6049Z" fill="#026635"/>
<path d="M35.9136 656.327H15.3472V664.58H34.2261V671.33H15.3472V681.323H36.8628V688.311H7.41064V649.445H35.9136V656.327Z" fill="#69BC97"/>
<path d="M42.5054 649.577H49.8882V670.513L59.2485 659.702H68.5562L58.5103 670.697L68.9517 688.311H59.8813L52.9995 676.024L49.8882 679.267V688.311H42.5054V649.577Z" fill="#69BC97"/>
<path d="M85.5366 683.011C87.7339 683.011 89.4214 682.229 90.5991 680.664C91.7769 679.1 92.3657 676.876 92.3657 673.993C92.3657 671.11 91.7769 668.896 90.5991 667.349C89.4214 665.784 87.7339 665.002 85.5366 665.002C83.3394 665.002 81.6431 665.784 80.4478 667.349C79.27 668.896 78.6812 671.11 78.6812 673.993C78.6812 676.876 79.27 679.1 80.4478 680.664C81.6431 682.229 83.3394 683.011 85.5366 683.011ZM100.25 673.993C100.25 678.212 99.0366 681.824 96.6108 684.83C94.1851 687.818 90.5024 689.313 85.563 689.313C80.6235 689.313 76.9409 687.818 74.5151 684.83C72.0894 681.824 70.8765 678.212 70.8765 673.993C70.8765 669.845 72.0894 666.25 74.5151 663.209C76.9409 660.168 80.6235 658.648 85.563 658.648C90.5024 658.648 94.1851 660.168 96.6108 663.209C99.0366 666.25 100.25 669.845 100.25 673.993Z" fill="#69BC97"/>
<path d="M121.581 658.885C124.551 658.885 126.977 659.667 128.858 661.232C130.756 662.778 131.706 665.354 131.706 668.957V688.311H124.006V670.829C124.006 669.318 123.804 668.157 123.4 667.349C122.662 665.872 121.255 665.134 119.181 665.134C116.632 665.134 114.883 666.215 113.934 668.377C113.442 669.52 113.196 670.979 113.196 672.754V688.311H105.708V659.623H112.958V663.816C113.925 662.339 114.839 661.276 115.701 660.625C117.248 659.465 119.208 658.885 121.581 658.885Z" fill="#69BC97"/>
<path d="M149.266 658.885C151.006 658.885 152.553 659.272 153.907 660.045C155.26 660.801 156.359 661.856 157.203 663.209V649.498H164.823V688.311H157.519V684.329C156.447 686.034 155.225 687.274 153.854 688.047C152.483 688.82 150.778 689.207 148.739 689.207C145.381 689.207 142.551 687.854 140.249 685.147C137.963 682.422 136.821 678.933 136.821 674.679C136.821 669.775 137.946 665.916 140.196 663.104C142.463 660.291 145.487 658.885 149.266 658.885ZM150.901 682.879C153.028 682.879 154.645 682.088 155.752 680.506C156.86 678.924 157.414 676.876 157.414 674.362C157.414 670.847 156.526 668.333 154.75 666.821C153.661 665.907 152.395 665.45 150.954 665.45C148.756 665.45 147.139 666.285 146.102 667.955C145.083 669.608 144.573 671.664 144.573 674.125C144.573 676.779 145.091 678.906 146.128 680.506C147.183 682.088 148.774 682.879 150.901 682.879Z" fill="#69BC97"/>
<path d="M184.572 683.011C186.769 683.011 188.457 682.229 189.634 680.664C190.812 679.1 191.401 676.876 191.401 673.993C191.401 671.11 190.812 668.896 189.634 667.349C188.457 665.784 186.769 665.002 184.572 665.002C182.375 665.002 180.678 665.784 179.483 667.349C178.305 668.896 177.716 671.11 177.716 673.993C177.716 676.876 178.305 679.1 179.483 680.664C180.678 682.229 182.375 683.011 184.572 683.011ZM199.285 673.993C199.285 678.212 198.072 681.824 195.646 684.83C193.22 687.818 189.538 689.313 184.598 689.313C179.659 689.313 175.976 687.818 173.55 684.83C171.125 681.824 169.912 678.212 169.912 673.993C169.912 669.845 171.125 666.25 173.55 663.209C175.976 660.168 179.659 658.648 184.598 658.648C189.538 658.648 193.22 660.168 195.646 663.209C198.072 666.25 199.285 669.845 199.285 673.993Z" fill="#69BC97"/>
<path d="M246.086 649.445H257.767V688.311H250.2V662.023C250.2 661.267 250.208 660.212 250.226 658.859C250.244 657.487 250.252 656.433 250.252 655.694L242.896 688.311H235.012L227.708 655.694C227.708 656.433 227.717 657.487 227.735 658.859C227.752 660.212 227.761 661.267 227.761 662.023V688.311H220.194V649.445H232.006L239.073 680.005L246.086 649.445Z" fill="#69BC97"/>
<path d="M272.427 656.143H264.807V649.208H272.427V656.143ZM264.807 659.57H272.427V688.311H264.807V659.57Z" fill="#69BC97"/>
<path d="M296.896 669.88C296.755 668.808 296.395 667.841 295.815 666.98C294.971 665.819 293.662 665.239 291.886 665.239C289.355 665.239 287.624 666.496 286.692 669.01C286.2 670.346 285.954 672.121 285.954 674.336C285.954 676.445 286.2 678.142 286.692 679.425C287.588 681.816 289.276 683.011 291.754 683.011C293.512 683.011 294.76 682.536 295.499 681.587C296.237 680.638 296.685 679.407 296.843 677.896H304.516C304.34 680.181 303.514 682.343 302.038 684.382C299.682 687.669 296.193 689.313 291.57 689.313C286.947 689.313 283.545 687.942 281.366 685.199C279.186 682.457 278.096 678.898 278.096 674.521C278.096 669.581 279.3 665.74 281.708 662.998C284.117 660.256 287.439 658.885 291.675 658.885C295.279 658.885 298.223 659.693 300.508 661.311C302.811 662.928 304.173 665.784 304.595 669.88H296.896Z" fill="#69BC97"/>
<path d="M325.399 658.885C325.54 658.885 325.654 658.894 325.742 658.911C325.847 658.911 326.067 658.92 326.401 658.938V666.637C325.926 666.584 325.504 666.549 325.135 666.531C324.766 666.514 324.467 666.505 324.239 666.505C321.215 666.505 319.185 667.489 318.148 669.458C317.568 670.566 317.278 672.271 317.278 674.573V688.311H309.71V659.57H316.882V664.58C318.042 662.664 319.053 661.355 319.915 660.651C321.321 659.474 323.149 658.885 325.399 658.885Z" fill="#69BC97"/>
<path d="M343.724 683.011C345.921 683.011 347.609 682.229 348.787 680.664C349.964 679.1 350.553 676.876 350.553 673.993C350.553 671.11 349.964 668.896 348.787 667.349C347.609 665.784 345.921 665.002 343.724 665.002C341.527 665.002 339.831 665.784 338.635 667.349C337.458 668.896 336.869 671.11 336.869 673.993C336.869 676.876 337.458 679.1 338.635 680.664C339.831 682.229 341.527 683.011 343.724 683.011ZM358.437 673.993C358.437 678.212 357.224 681.824 354.798 684.83C352.373 687.818 348.69 689.313 343.75 689.313C338.811 689.313 335.128 687.818 332.703 684.83C330.277 681.824 329.064 678.212 329.064 673.993C329.064 669.845 330.277 666.25 332.703 663.209C335.128 660.168 338.811 658.648 343.75 658.648C348.69 658.648 352.373 660.168 354.798 663.209C357.224 666.25 358.437 669.845 358.437 673.993Z" fill="#69BC97"/>
<path d="M374.442 649.05C374.917 649.05 375.347 649.068 375.734 649.103C376.121 649.12 376.648 649.155 377.316 649.208V655.325C376.894 655.273 376.182 655.237 375.18 655.22C374.196 655.185 373.51 655.404 373.124 655.879C372.754 656.336 372.57 656.846 372.57 657.408C372.57 657.971 372.57 658.779 372.57 659.834H377.5V665.134H372.57V688.311H365.082V665.134H360.889V659.834H365.002V657.988C365.002 654.912 365.521 652.794 366.558 651.634C367.648 649.911 370.276 649.05 374.442 649.05Z" fill="#69BC97"/>
<path d="M389.55 656.143H381.93V649.208H389.55V656.143ZM381.93 659.57H389.55V688.311H381.93V659.57Z" fill="#69BC97"/>
<path d="M412.78 658.885C415.75 658.885 418.176 659.667 420.057 661.232C421.956 662.778 422.905 665.354 422.905 668.957V688.311H415.206V670.829C415.206 669.318 415.003 668.157 414.599 667.349C413.861 665.872 412.455 665.134 410.38 665.134C407.832 665.134 406.083 666.215 405.133 668.377C404.641 669.52 404.395 670.979 404.395 672.754V688.311H396.907V659.623H404.158V663.816C405.125 662.339 406.039 661.276 406.9 660.625C408.447 659.465 410.407 658.885 412.78 658.885Z" fill="#69BC97"/>
<path d="M445.712 674.336C445.238 674.635 444.754 674.881 444.262 675.074C443.788 675.25 443.128 675.417 442.285 675.575L440.597 675.892C439.015 676.173 437.881 676.516 437.196 676.92C436.036 677.606 435.456 678.669 435.456 680.11C435.456 681.394 435.807 682.325 436.51 682.905C437.231 683.468 438.101 683.749 439.121 683.749C440.738 683.749 442.223 683.275 443.577 682.325C444.948 681.376 445.66 679.645 445.712 677.131V674.336ZM441.151 670.829C442.54 670.653 443.533 670.434 444.13 670.17C445.203 669.713 445.739 669.001 445.739 668.034C445.739 666.857 445.326 666.048 444.5 665.609C443.691 665.151 442.496 664.923 440.914 664.923C439.138 664.923 437.881 665.362 437.143 666.241C436.616 666.892 436.264 667.771 436.088 668.878H428.837C428.996 666.364 429.699 664.299 430.947 662.682C432.933 660.151 436.343 658.885 441.177 658.885C444.324 658.885 447.119 659.509 449.562 660.757C452.005 662.005 453.227 664.36 453.227 667.823V681.007C453.227 681.921 453.245 683.028 453.28 684.329C453.333 685.314 453.482 685.982 453.728 686.333C453.974 686.685 454.343 686.975 454.835 687.203V688.311H446.662C446.433 687.731 446.275 687.186 446.187 686.676C446.099 686.166 446.029 685.586 445.976 684.936C444.939 686.061 443.744 687.019 442.39 687.81C440.773 688.741 438.945 689.207 436.906 689.207C434.304 689.207 432.151 688.469 430.446 686.992C428.758 685.498 427.915 683.389 427.915 680.664C427.915 677.131 429.277 674.573 432.001 672.991C433.496 672.13 435.693 671.515 438.593 671.146L441.151 670.829Z" fill="#69BC97"/>
<path d="M475.85 658.885C478.821 658.885 481.247 659.667 483.127 661.232C485.026 662.778 485.975 665.354 485.975 668.957V688.311H478.276V670.829C478.276 669.318 478.074 668.157 477.669 667.349C476.931 665.872 475.525 665.134 473.451 665.134C470.902 665.134 469.153 666.215 468.204 668.377C467.711 669.52 467.465 670.979 467.465 672.754V688.311H459.977V659.623H467.228V663.816C468.195 662.339 469.109 661.276 469.97 660.625C471.517 659.465 473.477 658.885 475.85 658.885Z" fill="#69BC97"/>
<path d="M510.101 669.88C509.96 668.808 509.6 667.841 509.02 666.98C508.176 665.819 506.867 665.239 505.091 665.239C502.56 665.239 500.829 666.496 499.897 669.01C499.405 670.346 499.159 672.121 499.159 674.336C499.159 676.445 499.405 678.142 499.897 679.425C500.793 681.816 502.481 683.011 504.959 683.011C506.717 683.011 507.965 682.536 508.704 681.587C509.442 680.638 509.89 679.407 510.048 677.896H517.721C517.545 680.181 516.719 682.343 515.243 684.382C512.887 687.669 509.398 689.313 504.775 689.313C500.152 689.313 496.75 687.942 494.571 685.199C492.391 682.457 491.301 678.898 491.301 674.521C491.301 669.581 492.505 665.74 494.914 662.998C497.322 660.256 500.644 658.885 504.88 658.885C508.484 658.885 511.428 659.693 513.713 661.311C516.016 662.928 517.378 665.784 517.8 669.88H510.101Z" fill="#69BC97"/>
<path d="M534.333 665.002C532.592 665.002 531.239 665.547 530.272 666.637C529.323 667.727 528.725 669.203 528.479 671.067H540.16C540.037 669.08 539.43 667.577 538.34 666.558C537.268 665.521 535.932 665.002 534.333 665.002ZM534.333 658.806C536.723 658.806 538.876 659.254 540.792 660.151C542.708 661.047 544.291 662.462 545.539 664.396C546.664 666.101 547.393 668.078 547.727 670.328C547.92 671.647 548 673.545 547.964 676.024H528.294C528.4 678.906 529.305 680.928 531.01 682.088C532.047 682.809 533.295 683.169 534.754 683.169C536.301 683.169 537.558 682.73 538.525 681.851C539.052 681.376 539.518 680.717 539.922 679.873H547.595C547.402 681.578 546.514 683.31 544.932 685.068C542.471 687.862 539.026 689.26 534.596 689.26C530.94 689.26 527.714 688.082 524.919 685.727C522.125 683.371 520.727 679.539 520.727 674.231C520.727 669.256 521.984 665.442 524.498 662.787C527.029 660.133 530.307 658.806 534.333 658.806Z" fill="#69BC97"/>
<path d="M576.573 656.195V664.765H586.118C587.823 664.765 589.203 664.448 590.257 663.816C591.33 663.165 591.866 662.023 591.866 660.388C591.866 658.577 591.163 657.382 589.756 656.802C588.543 656.398 586.997 656.195 585.116 656.195H576.573ZM576.573 671.198V681.561H586.118C587.823 681.561 589.15 681.332 590.099 680.875C591.822 680.031 592.683 678.414 592.683 676.024C592.683 674.002 591.848 672.613 590.178 671.858C589.247 671.436 587.937 671.216 586.25 671.198H576.573ZM587.7 649.445C592.463 649.516 595.838 650.896 597.825 653.585C599.02 655.237 599.618 657.215 599.618 659.518C599.618 661.891 599.02 663.798 597.825 665.239C597.157 666.048 596.172 666.786 594.872 667.454C596.858 668.175 598.352 669.318 599.354 670.882C600.374 672.446 600.883 674.345 600.883 676.577C600.883 678.88 600.303 680.945 599.143 682.774C598.405 683.986 597.482 685.006 596.375 685.832C595.126 686.781 593.65 687.432 591.945 687.783C590.257 688.135 588.42 688.311 586.434 688.311H568.821V649.445H587.7Z" fill="#69BC97"/>
<path d="M622.953 674.336C622.478 674.635 621.995 674.881 621.502 675.074C621.028 675.25 620.369 675.417 619.525 675.575L617.837 675.892C616.255 676.173 615.122 676.516 614.436 676.92C613.276 677.606 612.696 678.669 612.696 680.11C612.696 681.394 613.047 682.325 613.75 682.905C614.471 683.468 615.341 683.749 616.361 683.749C617.978 683.749 619.463 683.275 620.817 682.325C622.188 681.376 622.9 679.645 622.953 677.131V674.336ZM618.391 670.829C619.78 670.653 620.773 670.434 621.371 670.17C622.443 669.713 622.979 669.001 622.979 668.034C622.979 666.857 622.566 666.048 621.74 665.609C620.931 665.151 619.736 664.923 618.154 664.923C616.378 664.923 615.122 665.362 614.383 666.241C613.856 666.892 613.504 667.771 613.329 668.878H606.078C606.236 666.364 606.939 664.299 608.187 662.682C610.173 660.151 613.583 658.885 618.417 658.885C621.564 658.885 624.359 659.509 626.802 660.757C629.246 662.005 630.467 664.36 630.467 667.823V681.007C630.467 681.921 630.485 683.028 630.52 684.329C630.573 685.314 630.722 685.982 630.968 686.333C631.214 686.685 631.583 686.975 632.076 687.203V688.311H623.902C623.673 687.731 623.515 687.186 623.427 686.676C623.339 686.166 623.269 685.586 623.216 684.936C622.179 686.061 620.984 687.019 619.63 687.81C618.013 688.741 616.185 689.207 614.146 689.207C611.544 689.207 609.391 688.469 607.686 686.992C605.999 685.498 605.155 683.389 605.155 680.664C605.155 677.131 606.517 674.573 609.242 672.991C610.736 672.13 612.933 671.515 615.833 671.146L618.391 670.829Z" fill="#69BC97"/>
<path d="M653.09 658.885C656.061 658.885 658.487 659.667 660.368 661.232C662.266 662.778 663.215 665.354 663.215 668.957V688.311H655.516V670.829C655.516 669.318 655.314 668.157 654.91 667.349C654.171 665.872 652.765 665.134 650.691 665.134C648.142 665.134 646.393 666.215 645.444 668.377C644.952 669.52 644.706 670.979 644.706 672.754V688.311H637.217V659.623H644.468V663.816C645.435 662.339 646.349 661.276 647.21 660.625C648.757 659.465 650.717 658.885 653.09 658.885Z" fill="#69BC97"/>
<path d="M670.097 649.577H677.48V670.513L686.84 659.702H696.148L686.102 670.697L696.543 688.311H687.473L680.591 676.024L677.48 679.267V688.311H670.097V649.577Z" fill="#69BC97"/>
</svg>
