<svg width="570" height="570" viewBox="0 0 570 570" fill="none" xmlns="http://www.w3.org/2000/svg">
<rect width="570" height="570" fill="#C7001D"/>
<path d="M303.376 432.432C303.376 433.215 303.468 433.949 303.651 434.632C303.851 435.299 304.134 435.882 304.501 436.382C304.868 436.865 305.326 437.249 305.876 437.532C306.426 437.815 307.051 437.957 307.751 437.957C308.384 437.957 308.968 437.849 309.501 437.632C310.034 437.399 310.501 437.065 310.901 436.632C311.301 436.199 311.609 435.674 311.826 435.057C312.059 434.424 312.176 433.699 312.176 432.882C312.209 432.065 312.143 431.307 311.976 430.607C311.809 429.89 311.543 429.265 311.176 428.732C310.809 428.199 310.334 427.782 309.751 427.482C309.184 427.165 308.518 427.007 307.751 427.007C307.068 427.007 306.451 427.157 305.901 427.457C305.368 427.74 304.909 428.132 304.526 428.632C304.159 429.115 303.876 429.69 303.676 430.357C303.476 431.007 303.376 431.699 303.376 432.432ZM303.376 438.957H301.876V420.957H303.376V428.082C303.859 427.282 304.518 426.682 305.351 426.282C306.201 425.865 307.084 425.657 308.001 425.657C308.984 425.657 309.834 425.849 310.551 426.232C311.284 426.599 311.884 427.099 312.351 427.732C312.834 428.349 313.193 429.074 313.426 429.907C313.659 430.74 313.776 431.607 313.776 432.507C313.776 433.457 313.668 434.349 313.451 435.182C313.234 436.015 312.884 436.74 312.401 437.357C311.934 437.957 311.334 438.432 310.601 438.782C309.868 439.132 308.976 439.307 307.926 439.307C307.509 439.307 307.084 439.249 306.651 439.132C306.218 439.015 305.793 438.849 305.376 438.632C304.976 438.415 304.601 438.149 304.251 437.832C303.918 437.499 303.643 437.115 303.426 436.682H303.376V438.957ZM316.884 442.482C317.084 442.515 317.284 442.549 317.484 442.582C317.701 442.615 317.917 442.632 318.134 442.632C318.551 442.632 318.892 442.499 319.159 442.232C319.426 441.965 319.642 441.64 319.809 441.257C319.992 440.89 320.142 440.499 320.259 440.082C320.376 439.682 320.509 439.34 320.659 439.057L315.634 426.007H317.309L321.459 437.132L325.609 426.007H327.234L322.409 438.782C322.109 439.599 321.817 440.332 321.534 440.982C321.267 441.632 320.976 442.182 320.659 442.632C320.359 443.099 320.017 443.449 319.634 443.682C319.267 443.932 318.826 444.057 318.309 444.057C318.042 444.057 317.784 444.04 317.534 444.007C317.301 443.974 317.084 443.932 316.884 443.882V442.482ZM350.792 436.557H350.842L354.767 420.957H356.517L351.792 438.957H349.917L345.742 423.057H345.692L341.517 438.957H339.642L334.992 420.957H336.692L340.567 436.557H340.617L344.792 420.957H346.692L350.792 436.557ZM358.884 438.957V420.957H370.859V422.407H360.584V428.907H369.859V430.357H360.584V437.507H371.109V438.957H358.884ZM374.092 438.957V420.957H376.692L382.592 436.832H382.642L388.442 420.957H391.017V438.957H389.317V422.907H389.267L383.367 438.957H381.767L375.842 422.907H375.792V438.957H374.092ZM393.342 438.957L400.417 420.957H402.342L409.242 438.957H407.492L405.417 433.307H397.217L395.092 438.957H393.342ZM397.792 431.857H404.842L401.317 422.407L397.792 431.857Z" fill="white"/>
<path d="M193.056 393.308H176.044L173.441 398.957H161V397.338L181.884 353H187.343L208.004 397.338V398.957H195.722L193.056 393.308ZM184.55 372.36L179.853 383.342H189.279L184.55 372.36Z" fill="white"/>
<path d="M249.271 353.444V388.293H265.744V398.957H237.401V353.444H249.271Z" fill="white"/>
<path d="M329.022 393.308H312.011L309.408 398.957H296.967V397.338L317.851 353H323.31L343.971 397.338V398.957H331.688L329.022 393.308ZM320.517 372.36L315.819 383.342H325.246L320.517 372.36Z" fill="white"/>
<path d="M384.914 363.854H373.742V353.444H407.543V363.854H396.435V398.957H384.914V363.854Z" fill="white"/>
<path d="M139 322H290.028C293.001 322 294.935 318.871 293.606 316.211L290.5 310L284 298.5L283.665 297.942C282.942 296.737 281.64 296 280.235 296H184.498C181.404 296 179.481 292.637 181.052 289.97L243.577 183.811C245.119 181.194 248.901 181.182 250.458 183.79L331.836 320.051C332.558 321.26 333.862 322 335.27 322H428.071C431.15 322 433.075 318.666 431.535 316L320.655 124C319.94 122.762 318.62 122 317.191 122H297.309C294.257 122 292.329 125.281 293.816 127.948L384.184 290.052C385.671 292.719 383.743 296 380.691 296H350.798C349.375 296 348.059 295.244 347.343 294.014L251.157 128.986C250.441 127.756 249.125 127 247.702 127H247.3C245.876 127 244.559 127.757 243.843 128.988L135.543 315.067C135.187 315.678 135 316.372 135 317.079V318C135 320.209 136.791 322 139 322Z" fill="white"/>
</svg>
