<svg width="592" height="624" viewBox="0 0 592 624" fill="none" xmlns="http://www.w3.org/2000/svg">
<path d="M301.402 623.89H300.998C288.665 619.266 -29.9078 494.158 15.4243 72.041C15.4243 72.041 95.774 11.0099 300.998 11.0099H301.365C506.589 11.0099 586.939 72.041 586.939 72.041C632.308 494.158 313.735 619.266 301.402 623.89Z" fill="url(#paint0_linear)"/>
<path d="M290.391 612.88H289.987C277.654 608.256 -40.9191 483.148 4.41302 61.0311C4.41302 61.0311 84.7628 0 289.987 0H290.354C495.578 0 575.928 61.0311 575.928 61.0311C621.296 483.148 302.724 608.256 290.391 612.88Z" fill="url(#paint1_linear)"/>
<path d="M290.353 578.089C290.353 578.089 198.881 544.619 124.331 449.091L124.037 448.797C106.11 425.756 90.5879 400.94 77.7143 374.738C42.0359 302.22 20.3059 206.655 33.6669 82.4638C33.6669 82.4638 62.0408 60.958 128.626 44.8836C168.268 35.3051 221.492 27.6716 290.353 27.6716C289.986 27.2679 290.353 578.089 290.353 578.089Z" fill="#8D267D"/>
<path d="M500.68 378.665V378.922C488.426 403.187 473.886 426.228 457.256 447.733C382.449 544.253 289.986 578.089 289.986 578.089C289.986 578.089 289.986 523.701 289.986 449.128C289.986 413.126 289.986 372.389 289.986 330.772C289.986 184.451 289.986 27.4514 289.986 27.6716C474.545 27.6716 546.929 82.4638 546.929 82.4638C560.327 208.93 537.533 305.706 500.68 378.665Z" fill="#94939B"/>
<path d="M289.986 330.992V449.237L154.43 213.811L124.331 449.091L124.038 448.797C106.11 425.755 90.5879 400.94 77.7144 374.738L77.4941 374.26L128.479 44.8833L289.986 330.992Z" fill="white"/>
<path d="M502.551 374.334C501.927 375.839 501.303 377.27 500.679 378.738V378.995C488.421 403.235 473.881 426.251 457.255 447.733L455.75 449.237L425.798 213.811L289.985 449.127V330.992V330.772L451.492 44.8833L502.551 374.334Z" fill="white"/>
<defs>
<linearGradient id="paint0_linear" x1="572.624" y1="213.481" x2="118.877" y2="355.445" gradientUnits="userSpaceOnUse">
<stop stop-color="#D3D2D2"/>
<stop offset="1" stop-color="#D3D2D2"/>
</linearGradient>
<linearGradient id="paint1_linear" x1="0.00828238" y1="306.513" x2="580.369" y2="306.513" gradientUnits="userSpaceOnUse">
<stop stop-color="#939598"/>
<stop offset="1" stop-color="#FDFDFD"/>
</linearGradient>
</defs>
</svg>
