<svg xmlns="http://www.w3.org/2000/svg" fill="none" viewBox="0 0 185 39"><path fill="#000" d="M1 29.6a1 1 0 0 1-.7-.2 1 1 0 0 1-.3-.8V3c0-.3 0-.5.3-.7.2-.2.4-.3.7-.3h11.7c2.2 0 4 .3 5.4 1 1.4.6 2.4 1.5 3 2.7.7 1.1 1 2.5 1 4 0 1-.1 1.8-.5 2.6a6.2 6.2 0 0 1-2.8 2.9c1 .4 2 1.2 2.7 2.3.8 1.1 1.2 2.4 1.2 3.9 0 1.6-.4 3.1-1 4.3a7.3 7.3 0 0 1-3.4 3c-1.4.6-3.2 1-5.2 1H1ZM6.3 25h6c1.3 0 2.3-.3 3-1 .6-.8 1-1.6 1-2.6s-.4-2-1.1-2.6c-.7-.7-1.6-1-2.9-1h-6V25Zm0-11.8h5.6c1.3 0 2.2-.3 2.8-1 .6-.5 1-1.3 1-2.3a3 3 0 0 0-1-2.3c-.6-.7-1.5-1-2.8-1H6.3v6.6ZM28.1 29.6a1 1 0 0 1-.6-.2 1 1 0 0 1-.3-.8V10.1c0-.3 0-.5.3-.7.1-.2.4-.3.6-.3h4c.3 0 .5.1.7.3.2.2.2.4.2.7v18.5c0 .3 0 .6-.2.8a1 1 0 0 1-.7.2h-4ZM28 6a1 1 0 0 1-.7-.3 1 1 0 0 1-.2-.7V1.8c0-.3 0-.5.2-.7.2-.2.4-.3.7-.3h4.1c.3 0 .6.1.8.3.2.2.3.4.3.7V5c0 .3-.1.5-.3.7a1 1 0 0 1-.8.3H28ZM47.6 38.3c-2 0-3.5-.3-4.8-.8a9.1 9.1 0 0 1-3.1-1.8 7 7 0 0 1-1.6-2.2c-.3-.7-.5-1.2-.5-1.6 0-.3 0-.5.3-.7.2-.2.4-.3.7-.3h4.2c.2 0 .4 0 .6.2.2 0 .3.3.4.6l.6 1 1 .9c.5.2 1.2.3 2 .3 1 0 1.7-.1 2.3-.4.6-.2 1-.7 1.3-1.3.4-.6.5-1.5.5-2.6V27c-.6.7-1.4 1.2-2.4 1.7a9.7 9.7 0 0 1-7.1 0 7 7 0 0 1-2.6-1.8 8.7 8.7 0 0 1-1.6-3 14 14 0 0 1-.6-3.8v-2c0-1.4.3-2.7.6-3.8.4-1.1 1-2.1 1.6-3 .7-.8 1.6-1.4 2.6-1.9 1-.4 2.2-.7 3.6-.7a7.7 7.7 0 0 1 6.2 3V10c0-.2.1-.5.3-.7.2-.2.4-.3.7-.3h3.8c.3 0 .5.1.7.3.2.2.3.5.3.7v19c0 2-.3 3.6-1 5a7.4 7.4 0 0 1-3.5 3.1c-1.4.7-3.3 1.1-5.5 1.1Zm-.2-13.6c1 0 1.7-.2 2.3-.6.6-.4 1-1 1.3-1.6a6 6 0 0 0 .5-2.2 14.4 14.4 0 0 0 0-2.5c0-.7-.2-1.4-.5-2-.2-.7-.7-1.3-1.3-1.7-.6-.4-1.3-.6-2.3-.6-1 0-1.8.2-2.3.6-.6.5-1 1-1.3 1.7-.3.7-.4 1.5-.5 2.4V20c0 .9.2 1.7.5 2.4s.7 1.3 1.3 1.7a4 4 0 0 0 2.3.6ZM63.6 29.6a1 1 0 0 1-.7-.2 1 1 0 0 1-.3-.8V10.1c0-.3.1-.5.3-.7.2-.2.4-.3.7-.3h4c.2 0 .5.1.6.3.2.2.3.4.3.7v18.5c0 .3 0 .6-.3.8a1 1 0 0 1-.7.2h-4ZM63.5 6a1 1 0 0 1-.7-.3 1 1 0 0 1-.3-.7V1.8c0-.3.1-.5.3-.7.2-.2.4-.3.7-.3h4.1c.3 0 .5.1.7.3.2.2.3.4.3.7V5c0 .3 0 .5-.3.7a1 1 0 0 1-.7.3h-4.1ZM74.9 29.6a1 1 0 0 1-.7-.2 1 1 0 0 1-.3-.8V3c0-.3 0-.5.3-.7.2-.2.4-.3.7-.3h11.7c2.2 0 4 .3 5.3 1 1.4.6 2.5 1.5 3.1 2.7.7 1.1 1 2.5 1 4 0 1-.1 1.8-.5 2.6a6.2 6.2 0 0 1-2.8 2.9c1 .4 2 1.2 2.7 2.3.8 1.1 1.2 2.4 1.2 3.9 0 1.6-.4 3.1-1.1 4.3a7.3 7.3 0 0 1-3.3 3c-1.4.6-3.2 1-5.3 1H75Zm5.3-4.6h6c1.3 0 2.3-.3 3-1 .6-.8.9-1.6.9-2.6s-.3-2-1-2.6c-.7-.7-1.6-1-3-1h-6V25Zm0-11.8h5.6c1.3 0 2.2-.3 2.8-1 .6-.5 1-1.3 1-2.3a3 3 0 0 0-1-2.3c-.6-.7-1.5-1-2.8-1h-5.6v6.6ZM101.8 29.6a1 1 0 0 1-.7-.2 1 1 0 0 1-.2-.8V10.1c0-.2 0-.5.2-.7.2-.2.5-.3.7-.3h3.9c.2 0 .5.1.7.3.2.2.3.5.3.7v1.6c.6-.8 1.4-1.5 2.4-1.9 1-.4 2-.7 3.3-.7h1.7c.3 0 .5.1.7.3.2.2.3.4.3.7v3.4c0 .3-.1.5-.3.7a1 1 0 0 1-.7.3h-3.4c-1.2 0-2.1.3-2.8 1-.6.6-1 1.5-1 2.7v10.4c0 .3 0 .6-.2.8a1 1 0 0 1-.7.2h-4.2ZM123.7 30c-1.4 0-2.6-.2-3.8-.8a7 7 0 0 1-2.6-2.2c-.7-.9-1-2-1-3 0-2 .8-3.4 2.3-4.5 1.5-1 3.5-1.8 6-2.2l5.1-.7v-.7c0-1-.2-1.8-.7-2.4-.5-.5-1.3-.8-2.5-.8-.8 0-1.5.2-2 .5-.6.3-1 .8-1.3 1.3a1 1 0 0 1-.9.5h-3.7c-.3 0-.5 0-.7-.2a.8.8 0 0 1-.2-.6c0-.5.2-1 .5-1.6.4-.6.9-1.2 1.6-1.8.7-.6 1.6-1 2.7-1.5 1.1-.4 2.5-.6 4-.6 1.7 0 3.1.2 4.3.6a6.7 6.7 0 0 1 4.4 4.1c.4 1 .6 2 .6 3v12.2c0 .3-.1.6-.3.8a1 1 0 0 1-.7.2h-3.9a1 1 0 0 1-.7-.2 1 1 0 0 1-.2-.8v-1.4a6.4 6.4 0 0 1-3.5 2.4c-.8.3-1.7.4-2.8.4Zm1.6-4c.8 0 1.6-.3 2.3-.6.7-.4 1.2-1 1.6-1.7.4-.8.6-1.7.6-2.9v-.7l-3.7.6c-1.4.3-2.4.6-3 1-.7.6-1 1.1-1 1.8 0 .5 0 1 .4 1.3.3.4.7.7 1.2.9l1.6.2ZM141.5 29.6a1 1 0 0 1-.7-.2 1 1 0 0 1-.3-.8V10.1c0-.3.1-.5.3-.7.2-.2.4-.3.7-.3h3.8c.3 0 .6.1.8.3l.2.7v1.6a8.1 8.1 0 0 1 6.6-3c1.6 0 3 .4 4 1.1a7 7 0 0 1 2.8 3c.7 1.4 1 3 1 4.8v11c0 .3 0 .6-.3.8a1 1 0 0 1-.6.2h-4.2a1 1 0 0 1-.7-.2 1 1 0 0 1-.3-.8V18c0-1.4-.3-2.5-1-3.2-.7-.8-1.6-1.2-3-1.2-1.2 0-2.2.4-2.9 1.2-.7.7-1.1 1.8-1.1 3.2v10.7c0 .3 0 .6-.3.8a1 1 0 0 1-.6.2h-4.2ZM173 30c-1.2 0-2.4-.2-3.4-.6-1-.4-2-1-2.6-1.9a8.7 8.7 0 0 1-1.6-3 15.5 15.5 0 0 1-.7-5.1V18c0-1.3.3-2.6.6-3.7.4-1.1 1-2.1 1.6-3a7 7 0 0 1 2.6-1.9c1-.4 2.3-.7 3.6-.7a8 8 0 0 1 3.5.7 7 7 0 0 1 2.4 1.8V2.6c0-.3.1-.5.3-.7.2-.2.4-.3.7-.3h4c.3 0 .5.1.7.3.2.2.3.4.3.7v26c0 .3 0 .6-.3.8a1 1 0 0 1-.6.2h-3.8a1 1 0 0 1-.7-.2 1 1 0 0 1-.3-.8v-1.3a8 8 0 0 1-2.5 2c-1 .5-2.2.7-3.7.7Zm2-4.7c.9 0 1.7-.2 2.2-.7.6-.4 1-1 1.3-1.7.3-.7.5-1.4.5-2.2a14.5 14.5 0 0 0 0-3c0-.7-.2-1.4-.5-2-.3-.6-.7-1.2-1.3-1.6-.6-.4-1.3-.6-2.3-.6-1 0-1.8.2-2.4.6-.5.5-1 1-1.2 1.7a12.6 12.6 0 0 0 0 7.1c.2.7.7 1.3 1.2 1.8a4 4 0 0 0 2.4.6Z"/></svg>