<svg xmlns="http://www.w3.org/2000/svg" width="647.292" height="277.829" viewBox="0 0 485.469 208.372"><defs><clipPath id="a"><path d="M0 63h485.469v145.371H0zm0 0"/></clipPath><clipPath id="b"><path d="M131 71h143v137.371H131zm0 0"/></clipPath><clipPath id="c"><path d="M6 105h472v66H6zm0 0"/></clipPath><clipPath id="d"><path d="M6.254 169.313l9.039-64.31h13.285l-3.543 25.142h27.992l3.543-25.141h13.285l-9.035 64.308H47.535l3.63-26.363H23.261l-3.719 26.363zm101.277-2.602a29.312 29.312 0 0 1-7.191 2.648c-2.598.598-5.281.895-8.09.895-6.14 0-11.012-1.899-14.602-5.68-3.585-3.781-5.386-8.945-5.386-15.472 0-7.235 2.082-13.07 6.23-17.543 4.164-4.457 9.64-6.688 16.445-6.688 5.524 0 9.774 1.68 12.77 5.055 3 3.375 4.504 8.16 4.504 14.36 0 .769-.016 1.55-.059 2.366a40.877 40.877 0 0 1-.207 2.418l-27.195.047c0 .156-.012.375-.043.692-.027.296-.043.5-.043.597 0 3.121.871 5.492 2.613 7.137 1.743 1.633 4.282 2.45 7.586 2.45 1.875 0 4.016-.376 6.422-1.13 2.406-.754 5.211-1.945 8.445-3.578zm-21.097-25.172h13.906v-.879c0-2.262-.5-3.988-1.488-5.164-.989-1.176-2.438-1.773-4.344-1.773-1.961 0-3.613.66-4.957 1.976-1.36 1.32-2.395 3.266-3.117 5.84zm57.726 15.285l2.817-20.652a12.605 12.605 0 0 0-.883-.078c-.34-.016-.828-.016-1.492-.016-4.797 0-8.579 1.473-11.383 4.41-2.79 2.95-4.192 6.903-4.192 11.88 0 2.448.543 4.378 1.621 5.788 1.079 1.414 2.543 2.121 4.387 2.121 1.477 0 2.965-.285 4.473-.851 1.52-.563 3.07-1.442 4.652-2.602zm-1.773 12.488l.441-3.386c-1.992 1.472-3.91 2.543-5.742 3.215a16.067 16.067 0 0 1-5.594 1.02c-4.37 0-7.824-1.614-10.394-4.849-2.57-3.234-3.852-7.609-3.852-13.132 0-3.88.692-7.489 2.094-10.844 1.406-3.36 3.41-6.215 6.039-8.586 2.82-2.543 6.14-4.348 9.937-5.414 3.793-1.082 9.86-1.617 18.23-1.617h6.747l-6.008 43.594zm21.465 0l9.02-64.308h11.706l-9.02 64.308zm44.761 0l9.035-64.308h11.782l-3.645 25.613c2.39-1.996 4.695-3.453 6.88-4.363a17.48 17.48 0 0 1 6.878-1.383c3.484 0 6.215 1.07 8.18 3.188 1.98 2.132 2.968 5.054 2.968 8.757 0 .86-.03 1.696-.09 2.508a35.652 35.652 0 0 1-.25 2.324l-3.898 27.665h-12.047l3.719-26.333c.031-.312.059-.722.121-1.238.145-1.176.219-1.945.219-2.355 0-1.582-.309-2.825-.93-3.703-.617-.864-1.492-1.301-2.613-1.301-1.535 0-3.172.531-4.914 1.617-1.742 1.066-3.617 2.7-5.598 4.91l-4.031 28.403zm89.746-23.44h13.715l-3.469-24.579zm-24.02 23.44l28.864-64.308h14.793l10.2 64.308H315.44l-2.039-14.027h-18.894l-5.746 14.028zm55.184-3.105l1.344-9.887.43.188c5.668 2.262 9.715 3.39 12.137 3.39.945 0 1.742-.25 2.39-.753.649-.5.977-1.13.977-1.868 0-1.285-1.242-2.902-3.707-4.863-1.477-1.164-2.63-2.152-3.457-2.934-2.625-2.527-4.383-4.601-5.297-6.23a11.003 11.003 0 0 1-1.36-5.367c0-3.828 1.372-6.953 4.133-9.387 2.746-2.414 6.305-3.625 10.66-3.625 2.094 0 4.207.317 6.317.926 2.098.613 4.281 1.523 6.527 2.762l-.695 10.343c-2.422-1.254-4.606-2.23-6.57-2.918-1.961-.691-3.528-1.039-4.68-1.039-.887 0-1.637.223-2.227.645-.593.426-.886.972-.886 1.648 0 1.317 1.43 3.121 4.28 5.383a79.032 79.032 0 0 1 3.427 2.902c2.183 1.93 3.703 3.688 4.515 5.29.828 1.585 1.242 3.421 1.242 5.507 0 3.985-1.406 7.297-4.222 9.918-2.805 2.621-6.395 3.922-10.746 3.922-2.305 0-4.684-.328-7.149-.988-2.465-.656-4.93-1.649-7.383-2.965zm32.614 0l1.343-9.887.43.188c5.668 2.262 9.711 3.39 12.133 3.39.945 0 1.742-.25 2.39-.753.653-.5.977-1.13.977-1.868 0-1.285-1.242-2.902-3.707-4.863-1.476-1.164-2.625-2.152-3.453-2.934-2.629-2.527-4.387-4.601-5.3-6.23a11.046 11.046 0 0 1-1.36-5.367c0-3.828 1.375-6.953 4.137-9.387 2.746-2.414 6.304-3.625 10.656-3.625 2.097 0 4.207.317 6.32.926 2.094.613 4.281 1.523 6.524 2.762l-.692 10.343c-2.422-1.254-4.605-2.23-6.57-2.918-1.965-.691-3.527-1.039-4.68-1.039-.887 0-1.64.223-2.23.645-.59.426-.887.972-.887 1.648 0 1.317 1.434 3.121 4.281 5.383a79.032 79.032 0 0 1 3.426 2.902c2.188 1.93 3.707 3.688 4.52 5.29.824 1.585 1.238 3.421 1.238 5.507 0 3.985-1.403 7.297-4.223 9.918-2.805 2.621-6.39 3.922-10.746 3.922-2.305 0-4.68-.328-7.144-.988-2.465-.656-4.934-1.649-7.383-2.965zm39.86-40.488h12.046l-3.719 26.332c-.101.8-.191 1.508-.25 2.137a15.73 15.73 0 0 0-.09 1.457c0 1.585.309 2.824.93 3.703.621.867 1.492 1.304 2.613 1.304 1.594 0 3.278-.566 5.047-1.68 1.774-1.113 3.559-2.73 5.39-4.847l3.974-28.406h11.898l-6.14 43.594H421.84l.691-4.88c-2.242 1.962-4.472 3.422-6.687 4.348-2.2.926-4.516 1.38-6.938 1.38-3.484 0-6.215-1.067-8.18-3.184-1.976-2.118-2.964-5.055-2.964-8.79 0-.832.027-1.664.086-2.464.058-.817.148-1.598.25-2.336zm41.542 43.594l6.145-43.594h11.84l-.786 6.027c2.32-2.746 4.133-4.582 5.477-5.492 1.332-.926 2.703-1.383 4.074-1.383 1.11 0 2.277.238 3.516.723 1.238.488 2.539 1.226 3.925 2.199l-5.742 13.273c-1.105-1.254-2.11-2.18-3.023-2.777-.934-.594-1.805-.894-2.645-.894-1.18 0-2.39.503-3.601 1.492-1.227 1.004-2.453 2.48-3.664 4.441l-3.63 25.984zm0 0"/></clipPath><linearGradient id="e" gradientUnits="userSpaceOnUse" x2=".591" gradientTransform="matrix(1.6877 121.5033 747.93982 -10.38903 4.712 105.027)"><stop offset="0" stop-color="#a6ce38"/><stop offset=".25" stop-color="#a6ce38"/><stop offset=".375" stop-color="#a6ce38"/><stop offset=".438" stop-color="#a6ce38"/><stop offset=".469" stop-color="#a6ce38"/><stop offset=".477" stop-color="#a6ce38"/><stop offset=".48" stop-color="#a4cd38"/><stop offset=".484" stop-color="#a2cb38"/><stop offset=".488" stop-color="#a1cb38"/><stop offset=".492" stop-color="#9fca38"/><stop offset=".496" stop-color="#9ec838"/><stop offset=".5" stop-color="#9ec838"/><stop offset=".504" stop-color="#9cc738"/><stop offset=".508" stop-color="#9ac639"/><stop offset=".512" stop-color="#9ac639"/><stop offset=".516" stop-color="#98c539"/><stop offset=".52" stop-color="#97c439"/><stop offset=".523" stop-color="#97c439"/><stop offset=".527" stop-color="#95c339"/><stop offset=".531" stop-color="#94c239"/><stop offset=".535" stop-color="#93c239"/><stop offset=".539" stop-color="#92c139"/><stop offset=".543" stop-color="#91c039"/><stop offset=".547" stop-color="#90c039"/><stop offset=".551" stop-color="#8ebf39"/><stop offset=".555" stop-color="#8dbe39"/><stop offset=".559" stop-color="#8dbe39"/><stop offset=".563" stop-color="#8bbd39"/><stop offset=".566" stop-color="#8abc39"/><stop offset=".57" stop-color="#89bc3a"/><stop offset=".574" stop-color="#88bb3a"/><stop offset=".578" stop-color="#87bb39"/><stop offset=".582" stop-color="#86ba39"/><stop offset=".586" stop-color="#85b93a"/><stop offset=".59" stop-color="#83b93a"/><stop offset=".594" stop-color="#82b83a"/><stop offset=".598" stop-color="#82b83a"/><stop offset=".602" stop-color="#81b73a"/><stop offset=".605" stop-color="#7fb63a"/><stop offset=".609" stop-color="#7eb63a"/><stop offset=".613" stop-color="#7db53a"/><stop offset=".617" stop-color="#7cb43a"/><stop offset=".621" stop-color="#7bb43a"/><stop offset=".625" stop-color="#7ab33a"/><stop offset=".629" stop-color="#79b23a"/><stop offset=".633" stop-color="#78b23a"/><stop offset=".637" stop-color="#77b13a"/><stop offset=".641" stop-color="#76b13a"/><stop offset=".645" stop-color="#75b03a"/><stop offset=".648" stop-color="#74af3a"/><stop offset=".652" stop-color="#72af3a"/><stop offset=".656" stop-color="#72af3a"/><stop offset=".66" stop-color="#71ae3a"/><stop offset=".664" stop-color="#70ad3a"/><stop offset=".668" stop-color="#6fad3a"/><stop offset=".672" stop-color="#6dac3a"/><stop offset=".676" stop-color="#6dab3a"/><stop offset=".68" stop-color="#6cab3a"/><stop offset=".684" stop-color="#6baa3a"/><stop offset=".688" stop-color="#69a93a"/><stop offset=".691" stop-color="#68a93a"/><stop offset=".695" stop-color="#68a83a"/><stop offset=".699" stop-color="#66a83a"/><stop offset=".703" stop-color="#65a73a"/><stop offset=".707" stop-color="#64a73a"/><stop offset=".711" stop-color="#62a63a"/><stop offset=".715" stop-color="#62a63a"/><stop offset=".719" stop-color="#61a53a"/><stop offset=".723" stop-color="#60a43a"/><stop offset=".727" stop-color="#5fa43a"/><stop offset=".73" stop-color="#5da33a"/><stop offset=".734" stop-color="#5ca23a"/><stop offset=".738" stop-color="#5ca23a"/><stop offset=".742" stop-color="#5aa23a"/><stop offset=".746" stop-color="#59a13a"/><stop offset=".75" stop-color="#58a13a"/><stop offset=".754" stop-color="#56a03a"/><stop offset=".758" stop-color="#569f39"/><stop offset=".762" stop-color="#559f3a"/><stop offset=".766" stop-color="#539e39"/><stop offset=".77" stop-color="#529d39"/><stop offset=".773" stop-color="#519d3a"/><stop offset=".777" stop-color="#519d39"/><stop offset=".781" stop-color="#4f9c39"/><stop offset=".785" stop-color="#4e9c39"/><stop offset=".789" stop-color="#4c9b39"/><stop offset=".793" stop-color="#4b9a39"/><stop offset=".797" stop-color="#4b9a39"/><stop offset=".801" stop-color="#499939"/><stop offset=".805" stop-color="#489839"/><stop offset=".809" stop-color="#479839"/><stop offset=".813" stop-color="#459739"/><stop offset=".816" stop-color="#459739"/><stop offset=".82" stop-color="#449739"/><stop offset=".824" stop-color="#429639"/><stop offset=".828" stop-color="#419539"/><stop offset=".832" stop-color="#3f9539"/><stop offset=".836" stop-color="#3f9439"/><stop offset=".84" stop-color="#3e9339"/><stop offset=".844" stop-color="#3c9339"/><stop offset=".848" stop-color="#3b9339"/><stop offset=".852" stop-color="#399239"/><stop offset=".855" stop-color="#399239"/><stop offset=".859" stop-color="#379138"/><stop offset=".863" stop-color="#369038"/><stop offset=".867" stop-color="#349038"/><stop offset=".871" stop-color="#328f38"/><stop offset=".875" stop-color="#328f38"/><stop offset=".879" stop-color="#308f38"/><stop offset=".883" stop-color="#2e8e38"/><stop offset=".887" stop-color="#2c8d38"/><stop offset=".891" stop-color="#2b8d38"/><stop offset=".895" stop-color="#2a8c38"/><stop offset=".898" stop-color="#288b38"/><stop offset=".902" stop-color="#278b38"/><stop offset=".906" stop-color="#248b38"/><stop offset=".91" stop-color="#228a37"/><stop offset=".914" stop-color="#228a37"/><stop offset=".918" stop-color="#208937"/><stop offset=".922" stop-color="#1d8837"/><stop offset=".926" stop-color="#1b8837"/><stop offset=".93" stop-color="#188737"/><stop offset=".934" stop-color="#178737"/><stop offset=".938" stop-color="#158737"/><stop offset=".941" stop-color="#118637"/><stop offset=".945" stop-color="#0d8537"/><stop offset=".949" stop-color="#098537"/><stop offset=".953" stop-color="#088436"/><stop offset=".957" stop-color="#038436"/><stop offset=".961" stop-color="#008436"/><stop offset=".965" stop-color="#008336"/><stop offset=".969" stop-color="#008236"/><stop offset=".973" stop-color="#008236"/><stop offset=".977" stop-color="#008136"/><stop offset=".98" stop-color="#008136"/><stop offset=".984" stop-color="#008136"/><stop offset=".988" stop-color="#008036"/><stop offset=".992" stop-color="#007f35"/><stop offset=".996" stop-color="#007f36"/><stop offset="1" stop-color="#007e35"/></linearGradient><clipPath id="f"><path d="M228 1h27v41h-27zm0 0"/></clipPath><clipPath id="g"><path d="M228.648 7.258L269.113 1l40.696 5.719-2.051 13.933v45.29c-6.395 20.484-22.031 26.308-37.727 35.41-16.988-7.207-33.187-18.536-38.98-33.883V22.047zm0 0"/></clipPath><clipPath id="h"><path d="M224.602-.816h29.98L226.066 41.34zm0 0"/></clipPath><linearGradient id="i" gradientUnits="userSpaceOnUse" x1=".06" x2=".87" gradientTransform="matrix(-45.62271 -24.04627 -27.22338 51.65061 274.729 9.802)"><stop offset="0" stop-color="#0087ca"/><stop offset=".25" stop-color="#0087ca"/><stop offset=".375" stop-color="#0087ca"/><stop offset=".438" stop-color="#0087ca"/><stop offset=".469" stop-color="#0087ca"/><stop offset=".473" stop-color="#0088cb"/><stop offset=".477" stop-color="#0089cc"/><stop offset=".48" stop-color="#008acd"/><stop offset=".484" stop-color="#008cce"/><stop offset=".488" stop-color="#008ccf"/><stop offset=".492" stop-color="#008ed0"/><stop offset=".496" stop-color="#008ed1"/><stop offset=".5" stop-color="#0090d2"/><stop offset=".504" stop-color="#0091d3"/><stop offset=".508" stop-color="#0092d3"/><stop offset=".512" stop-color="#0093d5"/><stop offset=".516" stop-color="#0094d5"/><stop offset=".52" stop-color="#0095d7"/><stop offset=".523" stop-color="#0096d7"/><stop offset=".527" stop-color="#0097d8"/><stop offset=".531" stop-color="#0098d9"/><stop offset=".535" stop-color="#0099da"/><stop offset=".539" stop-color="#009adb"/><stop offset=".543" stop-color="#009bdc"/><stop offset=".547" stop-color="#009cdd"/><stop offset=".551" stop-color="#009dde"/><stop offset=".555" stop-color="#009ddf"/><stop offset=".559" stop-color="#009ee0"/><stop offset=".563" stop-color="#009fe1"/><stop offset=".566" stop-color="#00a0e2"/><stop offset=".57" stop-color="#00a1e3"/><stop offset=".574" stop-color="#00a2e3"/><stop offset=".578" stop-color="#00a3e5"/><stop offset=".582" stop-color="#00a4e5"/><stop offset=".586" stop-color="#00a5e7"/><stop offset=".59" stop-color="#00a6e7"/><stop offset=".594" stop-color="#00a7e8"/><stop offset=".598" stop-color="#00a7e9"/><stop offset=".602" stop-color="#00a8ea"/><stop offset=".605" stop-color="#00a9eb"/><stop offset=".609" stop-color="#00aaec"/><stop offset=".613" stop-color="#00acee"/><stop offset=".617" stop-color="#00aeef"/><stop offset=".625" stop-color="#00aeef"/><stop offset=".75" stop-color="#00aeef"/><stop offset="1" stop-color="#00aeef"/></linearGradient><clipPath id="j"><path d="M264 35h46v67h-46zm0 0"/></clipPath><clipPath id="k"><path d="M228.648 7.258L269.113 1l40.696 5.719-2.051 13.933v45.29c-6.395 20.484-22.031 26.308-37.727 35.41-16.988-7.207-33.187-18.536-38.98-33.883V22.047zm0 0"/></clipPath><clipPath id="l"><path d="M331.695 51.61l-19.578-16.387-47.832 69.48 10.711 7.524zm0 0"/></clipPath><linearGradient id="m" gradientUnits="userSpaceOnUse" x1=".047" x2=".683" gradientTransform="matrix(88.86246 86.20873 86.5727 -89.23763 206.2 86.701)"><stop offset="0" stop-color="#a6ce38"/><stop offset=".5" stop-color="#a6ce38"/><stop offset=".531" stop-color="#a6ce38"/><stop offset=".547" stop-color="#a6ce38"/><stop offset=".555" stop-color="#a6ce38"/><stop offset=".559" stop-color="#a2cb38"/><stop offset=".563" stop-color="#9fca38"/><stop offset=".566" stop-color="#9cc738"/><stop offset=".57" stop-color="#9ac639"/><stop offset=".574" stop-color="#97c439"/><stop offset=".578" stop-color="#95c339"/><stop offset=".582" stop-color="#92c139"/><stop offset=".586" stop-color="#8fbf39"/><stop offset=".59" stop-color="#8dbe39"/><stop offset=".594" stop-color="#8abc39"/><stop offset=".598" stop-color="#88bb3a"/><stop offset=".602" stop-color="#85b93a"/><stop offset=".605" stop-color="#82b83a"/><stop offset=".609" stop-color="#80b73a"/><stop offset=".613" stop-color="#7eb53a"/><stop offset=".617" stop-color="#7bb43a"/><stop offset=".621" stop-color="#79b23a"/><stop offset=".625" stop-color="#76b13a"/><stop offset=".629" stop-color="#74af3a"/><stop offset=".633" stop-color="#71ae3a"/><stop offset=".637" stop-color="#6fad3a"/><stop offset=".641" stop-color="#6cab3a"/><stop offset=".645" stop-color="#6aaa3a"/><stop offset=".648" stop-color="#67a83a"/><stop offset=".652" stop-color="#65a73a"/><stop offset=".656" stop-color="#62a63a"/><stop offset=".66" stop-color="#60a43a"/><stop offset=".664" stop-color="#5da33a"/><stop offset=".668" stop-color="#5aa23a"/><stop offset=".672" stop-color="#58a13a"/><stop offset=".676" stop-color="#559f3a"/><stop offset=".68" stop-color="#529d39"/><stop offset=".684" stop-color="#4f9c39"/><stop offset=".688" stop-color="#4c9b39"/><stop offset=".691" stop-color="#4b9a39"/><stop offset=".695" stop-color="#489839"/><stop offset=".699" stop-color="#459739"/><stop offset=".703" stop-color="#429639"/><stop offset=".707" stop-color="#3f9439"/><stop offset=".711" stop-color="#3c9339"/><stop offset=".715" stop-color="#399239"/><stop offset=".719" stop-color="#369139"/><stop offset=".723" stop-color="#328f38"/><stop offset=".727" stop-color="#2e8e38"/><stop offset=".73" stop-color="#2c8d38"/><stop offset=".734" stop-color="#288b38"/><stop offset=".738" stop-color="#248b38"/><stop offset=".742" stop-color="#208937"/><stop offset=".746" stop-color="#1a8837"/><stop offset=".75" stop-color="#158737"/><stop offset=".754" stop-color="#0d8537"/><stop offset=".758" stop-color="#038437"/><stop offset=".762" stop-color="#008336"/><stop offset=".766" stop-color="#008236"/><stop offset=".77" stop-color="#008136"/><stop offset=".773" stop-color="#007f35"/><stop offset=".777" stop-color="#007e35"/><stop offset=".781" stop-color="#007d35"/><stop offset=".785" stop-color="#007c35"/><stop offset=".789" stop-color="#007b35"/><stop offset=".793" stop-color="#007934"/><stop offset=".797" stop-color="#007934"/><stop offset=".801" stop-color="#007734"/><stop offset=".805" stop-color="#007634"/><stop offset=".809" stop-color="#007533"/><stop offset=".813" stop-color="#007433"/><stop offset=".816" stop-color="#007333"/><stop offset=".82" stop-color="#007232"/><stop offset=".824" stop-color="#007132"/><stop offset=".828" stop-color="#007032"/><stop offset=".832" stop-color="#006f31"/><stop offset=".836" stop-color="#006e31"/><stop offset=".84" stop-color="#006c30"/><stop offset=".844" stop-color="#006c30"/><stop offset=".848" stop-color="#006b30"/><stop offset=".852" stop-color="#006a30"/><stop offset=".855" stop-color="#00692f"/><stop offset=".859" stop-color="#00682f"/><stop offset=".863" stop-color="#00672e"/><stop offset=".867" stop-color="#00652e"/><stop offset=".871" stop-color="#00652e"/><stop offset=".875" stop-color="#00652e"/><stop offset="1" stop-color="#00652e"/></linearGradient><clipPath id="n"><path d="M228 1h76v96h-76zm0 0"/></clipPath><clipPath id="o"><path d="M228.648 7.258L269.113 1l40.696 5.719-2.051 13.933v45.29c-6.395 20.484-22.031 26.308-37.727 35.41-16.988-7.207-33.187-18.536-38.98-33.883V22.047zm0 0"/></clipPath><clipPath id="p"><path d="M303.863-22.445l-23.246 1.023L213.523 77l8.13 19.43zm0 0"/></clipPath><linearGradient id="q" gradientUnits="userSpaceOnUse" x1=".194" x2=".863" gradientTransform="matrix(129.25471 125.39474 126.18603 -130.07036 125.517 57.026)"><stop offset="0" stop-color="#a6ce38"/><stop offset=".25" stop-color="#a6ce38"/><stop offset=".313" stop-color="#a6ce38"/><stop offset=".32" stop-color="#a6ce38"/><stop offset=".324" stop-color="#a3cc39"/><stop offset=".328" stop-color="#a0ca38"/><stop offset=".332" stop-color="#9dc838"/><stop offset=".336" stop-color="#9ac639"/><stop offset=".34" stop-color="#97c439"/><stop offset=".344" stop-color="#94c239"/><stop offset=".348" stop-color="#91c039"/><stop offset=".352" stop-color="#8dbe39"/><stop offset=".355" stop-color="#8abc39"/><stop offset=".359" stop-color="#87bb39"/><stop offset=".363" stop-color="#85b93a"/><stop offset=".367" stop-color="#82b83a"/><stop offset=".371" stop-color="#7eb63a"/><stop offset=".375" stop-color="#7bb43a"/><stop offset=".379" stop-color="#79b23a"/><stop offset=".383" stop-color="#76b13a"/><stop offset=".387" stop-color="#73af3a"/><stop offset=".391" stop-color="#70ae3a"/><stop offset=".395" stop-color="#6dac3a"/><stop offset=".398" stop-color="#6baa3a"/><stop offset=".402" stop-color="#68a83a"/><stop offset=".406" stop-color="#64a73a"/><stop offset=".41" stop-color="#61a53a"/><stop offset=".414" stop-color="#5fa43a"/><stop offset=".418" stop-color="#5ca23a"/><stop offset=".422" stop-color="#58a13a"/><stop offset=".426" stop-color="#559f3a"/><stop offset=".43" stop-color="#529d39"/><stop offset=".434" stop-color="#4f9c39"/><stop offset=".438" stop-color="#4c9a39"/><stop offset=".441" stop-color="#489939"/><stop offset=".445" stop-color="#459739"/><stop offset=".449" stop-color="#429639"/><stop offset=".453" stop-color="#3f9439"/><stop offset=".457" stop-color="#3b9339"/><stop offset=".461" stop-color="#379138"/><stop offset=".465" stop-color="#349038"/><stop offset=".469" stop-color="#308f38"/><stop offset=".473" stop-color="#2c8d38"/><stop offset=".477" stop-color="#278b38"/><stop offset=".48" stop-color="#228a37"/><stop offset=".484" stop-color="#1d8837"/><stop offset=".488" stop-color="#178737"/><stop offset=".492" stop-color="#0d8637"/><stop offset=".496" stop-color="#038437"/><stop offset=".5" stop-color="#008336"/><stop offset=".504" stop-color="#008136"/><stop offset=".508" stop-color="#008036"/><stop offset=".512" stop-color="#007e35"/><stop offset=".516" stop-color="#007d35"/><stop offset=".52" stop-color="#007c35"/><stop offset=".523" stop-color="#007b35"/><stop offset=".527" stop-color="#007934"/><stop offset=".531" stop-color="#007834"/><stop offset=".535" stop-color="#073"/><stop offset=".539" stop-color="#007533"/><stop offset=".543" stop-color="#007433"/><stop offset=".547" stop-color="#007333"/><stop offset=".551" stop-color="#007232"/><stop offset=".555" stop-color="#007032"/><stop offset=".559" stop-color="#006f31"/><stop offset=".563" stop-color="#006e31"/><stop offset=".566" stop-color="#006c30"/><stop offset=".57" stop-color="#006c30"/><stop offset=".574" stop-color="#006a30"/><stop offset=".578" stop-color="#00692f"/><stop offset=".582" stop-color="#00682f"/><stop offset=".586" stop-color="#00672e"/><stop offset=".59" stop-color="#00662e"/><stop offset=".594" stop-color="#00652e"/><stop offset=".625" stop-color="#00652e"/><stop offset=".75" stop-color="#00652e"/><stop offset="1" stop-color="#00652e"/></linearGradient><clipPath id="r"><path d="M238 1h72v101h-72zm0 0"/></clipPath><clipPath id="s"><path d="M228.648 7.258L269.113 1l40.696 5.719-2.051 13.933v45.29c-6.395 20.484-22.031 26.308-37.727 35.41-16.988-7.207-33.187-18.536-38.98-33.883V22.047zm0 0"/></clipPath><clipPath id="t"><path d="M317.691 6.824l-12.3-11.719-67.004 96.97 11.5 13.355zm0 0"/></clipPath><linearGradient id="u" gradientUnits="userSpaceOnUse" x1=".125" x2=".935" gradientTransform="matrix(-120.11101 -63.30666 -71.44385 135.54962 370.416 22.893)"><stop offset="0" stop-color="#0087ca"/><stop offset=".25" stop-color="#0087ca"/><stop offset=".375" stop-color="#0087ca"/><stop offset=".383" stop-color="#0087ca"/><stop offset=".387" stop-color="#0087ca"/><stop offset=".391" stop-color="#0088cb"/><stop offset=".395" stop-color="#0089cb"/><stop offset=".398" stop-color="#008acc"/><stop offset=".402" stop-color="#008bcd"/><stop offset=".406" stop-color="#008cce"/><stop offset=".41" stop-color="#008dcf"/><stop offset=".414" stop-color="#008ed0"/><stop offset=".418" stop-color="#008fd1"/><stop offset=".422" stop-color="#0090d2"/><stop offset=".426" stop-color="#0091d3"/><stop offset=".43" stop-color="#0092d4"/><stop offset=".434" stop-color="#0093d5"/><stop offset=".438" stop-color="#0095d6"/><stop offset=".441" stop-color="#0095d7"/><stop offset=".445" stop-color="#0097d8"/><stop offset=".449" stop-color="#0097d9"/><stop offset=".453" stop-color="#0098da"/><stop offset=".457" stop-color="#0099db"/><stop offset=".461" stop-color="#009adc"/><stop offset=".465" stop-color="#009bdd"/><stop offset=".469" stop-color="#009cde"/><stop offset=".473" stop-color="#009dde"/><stop offset=".477" stop-color="#009ee0"/><stop offset=".48" stop-color="#009fe0"/><stop offset=".484" stop-color="#00a0e2"/><stop offset=".488" stop-color="#00a1e2"/><stop offset=".492" stop-color="#00a2e3"/><stop offset=".496" stop-color="#00a3e4"/><stop offset=".5" stop-color="#00a3e5"/><stop offset=".504" stop-color="#00a5e6"/><stop offset=".508" stop-color="#00a5e7"/><stop offset=".512" stop-color="#00a6e8"/><stop offset=".516" stop-color="#00a7e9"/><stop offset=".52" stop-color="#00a8ea"/><stop offset=".523" stop-color="#00a9eb"/><stop offset=".527" stop-color="#00aaec"/><stop offset=".531" stop-color="#00abed"/><stop offset=".535" stop-color="#00acee"/><stop offset=".539" stop-color="#00aeef"/><stop offset=".547" stop-color="#00aeef"/><stop offset=".563" stop-color="#00aeef"/><stop offset=".625" stop-color="#00aeef"/><stop offset=".75" stop-color="#00aeef"/><stop offset="1" stop-color="#00aeef"/></linearGradient></defs><g clip-path="url(#a)"><path d="M1.897 12.915l3.261 21.821h4.797l-1.279-8.53h10.105l1.279 8.53h4.796l-3.262-21.821h-4.796l1.31 8.945H8.036l-1.342-8.945zm36.56.882a11.017 11.017 0 0 0-2.597-.898 13.747 13.747 0 0 0-2.92-.304c-2.217 0-3.975.644-5.271 1.927-1.295 1.284-1.945 3.036-1.945 5.25 0 2.456.752 4.436 2.25 5.953 1.503 1.513 3.48 2.27 5.936 2.27 1.994 0 3.528-.57 4.61-1.715 1.083-1.146 1.625-2.77 1.625-4.873 0-.261-.005-.526-.02-.803a13.057 13.057 0 0 0-.075-.82l-9.818-.017a2.33 2.33 0 0 0-.015-.234c-.01-.101-.016-.17-.016-.203 0-1.06.315-1.864.944-2.422.629-.554 1.545-.83 2.738-.83.677 0 1.45.126 2.318.382.869.256 1.881.66 3.049 1.214zM30.84 22.34h5.02v.298c0 .768-.18 1.353-.537 1.752-.357.4-.88.602-1.568.602-.708 0-1.304-.224-1.79-.67-.49-.449-.864-1.109-1.125-1.982zm20.839-5.187l1.016 7.008c-.096.01-.201.021-.318.027-.123.005-.3.005-.539.005-1.732 0-3.097-.5-4.109-1.497-1.007-1-1.513-2.342-1.513-4.03 0-.83.197-1.485.585-1.965.39-.48.918-.718 1.584-.718.533 0 1.071.095 1.614.287.549.191 1.109.49 1.68.883zm-.64-4.237l.159 1.149c-.72-.5-1.412-.863-2.073-1.091a6.13 6.13 0 0 0-2.02-.346c-1.577 0-2.824.547-3.752 1.645-.926 1.097-1.39 2.582-1.39 4.456 0 1.316.25 2.541.756 3.68a8.066 8.066 0 0 0 2.18 2.913c1.018.863 2.218 1.475 3.587 1.837 1.37.367 3.56.55 6.581.55h2.437l-2.17-14.793zm7.748 0l3.257 21.821h4.226l-3.257-21.821zm16.158 0l3.263 21.821h4.252l-1.316-8.691c.863.677 1.695 1.172 2.483 1.48a6.66 6.66 0 0 0 2.483.47c1.258 0 2.244-.363 2.953-1.082.715-.724 1.072-1.714 1.072-2.972a11.147 11.147 0 0 0-.123-1.64l-1.407-9.386h-4.349L85.6 21.85c.01.106.02.245.043.42.052.399.08.66.08.8 0 .536-.112.958-.336 1.256-.223.293-.538.441-.944.441-.554 0-1.145-.18-1.774-.549-.629-.361-1.305-.916-2.02-1.666l-1.454-9.637zm32.397 7.954h4.951l-1.252 8.34zm-8.67-7.954l10.419 21.821h5.34l3.682-21.821h-4.604l-.735 4.76h-6.822l-2.073-4.76zm19.921 1.053l.484 3.355.155-.063c2.048-.768 3.507-1.151 4.381-1.151.342 0 .63.085.863.256.234.17.353.383.353.633 0 .437-.449.985-1.338 1.65-.533.396-.95.731-1.248.996-.948.858-1.582 1.562-1.912 2.114a3.558 3.558 0 0 0-.491 1.822c0 1.298.496 2.359 1.493 3.185.99.819 2.275 1.23 3.847 1.23a8.7 8.7 0 0 0 2.281-.314 12.132 12.132 0 0 0 2.355-.938l-.25-3.51c-.874.426-1.663.757-2.372.99-.708.235-1.274.353-1.69.353-.318 0-.59-.075-.804-.218-.212-.145-.32-.33-.32-.56 0-.446.518-1.059 1.546-1.826.533-.405.943-.735 1.237-.985.788-.655 1.338-1.251 1.63-1.795.299-.538.448-1.161.448-1.869 0-1.352-.506-2.476-1.524-3.365-1.013-.89-2.309-1.331-3.88-1.331-.831 0-1.69.111-2.58.335-.89.223-1.78.56-2.664 1.006zm11.772 0l.485 3.355.155-.063c2.046-.768 3.507-1.151 4.38-1.151.341 0 .629.085.864.256.234.17.351.383.351.633 0 .437-.447.985-1.338 1.65-.533.396-.947.731-1.246.996-.95.858-1.583 1.562-1.914 2.114a3.57 3.57 0 0 0-.49 1.822c0 1.298.496 2.359 1.493 3.185.991.819 2.276 1.23 3.848 1.23.756 0 1.517-.108 2.28-.314a12.108 12.108 0 0 0 2.356-.938l-.25-3.51c-.875.426-1.663.757-2.373.99-.707.235-1.273.353-1.689.353-.32 0-.592-.075-.805-.218-.213-.145-.319-.33-.319-.56 0-.446.516-1.059 1.546-1.826.531-.405.942-.735 1.235-.985.79-.655 1.338-1.251 1.631-1.795.3-.538.447-1.161.447-1.869 0-1.352-.506-2.476-1.522-3.365-1.014-.89-2.309-1.331-3.881-1.331-.832 0-1.69.111-2.58.335-.889.223-1.779.56-2.664 1.006zm14.388 13.74h4.35l-1.343-8.936c-.037-.272-.07-.512-.09-.725a5.508 5.508 0 0 1-.033-.495c0-.538.112-.958.336-1.256.224-.293.538-.443.943-.443.575 0 1.183.192 1.823.57.64.378 1.285.927 1.945 1.645l1.434 9.64h4.295l-2.217-14.793h-4.28l.252 1.655c-.811-.665-1.616-1.161-2.414-1.475a6.76 6.76 0 0 0-2.506-.468c-1.258 0-2.244.362-2.953 1.08-.713.72-1.07 1.715-1.07 2.983a10.848 10.848 0 0 0 .121 1.629zm14.998-14.793l2.217 14.792h4.274l-.283-2.045c.837.932 1.493 1.555 1.978 1.863.48.315.974.47 1.47.47.4 0 .821-.081 1.268-.245.449-.166.917-.417 1.419-.745l-2.074-4.506c-.4.426-.762.74-1.092.943-.335.202-.651.303-.954.303-.426 0-.863-.17-1.3-.506-.443-.34-.885-.842-1.322-1.507l-1.311-8.817zm0 0" transform="matrix(2.7702 0 0 -2.94702 1 207.372)" fill="none" stroke-width="3.837" stroke="#e7e8e9" stroke-miterlimit="2.613"/></g><path d="M6.254 169.313l9.039-64.31h13.285l-3.543 25.142h27.992l3.543-25.141h13.285l-9.035 64.308H47.535l3.63-26.363H23.261l-3.719 26.363zm101.277-2.602a29.312 29.312 0 0 1-7.191 2.648c-2.598.598-5.281.895-8.09.895-6.14 0-11.012-1.899-14.602-5.68-3.585-3.781-5.386-8.945-5.386-15.472 0-7.235 2.082-13.07 6.23-17.543 4.164-4.457 9.64-6.688 16.445-6.688 5.524 0 9.774 1.68 12.77 5.055 3 3.375 4.504 8.16 4.504 14.36 0 .769-.016 1.55-.059 2.366a40.877 40.877 0 0 1-.207 2.418l-27.195.047c0 .156-.012.375-.043.692-.027.296-.043.5-.043.597 0 3.121.871 5.492 2.613 7.137 1.743 1.633 4.282 2.45 7.586 2.45 1.875 0 4.016-.376 6.422-1.13 2.406-.754 5.211-1.945 8.445-3.578zm-21.097-25.172h13.906v-.879c0-2.262-.5-3.988-1.488-5.164-.989-1.176-2.438-1.773-4.344-1.773-1.961 0-3.613.66-4.957 1.976-1.36 1.32-2.395 3.266-3.117 5.84zm57.726 15.285l2.817-20.652a12.605 12.605 0 0 0-.883-.078c-.34-.016-.828-.016-1.492-.016-4.797 0-8.579 1.473-11.383 4.41-2.79 2.95-4.192 6.903-4.192 11.88 0 2.448.543 4.378 1.621 5.788 1.079 1.414 2.543 2.121 4.387 2.121 1.477 0 2.965-.285 4.473-.851 1.52-.563 3.07-1.442 4.652-2.602zm-1.773 12.488l.441-3.386c-1.992 1.472-3.91 2.543-5.742 3.215a16.067 16.067 0 0 1-5.594 1.02c-4.37 0-7.824-1.614-10.394-4.849-2.57-3.234-3.852-7.609-3.852-13.132 0-3.88.692-7.489 2.094-10.844 1.406-3.36 3.41-6.215 6.039-8.586 2.82-2.543 6.14-4.348 9.937-5.414 3.793-1.082 9.86-1.617 18.23-1.617h6.747l-6.008 43.594zm21.465 0l9.02-64.308h11.706l-9.02 64.308zm44.761 0l9.035-64.308h11.782l-3.645 25.613c2.39-1.996 4.695-3.453 6.88-4.363a17.48 17.48 0 0 1 6.878-1.383c3.484 0 6.215 1.07 8.18 3.188 1.98 2.132 2.968 5.054 2.968 8.757 0 .86-.03 1.696-.09 2.508a35.652 35.652 0 0 1-.25 2.324l-3.898 27.665h-12.047l3.719-26.333c.031-.312.059-.722.121-1.238.145-1.176.219-1.945.219-2.355 0-1.582-.309-2.825-.93-3.703-.617-.864-1.492-1.301-2.613-1.301-1.535 0-3.172.531-4.914 1.617-1.742 1.066-3.617 2.7-5.598 4.91l-4.031 28.403zm89.746-23.44h13.715l-3.469-24.579zm-24.02 23.44l28.864-64.308h14.793l10.2 64.308H315.44l-2.039-14.027h-18.894l-5.746 14.028zm55.184-3.105l1.344-9.887.43.188c5.668 2.262 9.715 3.39 12.137 3.39.945 0 1.742-.25 2.39-.753.649-.5.977-1.13.977-1.868 0-1.285-1.242-2.902-3.707-4.863-1.477-1.164-2.63-2.152-3.457-2.934-2.625-2.527-4.383-4.601-5.297-6.23a11.003 11.003 0 0 1-1.36-5.367c0-3.828 1.372-6.953 4.133-9.387 2.746-2.414 6.305-3.625 10.66-3.625 2.094 0 4.207.317 6.317.926 2.098.613 4.281 1.523 6.527 2.762l-.695 10.343c-2.422-1.254-4.606-2.23-6.57-2.918-1.961-.691-3.528-1.039-4.68-1.039-.887 0-1.637.223-2.227.645-.593.426-.886.972-.886 1.648 0 1.317 1.43 3.121 4.28 5.383a79.032 79.032 0 0 1 3.427 2.902c2.183 1.93 3.703 3.688 4.515 5.29.828 1.585 1.242 3.421 1.242 5.507 0 3.985-1.406 7.297-4.222 9.918-2.805 2.621-6.395 3.922-10.746 3.922-2.305 0-4.684-.328-7.149-.988-2.465-.656-4.93-1.649-7.383-2.965zm32.614 0l1.343-9.887.43.188c5.668 2.262 9.711 3.39 12.133 3.39.945 0 1.742-.25 2.39-.753.653-.5.977-1.13.977-1.868 0-1.285-1.242-2.902-3.707-4.863-1.476-1.164-2.625-2.152-3.453-2.934-2.629-2.527-4.387-4.601-5.3-6.23a11.046 11.046 0 0 1-1.36-5.367c0-3.828 1.375-6.953 4.137-9.387 2.746-2.414 6.304-3.625 10.656-3.625 2.097 0 4.207.317 6.32.926 2.094.613 4.281 1.523 6.524 2.762l-.692 10.343c-2.422-1.254-4.605-2.23-6.57-2.918-1.965-.691-3.527-1.039-4.68-1.039-.887 0-1.64.223-2.23.645-.59.426-.887.972-.887 1.648 0 1.317 1.434 3.121 4.281 5.383a79.032 79.032 0 0 1 3.426 2.902c2.188 1.93 3.707 3.688 4.52 5.29.824 1.585 1.238 3.421 1.238 5.507 0 3.985-1.403 7.297-4.223 9.918-2.805 2.621-6.39 3.922-10.746 3.922-2.305 0-4.68-.328-7.144-.988-2.465-.656-4.934-1.649-7.383-2.965zm39.86-40.488h12.046l-3.719 26.332c-.101.8-.191 1.508-.25 2.137a15.73 15.73 0 0 0-.09 1.457c0 1.585.309 2.824.93 3.703.621.867 1.492 1.304 2.613 1.304 1.594 0 3.278-.566 5.047-1.68 1.774-1.113 3.559-2.73 5.39-4.847l3.974-28.406h11.898l-6.14 43.594H421.84l.691-4.88c-2.242 1.962-4.472 3.422-6.687 4.348-2.2.926-4.516 1.38-6.938 1.38-3.484 0-6.215-1.067-8.18-3.184-1.976-2.118-2.964-5.055-2.964-8.79 0-.832.027-1.664.086-2.464.058-.817.148-1.598.25-2.336zm41.542 43.594l6.145-43.594h11.84l-.786 6.027c2.32-2.746 4.133-4.582 5.477-5.492 1.332-.926 2.703-1.383 4.074-1.383 1.11 0 2.277.238 3.516.723 1.238.488 2.539 1.226 3.925 2.199l-5.742 13.273c-1.105-1.254-2.11-2.18-3.023-2.777-.934-.594-1.805-.894-2.645-.894-1.18 0-2.39.503-3.601 1.492-1.227 1.004-2.453 2.48-3.664 4.441l-3.63 25.984zm0 0" fill="#d1d3d4"/><g clip-path="url(#b)"><path d="M204.234 113.45c3.899 0 6.641 3.323 6.125 7.421-.359 2.86-2.21 5.34-4.62 6.578h1.96c13.32.301 19.723 2.942 24.188 7.375-8.672-1.176-18.992-4.492-23.93-.242-3.098 10.414-3.93 20.031-3.371 27.703 1.27 3.485 3.664 5.195 7.062 5.332-9.085 2.59-16.82 2.828-17.386-10.984-4.227 5.383-7.887 14.074-12.117 24.023.648-11.133 4.082-25.98 12.027-45.027l-20.567 6.914c5.59-8.875 15.43-10.973 25.239-15.094h.36c-2.099-1.238-3.321-3.719-2.966-6.578.52-4.098 4.098-7.422 7.996-7.422zm0 0" fill="none" stroke-width="11.30717434" stroke="#e7e8e9" stroke-miterlimit="2.613"/></g><path d="M204.234 113.45c3.899 0 6.641 3.323 6.125 7.421-.359 2.86-2.21 5.34-4.62 6.578h1.96c13.32.301 19.723 2.938 24.188 7.375-8.672-1.176-18.992-4.492-23.93-.242-3.094 10.414-3.93 20.031-3.371 27.7 1.27 3.488 3.668 5.198 7.062 5.335-9.085 2.59-16.82 2.828-17.386-10.984-4.23 5.383-7.887 14.074-12.117 24.023.648-11.133 4.082-25.984 12.027-45.027l-20.567 6.914c5.59-8.875 15.43-10.977 25.243-15.094h.355c-2.098-1.238-3.32-3.719-2.96-6.578.515-4.098 4.093-7.422 7.991-7.422" fill-rule="evenodd" fill="#d1d3d4"/><g clip-path="url(#c)"><g clip-path="url(#d)"><path d="M5.348 105.02l472.293-6.563.996 71.785-472.29 6.563zm0 0" fill="url(#e)"/></g></g><path d="M204.234 113.45c3.899 0 6.641 3.323 6.125 7.421-.359 2.86-2.21 5.34-4.62 6.578h1.96c13.32.301 19.723 2.938 24.188 7.375-8.672-1.176-18.992-4.492-23.93-.242-3.094 10.414-3.93 20.031-3.371 27.7 1.27 3.488 3.668 5.198 7.062 5.335-9.085 2.59-16.82 2.828-17.386-10.984-4.23 5.383-7.887 14.074-12.117 24.023.648-11.133 4.082-25.984 12.027-45.027l-20.567 6.914c5.59-8.875 15.43-10.977 25.243-15.094h.355c-2.098-1.238-3.32-3.719-2.96-6.578.515-4.098 4.093-7.422 7.991-7.422" fill-rule="evenodd" fill="#0087ca"/><path d="M222.957 200.75c0-.348.121-.652.363-.895.246-.246.547-.367.907-.367.355 0 .66.121.906.367.25.243.37.547.37.895 0 .355-.12.66-.37.906a1.23 1.23 0 0 1-.906.38c-.352 0-.653-.13-.899-.38a1.223 1.223 0 0 1-.371-.906zm6.172 0c0-.348.121-.652.363-.895.242-.246.547-.367.906-.367.356 0 .66.121.907.367.246.243.37.547.37.895 0 .355-.124.66-.37.906a1.23 1.23 0 0 1-.907.38c-.351 0-.656-.13-.898-.38a1.223 1.223 0 0 1-.371-.906zm6.172 0c0-.348.12-.652.363-.895.242-.246.547-.367.906-.367.352 0 .66.121.903.367.25.243.375.547.375.895 0 .355-.125.66-.375.906-.243.25-.551.38-.903.38-.351 0-.656-.13-.898-.38a1.223 1.223 0 0 1-.371-.906zm9.082-3.613c-.059.347-.11.648-.14.898-.032.242-.052.461-.052.645 0 .46.118.8.344 1.03.23.224.57.34 1.035.34.262 0 .551-.054.868-.163a4.64 4.64 0 0 0 .984-.48v1.94c-.469.243-.91.423-1.328.536-.41.117-.805.176-1.172.176-.883 0-1.602-.274-2.152-.82-.555-.548-.836-1.266-.836-2.165 0-.238.023-.508.062-.8.04-.294.11-.688.215-1.188l.98-4.75h-1.867l.348-1.566h1.887l.539-2.329h2.175l-.511 2.329h2.175l-.359 1.566h-2.187zm6.637 4.675h-2.055l1.648-11.042h2.055l-.3 2.074c.538-.844 1.027-1.43 1.456-1.758a2.299 2.299 0 0 1 1.871-.441c.157.035.317.082.493.148l-.551 1.984a2.553 2.553 0 0 0-.313-.058 2.498 2.498 0 0 0-.293-.016c-.613 0-1.168.227-1.66.684-.492.46-.965 1.191-1.422 2.187zm14.27 0h-2.075l.2-1.375c-.43.543-.888.946-1.364 1.204a3.183 3.183 0 0 1-1.555.394c-1.07 0-1.96-.422-2.676-1.258-.715-.836-1.066-1.894-1.066-3.168 0-.75.121-1.48.363-2.199a6.975 6.975 0 0 1 1.047-1.988c.719-.942 1.55-1.617 2.5-2.035.95-.41 2.176-.617 3.684-.617h2.566zm-1.567-3.406l.836-5.824a1.509 1.509 0 0 0-.211-.023c-.082-.004-.196-.004-.348-.004-1.465 0-2.66.449-3.582 1.351-.926.903-1.387 2.059-1.387 3.469 0 .871.196 1.57.59 2.098.39.53.906.797 1.535.797.485 0 .942-.157 1.375-.465.43-.309.828-.782 1.192-1.399zm4.191 3.406l1.676-11.042h2.125l-.274 1.765c.688-.683 1.352-1.195 1.997-1.535.644-.336 1.285-.5 1.921-.5.832 0 1.477.266 1.938.793.457.531.683 1.277.683 2.246 0 .242-.011.504-.035.785a14.82 14.82 0 0 1-.11.903l-.98 6.585h-2.128l1.003-7.12c.032-.235.055-.446.07-.637.016-.188.024-.344.024-.465 0-.43-.105-.758-.32-.973-.219-.222-.535-.332-.957-.332-.508 0-1.043.188-1.602.563-.554.375-1.132.933-1.718 1.675l-1.172 7.29zm11.488-1.304l.512-2.051c.742.598 1.375 1.02 1.899 1.277.523.258 1.011.391 1.464.391.434 0 .79-.11 1.067-.324.281-.211.422-.485.422-.813 0-.508-.66-1.218-1.97-2.133l-.042-.035c-1.035-.726-1.688-1.308-1.973-1.746-.281-.441-.426-.953-.426-1.535 0-.902.325-1.629.965-2.184.64-.554 1.493-.832 2.563-.832a5.795 5.795 0 0 1 3.504 1.145l-.18 2.234c-.629-.496-1.23-.87-1.805-1.12-.574-.25-1.113-.372-1.613-.372-.39 0-.707.09-.941.27a.83.83 0 0 0-.36.699c0 .434.504 1 1.52 1.703.465.324.832.578 1.105.781.68.524 1.157 1.016 1.426 1.465.27.453.406.965.406 1.55 0 .923-.336 1.68-1.007 2.27-.676.59-1.54.887-2.594.887a5.331 5.331 0 0 1-1.95-.37c-.636-.243-1.3-.626-1.992-1.157zm11.325-11.055c.277-1.613.789-2.77 1.53-3.476.74-.707 1.805-1.063 3.192-1.063.488 0 .965.05 1.43.145.469.097.922.242 1.36.445l-.262 1.867a5.95 5.95 0 0 0-1.317-.5 5.667 5.667 0 0 0-1.351-.168c-.727 0-1.305.211-1.723.64-.426.427-.7 1.071-.824 1.93l-.254 1.497h2.308l-.253 1.859h-2.317l-2.058 13.715h-2.016l2.043-13.715h-1.774l.274-1.86h1.785zm4.273 7.66c0-1.84.52-3.398 1.563-4.675 1.039-1.278 2.28-1.915 3.726-1.915 1.352 0 2.422.442 3.207 1.32.785.884 1.18 2.09 1.18 3.634 0 1.89-.52 3.453-1.555 4.695-1.039 1.242-2.34 1.863-3.91 1.863-1.309 0-2.336-.437-3.086-1.312-.746-.875-1.125-2.078-1.125-3.61zm5.363-4.828c-.836 0-1.562.492-2.183 1.469-.614.98-.926 2.156-.926 3.527 0 .946.183 1.684.555 2.227.37.543.875.812 1.503.812.91 0 1.66-.472 2.25-1.414.59-.937.883-2.16.883-3.656 0-.938-.18-1.668-.543-2.188-.363-.519-.875-.777-1.539-.777zm7.715 9.528h-2.05l1.648-11.043h2.05l-.296 2.074c.539-.844 1.023-1.43 1.457-1.758a2.299 2.299 0 0 1 1.87-.441c.153.035.317.082.493.148l-.55 1.984a2.553 2.553 0 0 0-.313-.058 2.61 2.61 0 0 0-.297-.016c-.61 0-1.164.227-1.656.684-.493.46-.97 1.191-1.426 2.187zm5.563 0l1.675-11.043h2.125l-.246 1.542c.618-.609 1.23-1.062 1.836-1.363.606-.3 1.215-.449 1.828-.449.704 0 1.278.184 1.723.55.445.368.734.895.86 1.583.788-.75 1.511-1.293 2.163-1.633a4.26 4.26 0 0 1 1.973-.5c.836 0 1.48.25 1.926.758.445.508.668 1.246.668 2.207 0 .2-.016.453-.047.758-.035.3-.074.632-.133.992l-.976 6.597h-2.133l1.055-7.148.078-.586c.02-.183.027-.355.027-.516 0-.425-.106-.753-.324-.968-.215-.223-.535-.332-.953-.332-.512 0-1.047.187-1.606.562-.555.371-1.129.93-1.719 1.676l-1.09 7.313h-2.101l1.055-7.149c.03-.207.054-.402.078-.586.02-.183.027-.355.027-.516 0-.425-.105-.753-.324-.968-.215-.223-.535-.332-.953-.332-.512 0-1.047.187-1.606.562-.554.371-1.129.93-1.718 1.676l-1.028 7.313zm20.25-14.481c0-.328.113-.605.343-.828.23-.227.508-.34.832-.34.32 0 .594.113.817.344.226.226.336.504.336.824 0 .32-.11.594-.336.82a1.114 1.114 0 0 1-.817.336c-.336 0-.617-.11-.84-.328a1.113 1.113 0 0 1-.335-.828zm.144 14.48h-2.129l1.614-11.042h2.136zm3.043 0l1.676-11.042h2.125l-.274 1.765c.688-.683 1.352-1.195 1.997-1.535.644-.336 1.285-.5 1.921-.5.832 0 1.473.266 1.938.793.457.531.684 1.277.684 2.246 0 .242-.012.504-.036.785a14.82 14.82 0 0 1-.109.903l-.98 6.585h-2.13l1.005-7.12c.03-.235.054-.446.07-.637.015-.188.023-.344.023-.465 0-.43-.105-.758-.32-.973-.219-.222-.535-.332-.957-.332-.508 0-1.043.188-1.602.563-.554.375-1.132.933-1.718 1.675l-1.172 7.29zm14.059-6.777c0 .617.187 1.137.566 1.555.379.41.844.62 1.399.62.609 0 1.128-.241 1.546-.722.418-.488.63-1.086.63-1.8 0-.649-.176-1.168-.532-1.567-.355-.394-.824-.59-1.41-.59-.637 0-1.164.235-1.578.7-.414.468-.621 1.066-.621 1.804zm1.449 7.781c-1.149.329-1.914.602-2.293.825-.387.226-.578.476-.578.765 0 .422.234.758.7 1.004.468.246 1.108.371 1.92.371.813 0 1.446-.12 1.895-.351.454-.239.676-.563.676-.977 0-.344-.18-.644-.539-.902-.355-.258-.953-.5-1.781-.735zm-1.844-.586c-.664-.3-1.129-.585-1.39-.87a1.405 1.405 0 0 1-.395-.997c0-.433.172-.824.516-1.183.34-.36.84-.657 1.492-.899-.606-.324-1.05-.75-1.348-1.277-.293-.527-.441-1.16-.441-1.902 0-1.375.453-2.446 1.363-3.2.91-.754 2.195-1.132 3.856-1.132h4.289l-.25 1.687h-1.887c.277.324.48.656.61 1.012.136.355.198.734.198 1.144 0 .856-.226 1.637-.68 2.332a4.04 4.04 0 0 1-1.866 1.528c-.551.23-1.211.41-1.973.535l-.313.062c-.535.086-.918.196-1.14.332-.23.13-.344.293-.344.493 0 .417.555.761 1.664 1.039.602.16 1.074.296 1.426.41 1.058.336 1.808.722 2.25 1.16.437.441.66 1 .66 1.684 0 .953-.422 1.718-1.262 2.308-.84.582-1.964.875-3.375.875-1.41 0-2.543-.258-3.406-.77-.86-.515-1.289-1.171-1.289-1.968 0-.582.266-1.086.797-1.508.527-.422 1.273-.719 2.238-.895zm14.403-.417l2.5-16.727h2.101l-1.098 7.426c.692-.68 1.364-1.184 2.008-1.516.645-.332 1.29-.496 1.938-.496.836 0 1.48.258 1.933.781.453.524.684 1.266.684 2.235 0 .23-.012.488-.04.77-.023.28-.054.589-.105.913l-.984 6.613h-2.125l.898-6.12a41.69 41.69 0 0 0 .2-1.41c.03-.278.05-.493.05-.645 0-.465-.105-.813-.312-1.047-.207-.235-.523-.352-.941-.352-.489 0-1.02.196-1.606.59-.578.399-1.215 1-1.91 1.813l-1.05 7.172zm20.695-3.231l-.348 2.227a7.732 7.732 0 0 1-1.887.941 5.794 5.794 0 0 1-1.855.309c-1.39 0-2.527-.489-3.418-1.461-.89-.973-1.336-2.227-1.336-3.758 0-1.836.508-3.348 1.516-4.547 1.008-1.195 2.281-1.793 3.82-1.793 1.277 0 2.254.371 2.93 1.117.68.742 1.02 1.817 1.02 3.207v1.258H379.3l-.051.73v.274c0 .902.258 1.652.777 2.258.516.601 1.16.902 1.914.902.598 0 1.204-.133 1.825-.398.617-.258 1.308-.684 2.074-1.266zm-6.192-4.043h4.649v-.297c0-.62-.172-1.113-.516-1.48-.344-.367-.808-.547-1.398-.547-.695 0-1.262.187-1.703.566-.442.375-.79.961-1.032 1.758zm16.864 7.274h-2.078l.203-1.375c-.43.542-.887.945-1.364 1.203-.48.261-.996.394-1.558.394-1.067 0-1.957-.422-2.672-1.258-.715-.836-1.07-1.894-1.07-3.168 0-.75.125-1.48.363-2.199a7.086 7.086 0 0 1 1.05-1.988c.72-.942 1.551-1.617 2.497-2.035.953-.41 2.176-.617 3.687-.617h2.567zm-1.567-3.407l.836-5.824a1.58 1.58 0 0 0-.21-.023c-.083-.004-.196-.004-.348-.004-1.465 0-2.66.449-3.582 1.351-.93.903-1.391 2.059-1.391 3.469 0 .871.195 1.57.594 2.098.39.53.906.797 1.535.797.484 0 .941-.157 1.375-.465.43-.309.828-.782 1.191-1.399zm6.91-13.32h2.18l-2.523 16.726h-2.18zm6.2 12.05c-.059.348-.11.65-.14.9a4.56 4.56 0 0 0-.052.644c0 .46.114.8.344 1.03.227.224.57.34 1.031.34.266 0 .551-.054.871-.163.313-.106.641-.266.985-.48v1.94c-.473.243-.91.423-1.328.536a4.31 4.31 0 0 1-1.172.176c-.887 0-1.606-.274-2.156-.82-.555-.548-.833-1.266-.833-2.165 0-.238.02-.508.063-.8.035-.294.11-.688.21-1.188l.985-4.75h-1.87l.347-1.566h1.89l.54-2.329h2.175l-.515 2.329h2.175l-.359 1.566h-2.187zm4.554 4.677l2.5-16.727h2.102l-1.098 7.426c.692-.68 1.364-1.184 2.008-1.516.645-.332 1.29-.496 1.938-.496.836 0 1.484.258 1.937.781.453.524.68 1.266.68 2.235 0 .23-.012.488-.035.77-.028.28-.059.589-.11.913l-.98 6.613h-2.13l.9-6.12c.1-.665.167-1.133.199-1.41.035-.278.05-.493.05-.645 0-.465-.101-.813-.312-1.047-.207-.235-.52-.352-.942-.352-.484 0-1.02.196-1.605.59-.578.399-1.215 1-1.91 1.813l-1.051 7.172zm20.067-2.743l-.203 2.16a8.015 8.015 0 0 1-1.633.602 6.377 6.377 0 0 1-1.598.203c-1.48 0-2.668-.433-3.562-1.297-.895-.86-1.34-2.004-1.34-3.433 0-1.977.648-3.602 1.95-4.871 1.3-1.274 2.952-1.91 4.96-1.91.352 0 .715.019 1.094.066.383.043.758.11 1.133.195l-.192 1.79c-.328-.063-.629-.11-.902-.141a6.912 6.912 0 0 0-.762-.051c-1.469 0-2.676.437-3.625 1.316-.953.88-1.426 1.992-1.426 3.34 0 .98.262 1.754.778 2.313.52.562 1.234.843 2.144.843.535 0 1.063-.093 1.582-.28a6.983 6.983 0 0 0 1.602-.845zm10.422 2.743h-2.078l.199-1.375c-.43.542-.887.945-1.364 1.203a3.183 3.183 0 0 1-1.554.394c-1.07 0-1.961-.422-2.676-1.258-.71-.836-1.066-1.894-1.066-3.168 0-.75.12-1.48.363-2.199a6.975 6.975 0 0 1 1.047-1.988c.719-.942 1.55-1.617 2.5-2.035.949-.41 2.176-.617 3.683-.617h2.567zm-1.57-3.407l.84-5.824a1.643 1.643 0 0 0-.216-.023c-.082-.004-.195-.004-.347-.004-1.465 0-2.66.449-3.582 1.351-.926.903-1.387 2.059-1.387 3.469 0 .871.195 1.57.59 2.098.394.53.906.797 1.535.797.488 0 .945-.157 1.375-.465.43-.309.828-.782 1.191-1.399zm6.269 3.406h-2.05l1.648-11.042h2.05l-.297 2.074c.54-.844 1.024-1.43 1.457-1.758a2.299 2.299 0 0 1 1.872-.441c.156.035.316.082.492.148l-.551 1.984a2.553 2.553 0 0 0-.313-.058 2.52 2.52 0 0 0-.296-.016c-.61 0-1.164.227-1.657.684-.492.46-.964 1.191-1.422 2.187zm14.578-3.23l-.348 2.227a7.732 7.732 0 0 1-1.886.941 5.812 5.812 0 0 1-1.856.309c-1.39 0-2.527-.489-3.418-1.461-.89-.973-1.336-2.227-1.336-3.758 0-1.836.508-3.348 1.516-4.547 1.008-1.195 2.281-1.793 3.82-1.793 1.278 0 2.254.371 2.93 1.117.68.742 1.02 1.817 1.02 3.207v1.258h-6.981l-.05.73v.274c0 .902.257 1.652.776 2.258.516.601 1.16.902 1.915.902.597 0 1.203-.133 1.824-.398.617-.258 1.308-.684 2.074-1.266zm-6.191-4.043h4.648v-.297c0-.62-.172-1.113-.516-1.48-.343-.367-.808-.547-1.398-.547-.695 0-1.262.187-1.703.566-.442.375-.79.961-1.031 1.758" fill="#0087ca"/><path d="M419.648 112.676v-7.336h3.407c.683 0 1.203.066 1.558.2.356.132.64.362.856.694.21.336.316.704.316 1.106 0 .52-.176.96-.527 1.316-.356.356-.899.582-1.633.68.27.121.473.246.613.363.293.262.575.586.84.977l1.328 2h-1.27l-1.015-1.528a13.12 13.12 0 0 0-.73-1.011 2.42 2.42 0 0 0-.52-.492 1.561 1.561 0 0 0-.46-.192 3.147 3.147 0 0 0-.567-.035h-1.176v3.258zm1.02-4.098h2.184c.464 0 .824-.047 1.086-.14.261-.09.46-.235.593-.438a1.15 1.15 0 0 0 .203-.656c0-.348-.132-.637-.394-.86-.262-.222-.676-.336-1.246-.336h-2.426zm12.18 1.524l1.02.246c-.216.797-.598 1.402-1.15 1.824-.554.418-1.23.625-2.03.625-.825 0-1.497-.16-2.016-.48-.52-.325-.91-.79-1.18-1.399a4.822 4.822 0 0 1-.406-1.965c0-.762.152-1.43.457-1.996.305-.57.742-1 1.305-1.297a3.923 3.923 0 0 1 1.859-.441c.77 0 1.414.183 1.934.558.527.375.89.899 1.097 1.575l-1 .226c-.175-.535-.437-.922-.773-1.164-.34-.246-.766-.367-1.277-.367-.586 0-1.083.137-1.477.406a2.13 2.13 0 0 0-.832 1.086 4.23 4.23 0 0 0-.242 1.41c0 .621.093 1.168.285 1.633.187.465.484.809.883 1.04.402.233.836.347 1.3.347.57 0 1.047-.156 1.442-.469.394-.316.66-.781.8-1.398zm2.414-1.72v-1.023h1.074v1.024zm0 4.294v-1.028h1.074v1.028zm8.988 0h-.945v-5.742c-.227.21-.528.418-.89.625-.372.203-.704.359-.997.46v-.867a5.686 5.686 0 0 0 1.383-.863c.394-.336.676-.66.84-.98h.609zm7.371-.86v.86h-5.086a1.575 1.575 0 0 1 .113-.63c.13-.327.34-.655.63-.972.284-.32.695-.687 1.23-1.105.832-.656 1.398-1.172 1.691-1.555.297-.383.446-.746.446-1.086 0-.355-.133-.656-.403-.902-.265-.246-.617-.367-1.047-.367-.457 0-.82.129-1.097.386-.27.258-.41.618-.414 1.078l-.965-.093c.066-.688.316-1.215.75-1.578.433-.36 1.015-.543 1.746-.543.738 0 1.32.195 1.75.586.433.39.644.875.644 1.453 0 .293-.062.582-.187.867-.125.285-.336.582-.625.898-.293.313-.777.742-1.457 1.29-.567.452-.93.761-1.09.925-.16.16-.293.32-.398.488zm1.024-1.086l.94-.125c.11.512.294.88.552 1.106.261.227.578.34.957.34.445 0 .824-.149 1.129-.442.3-.293.453-.656.453-1.09 0-.414-.14-.757-.426-1.023-.281-.27-.64-.406-1.078-.406-.18 0-.402.035-.668.101l.105-.789c.063.008.114.012.153.012.402 0 .765-.102 1.09-.3.32-.2.48-.509.48-.923 0-.328-.117-.601-.352-.82-.234-.215-.535-.324-.906-.324-.367 0-.676.113-.918.332-.246.223-.402.555-.472 1l-.942-.164c.113-.606.375-1.074.785-1.406.407-.332.918-.5 1.524-.5a2.6 2.6 0 0 1 1.156.257c.356.172.625.407.813.704.187.296.277.609.277.94 0 .317-.086.606-.266.864-.176.258-.441.465-.789.621.453.098.805.305 1.055.621.254.317.379.711.379 1.184 0 .64-.246 1.184-.735 1.629-.488.45-1.109.668-1.855.668-.676 0-1.234-.192-1.68-.574a2.199 2.199 0 0 1-.761-1.493zm5.964.02l.989-.074c.074.46.242.804.507 1.039.266.23.586.344.97.344.46 0 .843-.16 1.155-.489.313-.328.47-.761.47-1.3 0-.512-.15-.918-.45-1.215-.297-.297-.695-.446-1.184-.446-.308 0-.582.067-.824.2-.242.132-.43.304-.57.515l-.89-.12.741-3.77h3.809v.859h-3.059l-.406 1.98c.457-.308.942-.464 1.445-.464.668 0 1.235.222 1.692.668.46.441.691 1.011.691 1.71 0 .66-.203 1.239-.605 1.72-.492.593-1.164.89-2.016.89-.699 0-1.265-.188-1.707-.559-.441-.375-.695-.87-.758-1.488zm5.97-1.695c0-.864.093-1.567.276-2.094.188-.531.465-.938.832-1.223.368-.285.833-.43 1.391-.43.41 0 .77.079 1.082.239.313.16.57.387.77.687.203.297.36.66.472 1.09.118.426.176 1.008.176 1.73 0 .864-.094 1.56-.277 2.087-.188.53-.461.941-.832 1.226-.367.285-.832.43-1.39.43-.74 0-1.321-.25-1.743-.754-.508-.613-.758-1.61-.758-2.988zm.964.004c0 1.207.144 2.011.441 2.406.297.398.66.594 1.094.594.43 0 .797-.2 1.094-.594.293-.403.441-1.203.441-2.406 0-1.207-.148-2.008-.441-2.407-.297-.394-.664-.593-1.106-.593-.433 0-.78.175-1.039.523-.324.45-.484 1.273-.484 2.477zm6.453-.36c-.39-.136-.68-.332-.867-.586a1.495 1.495 0 0 1-.285-.91c0-.535.199-.984.601-1.348.403-.363.934-.546 1.602-.546s1.21.187 1.617.558c.406.375.61.824.61 1.36 0 .34-.09.636-.278.886-.187.254-.469.45-.848.586.47.149.825.383 1.07.711.247.324.368.715.368 1.168 0 .625-.23 1.152-.695 1.578-.465.43-1.075.64-1.832.64-.754 0-1.364-.21-1.829-.64a2.087 2.087 0 0 1-.695-1.601c0-.48.125-.88.38-1.2.253-.32.612-.539 1.081-.656zm-.187-1.531c0 .348.117.633.347.852.235.222.54.332.914.332.368 0 .664-.11.895-.329a1.06 1.06 0 0 0 .344-.804c0-.328-.118-.61-.356-.832-.234-.227-.535-.34-.894-.34-.364 0-.66.113-.895.332a1.05 1.05 0 0 0-.355.789zm-.309 3.39c0 .258.063.508.188.747.125.238.312.425.566.558.254.13.523.196.812.196.454 0 .829-.137 1.118-.414.293-.278.437-.63.437-1.055 0-.434-.148-.793-.45-1.074-.3-.286-.679-.426-1.136-.426-.445 0-.812.14-1.101.422-.29.277-.434.629-.434 1.047zm8.027 2.118v-1.754h-3.34v-.828l3.508-4.754h.774v4.754h1.043v.828h-1.043v1.754zm0-2.582v-3.301l-2.41 3.3zm0 0" fill="#231f20"/><g clip-path="url(#f)"><g clip-path="url(#g)"><g clip-path="url(#h)" clip-rule="evenodd"><path d="M271.223 9.77l-22.278 42.27-36.937-19.47L234.285-9.7zm0 0" fill="url(#i)"/></g></g></g><g clip-path="url(#j)"><g clip-path="url(#k)"><g clip-path="url(#l)" clip-rule="nonzero"><path d="M231.234 69.29l55.121-56.817 56.5 54.812-55.12 56.817zm0 0" fill="url(#m)"/></g></g></g><g clip-path="url(#n)"><g clip-path="url(#o)"><g clip-path="url(#p)" clip-rule="nonzero"><path d="M180.953 50.16l84.16-86.75 86.442 83.86-84.16 86.75zm0 0" fill="url(#q)"/></g></g></g><g clip-path="url(#r)"><g clip-path="url(#s)"><g clip-path="url(#t)" clip-rule="evenodd"><path d="M351.2 22.816L294.28 130.81l-97.289-51.274L253.914-28.46zm0 0" fill="url(#u)"/></g></g></g></svg>