<?xml version="1.0" standalone="no"?>
<!DOCTYPE svg PUBLIC "-//W3C//DTD SVG 20010904//EN"
 "http://www.w3.org/TR/2001/REC-SVG-20010904/DTD/svg10.dtd">
<svg version="1.0" xmlns="http://www.w3.org/2000/svg"
 width="1675.000000pt" height="714.000000pt" viewBox="0 0 1675.000000 714.000000"
 preserveAspectRatio="xMidYMid meet">
<metadata>
Created by potrace 1.15, written by Peter Selinger 2001-2017
</metadata>
<g transform="translate(0.000000,714.000000) scale(0.100000,-0.100000)"
fill="#000000" stroke="none">
<path d="M14500 3406 c0 -119 1 -126 20 -126 18 0 20 7 20 55 l0 55 35 0 c31
0 40 -7 78 -55 23 -30 50 -55 60 -55 15 0 14 6 -13 44 -16 25 -35 48 -40 51
-15 9 -12 25 3 25 21 0 47 34 47 61 0 52 -20 64 -119 67 l-91 4 0 -126z"/>
<path d="M14813 3510 c-58 -35 -69 -139 -20 -196 44 -51 143 -47 181 7 33 48
8 54 -34 9 -72 -77 -175 8 -140 116 12 36 52 64 90 64 11 0 32 -11 46 -26 14
-14 33 -24 42 -22 14 3 11 10 -15 36 -26 26 -39 32 -75 32 -25 0 -56 -8 -75
-20z"/>
<path d="M15889 3520 c-10 -7 -33 -109 -26 -117 3 -2 21 1 40 8 30 11 39 10
61 -5 30 -19 35 -65 10 -90 -22 -23 -71 -20 -84 4 -10 18 -40 29 -40 14 0 -34
57 -66 104 -57 62 12 87 99 41 143 -20 19 -32 22 -66 17 -38 -5 -41 -4 -35 16
3 12 6 28 6 35 0 8 18 12 55 12 30 0 55 4 55 9 0 10 -107 19 -121 11z"/>
<path d="M16102 3523 c-25 -10 -42 -62 -42 -127 0 -54 4 -70 23 -92 32 -37 83
-36 115 2 22 25 24 35 20 107 -3 68 -6 81 -27 98 -22 18 -61 23 -89 12z m68
-31 c19 -15 23 -28 23 -83 0 -82 -14 -109 -53 -109 -39 0 -50 23 -50 104 0 53
4 70 20 86 25 25 32 25 60 2z"/>
<path d="M16296 3507 c-31 -31 -33 -50 -7 -76 17 -17 17 -18 0 -29 -28 -17
-34 -58 -15 -88 24 -35 61 -47 103 -33 54 18 71 74 33 114 -18 20 -19 23 -5
35 37 30 9 87 -47 96 -30 5 -41 2 -62 -19z"/>
<path d="M16518 3449 c-32 -43 -58 -86 -58 -94 0 -11 13 -15 55 -15 54 0 55 0
55 -30 0 -20 5 -30 15 -30 10 0 15 10 15 30 0 23 4 30 20 30 11 0 20 4 20 9 0
5 -9 11 -20 14 -18 5 -20 14 -20 86 0 58 -3 81 -12 80 -7 0 -39 -36 -70 -80z"/>
<path d="M15595 1579 c-124 -12 -155 -18 -156 -32 0 -7 -4 -3 -9 8 -8 19 -9
19 -9 1 -1 -20 -1 -20 -16 0 -13 17 -14 17 -15 2 0 -10 -5 -15 -13 -12 -10 3
-17 -19 -26 -89 -6 -51 -15 -103 -18 -115 l-5 -22 203 2 203 3 12 78 c7 43 14
101 16 130 l3 52 -40 1 c-22 1 -80 -2 -130 -7z"/>
<path d="M14976 1533 c5 -19 -3 -21 -146 -32 -83 -7 -165 -17 -182 -22 -24 -7
-29 -6 -20 3 7 7 12 17 12 23 0 5 -10 -5 -21 -23 -12 -18 -19 -41 -16 -52 3
-10 2 -20 -3 -22 -4 -2 -10 -22 -14 -45 l-6 -43 199 0 c143 0 202 3 207 12 11
18 7 199 -4 210 -8 8 -9 5 -6 -9z"/>
<path d="M14475 1460 c-6 -20 -25 -28 -25 -11 0 11 -155 10 -166 -1 -4 -5 -23
-8 -43 -8 -44 0 -228 -18 -294 -29 -26 -5 -50 -5 -53 0 -8 14 -33 -2 -27 -17
3 -9 12 -13 20 -10 8 3 12 2 9 -3 -3 -5 1 -14 9 -21 8 -7 15 -9 15 -4 0 5 4 4
8 -2 14 -22 72 -44 134 -52 75 -10 190 -4 183 9 -4 5 1 6 9 3 38 -15 265 96
258 126 -1 6 2 9 8 5 9 -6 40 16 40 29 0 3 -18 6 -39 6 -31 0 -41 -4 -46 -20z"/>
</g>
</svg>
