<?xml version="1.0" encoding="utf-8"?>
<!-- Generator: Adobe Illustrator 26.0.0, SVG Export Plug-In . SVG Version: 6.00 Build 0)  -->
<svg version="1.1" id="Layer_1" xmlns="http://www.w3.org/2000/svg" xmlns:xlink="http://www.w3.org/1999/xlink" x="0px" y="0px"
	 viewBox="0 0 3721.11 1004.02" style="enable-background:new 0 0 3721.11 1004.02;" xml:space="preserve">
<style type="text/css">
	.st0{fill:#FE5D39;}
	.st1{fill:#017A87;}
	.st2{fill:#FFF7E5;}
</style>
<path class="st0" d="M646.05,134.54L320.77,772.47h312.45v231.56H93.53c-34.82,0-61.09-14.65-78.8-43.93
	C-3.6,930.2-4.83,900,11.06,869.48l325.28-637.92H22.98L132.32,0h431.26c34.2,0,60.48,14.65,78.8,43.93
	C660.71,73.84,661.93,104.04,646.05,134.54L646.05,134.54z M1300.28,924.4c-52.54,53.08-116.07,79.63-190.58,79.63h-77.89
	c-74.53,0-138.06-26.54-190.59-79.63c-53.15-53.09-79.72-116.84-79.72-191.29V631.52c0-74.44,26.57-137.89,79.72-190.37
	c52.53-53.08,116.06-79.63,190.59-79.63h116.37V256.27c0-10.37-3.98-19.52-11.91-27.45c-7.33-7.33-16.19-10.99-26.57-10.99H803.81
	L913.16,2.74h196.53c73.9,0,137.44,26.54,190.58,79.63c53.15,52.48,79.72,115.93,79.72,190.37v460.37
	C1380,807.56,1353.43,871.31,1300.28,924.4L1300.28,924.4z M1148.18,571.11h-116.37c-10.39,0-19.24,3.66-26.57,10.98
	c-7.95,7.94-11.92,17.09-11.92,27.46v136.37c0,10.98,3.97,20.14,11.92,27.46c7.33,7.94,16.18,11.9,26.57,11.9h77.89
	c10.38,0,19.24-3.96,26.57-11.9c7.93-7.32,11.91-16.47,11.91-27.46V571.11L1148.18,571.11z M2157.93,134.54l-325.28,637.92h312.45
	v231.56h-539.69c-34.82,0-61.09-14.65-78.8-43.93c-18.32-29.89-19.56-60.09-3.66-90.61l325.28-637.92h-313.37L1644.2,0h431.26
	c34.2,0,60.48,14.65,78.8,43.93C2172.59,73.84,2173.81,104.04,2157.93,134.54L2157.93,134.54z M2839.65,924.4
	c-52.54,53.08-116.07,79.63-190.59,79.63h-77.88c-74.53,0-138.06-26.54-190.59-79.63c-53.14-53.09-79.72-116.84-79.72-191.29V2.74
	h231.82v739.52c0,10.98,3.96,20.14,11.91,27.46c7.33,7.94,16.18,11.9,26.58,11.9h77.88c10.38,0,19.25-3.96,26.57-11.9
	c7.93-7.32,11.91-16.47,11.91-27.46V2.74h231.82v730.37C2919.36,807.56,2892.79,871.31,2839.65,924.4L2839.65,924.4z M3641.4,924.4
	c-52.54,53.08-116.07,79.63-190.59,79.63h-77.88c-74.54,0-138.06-26.54-190.59-79.63c-53.14-53.09-79.72-116.84-79.72-191.29V2.74
	h231.82v739.52c0,10.98,3.97,20.14,11.91,27.46c7.33,7.94,16.18,11.9,26.58,11.9h77.88c10.38,0,19.25-3.96,26.57-11.9
	c7.94-7.32,11.92-16.47,11.92-27.46V2.74h231.82v730.37C3721.11,807.56,3694.54,871.31,3641.4,924.4L3641.4,924.4z"/>
</svg>
