<svg xmlns="http://www.w3.org/2000/svg" xml:space="preserve" id="Layer_1" x="0" y="0" style="enable-background:new 0 0 3721.11 1004.02" version="1.1" viewBox="0 0 3721.11 1004.02"><style>.st1{fill:#017a87}.st2{fill:#fff7e5}</style><path d="M646.05 134.54 320.77 772.47h312.45v231.56H93.53c-34.82 0-61.09-14.65-78.8-43.93-18.33-29.9-19.56-60.1-3.67-90.62l325.28-637.92H22.98L132.32 0h431.26c34.2 0 60.48 14.65 78.8 43.93 18.33 29.91 19.55 60.11 3.67 90.61zm654.23 789.86c-52.54 53.08-116.07 79.63-190.58 79.63h-77.89c-74.53 0-138.06-26.54-190.59-79.63-53.15-53.09-79.72-116.84-79.72-191.29V631.52c0-74.44 26.57-137.89 79.72-190.37 52.53-53.08 116.06-79.63 190.59-79.63h116.37V256.27c0-10.37-3.98-19.52-11.91-27.45-7.33-7.33-16.19-10.99-26.57-10.99H803.81L913.16 2.74h196.53c73.9 0 137.44 26.54 190.58 79.63 53.15 52.48 79.72 115.93 79.72 190.37v460.37c.01 74.45-26.56 138.2-79.71 191.29zm-152.1-353.29h-116.37c-10.39 0-19.24 3.66-26.57 10.98-7.95 7.94-11.92 17.09-11.92 27.46v136.37c0 10.98 3.97 20.14 11.92 27.46 7.33 7.94 16.18 11.9 26.57 11.9h77.89c10.38 0 19.24-3.96 26.57-11.9 7.93-7.32 11.91-16.47 11.91-27.46V571.11zm1009.75-436.57-325.28 637.92h312.45v231.56h-539.69c-34.82 0-61.09-14.65-78.8-43.93-18.32-29.89-19.56-60.09-3.66-90.61l325.28-637.92h-313.37L1644.2 0h431.26c34.2 0 60.48 14.65 78.8 43.93 18.33 29.91 19.55 60.11 3.67 90.61zm681.72 789.86c-52.54 53.08-116.07 79.63-190.59 79.63h-77.88c-74.53 0-138.06-26.54-190.59-79.63-53.14-53.09-79.72-116.84-79.72-191.29V2.74h231.82v739.52c0 10.98 3.96 20.14 11.91 27.46 7.33 7.94 16.18 11.9 26.58 11.9h77.88c10.38 0 19.25-3.96 26.57-11.9 7.93-7.32 11.91-16.47 11.91-27.46V2.74h231.82v730.37c0 74.45-26.57 138.2-79.71 191.29zm801.75 0c-52.54 53.08-116.07 79.63-190.59 79.63h-77.88c-74.54 0-138.06-26.54-190.59-79.63-53.14-53.09-79.72-116.84-79.72-191.29V2.74h231.82v739.52c0 10.98 3.97 20.14 11.91 27.46 7.33 7.94 16.18 11.9 26.58 11.9h77.88c10.38 0 19.25-3.96 26.57-11.9 7.94-7.32 11.92-16.47 11.92-27.46V2.74h231.82v730.37c-.01 74.45-26.58 138.2-79.72 191.29z" style="fill:#fe5d39"/></svg>