<svg xmlns="http://www.w3.org/2000/svg" viewBox="0 0 1482.8 294.85"><defs><style>.cls-1{fill:#ba0000}.cls-2{fill:#382a61}</style></defs><g id="Layer_2" data-name="Layer 2"><g id="Layer_1-2" data-name="Layer 1"><path class="cls-1" d="M797.82 251.92a6.26 6.26 0 016-6.21c2.61 0 4.23 2 4.23 4.59a6.11 6.11 0 01-5.95 6.15 4.19 4.19 0 01-4.28-4.53zM817.55 251.92a6.27 6.27 0 016-6.21c2.61 0 4.23 2 4.23 4.59a6.1 6.1 0 01-5.94 6.15 4.19 4.19 0 01-4.29-4.53zM837.28 251.92a6.27 6.27 0 016-6.21c2.61 0 4.24 2 4.24 4.59a6.11 6.11 0 01-5.95 6.15 4.2 4.2 0 01-4.29-4.53zM850.4 269l2.44-5.65a5.44 5.44 0 002.64.66c3 0 6-2.58 8-6.6l1.08-2.14-6.17-35.27h7.74l2.23 18c.41 3.21.73 7.33.9 10.7h.29c1.57-3.34 3.37-7.34 5-10.7l8.85-18h7.6l-20.06 37.5c-4.37 7.76-8.81 12.75-15.91 12.75a11.29 11.29 0 01-4.63-1.25zM890.66 241.94c0-13.6 9.84-22.86 19.62-22.86 8 0 13.28 5.63 13.28 14.51 0 13.6-9.83 22.86-19.61 22.86-8.01 0-13.29-5.63-13.29-14.51zm25-8.09c0-5.37-2.17-8.44-6.27-8.44-5.65 0-10.9 7.16-10.9 16.27 0 5.37 2.17 8.44 6.26 8.44 5.7 0 10.95-7.12 10.95-16.27zM956.69 255.58h-6.35l.34-5.11h-.29c-3.57 3.25-7.66 6-11.95 6-6 0-8.44-3.31-8.44-9a23.06 23.06 0 01.58-5l4.49-22.47h7.78l-4.33 21.5a18.87 18.87 0 00-.57 3.77c0 3 1.45 4.56 4.44 4.56 2.4 0 5.19-1.72 8.79-5.52L956 220h7.78zM974.57 220h6.35l-.64 6.88h.29c2.81-4.41 6.73-7.75 11-7.75a7.9 7.9 0 013.57.67l-2.61 6.82a7.22 7.22 0 00-3.31-.58c-3.34 0-6.76 2.64-9.69 8.06l-4.21 21.53h-7.77zM1015.68 259.06l-2 10.62h-7.77l10-49.73h6.35l-.17 4.38h.2c3.42-3 7.51-5.25 11.58-5.25 6.26 0 10.15 4.64 10.15 13 0 13.61-9.28 24.37-19.12 24.37a9.16 9.16 0 01-7.86-4.67h-.15zm5.84-28.4l-3 15.17c1.54 3 3.65 4.21 5.92 4.21 6 0 11.54-7.75 11.54-16.92 0-5.19-2-7.63-5.3-7.63-2.81 0-6.44 1.68-9.16 5.17zM1068.74 219.08c8.27 0 11.34 5.77 11.34 13.14a21.59 21.59 0 01-1.56 7.55h-21.68c-.75 7.51 3.4 10.7 8.82 10.7a13.43 13.43 0 007.26-2.78l2.84 5a21.09 21.09 0 01-12.16 3.77c-8.5 0-14.27-5.54-14.27-15.09 0-13.3 10.04-22.29 19.41-22.29zm4.52 15.75a14.06 14.06 0 00.35-3.13c0-3.45-1.48-6.56-5.8-6.56s-8.56 3.6-10.27 9.69zM1106.32 233.38a8.67 8.67 0 00.31-2.4c0-4.24-2-5.75-5.59-5.75-3.08 0-5.89 1.1-9.32 3l-2.43-5.48a30.37 30.37 0 0113.37-3.63c7.34 0 11.66 3.42 11.66 11.14a24 24 0 01-.58 5l-4 20.34h-6.31l.1-3.89h-.23c-2.78 2.61-7 4.76-10.82 4.76-4.85 0-8.91-3.28-8.91-8.79-.03-10.29 9.66-13.95 22.75-14.3zm-15.18 12.71c0 2.87 2 4.3 4.79 4.3 2.55 0 5-1.43 7.8-3.89l1.69-8.18c-9.32.2-14.28 3.04-14.28 7.77zM1120.86 241.94c0-12.76 9.34-22.86 20.42-22.86a12 12 0 019.4 4.38l-4.41 4.67c-1.65-1.83-3.1-2.72-5.48-2.72-6.38 0-12 7.42-12 16.27 0 5.37 2.38 8.44 7.19 8.44a10.83 10.83 0 006.73-2.72l3.34 4.9a18.76 18.76 0 01-11.69 4.15c-7.82 0-13.5-5.28-13.5-14.51zM1171.39 219.08c8.27 0 11.35 5.77 11.35 13.14a21.55 21.55 0 01-1.57 7.55h-21.68c-.75 7.51 3.4 10.7 8.82 10.7a13.43 13.43 0 007.26-2.78l2.84 5a21.09 21.09 0 01-12.16 3.77c-8.5 0-14.27-5.54-14.27-15.09.02-13.3 10.02-22.29 19.41-22.29zm4.53 15.75a14.7 14.7 0 00.34-3.13c0-3.45-1.48-6.56-5.8-6.56s-8.56 3.6-10.27 9.69zM1183.22 263.91c5.08-1.66 8-4.79 8.79-8.33l.81-6.33 2 5.34a4.83 4.83 0 01-2.81 1.13c-2.79 0-4.79-1.65-4.79-4.35a5.58 5.58 0 015.69-5.66c3.22 0 5 2.27 5 5.92 0 8.16-5.4 14.68-13.78 16.71zM1222 241.94c0-13.6 9.84-22.86 19.62-22.86 8 0 13.28 5.63 13.28 14.51 0 13.6-9.83 22.86-19.61 22.86-7.97 0-13.29-5.63-13.29-14.51zm25-8.09c0-5.37-2.18-8.44-6.27-8.44-5.65 0-10.91 7.16-10.91 16.27 0 5.37 2.18 8.44 6.27 8.44 5.74 0 10.99-7.12 10.99-16.27zM1288.07 255.58h-6.36l.35-5.11h-.29c-3.57 3.25-7.66 6-12 6-6 0-8.45-3.31-8.45-9a22.49 22.49 0 01.59-5l4.49-22.49h7.78l-4.33 21.5a18.87 18.87 0 00-.57 3.77c0 3 1.45 4.56 4.43 4.56 2.41 0 5.2-1.72 8.79-5.52l4.79-24.31h7.78zM1306 220h6.35l-.64 6.88h.29c2.82-4.41 6.73-7.75 11-7.75a7.9 7.9 0 013.57.67l-2.61 6.82a7.22 7.22 0 00-3.31-.58c-3.34 0-6.76 2.64-9.69 8.06l-4.21 21.53h-7.77zM1337 262.83c0-4.38 4-7.28 8-9.08v-.23a6 6 0 01-2.16-4.76c0-2.64 1.85-5.08 4.61-6.76v-.29a10.35 10.35 0 01-3.77-8c0-8.38 6.67-14.62 15-14.62a11.58 11.58 0 014.65.87h12.68l-1.14 5.89h-6.18a8.3 8.3 0 011.22 4.35c0 8.3-6.32 14.1-15.14 14.1a10.88 10.88 0 01-3.51-.52 4.48 4.48 0 00-2 3.34c0 2.11 1.17 2.94 6.33 3.52 9.81 1.22 12.82 3.66 12.82 8.26 0 8.31-9 12.44-17.9 12.44-5.62-.01-13.51-1.72-13.51-8.51zm23.78-2c0-2.67-2.9-3.71-7.59-4.26-1.14-.15-2.65-.44-4.27-.82-2.34 1.21-5.19 3.25-5.19 5.72 0 3.36 3 4.87 7.6 4.87 5.42-.03 9.45-2.34 9.45-5.54zm2.47-30.49c0-3.57-1.83-5.78-4.79-5.78-4.43 0-7.6 4.53-7.6 9.06 0 3.57 1.83 5.77 4.79 5.77 4.44-.03 7.6-4.56 7.6-9.08zM1376.12 241.94c0-13.6 9.84-22.86 19.62-22.86 8 0 13.28 5.63 13.28 14.51 0 13.6-9.83 22.86-19.61 22.86-8.01 0-13.29-5.63-13.29-14.51zm25-8.09c0-5.37-2.17-8.44-6.27-8.44-5.65 0-10.9 7.16-10.9 16.27 0 5.37 2.17 8.44 6.26 8.44 5.7 0 10.95-7.12 10.95-16.27zM1435.67 233.38a8.67 8.67 0 00.31-2.4c0-4.24-2-5.75-5.6-5.75-3.07 0-5.88 1.1-9.31 3l-2.43-5.48a30.37 30.37 0 0113.37-3.63c7.34 0 11.66 3.42 11.66 11.14a24 24 0 01-.58 5l-4 20.34h-6.31l.1-3.89h-.23c-2.78 2.61-7 4.76-10.82 4.76-4.85 0-8.91-3.28-8.91-8.79-.03-10.29 9.66-13.95 22.75-14.3zm-15.18 12.71c0 2.87 2 4.3 4.79 4.3 2.55 0 5-1.43 7.8-3.89l1.69-8.18c-9.32.2-14.28 3.04-14.28 7.77zM1459.69 204.34h7.78l-10.27 51.24h-7.78zM1474.54 79.34l8.26-28.84h-106.19l-17.11 28.84h115.04z"/><path class="cls-2" d="M1462.47 121.51l8.99-31.42h-106.19L1343 167.85h106.2l8.59-29.98h-59.75l4.68-16.36h59.75z"/><path class="cls-1" d="M1342.16 79.34l17.07-28.8h-86.78a37.55 37.55 0 00-36.1 27.21l-.46 1.62z"/><path class="cls-2" d="M1232.82 90.09l-11.56 40.49a29.25 29.25 0 0028.12 37.27h67.44l8.58-30h-64.27l13.68-47.78zM1112.12 90.09l-66.89 77.76h51.03l39.86-46.34h25.61l10.87 46.34h45.44l-18.25-77.76h-87.67z"/><path class="cls-1" d="M1197.27 79.34l-6.76-28.81.02-.03h-44.36l-24.8 28.84h75.9z"/><path class="cls-2" d="M1062.36 121.51l9-31.42h-106.2l-9 31.42-13.27 46.34h106.2l8.59-29.98h-59.75l4.68-16.36h59.75z"/><path class="cls-1" d="M1074.43 79.34l8.26-28.84H976.5l-17.09 28.84h115.02z"/><path class="cls-2" d="M821.61 90.09l-22.26 77.76h40l13.27-46.34H907a45.77 45.77 0 0043.44-31.42z"/><path class="cls-1" d="M953.47 79.34A24.23 24.23 0 00929.7 50.5H833l-17.14 28.84zM705.43 79.34a24.23 24.23 0 00-23.77-28.84h-97.28l-17.09 28.84z"/><path class="cls-2" d="M702.38 90.09H573.05L568 107.74l-17.21 60.11h40l13.27-46.34h45.36l-13.27 46.34h40l8.92-31.14a21.32 21.32 0 00-4.86-20.43 45.74 45.74 0 0022.17-26.19z"/><path class="cls-1" d="M551.23 79.34l8.21-28.69h-42.51l-8.21 28.69h42.51zM469.13 79.34l-6.49-28.69h-44.35l-25.26 28.69h76.1z"/><path class="cls-2" d="M505.64 90.09l-19.02 66.44-15.05-66.44h-88.01l-25.45 28.89h75.57l12.67 48.87h79.53l22.27-77.76h-42.51z"/><path d="M303.92 123.76a52.59 52.59 0 00-.92-6.83c-.33-1.56-.64-2.51-1-4.28-9.06-43.24-37.41-65.81-37.41-65.81a16.55 16.55 0 00-1.8-1.4q-6.37-5.67-13.18-10.85C228 18.3 204.31 6.87 177.49 2.22a152.11 152.11 0 00-47.33-.7 182 182 0 00-42.54 11.67C67.3 21.31 50.06 33.5 36.31 50.58l-1.05 1.3a3 3 0 01-.36.44 80.48 80.48 0 00-5.22 7 .54.54 0 01-.27.18c-4 5.85-8.12 12.63-8.56 13.36a153.48 153.48 0 00-20 59.43 126.06 126.06 0 00.78 34.81 124.73 124.73 0 0014.39 41c.79 1.41 1.57 2.83 2.46 4.18a17.22 17.22 0 002.82 3.94C12 197.83 6.39 178.49 6.08 157.78l.12-.07v-1.65c0-1-.07-2.05-.1-3.07a126.2 126.2 0 015.07-31.48 139.29 139.29 0 0116-34.91s.48-.79 1.39-2.15a162.46 162.46 0 0112.1-16c.12-.15.25-.29.37-.42 2-2.38 4.25-4.82 6.61-7.23a.93.93 0 01.14-.14c1.88-1.91 3.86-3.8 5.9-5.61h.05A131 131 0 0176 38.21c17.46-10.27 36.42-16 56.46-18.58a143.15 143.15 0 0144.45 1.24 139.69 139.69 0 0149.2 19.4 172.42 172.42 0 0137.29 32 4.93 4.93 0 00.69.65c19.9 24.31 25.38 60.63 25.61 62.22.36 5.81.54 11.64.46 17.48l-.15 5.11a167.15 167.15 0 01-6.36 40.27q-11.88 40.48-45.82 65.53c-17.26 12.7-36.61 21-57.06 27-5.39 1.57-10.85 2.89-16.42 4.35a10 10 0 001.56 0c4.09-.7 8.18-1.38 12.25-2.24A188.24 188.24 0 00229.53 274c17.17-9.32 32.17-21.3 44.39-36.62 19.41-24.35 28.4-52.54 30.31-83.25a192.22 192.22 0 00-.31-30.37z" fill="#ba0303"/><path d="M368.94 45.45c-.19-2.08-1.39-3-3.46-2.75-3.33.46-6.66 1-10 1.47a259.36 259.36 0 00-41 9.36 211.57 211.57 0 00-20.63 7.74c-.4.17-1 .77-1.48.64-1.64.74-3.13 1.44-4.15 1.93a2.86 2.86 0 01-.35.18c-3.1 1.41-6.11 3-9.2 4.5-13.93 6.58-25.42 16.22-35.14 28.07-10.65 13-19.38 27.25-27.39 42-2.55 4.69-5 9.43-7.51 14.13-3.26 7-11.67 3.61-15.31 1.74a12.8 12.8 0 01-1.69-1c-.78-.51-1.54-1.06-2.34-1.5a116 116 0 00-39-13.26 114.06 114.06 0 00-47.42 3.41c-8.27 2.34-16.48 4.9-24.58 7.77-1.71.64-7.19 2.69-18.58 7.19l-1.4.59-.54.2-2.38 1c-.17.28-.51.42-1.09.49-.95.43-1.89.86-2.81 1.3-2.72 1.33-5.4 2.68-8 4.08-6.33 3.44-10.68 6.29-10.92 6.45a78 78 0 00-13 10.73c5.22-.75 10.08-1.48 15-2.15 19.88-2.72 39.81-4.7 59.92-4.07 11.25.36 22.4 1.53 33.16 5.06 7.46 2.44 14.25 6 19.71 11.8 1 1 .9 1.44-.51 1.8-3.08.78-6.11 1.75-9.19 2.52-9.43 2.35-19 4.08-28.33 6.88-4 1.21-8.07 2.5-11.47 5-4.13 3.08-4.26 3.79-.83 7.82s8.09 5.93 12.86 7.62c11.78 4.19 24.11 5.8 36.42 7.48 1.14.15 1.26-.18.9-1.13a20.12 20.12 0 01-1.31-6.5c-.1-4.25 1.83-7.11 5.83-8.5a44.13 44.13 0 019.85-2c7.17-.76 14.39-.64 21.55-1.5 9.53-1.14 18.77-3.32 27.44-7.57 9.75-4.77 17.73-11.82 25.14-19.57q9.78-10.2 19.41-20.55c1-1.07 1.77-1.44 3.15-.56 1.66 1.05 3.52 1.78 5.27 2.7.84.44 1.27.51 1.28-.69a44.34 44.34 0 00-.63-9.14c-.75-3.79-2-7.35-5.38-9.65a10.89 10.89 0 00-9.83-1.81c.19-.64.29-1.09.45-1.53a128.06 128.06 0 019.33-20.81 63.33 63.33 0 0115.06-18.19 3.94 3.94 0 012.93-1 7.52 7.52 0 007.14-3.66c.87-1.31 1.22-2.84 2-4.32 2.32 4.28 6.32 5.11 10.48 5.22 4.81.13 7.61-2.64 8.83-7.15 4.08 2.55 5.93 2.32 7.81-1.21.8-1.48 1.56-2.33 3.35-2.08a3.41 3.41 0 002.32-.85 8.09 8.09 0 002.9-4.43c.29-.94.56-1.07 1.46-.58a5 5 0 005.32 0 10 10 0 003.34-3.71 1.39 1.39 0 011.8-.88c3.73.8 5.75-.49 6.6-4.17a2.11 2.11 0 011.53-1.71c3.65-1.4 5.06-3.53 5-7.43 0-.84-.11-1.68-.21-2.51-.06-.45-.14-.88.49-.9a3.85 3.85 0 001.58-.16 4.7 4.7 0 01.12-.51c.09.12.17.23.24.34a3.1 3.1 0 001.47-2.12 1.36 1.36 0 000-.17l.06-.33a9.47 9.47 0 00-.63-4.35c2.86.44 5.39.89 7.94 1.19a7.39 7.39 0 006.46-2.06 20.43 20.43 0 004.33-6.13 6.92 6.92 0 00.46-3.55z" fill="#392b61"/></g></g></svg>