<svg width="296" height="63" fill="none" xmlns="http://www.w3.org/2000/svg">
  <path fill-rule="evenodd" clip-rule="evenodd" d="M31.5 63C48.897 63 63 48.897 63 31.5S48.897 0 31.5 0 0 14.103 0 31.5 14.103 63 31.5 63zM20 26a6 6 0 004.539-9.924A17.173 17.173 0 0132.749 14c2.572 0 5.011.562 7.203 1.57a6 6 0 108.477 8.477A17.185 17.185 0 0150 31.25c0 9.527-7.723 17.25-17.25 17.25-9.527 0-17.25-7.723-17.25-17.25 0-2.207.414-4.318 1.17-6.258A5.971 5.971 0 0020 26zm28.429-1.952a17.317 17.317 0 00-8.477-8.477 6 6 0 018.477 8.477zm-23.89-7.972a17.312 17.312 0 00-7.869 8.916 6 6 0 117.869-8.916z" fill="#000"/>
  <path d="M90.516 23.045a12.067 12.067 0 00-7.392-2.541c-6.6 0-11.979 5.379-11.979 11.979s5.379 11.979 11.979 11.979c2.904 0 5.577-1.056 7.656-2.772l-2.97-3.399c-4.356 3.3-11.517.693-11.517-5.808 0-6.204 6.765-8.91 11.253-6.006l2.97-3.432zm14.078 2.442v-4.62h-9.537v4.62h2.475V39.38h-2.475V44h9.537v-4.62h-2.442V25.487h2.442zm3.958-4.653v23.133h4.62V29.711l2.31 4.983v.033L119.805 44h4.917l-4.818-9.9c2.871-.495 4.686-3.498 4.686-6.303 0-3.828-3.102-6.963-6.93-6.963h-9.108zm7.128 4.62h1.98c1.287 0 2.31 1.056 2.31 2.343a2.288 2.288 0 01-2.013 2.277l-2.277-4.62zm30.878-2.409a12.067 12.067 0 00-7.392-2.541c-6.6 0-11.979 5.379-11.979 11.979s5.379 11.979 11.979 11.979c2.904 0 5.577-1.056 7.656-2.772l-2.97-3.399c-4.356 3.3-11.517.693-11.517-5.808 0-6.204 6.765-8.91 11.253-6.006l2.97-3.432zm9.161-2.178h-4.62v23.1h13.233V39.38h-8.613V20.867zm27.678 0h-15.411V44h15.312v-4.62h-10.692v-5.016h8.91v-4.62h-8.91v-4.257h10.791v-4.62zm4.213 0V44h4.62v-9.24h2.871a6.93 6.93 0 006.93-6.93c0-3.828-3.102-6.963-6.93-6.963h-7.491zm4.62 9.273v-4.653h2.871c1.254 0 2.31 1.056 2.31 2.343a2.317 2.317 0 01-2.31 2.31h-2.871zm22.608-9.273h-1.353l-11.154 21.912V44H225.2v-1.221l-10.362-21.912zm-5.61 18.513l4.818-9.438 4.422 9.438h-9.24zm36.45 4.62l-13.002-13.497V44h-4.62V20.867h1.452l12.771 12.936V20.867h4.62V44h-1.221zm5.517-23.133v23.1h1.881V44h4.653c1.551 0 3.069-.297 4.488-.924 1.386-.561 2.607-1.419 3.663-2.475a10.586 10.586 0 002.475-3.663c.627-1.419.924-2.937.924-4.521 0-1.551-.297-3.069-.924-4.488-.561-1.386-1.386-2.607-2.475-3.696a11.584 11.584 0 00-3.663-2.475 11.586 11.586 0 00-4.488-.891h-6.534zm6.534 4.62c1.188 0 2.31.297 3.267.825l-5.181 11.253V25.487h1.914zm-.33 13.893l5.412-11.682c1.155 1.221 1.848 2.904 1.848 4.719 0 3.828-3.102 6.963-6.93 6.963h-.33zm25.662-18.513h-1.353l-11.154 21.912V44h22.869v-1.221l-10.362-21.912zm-5.61 18.513l4.818-9.438 4.422 9.438h-9.24z" fill="#000"/>
</svg>
