<svg width="989" height="471" fill="none" xmlns="http://www.w3.org/2000/svg"><path d="M543.2 234H398.6a61.2 61.2 0 0 0 16.2 39.5 49.2 49.2 0 0 0 36.6 14.5c11.6 0 21.2-2.7 28.8-8.3 7.5-5.5 16-15.7 25.5-30.6l39.3 22c-6 10.3-12.5 19.2-19.2 26.7-6.8 7.3-14 13.3-21.8 18.2a89 89 0 0 1-25 10.3 122 122 0 0 1-29.2 3.3c-30.1 0-54.3-9.6-72.5-29-18.2-19.4-27.3-45.2-27.3-77.4 0-31.9 8.8-57.7 26.5-77.4 17.8-19.5 41.4-29.2 70.8-29.2 29.7 0 53.1 9.4 70.4 28.3 17.1 18.8 25.7 44.8 25.7 78.1l-.2 11zm-47.9-38.1c-6.5-24.9-22.1-37.3-47-37.3a46.6 46.6 0 0 0-40 21.7 54.4 54.4 0 0 0-6.6 15.6h93.6zM577.9 122.2h46.6v18a89 89 0 0 1 22.8-18.5 52.2 52.2 0 0 1 24-5.1c12.3 0 25.1 4 38.5 12l-21.3 42.6a44.5 44.5 0 0 0-26-9.5c-25.3 0-38 19.2-38 57.6v104.6h-46.6V122.2zM773.3 122.2v201.7h-46.6V122.2h46.6zm-53.6-42.9c0-8.1 3-15.2 8.9-21 6-6 13-9 21.3-9 8.4 0 15.6 3 21.6 9 5.9 5.7 8.9 12.8 8.9 21.2 0 8.5-3 15.6-9 21.6-5.7 6-12.9 8.9-21.3 8.9s-15.6-3-21.5-9c-6-5.9-9-13.1-9-21.7zM864.2 165.6V324h-46.8V165.6h-16.6v-43.4h16.6V85.3c0-25.4 4.4-43.3 13.2-53.8 12.2-14.6 29.8-22 53-22 8.3 0 18.7 2.5 31.3 7.3v47.6h-29.6c-9.8 0-13.7 0-17.4 5-2.9 5.7-3.7 10.8-3.7 27.3v25.5h78v43.4h-78z" fill="#103A60"/><path d="M981.1 122.2v201.7h-46.6V122.2h46.6zm-53.6-42.9c0-8.1 3-15.2 8.9-21 6-6 13-9 21.3-9 8.4 0 15.6 3 21.5 9 6 5.7 9 12.8 9 21.2 0 8.5-3 15.6-9 21.6-5.7 6-12.9 8.9-21.3 8.9s-15.6-3-21.5-9c-6-5.9-9-13.1-9-21.7z" fill="#103A60"/><path fill-rule="evenodd" clip-rule="evenodd" d="M132.8 153.5c32.5 31 80 78.3 80 78.3s109-142.4 212.2-211l8 23.9C395.3 71 282 215.5 237.6 343.3c0 0-118.3-129.5-140.8-159l36-30.8z" fill="#5FAE46"/><path d="M235.3 442.8c73.3 0 137.8-38 174.7-95.4h31.8a235 235 0 1 1-77.2-308.7L346 59.4a207.7 207.7 0 1 0-110.9 383.4z" fill="#103A60"/></svg>