<svg xmlns="http://www.w3.org/2000/svg" width="79" height="25" fill="none"><g fill-rule="evenodd" clip-path="url(#a)" clip-rule="evenodd"><path fill="#006848" d="M1.177 8.725h6.519c.144 0 .263.119.263.264v6.531a.264.264 0 0 1-.263.264H1.177a.264.264 0 0 1-.263-.264V8.989c0-.145.118-.264.263-.264ZM17.225.838c-.135-.135-.37-.158-.37.158v6.531c0 .145.12.264.264.264l6.557-.003a.197.197 0 0 0 .153-.333L17.225.838Zm-9.66 22.82c.171.17.38.134.38-.145v-6.531a.264.264 0 0 0-.264-.264l-6.483-.011c-.298 0-.295.28-.137.438l6.504 6.512ZM9.125.731h6.518c.144 0 .263.119.263.264v6.53a.264.264 0 0 1-.263.264H9.124a.264.264 0 0 1-.263-.263V.996c0-.145.118-.264.263-.264Zm.007 15.986h6.519c.144 0 .263.119.263.264v6.53a.264.264 0 0 1-.263.264H9.132a.264.264 0 0 1-.263-.263v-6.531c0-.145.118-.264.263-.264Zm7.97 0h6.518c.145 0 .263.119.263.264v6.53a.264.264 0 0 1-.263.264h-6.518a.264.264 0 0 1-.263-.263v-6.531c0-.145.118-.264.263-.264Zm.03-7.993h6.519c.145 0 .263.119.263.264v6.531a.264.264 0 0 1-.263.264h-6.519a.264.264 0 0 1-.263-.264V8.989c0-.145.119-.264.263-.264Z"/><path fill="#72777B" d="m33.657 16.72-.812-2.363h-3.358l-.799 2.363h-1.697l3.27-8.968h1.823l3.27 8.968h-1.697Zm-1.998-6.04a12.166 12.166 0 0 0-.15-.476c-.066-.2-.13-.407-.193-.62-.062-.212-.11-.39-.143-.53-.042.166-.094.358-.156.575l-.181.613c-.059.191-.1.337-.125.437l-.787 2.301h2.51l-.775-2.3Zm7.74.45V9.94h-1.635v-.438c0-.35.07-.619.212-.806.142-.188.362-.282.662-.282.2 0 .385.02.555.057.17.037.327.077.468.119l.4-1.176a4.55 4.55 0 0 0-1.56-.263c-.716 0-1.28.17-1.692.507-.412.338-.618.94-.618 1.807v.463l-1.086.45v.751h1.086v5.59h1.573v-5.59h1.635Zm4.182-1.314c.109 0 .227.004.356.013.13.008.24.025.331.05l-.137 1.463a3.47 3.47 0 0 0-.612-.062c-.333 0-.645.068-.936.206-.292.138-.527.35-.706.638-.178.288-.268.648-.268 1.082v3.515h-1.573V9.94h1.21l.226 1.176h.075c.2-.358.474-.665.823-.92.35-.254.754-.38 1.211-.38Zm2.235-2.489c.241 0 .447.06.618.182.17.12.256.335.256.644 0 .308-.085.525-.256.65-.17.125-.377.188-.618.188s-.447-.063-.618-.188c-.17-.125-.256-.342-.256-.65 0-.309.085-.523.256-.644.17-.121.377-.182.618-.182Zm.786 2.614v6.78H45.03V9.94h1.572Zm5.144-.125c.757 0 1.35.196 1.779.588.428.392.642 1.026.642 1.901v4.416h-1.572v-4.103c0-1.017-.417-1.526-1.249-1.526-.632 0-1.065.2-1.298.6-.233.4-.35.972-.35 1.714v3.314h-1.572V9.941h1.21l.225.888h.087c.217-.35.514-.606.893-.769a3.02 3.02 0 0 1 1.205-.244Zm5.467 6.904-2.571-6.779h1.66l1.348 3.915c.084.242.16.509.231.8.07.293.115.538.131.739h.05c.025-.209.075-.457.15-.745.075-.287.154-.552.237-.794l1.348-3.915h1.66l-2.57 6.78h-1.674Zm7.49-6.904c.908 0 1.626.271 2.154.813.528.542.793 1.297.793 2.264v.8h-4.47c.017.618.188 1.095.513 1.433.324.337.774.506 1.348.506.433 0 .824-.043 1.173-.131.35-.088.708-.215 1.074-.382v1.264a4.6 4.6 0 0 1-1.036.35 6.364 6.364 0 0 1-1.286.113c-.657 0-1.242-.128-1.754-.382a2.747 2.747 0 0 1-1.199-1.157c-.287-.517-.43-1.16-.43-1.926 0-1.16.287-2.043.861-2.652.574-.608 1.328-.913 2.26-.913Zm0 1.163c-.424 0-.767.136-1.03.407-.262.27-.413.673-.455 1.207h2.909c-.009-.467-.127-.853-.356-1.157-.229-.304-.585-.457-1.067-.457Zm8.652 3.778c0 .684-.244 1.203-.73 1.557-.487.355-1.184.532-2.092.532-.474 0-.88-.034-1.217-.1a4.544 4.544 0 0 1-.98-.313v-1.338c.333.158.701.291 1.105.4a4.41 4.41 0 0 0 1.142.162c.433 0 .745-.066.937-.2a.624.624 0 0 0 .287-.537.596.596 0 0 0-.112-.357c-.075-.104-.223-.219-.444-.344-.22-.125-.547-.28-.98-.463a6.41 6.41 0 0 1-1.08-.519 1.925 1.925 0 0 1-.649-.631c-.145-.242-.218-.555-.218-.938 0-.61.24-1.07.718-1.383.478-.312 1.117-.469 1.916-.469.416 0 .81.042 1.18.126.37.083.742.208 1.117.375l-.5 1.163a9.643 9.643 0 0 0-.923-.338 3.14 3.14 0 0 0-.924-.137c-.69 0-1.036.196-1.036.588 0 .141.043.262.13.362.088.1.242.207.463.32.22.112.534.248.942.406.4.158.745.323 1.036.494.292.17.516.381.674.632.159.25.238.566.238.95Zm3.645.825c.191 0 .38-.018.568-.056.187-.038.36-.081.518-.131v1.175a3.13 3.13 0 0 1-.649.194 4.183 4.183 0 0 1-.836.081c-.383 0-.733-.064-1.049-.194a1.515 1.515 0 0 1-.749-.669c-.183-.317-.275-.758-.275-1.326V11.13h-.91v-.803c1.095-.448.904-1.311.904-2.238l1.588-.33v.978c0 .633-.452 1.103-.626 1.222l2.54-.017v1.188h-1.922v3.515c0 .317.083.553.25.707.165.154.382.231.648.231Z"/></g><defs><clipPath id="a"><path fill="#fff" d="M.5.254h78v24H.5z"/></clipPath></defs></svg>