<svg width="111" height="77" viewBox="0 0 111 77" fill="none" xmlns="http://www.w3.org/2000/svg">
<path fill-rule="evenodd" clip-rule="evenodd" d="M0 38.3098C0 48.2509 4.14325 58.6712 10.7929 65.349C23.8066 78.4197 42.7624 80.742 58.4445 71.0512C59.8384 70.1922 62.0976 68.4828 63.1931 67.3864C72.5708 57.9762 70.968 55.533 70.968 42.0394V25.7658C70.968 20.5686 72.6219 17.4563 74.9322 14.5254C77.8692 10.8044 82.362 9.49652 87.3748 9.49652C99.553 9.49652 107.221 25.7701 97.5113 36.035C94.0926 39.648 88.1847 41.6206 82.8266 40.2005C81.0917 39.7386 81.0874 39.3285 79.003 39.3285C74.766 39.3285 72.3278 46.3042 78.0354 48.4409C86.9613 51.7819 95.6442 49.4466 102.724 43.684C118.645 30.7299 110.734 0 86.3688 0C82.2639 0 77.5921 1.39858 74.8768 2.9396C68.7216 6.43605 64.0029 12.2203 62.4641 19.524C61.5264 23.9701 61.9271 42.2379 61.9313 48.1387C61.9356 55.2179 60.482 58.723 54.7062 62.5173C43.3165 69.998 27.8817 69.5404 18.3292 59.7504C16.0359 57.4021 13.7426 54.7215 12.2678 51.6524C7.59595 41.9228 8.49536 30.4407 14.5909 21.5571C15.2431 20.6031 15.4818 20.5125 16.1169 19.7139C16.7648 18.9024 16.8756 18.6736 17.6557 17.8794C21.4153 14.0462 28.7896 9.49652 36.1554 9.49652C40.1366 9.49652 41.6968 9.31522 45.6738 10.3685C48.6533 11.1584 48.2612 11.8706 51.8886 11.8706C54.9534 11.8706 55.5715 8.80155 55.5715 6.449C55.5715 1.83887 43.5254 0.0086332 38.1631 0.0086332C31.7308 0.0086332 27.221 1.52376 22.7111 3.34536C20.452 4.26048 18.5807 5.41733 16.6668 6.71663C15.6608 7.39865 14.9362 8.01161 14.0112 8.77565C13.4783 9.21594 13.3121 9.46198 12.8006 9.92386C9.79119 12.639 7.22937 15.5095 5.243 19.2175C4.54819 20.5168 4.0921 21.0477 3.49107 22.5283C1.57716 27.2334 0.0042626 31.8133 0.0042626 38.3184L0 38.3098Z" fill="#274FED"/>
</svg>
