<svg id="svg" version="1.1" xmlns="http://www.w3.org/2000/svg" xmlns:xlink="http://www.w3.org/1999/xlink" width="400" height="101.63934426229508" viewBox="0, 0, 400,101.63934426229508"><g id="svgg"><path id="path0" d="M29.167 6.580 C 29.167 6.945,29.090 7.003,28.583 7.021 C 27.654 7.054,27.617 7.067,27.570 7.390 C 27.514 7.774,27.441 7.847,27.057 7.903 C 26.818 7.937,26.739 8.119,26.699 8.723 C 26.653 9.422,26.608 9.500,26.241 9.500 C 25.870 9.500,25.833 9.566,25.833 10.238 C 25.833 10.877,25.783 10.984,25.458 11.030 C 25.226 11.063,25.064 11.217,25.033 11.435 C 25.005 11.629,24.799 11.871,24.575 11.974 C 24.240 12.126,24.167 12.280,24.167 12.830 C 24.167 13.198,24.092 13.509,24.000 13.521 C 23.908 13.532,23.740 13.551,23.625 13.563 C 23.412 13.585,23.386 13.685,23.353 14.625 C 23.336 15.087,23.272 15.167,22.917 15.167 C 22.687 15.167,22.509 15.223,22.520 15.292 C 22.660 16.180,22.475 16.833,22.083 16.833 C 21.750 16.833,21.667 16.917,21.667 17.250 C 21.667 17.553,21.577 17.667,21.339 17.667 C 21.073 17.667,20.991 17.819,20.903 18.486 C 20.822 19.092,20.713 19.326,20.480 19.387 C 20.238 19.450,20.167 19.623,20.167 20.151 C 20.167 20.768,20.127 20.833,19.750 20.833 C 19.361 20.833,19.333 20.889,19.333 21.667 C 19.333 22.444,19.306 22.500,18.917 22.500 C 18.583 22.500,18.500 22.583,18.500 22.917 C 18.500 23.250,18.417 23.333,18.083 23.333 C 17.694 23.333,17.667 23.389,17.667 24.167 C 17.667 24.944,17.639 25.000,17.250 25.000 C 16.861 25.000,16.833 25.056,16.833 25.833 C 16.833 26.611,16.806 26.667,16.417 26.667 C 16.027 26.667,16.000 26.722,16.000 27.510 C 16.000 27.974,15.932 28.311,15.848 28.259 C 15.585 28.097,15.167 28.356,15.167 28.681 C 15.167 28.875,15.009 29.033,14.750 29.098 C 14.386 29.190,14.333 29.294,14.333 29.923 C 14.333 30.543,14.281 30.651,13.958 30.697 C 13.638 30.742,13.576 30.866,13.533 31.542 C 13.487 32.256,13.442 32.333,13.074 32.333 C 12.751 32.333,12.667 32.419,12.667 32.750 C 12.667 33.048,12.577 33.167,12.351 33.167 C 11.980 33.167,11.833 33.478,11.833 34.264 C 11.833 34.710,11.766 34.833,11.519 34.833 C 11.187 34.833,11.006 35.256,11.002 36.042 C 11.001 36.388,10.919 36.500,10.667 36.500 C 10.433 36.500,10.333 36.612,10.331 36.875 C 10.327 37.580,10.134 38.000,9.814 38.000 C 9.594 38.000,9.500 38.119,9.500 38.399 C 9.500 38.758,9.118 39.096,8.792 39.026 C 8.723 39.012,8.667 40.612,8.667 42.583 L 8.667 46.167 9.083 46.167 C 9.417 46.167,9.500 46.250,9.500 46.583 C 9.500 46.917,9.583 47.000,9.917 47.000 C 10.250 47.000,10.333 47.083,10.333 47.417 C 10.333 47.717,10.423 47.833,10.655 47.833 C 10.862 47.833,10.996 47.967,11.030 48.208 C 11.063 48.444,11.217 48.602,11.443 48.635 C 11.662 48.666,11.842 48.845,11.904 49.094 L 12.007 49.501 32.795 49.459 L 53.583 49.417 53.637 49.042 C 53.675 48.770,53.802 48.667,54.095 48.667 C 54.416 48.667,54.500 48.580,54.500 48.250 C 54.500 47.917,54.583 47.833,54.917 47.833 C 55.247 47.833,55.333 47.749,55.333 47.428 C 55.333 47.135,55.437 47.008,55.708 46.970 C 55.949 46.936,56.102 46.783,56.137 46.542 C 56.185 46.203,56.272 46.136,56.606 46.181 C 56.919 46.223,57.000 45.456,56.988 42.573 C 56.975 39.314,56.949 39.132,56.471 38.956 C 56.318 38.900,56.168 38.680,56.138 38.469 C 56.108 38.257,55.990 38.074,55.875 38.063 C 55.760 38.051,55.592 38.032,55.500 38.021 C 55.408 38.009,55.333 37.662,55.333 37.250 C 55.333 36.561,55.299 36.500,54.917 36.500 C 54.528 36.500,54.500 36.444,54.500 35.667 C 54.500 34.889,54.472 34.833,54.083 34.833 C 53.728 34.833,53.664 34.753,53.647 34.292 C 53.613 33.318,53.587 33.250,53.250 33.250 C 53.010 33.250,52.902 33.121,52.864 32.792 C 52.823 32.432,52.724 32.333,52.406 32.333 C 52.030 32.333,52.000 32.272,52.000 31.500 C 52.000 30.727,51.970 30.667,51.593 30.667 C 51.233 30.667,51.180 30.584,51.135 29.958 C 51.095 29.411,50.998 29.213,50.708 29.085 C 50.405 28.952,50.333 28.787,50.333 28.222 C 50.333 27.624,50.279 27.515,49.958 27.470 C 49.717 27.436,49.564 27.283,49.530 27.042 C 49.496 26.801,49.362 26.667,49.155 26.667 C 48.919 26.667,48.829 26.544,48.816 26.208 C 48.775 25.159,48.747 25.083,48.375 25.030 C 48.163 25.000,47.994 24.855,47.987 24.697 C 47.946 23.800,47.717 23.278,47.415 23.394 C 47.229 23.465,47.167 23.365,47.167 22.995 C 47.167 22.581,47.100 22.500,46.759 22.500 C 46.391 22.500,46.347 22.423,46.301 21.708 C 46.257 21.033,46.195 20.909,45.875 20.863 C 45.551 20.817,45.500 20.711,45.500 20.072 C 45.500 19.395,45.465 19.333,45.083 19.333 C 44.728 19.333,44.664 19.253,44.647 18.792 C 44.613 17.814,44.587 17.751,44.208 17.697 C 43.937 17.658,43.833 17.532,43.833 17.238 C 43.833 16.917,43.747 16.833,43.417 16.833 C 43.028 16.833,43.000 16.778,43.000 16.000 C 43.000 15.227,42.970 15.167,42.592 15.167 C 42.225 15.167,42.180 15.090,42.134 14.375 C 42.091 13.699,42.028 13.576,41.708 13.530 C 41.384 13.484,41.333 13.377,41.333 12.742 C 41.333 12.096,41.282 11.994,40.917 11.902 C 40.614 11.826,40.500 11.685,40.500 11.389 C 40.500 11.164,40.431 11.023,40.347 11.075 C 40.069 11.247,39.667 10.653,39.667 10.071 C 39.667 9.624,39.599 9.500,39.355 9.500 C 39.075 9.500,38.709 8.467,38.809 7.958 C 38.822 7.890,38.686 7.833,38.506 7.833 C 38.171 7.833,37.760 7.295,37.950 7.105 C 38.008 7.047,37.711 7.000,37.289 7.000 C 36.622 7.000,36.516 6.952,36.470 6.625 C 36.417 6.251,36.409 6.250,32.792 6.205 L 29.167 6.160 29.167 6.580 " stroke="none" fill="#0464fc" fill-rule="evenodd"></path><path id="path1" d="M38.500 52.179 C 38.500 52.275,38.420 52.304,38.322 52.243 C 38.215 52.177,38.165 52.256,38.197 52.442 C 38.236 52.671,38.132 52.764,37.792 52.803 C 37.432 52.844,37.333 52.942,37.333 53.261 C 37.333 53.583,37.247 53.667,36.917 53.667 C 36.583 53.667,36.500 53.750,36.500 54.083 C 36.500 54.417,36.417 54.500,36.083 54.500 C 35.750 54.500,35.667 54.583,35.667 54.917 C 35.667 55.293,35.507 55.417,35.113 55.349 C 35.037 55.336,35.023 55.402,35.081 55.496 C 35.139 55.590,35.113 55.667,35.022 55.667 C 34.921 55.667,34.853 56.891,34.845 58.875 C 34.834 61.786,34.914 62.556,35.227 62.514 C 35.569 62.469,35.650 62.545,35.697 62.958 C 35.726 63.210,35.844 63.426,35.958 63.438 C 36.073 63.449,36.237 63.468,36.324 63.479 C 36.410 63.491,36.504 63.819,36.532 64.208 C 36.574 64.791,36.648 64.926,36.949 64.969 C 37.249 65.011,37.324 65.146,37.366 65.719 C 37.405 66.255,37.504 66.455,37.792 66.581 C 38.144 66.736,38.278 67.225,38.175 67.975 C 38.158 68.099,38.224 68.151,38.322 68.090 C 38.420 68.030,38.500 68.068,38.500 68.175 C 38.500 68.282,38.612 68.326,38.750 68.273 C 38.938 68.201,39.000 68.301,39.000 68.672 C 39.000 69.089,39.066 69.167,39.417 69.167 C 39.806 69.167,39.833 69.222,39.833 70.000 C 39.833 70.458,39.890 70.824,39.958 70.814 C 40.329 70.755,40.629 70.858,40.622 71.042 C 40.591 71.871,40.692 72.205,41.000 72.285 C 41.183 72.333,41.343 72.476,41.354 72.603 C 41.366 72.730,41.394 72.908,41.417 73.000 C 41.440 73.092,41.468 73.324,41.479 73.516 C 41.491 73.710,41.644 73.902,41.824 73.949 C 42.002 73.996,42.171 74.195,42.199 74.392 C 42.230 74.613,42.390 74.770,42.616 74.802 C 42.925 74.846,42.990 74.977,43.033 75.635 C 43.076 76.300,43.139 76.425,43.458 76.470 C 43.752 76.512,43.833 76.632,43.833 77.023 C 43.833 77.680,44.130 78.216,44.429 78.101 C 44.602 78.035,44.667 78.146,44.667 78.505 C 44.667 78.922,44.732 79.000,45.083 79.000 C 45.447 79.000,45.500 79.073,45.500 79.570 C 45.500 80.221,45.648 80.698,45.817 80.593 C 46.084 80.428,46.318 80.805,46.357 81.463 C 46.393 82.075,46.449 82.167,46.783 82.167 C 47.101 82.167,47.170 82.259,47.186 82.708 C 47.219 83.648,47.245 83.749,47.458 83.770 C 47.573 83.782,47.742 83.801,47.833 83.813 C 47.925 83.824,48.000 84.021,48.000 84.250 C 48.000 84.583,48.083 84.667,48.417 84.667 C 48.806 84.667,48.833 84.722,48.833 85.500 C 48.833 86.278,48.861 86.333,49.250 86.333 C 49.613 86.333,49.667 86.406,49.667 86.903 C 49.667 87.575,49.816 88.031,49.999 87.918 C 50.226 87.777,50.484 88.245,50.526 88.877 C 50.549 89.213,50.600 89.456,50.639 89.417 C 50.765 89.291,51.346 89.678,51.254 89.827 C 51.139 90.013,51.333 90.520,51.484 90.427 C 51.739 90.269,51.973 90.620,52.034 91.250 C 52.085 91.786,52.170 91.927,52.466 91.970 C 52.738 92.009,52.835 92.139,52.839 92.470 C 52.846 92.962,53.238 93.782,53.424 93.695 C 53.489 93.664,53.664 93.816,53.813 94.031 C 53.991 94.290,54.282 94.442,54.667 94.478 C 55.344 94.541,55.344 94.541,55.403 94.943 C 55.445 95.229,55.698 95.253,59.057 95.295 L 62.667 95.340 62.667 94.920 C 62.667 94.548,63.393 94.287,63.720 94.542 C 63.850 94.643,64.344 93.985,64.251 93.835 C 64.148 93.669,64.371 93.598,64.808 93.658 C 64.932 93.675,64.984 93.609,64.924 93.511 C 64.863 93.413,64.896 93.333,64.997 93.333 C 65.099 93.333,65.169 93.240,65.154 93.125 C 65.062 92.412,65.188 92.031,65.549 91.940 C 65.852 91.864,65.940 91.714,65.973 91.214 C 66.011 90.632,66.170 90.395,66.430 90.529 C 66.488 90.559,66.664 90.321,66.820 90.000 C 66.976 89.679,67.181 89.431,67.274 89.449 C 67.368 89.467,67.453 89.392,67.464 89.282 C 67.531 88.605,67.796 87.917,67.990 87.917 C 68.257 87.917,68.472 87.432,68.488 86.792 C 68.497 86.448,68.584 86.333,68.833 86.333 C 69.030 86.333,69.177 86.214,69.192 86.042 C 69.206 85.881,69.235 85.675,69.256 85.583 C 69.277 85.492,69.304 85.248,69.314 85.042 C 69.327 84.784,69.438 84.667,69.667 84.667 C 69.911 84.667,70.000 84.556,70.000 84.250 C 70.000 83.917,70.083 83.833,70.417 83.833 C 70.806 83.833,70.833 83.778,70.833 83.000 C 70.833 82.222,70.861 82.167,71.250 82.167 C 71.631 82.167,71.667 82.104,71.667 81.435 C 71.667 80.793,71.718 80.690,72.083 80.598 C 72.449 80.506,72.500 80.404,72.500 79.758 C 72.500 79.123,72.551 79.016,72.875 78.970 C 73.116 78.936,73.269 78.783,73.303 78.542 C 73.333 78.335,73.426 78.157,73.512 78.146 C 73.597 78.134,73.760 78.116,73.875 78.104 C 74.094 78.082,74.112 78.014,74.146 77.095 C 74.163 76.637,74.241 76.513,74.542 76.470 C 74.931 76.415,74.945 76.381,74.979 75.417 C 74.997 74.911,75.056 74.833,75.417 74.833 C 75.797 74.833,75.833 74.770,75.833 74.110 C 75.833 73.500,75.899 73.357,76.250 73.197 C 76.479 73.093,76.667 72.902,76.667 72.773 C 76.667 72.644,76.857 72.414,77.089 72.262 C 77.321 72.109,77.500 71.895,77.486 71.784 C 77.416 71.231,77.524 70.833,77.744 70.833 C 78.067 70.833,78.333 70.311,78.333 69.678 C 78.333 69.287,78.408 69.167,78.649 69.167 C 78.966 69.167,79.239 68.752,79.085 68.503 C 79.040 68.429,79.189 68.322,79.418 68.265 C 79.783 68.173,79.833 68.071,79.833 67.413 C 79.833 66.686,79.955 66.554,80.542 66.647 C 80.610 66.658,80.667 66.292,80.667 65.833 C 80.667 65.056,80.694 65.000,81.083 65.000 C 81.465 65.000,81.500 64.938,81.500 64.262 C 81.500 63.623,81.551 63.516,81.875 63.470 C 82.141 63.432,82.265 63.286,82.302 62.969 C 82.338 62.655,82.463 62.505,82.718 62.469 C 83.159 62.406,83.313 55.440,82.875 55.396 C 82.760 55.384,82.592 55.366,82.500 55.354 C 82.408 55.343,82.333 55.146,82.333 54.917 C 82.333 54.583,82.250 54.500,81.917 54.500 C 81.583 54.500,81.500 54.417,81.500 54.083 C 81.500 53.750,81.417 53.667,81.083 53.667 C 80.750 53.667,80.667 53.583,80.667 53.250 C 80.667 52.917,80.583 52.833,80.250 52.833 C 79.952 52.833,79.833 52.743,79.833 52.518 C 79.833 52.344,79.713 52.156,79.566 52.100 C 79.075 51.911,38.500 51.990,38.500 52.179 " stroke="none" fill="#9cc4fc" fill-rule="evenodd"></path><path id="path2" d="M105.447 29.109 C 105.384 29.171,105.333 39.672,105.333 52.444 L 105.333 75.667 109.833 75.667 L 114.333 75.667 114.333 67.917 L 114.333 60.167 121.125 60.147 C 124.860 60.136,127.972 60.136,128.039 60.146 C 128.106 60.156,128.208 59.978,128.265 59.749 C 128.359 59.377,128.459 59.331,129.226 59.314 C 130.548 59.284,130.580 59.274,130.637 58.875 C 130.679 58.574,130.803 58.496,131.262 58.479 C 132.181 58.446,132.249 58.427,132.271 58.208 C 132.282 58.094,132.301 57.930,132.313 57.845 C 132.324 57.760,132.502 57.666,132.708 57.637 C 132.949 57.602,133.102 57.449,133.137 57.208 C 133.175 56.937,133.302 56.833,133.595 56.833 C 133.916 56.833,134.000 56.747,134.000 56.417 C 134.000 56.083,134.083 56.000,134.417 56.000 C 134.750 56.000,134.833 55.917,134.833 55.583 C 134.833 55.253,134.917 55.167,135.238 55.167 C 135.532 55.167,135.658 55.063,135.697 54.792 C 135.731 54.549,135.884 54.398,136.130 54.363 C 136.364 54.330,136.491 54.211,136.463 54.052 C 136.437 53.910,136.567 53.709,136.750 53.605 C 136.933 53.502,137.115 53.398,137.153 53.375 C 137.221 53.334,137.292 52.873,137.319 52.292 C 137.328 52.119,137.465 52.000,137.655 52.000 C 137.948 52.000,138.217 51.582,138.153 51.226 C 138.012 50.438,138.199 49.565,138.542 49.415 C 138.916 49.250,138.917 49.242,138.954 44.711 C 138.994 39.899,138.973 39.667,138.490 39.667 C 138.226 39.667,138.175 39.507,138.133 38.542 C 138.088 37.519,138.049 37.412,137.708 37.363 C 137.351 37.313,137.216 36.857,137.320 36.046 C 137.334 35.934,137.160 35.796,136.932 35.739 C 136.679 35.675,136.499 35.496,136.468 35.276 C 136.436 35.051,136.277 34.897,136.042 34.863 C 135.770 34.825,135.667 34.698,135.667 34.405 C 135.667 34.084,135.580 34.000,135.250 34.000 C 134.917 34.000,134.833 33.917,134.833 33.583 C 134.833 33.250,134.750 33.167,134.417 33.167 C 134.083 33.167,134.000 33.083,134.000 32.750 C 134.000 32.420,133.916 32.333,133.595 32.333 C 133.302 32.333,133.175 32.230,133.137 31.958 C 133.103 31.723,132.949 31.564,132.724 31.532 C 132.505 31.501,132.325 31.322,132.262 31.074 C 132.173 30.718,132.066 30.667,131.413 30.667 C 130.728 30.667,130.667 30.632,130.667 30.250 C 130.667 29.861,130.611 29.833,129.833 29.833 C 129.128 29.833,129.000 29.785,129.000 29.519 C 129.000 29.311,128.846 29.174,128.542 29.112 C 127.877 28.978,105.581 28.974,105.447 29.109 M367.784 29.105 C 367.720 29.169,367.667 39.672,367.667 52.444 L 367.667 75.667 372.167 75.667 L 376.667 75.667 376.667 69.500 C 376.667 65.866,376.730 63.333,376.820 63.333 C 377.200 63.333,377.500 63.562,377.500 63.851 C 377.500 64.077,377.619 64.167,377.917 64.167 C 378.250 64.167,378.333 64.250,378.333 64.583 C 378.333 64.917,378.417 65.000,378.750 65.000 C 379.083 65.000,379.167 65.083,379.167 65.417 C 379.167 65.750,379.250 65.833,379.583 65.833 C 379.917 65.833,380.000 65.917,380.000 66.250 C 380.000 66.556,380.089 66.667,380.333 66.667 C 380.517 66.667,380.672 66.723,380.678 66.792 C 380.781 67.935,380.881 68.230,381.181 68.271 C 381.265 68.282,381.403 68.301,381.488 68.313 C 381.574 68.324,381.667 68.502,381.697 68.708 C 381.732 68.954,381.865 69.083,382.083 69.084 C 382.266 69.084,382.424 69.196,382.433 69.334 C 382.471 69.907,382.507 70.016,382.633 69.938 C 382.844 69.807,383.185 70.087,383.235 70.433 C 383.261 70.608,383.368 70.759,383.474 70.771 C 383.580 70.782,383.734 70.801,383.815 70.813 C 383.897 70.824,384.011 71.020,384.068 71.249 C 384.126 71.478,384.227 71.656,384.295 71.646 C 384.652 71.591,384.816 71.704,384.863 72.042 C 384.893 72.248,385.010 72.426,385.125 72.438 C 385.240 72.449,385.408 72.468,385.500 72.479 C 385.592 72.491,385.667 72.642,385.667 72.816 C 385.667 73.143,386.084 73.404,386.348 73.241 C 386.432 73.189,386.500 73.339,386.500 73.573 C 386.500 73.917,386.581 74.000,386.917 74.000 C 387.278 74.000,387.336 74.078,387.354 74.583 C 387.366 74.904,387.384 75.260,387.396 75.375 C 387.412 75.536,388.625 75.594,392.708 75.631 L 398.000 75.679 398.000 74.923 C 398.000 74.227,397.967 74.167,397.583 74.167 C 397.250 74.167,397.167 74.083,397.167 73.750 C 397.167 73.417,397.083 73.333,396.750 73.333 C 396.380 73.333,396.333 73.263,396.331 72.708 C 396.328 72.098,396.153 71.624,395.940 71.652 C 395.593 71.699,395.500 71.632,395.500 71.337 C 395.500 71.125,395.353 70.970,395.093 70.904 C 394.845 70.842,394.666 70.661,394.635 70.443 C 394.602 70.217,394.444 70.063,394.208 70.030 C 393.937 69.992,393.833 69.865,393.833 69.572 C 393.833 69.251,393.747 69.167,393.417 69.167 C 393.083 69.167,393.000 69.083,393.000 68.750 C 393.000 68.417,392.917 68.333,392.583 68.333 C 392.250 68.333,392.167 68.250,392.167 67.917 C 392.167 67.583,392.083 67.500,391.750 67.500 C 391.417 67.500,391.333 67.417,391.333 67.083 C 391.333 66.750,391.250 66.667,390.917 66.667 C 390.583 66.667,390.500 66.583,390.500 66.250 C 390.500 66.021,390.444 65.842,390.375 65.853 C 390.004 65.912,389.809 65.791,389.667 65.417 C 389.580 65.188,389.397 65.000,389.262 65.000 C 389.042 65.000,388.702 63.988,388.800 63.625 C 388.818 63.556,388.777 63.509,388.708 63.520 C 388.355 63.576,388.193 63.462,388.101 63.095 C 388.038 62.842,387.859 62.670,387.625 62.637 C 387.379 62.602,387.250 62.469,387.250 62.250 C 387.250 62.034,387.122 61.898,386.885 61.865 C 386.658 61.832,386.501 61.675,386.469 61.448 C 386.436 61.217,386.279 61.064,386.042 61.030 C 385.770 60.992,385.667 60.865,385.667 60.572 C 385.667 60.251,385.580 60.167,385.250 60.167 C 384.917 60.167,384.833 60.083,384.833 59.750 C 384.833 59.417,384.750 59.333,384.417 59.333 C 384.028 59.333,384.000 59.278,384.000 58.500 C 384.000 57.722,384.028 57.667,384.417 57.667 C 384.750 57.667,384.833 57.583,384.833 57.250 C 384.833 56.917,384.917 56.833,385.250 56.833 C 385.580 56.833,385.667 56.749,385.667 56.428 C 385.667 56.135,385.770 56.008,386.042 55.970 C 386.283 55.936,386.436 55.783,386.470 55.542 C 386.508 55.270,386.635 55.167,386.928 55.167 C 387.210 55.167,387.333 55.074,387.333 54.860 C 387.333 54.691,387.521 54.468,387.750 54.364 C 387.979 54.259,388.167 54.060,388.167 53.920 C 388.167 53.781,388.281 53.667,388.421 53.667 C 388.561 53.667,388.742 53.489,388.825 53.273 C 388.907 53.056,389.130 52.838,389.321 52.788 C 389.561 52.725,389.667 52.563,389.667 52.256 C 389.667 52.006,389.739 51.858,389.832 51.916 C 390.011 52.026,390.539 51.790,390.515 51.610 C 390.396 50.731,390.521 50.333,390.917 50.333 C 391.250 50.333,391.333 50.250,391.333 49.917 C 391.333 49.583,391.417 49.500,391.750 49.500 C 392.083 49.500,392.167 49.417,392.167 49.083 C 392.167 48.750,392.250 48.667,392.583 48.667 C 392.917 48.667,393.000 48.583,393.000 48.250 C 393.000 47.917,393.083 47.833,393.417 47.833 C 393.750 47.833,393.833 47.750,393.833 47.417 C 393.833 47.083,393.917 47.000,394.250 47.000 C 394.583 47.000,394.667 46.917,394.667 46.583 C 394.667 46.250,394.750 46.167,395.083 46.167 C 395.417 46.167,395.500 46.083,395.500 45.750 C 395.500 45.412,395.582 45.333,395.934 45.333 C 396.256 45.333,396.344 45.267,396.271 45.078 C 396.205 44.907,396.315 44.769,396.603 44.659 C 396.839 44.569,397.071 44.349,397.117 44.170 C 397.164 43.991,397.336 43.802,397.500 43.750 C 397.884 43.628,398.026 43.072,397.799 42.575 L 397.621 42.184 392.477 42.171 L 387.333 42.158 387.333 42.579 C 387.333 42.917,387.251 43.000,386.917 43.000 C 386.583 43.000,386.500 43.083,386.500 43.417 C 386.500 43.750,386.417 43.833,386.083 43.833 C 385.750 43.833,385.667 43.917,385.667 44.250 C 385.667 44.583,385.583 44.667,385.250 44.667 C 384.917 44.667,384.833 44.750,384.833 45.083 C 384.833 45.417,384.750 45.500,384.417 45.500 C 384.087 45.500,384.000 45.584,384.000 45.905 C 384.000 46.198,383.896 46.325,383.625 46.363 C 383.419 46.393,383.250 46.528,383.250 46.664 C 383.250 46.801,383.038 47.014,382.780 47.138 C 382.490 47.276,382.344 47.453,382.399 47.597 C 382.456 47.745,382.341 47.867,382.085 47.931 C 381.761 48.012,381.661 48.174,381.574 48.757 C 381.488 49.329,381.390 49.492,381.107 49.532 C 380.878 49.565,380.750 49.703,380.750 49.917 C 380.750 50.135,380.621 50.268,380.375 50.303 C 380.104 50.342,380.000 50.468,380.000 50.762 C 380.000 51.083,379.913 51.167,379.583 51.167 C 379.250 51.167,379.167 51.250,379.167 51.583 C 379.167 51.917,379.083 52.000,378.750 52.000 C 378.417 52.000,378.333 52.083,378.333 52.417 C 378.333 52.750,378.250 52.833,377.917 52.833 C 377.583 52.833,377.500 52.917,377.500 53.250 C 377.500 53.583,377.417 53.667,377.084 53.667 L 376.669 53.667 376.626 41.375 L 376.583 29.083 372.243 29.035 C 369.855 29.009,367.849 29.040,367.784 29.105 M277.646 32.436 C 277.599 32.579,277.540 32.843,277.521 33.000 C 277.509 33.094,276.958 33.167,276.250 33.167 C 275.028 33.167,275.000 33.176,275.000 33.583 C 275.000 33.984,273.417 34.206,272.000 34.004 C 271.862 33.984,271.804 34.023,271.869 34.089 C 272.071 34.294,271.689 34.807,271.292 34.863 C 270.841 34.927,270.880 34.583,270.854 38.750 L 270.833 42.167 268.000 42.167 L 265.167 42.167 265.167 46.250 L 265.167 50.333 268.000 50.333 L 270.833 50.333 270.851 59.542 C 270.861 64.606,270.885 68.862,270.906 69.000 C 270.926 69.137,270.956 69.419,270.971 69.625 C 270.991 69.879,271.107 70.000,271.333 70.000 C 271.609 70.000,271.667 70.111,271.667 70.646 C 271.667 71.762,271.843 72.333,272.188 72.333 C 272.461 72.333,272.589 72.605,272.520 73.042 C 272.509 73.110,272.652 73.167,272.837 73.167 C 273.044 73.167,273.236 73.328,273.333 73.583 C 273.428 73.832,273.623 74.000,273.818 74.000 C 274.029 74.000,274.162 74.132,274.197 74.375 C 274.242 74.694,274.366 74.758,275.031 74.800 C 275.690 74.843,275.821 74.908,275.865 75.217 C 275.912 75.550,276.025 75.588,277.125 75.632 C 277.790 75.659,278.343 75.753,278.354 75.841 C 278.366 75.928,278.384 76.094,278.396 76.208 C 278.412 76.368,279.445 76.428,282.806 76.465 C 285.621 76.497,287.159 76.456,287.095 76.352 C 287.040 76.263,287.071 76.143,287.164 76.085 C 287.271 76.019,287.333 74.567,287.333 72.157 L 287.333 68.333 284.435 68.333 L 281.536 68.333 281.432 67.917 C 281.340 67.551,281.237 67.500,280.589 67.500 L 279.852 67.500 279.801 66.708 C 279.760 66.074,279.692 65.921,279.458 65.940 C 279.184 65.962,279.167 65.489,279.167 58.148 L 279.167 50.333 283.163 50.333 L 287.160 50.333 287.252 49.958 C 287.303 49.752,287.323 47.933,287.297 45.917 L 287.250 42.250 283.208 42.205 L 279.167 42.161 279.150 37.705 C 279.130 32.458,279.126 32.430,278.285 32.397 C 277.945 32.384,277.657 32.402,277.646 32.436 M125.020 37.458 C 125.031 37.619,125.031 37.806,125.020 37.875 C 125.009 37.944,125.375 38.000,125.833 38.000 C 126.611 38.000,126.667 38.028,126.667 38.417 C 126.667 38.750,126.750 38.833,127.083 38.833 C 127.417 38.833,127.500 38.917,127.500 39.250 C 127.500 39.583,127.583 39.667,127.917 39.667 C 128.250 39.667,128.333 39.750,128.333 40.083 C 128.333 40.417,128.417 40.500,128.750 40.500 C 129.111 40.500,129.169 40.578,129.188 41.083 C 129.222 42.042,129.241 42.084,129.628 42.070 C 129.997 42.057,130.000 42.078,130.000 44.533 L 130.000 47.008 129.583 47.167 C 129.234 47.299,129.167 47.434,129.167 47.996 C 129.167 48.643,129.030 48.777,128.458 48.686 C 128.390 48.676,128.333 48.854,128.333 49.083 C 128.333 49.454,128.179 49.580,127.795 49.521 C 127.727 49.510,127.626 49.689,127.568 49.918 C 127.493 50.216,127.351 50.333,127.065 50.333 C 126.751 50.333,126.667 50.422,126.667 50.750 C 126.667 51.154,125.728 51.340,124.525 51.175 C 124.401 51.158,124.349 51.224,124.410 51.322 C 124.470 51.420,124.432 51.500,124.325 51.500 C 124.218 51.500,124.174 51.612,124.227 51.750 C 124.311 51.969,123.699 52.000,119.328 52.000 L 114.333 52.000 114.333 44.583 L 114.333 37.167 119.667 37.167 C 124.627 37.167,125.001 37.187,125.020 37.458 M151.437 41.452 C 151.380 41.509,151.333 41.693,151.333 41.861 C 151.333 42.120,151.186 42.170,150.375 42.186 C 148.997 42.214,148.920 42.228,148.896 42.458 C 148.885 42.573,148.866 42.742,148.854 42.833 C 148.843 42.925,148.646 43.000,148.417 43.000 C 148.083 43.000,148.000 43.083,148.000 43.417 C 148.000 43.806,147.944 43.833,147.167 43.833 C 146.708 43.833,146.342 43.890,146.353 43.958 C 146.422 44.395,146.286 44.650,145.958 44.697 C 145.717 44.731,145.564 44.884,145.530 45.125 C 145.492 45.396,145.365 45.500,145.072 45.500 C 144.751 45.500,144.667 45.587,144.667 45.917 C 144.667 46.250,144.583 46.333,144.250 46.333 C 143.946 46.333,143.833 46.422,143.833 46.663 C 143.833 46.876,143.686 47.031,143.418 47.098 C 143.189 47.155,143.034 47.254,143.073 47.317 C 143.171 47.475,142.982 47.714,142.583 47.935 C 142.249 48.122,142.221 48.197,142.186 49.042 C 142.172 49.373,142.080 49.500,141.851 49.500 C 141.480 49.500,141.333 49.812,141.333 50.597 C 141.333 50.986,141.256 51.167,141.089 51.167 C 140.803 51.167,140.469 51.723,140.510 52.132 C 140.611 53.138,140.492 53.667,140.167 53.667 C 139.840 53.667,139.833 53.778,139.833 58.917 C 139.833 64.056,139.840 64.167,140.167 64.167 C 140.475 64.167,140.644 64.853,140.512 65.566 C 140.426 66.024,140.719 66.667,141.013 66.667 C 141.259 66.667,141.338 66.792,141.353 67.208 C 141.387 68.186,141.413 68.249,141.792 68.303 C 142.068 68.342,142.172 68.474,142.186 68.803 C 142.196 69.049,142.223 69.325,142.244 69.417 C 142.265 69.508,142.294 69.677,142.308 69.792 C 142.322 69.906,142.390 69.991,142.458 69.980 C 142.799 69.926,142.969 70.031,143.052 70.346 C 143.101 70.536,143.293 70.731,143.478 70.779 C 143.663 70.828,143.838 71.028,143.866 71.225 C 143.897 71.446,144.057 71.603,144.281 71.635 C 144.509 71.668,144.666 71.825,144.698 72.052 C 144.731 72.283,144.888 72.436,145.125 72.470 C 145.357 72.503,145.500 72.639,145.500 72.827 C 145.500 73.012,145.663 73.171,145.917 73.235 C 146.186 73.303,146.333 73.457,146.333 73.670 C 146.333 73.955,146.447 74.000,147.167 74.000 C 147.944 74.000,148.000 74.028,148.000 74.417 C 148.000 74.806,148.056 74.833,148.833 74.833 C 149.611 74.833,149.667 74.861,149.667 75.250 C 149.667 75.639,149.722 75.667,150.500 75.667 C 151.318 75.667,151.443 75.770,151.355 76.368 C 151.346 76.433,154.262 76.490,157.836 76.496 L 164.333 76.507 164.333 76.087 C 164.333 75.675,164.358 75.667,165.583 75.667 C 166.798 75.667,166.833 75.655,166.833 75.260 C 166.833 74.900,166.916 74.847,167.542 74.801 C 168.084 74.762,168.288 74.664,168.412 74.382 C 168.500 74.179,168.725 73.992,168.912 73.965 C 169.116 73.936,169.241 73.801,169.227 73.625 C 169.214 73.465,169.252 73.328,169.310 73.322 C 169.369 73.316,169.642 73.273,169.917 73.228 C 170.192 73.183,170.495 73.138,170.592 73.128 C 170.688 73.119,170.778 72.965,170.791 72.787 C 170.822 72.379,170.881 72.322,171.303 72.290 C 171.490 72.276,171.640 72.223,171.635 72.174 C 171.558 71.323,171.698 70.852,172.042 70.803 C 172.283 70.769,172.436 70.616,172.470 70.375 C 172.508 70.104,172.635 70.000,172.928 70.000 C 173.303 70.000,173.333 69.938,173.333 69.167 C 173.333 68.395,173.303 68.333,172.928 68.333 C 172.635 68.333,172.508 68.230,172.470 67.958 C 172.424 67.638,172.301 67.576,171.625 67.533 C 170.910 67.487,170.833 67.442,170.833 67.074 C 170.833 66.762,170.745 66.667,170.456 66.667 C 170.225 66.667,170.015 66.522,169.915 66.292 C 169.794 66.017,169.584 65.903,169.133 65.865 C 168.697 65.829,168.486 65.720,168.414 65.490 C 168.357 65.312,168.147 65.156,167.947 65.143 C 165.566 64.991,165.270 65.075,165.206 65.914 C 165.146 66.700,165.203 66.636,164.478 66.716 C 163.762 66.795,163.500 66.941,163.500 67.260 C 163.500 67.392,163.351 67.500,163.170 67.500 C 162.957 67.500,162.803 67.648,162.735 67.917 C 162.636 68.310,162.564 68.334,161.440 68.351 C 159.713 68.377,159.587 68.395,159.563 68.625 C 159.551 68.740,159.532 68.908,159.521 69.000 C 159.469 69.413,157.069 69.190,156.833 68.750 C 156.622 68.354,156.537 68.333,155.150 68.333 C 153.763 68.333,153.687 68.315,153.637 67.958 C 153.591 67.638,153.467 67.576,152.792 67.533 C 152.077 67.487,152.000 67.442,152.000 67.074 C 152.000 66.754,151.913 66.667,151.595 66.667 C 151.302 66.667,151.175 66.563,151.137 66.292 C 151.099 66.025,150.975 65.920,150.708 65.930 C 150.426 65.940,150.333 65.850,150.333 65.566 C 150.333 65.343,150.205 65.148,150.018 65.089 C 149.695 64.987,149.506 64.542,149.502 63.875 C 149.501 63.612,149.401 63.500,149.167 63.500 C 148.922 63.500,148.833 63.389,148.833 63.083 L 148.833 62.667 161.417 62.646 C 168.337 62.634,174.056 62.612,174.125 62.596 C 175.039 62.384,174.987 62.613,174.986 58.824 L 174.985 55.333 174.582 55.333 C 174.188 55.333,174.178 55.298,174.131 53.792 C 174.087 52.376,174.053 52.237,173.708 52.085 C 173.395 51.948,173.333 51.790,173.333 51.127 C 173.333 50.392,173.303 50.333,172.917 50.333 C 172.530 50.333,172.500 50.275,172.500 49.535 C 172.500 48.843,172.454 48.734,172.148 48.711 C 171.687 48.676,171.691 48.683,171.644 47.888 C 171.608 47.281,171.560 47.208,171.218 47.245 C 170.896 47.281,170.833 47.210,170.833 46.810 C 170.833 46.413,170.764 46.333,170.417 46.333 C 170.083 46.333,170.000 46.250,170.000 45.917 C 170.000 45.583,169.917 45.500,169.583 45.500 C 169.250 45.500,169.167 45.417,169.167 45.083 C 169.167 44.786,169.077 44.667,168.851 44.667 C 168.654 44.667,168.497 44.511,168.432 44.250 C 168.339 43.883,168.238 43.833,167.580 43.833 C 166.895 43.833,166.833 43.799,166.833 43.417 C 166.833 43.028,166.778 43.000,166.000 43.000 C 165.222 43.000,165.167 42.972,165.167 42.583 C 165.167 42.196,165.110 42.167,164.351 42.167 C 163.619 42.167,163.525 42.124,163.431 41.746 L 163.325 41.326 157.433 41.338 C 154.192 41.344,151.493 41.395,151.437 41.452 M189.146 41.424 C 189.082 41.658,189.039 41.852,189.021 42.000 C 189.009 42.092,188.625 42.167,188.167 42.167 C 187.389 42.167,187.333 42.194,187.333 42.583 C 187.333 42.972,187.278 43.000,186.500 43.000 C 185.722 43.000,185.667 43.028,185.667 43.417 C 185.667 43.800,184.926 44.020,184.405 43.792 C 184.257 43.727,183.971 44.318,184.072 44.481 C 184.121 44.561,183.937 44.671,183.664 44.726 C 183.320 44.794,183.167 44.923,183.167 45.144 C 183.167 45.346,183.013 45.502,182.750 45.568 C 182.481 45.636,182.333 45.790,182.333 46.003 C 182.333 46.216,182.221 46.333,182.018 46.333 C 181.690 46.333,181.429 46.751,181.593 47.015 C 181.670 47.141,181.371 47.232,180.993 47.198 C 180.943 47.193,180.888 47.316,180.870 47.470 C 180.853 47.624,180.805 47.900,180.765 48.083 C 180.725 48.267,180.686 48.473,180.679 48.542 C 180.672 48.610,180.517 48.667,180.333 48.667 C 180.044 48.667,180.000 48.778,180.000 49.500 C 180.000 50.278,179.972 50.333,179.583 50.333 C 179.195 50.333,179.167 50.390,179.167 51.155 C 179.167 51.880,179.123 51.983,178.792 52.030 C 178.448 52.079,178.413 52.183,178.368 53.281 C 178.324 54.372,178.286 54.483,177.951 54.531 C 177.584 54.583,177.583 54.590,177.535 58.961 C 177.508 61.368,177.545 63.328,177.618 63.316 C 178.271 63.207,178.333 63.318,178.333 64.583 C 178.333 65.800,178.344 65.833,178.743 65.833 C 179.135 65.833,179.154 65.883,179.201 67.042 C 179.246 68.150,179.281 68.254,179.625 68.303 C 179.896 68.342,180.000 68.468,180.000 68.762 C 180.000 69.051,180.092 69.167,180.323 69.167 C 180.578 69.167,180.670 69.324,180.758 69.911 C 180.832 70.406,180.967 70.687,181.159 70.748 C 181.319 70.798,181.536 71.029,181.641 71.261 C 181.759 71.519,181.945 71.662,182.125 71.632 C 182.321 71.599,182.401 71.676,182.369 71.868 C 182.340 72.044,182.516 72.252,182.833 72.417 C 183.114 72.562,183.300 72.753,183.245 72.842 C 183.109 73.062,183.588 73.219,184.708 73.322 C 184.777 73.328,184.833 73.483,184.833 73.667 C 184.833 73.911,184.944 74.000,185.250 74.000 C 185.631 74.000,185.764 74.216,185.686 74.708 C 185.676 74.777,186.042 74.833,186.500 74.833 C 187.278 74.833,187.333 74.861,187.333 75.250 C 187.333 75.657,187.361 75.667,188.583 75.667 C 189.810 75.667,189.833 75.675,189.833 76.089 L 189.833 76.510 196.292 76.464 C 201.309 76.427,202.755 76.370,202.771 76.208 C 202.782 76.094,202.801 75.925,202.813 75.833 C 202.824 75.742,203.208 75.667,203.667 75.667 C 204.444 75.667,204.500 75.639,204.500 75.250 C 204.500 74.861,204.556 74.833,205.333 74.833 C 206.111 74.833,206.167 74.806,206.167 74.417 C 206.167 74.024,206.716 73.850,207.542 73.980 C 207.655 73.998,207.736 73.609,207.686 73.292 C 207.676 73.223,207.853 73.167,208.080 73.167 C 208.376 73.167,208.522 73.054,208.593 72.771 C 208.652 72.537,208.807 72.383,208.971 72.396 C 209.139 72.408,209.270 72.272,209.302 72.052 C 209.334 71.825,209.491 71.668,209.719 71.635 C 209.949 71.602,210.103 71.446,210.137 71.208 C 210.166 71.002,210.260 70.824,210.345 70.813 C 210.430 70.801,210.594 70.782,210.708 70.771 C 211.177 70.724,211.073 68.333,210.602 68.333 C 210.301 68.333,210.175 68.232,210.137 67.958 C 210.103 67.721,209.949 67.564,209.719 67.531 C 209.491 67.499,209.334 67.342,209.302 67.115 C 209.258 66.807,209.127 66.742,208.467 66.700 C 207.885 66.662,207.706 66.590,207.772 66.421 C 207.884 66.128,207.335 65.833,206.678 65.833 C 206.284 65.833,206.167 65.760,206.167 65.511 C 206.167 65.076,205.366 64.955,203.792 65.151 C 203.723 65.160,203.667 65.311,203.667 65.488 C 203.667 65.695,203.533 65.829,203.292 65.863 C 203.057 65.897,202.898 66.051,202.866 66.275 C 202.838 66.472,202.663 66.672,202.478 66.721 C 202.293 66.769,202.101 66.964,202.052 67.154 C 201.977 67.438,201.830 67.500,201.231 67.500 C 200.562 67.500,200.500 67.536,200.500 67.917 C 200.500 68.303,199.257 68.532,198.125 68.353 C 198.056 68.342,198.000 68.523,198.000 68.756 L 198.000 69.178 196.292 69.131 C 195.285 69.103,194.588 69.015,194.595 68.917 C 194.610 68.711,194.233 68.319,194.051 68.350 C 192.880 68.549,191.333 68.302,191.333 67.917 C 191.333 67.583,191.250 67.500,190.917 67.500 C 190.540 67.500,190.473 67.425,190.512 67.048 C 190.530 66.879,189.996 66.692,189.458 66.678 C 189.206 66.672,188.991 66.592,188.979 66.500 C 188.968 66.408,188.949 66.240,188.938 66.125 C 188.926 66.010,188.823 65.907,188.708 65.896 C 188.594 65.884,188.425 65.866,188.333 65.854 C 188.242 65.843,188.161 65.627,188.155 65.375 C 188.141 64.837,187.954 64.303,187.785 64.321 C 187.402 64.361,187.333 64.282,187.333 63.805 C 187.333 63.514,187.211 63.141,187.061 62.976 C 186.799 62.686,187.260 62.674,199.520 62.656 C 206.521 62.645,212.347 62.631,212.465 62.624 C 212.860 62.600,212.673 53.795,212.276 53.737 C 211.854 53.675,211.869 53.719,211.806 52.417 C 211.756 51.380,211.713 51.250,211.417 51.250 C 211.132 51.250,211.076 51.122,211.033 50.375 C 210.987 49.571,210.949 49.500,210.575 49.500 C 210.191 49.500,210.018 48.942,210.147 48.125 C 210.165 48.012,209.775 47.930,209.458 47.980 C 209.390 47.991,209.333 47.818,209.333 47.595 C 209.333 47.336,209.213 47.151,209.000 47.083 C 208.817 47.025,208.667 46.833,208.667 46.655 C 208.667 46.423,208.551 46.333,208.250 46.333 C 207.917 46.333,207.833 46.250,207.833 45.917 C 207.833 45.583,207.750 45.500,207.417 45.500 C 207.083 45.500,207.000 45.417,207.000 45.083 C 207.000 44.750,206.917 44.667,206.583 44.667 C 206.202 44.667,206.069 44.451,206.147 43.958 C 206.158 43.890,205.954 43.833,205.695 43.833 C 205.313 43.833,205.226 43.762,205.237 43.458 C 205.250 43.079,205.198 43.056,204.248 43.019 C 203.898 43.006,203.696 42.886,203.581 42.625 C 203.438 42.298,203.274 42.244,202.292 42.201 C 201.219 42.154,201.167 42.132,201.167 41.739 L 201.167 41.326 195.167 41.337 C 191.867 41.344,189.157 41.383,189.146 41.424 M230.929 41.459 C 230.877 41.512,230.833 41.689,230.833 41.852 C 230.833 42.087,230.670 42.159,230.042 42.199 C 229.366 42.243,229.242 42.305,229.197 42.625 C 229.148 42.970,228.439 43.148,227.625 43.020 C 227.556 43.009,227.500 43.188,227.500 43.417 C 227.500 43.750,227.417 43.833,227.083 43.833 C 226.750 43.833,226.667 43.917,226.667 44.250 C 226.667 44.583,226.583 44.667,226.250 44.667 C 225.843 44.667,225.833 44.639,225.833 43.417 L 225.833 42.167 221.750 42.167 L 217.667 42.167 217.667 58.917 L 217.667 75.667 221.750 75.667 L 225.833 75.667 225.833 66.667 C 225.833 57.590,225.835 57.563,226.372 57.646 C 226.556 57.674,226.661 57.054,226.708 55.667 C 226.737 54.814,226.816 54.410,226.958 54.396 C 227.073 54.384,227.242 54.366,227.333 54.354 C 227.425 54.343,227.500 54.192,227.500 54.019 C 227.500 53.842,227.650 53.666,227.846 53.615 C 228.036 53.565,228.232 53.369,228.282 53.179 C 228.332 52.989,228.478 52.833,228.607 52.833 C 228.736 52.833,228.913 52.646,229.000 52.417 C 229.097 52.162,229.289 52.000,229.496 52.000 C 229.745 52.000,229.833 51.891,229.833 51.583 C 229.833 51.194,229.891 51.166,230.708 51.149 C 232.103 51.121,232.247 51.095,232.270 50.875 C 232.282 50.760,232.301 50.592,232.313 50.500 C 232.325 50.400,233.065 50.333,234.153 50.333 C 235.154 50.333,236.091 50.288,236.236 50.232 C 236.649 50.074,236.634 41.587,236.221 41.429 C 235.879 41.297,231.063 41.325,230.929 41.459 M244.866 41.598 C 244.747 41.730,244.693 41.908,244.746 41.993 C 244.800 42.080,244.453 42.171,243.963 42.199 C 243.211 42.243,243.083 42.299,243.083 42.583 C 243.083 42.823,242.955 42.931,242.625 42.969 C 242.265 43.011,242.167 43.109,242.167 43.428 C 242.167 43.797,242.100 43.833,241.417 43.833 C 240.728 43.833,240.667 43.867,240.667 44.250 C 240.667 44.583,240.583 44.667,240.250 44.667 C 239.861 44.667,239.833 44.722,239.833 45.500 C 239.833 46.278,239.806 46.333,239.417 46.333 C 239.034 46.333,239.000 46.394,239.000 47.083 C 239.000 47.496,238.925 47.843,238.833 47.854 C 238.742 47.866,238.573 47.884,238.458 47.896 C 238.018 47.940,238.174 55.906,238.616 55.969 C 238.925 56.013,238.990 56.143,239.033 56.802 C 239.063 57.274,239.166 57.592,239.292 57.604 C 239.406 57.616,239.575 57.634,239.667 57.646 C 239.758 57.657,239.833 57.854,239.833 58.083 C 239.833 58.417,239.917 58.500,240.250 58.500 C 240.583 58.500,240.667 58.583,240.667 58.917 C 240.667 59.299,240.728 59.333,241.417 59.333 C 242.106 59.333,242.167 59.367,242.167 59.750 C 242.167 60.075,242.252 60.167,242.555 60.167 C 242.799 60.167,243.027 60.322,243.167 60.583 C 243.368 60.960,243.491 61.000,244.433 61.000 C 245.389 61.000,245.481 61.032,245.530 61.375 C 245.588 61.779,245.608 61.785,247.042 61.814 C 247.908 61.831,248.000 61.868,248.000 62.194 C 248.000 62.393,248.049 62.506,248.110 62.446 C 248.170 62.386,248.312 62.413,248.425 62.507 C 248.539 62.601,248.696 62.667,248.774 62.653 C 249.504 62.522,251.312 62.696,251.237 62.890 C 251.149 63.120,251.520 63.532,251.774 63.486 C 252.329 63.386,252.804 63.535,252.882 63.833 C 252.937 64.046,253.110 64.167,253.359 64.169 C 254.079 64.173,254.500 64.364,254.500 64.686 C 254.500 64.910,254.620 65.000,254.917 65.000 C 255.324 65.000,255.333 65.028,255.333 66.250 C 255.333 67.472,255.324 67.500,254.917 67.500 C 254.583 67.500,254.500 67.583,254.500 67.917 C 254.500 68.319,254.461 68.333,253.413 68.333 C 252.406 68.333,252.313 68.364,252.167 68.750 C 251.934 69.363,249.556 69.400,249.470 68.792 C 249.422 68.456,249.310 68.412,248.417 68.371 C 247.151 68.313,247.085 68.290,247.084 67.903 C 247.084 67.695,246.967 67.583,246.752 67.583 C 246.554 67.583,246.396 67.450,246.358 67.250 C 246.284 66.858,246.001 66.639,245.708 66.747 C 245.531 66.812,245.423 66.534,245.475 66.142 C 245.483 66.082,245.304 65.987,245.078 65.930 C 244.774 65.854,244.662 65.709,244.647 65.372 C 244.606 64.381,244.654 64.420,243.375 64.368 C 242.253 64.322,242.167 64.343,242.167 64.659 C 242.167 64.847,242.073 65.009,241.958 65.019 C 241.844 65.030,241.675 65.056,241.583 65.077 C 241.492 65.098,241.248 65.127,241.042 65.141 C 240.795 65.158,240.667 65.274,240.667 65.479 C 240.667 65.759,239.634 66.124,239.125 66.024 C 239.056 66.011,239.009 66.056,239.020 66.125 C 239.081 66.511,238.955 66.667,238.583 66.667 C 238.252 66.667,238.167 66.751,238.167 67.074 C 238.167 67.442,238.090 67.487,237.375 67.533 L 236.583 67.583 236.559 68.697 C 236.534 69.794,236.735 70.184,237.182 69.907 C 237.265 69.856,237.333 70.043,237.333 70.323 C 237.333 70.756,237.396 70.833,237.750 70.833 C 238.132 70.833,238.167 70.895,238.167 71.580 C 238.167 72.230,238.219 72.340,238.568 72.428 C 238.788 72.483,239.006 72.672,239.052 72.847 C 239.100 73.029,239.281 73.167,239.473 73.167 C 239.696 73.167,239.828 73.294,239.863 73.542 C 239.908 73.852,240.036 73.925,240.615 73.967 C 241.187 74.009,241.322 74.084,241.365 74.384 C 241.409 74.693,241.539 74.758,242.208 74.801 C 242.923 74.847,243.000 74.891,243.000 75.259 C 243.000 75.637,243.061 75.667,243.833 75.667 C 244.611 75.667,244.667 75.694,244.667 76.083 L 244.667 76.500 250.760 76.500 C 254.780 76.500,256.818 76.443,256.750 76.333 C 256.693 76.242,256.726 76.167,256.823 76.167 C 256.921 76.167,257.000 76.058,257.000 75.926 C 257.000 75.757,257.236 75.670,257.792 75.634 C 258.455 75.592,258.583 75.529,258.583 75.250 C 258.583 74.971,258.711 74.908,259.375 74.866 C 260.090 74.820,260.167 74.775,260.167 74.408 C 260.167 74.084,260.252 74.000,260.583 74.000 C 260.909 74.000,261.000 73.915,261.000 73.612 C 261.000 73.316,261.090 73.227,261.375 73.237 C 261.642 73.246,261.765 73.142,261.803 72.875 C 261.850 72.548,262.105 72.411,262.542 72.480 C 262.610 72.491,262.667 72.288,262.667 72.028 C 262.667 71.647,262.738 71.559,263.042 71.570 C 263.393 71.582,263.420 71.507,263.466 70.375 C 263.513 69.210,263.529 69.167,263.932 69.167 L 264.350 69.167 264.300 65.958 C 264.262 63.543,264.198 62.745,264.042 62.729 C 263.927 62.718,263.758 62.699,263.667 62.688 C 263.575 62.676,263.500 62.292,263.500 61.833 C 263.500 61.056,263.472 61.000,263.083 61.000 C 262.687 61.000,262.562 60.602,262.682 59.723 C 262.705 59.554,262.183 59.304,262.019 59.405 C 261.939 59.454,261.829 59.270,261.774 58.996 C 261.719 58.722,261.616 58.507,261.546 58.518 C 260.796 58.641,260.186 58.471,260.137 58.125 C 260.102 57.884,259.949 57.731,259.708 57.697 C 259.467 57.663,259.333 57.529,259.333 57.322 C 259.333 57.145,259.240 56.989,259.125 56.975 C 259.010 56.961,258.842 56.932,258.750 56.911 C 258.658 56.889,258.227 56.863,257.792 56.853 C 257.127 56.836,257.000 56.782,257.000 56.511 C 257.000 56.219,256.582 55.950,256.226 56.014 C 255.460 56.151,254.531 55.969,254.452 55.667 C 254.375 55.373,254.224 55.333,253.182 55.333 C 252.032 55.333,252.000 55.322,252.000 54.917 C 252.000 54.509,251.972 54.500,250.750 54.500 C 249.528 54.500,249.500 54.491,249.500 54.083 C 249.500 53.694,249.445 53.667,248.657 53.667 C 248.193 53.667,247.856 53.598,247.907 53.515 C 248.071 53.251,247.810 52.833,247.482 52.833 C 247.196 52.833,247.059 52.462,247.153 51.941 C 247.167 51.862,247.082 51.681,246.964 51.539 C 246.794 51.333,246.793 51.265,246.958 51.209 C 247.073 51.170,247.167 50.958,247.167 50.736 C 247.167 50.452,247.260 50.333,247.482 50.333 C 247.810 50.333,248.071 49.916,247.907 49.652 C 247.856 49.568,248.081 49.491,248.407 49.479 C 249.382 49.445,249.415 49.431,249.470 49.042 C 249.520 48.689,249.601 48.667,250.855 48.667 C 251.612 48.667,252.146 48.732,252.093 48.818 C 251.855 49.203,252.217 49.500,252.923 49.500 C 253.543 49.500,253.651 49.552,253.697 49.875 C 253.742 50.194,253.866 50.257,254.533 50.300 L 255.316 50.351 255.366 51.134 C 255.409 51.793,255.474 51.925,255.781 51.969 C 256.007 52.001,256.166 52.158,256.198 52.382 C 256.238 52.660,256.380 52.753,256.816 52.788 C 257.443 52.838,257.895 52.568,257.763 52.223 C 257.688 52.029,258.573 51.880,259.208 51.980 C 259.277 51.991,259.333 51.848,259.333 51.661 C 259.333 51.283,259.597 51.140,260.365 51.101 C 260.729 51.083,260.900 50.984,260.931 50.772 C 260.991 50.359,260.996 50.357,261.839 50.298 C 262.276 50.267,262.592 50.161,262.604 50.040 C 262.616 49.926,262.634 49.764,262.646 49.678 C 262.657 49.593,262.835 49.499,263.042 49.470 C 263.661 49.382,263.705 47.224,263.091 47.070 C 262.831 47.005,262.667 46.847,262.667 46.660 C 262.667 46.472,262.524 46.336,262.292 46.303 C 261.982 46.259,261.902 46.120,261.833 45.500 L 261.750 44.750 260.958 44.699 C 260.244 44.653,260.167 44.609,260.167 44.241 C 260.167 43.952,260.075 43.833,259.851 43.833 C 259.654 43.833,259.497 43.677,259.432 43.417 C 259.339 43.050,259.238 43.000,258.580 43.000 C 257.853 43.000,257.721 42.878,257.814 42.292 C 257.824 42.223,257.458 42.167,257.000 42.167 C 256.293 42.167,256.167 42.119,256.167 41.851 C 256.167 41.348,255.899 41.325,250.351 41.342 C 245.992 41.355,245.046 41.399,244.866 41.598 M300.603 41.453 C 300.546 41.509,300.500 41.689,300.500 41.852 C 300.500 42.087,300.337 42.159,299.708 42.199 C 299.033 42.243,298.909 42.305,298.863 42.625 C 298.814 42.970,298.105 43.148,297.292 43.020 C 297.223 43.009,297.167 43.188,297.167 43.417 C 297.167 43.750,297.083 43.833,296.750 43.833 C 296.417 43.833,296.333 43.917,296.333 44.250 C 296.333 44.611,296.256 44.669,295.750 44.688 C 294.795 44.722,294.748 44.743,294.790 45.129 C 294.826 45.469,294.609 45.596,294.125 45.520 C 294.056 45.509,293.992 45.556,293.981 45.625 C 293.971 45.694,293.934 46.006,293.898 46.320 C 293.823 46.978,293.801 47.010,293.390 47.069 C 293.221 47.094,293.060 47.271,293.031 47.463 C 293.000 47.675,292.835 47.833,292.615 47.865 C 292.384 47.898,292.230 48.054,292.197 48.292 C 292.167 48.498,292.039 48.667,291.911 48.667 C 291.598 48.667,291.333 49.197,291.333 49.822 C 291.333 50.280,291.194 50.417,290.792 50.353 C 290.723 50.342,290.654 50.540,290.638 50.792 C 290.622 51.044,290.593 51.362,290.573 51.500 C 290.552 51.637,290.527 51.994,290.518 52.292 C 290.504 52.716,290.428 52.833,290.167 52.833 C 289.856 52.833,289.833 52.944,289.833 54.500 C 289.833 56.208,289.801 56.286,289.134 56.189 C 289.070 56.180,289.018 57.408,289.018 58.919 L 289.018 61.665 289.425 61.767 C 289.822 61.867,289.833 61.913,289.833 63.435 C 289.833 64.889,289.857 65.000,290.167 65.000 C 290.413 65.000,290.506 65.119,290.524 65.458 C 290.537 65.710,290.561 66.067,290.578 66.250 C 290.596 66.433,290.622 66.790,290.638 67.042 C 290.658 67.365,290.757 67.500,290.972 67.500 C 291.204 67.500,291.314 67.691,291.430 68.292 C 291.542 68.870,291.658 69.078,291.858 69.063 C 292.036 69.050,292.168 69.213,292.229 69.521 C 292.297 69.859,292.424 70.000,292.662 70.000 C 292.911 70.000,293.000 70.109,293.000 70.417 C 293.000 70.747,293.084 70.833,293.407 70.833 C 293.767 70.833,293.820 70.916,293.865 71.542 C 293.916 72.242,293.925 72.252,294.700 72.401 C 295.308 72.519,295.495 72.631,295.534 72.901 C 295.565 73.122,295.705 73.250,295.917 73.250 C 296.135 73.250,296.268 73.379,296.303 73.625 C 296.342 73.896,296.468 74.000,296.762 74.000 C 297.083 74.000,297.167 74.087,297.167 74.417 C 297.167 74.806,297.222 74.833,298.000 74.833 C 298.778 74.833,298.833 74.861,298.833 75.250 C 298.833 75.639,298.889 75.667,299.667 75.667 C 300.444 75.667,300.500 75.694,300.500 76.083 L 300.500 76.500 306.167 76.500 L 311.833 76.500 311.833 76.083 C 311.833 75.688,311.883 75.666,312.833 75.646 C 314.253 75.616,314.250 75.617,314.250 75.250 C 314.250 75.010,314.379 74.902,314.708 74.864 C 315.068 74.823,315.167 74.724,315.167 74.406 C 315.167 74.025,315.727 73.852,316.542 73.980 C 316.610 73.991,316.679 73.906,316.695 73.792 C 316.710 73.677,316.766 74.033,316.820 74.583 L 316.917 75.583 321.333 75.583 L 325.750 75.583 325.792 58.875 L 325.835 42.167 321.334 42.167 L 316.833 42.167 316.820 43.208 C 316.813 43.781,316.769 44.156,316.723 44.042 C 316.674 43.920,316.338 43.833,315.914 43.833 C 315.290 43.833,315.182 43.782,315.137 43.458 C 315.103 43.221,314.949 43.064,314.719 43.031 C 314.491 42.999,314.334 42.842,314.302 42.615 C 314.255 42.283,314.140 42.246,313.042 42.201 C 311.880 42.154,311.833 42.136,311.833 41.739 L 311.833 41.326 306.270 41.338 C 303.210 41.344,300.660 41.396,300.603 41.453 M342.331 41.754 C 342.150 42.093,341.985 42.167,341.407 42.167 C 340.795 42.167,340.689 42.221,340.598 42.583 C 340.506 42.950,340.404 43.000,339.747 43.000 C 339.061 43.000,339.000 43.034,339.000 43.417 C 339.000 43.778,338.922 43.836,338.417 43.854 C 337.485 43.887,337.418 43.905,337.396 44.125 C 337.384 44.240,337.366 44.408,337.354 44.500 C 337.343 44.592,337.146 44.667,336.917 44.667 C 336.583 44.667,336.500 44.750,336.500 45.083 C 336.500 45.417,336.417 45.500,336.083 45.500 C 335.750 45.500,335.667 45.583,335.667 45.917 C 335.667 46.247,335.583 46.333,335.262 46.333 C 334.968 46.333,334.842 46.437,334.803 46.708 C 334.769 46.949,334.616 47.102,334.375 47.137 C 334.132 47.171,334.000 47.305,334.000 47.517 C 334.000 47.697,333.869 47.892,333.708 47.951 C 333.297 48.103,333.172 48.336,333.169 48.958 C 333.167 49.388,333.098 49.500,332.833 49.500 C 332.650 49.500,332.489 49.594,332.475 49.708 C 332.461 49.823,332.432 49.992,332.411 50.083 C 332.389 50.175,332.363 50.456,332.353 50.708 C 332.338 51.044,332.247 51.167,332.011 51.167 C 331.719 51.167,331.450 51.585,331.514 51.941 C 331.653 52.717,331.472 53.667,331.185 53.667 C 330.716 53.667,330.684 53.995,330.680 58.876 C 330.676 63.325,330.766 64.167,331.246 64.167 C 331.439 64.167,331.504 64.376,331.518 65.042 C 331.548 66.532,331.561 66.580,331.958 66.637 C 332.283 66.683,332.333 66.790,332.333 67.425 C 332.333 68.070,332.384 68.173,332.750 68.265 C 333.094 68.351,333.167 68.470,333.167 68.947 C 333.167 69.538,333.541 70.097,333.821 69.924 C 333.907 69.871,334.001 70.035,334.030 70.289 C 334.068 70.617,334.177 70.750,334.409 70.750 C 334.619 70.751,334.770 70.899,334.833 71.167 C 334.890 71.412,335.067 71.603,335.262 71.632 C 335.444 71.658,335.667 71.846,335.757 72.048 C 335.847 72.251,336.051 72.406,336.210 72.394 C 336.411 72.377,336.500 72.493,336.500 72.769 C 336.500 73.082,336.589 73.167,336.917 73.167 C 337.250 73.167,337.333 73.250,337.333 73.583 C 337.333 73.972,337.389 74.000,338.167 74.000 C 338.944 74.000,339.000 74.028,339.000 74.417 C 339.000 74.798,339.062 74.833,339.732 74.833 C 340.374 74.833,340.477 74.885,340.568 75.250 C 340.660 75.615,340.763 75.667,341.402 75.667 C 342.089 75.667,342.453 75.935,342.360 76.375 C 342.345 76.444,345.071 76.500,348.417 76.500 L 354.500 76.500 354.500 76.083 C 354.500 75.696,355.604 75.477,356.705 75.646 C 356.773 75.656,356.874 75.478,356.932 75.249 C 357.028 74.864,357.601 74.691,358.375 74.814 C 358.444 74.824,358.491 74.777,358.480 74.708 C 358.404 74.224,358.536 74.000,358.899 74.000 C 359.180 74.000,359.327 73.883,359.397 73.602 C 359.459 73.356,359.609 73.212,359.790 73.227 C 359.976 73.241,360.103 73.113,360.137 72.875 C 360.175 72.604,360.302 72.500,360.595 72.500 C 360.916 72.500,361.000 72.413,361.000 72.083 C 361.000 71.750,361.083 71.667,361.417 71.667 C 361.747 71.667,361.833 71.583,361.833 71.262 C 361.833 70.968,361.937 70.842,362.208 70.803 C 362.449 70.769,362.602 70.616,362.637 70.375 C 362.666 70.169,362.760 69.991,362.845 69.979 C 362.930 69.968,363.094 69.949,363.208 69.938 C 363.334 69.925,363.437 69.608,363.467 69.135 C 363.510 68.477,363.575 68.346,363.884 68.302 C 364.315 68.241,364.548 66.856,364.135 66.808 C 364.015 66.794,363.842 66.765,363.750 66.744 C 363.658 66.723,363.382 66.696,363.137 66.686 C 362.808 66.672,362.676 66.568,362.637 66.292 C 362.607 66.085,362.490 65.907,362.375 65.896 C 362.260 65.884,362.092 65.866,362.000 65.854 C 361.908 65.843,361.833 65.683,361.833 65.500 C 361.833 65.170,361.792 65.156,360.599 65.093 C 360.424 65.083,360.229 64.928,360.166 64.746 C 360.083 64.506,359.854 64.394,359.318 64.333 C 358.722 64.266,358.583 64.187,358.583 63.917 C 358.583 63.618,358.456 63.578,357.375 63.534 L 356.167 63.485 356.167 64.336 C 356.167 64.804,356.099 65.144,356.015 65.093 C 355.755 64.932,355.333 65.188,355.333 65.506 C 355.333 65.695,355.191 65.830,354.958 65.863 C 354.717 65.898,354.564 66.051,354.530 66.292 C 354.491 66.568,354.359 66.672,354.030 66.686 C 353.159 66.723,353.082 66.754,352.919 67.125 C 352.772 67.460,352.245 67.620,351.622 67.519 C 351.551 67.507,351.408 67.686,351.303 67.916 L 351.113 68.333 348.318 68.333 C 345.547 68.333,345.523 68.330,345.470 67.958 C 345.424 67.638,345.301 67.576,344.625 67.533 C 343.910 67.487,343.833 67.442,343.833 67.074 C 343.833 66.850,343.777 66.676,343.708 66.686 C 343.270 66.756,343.000 66.628,343.000 66.351 C 343.000 66.154,342.844 65.997,342.583 65.932 C 342.314 65.864,342.167 65.710,342.167 65.497 C 342.167 65.256,342.054 65.167,341.750 65.167 C 341.417 65.167,341.333 65.083,341.333 64.750 C 341.333 64.417,341.250 64.333,340.917 64.333 C 340.534 64.333,340.500 64.272,340.500 63.579 C 340.500 62.932,340.442 62.803,340.091 62.670 C 339.720 62.529,339.678 62.409,339.633 61.382 C 339.590 60.413,339.540 60.253,339.285 60.274 C 339.018 60.296,338.992 60.159,339.035 58.941 C 339.075 57.814,339.128 57.591,339.346 57.626 C 339.557 57.660,339.616 57.478,339.644 56.709 C 339.689 55.473,339.773 55.221,340.172 55.117 C 340.429 55.050,340.500 54.887,340.500 54.368 C 340.500 53.847,340.571 53.687,340.831 53.619 C 341.014 53.571,341.236 53.339,341.326 53.103 C 341.433 52.821,341.575 52.706,341.738 52.768 C 341.906 52.833,342.021 52.725,342.094 52.432 C 342.192 52.042,342.350 51.925,342.705 51.979 C 342.773 51.990,342.874 51.811,342.932 51.582 C 343.007 51.284,343.149 51.167,343.435 51.167 C 343.749 51.167,343.833 51.078,343.833 50.750 C 343.833 50.361,343.889 50.333,344.667 50.333 C 345.444 50.333,345.500 50.306,345.500 49.917 L 345.500 49.500 348.330 49.500 L 351.160 49.500 351.263 49.908 C 351.351 50.258,351.476 50.324,352.141 50.367 C 352.788 50.408,352.917 50.472,352.917 50.750 C 352.917 51.096,352.957 51.112,353.917 51.146 C 354.422 51.164,354.500 51.222,354.500 51.583 C 354.500 51.917,354.583 52.000,354.917 52.000 C 355.319 52.000,355.442 52.310,355.352 53.098 C 355.341 53.197,355.519 53.365,355.749 53.469 C 355.979 53.574,356.167 53.771,356.167 53.907 C 356.167 54.249,356.695 54.500,357.417 54.500 C 358.135 54.500,358.667 54.250,358.667 53.911 C 358.667 53.758,358.839 53.662,359.125 53.655 C 359.663 53.641,360.197 53.454,360.179 53.285 C 360.142 52.929,360.200 52.852,360.542 52.803 C 360.783 52.769,360.936 52.616,360.970 52.375 C 361.017 52.044,361.120 52.000,361.845 52.000 C 362.610 52.000,362.667 51.971,362.667 51.583 C 362.667 51.177,362.996 51.051,363.792 51.154 C 363.906 51.169,364.000 51.099,364.000 50.997 C 364.000 50.896,364.063 50.853,364.141 50.901 C 364.219 50.949,364.282 50.693,364.282 50.333 C 364.282 49.973,364.219 49.718,364.141 49.766 C 364.063 49.814,364.000 49.774,364.000 49.677 C 364.000 49.579,363.892 49.500,363.759 49.500 C 363.590 49.500,363.503 49.264,363.467 48.708 C 363.425 48.051,363.361 47.917,363.091 47.916 C 362.881 47.916,362.730 47.768,362.667 47.500 C 362.606 47.237,362.434 47.064,362.202 47.030 C 361.973 46.997,361.833 46.859,361.833 46.667 C 361.833 46.472,361.694 46.337,361.458 46.303 C 361.217 46.269,361.064 46.116,361.030 45.875 C 360.992 45.604,360.865 45.500,360.572 45.500 C 360.251 45.500,360.167 45.413,360.167 45.083 C 360.167 44.779,360.078 44.667,359.837 44.667 C 359.623 44.667,359.469 44.519,359.402 44.250 C 359.320 43.923,359.191 43.833,358.805 43.833 C 358.535 43.833,358.356 43.765,358.407 43.682 C 358.607 43.358,358.296 43.066,357.710 43.026 C 357.013 42.979,356.922 42.922,356.919 42.530 C 356.917 42.298,356.708 42.242,355.708 42.201 C 354.553 42.154,354.500 42.134,354.500 41.747 L 354.500 41.342 348.526 41.342 L 342.552 41.342 342.331 41.754 M159.500 49.083 C 159.500 49.471,159.556 49.500,160.322 49.500 C 161.045 49.500,161.150 49.545,161.197 49.872 C 161.240 50.175,161.373 50.254,161.908 50.294 C 162.659 50.351,162.676 50.361,162.736 50.776 C 162.760 50.945,162.938 51.107,163.130 51.135 C 163.341 51.167,163.500 51.331,163.531 51.552 C 163.564 51.783,163.721 51.936,163.958 51.970 C 164.198 52.004,164.333 52.138,164.333 52.342 C 164.333 52.541,164.486 52.699,164.741 52.763 C 165.080 52.848,165.158 52.982,165.200 53.558 C 165.238 54.088,165.338 54.288,165.625 54.415 C 165.855 54.515,166.000 54.725,166.000 54.956 L 166.000 55.333 157.417 55.333 L 148.833 55.333 148.833 54.923 C 148.833 54.692,148.970 54.439,149.144 54.345 C 149.332 54.245,149.498 53.912,149.563 53.506 C 149.647 52.982,149.744 52.833,150.002 52.833 C 150.244 52.833,150.333 52.721,150.333 52.417 C 150.333 52.188,150.408 51.991,150.500 51.979 C 150.592 51.968,150.760 51.949,150.875 51.938 C 150.990 51.926,151.107 51.748,151.137 51.542 C 151.175 51.270,151.302 51.167,151.595 51.167 C 151.916 51.167,152.000 51.080,152.000 50.750 C 152.000 50.395,152.080 50.330,152.542 50.314 C 153.505 50.280,153.583 50.254,153.585 49.970 C 153.589 49.548,153.674 49.516,154.877 49.483 C 155.489 49.466,155.950 49.388,155.902 49.309 C 155.853 49.231,155.901 49.167,156.008 49.167 C 156.115 49.167,156.159 49.054,156.106 48.917 C 156.025 48.704,156.273 48.667,157.755 48.667 L 159.500 48.667 159.500 49.083 M197.167 49.083 C 197.167 49.491,197.194 49.500,198.417 49.500 C 199.639 49.500,199.667 49.509,199.667 49.917 C 199.667 50.250,199.750 50.333,200.083 50.333 C 200.417 50.333,200.500 50.417,200.500 50.750 C 200.500 51.083,200.583 51.167,200.917 51.167 C 201.228 51.167,201.333 51.255,201.333 51.516 C 201.333 51.719,201.466 51.899,201.651 51.948 C 201.826 51.993,202.008 52.179,202.056 52.361 C 202.103 52.543,202.293 52.731,202.478 52.779 C 202.663 52.828,202.838 53.028,202.866 53.225 C 202.898 53.449,203.057 53.603,203.292 53.637 C 203.623 53.684,203.667 53.786,203.667 54.512 L 203.667 55.333 195.042 55.317 C 190.298 55.308,186.604 55.248,186.833 55.184 C 187.243 55.069,187.276 55.001,187.314 54.165 C 187.326 53.902,187.473 53.684,187.708 53.581 C 187.915 53.491,188.094 53.267,188.107 53.083 C 188.120 52.900,188.139 52.586,188.149 52.387 C 188.161 52.144,188.291 52.006,188.542 51.970 C 188.748 51.941,188.926 51.823,188.938 51.708 C 188.949 51.594,188.968 51.425,188.979 51.333 C 188.991 51.242,189.150 51.167,189.333 51.167 C 189.578 51.167,189.667 51.056,189.667 50.750 C 189.667 50.358,190.320 50.173,191.208 50.314 C 191.277 50.324,191.333 50.149,191.333 49.924 C 191.333 49.531,191.383 49.513,192.542 49.466 C 193.470 49.428,193.755 49.359,193.772 49.167 C 193.785 49.029,193.804 48.860,193.814 48.792 C 193.825 48.723,194.583 48.667,195.500 48.667 L 197.167 48.667 197.167 49.083 M311.030 49.875 C 311.076 50.195,311.199 50.257,311.875 50.301 C 312.590 50.347,312.667 50.391,312.667 50.759 C 312.667 51.080,312.753 51.167,313.072 51.167 C 313.365 51.167,313.492 51.270,313.530 51.542 C 313.563 51.777,313.717 51.936,313.943 51.968 C 314.161 51.999,314.342 52.178,314.404 52.426 C 314.470 52.687,314.625 52.833,314.837 52.833 C 315.054 52.833,315.167 52.946,315.167 53.163 C 315.167 53.377,315.314 53.531,315.583 53.598 C 315.949 53.690,316.000 53.793,316.000 54.435 C 316.000 55.104,316.035 55.167,316.417 55.167 L 316.833 55.167 316.833 58.917 L 316.833 62.667 316.417 62.667 C 316.028 62.667,316.000 62.722,316.000 63.500 C 316.000 64.271,315.970 64.333,315.595 64.333 C 315.302 64.333,315.175 64.437,315.137 64.708 C 315.102 64.949,314.949 65.102,314.708 65.137 C 314.476 65.170,314.333 65.305,314.333 65.494 C 314.333 65.678,314.171 65.838,313.918 65.902 C 313.689 65.959,313.510 66.061,313.521 66.128 C 313.575 66.481,313.460 66.641,313.083 66.735 C 312.814 66.803,312.667 66.957,312.667 67.170 C 312.667 67.449,312.553 67.500,311.934 67.500 C 311.217 67.500,310.853 67.795,311.093 68.182 C 311.148 68.271,309.642 68.333,307.427 68.333 L 303.667 68.333 303.667 67.917 C 303.667 67.528,303.611 67.500,302.833 67.500 C 302.056 67.500,302.000 67.472,302.000 67.083 C 302.000 66.750,301.917 66.667,301.583 66.667 C 301.250 66.667,301.167 66.583,301.167 66.250 C 301.167 66.021,301.110 65.842,301.042 65.853 C 300.583 65.925,300.333 65.796,300.333 65.484 C 300.333 65.277,300.200 65.101,300.004 65.049 C 299.705 64.971,299.355 64.030,299.470 63.613 C 299.491 63.537,299.447 63.513,299.371 63.560 C 299.075 63.743,298.831 63.362,298.791 62.657 C 298.756 62.031,298.692 61.908,298.375 61.863 C 297.834 61.787,297.775 56.000,298.316 56.000 C 298.674 56.000,298.833 55.690,298.833 54.992 C 298.833 54.694,298.951 54.449,299.144 54.345 C 299.329 54.246,299.498 53.914,299.560 53.526 C 299.634 53.064,299.762 52.847,299.999 52.785 C 300.199 52.733,300.333 52.558,300.333 52.349 C 300.333 52.088,300.438 52.000,300.750 52.000 C 301.083 52.000,301.167 51.917,301.167 51.583 C 301.167 51.244,301.252 51.163,301.625 51.149 C 302.604 51.111,302.718 51.074,302.763 50.776 C 302.825 50.359,302.828 50.357,303.672 50.298 C 304.183 50.262,304.424 50.167,304.439 49.998 C 304.451 49.861,304.470 49.694,304.481 49.625 C 304.539 49.250,310.976 49.495,311.030 49.875 " stroke="none" fill="#24346c" fill-rule="evenodd"></path><path id="path3" d="" stroke="none" fill="#3094100" fill-rule="evenodd"></path><path id="path4" d="" stroke="none" fill="#3048b8" fill-rule="evenodd"></path></g></svg>