<svg width="619" height="158" viewBox="0 0 619 158" fill="none" xmlns="http://www.w3.org/2000/svg">
<path d="M42.2058 13.5C45.6699 7.5 54.3301 7.5 57.7942 13.5L85.507 61.5C88.9711 67.5 84.641 75 77.7128 75H22.2872C15.359 75 11.0289 67.5 14.493 61.5L42.2058 13.5Z" fill="#3862DB"/>
<path d="M92.7942 144.5C89.3301 150.5 80.6699 150.5 77.2058 144.5L49.493 96.5C46.0289 90.5 50.359 83 57.2872 83L112.713 83C119.641 83 123.971 90.5 120.507 96.5L92.7942 144.5Z" fill="#99C2FF"/>
<path d="M198.8 43C205.4 43 210.9 45.2 215.3 49.6C219.767 54 222 59.4667 222 66C222 72.4667 219.767 77.9333 215.3 82.4C210.9 86.8 205.4 89 198.8 89H184.5V113H173V43H198.8ZM198.8 78.2C202.2 78.2 205 77.0667 207.2 74.8C209.4 72.4667 210.5 69.5333 210.5 66C210.5 62.4667 209.4 59.5667 207.2 57.3C205 54.9667 202.2 53.8 198.8 53.8H184.5V78.2H198.8ZM236.269 92.6C237.069 96.4 238.902 99.3333 241.769 101.4C244.635 103.4 248.135 104.4 252.269 104.4C258.002 104.4 262.302 102.333 265.169 98.2L274.069 103.4C269.135 110.667 261.835 114.3 252.169 114.3C244.035 114.3 237.469 111.833 232.469 106.9C227.469 101.9 224.969 95.6 224.969 88C224.969 80.5333 227.435 74.3 232.369 69.3C237.302 64.2333 243.635 61.7 251.369 61.7C258.702 61.7 264.702 64.2667 269.369 69.4C274.102 74.5333 276.469 80.7667 276.469 88.1C276.469 89.2333 276.335 90.7333 276.069 92.6H236.269ZM236.169 83.8H265.569C264.835 79.7333 263.135 76.6667 260.469 74.6C257.869 72.5333 254.802 71.5 251.269 71.5C247.269 71.5 243.935 72.6 241.269 74.8C238.602 77 236.902 80 236.169 83.8ZM294.179 92.6C294.979 96.4 296.812 99.3333 299.679 101.4C302.546 103.4 306.046 104.4 310.179 104.4C315.912 104.4 320.212 102.333 323.079 98.2L331.979 103.4C327.046 110.667 319.746 114.3 310.079 114.3C301.946 114.3 295.379 111.833 290.379 106.9C285.379 101.9 282.879 95.6 282.879 88C282.879 80.5333 285.346 74.3 290.279 69.3C295.212 64.2333 301.546 61.7 309.279 61.7C316.612 61.7 322.612 64.2667 327.279 69.4C332.012 74.5333 334.379 80.7667 334.379 88.1C334.379 89.2333 334.246 90.7333 333.979 92.6H294.179ZM294.079 83.8H323.479C322.746 79.7333 321.046 76.6667 318.379 74.6C315.779 72.5333 312.712 71.5 309.179 71.5C305.179 71.5 301.846 72.6 299.179 74.8C296.512 77 294.812 80 294.079 83.8ZM354.682 71.4C357.415 65.2 362.549 62.1 370.082 62.1V73.8C365.949 73.5333 362.349 74.5333 359.282 76.8C356.215 79 354.682 82.6667 354.682 87.8V113H343.882V63H354.682V71.4ZM386.004 76.8C386.004 78.4667 386.904 79.8 388.704 80.8C390.571 81.7333 392.804 82.5667 395.404 83.3C398.071 83.9667 400.737 84.7667 403.404 85.7C406.071 86.6333 408.304 88.2333 410.104 90.5C411.971 92.7 412.904 95.5 412.904 98.9C412.904 103.7 411.037 107.467 407.304 110.2C403.637 112.933 399.004 114.3 393.404 114.3C388.471 114.3 384.237 113.267 380.704 111.2C377.171 109.133 374.604 106.267 373.004 102.6L382.304 97.2C384.037 102 387.737 104.4 393.404 104.4C399.071 104.4 401.904 102.533 401.904 98.8C401.904 97.2 400.971 95.9 399.104 94.9C397.304 93.9 395.071 93.0667 392.404 92.4C389.804 91.6667 387.171 90.8333 384.504 89.9C381.837 88.9667 379.571 87.4333 377.704 85.3C375.904 83.1 375.004 80.3333 375.004 77C375.004 72.4 376.737 68.7 380.204 65.9C383.737 63.1 388.104 61.7 393.304 61.7C397.437 61.7 401.104 62.6333 404.304 64.5C407.571 66.3 410.071 68.8333 411.804 72.1L402.704 77.2C400.971 73.4 397.837 71.5 393.304 71.5C391.237 71.5 389.504 71.9667 388.104 72.9C386.704 73.7667 386.004 75.0667 386.004 76.8ZM448.345 73.4H435.945V97.4C435.945 99.4667 436.411 100.967 437.345 101.9C438.278 102.767 439.645 103.267 441.445 103.4C443.311 103.467 445.611 103.433 448.345 103.3V113C440.078 114 434.145 113.3 430.545 110.9C426.945 108.433 425.145 103.933 425.145 97.4V73.4H415.945V63H425.145V52.2L435.945 49V63H448.345V73.4ZM495.689 63H506.489V113H495.689V105.8C491.622 111.467 485.789 114.3 478.189 114.3C471.322 114.3 465.456 111.767 460.589 106.7C455.722 101.567 453.289 95.3333 453.289 88C453.289 80.6 455.722 74.3667 460.589 69.3C465.456 64.2333 471.322 61.7 478.189 61.7C485.789 61.7 491.622 64.5 495.689 70.1V63ZM468.589 99.5C471.589 102.5 475.356 104 479.889 104C484.422 104 488.189 102.5 491.189 99.5C494.189 96.4333 495.689 92.6 495.689 88C495.689 83.4 494.189 79.6 491.189 76.6C488.189 73.5333 484.422 72 479.889 72C475.356 72 471.589 73.5333 468.589 76.6C465.589 79.6 464.089 83.4 464.089 88C464.089 92.6 465.589 96.4333 468.589 99.5ZM542.677 114.3C535.144 114.3 528.844 111.767 523.777 106.7C518.777 101.633 516.277 95.4 516.277 88C516.277 80.5333 518.777 74.3 523.777 69.3C528.844 64.2333 535.144 61.7 542.677 61.7C547.544 61.7 551.977 62.8667 555.977 65.2C559.977 67.5333 562.977 70.6667 564.977 74.6L555.677 80C554.544 77.6 552.811 75.7333 550.477 74.4C548.211 73 545.577 72.3 542.577 72.3C538.177 72.3 534.477 73.8 531.477 76.8C528.544 79.8 527.077 83.5333 527.077 88C527.077 92.4667 528.544 96.2 531.477 99.2C534.477 102.2 538.177 103.7 542.577 103.7C545.511 103.7 548.144 103 550.477 101.6C552.877 100.2 554.677 98.3333 555.877 96L565.177 101.3C563.044 105.3 559.977 108.467 555.977 110.8C551.977 113.133 547.544 114.3 542.677 114.3ZM617.184 113H604.284L583.784 89.9V113H572.984V43H583.784V85.1L603.184 63H616.384L594.384 87.5L617.184 113Z" fill="#24366B"/>
</svg>
