<svg width="1734" height="549" fill="none" xmlns="http://www.w3.org/2000/svg"><path fill-rule="evenodd" clip-rule="evenodd" d="M1461.5 536.5c1.97 0 3.62.58 5.04 1.83a5.8 5.8 0 0 1 2.09 4.42c0 1.73-.77 3.17-2.09 4.42a7.28 7.28 0 0 1-5.04 1.83 7.31 7.31 0 0 1-5.05-1.83 5.62 5.62 0 0 1-2.08-4.42c0-1.73.66-3.27 2.08-4.42a7.31 7.31 0 0 1 5.05-1.83zm84.99-32.5l-6.36 3.46c-5.6-6.44-13.16-9.61-22.81-9.61-7.68 0-14.15 2.11-19.2 6.44-5.04 4.32-7.67 9.52-7.67 15.67 0 4.04 1.2 7.79 3.51 11.35a23.69 23.69 0 0 0 9.65 8.27 31.73 31.73 0 0 0 13.71 2.88c9.32 0 16.88-3.17 22.81-9.61l6.36 3.65c-2.96 4.04-7.02 7.02-12.07 9.23-5.15 2.21-10.96 3.27-17.43 3.27-9.98 0-18.21-2.7-24.79-8.27-6.58-5.58-9.87-12.21-9.87-20.2 0-5.28 1.54-10.28 4.61-14.8a29.91 29.91 0 0 1 12.61-10.67c5.37-2.6 11.41-3.85 18.1-3.85 4.16 0 8.22.48 12.06 1.64a31.48 31.48 0 0 1 9.87 4.32 24.53 24.53 0 0 1 6.91 6.83zm45.4-12.79c9.65 0 17.76 2.98 24.12 9.14 5.82 5.67 8.67 12.2 8.67 19.9 0 7.7-2.96 14.42-9.1 20.2-6.15 5.66-14.04 8.55-23.69 8.55-9.65 0-17.55-2.88-23.69-8.56-6.14-5.77-9.21-12.5-9.21-20.2 0-7.59 2.85-14.22 8.66-19.8 6.36-6.15 14.48-9.23 24.24-9.23zm0 6.92c-6.8 0-12.5 2.12-17.33 6.54-4.93 4.33-7.35 9.62-7.35 15.77 0 3.94 1.21 7.6 3.4 11.06a21.68 21.68 0 0 0 8.89 7.98 27.89 27.89 0 0 0 12.39 2.79c4.49 0 8.55-.96 12.28-2.79a21.88 21.88 0 0 0 8.99-7.98 20.18 20.18 0 0 0 3.29-11.06c0-6.15-2.41-11.44-7.34-15.77-4.83-4.42-10.53-6.54-17.22-6.54zm47.7-5.57h8.12v9.52c2.85-3.56 5.7-6.16 8.66-7.7a27.83 27.83 0 0 1 12.94-3.17c3.07 0 5.92.48 8.66 1.54a18.94 18.94 0 0 1 6.69 4.13 21.1 21.1 0 0 1 4.5 7.5 28.37 28.37 0 0 1 10.09-9.8 25.97 25.97 0 0 1 13.05-3.37c4.39 0 8.22.96 11.51 2.89a17.95 17.95 0 0 1 7.46 7.98c1.65 3.46 2.41 8.65 2.41 15.57v30h-8.22v-30.1c0-5.86-.55-9.9-1.54-12.1a10.63 10.63 0 0 0-4.93-5.4c-2.3-1.34-5.05-2.01-8.34-2.01-3.83 0-7.45.96-10.63 3.07a17.3 17.3 0 0 0-7.13 8.08c-1.54 3.37-2.3 9.04-2.3 16.93v21.53h-8.01v-28.17c0-6.63-.55-11.15-1.42-13.56a12.17 12.17 0 0 0-4.94-5.77 15.92 15.92 0 0 0-8.44-2.11c-3.73 0-7.24.96-10.53 2.98a18.14 18.14 0 0 0-7.24 7.98c-1.53 3.27-2.3 8.46-2.3 15.29v23.36h-8.12v-55.1zM1193.56 171.38c60.48 0 111.18 41.56 124.52 97.26a24.56 24.56 0 0 1 1.45 8.22c0 13.27-11.01 24.12-24.46 24.12-13.57 0-22.8-10.96-24.57-24.12-4.67-36.4-47.15-58.33-76.94-58.33-44.36 0-80.16 35.41-80.16 79.05 0 43.65 35.8 79.06 80.16 79.06 76.27 0 64.26-69.84 97.95-69.84 13.56 0 24.57 10.85 24.57 24.12a35.05 35.05 0 0 1-2.89 11.4c-18.35 47.59-65.04 81.47-119.63 81.47-70.71 0-127.97-56.47-127.97-126.2 0-58.45-6.12-177.42-6.12-237.17 0-6.25 5.12-11.3 11.34-11.3h4.78c6.23 0 6.23 5.05 6.68 11.3l9.45 160.74a95.55 95.55 0 0 1 4.22-5.15l-6.56-182.79c-.22-6.58 5.45-11.95 12.12-11.95 6.56 0 11.79 5.37 12.01 11.95l6.67 160.97c1-.66 2.11-1.43 3.22-2.2V11.95c0-6.58 5.45-11.95 12.12-11.95 6.67 0 12.12 5.37 12.12 11.95v167.87a127.33 127.33 0 0 1 45.92-8.44zM1591.08 167.37c7.67 0 21.15.11 30.46.11V86.2a28.53 28.53 0 0 1 28.49-28.41 28.46 28.46 0 0 1 28.49 28.4h.11v81.29c11.07 0 20.71-.33 30.24-.33 16.44 1.1 25.54 12.24 24.77 27.42-.77 15.08-10.08 23.71-22.9 24.7l-32.11.1v178.2h-.22a28.42 28.42 0 0 1-28.38 26.22 28.61 28.61 0 0 1-28.49-26.22V219.38l-33.86-.11c-8.98 0-20.93-9.4-21.37-24.48-.44-15.07 11.18-27.1 24.77-27.42zm-1450.5-.1h3.63c1.2.1 2.4.1 3.61.21 1.2 0 2.41.1 3.62.22 1.2.1 2.4.1 3.5.33l3.62.32c1.1.22 2.3.33 3.5.55 1.1.11 2.3.33 3.4.55l3.51.65c2.3.44 4.5.99 6.8 1.53l3.28.99c1.2.21 2.3.65 3.4.98l3.29.98c1.1.44 2.19.77 3.17 1.2 1.1.33 2.2.77 3.29 1.2 3.18 1.2 6.25 2.63 9.42 4.05 3.07 1.53 6.03 3.17 8.99 4.8a135.93 135.93 0 0 1 22.02 15.63l2.53 2.18c.87.77 1.64 1.53 2.52 2.3 2.4 2.3 4.7 4.8 7 7.2 1.54 1.76 2.97 3.4 4.4 5.14a142.9 142.9 0 0 1 6.24 7.98c.66.98 1.2 1.86 1.86 2.84.66.87 1.31 1.86 1.86 2.73v.11c1.87 2.84 3.62 5.68 5.26 8.63v.11c.44.98.99 1.97 1.54 2.95.55.98.98 1.97 1.53 3.06.44.98.99 2.07 1.43 3.06.43 1.1.98 2.07 1.42 3.17.88 2.07 1.64 4.15 2.52 6.33.33 1.1.77 2.19 1.1 3.28.33 1.1.76 2.08 1.1 3.28l.98 3.28c.33 1.09.55 2.18.88 3.27.32 1.2.54 2.3.87 3.4l.66 3.49c.22 1.09.44 2.18.66 3.38.22 1.2.44 2.3.65 3.5.11 1.1.33 2.3.44 3.5.11 1.09.33 2.29.44 3.5l.33 3.49c.1 1.2.1 2.4.22 3.6 0 1.2.1 2.4.1 3.6v3.61c0 29.61-1.09 37.15-1.86 67.41h-.1v2.19c-.22 9.83-.44 15.95-.55 25.78-3.95 13.55-16.66 18.25-28.05 18.25a27.93 27.93 0 0 1-23.56-12.9 15.97 15.97 0 0 1-1.43-6.55c-.22-7.43-.33-14.97-.55-22.4l-.1-70.25v-1.53c0-15.84-17.1-58.45-42.41-72.87-.55-.44-1.2-.76-1.76-1.1-.54-.32-1.2-.54-1.75-.87-.66-.32-1.31-.65-1.86-.98-.66-.22-1.2-.54-1.87-.76-.65-.33-1.2-.66-1.86-.88-.66-.22-1.31-.54-1.97-.76-.55-.22-1.2-.55-1.86-.77l-1.97-.65-1.98-.66c-.66-.22-1.31-.43-1.97-.54-.66-.22-1.31-.44-1.97-.55-.77-.22-1.43-.33-2.08-.55-.66-.1-1.32-.32-2.09-.43-.65-.11-1.31-.22-2.08-.33a11.7 11.7 0 0 0-2.08-.44c-.66-.1-1.31-.1-2.08-.22-.66-.1-1.43-.22-2.08-.22-.77-.1-1.43-.21-2.2-.21-.65-.11-1.42-.11-2.08-.11-.76-.11-1.42-.11-2.19-.11H138.4c-.66 0-1.43 0-2.09.1-.76 0-1.42 0-2.19.12-.76 0-1.42.1-2.08.22-.76 0-1.42.1-2.19.21-.66.11-1.42.11-2.08.22-.66.11-1.43.22-2.08.44l-2.09.33c-.65.22-1.31.32-2.08.43-.66.22-1.31.33-1.97.55-.66.1-1.31.33-1.97.55-.77.22-1.43.32-2.08.54l-1.98.66c-.65.22-1.31.44-1.86.65-.66.22-1.31.55-1.97.77-.66.22-1.32.54-1.86.76-.66.22-1.32.55-1.87.88h-.1c-.55.22-1.21.54-1.76.76-.66.33-1.31.66-1.86.98-.66.33-1.2.55-1.87.88-.54.33-1.1.66-1.75 1.1a83.85 83.85 0 0 0-42.3 71.66v1.53l.11 94.73c0 11.14-13.48 20.2-27.06 19.88-10.96-.22-26.41-7.1-26.63-20.76C1.97 362.4 0 345.67 0 307.43v-3.6c.11-1.2.11-2.4.22-3.6 0-1.2.1-2.41.22-3.61l.33-3.5c.1-1.2.22-2.4.33-3.5.21-1.2.32-2.4.54-3.49.11-1.2.33-2.3.55-3.5a189.11 189.11 0 0 1 1.43-6.88c.22-1.1.54-2.18.76-3.39l.99-3.27.99-3.28.98-3.28c.44-1.1.77-2.18 1.2-3.28.77-2.18 1.65-4.26 2.53-6.33.44-1.1.87-2.08 1.31-3.17.55-.99.99-2.08 1.54-3.06.43-1.1.98-2.08 1.42-3.06l1.64-2.95v-.1c1.65-2.96 3.3-5.8 5.15-8.64v-.1c.66-.88 1.21-1.87 1.87-2.74.66-.98 1.31-1.86 1.97-2.84 1.97-2.73 3.94-5.35 6.14-7.98 1.42-1.75 2.96-3.38 4.38-5.13 2.3-2.4 4.71-4.8 7.12-7.21.77-.77 1.65-1.53 2.41-2.3.88-.76 1.76-1.42 2.52-2.18a146.2 146.2 0 0 1 22.03-15.63c2.96-1.63 6.03-3.27 9.1-4.8 3.06-1.42 6.24-2.84 9.42-4.04.98-.44 2.08-.88 3.17-1.2 1.1-.44 2.2-.77 3.3-1.2l3.28-1c1.1-.32 2.2-.76 3.29-.97 1.1-.33 2.19-.66 3.4-.99 2.19-.54 4.49-1.1 6.79-1.53l3.4-.65c1.2-.22 2.3-.44 3.5-.55 1.1-.22 2.3-.33 3.5-.55l3.51-.32c1.21-.22 2.42-.22 3.51-.33 1.2-.11 2.41-.22 3.62-.22 1.2-.1 2.4-.1 3.61-.22h3.62zm283.16-2.2c70.9 0 128.32 57.26 128.32 127.83 0 40.65-2.63 82.82-2.63 124.33h-25.54a25.6 25.6 0 0 1-25.09-20.65 127.2 127.2 0 0 1-75.06 24.26c-70.79 0-128.2-57.25-128.2-127.94 0-70.57 57.41-127.82 128.2-127.82zm0 51.14c42.52 0 76.92 34.41 76.92 76.7 0 42.38-34.4 76.69-76.92 76.69s-76.92-34.3-76.92-76.7c0-42.28 34.4-76.7 76.92-76.7zm201.95 16.93l.22 160.39a27.27 27.27 0 0 1-27.17 27.1h-27.18V204.07c0-5.79 2.63-12.9 6.36-18.8.65.56 1.2 1 1.75 1.43 14.8 9.72 35.83 16.5 46.02 46.43zm19.95 56.92c0-68.6 55.77-124.1 124.59-124.1v.43c.87-.11-4.6-.22 2.74-.22s24.98 11.14 24.98 24.9c0 13.78-17.42 24.81-24.98 24.81-7.57 0-2.63-.11-3.95-.22-35.72.55-65.3 41.3-72.1 65.44a37.03 37.03 0 0 0-1.32 12.13l.33 106.41c0 13.77-11.28 21.86-25.1 21.86h-25.09c0-40.21-.1-91.23-.1-131.44zm269.12-124.1c70.79 0 128.21 57.24 128.21 127.82 0 40.64-2.52 82.7-2.52 124.33h-25.54a25.7 25.7 0 0 1-25.09-20.65 128.21 128.21 0 0 1-75.06 24.25c-70.9 0-128.32-57.35-128.32-127.93 0-70.58 57.42-127.83 128.32-127.83zm0 51.12c42.4 0 76.92 34.3 76.92 76.7 0 42.39-34.51 76.7-76.92 76.7-42.52 0-76.92-34.31-76.92-76.7 0-42.4 34.4-76.7 76.92-76.7zm556.11-48.4c69.8 0 126.34 56.38 126.34 125.97 0 4.37-.21 8.63-.65 12.9H1396.03a75.8 75.8 0 0 0 74.84 62.81 75.76 75.76 0 0 0 59.06-28.07c22.9-9.4 45.59 14.42 32.88 38.78a126.03 126.03 0 0 1-91.94 39.55c-69.8 0-126.34-56.37-126.34-125.97s56.54-125.97 126.34-125.97zm68.16 92.32a76.15 76.15 0 0 0-68.16-42.17 75.87 75.87 0 0 0-68.05 42.17h136.21z" fill="#013BE5"/><path fill-rule="evenodd" clip-rule="evenodd" d="M626.05 231.16l-.51-44.78c-.1-8.89-3-18.53-7.15-26.45-5.18-10.07-13.36-16.82-23-23.03-9.62-6.11-21.12-8.79-27.13-21.32l.42 39.42c.2 13.6 7.25 25.38 13.67 29.88 14.08 9.64 34.17 16.28 43.7 46.28z" fill="#F58634"/></svg>