<svg xmlns="http://www.w3.org/2000/svg" xmlns:xlink="http://www.w3.org/1999/xlink" viewBox="0 0 1000 1000"><defs><radialGradient id="a" cx="473.58" cy="451.21" fy="68.65564025663036" r="382.56" gradientTransform="translate(40.82 283.36) scale(0.97 0.39)" gradientUnits="userSpaceOnUse"><stop offset="0" stop-color="#40b93c"/><stop offset="0.17" stop-color="#40b93c" stop-opacity="0.98"/><stop offset="0.32" stop-color="#41b93d" stop-opacity="0.93"/><stop offset="0.46" stop-color="#41ba3d" stop-opacity="0.83"/><stop offset="0.59" stop-color="#42ba3e" stop-opacity="0.7"/><stop offset="0.72" stop-color="#43ba3f" stop-opacity="0.52"/><stop offset="0.85" stop-color="#45bb41" stop-opacity="0.31"/><stop offset="0.97" stop-color="#47bc43" stop-opacity="0.07"/><stop offset="1" stop-color="#47bc43" stop-opacity="0"/></radialGradient><clipPath id="b"><path d="M354.15,324.65c66.69,48.19,115.74-41.69,108-51.06-17.46-21-5.47-54.33,31.41-49.07,19.36,2.76-5.6-105.66-65.32-105.66-55.36,0-135.76,99.66-37.7,132.29-19.92.63-46-1.23-61-8C316.34,256.41,323.85,302.44,354.15,324.65ZM616.92,183.09c-6.9,8.61-20.12,20.63-30.43,23,48.54-58.14-20.58-98-63.07-96.67-12.36.39-23.3,5.22-25.8,17.61-6.41,31.85,21.7,68.49,12.12,115.9-6.5,32.23,100.76,63.46,120.45-7.9C633.61,222.57,632.52,195.77,616.92,183.09Zm-120,83.4c31.49-5.94,94.46,78.27,1.52,108.23C387.39,410.51,469.32,271.68,496.9,266.49Z" style="fill:none"/></clipPath><radialGradient id="c" cx="3097.68" cy="1003.01" r="4.42" gradientTransform="matrix(52.8, -6.66, -6.66, -52.8, -156467.46, 73899.47)" gradientUnits="userSpaceOnUse"><stop offset="0" stop-color="#fde17b"/><stop offset="0.3" stop-color="#fcd205"/><stop offset="1" stop-color="#f89c0e"/></radialGradient></defs><title>Nigeria-Logo</title><path d="M884.65,305.55A32.25,32.25,0,1,0,852.4,273.3a32.24,32.24,0,0,0,32.25,32.25m-384.26-86.1v39.16C228.43,258.61,8,368.1,8,503.17,8,640.88,228.43,752.54,500.39,752.54,773,752.54,994,638.51,994,497.85c0-153.75-221-278.4-493.61-278.4" style="fill:#fff"/><path d="M880.85,263.52h3a8.89,8.89,0,0,1,2.37.27,3.92,3.92,0,0,1,1.5.76,2.34,2.34,0,0,1,.76,1.17,4.6,4.6,0,0,1,.2,1.4,3.79,3.79,0,0,1-1.05,2.81c-.73.71-2,1.06-3.89,1.06h-2.93v-7.47m-6,22.92a8.87,8.87,0,0,0,2.75.27,7.75,7.75,0,0,0,2.63-.27,1,1,0,0,0,.59-1v-9.37h1.78a4.86,4.86,0,0,1,3.31,1,7.55,7.55,0,0,1,1.9,3.45l1.41,4.6a2,2,0,0,0,.38.84l.67.47a4.48,4.48,0,0,0,1.14.24c.44,0,1.06.05,1.82.05s1.52,0,2-.05.85-.12,1.14-.18l.5-.32.08-.5a8.57,8.57,0,0,0-.46-2l-1.61-4.27a9.84,9.84,0,0,0-2.4-3.81,8.78,8.78,0,0,0-3-1.81,9.5,9.5,0,0,0,4.68-2.49,6.76,6.76,0,0,0,1.76-5,8.06,8.06,0,0,0-.76-3.6,6.27,6.27,0,0,0-2.17-2.48,9.13,9.13,0,0,0-3.48-1.47,20.59,20.59,0,0,0-4.71-.49h-7.67a2.83,2.83,0,0,0-2.22.84,3.49,3.49,0,0,0-.74,2.32v24a1,1,0,0,0,.68,1m9.77-34c11.18,0,20.23,9.34,20.23,20.87s-9,20.87-20.23,20.87-20.22-9.34-20.22-20.87,9-20.87,20.22-20.87m0,47a26.11,26.11,0,1,0-26.1-26.11,26.12,26.12,0,0,0,26.1,26.11M640.91,247.22a66.33,66.33,0,0,1-7.58,14.52c69.1,15.28,142.44,41.44,195,79.37,2.25,1.64.26,4.72-1.84,3.63-89.15-46.33-205.79-69.8-326.11-69.8C246.13,274.94,40,377.12,40,503.17c0,128.7,206.1,233,460.36,233,254.87,0,461.47-106.71,461.47-238.3,0-117.37-134.81-216.77-321-250.66" style="fill:#40b93c"/><path d="M748.2,670.36c2.84-.56,3.78,2.16,1.17,3.19-65.38,26.48-155.88,41.5-249,41.5C274,715.05,90.48,620.19,90.48,503.17S274,291.3,500.39,291.3c255,0,411.16,110.14,410.37,206.55-.79,85-113.53,165.36-341.65,165.36-95,0-215.53-17.76-312-56.43-4.3-1.72-6.32,4.45-2.43,6.5,105.54,56.34,296.75,95.65,493.49,57.08" style="fill:#0b4919"/><path d="M500.39,715.05C274,715.05,90.48,620.19,90.48,503.17S274,291.3,500.39,291.3c254,0,409.94,109.28,410.37,205.42v1.13c-.79,85-113.53,165.36-341.65,165.36-95,0-215.53-17.76-312-56.43a4,4,0,0,0-1.45-.3,3.22,3.22,0,0,0-3.06,3.43,3.74,3.74,0,0,0,2.08,3.37c76.22,40.69,197.14,72.49,332.53,72.5a838.44,838.44,0,0,0,161-15.42,3.19,3.19,0,0,1,.73-.08c1.27,0,2,.74,2,1.55,0,.63-.5,1.31-1.54,1.72-65.38,26.48-155.88,41.5-249,41.5m.51-417.28h-.63a761.51,761.51,0,0,0-114.91,8.52c-79,12-146.4,36.2-192.2,67.75-15.57,10.71-28.66,22.36-38.84,34.63s-17.5,25.26-21.51,38.72a84.07,84.07,0,0,0-1.35,43.43c3.51,14.75,10.92,29,21.78,42.38,10.36,12.79,22.39,26.11,38.57,37.26,45.78,31.52,114.65,55.35,193.67,67.35,36.18,5.5,74.75,7.43,114.91,7.43,42.58,0,75.63-1.55,114.76-7.43,88.36-13.29,151.23-39,194.75-67.93C826,558.73,837.09,545.73,847.45,533c10.86-13.41,18.27-27.63,21.69-42.41a82.83,82.83,0,0,0,2.25-19.17,83.93,83.93,0,0,0-3.57-24.21c-4-13.46-11.29-26.4-21.48-38.69s-23.27-23.85-38.84-34.59C763,343.22,691.63,317.41,615.27,306.29a745.84,745.84,0,0,0-114.37-8.52" style="fill:#0a4919"/><ellipse cx="498.25" cy="461.54" rx="381.59" ry="196.03" style="fill:url(#a)"/><path d="M754.48,459.91c-4.45,46.36-22.76,92.72-51.62,92.72-11.81,0-20.32-9.34-20.32-24.81C682.54,488,714.23,446.89,754.48,459.91Zm43.67-3.75c2.66-14.21-1.27-20.35-14.06-24-83.88-23.64-147.53,29.88-147.53,102.53,0,27.66,13.83,53.68,43.92,53.68,24,0,46-16.67,61.41-35.38,0,0-.8,12.54.76,20.62,2.5,13,15.76,19.62,45.84,9.87C783.89,565.11,786.13,520.29,798.15,456.16ZM606.89,488.38c14.64-76.07,18.7-117.73,18.7-130.95,0-3.66-1.7-9.4-13.49-9.4-15.86,0-26.25,3.77-35.32,8.57,1.22,4.47,5.1,36.61-23,169.21-11.93,56.34-1.22,68.83,46.14,60.59C595.42,572.55,595.51,546.94,606.89,488.38Zm-78.7-62.52c-19.63,0-44.79,18.78-60,50.32,2-14.25,3-31.32,1.37-41-.52-3.13-2.43-5.68-11.8-5.28-10.56.41-24.4,4.88-32.53,9.36,0,0,6.93,19-8.28,115-4.61,29,15.24,37.5,48.41,32.15-13-18.74,10.71-134.91,64.79-110.93C551.41,442.26,545.58,425.86,528.19,425.86ZM262,498.52C276.38,470.9,297.19,440,308.12,417c2,20.33,10.74,76.63,10.74,76.63A263.12,263.12,0,0,0,262,498.52Zm132.53,86.9c-17.15-30.16-35-109-52.4-210.51-1.28-7.46-2.68-9.86-9-9.75-8.59.14-30.91,2.43-39.83,5.69-6.51,16.46-15.7,32.21-46.06,78.25C170.33,565.75,166.73,597,234.07,586.49c-1.62-10.59-.9-26.22,11.72-50.21,0,0,16.16-9,78.81-9.67,11.51,64,20.84,64.64,69.9,58.81" style="fill:#fff"/><path d="M326.1,225.47c-23.76,16.35-22.18,63.2,4.94,96.29,26.76,32.66,69.65,38.16,97.19,23.35-5.37,30.85,11.39,63.11,74.52,42.68,63.65-20.61,67-63.31,54.21-94.63,35.66,2.62,73.32-12.29,85.18-49.35,8.67-27.11,3.21-60.56-25.19-77.78,1.39-38.82-46.81-72.61-94.16-71.69-24.37.48-39.73,16-40.57,36-31.46-34.74-74-35.58-115-.34-39.57,33.94-46.71,81.34-26.05,101.1-2.86-.59-13.33-4.32-15-5.66" style="fill:#fff"/><g style="clip-path:url(#b)"><path d="M354.15,324.65c66.69,48.19,115.74-41.69,108-51.06-17.46-21-5.47-54.33,31.41-49.07,19.36,2.76-5.6-105.66-65.32-105.66-55.36,0-135.76,99.66-37.7,132.29-19.92.63-46-1.23-61-8C316.34,256.41,323.85,302.44,354.15,324.65ZM616.92,183.09c-6.9,8.61-20.12,20.63-30.43,23,48.54-58.14-20.58-98-63.07-96.67-12.36.39-23.3,5.22-25.8,17.61-6.41,31.85,21.7,68.49,12.12,115.9-6.5,32.23,100.76,63.46,120.45-7.9C633.61,222.57,632.52,195.77,616.92,183.09Zm-120,83.4c31.49-5.94,94.46,78.27,1.52,108.23-111,35.79-29.1-103-1.52-108.23" style="fill:url(#c)"/></g></svg>