<svg data-name="Layer 1" xmlns="http://www.w3.org/2000/svg" viewBox="0 0 656.71 179.08"><path d="M395.31.24c54.16-.21 90.06 34.87 90.3 88.23.24 52.52-37.19 90.63-89 90.61-52.46 0-88.81-36.68-89.31-90.07C306.82 37.09 343.16.44 395.31.24zm47.74 89.32c-3.34-18.49-5.3-36.25-10-53.27-4.56-16.65-16-27.81-34.45-28.79-19.54-1-31.63 10.12-37.76 27-13.46 37.11-13.13 74.72.46 111.76 5.74 15.65 17 25.53 34.94 25.65 18.86.13 30.76-10.66 35.74-27 5.56-17.92 7.6-36.93 11.07-55.35z" fill="#fe0606"/><path d="M.38 177.2v-60.93l2-.34c3.4 8.49 5.88 17.51 10.38 25.37 9.89 17.27 23.88 31.54 44.93 29.71 10-.87 22.16-8.48 28.09-16.79 7.95-11.14.79-23.6-9.57-30.8-14.09-9.79-29.61-17.48-44.36-26.34-15.72-9.45-29.16-21-31.49-40.69C-3.95 20.21 27.65-6.83 64.48 1.5c6.9 1.56 13.35 5.55 20.26 6.43 6 .76 12.26-1.33 20.17-2.4v54.92c-3.46-8.53-5.49-13.52-7.5-18.51-7.12-17.65-19.2-30.3-38.19-34-13.3-2.6-25.14 1.45-31.13 14.92-5.71 12.91 1.46 22.47 11.22 28.91 18.82 12.37 39.84 21.68 57.6 35.32 32.53 25 24.88 74.38-14.24 86.86-15.56 5-34.77 1.67-51.6-1.56-11.62-2.24-21.5-7.54-30.69 4.81z" fill="#fe0909"/><path d="M623.48 174.83h-82.64c21.39-1.45 21.37-16.23 21.18-32.41-.51-43.3-.17-86.6-.17-129.72-32.08-4.07-39.42.61-55.14 32.44V25.65 4.95h150v41.64c-23.52-37-23.52-37-54.88-34.63v83c0 16.65.06 33.31 0 50-.09 15.22.77 29.61 21.65 29.87z" fill="#fe0303"/><path d="M135.99 4.45h84.24c-21.92-.15-22.73 14.51-22.6 30.68.31 36.92.52 73.84-.09 110.75-.28 16.64 5.71 21.81 22.93 23.14 35.42 2.73 54.29-14 62.82-47.37l3.9 2.11-3.35 50.83H136.7c23.65-.62 20.93-17.69 20.85-33.48-.17-35.13-.44-70.27.12-105.39.26-16.2-.55-30.36-21.68-31.27z" fill="#fe0202"/></svg>