<svg width="293" height="293" viewBox="0 0 293 293" fill="none" xmlns="http://www.w3.org/2000/svg">
<g clip-path="url(#clip0)">
<path d="M287 69.4C285.321 67.6537 283.3 66.2728 281.063 65.3437C278.826 64.4145 276.422 63.957 274 64H18.4C13.4 64 9.10001 65.8 5.50001 69.4C3.7604 71.0469 2.37532 73.0316 1.42959 75.2326C0.483862 77.4335 -0.00259544 79.8044 1.0414e-05 82.2C1.0414e-05 87.2 1.80001 91.5 5.40001 95.1L133.4 223C137 226.6 141.2 228.4 146.2 228.4C151.2 228.4 155.4 226.6 159 223L287 95C290.5 91.5 292.4 87.2 292.4 82.2C292.4 77.2 290.5 73 286.9 69.4H287Z" fill="white"/>
</g>
<defs>
<clipPath id="clip0">
<rect width="292.4" height="292.4" fill="white"/>
</clipPath>
</defs>
</svg>
