<svg xmlns="http://www.w3.org/2000/svg" viewBox="0 0 778.76 276.63"><defs><style>.cls-2{fill:#122e76}</style></defs><g id="Layer_2" data-name="Layer 2"><g id="Layer_1-2" data-name="Layer 1"><path class="cls-2" d="M226.24 94.5a21.56 21.56 0 0 0-9.24 2.13 46.26 46.26 0 0 0-11.5-18.43c-12.34-12.5-31.7-17.83-51.81-9.91-11.28 4.42-20.88 15.85-25.15 28a21.24 21.24 0 0 0-28 9.74 21.82 21.82 0 0 0-2.13 9.29v111h149V115.53a21 21 0 0 0-21.17-21.03zm-95.4 39.78a12.19 12.19 0 0 1-4.73-23.43V121a3.73 3.73 0 0 0 .45 1.75 3.95 3.95 0 0 0 7.63-1.45V118l-.15-.14v-5.19c0-.76 0-1.52.07-2.28a12.18 12.18 0 0 1-3.27 23.92zm5-32.92l-.16-.12c4.42-15.55 17.83-27.59 34.6-28.65h2.28a38.88 38.88 0 0 1 37.56 28.72l-37.1 28.58zm80.31 32.92a12.19 12.19 0 0 1-4.73-23.42v10.31a4 4 0 0 0 7.92 0v-9.9-.94a12.19 12.19 0 0 1-3.18 24zM671.24 169a56.1 56.1 0 0 1-7.92 4.11 21.37 21.37 0 0 1-8.38 1.83 6 6 0 0 1-2.75-.61 4.46 4.46 0 0 1-2.28-1.83 9.29 9.29 0 0 1-1.68-3.5 17.66 17.66 0 0 1-.61-5.34 29.8 29.8 0 0 1 .46-4.72q.45-2.75 1.37-7.32c.61-2.89 1.07-5.33 1.37-7.16a26.64 26.64 0 0 0 .46-4.27 8.54 8.54 0 0 0-.76-3.5 5.63 5.63 0 0 0-2-2.59 8.86 8.86 0 0 0-2.89-1.68 8.15 8.15 0 0 0-3.35-.61 15 15 0 0 0-8.69 2.59 30.61 30.61 0 0 0-6.71 6.55 51.29 51.29 0 0 0-5.63 9.76c-1.83 4-3.36 7-4.58 9.45h-1.06a87.18 87.18 0 0 1 .3-10.67c.31-4.12.46-7.32.46-9.45a36.54 36.54 0 0 0-.15-4.42 4.64 4.64 0 0 0-.77-2.44 2.79 2.79 0 0 0-2-1.06 23.52 23.52 0 0 0-3.65-.16 22.52 22.52 0 0 0-3.51.16 5.14 5.14 0 0 0-2.29.91 6.59 6.59 0 0 0-1.67 1.83 16 16 0 0 0-1.37 3.2 65.9 65.9 0 0 0-2.29 7.62q-1.14 4.57-2.74 11.43c-1.07 4.57-2 9-2.59 13-.77 4.12-1.22 8.08-1.83 11.89 0 .61-.15 1.07-.15 1.68-1.22 1.06-2.6 2-4 3a97.64 97.64 0 0 1-10.66 6.86 92.5 92.5 0 0 1-11.7 5.36 35.08 35.08 0 0 1-11.41 2.1 18.17 18.17 0 0 1-3.2-.31 8.06 8.06 0 0 1-2.9-1.21 13.63 13.63 0 0 1-2.74-2.44 29.63 29.63 0 0 1-2.74-4 61.37 61.37 0 0 0 14.63-5.94 49.57 49.57 0 0 0 20.11-20.27c2.44-4.57 3.66-8.53 3.66-12.19a23 23 0 0 0-1.83-9.3 19.65 19.65 0 0 0-5-7 22 22 0 0 0-7.46-4.57 26.7 26.7 0 0 0-9.45-1.67 29.75 29.75 0 0 0-11.28 2.13 32.44 32.44 0 0 0-9.14 5.94 43.53 43.53 0 0 0-7.17 8.54A48.92 48.92 0 0 0 524 159c-1.38 3.5-2.6 7.62-4 12.19a47.06 47.06 0 0 0-1.83 11.89 70.66 70.66 0 0 0 .61 8.23c-.15.15-.3.15-.45.3-1.68 1.07-3.36 2.13-5.19 3.2a54.86 54.86 0 0 1-5.18 2.74c-1.67.77-3.35 1.53-4.72 2a15.25 15.25 0 0 1-4 .76 1.93 1.93 0 0 1-1.53-1.07 11.86 11.86 0 0 1-1.52-2.74 29.07 29.07 0 0 1-1.22-4 23 23 0 0 1-.46-4.58v-1.22a31.58 31.58 0 0 1 .76-3.65c.31-1.22.61-2.44.92-3.66s.61-2.13.91-3.2a20.6 20.6 0 0 1 .92-2.44c2.74-5.49 5.79-11 9.14-16.76s6.55-11.59 9.75-17.38c3.2-5.94 6.41-11.88 9.3-17.83a181.83 181.83 0 0 0 8.03-17.78 133.48 133.48 0 0 0 5.48-17.83 77 77 0 0 0 2-17.37 32.16 32.16 0 0 0-.61-6.71A24.94 24.94 0 0 0 539 56.1a12.73 12.73 0 0 0-4.27-4.27 13.4 13.4 0 0 0-6.86-1.52 21 21 0 0 0-11.27 3.35 43.9 43.9 0 0 0-10.67 9 88.09 88.09 0 0 0-9.75 13.57c-1.53 2.59-3.05 5.18-4.42 7.92a77.17 77.17 0 0 0 1.67-15.39 32.16 32.16 0 0 0-.61-6.71 24.94 24.94 0 0 0-2.13-5.94 12.73 12.73 0 0 0-4.27-4.27 13.4 13.4 0 0 0-6.86-1.52 21 21 0 0 0-11.27 3.35 43.9 43.9 0 0 0-10.67 9 88.47 88.47 0 0 0-9.75 13.56 153.94 153.94 0 0 0-8.54 16.62 168.56 168.56 0 0 0-7.92 23.62c-2.59 9.9-4 14.78-4 14.78s-.91 4.88-2.59 14.78-2.59 17.68-2.59 23.63a113 113 0 0 0 1.22 16.45 3.66 3.66 0 0 0-.76.61 96.82 96.82 0 0 1-10.69 6.84 93 93 0 0 1-11.73 5.34 35.18 35.18 0 0 1-11.42 2.1 18.17 18.17 0 0 1-3.2-.31 8 8 0 0 1-2.9-1.21 13.37 13.37 0 0 1-2.74-2.44 29.63 29.63 0 0 1-2.75-4 61.44 61.44 0 0 0 14.64-5.94 49.57 49.57 0 0 0 20.1-20.21c2.44-4.57 3.66-8.53 3.66-12.19a23 23 0 0 0-1.83-9.3 19.77 19.77 0 0 0-5-7 21.91 21.91 0 0 0-7.47-4.57 26.82 26.82 0 0 0-9.44-1.67 29.75 29.75 0 0 0-11.28 2.13 32.49 32.49 0 0 0-9.15 5.94 43.49 43.49 0 0 0-7.16 8.54 49 49 0 0 0-5 10.21c-1.37 3.5-2.59 7.62-4 12.19a47.06 47.06 0 0 0-1.83 11.89c0 2 .15 4 .31 5.94l-4.58 2.29c-2.74 1.22-5.33 2.43-7.77 3.65a51.28 51.28 0 0 0-7 4c0-3.81.15-7.78.46-11.59a34.14 34.14 0 0 0-.15-9c-.46-2.13-.92-4.11-1.38-5.79s-.91-3.2-1.37-4.72-.76-3.05-1.06-4.58a25.76 25.76 0 0 1-.46-5.18 9.88 9.88 0 0 1 2.13-3c1.22-1.38 2.59-2.9 4-4.58s2.6-3.35 3.81-5a9.77 9.77 0 0 0 1.68-4.87 16.84 16.84 0 0 0-.15-2.59 6.93 6.93 0 0 0-1.22-2.9 8.08 8.08 0 0 0-3.35-2.28 19.11 19.11 0 0 0-6.71-.92 15.51 15.51 0 0 0-4.72.76 15.09 15.09 0 0 0-3.81 2 13.89 13.89 0 0 0-3.2 2.75c-.92 1.06-1.83 2.13-2.59 3.2-3.81 4.87-7 8.84-9.45 12.19-2.44 3.2-4.42 5.94-6.1 8.23s-3.2 4.27-4.42 5.79c-1.22 1.68-2.89 3.81-5 6.4s-4.26 4.88-6.25 6.86-4.87 4.42-8.23 7.31a14 14 0 0 1-2.22 1.57 21.75 21.75 0 0 0-2.89 2.59 19.86 19.86 0 0 0-2.6 3.35 7.57 7.57 0 0 0-1.06 4.12 8.63 8.63 0 0 0 .61 3.81 5 5 0 0 0 1.37 2 3.47 3.47 0 0 0 2.13.61c.92 0 1.68.15 2.75.15a14.06 14.06 0 0 0 2.43-.15c.92-.15 1.68-.15 2.44-.31a18.14 18.14 0 0 0 2.59 7.93 17.27 17.27 0 0 0 5.64 5.33 29.73 29.73 0 0 0 8.08 3 50.88 50.88 0 0 0 9.91.92 83.18 83.18 0 0 0 15.69-1.68 123.32 123.32 0 0 0 16.31-4.42 126 126 0 0 0 15.39-6.4 58.54 58.54 0 0 0 6.1-3.35A28 28 0 0 0 362 210a30 30 0 0 0 10.51 8.38 32.38 32.38 0 0 0 14.78 3 49.86 49.86 0 0 0 10.71-1.15 61.26 61.26 0 0 0 10.21-3.35c3.2-1.37 6.4-3 9.45-4.73s5.79-3.65 8.38-5.48c.76-.61 1.53-1.22 2.44-1.83.15.46.31.76.46 1.22 2.13 4.72 4.42 8.53 7.31 11.28s5.79 4.26 9 4.26a34.6 34.6 0 0 0 6.71-.76c2.44-.61 4.88-1.22 7.47-2.13a82.36 82.36 0 0 0 7.62-3.2c2.44-1.22 4.87-2.29 7.31-3.51 1.53-.76 3.2-1.67 4.73-2.59a32.89 32.89 0 0 0 5.79 8.08c2.74 2.74 5.79 4.27 9 4.27a34.72 34.72 0 0 0 6.71-.77c2.43-.61 4.87-1.21 7.46-2.13a79.7 79.7 0 0 0 7.62-3.2c2.44-1.22 4.88-2.29 7.32-3.5l4.11-2.29c.16.15.16.3.31.46a30.32 30.32 0 0 0 10.51 8.38 32.55 32.55 0 0 0 14.79 3 49.84 49.84 0 0 0 10.66-1.22 60.39 60.39 0 0 0 10.21-3.36c3.2-1.37 6.41-3 9.45-4.72 2.75-1.68 5.34-3.35 7.62-5 0 .92.16 1.68.16 2.59a18.9 18.9 0 0 0 1.67 6.1 9.57 9.57 0 0 0 3.51 4.26 10.09 10.09 0 0 0 5.94 1.53 6.8 6.8 0 0 0 3.05-.61 10.11 10.11 0 0 0 2.59-2 17.3 17.3 0 0 0 2.29-3.81c.76-1.53 1.52-3.51 2.43-5.79l16.16-45h1.37c.46 3.81 1.07 7.47 1.83 11.28a35.9 35.9 0 0 0 3.66 10.06 19.84 19.84 0 0 0 6.55 7.16q4.11 2.75 11 2.74a24.37 24.37 0 0 0 7.47-1.07 55.06 55.06 0 0 0 7-2.74 63.29 63.29 0 0 0 6.4-3.5c2-1.22 3.81-2.44 5.33-3.36l1.38-21c-3.71 1.12-6.44 3.1-9.2 4.75zm-357.52 29.59a15.25 15.25 0 0 1-1.83 4.57 9.52 9.52 0 0 1-3.66 3.2 11.21 11.21 0 0 1-5.79 1.22 9.77 9.77 0 0 1-5.18-1.37 20.56 20.56 0 0 1-4-3.05l-3-3a3.7 3.7 0 0 0-2.44-1.37l25-26.21c.31.91.61 2.13 1.07 3.51a14.27 14.27 0 0 1 .15 5.79 31.44 31.44 0 0 0-.15 6.4c.15 1.67.3 3.35.3 5a22 22 0 0 1-.47 5.31zm61.56-25.15a27 27 0 0 1 1.68-7c1.07-2.74 1.83-5.18 2.59-7.16a16 16 0 0 1 3.05-5.18 13.61 13.61 0 0 1 4.57-3.66 15.12 15.12 0 0 1 6.71-1.37c1.52 0 2.74.92 3.65 2.59a11.92 11.92 0 0 1 1.53 6.56c0 1.82-1.07 4.26-3.2 7.16a35.84 35.84 0 0 1-6.4 6.86 30.52 30.52 0 0 1-7.17 4.11 18.65 18.65 0 0 1-7.16 1.68c0-1.23 0-2.76.15-4.59zm72.55-45.26c1.67-8.07 2.43-12.19 2.43-12.19s1.38-4.42 4-13.11 4.87-15.08 6.85-19a44.68 44.68 0 0 1 5.8-9.29c2-2.29 3.65-3.35 5.33-3.35.46 0 .76.61.76 1.82a40.83 40.83 0 0 1 .15 4.58 95.74 95.74 0 0 1-3.81 17.83 192.65 192.65 0 0 1-7 19.2q-4.11 9.6-8.68 18.74c-3.05 6.1-5.95 11.59-8.69 16.31a160.32 160.32 0 0 1 2.86-21.54zm17.06 66.45a54.86 54.86 0 0 1-5.18 2.74c-1.67.76-3.35 1.53-4.72 2a14.84 14.84 0 0 1-4 .76 1.92 1.92 0 0 1-1.53-1.06 11.73 11.73 0 0 1-1.46-2.77 28.64 28.64 0 0 1-1.22-4 22.86 22.86 0 0 1-.46-4.57v-1.22a31.74 31.74 0 0 1 .76-3.66l.92-3.65c.3-1.22.61-2.14.91-3.2a20.6 20.6 0 0 1 .92-2.44c2.74-5.49 5.79-11 9.14-16.77 3.35-5.63 6.55-11.58 9.75-17.37 3.2-5.94 6.4-11.89 9.3-17.83.15-.46.46-.76.61-1.22-1.83 7-2.9 10.67-2.9 10.67s-.91 4.87-2.59 14.78-2.59 17.68-2.59 23.62a116.24 116.24 0 0 0 1.68 19.66 6.31 6.31 0 0 0 .15.76c-.76.46-1.52 1.07-2.28 1.53-1.7 1.1-3.38 2.17-5.21 3.24zm31.4-66.45c1.67-8.07 2.44-12.19 2.44-12.19s1.37-4.42 4-13.11 4.88-15.08 6.86-19a44.69 44.69 0 0 1 5.79-9.29c2-2.29 3.66-3.35 5.33-3.35.46 0 .76.61.76 1.82a38.29 38.29 0 0 1 .16 4.58 96.55 96.55 0 0 1-3.81 17.83 195.18 195.18 0 0 1-7 19.2q-4.12 9.6-8.69 18.74c-3.05 6.1-5.94 11.59-8.69 16.31a162 162 0 0 1 2.85-21.54zm43.89 45.26a26.6 26.6 0 0 1 1.68-7c1.06-2.74 1.82-5.18 2.59-7.16a16 16 0 0 1 3-5.18 13.64 13.64 0 0 1 4.58-3.66 15 15 0 0 1 6.7-1.37c1.53 0 2.74.92 3.66 2.59a11.92 11.92 0 0 1 1.52 6.56c0 1.82-1.06 4.26-3.2 7.16a35.22 35.22 0 0 1-6.4 6.86 30.46 30.46 0 0 1-7.16 4.11A18.7 18.7 0 0 1 540 178c0-1.2.18-2.73.18-4.56z"/></g></g></svg>