<svg xmlns="http://www.w3.org/2000/svg" viewBox="0 0 1000 1000"><title>Nigeria-Logo</title><circle cx="499.9" cy="500.3" r="480.6"/><path d="M672.7,389.69a2.76,2.76,0,0,0-1.39-2.85,2.51,2.51,0,0,0-.77-.28h0a1.69,1.69,0,0,0-.83.07,2.65,2.65,0,0,0-2.22,2.29l-11,86.85Z" style="fill:#e6e7e8"/><path d="M686,393.3a2.64,2.64,0,0,0-1-3.06,2.12,2.12,0,0,0-.7-.41h-.07a1.68,1.68,0,0,0-.83-.07,2.6,2.6,0,0,0-2.57,1.87L656.37,475.7Z" style="fill:#e6e7e8"/><path d="M698.61,398.93a2.64,2.64,0,0,0-.48-3.13,1.52,1.52,0,0,0-.63-.49h-.07a1.87,1.87,0,0,0-.76-.2,2.75,2.75,0,0,0-2.85,1.46l-37.38,79.2Z" style="fill:#e6e7e8"/><path d="M710.22,406.5a2.63,2.63,0,0,0,0-3.2,2.54,2.54,0,0,0-.56-.62h0a1.52,1.52,0,0,0-.76-.35,2.57,2.57,0,0,0-3,1l-49.33,72.4Z" style="fill:#e6e7e8"/><path d="M566.74,462.78A2.65,2.65,0,0,0,569,465l86.85,11.05-86-16.33a2.76,2.76,0,0,0-2.85,1.39,1.47,1.47,0,0,0-.28.77h0A2,2,0,0,0,566.74,462.78Z" style="fill:#e6e7e8"/><path d="M710.22,545.74l-53.64-69.27,49.26,72.4a2.71,2.71,0,0,0,3,1,2.53,2.53,0,0,0,.76-.35h0a5.14,5.14,0,0,0,.56-.62A2.63,2.63,0,0,0,710.22,545.74Z" style="fill:#e6e7e8"/><path d="M656.51,476.54l37.38,79.21a2.57,2.57,0,0,0,2.85,1.45,1.37,1.37,0,0,0,.76-.2h0a1.65,1.65,0,0,0,.63-.56,2.64,2.64,0,0,0,.48-3.13Z" style="fill:#e6e7e8"/><path d="M656.44,476.54,681,560.61a2.61,2.61,0,0,0,2.57,1.88,3.33,3.33,0,0,0,.83-.07,1.67,1.67,0,0,0,.77-.42,2.71,2.71,0,0,0,1-3.06Z" style="fill:#e6e7e8"/><path d="M667.42,563.46a2.73,2.73,0,0,0,2.22,2.29,3.41,3.41,0,0,0,.84.07h0a2.74,2.74,0,0,0,2.15-3.13l-16.33-86Z" style="fill:#e6e7e8"/><path d="M653.66,564.08a2.61,2.61,0,0,0,1.88,2.57,1.72,1.72,0,0,0,.83.14h0a3.35,3.35,0,0,0,.83-.14,2.68,2.68,0,0,0,1.88-2.57l-2.71-87.54Z" style="fill:#e6e7e8"/><path d="M639.9,562.62a2.77,2.77,0,0,0,1.39,2.85,1.47,1.47,0,0,0,.77.28,1.68,1.68,0,0,0,.83-.07,2.64,2.64,0,0,0,2.22-2.29l11-86.85Z" style="fill:#e6e7e8"/><path d="M626.56,558.94a2.65,2.65,0,0,0,1,3.06,1.59,1.59,0,0,0,.76.42h0a1.82,1.82,0,0,0,.83.07,2.6,2.6,0,0,0,2.57-1.88l24.53-84.07Z" style="fill:#e6e7e8"/><path d="M614,553.31a2.64,2.64,0,0,0,.48,3.13,1.93,1.93,0,0,0,.63.49h0a1.82,1.82,0,0,0,.83.21,2.77,2.77,0,0,0,2.85-1.46l37.38-79.21Z" style="fill:#e6e7e8"/><path d="M602.45,545.74a2.63,2.63,0,0,0,0,3.2,2.54,2.54,0,0,0,.56.62h0a1.56,1.56,0,0,0,.76.35,2.57,2.57,0,0,0,3-1l49.33-72.4Z" style="fill:#e6e7e8"/><path d="M592.24,536.43a2.67,2.67,0,0,0-.56,3.13,2.41,2.41,0,0,0,.42.69v.07h0a2.51,2.51,0,0,0,.7.49,2.66,2.66,0,0,0,3.12-.56l60-63.78Z" style="fill:#e6e7e8"/><path d="M583.55,525.66a2.73,2.73,0,0,0-1,3,3.68,3.68,0,0,0,.35.76h0a4.53,4.53,0,0,0,.63.56,2.72,2.72,0,0,0,3.19,0L656,476.33Z" style="fill:#e6e7e8"/><path d="M576.75,513.71a2.56,2.56,0,0,0-1.46,2.85,1.38,1.38,0,0,0,.21.76h0a1.56,1.56,0,0,0,.55.63,2.64,2.64,0,0,0,3.13.48L656,476.33Z" style="fill:#e6e7e8"/><path d="M571.81,500.79a2.6,2.6,0,0,0-1.87,2.57,3.33,3.33,0,0,0,.07.83h0a1.65,1.65,0,0,0,.41.77,2.73,2.73,0,0,0,3.06,1l82.4-29.6Z" style="fill:#e6e7e8"/><path d="M569,487.24a2.73,2.73,0,0,0-2.29,2.22,3.37,3.37,0,0,0-.07.83h0a2.51,2.51,0,0,0,.28.77,2.57,2.57,0,0,0,2.85,1.39l86-16.33Z" style="fill:#e6e7e8"/><path d="M568.34,478.83l87.54-2.64-87.54-2.64a2.6,2.6,0,0,0-2.57,1.88,1.72,1.72,0,0,0-.14.83h0a3.35,3.35,0,0,0,.14.83A2.75,2.75,0,0,0,568.34,478.83Z" style="fill:#e6e7e8"/><path d="M571.81,451.46,655.88,476l-82.4-29.6a2.65,2.65,0,0,0-3.06,1,1.57,1.57,0,0,0-.41.76h0a1.69,1.69,0,0,0-.07.83A2.59,2.59,0,0,0,571.81,451.46Z" style="fill:#e6e7e8"/><path d="M576.75,438.6,656,476l-76.77-42.17a2.64,2.64,0,0,0-3.13.48,2.51,2.51,0,0,0-.55.7,1.82,1.82,0,0,0-.21.83A2.6,2.6,0,0,0,576.75,438.6Z" style="fill:#e6e7e8"/><path d="M583.55,426.58,656,475.84l-69.2-53.57a2.63,2.63,0,0,0-3.2,0,5.14,5.14,0,0,0-.62.56h0a1.56,1.56,0,0,0-.35.76A2.67,2.67,0,0,0,583.55,426.58Z" style="fill:#e6e7e8"/><path d="M592.24,415.81l63.78,60-60-63.78a2.66,2.66,0,0,0-3.12-.56,1.6,1.6,0,0,0-.7.49h0a2.62,2.62,0,0,0-.49.69A2.67,2.67,0,0,0,592.24,415.81Z" style="fill:#e6e7e8"/><path d="M602.45,406.5l53.64,69.27-49.26-72.4a2.7,2.7,0,0,0-3-1,2.65,2.65,0,0,0-.76.35h0a5.14,5.14,0,0,0-.56.62A2.53,2.53,0,0,0,602.45,406.5Z" style="fill:#e6e7e8"/><path d="M656.09,475.77l-37.38-79.2a2.56,2.56,0,0,0-2.85-1.46,1.49,1.49,0,0,0-.76.2h0a1.65,1.65,0,0,0-.63.56A2.64,2.64,0,0,0,614,399Z" style="fill:#e6e7e8"/><path d="M656.16,475.7l-24.52-84.07a2.61,2.61,0,0,0-2.58-1.87,3.37,3.37,0,0,0-.83.07h0a1.57,1.57,0,0,0-.76.41,2.71,2.71,0,0,0-1,3.06Z" style="fill:#e6e7e8"/><path d="M645.18,388.78a2.72,2.72,0,0,0-2.22-2.29,3.37,3.37,0,0,0-.83-.07h0a2.51,2.51,0,0,0-.77.28,2.58,2.58,0,0,0-1.39,2.85l16.33,86Z" style="fill:#e6e7e8"/><path d="M659,388.16a2.59,2.59,0,0,0-1.88-2.57,1.72,1.72,0,0,0-.83-.14h0a3.43,3.43,0,0,0-.83.14,2.69,2.69,0,0,0-1.88,2.57l2.71,87.54Z" style="fill:#e6e7e8"/><path d="M720.43,415.81a2.66,2.66,0,0,0,.56-3.13,1.63,1.63,0,0,0-.49-.69h0a2.62,2.62,0,0,0-.69-.49,2.67,2.67,0,0,0-3.13.56l-60,63.78Z" style="fill:#353535"/><path d="M729.05,426.58a2.7,2.7,0,0,0,1-3,2.65,2.65,0,0,0-.35-.76h0a4.48,4.48,0,0,0-.62-.56,2.73,2.73,0,0,0-3.2,0l-69.27,53.64Z" style="fill:#353535"/><path d="M735.93,438.6a2.57,2.57,0,0,0,1.45-2.85,1.81,1.81,0,0,0-.2-.83h0a2.74,2.74,0,0,0-.56-.7,2.64,2.64,0,0,0-3.13-.48l-76.77,42.1Z" style="fill:#353535"/><path d="M740.79,451.46a2.62,2.62,0,0,0,1.88-2.58,3.37,3.37,0,0,0-.07-.83V448h0a1.38,1.38,0,0,0-.42-.69,2.71,2.71,0,0,0-3.06-1l-82.4,29.6Z" style="fill:#353535"/><path d="M743.64,465a2.73,2.73,0,0,0,2.29-2.22A3.37,3.37,0,0,0,746,462h0a2.51,2.51,0,0,0-.28-.77,2.56,2.56,0,0,0-2.85-1.39l-86,16.33Z" style="fill:#353535"/><path d="M747,476.12h0a3.35,3.35,0,0,0-.14-.83,2.69,2.69,0,0,0-2.57-1.88l-87.54,2.64,87.54,2.64a2.6,2.6,0,0,0,2.57-1.87,1.76,1.76,0,0,0,.14-.7Z" style="fill:#353535"/><path d="M740.79,500.79l-84.07-24.53,82.4,29.6a2.64,2.64,0,0,0,3.06-1,1.67,1.67,0,0,0,.42-.77h0a1.81,1.81,0,0,0,.07-.83A2.58,2.58,0,0,0,740.79,500.79Z" style="fill:#353535"/><path d="M735.93,513.71l-79.21-37.38,76.77,42.1a2.64,2.64,0,0,0,3.13-.48,1.93,1.93,0,0,0,.49-.63h0a1.82,1.82,0,0,0,.21-.83A2.49,2.49,0,0,0,735.93,513.71Z" style="fill:#353535"/><path d="M729.05,525.66l-72.4-49.26L725.92,530a2.63,2.63,0,0,0,3.2,0,4.48,4.48,0,0,0,.62-.56h0a1.52,1.52,0,0,0,.35-.76A2.68,2.68,0,0,0,729.05,525.66Z" style="fill:#353535"/><path d="M720.43,536.43l-63.78-60,60,63.78a2.66,2.66,0,0,0,3.13.56,2.41,2.41,0,0,0,.69-.42h.07a2.62,2.62,0,0,0,.49-.69A3,3,0,0,0,720.43,536.43Z" style="fill:#353535"/><path d="M745.86,489.46a2.65,2.65,0,0,0-2.29-2.22l-86.85-11.05,86,16.33a2.74,2.74,0,0,0,2.84-1.39,2.51,2.51,0,0,0,.28-.77h0A1.32,1.32,0,0,0,745.86,489.46Z" style="fill:#353535"/><circle cx="656.3" cy="475.7" r="50.51" transform="translate(81.61 1047.33) rotate(-80.78)"/><g style="opacity:0.800000011920929"><path d="M436.19,668.51V649.34h3.4c5.21,12.22,6.05,14.1,6.25,15h0c-.13-2.43-.2-5.35-.2-8.47v-6.53h2.57v19.17h-3.13c-5.49-13.06-6.11-14.8-6.39-15.56h0c.14,2.43.14,5.49.14,8.89v6.67Z" style="fill:#fff"/><path d="M470,658.79c0,6.46-1.94,10-6.6,10-4.44,0-6.39-3.47-6.39-10,0-6.26,2.22-9.73,6.6-9.73S470,652.53,470,658.79Zm-10.14-.07c0,4.86,1.11,7.71,3.61,7.71s3.62-2.71,3.62-7.71c0-4.8-1.05-7.37-3.62-7.37S459.88,654.13,459.88,658.72Z" style="fill:#fff"/><path d="M478.71,668.51V649.34h3.4c5.21,12.22,6.05,14.1,6.26,15h0c-.14-2.43-.21-5.35-.21-8.47v-6.53h2.57v19.17h-3.2c-5.49-13.06-6.11-14.8-6.39-15.56h0c.14,2.43.14,5.49.14,8.89v6.67Z" style="fill:#fff"/><path d="M500.32,649.34H506c3.2,0,5.56,1.87,5.56,5.49s-2.22,5.62-5.9,5.62H503.1v8h-2.78Zm2.78,8.89h2.29c2.15,0,3.33-1,3.33-3.41a2.87,2.87,0,0,0-3.12-3.19h-2.5Z" style="fill:#fff"/><path d="M520.88,663.09l-1.32,5.42h-2.78c.21-.62,4.66-18.48,4.94-19.17h3.61l5.07,19.17h-2.92l-1.32-5.42Zm4.73-2.43c-1-4.31-1.81-7.16-2.09-8.82h-.07c-.27,1.8-1,5-2,8.82Z" style="fill:#fff"/><path d="M540.89,660v8.47h-2.78V649.34H544c3.41,0,5.35,1.8,5.35,5.07,0,2.78-1.46,4-2.64,4.44,1.74.7,2.36,2.16,2.36,4.8v.69a21.48,21.48,0,0,0,.28,4.17h-2.71a16.09,16.09,0,0,1-.35-4.17v-.62c0-2.64-.62-3.68-3.19-3.68Zm0-2.3h2.37c2.22,0,3.26-1,3.26-3.19a2.64,2.64,0,0,0-2.92-2.92h-2.71Z" style="fill:#fff"/><path d="M567.64,659.69h-6.81v6.46h7.58l-.35,2.43h-10V649.41H568v2.43h-7.16v5.49h6.81Z" style="fill:#fff"/><path d="M579.25,649.34v19.17h-2.78V649.34Z" style="fill:#fff"/><path d="M588.77,649.34h2.78v16.81h7.29l-.35,2.36h-9.72Z" style="fill:#fff"/></g><path d="M147,540a71.83,71.83,0,0,1-28.07-26.61c-6.81-11.32-10.22-24.18-10.22-38.49s3.41-27.17,10.22-38.49A71.83,71.83,0,0,1,147,409.84q17.82-9.6,40.16-9.59a84.85,84.85,0,0,1,34,6.6,67.32,67.32,0,0,1,25.5,19l-21.47,19.8c-9.79-11.26-21.88-16.95-36.33-16.95a47.47,47.47,0,0,0-23.91,5.9A41.38,41.38,0,0,0,148.54,451a48.58,48.58,0,0,0-5.91,23.9,47.47,47.47,0,0,0,5.91,23.9,41.38,41.38,0,0,0,16.39,16.4,48.58,48.58,0,0,0,23.91,5.9c14.45,0,26.54-5.69,36.33-17.16l21.47,19.8a66.64,66.64,0,0,1-25.57,19.18,85.4,85.4,0,0,1-34,6.6C172.23,549.63,158.89,546.44,147,540Z" style="fill:#fff"/><path d="M307.65,402.68h33.42V547.13H307.65V402.68Z" style="fill:#fff"/><path d="M497.75,547.13,469.88,506.9H439.1v40.23H405.68V402.68h62.54q19.17,0,33.35,6.39c9.45,4.24,16.67,10.28,21.74,18.14S531,444.37,531,455.07s-2.57,20-7.71,27.72-12.51,13.76-22,17.86l32.38,46.41H497.75Zm-8.48-110.68c-5.21-4.31-12.85-6.53-22.93-6.53H439.1v50.37h27.24c10.08,0,17.65-2.22,22.93-6.6s7.85-10.56,7.85-18.55S494.48,440.76,489.27,436.45Z" style="fill:#fff"/><path d="M878.08,516.21H811l-12.78,30.92H764l64.4-144.45h33L926,547.13H890.94Zm-10.49-25.43-22.93-55.31-22.93,55.31Z" style="fill:#fff"/></svg>