<svg xmlns="http://www.w3.org/2000/svg" xml:space="preserve" width="395.754" height="246.13" fill-rule="evenodd" clip-rule="evenodd" image-rendering="optimizeQuality" shape-rendering="geometricPrecision" text-rendering="geometricPrecision" viewBox="0 0 902.01 560.98"><defs><linearGradient id="a" x1="509.55" x2="902.01" y1="218.03" y2="218.03" gradientUnits="userSpaceOnUse"><stop offset="0" stop-color="#193f64"/><stop offset="1" stop-color="#197dea"/></linearGradient><linearGradient id="b" x1="0" x2="394.8" y1="334.83" y2="334.83" gradientUnits="userSpaceOnUse"><stop offset="0" stop-color="#197dea"/><stop offset="1" stop-color="#193f64"/></linearGradient></defs><path fill="#193f64" d="M334.61 177.83c7.25-5.25 96.93-18.24 106.66-20.47 25.9-5.92 84.08-13.44 111.62-17.41 9.4-1.35 4.94-1.7 12.21-3.28 40.66-8.85 186.11-26.28 203.97-34.38 1.38-81.03 9.53-113.15-58.88-99.09L471.75 54.04c-36.74 7.88-212.89 42.7-239.07 50.76-28.72 8.84-39.44 25.08-39.43 57.57l.14 79.7c13.87 7.47 34.15 12.25 49.69 17.9l100.31 34.79c17.54 5.54 33.76 12.96 49.01 18.03 23.89 7.95 191.17 63.47 199.73 69.84-4.24 3.83-8.73 4.03-14.99 4.98-6 .9-11.92 1.29-18.12 2l-97.06 14.31c-67.95 9.56-390.53 54.87-393.63 58.24-4.86 8.31-2.55 42.93-2.85 55.71-1.45 60.42 42.69 43.8 117.4 30.32 32.3-5.83 67.7-11.04 99.49-15.62 62.1-8.95 134.32-25.02 193.47-33.12l148.06-24.19c55.22-12.64 104.44-.87 104.56-65.59l-.27-92.51c-8.61-5.54-37.07-14.47-48.5-18.68-16.03-5.9-33.78-12.12-48.43-17.01-35.32-11.81-66.68-23.27-99.09-34.3-15.88-5.4-33.89-12.51-49.84-17.79-15.69-5.19-33.78-10.51-49.16-16.81-23.22-9.52-80.04-25.61-98.55-34.74z"/><path fill="url(#a)" d="M850.6 305.7c-1.77-9.73-6.86-14.28-10.63-22.64-40.79-90.38-48.24-51.3 14.97-108.5 12.36-11.19 44.42-34.69 47.07-44.2l-203.2 30.25c-8.78-2.59-169.43 20.99-189.26 26.88l12.27 6.18c63.84 20.91 313.09 111.77 328.78 112.04z"/><path fill="url(#b)" d="M53.09 246.16c1.07 9.64 43.79 84.59 43.45 90.09-.51 8.24-91.51 73.13-96.54 87.25l104.05-14.51c16.85-2.65 35.24-5.69 51.31-7.9 80.87-11.12 159.76-20.5 239.44-35.85-8.23-5.87-112.52-41.53-120.44-41.49l-13.8-6.28c-67.69-20.73-139.47-48.55-207.47-71.3z"/></svg>