<svg width="1926" height="533" fill="none" xmlns="http://www.w3.org/2000/svg"><path d="M266.4 0a266.5 266.5 0 1 0 177.7 465.2 192.2 192.2 0 0 1-106.8 32.6c-63.5 0-120.3-31.5-158.5-81.2-29.5-34.7-48.6-86.1-49.9-143.8v-12.6c1.3-57.7 20.4-109.1 49.8-143.9 38.3-49.6 95.1-81 158.6-81 39 0 75.6 11.8 106.8 32.6C397.1 25.9 335.3.3 267.5 0h-1z" fill="url(#paint0_linear)"/><path d="M178.7 116.3c24.5-28.8 56-46.2 90.6-46.2 77.6 0 140.5 88 140.5 196.4 0 108.5-62.9 196.4-140.5 196.4-34.5 0-66-17.4-90.5-46.2 38.2 49.6 95 81.1 158.5 81.1 39 0 75.6-11.9 106.8-32.6A266 266 0 0 0 533 266.5c0-79-34.3-149.9-88.8-198.7a192 192 0 0 0-106.8-32.6c-63.5 0-120.3 31.5-158.5 81.2" fill="url(#paint1_linear)"/><path d="M815.1 48.5c-96.8 0-175.5 82.5-175.5 184 0 101.4 78.7 184 175.5 184s175.5-82.6 175.5-184c0-101.5-78.7-184-175.5-184zm0 27.6C896.7 76 963 146.2 963 232.5c0 86.2-66.3 156.3-147.9 156.3-81.5 0-147.9-70.1-147.9-156.3 0-86.3 66.3-156.4 147.9-156.4zm322.6 69.5c-36.4 0-67.7 17.2-89 44.3v-38.2h-29v332.8h29V365.2a111.8 111.8 0 0 0 89 44.3c67.5 0 122.5-59.2 122.5-132 0-72.7-55-131.9-122.5-131.9zm670.1 0c-67.5 0-122.5 59.2-122.5 132 0 72.7 55 132 122.5 132 36.4 0 67.7-17.3 89-44.4v37.4h29v-251h-29V190a111.7 111.7 0 0 0-89-44.3zm-399 .5c-67.7 0-122.6 59.1-122.6 131.9 0 72.7 55 131.8 122.5 131.8 48.3 0 90.3-30.2 110.2-74.1l-25-14.6c-14.8 35.4-47.4 60-85.1 60-49 0-89.3-41.3-93.5-94H1531c.2-3 .3-6 .3-9.2 0-77.7-50.4-132-122.5-132l-.2.2zm256.6.6c-10 .4-19.4 3-28.2 7.8a86.6 86.6 0 0 0-39.6 44.1c-.1.5-.4 1-.6 1.3h-.3v-46.6h-29v249.5h29V401 272a120 120 0 0 1 9-48 91 91 0 0 1 24.4-35 53.8 53.8 0 0 1 45.5-13.3l8.5 1.6c1.6-8.3 5.6-18.8 7.3-27.1-8-2.3-18.6-3.6-26.1-3.3zm-527.8 27.6c51.8 0 93.9 46.4 93.9 103.3 0 57-42.2 103.2-94 103.2s-93.8-46.3-93.8-103.2c0-57 42.1-103.3 93.9-103.3zm670.2 0c51.8 0 93.9 46.4 93.9 103.3 0 57-42.2 103.2-94 103.2s-93.9-46.3-93.9-103.2c0-57 42.2-103.3 94-103.3zm-399.2.4c51.2 0 87 34.5 93 87.3h-185.7c7-49.3 45.9-87.3 92.7-87.3z" fill="#000"/><defs><linearGradient id="paint0_linear" x1="222" y1="8.7" x2="222" y2="525.2" gradientUnits="userSpaceOnUse"><stop stop-color="#FF1B2D"/><stop offset=".3" stop-color="#FF1B2D"/><stop offset=".6" stop-color="#FF1B2D"/><stop offset="1" stop-color="#A70014"/></linearGradient><linearGradient id="paint1_linear" x1="355.9" y1="39.1" x2="355.9" y2="496" gradientUnits="userSpaceOnUse"><stop stop-color="#9C0000"/><stop offset=".7" stop-color="#FF4B4B"/><stop offset="1" stop-color="#FF4B4B"/></linearGradient></defs></svg>