<svg width="1515" height="532" viewBox="0 0 1515 532" fill="none" xmlns="http://www.w3.org/2000/svg">
<path d="M455.841 286.683V194.692H441.006C429.239 194.19 421.069 187.611 421.069 174.984C421.069 157.798 431.804 153.756 445.106 153.756H450.724C511.068 153.756 495.215 66.8242 530.504 66.8242C544.823 66.8242 547.374 76.4275 547.374 98.1569V153.756H595.95C608.735 153.756 618.453 157.798 618.453 172.963C618.453 187.626 612.318 194.692 593.914 194.692H547.89V334.184C547.89 358.45 548.908 373.601 565.276 373.601C578.578 373.601 585.214 362.979 585.214 332.163C585.214 311.437 594.416 298.293 613.852 298.293C631.754 298.293 641.974 309.918 641.974 333.668C641.974 370.562 621.004 413.519 552.491 413.519C457.891 413.533 455.841 340.261 455.841 286.683Z" fill="#0E2B5C"/>
<path d="M635.323 284.662C635.839 200.253 703.335 146.188 782.082 146.188C860.314 146.188 922.707 191.166 923.223 275.575C922.707 359.984 859.812 414.049 779.531 414.049C699.766 414.049 635.839 368.054 635.323 284.662ZM828.623 321.055C828.623 271.519 807.653 187.124 765.728 187.124C741.175 187.124 729.938 205.829 729.938 238.165C729.938 289.206 750.907 373.113 793.348 373.113C816.353 373.113 828.623 354.408 828.623 321.055Z" fill="#0E2B5C"/>
<path d="M1395.22 388.78C1395.22 404.446 1381.42 406.467 1364.03 406.467H1289.88C1273.01 406.467 1259.2 404.446 1259.2 388.78C1259.2 371.594 1281.7 370.591 1281.7 350.366V270.515C1281.7 236.144 1275.05 212.895 1247.94 212.895C1222.37 212.895 1208.05 234.123 1208.05 265.456V350.366C1208.05 370.576 1230.56 371.594 1230.56 388.78C1230.56 404.446 1216.76 406.467 1199.87 406.467H1125.72C1108.34 406.467 1094.53 404.446 1094.53 388.78C1094.53 371.594 1117.04 370.591 1117.04 350.366V268.996C1117.04 233.621 1108.34 212.895 1084.82 212.895C1055.66 212.895 1043.91 236.144 1043.91 267.978V350.366C1043.91 370.576 1066.41 371.594 1066.41 388.78C1066.41 404.446 1052.09 406.467 1035.22 406.467H961.077C944.207 406.467 929.888 404.446 929.888 388.78C929.888 371.594 952.391 370.591 952.391 350.366L952.907 231.6C952.907 214.415 946.772 207.334 940.638 202.79C930.418 195.71 922.735 193.187 922.735 181.563C922.735 163.875 982.563 146.188 1010.68 146.188C1028.59 146.188 1033.69 153.77 1034.21 172.475V192.685H1036.76C1054.14 162.356 1083.3 146.188 1121.64 146.188C1165.11 146.188 1188.63 165.395 1199.87 198.247C1219.31 160.851 1252.55 146.188 1285.78 146.188C1351.75 146.188 1372.72 191.682 1372.72 259.393V350.366C1372.72 370.576 1395.22 371.594 1395.22 388.78Z" fill="#0E2B5C"/>
<path d="M1399.29 364.012C1399.29 334.198 1424.86 314.992 1456.57 314.992C1490.82 314.992 1514.34 334.7 1514.34 364.012C1514.34 395.344 1490.82 414.049 1456.57 414.049C1424.86 414.049 1399.29 395.344 1399.29 364.012Z" fill="#FC5546"/>
<path d="M499.329 504.952C499.329 502.472 504.245 502.3 504.245 498.802V458.97C504.245 454.699 503.901 454.025 501.393 454.025H497.766C494.656 454.025 492.936 455.387 491.632 457.866C489.123 462.553 489.037 465.377 486.027 465.377C484.479 465.377 483.261 464.173 483.519 461.622C483.777 458.884 484.723 454.627 485.411 451.889C486.013 450.098 486.701 449.152 488.607 449.152H530.131C531.951 449.152 532.639 450.083 533.241 451.889C534.015 454.613 534.961 458.884 535.234 461.622C535.406 464.173 534.288 465.377 532.725 465.377C529.615 465.377 529.529 462.568 527.121 457.866C525.831 455.387 524.011 454.025 520.9 454.025H517.274C514.852 454.025 514.508 454.713 514.508 458.469V498.817C514.508 502.314 519.338 502.486 519.338 504.966C519.338 506.671 517.962 507.274 515.282 507.274H503.371C500.705 507.259 499.329 506.657 499.329 504.952Z" fill="#0E2B5C"/>
<path d="M603.604 496.595C603.604 497.283 603.432 498.042 603.002 498.816C600.579 504.277 594.373 508.549 586.518 508.549C572.787 508.549 563.728 499.59 563.728 486.447C563.728 473.145 572.887 463.499 585.744 463.499C597.397 463.499 603.618 470.666 603.618 480.212C603.618 483.795 601.984 485.415 598.085 485.415H574.091C574.951 494.459 580.742 500.68 589.113 500.68C593.513 500.68 596.365 498.974 599.476 495.821C600.336 494.975 600.938 494.631 601.812 494.631C602.83 494.631 603.604 495.405 603.604 496.595ZM573.991 481.416H593.069C593.241 480.9 593.327 479.624 593.327 478.936C593.327 472.113 590.646 467.756 584.526 467.756C578.821 467.756 574.507 473.045 573.991 481.416Z" fill="#0E2B5C"/>
<path d="M641.143 486.705C641.143 472.371 651.076 463.327 664.019 463.327C673.952 463.327 681.376 469.548 681.376 474.679C681.376 477.331 679.656 479.194 676.976 479.194C673.092 479.194 671.716 475.525 669.637 472.457C667.903 469.906 666.097 467.685 661.697 467.685C654.96 467.685 651.506 474.421 651.506 481.76C651.506 492.252 657.468 500.694 666.355 500.694C671.888 500.694 675.07 498.472 677.664 495.835C678.524 494.989 679.126 494.646 679.914 494.646C681.032 494.646 681.735 495.577 681.735 496.523C681.735 497.541 681.391 498.401 681.047 499.175C679.241 503.102 673.88 508.563 664.205 508.563C649.786 508.534 641.143 498.988 641.143 486.705Z" fill="#0E2B5C"/>
<path d="M717.797 505.037C717.797 502.557 722.628 502.557 722.628 499.146V455.214C722.714 453.767 722.112 452.907 721.424 452.405C718.657 450.957 717.367 450.441 717.367 448.736C717.367 446.686 725.824 443.533 728.504 443.533C731.443 443.533 732.131 444.808 732.217 447.632V471.44H732.475C735.413 466.824 740.071 463.413 746.722 463.413C759.751 463.413 761.571 472.629 761.571 485.601V499.16C761.571 502.572 766.402 502.658 766.402 505.137C766.402 506.757 765.026 507.359 762.431 507.359H750.778C748.098 507.359 746.808 506.757 746.808 505.137C746.808 502.658 751.638 502.572 751.638 499.16V485.931C751.638 475.697 748.7 470.666 742.838 470.666C736.101 470.666 732.647 476.299 732.647 483.623L732.561 499.06C732.561 502.471 737.391 502.557 737.391 505.037C737.391 506.657 736.015 507.259 733.421 507.259H721.768C719.087 507.259 717.797 506.657 717.797 505.037Z" fill="#0E2B5C"/>
<path d="M802.909 505.038C802.909 502.558 807.739 502.486 807.739 499.06V475.095C807.825 473.647 807.309 472.701 806.535 472.286C803.855 470.752 802.479 470.322 802.479 468.616C802.479 466.567 810.247 463.413 813.53 463.413C816.468 463.413 817.156 464.689 817.242 467.513V471.44H817.586C820.266 466.753 824.753 463.342 831.661 463.342C841.68 463.342 846.683 469.061 846.683 480.141V499.075C846.683 502.486 851.513 502.572 851.513 505.052C851.513 506.672 850.223 507.273 847.543 507.273H835.89C833.295 507.273 831.919 506.672 831.919 505.052C831.919 502.572 836.75 502.5 836.75 499.075V481.846C836.75 474.25 833.983 470.58 828.121 470.58C821.384 470.58 817.672 476.299 817.672 483.552V499.075C817.672 502.486 822.502 502.572 822.502 505.052C822.502 506.672 821.212 507.273 818.532 507.273H806.879C804.285 507.259 802.909 506.657 802.909 505.038Z" fill="#0E2B5C"/>
<path d="M887.934 486.605C887.934 473.045 898.555 463.399 912.028 463.399C924.9 463.399 934.99 471.841 934.99 485.243C934.99 498.802 924.799 508.535 910.896 508.535C897.165 508.535 887.934 499.404 887.934 486.605ZM923.853 489.514C923.853 479.538 919.023 468.014 909.778 468.014C902.697 468.014 899.157 473.647 899.157 482.176C899.157 492.152 903.901 503.762 913.232 503.762C919.969 503.762 923.853 498.215 923.853 489.514Z" fill="#0E2B5C"/>
<path d="M971.655 505.037C971.655 502.558 976.485 502.486 976.485 499.06V455.716C976.485 453.667 975.969 452.649 974.679 451.617C972.343 449.911 971.139 449.825 971.139 448.206C971.139 445.826 980.04 443.519 982.706 443.519C985.558 443.519 986.332 444.966 986.418 447.704V499.06C986.418 502.472 991.249 502.558 991.249 505.037C991.249 506.657 989.873 507.259 987.278 507.259H975.625C972.959 507.259 971.655 506.657 971.655 505.037Z" fill="#0E2B5C"/>
<path d="M1027.94 486.605C1027.94 473.045 1038.56 463.399 1052.04 463.399C1064.91 463.399 1075 471.841 1075 485.243C1075 498.802 1064.81 508.535 1050.9 508.535C1037.17 508.535 1027.94 499.404 1027.94 486.605ZM1063.86 489.514C1063.86 479.538 1059.03 468.014 1049.79 468.014C1042.71 468.014 1039.17 473.647 1039.17 482.176C1039.17 492.152 1043.91 503.762 1053.24 503.762C1059.98 503.762 1063.86 498.215 1063.86 489.514Z" fill="#0E2B5C"/>
<path d="M1146.12 467.842C1149.32 470.494 1151.04 474.063 1151.04 478.076C1151.04 487.121 1143.96 492.926 1131.96 492.926C1128.59 492.926 1125.48 492.324 1122.71 491.22C1121.51 492.152 1120.82 493.442 1120.82 495.319C1120.82 497.799 1122.2 499.677 1126.53 499.677C1133.09 499.677 1135.76 499.247 1138.61 499.247C1148.54 499.247 1153.89 503.002 1153.89 510.083C1153.89 518.181 1146.72 524.33 1132.73 524.33C1127.04 524.33 1121.34 523.14 1117.71 521.521C1114.77 520.245 1112.88 518.367 1112.88 515.974C1112.88 513.752 1114.52 511.96 1116.85 511.96C1119.19 511.96 1120.48 513.236 1122.03 514.856C1124.1 516.905 1126.87 520.231 1132.99 520.231C1141.36 520.231 1144.64 516.475 1144.64 513.15C1144.64 509.395 1142.14 507.947 1136.53 507.947C1133.77 507.947 1129.54 508.291 1126.86 508.291C1119.17 508.291 1113.04 505.639 1113.04 498.057C1113.04 494.388 1115.55 491.148 1118.92 489.185C1115.29 486.619 1113.04 482.792 1113.04 477.919C1113.04 469.82 1120.89 463.327 1131.94 463.327C1136.52 463.327 1140.4 464.259 1143.43 465.979C1145.4 464.531 1145.23 462.31 1145.75 459.414C1146.26 455.745 1148.17 453.695 1151.62 453.695C1154.56 453.695 1157.59 455.917 1157.59 459.414C1157.6 465.707 1149.83 465.621 1146.12 467.842ZM1140.86 479.782C1140.86 472.873 1136.89 467.498 1131.1 467.498C1125.65 467.498 1123.24 471.512 1123.24 476.371C1123.24 483.107 1127.21 488.826 1132.73 488.826C1138.25 488.826 1140.86 484.727 1140.86 479.782Z" fill="#0E2B5C"/>
<path d="M1190.48 505.037C1190.48 502.558 1195.31 502.486 1195.31 499.06V475.597C1195.31 473.547 1194.8 472.529 1193.51 471.497C1191.17 469.792 1189.97 469.706 1189.97 468.086C1189.97 465.692 1197.56 463.399 1200.85 463.399C1204.39 463.399 1205.25 464.847 1205.25 467.584V499.06C1205.25 502.472 1210.09 502.558 1210.09 505.037C1210.09 506.657 1208.8 507.259 1206.12 507.259H1194.47C1191.86 507.259 1190.48 506.657 1190.48 505.037ZM1193.25 452.319C1193.25 448.564 1196.36 446.185 1199.98 446.185C1203.53 446.185 1206.55 448.564 1206.55 452.319C1206.55 456.075 1203.53 458.468 1199.98 458.468C1196.36 458.454 1193.25 456.075 1193.25 452.319Z" fill="#0E2B5C"/>
<path d="M1286.64 496.595C1286.64 497.283 1286.47 498.042 1286.04 498.816C1283.62 504.277 1277.41 508.549 1269.54 508.549C1255.81 508.549 1246.75 499.59 1246.75 486.447C1246.75 473.145 1255.91 463.499 1268.77 463.499C1280.42 463.499 1286.64 470.666 1286.64 480.212C1286.64 483.795 1285.01 485.415 1281.11 485.415H1257.12C1257.98 494.459 1263.77 500.68 1272.14 500.68C1276.54 500.68 1279.39 498.974 1282.5 495.821C1283.36 494.975 1283.98 494.631 1284.84 494.631C1285.87 494.631 1286.64 495.405 1286.64 496.595ZM1257.03 481.416H1276.11C1276.28 480.9 1276.37 479.624 1276.37 478.936C1276.37 472.113 1273.69 467.756 1267.57 467.756C1261.88 467.756 1257.55 473.045 1257.03 481.416Z" fill="#0E2B5C"/>
<path d="M1323.75 498.988C1323.75 496.681 1325.39 494.975 1327.72 494.975C1333.86 494.975 1332.98 504.191 1341.89 504.191C1346.54 504.191 1349.05 502.056 1349.05 498.473C1349.05 493.872 1344.65 491.65 1338.86 489.084C1331.87 486.189 1325.13 483.121 1325.13 475.439C1325.13 467.842 1331.78 463.327 1341.78 463.327C1351.55 463.327 1358.1 467.584 1358.1 472.027C1358.1 474.163 1356.72 475.955 1354.47 475.955C1348.25 475.955 1349.21 467.685 1340.48 467.685C1336.42 467.685 1334.26 469.906 1334.26 472.715C1334.26 476.127 1335.99 478.005 1345.57 482.104C1352.22 485.014 1358.43 488.597 1358.43 496.007C1358.43 503.002 1351.95 508.549 1341.24 508.549C1329.2 508.534 1323.75 502.901 1323.75 498.988Z" fill="#0E2B5C"/>
<path d="M277 388C237 420 137.667 414.333 93.0001 407.5C22.0001 402.2 24.5001 493.5 70.5001 476C116.5 458.5 122.068 460.552 193 464C265 467.5 286.167 488.167 293 499C304.333 448.667 317 356 277 388Z" fill="url(#paint0_linear_1060_1571)"/>
<path d="M288 170C271.6 131.6 272.167 103.334 274.5 94.0002C205.5 55.0002 183.5 141.5 200 160.5C216.5 179.5 234.114 210 247 250.5C268 316.5 283.5 353.5 277.5 389.5C271.5 425.5 261 470 299.5 505.5C353.5 557.5 446 524 456.5 459C467 394 426.5 363 406 353.5C385.5 344 359 319 348.5 301.5C338 284 308.5 218 288 170Z" fill="url(#paint1_linear_1060_1571)"/>
<path d="M201 162C187 176 137.5 279.5 114.5 329.5C102.396 355.5 91.0001 393 93.0001 405C95.0001 417 99.0001 432 95.5001 450.5C92.0001 469 41.5001 506.5 11.0001 466.5C-19.4999 426.5 26.0001 398 41.5001 384C57.0001 370 60.5001 359 88.5001 303.5C148 170.5 140.5 131.5 140.5 102C121.5 47.5002 163 -9.99979 218.5 1.50021C274 13.0002 287 68.5002 274 102C261 135.5 218.5 144.5 201 162Z" fill="url(#paint2_linear_1060_1571)"/>
<defs>
<linearGradient id="paint0_linear_1060_1571" x1="274.5" y1="440" x2="78.0001" y2="440" gradientUnits="userSpaceOnUse">
<stop stop-color="#D8453D"/>
<stop offset="1" stop-color="#F75252"/>
</linearGradient>
<linearGradient id="paint1_linear_1060_1571" x1="326.493" y1="84.0132" x2="326.493" y2="531.011" gradientUnits="userSpaceOnUse">
<stop stop-color="#CE413A"/>
<stop offset="1" stop-color="#AF3333"/>
</linearGradient>
<linearGradient id="paint2_linear_1060_1571" x1="205.5" y1="47.0002" x2="33.0001" y2="435.5" gradientUnits="userSpaceOnUse">
<stop stop-color="#EF4C43"/>
<stop offset="1" stop-color="#F96A64"/>
</linearGradient>
</defs>
</svg>
