<svg width="500" height="105" fill="none" xmlns="http://www.w3.org/2000/svg"><path d="M76.153 86.094a.605.605 0 01.872-.636 55.786 55.786 0 0010.852 4.162.61.61 0 00.58-.148 52.56 52.56 0 004.574-4.998.611.611 0 00.093-.6 55.8 55.8 0 00-5.326-10.412.605.605 0 01.538-.936 55.524 55.524 0 0011.867-.648.611.611 0 00.466-.37 51.688 51.688 0 002.083-6.189.609.609 0 00-.156-.587A55.762 55.762 0 0093.3 57.19a.605.605 0 01.112-1.074 55.762 55.762 0 0010.814-5.574.613.613 0 00.273-.528 52.632 52.632 0 00-.582-6.241.61.61 0 00-.378-.474 55.759 55.759 0 00-11.826-3.215.606.606 0 01-.335-1.027 55.8 55.8 0 007.778-9.74.61.61 0 00.03-.593 52.18 52.18 0 00-3.18-5.568l-.027.05a55.744 55.744 0 00-12.67 1.894l-.17.047a.603.603 0 01-.723-.799c.02-.055.042-.11.063-.164a55.789 55.789 0 003.127-12.255c.11-.046.221-.089.331-.133a52.48 52.48 0 00-5.705-4.19l-.013.008a.593.593 0 01-.331.556 55.773 55.773 0 00-10.349 6.657l-.137.111a.603.603 0 01-.984-.435l-.01-.177a55.807 55.807 0 00-2.02-12.098.598.598 0 01.154-.587c.044-.045.09-.089.132-.134A51.98 51.98 0 0059.554 0l-.023.042a.591.591 0 01-.022.73 55.802 55.802 0 00-6.728 10.264l-.08.157a.603.603 0 01-1.075.002l-.08-.157A55.791 55.791 0 0044.76.778a.6.6 0 01-.104-.593c.019-.05.039-.1.056-.15a51.98 51.98 0 00-7.043 1.521l-.003.032a.59.59 0 01.248.658 55.764 55.764 0 00-1.982 12.141l-.01.176a.603.603 0 01-.982.44l-.137-.111a55.783 55.783 0 00-10.34-6.601.598.598 0 01-.335-.5 1.436 1.436 0 01-.006-.094 52.411 52.411 0 00-5.714 4.23c.106.043.212.083.317.126a55.772 55.772 0 003.173 12.242l.064.165a.602.602 0 01-.72.8l-.17-.045a55.784 55.784 0 00-12.476-1.84l-.108-.204a52.24 52.24 0 00-3.385 5.992c.042 0 .084-.004.126-.005a55.805 55.805 0 007.877 9.896l.125.125a.603.603 0 01-.332 1.024l-.174.028a55.743 55.743 0 00-11.79 3.25.608.608 0 00-.377.476A52.634 52.634 0 000 50.225a.611.611 0 00.275.527 55.763 55.763 0 0010.811 5.517.605.605 0 01.116 1.074 55.77 55.77 0 00-9.248 7.56.61.61 0 00-.154.587 51.86 51.86 0 002.11 6.203.61.61 0 00.469.369 55.478 55.478 0 0011.846.6.605.605 0 01.542.933 55.74 55.74 0 00-5.28 10.411.61.61 0 00.096.6 52.53 52.53 0 004.603 4.997.61.61 0 00.58.147 55.818 55.818 0 0010.818-4.2.606.606 0 01.875.633 55.772 55.772 0 00-.6 11.485c.01.216.135.41.326.509a51.959 51.959 0 006.35 2.779.608.608 0 00.593-.102 55.77 55.77 0 008.073-8.146.606.606 0 011.056.222 55.78 55.78 0 004.083 10.665.606.606 0 00.502.332 52.445 52.445 0 006.992-.01.609.609 0 00.502-.334A55.783 55.783 0 0060.379 92.9a.606.606 0 011.056-.227 55.734 55.734 0 008.111 8.121.61.61 0 00.593.1 51.893 51.893 0 006.332-2.796.61.61 0 00.325-.51 55.778 55.778 0 00-.643-11.494zM95.02 65.625a.607.607 0 01-.346 1.071 51.3 51.3 0 01-3.413.118 50.256 50.256 0 01-9.143-.837.599.599 0 01-.33-.181 54.792 54.792 0 00-5.355-5.007.6.6 0 01.346-1.064 54.963 54.963 0 007.272-.923.602.602 0 01.373.047 50.335 50.335 0 0110.597 6.776h-.001zm-4.206-19.826c1.99.312 3.96.743 5.9 1.291a.607.607 0 01.119 1.12 50.392 50.392 0 01-11.759 4.449.603.603 0 01-.375-.032 54.818 54.818 0 00-6.933-2.4.6.6 0 01-.117-1.111 54.882 54.882 0 006.27-3.798.604.604 0 01.361-.11 50.3 50.3 0 016.534.591zm.412-15.32a49.997 49.997 0 01-8.918 8.809.606.606 0 01-.356.123 54.859 54.859 0 00-7.389.644.6.6 0 01-.561-.967 54.888 54.888 0 004.117-5.928.605.605 0 01.282-.246 49.973 49.973 0 0112.263-3.41c.538-.078.9.546.562.975zM68.08 24.258a.6.6 0 01.158-.34 50.29 50.29 0 019.663-7.996.607.607 0 01.913.66 50.29 50.29 0 01-4.565 11.682.603.603 0 01-.273.257 54.888 54.888 0 00-6.347 3.524.6.6 0 01-.907-.655 54.976 54.976 0 001.358-7.132zm-36.907-4.86a50.317 50.317 0 014.964 4.58.604.604 0 01.16.34 54.884 54.884 0 001.384 7.127.6.6 0 01-.905.659 54.881 54.881 0 00-6.32-3.48.602.602 0 01-.273-.256 49.965 49.965 0 01-4.616-11.662.607.607 0 01.911-.664 50.269 50.269 0 014.695 3.356zm-17.801 11.23a.607.607 0 01.563-.977c4.14.604 8.188 1.72 12.052 3.326a.6.6 0 01.283.245 54.932 54.932 0 004.163 5.948.6.6 0 01-.558.97 54.92 54.92 0 00-7.189-.61.604.604 0 01-.354-.123 49.986 49.986 0 01-8.96-8.779zM7.824 47.266a49.985 49.985 0 0112.583-1.916.602.602 0 01.358.108 54.933 54.933 0 006.183 3.718.6.6 0 01-.116 1.113 54.908 54.908 0 00-7.003 2.441.605.605 0 01-.375.033 49.97 49.97 0 01-11.746-4.377.608.608 0 01.116-1.12zm8.08 19.617c-1.998.112-4 .104-5.998-.022a.608.608 0 01-.351-1.07A49.983 49.983 0 0120.13 58.98a.602.602 0 01.374-.048c2.387.455 4.8.752 7.227.887a.6.6 0 01.348 1.063 54.85 54.85 0 00-5.335 5.025.602.602 0 01-.329.182 50.285 50.285 0 01-6.512.794zm9.036 13.52a50.292 50.292 0 01-5.527 2.43.608.608 0 01-.756-.835 50.2 50.2 0 016.887-10.52.602.602 0 01.322-.196 54.867 54.867 0 007.011-2.144.6.6 0 01.75.83 54.824 54.824 0 00-2.831 6.762.604.604 0 01-.227.3 50.267 50.267 0 01-5.629 3.372zm13.753 8.677a50.303 50.303 0 01-4.033 4.44.607.607 0 01-1.03-.456 49.98 49.98 0 012.021-12.41.605.605 0 01.215-.308 54.868 54.868 0 005.497-4.781.6.6 0 011.023.452 54.816 54.816 0 00.161 7.33.602.602 0 01-.084.367 50.3 50.3 0 01-3.77 5.366zm3.27-67.296a.604.604 0 01-.146-.346 50.312 50.312 0 01.53-12.532.607.607 0 011.102-.236 50.406 50.406 0 015.62 11.212.601.601 0 01.008.375 54.894 54.894 0 00-1.632 7.073.6.6 0 01-1.094.235 54.831 54.831 0 00-4.388-5.78zm12.822 69.634a50.309 50.309 0 01-1.895 5.734.607.607 0 01-1.127.002 50.258 50.258 0 01-3.204-12.16.603.603 0 01.07-.37 54.807 54.807 0 003.102-6.642.6.6 0 011.118-.002 54.78 54.78 0 003.128 6.63.604.604 0 01.071.37 50.24 50.24 0 01-1.263 6.438zm2.158-64.103a54.888 54.888 0 00-1.646-7.025.605.605 0 01.007-.374A49.983 49.983 0 0160.853 8.71a.607.607 0 011.103.23c.71 4.124.9 8.321.563 12.492a.604.604 0 01-.144.346 54.883 54.883 0 00-4.338 5.766.6.6 0 01-1.094-.23zm5.113 55.949c.204-2.423.248-4.857.13-7.286a.6.6 0 011.02-.456 54.855 54.855 0 005.553 4.786.603.603 0 01.216.308 50.258 50.258 0 012.06 12.363.608.608 0 01-1.028.46 49.968 49.968 0 01-7.864-9.81.602.602 0 01-.086-.365h-.001zm9.614-14.199c2.29.86 4.635 1.567 7.02 2.114a.602.602 0 01.322.195 50.227 50.227 0 016.926 10.494.607.607 0 01-.752.838 50.247 50.247 0 01-11.178-5.76.602.602 0 01-.228-.3 54.8 54.8 0 00-2.855-6.749.6.6 0 01.746-.832z" fill="#182CD1"/><path d="M153.461 89.325V44.141c0-2.778.539-5.203 1.618-7.278 1.078-2.075 2.54-3.692 4.386-4.852 1.846-1.16 3.928-1.74 6.248-1.74 3.431 0 6.199 1.095 8.307 3.284 2.107 2.189 3.161 5.13 3.161 8.821v46.95h20.24v-45.97c0-3.92 1.061-7.081 3.185-9.483 2.124-2.4 5.081-3.601 8.87-3.601 3.333 0 6.11 1.045 8.332 3.136 2.221 2.09 3.332 5.227 3.332 9.41v46.507h20.828V38.701c0-8.168-2.197-14.482-6.591-18.942-4.395-4.46-10.104-6.689-17.128-6.689-5.522 0-10.3 1.299-14.335 3.896s-6.82 6.052-8.356 10.365h-.784c-1.209-4.378-3.626-7.85-7.253-10.414-3.626-2.565-8.021-3.847-13.183-3.847-5.096 0-9.474 1.274-13.134 3.822-3.659 2.549-6.273 6.028-7.841 10.44h-.882V14.05h-19.897v75.275h20.877zm138.984 1.47c7.613 0 14.188-1.625 19.726-4.876 5.537-3.25 9.809-7.792 12.815-13.624 3.006-5.832 4.509-12.603 4.509-20.313 0-7.776-1.503-14.58-4.509-20.412-3.006-5.832-7.278-10.373-12.815-13.624-5.538-3.25-12.113-4.876-19.726-4.876-7.612 0-14.187 1.625-19.725 4.876-5.538 3.251-9.81 7.792-12.816 13.624-3.005 5.832-4.508 12.636-4.508 20.412 0 7.71 1.503 14.481 4.508 20.313 3.006 5.832 7.278 10.373 12.816 13.624 5.538 3.25 12.113 4.876 19.725 4.876zm.098-16.172c-3.496 0-6.428-.988-8.797-2.965-2.368-1.977-4.149-4.68-5.341-8.11-1.193-3.431-1.789-7.335-1.789-11.713 0-4.378.596-8.283 1.789-11.713 1.192-3.43 2.973-6.142 5.341-8.135 2.369-1.993 5.301-2.99 8.797-2.99 3.463 0 6.355.997 8.674 2.99 2.32 1.993 4.076 4.704 5.269 8.135 1.192 3.43 1.789 7.335 1.789 11.713 0 4.378-.597 8.282-1.789 11.712-1.193 3.43-2.949 6.134-5.269 8.111-2.319 1.977-5.211 2.965-8.674 2.965zm71.452 14.702V45.807c.033-3.235.646-6.004 1.838-8.307 1.193-2.303 2.859-4.06 4.999-5.268 2.14-1.21 4.615-1.813 7.425-1.813 4.182 0 7.465 1.298 9.85 3.896 2.385 2.597 3.561 6.199 3.529 10.806v44.204h20.877V41.396c0-5.848-1.079-10.888-3.235-15.119-2.156-4.23-5.178-7.49-9.066-9.777-3.888-2.287-8.446-3.43-13.673-3.43-5.587 0-10.341 1.282-14.261 3.847-3.921 2.565-6.714 6.036-8.381 10.414h-.882v-13.28h-19.897v75.274h20.877zm98.956 1.47c7.612 0 14.187-1.625 19.725-4.876 5.538-3.25 9.809-7.792 12.815-13.624C498.497 66.463 500 59.692 500 51.982c0-7.776-1.503-14.58-4.509-20.412-3.006-5.832-7.277-10.373-12.815-13.624-5.538-3.25-12.113-4.876-19.725-4.876-7.613 0-14.188 1.625-19.726 4.876-5.538 3.251-9.81 7.792-12.815 13.624-3.006 5.832-4.509 12.636-4.509 20.412 0 7.71 1.503 14.481 4.509 20.313 3.005 5.832 7.277 10.373 12.815 13.624 5.538 3.25 12.113 4.876 19.726 4.876zm.097-16.172c-3.495 0-6.428-.988-8.796-2.965-2.369-1.977-4.15-4.68-5.342-8.11-1.193-3.431-1.789-7.335-1.789-11.713 0-4.378.596-8.283 1.789-11.713 1.192-3.43 2.973-6.142 5.342-8.135 2.368-1.993 5.301-2.99 8.796-2.99 3.464 0 6.355.997 8.675 2.99 2.319 1.993 4.076 4.704 5.268 8.135 1.193 3.43 1.789 7.335 1.789 11.713 0 4.378-.596 8.282-1.789 11.712-1.192 3.43-2.949 6.134-5.268 8.111-2.32 1.977-5.211 2.965-8.675 2.965z" fill="#0E1337"/></svg>