<svg width="500" height="105" viewBox="0 0 500 105" fill="none" xmlns="http://www.w3.org/2000/svg">
<path d="M76.1526 86.0938C76.1163 85.8687 76.2095 85.6423 76.3938 85.5081C76.578 85.3738 76.8221 85.3544 77.0252 85.458C80.4877 87.2195 84.1248 88.6146 87.8772 89.6204C88.083 89.6755 88.3027 89.6191 88.4565 89.4716C90.0872 87.9059 91.6152 86.2367 93.031 84.4742C93.1665 84.3048 93.202 84.0763 93.1244 83.8738C91.7184 80.2262 89.933 76.7364 87.7976 73.462C87.673 73.2712 87.6661 73.0266 87.7797 72.8291C87.8933 72.6316 88.1082 72.5146 88.3358 72.5263C89.3173 72.5776 90.2957 72.6032 91.2711 72.6032C94.2631 72.6027 97.2501 72.3604 100.203 71.8786C100.412 71.8444 100.588 71.7041 100.669 71.508C101.493 69.4908 102.189 67.4237 102.752 65.319C102.808 65.1096 102.749 64.8864 102.596 64.7324C99.7773 61.8916 96.6607 59.3624 93.3004 57.1886C93.1091 57.0649 93.0034 56.8442 93.027 56.6175C93.0506 56.3908 93.1995 56.1966 93.4123 56.115C97.2094 54.6568 100.836 52.7877 104.226 50.541C104.402 50.4239 104.505 50.2241 104.499 50.0128C104.429 47.9227 104.235 45.8385 103.917 43.7715C103.884 43.5579 103.74 43.3778 103.539 43.2983C99.727 41.7953 95.761 40.717 91.7128 40.0831C91.4877 40.0477 91.3014 39.8889 91.2308 39.6722C91.1602 39.4555 91.2173 39.2175 91.3784 39.0563C94.3264 36.1104 96.9352 32.8436 99.1558 29.3168C99.2682 29.1377 99.2798 28.9131 99.1866 28.7233C98.2413 26.8037 97.1788 24.9442 96.0052 23.1551L95.979 23.2051C91.6967 23.3475 87.4451 23.9831 83.3084 25.0994L83.1385 25.1456C82.919 25.206 82.6842 25.1377 82.5314 24.9688C82.3787 24.8 82.3341 24.5595 82.4162 24.3471C82.4369 24.2922 82.4581 24.2372 82.4788 24.1826C83.9824 20.2293 85.0315 16.1179 85.606 11.9275C85.716 11.8822 85.8271 11.8395 85.9374 11.7949C84.1321 10.2714 82.2259 8.87151 80.232 7.60483L80.2185 7.6129C80.2279 7.84726 80.0983 8.06513 79.8879 8.16876C76.2033 9.99936 72.7326 12.232 69.5391 14.826L69.4023 14.9375C69.2263 15.082 68.984 15.115 68.7758 15.0228C68.5676 14.9306 68.4291 14.729 68.4178 14.5016C68.4147 14.4428 68.4117 14.3843 68.4082 14.3255C68.1816 10.2307 67.5042 6.17331 66.3885 2.2269C66.3291 2.01771 66.388 1.79277 66.5423 1.63952C66.5865 1.59531 66.6311 1.5511 66.6745 1.50613C64.339 0.838318 61.9595 0.335042 59.5536 0L59.5306 0.041901C59.6927 0.261232 59.6837 0.56307 59.5087 0.772285C56.8957 3.93583 54.6397 7.37791 52.7814 11.0361L52.7019 11.1929C52.5998 11.3963 52.392 11.5249 52.1644 11.5254C51.9369 11.5259 51.7284 11.3982 51.6255 11.1952L51.5456 11.0384C49.6687 7.37833 47.3929 3.93704 44.7595 0.777282C44.6213 0.612655 44.5819 0.386618 44.6561 0.184902C44.675 0.134544 44.6946 0.0845707 44.7119 0.0342127C42.332 0.378005 39.9789 0.886523 37.6694 1.5561L37.666 1.58762C37.8844 1.72875 37.9851 1.9959 37.9143 2.24612C36.8078 6.20759 36.1429 10.2793 35.9319 14.387L35.9227 14.5631C35.9121 14.7905 35.7744 14.9926 35.5665 15.0855C35.3587 15.1784 35.1162 15.1463 34.9397 15.0025L34.8029 14.8918C31.6091 12.3179 28.1413 10.1041 24.4622 8.29062C24.269 8.19626 24.1413 8.00547 24.1277 7.79089C24.1254 7.75975 24.1235 7.72861 24.1216 7.69747C22.1235 8.97672 20.2146 10.3901 18.4081 11.9279C18.5138 11.9698 18.6199 12.0102 18.7252 12.0533C19.3154 16.241 20.38 20.3481 21.8985 24.2952L21.9619 24.4598C22.0451 24.6718 22.0016 24.9127 21.8494 25.0822C21.6972 25.2516 21.4625 25.3208 21.2427 25.2609L21.0724 25.2155C16.9964 24.1322 12.8107 23.5146 8.59554 23.3746C8.55903 23.3069 8.52443 23.2385 8.48791 23.1705C7.22915 25.0915 6.09844 27.0936 5.10316 29.1634C5.14506 29.1634 5.18696 29.1592 5.22886 29.1581C7.47102 32.7447 10.1136 36.0648 13.1059 39.0544L13.2308 39.1789C13.3928 39.339 13.4507 39.5767 13.3806 39.7934C13.3104 40.01 13.1241 40.1687 12.899 40.2034L12.7249 40.2311C8.68748 40.8789 4.73359 41.969 0.93459 43.4817C0.73358 43.5618 0.590284 43.7428 0.55825 43.9568C0.247347 46.0332 0.0610865 48.1264 0.000224157 50.225C-0.00548956 50.4364 0.0983487 50.6358 0.274938 50.7521C3.6673 52.9791 7.29264 54.8293 11.0865 56.2695C11.2996 56.3505 11.4491 56.5442 11.4734 56.7708C11.4978 56.9974 11.3928 57.2184 11.2019 57.3428C7.85751 59.5244 4.75713 62.0589 1.95405 64.9026C1.80201 65.057 1.74345 65.2806 1.80029 65.4897C2.37229 67.5998 3.07717 69.6717 3.91071 71.6929C3.99189 71.8889 4.16904 72.0286 4.37854 72.062C7.25536 72.5191 10.1637 72.7489 13.0766 72.7493C14.1222 72.7493 15.1717 72.7199 16.225 72.6612C16.4526 72.6485 16.6681 72.7646 16.7825 72.9618C16.897 73.159 16.891 73.4037 16.767 73.595C14.6476 76.871 12.8781 80.3605 11.4875 84.006C11.4103 84.2086 11.4466 84.437 11.5828 84.6057C13.0079 86.3691 14.5457 88.0384 16.1865 89.6031C16.341 89.75 16.5609 89.8057 16.7666 89.7499C20.5084 88.7296 24.1336 87.3221 27.5836 85.5502C27.7863 85.446 28.0303 85.4645 28.2151 85.598C28.3998 85.7315 28.4939 85.9574 28.4585 86.1826C27.8631 89.9801 27.6619 93.8291 27.8581 97.668C27.8691 97.8837 27.9936 98.0774 28.1852 98.177C30.2377 99.2437 32.3591 100.172 34.5353 100.956C34.7372 101.029 34.9621 100.99 35.1281 100.854C38.0917 98.4234 40.7969 95.6938 43.2007 92.7084C43.3436 92.5308 43.5741 92.4485 43.7971 92.4954C44.0201 92.5423 44.1979 92.7105 44.2571 92.9305C45.2495 96.6157 46.6175 100.189 48.3396 103.595C48.4365 103.787 48.6274 103.913 48.8416 103.927C49.9692 104 51.1059 104.037 52.2517 104.039C53.4562 104.039 54.6502 103.998 55.8337 103.917C56.0484 103.902 56.2394 103.775 56.3357 103.583C58.0456 100.169 59.4005 96.5898 60.379 92.8998C60.4374 92.6795 60.6146 92.5106 60.8375 92.4628C61.0604 92.415 61.2913 92.4964 61.435 92.6734C63.8521 95.6522 66.5702 98.3736 69.5461 100.794C69.7124 100.929 69.9374 100.967 70.1388 100.894C72.3092 100.104 74.4244 99.1697 76.4705 98.0978C76.6618 97.9974 76.7857 97.8032 76.7961 97.5873C76.9786 93.7442 76.7629 89.8925 76.1526 86.0938ZM95.0207 65.625C95.4397 65.9736 95.2198 66.6586 94.6747 66.6963C93.5433 66.7732 92.4058 66.8124 91.2623 66.8139C90.3897 66.8139 89.5117 66.7913 88.6341 66.7459C86.448 66.6318 84.2717 66.375 82.119 65.9771C81.9923 65.9537 81.8765 65.8901 81.7888 65.7956C80.1176 64.0091 78.3287 62.3365 76.434 60.7891C76.2412 60.6329 76.1647 60.3741 76.2414 60.1382C76.3181 59.9023 76.5322 59.738 76.7799 59.725C79.2216 59.5796 81.6509 59.2714 84.0515 58.8024C84.1779 58.7775 84.309 58.7938 84.4255 58.8489C88.2269 60.6556 91.7867 62.9319 95.0215 65.6246L95.0207 65.625ZM90.8152 45.7993C92.8059 46.111 94.7759 46.5422 96.7148 47.0905C97.2403 47.2393 97.316 47.9551 96.8336 48.2107C93.1151 50.1784 89.1649 51.6727 85.0752 52.6587C84.9498 52.6885 84.8182 52.6773 84.6996 52.6268C82.4449 51.6732 80.1289 50.8717 77.7671 50.2277C77.5278 50.1634 77.3528 49.9584 77.3268 49.712C77.3007 49.4656 77.429 49.2286 77.6495 49.1156C79.8222 47.9911 81.9173 46.7225 83.9208 45.3184C84.0261 45.2444 84.1523 45.2061 84.281 45.2088C86.4696 45.2632 88.6523 45.4605 90.8152 45.7993ZM91.2273 30.4789C88.6358 33.7777 85.6395 36.7372 82.3089 39.2877C82.2065 39.3655 82.082 39.4088 81.9534 39.4111C79.4786 39.4589 77.0099 39.6742 74.5642 40.0554C74.3195 40.0944 74.0759 39.9788 73.9515 39.7645C73.827 39.5502 73.8473 39.2814 74.0026 39.0882C75.5036 37.2047 76.8791 35.2244 78.12 33.1602C78.1858 33.0503 78.2847 32.9642 78.4025 32.9142C82.3281 31.2594 86.4491 30.1134 90.6653 29.504C91.2035 29.426 91.5644 30.0499 91.2273 30.4789ZM68.0799 24.258C68.095 24.1307 68.1505 24.0116 68.2383 23.9181C71.1129 20.8601 74.359 18.174 77.9009 15.9224C78.3622 15.6291 78.948 16.0527 78.8142 16.5828C77.7859 20.6519 76.2522 24.5762 74.249 28.2643C74.1876 28.3767 74.092 28.4667 73.976 28.5211C71.7848 29.5545 69.6643 30.7318 67.6286 32.0454C67.4208 32.1802 67.1515 32.1734 66.9508 32.0283C66.7501 31.8832 66.6592 31.6295 66.7222 31.39C67.3314 29.0452 67.785 26.6626 68.0799 24.258ZM31.1729 19.3982C32.9284 20.8122 34.5869 22.3425 36.1372 23.9789C36.2249 24.0721 36.2808 24.1909 36.2967 24.3179C36.6002 26.7215 37.0625 29.1024 37.6806 31.4449C37.7445 31.6843 37.6546 31.9384 37.4544 32.0843C37.2541 32.2303 36.9847 32.238 36.7764 32.1038C34.7484 30.8063 32.6371 29.6436 30.4563 28.6233C30.3404 28.5693 30.2447 28.4798 30.183 28.3677C28.1608 24.6898 26.61 20.7718 25.5674 16.7062C25.4313 16.1761 26.016 15.7501 26.4784 16.0423C28.1062 17.0701 29.6736 18.1906 31.1729 19.3982ZM13.3719 30.6281C13.0324 30.1991 13.3934 29.5725 13.9346 29.6513C18.0746 30.2547 22.1232 31.3719 25.9867 32.9772C26.105 33.0265 26.2044 33.1123 26.2704 33.2221C27.5252 35.2945 28.9157 37.2816 30.4329 39.1705C30.5886 39.3632 30.6097 39.6318 30.4861 39.8465C30.3625 40.0613 30.1195 40.1778 29.8747 40.14C27.4945 39.779 25.0932 39.575 22.6862 39.5291C22.5584 39.527 22.4345 39.4843 22.3325 39.4073C18.9888 36.8688 15.9782 33.9191 13.3719 30.6281ZM7.82365 47.2658C11.9192 46.0936 16.1478 45.4497 20.4066 45.3499C20.5345 45.347 20.66 45.385 20.7649 45.4583C22.7422 46.8318 24.8076 48.0738 26.9478 49.1763C27.1686 49.2888 27.2975 49.5256 27.2719 49.7722C27.2463 50.0187 27.0717 50.224 26.8325 50.2888C24.4455 50.9438 22.1057 51.7595 19.8288 52.7302C19.7106 52.7808 19.5793 52.7923 19.454 52.7633C15.3705 51.8032 11.4241 50.3326 7.70794 48.3864C7.22742 48.1334 7.29892 47.4165 7.82365 47.2658ZM15.9032 66.8835C13.9056 66.995 11.9031 66.9873 9.90639 66.8605C9.36168 66.8255 9.13757 66.1412 9.55465 65.7903C12.779 63.0839 16.3323 60.7957 20.1302 58.98C20.2465 58.9245 20.3774 58.9078 20.5039 58.9323C22.8906 59.3873 25.3049 59.6836 27.7308 59.8192C27.9781 59.8322 28.192 59.996 28.2691 60.2313C28.3463 60.4667 28.2708 60.7252 28.0791 60.8821C26.1908 62.4361 24.4085 64.1148 22.7442 65.9067C22.6568 66.0012 22.5415 66.0651 22.4152 66.0893C20.2641 66.4955 18.0888 66.7608 15.9032 66.8835ZM24.9404 80.4022C23.1484 81.3226 21.3027 82.1346 19.4133 82.8336C18.9013 83.0227 18.4181 82.4876 18.6575 81.9982C20.5031 78.2165 22.8168 74.6817 25.5443 71.4773C25.6279 71.3793 25.7406 71.3107 25.866 71.2816C28.2482 70.7243 30.5904 70.0084 32.877 69.1385C33.1082 69.0498 33.3703 69.1124 33.5364 69.2961C33.7026 69.4798 33.7387 69.7468 33.6273 69.9681C32.5336 72.1563 31.5877 74.4153 30.7957 76.7299C30.7542 76.8518 30.6747 76.9573 30.5689 77.0309C28.7682 78.276 26.888 79.4022 24.9404 80.4022ZM38.6927 89.0799C37.4381 90.6386 36.0915 92.1211 34.6602 93.5195C34.2701 93.9008 33.6108 93.6098 33.63 93.0643C33.7786 88.8587 34.4577 84.6886 35.6513 80.6532C35.6884 80.5306 35.7635 80.4229 35.8658 80.3457C37.802 78.8756 39.6385 77.2784 41.3629 75.5647C41.538 75.3896 41.8028 75.3403 42.0293 75.4405C42.2559 75.5406 42.3975 75.7698 42.3858 76.0172C42.276 78.4611 42.3299 80.9096 42.5472 83.3464C42.559 83.4746 42.5294 83.6033 42.4627 83.7135C41.3241 85.5824 40.0648 87.375 38.6927 89.0799ZM41.9629 21.7843C41.8787 21.6874 41.8275 21.5662 41.8169 21.4383C41.47 17.2553 41.648 13.0453 42.3466 8.90645C42.4377 8.36827 43.1446 8.21451 43.4487 8.67042C44.5266 10.2818 45.5107 11.9541 46.396 13.6789C47.4251 15.6844 48.3182 17.7569 49.0692 19.8822C49.1116 20.0031 49.1144 20.1344 49.0772 20.257C48.3778 22.5761 47.8327 24.939 47.4454 27.3302C47.4067 27.575 47.2213 27.7709 46.979 27.8229C46.7366 27.8749 46.4872 27.7725 46.3514 27.5651C45.0178 25.5433 43.5518 23.6122 41.9629 21.7843ZM54.785 91.4179C54.2687 93.3655 53.6359 95.2804 52.8899 97.1522C52.6876 97.6592 51.9673 97.6607 51.7635 97.1541C50.1904 93.2511 49.1137 89.166 48.5587 84.9947C48.542 84.867 48.5666 84.7373 48.629 84.6245C49.81 82.4821 50.8463 80.2631 51.7308 77.9823C51.8197 77.751 52.0416 77.5982 52.2894 77.5977C52.5371 77.5972 52.7597 77.7491 52.8495 77.98C53.7427 80.2576 54.7874 82.4728 55.9767 84.6107C56.0393 84.7232 56.0644 84.8528 56.0482 84.9805C55.7678 87.1515 55.3459 89.3019 54.785 91.4179ZM56.9431 27.3152C56.5491 24.9398 55.9992 22.5929 55.297 20.2897C55.2596 20.1674 55.2619 20.0365 55.3036 19.9156C56.6771 15.9633 58.5415 12.199 60.853 8.71117C61.1551 8.25526 61.8632 8.40364 61.9558 8.94182C62.666 13.0655 62.8553 17.262 62.5194 21.4329C62.5091 21.5607 62.4585 21.6818 62.3748 21.7789C60.804 23.6037 59.355 25.5299 58.0371 27.5451C57.902 27.7523 57.6536 27.8553 57.4115 27.8044C57.1694 27.7536 56.9834 27.5593 56.9431 27.3152ZM62.0558 83.2637C62.2604 80.8408 62.3037 78.407 62.1853 75.9783C62.1726 75.731 62.3133 75.5013 62.5394 75.4002C62.7654 75.2991 63.0304 75.3473 63.2063 75.5217C64.9483 77.2393 66.8033 78.8384 68.7588 80.3084C68.8617 80.3853 68.9374 80.493 68.9748 80.6159C70.1748 84.6347 70.867 88.7879 71.0353 92.9786C71.0572 93.5241 70.3998 93.8189 70.0074 93.4399C66.9831 90.5135 64.3406 87.2169 62.1427 83.6282C62.076 83.5189 62.0458 83.3913 62.0566 83.2637H62.0558ZM71.6703 69.0651C73.9602 69.9255 76.3051 70.6319 78.6893 71.1793C78.8149 71.208 78.9279 71.2761 79.0118 71.3738C81.7511 74.568 84.0781 78.0938 85.9382 81.8683C86.1796 82.3581 85.6987 82.8935 85.1859 82.7063C81.2335 81.2618 77.4783 79.3265 74.0083 76.9459C73.9022 76.8728 73.8223 76.7676 73.7804 76.6457C72.9801 74.335 72.026 72.0805 70.9246 69.8973C70.8127 69.6767 70.8478 69.4099 71.013 69.2257C71.1782 69.0416 71.4396 68.9777 71.6711 69.0651H71.6703Z" fill="#182CD1"/>
<path d="M153.461 89.3251V44.1405C153.461 41.3634 154 38.9376 155.079 36.863C156.157 34.7883 157.619 33.1711 159.465 32.0112C161.311 30.8514 163.393 30.2715 165.713 30.2715C169.144 30.2715 171.912 31.366 174.02 33.555C176.127 35.744 177.181 38.6844 177.181 42.3762V89.3251H197.421V43.3564C197.421 39.4358 198.482 36.2749 200.606 33.8735C202.73 31.4722 205.687 30.2715 209.476 30.2715C212.809 30.2715 215.586 31.317 217.808 33.4079C220.029 35.4989 221.14 38.6354 221.14 42.8173V89.3251H241.968V38.7007C241.968 30.5329 239.771 24.2191 235.377 19.7595C230.982 15.2998 225.273 13.07 218.249 13.07C212.727 13.07 207.949 14.3687 203.914 16.9661C199.879 19.5634 197.094 23.0184 195.558 27.3311H194.774C193.565 22.9531 191.148 19.4818 187.521 16.9171C183.895 14.3523 179.5 13.07 174.338 13.07C169.242 13.07 164.864 14.3442 161.204 16.8925C157.545 19.4409 154.931 22.9204 153.363 27.3311H152.481V14.0501H132.584V89.3251H153.461ZM292.445 90.7953C300.058 90.7953 306.633 89.1699 312.171 85.9191C317.708 82.6683 321.98 78.1269 324.986 72.2951C327.992 66.4633 329.495 59.6921 329.495 51.9816C329.495 44.2059 327.992 37.402 324.986 31.5702C321.98 25.7383 317.708 21.197 312.171 17.9462C306.633 14.6954 300.058 13.07 292.445 13.07C284.833 13.07 278.258 14.6954 272.72 17.9462C267.182 21.197 262.91 25.7383 259.904 31.5702C256.899 37.402 255.396 44.2059 255.396 51.9816C255.396 59.6921 256.899 66.4633 259.904 72.2951C262.91 78.1269 267.182 82.6683 272.72 85.9191C278.258 89.1699 284.833 90.7953 292.445 90.7953ZM292.543 74.6229C289.047 74.6229 286.115 73.6346 283.746 71.658C281.378 69.6814 279.597 66.9778 278.405 63.5473C277.212 60.1168 276.616 56.2126 276.616 51.8346C276.616 47.4567 277.212 43.5524 278.405 40.1219C279.597 36.6914 281.378 33.9797 283.746 31.9867C286.115 29.9938 289.047 28.9973 292.543 28.9973C296.006 28.9973 298.898 29.9938 301.217 31.9867C303.537 33.9797 305.293 36.6914 306.486 40.1219C307.678 43.5524 308.275 47.4567 308.275 51.8346C308.275 56.2126 307.678 60.1168 306.486 63.5473C305.293 66.9778 303.537 69.6814 301.217 71.658C298.898 73.6346 296.006 74.6229 292.543 74.6229ZM363.995 89.3251V45.8067C364.028 42.5723 364.641 39.8034 365.833 37.5C367.026 35.1967 368.692 33.4406 370.832 32.2318C372.972 31.0229 375.447 30.4185 378.257 30.4185C382.439 30.4185 385.722 31.7172 388.107 34.3146C390.492 36.912 391.668 40.514 391.636 45.1206V89.3251H412.513V41.3961C412.513 35.5479 411.434 30.5084 409.278 26.2774C407.122 22.0465 404.1 18.7875 400.212 16.5005C396.324 14.2135 391.766 13.07 386.539 13.07C380.952 13.07 376.198 14.3523 372.278 16.9171C368.357 19.4818 365.564 22.9531 363.897 27.3311H363.015V14.0501H343.118V89.3251H363.995ZM462.951 90.7953C470.563 90.7953 477.138 89.1699 482.676 85.9191C488.214 82.6683 492.485 78.1269 495.491 72.2951C498.497 66.4633 500 59.6921 500 51.9816C500 44.2059 498.497 37.402 495.491 31.5702C492.485 25.7383 488.214 21.197 482.676 17.9462C477.138 14.6954 470.563 13.07 462.951 13.07C455.338 13.07 448.763 14.6954 443.225 17.9462C437.687 21.197 433.415 25.7383 430.41 31.5702C427.404 37.402 425.901 44.2059 425.901 51.9816C425.901 59.6921 427.404 66.4633 430.41 72.2951C433.415 78.1269 437.687 82.6683 443.225 85.9191C448.763 89.1699 455.338 90.7953 462.951 90.7953ZM463.048 74.6229C459.553 74.6229 456.62 73.6346 454.252 71.658C451.883 69.6814 450.102 66.9778 448.91 63.5473C447.717 60.1168 447.121 56.2126 447.121 51.8346C447.121 47.4567 447.717 43.5524 448.91 40.1219C450.102 36.6914 451.883 33.9797 454.252 31.9867C456.62 29.9938 459.553 28.9973 463.048 28.9973C466.512 28.9973 469.403 29.9938 471.723 31.9867C474.042 33.9797 475.799 36.6914 476.991 40.1219C478.184 43.5524 478.78 47.4567 478.78 51.8346C478.78 56.2126 478.184 60.1168 476.991 63.5473C475.799 66.9778 474.042 69.6814 471.723 71.658C469.403 73.6346 466.512 74.6229 463.048 74.6229Z" fill="#0E1337"/>
</svg>
