<svg width="153" height="35" xmlns="http://www.w3.org/2000/svg" xmlns:xlink="http://www.w3.org/1999/xlink"><defs><path id="a" d="M0 0h20.7v20.7H0z"/><path id="c" d="M.9 0h28.8v19.8H.9z"/><path id="e" d="M0 .9h31.5v24.3H0z"/></defs><g fill="none" fill-rule="evenodd"><path d="M50.799 17.557c-.866.972-1.299 2.136-1.299 3.493 0 1.357.433 2.522 1.299 3.493.866.972 1.926 1.457 3.182 1.457 1.28 0 2.353-.485 3.22-1.457.866-.971 1.299-2.136 1.299-3.493 0-1.357-.433-2.52-1.3-3.493-.866-.971-1.939-1.457-3.22-1.457-1.255 0-2.315.486-3.181 1.457zm-1.042-3.819c.497-.729 1.256-1.321 2.277-1.778 1.021-.456 2.147-.684 3.378-.684 2.566 0 4.773.925 6.619 2.774 1.846 1.85 2.769 4.273 2.769 7.269 0 2.97-.937 5.392-2.81 7.268-1.872 1.875-4.103 2.813-6.695 2.813-1.18 0-2.266-.221-3.26-.664-.996-.443-1.768-1.042-2.318-1.798v1.52a.801.801 0 0 1-.826.82l-3.927.001c-.262 0-.47-.078-.628-.234a.79.79 0 0 1-.236-.586V4.32c0-.235.078-.43.236-.587.157-.156.366-.234.628-.234h3.968c.209 0 .398.078.569.234.17.157.256.352.256.587v9.417zM73.077 11.474v10.13c0 1.29.323 2.308.968 3.055.645.749 1.6 1.122 2.866 1.122 1.24 0 2.2-.373 2.885-1.122.684-.747 1.027-1.74 1.027-2.978V11.474c0-.207.084-.387.251-.542a.81.81 0 0 1 .562-.232h3.912c.257 0 .464.084.619.251a.85.85 0 0 1 .233.6v18.017a.783.783 0 0 1-.233.58c-.155.155-.362.233-.62.233h-3.911a.826.826 0 0 1-.58-.214.721.721 0 0 1-.233-.56v-1.621c-1.394 1.677-3.28 2.514-5.654 2.514-2.35 0-4.216-.728-5.597-2.186-1.381-1.456-2.072-3.384-2.072-5.782V11.474c0-.207.09-.387.27-.542a.88.88 0 0 1 .582-.232h3.873c.233 0 .432.077.6.232a.718.718 0 0 1 .252.542M97.656 10.7c1.701 0 3.202.249 4.504.744 1.301.496 2.3 1.079 2.996 1.748.618.51.644 1.1.078 1.769l-1.431 1.687c-.464.563-1.082.603-1.856.122-1.52-1.045-2.95-1.568-4.29-1.568-.723 0-1.31.14-1.76.422-.45.281-.676.623-.676 1.024 0 .779.72 1.314 2.165 1.609l2.976.602c3.892.778 5.838 2.747 5.838 5.91 0 1.928-.787 3.516-2.358 4.762-1.572 1.247-3.622 1.869-6.147 1.869-2.784 0-5.168-.724-7.152-2.17-1.598-1.152-1.869-2.157-.812-3.014l1.701-1.367c.618-.483 1.25-.442 1.894.12 1.444 1.314 2.964 1.97 4.562 1.97.824 0 1.463-.161 1.914-.482.45-.323.676-.71.676-1.167 0-.455-.212-.81-.637-1.065-.426-.254-1.116-.475-2.069-.663l-3.092-.683c-1.573-.322-2.816-.977-3.731-1.97-.915-.99-1.373-2.264-1.373-3.818 0-1.822.735-3.343 2.204-4.562 1.47-1.219 3.427-1.829 5.876-1.829M123.081 30.615v-9.493c0-1.387-.374-2.5-1.123-3.337-.75-.837-1.782-1.256-3.1-1.256-1.317 0-2.376.426-3.177 1.276-.8.85-1.201 1.956-1.201 3.317v9.493a.714.714 0 0 1-.252.57.892.892 0 0 1-.6.215h-3.913a.804.804 0 0 1-.815-.823V4.323c0-.235.078-.43.233-.589a.782.782 0 0 1 .582-.234h3.912c.234 0 .433.072.601.216a.712.712 0 0 1 .252.568v9.576c1.395-1.7 3.435-2.55 6.122-2.55 2.453 0 4.417.784 5.89 2.354 1.472 1.57 2.208 3.545 2.208 5.927v11.024a.712.712 0 0 1-.252.57.891.891 0 0 1-.6.215h-3.914a.893.893 0 0 1-.601-.216.714.714 0 0 1-.252-.569" fill="#000639"/><g transform="translate(131.4 10.7)"><mask id="b" fill="#fff"><use xlink:href="#a"/></mask><path d="M6.685 6.857C5.828 7.83 5.4 8.993 5.4 10.35c0 1.357.428 2.522 1.285 3.493.857.972 1.929 1.457 3.215 1.457 1.285 0 2.357-.485 3.215-1.457.856-.971 1.285-2.136 1.285-3.493 0-1.357-.429-2.52-1.285-3.493C12.257 5.886 11.185 5.4 9.9 5.4c-1.286 0-2.358.486-3.215 1.457m-3.838 10.95C.95 15.876 0 13.384 0 10.33c0-3.055.949-5.54 2.847-7.456C4.745.958 6.992 0 9.584 0c1.23 0 2.337.249 3.318.744.983.496 1.709 1.132 2.18 1.909V1.008c0-.24.085-.448.256-.623.17-.173.36-.26.57-.26h3.967c.236 0 .432.087.589.26a.9.9 0 0 1 .236.623v18.724a.825.825 0 0 1-.236.603.79.79 0 0 1-.589.241h-3.967c-.21 0-.4-.08-.57-.24a.793.793 0 0 1-.255-.604v-1.685c-.472.778-1.198 1.414-2.18 1.91-.982.495-2.1.743-3.358.743-2.567 0-4.8-.965-6.698-2.894" fill="#000639" mask="url(#b)"/></g><g transform="translate(4.5 -.1)"><mask id="d" fill="#fff"><use xlink:href="#c"/></mask><path d="M27.328 18.752L25.685 19.8l-3.363-6.052a10.608 10.608 0 0 0-9.278-5.442H.9L12.792.73a4.666 4.666 0 0 1 5.773.607l9.61 9.47c2.342 2.307 1.93 6.176-.847 7.946" fill="#67C462" mask="url(#d)"/></g><g transform="translate(0 9.8)"><mask id="f" fill="#fff"><use xlink:href="#e"/></mask><path d="M26.718 25.2h-14.14a3.639 3.639 0 0 1-3.303-2.148L.272 3.32l-.134-.297A1.501 1.501 0 0 1 .127 1.79c.01-.027.024-.05.037-.079A1.46 1.46 0 0 1 1.467.9h15.42c2.936 0 5.64 1.626 7.056 4.244l3.406 6.289 3.55 6.551c1.755 3.243-.545 7.216-4.18 7.216" fill="#74DF70" mask="url(#f)"/></g></g></svg>