<?xml version="1.0" standalone="no"?>
<!DOCTYPE svg PUBLIC "-//W3C//DTD SVG 20010904//EN"
 "http://www.w3.org/TR/2001/REC-SVG-20010904/DTD/svg10.dtd">
<svg version="1.0" xmlns="http://www.w3.org/2000/svg"
 width="225.000000pt" height="225.000000pt" viewBox="0 0 225.000000 225.000000"
 preserveAspectRatio="xMidYMid meet">

<g transform="translate(0.000000,225.000000) scale(0.100000,-0.100000)"
fill="#000000" stroke="none">
<path d="M66 2184 c-14 -14 -16 -124 -16 -1063 0 -801 3 -1050 12 -1059 17
-17 2109 -17 2126 0 9 9 12 258 12 1059 0 939 -2 1049 -16 1063 -14 14 -124
16 -1059 16 -935 0 -1045 -2 -1059 -16z m2102 -1056 l-3 -1043 -1040 0 -1040
0 -3 1043 -2 1042 1045 0 1045 0 -2 -1042z"/>
<path d="M995 1471 c-3 -5 -1 -12 5 -16 5 -3 10 1 10 9 0 18 -6 21 -15 7z"/>
<path d="M1025 1425 c0 -37 4 -55 13 -55 7 0 12 13 12 30 0 20 5 30 15 30 10
0 15 -10 15 -30 0 -16 5 -30 10 -30 6 0 10 16 10 35 0 31 -3 35 -25 35 -18 0
-25 5 -25 20 0 11 -6 20 -12 20 -9 0 -13 -18 -13 -55z"/>
<path d="M230 1435 l0 -35 60 0 60 0 0 35 0 35 -60 0 -60 0 0 -35z"/>
<path d="M948 1420 c-2 -39 0 -50 12 -50 12 0 14 11 12 50 -2 27 -8 50 -12 50
-4 0 -10 -23 -12 -50z"/>
<path d="M1220 1285 c0 -96 -2 -175 -5 -175 -3 0 -73 59 -155 130 -81 72 -151
130 -154 130 -3 0 -6 -92 -6 -205 l0 -205 35 0 34 0 3 129 3 130 150 -129 c83
-72 153 -130 157 -130 4 0 7 103 7 228 l0 229 -29 21 c-16 12 -32 22 -35 22
-3 0 -5 -79 -5 -175z"/>
<path d="M1124 1413 c-5 -19 -2 -30 11 -40 22 -15 41 -17 49 -4 3 5 -2 8 -12
7 -12 -1 -18 8 -20 32 -4 39 -19 42 -28 5z"/>
<path d="M1170 1426 c0 -9 7 -16 16 -16 17 0 14 22 -4 28 -7 2 -12 -3 -12 -12z"/>
<path d="M238 1354 c-5 -4 -8 -92 -8 -196 l0 -188 40 0 40 0 0 85 0 85 53 0
c70 0 112 26 128 79 14 48 0 93 -37 118 -25 16 -204 31 -216 17z m167 -74 c18
-15 19 -52 3 -68 -7 -7 -31 -12 -55 -12 l-43 0 0 51 0 52 40 -6 c23 -3 47 -11
55 -17z"/>
<path d="M1411 1334 c-71 -36 -104 -86 -109 -168 -4 -75 22 -125 86 -170 37
-26 54 -31 118 -34 54 -3 88 1 120 13 41 16 44 19 44 54 l0 38 -47 -23 c-118
-60 -243 -1 -243 115 0 89 56 141 150 141 36 0 70 -7 95 -20 22 -11 41 -20 42
-20 2 0 3 15 3 33 0 28 -5 36 -35 50 -57 27 -159 23 -224 -9z"/>
<path d="M510 1208 c0 -168 11 -201 74 -232 53 -26 162 -26 207 0 67 39 74 59
77 225 l4 149 -41 0 -41 0 0 -140 c0 -136 -1 -142 -25 -165 -34 -35 -112 -35
-152 -1 -28 24 -28 25 -31 165 l-4 141 -34 0 -34 0 0 -142z"/>
<path d="M1680 1160 l0 -190 40 0 40 0 0 90 0 90 105 0 105 0 0 -90 0 -90 35
0 35 0 0 190 0 190 -35 0 -35 0 0 -70 0 -70 -105 0 -105 0 0 70 0 70 -40 0
-40 0 0 -190z"/>
<path d="M266 902 c-3 -5 1 -9 9 -9 8 0 12 4 9 9 -3 4 -7 8 -9 8 -2 0 -6 -4
-9 -8z"/>
<path d="M810 895 c0 -6 7 -12 15 -12 8 0 15 6 15 12 0 6 -7 12 -15 12 -8 0
-15 -6 -15 -12z"/>
<path d="M861 894 c0 -11 3 -14 6 -6 3 7 2 16 -1 19 -3 4 -6 -2 -5 -13z"/>
<path d="M910 893 c0 -8 5 -13 12 -11 18 6 21 25 3 25 -8 0 -15 -7 -15 -14z"/>
<path d="M960 895 c0 -9 5 -15 11 -13 6 2 11 8 11 13 0 5 -5 11 -11 13 -6 2
-11 -4 -11 -13z"/>
<path d="M1011 894 c0 -11 3 -14 6 -6 3 7 2 16 -1 19 -3 4 -6 -2 -5 -13z"/>
<path d="M1041 894 c0 -11 3 -14 6 -6 3 7 2 16 -1 19 -3 4 -6 -2 -5 -13z"/>
<path d="M1106 900 c-15 -5 -16 -9 -7 -14 7 -5 18 -3 24 3 14 14 6 20 -17 11z"/>
<path d="M1141 894 c0 -11 3 -14 6 -6 3 7 2 16 -1 19 -3 4 -6 -2 -5 -13z"/>
<path d="M1173 895 c0 -8 4 -15 9 -15 4 0 8 7 8 15 0 8 -4 15 -8 15 -5 0 -9
-7 -9 -15z"/>
<path d="M1211 894 c0 -11 3 -14 6 -6 3 7 2 16 -1 19 -3 4 -6 -2 -5 -13z"/>
<path d="M1240 895 c0 -8 4 -15 10 -15 5 0 7 7 4 15 -4 8 -8 15 -10 15 -2 0
-4 -7 -4 -15z"/>
<path d="M1270 899 c0 -5 5 -7 10 -4 6 3 10 8 10 11 0 2 -4 4 -10 4 -5 0 -10
-5 -10 -11z"/>
<path d="M1330 895 c0 -8 5 -15 10 -15 6 0 10 7 10 15 0 8 -4 15 -10 15 -5 0
-10 -7 -10 -15z"/>
<path d="M1360 895 c0 -8 5 -15 10 -15 6 0 10 7 10 15 0 8 -4 15 -10 15 -5 0
-10 -7 -10 -15z"/>
<path d="M1400 901 c0 -5 5 -13 10 -16 6 -3 10 -2 10 4 0 5 -4 13 -10 16 -5 3
-10 2 -10 -4z"/>
<path d="M1443 895 c0 -8 4 -15 9 -15 4 0 8 7 8 15 0 8 -4 15 -8 15 -5 0 -9
-7 -9 -15z"/>
<path d="M1500 895 c0 -6 7 -12 15 -12 8 0 15 6 15 12 0 6 -7 12 -15 12 -8 0
-15 -6 -15 -12z"/>
<path d="M1551 894 c0 -11 3 -14 6 -6 3 7 2 16 -1 19 -3 4 -6 -2 -5 -13z"/>
<path d="M1586 903 c-11 -11 -7 -20 9 -20 8 0 15 4 15 8 0 11 -16 20 -24 12z"/>
<path d="M1631 894 c0 -11 3 -14 6 -6 3 7 2 16 -1 19 -3 4 -6 -2 -5 -13z"/>
<path d="M1660 894 c0 -8 5 -12 10 -9 6 3 10 10 10 16 0 5 -4 9 -10 9 -5 0
-10 -7 -10 -16z"/>
<path d="M1700 901 c0 -5 5 -13 10 -16 6 -3 10 -2 10 4 0 5 -4 13 -10 16 -5 3
-10 2 -10 -4z"/>
<path d="M1740 900 c0 -5 5 -10 11 -10 5 0 7 5 4 10 -3 6 -8 10 -11 10 -2 0
-4 -4 -4 -10z"/>
<path d="M1770 895 c0 -8 2 -15 4 -15 2 0 6 7 10 15 3 8 1 15 -4 15 -6 0 -10
-7 -10 -15z"/>
<path d="M1806 901 c-4 -7 -5 -15 -2 -18 9 -9 19 4 14 18 -4 11 -6 11 -12 0z"/>
</g>
</svg>
