<svg width="720" height="701" fill="none" xmlns="http://www.w3.org/2000/svg"><g clip-path="url(#clip0)"><path d="M14 384h333s77-1 105-44c28-45 113-224 113-224s7-19 25-19l79-4-8 26h-48c-18 0-25 20-25 20s-98 223-126 267c-29 45-106 45-106 45H14v-67z" fill="#EF8939"/><path d="M604 74h75l9-25H585s-42 2-59 45l-76 148s-18 44-108 44H10v66h341c79 0 105-60 105-60l91-184c2 0 12-34 57-34z" fill="#EF8939"/><path d="M605 25h96l9-25H605s-79-5-113 58l-59 100c-22 42-99 34-99 34H10v67h333s63 0 93-44l83-147s24-43 86-43z" fill="#EF8939"/><path d="M52 559l-46-8c5-20 14-34 27-43 13-10 33-15 58-15 23 0 40 3 52 8 11 6 20 13 24 22 5 8 7 24 7 47l-1 61c0 17 1 30 3 38 1 7 5 17 9 26h-51l-5-16-1-7c-9 9-19 16-29 20s-21 7-32 7c-21 0-37-6-48-17-13-9-19-23-19-40a54 54 0 0 1 30-50c10-4 24-8 41-11 25-5 41-9 51-13v-6c0-10-2-17-7-21s-14-6-28-6c-9 0-17 1-21 5-7 3-11 11-14 19zm70 43l-32 8c-14 3-23 6-28 9-7 4-11 11-11 18s3 13 8 19c6 5 12 8 21 8 10 0 18-3 27-10 6-4 10-10 13-17l2-26v-9zM321 634l51 8c-6 19-17 34-31 44a90 90 0 0 1-54 15c-34 0-60-11-76-33-13-18-20-41-20-68 0-33 9-59 25-77 18-18 39-28 65-28 29 0 52 10 70 29 17 19 25 49 24 89H245c0 16 5 28 12 37 8 8 19 12 31 12 7 0 15-2 20-6 6-6 10-13 13-22zm2-53c0-15-4-27-12-34-7-8-16-12-27-12s-20 4-28 12c-7 8-11 20-11 34h78zM449 696h-52V498h48v28c8-14 16-22 22-26 7-4 15-7 23-7 12 0 23 4 34 10l-15 46c-9-6-17-9-25-9-7 0-14 3-18 7-5 4-9 11-12 22-3 10-5 32-5 66v61zM516 595c0-18 4-34 12-51 9-16 21-28 37-37s33-13 52-13c30 0 55 10 74 30 19 19 28 43 28 73a100 100 0 0 1-102 104c-18 0-36-4-52-13-17-8-30-19-37-35-8-16-12-36-12-58zm54 2c0 20 4 34 14 45 9 11 20 16 35 16 14 0 25-5 34-16 9-10 14-25 14-45 0-19-5-34-14-44a45 45 0 0 0-34-16c-14 0-26 6-35 16-10 10-14 25-14 44z" fill="#000"/></g><defs><clipPath id="clip0"><path fill="#fff" d="M0 0h720v701H0z"/></clipPath></defs></svg>