<svg xmlns="http://www.w3.org/2000/svg" width="4.116in" height="65.706" viewBox="0 0 3701 615" shape-rendering="geometricPrecision" text-rendering="geometricPrecision" image-rendering="optimizeQuality" fill-rule="evenodd" clip-rule="evenodd"><defs><style>.fil0{fill:#f60}</style></defs><g id="Layer_x0020_1"><path class="fil0" d="M197 406c-24 0-41-21-50-42-23-53-14-114-2-169 1-7 1-9 3-16 16-46 2-130-82-80-10 5-13 9-21 17h-1c-18 18-23 27-34 49-18 38-8 94 3 131l12 36c5 11 9 22 14 33l15 32c15 34 47 88 68 119 4 6 7 8 10 14 4 6 6 8 10 14 4 4 7 8 10 13 5 6 7 8 11 13 10 13 35 40 53 42 6 1 15-1 19-2 49-12 91-107 109-150 33-81 78-186 120-257l9-14c13-22 35-50 52-67 30-30 57-72 13-105-22-16-37-20-64-15-6 1-10 4-16 6-38 11-73 49-98 77-22 25-52 78-67 109l-14 30c-5 10-9 19-13 30-2 4-2 3-4 8-1 2-2 5-3 8s-2 3-3 7l-28 71c-5 13-19 58-31 58zM2265 320c0-29 33-47 60-47h14c40 0 94 56 47 74-44 17-121 4-121-27zm-148 73c0 9 1 14 3 23 4 32-1 25 14 65 7 18 13 29 24 43 19 25 39 48 69 63 47 25 72 28 123 28 34 0 78-12 107-26 26-13 62-37 68-67 3-20-1-38-13-49s-30-18-49-11c-34 11-43 21-84 32-6 2-9 4-14 4-37 0-63 5-93-23 0-1-1-1-1-1-9-9-12-15-17-27-1-4-2-6-3-12-2-11 3-8 36-8h180c21 0 38 0 51-8 21-13 19-46 16-68-7-43-12-60-36-97-5-7-7-8-12-15l-22-22s0-1-1-1c-2-2-1-1-4-3-4-4-10-8-15-12-38-26-80-34-125-32-43 2-87 15-117 41-24 22-39 37-55 65-13 24-19 40-25 68l-5 50zM1040 493c-94 0-100-126-64-177 16-22 48-35 78-28 4 1 12 5 16 7 11 5 18 12 25 20 30 35 30 110 3 147-11 14-35 31-58 31zM823 380c0 40 3 70 18 106 13 32 22 40 40 63 13 15 40 36 59 45 74 33 161 29 223-19 17-13 27-23 40-39 23-28 32-55 41-88 6-25 7-89 0-114-6-25-15-51-29-73-31-46-66-73-119-88-39-11-77-9-115-1-14 3-28 8-39 14-13 6-21 11-32 19-27 20-49 48-64 78-2 3-3 7-5 10-10 27-18 57-18 87zM1347 180c-18 0-33 3-46 16-9 10-13 24-17 37-3 11-4 20-4 33v263c0 22 5 43 13 58 18 34 68 37 94 11 10-10 15-23 18-37 14-66-13-210 20-254 20-27 77-27 98-1 40 49-8 245 37 291 24 26 78 29 100-19l8-34c2-59 1-111 1-171 0-59-5-102-29-138-6-9-11-16-19-23-37-32-97-39-146-32l-21 6c-12 3-26 14-35 20-17 12-22 3-33-8-6-6-8-9-15-12s-14-6-24-6zM1766 180c-51 0-67 38-67 87v262c0 28 8 61 29 76 17 13 45 13 64 4l14-11c10-10 15-23 18-39 9-40-2-172 6-213 5-28 19-59 51-59 23 0 43-3 61 19 8 10 12 25 14 40 8 57-3 163 6 213 5 29 25 56 53 56 22 0 40-2 56-23 6-8 15-34 15-48V320c0-15-7-45-12-57-20-53-72-85-128-85-23 0-41-1-64 6-59 18-46 46-78 13-10-10-21-17-38-17zM2567 375c0 43 0 77 18 118 18 40 44 71 81 94 54 33 152 40 210 6 41-24 65-60 34-101-6-8-22-17-36-17-9 0-29 7-39 10-40 11-87 17-116-22s-27-102-1-143c10-17 35-33 53-33 59 0 46 8 80 15 19 4 37 8 57-11 21-19 22-59-2-83-5-5-9-8-15-12-45-30-127-33-177-18-60 19-99 55-127 111-5 10-11 27-14 39-3 15-6 30-6 47zM646 615c20 0 32 1 51-2 5-1 17-4 23-5 17-4 32-11 47-20l9-6c28-20 43-59 17-89-35-41-70 0-116 0-30 0-54-2-75-29-29-36-28-106-2-145 5-7 14-15 21-20 42-31 110 7 133 7 15 0 29-8 37-16l10-14c11-23 6-49-11-66-10-10-19-17-32-23s-26-10-42-13c-25-6-73-6-98-1-23 6-40 10-60 21-36 20-69 51-86 89-1 2-1 3-2 5l-20 69c-3 20-1 76 5 98l6 21c9 27 21 46 39 69 32 41 91 70 146 70zM3031 127v64c-17 0-38 5-50 12-46 27-26 99 32 99h18v231c0 39 18 82 56 82 23 0 43-2 57-25 9-14 14-40 14-55V302c27 0 47 2 70-14 25-17 29-63-5-85-19-12-39-12-65-12 0-52 12-146-63-146-45 0-64 37-64 82zM3501 473v131c0 14 29 17 29-13 0-31-18-107 25-107 13 0 22 3 27 12 14 25 4 52 4 79 0 15-2 24 5 34 9 13 29 6 25-31-1-9-1-18-2-25-13-93 61-81 61-35 0 10 1 19 1 28 0 19-12 69 14 69 3 0 11-4 11-9V504c0-6-4-11-6-16-16-31-52-35-75-19-7 5-11 10-17 15-5-18-35-31-60-20-9 4-9 7-15 11-5-22-27-18-27-2zM3428 589c-15 0-22 0-31-12-19-23-18-93 27-93 52 0 50 105 4 105zm-69-63c0 30-2 45 20 69 32 36 111 28 111-64 0-35-28-71-62-71-23 0-37 5-51 21-7 8-18 29-18 45zM3239 535c0 22 6 39 18 56 17 23 56 32 82 15 13-7 8-24 2-24-12 0-47 23-66-11-12-21-11-51 2-71 3-4 6-8 11-11 19-13 34 2 51 2 10 0 24-31-37-31-28 0-49 22-58 46-1 2-5 26-5 29zM3209 615c16 0 25-31-3-31-15 0-17 31 3 31z"/></g></svg>