<svg width="1943" height="328" viewBox="0 0 1943 328" fill="none" xmlns="http://www.w3.org/2000/svg">
<g clip-path="url(#clip0_1705_777)">
<path d="M436.65 70.268C438.542 105.473 415.262 135.648 382.96 144.701C382.524 144.988 382.233 145.132 381.942 145.276C350.368 153.61 327.088 182.061 327.088 215.972C327.088 216.26 326.797 216.691 326.506 217.122C321.995 253.189 290.712 281.065 253.027 281.065H251.572C213.888 281.065 182.605 253.189 178.094 217.122C177.658 216.547 177.512 216.26 177.512 215.972C177.512 182.205 154.232 153.61 122.658 145.276C122.367 145.132 122.076 144.988 121.64 144.701C89.3385 135.648 66.0582 105.473 67.9498 70.268C69.8413 33.7701 99.5236 3.88204 136.481 1.29558C179.84 -1.72197 215.925 32.1895 215.925 74.2914C215.925 74.7225 215.925 75.2973 215.925 75.7283C217.962 91.3908 224.946 105.904 235.713 117.112C244.734 126.452 259.721 126.452 268.742 117.112C279.509 105.904 286.638 91.3908 288.53 75.7283C288.53 75.2973 288.53 74.7225 288.53 74.2914C288.53 32.1895 324.614 -1.72197 367.974 1.29558C404.785 3.88204 434.613 33.7701 436.65 70.268Z" fill="#00B8C2"/>
<path d="M428.648 326.905C469.55 326.905 502.708 294.16 502.708 253.766C502.708 213.372 469.55 180.626 428.648 180.626C387.745 180.626 354.587 213.372 354.587 253.766C354.587 294.16 387.745 326.905 428.648 326.905Z" fill="#FDB515"/>
<path d="M74.0602 327.623C114.963 327.623 148.12 294.877 148.12 254.483C148.12 214.089 114.963 181.344 74.0602 181.344C33.1579 181.344 0 214.089 0 254.483C0 294.877 33.1579 327.623 74.0602 327.623Z" fill="#FDB515"/>
<path d="M1582.04 61.213C1599.15 61.213 1613.03 47.51 1613.03 30.6065C1613.03 13.703 1599.15 0 1582.04 0C1564.92 0 1551.05 13.703 1551.05 30.6065C1551.05 47.51 1564.92 61.213 1582.04 61.213Z" fill="#063A4F"/>
<path d="M755.006 261.805H702.334C699.279 261.805 696.805 259.362 696.805 256.344C696.805 256.201 696.805 256.057 696.805 255.77C696.805 222.433 696.805 189.24 696.66 155.903C696.514 141.678 689.094 131.332 677.017 128.027C659.12 123.141 643.697 133.056 641.224 151.161C640.642 155.472 640.351 159.783 640.351 164.094C640.205 194.413 640.351 224.732 640.351 255.051V256.057C640.351 259.074 637.877 261.517 634.822 261.517H583.023C579.968 261.517 577.494 259.074 577.494 256.057V80.6083C577.494 77.5907 579.968 75.148 583.023 75.148H628.274C631.33 75.148 633.803 77.5907 633.803 80.6083C633.803 85.2064 639.041 87.6492 642.824 84.9191C656.647 74.2858 672.506 70.5498 689.821 70.6935C709.318 70.6935 726.342 76.0101 739.437 90.5231C741.62 92.9658 745.403 92.8221 747.585 90.5231C757.916 80.0335 770.72 74.4295 785.415 72.2741C812.188 68.2507 837.359 70.8372 858.166 90.2357C871.261 102.45 878.682 117.968 879.846 135.355C881.301 156.478 881.01 177.744 881.155 198.867C881.301 217.835 881.155 236.946 881.155 256.201C881.155 259.218 878.682 261.661 875.626 261.661H822.955C819.899 261.661 817.426 259.218 817.426 256.201C817.426 256.057 817.426 255.913 817.426 255.77C817.426 222.289 817.862 188.809 817.135 155.472C816.262 131.332 797.347 123.429 778.722 128.745C767.373 132.05 760.68 143.258 760.535 158.49C760.389 190.964 760.535 223.295 760.535 255.77C760.535 256.057 760.535 256.201 760.535 256.488C760.535 259.362 758.061 261.805 755.006 261.805Z" fill="#063A4F"/>
<path d="M1086.46 101.873C1064.92 78.0196 1036.84 68.6796 1005.12 68.6796C1001.48 68.6796 997.847 68.5359 994.064 68.6796C991.445 68.8233 988.826 69.2544 986.352 69.6854C957.98 74.2836 933.972 86.3538 917.53 110.207C901.38 133.629 897.015 159.924 901.962 187.657C906.763 214.24 920.149 235.794 943.284 250.882C965.546 265.395 990.281 269.993 1016.62 267.837C1038.01 265.969 1057.65 259.072 1074.67 245.709C1096.79 228.322 1107.99 204.9 1110.47 177.599C1112.79 149.291 1105.81 123.426 1086.46 101.873ZM1005.41 213.378C979.659 213.378 962.054 194.985 962.054 168.115C962.054 141.532 979.514 123.426 1005.41 123.426C1031.31 123.426 1048.92 141.675 1048.92 168.115C1048.92 194.842 1031.17 213.234 1005.41 213.378Z" fill="#063A4F"/>
<path d="M1316.06 261.803H1261.06C1258.73 261.803 1256.98 259.935 1256.98 257.78V255.768C1256.98 224.874 1257.13 193.98 1256.84 163.23C1256.84 157.913 1256.26 152.453 1254.95 147.424C1251.02 132.624 1238.94 125.439 1221.04 126.588C1207.08 127.451 1196.31 137.222 1194.42 151.304C1193.84 155.614 1193.55 159.925 1193.55 164.236C1193.4 194.555 1193.55 224.874 1193.55 255.193V257.636C1193.55 259.935 1191.65 261.659 1189.47 261.659H1134.76C1132.43 261.659 1130.69 259.791 1130.69 257.636V79.3136C1130.69 77.0145 1132.58 75.2902 1134.76 75.2902H1186.27C1188.6 75.2902 1190.34 77.1582 1190.34 79.3136V81.9001C1190.34 85.3487 1194.56 87.2167 1197.18 84.9176C1198.78 83.4807 1200.53 82.1875 1202.28 81.0379C1245.63 52.2994 1307.76 77.5893 1317.95 128.169C1319.4 135.641 1320.28 143.544 1320.28 151.16C1320.57 186.652 1320.42 222.144 1320.42 257.636C1320.28 260.079 1318.39 261.803 1316.06 261.803Z" fill="#063A4F"/>
<path d="M1398.99 261.808H1343.99C1341.81 261.808 1340.07 260.083 1340.07 257.928V79.0307C1340.07 76.8753 1341.81 75.151 1343.99 75.151H1395.79C1397.98 75.151 1399.72 76.8753 1399.72 79.0307V82.192C1399.72 85.4969 1403.8 87.3649 1406.27 85.2095C1408.02 83.7726 1409.76 82.3356 1411.51 81.1861C1454.87 52.4476 1517 77.7375 1527.18 128.317C1528.64 135.789 1529.51 143.692 1529.51 151.308C1529.8 186.8 1529.65 222.292 1529.65 257.784C1529.65 259.94 1527.76 261.664 1525.73 261.664H1470.44C1468.25 261.664 1466.51 259.94 1466.51 257.784C1466.51 257.21 1466.51 256.491 1466.51 255.916C1466.51 225.022 1466.65 194.128 1466.36 163.378C1466.36 158.062 1465.78 152.601 1464.47 147.572C1460.54 132.772 1448.46 125.587 1430.57 126.737C1416.6 127.599 1405.83 137.37 1403.94 151.452C1403.36 155.763 1403.07 160.073 1403.07 164.384C1402.92 194.703 1403.07 225.022 1403.07 255.342V258.072C1402.92 259.94 1401.18 261.808 1398.99 261.808Z" fill="#063A4F"/>
<path d="M1942.3 74.8607C1941.57 76.8724 1941.13 78.453 1940.55 79.8899C1906.94 162.513 1873.18 244.993 1839.57 327.76H1775.26C1782.97 307.786 1790.68 287.957 1798.54 268.127C1800 264.679 1799.85 261.805 1798.39 258.5C1779.04 214.961 1759.69 171.422 1740.34 127.883H1728.99C1726.52 127.883 1724.48 129.895 1724.48 132.338V257.063C1724.48 259.506 1722.44 261.517 1719.97 261.517H1665.26C1662.79 261.517 1660.75 259.506 1660.75 257.063V132.481C1660.75 130.039 1658.71 128.027 1656.24 128.027H1636.45C1633.98 128.027 1631.94 126.015 1631.94 123.572V79.3151C1631.94 76.8724 1633.98 74.8607 1636.45 74.8607H1660.46C1660.46 75.2918 1660.46 75.4354 1660.61 74.8607V74.4296C1660.61 73.8548 1660.75 73.1364 1660.75 71.9868C1661.33 63.3653 1662.06 54.3126 1664.68 46.1222C1672.39 22.1255 1690.72 9.62426 1714.59 4.02025C1728.41 0.715326 1754.02 0.427941 1767.99 2.87071C1769 3.01441 1771.62 3.30179 1774.1 3.58918C1776.42 3.87656 1778.17 5.74456 1778.17 8.04365V49.1397C1778.17 51.5825 1776.13 53.5942 1773.66 53.5942C1765.22 53.5942 1750.09 53.5942 1745.72 53.5942C1732.34 53.5942 1725.06 60.4914 1724.63 73.2801C1724.63 73.1364 1724.63 72.9927 1724.63 72.849C1724.63 67.5324 1724.63 72.1305 1724.63 75.0044C1724.63 76.7287 1724.63 77.7345 1724.63 75.0044C1743.69 75.0044 1762.31 75.0044 1780.93 75.1481C1781.52 75.1481 1782.1 75.1481 1782.54 75.1481H1783.41C1784.72 75.1481 1786.61 77.3035 1787.19 78.8841C1801.16 112.077 1814.98 145.27 1828.95 178.463C1829.68 180.331 1830.55 182.199 1831.71 184.929C1837.68 169.985 1843.35 155.903 1848.88 141.678C1857.03 120.986 1865.33 100.438 1873.18 79.7462C1874.64 76.0102 1876.38 75.0044 1880.46 75.0044C1900.68 75.0044 1921.05 74.8607 1942.3 74.8607Z" fill="#063A4F"/>
<path d="M1660.61 74.2883C1660.61 74.432 1660.61 74.5757 1660.61 74.7194H1660.46C1660.32 73.1388 1660.61 68.1095 1660.61 74.2883Z" fill="#063A4F"/>
<path d="M1780.79 75.0047C1762.16 74.8611 1743.54 74.8611 1724.48 74.8611C1724.48 77.5912 1724.48 76.5854 1724.48 74.8611C1724.48 72.1309 1724.48 67.5327 1724.48 72.7057C1724.48 72.8494 1724.48 72.9931 1724.48 73.1367C1724.48 73.5678 1724.63 73.9989 1724.77 74.7174H1779.33C1779.77 74.7174 1780.35 74.8611 1780.79 75.0047Z" fill="#063A4F"/>
<path d="M1612.15 80.0333V256.775C1612.15 259.505 1609.97 261.661 1607.21 261.661H1554.54C1551.77 261.661 1549.59 259.505 1549.59 256.775V80.0333C1549.59 77.3031 1551.77 75.1477 1554.54 75.1477H1607.21C1609.97 75.1477 1612.15 77.3031 1612.15 80.0333Z" fill="#063A4F"/>
</g>
<defs>
<clipPath id="clip0_1705_777">
<rect width="1942.3" height="327.763" fill="white"/>
</clipPath>
</defs>
</svg>
