<svg xmlns="http://www.w3.org/2000/svg" id="Layer_2" data-name="Layer 2" viewBox="0 0 200 93.65"><defs><linearGradient id="linear-gradient" x1="-365.04" x2="-364.64" y1="-960.39" y2="-960.39" gradientTransform="matrix(0 -261.79 -261.79 0 -251388.64 -95464.58)" gradientUnits="userSpaceOnUse"><stop offset="0" stop-color="#5b40ff"/><stop offset=".15" stop-color="#4357ff"/><stop offset=".37" stop-color="#2575ff"/><stop offset=".58" stop-color="#108aff"/><stop offset=".8" stop-color="#0496ff"/><stop offset="1" stop-color="#009bff"/></linearGradient><clipPath id="clippath"><path d="M8.44 85.28a6.252 6.252 0 0 1-1.83-4.42v-5.24c2.5 0 5.68 1.32 7.97 3.64 2.29 2.33 3.64 5.47 3.64 7.75l-5.36.1c-1.66 0-3.25-.66-4.42-1.83m11.12-11.34a23.17 23.17 0 0 0-13.01-6.59V55.57c8.54.81 15.64 3.03 21.69 9.11 6.05 6.09 8.86 13.74 9.62 22.29L26.05 87c-.7-4.94-2.98-9.52-6.5-13.06m14.22-14.2A43.299 43.299 0 0 0 6.54 47.15l.06-12.99c14.01.85 25.39 6.01 35.3 15.94 9.91 9.94 16.26 22.85 17.08 36.86l-12.7.04a43.291 43.291 0 0 0-12.5-27.27m-.18-25.58A42.912 42.912 0 0 0 46.24 6.67l12.06-.03c-.71 13.25-5.54 24.62-14.58 34.34-3.57-3.14-5.95-4.56-10.13-6.83M6.55 26.52v-.12c4.95-.75 9.53-3.08 13.05-6.65 3.52-3.57 5.78-8.18 6.46-13.15l11.85.05c-.79 9.47-5.22 17.19-12.4 23.41-6.59-2.69-11.85-3.18-18.96-3.54m0-13.74c0-.82.16-1.63.48-2.39.32-.76.78-1.44 1.36-2.02.58-.58 1.27-1.04 2.02-1.35.76-.31 1.57-.47 2.39-.47l5.42.06c0 2.5-1.36 5.63-3.64 7.97-2.29 2.34-5.41 3.64-7.97 3.64l-.06-5.44ZM12.8 0c-1.68 0-3.34.33-4.89.97-1.55.64-2.97 1.59-4.16 2.78C2.56 4.94 1.62 6.35.97 7.9.33 9.46 0 11.12 0 12.8v68.06c0 1.68.33 3.34.97 4.9.64 1.55 1.59 2.96 2.77 4.15 1.19 1.19 2.6 2.13 4.15 2.77 1.55.64 3.21.97 4.89.97h.07l54.14-.16v-3.26c0-16.09-6.09-31.58-17.05-43.35a63.246 63.246 0 0 0 17.02-43.4V.22L12.86 0h-.06Z" style="fill:none"/></clipPath><style>.cls-4{fill:#031455}</style></defs><g id="Layer_1-2" data-name="Layer 1"><g style="clip-path:url(#clippath)"><path d="M-20.43-10.74H87.46v115.13H-20.43z" style="fill:url(#linear-gradient)" transform="rotate(-33.92 33.511 46.83)"/></g><path d="M80.07 70.46v-47h8.51v30.03l11.44-14.43h9.82L97.49 54.01l13 16.45h-10.4L88.58 55.18v15.28h-8.51z" class="cls-4"/><path d="M125.89 71.43c-3.16 0-6.01-.73-8.55-2.18-2.53-1.45-4.55-3.41-6.05-5.88-1.49-2.47-2.24-5.27-2.24-8.39s.74-5.79 2.21-8.26c1.47-2.47 3.48-4.43 6.01-5.88 2.53-1.45 5.38-2.18 8.55-2.18s6.02.73 8.58 2.18c2.56 1.45 4.57 3.4 6.04 5.85 1.47 2.45 2.21 5.21 2.21 8.29s-.74 5.93-2.21 8.42-3.48 4.45-6.01 5.88c-2.53 1.43-5.39 2.14-8.55 2.14m-.07-7.93c2.43 0 4.39-.79 5.88-2.37 1.5-1.58 2.24-3.61 2.24-6.08s-.76-4.49-2.28-6.05c-1.52-1.56-3.47-2.34-5.85-2.34s-4.27.79-5.79 2.37c-1.52 1.58-2.28 3.59-2.28 6.01s.76 4.5 2.28 6.08c1.52 1.58 3.45 2.37 5.79 2.37M163.6 38.4c-1.74.36-2.77.69-4.13 1.4-1.56.82-3.06 2.13-4.01 3.21v-3.96h-8.51v31.4h8.51V53.09c0-2.34.56-4.08 1.69-5.23 1.13-1.16 2.87-2.13 4.53-2.23 1.31-.08 3.01-.15 4.99 1.27v-8.77c-.49-.02-2.2.09-3.07.27M182.45 71.11c-2.86 0-5.43-.72-7.7-2.15-2.28-1.43-4.07-3.38-5.39-5.85-1.32-2.47-1.98-5.24-1.98-8.32s.66-5.86 1.98-8.35c1.32-2.49 3.12-4.45 5.39-5.88 2.28-1.43 4.82-2.15 7.64-2.15 1.86 0 3.59.32 5.17.98 1.58.65 2.91 1.54 4 2.67v-2.99h8.45v31.4h-8.45v-2.99c-1.08 1.13-2.4 2.01-3.96 2.67-1.56.65-3.27.98-5.14.98m1.56-7.87c2.38 0 4.31-.79 5.79-2.37 1.47-1.58 2.21-3.63 2.21-6.14s-.74-4.5-2.21-6.08-3.4-2.37-5.79-2.37-4.25.79-5.72 2.37c-1.47 1.58-2.21 3.61-2.21 6.08s.74 4.56 2.21 6.14 3.38 2.37 5.72 2.37" class="cls-4"/></g></svg>