<?xml version="1.0" encoding="UTF-8"?>
<!DOCTYPE svg PUBLIC "-//W3C//DTD SVG 1.1//EN" "http://www.w3.org/Graphics/SVG/1.1/DTD/svg11.dtd">
<!-- Creator: CorelDRAW 2020 -->
<svg xmlns="http://www.w3.org/2000/svg" xml:space="preserve" width="9.30106in" height="1.99778in" version="1.1" style="shape-rendering:geometricPrecision; text-rendering:geometricPrecision; image-rendering:optimizeQuality; fill-rule:evenodd; clip-rule:evenodd"
viewBox="0 0 9220.11 1980.4"
 xmlns:xlink="http://www.w3.org/1999/xlink"
 xmlns:xodm="http://www.corel.com/coreldraw/odm/2003">
 <defs>
  <style type="text/css">
   <![CDATA[
    .fil0 {fill:#1AA657}
   ]]>
  </style>
 </defs>
 <g id="Layer_x0020_1">
  <metadata id="CorelCorpID_0Corel-Layer"/>
  <g id="_1088306048">
   <path class="fil0" d="M-0 994.11c0,370.96 229.55,727.02 532.03,880.55 94.21,47.81 233.73,105.74 370.68,105.74l0 -743.89c-39.5,10.55 -85.42,72.88 -114.93,102.39 -62.66,62.66 -72.53,98.21 -152.53,98.21 -48.27,0 -83.59,-40.81 -83.59,-100.3 0,-75.79 160.06,-181.84 200.6,-242.39 -183.21,0 -342.69,41.24 -342.69,-108.66 0,-28.69 15.97,-55.15 33.04,-67.25 38.49,-27.28 242.79,-16.33 309.65,-16.33 -8.39,-31.43 -80.48,-93.01 -106.57,-119.1 -31.27,-31.28 -94.03,-77.14 -94.03,-131.65 0,-70.21 38.44,-100.3 100.3,-100.3 56.66,0 133.51,95.61 185.97,148.36 21.07,21.2 33.78,43.96 64.78,52.24 0,-117.15 -32.69,-250.75 100.3,-250.75 47.12,0 79.62,36.44 88.94,78.23 8.77,39.35 3,127.4 3,172.52 80.43,-53.85 151.16,-200.6 259.11,-200.6 66.41,0 83.59,54.01 83.59,108.65 0,46.84 -65.7,94.96 -94.03,123.3 -20.14,20.14 -34.15,34.25 -54.33,54.33 -21.19,21.07 -43.96,33.77 -52.23,64.78 53.71,0 274.77,-12.96 311.45,14.52 65.32,48.94 54.95,175.71 -77.01,178.13 -77.27,1.42 -156.88,-0.41 -234.44,-0.41 80.63,120.43 200.6,137.17 200.6,267.47 0,72.86 -65.98,75.23 -108.66,75.23 -65.01,0 -155.51,-148.01 -234.04,-200.6l0 743.89c136.35,0 261.78,-56.02 356.64,-103.06 305.37,-151.47 537.72,-500.55 537.72,-841.43 0,-259.75 -68.47,-507.16 -240.31,-687.48 -69.56,-73 -91.51,-104.15 -193.06,-174.71 -648.94,-450.88 -1555.94,30.13 -1555.94,820.4z"/>
   <path class="fil0" d="M7012.71 1203.08l0 -267.48c0,-116.93 300.9,-116.93 300.9,0l0 267.48c0,32.28 -13.32,46.14 -33.19,58.75 -67.53,42.82 -267.71,44.17 -267.71,-58.75zm300.9 -468.08c-78.14,-6.49 -47.5,-16.71 -183.88,-16.71 -114.9,0 -259.12,64.51 -259.12,175.53l0 351.05c0,67.26 43.82,101.88 87.04,130.29 86.17,56.64 241.33,55.49 340.7,28.54 72.08,-19.56 -24.27,16.7 115.56,16.7 19.5,0 41.8,-22.3 41.8,-41.79l0 -936.15c0,-51.96 -119.13,-66.58 -138.89,3.21 -8.2,28.96 -3.29,66.2 -3.22,97.08 0.17,64.08 0.01,128.18 0.01,192.25z"/>
   <path class="fil0" d="M4471.75 1203.08l0 -267.48c0,-32.28 13.32,-46.14 33.19,-58.75 57.69,-36.6 176.83,-36.6 234.51,0 19.87,12.61 33.2,26.47 33.2,58.75l0 267.48c0,102.92 -200.19,101.57 -267.71,58.75 -19.87,-12.61 -33.19,-26.47 -33.19,-58.75zm300.91 -468.08c-78.15,-6.49 -47.51,-16.71 -183.89,-16.71 -114.89,0 -259.12,64.51 -259.12,175.53l0 351.05c0,67.26 43.82,101.88 87.04,130.29 86.17,56.64 241.33,55.49 340.69,28.54 72.09,-19.56 -24.26,16.7 115.58,16.7 19.49,0 41.79,-22.3 41.79,-41.79l0 -936.15c0,-51.96 -119.12,-66.58 -138.89,3.21 -8.2,28.96 -3.29,66.2 -3.21,97.08 0.16,64.08 0.01,128.18 0.01,192.25z"/>
   <path class="fil0" d="M5157.14 1203.08l0 -267.48c0,-32.28 13.33,-46.14 33.2,-58.75 57.68,-36.6 176.82,-36.6 234.51,0 19.87,12.61 33.19,26.47 33.19,58.75l0 267.48c0,102.92 -200.19,101.57 -267.7,58.75 -19.87,-12.61 -33.2,-26.47 -33.2,-58.75zm-142.09 -760.62l0 936.15c0,50.06 66.55,41.79 91.94,41.79 20.1,0 24.57,-13.54 41.8,-25.08 92.84,44.55 275.08,30.59 357.94,-18.18 33.18,-19.53 93.41,-75.26 93.41,-123.9l0 -359.42c0,-110.01 -144.9,-175.53 -259.12,-175.53 -136.39,0 -105.74,10.22 -183.89,16.71 0,-64.07 -0.15,-128.17 0.01,-192.25 0.34,-128.21 1.51,-142.08 -100.31,-142.08 -19.49,0 -41.79,22.3 -41.79,41.79z"/>
   <path class="fil0" d="M3786.36 935.6c0,-116.93 300.9,-116.93 300.9,0l0 33.44 -300.9 0 0 -33.44zm-142.09 -41.79l0 351.05c0,247.06 585.08,219.23 585.08,8.36 0,-103.13 5.54,-108.66 -91.94,-108.66 -66.37,0 -24.99,142.09 -150.45,142.09 -211.12,0 -200.6,-19.18 -200.6,-192.24l401.2 0c60.75,0 41.79,-114.93 41.79,-200.6 0,-110.01 -144.88,-175.53 -259.1,-175.53l-66.87 0c-114.89,0 -259.11,64.51 -259.11,175.53z"/>
   <path class="fil0" d="M3100.97 935.6c0,-102.92 200.19,-101.57 267.71,-58.75 38.09,24.17 33.19,46.87 33.19,92.19l-300.9 0 0 -33.44zm-142.09 -41.79l0 351.05c0,247.06 585.09,219.23 585.09,8.36 0,-103.13 5.54,-108.66 -91.95,-108.66 -66.36,0 -24.99,142.09 -150.45,142.09 -211.13,0 -200.6,-19.18 -200.6,-192.24l401.2 0c60.75,0 41.8,-114.93 41.8,-200.6 0,-110.01 -144.89,-175.53 -259.11,-175.53l-66.87 0c-114.9,0 -259.12,64.51 -259.12,175.53z"/>
   <path class="fil0" d="M7698.1 935.6c0,-116.93 300.91,-116.93 300.91,0l0 33.44 -300.91 0 0 -33.44zm-142.09 -41.79l0 351.05c0,67.26 43.81,101.88 87.03,130.29 140.81,92.57 498.05,41.6 498.05,-121.92 0,-103.13 5.54,-108.66 -91.94,-108.66 -45.2,0 -43.91,56.13 -55.84,86.25 -31.2,78.84 -295.22,87.19 -295.22,-27.74l0 -108.66 401.21 0c60.74,0 41.79,-114.93 41.79,-200.6 0,-110.01 -144.88,-175.53 -259.1,-175.53l-66.87 0c-114.89,0 -259.1,64.51 -259.1,175.53z"/>
   <path class="fil0" d="M8634.25 877.1l0 58.5c0,269.49 442.99,146.84 442.99,267.48 0,99.95 -112.29,91.94 -192.24,91.94 -174.89,0 -49.58,-167.16 -183.89,-167.16 -81.13,0 -66.86,65.48 -66.86,133.73 0,90.11 140.37,167.17 259.1,167.17 95.28,0 158.35,5.11 244.28,-48.27 81.75,-50.77 81.69,-107.44 81.69,-185.77 0,-242.86 -442.99,-136.86 -442.99,-250.75 0,-112.3 91.79,-100.3 200.61,-100.3 31.8,0 84.62,29.13 94.73,55.72 20.87,54.85 -8.49,94.73 89.15,94.73 70.56,0 58.5,-52.18 58.5,-100.3 0,-107.51 -131.83,-183.89 -242.39,-183.89 -88.7,0 -179.64,-4.52 -255.67,45.24 -35.17,23.01 -87.02,70.06 -87.02,121.94z"/>
   <path class="fil0" d="M2265.13 877.1l0 58.5c0,269.49 442.99,146.84 442.99,267.48 0,99.95 -112.29,91.94 -192.24,91.94 -174.89,0 -49.58,-167.16 -183.89,-167.16 -81.13,0 -66.86,65.48 -66.86,133.73 0,90.11 140.37,167.17 259.1,167.17 95.28,0 158.35,5.11 244.29,-48.27 81.75,-50.77 81.69,-107.44 81.69,-185.77 0,-242.86 -442.99,-136.86 -442.99,-250.75 0,-112.3 91.79,-100.3 200.6,-100.3 103.48,0 102.35,104.46 108.39,117.29 26.66,56.52 134,37.04 134,-8.63l0 -58.51c0,-107.51 -131.83,-183.89 -242.39,-183.89 -88.7,0 -179.64,-4.52 -255.67,45.24 -35.16,23.01 -87.02,70.06 -87.02,121.94z"/>
   <path class="fil0" d="M5708.8 760.07l0 484.79c0,111.01 144.22,175.53 259.11,175.53l66.87 0c114.22,0 259.12,-65.52 259.12,-175.53l0 -484.79c0,-51.29 -113.36,-64.7 -136.81,-3.07 -8.86,23.31 -5.53,58.35 -5.34,86.6l0.23 359.64c-8.55,107.56 -200.1,97.58 -262.56,61.61 -61.98,-35.69 -38.51,-116.45 -38.51,-237.31l-3.21 -264.27c-19.76,-69.79 -138.89,-55.17 -138.89,-3.21z"/>
   <path class="fil0" d="M6628.23 442.45l0 936.15c0,56.29 142.09,69.54 142.09,-25.08l0 -886c0,-94.61 -142.09,-81.36 -142.09,-25.08z"/>
   <path class="fil0" d="M8241.39 760.07l0 618.53c0,52.24 129.72,71.75 141.59,-17.23l0.5 -342.19c-0.13,-99.93 -10.2,-129.88 66.42,-159.26 67.88,-26.04 150.9,18.52 150.9,-83.14 0,-92.49 -143.05,-58.66 -195.59,-43.97 -90.93,25.45 16.61,-14.54 -122.03,-14.54 -19.49,0 -41.8,22.3 -41.8,41.79z"/>
   <path class="fil0" d="M6394.19 760.07l0 618.53c0,56.29 142.09,69.54 142.09,-25.08l0 -568.38c0,-94.61 -142.09,-81.36 -142.09,-25.08z"/>
   <path class="fil0" d="M6394.19 442.45c0,111.74 -7.26,117.02 91.94,117.02 67.22,0 67.22,-158.8 0,-158.8 -25.39,0 -91.94,-8.27 -91.94,41.79z"/>
  </g>
 </g>
</svg>
