<svg width="150" height="150" fill="none" xmlns="http://www.w3.org/2000/svg"><path d="M7.01 94.17h135.98v33.663c0 5.523-4.477 10-10 10H17.01c-5.523 0-10-4.477-10-10V94.17Z" fill="url(#a)"/><path d="m24.006 118.142 3.877 1.172c-.26 1.087-.67 1.995-1.23 2.725a5.331 5.331 0 0 1-2.09 1.65c-.827.371-1.882.557-3.164.557-1.556 0-2.83-.225-3.819-.674-.983-.456-1.832-1.253-2.548-2.393-.717-1.139-1.075-2.597-1.075-4.375 0-2.37.628-4.189 1.885-5.459 1.263-1.276 3.047-1.914 5.352-1.914 1.803 0 3.219.365 4.248 1.094 1.035.729 1.803 1.849 2.304 3.359l-3.906.869c-.137-.436-.28-.755-.43-.957a2.547 2.547 0 0 0-.908-.781 2.613 2.613 0 0 0-1.201-.273c-1.003 0-1.77.403-2.305 1.211-.403.599-.605 1.539-.605 2.822 0 1.589.24 2.679.723 3.271.481.586 1.158.879 2.03.879.847 0 1.485-.237 1.915-.713.436-.475.752-1.165.947-2.07Zm6.055-8.467h4.424v5.01h4.834v-5.01h4.443v14.317h-4.443v-5.791h-4.834v5.791H30.06v-14.317Zm25.449 11.953h-5.04l-.692 2.364h-4.522l5.381-14.317h4.824l5.381 14.317h-4.629l-.703-2.364Zm-.928-3.095L53 113.386l-1.572 5.147h3.154Zm7.715-8.858h4.131l5.39 7.92v-7.92h4.17v14.317h-4.17l-5.36-7.862v7.862h-4.16v-14.317Zm16.66 0h4.131l5.39 7.92v-7.92h4.17v14.317h-4.17l-5.36-7.862v7.862h-4.16v-14.317Zm16.621 0h11.856v3.057h-7.422v2.275h6.885v2.92h-6.885v2.823h7.637v3.242h-12.07v-14.317Zm14.463 0h4.424v10.791h6.904v3.526h-11.328v-14.317Zm12.569 9.58 4.209-.263c.091.683.276 1.204.556 1.562.456.58 1.107.869 1.953.869.632 0 1.117-.146 1.455-.439.345-.3.518-.645.518-1.035 0-.371-.163-.703-.488-.996-.326-.293-1.081-.57-2.266-.83-1.94-.437-3.323-1.016-4.15-1.739-.834-.722-1.25-1.644-1.25-2.763 0-.736.211-1.429.634-2.08.43-.658 1.071-1.172 1.924-1.543.86-.378 2.035-.567 3.526-.567 1.829 0 3.222.342 4.179 1.026.964.677 1.537 1.757 1.719 3.242l-4.17.244c-.11-.645-.345-1.113-.703-1.406-.351-.293-.84-.44-1.465-.44-.514 0-.901.111-1.162.332-.26.215-.39.479-.39.791 0 .228.107.433.322.616.208.188.703.364 1.484.527 1.934.417 3.317.84 4.151 1.269.839.424 1.448.951 1.826 1.582a4 4 0 0 1 .576 2.12c0 .918-.254 1.764-.762 2.539-.508.774-1.217 1.364-2.129 1.767-.911.397-2.06.596-3.447.596-2.435 0-4.121-.469-5.059-1.406-.937-.938-1.468-2.129-1.591-3.575Z" fill="#2268A6"/><path d="M7.01 22.17c0-5.523 4.477-10 10-10h115.98c5.523 0 10 4.477 10 10v72.337H7.01V22.17Z" fill="url(#b)"/><g filter="url(#c)"><rect x="40.693" y="22.15" width="66.119" height="66.119" rx="33.059" fill="#F9F9F9"/></g><path d="M61.937 49.78c.04-.105.077-.226.053-.339-.027-.122.047-.05.094-.141.029-.057.093-.23.025-.282-.045-.035.045-.114-.09-.15.063.003.103-.046.15-.076.08-.048.192-.008.273-.058.099-.06.218-.295.13-.398-.041-.05.02-.082.074-.076.083.01.076-.065.064-.13-.008-.043-.093-.106-.02-.132.057-.02.135-.18.17-.228-.004.096.222.21.3.218-.018-.09.041-.079.115-.076-.01-.083.032-.197-.011-.273.061.012.125.016.18.049.083-.124.073-.397.288-.42.106-.01.238.158.258-.03.012-.1.123-.088.192-.124.09-.046.158-.114.25-.158.113-.053.317-.328.473-.188.03.027.102-.035.15-.02.065.02.131.042.193.072.094.045-.08.286.065.365.09.049.02.2.087.268.038.038.114.118.102.168.071.028.258.154.378.247a.136.136 0 0 1-.152-.01c-.074.188.175.407.325.478.12.058.188-.086.274-.061.07.02.084.132.111.189-.192.066-.032.175.039.307.075.141-.107.345-.244.354-.035.002-.167.04-.192.02-.067-.053-.083-.026-.14.025-.11.1-.174.232-.317.253-.22.031-.259-.039-.389-.063-.062-.011-.121-.032-.186-.033-.057 0-.206.147-.249.129-.103-.045.124-.05-.65-.047-.257.001-.41.019-.616 0 .025.118-.089.179-.057.25a1.166 1.166 0 0 1 .096.57c-.01.085.057.188-.002.234-.095-.072-.186-.243-.25-.344-.055.081-.276-.017-.36.016-.094.035-.29.064-.29.197-.06-.01-.266-.097-.302-.142-.034-.041-.07-.063-.076-.096-.012-.066-.073-.19-.12-.216-.079-.043-.167.02-.196-.098Zm8.613-12.863c-.072-.063.084-.137.124-.156.122-.057.188-.089.261-.209.06-.096.12-.142.096-.266-.02-.107-.07-.215-.06-.326.015-.153.2-.114.23-.223.032-.118.128-.179.227-.226.076-.036.321-.103.323-.207.001-.053-.05-.085-.045-.14.01-.102.014-.205.024-.307.098.069.23.103.335.168a.57.57 0 0 0 .365.077c.13-.014.226-.097.36-.048.12.043.246.047.362.097.103.044.186.123.29.164.092.036.215-.001.296.055.096.066.114.18.132.286a.538.538 0 0 0 .183.336c.192.165.429.126.66.168.23.042.56.147.745.297.148.12.285.323.497.304.244-.022.506-.238.56-.483.026-.114-.05-.202-.085-.304-.039-.113-.067-.242-.028-.359.07-.214.423-.48.646-.487.116-.004.183-.087.29-.096.11-.008.226-.01.332.016.125.03.233.09.352.137.14.055.102.074.11.197.005.099.165.12.237.125.138.01.228.074.357.11.127.038.26-.005.39.019.073.013.184.16.158.236-.028.08-.127.102-.14.193-.02.126.06.22.083.336.025.132-.06.249-.105.363-.047.122.077.266.098.392.035.214.073.417.087.637l.135 5.71h-.567c.005.11 0 .22.01.329L74.35 41.27l-1.026.492c-.087.024-.194-.118-.245-.168-.211-.212-.441-.255-.723-.319-.101-.023-.233-.034-.323-.09-.07-.044-.104-.169-.134-.24-.086-.212-.191-.27-.399-.348-.068-.026-.134-.084-.21-.083-.073.002-.153.084-.222.01-.056-.061-.153-.217-.155-.301a.585.585 0 0 0-.117-.39c-.074-.115-.321-.32-.215-.473.123-.177.311-.11.23-.4-.04-.145-.069-.257-.02-.404.044-.127.069-.23.022-.361-.049-.138-.01-.275.001-.415a1.166 1.166 0 0 0-.065-.488 1.497 1.497 0 0 0-.198-.375Zm19.2 34.203c.043.183-.049.405.08.564.064.078.063.166.095.256.03.083.113.096.031.19-.08.092-.068.392-.015.502.047.1.096.173.122.283.035.143.128.183.233.27-.133-.077-.018.026.015.037.049.015.1.01.15.022.12.03.184.162.303.189.205.045.42-.218.609-.273.07-.02.142.02.206-.002.051-.02.095-.053.149-.063.076-.015.121-.105.15-.167.04-.084.066-.173.09-.263.033-.123.11-.224.148-.343.07-.219.146-.43.207-.656.085-.32.214-.606.325-.916.09-.251.141-.509.252-.752.033-.071.094-.184.062-.265.038 0 .081-.154.091-.179.064-.17.099-.35.168-.518.102-.245.194-.454.247-.717.04-.196-.095-.482.144-.61.047-.026.098-.174.104-.233.005-.054-.007-.108.003-.162.013-.074-.078-.066-.077-.136.001-.054-.054-.469.08-.412.113.048.074.285.184.323.124.044.204-.29.218-.363.02-.105-.05-.158-.08-.251-.052-.172-.047-.34-.053-.517a2.635 2.635 0 0 0-.221-.96.734.734 0 0 0-.054.038c.014-.044-.004-.053-.031-.08-.044-.044.024-.072-.015-.12-.038-.046-.062-.219-.157-.161a.152.152 0 0 1-.005-.06c.165.016-.075-.233-.048-.025.01.083-.159.234-.236.233.146.073.051.29.022.387-.044.144-.042.236-.219.24.022.105-.011.023-.061.083-.036.043-.037.106-.053.157-.045 0-.208-.333-.231-.098-.009.084.02.139.05.214.028.068-.02.253-.033.12-.012.065-.214.073-.134.223.042.08.204.048.14.176.022-.1-.081-.109-.142-.061-.086.066-.08.215-.197.252-.015-.084.066-.149.05-.235-.085.018-.065.076-.099.136-.033.058-.128.09-.142.159-.01.048.04.101.06.14.04.076-.098.092-.142.128.01-.053.105-.205-.03-.202-.077.002-.14.099-.198.139-.04.027-.145.082-.135.143.006.031-.02.07-.008.1.015.04.07.033.082.081-.06-.004-.123.009-.134-.077-.014-.107-.119-.105-.123.007-.025-.042-.146-.054-.189-.033-.053.026-.033.115-.073.153 0-.114-.13-.024-.137.044a.573.573 0 0 0-.065-.099c-.066.045-.116.124-.192.152-.071.026-.197-.031-.255.023-.028.026-.004.242-.028.219.02.087-.042.188-.084.259-.071.119-.298.34-.211.483.06.1.008.278.017.393.011.13.105.24.105.368 0 .12-.008.196.056.302.07.114.03.166-.004.277-.024.08.076.105.029.19-.05.092-.117.179-.172.268-.058.096-.131.192-.173.297-.033.082-.006.217-.11.253-.123.043-.153.046-.165.188-.01.118-.117.227-.146.348Z" fill="#2E7FC1"/><path d="M92.94 65.44c.027-.048-.006-.098-.038-.132-.054.045-.041.133.038.132Zm.858 2.19v-.033c-.033.061-.117.13-.082.208.035-.055.05-.119.082-.175ZM60.13 52.358c.032-.07.116-.085.146-.16.02-.05.034-.13.038-.184.006-.097-.033-.273-.103-.344.045-.047.107-.023.153.005.01-.057.102-.12.065-.183-.03-.05.019-.16.088-.123-.052-.077-.143-.125-.167-.22-.044-.18.292-.04.347-.014-.04-.12-.025-.253-.18-.279.028-.08.029-.165.131-.18-.085-.101-.101-.08-.071-.23-.185.12-.178-.29-.153-.382.023-.088.085-.11.163-.133.041-.012.044-.09.077-.118.048-.041.105-.015.159-.038-.012.106.203.212.29.174-.059-.096.04-.101.11-.1.094.001.06-.154.064-.216.037.02.075.09.126.076.048-.013.058-.105.109-.126.042.076-.018.33.092.358.098.024.019-.19.317-.181.03 0-.063.086.176.101.113.007.136.23.151.248a.712.712 0 0 0 .372.223c.002-.133.197-.162.29-.197.085-.032.306.065.36-.016.092.108.129.226.252.344a.612.612 0 0 0 .038-.055c.036.108-.048.212-.032.267.026.09.08.135.092.24.01.087.064.235.032.317-.036.092-.083.142-.128.226-.06.112-.163.177-.16.3.005.162-.075.28-.107.4-.035.126-.019.33.059.433a.421.421 0 0 1 .083.346c.194-.054.08.241.112.333a.365.365 0 0 0-.114.017.513.513 0 0 1 .037-.06c-.09.137-.166-.036-.185-.104-.05.054-.068.13-.153.136a.234.234 0 0 1-.164-.06c-.03.056-.1.003-.126-.022.048-.01.1.036.137-.016a.203.203 0 0 0-.055-.044c.023.11-.022.008-.098.028.016.032-.18.013-.227.019-.024.002-.267.046-.247.056.121.066.36-.144.458-.02a3.672 3.672 0 0 0-.444.059c-.034.006-.103.02-.125-.02-.03-.055-.176-.03-.229.02.087-.034.134-.025.219.006-.186.021-.384.01-.56.087-.151.065-.287.188-.456.205a.826.826 0 0 0-.334.167c-.142.137-.167-.116-.145-.22.026-.124.07-.261.104-.364a.344.344 0 0 0-.102-.375c-.065-.055-.16-.08-.15-.194.013-.132-.39-.018-.308-.17-.048.012-.091-.01-.125-.043Zm.288-13.638.039-.826c-.036-.221.304-.295.427-.406.06-.055.16-.168.253-.163.081.005.1-.117.207-.138.174-.033.263.135.368-.095.032-.072.14-.042.203-.05.112-.015.225-.03.33-.07.213-.078.222-.306.404-.402.074-.04.172-.044.25-.073.098-.036.162-.145.262-.165.036-.007.233-.023.153-.127-.052-.067-.135-.092-.028-.19-.153-.041-.015-.202.097-.193.149.013.286-.04.338-.179.101-.266.789-.03.985-.08-.225-.102.164-.226.042-.32-.058-.045-.122-.084-.17-.141-.053-.066-.025-.16-.079-.24-.055-.085-.024-.154-.008-.238.015-.079-.046-.08-.037-.156.008-.071.007-.157.007-.228.002-.095-.062-.172.033-.245-.099-.04-.059-.095-.073-.168-.019-.098-.188-.13-.225-.23.181 0 .259-.045.413-.124.068-.034.11-.034.15-.105.036-.063.063-.116.13-.151.038-.02.11-.079.15-.047.052.04.117-.03.151-.062.09-.081.212.123.303-.064.122-.25.543-.36.789-.387.175-.02.353-.069.53-.057.131.009.222-.16.336-.095.05.029.039.013.058-.019.004-.006.202-.003.231-.015.17-.068.343-.042.523-.047.15-.005.185.026.3.112.145.11.195-.052.322-.068.04-.005.292-.015.278-.09-.025-.134.159-.052.202-.022.091.06.228.092.322.017.051-.041.018-.094.115-.07.07.017.124.068.2.064-.064.106.094.069.144.056.1-.026.208-.002.304-.034.007.136-.166.203-.24.29.204.044.008.331.05.463.07.23.04.403-.007.629-.04.186-.247.33-.386.453-.08.071-.04.257.006.336.076.127.042.266.199.326.214.081.151.353.324.482.08.06.174.103.242.179.092.102.105.269.127.398.044.267.17.563.17.833 0 .072-.152.045-.054.176.096.127.174.277.206.434.108.54-.051.536.03.813a.488.488 0 0 1-.01.356c-.058.145-.005.28.026.425.048.22-.05.223-.205.34-.177.134.117.394.194.512.144.221.057.484.249.69.073.08.157-.016.236-.01.099.008.206.082.3.116.212.077.283.255.361.457.037.095.075.107-.029.166-1.077.686-2.163 1.374-3.08 2.267a1.402 1.402 0 0 1-.356.342c-.101.056-.249.06-.36.084-.15.03-.302.06-.452.092-.076.016-.738.244-.71.01.01-.083.07-.115.061-.207-.003-.035.008-.22-.029-.238-.111-.055-.25-.08-.373-.104-.06-.012-.142-.166-.188-.155-.265.066-.307-.199-.355-.238-.056-.047-.153-.051-.205-.09-.058-.045-.008-.154-.043-.213a.557.557 0 0 0-.191-.182 3.408 3.408 0 0 1-.35-.245c-.278-.216-.551-.439-.828-.657-1.07-.84-2.136-1.677-3.255-2.451a68.664 68.664 0 0 0-.804-.549Zm9.658 14.752a.34.34 0 0 0 .119-.242c.003-.084.114-.248.082-.306-.032-.06-.045-.084.043-.182.088-.098.174-.198.27-.288.055-.051.125-.074.154-.145.025-.061.12-.225.19-.244.074-.021.118.079.21.058.074-.016.078-.117.095-.175.013.059.17.218.226.233.056.015.07.094.049.153-.016.043.063.108.148.088.025-.044.167-.175.132-.254-.024-.054.09-.127.13-.16.066-.052 0-.132.035-.203.07-.139.169-.266.216-.44.02-.074-.006-.152.015-.222.016-.054.102-.072.098-.162-.026-.007.19.021.234-.19.01-.048.093-.285.012-.301.093-.047.23-.108.246-.214.01-.07.006-.127.006-.197 0-.072.073-.066.106-.115.04-.06.035-.146.06-.222.025-.08.048-.155.058-.203.02-.093.073-.268.17-.307.051-.02.356-.018.395-.19.01-.05-.04-.087-.033-.144.013-.098.02-.153.036-.228.02-.087-.14-.161-.191-.145-.042.015-.097-.074-.117-.186-.016-.178-.006-.245-.032-.296.066 0 .169-.006.22.051.076.085-.002.17.166.217.087.024.097.226.102.296.005.07-.008.011.064.08.145.138-.011.544.009.725.028.25.147.537.373.663-.091.079-.207.041-.281.004-.077.008-.094.02-.174.023-.17.006-.341-.103-.427.036-.104.169-.091.198.047.356.139.159.29.297.443.441a.764.764 0 0 1 .137.168c.06.111.11.338.175.447.067.11-.067.187-.1.231a2.097 2.097 0 0 0-.174.35c-.016.039-.054.098-.07.137-.028.071-.072.129-.105.198-.046.097-.283.192-.147.247.1.04.091.142.078.274-.007.06-.01.114-.043.166a.486.486 0 0 1 .073.095c.017.112-.01.283.065.373.046.055.107.076.128.162.015.064.043.15.102.192-.187.005.234.501.27.53.091.073.219.116.235.181.012.05.022.077.024.125.005.122.033.248.06.365-.142.067.016.304-.075.372a.727.727 0 0 0-.282-.187c-.047-.015-.19-.073-.229-.047-.05.033-.149.027-.18-.047-.001-.004-.167-.036-.183-.042-.051-.02-.197-.005-.264-.009-.123-.007-.247-.005-.369-.022-.02-.003-.081.016-.105.004-.046-.022.02-.068-.064-.06-.113.011-.212.03-.327.005-.134-.03-.245-.006-.38-.01-.088-.003-.247-.053-.33-.007-.024.013-.015.083-.041.083h-.25c-.117 0-.233.005-.35.007-.25.006-.303-.131-.25-.363.03-.132.075-.275.004-.403-.034-.06-.15-.162-.027-.202-.069.04-.202-.026-.122-.105.042-.042.135-.115.012-.119a.143.143 0 0 0 .038-.093c-.038.094-.079.02-.142.022.024.031.04.053 0 .033a.216.216 0 0 1-.01.087c-.05-.002-.075-.04-.06-.087-.043.079-.167-.02-.183-.078-.026-.092-.031-.25-.096-.32-.075.091-.06-.017-.11-.017a.63.63 0 0 1 .017.109c-.155.02-.07-.126-.054-.208Zm6.461 19.413.065-1.82.517.001.072-2.416c.184-.044.65-.071.915-.163.083-.029.285-.072.368-.024.112.064.133.198.188.303.145-.115.26-.35.432-.355.065-.001.058.037.105.043.061.009.097-.075.143-.102.147-.088.302-.076.276-.023-.008.016 0 .1.007.118.04.1.094.194.16.279.063.083.115.127.162.27.034.103.047.124.076.221.062.204.21.378.395.473.196.1.376.08.309.392.179-.041.319-.02.241.217a.225.225 0 0 0 .03.215c.05.077.086.261.168.287.163.05.305.042.48.102.13.044.018.105.058.171.03.052.146.035.164.11-.204.025-.171.068-.247.173-.084.118-.314.06-.414.167-.09.097-.165.259-.286.354-.014.01-.06.055-.11.09-.082.057-.172.078-.235.149-.083.094-.1.122-.114.263-.017.174-.119.214-.242.36-.073.087-.193.111-.314.131-.088.014-.036.048-.053.133-.022.112-.076.213-.112.32-.054.16-.139.215-.301.2-.148-.012-.13.094-.32.052-.076-.016-.256-.1-.32-.105-.094-.006-.156-.065-.21-.133-.08-.1-.3-.174-.414-.028-.103.134-.058.284-.153.421a.66.66 0 0 1-.179.159c-.079.054-.102.141-.169.204-.05.046-.093.026-.149.049-.018.016-.02.034-.016.06-.022.061-.113.078-.166.075-.084-.006-.131-.027-.212-.033-.074-.006-.14-.035-.234.043-.137-.262.15-.38.05-.737a1.886 1.886 0 0 0-.162-.407c-.061-.107-.179-.16-.25-.26Zm8.302-15.567c.115-.084-.174-.433.226-.351 0-.022.023-.067-.001-.109l.237-.03c-.158-.239-.225-.052-.3.014-.064.056-.221-.192-.213-.343.06-.11.02-.16.134-.262.084-.076.15-.328.287-.389.064-.029.055-.039.051-.096-.005-.088.098-.13.12-.21.027-.093.035-.184.044-.278.008-.084-.077-.144-.094-.239-.04-.212-.17-.258-.19-.351-.015-.074-.056-.137-.081-.207a.238.238 0 0 1-.028-.1c0-.047.052-.074.038-.125-.012-.044-.061-.056-.1-.07-.085-.032-.022-.097-.113-.088.037-.085-.069-.167-.058-.226.01-.06.082-.106.123-.149.141-.148.314-.106.5-.106.106 0 .213-.008.319-.01.052 0 .106-.003.158.005.045.008.059.086.112.107.166.064.35-.014.52.064.176.082.365.233.502.368.07.069.126.117.228.128.065.007.215-.034.267 0 .144.092.366.01.492.13.017-.086.135-.21.188-.285.095-.131.298-.184.438-.25.149-.069.175.095.287.16.076.045.159.016.239.001.064-.011.141.031.202-.002-.093.159-.179.333-.292.48-.12.153-.227.24-.226.446 0 .49.005.979.004 1.468 0 .367-.073.714.173 1.014.084.101.21.233.12.366-.053.078-.21.222-.309.131a.975.975 0 0 0-.022.06.543.543 0 0 1-.043-.06c.026.06.092.17.033.23-.01-.149-.072.021-.087.056-.03.07-.09.083-.156.093-.15.02-.21.152-.162.278.022.057-.083.223-.126.258-.074.06-.136.463-.218.428.036.156-.12.267-.147.41-.064-.046-.056.035-.11.022-.066-.016-.152-.132-.204-.172-.228-.173-.514-.363-.655-.55-.037-.05-.105-.058-.027-.143.11-.122-.083-.268-.182-.33l-1.902-1.19M57.66 51.632l-.016.038c.074.023.146.054.224.065.013-.029.023-.07-.01-.09-.056-.036-.136-.01-.198-.013Z" fill="#2E7FC1"/><path d="M57.436 50.703c.047-.043.107-.005.159-.038.05-.032.036-.119.098-.137.1-.03.169-.225.2-.313.054-.147.21-.039.32-.112.093-.063.357-.068.45.001.09.067.135.181.194.274.03.048.064.097.084.151.015.04-.029.087-.002.115.034.035.072.027.075.086.003.046-.014.125.02.162.05.052-.116.22-.106.308.012-.027.135-.092.163-.11.113-.067.094.026.067.11-.03.097-.173.07-.186.211-.012.135-.016.128-.09.207-.06.062-.117.124-.202.186-.113.082-.164.292-.214.277a4.707 4.707 0 0 1-.566-.313c.124.035.027-.023-.005-.044.053-.036.121-.036.17-.081-.102.012-.25.028-.164-.12-.067.152-.15-.02-.207-.012-.04.006-.076-.262-.077-.294-.084.019-.215-.05-.153-.159a.867.867 0 0 0 .114.077c-.096-.048.045-.13.099-.126-.022-.036-.012-.027-.006-.071-.049.1-.097.048-.158.01a.584.584 0 0 0-.022.06c-.072-.12-.012-.166.092-.19-.04-.053-.12-.049-.147-.115Zm.683-3.763c.102-.025.148.03.231-.076.07-.09.04-.285.074-.397.078-.257.434.168.47.249.07-.187.183-.29.397-.202.141.057.44.047.472-.148.08.195.477.108.632.096.38-.029.768-.009 1.149-.009.134 0 .3-.015.431-.002.098.01.07-.151.08-.235.01-.094.102-.275.003-.338-.17-.108-.124-.203-.123-.34l-.397-5.317h1.005c1.039.78 2.014 1.555 2.997 2.327.118.085.34.17.323.349-.005.055-.013.105.087.145.049.02.102.033.143.06.07.046.058.128.113.183.052.053.106.06.174.071.049.009.012-.045.1-.001.063.031.09.114.162.137.112.035.261.044.365.106.075.044.054.254.021.328-.044.101-.11.198.052.22.171.026.365-.066.535-.087-.022.466.044.961-.016 1.423-.007.053.01.09-.03.342-.014.082.015-.023-.1.22-.036.074-.034.165-.066.242-.031.074-.104.096-.163.142-.072.056-.023.13-.123.113-.022-.004-.221-.057-.23-.023-.024.09-.646.06-.74.068-.23.018-.226-.01-.39.168-.05.056-.151.076-.223.06a1.241 1.241 0 0 0-.179-.007c-.075-.002-.07-.06-.07.035-.055-.021-.107-.047-.16-.07-.13-.054-.16.037-.21 0-.047-.035-.13-.08-.236.015-.112.1-.274.183-.338.225-.107.072-.186.129-.296.156-.09.023-.016.214-.15.156-.082-.036-.157-.086-.244-.026-.074.051-.114.146-.141.227-.016.046-.037.12-.058.164a1.009 1.009 0 0 0-.188-.05c.043.077.001.19.011.273-.074-.002-.133-.014-.114.077-.079-.008-.305-.123-.3-.219-.145.345-.251.182-.178.305.04.068.041.12.025.178-.007.024-.18-.007-.137.066.077.133.043.277-.107.403-.07.06-.153.035-.237.05-.079.015-.123.1-.208.096.151.038.042.117.088.144.078.045.011.246-.032.318-.014.023-.095.033-.09.056.024.115.04.257-.04.36-.032.042-.125.04-.17.053-.093.026-.045.15-.163.14-.132-.012-.045-.274-.09-.355-.051.02-.06.112-.11.125-.05.014-.088-.056-.125-.076-.003.062.03.217-.064.216-.07-.001-.169.005-.11.1-.087.039-.302-.068-.29-.174-.045.02-.116-.003-.15.037-.053.064-.046.14-.15.149.077-.145-.18-.166-.18-.289 0-.078.02-.17.001-.247-.026-.108-.17.019-.22.017.018-.07.074-.255.18-.219.038-.105-.179-.144-.192-.246-.068.04-.062-.038-.056-.082.014-.1-.026-.138-.068-.221-.033-.066.009-.16-.068-.198-.03-.015-.135-.073-.166-.043-.035.032.076.113.002.148-.084.04-.15.106-.235.149-.06.03-.125-.055-.173-.075-.104-.043-.184-.035-.258.053-.185.22-.084-.042-.244-.097-.105-.035-.215.299-.317.041-.033-.082.103-.157.037-.25-.038-.054-.008-.182.012-.238.024-.066-.177-.443-.219-.28-.047-.013-.122-.16-.143-.204-.019-.04.042-.12.04-.2-.004-.118.01-.17-.075-.263-.029-.032-.06-.071-.04-.118.033-.08.01-.08-.022-.16Zm14.054 13.48c.052-.039.117-.006.137-.076.017-.058.064-.282.024-.328-.106-.121.303-.303.38-.372.02.087.148.1.153.192.04-.043.094-.068.14-.104.062-.05.036-.14.09-.197.09.12.227-.11.334-.056.103.051.008.074-.008.138-.017.072.028.151.028.224.046-.059.146.015.208-.027.09-.063.146-.183.215-.267.036-.044.181-.114.189-.154.02-.105.108-.13.194-.166.202-.087.238-.466.233-.647-.004-.139.009-.263-.008-.401-.017-.132.15-.166.205-.27.132-.247.121-.403.389-.584a.986.986 0 0 0 .255-.272c.075-.104.02-.257.051-.378.027-.105.078-.559.083-.677.005-.135.083-.253.105-.384.021-.126-.016-.26.013-.386.053-.236.195-.43.275-.654.047-.13.025-.268.021-.401-.002-.062.027-.126.017-.186-.009-.053-.04-.098-.055-.15-.023-.081.12-.079.152-.154a.928.928 0 0 1 .17-.276c.076-.08.169-.148.283-.147.097 0 .136.084.198.098.143.031.276.187.33.319.044.108.199.027.286.053.048.015.071.079.126.076.048-.002.058-.01.108.015.075.038.09 0 .164-.005.05-.003.103.023.149.04.081.03.192.088.281.057.16-.056.11-.436.323-.446.12-.006.153.238.31.09.066-.064.526-.125.498-.276.096-.004.128.127.219.118.11-.011.298-.028.344-.145.017-.044-.027-.087.03-.116.071-.036.13-.015.184.04.089.087.171-.016.269.03.048.024.088.06.136.084.055.029.094.005.153.014.139.02.192-.134.339-.05.055.03.249.153.249.225 0 .035.046.122.08.136.144.059.28.27.434.126.087-.082.152-.099.267-.042.119.058.166.034.236-.104.092-.182.328.274.34.304.054.133.413.15.303.358.07-.016.155-.02.172.068.01.024.021.046.037.066.01.046-.053.131-.046.179.022.152-.004.304-.026.45-.011.077.046.066.132.051.04-.007.19.099.162.182-.065.2-.313.397-.455.545-.047.049-.142.179-.199.227-.057.048-.062.007-.095.07-.041.078.009.174-.04.254a.895.895 0 0 0-.122.328c-.01.094-.01.189-.016.283-.008.11-.022.207-.034.311-.008.077.011.184-.024.254-.04.08-.104.11-.163.175-.09.1-.082.132-.086.249-.002.077-.084.164-.126.22-.093.12.036.248.107.364.054.087.093.148.053.269-.145.127.03.526-.106.657.1.057.081-.2.116-.157.034.203-.093.35-.094.548 0 .259.217.378.125.556-.053.103-.108.126-.064.192.069.102.098.27.233.534.09.176.348.143.363.569.006.166.137.075.187.331-.357.081-.62.09-.979.167.148.245-.236.347-.305.53.206.063.137.382.123.537-.01.114.033.22.026.333a.459.459 0 0 1-.04.165 1.036 1.036 0 0 0-.076.206c-.037.153-.088.24.008.387.067.102.191.231.28.315.04.038.25.167.267.089.03-.14.066-.114.203-.153 0 .22-.007.44-.013.66-.001.034.024.179-.033.184-.067.007-.081-.07-.035-.107-.099-.12-.32.256-.424.03-.034-.075-.067-.171-.118-.24-.029-.038-.106-.088-.115-.134-.017-.09-.035-.194-.148-.197-.095-.003-.135-.102-.226-.113-.076-.009-.123.049-.175-.035-.041-.065-.042-.16-.102-.212-.084-.076-.145-.34-.218-.103-.076.244-.21.115-.4.122-.128.005-.158-.036-.267-.085a2.005 2.005 0 0 0-.124-.03c-.173.03-.224-.232-.163-.352a1.055 1.055 0 0 0-.312.066c-.122.046-.147.106-.284.05.053-.095.056-.219.01-.217-.059.003-.083-.047-.125-.086-.095-.09-.082.016-.104.024a.276.276 0 0 1-.198.005c-.091-.023-.148.04-.23.07-.103.036-.17-.034-.237-.022-.024.004-.12-.007-.124-.005-.065.035-.098.133-.188.131.02-.067-.02-.12-.032-.183-.016-.087.044-.103.063-.17.044-.155-.016-.424-.11-.55-.115-.151-.164-.247-.15-.444.015-.203.086-.417.033-.62-.02-.077-.076-.144-.074-.227.001-.093.052-.18.06-.272.01-.151-.087-.135-.21-.136-.118 0-.234-.003-.35.002-.24.01-.204-.042-.137-.245-.053 0-.106-.014-.159.007-.035.013-.009.029-.029.046-.063.054-.355.007-.44.007.029.071-.024.155-.012.232.01.062.012.16-.086.14.032.094-.025.188-.006.283-.04 0-.3.009-.343-.016-.125-.072-.345.063-.388.067-.1-.016-.192-.012-.301-.011-.138-.029-.198-.316-.267-.417l-.069-.097c-.046-.065-.025-.112-.035-.182-.017-.125-.147-.206-.128-.338.017-.119 0-.218-.056-.287-.078-.097-.077-.133-.197-.127a9.461 9.461 0 0 1-.995.01c-.268-.015-.583.03-.846-.022-.21-.04-.385.273-.51-.043Zm16.682-5.309c0-.107-.028-.254.018-.354.044-.095.134-.169.194-.255.12-.17.225-.477.407-.588.167-.1.362-.035.508-.192.166-.178.322-.294.573-.33.188-.028.517.106.647-.066l1.645-1.946c-.199 0-.405.034-.6-.016-.222-.057-.434-.164-.648-.243l-.661-.252c-.204-.077-.383-.13-.54-.288-.052-.052-.069-.08-.141-.1-.074-.019-.103-.133-.138-.194-.058-.103-.097-.186-.18-.277-.1-.108-.216-.247-.17-.408.049-.177.204-.332.273-.506.182.102.282.345.407.502.156.196.393.25.634.171.092-.03.211-.112.29-.17.139-.103.178-.086.35-.058.176.03.256.066.421-.037.083-.052.275-.246.382-.207a.43.43 0 0 0 .327.003c.077-.026.15-.065.23-.083.09-.02.151.02.239.028.142.014.251-.07.374-.12.129-.053.275-.03.404-.095.108-.055.119-.196.21-.24.09-.045.376.031.341.16-.046.166-.076.267-.046.443.021.123.053.299-.054.393.071.026.13.01.115-.066.035.024.074.04.115.05-.024.117-.29-.044-.291.162-.001.169.013.342-.034.507-.04.141-.125.25-.205.368-.093.138-.082.343-.196.477-.044.051-.105.065-.136.133-.03.068-.004.144-.03.216-.057.164-.175.294-.256.445-.11.201-.118.422-.203.63-.086.211-.22.398-.344.588-.12.184-.2.398-.337.57-.153.191-.306.382-.462.57-.312.38-.63.689-1.045.956a2.76 2.76 0 0 0-.492.376c-.163.167-.35.332-.497.512-.146.179-.3.352-.444.532-.07.087-.132.18-.2.27-.043.055-.17.253-.192.137 0 .188-.123.369-.236.51.01-.147-.133-.269-.234-.414-.115-.166-.097-.28-.099-.473-.005-.582.007-1.15.007-1.731Zm-33.129-6.014a5.775 5.775 0 0 0-.005-.043.223.223 0 0 0-.055.043h.06Zm.034-.235c.05-.025.042-.043-.023-.054l.023.054Zm.049.536a.282.282 0 0 1 .065-.039c-.044-.092-.155-.03-.065.039Zm.092-.568a.595.595 0 0 0-.082.01c.005.08.105.068.082-.01Zm-.005.24-.022.054c.046.023.075-.003.082-.049a.865.865 0 0 1-.06-.005Zm.142.235a.17.17 0 0 0 .06-.093c-.04.015-.066.049-.06.093Zm.268.011c.016-.053-.002-.068-.055-.044l.055.044Z" fill="#2E7FC1"/><path d="M55.508 48.545c.053-.036.122-.008.18-.034.06-.027.117-.062.186-.064.146-.004.28.035.401-.07.108-.094.243-.066.373-.066h.592c-.017.076.068.165 0 .232-.037.037-.139.029-.154.084-.02.08.262.141.122.299-.073.081-.179.038-.27.053-.085.014-.187.082-.274.108-.151.046-.079.31-.233.365-.037-.142-.057-.16-.185-.224a.568.568 0 0 1 .038-.06c-.11.082-.005-.254.152-.131-.038-.107-.134-.036-.19.011-.054-.096-.063-.16.054-.202.1-.036.137.072.23.066-.05-.02-.08-.084-.033-.126a.113.113 0 0 0-.104.014c-.053.029-.098-.007-.153.002-.054.01-.088.05-.128.082-.052.042-.123.035-.183.05.004-.1.087-.132.153-.186-.094-.01-.169.089-.263.068-.182-.04-.065-.2.023-.26-.035.004-.07.01-.104.017a.45.45 0 0 1-.06.06c-.068.003-.105-.077-.17-.088Zm7.767 3.982c-.035-.186-.047-.335.034-.51.07-.151.028-.204.084-.355.041-.112.192-.268.237-.365.06-.133.013-.329-.028-.465-.016-.054-.039-.089-.06-.14-.024-.054.01-.11.015-.166.01-.128-.053-.218-.026-.34.028-.132-.027-.273-.051-.401-.011-.061-.075-.13-.038-.193.03-.05.07-.122.052-.183.318.028.61-.02.95.002.068.004.27-.014.286.026.03.073.15-.043.211-.088.063-.046.245-.008.205.073-.06.124-.075.247.103.38.148.111.065.066.09.18.012.056.019.052.013.115-.005.065-.006.17-.023.251-.08-.012-.047.045-.082.093.049.008.084-.047.13-.035.066.02.065.115.05.164-.03.094.034.336-.093.313.032.081.118.131.167.2.059.083.008.108-.026.185-.042.094.038.217-.015.305-.063.105-.07.157.018.247.04.042-.005.149-.024.197-.047.118-.059.17.009.288.042.074.132.14.2.192.018.014.133.082.136.09.016.063-.087.093-.103.146-.022.071-.07.132-.157.122-.047-.005-.063-.112-.089-.144-.056-.069-.15-.043-.225-.074.06.048.158.018.221.065.127.093-.067.151-.13.162-.237.042-.388.177-.585.295-.114.068-.24.066-.36.116-.074.03-.157.046-.22.096-.052.042-.095.098-.155.13-.062.032-.111.02-.157-.027-.063-.066-.131-.075-.214-.1-.087-.025-.157-.005-.21-.093.07-.002.035-.013.106-.01-.032-.093.075-.385-.12-.331.066-.117-.056-.316-.126-.413Zm18.965 4.867c.037-.102.025-.24.04-.35.02-.137.032-.273.05-.41.022-.169.119-.264.135-.352.01-.053-.01-.108 0-.161.016-.085.096-.064.135-.125.118-.186.306-.32.466-.484a.78.78 0 0 0 .17-.262c.022-.07-.11-.145-.161-.172-.041-.022-.103.044-.133-.023-.024-.053-.005-.126.006-.18.034-.166-.028-.3.056-.452.024-.044-.036-.056-.02-.102a.295.295 0 0 1 .099-.123c.037-.031.082-.06.134-.05.042.008.121.095.163.076.054-.024.132-.122.189-.047.06.08.077.11.184.147-.06-.099.105-.137.183-.148.095-.013.205-.09.299-.08.128.016.168.13.308.032.101-.07.171-.175.248-.268.044.06.092.146.065.224.09-.01.03.057.116.082.088.027.122.044.085.157-.048.147.099.305.175.48.015.034.103.149.102.178-.004.063.07.157.086.218a.63.63 0 0 1-.047.365c-.04.093-.117.106-.098.214.01.056-.08.091-.122.112-.08.04-.084.15-.132.23-.037.061-.097.094-.122.156-.034.084-.065.146-.104.228-.038-.002-.177.044-.154-.078-.089.034-.06.06-.097.065-.108.016-.11-.048-.029-.043-.02-.044-.093-.098-.068-.129-.06.022-.02.006-.103.037l.026.044c-.072.02-.017.09-.107.085.011.14-.201.068-.225.073-.005.002.011-.127-.005-.105-.103.24-.14.112-.16.125.004.05-.034.054-.122.063-.042.059-.14.057-.132.078.077.198-.086.23-.111.37-.022.12.022.127.035.206-.545 0 .119.024-.425-.017-.188-.014-.408.025-.518.16-.038.048-.092.18-.159.137-.017-.012-.028-.076-.059-.073a.447.447 0 0 0-.162.08c.012-.049.082-.135.02-.188Zm3.102 13.541a.444.444 0 0 0 .028-.17c-.024.052-.05.112-.028.17Zm.574-1.906c.046-.044.035-.062-.033-.055l.033.055Z" fill="#2E7FC1"/><path d="M82.497 66.478c.42-.158.841-.313 1.264-.464.094-.033.183-.078.277-.114.032-.013.112-.065.147-.054l.316.353c.003-.07.155-.046.227-.066.06-.017.154-.075.204-.01.093.121.094.414.045.548-.061.17-.204.323-.114.498.022.041.01.09.035.13.028.045.079.069.107.113.055.088.14.17.219.236.074.064.07.076.02.16-.056.09.122.123.133.002a.457.457 0 0 0-.09-.316c.107-.078.052-.239.209-.271.212-.044.23-.137.231-.351 0-.078-.013-.157-.008-.235.007-.127.074-.267.02-.391-.055-.125-.169-.242-.242-.358-.068-.108-.135-.224-.22-.319-.064-.07-.04-.006-.097-.07-.017-.054.012-.16-.023-.266-.045-.139.036-.223.018-.284-.105-.355-.041-.268-.046-.313.04-.093.177-.076.144-.406.114.01.218.035.35-.003.076-.022.147-.115.23-.061.056.037.084.107.144.14.047.024.2.032.252.02.085-.023.146-.165.242-.061.177.193.39-.036.477-.177.047-.079.132-.08.206-.034.121.077.15.076.265-.005.096-.067.17-.114.295-.09.072.015.21-.123.278-.153a1.82 1.82 0 0 0 .356-.233c.14-.108.23.072.11.13l.054.027c-.055.072-.024.152-.055.23-.016.041-.122.096-.06.14.052.037.04.232.047.308a.89.89 0 0 1 .005.171c-.007.087-.034.065-.01.142a.159.159 0 0 1-.006.084c-.011.053.022.069.036.114a.256.256 0 0 1-.05.215c.152.022-.046.355.013.374.104.034.003.38.036.462.115-.068-.017.154.017.207.009-.097.106-.08.09.016-.019.104.006.177-.102.236.02.015.04.03.061.043-.125-.03-.017.016-.053.059-.023.027-.058.037-.073.072.12-.043.017.149-.001.187-.06.128-.19.198-.252.325-.061.127-.162.2-.23.32-.053.091-.41.215-.396.314.006.047-.269.094-.323.127a.646.646 0 0 1-.154.068c-.086.025-.07-.008-.133.05-.09.083-.216.122-.323.177-.106.056-.275.314-.395.213.223.244-.318.338-.267.585-.046.006-.077-.024-.088-.066.011.087-.071.196-.06.076-.104.09-.23.153-.314.264-.075.098-.143.192-.233.278-.037.035-.182.188-.234.124-.034-.04-.077-.18-.153-.136.132-.008.086.157.112.197.024.038.023.1.004.139a.054.054 0 0 1-.045.036.155.155 0 0 1 .017.1c-.014.172.042.125.131.238.05.064.064.14.063.218 0 .03-.025.268.019.121-.033.129.052.267.065.399.008.078.036.16.023.24-.01.066-.04.14.032.186.013-.084.009-.16.066-.23-.002.026 0 .21.027.055-.015.09-.037.177-.045.267-.007.08.05.153.04.231-.029.215-.183.422-.148.65-.02-.125.071.003.076-.105.083.14-.077.346-.162.444-.141.161-.355.235-.552.305a2.99 2.99 0 0 0-.646.29c-.09.058-.183.11-.233.209-.043.086-.065.185-.176.2.074 0 .193.265.256.104-.013.136.058.489-.083.48l-.34-.014c.006-.112-.064-.238-.046-.325.015-.072-.02-.143-.07-.208-.036-.047-.028-.163.01-.255.022-.052.02-.238.021-.291.006-.131.005-.262.015-.392.009-.118-.018-.197-.037-.309-.029-.168-.144-.306-.178-.47-.017-.08-.005-.163-.019-.244a3.268 3.268 0 0 0-.073-.333c-.02-.072-.052-.05-.011-.103.04-.032.152-.179.2-.227.07-.072.4-.535.486-.472-.088-.112 0-.177.027-.29.017-.069-.05-.165.026-.21.105-.063.133-.149.19-.257a.738.738 0 0 0 .057-.136c.029-.079.007-.14.01-.216l-.054.022c-.04-.08-.068-.15-.052-.195.019-.053.086-.098.06-.17-.021-.06-.11-.039-.085-.138.019-.073.148-.085.138-.175-.018-.155.078-.097.068-.198-.007-.084-.055-.163-.038-.247.01-.06.05-.125.035-.184-.03-.118-.02-.198-.017-.324 0-.041-.021-.07-.032-.11-.017-.059.04-.157.05-.215-.08.023-.122.022-.164-.057-.04-.074-.27-.08-.33-.115-.184-.106-.36-.217-.559-.273-.063-.018-.262-.012-.331-.028-.112-.027-.067-.21-.078-.293-.014-.121-.106-.23-.095-.353Z" fill="#2E7FC1"/><path d="m87.975 67.351.054-.037a.259.259 0 0 1-.016.092l-.038-.055ZM55.83 43.766a.287.287 0 0 0 .05-.17c-.045.043-.082.109-.05.17Z" fill="#2E7FC1"/><path d="M55.508 43.001a.465.465 0 0 1 .036-.277c.011-.028.05-.096.124-.1l2.115-.002c.108-.056.034-.524.026-.704-.013-.18-.031-.299.114-.436.121-.115.117-.085.503-.243l.085-1.656 1.887-.023.026-.84c.718.484 1.423.982 2.117 1.501h-1.003l.412 5.532c.033.09.127.129.135.15.055.14-.018.183-.023.292-.006.127-.018.241-.055.255l-1.206.001c-.684.024-.978.118-1.038-.085-.03.184-.3.214-.435.16-.211-.084-.346-.048-.433.19-.05-.081-.12-.15-.194-.221-.087-.084-.171-.13-.217-.104-.174.096.068.58-.358.55a.528.528 0 0 1-.146-.142c-.038-.074-.083-.05-.156-.113-.08-.068-.075-.18-.14-.223-.175-.116-.106-.117-.122-.196-.02-.098-.119-.222-.168-.222-.258-.004-.276-.213-.444-.294a.615.615 0 0 0-.271-.065c-.177-.006-.238.167-.644.137-.086-.007-.074-.064-.147-.043-.07.026-.154.253-.182.313 0-.394.26-.716.297-1.103.022-.233-.01-.43-.039-.658-.01-.082-.008-.172-.06-.242-.046-.061-.125-.104-.134-.187.061.019.128-.026.12-.093a.129.129 0 0 0-.087.082c.015-.08.079-.135.114-.204.022-.045-.01-.117.016-.147.118-.136-.063-.377-.108-.512a.326.326 0 0 0-.038.104c-.12-.091-.092-.28-.213-.372-.02.08-.049.159-.066.24Zm16.387 24.956c-.008-.266.064-.534.034-.801-.005-.042-.036-.081-.019-.124.025-.06.091-.095.118-.158.021-.05.024-.105.03-.158.007-.048.07-.107.055-.148-.034-.087.085-.32.103-.418.028-.14-.002-.29.076-.413.052-.082.019-.252.079-.305.062-.054.161-.171.2-.244.058-.108.022-.278.197-.294.122-.011.133-.105.194-.211.144-.252.184-.641.118-.92a.959.959 0 0 0-.154-.329c-.075-.113-.078-.2-.12-.32-.018-.053-.066-.094-.073-.152-.01-.07.001-.136-.03-.202-.047-.099-.139-.226 0-.297a.133.133 0 0 0-.06.115.626.626 0 0 1 .107-.156c.036-.036.094-.034.1-.09a.683.683 0 0 0-.084-.414c-.08-.145-.122-.298-.184-.451-.027-.068-.025-.144-.045-.214-.029-.104-.125-.174-.179-.265-.043-.074-.196-.332-.063-.373.061-.02.125-.02.188-.028.087-.011.13-.09.227-.1.447-.042.899.009 1.348-.001.17-.004.345-.018.516-.012.16.006.126.115.2.218.03.043.002.172.017.23.025.102.075.196.114.294.03.076-.017.142.047.21.069.073.086.126.127.214.026.055.143.31.22.29.047-.013.283.005.283.004-.012-.03.254-.107.302-.096.137.03.262.046.424.046-.02-.095.037-.189.005-.283.08.017.088-.06.078-.119-.014-.081.049-.182.02-.253.141 0 .282.003.422.002.042 0 .018-.05.052-.061.049-.017.105 0 .155 0-.031.156-.117.245.082.245.174 0 .35-.01.523-.005.144.003.118.147.084.244-.018.055-.043.11-.048.168-.008.093.072.186.089.278.034.193-.037.407-.053.601-.015.203.056.282.173.434.082.107.123.385.098.516-.009.046-.052.075-.068.119-.03.082.052.16.026.245.071.001.134-.1.191-.13.05-.027.199.013.254.028.097.027.211-.082.315-.078.099.004.21.065.251-.066.046.067.052.28.038.355-.02.104-.017.209-.043.312-.031.125.048.238.016.36-.033.123-.121.223-.016.338-.216.091-.517.048-.747.046-.115 0-.25-.028-.364-.013-.1.014-.05.388-.055.508-.012.319.005.544-.007.788-.012.243 0 .49-.006.734-.007.25.166.316.31.493.153.19.307.38.514.515-.338.065-.679.123-1.012.21-.133.034-.185 0-.31-.014-.057-.006-.105.02-.156.038-.083.027-.163-.013-.242-.035-.283-.078-.587-.046-.875-.091-.123-.02-.186-.127-.245-.223-.052-.085-.22-.05-.308-.046-.706.033-1.431.002-2.138.002-.146 0-.162-.009-.287-.108-.127-.099-.227-.222-.397-.146-.125.055-.255.207-.398.138-.176-.084-.201.003-.334.027Zm.169-8.034c.098-.077.209-.274.337-.3.058-.011.053-.104.116-.104.071 0 .117.114.164.153-.115.079-.219.149-.318.248-.049.048-.035.048-.013.104.032.079.014.172.007.254-.01.11-.218.2-.219.055 0-.08.042-.098.017-.187-.017-.065-.116-.174-.036-.234l-.055.01Zm12.944-10.399c.065-.083.141.1.139.192.046-.05.192-.243.17-.323a.425.425 0 0 1-.013-.218c.035-.128 0-.308.118-.382.11-.069.159-.315.227-.424.07-.11.16-.032.27-.047.071-.01.04-.25.04-.301.004-.143.108-.253.132-.39.029-.167.047-.358.027-.526-.015-.133-.074-.32-.02-.45.069-.167.088-.34.158-.506a1.34 1.34 0 0 0 .076-.212c.017-.077-.041-.13-.027-.205.014-.077.056-.21.127-.252.05-.03.197-.005.216-.075.039-.134.022-.145.171-.202.082-.03.24-.107.293-.175.038-.05.125-.18.117-.246-.013-.102-.181-.07-.186-.164-.071.064-.266-.269-.373-.287-.184-.031-.24-.385-.248-.54-.012-.22-.077-.419-.048-.635a.562.562 0 0 0-.056-.287c-.052-.12.05-.18.076-.062-.007-.155-.184-.251-.227-.396-.052-.174.023-.243-.138-.355-.122-.085-.198-.241-.325-.307-.141-.075-.257-.133-.296-.301-.051.051-.187.254-.27.212-.106-.056-.142.085-.165.15-.044.125-.084.195-.22.219-.136.023-.165.055-.193.19-.062.298-.356.07-.497-.006-.122-.066-.335-.02-.469-.014-.175.008-.318.016-.49-.013.013-.047-.023-.258-.09-.126-.07.14-.197.126-.337.126H79.4c.015.436.021.876.028 1.312h-.59c.045.938.038 1.875.038 2.815-.094-.03-.154-.063-.248-.014-.077.04-.149-.005-.228.034-.183.09.012.23-.103.376-.092.117-.108.244-.241.314-.084.045-.004.252.048.3-.191.153-.31.201-.172.459.052.098-.017.141-.097.198-.086.06-.1.14-.138.232.074.2.213.01.338.082.074.043-.034.113 0 .17.041.072.006.25-.017.33.02-.01.093-.102.113-.11.06.095-.048.204 0 .3s.172.108.214.178c.062.102-.066.194-.02.294.046.103.127.18.206.26.142.14.22.242.22.444l-.046.226.452-.186.434-.744.43-.058.255.523.137.078.254-.078.47-.02.156.117.313.039.138-.233h.215l.039-.213.254-.136.47.33.215-.02.45-.562.235-.252-.176-.523.587-.155v.853l.47.368v.368l.347.303c.137-.201.071-.552.158-.661Z" fill="#2E7FC1"/><path d="M84.86 50.166a1.077 1.077 0 0 0-.035.421c.013.174.091.496-.174.524-.08.009-.171-.024-.257-.02-.13.005-.078.064-.097.172-.015.088-.178.165-.035.248.094.055.218-.007.314.048a.495.495 0 0 1 .214.242.64.64 0 0 0 .201.249c.08.06.11.142.195.193.098.059.072.2.118.29.055.106.062.23.118.338.021.04.049.1.09.124.05.028.028.09.07.13.065-.082.119-.063.194-.055.087.01.061.074.084.132.025.066-.021.147-.021.214 0 .084.049.131.097.193-.27 0-.605-.048-.868.014-.166.038-.308.305-.417.434-.02.024-.098.135-.139.124-.056-.014-.13.012-.18-.02-.047-.03-.066-.053-.125-.042-.093.018-.482.072-.445.221-.102-.037-.117-.073-.174-.152-.042-.059-.13.015-.173.035-.076.034-.122-.054-.188-.07-.108-.024-.216.118-.25.2-.012-.096-.097-.1-.174-.082.086-.186-.202-.24-.298-.345a1.885 1.885 0 0 1-.118-.145c-.041-.054-.033-.116-.09-.165-.175-.15-.161.164-.306.151-.145-.012-.17-.172-.306-.04-.094.09-.153.128-.27.054a.322.322 0 0 1-.098-.096c-.032-.063-.11-.036-.146-.124a.322.322 0 0 0-.146-.18c-.054-.032-.084-.123-.125-.172-.056-.068-.028-.155-.035-.235-.01-.121-.146-.147-.229-.207-.094-.068-.216-.088-.215-.207 0-.05-.065-.074-.09-.11-.046-.065.038-.117.013-.18-.021-.055-.11-.076-.146-.124-.048-.066-.024-.106-.104-.151-.154-.09-.304-.156-.423-.29-.043-.047.034-.102.034-.152 0-.078-.05-.092-.11-.117-.069-.028-.066-.092-.112-.138-.043-.043-.109-.053-.167-.062-.084-.014-.27-.006-.27-.131 0-.036.054-.13.027-.16-.075-.08-.31-.05-.41-.068.021-.055.058-.111.042-.173-.02.008-.042.02-.063.028-.017-.091.03-.109.077-.172l-.007-.14.422-.212.436-.752.434-.059.256.529.138.078.257-.078.472-.02.158.117.316.04.138-.235h.216l.04-.216.256-.137.473.333.217-.02.453-.567.237-.255-.178-.528.591-.157v.862l.474.372v.371l.138.079.204.201Zm-19.58-3.002c-.08-.095.013-.269.005-.377.097.034.216.024.317.025.12.002.15-.06.221-.142.086-.099.185-.074.307-.084.155-.012.31-.026.466-.03.074 0 .146 0 .219.008.144.017.008-.044.076-.061.108-.028.25.118.296-.006.042-.108.169-.123.212-.221.043-.1.042-.208.097-.306.116-.205.09-.431.102-.665.017-.333.011-.666.01-1-.002-.207.016-.261.222-.309.183-.042.371-.052.553-.097.214-.053.355-.263.507-.411.22-.215.432-.449.676-.638.495-.386 1.045-.735 1.575-1.073.25-.16.49-.334.739-.493.233-.149.546.004.795.072.217.06.392.2.54.366.064.071.084.075.163.021.11-.076.23-.137.346-.206.055.29.1.574.123.867.009.116.077.197.137.292a.996.996 0 0 1 .09.171c.021.056-.04.102.008.157.062.072.167.133.194.23.032.118-.103.24-.114.358-.033.354-.089.706-.089 1.061 0 .154-.015.306-.02.46-.003.122.014.273-.028.39-.035.103-.137.19-.202.272-.107.135-.223.262-.33.395a2.68 2.68 0 0 0-.427.735.614.614 0 0 1-.096.179c-.02.025-.064.018-.08.049-.049.096.07.369.086.475-.053 0-.12-.013-.167.017-.05.033-.041.068-.098.093a.876.876 0 0 0-.314.208c-.148.156-.235.088-.415.015-.21-.085-.398-.096-.622-.102-.192-.005-.357.03-.502.161a.835.835 0 0 0-.124.15c-.066.095-.105.035-.2.044-.22.02-.315-.091-.5-.165-.134-.054-.288-.244-.45-.158-.062.032-.109.086-.168.121-.046.027-.12-.014-.14.031-.085.184-.233-.044-.268-.12-.082-.18-.208-.25-.39-.283-.105-.018-.183-.107-.29-.116-.094-.009-.131.089-.232.087-.18-.004-.346-.019-.478.132-.044.049-.09.073-.095.14-.01.113-.014.208-.081.302-.09.128-.201.213-.195.383.001.035-.019.398-.04.386-.108-.061-.34-.47-.453-.457-.036.004-.05.047-.082.06-.042.015-.135.004-.163.046-.014.022.049.204.006.203-.039-.002-.127-.163-.145-.193-.059-.097-.013-.117.068-.15-.026-.053-.031-.128-.082-.167-.092-.07-.149.076-.244.059-.177-.031-.467-.312-.384-.498.05.037.098.038.152.011-.026-.022-.37-.264-.382-.24.025-.051-.102-.148-.119-.205-.028-.099-.005-.19-.1-.26Zm12.492 20.084c0-.62.002-1.243.01-1.864 0-.067-.023-.204.07-.224.08-.018.18.005.263.008.276.007.569.054.837-.034-.087-.096-.043-.182-.002-.285.05-.126-.017-.225-.01-.35.012-.233.111-.5.017-.73.087 0 .078.096.169.114.1.021.055.17.017.23.12.026.11.023.226-.028a1.1 1.1 0 0 1 .37-.087c-.046.087-.024.247.046.317.055.054.144.02.212.052.098.045.17.088.281.09.181.002.349.121.413-.109.07-.25.143.03.23.106.06.052.052.135.095.198.069.101.145.006.205.045.09.06.126.114.224.113.116-.002.089.187.166.259.114.105.135.193.2.327.08.17.318-.159.407-.049-.039.031-.04.083.01.103.087.035.057-.142.058-.18.006-.22.013-.44.013-.66-.04.015-.083.019-.123.031-.07.022-.05.082-.08.129-.051.082-.281-.106-.334-.161-.16-.166-.342-.303-.248-.579.05-.15.094-.273.135-.4.03-.088-.03-.234-.021-.332.013-.161.093-.501-.123-.567.07-.184.457-.285.309-.53.319-.068.603-.088.966-.169 0 .062-.076.14-.073.155.005.033.108-.013.056.073.01.02.05-.09.185.045.14.14.192.047.177-.022.156.002.195.057.26.17.028.05.06.03.102.015.056-.02.075.072.12.091.092.039.261.026.291.134.01.033.07.02.108.032.063.02.118.04.142.067.023.027.022.06.01.095-.03.092.18.057.218.194.012.045-.024.072-.017.114.01.066.06.09.106.13.039.034.054.153.07.202.032.091-.075.178-.164.205-.096.03-.04.104-.017.178.037.115-.03.176-.034.287-.006.159-.079.5.12.56-.08.087-.33.128-.328.275.002.096.026.13.006.24-.028.156-.13.249-.167.36-.022.063.05.113.098.148.07.049.103.013.13.061-.54.252-1.118.405-1.668.63-.07.049.12.3.084.425-.052.006-.198.028-.25.008-.1-.04-.218.021-.312.053-.135.045-.308.125-.337.281-.012.066.005.139-.026.202-.043.09-.161.1-.243.132-.142.056-.334.172-.413.307-.08.136-.393.731-.628.59a.79.79 0 0 0-.163-.077c-.084-.027-.167.084-.233.047-.051-.029-.072-.125-.137-.11-.015.004-.182.046-.265-.032-.095-.09-.137-.15-.212-.17-.08-.017-.133.066-.279-.02-.115-.018-.195.043-.308.052-.059.005-.17.05-.208.035-.197-.075-.329-.301-.468-.456-.076-.085-.135-.154-.217-.232-.077-.074-.099-.148-.124-.258Z" fill="#2E7FC1"/><path d="M84.184 51.457c.01-.089.095-.135.095-.225 0-.154.11-.169.239-.147.115.02.214.056.3-.07.059-.089.02-.241.008-.337-.019-.161-.043-.335.018-.49.023-.06.055-.118.077-.18.032-.09-.004-.15-.005-.24a.388.388 0 0 1 .104-.245c.067-.077.166.015.164.098.038-.042.19-.276.115-.35-.043-.04.026-.14.04-.182.024-.082-.031-.187.042-.254.118-.108.165-.25.238-.397.031-.061.05-.125.125-.129.032-.001.18.015.193-.023.041-.113.031-.254.05-.373.01-.067.037-.12.065-.182.05-.112.038-.216.06-.333.043-.219.135-.139.302-.14.064-.001.077-.132.167-.08.07.041.11.135.154.199a4.12 4.12 0 0 0 .18-.514c.026.04.055.091.099.115.047.026.1.005.129.062.056.113.125.126.243.105a.253.253 0 0 0 .123-.05c.02-.017.038-.085.06-.09.04-.012.104.124.111.153.112-.14.301.023.416-.008.158-.042.32.126.454.183.18.077.232.31.379.426.088.07.204.127.258.23.05.096.074.175.162.243.15.114.214.202.115.375-.116.205-.275.321-.239.571.019.124-.03.275.148.263.104-.007.207-.057.307-.082.082-.021.113.05.19.026-.009.13-.158.239-.086.39.086.18.165.227.278.388.037.054.104.233.146.282.043.05.08.034.129.074.076.062.193.194.29.229.387.14.735.285 1.121.427.183.068.331.148.521.193.176.041.4.012.578.012l-1.622 1.926c-.099.116-.177.127-.318.108-.231-.031-.555-.044-.856.233-.08.073-.107.164-.224.187-.106.021-.22.018-.319.072-.107.059-.1.159-.24.127-.118-.027-.284.07-.388-.045-.044-.05-.08-.125-.153-.134-.071-.008-.166.043-.228.072-.097.044-.258.13-.32.22a5.829 5.829 0 0 0-.16.25c-.073-.071-.239-.082-.334-.073-.074.007-.126-.052-.192-.066-.068-.015-.145.017-.213.01-.28-.025-.044-.061-.78-.504-.125-.075-.307.01-.461-.044-.071-.025-.18-.165-.211-.23-.045-.09.031-.208.002-.307-.026-.089-.208-.143-.27-.065-.036-.036-.088-.142-.119-.19-.07-.11-.096-.257-.143-.378-.036-.091-.054-.194-.103-.28-.023-.04-.05-.053-.088-.072-.043-.022-.044-.064-.075-.092-.02-.012-.028-.023-.05-.026-.06-.017-.067-.082-.099-.125-.071-.097-.12-.215-.215-.293a.476.476 0 0 0-.242-.107c-.083-.01-.198-.01-.242-.097Zm-28.676-8.456c-.09-.158.044-.426.071-.59a.855.855 0 0 1 .108-.316c.073-.118.206-.118.25-.267.023-.076.022-.193.098-.238.042-.026.017-.112.05-.161.054-.079.27-.347.21-.449a.3.3 0 0 0-.099.104c.095-.207.333-.36.49-.52.208-.212.168-.432.27-.693.082-.214.147-.45.354-.568.23-.13.354-.237.448-.489.06-.16.175-.387.135-.34l2.541-.021-.036 1.107-1.885.022-.087 1.656c-.112.081-.272.09-.39.163-.175.11-.247.227-.233.435.008.121.101.752-.027.788h-2.098c-.16 0-.186.264-.17.377Zm17.375 4.168c.02-.051.071-.04.097-.081.024-.037.03-.088.067-.116.047-.034.055-.165.074-.217.107-.28.347-.536.538-.762.175-.207.374-.382.387-.661.017-.35.024-.702.048-1.051.02-.27.006-.626.14-.866.077-.138.026-.202-.067-.31-.027-.03-.06-.054-.087-.085-.047-.052.014-.099-.007-.153-.048-.125-.15-.221-.207-.34-.05-.1-.018-.222-.029-.33-.018-.178-.071-.35-.099-.526-.003-.02-.037-.093-.009-.107l.624-.297 4.52 2.559.046 2.502c-.15-.046-.163-.028-.32-.003-.103.016-.237 0-.27.097-.024.07.044.205-.008.273-.048.065-.122.285-.225.32-.116.041-.069.244.014.324-.189.151-.312.246-.165.457.1.143-.132.203-.196.323-.043.083-.06.111.006.178.056.056.153-.004.214-.004.077 0 .14.036.091.096-.071.087.074.19.018.342l.06-.027c.044.07-.006.15-.006.224.001.084.011.086.064.144.049.053.165.024.173.168.003.064-.059.181-.04.254-.033-.055-.19-.109-.26-.073-.041.022-.098.04-.125.08-.034.05-.04.018-.078.06-.06.066-.204.05-.225.154-.008.043.025.079.012.123-.046.148-.18.21-.288.307-.085.078-.129.188-.206.273-.136.152-.23.186-.423.257a1.61 1.61 0 0 1-.498.048c-.04-.004-.28.053-.195.118.038.028.138.047.115.114a.745.745 0 0 1-.175.241c-.047.044-.088.152-.148.167-.112.027-.248.006-.364.016a.839.839 0 0 0-.397.133c-.072.044-.207.083-.24.169-.053-.074-.124-.127-.148-.218-.048.017-.07.08-.093.12-.017.028-.11.036-.142.05-.156.069-.21.056-.377.059.088-.11-.01-.151-.042-.255-.043-.14-.08-.298-.173-.416-.08-.1-.189-.17-.287-.25-.098-.08-.152-.176-.23-.27-.054-.064-.19-.185-.126-.278.066-.094.097-.161.22-.155.136.006.27.061.406.015.06-.02.112.01.166.031.05.02.118-.025.164-.039-.27-.15-.398-.514-.383-.811.003-.068.037-.122.044-.187.007-.066-.01-.134-.012-.2 0-.051.01-.134-.02-.178-.023-.035-.088-.01-.084-.069.006-.078-.026-.183-.042-.26-.011-.054-.09-.063-.13-.087-.125-.078.035-.196-.214-.234-.06-.008-.042.038-.106-.011a2.808 2.808 0 0 1-.238-.366c-.083-.152-.07-.339-.104-.503Zm-16.419 2.272c-.032.042-.03.11.033.12a.098.098 0 0 1 .027-.114l-.06-.006Z" fill="#2E7FC1"/><path d="M56.475 49.43c.075-.094.068-.248.164-.329.065-.054.19-.065.268-.106.078-.04.158.009.237-.033.052-.028.096-.078.089-.14-.011-.092-.175-.129-.148-.2.024-.065.154-.045.172-.11.02-.073-.036-.178-.016-.2h.275c.04.01.084.04.112.042.022.006-.027.13.057.08.058-.036.177.045.208.07.005.003.127.04.124.041.08-.008.137-.069.223-.059.127.014.252-.04.343 0-.044.088-.11.153.01.253.067.056.167-.16.246-.13.19.072.067.299.233.11.213-.243.343.035.424.015.048-.013.08-.058.123-.095.036-.03.124-.038.14-.067.033-.055-.1-.185.085-.137.04.01.136.055.128.13a.48.48 0 0 0 .049.169c.088.083-.017.302.092.243.014.11.216.114.195.244-.049.002-.068 0-.099.037a.495.495 0 0 0-.086.183c.057-.009.09-.056.155-.063.105-.01.073.124.07.199 0 .055-.025.146.076.202.02.01.105.066.118.116.018.068-.047.1-.099.138-.033.025-.033.138-.033.19.001.095.034.308.167.223-.03.15-.014.129.071.23-.102.015-.103.1-.13.18.154.026.14.16.179.279-.08-.028-.315-.12-.344-.042-.038.102.116.204.164.276-.058-.03-.099.082-.098.086.013.06.033.04.022.078-.012.038-.079.134-.078.142-.016-.014-.099-.054-.144-.014-.025.022.006-.043-.068-.08-.07-.024-.094.128-.111.163-.051.1-.088.121-.2.166-.007-.127-.11-.147-.213-.109a.89.89 0 0 0 .049-.258c.001-.033-.01-.218-.02-.2-.008.012-.021.046-.023-.065 0-.016-.04-.077-.003-.125-.175-.201-.188-.093-.216-.107-.059.047-.078.017-.159.008a.273.273 0 0 0-.163.037c-.03.017-.152.082-.164.11-.012-.111.139-.253.114-.287-.096-.13.051-.17-.099-.265-.045-.03.016-.078-.006-.12-.16-.293-.22-.52-.58-.466-.096.014-.12.045-.205.064-.15.034-.197-.043-.261.104-.052.118-.094.254-.168.287-.066.03-.071.054-.102.12-.037.08-.13.016-.185.065-.006-.05.027-.088.077-.093a.18.18 0 0 0-.044-.054.665.665 0 0 0-.038.054.677.677 0 0 1-.005-.109l-.06.006c.017-.068-.082-.08-.039-.148-.1.101-.051-.16-.087-.186.005.044-.02.06-.06.05a.528.528 0 0 0 .038-.12c-.024.08-.077.052-.126.016-.07-.051-.034-.088-.06-.159a.12.12 0 0 0-.076.077c-.008-.138-.3-.126-.218-.3a.292.292 0 0 1-.077.016 1.3 1.3 0 0 0 .098-.257.34.34 0 0 0-.076.115c-.009-.09-.044-.043-.071 0-.013-.06-.022-.187.054-.213-.06.033-.124.032-.191.032Zm12.781 4.326c.07-.004.094-.047.038-.093a.145.145 0 0 0-.038.093Zm.147-.032.055-.033a.244.244 0 0 0-.11.027l.055.006Z" fill="#2E7FC1"/><path d="M66.662 51.451c.068-.236-.03-.518.074-.742.025-.054.121-.006.167-.059.078-.09.007-.199.087-.289.053-.059.05-.152.114-.19.067-.039.167-.122.134-.217-.025-.074-.06-.136.04-.156.138-.028.026-.226.012-.286-.015-.06.006-.114-.025-.172-.028-.05-.07-.09-.096-.141-.054-.105.024-.193.055-.29.037-.117.011-.242.02-.364.01-.147.05-.177.152-.278a.463.463 0 0 0 .123-.339c-.002-.102.068-.163.141-.223a.482.482 0 0 1 .302-.096c.142-.006.219-.057.35-.09.076-.02.176.068.24.1.108.054.222.023.316.114.084.081.123.178.18.275.021.037.05.077.093.09.09.03.103-.071.175-.079.24-.026.318-.241.569-.063a.338.338 0 0 1 .095.09c.011.018.077.009.096.019.104.056.146.134.28.139.08.003.244.046.313.016.097-.044.13-.17.213-.232.2-.151.503-.164.742-.141a.914.914 0 0 1 .349.104c.093.05.21.121.32.081.105-.038.16-.159.246-.224.047-.035.094-.069.155-.072.093-.005.029-.024.08-.059.2-.133.263.056.335.19.062.115.186.125.156.442a.446.446 0 0 0 .082.2c.039.032.068.003.115.02.246.09.022.332.097.447.095.148-.21.261-.32.25-.167-.018-.227.345-.27.477-.025.074-.039.153-.061.228-.026.083-.119.07-.121.164-.002.084.018.191-.046.266-.055.063-.134.091-.207.129.082.016 0 .226-.006.273-.017.136-.104.214-.24.219.013.07-.042.086-.08.132-.047.056-.009.14-.022.206-.03.156-.108.32-.206.448-.084.11.072.178-.122.304-.082.053-.033.111-.062.188-.019.05-.085.098-.11.146-.026.046-.108.018-.143.004-.043-.017-.033-.143-.036-.18-.003-.045-.153-.084-.174-.135-.033-.08-.073-.053-.094-.147-.017.058-.021.16-.095.175-.092.02-.131-.079-.206-.054-.134.043-.163.252-.25.31-.113.074-.475.444-.427.493.077.079-.061.281-.062.338 0 .096-.037.176-.154.362-.046-.012-.09-.078-.068-.122-.05.033-.088-.017-.11-.054.049.18.094.22-.115.25-.082.012-.353.066-.277-.103-.036.069-.037.087-.12.082-.092-.005-.076-.03-.165-.087.042.03.092.187-.007.148-.066-.027.032-.186-.085-.126.032.066.06.128.032.202-.054-.023-.117-.219-.098-.279-.062.054.041.212.01.286-.046.103-.046-.139-.043-.16-.01.03-.027.195-.033.049-.001.043-.007.092-.038.125a.227.227 0 0 0-.032-.109c.023.047.021.123-.05.116-.13-.011-.095.019-.13-.105 0 .117-.09.218-.11.05.001.109-.027.037-.107-.002a.421.421 0 0 1-.171-.19c-.038-.07-.085-.146-.065-.228.013-.055.02-.105-.056-.083-.014-.06-.008-.093.053-.105.117-.024.007-.066.095-.12-.063.006-.118.09-.179.077-.195-.045.072-.113.119-.12-.032-.038-.068-.044-.11-.016l.006-.071c-.012.068-.098.117-.131.032-.03-.076.062-.11.104-.152a.395.395 0 0 0-.132.093c-.075-.171-.24-.36-.426-.407a1.003 1.003 0 0 0-.293-.03c-.073.005-.179.037-.242-.017.08.016.196-.037.24-.104-.08-.003-.138.092-.218.028a.114.114 0 0 0-.022.114c-.13.018-.264-.008-.393.022-.005-.082.041-.154.044-.235.002-.083-.036-.145-.015-.231.034-.14.037-.411-.045-.539Zm2.868-17.173c.013-.064.073-.088.12-.124.072-.055.078-.105.159-.166a.457.457 0 0 0 .137-.221c.05-.162.036-.289.044-.445.005-.098-.056-.183-.043-.281.014-.112.139-.324-.04-.363.064-.074.169-.112.218-.2.019-.033.007-.089.052-.102.049-.014.08 0 .118-.041a.583.583 0 0 1 .293-.164c.055-.015.131-.057.19-.034.07.028 0 .062.008.115.058 0 .072-.03.038-.077.106.024.137.007.18.104.02.043-.04.047.017.087.044.031.052.085.01.12.004-.003.05.051.096.032.064-.026.117-.078.169-.122.02-.017.09-.092.123-.077.078.036.068.113.032.177-.068.123-.3.241-.308.381a.322.322 0 0 0 .151.283c.144.078.14.081.174.246.043.208-.103.424-.262.55-.159.125-.401.196-.244.439.034.053.08.104.14.13.065.03.092-.01.152-.002.02.003.033.1.045.12.03.05.113-.097.158-.08.062.022.02.072.039.114.026.058.115.11.022.12.049.052.155-.005.201.055.038.05-.025.246-.011.32.02.11.1.156-.02.228-.12.072-.363.151-.434.25-.04.032-.027.125-.083.148-.12.049-.236.088-.188.272.038.147.095.263.01.407a.656.656 0 0 1-.36.308c-.042-.274-.12-.538-.175-.81-.055-.28-.084-.442-.32-.574a.35.35 0 0 1-.189-.258.346.346 0 0 0-.171-.243c-.05-.029-.097-.052-.13-.104-.033-.053-.022-.124-.055-.178-.07-.11-.108-.229-.064-.34Z" fill="#2E7FC1"/><path d="M71.37 34.551c-.01-.072-.06-.013-.076-.049-.04-.087 0-.114.073-.113.16.002.06.098.003.162Zm.525 33.406c.08-.012.144-.083.23-.067.072.013.138.068.216.053.161-.03.272-.219.455-.168.146.04.224.204.37.252.084.028.34.017.477.019.623.005 1.247.017 1.87-.008.164-.006.22-.018.298.127.099.185.247.144.425.164.233.025.48.015.7.091.083.03.159.04.233-.005.066-.04.128-.025.223-.002.096.023.152.008.216-.007.389-.09.829-.182 1.24-.26.08-.015.162-.052.245-.039.049.008.123.055.171.03.156-.077.227.087.33.157-.075-.02-.162.024-.233.052-.088.034-.114.165-.198.088-.136-.125-.401.284-.501.332-.049-.094-.101-.302-.24-.316-.179-.016-.402.074-.576.11-.205.044-.447.053-.652.09l-.075 2.42-.516-.007-.112 4.126c.013.188-.148.109-.238.194-.044.043-.041.084-.13.114-.06.021-.088.046-.039.102-.136.04-.13-.01-.256-.03-.133-.019-.247.053-.404.02-.25-.055-.397-.146-.409-.193-.031-.127-.002-.074.003-.175-.005-.04-.048-.03-.079-.061-.043-.045-.08-.141-.126-.112-.145.091-.105.227-.155.267-.072.056-.161.129-.236.035-.099-.124-.23-.224-.319-.356-.078-.118-.14-.245-.204-.372-.033-.067-.036-.14-.048-.212-.012-.074-.063-.113-.078-.182-.027-.124.03-.17-.063-.286-.037-.045-.025-.075-.024-.134.003-.095-.03-.177-.04-.27-.008-.066-.002-.132-.021-.197-.027-.09.019-.18.001-.27-.03-.157-.105-.3-.162-.45-.065-.167-.016-.308-.033-.477-.012-.116-.028-.26-.018-.319.005-.028.075-.307.044-.3a.828.828 0 0 0-.168-.419c-.049-.068-.103-.13-.144-.204-.037-.067-.044-.15-.093-.21-.223-.283-.271-.625-.436-.931-.152-.28-.202-.665-.448-.886-.265-.237-.296-.583-.273-.918Z" fill="#2E7FC1"/><path d="M74.522 75.392c.057-.053.143-.043.154-.127.01-.072.06-.196.135-.22.1-.032.088.108.156.127.118.034-.002.152.055.223.1.126.255.138.403.185.134.042.242-.018.374-.015.118.003.163.07.285.034-.073-.083.017-.096.066-.115.068-.026.073-.114.158-.138.055-.017.17-.024.176-.1l.053-2.361c.064.09.176.134.236.229.068.108.11.252.155.372.045.121.085.253.027.377-.076.16-.13.247-.057.425.13-.15.452.078.594-.059.023-.023.005-.081.04-.09.038-.012.072-.004.11-.026.097-.056.118-.184.22-.245.112-.066.184-.14.21-.273.022-.117.018-.213.114-.3a.262.262 0 0 1 .293-.045c.084.038.205.216.285.214.18-.005.39.212.56.077.077-.06.19.023.286-.047.101-.076.138-.202.181-.316a.924.924 0 0 0 .054-.186c.017-.104-.034-.097.072-.126.061-.018.24-.048.274-.106.06-.103.18-.149.23-.257.054-.119.031-.241.112-.353.07-.095.147-.104.237-.166.092-.064.209-.163.279-.251.06-.076.1-.191.19-.237.09-.046.195-.05.29-.084.09-.033.087-.073.131-.143.037-.059.14-.078.201-.09.254-.054.408.113.655.114.22.002.419-.083.491.187.04.15.075.303.079.46.004.142.09.264.142.392.11.273.083.533.069.821-.006.111 0 .247-.04.364-.019.058-.028.054-.007.219a.347.347 0 0 0-.142-.108c-.072-.024-.136-.015-.195-.014-.048.094-.121.075-.176.194-.067.144-.126.365-.147.35.107.096.143.173.21.249.107.124.263.19.38.072.033-.032-.015-.049.102-.213l.098.003.344.012c-.065.287-.148.541-.224.826-.04.147-.118.447-.32.432.031.073-.063.07-.107.079-.054.01-.1.079-.135.117-.122.136-.246.298-.303.471-.031.097-.117.159-.166.246a4.666 4.666 0 0 1-.242.393 2.69 2.69 0 0 1-.54.554c-.177.146-.28.357-.457.502-.224.184-.444.374-.675.55-.182.138-.39.303-.624.335-.112.015-.224-.047-.335-.013-.08.025-.192.122-.082.192-.131.058-.277-.11-.4-.025-.145.099-.175.157-.373.082-.148-.057-.338-.117-.494-.058-.07.027-.035.072-.141.034-.063-.022-.172.017-.204-.056a.06.06 0 0 0 0 .028c-.16-.026-.417.048-.5.197-.07.13-.43-.004-.543.045-.069.03-.141.01-.205.04-.078.037-.164.111-.233.165-.086.067-.052.053-.151.028-.044-.011-.093.013-.131-.018-.044-.037-.086-.08-.142-.097.099-.136-.206-.141-.274-.153.042-.106-.001-.201-.128-.178-.085.016-.054.118-.052.178-.156-.06-.033-.246-.018-.34.013-.083-.031-.168-.073-.235-.023-.039-.218-.308-.089-.184-.055-.055-.031-.116-.113-.115-.07 0 .007-.172.014-.196.177.103.223-.1.226-.236a1.119 1.119 0 0 0-.18-.629 4.148 4.148 0 0 1-.44-.924c-.048-.156-.08-.317-.137-.47-.058-.153-.197-.29-.211-.456Zm4.598-38.454c-.107-.173.115-.354.088-.531-.03-.19-.203-.324.071-.55.006.139.168.09.252.064.153-.045.279.005.431.02.167.017.327.054.488.097.068.019.079.093.148.114.062.02.109.012.17.005.04-.004.06.06.106.07.05.01.102.01.153.015.164.016.274.12.428.145.148.025.29-.075.398-.166.055-.047.107-.099.157-.15.044.033.076.068.131.06-.03-.017-.024-.026-.066-.023.054-.028.108-.08.121-.142.093.056.18-.044.273-.043a.539.539 0 0 0-.17.114c.017-.01.393-.123.213-.136.133-.044.22.108.348.09.06-.009.118-.069.183-.046.06.02.088.108.142.142-.054-.038-.11-.121-.18-.126.02.057-.058.164.034.186.1.023.054.048.118.109 0-.022.179-.098.05-.159.137.032.183.16.345.145.052-.004.206-.1.179.014.1-.064.212-.027.32-.059a.707.707 0 0 0 .265-.131l.461 1.217c-.116.148-.09.423-.164.598-.044.103-.042.167-.04.276 0 .093-.118.182-.089.273-.056-.052-.132-.076-.194-.12-.079-.055-.134-.135-.188-.213-.069-.099-.269-.163-.24-.312.03-.15-.115-.253-.188-.358a1.437 1.437 0 0 1-.216-.488c-.069.073-.142.234-.07.318.122.143.11.32.212.468.088.129.178.286.289.396.049.049.105.09.15.143.023.028.119.187.003.1.094.074.016.167.076.227a.77.77 0 0 1 .164.27c.02.05.055.093.084.138.022.034-.022.078-.024.112-.003.045.07.112.09.15.047.09.097.177.144.266.153.292.308.579.453.875.057.116.14.2.211.304.067.097.183.127.244.225a.34.34 0 0 1-.169-.032c-.038.158-.02.4.061.493.077.09-.1.268-.209.273-.054.003-.074-.036-.128.024-.043.048-.065.13-.085.19-.022.07-.055.133-.133.151-.063.015-.176.002-.21.074-.061.133-.024.287-.21.272-.217-.017-.328-.193-.442-.189-.377.016-.593.05-.889 0 .009-.029.043-.092.022-.122-.053-.077-.094.063-.112.088-.07.101-.425.04-.538.04l-3.041-.006-.109-4.111c-.01-.192-.006-.394-.033-.584-.022-.164-.065-.406-.138-.553Zm8.67 23.646c.021.137.04.186.148.28.075.064.097-.265-.023-.165a.48.48 0 0 0-.05-.295c-.017.059-.093.113-.075.18Zm.245 1.295c.059-.053.157-.088.12-.186-.033.079-.133.083-.12.186Zm.038-1.967c.01.07.07.128-.011.137a.73.73 0 0 1 .055.038c-.113.064-.011.162.036.058.056-.122.04-.241-.074-.287l-.006.054Z" fill="#2E7FC1"/><path d="M82.328 60.176c.043-.322.056-.098-.08-.386-.026-.055.034-.154.005-.245.133-.014.154-.026.24-.124.07-.079.181-.187.251-.272.05-.062-.056-.122-.035-.167.026-.055.135-.01.116-.075-.012-.043.096-.105.118-.126.066-.063-.028-.137.029-.196-.175.049-.284-.056-.186-.213-.095.01-.028-.06.006-.115.044-.07.13-.043.167-.114.069-.133-.037-.372-.097-.5-.042-.09-.188-.295-.049-.34.171-.056.552-.013.736-.008.076.287-.057.293-.047.327.035.114-.065.251-.061.28.06.08-.006.157.006.198.042.14.076.029.093.368.01-.072.062-.11.105-.032-.017-.14.002-.153.088-.141-.065-.036-.022-.116.08-.173.02.02.12.233.224.097-.014.032.063.044.076.087.026.086.025.24-.05.206l.044.057c.037-.043-.03-.059.118-.07-.089.015-.222-.485.238-.199.02-.122.331-.261.237-.271-.114-.012-.1.036-.163.028-.19-.026-.181-.063-.192-.054.045-.052.003-.052.201-.066-.017-.072-.196-.033-.153-.045.02-.017-.06-.048.158-.077.024-.003.058-.042.047-.086-.006-.027.027-.005.037-.019-.086-.09-.025-.102-.005-.113.02-.012.042.011.139.03-.02.002-.074-.082-.03-.13.027-.036 0 .038.025.005-.03-.021-.02-.072.003-.099.023-.028.055-.06.077-.088l1.733 1.086c.147.093.33.16.373.339.019.077-.042.074-.058.14-.011.048.072.103.1.143.095.14.283.232.407.344.073.067.423.292.41.389-.021.156-.078.33-.142.474-.033.073-.068.146-.092.223a.489.489 0 0 0-.022.11c-.003.053.045.1.037.146-.035.197.282.212.243.421.171-.054.149.15.084.23-.102.13-.042.284-.112.41.12-.109.112.116.084.173a.52.52 0 0 0-.06.282c.01.087.139.235.043.254.073.014.03.15.087.145.092-.01.045.093.025.138-.037.082.059.112.076.188.009.041-.023.066 0 .108.029.056.042.09-.014.137.096-.018.134.064.152.142-.008-.137.326.06.219.21-.23.178-.432.282-.644.412-.077.027-.088-.022-.165.005-.082.028-.205.126-.288.153-.082.027-.181-.133-.274-.087-.107.054-.153.217-.267.267-.19.085-.228.02-.288-.032-.118-.101-.162.085-.292.07-.15-.017-.2.003-.282-.1-.064-.081-.138-.118-.23-.032-.067.06-.296.05-.413.026-.011-.01-.017-.072-.032-.094-.041-.062-.083-.124-.118-.192-.048-.096-.015-.199-.035-.3-.026-.134-.004-.259-.037-.391a.662.662 0 0 0-.231-.351c-.107-.083-.128.078-.118.103-.109-.118-.211-.008-.313-.12-.032-.035-.153-.044-.2-.072a.683.683 0 0 0-.27-.1c-.02-.004-.035-.033-.044-.05-.038-.046-.069-.035-.117-.06-.046-.022-.106-.014-.15-.038-.042-.022-.051-.073-.09-.092-.03-.015-.066.022-.1.012-.052-.015-.06-.072-.088-.112-.056-.077-.126-.091-.202-.086-.036-.08-.224-.464-.31-.695-.08-.214-.02-.61-.32-.723-.045-.017-.008.034-.06.01-.11-.05-.22-.174-.025-.365.075-.074-.052-.214-.086-.34m-12.193-5.641c.04-.047.227-.4.062-.367-.063.013-.092.052-.113.11-.025.07-.069.078-.11.129-.049.059.131.112.161.128Zm.542 1.06a.074.074 0 0 0 .06-.011c-.12.058-.011-.118.01-.152.06-.097.012-.238.056-.355.08.157.132.119.237.14l.622-.006.004.76-.688-.016c-.044.006-.255.07-.176-.027-.07-.037-.236.04-.279-.05-.04-.082.118-.218.154-.283Zm9.695 20.498c.072.072.066.175.124.25.051.063.034.148.087.2.067.067.24.29.356.196.05-.041.094-.178.13-.237.055-.094.15-.075.242-.1.066-.02.208-.075.236-.145.036-.09.04-.14.104-.22.024-.03.1-.11.087-.154-.04-.138-.097-.147-.189-.242-.071-.075-.147-.145-.218-.22-.061-.065-.166.037-.222.061-.062.027-.091.056-.152.089-.07.039-.144.025-.2.097-.061.079-.092.175-.146.258-.062.094-.153.105-.24.168Z" fill="#2E7FC1"/><path d="M81.917 58.432c.072-.23.196.022.214.024.255.03.306-.054.327-.308.14.12.095-.054.411.056-.053.026-.189.173-.083.168-.09.233.087.242.186.213-.06.091.074.13-.054.221-.08.057-.077.025-.095.127-.004.025-.096.012-.112.045-.017.036.056.118.047.141a.382.382 0 0 1-.111.142c-.105.077-.12.167-.23.239a.29.29 0 0 1-.16.045c-.02-.066-.137-.316-.16-.398-.033-.118.013-.24-.065-.343.009-.057.037-.128-.009-.192-.04-.057-.087-.11-.106-.18Zm7.314-9.04c0-.176-.068-.351.038-.51.08-.12.154-.228.224-.354.081-.147.122-.068.239-.037.059.016.056-.077.079-.107.036-.048.098-.066.147-.095.05.111.264.319.16.449-.052.067-.216.143-.294.174-.081.032-.091.127-.183.142.06.077.24-.05.327-.017.158.061 0 .216-.041.303-.064.131-.165-.006-.264.02-.1.027-.365.159-.432.032ZM71.55 59.213a.414.414 0 0 1 .182-.257c.097-.075.132.172.26.094.018-.012-.005-.122.014-.163.043-.089-.049-.109-.101-.142-.046-.03.085-.32-.12-.264.072-.097.052-.214.022-.322.082.02.117.01.196.012.036 0 .052.054.085.046.099-.024.273.001.25-.146-.015-.102-.05-.317.144-.213.07.038.196.25.15.329.09-.052.175.06.267.037.08-.019.155-.146.175-.218.025.044.068.292.123.287.042-.004.15-.11.142-.157-.007-.048.004-.211.052-.24.065-.037.125-.158.044-.212.11-.04.056-.25.032-.328-.036-.117.086-.247.03-.351-.034-.062-.12-.08-.182-.08-.034-.026-.004-.111-.077-.118-.189-.019-.042-.118-.065-.235-.016-.08.012-.238.087-.292.078-.056.146-.028.196-.134.039-.083-.023-.145-.054-.217-.055-.13-.073-.251-.242-.224-.145.023-.275.102-.42.127.042-.108-.003-.225-.013-.334-.011-.12.065-.232.068-.293 0-.049.584.015.635.01.097-.01.132.015.225.022.078.006.09.111.195.082.206-.056.422.09.563.229.067-.095 0-.165.004-.265.003-.083.086-.133.116-.205.042-.101.093-.2.118-.308.02-.087-.012-.167.007-.25.015-.064.032-.158.095-.193.081-.044.184 0 .27-.037.094-.04.167-.105.272-.056.103.048.174.091.29.072.143-.023.33-.076.31.124-.016.172-.138.41-.22.557-.096.172-.095.286-.096.486-.001.111-.02.224-.054.33-.037.117-.065.18-.067.308 0 .082-.005.162-.01.246a1.7 1.7 0 0 1-.05.267c-.053.205.045.337-.125.524-.153.168-.314.216-.417.403-.049.09-.09.186-.129.284-.073.181-.248.209-.237.32.018.182.003.36.002.562 0 .196-.087.498-.274.531-.068.012-.139.084-.16.156-.012.038-.135.09-.171.134-.065.08-.112.172-.188.25-.096.098-.191-.02-.247.053 0-.07-.064-.197-.015-.255.039-.046.058-.087-.022-.112-.099-.031-.233.174-.318.061-.043.045-.035.1-.058.153-.029.07-.122.096-.172.148-.005-.092-.133-.104-.154-.191-.068.125-.137-.248-.254-.066-.04.063-.107.058-.157.1-.05.043-.134.142-.185.199-.12.133-.157-.115-.176-.187-.05-.187-.253-.35-.39-.478Z" fill="#2E7FC1"/><path d="M81.836 58.268c-.04-.082.168-.224.166-.334-.004-.194.084-.278.249-.374.02-.012.12-.075.145-.055.035.027.048.12.105.059.044-.05.188-.264.269-.236-.038.111.058.252.108.334.064.103.128.28.111.398-.021.15-.106.168-.232.12-.142-.053-.177.076-.299-.032-.018.134-.006.28-.169.314-.082.017-.16.028-.2-.055-.045-.091-.162-.084-.172.025a.224.224 0 0 1-.081-.164ZM55.197 46.962a.12.12 0 0 0-.088.032c-.01-.093.165-.122.219-.176.117-.117.211-.274.28-.423.033-.072.192-.755.359-.598.075.07.473 0 .537-.075.099-.115.486.014.568.112.11.132.124.185.305.204.098.01.208.202.187.297-.01.044.133.122.159.169.031.058.047.126.093.175.044.05.136.055.165.115.044.088.175.136.187.239.006.045-.07.1-.018.146.044.04.075.064.082.131.007.071.069.243.011.296-.06.014-.065.043-.016.088a.198.198 0 0 0 .058.084c.052.03.001.086.074.107.04-.155.164.114.186.157.032.063.05.11.032.185-.02.083.035.19.006.259-.094-.041-.197.022-.297.005-.104-.018-.164.043-.262.056-.1.014-.262-.165-.346-.109-.066.044-.042-.08-.056-.084-.089-.026-.059-.041-.134-.042l-.959-.001c-.126 0-.178.007-.273.082-.083.065-.196.06-.32.055-.106-.004-.181.06-.28.076-.05.008-.104-.009-.148.022-.01-.025-.062-.079-.035-.109.069-.075.108-.113.2-.055.068.044.153-.024.226-.026.054 0 .08.04.134.023.043-.013.063-.004.102.009.07.022.065-.154.143-.181-.117.008-.049.108-.12.158-.062.044-.226-.014-.246-.087-.043.183-.408.05-.328-.044-.034.05-.032.132-.103.148a.094.094 0 0 1 .038-.11c-.097.022-.043-.124-.022-.19.032-.098.143-.103.23-.104h.313c.057.032-.067-.021.035-.088.089-.058.18-.019.268-.043.097-.028.045-.166.174-.086.18.112.36.23.569.16.08-.026.168-.104.066-.159-.127-.068-.153.03-.253.025-.101-.005-.075-.156-.192-.11-.044.018-.084-.043-.098-.073-.03-.06-.124-.04-.181-.005-.08.05-.099-.028-.141.016-.031.032-.02.073-.06.095l-.569-.002c.023-.047-.022-.08-.08-.085.01-.045.04-.064.083-.044a.234.234 0 0 1 .01-.136c-.033.062-.073.109-.147.12-.02-.061.157-.217.219-.224-.067-.029-.247.133-.246.196 0-.18-.11-.504-.3-.573Zm9.843 2.359c.112.03.227.04.334.089.087.039.223.015.287-.015-.044.125-.14.34-.038.461.057.07.268.147.277.24.013.14-.018.302.053.43a.71.71 0 0 1 .115.41c-.005.296-.003.59.005.886.001.046.015.222-.067.22.028.085.012.182.053.264.034.066.083.128.09.205a1.117 1.117 0 0 0-.35.115c-.001-.056-.141-.127-.178-.16-.08-.072-.142-.122-.193-.214-.069-.126.065-.25.06-.378-.002-.086-.097-.094-.08-.177.021-.1.077-.155.064-.265-.007-.057-.018-.117 0-.175.011-.036.062-.069.05-.11-.034-.112-.147-.16-.188-.264.127-.012.043-.192.08-.274a.218.218 0 0 0 .004-.165c-.044-.087-.108.008-.171-.003.035-.048.001-.105.082-.093-.017-.09.047-.245.016-.32-.052-.13.04-.144-.093-.22-.07-.04-.167-.175-.158-.258.007-.065.068-.105.042-.176-.01-.028-.074-.03-.096-.053Zm5.254 7.773.022.043c.021-.037.016-.07-.017-.098l-.005.055Z" fill="#2E7FC1"/><path d="M70.218 57.214c-.036-.048-.063-.11-.033-.17a.169.169 0 0 0 .05.115c.011-.124.085-.021.081.05.012-.152.166-.238.183-.386.012-.102-.054-.3.036-.38.004.05.04.087.065.127.017-.082.137-.037.174.032-.01-.07.066-.095.121-.093-.138 0-.245-.029-.324-.15-.031-.05-.133-.111-.02-.134.047-.01.112.015.114.072.04-.09-.028-.211-.002-.308.015-.053.08-.048.119-.026.07.038.12-.01.198-.01l.68.012-.001-.75c.03-.175.102-.108.233-.102.111.005.247.02.364.014.112-.007.225.03.3.027.177-.01.318-.102.198.18-.075.175.047.341-.013.498.13-.022.248-.092.378-.12.242-.053.213.091.285.213.069.114.128.282-.103.335-.127.03-.134.246-.122.346.006.048-.095.18.018.185.055.003.11.046.104.086-.01.057.122.047.17.095.106.106-.023.24-.004.355.012.073.098.29-.032.357.082.055.025.198-.051.229-.022.009-.052.19-.046.198.047.056-.082.191-.145.185-.066-.007-.089-.236-.118-.29-.02.07-.104.216-.185.225-.082.01-.177-.09-.258-.044.055-.215-.355-.554-.297-.196.034.209-.048.212-.243.23-.063.006-.045-.046-.107-.042-.08.006-.098-.001-.178-.02.03.108.05.225-.021.322.079-.028.132.017.129.096-.004.068-.017.125-.008.16.034.033.075.033.096.065.047.072-.008.082-.002.143.005.05.037.12-.052.124-.094.005-.097-.075-.165-.117-.068-.041-.217.213-.234.26-.126-.098-.235-.303-.322-.436-.128-.195-.32-.352-.486-.513.092-.057.122.154.207.049-.061.005-.149-.07-.216-.087-.107-.027-.185-.274-.253-.361.069.006.094.082.158.099-.058-.095-.07-.073-.153-.122-.038-.022-.027-.09-.036-.123-.023-.082-.082-.147-.122-.22.052.044.158.14.141.219a.436.436 0 0 1 .17-.027.287.287 0 0 1-.076-.088c-.013.043-.045.065-.088.044.007-.058.052-.11.028-.17-.086.25-.243-.232-.284-.262Zm13.724 8.413c.019-.037.121-.202.157-.31.037-.11.03-.14.007-.282-.02-.13.275-.213.335-.278-.214-.065-.124-.416-.125-.571 0-.13.083-.184.013-.314-.082-.152.04-.118.121-.178.096-.071.12-.219-.04-.404-.13-.15.032-.194-.09-.275-.1-.067-.14-.064-.163-.089-.013-.014.024-.096-.012-.139a.795.795 0 0 0 .204.07c.075.01.055.066.118.075.062.009.198-.002.237.072a.508.508 0 0 0 .127.362c.11.132.005.159.022.264.013.09.047.51.048.56.006.193-.245.386-.178.5.256.445.174.438.16.527-.06.371.192.287.154.455-.094.414.155.347.144.15l.206.265c.048.025.02-.34-.118-.449-.126.02-.072-.098-.088-.132.1.048.11.055.227.231.077.117.145.24.25.36.115.135.118.264.074.435-.038.15.018.297-.006.452-.01.067-.03.147-.088.19-.065.048-.156.033-.217.085-.06.051-.04.162-.129.233.02.024.085.154.09.225.002.03 0 .121-.027.152-.028.03-.136.023-.12-.033.033-.119.088-.086-.037-.206-.085-.081-.317-.31-.329-.401-.02-.16-.063-.123-.03-.247a.813.813 0 0 1 .09-.232c.064-.086.053-.11.063-.217.012-.127.013-.295-.074-.42-.034-.05-.136.018-.228.029-.075.009-.186-.013-.19.057-.043-.047-.33-.384-.348-.377-.075.03-.23-.135-.21-.195ZM57.906 38.473c.026-.029.111-.164.141-.175.107-.039.225-.044.336-.068.206-.045.415-.11.57-.26.152-.146.311-.26.47-.396.154-.13.27-.303.393-.46.083-.107.273-.414.112-.53-.062-.046-.106-.047-.066-.131.04-.083.036-.166.04-.256.012-.252.103-.364.258-.552.088-.107.063-.216.1-.34.027-.09.1-.158.167-.219.143-.13.256-.29.435-.37.195-.089.402-.158.588-.264.368-.21.546-.72.685-1.096.014-.037.063-.222.119-.217a.355.355 0 0 0 .197-.052c.074-.04.088.059.11.112a.501.501 0 0 0 .187.236c.188.133.344.096.56.07.178-.021.405.087.514-.122-.002.068.017.085.026.137.01.055.111.083.023-.006.047.066.133.1.21.061.078-.039.124.042.172.086.052.048.144.075.175.142.035.077-.041.148.066.191-.058.046-.04.13-.028.19.017.097-.015.182-.004.276.009.075.057.123.038.203-.028.121-.014.164.044.27.03.055.003.103.032.153.044.074.112.103.177.154.118.094-.237.25-.047.322-.196.05-.884-.185-.985.08-.052.14-.19.193-.338.18-.112-.01-.25.151-.097.193-.13.119.108.207.051.263-.065.064-.178.04-.248.092-.073.053-.154.134-.24.164-.066.022-.14.02-.202.055-.12.066-.167.206-.255.304-.1.112-.286.156-.431.162-.11.004-.228-.042-.272.089-.047.14-.184.035-.294.043-.077.006-.122.044-.172.098-.05.055-.11.043-.173.068-.073.03-.117.101-.176.15-.061.051-.138.083-.2.134-.124.1-.231.114-.22.287.013.171-.005.361-.024.532-.008.072-2.291.017-2.524.017Zm.557 13.612c.08-.03.082-.154.138-.211.103-.105.227-.194.325-.304.064-.072.02-.168.07-.232.074-.094.12-.04.17-.18.02-.056 0-.065.014-.077-.104-.034.104-.032.156-.014.051.017.08-.042.13-.039.067.004.118.084.166.123-.032.04-.016.08.001.122.012.031-.008.103.027.07a.805.805 0 0 1-.034.458c.103-.038.207-.018.213.11.124-.05.176-.087.216-.215.011-.038.022-.112.072-.12.056-.008.106.112.126.155.07.155.07.239.045.405-.011.074-.058.137-.091.147-.044.015-.07.062-.077.068.005.018.036.049.124.05-.043.16.278.03.31.15.012.042-.01.1.078.159.07.045.139.104.164.176.06.17.002.265-.023.352-.053.196-.125.331-.037.516-.09.017-.16-.02-.234-.062-.096-.054-.213-.062-.3-.134-.16-.13-.367-.19-.514-.337-.165-.164-.296-.359-.464-.52-.053-.05-.442-.184-.35-.272-.071.007-.158-.102-.219-.131-.12-.058-.11-.126-.202-.213Zm14.982.579c.038-.06.094-.1.147-.145.083-.068.091-.147.145-.233.091-.147.154-.366.257-.506.127-.173.147-.055.31-.102.086-.025.153-.043.236-.07.081-.025.06-.115.146-.146.023.092.095.144.147.219.046-.091.186-.135.229-.168.135-.103.348-.144.51-.145.141 0 .28.04.35-.09.048-.093.247-.257.237-.345-.007-.055-.128-.04-.134-.111-.008-.108.322-.11.409-.11.27.005.566-.1.743-.32.092-.114.15-.238.27-.327.06-.045.23-.198.196-.269-.043-.088.027-.177.134-.203.12-.029.214-.18.355-.184.17-.004.21.107.285.198.118.143.246.25.316.403a.867.867 0 0 1 .064.44c-.009.156-.144.177-.124.291l.06-.021c.016.06-.017.115-.038.169.122.022.264-.01.377.052.121.067-.077.24.15.279.077.013.181.005.246.054.076.057.115.12.197.181.128.096.03.17.028.217-.003.08.111.138.173.175.067.04.14.083.21.119.134.069.093.106.143.184.035.056.184.084.143.167-.054.11-.01.128.058.191.062.058-.008.106.098.176.067.044.135.066.209.104.12.061.164.134.158.263-.005.121.078.188.115.29-.095-.104-.223-.146-.308-.058-.036.038-.11.029-.154.024a.078.078 0 0 0-.062.004c-.05.025-.067-.021-.105-.036-.076-.03-.138-.09-.219-.068-.16.046-.166-.061-.269-.077-.065-.01-.111.032-.099.097.021.107-.104.123-.178.146-.075.023-.176.057-.245.007-.037-.027-.118-.143-.14-.07-.03.099-.232.165-.318.18-.157.03-.259.177-.325.104-.076-.082-.16-.2-.285-.055-.038.045-.034.112-.063.16-.04.066-.048.156-.12.205-.099.068-.332-.08-.455-.076-.072.003-.086.024-.17-.004-.087-.029-.116.013-.176-.06-.06-.075-.187-.012-.271-.027-.106-.02-.108-.165-.167-.223-.103-.1-.258-.169-.357-.229-.139-.084-.337.09-.407.212-.04.069-.098.138-.125.213-.022.058-.105.048-.127.081-.036.054.053.163.047.225-.01.09-.019.129-.014.33-.076-.125-.267-.016-.396-.036-.058-.008-.157-.055-.21-.08-.104-.047-.188.05-.293.07-.155.03-.278-.022-.312.169-.018.103-.008.215-.027.315-.025.134-.115.264-.161.393a2.762 2.762 0 0 1-.073-.437c-.01-.153-.173-.145-.253-.235-.04-.044-.452-.525-.263-.53-.098-.069-.078-.22-.178-.298-.13-.101-.11-.247-.116-.4-.003-.056-.076-.095-.074-.133.003-.056.035-.114.04-.173a.582.582 0 0 0-.015-.198c-.017-.06-.09-.032-.112-.109Zm6.173 15.66c.073.017.146.033.22.006.071-.027.106.08.152.11.05.033.138-.048.187-.055.063-.01.158.061.213.085.16.068.255-.077.341-.193.115-.154.228-.3.31-.437.039-.066.094-.093.153-.139.08-.063.167-.102.263-.142.187-.078.221-.1.232-.312.006-.104.18-.233.274-.27.088-.035.196-.083.291-.087.115-.005.232.032.346.003 0 .217-.019.238.222.238.15 0 .234.037.382.097.082.033.272.143.35.185.111.06.299.034.344.129.033.07.09.075.156.055-.017.101-.077.159-.03.263.056.122-.013.212.025.327.037.11-.046.234-.023.355.017.084.067.153-.007.22-.054.048-.005.162-.037.18-.078.044-.098.038-.128.136-.013.043.059.059.08.078.018.017.003.081 0 .1-.007.045-.043.069-.056.11-.01.032.04.151.05.187l.054-.022c-.005.12.042.166-.03.287-.058.098-.096.26-.203.31-.118.055-.028.13-.05.222-.028.113-.115.178-.028.29-.09-.066-.501.54-.577.59-.071.045-.108.146-.138.145-.064-.133-.318-.078-.446-.077-.112 0-.215-.043-.318-.08-.238-.081-.31-.023-.323-.038-.063-.075-.07-.038-.143-.078-.08-.043 0-.114-.025-.147-.114-.148-.538-.053-.602-.209-.062-.152-.184-.298-.132-.45.072-.208-.031-.256-.24-.213.037-.198-.014-.278-.197-.333a.929.929 0 0 1-.42-.33c-.124-.193-.125-.434-.274-.621-.064-.082-.271-.366-.218-.475ZM65.585 49.6c.026-.06.032-.15.074-.195.04-.043.052-.036.088-.073.075-.078.194-.296.294-.193.03.032.34-.045.4-.15.038-.068.09-.158.089-.239-.001-.048-.063-.161.016-.178.05-.01.119.003.14-.028.08-.116.179.011.238.077.041.047.067.087.108.135.048.056.114.113.162.18.027.037-.032.13-.04.168-.02.085.06.155.102.22.05.074.01.152.042.221.038.083.086.146.033.235-.028.047-.09.003-.109.057-.028.082.087.14-.014.254-.046.051-.108.065-.141.124-.031.055-.042.11-.087.167-.087.108.046.256-.14.302-.062.015-.1-.013-.11.059-.011.067-.047.131-.044.199a3.92 3.92 0 0 1-.006.495c-.005.073.068.218.056.32-.01.091-.012.17-.026.25-.02.117.024.165.016.227-.01.07-.054.174-.046.222a1.994 1.994 0 0 0-.28.033 5.725 5.725 0 0 1-.35.06.144.144 0 0 1 .098-.038c-.005-.06-.046-.122-.075-.172-.045-.078-.056-.207-.069-.294.012-.001.074-.019.066-.178-.015-.29-.003-.584-.004-.876 0-.165-.008-.29-.1-.431-.087-.133-.059-.288-.064-.436-.003-.116-.177-.172-.263-.252-.08-.075-.06-.178-.054-.272Zm22.505-3.381c.004.042.048.171-.028.109.033.096.2.088.28.082-.04-.084-.149-.003-.177-.089-.012-.033-.013-.14-.075-.102Z" fill="#2E7FC1"/><path d="M86.069 46.688c.091-.082.086-.21.12-.32.035-.117.085-.232.127-.348.039-.106-.071-.549.1-.573.033-.004.16.021.18-.013.056-.092.013-.163.123-.197.088-.028.19-.097.281-.133.135-.054.14-.193.237-.283a4.4 4.4 0 0 1 .378 1.034c.02.089.019.176.059.26.043.09.085.16.102.26.013.067.097.072.116.144.017.066.03.179.089.224.073-.052-.047-.248.03-.26.074-.012.118.081.123.136.006.065.052.176.114.205.088.04.144-.079.234.021.074.083.083.144.203.16.138.02.19.126.264.236.071.106.133.213.244.283a.859.859 0 0 1 .143.117c.022.022.129.169.076.036.073.047.073.15.096.224.02.064.09.046.132.09.04.041.198.337.258.189.06.056.089.081.055.123-.087.04-.157.097-.159.146-.005.169-.138-.073-.288.046.018-.043-.025-.177-.189-.29-.143-.216-.236-.367-.324-.39-.156-.042-.207-.235-.3-.364-.102-.14-.253-.147-.382-.246-.12-.093-.193-.015-.304-.049-.088-.026-.24-.108-.327.002-.002-.068-.138-.203-.108-.156.014.023-.098.145-.18.15-.053.003-.167.018-.223-.065-.102-.154-.135-.028-.254-.224a4.187 4.187 0 0 1-.18.514c-.036-.052-.132-.247-.22-.199-.057.03-.05.086-.129.08-.216-.016-.212-.025-.268.11a3.838 3.838 0 0 1-.052-.666m-3.487 27.462h.014c.072.071.064.058.123.132.05.064.057.093.11.145.067.067.213.159.329.065.05-.041.026-.043.058-.105l.068-.133h.098l-.003-.039c-.117-.468.027-.151-.083-.455a.787.787 0 0 0-.194-.162l-.183-.008c-.06.079-.109.088-.163.17-.031.047-.043.084-.058.116-.015.033-.073.243-.116.274ZM55.47 47.857c.107-.084.092-.08.146.04.04.09.167-.032.23.015-.135-.07.281-.111.306-.126a.76.76 0 0 0-.336.042c-.086.038-.136.063-.19-.037-.048-.089.049-.09.11-.085.162.012.327.004.49.004.041 0 .024-.131.12-.104.077.022.153-.073.233-.031.04.021.05.073.089.097.038.023.074-.019.114 0 .043.02.03.085.077.105.05.02.113-.02.16-.033.055-.017.188-.005.179.08-.008.078-.133.105-.195.114-.259.038-.533-.261-.57-.19-.044.083-.055.11-.215.108-.057 0-.214.034-.18.12.007.017-.506-.041-.527.08a.325.325 0 0 1-.041-.199Zm-4.774-2.327c.055.005.182-.078.156-.145-.045-.112-.245.034-.156.145Zm.158.088c-.06-.145.16-.014 0 0Zm.29 1.294c.042-.015.084-.108.035-.138-.087-.052-.118.09-.035.138Zm.087-1.098c.016-.124.131-.002.17-.07-.066-.03-.151-.07-.224-.044.022.036.04.074.054.114Zm.415 1.038c.088-.093-.057-.197-.099-.273-.042.112-.066.269.1.273Zm.208-.142c-.154-.099.158-.16 0 0Zm.235-.568c.154-.062.02-.141-.055-.17.003.069-.063.171.055.17Zm-.055-.399c.036-.052.024-.112.011-.169-.06.049-.012.109-.011.17Z" fill="#2E7FC1"/><path d="M51.299 46.456c.462 0 .462-.694 0-.694-.463 0-.463.694 0 .694Zm38.867 18.012c.033-.031.013-.09-.001-.123-.034-.086-.013-.165-.038-.249-.105-.003-.059.135-.082.195-.037.094.075.119.12.177Zm.218.295c-.018-.053-.067-.095-.126-.083 0 .076.072.071.126.083Zm.382-.006c.065-.167-.063-.105-.163-.131.056.041.117.077.163.13Z" fill="#2E7FC1"/><path d="M90.376 64.834c.462 0 .462-.694 0-.694-.463 0-.463.694 0 .694Zm7.616 4.926c-.04.043-.23.324-.097.34.21.026.237-.37.097-.34Z" fill="#2E7FC1"/><path d="M97.732 70.187c.463 0 .463-.694 0-.694s-.463.694 0 .694ZM68.874 56.618c.052-.028.106-.072.124-.13.01-.03.005-.132-.052-.116-.131.036-.087.152-.072.246Zm.508-.988a.11.11 0 0 0 .005-.115c-.045.032-.047.078-.005.115Z" fill="#2E7FC1"/><path d="M69.07 56.4c.469 0 .469-.702 0-.702-.468 0-.468.703 0 .703Zm28.19 3.376c.006-.053-.014-.12-.082-.104.04.021.073.059.082.104Z" fill="#2E7FC1"/><path d="M97.31 59.692c.463 0 .463-.694 0-.694-.462 0-.462.694 0 .694ZM56.027 35.207a.267.267 0 0 1-.139-.079c-.03-.03.027-.078.06-.044.042.045.103-.027.152.028.053.06-.011.11-.073.095Z" fill="#2E7FC1"/><path d="M56 35.488c.462 0 .462-.694 0-.694-.463 0-.463.694 0 .694Zm-.792 3.002c-.082-.055-.016-.14.065-.115a.418.418 0 0 1-.065.115Zm.152-.585-.049.033c-.008-.056-.11-.208-.005-.23.117-.023.096.139.054.197Zm.284.345c-.055-.035-.058-.138.028-.12.089.017.034.11-.028.12Zm.312.016c-.045-.077-.07-.164-.114-.24.164-.04.29-.09.447-.154-.057.122-.201.345-.333.394Zm.601.164c-.135-.02-.158-.24-.02-.27.215-.047.15.21.02.27Zm.715-.208-.05-.033c.162-.053.184-.3.3-.413.074-.07.035.206.024.234-.05.127-.186.125-.274.212Zm.339-.519-.054-.022c.022-.05.199-.28.24-.166.034.095-.138.139-.186.188Zm-1.125-.004c.462 0 .462-.694 0-.694-.463 0-.463.694 0 .694ZM91.11 65.161c.036-.049.082-.153 0-.186-.02.043-.031.146 0 .186Z" fill="#2E7FC1"/><path d="M91.193 65.546c.463 0 .463-.694 0-.694s-.463.694 0 .694Zm5.685 4.87c-.008-.15-.302-.061-.269.083.05.217.458.235.269-.083Z" fill="#2E7FC1"/><path d="M96.783 70.776c.412 0 .412-.642 0-.642-.413 0-.413.642 0 .642ZM61.289 67.92a.11.11 0 0 0 .006-.114c-.046.031-.048.078-.006.114Z" fill="#2E7FC1"/><path d="M61.284 68.218c.473 0 .473-.71 0-.71-.474 0-.474.71 0 .71Z" fill="#2E7FC1"/><defs><linearGradient id="a" x1="75" y1="94.17" x2="75" y2="137.833" gradientUnits="userSpaceOnUse"><stop stop-color="#F9F6F9"/><stop offset=".573" stop-color="#F5F5F5"/><stop offset=".76" stop-color="#E8EBEE"/><stop offset="1" stop-color="#C2C3C6"/></linearGradient><linearGradient id="b" x1="11.51" y1="90.67" x2="138.01" y2="19.17" gradientUnits="userSpaceOnUse"><stop stop-color="#2E469C"/><stop offset=".198" stop-color="#2D459D"/><stop offset=".432" stop-color="#2758A7"/><stop offset=".667" stop-color="#255AA8"/><stop offset=".833" stop-color="#2A4079"/><stop offset="1" stop-color="#1D204B"/></linearGradient><filter id="c" x="36.693" y="18.15" width="74.119" height="74.119" filterUnits="userSpaceOnUse" color-interpolation-filters="sRGB"><feFlood flood-opacity="0" result="BackgroundImageFix"/><feColorMatrix in="SourceAlpha" values="0 0 0 0 0 0 0 0 0 0 0 0 0 0 0 0 0 0 127 0" result="hardAlpha"/><feOffset/><feGaussianBlur stdDeviation="2"/><feComposite in2="hardAlpha" operator="out"/><feColorMatrix values="0 0 0 0 0 0 0 0 0 0 0 0 0 0 0 0 0 0 0.25 0"/><feBlend in2="BackgroundImageFix" result="effect1_dropShadow_333:1240"/><feBlend in="SourceGraphic" in2="effect1_dropShadow_333:1240" result="shape"/><feColorMatrix in="SourceAlpha" values="0 0 0 0 0 0 0 0 0 0 0 0 0 0 0 0 0 0 127 0" result="hardAlpha"/><feMorphology radius="4" in="SourceAlpha" result="effect2_innerShadow_333:1240"/><feOffset/><feGaussianBlur stdDeviation="3.5"/><feComposite in2="hardAlpha" operator="arithmetic" k2="-1" k3="1"/><feColorMatrix values="0 0 0 0 0 0 0 0 0 0 0 0 0 0 0 0 0 0 0.36 0"/><feBlend in2="shape" result="effect2_innerShadow_333:1240"/></filter></defs></svg>