<?xml version="1.0" encoding="utf-8"?>
<!-- Generator: Adobe Illustrator 19.0.0, SVG Export Plug-In . SVG Version: 6.00 Build 0)  -->
<svg version="1.1" id="Layer_1" xmlns="http://www.w3.org/2000/svg" xmlns:xlink="http://www.w3.org/1999/xlink" x="0px" y="0px"
	 viewBox="0 0 920 364" style="enable-background:new 0 0 920 364;" xml:space="preserve">
<style type="text/css">
	.st0{display:none;fill:#FFFFFF;}
	.st1{display:none;}
	.st2{display:none;fill:#18A418;stroke:#FFFFFF;stroke-width:1.7;stroke-miterlimit:10;}
	.st3{fill:#009900;}
	.st4{fill:#18A418;}
</style>
<g>
	<path class="st0" d="M253.1,210.7l0.2,1.1c0.5,5.1,5.8,9.1,11.9,9.1h7v-56.1h-45.1v7.9c0,6.6,5.4,11.7,12.2,11.7h10.2
		c-2.9,11-11.2,17.4-22.5,17.4c-17.9-1.2-26.5-11.8-26.3-32.5c0-1.3,0.1-2.6,0.1-3.8l0.2-2.9l-3.8,1.8c-8.1,3.8-15.7,7.4-20.4,15.2
		l-0.3,0.5l0.1,0.6c4.1,25.5,22.5,41.4,48,41.4C238.8,222.4,246.5,218,253.1,210.7z M197.4,168.3c0,0.4,0,0.8,0,1.1
		c-0.2,22.4,9.8,34.5,29.6,35.9c13.9,0,23.7-8.3,26.4-22.2l0.4-2h-14.4c-5,0-8.9-3.7-8.9-8.4v-4.5h38.4v49.3h-3.6
		c-4.4,0-8.2-2.7-8.6-6.2l-1.6-8.3l-2.3,2.8c-6.8,8.3-13.5,13.2-28.1,13.2c-23.5,0-40.6-14.5-44.6-37.9
		C184,174.9,190.5,171.6,197.4,168.3z"/>
</g>
<g>
	<g>
		<g>
			<g>
				<path class="st0" d="M180.4,175.9c4.4-7.2,11.7-10.7,19.5-14.4l1.4-0.7l0-0.2c1.2-18.4,10-27.7,26.3-27.7
					c9.8,0,16.8,3.9,20.8,11.6c2.5,3.4,5.7,5.2,9.5,5.2h13.4l0-0.5c-0.8-11-5.2-19.7-13.2-25.9c-8.6-5.8-19.1-8.7-31.1-8.7
					c-13.9-0.5-25.8,3.9-34.4,12.7c-9.1,9.3-14,22.8-13.8,38.1c0,3.5,0.3,7,0.8,10.3l0.2,1.1L180.4,175.9z M227,115.4
					c11.9,0,22.2,2.9,30.6,8.5c7.6,5.9,11.9,14.2,12.8,24.8h-12.5c-3.6,0-6.5-1.6-8.8-4.8c-4.1-8-11.3-12-21.5-12
					c-16.7,0-25.8,9.5-27.1,28.3l-1,0.5c-7.6,3.6-14.7,7-19.3,13.8c-0.4-2.9-0.6-6-0.6-9.1c-0.2-15.1,4.6-28.4,13.5-37.5
					c8-8.2,19-12.5,31.6-12.5C225.5,115.4,226.2,115.4,227,115.4z"/>
			</g>
		</g>
	</g>
</g>
<g>
	<path class="st1" d="M508.2,177.5c5.9,0,8.8,1.5,9.2,4.6c0,2.9-3.1,4.7-9.2,5.4c-14.3,1.3-24,4.8-24.4,17.6
		c0,11.9,9.4,17.8,22.9,16.8c15.2-1,24.6-7.6,24.6-22.4v-18.2c-0.3-9.9-8.2-14.8-23.7-14.8c-13,0-20.3,4.9-22,14.8h14.2
		C500.5,178.8,503.2,177.5,508.2,177.5z M504.9,211c-4.5,0-6.8-2-7.1-6.3c0-4,2.9-6.5,8.5-7.5c4.1-0.8,8-1.9,11.3-3.2v5
		C517.6,206.5,512.8,211,504.9,211z"/>
	<path class="st2" d="M616.3,177.5c5.9,0,8.8,1.5,9.2,4.6c0,2.9-3.1,4.7-9.2,5.4c-14.3,1.3-24,4.8-24.4,17.6
		c0,11.9,9.4,17.8,22.9,16.8c15.2-1,24.6-7.6,24.6-22.4v-18.2c-0.3-9.9-8.2-14.8-23.7-14.8c-13,0-20.3,4.9-22,14.8h14.2
		C608.5,178.8,611.3,177.5,616.3,177.5z M613,211c-4.5,0-6.8-2-7.1-6.3c0-4,2.9-6.5,8.5-7.5c4.2-0.8,8-1.9,11.3-3.2v5
		C625.6,206.5,620.8,211,613,211z"/>
</g>
<g id="XMLID_2_">
	<path id="XMLID_8_" d="M236.7,200.1l1.6,8.7c0.4,3.8,4.7,7.2,9.7,7.2h4v-55h-42v5.4c0,5.3,4.2,9.6,9.8,9.6h15.3l-0.3,1.7
		c-2.9,15-13.5,23.8-28.4,23.8l-0.1,0c-21.2-1.5-31.9-14.5-31.8-38.7c0-0.6,0-1.2,0-1.8c-7.8,3.7-15.1,7.4-19.6,14.4
		c4.4,25.8,23.1,41.7,48.9,41.7c16,0,23.4-5.3,30.8-14.5L236.7,200.1z"/>
	<path id="XMLID_9_" class="st3" d="M236.1,121.3c-8.7-5.8-19.3-8.8-31.6-8.8l-0.1-0.1c-0.8,0-1.5-0.1-2.2-0.1
		c-12.7,0-23.6,4.2-31.7,12.1c-9.6,9.3-14.7,23.3-14.4,39.2c0,0.9,0,1.7,0,2.6c4.9-4.4,10.9-7.3,16.7-10.1
		c1.4-15,8.4-31.9,32.4-31.9c12.2,0,20.9,5.1,26,14.7c2,2.6,4.2,4.1,7,4.1h10.2C247,133,243,126.6,236.1,121.3z"/>
	<path id="XMLID_19_" d="M317.3,186.8c0,22,13.7,38.6,36.3,38.6c11.4,0,17-3.8,22.6-10.6l0.7,3.6c0.3,3.4,4.1,5.8,7.9,5.8h4.1v-40.5
		h-32.1v4.7c0,4.3,3.6,7.7,8.1,7.7h9.5c-1.7,9-8.1,16-19,16c-14.5-1-21.6-9.8-21.4-26.3c0.1-16.4,7.1-24.6,20.6-24.6
		c7.6,0,13.1,3,16.2,9c1.9,2.5,4.2,3.9,7.1,3.9h10c-0.6-8.5-3.9-15-10-19.6c-6.6-4.4-14.6-6.6-23.8-6.6
		C330.7,147.2,316.9,164.6,317.3,186.8z"/>
	<path id="XMLID_27_" d="M399.6,149.3v11.5H415v-4.3c0.1-4.7-2.3-7.2-7.4-7.2H399.6z M399.6,166v58.4H415V173c0-4.7-2.4-7.1-7.4-7.1
		H399.6z"/>
	<path id="XMLID_30_" d="M448.4,225.5c7.6,0,13.6-2.9,17.5-8.6c0,6.1,0,6,0,6c0,9-4.2,13.6-12.3,13.6c-6.4,0-10-2-11-6.2h-17
		c3.6,12.4,12.4,18.5,26.3,18.5c19.6-0.3,29.3-7.7,29.3-22.4v-34.5c0-17.5-9.6-26.2-28.7-26c-19,0.3-28.5,10-28.5,29.5
		C423.9,215.3,432,225.5,448.4,225.5z M452.7,212.5c-8.3,0-12.5-5.6-12.9-16.9c0-11.8,4.3-17.7,13.1-17.7c8.8,0,13.1,5.8,13,17.7
		C465.4,206.9,461,212.5,452.7,212.5z"/>
	<path id="XMLID_31_" class="st4" d="M549,225h53v-13h-38v-61h-7.5c-3.9,0-7.5,3.5-7.5,7.4V225z"/>
	<path id="XMLID_32_" class="st4" d="M714.7,167h-9.6c-3.5,0-5.7,1.4-6.5,4.5l-11.5,38.1L674.4,167h-15.7l20.4,55.8
		c1.3,4.1,1.1,7.4-0.5,9.6c-1.7,2.3-4.8,3.6-9.4,3.6H666v10.1c1,0.1,2.6,0.2,5.6,0.2c12.5,0,15.8-3,19.3-12.3L714.7,167z"/>
	<path id="XMLID_35_" class="st4" d="M762.7,172.7c-4.4-4.6-11-6.9-19.7-6.9c-18.3,0.1-27.2,9.7-27.2,29.1c0,19.5,8.8,29.2,27,29.7
		c13.6,0,22-5.6,25.6-17.6h-10.2c-1.9,0-3.4,0.8-4.6,2c-3.2,3-6.8,4.5-10.6,4.5c-8,0-12.4-5-13-14.4l-0.1-1.1h39.7
		C770.1,187,767.8,178,762.7,172.7z M730,190l0.1-1.1c1.2-8.1,5.6-12.5,12.5-12.5c7,0,11.2,4.4,12.2,12.6l0.1,1.1H730z"/>
	<path id="XMLID_36_" class="st4" d="M803.6,180h4.4v-13h-1.4c-20.2,0-30.6,8.8-30.6,27.2V224h14v-30C790,185.1,794.6,180,803.6,180
		z"/>
	<path id="XMLID_37_" class="st3" d="M300,188l-0.1-1.5l0-0.4c0-0.3,0,0.4,0-0.6l0-0.1l0-0.2l-0.1-0.9c-0.2-1.2-0.4-2.4-0.5-3.6
		c-0.3-1.2-0.6-2.3-0.9-3.5c-0.2-1.1-0.7-2.2-1.1-3.3c-0.4-1.1-0.7-2.2-1.3-3.2c-0.5-1-1-2-1.5-3c-0.5-1-1.1-1.9-1.7-2.8
		c-1.1-1.8-2.4-3.4-3.6-4.9c-2.7-2.9-5.4-5.5-8.3-7.4c-5.7-3.9-11.3-5.7-15.9-6.5c-0.6-0.1-1.1-0.2-1.7-0.3c-0.5,0-1.1-0.1-1.6-0.1
		c-1-0.1-2-0.1-2.9-0.1c-1.8,0.1-3.3,0.1-4.5,0.3c-0.8,0.1-1.8,0.2-2.3,0.3c0.1,0.3,0.5,0.6,0.6,0.9c0.5,0.1,1,0.3,1.6,0.5
		c1.1,0.3,2.4,0.9,3.9,1.5c0.7,0.3,1.5,0.8,2.3,1.2c0.4,0.2,0.8,0.4,1.2,0.6c0.4,0.3,0.8,0.5,1.3,0.8c3.4,2.1,7.1,5.1,10.3,9.3
		c1.6,2,2.9,4.4,4.1,6.9c1,2.6,2,5.2,2.4,8.1c0.3,2.9,0.7,5.8,0.2,8.8l-0.1,0.6l0,0.1l0,0.1c0-1,0-0.2,0-0.4l-0.1,0.4l-0.2,1.5
		c-0.2,0.9-0.3,2.2-0.5,2.6c-0.2,0.6-0.4,1.2-0.6,1.8c-0.3,0.7-0.6,1.4-0.9,2.1c-2.5,5.5-6.6,10.4-12,13.4c-2.7,1.5-3.8,2-6.8,2.6
		c-0.6,0.1-1,0.1-1,0.1l0.1,14.5c-1,4.1-5.8,6.1-8.8,6.1h0H248c-6.7,0-12.4-5.3-13-10.9l-0.2-1.7c-7.2,7.9-15.5,12.5-30.9,12.5
		c-17,0-31-6.6-40.5-18c-1.1,0.1-2.2,0.1-3.3,0.1l-1.7,0.1l-0.9,0l-0.4,0l-0.2,0l-0.1,0c1.4,0,0.3,0,0.6,0l-1.7,0l-0.8,0l-0.4,0
		c-0.1,0-0.1,0-0.2,0c-0.2,0-0.4,0-0.6,0c-0.2,0-0.4,0-0.8,0c-0.6-0.1-1.3-0.1-2-0.3c-2.6-0.5-5.1-1.7-7.3-3.2
		c-4.4-3.1-7.5-8-8.5-13.2L135,195l-0.1-0.2c0-0.1,0,0.8,0,0.3l0-0.1l0-0.2l-0.1-1.4l-0.1-1.3l0-0.8c-0.1-1,0-2.4,0.1-3.7
		c0.3-2.6,1.1-5,2.1-7.3c2-4.5,5.2-8,8.3-10.4c2-1.5,3.9-2.6,5.6-3.4c0.1-1,1.5-3,1.6-4c-2.2-0.1-6.4,1.2-9.8,2.1
		c-4.6,1.2-10.1,3.9-15,9.1c-2.4,2.6-4.7,5.8-6.4,9.5c-0.8,1.9-1.6,3.8-2.1,6.3c-0.1,0.6-0.3,1.2-0.4,1.8l-0.2,1.3l-0.2,1.3l0,0.2
		l0,0.1c0-0.3,0,0.6,0,0.5l0,0.4l-0.1,0.9c-0.3,4.7,0.3,9.7,2,14.7c1.7,5,4.5,9.8,8.4,14c3.9,4.2,8.9,7.7,14.6,10.1
		c1.4,0.7,2.9,1.1,4.4,1.5c0.7,0.2,1.6,0.4,2.5,0.6l2.7,0.5l0.6,0.1l0.4,0l0.8,0.1l1.7,0.2c1.4,0.1,2.8,0.1,4.1,0.2
		c4.6,0.3,9.2,0.4,13.9,0.6c2.4,0.1,4.7,0.2,7.1,0.3c2.4,0.1,4.8,0.1,7.2,0.1c9.6,0.3,19.3,0.2,29.1,0.2c9.7-0.1,19.5-0.3,29.1-0.6
		c2.5-0.1,4.4-0.1,8-0.4c1.6-0.1,3.2-0.4,4.8-0.7l2.4-0.5l2.3-0.7c6.1-1.8,11.8-4.6,16.6-8.4c9.8-7.4,15.9-18,18.3-28.5
		c0.2-1.3,0.5-2.6,0.7-3.9c0.2-1.4,0.3-2.9,0.4-4.3C300.2,189.8,300,189,300,188z"/>
	<path id="XMLID_40_" d="M540.6,224.3v-37.3c0-3.7-0.4-7-1.3-9.9c-0.9-2.9-2.3-5.3-4.3-7.3c-2-2-4.6-3.5-7.8-4.5
		c-3.2-1-7.2-1.6-11.8-1.6c-4.7,0-8.7,0.5-12,1.5c-3.3,1-5.9,2.4-8,4.3c-2,1.8-3.5,4-4.4,6.6c-0.9,2.6-1.4,5.4-1.5,8.4h14.5
		c0.4-2.6,1.4-4.8,2.9-6.3c1.6-1.6,4.1-2.4,7.7-2.4c3,0,5.5,0.5,7.2,1.6s2.7,2.6,2.7,4.5c0,2.1-0.7,3.6-2,4.5
		c-1.4,0.9-4,1.7-7.9,2.2c-3.9,0.6-7.5,1.2-10.8,1.9c-3.3,0.7-6.2,1.7-8.6,3.2c-2.4,1.4-4.3,3.4-5.6,5.9c-1.4,2.5-2,5.9-2,10.1
		c0,4.8,1.6,8.7,4.7,11.7c3.2,3,8.1,4.5,14.9,4.5c4,0,7.5-0.6,10.5-1.9c3-1.2,5.5-2.9,7.3-5c0.2,2,0.5,3.8,1,5.3H540.6z
		 M524.9,201.9c0,1.8-0.4,3.4-1.1,5c-0.8,1.6-1.8,2.9-3,4.1c-1.2,1.2-2.7,2.1-4.4,2.8c-1.7,0.7-3.6,1-5.6,1c-5,0-7.5-2.2-7.5-6.6
		c0-2.6,0.8-4.5,2.5-5.9c1.7-1.4,4.8-2.5,9.2-3.4c2.9-0.6,5.1-1.1,6.6-1.6c1.5-0.5,2.7-1.1,3.5-1.9L524.9,201.9z"/>
	<path id="XMLID_43_" class="st4" d="M643.2,219.5l1.3-1.5l0.2,1.8c0.1,1.7,0.4,3.3,0.7,4.3H658v-35.9c0-3.6-0.2-6.8-1-9.6
		c-0.8-2.8-2.1-5.1-3.9-7c-1.9-1.9-4.3-3.3-7.4-4.3c-3.1-1-7-1.5-11.5-1.5c-4.6,0-8.5,0.5-11.7,1.5c-3.1,1-5.7,2.3-7.6,4.1
		c-1.9,1.7-3.3,4-4.2,6.4c-0.8,2.2-1.3,4.4-1.4,7.4h12.9c0.5-3,1.5-4.7,3-6.2c1.7-1.8,4.5-2.7,8.3-2.7c3.2,0,5.8,0.5,7.7,1.7
		c2.1,1.2,3.1,3,3.1,5.2c0,2.4-0.8,4.1-2.4,5.2c-1.5,1-4.2,1.8-8.3,2.3c-3.9,0.6-7.5,1.2-10.8,1.8c-3.2,0.7-6,1.7-8.3,3.1
		c-2.3,1.4-4,3.2-5.3,5.6c-1.3,2.4-1.9,5.6-1.9,9.7c0,4.5,1.5,8.3,4.5,11.1c3,2.8,7.8,4.3,14.3,4.3c3.9,0,7.3-0.6,10.2-1.8
		C639.1,223.1,641.5,221.5,643.2,219.5z M635.4,215.5c-1.8,0.7-3.8,1.1-5.9,1.1c-6.9,0-8.4-4-8.4-7.4c0-2.8,1-5,2.8-6.5
		c1.8-1.5,4.9-2.6,9.6-3.5c2.8-0.5,5-1.1,6.5-1.5c1.4-0.4,2.4-1,3.1-1.7l1.5-1.5l-0.2,8.6c0,1.9-0.4,3.7-1.2,5.3
		c-0.8,1.6-1.9,3.1-3.2,4.3C638.8,213.8,637.2,214.8,635.4,215.5z"/>
</g>
</svg>
