<svg xmlns="http://www.w3.org/2000/svg" id="Layer_1" viewBox="0 0 920 364"><style>.st0{display:none;fill:#fff}.st3{fill:#090}.st4{fill:#18a418}</style><path d="M253.1 210.7l.2 1.1c.5 5.1 5.8 9.1 11.9 9.1h7v-56.1h-45.1v7.9c0 6.6 5.4 11.7 12.2 11.7h10.2c-2.9 11-11.2 17.4-22.5 17.4-17.9-1.2-26.5-11.8-26.3-32.5 0-1.3.1-2.6.1-3.8l.2-2.9-3.8 1.8c-8.1 3.8-15.7 7.4-20.4 15.2l-.3.5.1.6c4.1 25.5 22.5 41.4 48 41.4 14.2.3 21.9-4.1 28.5-11.4zm-55.7-42.4v1.1c-.2 22.4 9.8 34.5 29.6 35.9 13.9 0 23.7-8.3 26.4-22.2l.4-2h-14.4c-5 0-8.9-3.7-8.9-8.4v-4.5h38.4v49.3h-3.6c-4.4 0-8.2-2.7-8.6-6.2l-1.6-8.3-2.3 2.8c-6.8 8.3-13.5 13.2-28.1 13.2-23.5 0-40.6-14.5-44.6-37.9 3.9-6.2 10.4-9.5 17.3-12.8z" class="st0"/><path d="M180.4 175.9c4.4-7.2 11.7-10.7 19.5-14.4l1.4-.7v-.2c1.2-18.4 10-27.7 26.3-27.7 9.8 0 16.8 3.9 20.8 11.6 2.5 3.4 5.7 5.2 9.5 5.2h13.4v-.5c-.8-11-5.2-19.7-13.2-25.9-8.6-5.8-19.1-8.7-31.1-8.7-13.9-.5-25.8 3.9-34.4 12.7-9.1 9.3-14 22.8-13.8 38.1 0 3.5.3 7 .8 10.3l.2 1.1.6-.9zm46.6-60.5c11.9 0 22.2 2.9 30.6 8.5 7.6 5.9 11.9 14.2 12.8 24.8h-12.5c-3.6 0-6.5-1.6-8.8-4.8-4.1-8-11.3-12-21.5-12-16.7 0-25.8 9.5-27.1 28.3l-1 .5c-7.6 3.6-14.7 7-19.3 13.8-.4-2.9-.6-6-.6-9.1-.2-15.1 4.6-28.4 13.5-37.5 8-8.2 19-12.5 31.6-12.5h2.3z" class="st0"/><g id="XMLID_2_"><path id="XMLID_8_" d="M236.7 200.1l1.6 8.7c.4 3.8 4.7 7.2 9.7 7.2h4v-55h-42v5.4c0 5.3 4.2 9.6 9.8 9.6h15.3l-.3 1.7c-2.9 15-13.5 23.8-28.4 23.8h-.1c-21.2-1.5-31.9-14.5-31.8-38.7V161c-7.8 3.7-15.1 7.4-19.6 14.4 4.4 25.8 23.1 41.7 48.9 41.7 16 0 23.4-5.3 30.8-14.5l2.1-2.5z"/><path id="XMLID_9_" d="M236.1 121.3c-8.7-5.8-19.3-8.8-31.6-8.8l-.1-.1c-.8 0-1.5-.1-2.2-.1-12.7 0-23.6 4.2-31.7 12.1-9.6 9.3-14.7 23.3-14.4 39.2v2.6c4.9-4.4 10.9-7.3 16.7-10.1 1.4-15 8.4-31.9 32.4-31.9 12.2 0 20.9 5.1 26 14.7 2 2.6 4.2 4.1 7 4.1h10.2c-1.4-10-5.4-16.4-12.3-21.7z" class="st3"/><path id="XMLID_19_" d="M317.3 186.8c0 22 13.7 38.6 36.3 38.6 11.4 0 17-3.8 22.6-10.6l.7 3.6c.3 3.4 4.1 5.8 7.9 5.8h4.1v-40.5h-32.1v4.7c0 4.3 3.6 7.7 8.1 7.7h9.5c-1.7 9-8.1 16-19 16-14.5-1-21.6-9.8-21.4-26.3.1-16.4 7.1-24.6 20.6-24.6 7.6 0 13.1 3 16.2 9 1.9 2.5 4.2 3.9 7.1 3.9h10c-.6-8.5-3.9-15-10-19.6-6.6-4.4-14.6-6.6-23.8-6.6-23.4-.7-37.2 16.7-36.8 38.9z"/><path id="XMLID_27_" d="M399.6 149.3v11.5H415v-4.3c.1-4.7-2.3-7.2-7.4-7.2h-8zm0 16.7v58.4H415V173c0-4.7-2.4-7.1-7.4-7.1h-8z"/><path id="XMLID_30_" d="M448.4 225.5c7.6 0 13.6-2.9 17.5-8.6v6c0 9-4.2 13.6-12.3 13.6-6.4 0-10-2-11-6.2h-17c3.6 12.4 12.4 18.5 26.3 18.5 19.6-.3 29.3-7.7 29.3-22.4v-34.5c0-17.5-9.6-26.2-28.7-26-19 .3-28.5 10-28.5 29.5-.1 19.9 8 30.1 24.4 30.1zm4.3-13c-8.3 0-12.5-5.6-12.9-16.9 0-11.8 4.3-17.7 13.1-17.7s13.1 5.8 13 17.7c-.5 11.3-4.9 16.9-13.2 16.9z"/><path id="XMLID_31_" d="M549 225h53v-13h-38v-61h-7.5c-3.9 0-7.5 3.5-7.5 7.4V225z" class="st4"/><path id="XMLID_32_" d="M714.7 167h-9.6c-3.5 0-5.7 1.4-6.5 4.5l-11.5 38.1-12.7-42.6h-15.7l20.4 55.8c1.3 4.1 1.1 7.4-.5 9.6-1.7 2.3-4.8 3.6-9.4 3.6H666v10.1c1 .1 2.6.2 5.6.2 12.5 0 15.8-3 19.3-12.3l23.8-67z" class="st4"/><path id="XMLID_35_" d="M762.7 172.7c-4.4-4.6-11-6.9-19.7-6.9-18.3.1-27.2 9.7-27.2 29.1 0 19.5 8.8 29.2 27 29.7 13.6 0 22-5.6 25.6-17.6h-10.2c-1.9 0-3.4.8-4.6 2-3.2 3-6.8 4.5-10.6 4.5-8 0-12.4-5-13-14.4l-.1-1.1h39.7c.5-11-1.8-20-6.9-25.3zM730 190l.1-1.1c1.2-8.1 5.6-12.5 12.5-12.5 7 0 11.2 4.4 12.2 12.6l.1 1.1H730z" class="st4"/><path id="XMLID_36_" d="M803.6 180h4.4v-13h-1.4c-20.2 0-30.6 8.8-30.6 27.2V224h14v-30c0-8.9 4.6-14 13.6-14z" class="st4"/><path id="XMLID_37_" d="M300 188l-.1-1.5v-.4V185.2l-.1-.9c-.2-1.2-.4-2.4-.5-3.6-.3-1.2-.6-2.3-.9-3.5-.2-1.1-.7-2.2-1.1-3.3-.4-1.1-.7-2.2-1.3-3.2l-1.5-3c-.5-1-1.1-1.9-1.7-2.8-1.1-1.8-2.4-3.4-3.6-4.9-2.7-2.9-5.4-5.5-8.3-7.4-5.7-3.9-11.3-5.7-15.9-6.5-.6-.1-1.1-.2-1.7-.3-.5 0-1.1-.1-1.6-.1-1-.1-2-.1-2.9-.1-1.8.1-3.3.1-4.5.3-.8.1-1.8.2-2.3.3.1.3.5.6.6.9.5.1 1 .3 1.6.5 1.1.3 2.4.9 3.9 1.5.7.3 1.5.8 2.3 1.2l1.2.6c.4.3.8.5 1.3.8 3.4 2.1 7.1 5.1 10.3 9.3 1.6 2 2.9 4.4 4.1 6.9 1 2.6 2 5.2 2.4 8.1.3 2.9.7 5.8.2 8.8l-.1.6v-.2l-.1.4-.2 1.5c-.2.9-.3 2.2-.5 2.6l-.6 1.8-.9 2.1c-2.5 5.5-6.6 10.4-12 13.4-2.7 1.5-3.8 2-6.8 2.6-.6.1-1 .1-1 .1l.1 14.5c-1 4.1-5.8 6.1-8.8 6.1h-1c-6.7 0-12.4-5.3-13-10.9l-.2-1.7c-7.2 7.9-15.5 12.5-30.9 12.5-17 0-31-6.6-40.5-18-1.1.1-2.2.1-3.3.1l-1.7.1h-1.6.6-4.5c-.6-.1-1.3-.1-2-.3-2.6-.5-5.1-1.7-7.3-3.2-4.4-3.1-7.5-8-8.5-13.2l-.1-.7-.1-.2v.3V194.8l-.1-1.4-.1-1.3v-.8c-.1-1 0-2.4.1-3.7.3-2.6 1.1-5 2.1-7.3 2-4.5 5.2-8 8.3-10.4 2-1.5 3.9-2.6 5.6-3.4.1-1 1.5-3 1.6-4-2.2-.1-6.4 1.2-9.8 2.1-4.6 1.2-10.1 3.9-15 9.1-2.4 2.6-4.7 5.8-6.4 9.5-.8 1.9-1.6 3.8-2.1 6.3-.1.6-.3 1.2-.4 1.8l-.2 1.3-.2 1.3V195.1l-.1.9c-.3 4.7.3 9.7 2 14.7s4.5 9.8 8.4 14c3.9 4.2 8.9 7.7 14.6 10.1 1.4.7 2.9 1.1 4.4 1.5.7.2 1.6.4 2.5.6l2.7.5.6.1h.4l.8.1 1.7.2c1.4.1 2.8.1 4.1.2 4.6.3 9.2.4 13.9.6 2.4.1 4.7.2 7.1.3 2.4.1 4.8.1 7.2.1 9.6.3 19.3.2 29.1.2 9.7-.1 19.5-.3 29.1-.6 2.5-.1 4.4-.1 8-.4 1.6-.1 3.2-.4 4.8-.7l2.4-.5 2.3-.7c6.1-1.8 11.8-4.6 16.6-8.4 9.8-7.4 15.9-18 18.3-28.5.2-1.3.5-2.6.7-3.9.2-1.4.3-2.9.4-4.3-.1-1.4-.3-2.2-.3-3.2z" class="st3"/><path id="XMLID_40_" d="M540.6 224.3V187c0-3.7-.4-7-1.3-9.9-.9-2.9-2.3-5.3-4.3-7.3s-4.6-3.5-7.8-4.5-7.2-1.6-11.8-1.6c-4.7 0-8.7.5-12 1.5-3.3 1-5.9 2.4-8 4.3-2 1.8-3.5 4-4.4 6.6-.9 2.6-1.4 5.4-1.5 8.4H504c.4-2.6 1.4-4.8 2.9-6.3 1.6-1.6 4.1-2.4 7.7-2.4 3 0 5.5.5 7.2 1.6s2.7 2.6 2.7 4.5c0 2.1-.7 3.6-2 4.5-1.4.9-4 1.7-7.9 2.2-3.9.6-7.5 1.2-10.8 1.9-3.3.7-6.2 1.7-8.6 3.2-2.4 1.4-4.3 3.4-5.6 5.9-1.4 2.5-2 5.9-2 10.1 0 4.8 1.6 8.7 4.7 11.7 3.2 3 8.1 4.5 14.9 4.5 4 0 7.5-.6 10.5-1.9 3-1.2 5.5-2.9 7.3-5 .2 2 .5 3.8 1 5.3h14.6zm-15.7-22.4c0 1.8-.4 3.4-1.1 5-.8 1.6-1.8 2.9-3 4.1-1.2 1.2-2.7 2.1-4.4 2.8-1.7.7-3.6 1-5.6 1-5 0-7.5-2.2-7.5-6.6 0-2.6.8-4.5 2.5-5.9 1.7-1.4 4.8-2.5 9.2-3.4 2.9-.6 5.1-1.1 6.6-1.6s2.7-1.1 3.5-1.9l-.2 6.5z"/><path id="XMLID_43_" d="M643.2 219.5l1.3-1.5.2 1.8c.1 1.7.4 3.3.7 4.3H658v-35.9c0-3.6-.2-6.8-1-9.6s-2.1-5.1-3.9-7c-1.9-1.9-4.3-3.3-7.4-4.3-3.1-1-7-1.5-11.5-1.5-4.6 0-8.5.5-11.7 1.5-3.1 1-5.7 2.3-7.6 4.1-1.9 1.7-3.3 4-4.2 6.4-.8 2.2-1.3 4.4-1.4 7.4h12.9c.5-3 1.5-4.7 3-6.2 1.7-1.8 4.5-2.7 8.3-2.7 3.2 0 5.8.5 7.7 1.7 2.1 1.2 3.1 3 3.1 5.2 0 2.4-.8 4.1-2.4 5.2-1.5 1-4.2 1.8-8.3 2.3-3.9.6-7.5 1.2-10.8 1.8-3.2.7-6 1.7-8.3 3.1-2.3 1.4-4 3.2-5.3 5.6-1.3 2.4-1.9 5.6-1.9 9.7 0 4.5 1.5 8.3 4.5 11.1 3 2.8 7.8 4.3 14.3 4.3 3.9 0 7.3-.6 10.2-1.8 2.8-1.4 5.2-3 6.9-5zm-7.8-4c-1.8.7-3.8 1.1-5.9 1.1-6.9 0-8.4-4-8.4-7.4 0-2.8 1-5 2.8-6.5 1.8-1.5 4.9-2.6 9.6-3.5 2.8-.5 5-1.1 6.5-1.5 1.4-.4 2.4-1 3.1-1.7l1.5-1.5-.2 8.6c0 1.9-.4 3.7-1.2 5.3-.8 1.6-1.9 3.1-3.2 4.3-1.2 1.1-2.8 2.1-4.6 2.8z" class="st4"/></g></svg>