<svg width="2149" height="424" fill="none" xmlns="http://www.w3.org/2000/svg"><path d="M525 174a54 54 0 0 1 44-22 58 58 0 0 1 53 33c6 11 9 23 9 36 0 14-3 26-9 37-5 10-12 18-22 24-9 6-19 9-30 9a55 55 0 0 1-45-21v83h-34V155h34v19zm71 47c0-8-2-15-5-21s-8-10-13-13a34 34 0 0 0-35 0c-5 3-9 8-13 14-3 6-5 13-5 21s2 15 5 21c4 6 8 10 13 14 6 3 11 4 18 4 6 0 12-1 17-5 5-3 10-8 13-13 3-6 5-14 5-22zM670 139c-6 0-11-2-15-6s-6-8-6-14 2-10 6-14 9-6 15-6 11 2 14 6c4 4 7 8 7 14s-3 10-7 14c-3 4-8 6-14 6zm16 16v134h-33V155h33zM770 153c10 0 18 2 26 6 7 3 13 9 18 15v-19h34v135c0 12-3 23-8 33s-12 17-22 23-22 9-36 9c-19 0-35-5-47-14-12-8-19-21-21-36h34c2 6 5 11 11 15 6 3 13 5 22 5 10 0 17-3 24-9 6-6 9-14 9-26v-21c-5 6-11 11-18 16-8 4-17 6-26 6-12 0-22-3-31-9-10-6-17-14-23-24-5-11-8-23-8-37 0-13 3-25 8-36 6-10 13-18 22-24 10-6 20-8 32-8zm44 69c0-9-2-16-5-21a34 34 0 0 0-31-18 34 34 0 0 0-30 17c-3 6-5 13-5 21s2 15 5 22c3 5 8 10 13 13 5 4 11 5 17 5 7 0 12-1 18-4 5-4 10-8 13-14s5-13 5-21zM931 153c10 0 18 2 26 6 8 3 14 9 18 15v-19h34v135c0 12-2 23-7 33s-13 17-23 23-22 9-36 9c-19 0-35-5-47-14-12-8-19-21-21-36h34c2 6 5 11 11 15 6 3 13 5 22 5 10 0 18-3 24-9s9-14 9-26v-21a53 53 0 0 1-44 22c-12 0-22-3-31-9-10-6-17-14-23-24-5-11-8-23-8-37 0-13 3-25 8-36 6-10 13-18 22-24 10-6 20-8 32-8zm44 69c0-9-2-16-5-21a34 34 0 0 0-31-18 34 34 0 0 0-30 17c-3 6-5 13-5 21s2 15 5 22c3 5 8 10 13 13 5 4 11 5 17 5 7 0 13-1 18-4 5-4 10-8 13-14s5-13 5-21zM1062 155l34 93 35-93h36l-82 197h-37l30-67-54-130h38zM1217 174c4-6 10-11 18-15 7-4 16-6 26-6a58 58 0 0 1 53 32c5 11 8 23 8 36 0 14-3 26-8 37-5 10-13 18-22 24s-20 9-31 9a52 52 0 0 1-44-21v19h-34V110h34v64zm71 47c0-8-2-15-5-21a34 34 0 0 0-48-13c-6 3-10 8-13 14-4 6-5 13-5 21s1 15 5 21c3 6 7 10 13 14a35 35 0 0 0 35-1c5-3 9-8 13-13 3-6 5-14 5-22zM1335 221c0-13 3-25 8-36 6-10 13-18 22-24 10-6 20-8 32-8a54 54 0 0 1 44 21v-19h34v134h-34v-20c-5 6-11 12-18 16-8 4-17 6-27 6-11 0-21-3-31-9-9-6-16-14-22-24-5-11-8-23-8-37zm106 1c0-9-2-16-5-21a34 34 0 0 0-31-18 34 34 0 0 0-30 17c-3 6-5 13-5 21s2 15 5 22c3 5 7 10 13 13 5 4 11 5 17 5 7 0 12-1 18-4 5-4 10-8 13-14s5-13 5-21zM1579 153c16 0 29 5 39 15s15 24 15 42v79h-34v-74c0-11-3-19-8-25s-13-8-22-8-17 2-22 8-8 14-8 25v74h-34V155h34v16c5-5 10-10 17-13s15-5 23-5zM1742 289l-46-57v57h-34V110h34v102l45-57h44l-59 67 60 67h-44zM1816 290c-6 0-12-1-16-5-3-4-5-9-5-14 0-6 2-11 5-14 4-4 10-6 16-6a20 20 0 0 1 14 34c-3 4-8 5-14 5zM1935 153c16 0 29 5 39 15 9 10 14 24 14 42v79h-33v-74c0-11-3-19-8-25-6-6-13-8-22-8-10 0-17 2-22 8-6 6-8 14-8 25v74h-34V155h34v16a53 53 0 0 1 40-19zM2070 153c10 0 19 2 27 6 7 3 13 9 18 15v-19h34v135c0 12-3 23-8 33s-12 17-22 23-22 9-37 9c-19 0-34-5-46-14-13-8-19-21-21-36h34c1 6 5 11 11 15 6 3 13 5 21 5 10 0 18-3 24-9s10-14 10-26v-21c-5 6-11 11-19 16-7 4-16 6-26 6-11 0-21-3-31-9-9-6-16-14-22-24-5-11-8-23-8-37 0-13 3-25 8-36 6-10 13-18 22-24s20-8 31-8zm45 69c0-9-2-16-5-21a34 34 0 0 0-31-18 34 34 0 0 0-30 17c-4 6-5 13-5 21s1 15 5 22c3 5 7 10 13 13 5 4 11 5 17 5s12-1 18-4c5-4 10-8 13-14s5-13 5-21z" fill="#3A3A3A"/><path fill-rule="evenodd" clip-rule="evenodd" d="M212 423A212 212 0 1 0 0 200v223h105v-28c32 18 68 28 107 28zm0-385c75 0 139 49 163 116H48C72 87 136 38 212 38zm36 218c0 12-8 23-19 28l19 37h-61l18-37a31 31 0 1 1 43-28z" fill="#144499"/></svg>