<?xml version="1.0" encoding="utf-8"?>
<!-- Generator: Adobe Illustrator 19.0.0, SVG Export Plug-In . SVG Version: 6.00 Build 0)  -->
<svg version="1.1" id="Layer_1" xmlns="http://www.w3.org/2000/svg" xmlns:xlink="http://www.w3.org/1999/xlink" x="0px" y="0px"
	 viewBox="0 0 1080 1080" style="enable-background:new 0 0 1080 1080;" xml:space="preserve">
<style type="text/css">
	.st0{fill:#3A4195;}
	.st1{fill:#A9CE43;}
	.st2{fill:#F58733;}
	.st3{fill:#23ADE4;}
	.st4{fill:#6E508D;}
</style>
<image style="display:none;overflow:visible;" width="1107" height="651" id="XMLID_2_" xlink:href="../../Innovation Growth Hub logo x.jpg"  transform="matrix(0.7989 0 0 0.7989 97.7945 238.0172)">
</image>
<image style="display:none;overflow:visible;" width="1182" height="1182" id="XMLID_1_" xlink:href="../../Innovation Growth Hub logo (1).jpg"  transform="matrix(0.6658 0 0 0.6658 -891.1732 224.3049)">
</image>
<g id="XMLID_14_">
	<circle id="XMLID_4_" class="st0" cx="107.4" cy="355.5" r="17.7"/>
	<circle id="XMLID_18_" class="st0" cx="224.9" cy="658.6" r="2.9"/>
	<g id="XMLID_7_">
		<path id="XMLID_16_" class="st1" d="M883.9,578.3c0.1,0,0.1,0,0.1,0C883.9,578.3,883.9,578.3,883.9,578.3z"/>
		<path id="XMLID_39_" class="st1" d="M851.3,443.3c-49.2,0-92,27.9-113.2,68.7l-71.9-21.2l-2.9,20.6l66.6,20.4
			c-4,12.3-6.1,25.5-6.1,39.1c0,70.5,57.1,127.6,127.6,127.6c70.5,0,127.6-57.1,127.6-127.6S921.8,443.3,851.3,443.3z M915.9,653
			c1.5-3.6,1.9-6,1.9-6c-0.4-40.3-33.8-66.3-33.8-66.3s-0.3-2-0.1-2.3c-0.2,0-0.6,0-1.3,0c8.1-8.3,13.2-19.6,13.2-32.1
			c0-25.3-20.5-45.8-45.8-45.8c-25.3,0-45.8,20.5-45.8,45.8c0,12.5,5,23.8,13.1,32.1c0,0,0,0,0,0C786,601,779.8,646.9,779.8,647
			c-20.2-19-32.9-46.1-32.9-76c0-57.7,46.8-104.4,104.4-104.4c57.7,0,104.4,46.8,104.4,104.4C955.8,604.2,940.2,633.9,915.9,653z"/>
	</g>
	<path id="XMLID_25_" class="st2" d="M636.4,586.1c-1.6,0-3.2,0.1-4.8,0.1l-4.7-29.1l-20,3.7l1.1,2.2l3.8,26.7
		c-35.7,10.6-61.8,43.7-61.8,82.9c0,47.8,38.7,86.5,86.5,86.5s86.5-38.7,86.5-86.5S684.1,586.1,636.4,586.1z M674.2,718
		c-1.6-21.1-19.9-34.6-19.9-34.6s-0.2-1.1-0.1-1.3c-0.1,0-0.4,0-0.8,0c4.8-4.6,7.8-11,7.8-18c0-14.2-12.1-25.7-27.1-25.7
		S607,649.9,607,664.1c0,7,3,13.4,7.7,18h0c-13.8,9.5-19.3,26.4-21.2,34.2c-11.8-11.1-19.3-26.8-19.3-44.3
		c0-33.4,27.1-60.5,60.5-60.5s60.5,27.1,60.5,60.5C695.3,690.4,687.1,706.9,674.2,718z"/>
	<path id="XMLID_36_" class="st3" d="M737.3,352.4c-25.2,0-45.6,20.4-45.6,45.6c0,4.3,0.6,8.5,1.8,12.5l-34.6,19.2l4.4,18.4l40-19.8
		c8.4,9.4,20.5,15.3,34,15.3c25.2,0,45.6-20.4,45.6-45.6C782.9,372.8,762.5,352.4,737.3,352.4z M755.1,415.4
		c-2.6-6.7-8.1-10.8-8.1-10.8s-0.1-0.5,0-0.6c-0.1,0-0.2,0-0.4,0c2.3-2.2,3.7-5.2,3.7-8.5c0-6.7-5.7-12.1-12.7-12.1
		c-7,0-12.7,5.4-12.7,12.1c0,3.3,1.4,6.3,3.6,8.4c0,0,0,0,0,0c-4.6,3.1-7.2,8-8.7,11.9c-4.6-4.5-7.5-10.8-7.5-17.8
		c0-13.8,11.2-24.9,24.9-24.9c13.8,0,24.9,11.2,24.9,24.9C762.2,404.8,759.5,410.9,755.1,415.4z"/>
	<path id="XMLID_32_" class="st4" d="M648.2,348.8c0-15.4-12.5-27.9-27.9-27.9c-15.4,0-27.9,12.5-27.9,27.9c0,10,5.3,18.8,13.3,23.7
		l-6.8,28.9l20.3,4l5.4-29.1C638,374.3,648.2,362.8,648.2,348.8z M627.2,359.6c-0.1-3.8-3.4-6.3-3.4-6.3s0-0.2,0-0.2
		c0,0-0.1,0-0.1,0c0.8-0.8,1.3-1.9,1.3-3c0-2.4-2.1-4.3-4.6-4.3s-4.6,1.9-4.6,4.3c0,1.2,0.5,2.3,1.3,3h0c-3,2.1-3.7,6.2-3.7,6.5
		c-3.5-2.3-5.9-6.2-5.9-10.8c0-7.1,5.7-12.8,12.8-12.8c7.1,0,12.8,5.7,12.8,12.8C633.1,353.4,630.8,357.3,627.2,359.6z"/>
	<polygon id="XMLID_5_" class="st0" points="123.2,393.4 92.1,408.4 92.1,576.7 123.2,559.1 	"/>
	<path id="XMLID_10_" class="st0" d="M277.4,572.9L277,347l30.5-13.6v78.4c0,0,23.8-31.6,67.1-3.9c7.3,4.7,13.4,11.6,18.4,18.8
		c0.1,0.1,0.2,0.2,0.2,0.3c4.6,6.7,9.1,16,9.1,24.1v107.4l-30.9,14.3V459.1c0-7.5-2.2-14.9-6.6-21c-4.8-6.6-12.9-13-26.3-13.1
		c0,0-29.7,1.1-30.8,28.1l0.2,106.1L277.4,572.9z"/>
	<path id="XMLID_11_" class="st0" d="M442,394.5l-31.5,14.7v104.7c0,0,0.1,2.4,0.7,6.3c4.3,23.7,22.8,42.3,46.3,47.3
		c15,3.2,37.4,4.2,55.8-10.5c12.7-10.3,22.9-25.2,23.3-41.5v-121l-31.5,14.3l1.6,102c0.1,4.9-0.8,9.7-2.8,14.2
		c-3.6,8-11.8,17.6-30.5,17.9c0,0-27.5-0.2-31-26c-0.2-1.6-0.3-3.3-0.3-4.9L442,394.5z"/>
	<path id="XMLID_72_" class="st0" d="M488.3,664.1l-4.4,2.1V681c0,0,0,0.3,0.1,0.9c0.6,3.4,3.2,6,6.4,6.7c2.1,0.5,5.2,0.6,7.7-1.5
		c1.8-1.5,3.2-3.6,3.2-5.9v-17.1l-4.4,2l0.2,14.4c0,0.7-0.1,1.4-0.4,2c-0.5,1.1-1.6,2.5-4.2,2.5c0,0-3.8,0-4.3-3.7
		c0-0.2,0-0.5,0-0.7L488.3,664.1z"/>
	<path id="XMLID_34_" class="st0" d="M607.8,398.6c-3.5-0.5-15.4-2.6-32.1,11.7l-0.2-77.3L544.3,348v161c0,11.3,2.9,22.5,8.8,32.1
		c5.5,8.9,14.3,18.1,28.5,23.8c12.8,5.1,26.9,5.8,40.3,2.8c0.4-0.1,0.9-0.2,1.4-0.3c26.4-6.2,46.6-28.3,46.6-55.4v-58.3
		c0-10.7-4.8-21.4-10.9-30.3c-7.8-11.4-25.9-23.9-48.6-24.7C609.6,398.8,608.7,398.7,607.8,398.6z M639.5,513
		c0,18.8-11,27.9-30.3,29.7c-17,1.5-33.8-13.8-33.8-30.9v-53.5c0-17.1,12.9-31.7,29.9-33.1c19.1-1.5,33.7,13.9,33.7,32.7L639.5,513z
		"/>
	<path id="XMLID_74_" class="st0" d="M517.5,664.5c-0.5-0.1-2.2-0.4-4.5,1.7l0-11.3l-4.4,2.2v23.4c0,1.6,0.4,3.3,1.2,4.7
		c0.8,1.3,2,2.6,4,3.5c1.8,0.7,3.8,0.8,5.7,0.4c0.1,0,0.1,0,0.2,0c3.7-0.9,6.6-4.1,6.6-8.1v-8.5c0-1.6-0.7-3.1-1.5-4.4
		c-1.1-1.7-3.6-3.5-6.8-3.6C517.8,664.6,517.7,664.6,517.5,664.5z M522,681.2c0,2.7-1.5,4.1-4.3,4.3c-2.4,0.2-4.8-2-4.8-4.5v-7.8
		c0-2.5,1.8-4.6,4.2-4.8c2.7-0.2,4.7,2,4.7,4.8L522,681.2z"/>
	<path id="XMLID_35_" class="st0" d="M259.7,575.5V462.3c0-13.4-1.8-26.6-9-37.9c-23.8-37.1-67.1-25.6-67.1-25.6
		c-44.7,12.7-48,51.5-48,51.5v60.3c0,26.2,19.1,49.7,44.5,56.4c6.1,1.6,10.2,1.7,10.2,1.7c32,2.2,39.7-12.1,39.7-12.1v18.8
		c-0.6,13.7-8.2,20.9-15.3,24.7c-5.1,2.7-10.9,4-16.6,4h-34.2l-13.2,26.5h49c11.8,0,23.5-3.1,33.6-9.4
		C260.1,604.2,259.7,575.5,259.7,575.5z M229.9,511.6c0,17.9-13.5,31.6-31.5,31.6s-32.6-13.5-32.6-31.4V457
		c0-17.9,14.7-32.6,32.6-32.6s31.5,14.8,31.5,32.8V511.6z"/>
	<polygon id="XMLID_15_" class="st0" points="88.8,655.5 84.4,657.5 84.4,690 88.8,687.5 	"/>
	<path id="XMLID_48_" class="st0" d="M95.8,688.8v-18.3c0-0.3,0.1-0.6,0.2-0.9c0.6-1.4,2.7-5.2,8.3-5.2c0,0,7-0.2,8.1,5.7v16.9
		l-3.3,1.8l0.2-17c0-0.2,0-0.5-0.1-0.7c-0.3-0.9-0.3-3.4-5-3.4c0,0-4,0-4.5,3.6l-0.1,15.5L95.8,688.8z"/>
	<path id="XMLID_49_" class="st0" d="M119.7,688.8v-18.3c0-0.4,0.1-0.7,0.2-1.1c0.6-1.5,2.8-5.1,8.2-5.1c0,0,7-0.2,8.1,5.7v16.9
		l-3.3,1.8l0.2-17.3c0,0,0.3-3.8-5.2-3.8c0,0-4.6,0-4.5,3.6l-0.1,15.5L119.7,688.8z"/>
	<path id="XMLID_56_" class="st0" d="M257.2,688.8v-18.2c0-0.4,0.1-0.8,0.2-1.1c0.7-1.5,2.8-5.1,8.2-5.1c0,0,7-0.2,8.1,5.7v16.9
		l-3.3,1.8l0.2-17.3c0,0,0.4-3.8-5.2-3.8c0,0-4.6,0-4.5,3.6l-0.1,15.5L257.2,688.8z"/>
	<g id="XMLID_86_">
		<path id="XMLID_87_" class="st0" d="M150.8,688.7c-6.7,0-9.4-3.8-9.4-8.7v-6.7c0-4.8,2.7-8.7,9.4-8.7c6.7,0,9.4,3.8,9.4,8.7v6.7
			C160.2,684.9,157.6,688.7,150.8,688.7z M150.8,668.1c-3.6,0-5.4,1.7-5.4,5.1v7c0,3.4,1.8,5.1,5.4,5.1c3.6,0,5.4-1.7,5.4-5.1v-7
			C156.2,669.8,154.4,668.1,150.8,668.1z"/>
	</g>
	<g id="XMLID_82_">
		<path id="XMLID_83_" class="st0" d="M242.6,688.7c-6.7,0-9.4-3.8-9.4-8.7v-6.7c0-4.8,2.7-8.7,9.4-8.7c6.7,0,9.4,3.8,9.4,8.7v6.7
			C252,684.9,249.3,688.7,242.6,688.7z M242.6,668.1c-3.6,0-5.4,1.7-5.4,5.1v7c0,3.4,1.8,5.1,5.4,5.1c3.6,0,5.4-1.7,5.4-5.1v-7
			C248,669.8,246.2,668.1,242.6,668.1z"/>
	</g>
	<g id="XMLID_50_">
		<path id="XMLID_73_" class="st0" d="M348.5,688.7c-6.7,0-9.4-3.8-9.4-8.7v-6.7c0-4.8,2.7-8.7,9.4-8.7c6.7,0,9.4,3.8,9.4,8.7v6.7
			C357.9,684.9,355.3,688.7,348.5,688.7z M348.5,668.1c-3.6,0-5.4,1.7-5.4,5.1v7c0,3.4,1.8,5.1,5.4,5.1c3.6,0,5.4-1.7,5.4-5.1v-7
			C353.9,669.8,352.1,668.1,348.5,668.1z"/>
	</g>
	<g id="XMLID_70_">
		<g id="XMLID_101_">
			<path id="XMLID_102_" class="st0" d="M191.1,674.4c2.8,0,4.9,1,5.7,2v-2.7c0-3.1-2.1-4.8-5.3-4.8c-2.7,0-4.9,1-6.4,1.9l-1.3-2.4
				c1.5-0.9,4.4-2.4,8.1-2.4c6,0,8.3,3.3,8.3,8v14.4h-2.9l-0.4-1.8c-1.1,1.3-3,2.4-5.9,2.4c-4.8,0-8.3-3-8.3-7.3
				C182.7,677.4,186.2,674.4,191.1,674.4z M191.6,686.1c3.2,0,5.4-1.9,5.4-4.5c0-2.7-2.2-4.5-5.5-4.5c-3.3,0-5.5,1.9-5.5,4.5
				C186.1,684,188.2,686.1,191.6,686.1z"/>
		</g>
	</g>
	<polygon id="XMLID_51_" class="st0" points="162.3,665.7 165.6,663.7 171.6,682.9 178.1,663.8 181.3,666 174.2,686.9 170,689.5 	
		"/>
	<polygon id="XMLID_53_" class="st0" points="213.1,655 208.1,657.6 208.1,665.4 204.4,665.4 203.1,669 208.1,669 208.1,689.5 
		213.1,686.4 213.1,668.9 216.9,669 218.5,665.3 213.1,665.3 	"/>
	<polygon id="XMLID_58_" class="st0" points="406.5,655 401.5,657.6 401.5,665.4 397.8,665.4 396.6,669 401.5,669 401.5,689.5 
		406.5,686.4 406.5,668.9 410.3,669 411.9,665.3 406.6,665.3 	"/>
	<polygon id="XMLID_52_" class="st0" points="227.1,664.4 222.3,666.7 222.3,689.5 227.4,684.4 	"/>
	<path id="XMLID_61_" class="st0" d="M314.9,668.1l3.9-2.5c0,0,0.6-10-10.4-10c0,0-10.4,0.6-10.4,8.7v17.4c0,0,0.9,7.1,8.9,7.1
		c0,0,11.9,0.3,11.9-8.1v-10.5h-9.7l-2.8,4h8.5v7.1c0,0-2.4,3.7-6.4,3.7c0,0-6,0.9-6.8-5.6v-15c0,0,0.4-4.4,6.8-4.4
		C308.4,659.9,314.9,658.6,314.9,668.1z"/>
	<path id="XMLID_54_" class="st0" d="M325.8,688.8v-18c0,0,0.1-3.3,5.1-6.4h6.2l-1.8,4.7h-4.5c0,0-1.6,1.2-1.3,3.2v14.3L325.8,688.8
		z"/>
	<path id="XMLID_63_" class="st0" d="M367.3,663.2l-4,2.6v16.6c0,0,0.6,6.4,8.1,6.4c0,0,3,0.4,7.4-3.9c0,0,1.4,3.9,7.9,3.9
		c0,0,5.5,0.7,7-6.5v-18.6l-4,1.9v16.8c0,0-0.8,2.7-4.3,2.7c0,0-4.6,0.5-4.7-3.5v-18.4l-4.2,2.2v16.7c0,0-1,2.9-5.4,2.9
		c0,0-3.4,0.6-3.6-3.6L367.3,663.2z"/>
	<path id="XMLID_67_" class="st0" d="M420.3,655l-4.3,2.1v32.4l4.8-3v-16.2c0,0,2.1-2.1,5.2-2.1c0,0,3.4-0.5,3.4,4v17.3l4.3-2.3
		v-16.6c0,0,0-6.3-8.9-6.3c0,0-1-0.4-4.1,2.5L420.3,655z"/>
	<polygon id="XMLID_62_" class="st0" points="460.9,655 456.2,657.3 456.2,690.1 460.9,686.7 460.9,674 472.9,674 472.9,690.1 
		477.8,686.2 477.8,655 472.7,657.7 472.7,670 460.8,670 	"/>
</g>
</svg>
