<svg xmlns="http://www.w3.org/2000/svg" xmlns:xlink="http://www.w3.org/1999/xlink" viewBox="0 0 1000 1000"><defs><linearGradient id="a" x1="383.33" y1="819.82" x2="668.66" y2="819.82" gradientUnits="userSpaceOnUse"><stop offset="0" stop-color="#020f58"/><stop offset="0.18" stop-color="#02125c"/><stop offset="0.34" stop-color="#031b67"/><stop offset="0.51" stop-color="#042b7b"/><stop offset="0.67" stop-color="#064196"/><stop offset="0.84" stop-color="#095db9"/><stop offset="1" stop-color="#0c7fe3"/><stop offset="1" stop-color="#0c80e4"/></linearGradient><linearGradient id="b" x1="462.2" y1="60.98" x2="275.31" y2="285.25" gradientUnits="userSpaceOnUse"><stop offset="0" stop-color="#0c80e4"/><stop offset="0.24" stop-color="#0858b2"/><stop offset="0.47" stop-color="#06388b"/><stop offset="0.68" stop-color="#04226f"/><stop offset="0.86" stop-color="#02145e"/><stop offset="1" stop-color="#020f58"/></linearGradient><linearGradient id="c" x1="819.45" y1="129.3" x2="385.41" y2="536.05" gradientUnits="userSpaceOnUse"><stop offset="0" stop-color="#020f58"/><stop offset="0.1" stop-color="#02125b"/><stop offset="0.19" stop-color="#031a65"/><stop offset="0.26" stop-color="#042776"/><stop offset="0.34" stop-color="#063b8e"/><stop offset="0.41" stop-color="#0854ad"/><stop offset="0.47" stop-color="#0b72d2"/><stop offset="0.5" stop-color="#0c80e4"/><stop offset="0.57" stop-color="#0c7cdf"/><stop offset="0.67" stop-color="#0b6fd0"/><stop offset="0.77" stop-color="#095bb6"/><stop offset="0.87" stop-color="#073f94"/><stop offset="0.98" stop-color="#031b67"/><stop offset="1" stop-color="#031560"/></linearGradient><linearGradient id="d" x1="294.23" y1="614.08" x2="716.74" y2="614.08" gradientUnits="userSpaceOnUse"><stop offset="0.1" stop-color="#d2ae66"/><stop offset="0.17" stop-color="#cda453"/><stop offset="0.36" stop-color="#f2e8d3"/><stop offset="0.39" stop-color="#f8f2e6"/><stop offset="0.48" stop-color="#f0e3ca"/><stop offset="0.65" stop-color="#e1c897"/><stop offset="0.8" stop-color="#d6b472"/><stop offset="0.92" stop-color="#cfa85b"/><stop offset="1" stop-color="#cda453"/></linearGradient><radialGradient id="e" cx="465.66" cy="453.96" r="148.37" gradientUnits="userSpaceOnUse"><stop offset="0" stop-color="#0c80e4"/><stop offset="1" stop-color="#020f58"/></radialGradient></defs><title>Nigeria-Logo</title><path d="M674.43,636.85C660,766.52,636.79,906.19,618.27,959.12c0,0-50.77,33.72-119.68,32.21-80.37,1.31-126-35.54-126-35.54a53.49,53.49,0,0,0,10.74,3.54c16.93,10.3,56.4,29.49,114.21,28.55,67.56,1.48,117.34-31.58,117.34-31.58,17.63-50.35,39.59-180.75,53.78-304.59Q671.56,644.39,674.43,636.85Z" style="fill:#cda453"/><path d="M668.66,651.71C654.47,775.55,632.51,906,614.88,956.3c0,0-49.78,33.06-117.34,31.58-57.81.94-97.28-18.25-114.21-28.55C419.78,967.93,543.56,969.32,668.66,651.71Z" style="fill:url(#a)"/><path d="M494.08,62.78s-2.36,1.79-6.6,5.57C429.45,70.18,310.58,84,310.58,84c-8.54,118.28-8.21,267.89-7.67,327q-2.78,10-5.44,20.31s-3.54-201.82,7.35-352.66C304.82,78.66,442.92,62.57,494.08,62.78Z" style="fill:#cda453"/><path d="M487.48,68.35C461.44,91.53,364.3,189.69,302.91,411c-.54-59.09-.87-208.7,7.67-327C310.58,84,429.45,70.18,487.48,68.35Z" style="fill:url(#b)"/><ellipse cx="500" cy="487.49" rx="490.15" ry="211.44" transform="translate(-92.05 857.79) rotate(-76.3)" style="fill:#fff"/><path d="M392.74,247s83.9-130.1,163.09-130.1,102.08,101.28,102.08,199c3.88,101.35-37,258.08-90.12,382.75,0,0,132.58-205.24,132.58-448.51C700.37,151.88,668,44,597,44,495.06,44,392.74,247,392.74,247Z" style="fill:url(#c)"/><path d="M297.71,613.12c0,71.75,19.3,234.23,113.85,234.23,180.21,0,288.81-416,304.64-554.82,10.27,162-127.83,643.1-318,643.1C265.32,935.63,297.71,613.12,297.71,613.12Z" style="fill:url(#d)"/><path d="M596.61,452s19.21-16.86,21.17-34.11c4.77-42-48.23-100-127.81-100V606.07S615.82,601,625.63,496.69C628.47,466.47,596.61,452,596.61,452Zm-61.56-75.84c27.71,0,44.46,19.64,44.46,34.94a23.14,23.14,0,0,1-14.66,23.25h-29.8Zm48.42,147.19c-15.09,22.35-48.42,25.48-48.42,25.48v-69c46.27-4.7,49.46,4.22,52,10.39C590.07,497.34,589.81,513.16,583.47,523.35Z" style="fill:url(#e)"/><path d="M471.41,317.91V606.07a217.33,217.33,0,0,1-44.24-4.49L361,423.38V574.94a163.34,163.34,0,0,1-35.1-30.1l.75-166.54a167.56,167.56,0,0,1,44.9-35.54l58,137.36V321.94A217.53,217.53,0,0,1,471.41,317.91Z" style="fill:url(#e)"/></svg>