<svg id="Layer_1" data-name="Layer 1" xmlns="http://www.w3.org/2000/svg" viewBox="0 0 144.46 43.74"><defs><style>.cls-1{fill:#202020;}.cls-2{fill:#f2912e;}</style></defs><path class="cls-1" d="M3.76,8.11a19.77,19.77,0,0,0,.5-4.18,1.81,1.81,0,0,1,1.6-2h.5c1.6.1,4.1-.1,6.3-.1s4.8.1,6.2,1.79A5.81,5.81,0,0,1,20,7.12a7.75,7.75,0,0,1-3.4,6.18,9,9,0,0,1-4.3,1.39c2.1.3,6,.9,6,5.48A7.3,7.3,0,0,1,16.46,25c-.9,1.1-3,3.59-9.1,3.59a25.38,25.38,0,0,1-3-.1c-.8,0-1.5-.1-2.3-.1h-.5a1.62,1.62,0,0,1-1.5-2.09c.2-.9.5-2.09.9-4Zm.8,14.55a12.33,12.33,0,0,0-.3,1.8c0,1.39,1.2,1.49,3,1.49,5.8,0,6.9-4,6.9-6.08,0-3.78-3.5-3.78-4.7-3.78-.6,0-1.3,0-3.6.1Zm1.9-9.36c.8,0,1.8.1,3.7,0a10.15,10.15,0,0,0,2.5-.6,5.4,5.4,0,0,0,3.3-5c0-3.19-2.7-3.49-4.5-3.49a18.41,18.41,0,0,0-3.3.3Z" transform="translate(0 -0.84)"/><path class="cls-1" d="M67.26,22.86c-.6.5-.2,1.59-.4,2.89,0,.2-.1.4-.1.6a2.09,2.09,0,0,1-2.2,1.79A1.45,1.45,0,0,1,63,26.45c0-.1.1-.3.1-.4.4-1.4.9-4.19,1.2-5.78l2.6-14.35c.1-.89.2-1.49.2-2,0-.9.1-1.89,1-1.89a5.07,5.07,0,0,0,1.3-.2,1.22,1.22,0,0,1,1.5,1.49c-.4,2.09-.8,3.79-1.3,6.58l-1.6,9a25.86,25.86,0,0,0,7.1-8.27c.1-.2.1-.3.2-.5.4-1,1-2.1,2.2-2.1h.4c1,0,1.9,1,1.4,1.8a45.71,45.71,0,0,1-5.6,7.07,17.79,17.79,0,0,0,1,3.49c1.3,4,2.8,5.38,4.2,6.58a.72.72,0,0,1-.4,1.29h-.3a4.06,4.06,0,0,1-3.4-1.49c-1.2-1.5-2.2-2.69-3.6-7.38Z" transform="translate(0 -0.84)"/><path class="cls-1" d="M86.36,19.17a67.87,67.87,0,0,0-1.1,7.28,2.07,2.07,0,0,1-2.1,1.79h-.3a1.42,1.42,0,0,1-1.3-1.89c.2-.8.4-1.9.7-3.59l.7-3.69a58.25,58.25,0,0,0,1.2-8.76c0-.9.2-1.9,1.1-2,.5-.1,1-.1,1.4-.2a1.26,1.26,0,0,1,1.4,1.6c-.1.7-.4,1.79-.7,3.39Zm3-16.54c0,1.2-.9,3.09-2.6,3.09A1.8,1.8,0,0,1,85,3.83c0-1.1.8-3,2.6-3A1.68,1.68,0,0,1,89.36,2.63Z" transform="translate(0 -0.84)"/><path class="cls-1" d="M92.26,15a27.23,27.23,0,0,0,.6-4.88v-.2c0-.9.3-1.8,1.1-1.9a5.83,5.83,0,0,0,1.3-.19,1.25,1.25,0,0,1,1.5,1.49c-.1.7-.6,3.19-.9,4.48.7-1,1.6-3.58,2.7-4.48a8.31,8.31,0,0,1,5.2-1.89c2.1,0,4.8.79,4.8,3.88a20.65,20.65,0,0,1-.4,3.29l-.9,5.18a59.94,59.94,0,0,0-.9,6.48,2.08,2.08,0,0,1-2.1,1.89H104a1.36,1.36,0,0,1-1.4-1.59c.3-1.2.7-3,1.4-6.68l.4-2.49c.9-5.08,1.2-7-2.4-7A6.63,6.63,0,0,0,97.16,13c-1.4,1.79-1.8,4.28-2.1,6.37l-.7,4.39a16.6,16.6,0,0,0-.3,2.69A2.07,2.07,0,0,1,92,28.24h-.3a1.39,1.39,0,0,1-1.5-1.59,25.41,25.41,0,0,0,.9-4.49Z" transform="translate(0 -0.84)"/><path class="cls-1" d="M126.46,25.15c-1,5.38-1.7,9.47-6.9,11.46a19.28,19.28,0,0,1-8.9.8,1.3,1.3,0,0,1-.9-1.9,1.79,1.79,0,0,1,2.2-.89,8.07,8.07,0,0,0,2.5.3,7.46,7.46,0,0,0,5.7-2.2c1.8-1.69,2.5-5.48,3.6-10.86-1,1.5-3.5,6.78-7.2,6.78a5.19,5.19,0,0,1-4.6-2.49,7.53,7.53,0,0,1-1-4c0-6,4.2-14.74,12.2-14.74a9.92,9.92,0,0,1,4.2,1,6.89,6.89,0,0,0,.8-.3c.8-.29,1.5.6,1.3,1.5a57.49,57.49,0,0,0-1.2,5.78Zm-3.9-15.24c-6.6,0-7.9,8.07-7.9,11.06a5.84,5.84,0,0,0,.7,3.09,3,3,0,0,0,2.7,1.49,5.37,5.37,0,0,0,4.3-2.69c1.4-2.19,2-5.08,3.4-12.16A5.75,5.75,0,0,0,122.56,9.91Z" transform="translate(0 -0.84)"/><path class="cls-1" d="M135.06,18.78c-1-.6-3-1.8-3-4.39a6.65,6.65,0,0,1,3-5.28A10.59,10.59,0,0,1,141,7.42a8.26,8.26,0,0,1,2.4.3,1.55,1.55,0,0,1,1,2.09,1.5,1.5,0,0,1-2.1.6,4.81,4.81,0,0,0-2.2-.4c-2.8,0-4.4,1.79-4.4,3.29s1.4,2.39,2.8,3.18l1.9,1.2a4.48,4.48,0,0,1,2.7,4,6.46,6.46,0,0,1-2.9,5.38,10.41,10.41,0,0,1-6.3,1.69,10.59,10.59,0,0,1-2.7-.3,1.83,1.83,0,0,1-1.3-2.39,1.39,1.39,0,0,1,1.9-.7,7.85,7.85,0,0,0,3.2.6c3,0,4.5-1.59,4.5-3.19,0-1.29-1-2-2.2-2.69Z" transform="translate(0 -0.84)"/><path class="cls-2" d="M49.76,6.52c-.9-.2-3-.6-3-.6s-2.9-2.29-5.5-2.29-5.5,2.29-5.5,2.29-2.1.4-3,.6a10.38,10.38,0,0,1,6.8,9.76,11,11,0,0,1-1.3,5.09h6A10.68,10.68,0,0,1,43,16.28,10.38,10.38,0,0,1,49.76,6.52Z" transform="translate(0 -0.84)"/><path class="cls-2" d="M28.66,7A9.75,9.75,0,0,0,19,16.68a9.7,9.7,0,0,0,19.4,0A9.75,9.75,0,0,0,28.66,7Zm0,15.74a6.08,6.08,0,1,1,6.1-6.08A6.11,6.11,0,0,1,28.66,22.76Z" transform="translate(0 -0.84)"/><path class="cls-2" d="M24.66,13.59a4.49,4.49,0,0,0,.2,5.68,5.41,5.41,0,0,1,5.4-7A4.64,4.64,0,0,0,24.66,13.59Z" transform="translate(0 -0.84)"/><path class="cls-2" d="M53.86,7a9.75,9.75,0,0,0-9.7,9.66A9.7,9.7,0,1,0,53.86,7Zm0,15.74A6.08,6.08,0,1,1,60,16.68,6.05,6.05,0,0,1,53.86,22.76Z" transform="translate(0 -0.84)"/><path class="cls-2" d="M52.36,12.3a5.41,5.41,0,0,1,5.4,7,4.49,4.49,0,0,0,.2-5.68A4.7,4.7,0,0,0,52.36,12.3Z" transform="translate(0 -0.84)"/><path class="cls-1" d="M38.86,37.61a12.3,12.3,0,0,0,.3,2,.75.75,0,0,1-.7.9h-.4a.82.82,0,0,1-.9-.8c0-.3-.1-.7-.1-1.3L37,36.81h-4.4l-.8,1.69c-.2.5-.4.8-.5,1.1a1.4,1.4,0,0,1-1.2.9h-.2c-.4,0-.7-.4-.5-.7.7-1.1,1.4-2.59,2.1-3.79.9-1.59,2.7-5.08,3.6-7a1.76,1.76,0,0,1,1.5-.8H37a1,1,0,0,1,1.1.9c.1.7.1,1.49.2,2.29Zm-5.7-2.1h3.7l-.3-3.58a21,21,0,0,0-.3-2.29c-.2.39-1.2,2.29-1.5,2.69Z" transform="translate(0 -0.84)"/><path class="cls-1" d="M42.66,30.63c.3-2,.8-3,1.7-3.58a4.55,4.55,0,0,1,2.3-.8.55.55,0,0,1,.5.8c-.2.39-.6.49-1.1.49-1.2.1-1.6,1.5-1.9,3.09h1.5a.5.5,0,0,1,.5.6.75.75,0,0,1-.7.5h-1.6l-1,5.68c-.1.6-.2,1.19-.3,1.69-.3,1.6-1,5.38-4.6,5.48-.4,0-.6-.4-.4-.8s.6-.49,1-.59a1.91,1.91,0,0,0,1.3-.7c.7-.8.9-2.29,1.4-4.68l1-6.18h-.2a.44.44,0,0,1-.4-.6.75.75,0,0,1,.7-.5C42.66,30.63,42.26,30.63,42.66,30.63Z" transform="translate(0 -0.84)"/><path class="cls-1" d="M46.76,33.92a9.11,9.11,0,0,0,.2-2c0-.4.2-.9.6-.9a.9.9,0,0,0,.5-.1.63.63,0,0,1,.8.7,21.14,21.14,0,0,0-.5,2.29,8.1,8.1,0,0,1,2-2.79,9.25,9.25,0,0,1,1-.5.53.53,0,0,1,.6.7,1.59,1.59,0,0,1-1.2.9,3.4,3.4,0,0,0-2.3,2.69,28.42,28.42,0,0,0-.8,4.38,1.06,1.06,0,0,1-1,.9h-.1a.71.71,0,0,1-.7-.8,2.92,2.92,0,0,0,.2-.9Z" transform="translate(0 -0.84)"/><path class="cls-1" d="M53.86,36.21a29.86,29.86,0,0,0-.5,3.39.91.91,0,0,1-1,.8h-.1a.69.69,0,0,1-.6-.9c.1-.4.2-.9.4-1.69l.3-1.7a34.58,34.58,0,0,0,.6-4.18c0-.4.1-.9.5-.9.2,0,.5-.1.7-.1a.59.59,0,0,1,.7.7,11.7,11.7,0,0,0-.3,1.59Zm1.4-7.77c0,.6-.4,1.5-1.2,1.5a.89.89,0,0,1-.9-.9c0-.5.4-1.4,1.2-1.4C55,27.54,55.26,27.84,55.26,28.44Z" transform="translate(0 -0.84)"/><path class="cls-1" d="M62.86,30.83a.59.59,0,0,1,.3.9c-.1.4-.6.4-.9.3a2,2,0,0,0-.8-.1c-2.4,0-3.8,2.39-3.8,4.88a2.79,2.79,0,0,0,1.1,2.49,2.82,2.82,0,0,0,1.5.4,4.3,4.3,0,0,0,1.2-.2c.3-.1.4.2.3.5a1.59,1.59,0,0,1-1,.8c-.3,0-.6.1-.9.1-2.6,0-4.2-1.5-4.2-3.89a6,6,0,0,1,6-6.18A2.4,2.4,0,0,1,62.86,30.83Z" transform="translate(0 -0.84)"/><path class="cls-1" d="M71.06,30.93a.59.59,0,0,1,.7.7c-.1.6-.3,1.49-.6,3.09l-.3,1.79a19.85,19.85,0,0,0-.4,3.19.77.77,0,0,1-.8.7.79.79,0,0,1-.8-.8c.1-.7.3-2,.3-2.29-.8,1.09-2,3.19-3.6,3.19-1.3,0-2.6-.9-2.6-3a8,8,0,0,1,2.9-6.08,4.76,4.76,0,0,1,2.9-1,5.33,5.33,0,0,1,1.9.4ZM70,32.13a4.31,4.31,0,0,0-1.5-.3c-3,0-3.8,3.78-3.8,5.28,0,1.19.4,2.09,1.6,2.09A2.61,2.61,0,0,0,68.36,38a8.71,8.71,0,0,0,1.2-3.49Z" transform="translate(0 -0.84)"/><path class="cls-1" d="M73.76,38.4a.9.9,0,0,1,.9.9,1.42,1.42,0,0,1-1.3,1.4.83.83,0,0,1-.9-.9A1.42,1.42,0,0,1,73.76,38.4Z" transform="translate(0 -0.84)"/><path class="cls-1" d="M84,30.83a.59.59,0,0,1,.3.9c-.1.4-.6.4-.9.3a2,2,0,0,0-.8-.1c-2.4,0-3.8,2.39-3.8,4.88a2.79,2.79,0,0,0,1.1,2.49,2.82,2.82,0,0,0,1.5.4,4.3,4.3,0,0,0,1.2-.2c.3-.1.4.2.3.5a1.59,1.59,0,0,1-1,.8c-.3,0-.6.1-.9.1-2.6,0-4.2-1.5-4.2-3.89a6,6,0,0,1,6-6.18A2.43,2.43,0,0,1,84,30.83Z" transform="translate(0 -0.84)"/><path class="cls-1" d="M92.26,31.53a3.42,3.42,0,0,1,.9,2.39c0,2.79-1.7,6.78-5.5,6.78a3.84,3.84,0,0,1-2.5-.9,3.42,3.42,0,0,1-1-2.69c0-2.89,1.8-6.48,5.6-6.48A3.49,3.49,0,0,1,92.26,31.53Zm-1.5.8a1.76,1.76,0,0,0-1.3-.5c-2.8,0-3.5,4.08-3.5,5.48,0,1.69.9,2.29,1.9,2.29,3.1,0,3.6-4.88,3.6-5.68A3.08,3.08,0,0,0,90.76,32.33Z" transform="translate(0 -0.84)"/><path class="cls-1" d="M105.16,30.63a1.71,1.71,0,0,1,1.9,1.8,12.7,12.7,0,0,1-.2,1.49l-.5,3c-.2,1.2-.3,2.09-.4,2.59a1.08,1.08,0,0,1-1,1h-.1a.69.69,0,0,1-.6-.9l.4-1.59.5-3.09a12.77,12.77,0,0,0,.2-1.7c0-1-.3-1.19-.7-1.19-.9,0-2,.5-2.7,2.39a28.11,28.11,0,0,0-1,5.08,1.06,1.06,0,0,1-1,.9.67.67,0,0,1-.7-.9c.1-.5.3-1.29.5-2.69l.2-1.2a18.13,18.13,0,0,0,.3-2.39c0-.89-.1-1.19-.8-1.19-1,0-2,.79-2.6,2.29a31.55,31.55,0,0,0-1,5.18,1,1,0,0,1-1,.9h-.1a.64.64,0,0,1-.6-.8,16,16,0,0,0,.3-1.59l.8-4.39a13.58,13.58,0,0,0,.2-1.59c0-.4.1-.9.5-1a4.33,4.33,0,0,0,.5-.1.63.63,0,0,1,.8.7c-.1.4-.3,1.49-.4,2.09a20.23,20.23,0,0,1,1.4-2.29,2.74,2.74,0,0,1,1.8-.8c1.9,0,1.9,2.29,1.9,3a8.57,8.57,0,0,1,1.5-2.19A2.22,2.22,0,0,1,105.16,30.63Z" transform="translate(0 -0.84)"/></svg>