<svg xmlns="http://www.w3.org/2000/svg" viewBox="0 0 1000 1000"><title>Nigeria-Logo</title><path d="M566.09,570.65c-8.8,0-16.41-2.38-22.82-7.24s-11.36-11.82-14.75-20.89-5.14-19.89-5.14-32.26a154,154,0,0,1,5.32-41.14L557.11,476A128,128,0,0,0,555,489.55c-.55,4.86-1.1,11.09-1.74,18.51l-.37,3.85c0,21.63,4.4,32.44,13.29,32.44,8.7,0,13.1-10.63,13.1-31.8a114,114,0,0,0-1.74-16.49,179,179,0,0,0-4.4-21.08l28-7.88c4.67,13,7,28.23,7,45.55,0,11.82-1.74,22.08-5.13,30.78s-8.34,15.49-14.57,20.26A37,37,0,0,1,566.09,570.65Z" style="fill:#bd2194"/><path d="M565.81,469.85A15.21,15.21,0,1,1,581,454.64,15.17,15.17,0,0,1,565.81,469.85Zm0-8.15a7.15,7.15,0,1,0-7.15-7.15A7.16,7.16,0,0,0,565.81,461.7Z" style="fill:#bd2194"/><path d="M31.21,450.15l26.12-4.21v27.12H88.67v21.81H57.33v32.44c0,5.5,1,9.89,2.93,13.1s5.78,5,11.64,5a48.27,48.27,0,0,0,8.71-.83,50.87,50.87,0,0,0,8.15-2.19l3.67,20.34A72.38,72.38,0,0,1,81.89,566a63,63,0,0,1-14.2,1.37c-7.15,0-13-1-17.69-2.93a27,27,0,0,1-11.18-8.06A29.57,29.57,0,0,1,33,543.8a75,75,0,0,1-1.65-16.31V450.15Zm78.63,115.09V433.56L136,429.35v44.17a67.94,67.94,0,0,1,6.78-1.65,40.68,40.68,0,0,1,8-.83c7.51,0,13.65,1,18.69,3a29,29,0,0,1,11.91,8.7,35.26,35.26,0,0,1,6.33,13.29,75.65,75.65,0,0,1,1.83,17.14v52H163.35V516.4c0-8.43-1.1-14.38-3.21-17.87s-6.13-5.22-12-5.22a30.92,30.92,0,0,0-6.6.64c-2,.37-3.85.83-5.5,1.29v70ZM248.21,547c2.56,0,5-.09,7.33-.18a40.19,40.19,0,0,0,5.59-.55v-19.8a45.35,45.35,0,0,0-4.77-.73,43.51,43.51,0,0,0-5.77-.37,53.58,53.58,0,0,0-6.87.46,18.19,18.19,0,0,0-5.69,1.65,9.66,9.66,0,0,0-3.84,3.3,9.17,9.17,0,0,0-1.38,5.22c0,4.13,1.38,6.87,4.12,8.52S243.44,547,248.21,547Zm-2.11-76.33c7.7,0,14.11.91,19.24,2.65a30.77,30.77,0,0,1,12.37,7.52,27.6,27.6,0,0,1,6.6,11.91,59.09,59.09,0,0,1,1.92,15.58v54.25c-3.75.82-8.88,1.74-15.57,2.93a151.88,151.88,0,0,1-24.2,1.65,79.63,79.63,0,0,1-16.21-1.56,35.3,35.3,0,0,1-12.56-5.13,23.4,23.4,0,0,1-8.06-9.35,32.83,32.83,0,0,1-2.84-14.2,27.39,27.39,0,0,1,3.2-13.65,23.82,23.82,0,0,1,8.71-8.89,40.65,40.65,0,0,1,12.46-4.86,68.78,68.78,0,0,1,14.57-1.47,86,86,0,0,1,9,.46,40.21,40.21,0,0,1,6.42,1.1v-2.47a14.8,14.8,0,0,0-4-10.72c-2.65-2.75-7.33-4-14-4a89.44,89.44,0,0,0-13.1,1,53.91,53.91,0,0,0-11.18,2.75l-3.3-21c1.56-.46,3.39-1,5.68-1.47s4.77-1,7.43-1.37,5.49-.74,8.52-1S243.07,470.68,246.1,470.68Zm63.78,5.59A150.92,150.92,0,0,1,349.1,471q11.67,0,19.51,3a28.75,28.75,0,0,1,12.37,8.7,34,34,0,0,1,6.51,13.29,70.66,70.66,0,0,1,1.92,17.14v52H363.3V516.4q0-12.64-3.3-17.87c-2.2-3.48-6.32-5.22-12.46-5.22-1.84,0-3.85.09-6,.28s-3.94.36-5.59.64v71.11H309.88Zm129.2,30.14c2.57-2.84,5.22-5.68,8-8.79s5.41-6.05,8-9,5-5.78,7.24-8.52,4.22-5,5.87-7h31.06C493,480.3,487,487.08,481.05,493.59s-12.37,13.19-19.34,20.06a108.4,108.4,0,0,1,10.82,11.27c3.75,4.4,7.33,8.89,10.81,13.57s6.69,9.34,9.62,14a141,141,0,0,1,7.33,12.83h-30c-1.83-3-4-6.42-6.42-10.08s-4.94-7.34-7.6-11a135.74,135.74,0,0,0-8.52-10.63A71.06,71.06,0,0,0,438.9,525v40.32H412.78V433.56l26.12-4.21v77.06Z" style="fill:#693d88"/><path d="M629.68,519.24a54.91,54.91,0,0,1,3.21-18.78,44.11,44.11,0,0,1,24.19-25.84,49.08,49.08,0,0,1,20-3.85,67.73,67.73,0,0,1,13.47,1.28,62.34,62.34,0,0,1,11.91,3.76L697,496.61a74.83,74.83,0,0,0-8.06-2.47,40.46,40.46,0,0,0-9.81-1c-7.69,0-13.47,2.38-17.22,7.14s-5.69,11.09-5.69,18.88c0,8.25,1.75,14.75,5.32,19.24s9.8,6.88,18.69,6.88a59,59,0,0,0,10.17-.92,42.17,42.17,0,0,0,10-2.84l3.67,21.35a61.56,61.56,0,0,1-11.37,3.3,76,76,0,0,1-15,1.37c-8.43,0-15.67-1.28-21.72-3.75a39.47,39.47,0,0,1-23.55-25.57A62.46,62.46,0,0,1,629.68,519.24ZM756.87,547c2.56,0,5-.09,7.33-.18a40,40,0,0,0,5.59-.55v-19.8a45.35,45.35,0,0,0-4.77-.73,43.41,43.41,0,0,0-5.77-.37,53.83,53.83,0,0,0-6.87.46,18.12,18.12,0,0,0-5.68,1.65,9.76,9.76,0,0,0-3.85,3.3,9.17,9.17,0,0,0-1.38,5.22c0,4.13,1.38,6.87,4.13,8.52S752.1,547,756.87,547Zm-2.11-76.33c7.7,0,14.11.91,19.24,2.65a30.81,30.81,0,0,1,12.38,7.52A27.69,27.69,0,0,1,793,492.76a58.67,58.67,0,0,1,1.93,15.58v54.25c-3.76.82-8.89,1.74-15.58,2.93a151.75,151.75,0,0,1-24.19,1.65,79.73,79.73,0,0,1-16.22-1.56,35.3,35.3,0,0,1-12.56-5.13,23.4,23.4,0,0,1-8.06-9.35,33,33,0,0,1-2.84-14.2,27.29,27.29,0,0,1,3.21-13.65,23.87,23.87,0,0,1,8.7-8.89,39.83,39.83,0,0,1,12.47-4.86,68.75,68.75,0,0,1,14.56-1.47,86.22,86.22,0,0,1,9,.46,40.26,40.26,0,0,1,6.41,1.1v-2.47a14.79,14.79,0,0,0-4-10.72c-2.66-2.66-7.33-4-14-4a89.47,89.47,0,0,0-13.11,1,54.07,54.07,0,0,0-11.18,2.75l-3.29-21c1.55-.46,3.39-1,5.68-1.47s4.76-1,7.42-1.37,5.5-.74,8.52-1A58.16,58.16,0,0,1,754.76,470.68Zm90.17,75.87c4.76,0,8.16-.46,10.17-1.37s2.93-2.75,2.93-5.41q0-3.16-3.85-5.5A70.22,70.22,0,0,0,842.46,529a118.14,118.14,0,0,1-11.09-4.77,34.16,34.16,0,0,1-8.52-5.86,23.91,23.91,0,0,1-5.41-8.16,30.09,30.09,0,0,1-1.92-11.36c0-8.61,3.2-15.49,9.62-20.53s15.21-7.51,26.48-7.51a84.45,84.45,0,0,1,16.13,1.46A85.77,85.77,0,0,1,880,475.44l-4.59,20.34c-3-1-6.32-2-9.89-2.84a54.19,54.19,0,0,0-12-1.19c-8.15,0-12.28,2.29-12.28,6.88a7.3,7.3,0,0,0,.55,2.84,5.63,5.63,0,0,0,2.11,2.38,32.27,32.27,0,0,0,4.31,2.47c1.83.92,4.12,1.84,6.87,2.93a114.8,114.8,0,0,1,14.2,6.24,33.31,33.31,0,0,1,8.89,6.69,20.63,20.63,0,0,1,4.59,8,34.49,34.49,0,0,1,1.28,10.17c0,9.07-3.39,16-10.27,20.71s-16.49,7-28.95,7a85.68,85.68,0,0,1-20.44-2.1,79.12,79.12,0,0,1-11.27-3.49l4.4-21.16a87.37,87.37,0,0,0,13.65,4.12A101.05,101.05,0,0,0,844.93,546.55Zm58.55,18.69V433.56l26.12-4.21v44.17a67.25,67.25,0,0,1,6.78-1.65,40.66,40.66,0,0,1,8-.83c7.52,0,13.66,1,18.7,3a29,29,0,0,1,11.91,8.7,35.1,35.1,0,0,1,6.32,13.29,70.35,70.35,0,0,1,1.83,17.14v52H957V516.4c0-8.43-1.1-14.38-3.21-17.87s-6.14-5.22-12-5.22a30.92,30.92,0,0,0-6.6.64c-2,.37-3.85.83-5.5,1.29v70Z" style="fill:#693d88"/></svg>