<svg width="1008" height="174" xmlns="http://www.w3.org/2000/svg"><path d="M49.56 173.932c-9.912 0-19.43-2.085-28.556-6.254-9.125-4.17-16.127-9.715-21.004-16.638l21.948-18.644c3.304 3.304 7.552 6.372 12.744 9.204 5.192 2.832 10.463 4.248 15.812 4.248 11.17 0 16.756-3.147 16.756-9.44 0-2.832-1.455-5.153-4.366-6.962-2.91-1.81-8.3-4.209-16.166-7.198-14.947-5.035-25.803-10.423-32.568-16.166-6.765-5.743-10.148-13.806-10.148-24.19 0-10.541 4.287-18.88 12.862-25.016 8.575-6.136 19.234-9.204 31.978-9.204 18.25 0 33.355 6.687 45.312 20.06L71.98 85.904c-7.395-6.765-15.104-10.148-23.128-10.148-9.44 0-14.16 2.596-14.16 7.788 0 4.877 7.867 9.283 23.6 13.216 5.664 1.888 10.345 3.658 14.042 5.31 3.697 1.652 7.749 4.012 12.154 7.08 4.405 3.068 7.749 6.883 10.03 11.446 2.281 4.563 3.422 9.833 3.422 15.812 0 11.8-4.366 21.004-13.098 27.612-8.732 6.608-20.493 9.912-35.282 9.912zM133.104 38.94c-5.35 0-9.99-1.927-13.924-5.782-3.933-3.855-5.9-8.457-5.9-13.806 0-5.35 1.927-9.912 5.782-13.688S127.597 0 133.104 0s10.148 1.849 13.924 5.546 5.664 8.3 5.664 13.806c0 5.35-1.888 9.951-5.664 13.806-3.776 3.855-8.417 5.782-13.924 5.782zM115.876 171.1V50.504h34.22V171.1h-34.22zm58.056 0V50.504h34.22V61.36c1.573-3.147 4.405-6.215 8.496-9.204 4.09-2.99 8.89-4.484 14.396-4.484 9.44 0 17.385 3.383 23.836 10.148l-4.484 31.152c-6.608-5.507-13.767-8.26-21.476-8.26-13.845 0-20.768 8.339-20.768 25.016V171.1h-34.22zm106.2-132.16c-5.35 0-9.99-1.927-13.924-5.782-3.933-3.855-5.9-8.457-5.9-13.806 0-5.35 1.927-9.912 5.782-13.688S274.625 0 280.132 0s10.148 1.849 13.924 5.546 5.664 8.3 5.664 13.806c0 5.35-1.888 9.951-5.664 13.806-3.776 3.855-8.417 5.782-13.924 5.782zM262.904 171.1V50.504h34.22V171.1h-34.22zm131.452 0v-11.092c-7.552 9.283-18.565 13.924-33.04 13.924-4.877 0-9.597-.747-14.16-2.242-4.563-1.495-8.968-3.894-13.216-7.198-4.248-3.304-7.67-8.024-10.266-14.16-2.596-6.136-3.894-13.295-3.894-21.476V50.504H354v62.776c0 9.597 1.416 16.599 4.248 21.004 2.832 4.405 7.867 6.608 15.104 6.608 7.237 0 12.547-2.203 15.93-6.608 3.383-4.405 5.074-11.25 5.074-20.532V50.504h34.22V171.1h-34.22zm99.12 2.832c-9.912 0-19.43-2.085-28.556-6.254-9.125-4.17-16.127-9.715-21.004-16.638l21.948-18.644c3.304 3.304 7.552 6.372 12.744 9.204 5.192 2.832 10.463 4.248 15.812 4.248 11.17 0 16.756-3.147 16.756-9.44 0-2.832-1.455-5.153-4.366-6.962-2.91-1.81-8.3-4.209-16.166-7.198-14.947-5.035-25.803-10.423-32.568-16.166-6.765-5.743-10.148-13.806-10.148-24.19 0-10.541 4.287-18.88 12.862-25.016 8.575-6.136 19.234-9.204 31.978-9.204 18.25 0 33.355 6.687 45.312 20.06l-22.184 18.172c-7.395-6.765-15.104-10.148-23.128-10.148-9.44 0-14.16 2.596-14.16 7.788 0 4.877 7.867 9.283 23.6 13.216 5.664 1.888 10.345 3.658 14.042 5.31 3.697 1.652 7.749 4.012 12.154 7.08 4.405 3.068 7.749 6.883 10.03 11.446 2.281 4.563 3.422 9.833 3.422 15.812 0 11.8-4.366 21.004-13.098 27.612-8.732 6.608-20.493 9.912-35.282 9.912zm67.26-2.832V16.756L594.956.708V171.1h-34.22zm127.204 0v-8.968c-7.237 7.867-17.228 11.8-29.972 11.8-13.373 0-24.269-3.422-32.686-10.266-8.417-6.844-12.626-16.638-12.626-29.382 0-12.43 4.877-21.987 14.632-28.674 9.755-6.687 21.161-10.03 34.22-10.03 11.328 0 20.139 1.416 26.432 4.248V93.22c0-5.507-1.73-9.715-5.192-12.626-3.461-2.91-8.26-4.366-14.396-4.366-13.059 0-25.96 4.248-38.704 12.744l-10.62-26.196c14.79-10.07 32.017-15.104 51.684-15.104 34.141 0 51.212 15.733 51.212 47.2V171.1H687.94zm-23.364-25.96c8.496 0 16.284-2.832 23.364-8.496v-10.856c-6.293-1.888-13.137-2.832-20.532-2.832-14.16 0-21.24 3.855-21.24 11.564 0 7.08 6.136 10.62 18.408 10.62zm134.992 28.792c-10.07 0-17.464-4.012-22.184-12.036v9.204h-34.22V16.048l34.22-15.34v58.528c5.507-7.71 13.53-11.564 24.072-11.564 14.475 0 26.432 5.743 35.872 17.228 9.44 11.485 14.16 26.747 14.16 45.784 0 20.139-4.641 35.715-13.924 46.728-9.283 11.013-21.948 16.52-37.996 16.52zm-3.776-33.04c6.923 0 12.233-2.675 15.93-8.024 3.697-5.35 5.546-12.744 5.546-22.184 0-9.597-1.849-16.992-5.546-22.184s-9.007-7.788-15.93-7.788c-8.024 0-14.16 2.596-18.408 7.788v44.84c3.933 5.035 10.07 7.552 18.408 7.552zm112.808 33.04c-9.912 0-19.43-2.085-28.556-6.254-9.125-4.17-16.127-9.715-21.004-16.638l21.948-18.644c3.304 3.304 7.552 6.372 12.744 9.204 5.192 2.832 10.463 4.248 15.812 4.248 11.17 0 16.756-3.147 16.756-9.44 0-2.832-1.455-5.153-4.366-6.962-2.91-1.81-8.3-4.209-16.166-7.198-14.947-5.035-25.803-10.423-32.568-16.166-6.765-5.743-10.148-13.806-10.148-24.19 0-10.541 4.287-18.88 12.862-25.016 8.575-6.136 19.234-9.204 31.978-9.204 18.25 0 33.355 6.687 45.312 20.06L931.02 85.904c-7.395-6.765-15.104-10.148-23.128-10.148-9.44 0-14.16 2.596-14.16 7.788 0 4.877 7.867 9.283 23.6 13.216 5.664 1.888 10.345 3.658 14.042 5.31 3.697 1.652 7.749 4.012 12.154 7.08 4.405 3.068 7.749 6.883 10.03 11.446 2.281 4.563 3.422 9.833 3.422 15.812 0 11.8-4.366 21.004-13.098 27.612-8.732 6.608-20.493 9.912-35.282 9.912zm92.984-5.9c-4.09 3.933-9.125 5.9-15.104 5.9-5.979 0-10.974-1.967-14.986-5.9-4.012-3.933-6.018-8.81-6.018-14.632 0-5.821 2.006-10.777 6.018-14.868 4.012-4.09 9.007-6.136 14.986-6.136 5.979 0 11.053 2.045 15.222 6.136 4.17 4.09 6.254 9.047 6.254 14.868s-2.124 10.699-6.372 14.632z" fill="#000" fill-rule="evenodd"/></svg>