<svg xmlns="http://www.w3.org/2000/svg" xml:space="preserve" width="497.609" height="194.315"><defs><clipPath clipPathUnits="userSpaceOnUse" id="a"><path d="M0 145.736h373.207V0H0Z"/></clipPath></defs><g clip-path="url(#a)" transform="matrix(1.33333 0 0 -1.33333 0 194.315)"><path d="M0 0c2.405 0 4.66.979 6.541 2.405v15.11c-7.817-.752-12.33-4.66-12.33-10.901C-5.789 2.783-3.982 0 0 0m24.429-1.353v-.752L9.921-5.261H9.17L6.992.524C2.856-3.307-2.027-5.261-6.765-5.261c-7.065 0-11.802 3.681-11.802 9.243 0 8.722 9.921 14.585 25.108 15.109v4.887c0 5.038-4.136 8.419-10.449 8.419-4.136 0-3.982.169-7.667-1.107l-.297 1.053c5.258 3.607 8.939 5.238 15.252 5.238 9.247 0 15.938-4.811 15.938-12.099V1.052Z" style="fill:#231f20;fill-opacity:1;fill-rule:nonzero;stroke:none" transform="translate(56.638 56.706)"/><path d="M0 0c0 13.306 9.096 22.175 22.475 22.175 5.412 0 10.823-1.353 14.354-3.157l-.524-8.646-.829.151-12.172 9.397c-6.468 0-10.226-6.391-10.226-17.137 0-10.677 4.888-17.815 12.855-17.815 4.058 0 8.869 1.125 11.952 3.006l.752-.829c-4.437-4.282-10.226-7.816-19.095-7.816C7.817-20.671 0-12.404 0 0" style="fill:#231f20;fill-opacity:1;fill-rule:nonzero;stroke:none" transform="translate(77.385 72.115)"/><path d="M0 0v-.848l-13.66-3.905h-.752l-2.255 6.01c-4.513-3.982-9.771-6.01-14.581-6.01-7.293 0-12.554 4.811-12.554 12.1v25.797l12.026 2.409h.752V8.85c0-4.811 2.779-7.967 6.992-7.967 2.852 0 5.033.902 6.992 2.555v28.114l-4.587 2.629v.752l16.609 3.16h.751V1.561Z" style="fill:#231f20;fill-opacity:1;fill-rule:nonzero;stroke:none" transform="translate(159.448 56.199)"/><path d="M0 0v-.752h-22.398V0l4.51 2.255v25.482c0 4.81-2.857 7.967-7.143 7.967-3.006 0-5.261-1.053-7.292-2.934.304-1.048.451-2.254.451-3.53V2.255L-26.985 0v-.752H-49.16V0l4.51 2.255v25.482c0 4.81-2.856 7.967-7.138 7.967-2.783 0-4.965-.902-6.842-2.479V2.332L-53.742 0v-.752h-22.402V0l4.737 2.255v32.547l-4.587 2.632v.752l15.483 3.157h.752l.751-5.94c4.514 3.908 9.698 5.94 14.435 5.94 5.335 0 9.544-2.479 11.498-6.618 4.737 4.286 10.226 6.618 15.26 6.618 7.366 0 12.704-4.811 12.704-12.103V2.332Z" style="fill:#231f20;fill-opacity:1;fill-rule:nonzero;stroke:none" transform="translate(232.305 52.948)"/><path d="m0 0 14.508.674c0 10.6-2.259 15.411-7.069 15.411C2.629 16.085.301 10.974 0 0m21.327-17.553.678-.825c-4.587-4.286-6.371-6.125-15.614-6.125-11.726 0-19.546 8.268-19.546 20.668 0 13.305 8.568 22.174 21.272 22.174 11.502 0 19.091-7.967 19.091-19.919H0v-.752c0-9.921 4.961-16.535 13.155-16.535 4.209 0 5.015-.567 8.172 1.314" style="fill:#231f20;fill-opacity:1;fill-rule:nonzero;stroke:none" transform="translate(241.853 75.948)"/><path d="M0 0v-.752h-22.626V0l4.738 2.255v25.482c0 4.81-2.934 7.967-7.366 7.967-3.011 0-5.339-.979-7.366-2.629V2.255L-27.513 0v-.752h-22.626V0l4.738 2.255v32.547l-4.587 2.632v.752l15.487 3.157h.752l.751-6.013c4.66 3.908 9.999 6.013 14.959 6.013 7.516 0 12.928-4.811 12.928-12.103V2.255Z" style="fill:#231f20;fill-opacity:1;fill-rule:nonzero;stroke:none" transform="translate(316.044 52.948)"/><path d="M0 0c-4.074 0-6.68 2.54-6.68 6.41 0 3.743 2.606 6.279 6.68 6.279s6.676-2.536 6.676-6.279C6.676 2.54 4.074 0 0 0" style="fill:#ef4136;fill-opacity:1;fill-rule:nonzero;stroke:none" transform="translate(328.46 51.576)"/></g></svg>