<svg width="160" height="160" viewBox="0 0 160 160" fill="none" xmlns="http://www.w3.org/2000/svg">
<path d="M18.4112 102.368H16.1736L15.4039 102.214H15.3283C12.2532 94.2591 10.6865 85.8009 10.7082 77.2721C10.7165 74.7259 10.8608 72.1821 11.1406 69.6514L11.2184 69.9216L11.5643 70.7669L11.9103 71.729L12.6042 73.0779L12.9112 73.8476L13.2571 74.4616L14.1435 75.7328L14.643 76.3489L15.0753 76.9652L18.3485 80.1972L18.9235 80.6988L20.2337 81.583L20.8823 82.0154L23.4614 83.5547L24.4235 83.9006L26.4644 84.6702L27.1562 85.0183L27.8047 85.2475L28.5744 85.4399L29.344 85.6712L30.0381 85.8636L30.8077 86.017L31.6919 86.1338L32.4616 86.2096L32.9631 86.3651L33.2312 86.7111L33.1166 87.403L32.7707 88.0969L32.5394 88.8666L31.9232 90.1356L31.4909 90.9074L31.145 91.6771L30.7125 92.3689L30.3666 92.9461L29.4435 94.3318L29.0954 94.7642L28.5571 95.5339L28.1247 96.2258L27.6923 96.8419L27.1929 97.4192L25.4634 99.1487L24.27 99.994L23.6214 100.426L22.3135 101.196L21.6217 101.542L20.6963 101.89L19.9267 102.158L19.157 102.236L18.4112 102.368Z" fill="#3AB795"/>
<path d="M17.2948 66.76L17.1024 65.9904L17.0245 65.1429V62.834L17.2169 61.2947L17.3705 60.4104L17.6407 59.2949L18.073 58.0259L18.5055 56.986L18.8514 56.3374L19.621 55.451L20.6609 54.5278L21.8543 53.7583L23.1255 53.0664L24.4335 52.634L25.5144 52.4416L26.3987 52.3638L27.5142 52.4416L28.8611 52.634L29.9767 52.9043L30.7463 53.2112L31.4381 53.5572L32.0153 54.0198L32.7072 54.5192L33.2455 55.0964L33.6779 55.559L34.1102 56.1363L34.5426 56.8282L34.8886 57.5978L35.2345 58.521L35.6668 59.5608L35.9371 60.3305L36.2441 61.8697L36.4365 62.9852L36.59 64.0252L36.7046 64.8727L36.7824 65.9125V70.5305L36.59 71.5314V72.301L36.3587 74.6489L36.2441 75.4964L36.1663 76.4973L36.0127 77.613L35.4744 79.9219L35.1674 80.884L34.5513 81.4611L33.8595 81.5758L33.0898 81.3833L32.2424 81.2298L30.0804 80.538L29.233 80.1921L28.7335 80.0385L27.7715 79.6063L27.2721 79.4139L26.4246 78.9815L25.8084 78.549L25.1167 78.1166L24.5394 77.6842L23.8476 77.146L23.2314 76.6465L22.0381 75.4531L21.6921 75.0207L21.1149 74.4046L20.075 73.2113L19.7291 72.5194L19.2967 71.7497L18.8644 71.1726L18.5185 70.4807L18.1725 69.7111L17.9023 69.0192L17.4028 67.48L17.2948 66.76Z" fill="#3AB795"/>
<path d="M142.651 106.876C137.063 118.69 128.248 128.684 117.225 135.704C106.201 142.725 93.4171 146.486 80.3478 146.554C67.2785 146.622 54.4562 142.993 43.3602 136.088C32.2642 129.182 23.3465 119.28 17.6357 107.524H17.8671L18.6367 107.407L19.521 107.332L20.0225 107.254L20.8678 107.176L21.6396 106.908L22.4093 106.755L23.1789 106.484L23.8707 106.292L24.6404 106.061L25.3344 105.715L26.104 105.282L27.1417 104.666L28.0671 104.167L28.7588 103.734L29.9522 102.695L31.0678 101.579L31.5694 101.147L32.1855 100.569L32.7628 100.031L33.3011 99.4537L33.7335 98.7598L34.7734 97.5664L35.1949 96.9524L35.6965 96.1806L36.0424 95.7482L36.8899 94.3624L37.2358 93.5927L37.6681 92.8232L37.9363 92.3908L39.2075 89.8116L39.6399 88.8106L39.9079 88.0409L40.6019 86.6552L41.1013 86.2227L41.7953 86.0693L42.5649 85.9525L43.4102 85.799L44.2966 85.5309L45.0663 85.3753L45.7149 85.1828L46.4067 84.9538L47.2542 84.4911L47.7925 84.3375L48.64 83.9896L49.3318 83.7214L50.1014 83.4144L51.6407 82.6426L52.0731 82.3746L52.9206 82.0286L53.5367 81.6438L53.4589 81.873L53.3054 82.6426L52.7671 84.1841L52.6136 84.8326L52.4579 85.6023L52.1898 86.372L51.9975 87.1415L51.8418 87.8356L51.4958 89.3749L51.2278 90.1445L50.9186 91.6082L50.6505 92.3777L50.3025 93.9171L50.2268 94.6868L50.0344 95.3785L49.9566 96.1482L49.6864 96.92L49.5328 97.6896L49.2648 98.4593L49.1869 99.2289L49.0334 99.9207L48.7632 100.69L48.6097 101.46L48.3394 102.23L48.2638 102.999L47.9178 104.541L47.9935 105.578L48.4259 106.348L49.1956 106.696L50.2355 106.85L51.5823 106.772L53.0438 106.426L54.1615 105.734L54.7777 104.962L55.1236 104.193L55.1992 103.423L55.3549 102.653L55.4306 101.884L55.9689 99.5749L56.1246 98.6517L56.317 98.1891L56.5483 97.2659L56.6629 96.4963L56.8163 95.7266L56.9699 95.0326L57.2401 94.2629L57.4325 93.4934L57.6639 92.7237L57.8563 91.954L58.0876 90.8385L58.3556 89.7986L58.6259 89.029L58.9718 88.2593L59.6204 86.9125L59.8885 86.1407L60.3208 85.4488L60.6689 84.757L61.1683 84.0631L61.7067 83.2934L62.0526 82.861L62.5541 82.1691L63.0535 81.592L63.4859 80.9758L64.1021 80.3986L64.8717 79.7045L65.9872 78.7814L67.1806 77.8971L67.8746 77.4649L68.4908 77.0325L69.1394 76.6865L69.909 76.3385L70.603 76.1093L72.1423 75.7612L72.9898 75.6467L73.7594 75.8391L74.4512 76.1093L75.1452 76.5417L75.6446 77.1211L75.9148 78.1588L75.9905 79.1987L75.7592 79.9683L75.4911 80.6168L75.1452 81.3087L74.7128 82.0027L74.2804 82.6167L73.7421 83.1961L72.7412 84.2338L69.6604 86.5427L68.6983 87.12L67.853 87.7361L65.6911 88.776L65.0425 89.2083L64.234 89.5543L63.3864 90.0538L62.8114 90.6698L62.5411 91.4395V92.2091L62.619 92.981V95.3591L62.8114 96.9006L62.8871 97.7459L62.9649 98.5155L63.3108 100.055L63.5811 100.824L63.8102 101.518L64.5042 102.98L65.3495 104.366L65.8121 104.943L66.3894 105.444L67.0055 105.905L67.6541 106.337L68.3459 106.685L69.1156 106.915L69.8095 107.185L70.5792 107.263L71.5412 107.338H72.9659L73.7356 107.263L74.5052 106.992L75.9667 106.56L76.6607 106.329L78.0465 105.444L79.2399 104.597L80.3554 103.481L80.9327 102.98L81.6245 102.288L83.5119 100.172L84.0113 99.5553L84.4437 98.9392L85.7408 96.9006L86.3181 96.053L86.9342 95.0909L87.7817 93.7441L88.1275 92.9744L88.56 92.0102L89.1761 90.8191L89.4074 90.3174L89.6366 89.9715L89.868 89.5391L89.9457 89.3857L90.2916 88.5771L90.7241 87.7297L91.1564 86.8065L91.6169 85.7666L91.9261 84.9969L92.3887 84.035L92.8103 83.034L93.0416 82.2643L93.3119 81.5724L93.5799 80.8029L94.3518 78.762L94.5809 77.9923L94.7733 77.3005L94.929 76.5287L95.1971 75.7591L95.3506 74.9894L95.6986 74.2197L96.3905 74.0273L97.0844 74.5657L97.5839 75.1451L98.9697 76.6844L99.469 77.3762L100.316 78.762L100.509 79.763L100.239 81.0709L99.8063 81.9961L98.881 83.3821L98.1892 84.5732L97.6877 85.2671L96.9958 86.1903L96.4575 87.1134L96.0251 87.922L95.4479 88.7696L94.8317 89.6927L94.3993 90.4623L93.8999 91.4244L93.4675 92.3496L93.1217 93.1193L92.8514 93.8111L92.5812 94.5808L92.2353 97.6615V98.4312L92.352 99.2008L92.5055 99.9705L92.659 100.816L92.8514 101.588L93.1973 102.279L93.5432 103.049L93.9756 103.665L94.4772 104.357L95.0155 104.859L95.5927 105.358L96.8639 106.206L97.7482 106.668L98.4422 106.897L100.135 107.245L101.25 107.321H103.214L104.061 107.167L104.753 106.975L105.522 106.744L106.216 106.398L106.986 106.052L108.372 105.358L109.141 104.859L109.79 104.357L110.83 103.319L111.446 102.818L112.447 101.588L113.063 100.74L113.755 99.817L114.756 98.4312L115.188 97.7825L115.227 98.3598L115.381 99.4754L115.495 100.323L115.727 101.438L116.265 102.71L116.767 103.672L117.199 104.363L117.631 104.941L118.825 105.981L119.439 106.413L120.133 106.683L120.902 106.912L121.903 107.183L122.943 107.336L123.789 107.453L125.328 107.26L126.446 106.99L127.831 106.558L129.1 105.981L130.062 105.364L130.756 104.932L131.334 104.5L131.948 103.998L132.449 103.46L133.065 102.958L133.498 102.344L133.997 101.767L134.43 101.151L134.968 100.574L135.815 99.3802L136.663 97.9945L137.084 97.3784L137.355 97.5707L137.277 98.6107L137.162 99.6916V100.578L137.277 101.694L137.508 102.695L137.778 103.464L138.356 104.426L138.972 105.274L139.588 105.773L140.165 106.206L140.935 106.476L141.973 106.744L142.651 106.876Z" fill="#3AB795"/>
<path d="M149.088 72.422L146.972 71.4599L146.047 71.2286L145.277 71.0362L143.392 70.6902L141.429 70.5368L139.699 70.4589H138.659L137.89 70.5368L135.773 70.6902L134.926 70.9584L133.886 71.2286L132.848 71.5355L132 71.9983L131.038 72.4976L130.037 72.93L129.268 73.2781L128.652 73.7105L127.96 74.1429L126.766 75.1049L125.843 75.7535L125.074 76.5231L123.88 77.563L123.264 78.2549L122.918 78.6007L121.801 79.872L121.301 80.4882L120.454 81.6816L120.021 82.3733L119.561 82.9506L119.128 83.6445L117.088 87.763L117.049 87.9165L116.819 88.6083L116.471 89.3023L116.435 89.378L115.933 90.2254L115.702 90.7638L115.269 91.5334L114.923 92.182L114.491 92.876L114.059 93.6457L113.598 94.2597L112.327 96.3004L110.788 98.1101L110.288 98.8018L109.748 99.3035L109.173 99.8028L108.479 100.341L107.21 101.189L106.594 101.621L105.824 101.967L105.054 102.237L104.282 102.391H102.667L101.781 102.237L101.132 101.805L100.516 101.266L100.084 100.497L99.6516 99.8028L99.3056 98.1101V97.2625L99.3813 96.4928L99.5737 95.7233L99.7293 94.8391L99.9218 94.0671L100.151 93.4186L100.421 92.649L101.885 89.7239L102.317 89.0299L102.819 88.3381L103.251 87.6896L103.789 86.9977L104.222 86.3815L104.654 85.6875L105.154 85.1104L106.001 83.7245L106.539 83.1473L106.885 82.4555L107.117 81.6858L107.233 80.9162L106.963 79.7985L106.693 78.7608L106.462 77.9911L105.577 76.642L105.078 76.028L104.462 75.5265L103.885 74.8346L103.537 74.4023L102.923 73.7083L101.805 72.5927L101.228 72.0934L100.266 70.9756L99.6883 70.2838L99.0722 69.7822L98.4949 69.1683L98.0625 68.591L97.8701 67.897V67.2052L98.0625 66.3578V64.0489L97.7944 63.2792L97.4658 62.5701L96.9664 62.0706L96.2746 61.608L95.5028 61.4545H94.7331L93.9635 61.608L93.2717 61.954L92.6555 62.4944L92.1561 63.0716L91.7237 63.6856L91.3757 64.4574L91.2222 65.2271V65.9968L91.3 66.7663L92.0696 69.0752L92.7615 70.4612L92.9171 71.1097V71.8794L92.7615 72.7636L92.4934 73.5332L92.3399 74.3028L92.1475 74.9514L91.9919 75.7211L91.6459 76.4908L91.4535 77.2603L91.2222 78.0689L91.0298 78.8386L90.3379 80.3779L90.1066 81.0264L89.8364 81.7961L89.4905 82.5658L89.2202 83.3353L88.9132 84.0272L88.5673 84.8747L88.2971 85.413L87.6053 86.9544L87.3739 87.7241L87.2962 87.9533L87.2572 87.9921L86.9113 88.7618L85.7958 90.9562L85.6422 91.3886L85.1796 92.2728L84.7472 92.9214L84.2478 93.5375L82.9766 95.5784L81.0914 98.1555L80.659 98.7715L79.5434 99.8893L78.3112 100.888L76.9642 101.774L76.2724 102.12L75.5006 102.352L74.6553 102.544H73.8078L72.6923 102.43L71.4989 101.928L70.3833 101.005L69.497 99.8893L68.9198 98.5792L68.6495 97.5782L68.496 96.8085L68.4203 95.6929L68.3036 94.3072L68.2279 93.1916L68.3036 92.4977L68.6495 91.9982L69.4191 91.5658L69.9596 91.488L70.8049 91.1421L71.5746 90.7963L72.2685 90.4503L72.8458 90.1022L74.1429 89.3326L74.7915 88.9002L75.4077 88.4678L76.6767 87.4279L77.2929 86.9286L77.7944 86.5805L78.4106 86.081L78.91 85.5427L79.4094 84.9655L79.9499 84.2716L80.3715 83.5797L80.9508 82.7322L81.4892 81.7701L81.8351 81.0006L82.0664 80.3519L82.3345 79.5823L82.5269 78.4668L82.6826 77.4269V76.6572L82.6047 75.8875L82.4123 75.1179L82.2588 74.4239L81.9129 73.6543L81.4806 72.9625L80.9422 72.3852L80.4406 71.9529L79.8634 71.4145L79.2472 70.9821L78.4776 70.7119L76.9383 70.4049H76.1687L73.7906 70.4827L72.9063 70.6363L72.1367 70.8286L71.5572 70.9821L70.7876 71.2523L70.0958 71.6848L68.0549 72.8024L66.6692 73.6478L65.8995 74.2639L65.2834 74.6963L64.7839 75.1287L63.6684 76.2443L63.236 76.8214L62.1961 78.0538L61.4265 79.0548H61.273L61.4265 78.5532L61.6189 77.7835L61.8502 77.014L62.1205 76.3221L62.6199 74.0132L62.8901 73.2435L63.236 72.5496L63.3895 71.7799L63.6598 71.0102L63.8521 70.2405L64.0057 69.5466L64.5051 68.0073L64.7753 67.3155L65.0455 66.5458L65.2747 65.8973L65.545 65.1276L65.8152 64.4358L66.3146 62.8944L66.8162 61.4329L67.3545 59.8936L67.5858 59.1996L67.8539 58.43L68.1241 57.5846L68.2776 57.083L68.6235 56.1988L68.816 55.4293L69.0473 54.7806L69.5856 53.2024L69.8169 52.5539L70.2493 51.7842L70.4417 51.2459L70.7876 50.4762L70.9433 49.7066L70.712 49.1294L70.0958 48.591L69.2483 48.2429L68.71 48.0895L67.7869 47.8192L67.0173 47.7436H66.2476L65.4758 47.8192L64.8618 48.3597L64.2846 49.205L63.8521 50.2449L63.5062 51.0146L63.1582 51.6632L62.8123 52.4327L62.5442 53.1246L62.1961 53.8186L61.9648 54.5103L61.6189 55.28L61.3508 55.974L61.0806 56.8194L60.9271 57.3209L60.5811 58.1684L60.4255 58.7823L60.0796 59.4763L59.7337 60.3238L59.4634 61.0935L59.2321 61.7853L59.0397 62.5549L58.7717 63.3246L58.5403 64.0185L58.3479 64.7882L58.1166 65.5579L57.9241 66.3274L57.7707 67.0193L57.2324 68.5608L56.5837 70.6773L56.3135 71.447L56.0454 72.1388L55.5439 73.678L55.3515 74.372L54.8521 76.6809L54.5818 77.4506L54.4672 77.989L54.3137 77.8743L53.6197 77.9522L52.8501 78.2981L52.0805 78.7304L51.5789 78.9986L50.8093 79.431L49.8472 79.7768L48.7316 80.2092L47.8085 80.5551L46.1914 80.9875L45.653 81.1799L44.7278 81.4113L43.9581 81.6037H42.996L42.4966 81.0653V80.1422L42.7647 79.3725L42.9204 78.6007L42.996 77.9089L43.1128 77.1393L43.2663 76.2918L43.4198 75.1763L43.6122 74.1363L43.7657 73.3668V72.4436L43.8824 71.9053V70.98L44.0359 70.2882L44.1137 69.5185L44.2283 68.6711V67.9014L44.0359 66.3621V65.5925L43.9581 64.8228L43.8824 63.9754L43.7657 63.437L43.69 62.5138L43.4198 61.4739L43.2663 60.3584L42.9204 58.8169L42.6502 58.0473L42.4188 57.3555L41.727 56.0087L41.3811 55.239L41.033 54.545L40.6006 53.9288L40.1682 53.237L39.7358 52.6598L38.696 51.4664L38.1187 50.9281L37.5026 50.4956L36.6573 49.9941L35.1937 49.1488L34.2705 48.6105L32.6923 48.1089L31.9227 47.763L30.8417 47.4928L29.804 47.3393L28.0744 47.2615L26.7275 47.0691H24.7645L23.7268 47.1469L22.8793 47.3393L21.8394 47.6096L20.7239 47.8386L19.9542 48.1089L17.5761 49.3023L16.3827 49.9941L16.1514 50.1865C22.2353 35.8673 32.9621 24.013 46.6039 16.5327C60.2457 9.05254 76.0083 6.38197 91.3527 8.95135C106.697 11.5207 120.73 19.1805 131.191 30.6967C141.652 42.2128 147.932 56.9149 149.019 72.4349L149.088 72.422Z" fill="#3AB795"/>
<path d="M149.241 78.625C149.125 86.5476 147.628 94.3892 144.815 101.797H144.66L143.814 101.364L143.382 100.672L143.304 99.5547L143.382 98.2576L143.613 96.8328L143.881 95.5357L144.074 94.6125L144.229 93.7262L144.497 92.7252L144.845 91.2637L144.999 90.4941L145.267 89.4542L145.345 88.9548L145.498 88.1073L146.037 86.568L146.192 85.874L146.46 85.1043L146.806 83.5651L147.038 82.7954L147.23 82.0257L147.461 81.334L147.386 80.5621L147.038 80.0628L146.389 79.6304L145.003 78.9385L144.234 78.7462L143.464 78.6683L142.694 78.8607L141.847 79.2931L141.309 80.0628L141.077 80.9102L140.731 81.8333L140.191 83.5629L139.884 84.486L139.614 85.2557L139.346 85.9496L138.997 86.7193L138.844 87.3356L138.498 88.1051L137.458 90.3363L137.112 90.8379L136.535 91.9534L135.997 92.8787L134.725 94.9563L134.293 95.5336L133.331 96.8307L132.899 97.408L132.399 98.0241L131.967 98.6014L131.467 99.2175L130.851 99.719L130.35 100.257L129.158 101.258L127.773 101.95L127.003 102.22L125.885 102.296L124.848 102.143L124.076 101.797L123.576 101.258L123.144 100.61L122.798 99.9179L122.528 99.1483L122.452 98.2618V95.8838L122.72 93.5749L122.952 92.7273L123.49 90.4184L123.838 89.7266L124.145 88.957L124.683 87.4155L125.116 86.7237L126.156 84.6828L126.588 83.9911L127.02 83.3748L128.058 82.1814L128.49 81.6043L128.992 80.9881L129.606 80.2962L129.954 79.9504L130.603 79.3731L131.219 78.8715L131.796 78.4089L132.49 77.9765L133.104 77.5441L133.951 77.0425L134.799 76.6102L136.961 75.8405L138.076 75.5724L138.924 75.4946L139.54 75.4189H141.233L142.08 75.5724L142.965 75.8405L144.389 76.1886L145.081 76.3421L145.851 76.6879L146.545 77.0339L147.161 77.2652L147.809 77.7279L148.579 78.1603L149.241 78.625Z" fill="#3AB795"/>
<path d="M15.3346 102.212L14.3725 102.02L13.2548 101.789L12.4851 101.518L11.8366 101.173L11.2204 100.74L10.027 99.7025L9.52547 99.1252L9.06495 98.5847L8.5634 97.9362L7.87163 96.5504L7.64025 95.7807L7.29433 94.6629L7.02409 93.2772L6.87063 92.1616L6.67824 91.3919L6.60039 90.6224V89.083L6.52471 88.2356V87.4659L6.67824 85.9267V85.2326L6.75603 84.463L6.94848 83.6934L7.02409 82.9237L7.17762 82.1541L7.44786 81.0386L7.7181 80.0376L7.87163 79.2679L8.14187 78.4982L8.48772 77.8043L8.83364 76.959L9.06495 76.4185L9.52547 75.303L9.95788 74.302V73.5323L9.52547 72.5702L8.83364 71.8785L8.14187 71.4461L7.44786 71.2148L6.67824 71.1001L5.75509 71.3682L4.86869 71.8698L4.43628 72.4838L4.00394 73.1777L3.65584 73.9474L3.30993 74.6392L2.96401 75.411L2.65484 76.0596L2.30892 76.8293L1.96307 77.7913L1.4247 79.4863L1.1156 80.4484L0.847472 81.2958L0.655084 82.0654L0.499445 82.7573L0.423769 83.5268L0.231315 84.3744L0.0778526 85.9136V88.2918L0 89.0615V90.7153L0.231315 93.0264L0.423769 93.796L0.499445 94.5657L0.655084 95.3354L1.19339 96.8746L1.4247 97.5664L1.77062 98.3361L2.04086 98.9847L2.46245 99.7544L2.96401 100.716L3.58017 101.564L4.07954 102.256L4.61792 102.757L5.19515 103.296L5.73563 103.797L6.38418 104.411L8.11376 105.605L8.88338 106.037L9.57522 106.268L10.3448 106.538L11.3458 106.806L13.5078 107.239L14.4698 107.317L15.4708 107.509H17.6327C16.7924 105.787 16.0264 104.021 15.3346 102.212Z" fill="#3AB795"/>
<path d="M89.6162 90.0487L89.8475 89.7029V89.625L89.6162 90.0487Z" fill="#3AB795"/>
<path d="M89.3915 90.4035L89.1602 90.9052L89.3525 90.5571L89.6206 90.0576L89.3915 90.4035Z" fill="#3AB795"/>
<path d="M116.831 88.5122L116.483 89.2041V89.2819L116.831 88.5878L117.061 87.8961L116.831 88.5122ZM159.901 88.0107L159.207 87.1265L158.207 86.973L157.437 87.4053L155.707 90.832L155.275 91.5238L154.929 92.1724L153.543 94.25L153.39 94.7515L152.888 95.4434L152.428 96.1373L151.58 97.3307L150.579 98.5241L149.541 99.6396L148.925 100.256L147.732 101.101L146.962 101.534L145.922 101.882L144.807 101.804C144.182 103.536 143.46 105.233 142.645 106.884L142.952 106.923H143.799L144.569 106.77L145.339 106.5L146.379 106.067L147.302 105.635L148.071 105.202L148.763 104.742L151.141 102.701L151.643 102.202L152.181 101.585L153.104 100.392L153.643 99.7759L154.144 99.1272L154.644 98.5112L155.076 97.8172L155.422 97.1254L155.854 96.4768L156.317 95.8606L157.164 94.5138L157.51 93.8219L157.856 93.0522L158.202 92.3583L158.635 91.7422L159.067 90.8969L159.22 90.4645L159.653 89.617L159.999 88.8474L159.901 88.0107ZM152.702 75.078L152.203 74.4618L151.587 73.9625L151.009 73.5301L150.393 72.9917L149.096 72.4146C149.25 74.0317 149.289 75.6466 149.289 77.2637C149.289 77.7264 149.289 78.1501 149.25 78.6106L149.289 78.6495L149.98 78.9197L150.674 78.8419L151.597 78.2258L152.56 77.1881L152.905 75.9947L152.702 75.078Z" fill="#3AB795"/>
</svg>
