<svg width="160" height="160" fill="none" xmlns="http://www.w3.org/2000/svg"><path d="M18.411 102.368h-2.237l-.77-.154h-.076a68.69 68.69 0 01-4.62-24.942c.008-2.546.153-5.09.433-7.62l.077.27.346.845.346.962.694 1.349.307.77.346.614.886 1.27.5.617.432.616 3.274 3.232.575.502 1.31.884.648.432 2.58 1.54.962.346 2.04.77.692.347.649.23.77.192.769.231.694.193.77.153.884.117.77.076.501.155.268.346-.114.692-.346.694-.232.77-.616 1.269-.432.771-.346.77-.433.692-.345.577-.924 1.386-.348.432-.538.77-.432.692-.433.616-.5.577-1.729 1.73-1.193.845-.649.432-1.307.77-.692.346-.926.348-.77.268-.769.078-.746.132zM17.295 66.76l-.193-.77-.078-.847v-2.309l.193-1.54.154-.884.27-1.115.432-1.27.433-1.039.345-.649.77-.886 1.04-.923 1.193-.77 1.271-.692 1.308-.432 1.081-.192.885-.078 1.115.078 1.347.192 1.116.27.77.307.691.346.577.463.692.5.538.576.433.463.432.577.433.692.346.77.345.923.433 1.04.27.77.307 1.539.193 1.115.153 1.04.115.848.077 1.04v4.618l-.192 1v.77l-.231 2.348-.115.847-.078 1.001-.153 1.116-.539 2.309-.307.962-.616.577-.692.115-.77-.193-.847-.153-2.162-.692-.847-.346-.5-.153-.962-.433-.499-.192-.847-.433-.617-.432-.691-.432-.578-.433-.691-.538-.617-.5-1.193-1.193-.346-.432-.577-.616-1.04-1.194-.346-.692-.432-.77-.433-.576-.346-.692-.346-.77-.27-.692-.5-1.539-.107-.72zM142.651 106.876a69.318 69.318 0 01-99.29 29.212 69.323 69.323 0 01-25.725-28.564h.231l.77-.117.884-.075.502-.078.845-.078.772-.268.77-.153.769-.271.692-.192.77-.231.693-.346.77-.433 1.038-.616.925-.499.692-.433 1.193-1.039 1.116-1.116.501-.432.616-.578.578-.538.538-.577.432-.694 1.04-1.194.422-.614.502-.771.345-.433.848-1.386.346-.77.432-.769.268-.432 1.272-2.58.432-1 .268-.77.694-1.386.5-.432.693-.154.77-.117.845-.153.887-.268.77-.156.648-.192.692-.23.847-.462.538-.153.848-.348.692-.269.77-.307 1.539-.771.432-.268.848-.346.616-.385-.078.229-.154.77-.538 1.541-.153.649-.156.77-.268.769-.192.77-.156.694-.346 1.539-.268.77-.31 1.463-.267.77-.349 1.54-.075.769-.193.692-.077.77-.27.771-.154.77-.268.77-.078.769-.154.692-.27.769-.153.77-.27.77-.076.769-.346 1.542.075 1.037.433.77.77.348 1.04.154 1.346-.078 1.462-.346 1.117-.692.617-.772.346-.769.075-.77.156-.77.076-.769.538-2.31.156-.922.192-.463.231-.923.115-.77.153-.77.154-.693.27-.77.192-.77.232-.77.192-.769.232-1.115.268-1.04.27-.77.346-.77.648-1.347.269-.771.432-.692.348-.692.5-.694.538-.77.346-.432.501-.692.5-.577.432-.616.616-.577.77-.695 1.115-.923 1.194-.884.694-.432.616-.433.648-.346.77-.348.694-.229 1.54-.348.847-.114.77.192.691.27.694.433.5.58.27 1.037.075 1.04-.23.77-.269.648-.346.692-.432.694-.433.614-.538.58-1 1.037-3.082 2.309-.962.577-.845.616-2.162 1.04-.648.432-.809.346-.848.5-.575.616-.27.77v.77l.078.771v2.378l.192 1.542.076.845.078.77.346 1.539.27.769.23.694.693 1.462.846 1.386.462.577.577.501.617.461.648.432.692.348.77.23.694.27.77.078.961.075h1.425l.77-.075.77-.271 1.46-.432.695-.231 1.385-.885 1.194-.847 1.115-1.116.578-.501.691-.692 1.888-2.116.5-.617.432-.616 1.297-2.038.577-.848.616-.962.848-1.347.346-.77.432-.964.616-1.19.231-.503.23-.345.231-.433.078-.153.346-.809.432-.847.432-.924.46-1.04.31-.77.463-.961.421-1.001.232-.77.27-.692.268-.77.772-2.04.229-.77.192-.692.156-.771.268-.77.154-.77.348-.77.692-.192.693.539.5.58 1.386 1.538.499.692.847 1.386.193 1.001-.27 1.308-.433.925-.925 1.386-.692 1.191-.501.694-.692.923-.538.923-.433.809-.577.848-.616.923-.433.77-.5.961-.431.926-.346.77-.27.691-.27.77-.347 3.08v.77l.117.77.153.77.154.845.192.772.346.691.346.77.433.616.501.692.538.502.578.499 1.27.848.885.462.694.229 1.693.348 1.115.076h1.964l.847-.154.692-.192.769-.231.694-.346.77-.346 1.386-.694.769-.499.649-.502 1.04-1.038.616-.501 1.001-1.23.616-.848.692-.923 1.001-1.386.432-.648.039.577.154 1.115.114.848.232 1.115.538 1.272.502.962.432.691.432.578 1.194 1.04.614.432.694.27.769.229 1.001.271 1.04.153.846.117 1.539-.193 1.118-.27 1.385-.432 1.269-.577.962-.617.694-.432.578-.432.614-.502.501-.538.616-.502.433-.614.499-.577.433-.616.538-.577.847-1.194.848-1.385.421-.617.271.193-.078 1.04-.115 1.08v.887l.115 1.116.231 1.001.27.769.578.962.616.848.616.499.577.433.77.27 1.038.268.678.132z" fill="#3AB795"/><path d="M149.088 72.422l-2.116-.962-.925-.231-.77-.193-1.885-.346-1.963-.153-1.73-.078h-1.04l-.769.078-2.117.153-.847.268-1.04.27-1.038.308-.848.462-.962.5-1.001.432-.769.348-.616.432-.692.433-1.194.962-.923.648-.769.77-1.194 1.04-.616.692-.346.346-1.117 1.271-.5.616-.847 1.194-.433.691-.46.578-.433.694-2.04 4.118-.039.153-.23.692-.348.694-.036.076-.502.847-.231.539-.433.77-.346.648-.432.694-.432.77-.461.614-1.271 2.04-1.539 1.81-.5.692-.54.501-.575.5-.694.538-1.269.848-.616.432-.77.346-.77.27-.772.154h-1.615l-.886-.154-.649-.432-.616-.539-.432-.769-.432-.694-.346-1.693v-.847l.075-.77.193-.77.155-.884.193-.772.229-.648.27-.77 1.464-2.925.432-.694.502-.692.432-.648.538-.692.433-.617.432-.694.5-.577.847-1.385.538-.578.346-.692.232-.77.116-.769-.27-1.117-.27-1.038-.231-.77-.885-1.349-.499-.614-.616-.502-.577-.691-.348-.433-.614-.694-1.118-1.115-.577-.5-.962-1.117-.578-.692-.616-.502-.577-.614-.433-.577-.192-.694v-.692l.192-.847v-2.31l-.268-.769-.328-.709-.5-.5-.691-.462-.772-.153h-.77l-.77.153-.691.346-.617.54-.499.578-.432.614-.348.771-.154.77v.77l.078.77.77 2.308.692 1.386.155.649v.77l-.156.884-.268.77-.153.769-.193.648-.155.77-.346.77-.192.77-.232.808-.192.77-.692 1.539-.231.648-.27.77-.347.77-.27.77-.307.691-.346.848-.27.538-.692 1.541-.231.77-.078.23-.039.038-.346.77-1.115 2.194-.154.433-.462.884-.433.648-.5.616-1.27 2.041-1.886 2.578-.432.615-1.116 1.118-1.232.999-1.347.886-.692.346-.771.232-.846.192h-.847l-1.116-.114-1.193-.502-1.116-.923-.886-1.116-.577-1.31-.27-1-.154-.77-.076-1.116-.116-1.386-.076-1.115.076-.694.346-.5.77-.432.54-.078.845-.346.77-.346.694-.346.577-.348 1.297-.77.648-.432.617-.432 1.269-1.04.616-.5.501-.347.617-.5.499-.538.5-.578.54-.693.421-.692.58-.848.538-.962.346-.77.231-.648.269-.77.192-1.115.156-1.04v-.77l-.078-.77-.193-.77-.153-.693-.346-.77-.432-.691-.539-.578-.501-.432-.578-.538-.616-.433-.77-.27-1.539-.307h-.77l-2.377.078-.885.153-.77.193-.579.153-.77.27-.691.433-2.041 1.117-1.386.846-.77.616-.616.432-.5.433-1.115 1.115-.432.577-1.04 1.233-.77 1h-.153l.153-.5.193-.77.231-.77.27-.692.5-2.309.27-.77.346-.693.154-.77.27-.77.192-.77.154-.693.5-1.54.27-.692.27-.77.229-.648.27-.77.27-.691.5-1.542.501-1.461.538-1.54.232-.693.268-.77.27-.845.154-.502.346-.884.192-.77.231-.648.539-1.579.23-.648.433-.77.193-.538.346-.77.155-.77-.231-.577-.616-.538-.848-.348-.538-.154-.923-.27-.77-.075h-.77l-.771.075-.614.54-.577.846-.433 1.04-.346.77-.348.648-.346.77-.268.692-.348.694-.231.691-.346.77-.268.694-.27.845-.154.502-.346.847-.156.614-.345.694-.346.848-.27.77-.232.691-.192.77-.268.77-.232.694-.192.77-.231.769-.193.77-.153.691-.539 1.542-.648 2.116-.27.77-.269.692-.501 1.539-.192.694-.5 2.309-.27.77-.115.538-.153-.115-.694.078-.77.346-.77.432-.501.269-.77.432-.962.346-1.115.432-.923.346-1.618.432-.538.193-.925.231-.77.193h-.962l-.5-.539v-.923l.269-.77.155-.771.076-.692.117-.77.153-.847.154-1.116.192-1.04.154-.77v-.922l.116-.539v-.925l.154-.692.078-.77.114-.847v-.77l-.192-1.539v-.77l-.078-.77-.076-.847-.116-.538-.076-.923-.27-1.04-.154-1.116-.346-1.541-.27-.77-.231-.691-.692-1.347-.346-.77-.348-.694-.432-.616-.433-.692-.432-.577-1.04-1.194-.577-.538-.616-.432-.846-.502-1.463-.845-.924-.538-1.578-.502-.77-.346-1.08-.27-1.038-.154-1.73-.078-1.347-.192h-1.962l-1.038.078-.848.192-1.04.27-1.115.23-.77.27-2.378 1.193-1.193.692-.232.193A69.277 69.277 0 01149.02 72.434l.069-.013z" fill="#3AB795"/><path d="M149.241 78.625a68.079 68.079 0 01-4.426 23.172h-.155l-.846-.433-.432-.692-.078-1.117.078-1.297.231-1.425.268-1.297.193-.924.155-.886.268-1 .348-1.462.154-.77.268-1.04.078-.5.153-.847.539-1.539.155-.694.268-.77.346-1.539.232-.77.192-.77.231-.691-.075-.772-.348-.5-.649-.432-1.386-.691-.769-.193-.77-.078-.77.193-.847.432-.538.77-.232.847-.346.923-.54 1.73-.307.923-.27.77-.268.694-.349.77-.153.616-.346.77-1.04 2.23-.346.502-.577 1.115-.538.926-1.272 2.077-.432.578-.962 1.297-.432.577-.5.616-.432.577-.5.617-.616.501-.501.538-1.192 1.001-1.385.692-.77.27-1.118.076-1.037-.153-.772-.346-.5-.539-.432-.648-.346-.692-.27-.77-.076-.886v-2.378l.268-2.31.232-.847.538-2.309.348-.691.307-.77.538-1.541.433-.692 1.04-2.041.432-.692.432-.616 1.038-1.194.432-.577.502-.616.614-.692.348-.346.649-.577.616-.502.577-.462.694-.433.614-.432.847-.501.848-.433 2.162-.77 1.115-.268.848-.077.616-.076h1.693l.847.153.885.269 1.424.348.692.153.77.346.694.346.616.231.648.463.77.432.662.465zM15.335 102.212l-.963-.192-1.117-.231-.77-.271-.648-.345-.617-.433-1.193-1.037-.502-.578-.46-.54-.502-.649-.691-1.386-.232-.77-.346-1.117-.27-1.386-.153-1.115-.193-.77-.078-.77v-1.539l-.075-.847v-.77l.153-1.54v-.693l.078-.77.192-.77.076-.77.154-.769.27-1.115.27-1.001.154-.77.27-.77.346-.694.346-.845.23-.54.461-1.116.433-1.001v-.77l-.433-.962-.691-.691-.692-.433-.694-.231-.77-.115-.923.268-.886.502-.433.614-.432.694-.348.77-.346.691-.346.772-.31.649-.345.77-.346.961-.538 1.695-.31.962-.268.848-.192.77-.156.691-.075.77-.193.847-.153 1.54v2.378l-.078.77v1.653l.231 2.311.193.77.075.77.156.77.538 1.539.232.691.346.77.27.649.421.77.502.961.616.848.5.692.538.501.577.539.54.501.65.614 1.729 1.194.77.432.691.231.77.27 1 .268 2.163.433.962.078 1 .192h2.163a65.075 65.075 0 01-2.298-5.297zM89.616 90.049l.231-.346v-.078l-.23.424zM89.391 90.403l-.23.502.192-.348.268-.5-.23.346z" fill="#3AB795"/><path d="M116.831 88.512l-.348.692v.078l.348-.694.23-.692-.23.616zm43.07-.501l-.694-.885-1-.153-.77.432-1.73 3.427-.432.692-.346.648-1.386 2.078-.153.501-.502.692-.46.694-.848 1.194-1.001 1.193-1.038 1.116-.616.616-1.193.845-.77.433-1.04.348-1.115-.078a49.23 49.23 0 01-2.162 5.08l.307.039h.847l.77-.153.77-.27 1.04-.433.923-.432.769-.433.692-.46 2.378-2.041.502-.499.538-.617.923-1.193.539-.616.501-.649.5-.616.432-.694.346-.692.432-.648.463-.616.847-1.347.346-.692.346-.77.346-.694.433-.616.432-.845.153-.433.433-.847.346-.77-.098-.836zm-7.199-12.933l-.499-.616-.616-.5-.578-.432-.616-.538-1.297-.577c.154 1.617.193 3.232.193 4.849 0 .462 0 .886-.039 1.347l.039.038.691.27.694-.077.923-.616.963-1.038.345-1.193-.203-.917z" fill="#3AB795"/></svg>