<svg version="1.0" xmlns="http://www.w3.org/2000/svg"
 width="2560.000000pt" height="633.000000pt" viewBox="0 0 2560.000000 633.000000"
 preserveAspectRatio="xMidYMid meet">

<g transform="translate(0.000000,633.000000) scale(0.100000,-0.100000)"
fill="#000000" stroke="none">
<path d="M3025 5884 c-16 -2 -73 -9 -125 -15 -289 -33 -600 -129 -891 -274
-704 -354 -1245 -1040 -1430 -1815 -58 -247 -84 -601 -60 -855 87 -953 659
-1785 1516 -2205 395 -194 765 -280 1205 -280 509 0 968 124 1398 378 806 477
1308 1326 1339 2262 15 466 -76 887 -284 1308 -297 600 -813 1074 -1438 1319
-322 127 -641 184 -1005 181 -107 0 -208 -3 -225 -4z m-765 -1688 c373 -5 415
-11 563 -79 220 -102 411 -303 483 -508 20 -56 28 -107 35 -209 14 -202 42
-292 116 -366 76 -77 202 -109 388 -100 60 3 203 8 316 12 l206 5 6 -158 c4
-87 7 -199 7 -249 l0 -91 -61 -7 c-34 -3 -166 -6 -293 -6 -346 0 -504 29 -701
124 -323 158 -470 379 -520 780 -10 78 -23 137 -39 171 -43 94 -140 165 -272
200 -104 27 -261 35 -812 42 -298 3 -541 9 -540 13 2 4 83 103 180 221 l178
214 212 -2 c117 -1 364 -4 548 -7z m2761 -15 l96 -6 -151 -222 -151 -223 -422
0 c-248 0 -454 -4 -499 -11 -110 -15 -221 -52 -347 -115 -73 -36 -109 -50
-112 -41 -51 148 -108 242 -211 345 l-83 84 83 39 c46 21 123 52 172 68 140
45 267 68 529 95 56 6 979 -5 1096 -13z m9 -1326 l0 -715 -265 0 -265 0 -2
523 -3 522 -432 5 -433 5 158 187 157 187 543 0 542 1 0 -715z m-3340 330 l0
-345 268 0 c367 0 487 16 627 85 39 20 99 58 133 86 34 27 66 48 71 45 5 -3
14 -26 20 -52 20 -78 78 -180 140 -247 l60 -63 -41 -47 c-117 -138 -308 -216
-581 -238 -67 -5 -377 -12 -689 -16 l-568 -6 0 572 0 571 280 0 280 0 0 -345z
m3740 135 l0 -200 -160 0 -160 0 0 200 0 200 160 0 160 0 0 -200z"/>
<path d="M6780 4665 l0 -185 375 0 375 0 0 -1495 0 -1495 375 0 375 0 0 1495
0 1495 375 0 375 0 0 185 0 185 -1125 0 -1125 0 0 -185z"/>
<path d="M9400 3170 l0 -1680 375 0 375 0 0 750 0 750 375 0 375 0 0 -750 0
-750 375 0 375 0 0 1680 0 1680 -375 0 -375 0 0 -745 0 -745 -375 0 -375 0 0
745 0 745 -375 0 -375 0 0 -1680z"/>
<path d="M12400 3170 l0 -1680 935 0 935 0 0 185 0 185 -565 0 -565 0 2 563 3
562 373 3 372 2 0 185 0 185 -375 0 -375 0 0 560 0 560 565 0 565 0 0 185 0
185 -935 0 -935 0 0 -1680z"/>
<path d="M21380 3170 l0 -1680 375 0 375 0 0 1680 0 1680 -375 0 -375 0 0
-1680z"/>
<path d="M22880 4665 l0 -185 375 0 375 0 0 -1495 0 -1495 375 0 375 0 0 1495
0 1495 375 0 375 0 0 185 0 185 -1125 0 -1125 0 0 -185z"/>
</g>
</svg>
