<svg width="1568" height="588" fill="none" xmlns="http://www.w3.org/2000/svg"><path d="M656.124 414.292l-34.839-.175L770.316 48.782h8.071l146.399 365.51h-32.322l-39.89-99.964H696.052l-39.928 99.964zm52.006-130.751h132.289l-66.116-164.575-66.173 164.575zM1001.28 368.605a79.54 79.54 0 0 0 47.22 14.9c9.9.093 19.74-1.618 29.03-5.05a70.538 70.538 0 0 0 23.23-14.145 61.75 61.75 0 0 0 15.15-21.712 72.623 72.623 0 0 0 5.31-28.271 95.636 95.636 0 0 0-3.55-26.49 69.652 69.652 0 0 0-12.11-23.492 97.977 97.977 0 0 0-22.72-20.685 184.98 184.98 0 0 0-35.87-18.17c-26.59-10.449-46.78-23.35-60.578-38.701-13.793-15.351-20.697-35.127-20.71-59.328a78.983 78.983 0 0 1 6.058-30.96 73.787 73.787 0 0 1 17.168-24.905 80.395 80.395 0 0 1 26.772-16.66 96.051 96.051 0 0 1 34.83-6.057 88.811 88.811 0 0 1 43.18 10.604 81.241 81.241 0 0 1 30.97 29.78l-24.15 17.59c-12.12-18.19-28.78-27.278-50-27.265-14.8 0-26.91 4.373-36.34 13.12-9.44 8.746-14.15 20.188-14.15 34.327a58.017 58.017 0 0 0 14.17 39.127c9.43 10.926 26.09 21.246 49.97 30.96 32.32 12.797 55.64 28.529 69.95 47.196 14.31 18.666 21.43 41.668 21.36 69.003a109.466 109.466 0 0 1-7.08 39.63 90.817 90.817 0 0 1-20.61 32.121 97.174 97.174 0 0 1-33.58 21.46 124.725 124.725 0 0 1-45.7 7.74 121.953 121.953 0 0 1-63.869-17.415 106.162 106.162 0 0 1-43.161-49.228l27.27-19.679a97.935 97.935 0 0 0 32.54 40.655zM1551.41 303.801a184.957 184.957 0 0 1-68.22 80.926 185.056 185.056 0 0 1-202.88 0 184.957 184.957 0 0 1-68.22-80.926 177.38 177.38 0 0 1-14.65-72.177 177.462 177.462 0 0 1 14.65-72.196 184.993 184.993 0 0 1 68.23-80.906 185.057 185.057 0 0 1 101.43-30.27c36.04 0 71.29 10.52 101.43 30.27a184.993 184.993 0 0 1 68.23 80.906 177.122 177.122 0 0 1 14.65 72.196 177.037 177.037 0 0 1-14.65 72.177zm-307.74-12.113a149.465 149.465 0 0 0 80.04 80.284 150.937 150.937 0 0 0 58.06 11.611c19.93 0 39.67-3.946 58.06-11.611a150.126 150.126 0 0 0 47.73-32.063 151.889 151.889 0 0 0 32.96-49.753 151.913 151.913 0 0 0 11.23-58.609 151.906 151.906 0 0 0-11.23-58.609 151.893 151.893 0 0 0-32.96-49.754 149.853 149.853 0 0 0-47.73-32.044 150.951 150.951 0 0 0-58.06-11.61c-19.93 0-39.67 3.946-58.06 11.61a149.996 149.996 0 0 0-47.73 32.044 151.764 151.764 0 0 0-32.94 49.759 151.885 151.885 0 0 0-11.23 58.604 151.214 151.214 0 0 0 11.84 60.063l.02.078zM641.356 531.594a14.613 14.613 0 0 0 8.71 2.748 15.133 15.133 0 0 0 5.361-.929 12.951 12.951 0 0 0 4.277-2.612 11.415 11.415 0 0 0 2.787-3.986 13.307 13.307 0 0 0 .987-5.225 17.855 17.855 0 0 0-.658-4.876 12.649 12.649 0 0 0-2.226-4.334 17.953 17.953 0 0 0-4.199-3.87 34.916 34.916 0 0 0-6.62-3.368 29.039 29.039 0 0 1-11.071-7.062 15.717 15.717 0 0 1-3.871-10.933 14.47 14.47 0 0 1 1.123-5.805 13.754 13.754 0 0 1 3.155-4.606 14.874 14.874 0 0 1 4.935-3.057 17.424 17.424 0 0 1 6.426-1.123 16.144 16.144 0 0 1 7.955 1.936 14.747 14.747 0 0 1 5.806 5.495l-4.471 3.251a10.505 10.505 0 0 0-9.213-5.031 9.48 9.48 0 0 0-6.696 2.419 8.256 8.256 0 0 0-2.613 6.327 10.637 10.637 0 0 0 2.613 7.218 24.43 24.43 0 0 0 9.213 5.805c5 1.694 9.452 4.701 12.89 8.708a21.812 21.812 0 0 1 2.651 20.008 16.473 16.473 0 0 1-3.871 5.921 17.901 17.901 0 0 1-6.193 3.87 23.967 23.967 0 0 1-20.206-1.761 19.653 19.653 0 0 1-7.955-9.075l5.032-3.638a17.968 17.968 0 0 0 5.942 7.585zM679.582 540.03h-6.658l27.716-67.397h1.49l27.696 67.397h-6.657l-7.355-18.441h-28.877l-7.355 18.441zm9.58-24.11h24.407l-12.194-30.361-12.213 30.361zM722.781 474.297l5.961-1.664 21.794 54.452 21.716-54.452 5.961 1.664-27 65.791h-1.49l-26.942-65.791zM792.342 538.908h-6.349v-65.153h6.349v65.153zM812.896 538.908h-6.348v-65.636l1.935-.639 43.935 53.426v-52.246h6.329v65.618l-1.935.657-43.916-53.407v52.227zM930.96 519.693a32.48 32.48 0 0 1-6.058 10.604 28.037 28.037 0 0 1-9.503 7.121 29.745 29.745 0 0 1-12.755 2.612 33.358 33.358 0 0 1-23.651-9.675 34.636 34.636 0 0 1-7.258-10.7 34.282 34.282 0 0 1 0-26.627 33.845 33.845 0 0 1 31.277-20.376 32.777 32.777 0 0 1 15.367 3.619 34.566 34.566 0 0 1 11.613 9.501l-4.838 3.638a28.707 28.707 0 0 0-9.542-8.05 26.29 26.29 0 0 0-12.542-3.038 26.972 26.972 0 0 0-10.703 2.148 28.466 28.466 0 0 0-14.749 36.959 28.376 28.376 0 0 0 5.904 8.882 27.634 27.634 0 0 0 8.535 5.825 26.38 26.38 0 0 0 10.51 2.128c3.218.056 6.416-.53 9.406-1.722a21.98 21.98 0 0 0 7.219-4.702 24.02 24.02 0 0 0 4.897-6.986 26.448 26.448 0 0 0 2.323-8.553h-18.445v-5.689h25.161a43.365 43.365 0 0 1-2.168 13.081zM950.005 531.594a14.625 14.625 0 0 0 8.709 2.748 15.18 15.18 0 0 0 5.362-.929 12.97 12.97 0 0 0 4.277-2.613 10.924 10.924 0 0 0 2.787-3.986 13.302 13.302 0 0 0 .987-5.224 17.148 17.148 0 0 0-.658-4.877 12.649 12.649 0 0 0-2.226-4.334 17.938 17.938 0 0 0-4.2-3.87 34.649 34.649 0 0 0-6.599-3.367 29.024 29.024 0 0 1-11.187-7.121 15.708 15.708 0 0 1-3.871-10.933 14.452 14.452 0 0 1 1.122-5.805 13.769 13.769 0 0 1 3.155-4.606 14.874 14.874 0 0 1 4.935-3.057 17.43 17.43 0 0 1 6.426-1.122c2.78-.047 5.525.62 7.974 1.935a15.02 15.02 0 0 1 5.807 5.495l-4.471 3.251a10.57 10.57 0 0 0-9.232-5.031 9.486 9.486 0 0 0-6.697 2.419 8.265 8.265 0 0 0-2.613 6.327 10.642 10.642 0 0 0 2.613 7.218 24.58 24.58 0 0 0 9.213 5.805 29.612 29.612 0 0 1 12.909 8.708 20.312 20.312 0 0 1 3.871 12.713 20.573 20.573 0 0 1-1.297 7.295 16.775 16.775 0 0 1-3.871 5.921 17.877 17.877 0 0 1-6.193 3.87 23.932 23.932 0 0 1-20.187-1.76 19.608 19.608 0 0 1-7.974-9.076l5.032-3.638a17.977 17.977 0 0 0 6.097 7.644zM1055.18 542.082l-6.89-8.844a43.9 43.9 0 0 1-8.85 4.915 27.067 27.067 0 0 1-10.43 1.935c-4.67 0-9.17-1.746-12.62-4.895a16.36 16.36 0 0 1-3.87-5.36 15.486 15.486 0 0 1-1.41-6.599c-.01-2.031.33-4.049 1.02-5.96a19.79 19.79 0 0 1 2.95-5.263 35.98 35.98 0 0 1 4.47-4.741c1.78-1.59 3.66-3.07 5.63-4.431a54.412 54.412 0 0 1-5.96-8.746 15.624 15.624 0 0 1-1.94-7.16c-.02-1.948.34-3.881 1.07-5.689a13.525 13.525 0 0 1 3.02-4.509 14.008 14.008 0 0 1 4.66-2.98 15.724 15.724 0 0 1 5.81-1.064c1.84-.006 3.66.356 5.36 1.064a14.058 14.058 0 0 1 7.62 7.586 15.052 15.052 0 0 1 1.17 5.96c.02 1.775-.33 3.535-1.03 5.166a16.504 16.504 0 0 1-2.79 4.412 28.015 28.015 0 0 1-4.1 3.87 77.297 77.297 0 0 1-4.84 3.503l16.03 20.743a105.58 105.58 0 0 0 4.37-4.044 70.15 70.15 0 0 0 4.08-4.334l3.64 4.566a131.517 131.517 0 0 1-4.1 4.431 59.837 59.837 0 0 1-4.37 4.045l6.98 9.017-4.68 3.406zm-37.12-14.494c.54 1.37 1.36 2.61 2.42 3.638a12.187 12.187 0 0 0 3.87 2.477c1.7.644 3.5.959 5.32.929 2.67-.004 5.31-.578 7.74-1.684a38.854 38.854 0 0 0 7.41-4.373l-16.29-21.285a40.74 40.74 0 0 0-8.42 7.45 12.918 12.918 0 0 0-2.94 8.378c-.01 1.534.3 3.054.89 4.47zm19.74-47.041a7.634 7.634 0 0 0-5.81-2.515 7.742 7.742 0 0 0-6.33 2.554 9.369 9.369 0 0 0-2.15 6.192c0 1.017.18 2.026.53 2.98.36 1 .85 1.954 1.43 2.845.62.948 1.33 1.935 2.11 3.154.77 1.219 1.59 2.438 2.46 3.87a73.019 73.019 0 0 0 3.87-2.651 23.176 23.176 0 0 0 3.21-2.883 13.375 13.375 0 0 0 2.23-3.367c.57-1.27.85-2.652.83-4.045a8.7 8.7 0 0 0-2.42-6.134h.04zM1101.53 533.238h25.8v5.67h-32.13v-65.153h6.33v59.483zM1194.55 519.635a34.139 34.139 0 0 1-12.57 14.923 34.132 34.132 0 0 1-37.41 0 34.139 34.139 0 0 1-12.57-14.923 34.026 34.026 0 0 1-2.71-13.313c0-4.574.92-9.102 2.71-13.313a34.136 34.136 0 0 1 12.57-14.922 34.125 34.125 0 0 1 37.41 0 34.136 34.136 0 0 1 12.57 14.922 34.03 34.03 0 0 1 2.71 13.313c0 4.575-.92 9.102-2.71 13.313zm-56.75-2.225a28.349 28.349 0 0 0 6.06 8.921 27.86 27.86 0 0 0 8.71 5.805 27.96 27.96 0 0 0 10.7 2.128c3.68 0 7.31-.723 10.71-2.128a27.65 27.65 0 0 0 8.8-5.922 28.393 28.393 0 0 0 0-39.939 27.815 27.815 0 0 0-8.8-5.902 27.757 27.757 0 0 0-21.41 0 27.747 27.747 0 0 0-8.81 5.902 28.772 28.772 0 0 0-7.6 14.591c-1.06 5.5-.49 11.19 1.64 16.37v.174zM1206.01 540.03h-6.64l27.72-67.397h1.49l27.69 67.397h-6.65l-7.36-18.441h-28.9l-7.35 18.441zm9.58-24.11H1240l-12.2-30.361-12.21 30.361zM1268.58 538.908h-6.33v-65.636l1.94-.639 43.93 53.426v-52.246h6.35v65.618l-1.93.657-43.94-53.349-.02 52.169zM1334.64 531.594a14.643 14.643 0 0 0 8.71 2.748c1.82.016 3.63-.299 5.34-.929a13.071 13.071 0 0 0 4.3-2.613 11.586 11.586 0 0 0 2.79-3.986c.67-1.659 1-3.436.96-5.224.02-1.648-.2-3.288-.64-4.877a12.699 12.699 0 0 0-2.24-4.334 17.316 17.316 0 0 0-4.18-3.87 34.824 34.824 0 0 0-6.62-3.367 28.928 28.928 0 0 1-11.17-7.121 15.649 15.649 0 0 1-3.87-10.933c-.02-1.99.35-3.964 1.1-5.805a13.95 13.95 0 0 1 3.18-4.606 14.629 14.629 0 0 1 4.93-3.057 17.487 17.487 0 0 1 6.43-1.122c2.77-.05 5.51.617 7.95 1.935a14.841 14.841 0 0 1 5.81 5.495l-4.53 3.406a10.475 10.475 0 0 0-3.93-3.748 10.519 10.519 0 0 0-5.28-1.283 9.456 9.456 0 0 0-6.7 2.419 8.274 8.274 0 0 0-2.61 6.327 10.62 10.62 0 0 0 2.61 7.218 24.211 24.211 0 0 0 9.22 5.805c5 1.694 9.45 4.701 12.89 8.708a21.919 21.919 0 0 1 3.78 9.679c.46 3.483.07 7.027-1.13 10.329a17.01 17.01 0 0 1-3.87 5.921 18.083 18.083 0 0 1-6.2 3.87 22.82 22.82 0 0 1-8.42 1.451 22.495 22.495 0 0 1-11.78-3.212 19.686 19.686 0 0 1-7.96-9.075l5.03-3.638a17.894 17.894 0 0 0 6.1 7.489zM1398.55 538.908v-65.153h13.68c3.06-.053 6.11.432 9 1.432a20.67 20.67 0 0 1 6.74 3.87 16.559 16.559 0 0 1 4.24 5.96 19.896 19.896 0 0 1 0 14.9c-.95 2.28-2.4 4.317-4.24 5.96a19.97 19.97 0 0 1-6.74 3.87 26.085 26.085 0 0 1-9 1.451h-7.35v27.71h-6.33zm24.64-36.766a13.115 13.115 0 0 0 3.06-4.366 13.209 13.209 0 0 0 1.08-5.222c0-1.796-.37-3.572-1.08-5.221a13.109 13.109 0 0 0-3.06-4.367 16.589 16.589 0 0 0-11.13-3.541h-7.18v26.258h7.18c4.02.208 7.97-1.05 11.13-3.541zM1448.74 533.238h25.8v5.67h-32.13v-65.153h6.33v59.483zM1479.18 493.009a33.81 33.81 0 0 1 12.59-14.893 33.839 33.839 0 0 1 18.71-5.483c4.39-.034 8.74.768 12.83 2.361a33.26 33.26 0 0 1 10.63 6.753l-4.28 4.296a28.546 28.546 0 0 0-8.71-5.689 26.753 26.753 0 0 0-10.47-2.051 27.1 27.1 0 0 0-10.72 2.148 28.121 28.121 0 0 0-17.11 25.881c0 5.515 1.62 10.908 4.66 15.51a28.128 28.128 0 0 0 12.45 10.371 27.328 27.328 0 0 0 10.72 2.129c3.59.026 7.15-.671 10.47-2.052a28.608 28.608 0 0 0 8.71-5.669l4.28 4.276a33.242 33.242 0 0 1-10.63 6.753 34.2 34.2 0 0 1-12.83 2.38 33.995 33.995 0 0 1-23.94-9.675 33.916 33.916 0 0 1-7.36-10.7 34.39 34.39 0 0 1-2.69-13.313c0-4.573.92-9.1 2.69-13.314v-.019z" fill="#272425" stroke="#272425" stroke-width="2" stroke-miterlimit="10"/><path d="M0 0h564.015L1.625 588V0" fill="#E22630"/><path d="M540.983 312.722l-171.793 2.921L540.983 136.44v176.282zM540.983 391.632v169.703H130.741L294.346 390.8h246.637" fill="#272425"/></svg>