<svg data-name="Layer 1" xmlns="http://www.w3.org/2000/svg" viewBox="0 0 706.07 170.48"><path d="M194.52 153.33v15.24h-26V0h26v63.57c7.15-10 21.19-16.9 36.67-16.9 36.19 0 56.91 25.71 56.91 61.9s-20.72 61.91-57.38 61.91c-15.96 0-30.48-7.15-36.2-17.15Zm67.62-44.76c0-23.81-13.81-39.28-34.76-39.28s-34.76 15.47-34.76 39.28c0 23.57 13.81 39.29 34.76 39.29s34.76-15.72 34.76-39.29ZM365.05 71C347.43 71 332 86.67 332 123.81v44.76h-26v-120h26v22.86c6.43-14.29 22.14-24.76 36.67-24.76A39.12 39.12 0 0 1 382 48.81l-1.43 25A39.91 39.91 0 0 0 365.05 71ZM490.24 93.81v74.76h-25.48v-18.33c-6.9 12.14-21.67 20.24-37.62 20.24-23.81 0-40.24-15-40.24-35.48 0-23.57 18.34-36.19 55.24-40l22.62-2.38V91c0-14.76-10.24-23.81-25.95-23.81-14.53 0-24.76 8.57-26.43 22.86l-23.33-4.29c3.81-23.57 24.28-39 49.76-39 30.47-.09 51.43 17.05 51.43 47.05Zm-25.48 23.1v-5l-22.86 2.62c-19.52 2.15-29.52 9.29-29.52 19.77 0 9.52 7.86 16.19 20 16.19 20.24-.01 32.14-14.06 32.38-33.58ZM504 135.24l21.43-9.05c4.05 12.86 13.34 23.57 30 23.57 12.38 0 20.72-7.14 20.72-15.71 0-26-66.91-9.05-66.91-54.53 0-18.81 16.43-32.85 42.38-32.85 22.62 0 41.67 11.9 46.91 29.52l-21.43 9c-3.1-11.91-14.29-18.57-25.24-18.57-11.43 0-18.57 4.52-18.57 12.38 0 23.09 67.38 5.47 67.38 54.76 0 20.71-18.09 36.67-45.24 36.67-29.31.05-45.98-18.05-51.43-35.19ZM609.4 135.24l21.43-9.05c4 12.86 13.33 23.57 30 23.57 12.38 0 20.71-7.14 20.71-15.71 0-26-66.9-9.05-66.9-54.53 0-18.81 16.43-32.85 42.38-32.85 22.62 0 41.67 11.9 46.9 29.52l-21.42 9c-3.1-11.91-14.29-18.57-25.24-18.57-11.43 0-18.57 4.52-18.57 12.38 0 23.09 67.38 5.47 67.38 54.76 0 20.71-18.1 36.67-45.24 36.67-29.29.05-45.95-18.05-51.43-35.19Z"/><path style="fill:#0bce5a" d="M86.51 48.57H0v33.49h78.93L62.19 98.8H0v25.12h37.07L0 160.99l7.58 7.58 37.07-37.07v37.07h25.12v-62.18l16.74-16.75v78.93H120v-120H86.51z"/></svg>