<svg width="1501" height="425" fill="none" xmlns="http://www.w3.org/2000/svg"><path d="M27.56 157.15H0v-47.99h27.56v-84.9h52.5v84.9h48.7v48h-48.7v98.74c0 24.15 8.31 32.97 27.55 32.97 6.18.1 12.35-.5 18.4-1.77v46.96a119.6 119.6 0 0 1-27.08 2.62c-47.83 0-71.34-25-71.34-75.06V157.16h-.03zM304.4 268.23a69.08 69.08 0 0 0 19.68-48.3 69.08 69.08 0 0 0-19.68-48.3 65.3 65.3 0 0 0-47.82-19.32 63.05 63.05 0 0 0-46.8 19.31 72.57 72.57 0 0 0 0 96.61 63.4 63.4 0 0 0 46.8 19.3 65.24 65.24 0 0 0 47.82-19.3zm15.68-126.88v-32.04h52.5v154.53c0 18.86 4.38 25.84 16.19 25.84 3.05 0 6.99-.44 11.03-.85v42.57a76.28 76.28 0 0 1-25.75 3.69 57.46 57.46 0 0 1-30.61-7.02 40.54 40.54 0 0 1-17.95-26.8c-15.3 23.3-40.7 34.7-75.68 34.7a104.62 104.62 0 0 1-78.77-33.22c-21-22.4-31.5-49.62-31.5-82.55s10.5-60.13 31.5-82.06a104.52 104.52 0 0 1 78.77-33.23c35.43 0 62.1 15.8 70.42 36.92M413.93 330.55l83.55-116.77-76.12-104.47h56.88l48.12 66.3 47.68-66.3h57.32l-76.12 104.03 83.55 117.2h-56.44l-56-78.14-55.99 78.15h-56.44zM655.35 109.3h52.5V264.7c0 17.13 3.49 23.3 15.3 23.3 3.09 0 6.17-.3 9.2-.9v44.3a73.86 73.86 0 0 1-26.27 3.7c-33.67 0-50.74-18.87-50.74-56.19V109.3zm-5.27-57.07a31.45 31.45 0 0 1 19.1-29.12 31.17 31.17 0 0 1 34.13 6.56 31.42 31.42 0 0 1 7.02 34.15 31.36 31.36 0 0 1-11.42 14.16 31.2 31.2 0 0 1-17.33 5.41 30.89 30.89 0 0 1-22.27-8.94 31.09 31.09 0 0 1-9.23-22.22zM776.27 330.55V157.04h-36.05v-48h36.05V97.98c0-33.77 7-51.68 24.06-65.41 11.81-9.64 29.77-14.47 54.67-14.47 7.62-.16 15.24.43 22.74 1.77V65.6a69.38 69.38 0 0 0-20.09-2.22c-19.68 0-28.88 8.79-28.88 31.16v14.77h41.58v47.99h-41.58v173.5l-52.5-.25zM915.38 374.88a79.04 79.04 0 0 0 24.5 3.51 34.37 34.37 0 0 0 19.24-4.83c4.82-3.07 9.2-9.64 12.7-18.87l5.7-15.9L885.2 109.3h52.94l64.75 166.71 60.81-166.79h52.91l-98.86 257.24a112.07 112.07 0 0 1-23.62 39.5c-13.13 12.33-30.64 18.46-52.94 18.46a92.4 92.4 0 0 1-25.75-3.51l-.07-46.04z" fill="#010202"/><path d="M1332.38 32.9a134.76 134.76 0 0 0-74.78 22.6 134.1 134.1 0 0 0-20.45 206.61 134.83 134.83 0 0 0 146.66 29.13 134.5 134.5 0 0 0 60.41-49.46 134.13 134.13 0 0 0-16.72-169.54 134.72 134.72 0 0 0-95.12-39.35zm168.55 135.4c0 89.63-56.72 134.9-168.55 243.83V336.5c-33.36 0-65.96-9.85-93.69-28.34a168.24 168.24 0 0 1-62.12-75.5 167.92 167.92 0 0 1 36.54-183.37 168.92 168.92 0 0 1 183.76-36.46 168.58 168.58 0 0 1 75.67 61.98 168 168 0 0 1 28.39 93.5" fill="#FEE517"/><path d="M1245.61 210.46h57.84v-57.72h-57.84v57.72zM1303.46 152.75h57.84V95.03h-57.84v57.72zM1361.3 210.46h57.84v-57.72h-57.84v57.72z" fill="#FEE517"/></svg>