<svg xmlns="http://www.w3.org/2000/svg" viewBox="0 0 1000 1000"><title>Nigeria-Logo</title><path d="M29.41,503.88H7.7V466.09H29.41V399.23H70.75v66.86H109.1v37.8H70.75v77.76c0,19,6.55,26,21.7,26a65.38,65.38,0,0,0,14.49-1.39v37a94.34,94.34,0,0,1-21.33,2.06c-37.66,0-56.18-19.69-56.18-59.11V503.89h0Zm218,87.48a54.43,54.43,0,0,0,0-76.08,51.43,51.43,0,0,0-37.66-15.21,49.63,49.63,0,0,0-36.85,15.21,57.13,57.13,0,0,0,0,76.08,49.89,49.89,0,0,0,36.85,15.19,51.34,51.34,0,0,0,37.66-15.19Zm12.35-99.92V466.21h41.34V587.9c0,14.85,3.45,20.35,12.75,20.35,2.4,0,5.51-.35,8.69-.67V641.1A59.86,59.86,0,0,1,302.27,644a45.2,45.2,0,0,1-24.1-5.53A31.94,31.94,0,0,1,264,617.38c-12,18.34-32,27.32-59.6,27.32a82.37,82.37,0,0,1-62-26.16c-16.54-17.64-24.81-39.08-24.81-65s8.27-47.35,24.81-64.62a82.3,82.3,0,0,1,62-26.17c27.9,0,48.91,12.44,55.46,29.08m73.79,148.61,65.79-91.95-59.94-82.27h44.79l37.9,52.21,37.54-52.21H504.9L445,548.13l65.8,92.3H466.31l-44.1-61.54-44.09,61.54H333.68ZM523.8,466.2h41.34V588.58c0,13.49,2.75,18.34,12.05,18.34a37.4,37.4,0,0,0,7.24-.7V641.1A58.3,58.3,0,0,1,563.75,644c-26.52,0-40-14.86-40-44.25V466.2Zm-4.15-44.95a24.61,24.61,0,1,1,24.8,24.54,24.42,24.42,0,0,1-24.8-24.54ZM619,640.43V503.79H590.63V466H619v-8.71c0-26.59,5.51-40.7,19-51.51,9.3-7.59,23.44-11.39,43-11.39a91.12,91.12,0,0,1,17.91,1.39v36A54.44,54.44,0,0,0,683.11,430c-15.5,0-22.74,6.92-22.74,24.53v11.64h32.74V504H660.37V640.63l-41.35-.2Zm109.55,34.91a62.18,62.18,0,0,0,19.3,2.77A27.07,27.07,0,0,0,763,674.3c3.79-2.41,7.24-7.59,10-14.86l4.49-12.52L704.8,466.2h41.69l51,131.28,47.88-131.35H887L809.19,668.71a88.27,88.27,0,0,1-18.6,31.11c-10.34,9.71-24.13,14.54-41.69,14.54a72.76,72.76,0,0,1-20.28-2.77l-.06-36.25Z" style="fill:#010202"/><path d="M892.94,204.47a78.93,78.93,0,1,0,55.9,23.12,79.2,79.2,0,0,0-55.9-23.12ZM992,284c0,52.68-33.33,79.29-99.06,143.31V382.9A98.84,98.84,0,1,1,992,284.05" style="fill:#33d186"/><path d="M842,308.82h34V274.9H842Zm34-33.91h34V241h-34Zm34,33.91h34V274.9h-34Z" style="fill:#33d186"/></svg>