<svg width="1449" height="310" viewBox="0 0 1449 310" fill="none" xmlns="http://www.w3.org/2000/svg">
<path fill-rule="evenodd" clip-rule="evenodd" d="M1134.12 305.568L1076.41 93.4141L990.881 289.791C987.837 296.157 984.1 301.139 979.672 304.738C975.52 308.059 970.261 309.72 963.895 309.72C951.44 309.72 942.445 303.077 936.909 289.791L867.716 139.499L872.557 305.568H819.83V21.5891C823.428 7.19635 832.147 0 845.986 0C851.521 0 856.642 1.52231 861.347 4.56692C866.329 7.61153 870.066 12.04 872.557 17.8525L965.556 231.252L1058.55 17.8525C1063.54 5.95083 1071.98 0 1083.88 0C1096.61 0 1105.05 7.19635 1109.21 21.5891L1186.43 305.568H1134.12ZM146.556 306.954C125.521 306.954 106.008 303.079 88.0169 295.329C70.3028 287.302 54.8029 276.508 41.5174 262.945C28.5086 249.106 18.2677 232.776 10.7945 213.955C3.59817 195.134 0 174.79 0 152.924C0 130.782 3.59817 110.577 10.7945 92.3089C18.2677 74.0412 28.5086 58.5414 41.5174 45.8094C54.8029 32.8006 70.3028 22.8364 88.0169 15.9169C106.008 8.72054 125.521 5.12236 146.556 5.12236H310.135V57.8494H146.556C132.994 57.8494 120.4 60.3405 108.776 65.3226C97.4275 70.0279 87.6017 76.6707 79.2982 85.2509C70.9947 93.8312 64.4903 104.072 59.785 115.974C55.0797 127.875 52.7271 141.023 52.7271 155.415C52.7271 169.531 55.0797 182.678 59.785 194.857C64.4903 207.035 70.9947 217.553 79.2982 226.41C87.6017 234.99 97.4275 241.771 108.776 246.754C120.4 251.736 132.994 254.227 146.556 254.227H275.675V175.759H139.498V131.335H328.818V306.954H146.556ZM371.869 306.954V5.12236H424.596V306.954H371.869ZM550.644 295.329C568.635 303.079 588.148 306.954 609.183 306.954H791.445V131.335H602.125V175.759H738.302V254.227H609.183C595.621 254.227 583.027 251.736 571.402 246.754C560.054 241.771 550.229 234.99 541.925 226.41C533.622 217.553 527.117 207.035 522.412 194.857C517.707 182.678 515.354 169.531 515.354 155.415C515.354 141.023 517.707 127.875 522.412 115.974C527.117 104.072 533.622 93.8312 541.925 85.2509C550.229 76.6707 560.054 70.0279 571.402 65.3226C583.027 60.3405 595.621 57.8494 609.183 57.8494H772.762V5.12236H609.183C588.148 5.12236 568.635 8.72054 550.644 15.9169C532.93 22.8364 517.43 32.8006 504.144 45.8094C491.135 58.5414 480.895 74.0412 473.421 92.3089C466.225 110.577 462.627 130.782 462.627 152.924C462.627 174.79 466.225 195.134 473.421 213.955C480.895 232.776 491.135 249.106 504.144 262.945C517.43 276.508 532.93 287.302 550.644 295.329ZM1351.64 275.814C1351.64 299.23 1335.82 308.198 1321.25 308.198H1321.12C1303.44 308.198 1290.86 296.365 1290.86 276.686C1290.86 256.509 1303.56 244.427 1322 244.427C1340.18 244.427 1351.64 257.381 1351.64 275.814ZM1312.78 276.312C1312.78 285.903 1315.39 292.753 1321.5 292.753H1321.62C1327.1 292.753 1329.72 285.778 1329.72 276.312C1329.72 267.967 1327.48 259.872 1321.5 259.872C1314.9 259.872 1312.78 268.217 1312.78 276.312ZM1286.84 289.764C1284.35 290.885 1281.61 291.259 1278.25 291.259C1270.53 291.259 1264.42 286.028 1264.42 276.063C1264.3 266.846 1269.9 261.117 1278 261.117C1281.86 261.117 1284.48 261.74 1286.47 262.487L1289.33 246.42C1285.85 245.174 1280.99 244.552 1276.76 244.552C1254.58 244.552 1242.63 258.751 1242.63 276.935C1242.63 296.614 1254.83 308.073 1274.02 308.073C1280.24 308.073 1285.97 307.077 1288.96 305.831L1286.84 289.764ZM1225.51 308.198C1232.86 308.198 1237.84 302.967 1237.84 295.369C1237.72 287.522 1232.61 282.416 1225.63 282.416C1218.66 282.416 1213.3 287.771 1213.3 295.369C1213.3 302.967 1218.53 308.198 1225.39 308.198H1225.51ZM1359.22 306.952H1380.27V270.957C1380.27 269.338 1380.39 267.718 1380.89 266.473C1381.89 264.231 1383.76 261.864 1387.12 261.864C1391.98 261.864 1393.47 266.597 1393.47 272.327V306.952H1414.52V270.957C1414.52 269.587 1414.64 267.718 1415.02 266.722C1416.01 263.857 1418.13 261.864 1421.37 261.864C1425.98 261.864 1427.72 266.348 1427.72 273.572V306.952H1448.77V270.334C1448.77 254.142 1442.17 244.427 1429.34 244.427C1425.48 244.427 1422.12 245.299 1419.13 246.794C1416.14 248.413 1413.52 250.779 1411.28 253.644H1411.03C1408.67 248.039 1403.06 244.427 1395.46 244.427C1386.12 244.427 1380.77 249.658 1378.28 253.146H1377.9L1376.9 245.673H1358.72C1358.97 251.527 1359.22 258.501 1359.22 266.099V306.952ZM1159.68 50.9269H1148.91V18.232H1139.25V8.95284H1169.52V18.232H1159.68V50.9269ZM1216.5 50.9269H1206.29L1205.73 36.4166C1205.61 32.1195 1205.48 26.6392 1205.48 20.723H1205.29C1204.24 25.9542 1202.62 31.9327 1201.5 35.9184L1197.7 50.055H1189.48L1186.18 35.9807C1185.24 31.995 1184 26.0788 1183.19 20.723H1183.06C1182.88 24.6317 1182.71 28.7622 1182.55 32.3688L1182.55 32.4925L1182.44 34.9724L1182.38 36.4166L1181.75 50.9269H1172.04L1174.84 8.95284H1188.42L1191.16 20.8476C1192.28 25.7051 1193.46 31.0608 1194.27 36.1052H1194.46C1195.45 31.1231 1196.76 25.456 1197.88 20.7853L1200.87 8.95284H1214.26L1216.5 50.9269Z" fill="#F63C38"/>
</svg>
