<svg id="Layer_1" data-name="Layer 1" xmlns="http://www.w3.org/2000/svg" viewBox="0 0 841.89 595.28"><defs><style>.cls-1{fill:#083e9e}</style></defs><path class="cls-1" d="M227.72 348.12v28.71h-18v-93.44h18v4.47a33.59 33.59 0 0118-5.41c20.45 0 35.48 16.25 35.48 35.61s-14.9 35.61-35.48 35.61a31.94 31.94 0 01-18-5.55zm0-38.59v16.52a18.62 18.62 0 1016.79-26.54 18.65 18.65 0 00-16.79 10.02zM291 264.56a10 10 0 0110.15-10.43 10.38 10.38 0 0110.57 10.43A10.55 10.55 0 01301.1 275a10.2 10.2 0 01-10.1-10.44zm1 18.83h18.28v69.2H292zM321.14 317.79a34.93 34.93 0 0135.47-35.2 38.54 38.54 0 0118.28 4.6v-3.8h17.88v65.27c0 18-15.57 27.75-35.07 27.75-12.73 0-24.91-3.78-32.9-10l7.44-12.86a46.23 46.23 0 0025.46 7.31c12.59 0 16.52-5 17.06-13.13a34.22 34.22 0 01-18.14 5.41c-20.72-.01-35.48-15.45-35.48-35.35zm53.75 7.72v-15.44A18.83 18.83 0 00358 299.24a18.64 18.64 0 00-18.83 18.55c0 10.7 8.13 18.15 18.69 18.15a18.41 18.41 0 0017.03-10.43zM403.59 317.79a34.93 34.93 0 0135.47-35.2 38.54 38.54 0 0118.28 4.6v-3.8h17.88v65.27c0 18-15.57 27.75-35.07 27.75-12.73 0-24.92-3.78-32.91-10l7.45-12.86a46.23 46.23 0 0025.46 7.31c12.59 0 16.52-5 17.06-13.13a34.22 34.22 0 01-18.14 5.41c-20.73-.01-35.48-15.45-35.48-35.35zm53.75 7.72v-15.44a18.83 18.83 0 00-16.92-10.83 18.64 18.64 0 00-18.83 18.55c0 10.7 8.13 18.15 18.69 18.15a18.41 18.41 0 0017.06-10.43zM501.47 283.39l18.15 46.18 18.69-46.18h19l-39.81 93.44h-16.97l10-24.92-29.11-68.52z"/><path class="cls-1" d="M553.87 283.39h19.36l17.6 46.72 17.47-46.72h19l-27.76 69.2h-18.18zM628.6 317.52c0-19.5 13.95-35.61 35.75-35.61 20.17 0 35.47 15.16 35.88 35.07a33.91 33.91 0 010 5.14h-54.57c.54 9.75 9.88 16.11 19.9 16.11 8.26 0 13.14-2.3 18.83-7l9.88 10.43c-8 8.4-16 12.32-28.7 12.32-23.43-.04-36.97-17.51-36.97-36.46zm18-8.26h34.93c-1.76-6.5-8-12.19-17.47-12.19-10.95 0-15.56 5.55-17.45 12.19zM704 345.14l8.8-14.35a49.33 49.33 0 0026.81 8.26c9.07 0 13.67-2.31 13.67-6.23 0-2.57-2.16-4.47-6.77-5.42l-18.95-4.06c-14-3-20.31-9.61-20.31-20.44 0-11.51 9.75-21.12 29.92-21.12 12.18 0 23 3.52 30.47 8.12l-8.26 13.81c-6.1-3.25-14.22-6.77-22.75-6.77-7.72 0-12.19 1.9-12.19 5.42 0 2.3 1.63 3.79 6.1 4.6l16 3c17.34 3.39 24 11.11 24 21.53 0 15-15 22.88-31.41 22.88a66.34 66.34 0 01-35.13-9.23zM774.14 283.39h10.29V264.3l18-11.64v30.74H813v15.71h-10.56v53.48h-18V299.1h-10.3v-15.71zM164.66 294.52a69.31 69.31 0 00-2.16-13 74.54 74.54 0 00-32.5-44.67 73.58 73.58 0 00-34.78-11.64 79.28 79.28 0 00-15.63.42 77.47 77.47 0 00-16 3.89 75.16 75.16 0 00-49.53 66c-.17 2.7-.17 5.4-.17 8.1v65.64a6.43 6.43 0 006.43 6.43h25.32a6.46 6.46 0 006.4-5.75 7.63 7.63 0 00.26-1.9v-1.54a1.45 1.45 0 010-.36v-.09a1.43 1.43 0 01.48.22 75.23 75.23 0 0030.8 9.2 76.57 76.57 0 0013-.13 73.87 73.87 0 0011.57-2 74.71 74.71 0 0040.57-26.49 74.13 74.13 0 0015.79-39.25 71.56 71.56 0 00.15-13.08zm-61.85 42a1 1 0 01-1 .8H76.9a1 1 0 01-1-.8v-1.09a14.8 14.8 0 01.39-3.41c.16-.39.25-.84.41-1.26s.33-.8.49-1.22.42-.77.64-1.12c.12-.2.23-.36.35-.55a11.14 11.14 0 01.78-1c.28-.35.57-.67.87-1a13.47 13.47 0 015.33-3.25 8.86 8.86 0 014.21-16.65 8.86 8.86 0 014.25 16.65 13.47 13.47 0 019.25 12.83c0 .28-.03.67-.06 1.02zM146 282H32.79a1.34 1.34 0 01-1.25-1.77 61.32 61.32 0 01115.66 0A1.34 1.34 0 01146 282z"/></svg>