<?xml version="1.0" encoding="utf-8"?>
<!-- Generator: Adobe Illustrator 22.1.0, SVG Export Plug-In . SVG Version: 6.00 Build 0)  -->
<svg version="1.1" id="Layer_1" xmlns="http://www.w3.org/2000/svg" xmlns:xlink="http://www.w3.org/1999/xlink" x="0px" y="0px"
	 viewBox="0 0 792 205" style="enable-background:new 0 0 792 205;" xml:space="preserve">
<style type="text/css">
	.st0{fill:#144499;}
	.st1{fill:#535354;}
	.st2{fill:#3A3A3A;}
	.st3{fill:#8F8F8F;}
	.st4{fill:#929292;}
</style>
<g id="Layer_x0020_1">
	<g id="_1786396006192">
		<path class="st0" d="M119.8,195.5c52.7-0.1,95.3-42.8,95.3-95.5c0-52.7-42.7-95.5-95.5-95.5C68.9,4.5,27,44.3,24.3,95v100.4h47.3
			v-12.6C86,190.9,102.2,195.5,119.8,195.5L119.8,195.5z M119.8,22.1c33.8,0,62.6,22.1,73.4,52.2H45.9
			C56.7,44.2,85.6,22.1,119.8,22.1L119.8,22.1z M136,120.3c0,5.4-3.6,10.4-8.6,12.6l8.6,16.7h-27.5l8.1-16.7
			c-5.2-2.2-8.6-7.2-8.6-12.9c0-7.7,6.3-14,14-14c7.7,0,14,6.3,14,14C136,120.1,136,120.2,136,120.3C136,120.3,136,120.3,136,120.3z
			"/>
		<g>
			<path class="st1" d="M549.5,57.4h18.3l21.2,55.9l21.2-55.9h18.5l-31.8,84.1h-15.6L549.5,57.4L549.5,57.4z M680.2,117.8H641
				c0.2,3.5,1.4,6.4,3.5,8.6c2.1,2.2,4.6,3.3,7.4,3.3c5,0,9-2.3,11.8-6.8l15,5c-5.6,9.8-14.3,14.7-26.1,14.7
				c-8.7,0-15.6-2.6-20.7-7.9c-5.1-5.3-7.7-12.3-7.7-21.2c0-8,2.7-14.7,8.1-20.1c5.4-5.4,12-8.1,19.9-8.1c7.9,0,14.6,2.8,19.9,8.5
				c5.3,5.7,8,12.8,8,21.4L680.2,117.8L680.2,117.8z M641,106.8h22.3c-1.6-6.9-5.1-10.4-10.6-10.4c-3.2,0-5.8,0.9-7.9,2.7
				C642.7,101,641.4,103.5,641,106.8L641,106.8z M730.1,94.1l-11.1,6.8c-3.2-3.2-6.2-4.9-9-4.9c-1.4,0-2.6,0.4-3.5,1.1
				c-1,0.8-1.5,1.7-1.5,2.8c0,1.8,0.6,3.1,1.7,3.9c1.2,0.8,4.2,2.1,9.1,3.8c4.9,1.7,8.8,3.9,11.6,6.6c2.8,2.6,4.3,6.3,4.3,11
				c0,4.7-2.1,8.8-6.4,12.2c-4.3,3.4-9.4,5.1-15.4,5.1c-4.1,0-8.1-1.1-12.2-3.4c-4-2.3-7.5-5.7-10.3-10.4l13.2-6
				c3,5.2,6.1,7.7,9.3,7.7c1.4,0,2.8-0.5,3.9-1.4c1.2-0.9,1.7-2,1.7-3.2c0-1.5-0.7-2.7-2-3.5c-1.3-0.8-2.3-1.2-3-1.2
				c-0.3-0.3-1.8-0.9-4.6-1.8c-11-3.6-16.5-9.4-16.5-17.5c0-4.9,2-8.8,5.9-11.9c4-3.1,9.1-4.6,15.5-4.6
				C718,85.3,724.4,88.3,730.1,94.1L730.1,94.1z M743.4,67.5h16.4v18.9h7.9v15.1h-7.9v40h-16.4v-40h-6.3V86.4h6.3V67.5L743.4,67.5z"
				/>
			<g>
				<path class="st2" d="M438,79.7c10.5-1.6,18,4.9,19.3,14.4c1.4,10.5-4.4,20.1-12.7,21.5C421,119.6,416.3,83,438,79.7L438,79.7z
					 M457.2,120.1c2.7,20.6-7.1,29.6-22.6,24.6c-7.5-2.4-5-5-9-8.3l-15,0c3.5,27.2,42.5,29.7,56.3,13.4c8.2-9.7,6.5-23.7,6.5-38.4
					c0-15.1,0.1-30.2,0-45.2l-15.7-0.2l-0.4,8.4c-2.4-2.2-2.8-3.4-6.3-5.3c-20.8-11.9-43.6,2.7-43.4,28.3
					c0.2,23.5,18.6,35.9,35.6,31.8C451.4,127.2,452.6,123.8,457.2,120.1L457.2,120.1z"/>
				<path class="st2" d="M363.1,79.6c23-3.1,24.8,33.1,5.5,36c-11.3,1.7-18.4-5.7-19.7-15.4C347.2,88.5,353.1,80.9,363.1,79.6
					L363.1,79.6z M381.8,120.1c0.2,12.2,0.8,20.7-8.9,24.7c-4.5,1.9-9.9,1.4-14.2-0.1c-8.3-2.8-5.6-7.3-9.1-8.1l-14.6,0
					c2.7,23.8,38.3,32.6,56.1,13c7.9-8.7,6.7-25,6.7-38.7c0-7.1,0.8-40.6-0.5-44.7l-15,0l-0.5,8.6C363.6,54.5,332,67,332.1,97.4
					c0.1,15.2,6.7,24,16.4,29.3c5.5,3,12.5,4.1,19.4,2.4C375.3,127.4,377.6,123.2,381.8,120.1L381.8,120.1z"/>
				<path class="st2" d="M258.2,79.7c22.4-7.8,29.2,29.7,9.3,35.6C245.6,121.8,237.4,86.9,258.2,79.7L258.2,79.7z M246.1,66.6
					l-15.5,0l-0.1,92l15.5,0l0-38c2,1.4,3.2,3.4,6,5.3c17.8,11.7,43.6-1.2,43.7-28.4c0.1-21.9-16.9-36.5-36-31.9
					c-7.5,1.8-9.4,5.1-13.5,9.1L246.1,66.6L246.1,66.6z"/>
				<path class="st2" d="M491.8,158.6l16.9,0c2.3-3.2,38.4-91,38.4-92.6l-16.2,0c-5,9.9-13,37-16.8,43c-4.6-9.2-12.4-37.1-16.2-43.1
					l-17,0c0.1,2.7,19.8,48.5,23.7,58c1.9,4.7-0.5,6.8-2.6,11.6C498.6,143.6,495.3,150.9,491.8,158.6L491.8,158.6z"/>
				<polygon class="st2" points="306.7,129.1 321.7,129.1 321.7,66.6 306.6,66.5 				"/>
				<path class="st2" d="M312,40c-11.9,2.7-8.4,21.4,4.7,18.2c3.9-0.9,8.4-5.5,7-11C322.7,42.9,317.8,38.6,312,40z"/>
				<path class="st3" d="M246.1,158.6l-15.5,0l0.1-92l15.5,0c-2.2-1.4-13.5-0.8-15.9-0.5l-0.4,93L246.1,158.6L246.1,158.6z"/>
				<path class="st4" d="M306.7,129.1l-0.1-62.6l15.1,0c-0.2-0.1-0.4-0.5-0.5-0.3l-2.5-0.5c-1.2-0.1-3,0.1-4.3,0.1
					c-2.7,0-5.5-0.2-8.1,0.3c-0.8,3.6-0.5,48.4-0.4,59.6C305.9,129.1,306.1,128.4,306.7,129.1L306.7,129.1z"/>
			</g>
		</g>
	</g>
</g>
</svg>
