<svg xmlns="http://www.w3.org/2000/svg" width="799.15" height="151.82" viewBox="0 0 799.15 151.82"><defs><style>.cls-1{fill:#083e9e;}</style></defs><title>Piggyvest Colour</title><g id="Layer_2" data-name="Layer 2"><g id="Layer_1-2" data-name="Layer 1"><path class="cls-1" d="M213.87,123.12v28.7h-18V58.39h18v4.47a33.54,33.54,0,0,1,18-5.42c20.44,0,35.47,16.25,35.47,35.61s-14.89,35.61-35.47,35.61A31.84,31.84,0,0,1,213.87,123.12Zm0-38.59v16.52A18.63,18.63,0,1,0,230.66,74.5,18.63,18.63,0,0,0,213.87,84.53Z"/><path class="cls-1" d="M277.09,39.56a10,10,0,0,1,10.16-10.43,10.38,10.38,0,0,1,10.56,10.43A10.55,10.55,0,0,1,287.25,50,10.21,10.21,0,0,1,277.09,39.56Zm1.09,18.83h18.28v69.19H278.18Z"/><path class="cls-1" d="M307.28,92.79a34.94,34.94,0,0,1,35.48-35.21A38.54,38.54,0,0,1,361,62.18V58.39h17.88v65.26c0,18-15.58,27.76-35.07,27.76-12.73,0-24.92-3.79-32.91-10l7.45-12.86a46.29,46.29,0,0,0,25.46,7.31c12.59,0,16.52-5,17.06-13.13a34.34,34.34,0,0,1-18.15,5.41C322,128.12,307.28,112.69,307.28,92.79ZM361,100.5V85.07a18.86,18.86,0,0,0-16.93-10.84,18.64,18.64,0,0,0-18.82,18.56c0,10.69,8.12,18.14,18.69,18.14A18.39,18.39,0,0,0,361,100.5Z"/><path class="cls-1" d="M389.73,92.79a34.94,34.94,0,0,1,35.48-35.21,38.57,38.57,0,0,1,18.28,4.6V58.39h17.87v65.26c0,18-15.57,27.76-35.06,27.76-12.73,0-24.92-3.79-32.91-10l7.45-12.86a46.26,46.26,0,0,0,25.46,7.31c12.59,0,16.52-5,17.06-13.13a34.37,34.37,0,0,1-18.15,5.41C404.49,128.12,389.73,112.69,389.73,92.79Zm53.76,7.71V85.07a18.87,18.87,0,0,0-16.93-10.84,18.64,18.64,0,0,0-18.82,18.56c0,10.69,8.12,18.14,18.69,18.14A18.4,18.4,0,0,0,443.49,100.5Z"/><path class="cls-1" d="M487.62,58.39l18.15,46.17,18.68-46.17h19L503.6,151.82H486.68l10-24.91L467.59,58.39Z"/><path class="cls-1" d="M540,58.39h19.36L577,105.11l17.47-46.72h19l-27.76,69.19H567.5Z"/><path class="cls-1" d="M614.75,92.51c0-19.49,13.94-35.61,35.74-35.61C670.67,56.9,686,72.07,686.37,92a31.62,31.62,0,0,1,0,5.15H631.81c.54,9.75,9.88,16.11,19.9,16.11,8.26,0,13.13-2.3,18.82-7l9.89,10.43c-8,8.39-16,12.32-28.71,12.32C628.29,128.94,614.75,111.47,614.75,92.51Zm18-8.26h34.94c-1.76-6.49-8-12.18-17.47-12.18C639.25,72.07,634.65,77.62,632.75,84.25Z"/><path class="cls-1" d="M690.15,120.14,699,105.78a49.21,49.21,0,0,0,26.8,8.26c9.08,0,13.68-2.3,13.68-6.22,0-2.58-2.17-4.47-6.77-5.42l-19-4.06c-13.94-3-20.31-9.61-20.31-20.44,0-11.51,9.75-21.13,29.93-21.13,12.18,0,23,3.53,30.46,8.13l-8.26,13.81c-6.09-3.25-14.21-6.77-22.75-6.77-7.71,0-12.18,1.9-12.18,5.41,0,2.31,1.63,3.8,6.09,4.61l16,3c17.33,3.38,24,11.1,24,21.53,0,15-15,22.88-31.42,22.88A66.55,66.55,0,0,1,690.15,120.14Z"/><path class="cls-1" d="M760.29,58.39h10.29V39.3l18-11.64V58.39h10.56V74.1H788.59v53.49h-18V74.1H760.28V58.39Z"/><path class="cls-1" d="M150.8,69.52a69,69,0,0,0-2.15-13c-5.15-19-16-33.95-32.54-44.62A73.47,73.47,0,0,0,81.33.21,78.42,78.42,0,0,0,65.71.63a77.16,77.16,0,0,0-16,3.89,75.21,75.21,0,0,0-49.54,66C0,73.21,0,75.92,0,78.62v65.64a6.43,6.43,0,0,0,6.43,6.43H31.79a6.48,6.48,0,0,0,6.4-5.76v0a7.49,7.49,0,0,0,.26-1.89v-1.52a1.37,1.37,0,0,1,0-.35V141a1.43,1.43,0,0,1,.48.23,75.38,75.38,0,0,0,30.8,9.2,77.64,77.64,0,0,0,13-.13,74.85,74.85,0,0,0,52.14-28.48,74.12,74.12,0,0,0,15.78-39.25A70.68,70.68,0,0,0,150.8,69.52ZM89,111.46a1,1,0,0,1-1,.81H63a1,1,0,0,1-1-.81l0-.16v-.93a14.85,14.85,0,0,1,.38-3.41c.16-.38.26-.83.42-1.25s.32-.81.48-1.22.42-.78.64-1.13l.36-.54a9.86,9.86,0,0,1,.77-1c.29-.36.58-.67.87-1a13.6,13.6,0,0,1,5.34-3.24,8.87,8.87,0,0,1,4.21-16.66,9,9,0,0,1,6.27,2.61,8.86,8.86,0,0,1-2,14A13.48,13.48,0,0,1,89,110.37C89,110.73,89,111.12,89,111.46ZM132.1,57H18.94a1.34,1.34,0,0,1-1.26-1.77,61.33,61.33,0,0,1,115.67,0A1.34,1.34,0,0,1,132.1,57Z"/></g></g></svg>
