<svg id="Layer_1" xmlns="http://www.w3.org/2000/svg" viewBox="0 0 1000 1000"><style>.st0{display:none;fill:#fefefe}.st5{fill:#fefdfd}</style><path class="st0" d="M38.8 772.3c0-190 0-380.1-.1-570.1 0-3.9.8-4.7 4.7-4.7 303.2.1 606.5.1 909.7 0 3.9 0 4.7.7 4.7 4.7-.1 190-.1 380.1-.1 570.1H38.8zm715.8-432c-1.6 1.9-2.6 4-1.5 6.6-.9 3.6-.2 7.4.8 10.7 1.2 3.8-.2 4-3.2 4.3-12.8 1-25.4 2.5-37.2 8-32.5 12-57.2 49.4-55.5 70.5 7.2-9.6 17.3-13.8 28-17 9.8-2 19.7-1.9 29.7-2.1 16.4-.3 31-5.5 43.5-16.3 1.2 0 1.9-.7 2.3-1.7 15-14.4 23.7-31.6 23-52.8-.4-10.6-5.5-20.1-8.2-30.2 0-2.2 1-4.7-.9-6.3-.9-.8-2.4.5-3 1.8-10.3 5-16.3 13.2-17.8 24.5zM204.1 536.2c1.9.5 3.2.8 4.4 1.2 22.6 7.1 45.8-2.8 51-29.4.9-4.9 1.6-9.8 1.5-14.8-.4-26.1-14.4-42.1-39.4-45.1-9.6-1.1-19.1.3-28.5 1.7-14 2.1-14 2.1-13.9 15.7v5.2c0 31 .1 61.9-.1 92.9 0 4.3 1.1 5.7 5.4 5.4 4.9-.4 9.9-.3 14.9 0 3.6.2 5-.7 4.9-4.7-.5-9.2-.2-18.4-.2-28.1zm-78-115.9c-6.9-1.3-13.8.3-20.6 2.9-11.3 4.4-18.7 12.3-20.7 24.1-2.2 13 1 24.4 12.7 32.5 7 4.8 14.9 7.2 22.6 10.3 5.6 2.2 11.5 3.9 16 8.3 5.9 5.7 4.2 15.6-3.7 17.9-9.6 2.7-19.4 2.5-29-.3-4.6-1.3-10-5.5-13.2-4.2-3.8 1.6-3.8 8.6-5.7 13.1-.3.7-.4 1.5-.8 2.1-2 3.5-.6 5.3 2.9 6.8 16.2 6.8 32.9 8.7 50.2 5.2 15.9-3.2 27.4-11.7 29.3-28.6 1.8-15.6-3.2-29.6-23-37.5-8.5-3.4-17-6.8-25.4-10.4-4.8-2.1-7.3-6.1-7.1-11.3.2-6.8 5.4-8.5 10.9-9 9.2-.8 18.3-.4 26.8 3.6 2.4 1.1 5.4 2 6.2-1.1 1.2-4.9 3.3-9.4 5.1-13.9 1.5-3.7-.4-4-2.6-4.9-9.7-4.2-19.7-7-30.9-5.6zm168.7 81.8h6.6c15.3 0 30.6-.1 45.8.1 3.5 0 5.3-.6 5-4.6-.4-5.1.1-10.4-.5-15.4-3.1-24.4-23.1-38.6-47.2-33.9-20.7 4-33.3 20-34.6 43.8-1.6 28.5 15.3 47.1 43.8 48.2 7.7.3 15.3-.7 22.8-2.2 11.1-2.3 11.1-2.3 9.1-13.6-.4-2.1-.8-4.1-1-6.2-.3-3-1.5-3.7-4.4-2.7-6.7 2.3-13.7 3.2-20.9 3.1-11.3-.2-20.5-3.8-24.5-16.6zm507.9 0c3.8 0 7.6.2 11.5 0 5.7-.3 13.8 2.6 16.4-1.1 3.4-5 1.5-12.9.5-19.6-2.2-13.8-8.5-24.9-22-30.6-23.1-9.8-48.5 1.5-56.8 25.2-3.7 10.5-3.9 21.3-1.4 32.2 3.8 16.3 14.1 26.2 30.1 30.4 12.1 3.1 24.3 1.8 36.3-.8 9.8-2.1 9.7-2.3 7.9-12.3-.4-2.1-.8-4.1-1-6.2-.3-3.5-1.3-4.8-5.3-3.4-7.3 2.5-14.9 3.4-22.6 2.8-9.1-.6-16.4-3.8-20.8-12.7-2.2-4.4-.2-3.9 2.6-3.9h24.6zm-158.3 3.6s-.1 0 0 0c0-8.4.2-16.8-.1-25.2-.7-20.6-11-31.2-31.5-32.7-8.1-.6-16 0-24 1.2-12.3 1.9-12.3 2-10.1 14.3.2.9.4 1.9.4 2.8 0 4.3 1.2 5.9 6.1 4.5 8.3-2.3 16.9-3.3 25.5-1.3 5.5 1.2 8.4 4.9 9.5 10.2.7 3.3.4 5.1-4.2 4.4-10.5-1.6-21-1.2-31 2.8-10.5 4.2-16 12.3-16.2 23.3-.3 15.6 7.3 25.3 22.8 28.2 16.8 3.2 33.5 1.1 50.1-2.2 3-.6 2.9-2.4 2.9-4.5-.2-8.6-.2-17.2-.2-25.8zm16.4-10.7c0 12.8.1 25.6-.1 38.4-.1 3.5.9 4.8 4.5 4.6 5.1-.3 10.3-.4 15.5 0 4.5.4 5.3-1.4 5.3-5.5-.2-19.3 0-38.6-.2-57.9 0-3.5.7-4.9 4.6-5.2 16.3-1.2 20.6 2.4 21.4 18.8.1 2.1.1 4.2.1 6.3 0 12.8.2 25.6-.1 38.4-.1 4.1 1.2 5.3 5.2 5 5.3-.3 10.7-.2 16 0 2.5.1 3.9-.4 3.9-3.4-.4-18.7.9-37.5-.7-56.2-1.6-17.8-11.4-27.7-29.1-29.9-14.4-1.8-28.5.4-42.6 3.5-3.3.7-3.6 2.4-3.6 5.2 0 12.7-.1 25.3-.1 37.9zm190.8 74.8c-15.9 0-31.7.1-47.6-.1-3.5 0-5 .8-5.6 4.5-2.3 14.9-4.7 29.8-7.4 44.6-.7 4.1.1 5.1 4.3 5.1 31.1-.2 62.3-.1 93.4 0 3.5 0 5-.9 5.6-4.5 2.3-15.1 4.7-30.2 7.5-45.2.7-3.9-.4-4.5-3.9-4.5-15.3.2-30.8.1-46.3.1zm-7.5-97.8c.6 12.3-1.1 27.3 1 42.1 2 14.1 10.2 22.7 23.8 25 7.2 1.2 14.5 1.2 21.7-.1 12.1-2.3 12.1-2.4 9.9-14.3-.1-.8-.3-1.5-.3-2.3-.3-4.3-1.3-7.4-6.8-4.9-2.4 1-5.2 1.1-7.9 1.2-11.3.7-15.8-3.4-16.3-14.8-.2-6.3-.2-12.6 0-18.9.1-4.5-2-10.4.8-13.3s8.7-.6 13.2-.9c5.1-.4 11.8 2.2 14.8-1.1 3-3.2.4-9.8 1-14.9.5-4.3-1.4-5.1-5.2-4.9-7.1.3-14.1 0-21.2.1-2.8.1-3.6-.9-3.6-3.6.2-5.9-.1-11.9.1-17.8.2-3.5-.5-4.8-4.4-4-5.4 1.2-10.9 2-16.4 2.6-3.6.4-4.5 2-4.5 5.6.4 12.1.3 24.4.3 39.2zm-401.6.4c.7 12.5-1.3 27.6 1.1 42.6 2.2 13.5 10.1 21.7 23.4 24 8.1 1.4 16.4 1.3 24.5-.7 9.6-2.4 9.6-2.4 7.8-11.8-.4-2.2-1-4.5-1.2-6.8-.2-2.9-1.1-3.9-4.3-3-3.6 1-7.5 1.6-11.3 1.8-9.8.4-14.1-3.4-14.7-13.3-.4-6.8-.2-13.7-.2-20.6-.1-13.9 0-13.8 13.8-14 5.2-.1 12.4 2.5 15.2-1.2 2.6-3.4.6-10.2 1-15.5.2-3.4-1.1-4.2-4.3-4.1-7.1.2-14.1-.1-21.2.1-3.5.1-4.7-.8-4.6-4.4.3-5.9 0-11.8.1-17.8.1-2.7-.7-3.8-3.6-3.3-6 1.1-12 2-18.1 2.8-3 .4-3.4 2-3.4 4.7v40.5zm-34.1-24.9c-29.8-.1-49.6 22.1-46.8 51 2.2 22.9 13.3 36.6 33 40.5 9.9 2 19.8 1.6 29.6-.8 8.4-2 8.4-2 7-10.3-.5-3.2-1.1-6.4-1.5-9.6-.3-2.5-1.3-3-3.8-2.1-5.5 1.9-11.2 2.5-16.9 2.4-9.1-.1-16.2-3.2-20.3-12.1-2.5-5.5-2.9-11.2-2.2-16.9 1.4-10.8 7.7-20.4 21.1-20.7 5-.1 10 .3 14.6 2.1 2.9 1.1 4.1.3 4.6-2.7.9-4.3 1.9-8.6 3.3-12.7 1-3-.1-4-2.7-4.9-6.5-1.9-13.2-3.3-19-3.2zm103.1 48.3c0 12.2.3 24.5-.1 36.7-.2 4.8 1.5 5.8 5.8 5.5 4.8-.3 9.6-.3 14.3 0 4 .3 5.2-1 5.1-5.1-.2-16.8-.1-33.6-.1-50.4 0-13.5.4-13.8 14.4-13.1 4.6.2 10.4 4.4 13.4 1.1 2.9-3.2 2.1-9.4 3.5-14.2 1.3-4.2 0-5.6-4.1-6.5-16.8-3.6-33-1.4-49.1 3.6-2.8.9-3.2 2.6-3.2 5.1.2 12.5.1 24.9.1 37.3zm251.4 128.4c14.3-.1 20.6-4.4 22.8-15.8 3.4-17.5 3.4-17.5-14.9-15.5h-.6c-4.9 1.1-3.2 5.5-3.9 8.4-.8 3.2 2.5 1.7 4 2.1 1.3.4 3.4-.8 3.7 1.4.3 2.1-.1 4.1-2.3 5.4-3.7 2.2-11.3 1.9-14.7-.8-5.5-4.3-5.4-15.9.1-22.7 5.2-6.3 13.6-7.2 19.6-1.7 1.8 1.6 2.9 1.6 4.9.7 8.5-4.1 8.8-7.4.9-13.1-2.5-1.8-5.3-2.9-8.4-3.5-17.4-3.1-32.6 8.8-35.2 27.7-2 15.8 8.2 27.5 24 27.4zM704.3 614h1.7c4.4.3 11.3-2.5 8.3 6.8-.1.4.1 1.4.4 1.5 2.9 1.2 6 .4 9 .5 2.5.1 2-2.2 2.7-3.6.8-1.8-.6-5.1 3-5.2 4.9-.2 2.8-4.6 4-7 1.2-2.3-.3-3-2.5-3.7-2-.7-1.9-3.3-1.2-4.9 2.9-6.9 3-14.5 4.9-21.6.3-1.2 1.1-3.3-.6-3.4-4.4-.2-9.5-2.5-13 1.4-8.5 9.5-16.6 19.4-24.7 29.3-2 2.5-2.8 6.4-1.8 9.2.6 1.8 4.5.5 7 .7.9.1 1.9 0 2.8 0z"/><path class="st0" d="M812.2 616.4c-3.3-.4-8.9 1.8-10.8-.9-1.6-2.3.7-7.5 1.4-11.4 1.4-7.5 3.1-15 4.3-22.5.5-3.5 2.3-3.9 5.1-3.6 3.9.4 2 3.1 1.7 4.7-1.4 7.9-2.8 15.8-4.6 23.6-.8 3.4.3 4 3.3 3.9 3.4-.2 6.9-.2 10.3 0 1.4.1 3.9-1.1 3.7 2-.2 2.3-.5 4.6-3.9 4.3-3.3-.3-6.6-.1-10.5-.1zM707.9 603c4.2-4.7 7.8-8.7 11.7-13-.7 14.1-1.1 14.6-11.7 13z"/><path d="M126 875V126h749v587l-3 3.3c-37.6 37.7-75.3 75.3-113 112.9-15.3 15.3-30.6 30.5-46 45.8H126zm493.1-460.4h27.1c7.8 0 10 2.1 10.1 10.1 0 13.3-.1 26.7-.1 40 0 7.8 2.7 10.8 10.4 10.8 28.2.1 56.3.1 84.5 0 9.7-.1 11.9-2.7 11.9-12.4 0-42.2.1-84.3.1-126.5 0-11.5-2.2-13.9-13.6-13.9-48.3-.1-96.7 0-145-.1-5.7 0-10.7 1.4-15 5.6-21.9 21.9-43.7 44-66 65.4-8.6 8.2-11.5 17.6-11.5 29 .1 86.3.1 172.6.1 259 0 2.3.1 4.7.2 7 .6 7.5.6 7.5 8.3 7.5 51.3 0 102.7-.1 154 .1 6.3 0 11.3-1.9 15.7-6.3 21.5-21.4 43.1-42.7 64.6-64.1 4.9-4.9 7.5-10.8 7.5-17.9.1-32.7.3-65.3.5-98 0-8.2-2.7-10.7-10.9-10.7-20 0-40 .1-60 .1-8.7 0-17.3-.2-26-.1-6.8 0-9.3 2.5-9.8 9.2-.1 1.8-.1 3.7-.1 5.5 0 31.3 0 62.7.1 94v5.4H619c.1-66.1.1-131.9.1-198.7zm-380.2-90.3v5.1c0 87.3.1 174.6.1 261.9 0 12.8 3.8 24 12.5 33.3 19.8 21.1 39.9 42 59.9 63 6.1 6.4 13.2 9 22.3 9 49.2-.3 98.3-.2 147.5-.2 7.4 0 7.6-.2 7.7-7.9l1.2-202.9c.1-10-1.8-11.8-12-11.8-26.5-.1-53-.1-79.5-.3-14.1-.1-16.2 1.9-16.1 16 .2 33.2.2 66.3.3 99.5 0 4.9-.4 9.8-.6 14.6h-35.8V435.1h5.6c40.5-.1 81-.1 121.5-.2 1.5 0 3 .1 4.5-.1 5.6-.7 10.5-3.9 10.5-7.5.2-19.1.1-38.3.1-57.9-2.2-.2-4.7-.5-7.1-.5-37.2-.2-74.3-.3-111.5-.6-4.7 0-9.3-.2-14-.8-6.5-.9-9.3-3.4-9.9-9.9-.8-7.6-.9-15.3-.9-22.9-.1-9.4-2.1-11.7-11.8-11.7h-83c-3.8.2-7.4.9-11.5 1.3z" fill="#f13204"/><path d="M713.1 875c15.3-15.3 30.7-30.5 46-45.8 37.7-37.6 75.3-75.3 113-112.9 1.1-1.1 2-2.2 3-3.3.3 0 .6 0 1-.1v163h-163c-.1-.2-.1-.5 0-.9z" fill="#fefefe"/><path d="M876 713c-.3 0-.6.1-1 .1V358.9 126.1c.3.2.9.3 1 .5.1 1.3 0 2.7 0 4V713z" fill="#f45e3a"/><path d="M713.1 875c-.1.3-.1.6-.1 1H130.5c-1.5 0-3-.6-4.5-1h587.1z" fill="#f46543"/><path class="st5" d="M619.1 414.6v198.6h37.2v-5.4c0-31.3 0-62.7-.1-94 0-1.8-.1-3.7.1-5.5.5-6.7 3-9.2 9.8-9.2 8.7 0 17.3.1 26 .1 20 0 40-.1 60-.1 8.2 0 10.9 2.5 10.9 10.7-.1 32.7-.4 65.3-.5 98 0 7.1-2.6 13-7.5 17.9-21.5 21.4-43.1 42.7-64.6 64.1-4.4 4.3-9.4 6.3-15.7 6.3-51.3-.1-102.7-.1-154-.1-7.7 0-7.7 0-8.3-7.5-.2-2.3-.2-4.7-.2-7 0-86.3.1-172.6-.1-259 0-11.4 2.9-20.8 11.5-29 22.3-21.5 44.1-43.5 66-65.4 4.2-4.2 9.3-5.6 15-5.6 48.3 0 96.7 0 145 .1 11.4 0 13.6 2.5 13.6 13.9 0 42.2 0 84.3-.1 126.5 0 9.8-2.3 12.4-11.9 12.4-28.2.2-56.3.1-84.5 0-7.7 0-10.4-2.9-10.4-10.8 0-13.3.1-26.7.1-40 0-8-2.2-10.1-10.1-10.1-9.1.1-18.1.1-27.2.1zM238.9 324.3c4.2-.4 7.8-1.1 11.4-1.1 27.7-.1 55.3-.1 83 0 9.7 0 11.7 2.2 11.8 11.7.1 7.6.2 15.3.9 22.9.7 6.5 3.4 9 9.9 9.9 4.6.6 9.3.8 14 .8l111.5.6c2.5 0 4.9.3 7.1.5 0 19.6.1 38.7-.1 57.9 0 3.7-4.9 6.9-10.5 7.5-1.5.2-3 .1-4.5.1-40.5.1-81 .1-121.5.2h-5.6v168.5h35.8c.2-4.8.7-9.7.6-14.6 0-33.2-.1-66.3-.3-99.5-.1-14.1 2-16.1 16.1-16 26.5.2 53 .2 79.5.3 10.2 0 12.1 1.8 12 11.8l-1.2 202.9c0 7.8-.3 7.9-7.7 7.9-49.2 0-98.3-.2-147.5.2-9 .1-16.2-2.6-22.3-9-20-21-40.1-41.9-59.9-63-8.7-9.3-12.5-20.5-12.5-33.3.1-87.3 0-174.6-.1-261.9.1-1.6.1-3.1.1-5.3z"/></svg>