<svg width="216" height="55" fill="none" xmlns="http://www.w3.org/2000/svg">
  <path d="M81.46 20.8c-.693.08-1.32.26-1.88.54-.56.28-1.04.633-1.44 1.06-.4.413-.707.887-.92 1.42a4.384 4.384 0 00-.24 2.48c.093.427.267.873.52 1.34.267.453.56.933.88 1.44.333.507.68 1.047 1.04 1.62.36.573.687 1.187.98 1.84a12.1 12.1 0 01.72 2.06c.2.733.3 1.513.3 2.34 0 1.253-.227 2.42-.68 3.5a8.192 8.192 0 01-1.96 2.8c-.84.8-1.867 1.447-3.08 1.94-1.213.48-2.58.767-4.1.86a.665.665 0 01-.44-.18c-.107-.12-.16-.3-.16-.54v-3.66c0-.2.06-.36.18-.48s.273-.18.46-.18a5.332 5.332 0 001.88-.56 4.967 4.967 0 001.4-1.06c.387-.427.68-.907.88-1.44a4.38 4.38 0 00.24-2.48 5.661 5.661 0 00-.54-1.36 20.223 20.223 0 00-.88-1.46c-.32-.52-.66-1.06-1.02-1.62a19.213 19.213 0 01-.96-1.8c-.293-.64-.54-1.313-.74-2.02a9.05 9.05 0 01-.28-2.28c0-1.267.233-2.453.7-3.56a8.703 8.703 0 011.98-2.9c.867-.827 1.907-1.48 3.12-1.96 1.213-.493 2.56-.753 4.04-.78.187 0 .34.06.46.18s.18.307.18.56v3.7c0 .2-.06.36-.18.48a.666.666 0 01-.46.16zm27.962-2.16c.307.2.46.447.46.74a.969.969 0 01-.08.36l-2.26 3.32c-.106.12-.2.22-.28.3a.397.397 0 01-.26.1c-.146 0-.326-.08-.54-.24a9.156 9.156 0 00-2.64-1.36c-.96-.32-1.96-.5-3-.54-1.44 0-2.767.267-3.98.8a9.81 9.81 0 00-3.16 2.14 9.655 9.655 0 00-2.06 3.14 9.948 9.948 0 00-.74 3.82c0 1.387.247 2.68.74 3.88a9.92 9.92 0 002.06 3.1c.88.867 1.9 1.553 3.06 2.06a9.602 9.602 0 003.76.74 9.678 9.678 0 002.92-.44 10.55 10.55 0 002.64-1.3c.187-.12.36-.227.52-.32.174-.093.307-.14.4-.14.134 0 .32.147.56.44.254.293.514.64.78 1.04.28.4.554.813.82 1.24.267.427.494.78.68 1.06.067.173.1.313.1.42 0 .16-.053.293-.16.4a3 3 0 01-.36.3 15.812 15.812 0 01-4.06 2.02c-1.453.48-3.026.72-4.72.72a15.29 15.29 0 01-4.08-.54 15.67 15.67 0 01-3.64-1.52 15.838 15.838 0 01-3.1-2.38 15.838 15.838 0 01-2.38-3.1 15.67 15.67 0 01-1.52-3.64 15.071 15.071 0 01-.54-4.06c0-1.413.18-2.767.54-4.06.36-1.307.873-2.527 1.54-3.66a15.838 15.838 0 012.38-3.1 14.87 14.87 0 013.1-2.38 15.166 15.166 0 013.64-1.54 14.78 14.78 0 014.08-.56c1.627 0 3.167.233 4.62.7a15.06 15.06 0 014.16 2.04zm-8.5 8.7a3.56 3.56 0 011.5.32c.467.2.874.473 1.22.82.36.347.64.76.84 1.24.2.467.3.967.3 1.5s-.1 1.033-.3 1.5c-.2.467-.48.873-.84 1.22-.346.333-.753.6-1.22.8-.466.187-.966.28-1.5.28-.533 0-1.033-.1-1.5-.3-.466-.2-.88-.473-1.24-.82a3.919 3.919 0 01-.82-1.2c-.2-.467-.3-.96-.3-1.48 0-.533.1-1.033.3-1.5.2-.48.474-.893.82-1.24.36-.347.773-.62 1.24-.82.467-.213.967-.32 1.5-.32zm23.931 7.98h-4v9.94c0 .493-.26.74-.78.74h-4.02c-.52 0-.78-.247-.78-.74v-7c.013-2.32.02-4.66.02-7.02 0-.227.073-.413.22-.56a.758.758 0 01.56-.22h6.14l-7.52-13.42a.674.674 0 01-.12-.38c0-.227.16-.34.48-.34h13.26c1.333 0 2.56.267 3.68.8a9.2 9.2 0 012.92 2.14 9.482 9.482 0 011.92 3.04c.453 1.147.68 2.34.68 3.58 0 .987-.153 1.953-.46 2.9a9.508 9.508 0 01-1.32 2.62 9.998 9.998 0 01-2.06 2.12 8.858 8.858 0 01-2.68 1.4l5.92 10.42c.04.093.073.18.1.26.04.067.06.127.06.18 0 .147-.18.22-.54.22h-5c-.48 0-.86-.253-1.14-.76l-5.54-9.92zm7.14-9.48c0-.56-.107-1.1-.32-1.62-.2-.52-.48-.987-.84-1.4a4.397 4.397 0 00-1.28-1.04 4.188 4.188 0 00-1.6-.52 17.69 17.69 0 00-1.7-.08h-3.04l5.2 9.08a3.77 3.77 0 001.4-.56c.44-.28.82-.613 1.14-1 .32-.4.573-.847.76-1.34.187-.493.28-1 .28-1.52zm15.121 5.3c0 1.373.247 2.66.74 3.86a9.812 9.812 0 002.04 3.14c.88.893 1.907 1.6 3.08 2.12 1.187.507 2.46.76 3.82.76 1.36 0 2.633-.253 3.82-.76a9.622 9.622 0 003.08-2.12 9.812 9.812 0 002.04-3.14c.507-1.2.76-2.487.76-3.86 0-1.36-.253-2.64-.76-3.84a9.579 9.579 0 00-2.04-3.12 9.622 9.622 0 00-3.08-2.12 9.413 9.413 0 00-3.82-.78c-1.36 0-2.633.26-3.82.78a9.928 9.928 0 00-3.08 2.12 9.579 9.579 0 00-2.04 3.12c-.493 1.2-.74 2.48-.74 3.84zm-5.58.06c0-1.413.18-2.767.54-4.06.36-1.307.873-2.527 1.54-3.66a15.85 15.85 0 012.38-3.1 14.87 14.87 0 013.1-2.38 15.166 15.166 0 013.64-1.54 14.783 14.783 0 014.08-.56c1.4 0 2.747.18 4.04.54 1.307.36 2.527.873 3.66 1.54a15.437 15.437 0 013.1 2.4c.933.92 1.727 1.953 2.38 3.1a15.072 15.072 0 011.54 3.66c.373 1.307.56 2.667.56 4.08 0 1.4-.187 2.753-.56 4.06a15.154 15.154 0 01-1.54 3.64 15.106 15.106 0 01-2.38 3.08 15.838 15.838 0 01-3.1 2.38 15.57 15.57 0 01-3.66 1.52c-1.293.36-2.647.54-4.06.54-1.413 0-2.773-.18-4.08-.54a15.67 15.67 0 01-3.64-1.52 15.838 15.838 0 01-3.1-2.38 15.85 15.85 0 01-2.38-3.1 15.683 15.683 0 01-1.52-3.64 15.071 15.071 0 01-.54-4.06zm15.3-3.88c.533 0 1.033.107 1.5.32.467.2.873.473 1.22.82.36.347.64.76.84 1.24.2.467.3.967.3 1.5s-.1 1.033-.3 1.5c-.2.467-.48.873-.84 1.22-.347.333-.753.6-1.22.8-.467.187-.967.28-1.5.28a3.77 3.77 0 01-1.5-.3c-.467-.2-.88-.473-1.24-.82a3.913 3.913 0 01-.82-1.2c-.2-.467-.3-.96-.3-1.48 0-.533.1-1.033.3-1.5.2-.48.473-.893.82-1.24.36-.347.773-.62 1.24-.82.467-.213.967-.32 1.5-.32zm43.692 9.88c.546-1.467 1.126-3.033 1.74-4.7.626-1.667 1.253-3.36 1.88-5.08.64-1.72 1.28-3.433 1.92-5.14.64-1.72 1.253-3.373 1.84-4.96.133-.253.32-.487.56-.7.24-.213.5-.32.78-.32h3.94c.346 0 .606.08.78.24.186.147.28.353.28.62 0 .053-.014.133-.04.24-.014.093-.02.153-.02.18l-10.94 27.04c-.054.133-.12.28-.2.44-.067.16-.16.313-.28.46a1.43 1.43 0 01-.4.34c-.16.093-.347.14-.56.14h-2.62c-.24 0-.447-.053-.62-.16a2.283 2.283 0 01-.44-.44c-.12-.187-.234-.4-.34-.64a36.98 36.98 0 01-.28-.74l-2.14-5.38a867.392 867.392 0 00-1.84-4.58l-4.26 10.56c-.054.133-.12.28-.2.44-.067.16-.16.313-.28.46a1.43 1.43 0 01-.4.34c-.16.093-.347.14-.56.14h-2.62c-.24 0-.447-.053-.62-.16a2.283 2.283 0 01-.44-.44c-.12-.187-.234-.4-.34-.64a36.98 36.98 0 01-.28-.74 1520.303 1520.303 0 00-3.48-8.7c-1-2.507-1.874-4.693-2.62-6.56-.747-1.867-1.38-3.44-1.9-4.72-.507-1.293-.934-2.36-1.28-3.2a369.56 369.56 0 00-.78-1.98l-.42-1.08c-.08-.253-.134-.413-.16-.48a1.184 1.184 0 01-.02-.2c0-.533.333-.8 1-.8h4.06c.626 0 1.033.307 1.22.92l7.4 19.98c.6-1.613 1.233-3.327 1.9-5.14.68-1.813 1.366-3.667 2.06-5.56l-1.52-3.78c-.414-1.027-.754-1.88-1.02-2.56-.267-.68-.48-1.213-.64-1.6-.147-.387-.26-.68-.34-.88a4.048 4.048 0 01-.12-.4.878.878 0 01-.02-.18c0-.533.333-.8 1-.8h11.36c.346 0 .606.08.78.24.186.147.28.353.28.62 0 .053-.014.133-.04.24-.014.093-.02.153-.02.18l-3.62 8.96 3.94 10.66z" fill="#093373"/>
  <path fill-rule="evenodd" clip-rule="evenodd" d="M0 8.5a8.5 8.5 0 004.744 7.627A26.89 26.89 0 002 28c0 14.223 10.997 25.877 24.952 26.923a.058.058 0 01-.002-.023c.037-.293.02-6.072.008-9.133A9 9 0 1138 37a9.003 9.003 0 01-7.042 8.786c.012 3.066.029 8.821-.008 9.114a.072.072 0 01-.012.032C44.944 53.938 56 42.26 56 28c0-4.434-1.069-8.62-2.963-12.31A8.5 8.5 0 1041.31 3.963 26.885 26.885 0 0029 1a26.878 26.878 0 00-13.07 3.369A8.5 8.5 0 000 8.5z" fill="#093373"/>
  <circle cx="29" cy="37" r="3" fill="#FF9800"/>
  <path fill="#FF9800" d="M66 51h145v4H66z"/>
  <circle cx="156.8" cy="31" r="4" fill="#FF9800"/>
  <circle cx="100.9" cy="31" r="4" fill="#FF9800"/>
</svg>
