<?xml version="1.0" encoding="utf-8"?>
<!-- Generator: Adobe Illustrator 24.0.1, SVG Export Plug-In . SVG Version: 6.00 Build 0)  -->
<svg version="1.1" id="Layer_1" xmlns="http://www.w3.org/2000/svg" xmlns:xlink="http://www.w3.org/1999/xlink" x="0px" y="0px"
	 viewBox="0 0 3163 923" style="enable-background:new 0 0 3163 923;" xml:space="preserve">
<g>
	<path d="M319.24,147.48c-55.64,11.04-106.7,37.44-147.83,76.5c-26.88,25.59-43.54,47.67-59.4,78.38
		c-24.46,47.41-33.6,85.65-33.6,139.79c0,54.14,9.14,92.39,33.6,139.79c15.86,30.71,32.52,52.79,59.4,78.38
		c56.17,53.6,124.98,80.81,204,80.81c52.68,0,92.19-9.16,135.73-30.98c21.77-11.04,51.07-29.9,51.07-33.13
		c0-1.08-16.4-18.32-36.28-38.25l-36.29-36.36l-16.13,8.89c-30.1,16.7-51.87,22.63-87.62,23.97c-27.14,1.08-36.01,0.54-55.1-4.31
		c-87.89-22.09-147.56-98.31-147.56-188.81c0-108.28,85.47-193.93,193.52-193.93c142.18,0,234.91,145.99,176.05,276.89l-7.53,16.97
		l36.02,36.36c19.62,19.93,37.09,36.09,38.7,36.09c5.91,0,30.1-45.25,40.59-76.23c10.21-29.9,14.51-58.99,14.51-96.16
		c0-54.14-9.14-92.39-33.6-139.79c-15.86-30.71-32.52-52.79-59.4-78.38c-41.66-39.86-92.72-65.99-149.71-76.76
		C406.05,142.09,344.77,142.36,319.24,147.48z"/>
	<path d="M1387.32,424.64v197.97h36.28h36.29V424.64V226.67h-36.29h-36.28V424.64z"/>
	<path d="M2509.19,230.71c-100.25,21.82-171.75,120.13-159.65,218.71c6.18,49.02,23.65,84.31,58.86,119.32
		c33.6,33.13,62.89,49.02,107.78,58.18c49.19,9.97,110.47-2.96,151.33-31.78l7.51-5.39l14.78,13.2
		c27.14,23.43,23.93,23.16,40.59,4.85c26.6-29.36,26.33-26.66,5.91-45.25l-17.75-15.89l11.57-20.47
		c45.67-80.27,32.53-174.54-33.87-240.26c-29.29-29.36-61.82-46.87-101.6-55.22C2572.37,225.86,2530.96,225.86,2509.19,230.71z
		 M2588.48,299.12c53.76,16.7,94.33,72.72,94.33,130.1c0,16.43-6.45,42.29-14.24,57.64l-5.91,11.31l-26.62-23.16l-26.6-23.16
		l-11.82,13.2c-6.72,7.54-15.6,17.78-19.9,23.43l-7.79,9.7l25.81,22.36l25.51,22.35l-12.09,6.2c-16.39,8.35-40.05,14.28-56.71,14.28
		c-69.07,0-130.36-64.65-130.36-137.1c0-15.89,6.18-40.67,14.79-58.18c8.06-16.43,29.83-41.75,46.23-53.06
		C2512.69,294.81,2554.34,288.62,2588.48,299.12z"/>
	<path d="M769.15,265.72v33.67h61.82h61.82V461v161.61h37.63h37.63V461V299.39h61.82h61.82v-33.67v-33.67H930.42H769.15V265.72z"/>
	<path d="M2811.82,427.33v195.28h135.74h135.74v-32.32v-32.32h-99.44h-99.47V395.01V232.06h-36.27h-36.3V427.33z"/>
	<path d="M2172.14,288.62v40.4h-21.5h-21.5v29.63v29.63h21.5h21.23l0.81,92.12l0.81,92.39l7.26,13.47
		c15.59,29.63,38.97,43.1,74.72,43.1c20.69,0,24.73-0.81,41.12-8.89c10.21-5.12,19.08-10.77,19.89-12.93
		c0.81-2.16-1.34-10.24-4.57-18.05c-3.49-7.54-7.79-17.78-9.67-22.63l-3.49-8.35l-10.22,5.12c-11.82,6.2-22.58,6.46-32.79,1.35
		c-13.98-7.54-14.78-12.39-15.86-98.04l-0.81-78.65h33.6h33.87v-29.63v-29.63h-33.6h-33.6v-40.4v-40.4h-33.6h-33.6V288.62z"/>
	<path d="M1197.84,322.82c-16.66,1.35-41.66,5.93-56.44,10.77c-11.56,3.5-43.54,16.43-46.77,18.85
		c-1.35,0.81,21.5,51.98,23.11,51.98c0.54,0,5.37-2.15,11.02-5.12c43-21.82,95.68-22.35,119.87-0.81c7.8,7,17.74,30.17,17.74,42.02
		c0,9.43-0.54,10.23-5.91,8.62c-38.44-10.77-82.78-13.74-109.66-7.27c-33.06,8.08-61.28,29.63-74.45,56.56
		c-6.45,12.93-7.53,18.32-7.53,37.98c0,19.12,1.07,25.32,6.99,37.71c13.98,29.09,40.59,47.95,76.6,54.14
		c35.48,6.2,70.42-1.62,98.91-22.09l15.05-10.77v13.47v13.74h34.94h34.94v-98.58c0-104.78-1.07-117.17-13.97-142.22
		c-7.53-14.81-30.91-37.44-46.77-45.52C1255.36,326.32,1223.38,320.67,1197.84,322.82z M1230.09,490.63
		c10.48,1.62,22.84,4.04,27.68,5.65c8.6,2.69,8.6,2.96,8.6,20.2c0,19.93-3.77,29.09-17.2,40.67c-30.1,26.67-87.08,25.59-105.63-1.88
		c-10.75-15.62-7.53-38.52,7.26-50.64C1169.62,489.28,1191.93,485.24,1230.09,490.63z"/>
	<path d="M1630.57,323.64c-33.06,3.77-62.89,18.05-86.01,41.48c-20.43,20.47-32.25,40.94-38.97,67.87
		c-22.85,89.69,27.15,174.27,114.77,193.93c46.5,10.24,109.66-4.31,143.53-33.4l11.02-9.43l-20.96-21.01l-20.7-21.01l-6.99,4.85
		c-11.02,7.81-32.79,18.05-46.5,21.82c-16.4,4.31-49.19,2.43-61.55-3.77c-22.04-10.5-41.12-34.48-47.04-58.99l-1.61-7.27h113.16
		h113.15l-1.07-10.23c-0.81-5.39-2.15-18.32-2.96-28.28c-4.3-51.18-35.21-103.43-72.84-122.56
		C1695.35,325.52,1661.21,320.13,1630.57,323.64z M1675.19,384.24c22.85,8.08,38.7,26.13,47.04,53.87l3.5,12.12h-77.68
		c-43,0-77.94-0.54-77.94-1.08c0-4.85,9.41-25.59,15.86-34.75C1605.04,386.39,1644.01,373.2,1675.19,384.24z"/>
	<path d="M1972.72,323.9c-19.62,2.96-41.12,12.93-56.98,26.94l-12.36,11.04v-16.43v-16.43h-36.28h-36.28v146.8v146.8h36.28h36.01
		l0.81-96.16c0.81-94,1.08-96.7,6.72-107.74c11.29-20.74,34.94-33.94,61.28-33.94c24.19-0.27,41.93,10.51,53.22,31.78
		c5.64,10.51,5.91,14.28,6.72,108.28l0.81,97.78h34.68h34.94V519.45c0-77.03-1.07-106.39-3.76-116.36
		C2083.72,346.53,2033.19,315.01,1972.72,323.9z"/>
	<circle cx="377.21" cy="443.43" r="121.04"/>
</g>
</svg>
