<svg width="1781" height="402" fill="none" xmlns="http://www.w3.org/2000/svg"><path d="M202 250a92 92 0 0 1-80 47c-17 0-33-4-48-12a86 86 0 0 1-42-51H0v168h30V279c12 14 26 25 43 34 16 7 34 11 52 11a116 116 0 0 0 85-35c15-15 26-34 31-55h-32l-7 16zM55 138a90 90 0 0 1 66-27 90 90 0 0 1 88 62h33c-6-20-17-40-32-55a118 118 0 0 0-86-35 112 112 0 0 0-94 48V89H0v85h33c4-14 12-26 22-36zM497 251a97 97 0 0 1-81 45 93 93 0 0 1-88-62h-33c5 21 16 40 32 55a116 116 0 0 0 85 35 118 118 0 0 0 95-45v39h30v-84h-33l-7 17zM335 157a90 90 0 0 1 81-46 90 90 0 0 1 88 63h33V89h-30v42a113 113 0 0 0-94-48 118 118 0 0 0-86 35c-16 15-27 34-32 56h32l8-17zM693 265l-15-31h-32l30 67-45 101h32l75-168h-32l-13 31zM803 89h-32l-38 85h32l38-85zM612 89h-32l38 85h33l-39-85zM868 0h-30v174h30V0zM868 234h-30v84h30v-84zM1136 131c-10-15-25-28-41-36s-34-13-52-12a118 118 0 0 0-86 35c-16 15-28 34-33 56h33l7-17a90 90 0 0 1 81-46 92 92 0 0 1 93 94 87 87 0 0 1-46 80 97 97 0 0 1-94-1 93 93 0 0 1-41-50h-32c5 21 16 40 31 55a116 116 0 0 0 85 35 118 118 0 0 0 95-45v39h30V89h-30v42zM1291 3h-30v86h-42v25h42v204h30V114h48V89h-48V3zM1590 127c-24-29-56-44-96-44-39 0-70 14-93 43a122 122 0 0 0 5 161c21 25 51 37 90 37 15 0 31-2 46-8 14-5 26-12 37-22 12-11 22-24 29-39l-25-13c-7 12-16 23-26 32-9 8-18 13-29 17a103 103 0 0 1-69 0 92 92 0 0 1-55-85h212c0-32-9-58-26-79zm-183 53a88 88 0 0 1 87-69 96 96 0 0 1 71 31c9 12 15 24 18 38h-176zM1753 83c-11 0-22 3-32 9-11 8-21 18-29 30V89h-31v229h31v-78c0-39 2-66 6-79 5-17 12-29 21-37 8-8 19-12 29-13l16 4 16-25c-8-4-17-7-27-7z" fill="#38C9F6"/><path d="M1044 278a76 76 0 1 0-70-104h51v-17l72 46-72 45v-14h-50a76 76 0 0 0 69 44z" fill="#38C9F6"/></svg>