<svg xmlns="http://www.w3.org/2000/svg" width="1513" height="292">
  <g fill="none" fill-rule="evenodd">
    <path stroke="#FA8366" stroke-width="26.925" d="M115.684 20.541l71.061 51.44v46.718L14.101 262.662l-.288-62.133z"/>
    <path stroke="#FA8366" stroke-width="26.925" d="M77.859 20.541l-64.058 51.44v46.718l172.644 143.963.288-62.133z"/>
    <path fill="#000" fill-rule="nonzero" d="M339.483 279.478h-34.886V98.79h33.76v24.041c11.255-19.91 33.762-29.3 54.769-29.3 22.507 0 44.265 10.893 54.018 34.184 14.255-25.92 37.512-34.185 60.395-34.185 31.51 0 62.27 21.413 62.27 68.745v117.203h-34.886V166.031c0-23.666-11.629-41.321-38.263-41.321-24.758 0-41.639 19.533-41.639 45.453v109.315H419.76V166.031c0-23.29-11.254-41.321-38.263-41.321-25.133 0-42.014 18.782-42.014 45.83v108.938zm363.87-25.92c30.01 0 56.27-22.539 56.27-64.612 0-41.697-26.26-64.236-56.27-64.236s-56.268 22.539-56.268 64.236c0 42.073 26.259 64.612 56.268 64.612zm0-160.403c54.018 0 92.281 40.946 92.281 95.791 0 55.221-38.263 96.167-92.28 96.167-54.018 0-92.281-40.946-92.281-96.167 0-54.845 38.263-95.791 92.28-95.791zm172.182 186.323H840.65V7.506h34.886v116.828c8.628-16.153 29.635-30.804 59.645-30.804 54.768 0 82.902 42.073 82.902 94.665 0 53.718-30.385 96.167-84.027 96.167-26.634 0-47.266-11.645-58.52-31.18v26.296zm106.536-91.283c0-39.068-20.632-63.485-53.268-63.485-31.135 0-53.643 24.417-53.643 63.485s22.508 64.612 53.643 64.612c32.26 0 53.268-25.544 53.268-64.612zm116.288-13.148v104.431h-35.262V98.79h34.512v25.92c13.13-22.54 34.511-31.18 55.518-31.18 43.14 0 64.521 31.18 64.521 71.374v114.574h-35.261V170.915c0-25.169-10.504-45.454-42.014-45.454-27.76 0-42.014 22.163-42.014 49.586zm210.445 104.431h-34.887V98.79h34.887v180.688zm-42.765-249.057c0-14.275 11.254-25.544 25.134-25.544 14.254 0 25.508 11.27 25.508 25.544 0 13.899-11.254 25.169-25.508 25.169-13.88 0-25.134-11.27-25.134-25.17zm91.53 200.598c0-32.306 23.633-50.337 54.769-54.845l48.766-7.137c10.878-1.503 13.88-7.138 13.88-13.524 0-17.656-11.63-32.306-39.013-32.306-24.759 0-38.638 15.402-40.889 36.438l-33.761-7.888c3.751-34.56 34.886-58.602 73.9-58.602 54.017 0 75.024 30.803 75.024 66.115v90.532c0 15.777 1.5 25.168 2.25 29.676h-34.51c-.75-4.508-1.876-11.27-1.876-24.417-7.878 12.772-25.884 30.052-58.144 30.052-36.763 0-60.395-25.544-60.395-54.094zm65.272 24.418c28.885 0 52.142-13.9 52.142-53.343v-8.264l-55.143 8.264c-15.005 2.254-26.258 10.894-26.258 27.047 0 13.523 11.253 26.296 29.26 26.296z"/>
  </g>
</svg>
