<svg width="1863" height="742" fill="none" xmlns="http://www.w3.org/2000/svg"><g clip-path="url(#clip0)" fill-rule="evenodd" clip-rule="evenodd"><path d="M1207 517l186-226c13-16 21-32 62-32 57 0 131-13 193-27 86-19 158-55 215-83-16 31-125 63-180 92 48-12 57-15 104-31-35 32-76 29-133 57 42-9 44-9 85-22-25 27-73 23-110 44 38-6 35-4 70-14-25 16-67 42-145 74l-148 34c-11 2-38 5-61 27-29 29-69 63-81 71-14 11-30 30-57 36zm-12-9l169-218c13-17 16-39-17-51-45-17-94-21-138-39-91-35-144-119-198-200-18 35 50 79 66 124-26-26-50-53-71-83-3 41 57 67 75 112-25-22-49-44-69-68-7 34 64 66 73 97-24-16-47-34-64-54 4 23 28 55 77 94 47 44 124 99 126 174 0 23-10 41-21 61-7 13-12 31-8 51z" fill="#949599"/><path d="M25 655h-3l4-14c14-8 27-12 40-12 27 2 32 20 28 35l-12 60c-1 7 4 9 12 6l-1 4c-19 9-29 4-28-9-14 12-25 16-37 16-19 0-30-13-28-27 4-27 32-32 52-34 22-3 24-9 25-20 2-9-4-20-22-21-11-1-22 4-30 16zm47 28l-7 32c-8 10-19 16-27 15-13 0-18-5-19-14 0-10 5-20 17-25 9-4 21-5 36-8zm317-27h-3l3-14c14-8 28-12 41-12 26 2 31 20 28 35l-12 60c-1 7 4 9 12 6l-1 4c-19 7-29 3-28-9-14 12-25 16-38 16-19 0-29-13-27-27 4-27 32-32 52-34 21-3 23-9 25-20 1-9-4-20-22-21-11-1-23 4-30 16zm46 28l-6 32c-8 9-20 15-27 15-14-1-19-6-19-15-1-10 4-19 16-25 9-3 22-4 36-7zm-297-54c6 2 12 2 18 0l-4 22c13-17 24-25 41-22l-7 19c-12-8-29-1-37 17l-14 72h-19l22-108zm426 0h19l-4 21c12-16 24-24 40-21l-7 19c-11-9-28-2-36 17l-14 72h-19l21-108zm375 1h19l-5 21c9-20 54-41 67-1 30-38 76-22 69 9l-15 78h-17l13-69c4-26-12-28-21-28-14-1-27 15-29 25l-14 72h-18l14-74c3-32-41-31-51 3l-14 71h-18l20-107zm-722-1c6 2 12 1 19 0l-22 109h-18l21-109zm20-50c6 0 10 6 8 12-1 7-7 11-13 11-7 0-11-6-9-12 1-6 7-11 14-11zm269 50h19l-22 109h-18l21-109zm20-50c6 0 10 6 9 12-2 6-8 11-14 11s-10-6-9-12 8-11 14-11zm111 133c7 0 12 7 10 14-2 8-8 13-16 13-7 0-12-7-10-14 2-8 9-13 16-13zM287 568h19l-21 110c6-1 12-4 18-9l43-39h20l-60 46 42 62h-23l-33-49c-3-5-7-6-9-3l-10 52h-19l33-170zm579 60c30 0 45 22 39 56s-37 56-67 56-52-23-44-54c12-43 42-57 72-58zm-3 7c18 0 27 19 21 49-6 31-27 50-46 50-18 0-31-21-24-48 10-38 30-51 49-51zm-86 20l10-16c-9-7-20-11-32-11-30 0-62 13-71 58-7 32 14 54 43 54 14 0 28-2 40-11l3-12a52 52 0 0 1-38 15c-19-1-35-19-29-46 7-36 30-49 49-50 9 0 19 6 25 19z" fill="#8C0D3A"/><path d="M3 510h62l49-103h120l20 103h100l-91-368h-65L3 510zm128-138l66-126 29 126h-95zm314-126h84l-6 57c25-44 51-64 79-57l-11 84c-38-16-64-4-75 37l-16 143h-89l34-264zm223 0h81l-38 264h-81l38-264zm173-80h78l-27 193h20l97-113h78L979 359l76 151H951l-44-115h-21l-16 115h-79l50-344z" fill="#0D3F84"/></g><defs><clipPath id="clip0"><path fill="#fff" d="M0 0h1863v742H0z"/></clipPath></defs></svg>