<svg xmlns="http://www.w3.org/2000/svg" viewBox="0 0 1000 1000"><title>Nigeria-Logo</title><path d="M617.9,12.26C651,12.72,682.58,19,712.07,34c26,13.31,47.2,31.92,61.67,57.57a156,156,0,0,1,18.19,54.66c5.38,36.84-.06,72.48-12.21,107.33C772.58,274,762.7,293.17,752,312c-21.8,38.33-49.81,71.55-82.39,101a767.92,767.92,0,0,1-136.68,98.71c-19,10.73-38.7,19.74-59.89,25.25A146,146,0,0,1,433.21,542c-17.7-.36-31.55-8.42-42.32-22a64.2,64.2,0,0,1-14.4-43.32,55.77,55.77,0,0,1,1.88-12.94c6.41-22.77,15.12-44.58,28.14-64.47,9.95-15.19,21.81-28.68,37.32-38.33,17.25-10.74,36-15.33,56.28-10.9a47.5,47.5,0,0,1,17.53,8.15c13.35,9.54,12.65,24.51,6.24,34.07a189.11,189.11,0,0,1-18.36,23.51c-11.4,12.28-23.51,23.89-35.33,35.77-10.46,10.51-20.29,21.54-28.26,34.11-4.13,6.52-7.94,13.17-9.08,21-1.44,9.82,3.66,16.51,13.57,17.43a42.39,42.39,0,0,0,15.23-1.53c15.23-4.21,29.37-11,43.26-18.32,21.42-11.33,41.19-25.18,60.46-39.79,23.36-17.71,46.07-36.18,67-56.72,23.84-23.37,45.09-48.77,61.35-78.08,11.88-21.4,20.63-44,24.52-68.24,3.44-21.35,1.52-42.15-8.37-61.75a56.25,56.25,0,0,0-21.46-23.37,40.31,40.31,0,0,0-13.89-5.18c-17.87-3.17-35.16-.57-52.15,5.1-17.71,5.92-34.14,14.56-50.11,24-34.66,20.56-69.36,41.11-102.39,64.26-16.56,11.6-32.61,23.94-48.84,36-14.66,10.9-29.22,21.93-45.24,30.84a144.58,144.58,0,0,1-41.71,15.83c-18.14,3.68-34.86.26-50.22-9.6-15.94-10.23-27.1-24.27-32-42.85-3.12-11.73-1.89-23.36.8-34.94,3.93-17,11.39-32.4,20.69-47,23-36.06,51.92-66.65,85.55-92.8,49.84-38.75,104.68-68.59,164-90.18A288,288,0,0,1,617.9,12.26Z" style="fill:#e20010"/><path d="M207.86,836.7c-.17-11.32-1.46-21.5-8-30.33a26.2,26.2,0,0,0-12.64-9.16c-13-4.66-26.24-4.11-39.15-.12-10.35,3.2-20.33,7.56-30.46,11.45-2,.74-3.82,1.69-6.24,2.77C106.6,799.48,101.91,788,97,776c7.11-3.37,13.81-6.81,20.72-9.76,15.92-6.81,32.43-11.48,49.79-12.53S202,753.58,217.8,762c17.87,9.46,30.77,23.12,36.17,43a34.23,34.23,0,0,1,1.39,8c.69,25.81,1.62,51.62,1.73,77.43.07,17.64-1.09,35.29-1.61,52.94a9.56,9.56,0,0,1-2.82,6.42c-12.35,13.6-27.46,23-44.58,29.31a141,141,0,0,1-57.41,8.25c-18-1-33.54-8.37-46.68-20.6s-22.32-27-24.88-45.1c-3.5-24.79,3.65-46.3,21.47-64,11.46-11.38,25.58-17.26,41.49-19.34,17.6-2.29,35.26-1.68,52.92-1.63ZM205.55,877a27,27,0,0,0-3.14-.43c-6-.12-12.07-.33-18.1-.24-7.23.11-14.49.14-21.68.82-7.43.71-14.64,2.88-20.4,7.84-9.56,8.24-12.4,19-10.07,31.13,2.9,15,11.28,25.48,26.22,29.94a48.28,48.28,0,0,0,23.73,1,41.64,41.64,0,0,0,19.76-9.48,8.43,8.43,0,0,0,3.25-6.18c.23-5.27.91-10.53.95-15.8.08-12.07-.1-24.14-.2-36.21A20.61,20.61,0,0,0,205.55,877Z" style="fill:#e20010"/><path d="M809.33,876c-42.9,0-85-.92-127.69.2.22,3,.35,5.84.62,8.61,1.1,11.33,3.54,22.34,8.33,32.73a55.6,55.6,0,0,0,16.82,21.56c11.6,8.81,24.84,10.25,38.73,8.46,11.48-1.48,22.17-5.68,32.83-9.91,4.89-1.93,9.74-4,15-6.15,5,10.46,9.9,20.74,15,31.32-.94.68-1.82,1.44-2.8,2-20.8,12.34-43.14,20.29-67.27,22.39-22,1.91-43-1.7-62-13.87-12.94-8.29-22-20-29.58-33.1a128.61,128.61,0,0,1-16.56-53.16Q626,835.89,652.5,791.76c12.32-20.45,30.71-31.56,53.73-35.39A94.16,94.16,0,0,1,768,766.65c10.54,5.71,17.88,14.7,23.93,24.78,8,13.29,12.21,27.94,14.23,43.12,1.64,12.24,2.16,24.63,3.14,37C809.42,872.82,809.33,874.14,809.33,876Zm-52-38.85c-2.49-11.41-4.19-23.07-11.66-32.74a27,27,0,0,0-14.93-9.64c-15.75-4.17-31.58,3.09-38.35,18-2.42,5.31-3.84,11.08-5.6,16.67-.79,2.53-1.3,5.16-1.93,7.71C689.09,838.27,753,838.32,757.35,837.18Z" style="fill:#e20010"/><path d="M527.9,701.71l51.19-7.92v62.87c11.36.68,22.18-.06,33.06,1.11V796.5c-11,.18-21.77-.15-33,.53,0,2.18,0,3.81,0,5.44q-.14,55.92-.24,111.85c0,5.87.47,11.75,1,17.6.84,9,5.83,14.71,14.55,16.9,4.81,1.22,9.75,1.91,14.63,2.84l4.9,1v32.87a6.69,6.69,0,0,1-1.74.58c-14.53.65-29,.27-43.05-4-13.72-4.14-25.16-11.64-32.92-24-4.41-7-6.65-14.87-7.62-23a131.09,131.09,0,0,1-.86-15.34q0-106.2.12-212.38Z" style="fill:#e20010"/><path d="M837.47,701.75l49.5-8.58V700q0,96.45.08,192.9c0,11.77.1,23.54.19,35.32.08,11.62,4.32,17.54,15.42,21a100.35,100.35,0,0,0,11.47,2.46c2.36.44,4.75.65,7.62,1v33.58a2.18,2.18,0,0,1-.92.45c-14.06.57-28.06.34-41.73-3.66a63.65,63.65,0,0,1-22.67-11.88C844,961,838.94,947.37,837.64,932c-.38-4.5-.33-9.05-.32-13.57q0-105.51.15-211Z" style="fill:#e20010"/><path d="M428.38,983.29h-50c-.06-2.09-.16-4-.17-5.89q-.08-45.06-.13-90.12c-.06-24-.21-48-.2-72a89.21,89.21,0,0,1,1-13c.74-4.91,3.31-9,6.88-12.45,19.64-19.12,43.17-30.58,70-35.52a142.09,142.09,0,0,1,50.87-.07c.89.16,1.78.36,2.65.58.43.11.84.32,1.67.64-5.68,14.44-12.6,28.24-19.12,41.88-7.79,0-15.17-.23-22.53.05a90.09,90.09,0,0,0-36.61,9.12c-3.24,1.59-4.45,3.57-4.44,7.3q.21,82,.1,164Z" style="fill:#e20010"/><path d="M341.5,758.78c.53,74.92-.05,149.4.43,224.34H293c-.12-1.81-.36-3.7-.36-5.59q0-70.65,0-141.32c0-21.59.18-43.18.27-64.77,0-1.64,0-3.28,0-5.34Z" style="fill:#e20010"/><path d="M315,736.73c-23.89-.06-38.85-23.84-28.94-46.29,6.09-13.77,16.55-19,31.64-18.91,20.22.17,35.21,20.28,30.39,39.93C344.24,727.16,331.64,736.77,315,736.73Z" style="fill:#e20010"/></svg>