<svg id="Layer_1" data-name="Layer 1" xmlns="http://www.w3.org/2000/svg" viewBox="0 0 1000 1000"><defs><style>.cls-1{fill:#fce012;}.cls-2,.cls-4{stroke:#000;stroke-miterlimit:10;}.cls-2{stroke-width:3px;}.cls-3{font-size:115px;font-family:OpenSans-SemiBold, Open Sans;font-weight:700;}.cls-4{fill:none;stroke-width:19px;}</style></defs><title>Untitled-1</title><rect class="cls-1" width="1000" height="1000"/><path class="cls-2" d="M573.53,306.84H407.85c3.28,5.21,6.19,9.93,9.19,14.58,6.5,10.07,13.24,20,19.49,30.19,5.69,9.28,1.25,19.26-9.31,21.4-6.87,1.4-11.46-2.37-14.94-7.65q-19.12-29-38-58-14.34-21.94-28.61-43.93c-1.32-2-2.56-4.15-4.34-7,10.85,0,20.76-.18,30.66.17,1.71.06,3.75,2,4.94,3.64,3.46,4.68,6.2,9.93,9.94,14.35,1.9,2.24,5.34,4.5,8.09,4.51,59.5.25,119,.18,178.5.16A15.48,15.48,0,0,0,575,279a25.68,25.68,0,0,0-1.33-3.49c-5-8.85-9.75-17.81-15.17-26.37-1.3-2.06-4.73-3.76-7.27-3.88-9.14-.47-18.32-.06-27.49-.23-11.31-.2-18-8-15.31-17.62a13.43,13.43,0,0,1,12.9-9.91q21.5-.15,43,0c6.74,0,11.05,4,14.19,9.51q35.53,61.85,70.9,123.79c2.47,4.33,4.4,5.57,9.51,3.79,47.93-16.72,91.92-8.66,130.86,23.42,26.49,21.83,40.5,51,43.52,85.16,3.62,40.89-10,75.66-39.45,103.87-22.52,21.56-49.84,33.29-81.08,35.12-39.4,2.31-73.34-10.67-101.23-38.34-20.44-20.28-32.63-45-35.7-74-5-47,11.26-85.33,47.33-115.54,1.64-1.36,3.21-2.79,4.91-4.28L599.1,319.71c-4.13,6.93-8.05,13.38-11.85,19.89Q546.78,409,506.4,478.39c-4.12,7.11-9.94,10.27-18,10.16-18.82-.28-37.64-.38-56.46-.58-4.81-.05-7.43,1.66-8.31,6.95-7,42.38-30.79,72.91-67.95,93.2-18.84,10.28-39.45,14.38-61,14.1-30.54-.39-57.79-9.79-81.56-28.94-27.47-22.12-42.38-51.2-46.12-86s5.26-65.88,27.42-93c22.44-27.47,51.48-42.89,86.66-46.91,34.83-4,66.37,4.46,94.14,25.74,27.2,20.85,43.35,48.56,48.68,82.44.53,3.36,2.26,4.74,5.22,4.75,17.16.08,34.34.28,51.49-.23,2.45-.07,5.56-3.33,7.07-5.88,16.19-27.32,32.12-54.79,48.12-82.22q18-30.81,36-61.63C572.3,309.4,572.75,308.38,573.53,306.84ZM399,460.37c-3.4-41.93-42.55-89.63-102.55-89.88-58.63-.24-104.75,45.15-105.75,102.63-1,54.84,41.49,100.39,96.21,104.73,66.62,5.3,108.75-46.78,112.52-89a3.78,3.78,0,0,0-1-.25c-16.66,0-33.32.1-50-.17-4.39-.07-6.28,1.9-8.47,5.34-3.87,6.09-7.87,12.46-13.16,17.22-14.73,13.25-36.81,15.22-54,5.79-18.21-10-27.63-28.29-25-48.68,2.54-19.9,17.63-36.44,36.88-40.43,21.5-4.45,42.7,3.85,52.46,22.47,4.49,8.56,9.64,10.89,18.61,10.44C370,459.84,384.31,460.37,399,460.37ZM665.78,379c7,12.22,14.61,24.16,20.93,36.73,4.18,8.31,9.18,11.68,18.87,11.23,19.92-.92,37.5,12.19,44.65,31.41,6.64,17.82.87,39.63-13.78,52.1-18.93,16.11-47.16,16.11-64.36,0-19.14-17.92-21.85-44-6.45-64.81,2.66-3.59,2.59-6.32.43-9.88-5-8.25-9.69-16.67-14.55-25-3.55-6.08-7.16-12.14-10.78-18.25-41.89,30.67-56.6,91.21-23.48,140,32.49,47.87,98.85,60,147,27.11A103.24,103.24,0,0,0,792,417.22C759.81,369.05,699.06,361.94,665.78,379Z"/><path class="cls-2" d="M355.42,217.46c14.32,0,28.63-.06,42.95,0,5.57,0,10,2.32,12.4,7.62s1.6,10.06-1.57,14.6c-3,4.27-7.61,5.27-12.32,5.29q-41.7.17-83.41,0c-9.22,0-15-6-14.7-14.63.23-7.94,6.05-12.9,15.19-12.91Q334.69,217.45,355.42,217.46Z"/><text class="cls-3" transform="translate(102.92 750.12)">OKADABOOKS</text><circle class="cls-4" cx="295" cy="474" r="124.5"/><circle class="cls-4" cx="704" cy="474" r="124.5"/><circle cx="294.5" cy="474.5" r="48.5"/><circle cx="704.5" cy="474.5" r="48.5"/></svg>