<svg xmlns="http://www.w3.org/2000/svg" viewBox="0 0 1000 1000"><title>Nigeria-Logo</title><path d="M8.67,419.74c.91.09.74-.82.82-1.14a14.57,14.57,0,0,1,13.05-9.28c3.53-.08,7.06.25,10,2.46,2.21,1.64,3.2,4,4.1,6.49a129.62,129.62,0,0,1,3.86,13.29c2.54,9.28,8.86,14.28,18,16.25a47.72,47.72,0,0,0,13.22.91,107.6,107.6,0,0,0,18.46-2.88c15.35-3.61,30-9,44.65-14.85,13.38-5.34,26.43-11.33,39.81-16.74,4.43-1.81,8.78-3.78,13.54-4.68A13.79,13.79,0,0,1,199,412.19a12.58,12.58,0,0,1,5.58,8.95,29.32,29.32,0,0,1-.66,10c-2.79,12.07-5.74,24.13-8.37,36.28-4.19,19-8.45,38-13.3,56.88-2.21,8.62-4.59,17.15-7.38,25.61a46,46,0,0,1-2.14,5.66c-.41.9-.49,2.22-1,3.28-2.71,5.83-6.73,10.1-13.38,11-7.55,1-14.2-.33-19.12-6.89-4.19-5.5-7.47-11.49-10.92-17.4-3.61-6.16-7.06-12.4-12.31-17.4a12.75,12.75,0,0,0-7.55-3.7c-3.12-.24-5.67,1.32-8,3.12-4.43,3.37-7.22,8-10.17,12.64-5.5,8.7-10.43,17.73-16.42,26.1-3.45,4.76-8.12,6.9-13.87,7-3.86.08-7.55-.33-11-2.46-3.86-2.38-6.07-6-7.63-10-3-7.63-4.52-15.67-6.48-23.63-1.73-7-3.29-13.88-5-20.85-2.79-11.49-5.5-23.07-8.29-34.56Q17,463,12.53,444.12c-1.15-5-2.63-9.85-3.28-14.94-.08-.33-.17-.57-.58-.49Z" style="fill:#2b6181"/><path d="M914.06,618.29c.16-.74-.41-.58-.74-.58a79.19,79.19,0,0,1-19.12-4,59.25,59.25,0,0,1-17.9-9.36c-4.84-3.94-8.86-8.53-10.34-14.85-1-4-.82-8.05,1.48-11.57a13.27,13.27,0,0,1,9.68-6.24c6.73-1,11.74,1.72,16,6.81A27,27,0,0,0,906.59,587a53.08,53.08,0,0,0,14.77,1.88c5.91,0,11.9.25,17.57-1.56S949.84,583,953.37,578c2.55-3.61,3.53-7.88,3.94-12.23.49-4-2.62-5.17-5.91-4.76-6.73.9-13.29,2.87-19.94,4.1-3.61.66-7.31,1.07-11,1.4a53.91,53.91,0,0,1-10.34-.17,48.68,48.68,0,0,1-13.13-3.2c-7.88-3.2-14.29-8.45-19.87-14.69-6.81-7.63-10.83-16.74-13.29-26.59A96.5,96.5,0,0,1,861.28,505a110.49,110.49,0,0,1-.16-11.65c.57-11.49,2.79-22.57,8.37-32.75a50.56,50.56,0,0,1,21.42-21.26A51.77,51.77,0,0,1,908.8,434a125.08,125.08,0,0,1,19.13-.5c3.45.17,6.89.17,10.26.17,12.39-.08,24.79.49,37.18.41,3.61,0,7.3.65,10.18,3.28,2.62,2.38,3.53,5.58,4.35,8.86.32,1.32.41,2.71.65,4,.09.33.09.74.58.65V565.1c-.66-.08-.66.41-.58.82a17.37,17.37,0,0,1-.41,4.68,75.09,75.09,0,0,1-2.71,12.72,46.61,46.61,0,0,1-10.5,18.88c-5.66,6-12.72,9.77-20.52,12.15a83.42,83.42,0,0,1-19.12,3.44c-.41,0-1-.16-.91.58C929,618.29,921.53,618.29,914.06,618.29Zm12.56-154c-1.65.08-3.12.08-4.52.25a27.86,27.86,0,0,0-18.63,10.26,35.23,35.23,0,0,0-8.21,26.34,36.06,36.06,0,0,0,4.11,14,31.34,31.34,0,0,0,11.73,12.72,30.62,30.62,0,0,0,38.74-7.22c5.91-7.31,8-15.76,7.14-25.12a42.48,42.48,0,0,0-4.1-14.52,30.82,30.82,0,0,0-8.13-10.84A29.45,29.45,0,0,0,926.62,464.31Z" style="fill:#1d866a"/><path d="M420.78,383.71c-.08.33,0,.5.33.58,5.09,1.06,8.12,4.84,11.08,8.62a20.18,20.18,0,0,1,3.85,7.87,9.1,9.1,0,0,1,.17,2.14c0,3.69.16,7.39,0,11.08-.33,5.83,0,11.65-.33,17.48-.25,4.68,0,9.44-.25,14.12-.32,5.83,0,11.65-.32,17.48-.33,5,.08,9.93-.25,14.86-.41,5.33.08,10.75-.33,16.08-.33,4.76.08,9.52-.33,14.28-.41,4.93.09,9.85-.33,14.7-.32,4.59.09,9.19-.32,13.79-.33,3.93,0,7.87-.25,11.81-.33,5.18-1.4,10.1-5.42,13.88a14.4,14.4,0,0,1-12.72,3.85,17.28,17.28,0,0,1-13.95-10.59,14.74,14.74,0,0,1-1.4-6.23q0-74,0-148a19.1,19.1,0,0,1,4.68-13.21,13.53,13.53,0,0,1,6.24-3.94c.33-.08,1.23.16,1-.74C414.79,383.71,417.74,383.71,420.78,383.71Z" style="fill:#247476"/><path d="M343.87,487.79c0-.58-.08-1.15-.08-1.73V404.64a29.35,29.35,0,0,1,1.72-10.91,14.55,14.55,0,0,1,9.94-9.36c.32-.08.73-.08.65-.66h8.95c-.08.91.82.74,1.15.82,6,2.06,9.19,6.41,10.5,12.4a33.1,33.1,0,0,1,.66,7.63v94.88a18.87,18.87,0,0,1-.08,2.13c-.82,1-.49,2.22-.58,3.37-.08,1,.5,2.3-.49,2.87s-1.89-.57-2.71-1.15c-8.94-5.91-17.81-11.82-26.75-17.73A6,6,0,0,0,343.87,487.79Z" style="fill:#247476"/><path d="M277.39,568.71h-35c-10.34,0-19.69-3-27.74-9.52A34.31,34.31,0,0,1,202,537.69a35.72,35.72,0,0,1,3.12-22.9,35.22,35.22,0,0,1,14.94-15c6.4-3.61,13.46-5,20.52-6.49,8-1.64,16.09-3.28,24.13-5q8.37-1.84,16.74-3.94a18.77,18.77,0,0,0,4.27-1.56c3.69-1.72,5.17-4.84,4.35-8.87a25.61,25.61,0,0,0-5.17-11.24c-2.87-3.53-6.89-5.25-11.16-6a44.36,44.36,0,0,0-25,2.46c-5.08,2.05-8.86,5.75-11.9,10.26-2.13,3-4.26,6.07-6.23,9.19a7.28,7.28,0,0,1-4.93,3.29c-4.76.82-9.36.41-13.3-2.63s-5.41-7.06-4.76-12c1.65-12.89,9.61-21.34,20-28,7.63-4.84,16.17-7.39,25.11-8.78a78.13,78.13,0,0,1,17-.82c13.55.82,26.43,3.94,37.68,12a34.5,34.5,0,0,1,13.62,20,86.27,86.27,0,0,1,2.55,17.72c.41,7.14.41,14.37.16,21.51-.25,7,0,13.95-.25,20.93-.16,7.47,1.4,14.61,3.53,21.75,1.15,3.86,2.55,7.63,2.55,11.73.08,3.94-1.89,6.9-4.76,9.36-3.61,3.12-7.8,4.27-12.56,4.19C300.45,568.55,289,568.71,277.39,568.71Zm12.89-57.53c0-1.73-.09-3.37,0-5.09,0-1-.33-1.07-1.15-.82-2.71.82-5.42,1.8-8.13,2.46-9.44,2.22-18.88,4.35-28.31,6.48-6,1.32-11.25,3.86-15.19,8.62a10.42,10.42,0,0,0-2.46,8.95,17.22,17.22,0,0,0,8,11.41c4.76,3.2,10.1,3.85,15.76,3.36a39.79,39.79,0,0,0,15.92-4.76,28.13,28.13,0,0,0,13.05-14.2C289.87,522.34,290.36,516.84,290.28,511.18Z" style="fill:#2a667f"/><path d="M521.49,512.41H491.86a22,22,0,0,0-5.26.66c-3.85.9-5.25,3.2-4.1,7a27.33,27.33,0,0,0,4.92,9.28c4.93,6.23,11.66,9.11,19.29,10.17a48.33,48.33,0,0,0,17.48-1c8.38-1.89,16.26-4.76,23.31-9.77l4.68-3.45a13.35,13.35,0,0,1,15.1-.24,9.41,9.41,0,0,1,4.11,7.47c.33,4.76-1.48,8.78-3.94,12.64-4,6.4-9.77,11-16.25,14.77a68,68,0,0,1-22.33,7.88,90.75,90.75,0,0,1-21.09.9,73.8,73.8,0,0,1-24-5.17,57.76,57.76,0,0,1-30.53-29,68.09,68.09,0,0,1-5.66-19.21,111.87,111.87,0,0,1-1-11.9c-.49-14.53,2.05-28.32,9-41.2A61.14,61.14,0,0,1,465,449.13,63.69,63.69,0,0,1,485,434.76a68.45,68.45,0,0,1,18.31-5.49,59,59,0,0,1,10-.83c13.13.25,25.36,3.53,36.28,11.25A54.08,54.08,0,0,1,569,465.3a61.14,61.14,0,0,1,3.77,17.15c.58,6.4.66,12.64-1.47,18.8a12.72,12.72,0,0,1-8.95,8.78,55.28,55.28,0,0,1-11.49,2C540.36,512.74,529.86,512.08,521.49,512.41Zm-11.17-25.28h16.17a33.39,33.39,0,0,0,7.06-.25c5.42-1.15,6.81-4.1,5.91-8.94-.9-4.35-3.45-8-6.24-11.33a26.08,26.08,0,0,0-11.9-8.45,30.1,30.1,0,0,0-13.54-1.56,31,31,0,0,0-8.54,2.13c-4.67,2-8.29,5.34-11.41,9.28a27.49,27.49,0,0,0-5.66,11.49,5.9,5.9,0,0,0,4.27,7.14,13.32,13.32,0,0,0,3.2.49Z" style="fill:#247476"/><path d="M598.88,499.69V462c0-1.39-.41-1.72-1.72-1.72a30.19,30.19,0,0,1-8.54-.57c-5.9-1.73-9.19-5.75-9.11-11.41.17-7.14,3.12-11.49,10.84-13a32.45,32.45,0,0,1,6.89-.25c1.32,0,1.64-.33,1.64-1.64-.08-8.95-.08-17.81,0-26.76.09-4.26.66-8.53,3.37-12.14A15.3,15.3,0,0,1,614.56,388a16.39,16.39,0,0,1,12.56,4.84,15,15,0,0,1,4.35,8.7c1.15,7.39.41,14.78.57,22.25q.13,4.92,0,9.85c0,1.14.25,1.47,1.48,1.47,4.35-.08,8.7-.16,13.05,0a13,13,0,0,1,9.11,3.7,11.47,11.47,0,0,1,3,6.81c.33,2.95.33,6-1.15,8.86a9.67,9.67,0,0,1-8.21,5.5c-5.17.66-10.42.17-15.68.25-1.39,0-1.72.41-1.72,1.72,0,20.27-.08,40.55.08,60.74.09,4.35-.16,8.86,1.15,13.21,1.81,5.75,6.4,7.31,11.66,6.65,4.18-.49,8.29-1.48,12.47-2,8-.82,13.87,6.65,11.74,14.61-1.07,3.94-3.69,6.57-7.14,8.45a39.62,39.62,0,0,1-12.56,3.94,87.33,87.33,0,0,1-19.12.82c-7.31-.41-14.45-1.64-20.44-6.4a23.67,23.67,0,0,1-8.29-11.82A62.6,62.6,0,0,1,599.05,535C598.47,522.59,599.21,510,598.88,499.69Z" style="fill:#217d71"/><path d="M726.68,455.78c0-5.34-.08-10.67,2.62-15.6,2.38-4.27,6.16-6.73,10.84-6.81,21.83-.17,43.58-.33,65.41,0a39.45,39.45,0,0,1,24,8.62c8.29,6.4,13,15.1,14.85,25.36a65.49,65.49,0,0,1,.91,10.67c.65,23.8.16,47.6.24,71.32,0,4.76-.9,9.52-3.94,13.55a14.37,14.37,0,0,1-11.08,5.82,16.76,16.76,0,0,1-10.17-2.05c-4.35-2.63-6.65-6.65-7.64-11.49a39,39,0,0,1-.65-7.63c0-16.5.24-32.92-.09-49.41a31.66,31.66,0,0,0-11.49-24.54,19.74,19.74,0,0,0-17.72-4.19c-5.67,1.31-10.67,3.69-14.53,8.13-.91,1.06-1.73,2.21-2.55,3.36-.65-.41-1.39-.82-2-1.31-11.41-7.55-22.9-15.19-34.31-22.74A6.79,6.79,0,0,0,726.68,455.78Z" style="fill:#1d866a"/><path d="M726.68,455.78a5.86,5.86,0,0,1,2.62,1.14c11.41,7.64,22.9,15.19,34.31,22.74.66.49,1.4.9,2,1.31a46.6,46.6,0,0,0-4.1,10.59,48.75,48.75,0,0,0-1.15,8.62c-.66,17,0,34.06-.41,51.05-.16,6.73-2.63,12.72-9.11,15.76-9.52,4.43-20.6.41-23.47-11.24a32,32,0,0,1-.82-7.88q-.14-45.56,0-91.11A3.78,3.78,0,0,0,726.68,455.78Z" style="fill:#217d71"/><path d="M343.87,487.79a5.57,5.57,0,0,1,3,1.23c8.94,5.91,17.81,11.82,26.75,17.73.83.57,1.73,1.64,2.71,1.14s.41-1.88.5-2.87c.08-1.15-.25-2.38.57-3.36,0,2.21.08,4.43.08,6.64,0,14.12.08,28.32,0,42.44a20.06,20.06,0,0,1-3.69,11.9,14.82,14.82,0,0,1-11.57,6.16c-3.45.16-6.82-.17-9.85-2.06-4.52-2.87-6.82-7.14-7.72-12.23a43.85,43.85,0,0,1-.66-8V490.08A11.36,11.36,0,0,1,343.87,487.79Z" style="fill:#2a667f"/><path d="M697.05,568.71a17.84,17.84,0,0,1-18.55-19,18.52,18.52,0,1,1,37,1.23A17.7,17.7,0,0,1,697.05,568.71Z" style="fill:#217d71"/></svg>