<svg width="153" height="43" viewBox="0 0 153 43" fill="none" xmlns="http://www.w3.org/2000/svg">
<g clip-path="url(#clip0)">
<path d="M10.1499 40.05C9.93087 39.8808 9.7206 39.7006 9.51991 39.51C8.99991 39 8.56991 38.58 8.10991 38.1C7.64991 37.62 7.10991 37.1 6.54991 36.59C5.23687 35.3154 4.08495 33.8848 3.11991 32.33C1.90522 30.3803 1.02634 28.2406 0.519913 26C0.399913 25.48 0.289913 24.94 0.219913 24.4C0.149913 23.86 0.0999132 23.32 -8.68104e-05 22.69C-0.0501013 22.0042 -0.0501013 21.3158 -8.68142e-05 20.63C-8.68142e-05 20.12 0.0699132 19.63 0.119913 19.1C0.106294 18.7912 0.13319 18.4819 0.199913 18.18C0.309913 17.55 0.419913 16.95 0.549913 16.31C0.751688 15.3506 1.03608 14.4104 1.39991 13.5C1.84146 12.3803 2.37669 11.2998 2.99991 10.27C3.47945 9.45599 4.00705 8.67127 4.57991 7.92C5.10477 7.24713 5.6691 6.60601 6.26991 6C7.19186 5.08919 8.19615 4.26567 9.26991 3.54C11.0421 2.3368 12.9974 1.42839 15.0599 0.85C15.8899 0.61 16.7399 0.43 17.5899 0.27C18.0993 0.179877 18.6135 0.119774 19.1299 0.09C19.7399 0.09 20.3399 0 20.9999 0H22.2099C23.2772 0.0793338 24.337 0.239797 25.3799 0.48C26.2538 0.662308 27.1129 0.909663 27.9499 1.22C30.0137 1.97983 31.9468 3.05603 33.6799 4.41C35.3926 5.75237 36.8841 7.3552 38.0999 9.16C39.0518 10.5039 39.8312 11.962 40.4199 13.5C40.7597 14.336 41.0404 15.1947 41.2599 16.07C41.4099 16.75 41.5499 17.45 41.6499 18.15C41.7318 18.6267 41.7885 19.1074 41.8199 19.59V23C41.7082 24.3114 41.4636 25.608 41.0899 26.87C40.9399 27.37 40.7799 27.87 40.5999 28.36C40.1825 29.61 39.6363 30.8131 38.9699 31.95C37.9725 33.6431 36.7553 35.1966 35.3499 36.57L34.4299 37.4C33.4047 38.2595 32.3073 39.029 31.1499 39.7C29.3574 40.7208 27.4228 41.469 25.4099 41.92C24.7999 42.05 24.2099 42.14 23.5499 42.24C22.9848 42.3333 22.4126 42.3768 21.8399 42.37H20.5899C20.337 42.39 20.0829 42.39 19.8299 42.37L17.9999 42.15C17.1763 42.0632 16.3777 41.8152 15.6499 41.42C13.801 40.5394 12.301 39.064 11.3899 37.23C11.0693 36.6379 10.84 36.0007 10.7099 35.34C10.6458 35.0097 10.6023 34.6757 10.5799 34.34C10.5799 33.79 10.4899 33.23 10.4799 32.67C10.4499 32.2105 10.4499 31.7495 10.4799 31.29C10.5399 30.63 10.6299 29.97 10.7299 29.29C10.8078 28.998 10.9115 28.7135 11.0399 28.44C11.1199 28.21 11.2199 27.99 11.3099 27.79C11.827 26.704 12.5196 25.7106 13.3599 24.85C13.6899 24.5 14.0399 24.14 14.3599 23.85C14.6533 23.5562 14.9907 23.31 15.3599 23.12C16.5062 22.5354 17.7329 22.1243 18.9999 21.9C19.7646 21.7565 20.5421 21.6929 21.3199 21.71C22.0306 21.7278 22.7334 21.863 23.3999 22.11C23.5029 22.1423 23.6006 22.1895 23.6899 22.25C24.0065 22.4255 24.3105 22.6226 24.5999 22.84C25.2853 23.3842 25.8219 24.0928 26.1599 24.9C26.4003 25.4562 26.5294 26.0541 26.5399 26.66C26.5592 27.6317 26.3395 28.5932 25.8999 29.46C25.7639 29.7749 25.5928 30.0734 25.3899 30.35C25.0408 30.744 24.6326 31.0814 24.1799 31.35C23.4074 31.7904 22.5535 32.0693 21.6699 32.17H19.5399C19.2499 32.17 18.9599 32.25 18.6699 32.27C18.0286 32.3202 17.3948 32.441 16.7799 32.63C16.167 32.7998 15.5907 33.0811 15.0799 33.46C14.635 33.8024 14.3409 34.3045 14.2599 34.86C14.1912 35.3443 14.2392 35.838 14.3999 36.3C14.4609 36.482 14.5598 36.649 14.6899 36.79C14.9519 37.0937 15.2325 37.3809 15.5299 37.65C16.1669 38.1459 16.8662 38.556 17.6099 38.87C18.4384 39.2511 19.3026 39.5492 20.1899 39.76C20.9828 39.9508 21.8062 39.9781 22.6099 39.84C22.9831 39.823 23.3542 39.7762 23.7199 39.7C24.7836 39.5299 25.8308 39.269 26.8499 38.92C28.8257 38.2342 30.6716 37.22 32.3099 35.92C32.9573 35.4308 33.572 34.8997 34.1499 34.33C36.3022 32.1546 37.8855 29.4826 38.7599 26.55C39.0175 25.7159 39.2114 24.8635 39.3399 24C39.4218 23.52 39.4785 23.036 39.5099 22.55C39.4977 22.2155 39.5178 21.8806 39.5699 21.55V19.06C39.5512 18.7438 39.5077 18.4295 39.4399 18.12C39.3092 17.1911 39.1018 16.2747 38.8199 15.38C38.4185 14.2089 37.9097 13.0774 37.2999 12C36.7393 10.9176 36.0691 9.89563 35.2999 8.95C34.9999 8.59 34.7099 8.25 34.3799 7.95C34.0499 7.65 33.6099 7.17 33.1699 6.81C31.9225 5.67737 30.518 4.73092 28.9999 4C27.8297 3.4201 26.6033 2.96106 25.3399 2.63C24.8299 2.51 24.3399 2.4 23.7999 2.32C23.4029 2.24835 23.0023 2.19827 22.5999 2.17C22.1999 2.17 21.6999 2.17 21.2499 2.09H20.6599L18.9599 2.19C17.8631 2.29604 16.7784 2.5036 15.7199 2.81C14.7889 3.07308 13.8796 3.4074 12.9999 3.81C11.8074 4.35253 10.6774 5.02314 9.62991 5.81C8.84694 6.3798 8.11121 7.01185 7.42991 7.7C6.41718 8.74694 5.53416 9.91199 4.79991 11.17C4.12828 12.3051 3.55615 13.4962 3.08991 14.73C2.77991 15.62 2.55991 16.55 2.32991 17.48C2.23991 17.9 2.20991 18.35 2.14991 18.78C2.06972 19.1824 2.01958 19.5902 1.99991 20V22.5C2.02687 22.8761 2.07696 23.2501 2.14991 23.62C2.19991 24.08 2.26991 24.54 2.35991 24.99C2.52713 25.7294 2.74089 26.4575 2.99991 27.17C3.54935 28.7662 4.29507 30.2878 5.21991 31.7C5.82295 32.5478 6.49167 33.347 7.21991 34.09C7.66971 34.6214 8.1541 35.1224 8.66991 35.59C8.84986 35.7533 9.02015 35.9269 9.17991 36.11C9.2 36.1614 9.2 36.2186 9.17991 36.27C9.17991 36.48 9.17991 36.7 9.17991 36.91C9.17762 37.2471 9.21794 37.5831 9.29991 37.91C9.44991 38.38 9.62991 38.84 9.81991 39.3C9.91991 39.52 10.0299 39.74 10.1199 39.97V40.11L10.1499 40.05Z" fill="#A9CE40"/>
<path d="M13.5499 24.14C13.2469 24.16 12.9429 24.16 12.6399 24.14C12.0475 24.0785 11.4639 23.951 10.8999 23.76C10.3899 23.58 9.89987 23.39 9.37987 23.17C8.65379 22.8699 7.979 22.4583 7.37987 21.95C6.55203 21.2754 5.87134 20.4381 5.37987 19.49C5.0455 18.8426 4.82559 18.1423 4.72987 17.42C4.70577 16.9455 4.72922 16.4698 4.79987 16C4.82187 15.6207 4.86864 15.2432 4.93987 14.87C4.93987 14.49 5.00987 14.3 5.05987 14.02C5.21416 13.2502 5.47678 12.5061 5.83987 11.81C5.89987 11.68 5.95987 11.54 6.00987 11.41C6.16958 10.9386 6.39877 10.4937 6.68987 10.09C7.1696 9.40673 7.75333 8.80275 8.41987 8.30001C8.67987 8.10001 8.91987 7.88001 9.17987 7.70001C9.90357 7.21429 10.6741 6.80224 11.4799 6.47001C11.8624 6.28685 12.2703 6.16213 12.6899 6.10001C13.0632 6.06285 13.4339 6.00274 13.7999 5.92001C14.0511 5.91188 14.3015 5.8885 14.5499 5.85001L15.5499 5.78001H19.5499C20.3899 5.71001 21.2199 5.78001 22.0499 5.78001H24.1799L25.8099 5.87001H26.6799L28.1399 6.00001C28.8697 6.06819 29.5643 6.34602 30.1399 6.80001C30.962 7.40563 31.616 8.21104 32.0399 9.14001C32.2732 9.64678 32.4089 10.193 32.4399 10.75C32.4739 11.9945 32.0424 13.2068 31.2299 14.15C30.9927 14.4505 30.7283 14.7283 30.4399 14.98C29.9486 15.4534 29.3472 15.7971 28.6899 15.98C28.5126 16.0197 28.3315 16.0399 28.1499 16.04H13.1499L12.1499 16.1C11.8127 16.1256 11.4782 16.1791 11.1499 16.26C10.2686 16.433 9.42108 16.7471 8.63987 17.19C8.06962 17.4808 7.5762 17.9022 7.19987 18.42C7.02167 18.6561 6.89267 18.9256 6.82052 19.2124C6.74838 19.4993 6.73456 19.7977 6.77987 20.09C6.84311 20.4784 6.98611 20.8496 7.19987 21.18C7.47412 21.6051 7.81129 21.9861 8.19987 22.31C8.53663 22.5846 8.90611 22.8163 9.29987 23C9.88481 23.281 10.494 23.5086 11.1199 23.68C11.6791 23.8399 12.2513 23.9503 12.8299 24.01C13.0727 24.0357 13.3134 24.0792 13.5499 24.14Z" fill="#279C3F"/>
<path d="M13.55 24.14C13.32 24.14 13.1 24.04 12.88 24.02C12.2998 23.9497 11.7251 23.8394 11.16 23.69C10.5356 23.5196 9.92937 23.2885 9.34999 23C8.95963 22.8037 8.59377 22.562 8.25999 22.28C7.87523 21.9522 7.53859 21.5718 7.25999 21.15C7.04624 20.8196 6.90323 20.4484 6.83999 20.06C6.79686 19.7709 6.81179 19.476 6.8839 19.1927C6.95602 18.9094 7.08387 18.6433 7.25999 18.41C7.61145 17.907 8.06884 17.4872 8.59999 17.18C9.39005 16.77 10.2409 16.4898 11.12 16.35C11.4561 16.3155 11.7899 16.2621 12.12 16.19L13.12 16.13H14.22L13 16.26L12.23 16.35C11.7886 16.4091 11.3556 16.5199 10.94 16.68C10.4015 16.8601 9.89763 17.1307 9.44999 17.48C9.02877 17.8218 8.71893 18.2814 8.55999 18.8C8.48086 19.0977 8.464 19.4086 8.51045 19.7132C8.55691 20.0177 8.66569 20.3094 8.82999 20.57C9.00692 20.8637 9.22591 21.1298 9.47999 21.36L9.98999 21.84C10.6556 22.4669 11.4147 22.9864 12.24 23.38C12.6555 23.5657 13.0596 23.7761 13.45 24.01L13.55 24.14Z" fill="#5FBA74"/>
<path d="M56.0002 19.0499L54.5902 30.9999L53.8202 33.8199C53.7233 34.2683 53.4974 34.6785 53.1702 34.9999C52.8154 35.2788 52.3706 35.4176 51.9202 35.3899H50.4302L52.4302 19.0699L51.2402 18.8599C51.039 18.8333 50.8506 18.7461 50.7002 18.6099C50.6278 18.5429 50.5713 18.4605 50.535 18.3688C50.4987 18.2771 50.4833 18.1784 50.4902 18.0799C50.4868 18.0601 50.4868 18.0398 50.4902 18.0199C50.4939 17.9533 50.4939 17.8866 50.4902 17.8199C50.4902 17.7099 50.4902 17.5499 50.4902 17.3399C50.4902 17.1299 50.5602 16.8199 50.6102 16.4299H52.6802L52.8102 15.2899C52.9069 14.4659 53.1437 13.6644 53.5102 12.9199C53.8418 12.2426 54.3001 11.635 54.8602 11.1299C55.4235 10.6308 56.0792 10.2469 56.7902 9.99994C57.5279 9.73544 58.3065 9.6034 59.0902 9.60994C59.6918 9.60213 60.2903 9.69682 60.8602 9.88994L60.5302 11.8099C60.5128 11.9145 60.4598 12.0099 60.3802 12.0799C60.3017 12.1461 60.2095 12.1939 60.1102 12.2199C59.989 12.2515 59.8651 12.2716 59.7402 12.2799H59.3302C58.9568 12.2772 58.5853 12.3346 58.2302 12.4499C57.8981 12.5588 57.5941 12.7398 57.3402 12.9799C57.0607 13.2641 56.8458 13.6052 56.7102 13.9799C56.5271 14.4448 56.4093 14.9328 56.3602 15.4299L56.2402 16.4299H59.6902L59.3402 19.0699L56.0002 19.0499Z" fill="black"/>
<path d="M72.0002 31.66H70.0002C69.8428 31.6953 69.6792 31.692 69.5234 31.6504C69.3675 31.6089 69.224 31.5302 69.1052 31.4211C68.9863 31.3121 68.8956 31.1759 68.8407 31.0242C68.7859 30.8725 68.7686 30.7098 68.7902 30.55L68.9102 28.45C68.3154 29.4343 67.5421 30.2991 66.6302 31C65.8197 31.5989 64.8381 31.9214 63.8302 31.92C63.268 31.9218 62.7121 31.8024 62.2002 31.57C61.6889 31.3431 61.237 31.0008 60.8802 30.57C60.4716 30.0484 60.1723 29.4498 60.0002 28.81C59.7669 28.0284 59.6556 27.2155 59.6702 26.4C59.669 23.706 60.6954 21.1131 62.5402 19.15C63.1302 18.5131 63.8029 17.9582 64.5402 17.5C66.0866 16.5424 67.8714 16.0399 69.6902 16.05C70.3862 16.0505 71.0813 16.1006 71.7702 16.2C72.4549 16.3051 73.1257 16.4862 73.7702 16.74L72.0002 31.66ZM65.3102 28.86C65.7476 28.85 66.1708 28.7031 66.5202 28.44C66.9538 28.1164 67.3321 27.7247 67.6402 27.28C68.0285 26.7298 68.3633 26.1438 68.6402 25.53C68.9513 24.8294 69.2119 24.1076 69.4202 23.37L70.0002 18.72C69.7504 18.7064 69.5 18.7064 69.2502 18.72C68.4447 18.7139 67.6505 18.9099 66.9402 19.29C66.1991 19.6498 65.5391 20.1568 65.0002 20.78C64.483 21.4471 64.0839 22.198 63.8202 23C63.5214 23.8719 63.3726 24.7882 63.3802 25.71C63.3194 26.5325 63.4964 27.3552 63.8902 28.08C64.0328 28.3208 64.2364 28.5197 64.4804 28.6567C64.7245 28.7937 65.0004 28.8638 65.2802 28.86H65.3102Z" fill="black"/>
<path d="M75.4102 31.66L77.2802 16.26H79.1602C79.4713 16.2467 79.7788 16.3306 80.0402 16.5C80.1584 16.5864 80.2526 16.7016 80.3138 16.8346C80.3751 16.9676 80.4013 17.114 80.3902 17.26C80.3902 17.33 80.3902 17.45 80.3902 17.62C80.3902 17.79 80.3902 18.06 80.3902 18.43C80.3902 18.8 80.3902 19.3 80.3302 19.96C80.8429 18.9078 81.5446 17.9588 82.4002 17.16C83.0282 16.5466 83.8627 16.1899 84.7402 16.16C85.1708 16.1642 85.5962 16.2561 85.9902 16.43L85.2602 20C84.8129 19.7996 84.3301 19.6908 83.8401 19.68C83.3768 19.6938 82.9233 19.817 82.5166 20.0394C82.11 20.2619 81.7617 20.5773 81.5002 20.96C80.6776 22.1639 80.1156 23.5264 79.8502 24.96L79.0002 31.66H75.4102Z" fill="black"/>
<path d="M86.3101 31.66L88.1901 16.26H90.0601C90.3824 16.242 90.7009 16.3375 90.9601 16.53C91.0785 16.6354 91.1702 16.7674 91.2276 16.9152C91.285 17.063 91.3064 17.2223 91.2901 17.38V17.43C91.2901 17.43 91.2901 17.52 91.2901 17.63C91.2901 17.74 91.2901 17.92 91.2901 18.16C91.2901 18.4 91.2901 18.72 91.2901 19.16C91.8645 18.2284 92.6317 17.4305 93.5401 16.82C94.2647 16.3169 95.1185 16.0323 96.0001 16C96.4208 15.9797 96.8408 16.0545 97.2286 16.219C97.6165 16.3835 97.9622 16.6334 98.2401 16.95C98.861 17.7273 99.2121 18.6856 99.2401 19.68C99.8132 18.5825 100.631 17.6313 101.63 16.9C102.469 16.3145 103.467 16.0004 104.49 16C104.994 15.9729 105.497 16.0646 105.96 16.2679C106.422 16.4711 106.829 16.7801 107.15 17.17C107.836 18.147 108.167 19.3289 108.09 20.52C108.09 20.72 108.09 20.93 108.09 21.16C108.09 21.39 108.09 21.61 108.03 21.84L106.88 31.63H103.22L103.73 27.31C103.87 26.12 103.98 25.13 104.07 24.31L104.28 22.44C104.28 21.99 104.37 21.64 104.39 21.44C104.41 21.24 104.39 21.03 104.39 20.94C104.39 20.85 104.39 20.79 104.39 20.74C104.427 20.2861 104.322 19.8318 104.09 19.44C103.968 19.2981 103.813 19.1877 103.639 19.1181C103.465 19.0485 103.277 19.0217 103.09 19.04C102.7 19.0426 102.318 19.146 101.98 19.34C101.599 19.5705 101.261 19.8648 100.98 20.21C100.628 20.6411 100.326 21.1108 100.08 21.61C99.7907 22.2098 99.5499 22.8318 99.3601 23.47L98.3601 31.64H94.7401L95.9001 21.85C95.9001 21.64 95.9001 21.44 95.9001 21.26C95.9001 21.08 95.9001 20.9 95.9001 20.74C95.9343 20.2875 95.8334 19.835 95.6101 19.44C95.4887 19.2968 95.3341 19.1854 95.1598 19.1157C94.9855 19.046 94.7967 19.02 94.6101 19.04C94.2086 19.0449 93.8154 19.1553 93.4701 19.36C93.0828 19.5982 92.7436 19.9069 92.4701 20.27C92.1091 20.7091 91.8066 21.1932 91.5701 21.71C91.2731 22.318 91.0289 22.9503 90.8401 23.6L89.8401 31.6L86.3101 31.66Z" fill="black"/>
<path d="M120.24 19.1699C120.158 19.3005 120.053 19.4156 119.93 19.5099C119.811 19.5747 119.676 19.6058 119.54 19.5999C119.354 19.5957 119.171 19.5441 119.01 19.4499L118.39 19.1199C118.131 18.9833 117.86 18.8696 117.58 18.7799C117.224 18.6729 116.852 18.6223 116.48 18.6299C115.83 18.5879 115.186 18.7755 114.66 19.1599C114.461 19.3193 114.301 19.5219 114.192 19.7523C114.083 19.9827 114.027 20.235 114.03 20.4899C114.024 20.7752 114.116 21.054 114.29 21.2799C114.486 21.5048 114.72 21.6943 114.98 21.8399C115.3 22.0161 115.634 22.1633 115.98 22.2799L117.09 22.7199C117.469 22.8729 117.84 23.0465 118.2 23.2399C118.566 23.4273 118.903 23.6664 119.2 23.9499C119.485 24.2395 119.716 24.5783 119.88 24.9499C120.063 25.397 120.151 25.8771 120.14 26.3599C120.144 27.0906 119.994 27.8139 119.7 28.4825C119.405 29.1512 118.972 29.75 118.43 30.2399C117.85 30.7688 117.17 31.1768 116.43 31.4399C115.595 31.7462 114.71 31.8954 113.82 31.8799C113.343 31.8849 112.867 31.8379 112.4 31.7399C111.961 31.6519 111.532 31.5179 111.12 31.3399C110.736 31.1805 110.37 30.9793 110.03 30.7399C109.722 30.5269 109.443 30.2748 109.2 29.9899L110.1 28.5799C110.198 28.4217 110.332 28.2882 110.49 28.1899C110.659 28.099 110.849 28.0542 111.04 28.0599C111.246 28.0569 111.447 28.1239 111.61 28.2499C111.78 28.3799 111.98 28.5299 112.21 28.6799C112.47 28.8531 112.749 28.9973 113.04 29.1099C113.445 29.2503 113.872 29.3147 114.3 29.2999C114.667 29.3083 115.032 29.2542 115.38 29.1399C115.674 29.0433 115.945 28.8904 116.18 28.6899C116.39 28.5097 116.557 28.2853 116.669 28.0329C116.781 27.7804 116.836 27.5062 116.83 27.2299C116.844 26.9297 116.756 26.6337 116.58 26.3899C116.393 26.1482 116.158 25.9474 115.89 25.7999C115.572 25.6229 115.237 25.4788 114.89 25.3699L113.78 24.9699C113.408 24.8305 113.044 24.6703 112.69 24.4899C112.323 24.3169 111.986 24.0875 111.69 23.8099C111.398 23.5262 111.167 23.186 111.01 22.8099C110.826 22.3493 110.737 21.8559 110.75 21.3599C110.747 20.6741 110.88 19.9944 111.14 19.3599C111.396 18.7139 111.788 18.1306 112.29 17.6499C112.823 17.1287 113.456 16.7205 114.15 16.4499C114.956 16.1366 115.816 15.9838 116.68 15.9999C117.573 15.9831 118.46 16.157 119.28 16.5099C119.991 16.814 120.639 17.2481 121.19 17.7899L120.24 19.1699Z" fill="black"/>
<path d="M121.92 31.66L124.64 9.37H128.25L127.04 19.37C127.688 18.4313 128.501 17.6181 129.44 16.97C130.271 16.3939 131.258 16.0835 132.27 16.08C132.872 16.0725 133.469 16.1953 134.02 16.44C134.547 16.6737 135.007 17.0345 135.36 17.49C135.762 18.024 136.054 18.6324 136.22 19.28C136.433 20.106 136.534 20.957 136.52 21.81C136.535 23.5116 136.194 25.1975 135.52 26.76C135.203 27.4907 134.807 28.1848 134.34 28.83C133.907 29.441 133.396 29.9924 132.82 30.47C132.268 30.9018 131.654 31.2489 131 31.5C130.366 31.7616 129.686 31.8942 129 31.89C128.294 31.9089 127.593 31.7591 126.957 31.453C126.32 31.1469 125.766 30.6933 125.34 30.13L125.22 30.64C125.204 30.7936 125.157 30.9424 125.082 31.0772C125.006 31.212 124.904 31.3299 124.781 31.4236C124.659 31.5173 124.518 31.5849 124.368 31.6221C124.218 31.6593 124.062 31.6654 123.91 31.64L121.92 31.66ZM130.83 18.94C130.384 18.9522 129.952 19.0985 129.59 19.36C129.125 19.6838 128.71 20.0747 128.36 20.52C127.938 21.0574 127.572 21.6371 127.27 22.25C126.925 22.9386 126.637 23.6543 126.41 24.39L126 28.06C126.318 28.4149 126.72 28.6834 127.17 28.84C127.588 28.9881 128.027 29.0659 128.47 29.07C129.122 29.071 129.756 28.8526 130.27 28.45C130.834 28.0128 131.306 27.4692 131.66 26.85C132.058 26.1512 132.357 25.4008 132.55 24.62C132.76 23.81 132.867 22.9768 132.87 22.14C132.926 21.3026 132.742 20.4667 132.34 19.73C132.182 19.4756 131.958 19.2682 131.693 19.1293C131.427 18.9904 131.129 18.925 130.83 18.94Z" fill="black"/>
<path d="M142.73 35.92C142.629 36.1529 142.461 36.3504 142.247 36.4875C142.033 36.6247 141.784 36.6951 141.53 36.69H138.78L142.2 30.49L138.32 16.27H141.42C141.53 16.2619 141.641 16.2764 141.746 16.3125C141.851 16.3486 141.948 16.4056 142.03 16.48C142.165 16.6119 142.261 16.7777 142.31 16.96L144.2 24.96C144.26 25.22 144.3 25.48 144.34 25.73C144.38 25.98 144.4 26.23 144.42 26.49C144.53 26.23 144.64 25.98 144.76 25.72L145.11 24.95L148.91 16.95C149.008 16.752 149.156 16.5831 149.34 16.46C149.514 16.3419 149.719 16.276 149.93 16.27H152.93L142.73 35.92Z" fill="black"/>
</g>
<defs>
<clipPath id="clip0">
<rect width="152.9" height="42.35" fill="white"/>
</clipPath>
</defs>
</svg>
