<svg width="153" height="43" fill="none" xmlns="http://www.w3.org/2000/svg">
  <g clip-path="url(#clip0)">
    <path d="M10.15 40.05c-.22-.17-.43-.35-.63-.54-.52-.51-.95-.93-1.41-1.41-.46-.48-1-1-1.56-1.51a22.4 22.4 0 01-3.43-4.26A20.53 20.53 0 01.52 26c-.12-.52-.23-1.06-.3-1.6-.07-.54-.12-1.08-.22-1.71a14.16 14.16 0 010-2.06c0-.51.07-1 .12-1.53a3.54 3.54 0 01.08-.92c.11-.63.22-1.23.35-1.87a17 17 0 01.85-2.81c.441-1.12.977-2.2 1.6-3.23a23.791 23.791 0 011.58-2.35A21.572 21.572 0 016.27 6a21 21 0 013-2.46A19.85 19.85 0 0115.06.85c.83-.24 1.68-.42 2.53-.58.51-.09 1.023-.15 1.54-.18C19.74.09 20.34 0 21 0h1.21c1.067.08 2.127.24 3.17.48.874.182 1.733.43 2.57.74a21.211 21.211 0 015.73 3.19 20.8 20.8 0 014.42 4.75 19.68 19.68 0 012.32 4.34c.34.836.62 1.695.84 2.57.15.68.29 1.38.39 2.08.082.477.139.957.17 1.44V23a19.44 19.44 0 01-.73 3.87c-.15.5-.31 1-.49 1.49a18.998 18.998 0 01-1.63 3.59 22.25 22.25 0 01-3.62 4.62l-.92.83a23.278 23.278 0 01-3.28 2.3 20.78 20.78 0 01-5.74 2.22c-.61.13-1.2.22-1.86.32a9.784 9.784 0 01-1.71.13h-1.25a4.82 4.82 0 01-.76 0L18 42.15a6.31 6.31 0 01-2.35-.73 9.15 9.15 0 01-4.26-4.19 6.68 6.68 0 01-.68-1.89 8.07 8.07 0 01-.13-1c0-.55-.09-1.11-.1-1.67-.03-.46-.03-.92 0-1.38.06-.66.15-1.32.25-2 .078-.292.181-.576.31-.85.08-.23.18-.45.27-.65a10.941 10.941 0 012.05-2.94c.33-.35.68-.71 1-1a4 4 0 011-.73A13 13 0 0119 21.9a11.24 11.24 0 012.32-.19 6.45 6.45 0 012.08.4c.103.032.2.08.29.14.316.175.62.373.91.59a5.19 5.19 0 011.56 2.06c.24.556.37 1.154.38 1.76a5.93 5.93 0 01-.64 2.8 4.564 4.564 0 01-.51.89 5.08 5.08 0 01-1.21 1 6.57 6.57 0 01-2.51.82h-2.13c-.29 0-.58.08-.87.1a8.76 8.76 0 00-1.89.36 5.17 5.17 0 00-1.7.83 2.16 2.16 0 00-.82 1.4 3.07 3.07 0 00.14 1.44c.06.182.16.349.29.49.262.304.543.59.84.86a9.23 9.23 0 002.08 1.22c.828.381 1.693.68 2.58.89a6 6 0 002.42.08 7.003 7.003 0 001.11-.14c1.064-.17 2.11-.431 3.13-.78a18.592 18.592 0 005.46-3c.647-.49 1.262-1.02 1.84-1.59a18.63 18.63 0 004.61-7.78c.258-.834.451-1.687.58-2.55.082-.48.138-.964.17-1.45-.012-.335.008-.67.06-1v-2.49a6.067 6.067 0 00-.13-.94 16.999 16.999 0 00-.62-2.74A20.08 20.08 0 0037.3 12a17.823 17.823 0 00-2-3.05c-.3-.36-.59-.7-.92-1-.33-.3-.77-.78-1.21-1.14A17.49 17.49 0 0029 4a19.208 19.208 0 00-3.66-1.37c-.51-.12-1-.23-1.54-.31a11.16 11.16 0 00-1.2-.15c-.4 0-.9 0-1.35-.08h-.59l-1.7.1a17.82 17.82 0 00-3.24.62 18.86 18.86 0 00-2.72 1 18.07 18.07 0 00-3.37 2 18.001 18.001 0 00-2.2 1.89 18.15 18.15 0 00-2.63 3.47 22.859 22.859 0 00-1.71 3.56c-.31.89-.53 1.82-.76 2.75-.09.42-.12.87-.18 1.3-.08.402-.13.81-.15 1.22v2.5c.027.376.077.75.15 1.12.05.46.12.92.21 1.37.167.74.38 1.468.64 2.18a20.37 20.37 0 002.22 4.53 19.859 19.859 0 002 2.39c.45.531.934 1.032 1.45 1.5.18.163.35.337.51.52a.22.22 0 010 .16v.64a4 4 0 00.12 1c.15.47.33.93.52 1.39.1.22.21.44.3.67v.14l.03-.06z" fill="#A9CE40"/>
    <path d="M13.55 24.14c-.303.02-.607.02-.91 0a8 8 0 01-1.74-.38c-.51-.18-1-.37-1.52-.59-.726-.3-1.401-.712-2-1.22a7.81 7.81 0 01-2-2.46 6.32 6.32 0 01-.65-2.07c-.024-.475 0-.95.07-1.42.022-.38.069-.757.14-1.13 0-.38.07-.57.12-.85a8.31 8.31 0 01.78-2.21c.06-.13.12-.27.17-.4a5 5 0 01.68-1.32A8 8 0 018.42 8.3c.26-.2.5-.42.76-.6a13.06 13.06 0 012.3-1.23 4.24 4.24 0 011.21-.37 9.142 9.142 0 001.11-.18 6.21 6.21 0 00.75-.07l1-.07h4c.84-.07 1.67 0 2.5 0h2.13l1.63.09h.87l1.46.13a3.8 3.8 0 012 .8 6 6 0 011.9 2.34 4.44 4.44 0 01.4 1.61 5 5 0 01-1.21 3.4c-.237.3-.502.578-.79.83a4.11 4.11 0 01-1.75 1c-.177.04-.359.06-.54.06h-15l-1 .06c-.337.026-.672.08-1 .16a8.351 8.351 0 00-2.51.93 4.06 4.06 0 00-1.44 1.23 2.21 2.21 0 00-.42 1.67c.063.388.206.76.42 1.09a5 5 0 001 1.13c.337.275.706.506 1.1.69.585.281 1.194.509 1.82.68.56.16 1.131.27 1.71.33.243.026.483.07.72.13z" fill="#279C3F"/>
    <path d="M13.55 24.14c-.23 0-.45-.1-.67-.12-.58-.07-1.155-.18-1.72-.33A9.92 9.92 0 019.35 23a5.38 5.38 0 01-2.09-1.85 2.85 2.85 0 01-.42-1.09 2.2 2.2 0 01.42-1.65 4.2 4.2 0 011.34-1.23c.79-.41 1.64-.69 2.52-.83.336-.035.67-.088 1-.16l1-.06h1.1l-1.22.13-.77.09c-.441.06-.874.17-1.29.33a5 5 0 00-1.49.8 2.73 2.73 0 00-.89 1.32 2.24 2.24 0 00.27 1.77c.177.294.396.56.65.79l.51.48a8.818 8.818 0 002.25 1.54c.415.186.82.396 1.21.63l.1.13z" fill="#5FBA74"/>
    <path d="M56 19.05L54.59 31l-.77 2.82a2.35 2.35 0 01-.65 1.18 1.84 1.84 0 01-1.25.39h-1.49l2-16.32-1.19-.21a1 1 0 01-.54-.25.66.66 0 01-.21-.53.178.178 0 010-.06 1.803 1.803 0 000-.2v-.48c0-.21.07-.52.12-.91h2.07l.13-1.14a7.29 7.29 0 01.7-2.37 5.91 5.91 0 011.35-1.79A5.76 5.76 0 0156.79 10a6.65 6.65 0 012.3-.39 5.3 5.3 0 011.77.28l-.33 1.92a.46.46 0 01-.15.27.69.69 0 01-.27.14 1.99 1.99 0 01-.37.06h-.41a3.48 3.48 0 00-1.1.17 2.37 2.37 0 00-.89.53c-.28.284-.494.625-.63 1-.183.465-.3.953-.35 1.45l-.12 1h3.45l-.35 2.64-3.34-.02zM72 31.66h-2a1 1 0 01-1.21-1.11l.12-2.1A9.25 9.25 0 0166.63 31a4.7 4.7 0 01-2.8.92 3.913 3.913 0 01-1.63-.35 3.621 3.621 0 01-1.32-1 4.931 4.931 0 01-.88-1.76 7.93 7.93 0 01-.33-2.41 10.58 10.58 0 012.87-7.25 9.72 9.72 0 012-1.65 9.68 9.68 0 015.15-1.45c.696 0 1.391.05 2.08.15a9.316 9.316 0 012 .54L72 31.66zm-6.69-2.8c.438-.01.86-.157 1.21-.42a5.002 5.002 0 001.12-1.16 10.58 10.58 0 001-1.75c.311-.7.572-1.422.78-2.16l.58-4.65c-.25-.014-.5-.014-.75 0-.805-.006-1.6.19-2.31.57A6.069 6.069 0 0065 20.78 7.391 7.391 0 0063.82 23a8.152 8.152 0 00-.44 2.71 4.3 4.3 0 00.51 2.37 1.591 1.591 0 001.39.78h.03zM75.41 31.66l1.87-15.4h1.88a1.5 1.5 0 01.88.24.86.86 0 01.35.76v1.17c0 .37 0 .87-.06 1.53a9.56 9.56 0 012.07-2.8 3.52 3.52 0 012.34-1c.43.004.856.096 1.25.27L85.26 20a3.67 3.67 0 00-1.42-.32 2.941 2.941 0 00-2.34 1.28 10.468 10.468 0 00-1.65 4l-.85 6.7h-3.59zM86.31 31.66l1.88-15.4h1.87c.322-.018.64.077.9.27a1 1 0 01.33.85v1.78a7.669 7.669 0 012.25-2.34A4.61 4.61 0 0196 16a2.8 2.8 0 012.24.95 4.58 4.58 0 011 2.73 8.081 8.081 0 012.39-2.78 5 5 0 012.86-.9 3.224 3.224 0 012.66 1.17 5.24 5.24 0 01.94 3.35v.64c0 .23 0 .45-.06.68l-1.15 9.79h-3.66l.51-4.32c.14-1.19.25-2.18.34-3l.21-1.87c0-.45.09-.8.11-1 .02-.2 0-.41 0-.5v-.2a2.2 2.2 0 00-.3-1.3 1.166 1.166 0 00-1-.4 2.26 2.26 0 00-1.11.3c-.381.23-.719.525-1 .87-.352.431-.654.9-.9 1.4-.29.6-.53 1.222-.72 1.86l-1 8.17h-3.62l1.16-9.79v-.59-.52a2.29 2.29 0 00-.29-1.3 1.15 1.15 0 00-1-.4 2.29 2.29 0 00-1.14.32 3.638 3.638 0 00-1 .91c-.36.44-.663.923-.9 1.44-.297.608-.541 1.24-.73 1.89l-1 8-3.53.06zM120.24 19.17c-.082.13-.187.246-.31.34a.748.748 0 01-.39.09 1.1 1.1 0 01-.53-.15l-.62-.33a5.017 5.017 0 00-.81-.34 3.572 3.572 0 00-1.1-.15 2.78 2.78 0 00-1.82.53 1.679 1.679 0 00-.63 1.33c-.006.285.086.564.26.79.196.225.43.414.69.56.32.176.654.323 1 .44l1.11.44c.379.153.75.327 1.11.52a4.26 4.26 0 011 .71c.285.29.516.628.68 1 .183.447.271.927.26 1.41a5.197 5.197 0 01-1.71 3.88c-.58.529-1.26.937-2 1.2a7.214 7.214 0 01-2.61.44 6.578 6.578 0 01-1.42-.14 6.398 6.398 0 01-1.28-.4 5.67 5.67 0 01-1.09-.6 4.322 4.322 0 01-.83-.75l.9-1.41c.098-.158.232-.292.39-.39.169-.091.359-.136.55-.13a.91.91 0 01.57.19c.17.13.37.28.6.43.26.173.539.317.83.43.405.14.832.205 1.26.19.367.008.732-.046 1.08-.16.294-.097.565-.25.8-.45a1.86 1.86 0 00.65-1.46c.014-.3-.074-.596-.25-.84a2.235 2.235 0 00-.69-.59 5.35 5.35 0 00-1-.43l-1.11-.4c-.372-.14-.736-.3-1.09-.48a3.88 3.88 0 01-1-.68 3.01 3.01 0 01-.68-1 3.652 3.652 0 01-.26-1.45 5.215 5.215 0 01.39-2 4.832 4.832 0 011.15-1.71 5.539 5.539 0 011.86-1.2 6.644 6.644 0 012.53-.45 6.28 6.28 0 014.51 1.79l-.95 1.38zM121.92 31.66l2.72-22.29h3.61l-1.21 10a9.414 9.414 0 012.4-2.4 4.998 4.998 0 012.83-.89 4.184 4.184 0 011.75.36 3.48 3.48 0 011.34 1.05c.402.534.694 1.142.86 1.79.213.826.314 1.677.3 2.53a12.226 12.226 0 01-1 4.95c-.317.73-.713 1.425-1.18 2.07a8.56 8.56 0 01-1.52 1.64A7.064 7.064 0 01131 31.5a5.161 5.161 0 01-2 .39 4.439 4.439 0 01-3.66-1.76l-.12.51a1.136 1.136 0 01-1.31 1l-1.99.02zm8.91-12.72a2.221 2.221 0 00-1.24.42c-.465.324-.88.715-1.23 1.16a9.857 9.857 0 00-1.09 1.73 13.98 13.98 0 00-.86 2.14l-.41 3.67c.318.355.72.623 1.17.78.418.148.857.226 1.3.23a2.912 2.912 0 001.8-.62 5.44 5.44 0 001.39-1.6c.398-.699.697-1.45.89-2.23.21-.81.317-1.643.32-2.48a4.416 4.416 0 00-.53-2.41 1.68 1.68 0 00-1.51-.79zM142.73 35.92a1.277 1.277 0 01-1.2.77h-2.75l3.42-6.2-3.88-14.22h3.1a.818.818 0 01.61.21c.135.132.231.298.28.48l1.89 8c.06.26.1.52.14.77.04.25.06.5.08.76.11-.26.22-.51.34-.77l.35-.77 3.8-8c.098-.198.246-.367.43-.49.174-.118.379-.184.59-.19h3l-10.2 19.65z" fill="#000"/>
  </g>
  <defs>
    <clipPath id="clip0">
      <path fill="#fff" d="M0 0h152.9v42.35H0z"/>
    </clipPath>
  </defs>
</svg>
