<svg id="Layer_1" data-name="Layer 1" xmlns="http://www.w3.org/2000/svg" viewBox="0 0 493.48 554.76"><defs><style>.cls-4{fill:#070707}.cls-5{fill:#060606}</style></defs><path d="M499.51 572.34c-7.81.07-15.64.46-23.42 0-2-.12-4.57-2.43-5.79-4.4q-48.62-78.63-97-157.42c-1-1.61-2.06-3.17-4.06-6.23v7.65c0 64.67-.07 129.35.13 194 0 5.67-1.57 7.16-7.15 7.11-30.67-.26-61.35-.12-92-.12H264V206.45h6.1c27.35 0 54.71.1 82.06-.1 4.25 0 6.58 1.29 8.79 4.92Q428.8 322.7 496.94 434c1.22 2 2.55 3.9 3.83 5.85z" transform="translate(-254.46 -206.24)" fill="#285a8d"/><path d="M499.51 572.34l1.26-132.52c15.53-25.93 31.13-51.82 46.59-77.8q44.75-75.22 89.29-150.56c2.28-3.87 4.72-5.26 9.22-5.22 27.15.23 54.31.11 81.47.11h7.21v405.71h-105.1V399.83l-1.74-.51c-1.05 1.67-2.15 3.31-3.16 5q-48.57 81.47-97 163c-2.3 3.89-4.76 5.48-9.27 5.18-6.28-.42-12.52-.14-18.77-.16z" transform="translate(-254.46 -206.24)" fill="#3c87d0"/><path d="M339.95 683.87v76h-16.22v-43.46l-1.21-.4-18 30.22c-5.08 8.53-9.83 8.54-15 0-5.91-9.71-11.83-19.42-18.55-30.43v43.88h-16.5v-75.81c4.2 0 8.3-.38 12.27.18 1.62.23 3.37 2.22 4.36 3.84 8.66 14.11 17.17 28.31 26.2 43.29l8.93-15.05c5.28-8.87 10.84-17.6 15.71-26.69 2.34-4.37 5-6.41 10-5.65 2.42.39 4.97.08 8.01.08z" transform="translate(-254.46 -206.24)" fill="#030303"/><path class="cls-4" d="M536.9 701.64h16.24v23.78c0 2.73 0 5.47.1 8.19.4 8.33 4.1 12.31 11.53 12.51 7.28.2 12.76-4.34 13.18-12 .52-9.34.27-18.72.35-28.09v-4.28h16.88v58h-15.74L579 754c-7.17 5.79-14.94 8.22-23.84 6.46-10-2-17.25-7.82-18-18-1.04-13.34-.26-26.81-.26-40.82z" transform="translate(-254.46 -206.24)"/><path class="cls-5" d="M414 735.52h-43c1.56 12.18 15.89 15.26 30.83 6.57l8.22 8.92c-7.09 9.19-21.21 12.38-35.72 8.13-15.72-4.6-24.43-19.68-20.53-35.54 4.1-16.69 20.16-26 38.15-22.07 15.26 3.31 24.82 17.7 22.05 33.99zm-15.85-9.82c-1.83-8.47-7.76-13-15.32-12.11s-12 5.35-11.88 12.11z" transform="translate(-254.46 -206.24)"/><path d="M747.81 735.48h-43.05c.93 12.06 16.82 15.57 30.36 6.49l8.58 9c-5.51 9.52-25.3 12.81-38.82 7.13-15.27-6.41-22.18-22.42-16.49-38.25 5.22-14.54 22.39-22.52 38.67-18 14.39 4.07 22.01 16.15 20.75 33.63zm-16.39-10c-1-7.6-6.54-12.29-13.92-12.07-7.62.22-12.7 4.88-13.31 12.07z" transform="translate(-254.46 -206.24)" fill="#050505"/><path class="cls-5" d="M526.18 715.62l-12.11 6.64c-10.91-9.22-19.33-10-25.66-2.39-5.54 6.65-4.57 18.49 2 23.82 7.08 5.77 15.74 4.17 23.12-4.55l12.47 6.79c-5.13 11.81-18.12 17.18-33.71 14.23-14.48-2.74-24.31-14.07-24.66-28.41-.36-14.89 8.74-26.6 23.37-30.07 15.56-3.68 29.26 1.65 35.18 13.94z" transform="translate(-254.46 -206.24)"/><path d="M611.5 759.89v-58.07h15.6l.75 4.89 19.71-7.44v16.13c-.41.27-.71.63-1 .65-14.13.77-18.07 4.92-18.1 19.14v24.69z" transform="translate(-254.46 -206.24)" fill="#0a0a0a"/><path class="cls-4" d="M443 759.89h-17v-58.15h16v5.34l19.68-8v16.72a11.83 11.83 0 0 1-1.89.34c-12 .47-16.6 5-16.79 16.83-.12 8.76 0 17.53 0 26.92z" transform="translate(-254.46 -206.24)"/><path d="M674.76 759.88H658.1v-58.11h16.66z" transform="translate(-254.46 -206.24)" fill="#090909"/><path class="cls-4" d="M666.42 674.46c6.15 0 10.49 3.78 10.44 9.22s-4.45 9.56-10.3 9.6-10.46-4.06-10.51-9.39 4.33-9.38 10.37-9.43z" transform="translate(-254.46 -206.24)"/><path d="M398.19 725.7H371c-.16-6.75 4.24-11.19 11.88-12.11s13.48 3.65 15.31 12.11z" transform="translate(-254.46 -206.24)" fill="#ececec"/><path d="M731.42 725.53h-27.24c.62-7.2 5.69-11.85 13.31-12.07 7.38-.22 12.9 4.46 13.93 12.07z" transform="translate(-254.46 -206.24)" fill="#ededed"/></svg>