<svg width="284" height="61" xmlns="http://www.w3.org/2000/svg"><g fill="none" fill-rule="evenodd"><path d="M91.41 42.61c6.62-.11 12.88-2 12.88-9.85 0-6.54-4.11-8.37-10.43-9.63-4.14-.83-6.7-1.34-6.7-4.37 0-2.77 2.15-3.62 5.3-3.81v-4.8c-6.78.05-11.94 2.25-11.94 9.17 0 6.25 4.2 7.81 11 9.39 3.71.86 6.1 1.29 6.1 4.67s-2.66 4.24-6.21 4.37v4.86zm11.37-26.16l.17-4.83a34.32 34.32 0 00-9.17-1.45v4.75a32.3 32.3 0 019 1.53zM90.09 42.61v-4.86a42.76 42.76 0 01-9.78-1.64l-.17 5.1a46.3 46.3 0 009.95 1.4zm31.06 0a21.57 21.57 0 007.9-1.32l-.24-4.67a20.9 20.9 0 01-6.81 1.27c-4.31 0-7.08-1.59-7-5.18h15.78c0-.16.06-1.37.06-2.5 0-8.93-4.12-12.47-11-12.47a16.69 16.69 0 00-3.61.37v5.23a4.39 4.39 0 013.42-1.26c3.25 0 4.76 1.88 4.73 6.23h-9.46v-9.79c-4.36 1.61-6.51 5.63-6.51 11.67.02 9.33 5.18 12.42 12.74 12.42zm22.48-.11a8.92 8.92 0 005.19-1.4v-4.66a4 4 0 01-3.42 1.45c-3.84 0-5-2.93-5-7.68s1.19-7.67 5-7.67 4.73 2.92 4.73 7.67v11.91h6.27V18.19h-5.49l-.32 3c-1.16-1.79-3.25-3.21-6.94-3.21-5.89 0-9.62 3.64-9.62 12.28 0 8.64 3.73 12.24 9.6 12.24zm40.37-.38V27.26c0-3.23-.14-9.47-7.88-9.47a9 9 0 00-4.91 1.21v4.8a3.6 3.6 0 012.93-1.32c3.63 0 3.63 3.62 3.63 5.69v13.95H184zm16.67 0v-4.61h-2.53v-10c0-3.11 0-9.74-7.9-9.74a8.78 8.78 0 00-4.88 1.23v4.8a3.53 3.53 0 012.93-1.32c3.63 0 3.63 3.71 3.63 5.69v13.95h8.75zm-30.81 0V18.19h-9.07v4.62h2.8v19.31h6.27zm48.5-8.29c7.39 0 12.56-2.3 12.56-11.72 0-9.42-5.11-11.67-12.69-11.67-1.11 0-2.5.05-3.61.11v4.75a22.4 22.4 0 012.42-.14c4.06 0 7.21.89 7.21 7s-3.15 7-7.23 7c-.81 0-1.67 0-2.4-.1v4.66c1.12.03 2.44.11 3.78.11h-.04zm-5.05 8.29V10.6h-9.9v4.72h3.36v26.8h6.54zm30.69.38a8.9 8.9 0 005.19-1.4v-4.66a4 4 0 01-3.42 1.45c-3.84 0-5-2.93-5-7.68s1.19-7.67 5-7.67 4.73 2.92 4.73 7.67v11.91h6.27V18.19h-5.49l-.32 3c-1.16-1.79-3.25-3.21-6.94-3.21-5.88 0-9.62 3.64-9.62 12.28 0 8.64 3.74 12.24 9.6 12.24zm24.44-.38l2.34-8.21-4-15.72h-6.58l7 23.93h1.24zm5.13 8l9.57-32h-6.39l-9.28 32h6.1z" fill="#381E42" fill-rule="nonzero"/><path d="M28.15 34.75v14.06c-6.46-1.15-26.1 11.42-26.1 11.42a57.4 57.4 0 002.8-9.09 53.92 53.92 0 00-4.71-3.91s21.26-13.6 28.01-12.48zm27.29-4.6a42.62 42.62 0 014.7 3.91 55.17 55.17 0 01-2.79 9.09c-7.49 4.45-27.18 15.46-27.18 8.13V36.71v.44c0 6.85 16.83-2.08 25.27-7zM28.15 6.72v14.11c-4.69-.88-16.6 5.51-23.3 9.4a43.82 43.82 0 01-4.71-3.91 55.83 55.83 0 012.8-9.09C9 13.64 23 5.77 28.15 6.72zm2 16.69V9.55v.23C31.61 17.18 58.21.15 58.21.15a57.75 57.75 0 00-2.8 9.08 55.79 55.79 0 004.7 3.92S30.72 32 30.13 23.5v-.11l.02.02z" fill="#FF3278"/></g></svg>