<?xml version="1.0" encoding="UTF-8"?>
<svg width="284px" height="61px" viewBox="0 0 284 61" version="1.1" xmlns="http://www.w3.org/2000/svg" xmlns:xlink="http://www.w3.org/1999/xlink">
    <title>SeamPay_logo_Main_RGB</title>
    <g id="Page-1" stroke="none" stroke-width="1" fill="none" fill-rule="evenodd">
        <g id="SeamPay_logo_Main_RGB">
            <path d="M91.41,42.61 C98.03,42.5 104.29,40.61 104.29,32.76 C104.29,26.22 100.18,24.39 93.86,23.13 C89.72,22.3 87.16,21.79 87.16,18.76 C87.16,15.99 89.31,15.14 92.46,14.95 L92.46,10.15 C85.68,10.2 80.52,12.4 80.52,19.32 C80.52,25.57 84.72,27.13 91.52,28.71 C95.23,29.57 97.62,30 97.62,33.38 C97.62,36.76 94.96,37.62 91.41,37.75 L91.41,42.61 Z M102.78,16.45 L102.95,11.62 C99.9731176,10.7235586 96.8882328,10.2357633 93.78,10.17 L93.78,14.92 C96.837306,15.0013368 99.867565,15.5164808 102.78,16.45 Z M90.09,42.61 L90.09,37.75 C86.7774288,37.584479 83.4953636,37.0341123 80.31,36.11 L80.14,41.21 C83.396058,42.0362414 86.7323663,42.5056717 90.09,42.61 L90.09,42.61 Z M121.15,42.61 C123.842649,42.6670598 126.522168,42.2193426 129.05,41.29 L128.81,36.62 C126.626451,37.4192066 124.324842,37.8484347 122,37.89 C117.69,37.89 114.92,36.3 115,32.71 L130.78,32.71 C130.78,32.55 130.84,31.34 130.84,30.21 C130.84,21.28 126.72,17.74 119.84,17.74 C118.626795,17.7317573 117.416309,17.8558238 116.23,18.11 L116.23,23.34 C117.133551,22.4442522 118.381276,21.9845643 119.65,22.08 C122.9,22.08 124.41,23.96 124.38,28.31 L114.92,28.31 L114.92,18.52 C110.56,20.13 108.41,24.15 108.41,30.19 C108.43,39.52 113.59,42.61 121.15,42.61 Z M143.63,42.5 C145.462802,42.5781173 147.275119,42.0892457 148.82,41.1 L148.82,36.44 C147.987164,37.4554661 146.708911,37.9974153 145.4,37.89 C141.56,37.89 140.4,34.96 140.4,30.21 C140.4,25.46 141.59,22.54 145.4,22.54 C149.21,22.54 150.13,25.46 150.13,30.21 L150.13,42.12 L156.4,42.12 L156.4,18.19 L150.91,18.19 L150.59,21.19 C149.43,19.4 147.34,17.98 143.65,17.98 C137.76,17.98 134.03,21.62 134.03,30.26 C134.03,38.9 137.76,42.5 143.63,42.5 Z M184,42.12 L184,27.26 C184,24.03 183.86,17.79 176.12,17.79 C174.401328,17.7157921 172.697391,18.1357032 171.21,19 L171.21,23.8 C171.925194,22.9243059 173.010239,22.4354803 174.14,22.48 C177.77,22.48 177.77,26.1 177.77,28.17 L177.77,42.12 L184,42.12 Z M200.67,42.12 L200.67,37.51 L198.14,37.51 L198.14,27.51 C198.14,24.4 198.14,17.77 190.24,17.77 C188.528161,17.6950328 186.831796,18.1226001 185.36,19 L185.36,23.8 C186.068146,22.9151705 187.158066,22.4241489 188.29,22.48 C191.92,22.48 191.92,26.19 191.92,28.17 L191.92,42.12 L200.67,42.12 Z M169.86,42.12 L169.86,18.19 L160.79,18.19 L160.79,22.81 L163.59,22.81 L163.59,42.12 L169.86,42.12 Z M218.36,33.83 C225.75,33.83 230.92,31.53 230.92,22.11 C230.92,12.69 225.81,10.44 218.23,10.44 C217.12,10.44 215.73,10.49 214.62,10.55 L214.62,15.3 C215.423548,15.2096883 216.231398,15.1629532 217.04,15.16 C221.1,15.16 224.25,16.05 224.25,22.16 C224.25,28.27 221.1,29.16 217.02,29.16 C216.21,29.16 215.35,29.16 214.62,29.06 L214.62,33.72 C215.74,33.75 217.06,33.83 218.4,33.83 L218.36,33.83 Z M213.31,42.12 L213.31,10.6 L203.41,10.6 L203.41,15.32 L206.77,15.32 L206.77,42.12 L213.31,42.12 Z M244,42.5 C245.832947,42.5794277 247.645652,42.0904513 249.19,41.1 L249.19,36.44 C248.357164,37.4554661 247.078911,37.9974153 245.77,37.89 C241.93,37.89 240.77,34.96 240.77,30.21 C240.77,25.46 241.96,22.54 245.77,22.54 C249.58,22.54 250.5,25.46 250.5,30.21 L250.5,42.12 L256.77,42.12 L256.77,18.19 L251.28,18.19 L250.96,21.19 C249.8,19.4 247.71,17.98 244.02,17.98 C238.14,17.98 234.4,21.62 234.4,30.26 C234.4,38.9 238.14,42.5 244,42.5 Z M268.44,42.12 L270.78,33.91 L266.78,18.19 L260.2,18.19 L267.2,42.12 L268.44,42.12 Z M273.57,50.12 L283.14,18.12 L276.75,18.12 L267.47,50.12 L273.57,50.12 Z" id="Name" fill="#381E42" fill-rule="nonzero"></path>
            <g id="Signet" fill="#FF3278">
                <path d="M28.15,34.75 L28.15,48.81 C21.69,47.66 2.05,60.23 2.05,60.23 C3.2332016,57.28268 4.16974943,54.2422444 4.85,51.14 C3.35530915,49.7485265 1.78277565,48.44309 0.14,47.23 C0.14,47.23 21.4,33.63 28.15,34.75 Z M55.44,30.15 C57.0982476,31.3391401 58.6689544,32.6458345 60.14,34.06 C59.4733294,37.1646457 58.5398634,40.2059382 57.35,43.15 C49.86,47.6 30.17,58.61 30.17,51.28 C30.17,51.12 30.17,50.97 30.17,50.83 L30.17,36.71 C30.17,36.84 30.17,36.99 30.17,37.15 C30.17,44 47,35.07 55.44,30.15 Z M28.15,6.72 L28.15,20.83 C23.46,19.95 11.55,26.34 4.85,30.23 C3.19077341,29.0380552 1.61693426,27.7315348 0.14,26.32 C0.813061362,23.2158681 1.74979319,20.1748351 2.94,17.23 C9,13.64 23,5.77 28.15,6.72 Z M30.15,23.41 L30.15,9.55 L30.15,9.78 C31.61,17.18 58.21,0.15 58.21,0.15 C57.0288317,3.09461465 56.0923292,6.13155832 55.41,9.23 C56.9037619,10.6216788 58.4727888,11.930314 60.11,13.15 C60.11,13.15 30.72,32 30.13,23.5 L30.13,23.39 L30.15,23.41 Z" id="arrows"></path>
            </g>
        </g>
    </g>
</svg>