<svg version="1.1" id="prefix__Layer_1" xmlns="http://www.w3.org/2000/svg" x="0" y="0" viewBox="0 0 1920 1080" xml:space="preserve"><style>.prefix__st0{fill:#201f4f}</style><path class="prefix__st0" d="M188 417.7c-64.99 0-118.01 52.21-120.87 117.72-.08.33-.13.67-.13 1.02v199.13c0 2.45 1.99 4.44 4.44 4.44h22.13c2.45 0 4.44-1.99 4.44-4.44V623.41c22.15 25.1 54.26 40.89 90 40.89 66.83 0 121-55.2 121-123.3S254.83 417.7 188 417.7zm0 217.34c-49.71 0-90-42.11-90-94.04 0-51.94 40.29-94.04 90-94.04s90 42.11 90 94.04c0 51.94-40.29 94.04-90 94.04zm332.02-54.54c-2.6 0-4.96 1.48-6.12 3.81-14.99 30.14-45.14 50.73-79.9 50.73-44.42 0-81.32-33.63-88.67-77.86-.49-2.97 1.78-5.68 4.79-5.68h204.43c.29-3.46.44-6.96.44-10.5 0-68.1-54.17-123.3-121-123.3S313 472.9 313 541s54.17 123.3 121 123.3c49.75 0 92.48-30.59 111.07-74.32 1.91-4.5-1.42-9.48-6.31-9.48h-18.74zM434 446.96c41.18 0 75.89 28.89 86.59 68.34.98 3.63-1.71 7.21-5.47 7.21H352.88c-3.76 0-6.45-3.58-5.47-7.21 10.7-39.45 45.41-68.34 86.59-68.34zm648.07-22.09l3.96 64.98c.38 6.18-6.39 10.28-11.63 7-1.85-1.15-3.83-2.87-5.9-5.35-10-12-21-48-64-54s-53 32-33 48 91.71 23.79 113 57c25 39 15 88-40 109-73.04 27.89-121.35-13.31-131-10-8.46 2.9-1 14-13 14-14 0-14-4-15-30-.88-23-2-47 1-54 1.76-4.11 12-6 18 4s34 67 85 65 52-57 0-67c-42.86-8.24-69.08-21.58-79.39-35.16-3.66-4.82-4.87-13.42-2.73-19.08 8.77-23.18 26.84-67 39.46-91.68 1.94-3.8 5.46-6.54 9.62-7.51 17.19-3.97 55.21-4.52 73.04 1.42 21 7 25 9 28 7 2.47-1.65 3.23-11.22 15.01-12 4.96-.32 9.26 3.42 9.56 8.38z"/><path class="prefix__st0" d="M1346.5 630.5c-9.12-3.59-25.23 4.66-33-12-14-30 23-151-29-185-36.75-24.03-98.85-24.88-151-2-51.58 22.63-34 71 1 74 34.93 2.99 45-13 47-25s-8.41-27.78-6-35c3-9 37.62-17.07 49 0 14 21 15.31 53.33 7 61-13 12-93 22-121 47-28.8 25.71-31.69 91.97 29 104 58.63 11.62 85-25 95-28 6.7-2.01 2.66 26.35 45 29 32 2 64-3 69-10 3-4.21 3.34-15.9-2-18zm-112-27s-2 10-18 16-38 7-45-20 11-58 63-71v75zm244-22l44-101c16.5-37.5 4-35-21-37-10.02-.8-10-21-3-21h78s14-1 16 3 2 12-7 17S1572 444 1564 455c-40 83-59 125-79 173-7.09 17.02-7.63 25.32-16.5 26.5-15 2-37 3-41-3s-11-26-11-26-69.86-156.38-74-163c-10-16-32-20-34-24s-4-15 3-15h131s8 0 9 5 0 11-7 13S1424 440 1425 461c.39 8.24 53.5 120.5 53.5 120.5z"/><path d="M1781.27 501.24l-190.75 49.17c-2.8.72-5.56-1.28-5.77-4.16-.16-2.23-.25-4.48-.25-6.75 0-50.26 40.74-91 91-91 25.54 0 48.62 10.54 65.14 27.49 2.09 2.15 5.21 2.97 8.11 2.22l14.32-3.67c6.05-1.55 8.45-8.93 4.39-13.68-22.3-26.06-55.49-42.53-92.52-42.36-65.86.3-119.83 54.01-120.43 119.87-.62 67.66 54.3 122.64 121.94 122.13 65.13-.5 118.6-53.17 120.03-118.29.26-12-1.23-23.61-4.23-34.6a9.049 9.049 0 00-10.98-6.37zm-62.31 131.07l-35.44 11.56a5.02 5.02 0 01-6.4-3.46l-15.32-56.46c-.21-.68-.4-1.36-.56-2.06l-.24-.89.05.01c-.36-1.78-.55-3.62-.55-5.51 0-16.06 13.51-28.95 29.79-27.94 13.98.87 25.34 12.27 26.16 26.25.43 7.37-1.98 14.17-6.25 19.4-1.65 2.02-1.92 4.84-.76 7.18l12.45 24.91c1.38 2.73-.01 6.06-2.93 7.01z" fill="#86c041"/><path class="prefix__st0" d="M726.5 657.04c0 6.17-5.3 11.02-11.45 10.46-22.66-2.03-40.77-10.29-53.95-24.63-22.19-24.15-21.44-57.03-21.11-62.9V350c0-5.8 4.7-10.5 10.5-10.5h12c5.8 0 10.5 4.7 10.5 10.5v231.29l-.06.6c-.01.14-1.53 23.61 12.62 38.82 7.25 7.79 17.84 12.43 31.57 13.83 5.33.55 9.38 5.07 9.38 10.43v12.07zm-86 2.22c0 5.16-4.38 9.27-9.53 8.89-23.56-1.73-42.32-10.05-55.87-24.79-22.19-24.15-21.44-57.03-21.11-62.9V348.91c0-4.92 3.99-8.91 8.91-8.91h15.18c4.92 0 8.91 3.99 8.91 8.91v232.88l-.06.6c-.01.14-1.53 23.61 12.62 38.82 7.46 8.02 18.45 12.69 32.76 13.95 4.62.41 8.18 4.24 8.18 8.88v15.22z"/><path class="prefix__st0" d="M909.71 403.28l-84.37 201.54-70.28-184.11a13.028 13.028 0 00-12.16-8.38H570.39v33h149.78c5.4 0 10.24 3.33 12.16 8.38l72.18 189.08c1.51 3.96 1.44 8.35-.19 12.26l-33.46 79.94c-1.42 3.39.18 7.3 3.57 8.72l18.15 7.6c3.39 1.42 7.3-.18 8.72-3.57l138.85-331.71c1.42-3.39-.18-7.3-3.57-8.72l-18.15-7.6c-3.4-1.43-7.3.17-8.72 3.57zm32.76 316.34c-2.67 0-5.04-.5-7.12-1.5s-3.77-2.45-5.08-4.33l3.41-5.03c1.22 1.61 2.58 2.87 4.08 3.76 1.5.89 3.06 1.33 4.67 1.33.97 0 1.85-.18 2.62-.54.78-.36 1.39-.89 1.85-1.58.46-.69.68-1.52.68-2.47 0-.99-.26-1.77-.78-2.33s-1.29-1.07-2.33-1.52c-1.04-.45-2.34-1-3.91-1.64-1.32-.54-2.59-1.15-3.79-1.83a9.37 9.37 0 01-2.95-2.59c-.77-1.04-1.15-2.38-1.15-3.99 0-1.84.5-3.47 1.51-4.89 1-1.42 2.41-2.54 4.21-3.35s3.85-1.23 6.15-1.23c1.68 0 3.35.29 5.01.87 1.67.58 3.34 1.44 5.01 2.58l-2.82 4.87c-2.38-2.03-4.75-3.04-7.11-3.04-1.41 0-2.53.34-3.37 1.01-.84.67-1.26 1.53-1.26 2.56 0 .85.36 1.57 1.09 2.17.72.6 1.62 1.13 2.7 1.58 1.08.46 2.15.89 3.23 1.3 1.7.62 3.19 1.28 4.47 1.99 1.28.7 2.29 1.61 3.01 2.73.72 1.12 1.09 2.61 1.09 4.47 0 2.24-.53 4.15-1.6 5.74-1.07 1.59-2.58 2.81-4.55 3.65s-4.29 1.25-6.97 1.25zm37.58 0c-2.94 0-5.6-.73-7.99-2.19-2.39-1.46-4.28-3.46-5.68-6.01-1.4-2.54-2.09-5.45-2.09-8.72 0-3.21.68-6.08 2.03-8.61 1.35-2.53 3.22-4.54 5.6-6.02 2.38-1.48 5.09-2.22 8.13-2.22 2.48 0 4.77.52 6.86 1.55 2.09 1.04 3.75 2.47 4.97 4.31v-4.87h7.73v31.78h-7.73v-5.09c-1.41 1.92-3.13 3.42-5.15 4.48-2.03 1.07-4.26 1.61-6.68 1.61zm2.21-6.61c1.92 0 3.63-.44 5.11-1.32a9.347 9.347 0 003.48-3.63c.84-1.54 1.26-3.32 1.26-5.32 0-1.99-.42-3.76-1.27-5.31-.85-1.55-2.01-2.77-3.48-3.65-1.47-.88-3.17-1.32-5.09-1.32-1.9 0-3.6.44-5.09 1.32-1.49.88-2.66 2.09-3.51 3.65s-1.27 3.32-1.27 5.31c0 1.97.42 3.73 1.27 5.29s2.01 2.78 3.49 3.66c1.47.88 3.17 1.32 5.1 1.32zm41.34 5.62l-16.26-31.78h9.13l9.71 21.39 9.72-21.39h9.13l-16.26 31.78h-5.17zm44.35.99c-3.39 0-6.44-.73-9.13-2.2-2.69-1.47-4.81-3.48-6.36-6.02-1.55-2.55-2.33-5.41-2.33-8.6 0-2.38.44-4.59 1.32-6.63.88-2.04 2.11-3.83 3.69-5.39 1.58-1.55 3.42-2.76 5.51-3.63s4.35-1.3 6.77-1.3c3.31 0 6.21.68 8.71 2.05 2.49 1.37 4.44 3.27 5.83 5.73 1.4 2.45 2.1 5.28 2.1 8.49-.02.27-.04.5-.05.7-.01.2-.05.49-.11.88h-25.89c0 1.9.43 3.59 1.3 5.06.87 1.47 2.08 2.61 3.65 3.43s3.36 1.23 5.39 1.23c1.92 0 3.64-.39 5.14-1.16 1.5-.78 2.86-1.96 4.08-3.55l5.62 2.89c-1.51 2.53-3.61 4.5-6.29 5.91s-5.66 2.11-8.95 2.11zm-9.59-20.77h18.03c-.27-1.45-.82-2.7-1.64-3.76a8.562 8.562 0 00-3.13-2.47c-1.26-.59-2.67-.88-4.22-.88-1.63 0-3.09.28-4.38.85-1.28.57-2.32 1.39-3.12 2.45-.8 1.08-1.31 2.34-1.54 3.81zm42.96 20.77c-.95 0-1.82-.23-2.61-.68-.79-.46-1.41-1.08-1.86-1.86s-.68-1.65-.68-2.58c0-.93.23-1.79.68-2.58s1.08-1.41 1.88-1.86c.8-.46 1.66-.68 2.59-.68.95 0 1.82.23 2.59.68a4.95 4.95 0 011.83 1.86c.44.79.67 1.64.67 2.58 0 .93-.22 1.79-.67 2.58-.45.79-1.06 1.41-1.83 1.86-.78.45-1.64.68-2.59.68zm46.68 0c-2.67 0-5.04-.5-7.12-1.5s-3.77-2.45-5.08-4.33l3.41-5.03c1.22 1.61 2.58 2.87 4.08 3.76 1.5.89 3.06 1.33 4.67 1.33.97 0 1.85-.18 2.62-.54.78-.36 1.39-.89 1.85-1.58.46-.69.68-1.52.68-2.47 0-.99-.26-1.77-.78-2.33s-1.29-1.07-2.33-1.52c-1.04-.45-2.34-1-3.91-1.64-1.32-.54-2.59-1.15-3.79-1.83-1.2-.68-2.18-1.55-2.95-2.59s-1.15-2.38-1.15-3.99c0-1.84.5-3.47 1.51-4.89 1-1.42 2.41-2.54 4.21-3.35 1.8-.82 3.85-1.23 6.15-1.23 1.68 0 3.35.29 5.01.87 1.67.58 3.34 1.44 5.01 2.58l-2.82 4.87c-2.38-2.03-4.75-3.04-7.11-3.04-1.41 0-2.53.34-3.37 1.01-.84.67-1.26 1.53-1.26 2.56 0 .85.36 1.57 1.09 2.17.72.6 1.62 1.13 2.7 1.58 1.08.46 2.15.89 3.23 1.3 1.7.62 3.19 1.28 4.47 1.99 1.28.7 2.29 1.61 3.01 2.73.72 1.12 1.09 2.61 1.09 4.47 0 2.24-.53 4.15-1.6 5.74-1.07 1.59-2.58 2.81-4.55 3.65s-4.28 1.25-6.97 1.25zm37.59 0c-2.94 0-5.6-.73-7.99-2.19-2.39-1.46-4.28-3.46-5.68-6.01-1.4-2.54-2.09-5.45-2.09-8.72 0-3.21.68-6.08 2.03-8.61 1.35-2.53 3.22-4.54 5.6-6.02 2.38-1.48 5.09-2.22 8.13-2.22 2.48 0 4.77.52 6.86 1.55 2.09 1.04 3.75 2.47 4.97 4.31v-4.87h7.73v31.78h-7.73v-5.09c-1.41 1.92-3.13 3.42-5.15 4.48-2.04 1.07-4.26 1.61-6.68 1.61zm2.2-6.61c1.92 0 3.63-.44 5.11-1.32a9.347 9.347 0 003.48-3.63c.84-1.54 1.26-3.32 1.26-5.32 0-1.99-.42-3.76-1.27-5.31-.85-1.55-2.01-2.77-3.48-3.65-1.47-.88-3.17-1.32-5.09-1.32-1.9 0-3.6.44-5.09 1.32-1.49.88-2.66 2.09-3.51 3.65s-1.27 3.32-1.27 5.31c0 1.97.42 3.73 1.27 5.29s2.01 2.78 3.49 3.66c1.47.88 3.18 1.32 5.1 1.32zm31.69 5.62v-25.92h-3.88v-5.87h3.88v-9.16c0-2.77.42-5.16 1.27-7.15s2.06-3.53 3.65-4.61c1.58-1.08 3.5-1.61 5.76-1.61 1.41 0 2.77.21 4.08.62s2.44.99 3.37 1.74l-2.73 5.43c-.95-.64-2.08-.96-3.38-.96-1.12 0-1.98.27-2.59.82-.61.55-1.05 1.32-1.3 2.31-.26.99-.39 2.16-.39 3.51v9.06h7.7v5.87h-7.7v25.92h-7.74zm39.98.99c-3.39 0-6.44-.73-9.13-2.2-2.69-1.47-4.81-3.48-6.36-6.02-1.55-2.55-2.33-5.41-2.33-8.6 0-2.38.44-4.59 1.32-6.63.88-2.04 2.11-3.83 3.69-5.39 1.58-1.55 3.42-2.76 5.51-3.63s4.35-1.3 6.77-1.3c3.31 0 6.21.68 8.71 2.05 2.49 1.37 4.44 3.27 5.83 5.73 1.4 2.45 2.1 5.28 2.1 8.49-.02.27-.04.5-.05.7-.01.2-.05.49-.11.88h-25.89c0 1.9.43 3.59 1.3 5.06.87 1.47 2.08 2.61 3.65 3.43s3.36 1.23 5.39 1.23c1.92 0 3.64-.39 5.14-1.16 1.5-.78 2.86-1.96 4.08-3.55l5.62 2.89c-1.51 2.53-3.61 4.5-6.29 5.91s-5.66 2.11-8.95 2.11zm-9.59-20.77h18.03c-.27-1.45-.82-2.7-1.64-3.76a8.562 8.562 0 00-3.13-2.47c-1.26-.59-2.67-.88-4.22-.88-1.63 0-3.09.28-4.38.85-1.28.57-2.32 1.39-3.12 2.45-.8 1.08-1.32 2.34-1.54 3.81zm42.95 20.77c-.95 0-1.82-.23-2.61-.68-.79-.46-1.41-1.08-1.86-1.86s-.68-1.65-.68-2.58c0-.93.23-1.79.68-2.58s1.08-1.41 1.88-1.86c.8-.46 1.66-.68 2.59-.68.95 0 1.82.23 2.59.68a4.95 4.95 0 011.83 1.86c.44.79.67 1.64.67 2.58 0 .93-.22 1.79-.67 2.58-.45.79-1.06 1.41-1.83 1.86-.77.45-1.63.68-2.59.68zm52.77 16.08c-4.18 0-7.7-.79-10.57-2.36s-4.96-3.87-6.29-6.89l6.33-3.04c.91 1.72 2.32 3.09 4.22 4.11 1.9 1.02 4 1.54 6.3 1.54 2.01 0 3.8-.4 5.37-1.21 1.57-.81 2.8-1.95 3.69-3.43.89-1.48 1.33-3.22 1.33-5.23v-5.65c-1.39 1.92-3.11 3.42-5.17 4.48-2.06 1.07-4.31 1.6-6.75 1.6-2.9 0-5.54-.72-7.92-2.16-2.38-1.44-4.27-3.43-5.68-5.97s-2.11-5.46-2.11-8.75c0-3.23.69-6.11 2.06-8.66 1.38-2.54 3.26-4.55 5.65-6.02 2.39-1.47 5.12-2.2 8.18-2.2 2.44 0 4.69.52 6.75 1.55 2.06 1.04 3.72 2.47 4.98 4.31v-4.87h7.7v32.65c0 3.27-.68 6.11-2.05 8.54-1.37 2.42-3.39 4.3-6.07 5.65-2.65 1.33-5.98 2.01-9.95 2.01zm.68-22.69c1.92 0 3.64-.44 5.14-1.32 1.5-.88 2.67-2.09 3.51-3.65.84-1.55 1.26-3.31 1.26-5.28 0-2.01-.42-3.78-1.27-5.32a9.545 9.545 0 00-3.51-3.65c-1.49-.89-3.18-1.33-5.06-1.33-1.9 0-3.6.45-5.07 1.33-1.48.89-2.65 2.11-3.51 3.66s-1.29 3.33-1.29 5.34c0 1.97.42 3.72 1.26 5.26.84 1.54 2 2.75 3.49 3.63 1.48.89 3.17 1.33 5.05 1.33zm30.95 5.62v-31.78h7.73v4.63c1.12-1.82 2.51-3.21 4.19-4.17s3.53-1.44 5.56-1.44c1.03 0 2.11.14 3.21.43 1.11.29 2.05.66 2.84 1.12l-3.23 6.52c-.66-.43-1.44-.77-2.34-.99-.9-.23-1.73-.34-2.5-.34-1.3 0-2.55.34-3.74 1.01-1.19.67-2.15 1.55-2.89 2.62s-1.1 2.23-1.1 3.48v18.93h-7.73zm46.71.99c-3.43 0-6.53-.71-9.3-2.14s-4.95-3.41-6.56-5.96c-1.61-2.55-2.42-5.47-2.42-8.78 0-3.33.81-6.26 2.42-8.8 1.61-2.53 3.8-4.52 6.56-5.94s5.86-2.14 9.3-2.14 6.53.71 9.3 2.14 4.95 3.41 6.56 5.94c1.61 2.54 2.42 5.47 2.42 8.8 0 3.31-.81 6.24-2.42 8.78-1.61 2.54-3.8 4.53-6.56 5.96s-5.87 2.14-9.3 2.14zm0-6.64c1.92 0 3.66-.43 5.21-1.3a9.5 9.5 0 003.66-3.62c.89-1.54 1.33-3.32 1.33-5.32s-.45-3.78-1.33-5.32c-.89-1.54-2.11-2.75-3.66-3.62s-3.29-1.3-5.21-1.3-3.66.43-5.2 1.3a9.709 9.709 0 00-3.66 3.62c-.9 1.54-1.35 3.32-1.35 5.32 0 1.99.45 3.76 1.35 5.31s2.12 2.76 3.66 3.63c1.54.86 3.27 1.3 5.2 1.3zm39.54 5.65l-16.26-31.78h8.85l9.78 21.32 8.85-21.32h5.21l8.88 21.32 9.75-21.32h8.85l-16.23 31.78h-5.18l-8.66-20.67-8.66 20.67h-5.18zm55.47.99c-.95 0-1.82-.23-2.61-.68-.79-.46-1.41-1.08-1.86-1.86s-.68-1.65-.68-2.58c0-.93.23-1.79.68-2.58s1.08-1.41 1.88-1.86c.8-.46 1.66-.68 2.59-.68.95 0 1.82.23 2.59.68a4.95 4.95 0 011.83 1.86c.44.79.67 1.64.67 2.58 0 .93-.22 1.79-.67 2.58-.45.79-1.06 1.41-1.83 1.86-.78.45-1.64.68-2.59.68zM1780.67 437.76v-18.8h-5.96v-3.09h15.39v3.09h-5.97v18.8h-3.46zm13.04 0l2.41-21.89h3.69l5.66 14.92 5.66-14.92h3.69l2.41 21.89h-3.46l-1.75-15.6-5.45 14.76h-2.2l-5.45-14.76-1.74 15.6h-3.47z"/></svg>
