<svg version="1.1" id="Layer_1" xmlns="http://www.w3.org/2000/svg" x="0" y="0" viewBox="0 0 773.9 173.6" xml:space="preserve"><style>.st0{fill:#201f4f}.st4{fill:#8dba4a}</style><path class="st0" d="M612.6 104.5c4.1-9.3 8.3-18.6 12.3-28 1.8-4.2 3.6-8.4 5.3-12.6 1.4-3.4 5.2-9.2 4.2-13.2-.5-2.2-2.2-3.2-4.1-4.2-2.5-1.4-8.2-1.3-10-3.3-1-1.2-1.2-5.6.1-6.8 1.8-1.7 7.5-.6 9.6-.6h15.7c3.6 0 9.7-1.1 13.1-.1 2.6.8 4.2 2.5 2.8 5.8-1.4 3.3-5.4 3.3-8.2 4.9-6.5 3.9-9.2 11.8-12.3 18.4-4.4 9.6-8.9 19.1-13.3 28.8-4 8.7-8.2 17.3-11.8 26.1-1.7 4.1-2.7 11.3-5.4 14.7-2.5 3.2-6.1 2-10.2 2-3.8 0-7.5 1.1-10.1-1.7-2.5-2.7-3.8-8.9-5.3-12.4-4.5-10.3-9.1-20.6-13.8-30.8-4.1-9.1-8.2-18.1-12.3-27.2-3.6-8-6.4-16.1-15.3-19.4-3.5-1.3-4.3-.4-5.1-4.1-1.4-6.3 3.3-4.9 7.6-4.9h33.2c4.3 0 25.5-3.7 21.2 5.7-2.1 4.5-10.1 1.5-12 6.5-1.1 2.9 2.6 8.9 3.7 11.3 2.1 4.9 4.3 9.8 6.5 14.7 4.6 9.9 9.2 20.1 13.9 30.4zM622.9 157c-.8 2-2.2 10.1-5.6 8.5-2.6-1.3-4.7-12.6-5.6-15.3 6.5-.7 3.2 5.6 7 7.8 1.1-1.7 1.9-8.7 4.7-7.7 2.1.7 3.3 6.6 4 8.4 1.2-3.3 1.9-9.9 6.8-8.3-.9 2.5-3 13.6-5.4 15-3.6 2-5.1-6.4-5.9-8.4zM409.2 150.1c6.6-.5 4.2 5.7 7.9 8.4 3.6-1.9 1.1-10.6 7.5-8.1-1 2.3-5.3 16.4-8.2 15.4-3-1.1-6-12.9-7.2-15.7zM475.4 165.7c-2.1.2-5.9-1-4.4-3.4 1.6-2.7 5 2.4 6-.5.7-2-5.4-3.8-6.1-5.8-1.4-3.7 2.2-6.4 5.7-5.9 1.7.3 5.6 2.4 2.7 3.9-.8.4-5.9-1.9-4.7.7.9 1.9 4.8 1.9 5.9 4.2 1.6 3.6-1.6 6.6-5.1 6.8zM377.8 165.8c-1.9.3-6.2-2-3.4-4 1.2-.9 5.4 2.6 5.5-.3.1-2.6-6.1-3.1-6.5-6.5-.4-3.5 3.5-5.4 6.5-4.8 2 .4 5.1 2.9 1.9 4.1-.8.3-4.9-2.7-4.4.2.5 2.3 6 2.3 6.4 6 .4 3.6-2.9 5.2-6 5.3zM510.7 160c0 2.2 1.1 6.4-2.4 5.7-2.8-.5-1.2-6.2-1.5-8.4-.4-3.6-3.3-8.8 1.4-11.9 1.3-.9 4.4-1.6 4.9.7.5 2.7-2.2 1.4-2.1 3.8 0 .4 2.6.5 2.1 3-.3 1.4-1.9.2-2.3 1.3-.7 1.4-.1 4.2-.1 5.8zM579.8 157.9c0-1.4-.8-6 .4-7.1 2.6-2.3 1.5.8 3.3.5 1.3-.2 2.8-2.5 4.2-.8 1.6 2.1-1.5 2.5-2 3.3-.8 1.3-1.5 1.5-1.9 3.4-.4 1.8.9 6.1-.1 7.6-4.1 5.4-3.9-5.7-3.9-6.9z"/><path d="M640.8 161.5c2.8.4 2.5 4.3-.3 4.2-2.8-.1-2.5-4.1.3-4.2z" fill="#171717"/><path class="st0" d="M540.5 165.7c-2.5-.5-2.8-4.3.1-4.2 2.8.1 2.7 4.1-.1 4.2zM451.9 161.5c2.1.2 3.3 2.6 1.4 4-2.4 1.7-5.2-3.2-1.4-4z"/><path d="M682.9 136.9c1.1-1.6 7.8 1.2 9 1.5-3.2.4-6.1 0-9-1.5z" fill="#7db342"/><path d="M725.1 74.7c-1.8 2.4-4.3 1.8-6.7 1.8 2.1-.9 4.3-1.5 6.7-1.8z" fill="#84b240"/><path class="st4" d="M720.9 52.5c2 1 4.2 1.7 4.8 4.3-1.5-1.6-3.7-2.4-4.8-4.3z"/><path d="M708.4 138.7c-.5-.1-.9-.1-1.4-.2 1.6 0 3.2-1.6 4.8-.6-1 .6-2.2.8-3.4.8z" fill="#7fb044"/><path class="st0" d="M496.7 144.3c-1.6 1-2.5.6-3.5 0h3.5z"/><path d="M735.9 48.9c-1.4-.2-2.2-1-2.4-2.4 1 .6 1.9 1.4 2.4 2.4z" fill="#91b953"/><path class="st4" d="M718.2 50.8c1.3 0 2.4.2 2.7 1.7-1-.3-2-.8-2.7-1.7z"/><path class="st0" d="M773.3 33.4c-3.6-1-3.6 12.1-7 11.2-.8-1.9-3.6-12.1-6-11-1.7.7-.4 12.9.7 12.9V35.3c1.1 1.6 4.9 11.4 6.3 11 2.5-.7 2.5-9.2 5.7-10.6v10.9c1-.1 2.1-12.7.3-13.2zM754.7 33.6h-3.3c.7.8 1.6 1 2.6.8.4 1.2.6 2.4.6 3.6.2 2.8-.4 5.7.5 8.5.6-2.8.2-5.6.4-8.5.3-4.8 1.2-1.9 3.6-4.4-.5 0-3.7-.4-4.4 0z"/><path d="M678.8 86.8c.5-.1.9 0 1.3.4-.9.4-1.7.3-2.5-.2.4 0 .8-.1 1.2-.2z" fill="#80ae41"/><path class="st0" d="M376.3 32.6c-2.9.1-9.4-1.1-11.8.1-2.8 1.4-3.9 6.9-5 9.7L349 67.6c-6.8 16.1-13.5 32.3-20.3 48.4-9-24-18.1-48-27.1-72-1.9-5.1-2.1-10.8-8.1-11.4-6.1-.5-12.6.1-18.8.1-3.6 0-10.6 1.7-12.1-2.1-.9-2.4 0-6.3 0-8.9v-11c0-4.9 2-10.1-3.6-10.7-1.9-.2-6.2-.6-8.2-.1-2.4.6-1.8.5-2.6 2.6-1 2.5.1 6.9.1 9.7v9.7c0 6.1 2.1 10.5-4.8 10.6-3.4 0-14.7 1.8-17.1-.1-2.6-2-.9-13-.9-16.1 0-2.7 1.7-13.6-.2-15.7-1.4-1.5-9.4-1.5-11.4-.7-4.4 1.7-2.3 11-2.3 15.3v43.6c0 2.2 1.6 16.7-.4 17.9-2.9-18.5-17.6-34.7-35-41-20.5-7.4-42.9-.7-57.1 15.6-29.1 33.6-4.8 89.5 40.4 88.9 22.3-.3 42.5-14.9 49.4-36.1-3.6 0-11.9-1.5-14.8.8-3.6 2.8-5.4 8.8-9 12.1-6.7 6.2-15.6 9.1-24.7 9.3-11 .2-21.4-3.9-29.2-11.6-3.1-3.1-14.8-18.5-10.2-23 1.2-1.2 6.9-.2 8.5-.2H202.3c7.8 0 9.2-1 9.1 6.9-.1 5.7-.3 11.5.6 17.1 1.7 10.4 8.5 18.1 18.5 21.6 4 1.4 11.6 3.7 15.8 2.5 3-.8 2.4-.5 2.4-4.4.1-3 .7-5.6-1.7-7.1-1.6-1-5.1-.7-7.1-1.2-2.4-.7-4.6-1.5-6.6-2.9-4.3-3-6.6-7.6-7.5-12.6-2.1-11.9-.6-25.2-.6-37.3V54.8c0-1.5-1-6.9.1-8.3 1.4-1.8 5.3-.9 7.4-.9 3.5 0 13.1-1.8 15.3.9 2 2.4.1 14.5.1 17.6.1 13.1-.4 26.3 0 39.4.4 10.7 1.1 21.6 10.2 28.7 4.2 3.2 9.2 5.1 14.3 6.2 2 .4 11 2.7 12.7.9 1.2-1.3 1-7.4.5-8.9-1.2-3.5-3.5-2.6-7-3.1-10.8-1.8-15.9-9.4-16.3-19.9-.6-15.3-.2-30.6-.2-45.8 0-4.1-1.9-14.4 2.1-16 4.4-1.8 19.2 3.5 21.8-1.3 7.9 25.5 18.8 50.4 28.2 75.3 2.3 6.1 6.2 12 3.9 18.3-2.2 6-4.8 11.8-7.1 17.8-.9 2.3-7.6 15.1-6.3 16.8.8 1 12.4.8 13.9 0 3.3-1.7 5.1-10.6 6.5-14 2.8-6.7 5.6-13.3 8.4-20 5.2-12.4 10.4-24.7 15.6-37.1 5.2-12.3 10.3-24.6 15.5-36.9 2.5-5.9 4.9-11.8 7.4-17.7.9-1.8 7.7-14.3 4.1-14.2zM195.1 79h-55.2c-5 0-10.3.4-15.3 0-4.1-.3-4.4-1-3.2-5.1 2-6.9 6.6-13 11.9-17.5 10.7-9.1 25.9-11.7 39.1-7.2 6.4 2.2 11.9 6.1 16.3 11.1 2.3 2.5 13.1 18.7 6.4 18.7zM557 130.2c-.7-4.2.6-4.1-3.6-4.8-2.8-.4-5.7.4-8.4-.8-6.3-2.9-5.6-9.9-5.5-15.8.1-15.8 2.1-32 .5-47.7-2.8-27.9-34.5-30.9-57-27.4-11.2 1.7-29.1 6.3-33.4 18.5-4.2 11.9 6.5 19.5 17.3 19.4 5.6-.1 11.9-1.6 15-6.6 1.7-2.8 2-6.1 1.6-9.4-.4-2.9-3.6-7.5-2.5-10.3 1.5-3.6 8.6-4.4 11.9-4.2 4.9.3 9.2 2.7 11.5 7.1 1.6 3.2 1.9 7 2.1 10.5.1 3 1.3 9.4 0 11.9-2.3 4.7-16.3 6.7-21.1 8.1-13.4 3.9-30.8 7.5-38.3 20.8-3.8-10-7.3-16.7-17.3-22.1-9.8-5.2-21.1-6.8-31.4-10.9-7.5-3-14-11.2-8.2-19.2 4.3-5.9 15.1-6.2 21.5-4.3 9.7 2.8 15.8 10.8 20.6 19.1 1.5 2.7 4.3 7.5 8.4 5.3 3-1.6.9-11.2.8-14.5-.2-5.3 0-10.9-.7-16.1-.5-3.2-.2-2.7-2.9-3.6-2.4-.8-4.5 0-6 1.6-1.1 1.1-.4 2.7-2.2 3.4-1.8.7-5.3-1.5-7.1-2-6.2-1.8-12.6-2.9-19.1-3.1-5.6-.2-11.4.1-16.9 1.3-5.2 1.1-6.4 3.5-8.3 8.4-4.3 11.3-9.8 22.2-13.8 33.6-6.1 17.4 30.2 22.2 40.6 26.3 8.4 3.3 15 10.3 10.5 19.8-4.6 9.6-19.5 8.6-27.7 5.1-8.4-3.6-15.2-10-20-17.7-1.8-3-3.3-8.6-6.4-10.4-4.1-2.4-6.6-.5-6.8 3.4-.3 6.9.7 14.1.9 21 .1 4.2-1.7 11.6 3.2 12.9 1.7.4 4.1 0 5.5-1.1 1.4-1.2 1.2-4.1 2.4-4.9 1.8-1.2 11.4 4.1 14.1 4.9 20.6 6.3 52.2 4.1 63.3-17.6 2.4 4.5 3.1 8.8 7 12.5 4.1 3.9 9.8 6.2 15.3 7.3 12.2 2.5 26.5-1.3 35.8-9.5 5.5-4.8 4.2-3.3 8 1.8 3.7 5 9.7 7 15.7 7.7 5.4.7 32.5 1 31.1-7.7zm-50.5-16.8c0 6.3-11.9 9.6-16.6 9-8-.9-10.8-7.4-10.8-14.7 0-16.2 14.5-21.4 27.4-26.4v32.1z"/><path d="M711.8 93c-.6 0-4.2-1.7-3.5-2.6.8-.9 3.5 1.8 3.5 2.6z" fill="#577b46"/><path d="M708.9 90.4c-1.1 1-2.9.1-4.3-.3 1.5-.6 2.9-.5 4.3.3z" fill="#638543"/><path class="st0" d="M102.9 72C92.4 35.2 47.5 21.2 18.3 46.7 3.9 59.3.2 75.5.1 93.8c-.2 24.6-.3 49.3-.1 73.9.1 7 2.8 6 9.5 5.8 6.1-.3 4.4-4.5 4.4-9.9v-20.8c0-3-1.7-18.4.6-19.8 15.1 18.9 45 23 65.1 10.1 20.5-13.4 30-37.6 23.3-61.1zm-49 54.7c-16.6.8-31.4-10.1-37.4-25.3-6.1-15.6-1.3-33.3 11-44.5 26.7-24.1 66 .6 63.5 34.1-1.4 18.8-18.3 34.8-37.1 35.7zM571.8 150.2c-3.3 2.7-7.7-2-11.5 2.3-3 3.3-2.6 9 1 11.7 2 1.5 8.5.2 8.9.8 2.3 3.6-10.9 1.4-11.5 1.5 2 5.4 10.3 6.7 13.9 2.2 2.1-2.7 1.5-7 1.5-10.1 0-.6.9-11-2.3-8.4zm-5.3 11.9c-5.5.1-5.6-8.5-.1-8.4 5.3 0 5.4 8.3.1 8.4zM404.3 152.1c-.1-2.2-.7-1.8-2.9-1.9-1-.1-.7 1.1-1.6 1.1-.9 0-2.1-1-3.1-1.1-5.9-.7-9.9 5.8-7.6 11.1 2.4 5.4 7.5 3.9 11.4 3.8.9 0 1 1.3 2.4.8 1-.4 1-1.5 1.4-2.3 1.1-2.6.1-8.6 0-11.5zm-7.6 10c-5.5.3-5.8-8.4-.2-8.4 5.3-.1 5.5 8.1.2 8.4zM500.6 163.4c.2-2.7 1.1-8.8 0-11.4-.9-2.2-.5-1.7-3.2-1.8-.6 0-.6 1-1.4 1.1-.8 0-2-1-2.8-1.1-3.4-.4-6.4 1.1-7.8 4.3-2.5 5.7 1.9 11.7 7.9 11.1-1.2.1 2.7-1.2 2.8-1.1.4 0 1.3 1.5 1.6 1.4 2.4-.3 2.8-.2 2.9-2.5zm-7.8-1.3c-5.3 0-5.4-8.3 0-8.4 5.5-.1 5.5 8.4 0 8.4zM526.1 150.1c-6.2-.9-11.3 5.2-8.7 11 2.4 5.5 10.8 6.4 14.1 1.2-3.8-2.1-8.4 2.1-10.6-3.2 2.9 0 11.3 1.6 12.1-1.4 1-3.5-4.1-7.2-6.9-7.6zm-5.1 5.8c2.8-3.2 5.3-3.1 7.7 0H521zM442.1 159.1c4.4.2 1.5-5.4-.3-7-3.2-2.9-8.5-2.7-11.5.4-7.9 8 6 18.9 12.7 9.9-3.9-3-8.2 2.4-11-3.3 3.4 0 6.7-.2 10.1 0zm-1.8-3.1h-7.7c2.5-3.2 4.9-3.2 7.7 0zM599.2 150.1c-10.3.1-9.9 15.8.2 15.7 10.5-.2 10.5-15.9-.2-15.7zm.3 12c-5.3.2-5.6-8.1-.3-8.4 5.5-.3 5.8 8.2.3 8.4z"/><path d="M747.2 106.1c-1.6-.4 1.7-7.3 2-8.8 1.1-4.8 1.5-9.8 1-14.7-.3-2.9-.6-8.3-1.6-11-1.6-4.3-5.3-1.6-9.4-.5-9.9 2.6-19.7 5-29.6 7.5-10.2 2.6-21.1 4.6-30.9 8.3.6.7-2.1.5-3.4.7-3.2.5-6.4 1.6-9.5 2.4-1.9.5-4.8 2.1-6.3.2-1.5-1.9-.3-8.2 0-10.3C661.3 68.2 668 58 678.3 52c9.8-5.8 22.5-7.7 33.3-4 4.5 1.6 8.9 3.8 12.4 7.1 1 .9 2.5 3.7 3.7 4.3 2.7 1.2 6.7-.7 9.5-1.5 3.9-1.1 3.9-.3 3.3-3.4-.5-2.5-4.3-4.9-6.1-6.6-4.7-4.4-9.5-8.2-15.5-10.7-12.3-5.2-26.7-5.8-39.2-.9-24.3 9.5-39.1 37.2-32.7 62.7 6.6 26.2 35.4 46.3 61.2 39.8-.3-.3-.7-.5-1.1-.4.7-.5 3.6-.2 4.5-.3 2.1-.4 4.2-1.1 6.2-1.9 4.9-1.9 9.5-4.8 13.5-8.1 7.3-6.1 12.7-13.5 15.9-22zm-27.8 20.4c-4.5 1.6-9.7 2.1-14.7 3.4-6.5 1.6-6.1-.8-7.7-6.8-2.2-7.9-9.2-21.6-2.8-29 5.4-6.2 15.5-4.7 20.2 1 4.5 5.5 1.7 11.6-2 16.4-2.4.6 7.8 14.7 7 15z" fill="#86c041"/></svg>