<svg width="113" height="23" fill="none" xmlns="http://www.w3.org/2000/svg">
  <path d="M109.649 13.868c.283-1.797-.331-3.085-1.676-3.473-1.652-.486-2.879.291-3.682 2.356h-2.737c-.378-1.919 1.581-4.542 3.729-4.833 1.368-.195 2.832-.17 4.177.121 1.699.364 2.95 1.7 3.092 3.449.306 3.692.306 7.383.424 11.148h-3.02c-.095-.365-.213-.729-.354-1.19-1.723 1.457-3.611 1.87-5.688 1.262-1.865-.558-2.88-1.942-2.927-3.91-.047-1.967.897-3.546 2.762-4.007 1.911-.486 3.87-.632 5.9-.923zm-3.281 6.485c2.077 0 3.375-1.142 3.47-3.085.023-.583-.118-.947-.756-.874-1.085.097-2.218.048-3.257.34-.613.17-1.368.728-1.628 1.311-.59 1.36.378 2.308 2.171 2.308zM52.724 22.636h-2.88c-.07-.34-.141-.656-.235-1.093-.236.097-.449.17-.638.291-1.58 1.166-3.304 1.36-5.145.85-1.746-.486-2.737-1.724-2.855-3.667-.142-1.992.543-3.522 2.265-4.056 1.653-.51 3.446-.656 5.193-.874 1.44-.17 1.486-.17 1.203-1.58-.307-1.408-.944-2.063-2.148-2.21-1.486-.17-2.383.39-3.02 1.75-.142.315-.567.63-.874.68-.731.097-1.463.024-2.242.024.095-1.797.803-3.109 2.1-4.032 2.101-1.481 4.367-1.457 6.609-.461 2.1.947 2.667 2.938 2.69 5.1 0 3.06-.023 6.096-.023 9.278zm-3.068-6.364c-1.605.219-3.092.292-4.508.656-.495.122-1.038.996-1.11 1.579-.046.51.45 1.336.921 1.554 1.204.583 2.478.365 3.564-.413 1.038-.728 1.274-1.846 1.133-3.376zM32.404 22.563c-.236.073-.26.097-.307.097-3.115.146-3.115.146-4.815-2.55-.566-.899-1.156-1.797-1.817-2.866-.897 1.409-1.77 2.647-2.502 3.983-.59 1.093-1.321 1.7-2.596 1.482-.519-.098-1.085-.025-1.864-.025 1.156-1.894 2.1-3.691 3.304-5.319 1.18-1.603 1.322-2.89 0-4.517-1.156-1.409-1.982-3.085-3.115-4.882 1.227 0 2.265-.048 3.28.049.284.024.567.486.78.801.896 1.36 1.746 2.745 2.69 4.275.92-1.457 1.746-2.672 2.454-3.983.472-.899 1.062-1.288 2.053-1.166.637.073 1.322.024 2.219.024-1.393 2.21-2.596 4.275-3.918 6.242-.472.729-.448 1.239 0 1.919 1.416 2.064 2.738 4.201 4.154 6.436zM95.418 13.31c-1.015-2.55-2.573-3.498-4.791-2.964-1.983.486-3.304 2.696-3.092 5.246.283 3.473 2.502 5.392 5.357 4.493.732-.218 1.652-.801 1.888-1.457.543-1.433 1.487-1.263 2.526-1.141.306.024.59.146.897.218-.685 3.546-3.588 5.562-7.411 5.198-3.776-.364-6.302-3.376-6.325-7.553-.024-4.154 2.383-7.262 5.924-7.627 4.295-.437 7.033 1.36 7.835 5.392-.968.073-1.912.146-2.808.194zM64.595 2.647c-3.068.316-3.965 1.506-3.564 4.518.047.291.496.68.803.728.85.097 1.699.025 2.643.025v2.623H61.03v12.046h-3.02V10.59c-.544-.024-.945-.048-1.37-.048-1.227-.025-1.887-1.069-1.274-2.21.142-.268.708-.365 1.11-.39 1.533-.072 1.486-.048 1.557-1.602.047-1.044.118-2.113.448-3.085C59.19 1.117 61.55-.29 63.745.05c.307.048.732.51.803.85.141.534.047 1.117.047 1.748zM2.407 10.54H0V8.016c.283-.025.52-.073.732-.073 1.911-.024 1.817.316 1.817-1.894V2.842c.779 0 1.463.024 2.148 0 .66-.049.92.242.873.923-.047 1.02.023 2.015-.047 3.035-.048.923.33 1.215 1.18 1.166.802-.048 1.628 0 2.501 0v2.623c-.897 0-1.817.049-2.737 0-.732-.048-.968.243-.944.972.023 1.87 0 3.716 0 5.586 0 2.283.731 3.011 2.973 3.011h.685v2.405c-3.352 1.481-6.609-.656-6.632-4.445-.024-2.38 0-4.76-.024-7.164 0-.073-.047-.146-.118-.413zM67.569 8.015h2.76c.048.51.095 1.02.166 1.7 1.086-1.214 2.242-2.113 4.012-1.895 0 .73.071 1.458-.023 2.138-.048.316-.425.728-.708.801-2.195.534-3.28 1.846-3.28 4.178-.024 2.525 0 5.076 0 7.674h-2.904a2974.36 2974.36 0 01-.023-14.596zM12.556 22.611V7.941c.826 0 1.605-.096 2.336.05.26.048.567.655.567 1.02.047 3.643.023 7.261.023 10.905v2.695h-2.926zM77.67 8.015h2.832V22.61H77.67V8.015zM38.139 20.911c.023 1.117-.803 1.992-1.888 2.016-1.062.024-1.912-.85-1.936-1.991 0-1.118.85-2.016 1.889-2.04 1.062 0 1.911.898 1.935 2.015zM14.019 4.493c-1.11 0-1.817-.753-1.817-1.894 0-1.142.731-1.919 1.817-1.919 1.085-.024 1.935.874 1.912 1.992-.024 1.093-.803 1.845-1.912 1.821zM79.133 4.493c-1.11 0-1.84-.728-1.864-1.87C77.245 1.53 78.047.68 79.085.68a1.927 1.927 0 011.959 1.967c-.024 1.045-.85 1.846-1.912 1.846z" fill="#FC6435"/>
</svg>
