<!DOCTYPE svg PUBLIC "-//W3C//DTD SVG 20010904//EN" "http://www.w3.org/TR/2001/REC-SVG-20010904/DTD/svg10.dtd">
<svg version="1.0" xmlns="http://www.w3.org/2000/svg" width="627px" height="189px" viewBox="0 0 6270 1890" preserveAspectRatio="xMidYMid meet">
<g id="layer101" fill="#ff2300" stroke="none">
<path d="M280 1254 c-6 -14 -10 -81 -10 -148 0 -140 15 -202 81 -324 l39 -73 -30 -17 c-34 -19 -38 -37 -12 -47 75 -29 278 -95 294 -95 16 0 19 5 15 23 -3 12 -13 60 -22 107 -23 117 -21 113 -47 104 -48 -16 -61 -9 -109 50 -90 111 -149 263 -149 385 0 55 -2 61 -20 61 -13 0 -24 -10 -30 -26z"/>
<path d="M670 1265 c-9 -11 -11 -48 -8 -148 5 -107 11 -148 33 -217 36 -113 94 -224 173 -328 l65 -86 -44 -37 c-24 -21 -41 -40 -37 -44 18 -18 460 -101 478 -90 16 10 12 28 -20 96 -16 35 -39 100 -50 143 -11 44 -22 82 -25 85 -3 2 -32 -5 -65 -17 l-59 -21 -79 77 c-169 166 -278 361 -300 540 -6 47 -11 58 -28 60 -11 2 -27 -4 -34 -13z"/>
<path d="M1115 1260 c-17 -19 -18 -26 -6 -102 26 -166 98 -342 203 -495 66 -96 208 -246 299 -315 38 -29 69 -57 69 -63 0 -6 -18 -32 -40 -59 -68 -82 -82 -79 278 -74 312 3 362 9 362 38 0 5 -29 49 -65 97 -36 49 -88 134 -116 190 -28 57 -54 103 -58 103 -4 0 -38 -20 -75 -45 l-68 -44 -48 24 c-92 47 -256 164 -343 245 -141 132 -251 292 -311 452 -26 70 -49 83 -81 48z"/>
</g>
<g id="layer102" fill="#1d66d1" stroke="none">
<path d="M5572 1783 c-6 -27 -14 -58 -18 -70 -5 -18 2 -25 50 -48 60 -28 136 -105 136 -138 0 -11 -25 -132 -55 -269 -30 -137 -55 -253 -55 -259 0 -5 38 -9 85 -9 79 0 86 2 94 23 5 12 19 97 32 190 12 92 23 166 24 165 2 -2 30 -70 63 -153 33 -82 68 -167 76 -187 l16 -38 83 0 c46 0 86 3 90 6 9 9 -242 504 -301 595 -64 98 -145 179 -213 212 -78 40 -93 37 -107 -20z"/>
<path d="M2317 1579 c-52 -8 -87 -36 -115 -90 -20 -38 -23 -55 -20 -129 7 -149 81 -271 202 -330 78 -38 163 -54 251 -46 78 7 145 23 145 34 0 4 -16 84 -35 177 -19 94 -38 216 -42 273 l-6 102 -79 0 -78 0 0 -47 -1 -48 -27 31 c-53 62 -119 86 -195 73z m173 -169 c34 -37 54 -86 79 -202 l18 -86 -22 -6 c-60 -15 -133 33 -174 116 -35 70 -42 148 -15 186 24 34 78 30 114 -8z"/>
<path d="M4601 1579 c-18 -4 -48 -21 -65 -38 -45 -46 -47 -126 -6 -346 17 -93 34 -178 36 -187 5 -15 18 -18 84 -18 43 0 81 4 84 8 3 5 -8 79 -24 166 -32 169 -37 245 -18 264 25 25 69 14 107 -26 45 -47 55 -77 90 -262 l27 -145 79 -3 c43 -2 82 1 86 5 4 4 -12 112 -36 238 -24 127 -47 254 -51 283 l-7 52 -78 0 -79 0 7 -42 6 -43 -38 34 c-61 53 -135 76 -204 60z"/>
<path d="M5208 1580 c-94 -16 -148 -73 -148 -157 0 -30 97 -545 125 -660 5 -22 10 -23 90 -23 47 0 85 4 85 8 0 5 -13 73 -30 150 -16 78 -30 144 -30 147 0 2 22 -9 49 -26 133 -83 274 -21 297 130 15 100 -39 254 -116 331 -80 80 -206 119 -322 100z m155 -149 c99 -65 138 -267 58 -301 -82 -33 -163 70 -178 225 -4 49 -2 64 11 78 23 22 74 22 109 -2z"/>
<path d="M1692 1561 c-29 -10 -58 -23 -63 -28 -7 -7 -1 -33 17 -77 20 -51 31 -66 43 -62 9 2 34 12 56 20 22 8 69 15 105 16 107 0 155 -45 125 -118 -9 -20 -36 -43 -92 -75 -81 -47 -136 -99 -155 -146 -5 -14 -10 -50 -9 -79 1 -104 77 -196 189 -228 89 -26 258 -16 298 17 9 7 5 27 -14 77 -14 37 -26 68 -27 70 -1 1 -18 -5 -38 -13 -21 -9 -67 -15 -107 -15 -62 0 -74 3 -95 25 -31 30 -32 69 -2 99 12 12 55 41 94 64 117 68 159 135 150 234 -9 106 -82 191 -190 223 -72 21 -218 19 -285 -4z"/>
<path d="M3115 1568 c-49 -17 -94 -56 -117 -101 -32 -59 -31 -188 1 -269 45 -115 154 -200 271 -214 147 -17 251 70 234 195 -14 104 -100 158 -271 168 -98 6 -105 11 -82 55 25 46 112 59 211 32 32 -9 60 -15 62 -13 3 2 6 29 7 59 l4 55 -40 20 c-47 23 -230 32 -280 13z m184 -361 c42 -15 56 -46 34 -77 -14 -19 -22 -22 -62 -17 -36 4 -52 13 -78 41 -48 52 -44 66 20 65 28 0 67 -5 86 -12z"/>
<path d="M3493 1563 c-49 -17 -51 -26 -27 -97 14 -41 19 -47 38 -41 101 32 122 36 158 25 74 -21 56 -71 -48 -130 -77 -43 -97 -77 -92 -153 5 -79 32 -118 108 -155 47 -23 68 -27 140 -27 48 0 99 6 117 13 l31 14 -20 60 c-18 53 -23 59 -42 53 -11 -3 -46 -9 -77 -12 -44 -4 -59 -2 -73 12 -31 31 -16 56 64 105 91 55 125 108 114 179 -12 75 -72 138 -153 161 -53 14 -189 11 -238 -7z"/>
<path d="M2726 1553 c6 -27 154 -801 154 -807 0 -3 38 -6 85 -6 67 0 85 3 85 14 0 8 -34 191 -75 407 -41 215 -75 396 -75 400 0 5 -40 9 -89 9 -80 0 -89 -2 -85 -17z"/>
<path d="M3870 1568 c1 -16 149 -771 153 -774 11 -11 190 -26 252 -20 126 10 200 48 235 121 49 100 1 226 -107 281 -21 10 -40 20 -42 22 -3 1 5 12 17 25 31 34 40 65 57 208 8 72 15 133 15 135 0 3 -39 3 -87 2 l-88 -3 -8 -65 c-19 -168 -25 -194 -52 -217 -19 -16 -39 -23 -70 -23 l-44 0 -10 53 c-6 28 -19 97 -29 152 l-18 100 -87 3 c-48 1 -87 1 -87 0z m379 -448 c72 -20 118 -99 92 -156 -14 -31 -67 -54 -125 -54 -51 0 -45 -10 -71 118 -8 40 -15 80 -15 88 0 17 66 19 119 4z"/>
<path d="M280 1254 c-6 -14 -10 -81 -10 -148 0 -140 15 -202 81 -324 l39 -73 -30 -17 c-16 -9 -30 -22 -30 -28 0 -14 28 -26 41 -18 5 3 9 -1 9 -8 0 -8 5 -6 11 5 5 9 7 22 4 27 -3 6 -2 10 3 10 5 0 10 11 10 24 0 13 6 37 14 53 8 16 14 37 12 46 -1 11 3 14 14 9 15 -5 15 -3 4 11 -12 14 -11 16 10 12 19 -4 21 -2 8 8 -8 7 -25 30 -38 52 -67 116 -102 226 -102 324 0 55 -2 61 -20 61 -13 0 -24 -10 -30 -26z"/>
<path d="M1465 790 c21 -22 41 -40 44 -40 3 0 -13 18 -34 40 -21 22 -41 40 -44 40 -3 0 13 -18 34 -40z"/>
<path d="M1540 695 c0 -21 5 -25 32 -25 l31 0 -23 25 c-13 14 -27 25 -32 25 -4 0 -8 -11 -8 -25z"/>
<path d="M2108 153 c12 -2 30 -2 40 0 9 3 -1 5 -23 4 -22 0 -30 -2 -17 -4z"/>
</g>
<g id="layer103" fill="#ff6500" stroke="none">
<path d="M281 1243 c-6 -21 -11 -84 -11 -139 0 -119 20 -197 81 -314 21 -42 39 -79 39 -83 0 -3 -14 -14 -32 -23 -29 -15 -30 -18 -14 -29 23 -17 51 -12 50 9 -1 9 2 16 6 16 4 0 8 11 8 24 0 13 6 37 14 53 8 16 14 37 12 46 -1 11 3 14 14 9 15 -5 16 -4 2 13 -9 11 -10 16 -2 11 19 -11 16 -3 -37 96 -58 109 -78 172 -87 274 -8 83 -26 99 -43 37z"/>
</g>


</svg>