<svg xmlns="http://www.w3.org/2000/svg" viewBox="0 0 347.46 83.43">
	<g data-name="Layer 2">
		<g data-name="Layer 1">
			<path d="M129.74 38.4h-23.11A11.92 11.92 0 0 1 126 31.23a11.23 11.23 0 0 1 3.74 7.17m8.92 6.32c.1-1.22.16-2.16.16-2.82a22.4 22.4 0 0 0-2.64-11 18.59 18.59 0 0 0-7.32-7.39 21.27 21.27 0 0 0-10.63-2.63 21.9 21.9 0 0 0-10.83 2.67A19.1 19.1 0 0 0 99.89 31a21.26 21.26 0 0 0-2.71 10.71A21 21 0 0 0 100 52.46a19.28 19.28 0 0 0 7.89 7.44 27.49 27.49 0 0 0 21.28 1 17.17 17.17 0 0 0 6.94-5L133 52.41h-.05a3.36 3.36 0 0 0-4.3-.36 15.29 15.29 0 0 1-8.74 2.49 14.32 14.32 0 0 1-8.8-2.64 11 11 0 0 1-4.39-7.13ZM168 65.31l19.06-44h-6.19a4.62 4.62 0 0 0-4.18 2.69L165 51.44l-11.65-27.32a4.6 4.6 0 0 0-4.15-2.81h-6.95L160 62.19l-.69 1.6a11.64 11.64 0 0 1-3 4.35 6.54 6.54 0 0 1-4.16 1.29 9.84 9.84 0 0 1-3.77-.76 5.79 5.79 0 0 1-.5-.23 3.79 3.79 0 0 0-1.26-.21 3.84 3.84 0 0 0-3.45 2.13.22.22 0 0 1-.07.06l-1.75 3.21a13.29 13.29 0 0 0 4.88 2.74 19 19 0 0 0 6 1 15.53 15.53 0 0 0 9.22-2.7q3.82-2.72 6.49-9.35m55.17-23.6A12.74 12.74 0 1 1 210.38 29a12.74 12.74 0 0 1 12.74 12.73m8.12 0a20.86 20.86 0 1 0-20.86 20.86 20.85 20.85 0 0 0 20.86-20.86M288.2 62l15-40.73h-5.17a4.6 4.6 0 0 0-4.38 3l-10 27.23-11-30.2h-8l-11.14 30.06-9.7-27.11a4.61 4.61 0 0 0-4.29-2.94h-5.75L248.7 62h9.15l10.68-28 10.52 28Zm51.13-20.33A12.74 12.74 0 1 1 326.6 29a12.73 12.73 0 0 1 12.73 12.73m8.13 0a20.86 20.86 0 1 0-20.86 20.84 20.85 20.85 0 0 0 20.86-20.86" />
			<path d="M83.43 41.71a41.72 41.72 0 1 0-41.72 41.72 41.72 41.72 0 0 0 41.72-41.72" style="fill:#fd6c00" />
			<path d="M54.15 26.51A9.42 9.42 0 0 1 52.32 29a11.36 11.36 0 0 1-1.19 1c-.21.14-.42.29-.65.42a2.89 2.89 0 0 1-.35.19l-.09.05h-.07l-.11.05a2.25 2.25 0 0 0-1.21 1.5 1.82 1.82 0 0 0-.06.46 1.64 1.64 0 0 0 0 .22.43.43 0 0 0 0 .11v.13a3.46 3.46 0 0 1-.08 1.94 4 4 0 0 1-2.51 2.6 2.34 2.34 0 0 0-1.18.89 1.71 1.71 0 0 0-.33 1.26v.68a3.62 3.62 0 0 1-.65 2.12 4.3 4.3 0 0 1-2.2 1.68l-.2.06-.18.08-.33.18a2.39 2.39 0 0 0-.54.51 1.7 1.7 0 0 0-.39 1.25v.09a1.25 1.25 0 0 1 0 .19v.4a3.76 3.76 0 0 1-.65 2.16 4.2 4.2 0 0 1-1 1.06 3.51 3.51 0 0 1-.61.39l-.33.15-.16.06h-.14a2.07 2.07 0 0 0-1.1.83 1.68 1.68 0 0 0-.18 1.29l.05.26v.37a3.57 3.57 0 0 1 0 .73 3.82 3.82 0 0 1-.41 1.37 4 4 0 0 1-2.06 1.9.83.83 0 0 1-.21.06.94.94 0 0 0-.22.12 1.9 1.9 0 0 0-.4.35 2.08 2.08 0 0 0-.44 1 2.91 2.91 0 0 0 0 .59v.32a4 4 0 0 1 .09.5 4.33 4.33 0 0 1-.22 2 3.66 3.66 0 0 1-1.23 1.67l-.23.14-.23.12-.17.08-.11.06a1.55 1.55 0 0 0-.42.39 2.4 2.4 0 0 0-.41 1.22 3.29 3.29 0 0 0 .18 1.38v.06a.56.56 0 0 1-.35.69.53.53 0 0 1-.43 0l-.35-.21-.13-.17-.13-.16a2.9 2.9 0 0 1-.19-.29 5.88 5.88 0 0 1-.35-.6 9.39 9.39 0 0 1-.58-1.29 6.08 6.08 0 0 1-.31-1.47 3.54 3.54 0 0 1 .06-.84 2 2 0 0 1 .44-.92l.06-.06v-.06a1.16 1.16 0 0 0 .06-.15 2.26 2.26 0 0 0 .09-.41 4.33 4.33 0 0 0 0-1 6.18 6.18 0 0 0-.2-1c-.05-.16-.11-.31-.17-.46s-.07-.15-.1-.23l-.05-.1-.07-.13a4.93 4.93 0 0 1-.52-2.7 3.63 3.63 0 0 1 .51-1.49 3.33 3.33 0 0 1 .55-.64 2.88 2.88 0 0 1 .34-.27 1.18 1.18 0 0 0 .19-.11l.14-.07h.06a2 2 0 0 0 .74-1 2.69 2.69 0 0 0 .14-.73V50.98a3.41 3.41 0 0 1 .06-1.49 3.78 3.78 0 0 1 .64-1.34 4.26 4.26 0 0 1 2.26-1.54H32.04l.19-.08.37-.19a3.22 3.22 0 0 0 .63-.53 2.09 2.09 0 0 0 .41-.64 1.11 1.11 0 0 0 .07-.29.62.62 0 0 0 0-.13v-.36a3.34 3.34 0 0 1 .52-1.6 4.48 4.48 0 0 1 1-1.11 5.62 5.62 0 0 1 2.49-1.13h.08a3.73 3.73 0 0 0 1.44-.74 2.21 2.21 0 0 0 .5-.59 1 1 0 0 0 .12-.27.5.5 0 0 0 0-.12.11.11 0 0 0 0-.05v-.19a3.31 3.31 0 0 1 .49-1.59 5.12 5.12 0 0 1 1-1.08 6 6 0 0 1 2.43-1.17 3.32 3.32 0 0 0 1.79-1 1.33 1.33 0 0 0 .32-.73.22.22 0 0 0 0-.08v-.07a2.18 2.18 0 0 1 0-.51 2.94 2.94 0 0 1 .22-1 4.38 4.38 0 0 1 1-1.48 4.83 4.83 0 0 1 1.38-1l.39-.17.19-.07h.05a5.2 5.2 0 0 0 .52-.27 6.83 6.83 0 0 0 1-.71 7.72 7.72 0 0 0 1.63-1.88 8.08 8.08 0 0 0 1-2.35 13.16 13.16 0 0 0 0-5.27.43.43 0 0 1 .26-.55.41.41 0 0 1 .53.23v.06a13.76 13.76 0 0 1 .8 2.79 10 10 0 0 1 .1 3c0 .25-.07.51-.12.76s-.11.5-.19.75a8.75 8.75 0 0 1-.56 1.44m6.29-3.68a29.19 29.19 0 0 0-3.86-7 18.43 18.43 0 0 0-1.71-2 3 3 0 0 0-1.69 2.86 6.39 6.39 0 0 0-2.85-4.07S33 10.72 24.1 29.6c-7.37 15.66-.36 39.55 3.16 41.11S53 61.4 59.92 45.55c3.83-8.76 3.06-16.83.52-22.72" style="fill:#fff" />
		</g>
	</g>
</svg>
