<svg id="Layer_1" data-name="Layer 1" xmlns="http://www.w3.org/2000/svg" viewBox="0 0 743.06 190.37"><defs><style>.cls-1,.cls-3{fill:#292e1e}.cls-2{fill:#c4702e}.cls-3{opacity:.04;isolation:isolate}</style></defs><path class="cls-1" d="M376.22 440.77c23.12 0 34.06 13.56 34.06 32.5a63.75 63.75 0 0 1-2.82 16h-65.12a26.11 26.11 0 0 0-.53 5.21 22.94 22.94 0 0 0 7.26 17.62 23.35 23.35 0 0 0 18.16 6.18 52.14 52.14 0 0 0 28.4-10.28l4.94 13.38a61.53 61.53 0 0 1-34.06 11.47c-26.12 0-42.18-15.64-42.18-37.54a52.57 52.57 0 0 1 14.48-38 53.47 53.47 0 0 1 37.4-16.57zm16.56 35.81a28.74 28.74 0 0 0 .35-4.68 16 16 0 0 0-4.45-12.9 16.26 16.26 0 0 0-12.82-4.85 33.81 33.81 0 0 0-18.86 6.49 33.36 33.36 0 0 0-11.84 15.95zM422.51 554.6a23.86 23.86 0 0 0 11.65-4 23.39 23.39 0 0 0 8-9.19l6.84-10.77-21.35-89.88h18.59l12.51 61.6c.92 4.68 1.5 10.81 1.5 10.81h.19s2.75-5.92 5.34-10.45l35-62h20.06L455.5 548.66a38.07 38.07 0 0 1-13.22 14.81 38.84 38.84 0 0 1-19 6.26 33.94 33.94 0 0 1-19.15-5.92l8.26-12.43a16.8 16.8 0 0 0 10.12 3.22zM576.44 440.77c25.06 0 42.64 15.64 42.64 38.41A55 55 0 0 1 602.3 517a56.69 56.69 0 0 1-38.66 15.9c-25.23 0-42.82-15.82-42.82-38.74a54.78 54.78 0 0 1 16.89-37.72 56.45 56.45 0 0 1 38.73-15.67zm-12.65 77.52a39.68 39.68 0 0 0 26.56-11.74 38.51 38.51 0 0 0 11.13-26.49 23.39 23.39 0 0 0-1.64-9.64 23.67 23.67 0 0 0-5.45-8.17 24.11 24.11 0 0 0-8.34-5.31 24.42 24.42 0 0 0-9.8-1.55 39.42 39.42 0 0 0-26.67 11.56 38.25 38.25 0 0 0-11.17 26.5 23.47 23.47 0 0 0 1.62 9.72 23.76 23.76 0 0 0 5.48 8.24 24.21 24.21 0 0 0 8.4 5.35 24.5 24.5 0 0 0 9.88 1.52zM637.5 440.77h17.65l6.56 65a76.08 76.08 0 0 1 .36 9.83h.36s2.19-5.29 4.37-9.83l32.39-64.81h16.38l7.1 64.81c.36 3.82.55 9.83.55 9.83h.36a101.93 101.93 0 0 1 4.19-9.83l32-65h18.93l-47.51 92.12h-19.44l-7.65-59.53c-.54-4.73-.54-9.83-.54-9.83h-.36s-2.18 5.1-4.55 9.83l-30.38 59.53h-19.12zM840.5 440.77c25.06 0 42.64 15.64 42.64 38.41A55 55 0 0 1 866.36 517a56.69 56.69 0 0 1-38.65 15.9c-25.23 0-42.82-15.82-42.82-38.74a54.78 54.78 0 0 1 16.89-37.72 56.43 56.43 0 0 1 38.72-15.67zm-12.62 77.52a39.67 39.67 0 0 0 26.56-11.74 38.52 38.52 0 0 0 11.13-26.49 23.35 23.35 0 0 0-1.64-9.64 23.67 23.67 0 0 0-5.45-8.17 24 24 0 0 0-8.33-5.31 24.42 24.42 0 0 0-9.8-1.55 39.42 39.42 0 0 0-26.68 11.55 38.23 38.23 0 0 0-11.17 26.51 23.49 23.49 0 0 0 1.62 9.72 23.86 23.86 0 0 0 5.48 8.24 24.24 24.24 0 0 0 8.4 5.35 24.53 24.53 0 0 0 9.88 1.52z" transform="translate(-140.08 -391.64)"/><path class="cls-2" d="M229.85 401.19s5.51-24 26.2 4.14c0 0 33.28 34.18 23.47 77.14a113.77 113.77 0 0 1-9.89 26.65 121.91 121.91 0 0 1-30.21 37.16l-26.88 23s-28.54 17.57-22.48-4.65c0 0 .3-9.21 5.06-11a8.66 8.66 0 0 0 2.88-2.25 8.07 8.07 0 0 0 1.62-3.18 7.79 7.79 0 0 0 .07-3.52 8 8 0 0 0-1.5-3.23s-2.86-5.25 5.25-9.89a7.58 7.58 0 0 0 2.5-2 7.07 7.07 0 0 0 1.39-2.8 6.85 6.85 0 0 0 0-3.09 7.05 7.05 0 0 0-1.34-2.82 9.42 9.42 0 0 1 1.12-6.35 10.3 10.3 0 0 1 5-4.36s6.18-.85 2.59-10.7c0 0-.77-6.24 4.38-7.42 0 0 7.42-1 .83-9 0 0-3.93-5.57 4-9.72 0 0 5.12-1.18-.59-10 0 0-3.38-3.76 4-8.08 0 0 4.06-1.5-.23-9.37 0 0-3.76-7.71 2.41-10.21 0 0 4.61-3 1.18-10 .02-.12-4.33-17.86-.83-24.45z" transform="translate(-140.08 -391.64)"/><path class="cls-2" d="M229.85 401.19s5.51-24 26.2 4.14c0 0 33.28 34.18 23.47 77.14a113.77 113.77 0 0 1-9.89 26.65 121.91 121.91 0 0 1-30.21 37.16l-26.88 23s-28.54 17.57-22.48-4.65c0 0 .3-9.21 5.06-11a8.66 8.66 0 0 0 2.88-2.25 8.07 8.07 0 0 0 1.62-3.18 7.79 7.79 0 0 0 .07-3.52 8 8 0 0 0-1.5-3.23s-2.86-5.25 5.25-9.89a7.58 7.58 0 0 0 2.5-2 7.07 7.07 0 0 0 1.39-2.8 6.85 6.85 0 0 0 0-3.09 7.05 7.05 0 0 0-1.34-2.82 9.42 9.42 0 0 1 1.12-6.35 10.3 10.3 0 0 1 5-4.36s6.18-.85 2.59-10.7c0 0-.77-6.24 4.38-7.42 0 0 7.42-1 .83-9 0 0-3.93-5.57 4-9.72 0 0 5.12-1.18-.59-10 0 0-3.38-3.76 4-8.08 0 0 4.06-1.5-.23-9.37 0 0-3.76-7.71 2.41-10.21 0 0 4.61-3 1.18-10 .02-.12-4.33-17.86-.83-24.45z" transform="translate(-140.08 -391.64)"/><path class="cls-2" d="M216.92 407.72s5.41-12.49-5.88-9.48-33 19.68-33 19.68-33.83 17.24-38 69.41c0 0 .66 53.1 16.91 75.63l14.15 18.61s6.36 3.08 8.19-7.22l4.86-19.2a8.08 8.08 0 0 1 2-3 8.4 8.4 0 0 1 3.14-1.91s4.47-1.34-.39-8.85c0 0-1.39-4.25 4.59-6.74a5.67 5.67 0 0 0 2.23-1.24 9.59 9.59 0 0 0 .3-11.07 44.55 44.55 0 0 1-.16-9.54 47.34 47.34 0 0 1 8.19-22.31s23.09-37.49 13.55-56.32a36.57 36.57 0 0 1-.68-26.45z" transform="translate(-140.08 -391.64)"/><path class="cls-3" d="M170.29 491.84a1.33 1.33 0 0 0 .4-.49 1 1 0 0 0 .08-.56 1.29 1.29 0 0 0-.46-.54 2 2 0 0 0-.77-.32c-.85-.17-1.12.28-2.69.53-1.1.17-1.63.06-3.42.36-.51.09-.9.17-1 .35s.29.33 1.22.87c1.14.64 1.24.75 1.22.87 0 .4-1.48.64-1.94.7-1.18.19-1.87.09-3.42.37-.62.11-.9.19-1 .35-.26.39.41 1.08 1 1.4 2.8 1.43 9.38-2.56 10.78-3.89zM164.64 485.55c0 1.71-6 2.21-13.66 4.17a5.32 5.32 0 0 1-2.64 0c-.31-.08-1.88-.5-2.11-1.52a1.9 1.9 0 0 1 .09-.83 1.94 1.94 0 0 1 .43-.71c1.88-2.17 6.39 1.29 10.79-.83 1.84-.89 2.45-2.17 4.2-2.08 1.31.1 2.89.93 2.9 1.8z" transform="translate(-140.08 -391.64)"/></svg>