<svg xmlns="http://www.w3.org/2000/svg" xmlns:xlink="http://www.w3.org/1999/xlink" viewBox="0 0 1000 1000"><defs><linearGradient id="a" x1="196.82" y1="419.78" x2="244.42" y2="482.53" gradientUnits="userSpaceOnUse"><stop offset="0.76" stop-color="#68ac48"/><stop offset="0.78" stop-color="#6eaf4f"/><stop offset="0.81" stop-color="#7fb863"/><stop offset="0.84" stop-color="#9cc784"/><stop offset="0.88" stop-color="#c3dbb1"/><stop offset="0.89" stop-color="#cfe1bf"/><stop offset="0.91" stop-color="#a4c6a2"/><stop offset="0.93" stop-color="#4e9066"/><stop offset="0.95" stop-color="#176d41"/><stop offset="0.96" stop-color="#026032"/></linearGradient><linearGradient id="b" x1="300.96" y1="403.56" x2="368.49" y2="492.58" xlink:href="#a"/><linearGradient id="c" x1="265.51" y1="640.54" x2="303.45" y2="526.72" gradientUnits="userSpaceOnUse"><stop offset="0.22" stop-color="#68ac48"/><stop offset="0.33" stop-color="#63a847"/><stop offset="0.46" stop-color="#559e44"/><stop offset="0.59" stop-color="#3e8c3f"/><stop offset="0.73" stop-color="#1d7438"/><stop offset="0.83" stop-color="#026032"/></linearGradient><linearGradient id="d" x1="177.95" y1="564.81" x2="222.16" y2="623.09" xlink:href="#a"/><linearGradient id="e" x1="12.41" y1="494.48" x2="358.73" y2="494.48" xlink:href="#a"/></defs><title>Nigeria-Logo</title><path d="M43.44,447.74c13.62,9.39,25.79,16.39,43.44,22.21l14.55-85.36L51.67,385ZM34.28,500.5,15.67,616.66H63.9L77.77,529.1C60.64,521.05,50.2,518.12,34.28,500.5Z" style="fill:#68ac48"/><polygon points="189.72 386.38 175.26 478.33 224.41 471.69 234.64 403.87 234.65 403.81 235.14 400.56 235.17 400.56 237.47 386.38 189.72 386.38" style="fill:url(#a)"/><path d="M283.37,386.38H251.09l-2.54,14.3L281,401c3-.2,31,3.76,27.91,35.73-.53,5.5-7.05,28.86-10.11,32.36,15.7,2.94,26.93,5,37.27,11.19,12.39-9.13,22.12-24.22,24.47-40.24C368,390.47,325.29,386.38,283.37,386.38Z" style="fill:url(#b)"/><path d="M302,526c2.81,15.72,4.45,26.41-3.41,45.83-7.56,18.65-31.73,31.42-43.41,30.73l-39.46-.1-2.1,11.67h44.75C318.11,618,340,596.33,354.88,560,349.05,548.69,344.63,532.48,302,526Z" style="fill:url(#c)"/><polygon points="165.59 538.17 154.07 614.12 202.13 614.12 204.53 598.76 204.75 597.34 214.54 532.25 165.59 538.17" style="fill:url(#d)"/><path d="M12.41,442.4S72,489.55,137.68,489.55s74.9-12.94,134.3-12.94c60.94,0,91.58,17.87,86.13,70,0,0-10-32.68-73.36-32.68S209,529.72,146.88,529.72,32.15,506.06,12.41,442.4Z" style="fill:url(#e)"/><path d="M455.16,381h17.17l-5.45,38.42H512L517.43,381H534.6L521,477.43H503.81l6-42.52H464.7l-6,42.52H441.54Z" style="fill:#68ac48"/><path d="M557.91,450.45c-.27,9.67,6.27,15.53,15.4,15.53,8.17,0,14-3.81,18.8-8.85L602.6,466c-9,9.4-19.21,13.08-29.57,13.08-19.76,0-33.52-13.76-30.66-34.34s20.58-34.33,40.34-34.33c18.26,0,28.88,12.81,25.61,35.56l-.54,4.5Zm35.15-12.27c1.23-9.53-4.08-15.53-14.3-15.53-9.68,0-16.63,6.13-19.22,15.53Z" style="fill:#68ac48"/><path d="M628.36,412h16.35l-1.36,10.36h.27a24.56,24.56,0,0,1,21-12,19.47,19.47,0,0,1,5.72.95l-2.18,15.81a30.69,30.69,0,0,0-7.76-1.23c-15.4,0-19.35,12.95-19.9,16.49l-4.9,35H619.23Z" style="fill:#68ac48"/><path d="M681.64,412H698l-9.13,65.41H672.51Zm12.53-32c6,0,10.09,4.23,9.27,9.81s-6,9.81-12,9.81-9.68-4.63-9-9.81A12,12,0,0,1,694.17,380Z" style="fill:#68ac48"/><path d="M707.25,425.92l1.91-13.9h13.49l2.73-18.94h16.35L739,412h18l-1.91,13.9h-18l-4,28.62c-.95,6.54.41,10.62,7.63,10.62,2.87,0,6.82-.54,9.13-2L748,476.88c-3.68,1.64-9.54,2.18-13.36,2.18-17.3,0-20.3-7.76-18.12-23.16l4.22-30Z" style="fill:#68ac48"/><path d="M802.77,468.43h-.4c-5.59,7.36-13.77,10.63-22.49,10.63-12.12,0-22.89-6.67-21-19.62,2.86-21.26,27.93-22.75,44.28-22.75h4.09l.27-1.78c1.09-8-4.49-12.26-13.21-12.26a30.12,30.12,0,0,0-18.54,6.81l-7.35-8.58c8.31-7.36,18.94-10.49,29.29-10.49,27.94,0,25.07,20.16,23.85,29.43l-5.32,37.61H801.55Zm1.91-20.3h-3.41c-9,0-24.52.68-25.88,10.08-.82,6,4.9,8.59,10.21,8.59,11.18,0,17.31-5.86,18.54-15Z" style="fill:#68ac48"/><path d="M910.29,412,902,471.57c-3.27,23.57-16.89,38.56-42.37,38.56-12.13,0-22.76-2.59-30.93-10.76L840.38,486c5.73,6,12,9.4,21.12,9.4,15.81,0,22.08-9,23.85-21.93l.68-4.77h-.27c-5.72,6.4-14.58,9.54-22.76,9.54-19.62,0-30.38-15-27.79-33.53,2.72-19.34,16.89-34.33,37.06-34.33,9.13,0,17.17,3.54,20.85,11.44h.27l1.36-9.81Zm-58.73,32.57c-1.5,10.35,5.45,18.94,16.48,18.94,12.13,0,20.72-8.31,22.22-19.21,1.63-11.31-4.77-19.22-16.63-19.22C862.19,425.1,853.19,433,851.56,444.59Z" style="fill:#68ac48"/><path d="M936.59,450.45C936.31,460.12,942.85,466,952,466c8.18,0,14-3.81,18.81-8.85L981.28,466c-9,9.4-19.21,13.08-29.57,13.08-19.76,0-33.52-13.76-30.66-34.34s20.58-34.33,40.34-34.33c18.26,0,28.88,12.81,25.61,35.56l-.54,4.5Zm35.15-12.27c1.23-9.53-4.09-15.53-14.31-15.53-9.67,0-16.62,6.13-19.21,15.53Z" style="fill:#68ac48"/><path d="M455.16,521.89h37.61c14.58,0,28.62,6.68,26,24.26-1.5,10.9-9.27,18.12-19.62,21.12l-.14.27c12,1.36,19.35,10.9,17.58,23.3-2.86,21-22.08,27.52-40.34,27.52H441.54Zm5.59,81.76h15.81c8.85,0,21.39-1.5,23.16-14.17,1.36-10.09-4.63-13.63-18.53-13.63H464.7Zm6-42.52h15.67c11.45,0,17.86-4.9,18.94-12.12,1.09-8.31-4.08-12.4-17-12.4H470.15Z" style="fill:#68ac48"/><path d="M570.44,609.37H570c-5.58,7.36-13.76,10.63-22.48,10.63-12.13,0-22.89-6.68-21-19.62,2.86-21.26,27.93-22.76,44.28-22.76h4.09l.27-1.77c1.09-8-4.49-12.26-13.22-12.26a30.05,30.05,0,0,0-18.53,6.81l-7.36-8.58c8.32-7.36,18.95-10.5,29.3-10.5,27.94,0,25.07,20.17,23.85,29.44l-5.32,37.6H569.22Zm1.91-20.3h-3.41c-9,0-24.52.68-25.88,10.08-.82,6,4.9,8.59,10.21,8.59,11.18,0,17.31-5.86,18.54-15Z" style="fill:#68ac48"/><path d="M610.64,553h15.54l-1.37,10.49h.28c3.81-6.54,10.76-12.13,21.66-12.13,17.58,0,22.08,12.4,20.3,25.76l-5.86,41.28H644.84l4.64-33.11c1.09-7.22,2.18-19.21-9.27-19.21-10.76,0-16.08,7.9-17.3,16.62l-5,35.7H601.51Z" style="fill:#68ac48"/><path d="M694.17,515.35h16.35l-9.13,64.73,29-27.12h21l-32.16,29.7,24.8,35.7H722.38L701,585h-.27l-4.63,33.38H679.73Z" style="fill:#68ac48"/></svg>