<svg id="Layer_1" data-name="Layer 1" xmlns="http://www.w3.org/2000/svg" viewBox="0 0 841.89 595.28"><defs><style>.cls-1{fill:#f17012}.cls-2{fill:#005337}</style></defs><path class="cls-1" d="M156.47 372.15q-5.52-.86-10.69-1.38t-10.16-.51a77.63 77.63 0 00-8.42.51q-4.64.53-10.13 1.38l-.9-2.75q6-2.76 7.81-5.68 2.16-3.78 2.86-13.42.41-6.87 0-30.62-.27-15.82-.64-26.75t-.81-17.29q-.28-6-2.05-9.12-1.6-2.92-7-5.67l.64-3.1q6.91 2.24 17.59 2.24a75.73 75.73 0 0018.36-2.41l.92 3.27q-6 2.92-7.46 6.36-1.15 2.58-1 9.63c0 1.5.06 3.39.1 5.68s0 4.76 0 7.74-.08 5.62 0 7.92.07 4 .1 5.5q.06 3.27.53 15.48t1.19 33.89q.28 6.72 2.33 10.15t7.76 6.2zM218.69 359.42a54 54 0 01-37.76 14.79 66.78 66.78 0 01-17.07-2.06v-2.75q6.81-3.27 5.87-38.19l-.63-16.35q-.17-9.11-1-30.1c-.19-3.79-.35-6.8-.51-9s-.29-3.7-.42-4.39q-1.68-7.74-8.56-7.91l-.05-2.93a99.09 99.09 0 0013.44-2.69q6.67-1.81 13.34-4.22l1.39.69c0 .34 0 .89-.06 1.63s-.06 1.52 0 2.33 0 1.37-.05 2.06-.07 1.09-.07 1.2v9l.64 37q9.22-13.94 22.64-13.94 11.7 0 18.39 9.12 6 7.92 6.21 20.3.35 21.45-15.74 36.41zm-17.11-54q-15-1-14.49 27.7c.06 3 .1 5.62.14 7.91s.11 4.45.2 6.45.21 4 .36 6 .3 4.11.46 6.28q1.33 7.92 7.19 7.92 9.63 0 15.57-14.63a56.22 56.22 0 004.42-22.7q-.43-24.09-13.85-24.95zM296.94 358.39Q286 372.67 269 372.67q-14.1 0-22-8.78-7.36-8.25-7.62-22.88a53.18 53.18 0 019.58-32.34q11.08-15.48 28.8-15.48 13.93 0 21.52 10.49 6.87 9.29 7.12 23.74.29 17.9-9.46 30.97zm-10.73-43.53q-4.79-17-15.09-17-15.84 0-15.3 30.62a85.27 85.27 0 003.86 23.92q5.1 16 15.25 16 15.13 0 14.63-28.72a102.72 102.72 0 00-3.35-24.82zM431.2 372.15q-4-.69-8.11-1c-2.75-.23-5.63-.35-8.61-.35q-2.58 0-7 .26t-10.39 1l-.74-3.27q6.33-1.72 8.16-5.51c.88-2.06 1.28-5.39 1.2-10l-.12-6.71v-1.72c-.13-1.15-.21-2.35-.23-3.62s-.05-2.86-.08-4.47l-.12-6.88q-.21-11.7-1.31-15.83-2.58-9.79-10.32-9.8-11 0-12.83 13.76a35 35 0 00-.43 5.07q-.12 3.36-.19 8.69c-.09 1.61-.12 3.27-.09 5s.06 3.38.09 5q.23 13.24.78 15.48 1.88 8.43 9.31 11l-.8 3.44a53.45 53.45 0 00-7.58-.94c-2.87-.18-6.14-.26-9.81-.26a80.18 80.18 0 00-16.83 1.72l-.57-3.1q7.35-2.06 8.36-13.59c.1-.91.15-2.84.16-5.76s0-7-.13-12.13q-.11-6.36-.45-11.18t-.74-8.26q-2.16-14.79-9.21-14.79-6.36 0-10.22 6-4.68 7.39-4.3 29.07.22 13.24.81 17 1.74 11.54 8.32 13.42l-.46 3.27a80.79 80.79 0 00-16.55-1.89 78.15 78.15 0 00-17.33 1.73l-.92-3.1q7.51-3.44 8.87-14.45.15-.85-.15-18.24-.19-11.69-.32-18.4c-.08-4.59-.19-7.51-.33-8.78-.2-4.93-.88-8.14-2.06-9.63q-.71-1.2-5.71-2.24l-1-.34-.05-2.92q17.67-2.24 26.37-6.71l1.76 2.23c-.2 1.61-.34 3.42-.42 5.42s-.1 4.22 0 6.62v2.93a8.18 8.18 0 00.2 1.89q9.72-15 23.31-15 11.86 0 17.47 15.14Q390 292 404.34 292q18.23 0 18.66 24.43c0 .92 0 2 .05 3.27s0 2.41-.1 3.78l-.3 12.39c-.09 1.38-.12 2.87-.1 4.47s.06 3.39.1 5.34q.24 14.1 1.67 16.85 2.13 3.8 7.68 6.2z"/><path class="cls-2" d="M585.22 372a89.11 89.11 0 00-18.75-2.07 92.19 92.19 0 00-9.64.52 87.42 87.42 0 00-10.32 1.72l-.69-2.93q8.61-4.47 8.6-12 0-6.2-5.33-23.92a51.35 51.35 0 00-16.34-2.58q-11.19 0-16.52 3.79a56.82 56.82 0 00-4.65 21.5q0 10 10 12.74l-.86 3.44a68.18 68.18 0 00-13.42-1.38 55.06 55.06 0 00-11.89 1.17l-.52-2.41q5.69-5.69 10.16-17.38 3.26-8.26 5.85-16t4.64-15l11.87-40.6c.46-1.15 1.32-4.07 2.58-8.78a14 14 0 00-1.2-3c-.58-1.09-1.32-2.38-2.24-3.87l.69-1.89q12.21-3.62 18.58-10l1.72.86q.86 4.47 2 9.81t2.84 11.52q.85 2.76 2.58 9.29t4.65 16.86q10.49 39.06 17 54.72 4.13 10.15 9.29 13.07zm-46.11-73.3q-1.89-6.36-3.44-11.1c-1-3.15-2-5.87-2.92-8.17l-15 49a44.88 44.88 0 0115.83-2.58q2.4 0 5.85.34c2.29.23 4.87.58 7.74 1zM622.38 372.13l-1.55.34c-.57-.11-1.57-.26-3-.43s-3.35-.43-5.76-.77q-6.54-1-7.06-1a57.51 57.51 0 00-15.82 1.89l-1-3.62a12.65 12.65 0 007.92-9.63q.51-2.24.52-13.25V342c0-1.49 0-3.21.17-5.16s.17-3.67.17-5.16v-3.62q0 8.78.52-11.35.51-18.93-8.44-20.13v-2.75a110.76 110.76 0 0013.77-2.16 81 81 0 0012.56-3.87l1.72 2.07c-.23 1.83-.43 5-.6 9.37s-.38 10.18-.61 17.3q-.17 2.93-.17 6.88V356q1.2 10 8.09 12.56zm-9.29-93.86a13.65 13.65 0 01-8.26 2.5 11.63 11.63 0 01-7.39-2.41 7.48 7.48 0 01-3.1-6.19 7.75 7.75 0 013.95-6.71 13.39 13.39 0 017.75-2.24 12 12 0 017.4 2.32 7.29 7.29 0 013.09 6.11 7.79 7.79 0 01-3.44 6.62zM686.81 311.65a9.58 9.58 0 01-7.31 3q-4.82 0-7.22-7.05-1.38-3.6-4.48-3.6-9.81 0-12 12.38a142.23 142.23 0 00-1.93 25.62q0 12.74.51 15.48 1.56 8.78 8.26 11.7l-1.55 2.93a74.6 74.6 0 00-16.34-2.07 71.47 71.47 0 00-16.35 2.07v-3.44q5.34-2.24 7.23-8.78 1-3.78 1-12v-28.24c0-1.26 0-3-.08-5.33s-.15-5.05-.26-8.26q-.18-4-1.81-5.68c-1.09-1.14-3.13-2.12-6.11-2.92v-3.1a105.58 105.58 0 0013.25-2.15 83.15 83.15 0 0012.38-3.87l1.89 2.24c0 .46 0 1.14-.09 2.06s-.14 2.18-.25 3.79-.17 2.75-.17 3.78v5.85q8.42-13.43 21-13.42a14.44 14.44 0 019.46 3.1 10.31 10.31 0 013.78 8.43 10.44 10.44 0 01-2.81 7.48z"/><path class="cls-1" d="M409.51 250.39c-.8.15 50.21 19.55 54.89 74.34v-40.25c-.4-.34-20.46-36.58-54.89-34.09z"/><path class="cls-2" d="M519.29 250.39c.81.15-50.2 19.55-54.89 74.34v-40.25c.41-.34 20.47-36.58 54.89-34.09zM509.43 194.52c1.9.51-36.28 7.15-45 32.9v-14c.39-.65 15.05-20.77 45-18.9z"/><path class="cls-1" d="M419.38 194.52c-1.9.51 36.28 7.15 45 32.9v-14c-.38-.65-15.06-20.77-45-18.9z"/><path class="cls-2" d="M514.66 225.51c2.12.61-40.49 8.31-50.26 38.18v-18.8c1.13-.49 19.22-20.77 50.26-19.38z"/><path class="cls-1" d="M414.14 225.51c-2.12.61 40.5 8.31 50.26 38.18v-18.8c-1.13-.49-19.21-20.77-50.26-19.38z"/></svg>