<svg id="Layer_1" data-name="Layer 1" xmlns="http://www.w3.org/2000/svg" viewBox="0 0 841.89 595.28"><defs><style>.cls-5{fill:#f17012}.cls-6{fill:#005337}</style></defs><text transform="matrix(1 0 .02 1 113.31 372.13)" font-family="Cavalier" fill="#f17012" font-size="172.05">I<tspan x="46.97" y="0" letter-spacing="-.01em">b</tspan><tspan x="123.19" y="0" letter-spacing="-.01em">o</tspan><tspan x="196.14" y="0">m</tspan></text><text transform="translate(495.24 372.13)" fill="#005337" font-size="172.05" font-family="Cavalier">Air</text><path class="cls-5" d="M409.51 250.39c-.8.15 50.21 19.55 54.89 74.34v-40.25c-.4-.34-20.46-36.58-54.89-34.09z"/><path class="cls-6" d="M519.29 250.39c.81.15-50.2 19.55-54.89 74.34v-40.25c.41-.34 20.47-36.58 54.89-34.09zM509.43 194.52c1.9.51-36.28 7.15-45 32.9v-14c.39-.65 15.05-20.77 45-18.9z"/><path class="cls-5" d="M419.38 194.52c-1.9.51 36.28 7.15 45 32.9v-14c-.38-.65-15.06-20.77-45-18.9z"/><path class="cls-6" d="M514.66 225.51c2.12.61-40.49 8.31-50.26 38.18v-18.8c1.13-.49 19.22-20.77 50.26-19.38z"/><path class="cls-5" d="M414.14 225.51c-2.12.61 40.5 8.31 50.26 38.18v-18.8c-1.13-.49-19.21-20.77-50.26-19.38z"/></svg>