<svg width="1000" height="421" fill="none" xmlns="http://www.w3.org/2000/svg"><path d="M68 205V24H0V0h163v24H95v181H68zM399 205V0h91c19 0 33 2 42 6 10 3 17 10 23 19s8 20 8 31c0 15-4 27-14 37-9 10-24 16-43 19 7 3 12 7 16 10 8 7 15 17 23 27l35 56h-34l-27-42-20-29c-5-6-9-11-14-13l-12-6-15-1h-31v91h-28zm28-114h58c12 0 22-2 29-4 7-3 12-7 16-12 4-6 5-12 5-19 0-10-3-18-10-24s-18-9-33-9h-65v68zM615 205V0h91c18 0 32 2 42 6 9 3 17 10 23 19 5 9 8 20 8 31 0 15-5 27-14 37s-24 16-44 19c8 3 13 7 17 10 8 7 15 17 22 27l36 56h-34l-27-42-20-29c-5-6-10-11-14-13l-12-6-15-1h-32v91h-27zm27-114h59c12 0 22-2 29-4 7-3 12-7 16-12 3-6 5-12 5-19 0-10-3-18-10-24s-19-9-34-9h-65v68zM808 205L887 0h29l84 205h-31l-24-62h-86l-22 62h-29zm59-84h70l-22-57-14-42-11 39-23 60z" fill="#65574C"/><path fill-rule="evenodd" clip-rule="evenodd" d="M232 2l17 1c32 2 91 5 104 7 16 3 18 21-2 22h-3c-30 2-118 5-140 0-22-4-29-15-24-22 4-7 15-10 48-8zm-9 87c19 0 111 5 127 7s16 15-5 16l-15 1c-37 3-106 8-125 4-22-4-24-15-23-18 2-3 8-11 41-10zm139 91c-16-2-104-4-123-4-34 0-42 1-45 7-2 4-6 13 16 14 29 2 125 1 151 0 20-1 17-16 1-17z" fill="#FA7623"/><path d="M418 418V279h17v79l40-41h22l-38 37 42 64h-21l-33-52-12 12v40h-17zM584 418v-15c-8 11-18 17-32 17-6 0-11-1-16-3-6-3-9-6-12-9l-5-13-1-16v-62h17v56l1 18c1 4 3 8 7 11 3 2 7 3 13 3 5 0 10-1 14-4 4-2 8-6 9-10 2-5 3-11 3-20v-54h17v101h-15zM629 418V279h17v139h-17zM713 402l3 16-13 1c-6 0-11-1-14-3-4-2-6-4-8-8-1-3-2-9-2-20v-58h-12v-13h12v-25l17-10v35h17v13h-17v59l1 10 3 3 6 1 7-1zM799 418v-15c-7 11-18 17-31 17-6 0-12-1-17-3l-12-9-5-13-1-16v-62h17v56l1 18c1 4 4 8 7 11 4 2 8 3 13 3s10-1 14-4c5-2 8-6 10-10 2-5 3-11 3-20v-54h17v101h-16zM845 418V317h15v15c4-7 8-11 11-14 3-2 7-3 11-3 6 0 11 2 17 5l-5 16c-5-2-9-4-13-4s-7 2-10 4-5 5-6 9c-2 6-3 13-3 20v53h-17zM982 385l17 3c-2 10-8 18-15 23-8 6-17 9-29 9-15 0-26-4-35-14-8-9-13-21-13-38s5-30 13-39c9-9 20-14 34-14s25 4 33 14c9 9 13 22 13 38v5h-75c0 11 4 19 9 25 6 6 13 9 21 9 6 0 12-2 16-5 5-3 8-8 11-16zm-56-27h56c-1-9-3-15-6-19-6-7-13-10-22-10-7 0-14 2-19 8-6 5-9 12-9 21z" fill="#FA7623"/></svg>