<svg width="2375" height="1679" fill="none" xmlns="http://www.w3.org/2000/svg"><path d="M646 887v126H541V595h105v212h47l67-112h110l-90 153 90 165H760l-69-126h-45z" fill="#335C88"/><path d="M1193 923c4 48-31 91-79 95H959c-48 4-91-31-95-79V786a87 87 0 0 1 95-95h137c49-4 92 31 96 79v16l1 137zm-105-129c1-12-7-23-18-24h-78c-11-1-22 7-23 19v124c-1 12 6 22 18 23h78c12 3 23-6 24-18V794h-1zM1399 776c-25 0-49 4-72 12v223h-105V695h92l6 30c19-11 38-21 58-26 16-6 34-9 51-9h26c47-3 87 32 90 79v244h-103V797c0-5-3-11-7-15s-10-6-15-6h-21zM1780 988c-33 7-67 12-102 12h-21c-46 3-87-32-90-79V791c-4-48 31-91 79-96h237v335c3 46-32 86-79 90h-11c-70 0-139-5-209-12v-77c76 6 134 8 173 8 5 0 10-2 15-6 4-4 6-10 6-15l2-30zm-72-68c24 0 49-2 72-6V776h-83c-12-1-23 6-24 18v104c0 12 9 21 20 21h15v1zM1937 702c65-8 130-11 196-12 46-3 87 32 90 78v243h-92l-7-30c-18 12-37 22-58 27-16 6-33 9-50 9h-21c-47 3-87-32-90-78v-40c-4-46 32-87 78-90h133v-24c0-5-3-10-7-15-4-4-9-6-15-6l-86 3-75 6 4-71zm110 232c25 0 48-4 72-11v-36h-87c-5 0-11 2-15 7-4 4-6 9-6 15v6a21 21 0 0 0 21 21h15v-2zM1911 1093h-39v41h39v-41zM1985 1136c-8 0-14-1-22-3l-17-9c-4-4-8-9-10-14a48 48 0 0 1 0-42c2-5 6-10 11-15l16-8c7-2 13-2 20-2l16 2 14 5v24h-5l-4-4c-4-3-8-5-13-6l-8-1c-7 0-13 2-17 7-5 6-7 12-7 20 0 6 2 14 7 19 4 4 10 6 17 6l9-1 8-3 4-3 4-3h5v24l-14 6-14 1zM2121 1090c1 13-4 24-13 34a55 55 0 0 1-71 0c-8-10-12-21-12-34-2-13 4-26 12-35 10-8 23-12 36-12 13-2 25 4 35 12 9 9 13 22 13 35zm-35 21l4-8 1-13-1-13-4-9c-1-2-4-4-7-4l-7-1-8 1-6 4-5 9c-1 4-2 8-1 14l1 13 5 8c1 2 3 3 6 4 2 2 6 2 9 2 2 0 5 0 7-2l6-5zM2224 1070v63h-29v-44-11l-2-8-4-4-9-1-9 2-7 3v63h-28v-88h29v9l14-8c4-2 10-3 15-3s11 1 15 4c4 2 8 6 11 12 5-5 10-9 16-12 5-2 10-4 16-4 8-2 16 2 21 8 6 8 9 16 8 25v58h-28v-44-11l-2-8c-1-2-2-3-5-4l-8-1-7 1-7 3z" fill="#335C88"/><path d="M498 616c-44-44-104-68-166-66a228 228 0 0 0-232 232c-4 126 96 231 222 234h10c126 3 231-97 233-223v-12c2-61-22-121-67-165z" fill="#F9A024"/><path d="M332 1021A235 235 0 0 1 93 792v-10a235 235 0 0 1 229-239h10c129-3 236 99 239 228v11c3 129-98 236-228 239h-11zm0-466c-122-3-224 94-227 216v11c-2 123 94 225 218 227h9c123 4 225-94 227-216v-11c3-122-95-224-217-226l-10-1z" fill="#335C88"/><path d="M212 703c9-8 19-11 30-11 12 0 25 2 36 7 12 5 24 11 35 19l5-4c-7-14-18-25-31-34-14-8-30-12-46-12-8 0-17 2-25 5-7 3-15 8-20 16-5 6-8 14-11 21-2 8-3 15-2 23h7c5-11 13-22 22-30zM363 681c10-7 22-11 34-15 10-3 22-1 32 5s20 15 28 25l6-2c-1-7-3-16-8-22-4-8-9-14-16-19-6-6-15-9-23-11-9-2-17-2-26 0a88 88 0 0 0-64 62l6 3 30-27M470 838c-5 12-11 22-20 32-4 4-8 9-14 13l-15 11c-21 11-46 20-71 23-24 4-50 3-75-2-11-3-24-7-35-13-12-5-22-13-33-21l-3 3a128 128 0 0 0 66 49c27 10 56 12 84 7 28-4 55-14 78-31 23-18 38-43 42-72h-4v1zM328 763l9 83 5-1-10-82h-4z" fill="#335C88"/></svg>