<svg width="276" height="39" viewBox="0 0 276 39" fill="none" xmlns="http://www.w3.org/2000/svg">
<g filter="url(#filter0_d)">
<path d="M74.908 9.552C77.5 9.552 79.504 10.332 80.92 11.892C82.36 13.452 83.08 15.564 83.08 18.228V30H75.124V19.236C75.124 18.372 74.86 17.7 74.332 17.22C73.828 16.716 73.144 16.464 72.28 16.464C71.392 16.464 70.696 16.716 70.192 17.22C69.688 17.7 69.436 18.372 69.436 19.236V30H61.48V19.236C61.48 18.372 61.216 17.7 60.688 17.22C60.184 16.716 59.5 16.464 58.636 16.464C57.748 16.464 57.052 16.716 56.548 17.22C56.044 17.7 55.792 18.372 55.792 19.236V30H47.8V9.696H55.792V12.432C56.368 11.568 57.148 10.872 58.132 10.344C59.14 9.81599 60.316 9.552 61.66 9.552C63.124 9.552 64.42 9.876 65.548 10.524C66.676 11.148 67.576 12.036 68.248 13.188C68.992 12.132 69.94 11.268 71.092 10.596C72.244 9.89999 73.516 9.552 74.908 9.552ZM90.574 8.076C89.182 8.076 88.066 7.70401 87.226 6.96001C86.386 6.21601 85.966 5.27999 85.966 4.15199C85.966 2.99999 86.386 2.052 87.226 1.308C88.066 0.539999 89.182 0.156006 90.574 0.156006C91.942 0.156006 93.046 0.539999 93.886 1.308C94.726 2.052 95.146 2.99999 95.146 4.15199C95.146 5.27999 94.726 6.21601 93.886 6.96001C93.046 7.70401 91.942 8.076 90.574 8.076ZM94.534 9.696V30H86.542V9.696H94.534ZM97.064 19.848C97.064 17.712 97.424 15.864 98.144 14.304C98.888 12.72 99.896 11.52 101.168 10.704C102.44 9.86399 103.868 9.444 105.452 9.444C106.772 9.444 107.9 9.72 108.836 10.272C109.796 10.8 110.528 11.532 111.032 12.468V3.36H119.024V30H111.032V27.228C110.528 28.164 109.796 28.908 108.836 29.46C107.9 29.988 106.772 30.252 105.452 30.252C103.868 30.252 102.44 29.844 101.168 29.028C99.896 28.188 98.888 26.988 98.144 25.428C97.424 23.844 97.064 21.984 97.064 19.848ZM111.068 19.848C111.068 18.768 110.792 17.928 110.24 17.328C109.688 16.728 108.98 16.428 108.116 16.428C107.252 16.428 106.544 16.728 105.992 17.328C105.44 17.928 105.164 18.768 105.164 19.848C105.164 20.928 105.44 21.768 105.992 22.368C106.544 22.968 107.252 23.268 108.116 23.268C108.98 23.268 109.688 22.968 110.24 22.368C110.792 21.768 111.068 20.928 111.068 19.848ZM121.533 19.848C121.533 17.712 121.893 15.864 122.613 14.304C123.357 12.72 124.365 11.52 125.637 10.704C126.909 9.86399 128.337 9.444 129.921 9.444C131.241 9.444 132.369 9.72 133.305 10.272C134.265 10.8 134.997 11.532 135.501 12.468V3.36H143.493V30H135.501V27.228C134.997 28.164 134.265 28.908 133.305 29.46C132.369 29.988 131.241 30.252 129.921 30.252C128.337 30.252 126.909 29.844 125.637 29.028C124.365 28.188 123.357 26.988 122.613 25.428C121.893 23.844 121.533 21.984 121.533 19.848ZM135.537 19.848C135.537 18.768 135.261 17.928 134.709 17.328C134.157 16.728 133.449 16.428 132.585 16.428C131.721 16.428 131.013 16.728 130.461 17.328C129.909 17.928 129.633 18.768 129.633 19.848C129.633 20.928 129.909 21.768 130.461 22.368C131.013 22.968 131.721 23.268 132.585 23.268C133.449 23.268 134.157 22.968 134.709 22.368C135.261 21.768 135.537 20.928 135.537 19.848ZM155.073 3.36V30H147.081V3.36H155.073ZM178.339 19.668C178.339 20.22 178.303 20.748 178.231 21.252H165.379C165.499 23.004 166.231 23.88 167.575 23.88C168.439 23.88 169.063 23.484 169.447 22.692H177.907C177.619 24.132 177.007 25.428 176.071 26.58C175.159 27.708 173.995 28.608 172.579 29.28C171.187 29.928 169.651 30.252 167.971 30.252C165.955 30.252 164.155 29.832 162.571 28.992C161.011 28.152 159.787 26.952 158.899 25.392C158.035 23.808 157.603 21.96 157.603 19.848C157.603 17.736 158.035 15.9 158.899 14.34C159.787 12.756 161.011 11.544 162.571 10.704C164.155 9.86399 165.955 9.444 167.971 9.444C169.987 9.444 171.775 9.86399 173.335 10.704C174.919 11.52 176.143 12.696 177.007 14.232C177.895 15.768 178.339 17.58 178.339 19.668ZM170.239 17.976C170.239 17.208 170.023 16.644 169.591 16.284C169.159 15.9 168.619 15.708 167.971 15.708C166.507 15.708 165.667 16.464 165.451 17.976H170.239ZM193.502 23.196V30H190.478C184.91 30 182.126 27.228 182.126 21.684V16.356H179.606V9.696H182.126V4.8H190.118V9.696H193.43V16.356H190.118V21.828C190.118 22.308 190.226 22.656 190.442 22.872C190.682 23.088 191.066 23.196 191.594 23.196H193.502ZM204.538 13.44C205.354 12.264 206.35 11.328 207.526 10.632C208.702 9.912 209.926 9.552 211.198 9.552V18.084H208.93C207.418 18.084 206.302 18.348 205.582 18.876C204.886 19.404 204.538 20.34 204.538 21.684V30H196.546V9.696H204.538V13.44ZM234.843 9.696V30H226.851V26.904C226.227 27.864 225.387 28.644 224.331 29.244C223.299 29.844 222.063 30.144 220.623 30.144C218.295 30.144 216.471 29.364 215.151 27.804C213.855 26.244 213.207 24.132 213.207 21.468V9.696H221.163V20.46C221.163 21.42 221.415 22.188 221.919 22.764C222.447 23.316 223.143 23.592 224.007 23.592C224.895 23.592 225.591 23.316 226.095 22.764C226.599 22.188 226.851 21.42 226.851 20.46V9.696H234.843ZM247.488 30.252C245.568 30.252 243.864 29.94 242.376 29.316C240.912 28.692 239.748 27.828 238.884 26.724C238.02 25.62 237.528 24.372 237.408 22.98H245.076C245.172 23.58 245.424 24.024 245.832 24.312C246.264 24.6 246.804 24.744 247.452 24.744C247.86 24.744 248.184 24.66 248.424 24.492C248.664 24.3 248.784 24.072 248.784 23.808C248.784 23.352 248.532 23.028 248.028 22.836C247.524 22.644 246.672 22.428 245.472 22.188C244.008 21.9 242.796 21.588 241.836 21.252C240.9 20.916 240.072 20.34 239.352 19.524C238.656 18.708 238.308 17.58 238.308 16.14C238.308 14.892 238.632 13.764 239.28 12.756C239.952 11.724 240.936 10.92 242.232 10.344C243.528 9.74399 245.1 9.444 246.948 9.444C249.684 9.444 251.82 10.116 253.356 11.46C254.916 12.804 255.852 14.556 256.164 16.716H249.072C248.952 16.164 248.7 15.744 248.316 15.456C247.932 15.144 247.416 14.988 246.768 14.988C246.36 14.988 246.048 15.072 245.832 15.24C245.616 15.384 245.508 15.612 245.508 15.924C245.508 16.332 245.76 16.644 246.264 16.86C246.768 17.052 247.572 17.256 248.676 17.472C250.14 17.76 251.376 18.084 252.384 18.444C253.392 18.804 254.268 19.428 255.012 20.316C255.756 21.18 256.128 22.38 256.128 23.916C256.128 25.116 255.78 26.196 255.084 27.156C254.388 28.116 253.38 28.872 252.06 29.424C250.764 29.976 249.24 30.252 247.488 30.252ZM271.936 23.196V30H268.912C263.344 30 260.56 27.228 260.56 21.684V16.356H258.04V9.696H260.56V4.8H268.552V9.696H271.864V16.356H268.552V21.828C268.552 22.308 268.66 22.656 268.876 22.872C269.116 23.088 269.5 23.196 270.028 23.196H271.936Z" fill="#0D0AAF"/>
</g>
<path fill-rule="evenodd" clip-rule="evenodd" d="M18.3814 0.0195508C18.153 0.036283 17.9006 0.0595965 17.8206 0.0714206C17.7406 0.0831332 17.5631 0.107228 17.426 0.124964C17.2889 0.1427 17.0085 0.182857 16.8028 0.214425C16.5972 0.245882 16.3541 0.280685 16.2628 0.29184C16.1714 0.302994 16.0779 0.324858 16.055 0.340363C16.0322 0.355868 15.9057 0.380074 15.7741 0.394129C15.6423 0.408073 15.5245 0.433729 15.512 0.451018C15.4995 0.46842 15.425 0.482587 15.3463 0.482587C15.2678 0.482587 15.2034 0.49653 15.2034 0.513708C15.2034 0.530775 15.1107 0.555316 14.9974 0.568255C14.884 0.581195 14.7802 0.607297 14.7664 0.626372C14.7528 0.645447 14.6876 0.661063 14.6218 0.661063C14.556 0.661063 14.4919 0.675342 14.4793 0.692743C14.4668 0.710145 14.3886 0.735354 14.3056 0.74874C14.2226 0.762126 14.1242 0.786109 14.0871 0.801948C14.0498 0.8179 13.9166 0.85828 13.7909 0.891856C13.5665 0.951646 13.4173 0.999835 13.291 1.05338C13.2561 1.06821 13.1674 1.09164 13.0942 1.10547C13.021 1.1193 12.9503 1.1454 12.9374 1.16359C12.9243 1.18166 12.868 1.19649 12.8122 1.19649C12.7565 1.19649 12.7108 1.21256 12.7108 1.23219C12.7108 1.25182 12.681 1.26788 12.6445 1.26788C12.6081 1.26788 12.5287 1.28997 12.4679 1.31708C12.4073 1.34418 12.311 1.38267 12.2539 1.40275C11.7752 1.57085 9.9995 2.35882 9.97587 2.41359C9.96834 2.43133 9.93887 2.44583 9.91057 2.44583C9.88227 2.44583 9.72349 2.52615 9.55758 2.62431C9.3918 2.72247 9.25042 2.80278 9.24341 2.80278C9.2364 2.80278 9.1145 2.87105 8.9726 2.95449C8.83071 3.03793 8.67194 3.13029 8.61988 3.15974C8.56782 3.18919 8.47552 3.24541 8.41476 3.28467C8.22107 3.40994 8.02815 3.53242 7.90884 3.60593C7.77772 3.68669 6.95206 4.2799 6.8469 4.36881C6.80912 4.40082 6.67099 4.50724 6.54 4.6054C6.1974 4.86196 5.37939 5.58423 5.02537 5.94275C4.92255 6.04682 4.80104 6.16585 4.75534 6.20701C4.67407 6.28041 4.15491 6.84562 3.85827 7.18372C3.63368 7.43961 3.40519 7.72518 3.40519 7.75005C3.40519 7.7621 3.34911 7.83282 3.28056 7.90722C3.21202 7.98162 3.15593 8.06651 3.15593 8.09596C3.15593 8.12541 3.12854 8.15854 3.09492 8.16958C3.06142 8.18063 3.00534 8.24254 2.97029 8.30723C2.88357 8.46753 2.72778 8.70022 2.6212 8.82894C2.57251 8.88762 2.53279 8.96124 2.53279 8.99247C2.53279 9.02382 2.51669 9.04947 2.49696 9.04947C2.45087 9.04947 1.70193 10.3386 1.70193 10.4178C1.70193 10.4505 1.687 10.4773 1.66869 10.4773C1.65052 10.4773 1.61079 10.5375 1.58054 10.6111C1.55043 10.6848 1.48253 10.8274 1.42969 10.9282C1.37685 11.029 1.3209 11.1696 1.30545 11.2405C1.29 11.3116 1.26443 11.3697 1.24872 11.3697C1.21704 11.3697 1.12033 11.5815 1.12033 11.6508C1.12033 11.675 1.08411 11.7631 1.03984 11.8467C0.995567 11.9301 0.937666 12.0778 0.911053 12.1748C0.884439 12.2719 0.829655 12.4155 0.78941 12.4941C0.749035 12.5726 0.702429 12.7172 0.685812 12.8153C0.669195 12.9135 0.641932 13.0099 0.625185 13.0295C0.583772 13.0781 0.510163 13.3164 0.47615 13.5114C0.460831 13.5997 0.420716 13.7439 0.386962 13.8315C0.353338 13.9193 0.300111 14.1442 0.268564 14.3313C0.237147 14.5184 0.191969 14.7438 0.168082 14.8321C-0.0772813 15.7406 -0.0456051 20.1919 0.208327 20.4898C0.224944 20.5095 0.252206 20.6431 0.268564 20.7868C0.285051 20.9303 0.325945 21.1311 0.359569 21.233C0.393323 21.3347 0.438241 21.4982 0.459662 21.5964C0.516264 21.8557 0.588575 22.0908 0.624406 22.1318C0.641543 22.1515 0.669195 22.2478 0.685812 22.346C0.702429 22.4442 0.749035 22.5887 0.78941 22.6673C0.829655 22.7458 0.884439 22.8895 0.911053 22.9865C0.937666 23.0835 0.995567 23.2312 1.03984 23.3147C1.08411 23.3982 1.12033 23.4863 1.12033 23.5106C1.12033 23.5798 1.21704 23.7917 1.24872 23.7917C1.26443 23.7917 1.29 23.8498 1.30545 23.9208C1.3209 23.9918 1.37685 24.1323 1.42969 24.2332C1.48253 24.3339 1.55043 24.4766 1.58054 24.5502C1.61079 24.6238 1.65052 24.684 1.66869 24.684C1.687 24.684 1.70193 24.7108 1.70193 24.7435C1.70193 24.8227 2.45087 26.1119 2.49696 26.1119C2.51669 26.1119 2.53279 26.1347 2.53279 26.1628C2.53279 26.1908 2.62847 26.3474 2.74531 26.5109C2.86215 26.6742 2.97405 26.8445 2.99392 26.8891C3.01378 26.9339 3.05844 26.9797 3.09297 26.9911C3.12763 27.0026 3.15593 27.0389 3.15593 27.0718C3.15593 27.1049 3.21124 27.1875 3.27888 27.2554C3.34651 27.3234 3.4026 27.3912 3.4035 27.4061C3.40532 27.4359 3.62407 27.7108 3.85827 27.9776C4.14907 28.309 4.67342 28.8803 4.75534 28.955C4.80104 28.9967 4.91203 29.106 5.00187 29.1979C5.32552 29.5289 6.18948 30.2928 6.53792 30.5559C6.66801 30.6541 6.82548 30.7746 6.88818 30.8236C7.15614 31.0337 7.71917 31.4374 7.90858 31.5554C7.97168 31.5947 8.07307 31.6629 8.13408 31.7071C8.1951 31.7512 8.25638 31.7873 8.27053 31.7874C8.28455 31.7874 8.35933 31.8354 8.4367 31.8939C8.51394 31.9525 8.60067 32.0007 8.62923 32.001C8.65779 32.0014 8.68115 32.0151 8.68115 32.0317C8.68115 32.0482 8.74658 32.0921 8.82655 32.129C8.90652 32.166 8.97196 32.2068 8.97196 32.2197C8.97196 32.2326 9.00467 32.2526 9.04466 32.2641C9.11697 32.2849 9.26457 32.3594 9.3043 32.395C9.36272 32.4474 9.87772 32.7155 9.91992 32.7155C9.94692 32.7155 9.96899 32.7281 9.96899 32.7434C9.96899 32.7588 10.0952 32.8268 10.2494 32.8948C10.4036 32.9627 10.5766 33.0444 10.6337 33.0766C10.7669 33.1514 11.4826 33.4608 11.8592 33.6062C12.0191 33.668 12.1825 33.7338 12.2222 33.7524C12.2618 33.7711 12.3225 33.7864 12.3572 33.7864C12.3917 33.7864 12.42 33.8016 12.42 33.8204C12.42 33.8392 12.4855 33.8651 12.5654 33.8779C12.6454 33.8909 12.7108 33.9156 12.7108 33.9332C12.7108 33.9506 12.7576 33.9648 12.8147 33.9648C12.8718 33.9648 12.9185 33.9791 12.9185 33.9965C12.9185 34.014 12.9863 34.0392 13.069 34.0525C13.1518 34.0659 13.2547 34.0918 13.2975 34.1101C13.3405 34.1284 13.4089 34.1574 13.4496 34.1744C13.4903 34.1916 13.5836 34.2169 13.6568 34.2308C13.7301 34.2446 13.8007 34.2707 13.8137 34.2889C13.8268 34.307 13.8923 34.3218 13.9596 34.3218C14.0267 34.3218 14.0817 34.3361 14.0817 34.3535C14.0817 34.3709 14.1655 34.3959 14.2678 34.409C14.37 34.4222 14.4646 34.4482 14.4778 34.4666C14.4912 34.4851 14.557 34.5003 14.6243 34.5003C14.6914 34.5003 14.7464 34.5152 14.7464 34.5334C14.7464 34.5516 14.8493 34.5776 14.9749 34.5911C15.1006 34.6046 15.2034 34.6298 15.2034 34.6472C15.2034 34.6646 15.2678 34.6787 15.3463 34.6787C15.425 34.6787 15.4997 34.6932 15.5125 34.711C15.5252 34.7286 15.6478 34.7543 15.785 34.768C15.9222 34.7817 16.0448 34.8074 16.0575 34.825C16.0704 34.8427 16.1506 34.8572 16.2361 34.8572C16.3216 34.8572 16.4093 34.8713 16.431 34.8886C16.4527 34.9058 16.5593 34.9279 16.6678 34.9378L16.8651 34.9555V26.1075V17.2594H14.6841H12.5031V22.6316C12.5031 25.9137 12.4881 28.0037 12.4646 28.0037C12.4433 28.0037 12.4011 27.9836 12.3708 27.9591C12.3404 27.9345 12.2061 27.851 12.0721 27.7734C11.9383 27.6957 11.7607 27.5872 11.6777 27.5322C11.5947 27.4772 11.4801 27.4016 11.423 27.3641C10.8563 26.993 10.6404 26.8267 10.0062 26.2725C9.24757 25.6097 9.29106 25.6527 8.49395 24.7733C8.45838 24.734 8.3553 24.6055 8.26495 24.4877C8.17446 24.3699 8.08358 24.2559 8.06294 24.2345C8.0423 24.213 7.99271 24.1407 7.95272 24.0739C7.91287 24.0069 7.86743 23.9443 7.85159 23.9344C7.83588 23.9246 7.79447 23.8684 7.75942 23.8095C7.7245 23.7506 7.61129 23.5739 7.50795 23.4169C7.40449 23.2598 7.30712 23.0952 7.29154 23.051C7.27583 23.0068 7.24571 22.9707 7.22429 22.9707C7.203 22.9707 7.18561 22.9492 7.18561 22.9231C7.18561 22.897 7.13887 22.7966 7.08188 22.7C7.02476 22.6034 6.94946 22.4506 6.91454 22.3604C6.87949 22.2703 6.81406 22.1343 6.76901 22.0584C6.72396 21.9825 6.68709 21.8981 6.68709 21.871C6.68709 21.8438 6.65996 21.779 6.62685 21.7268C6.59362 21.6747 6.53585 21.5357 6.49833 21.4179C6.46068 21.3001 6.41511 21.1877 6.39694 21.168C6.37863 21.1484 6.33112 21.0039 6.291 20.8468C6.25102 20.6897 6.2048 20.5532 6.18831 20.5434C6.17183 20.5336 6.12444 20.3569 6.08316 20.1507C6.04175 19.9446 5.99488 19.7679 5.97904 19.7581C5.96307 19.7483 5.94035 19.6439 5.92841 19.5261C5.83442 18.5923 5.80755 18.354 5.77197 18.1422C5.72005 17.8316 5.72005 17.1155 5.77197 16.805C5.80729 16.5939 5.84714 16.2415 5.92802 15.4211C5.9397 15.3033 5.96346 15.1909 5.98086 15.1712C5.99838 15.1516 6.04538 14.9749 6.08536 14.7786C6.12535 14.5823 6.17183 14.4056 6.18844 14.3859C6.20506 14.3663 6.25193 14.2298 6.29243 14.0825C6.33294 13.9353 6.37889 13.7987 6.39473 13.7791C6.41044 13.7595 6.45782 13.639 6.50015 13.5114C6.54247 13.3838 6.58998 13.2633 6.60582 13.2437C6.62166 13.224 6.66775 13.1196 6.70838 13.0117C6.74889 12.9037 6.80756 12.7837 6.83846 12.7449C6.86949 12.7062 6.8948 12.6535 6.8948 12.6278C6.8948 12.6021 6.96024 12.4652 7.04021 12.3235C7.12018 12.1819 7.18561 12.0472 7.18561 12.0242C7.18561 12.0013 7.19963 11.9771 7.21676 11.9706C7.2339 11.964 7.33205 11.8141 7.43486 11.6374C7.53768 11.4607 7.63336 11.3081 7.64738 11.2983C7.6614 11.2885 7.71749 11.2108 7.77201 11.1257C7.96129 10.83 7.99816 10.7766 8.04918 10.7253C8.07748 10.6968 8.17472 10.5772 8.26534 10.4594C8.35582 10.3416 8.45384 10.2148 8.48292 10.1777C8.96728 9.55824 10.3073 8.33735 11.0907 7.8017C11.353 7.62233 11.5742 7.4704 11.6378 7.42589C11.676 7.39923 11.7447 7.36008 11.7904 7.33911C11.8361 7.31803 11.8983 7.28066 11.9286 7.256C11.959 7.23135 12.1053 7.14323 12.2539 7.06024C12.4024 6.97713 12.5444 6.89459 12.5693 6.87663C12.5944 6.85867 12.6767 6.81639 12.7524 6.78282C12.8281 6.74924 12.9104 6.7073 12.9354 6.68979C12.9842 6.65554 13.3496 6.48956 13.9156 6.24449C14.5013 5.99083 14.7092 5.90828 14.7619 5.90828C14.7894 5.90828 14.8786 5.87906 14.96 5.84347C15.0414 5.80778 15.2182 5.74933 15.353 5.71363C15.4878 5.67782 15.6168 5.637 15.6396 5.62294C15.6625 5.60878 15.812 5.56773 15.972 5.53181C16.1319 5.49589 16.2721 5.45551 16.2835 5.44212C16.295 5.42874 16.4632 5.38903 16.6574 5.354C16.8516 5.31909 17.0292 5.27882 17.0521 5.26465C17.0749 5.25048 17.2899 5.21189 17.5298 5.17876C17.7697 5.14574 18.0314 5.10424 18.1114 5.08673C18.8474 4.92499 22.1521 4.92577 22.785 5.08785C22.8536 5.10536 23.1153 5.1463 23.3666 5.17865C23.6179 5.21111 23.8423 5.24993 23.8651 5.26487C23.888 5.27993 24.0521 5.31964 24.2299 5.35311C24.4077 5.38657 24.6039 5.43666 24.6661 5.46454C24.7282 5.49243 24.8031 5.5153 24.8324 5.51541C24.9028 5.51574 25.8117 5.77721 25.8384 5.80488C25.8498 5.8167 25.962 5.85518 26.0877 5.89043C26.2133 5.92568 26.3255 5.96551 26.3369 5.97889C26.3484 5.99239 26.4559 6.03333 26.5758 6.07003C26.6958 6.10661 26.7939 6.14722 26.7939 6.16038C26.7939 6.17343 26.8822 6.21314 26.9901 6.2485C27.098 6.28386 27.2054 6.32625 27.2289 6.34265C27.2524 6.35894 27.4212 6.4388 27.604 6.52012C27.7868 6.60133 27.9809 6.69771 28.0354 6.73429C28.0899 6.77077 28.1605 6.80067 28.1925 6.80067C28.2244 6.80067 28.2613 6.82476 28.2744 6.85421C28.2876 6.88366 28.3154 6.90775 28.3363 6.90775C28.3571 6.90775 28.4512 6.95192 28.5455 7.00591C28.6397 7.0599 28.7475 7.12014 28.785 7.13977C28.8226 7.1594 28.8807 7.19555 28.9142 7.21997C28.9475 7.24452 29.0777 7.32851 29.2034 7.40671C29.4615 7.56734 29.5778 7.64352 29.7219 7.74659C29.7768 7.78586 29.9024 7.8742 30.0008 7.94292C30.3296 8.17259 31.2449 8.95655 31.5633 9.28149C31.7365 9.45819 31.9034 9.62685 31.9342 9.65629C32.0231 9.74152 32.3618 10.1264 32.4682 10.2631C32.5217 10.3318 32.625 10.4603 32.698 10.5487C32.8411 10.7224 32.9229 10.8345 33.0882 11.0841C33.1466 11.1725 33.2381 11.309 33.2915 11.3875C33.4191 11.5753 33.8978 12.3893 33.8978 12.4186C33.8978 12.4311 33.9341 12.5094 33.9784 12.5926C34.0983 12.8175 34.3547 13.3968 34.3547 13.4428C34.3547 13.4648 34.3815 13.5334 34.4141 13.5953C34.4917 13.7422 34.6301 14.1583 34.7425 14.5823C34.792 14.7688 34.8449 14.9379 34.8603 14.9579C34.8756 14.978 34.9079 15.1467 34.9321 15.3327C34.9563 15.5188 35.0032 15.8075 35.0364 15.9744C35.1655 16.6227 35.1564 18.3458 35.0201 19.062C34.9976 19.1798 34.9601 19.4208 34.9369 19.5975C34.9135 19.7741 34.8761 19.9508 34.8538 19.9901C34.8316 20.0294 34.7773 20.2061 34.7332 20.3828C34.6392 20.7591 34.4966 21.1948 34.4178 21.3465C34.3872 21.4054 34.3401 21.5259 34.3128 21.6142C34.2857 21.7026 34.2498 21.7909 34.2332 21.8106C34.2165 21.8302 34.1699 21.9266 34.1295 22.0247C34.089 22.1229 34.0204 22.2713 33.9768 22.3546C33.9333 22.4378 33.8975 22.5181 33.8971 22.5331C33.893 22.722 32.7792 24.3403 32.2362 24.9463C32.1332 25.0612 32.0304 25.1809 32.0076 25.2123C31.9847 25.2438 31.9362 25.2944 31.8998 25.3248C31.8633 25.3552 31.711 25.5086 31.5614 25.6657C31.2811 25.9597 30.3612 26.7472 30.0395 26.9685C29.9395 27.0373 29.8088 27.1298 29.7487 27.1744C29.6887 27.2187 29.4901 27.3504 29.3073 27.4668C29.1245 27.5832 28.9422 27.7034 28.9022 27.734C28.8622 27.7646 28.8108 27.7895 28.788 27.7895C28.7605 27.7895 28.7464 26.0107 28.7464 22.5245V17.2594H26.5654H24.3844V26.094C24.3844 34.8153 24.3855 34.9286 24.465 34.9286C24.5094 34.9286 24.5572 34.9125 24.5714 34.8929C24.5855 34.8733 24.6696 34.8572 24.7583 34.8572C24.847 34.8572 24.9299 34.8427 24.9428 34.825C24.9555 34.8074 25.0781 34.7817 25.2151 34.768C25.3524 34.7543 25.4645 34.7286 25.4645 34.711C25.4645 34.6932 25.5289 34.6787 25.6075 34.6787C25.6861 34.6787 25.7607 34.6646 25.7731 34.6472C25.7856 34.6299 25.8988 34.6047 26.0248 34.5911C26.1508 34.5776 26.2538 34.5516 26.2538 34.5334C26.2538 34.5152 26.3099 34.5003 26.3785 34.5003C26.447 34.5003 26.5031 34.4858 26.5031 34.4679C26.5031 34.4502 26.5966 34.4245 26.7108 34.411C26.8251 34.3975 26.9185 34.3719 26.9185 34.3541C26.9185 34.3363 26.9506 34.3218 26.9898 34.3218C27.0809 34.3218 27.5184 34.1905 27.7177 34.1035C27.7573 34.0861 27.8107 34.0719 27.836 34.0719C27.8614 34.0719 27.9458 34.0478 28.0236 34.0184C28.1012 33.9889 28.2284 33.9407 28.3061 33.9113C28.3838 33.8818 28.4773 33.8577 28.5138 33.8577C28.5504 33.8577 28.5803 33.8417 28.5803 33.8221C28.5803 33.8024 28.6086 33.7864 28.6431 33.7864C28.6778 33.7864 28.7385 33.7716 28.7781 33.7536C28.8178 33.7356 29.1774 33.5824 29.5773 33.4133C30.4381 33.0492 30.632 32.9607 30.6505 32.9224C30.6581 32.9068 30.6979 32.894 30.7388 32.894C30.7798 32.894 30.8367 32.8699 30.8651 32.8404C30.8936 32.811 30.9426 32.7869 30.974 32.7869C31.0056 32.7869 31.0313 32.7708 31.0313 32.7512C31.0313 32.7316 31.0534 32.7155 31.0804 32.7155C31.1357 32.7155 31.6677 32.427 31.6891 32.3854C31.6966 32.3707 31.7179 32.3585 31.7362 32.3585C31.7545 32.3585 31.8857 32.2903 32.0274 32.2068C32.1693 32.1234 32.3163 32.0391 32.354 32.0194C32.3918 31.9998 32.4818 31.9436 32.5541 31.8945C32.6263 31.8454 32.7891 31.741 32.9159 31.6625C33.0428 31.584 33.1473 31.5077 33.1483 31.4929C33.1492 31.4782 33.1705 31.4662 33.1957 31.4662C33.2339 31.4662 33.8358 31.0458 34.1263 30.8163C34.172 30.7802 34.3171 30.6667 34.449 30.5641C34.7067 30.3633 34.7634 30.3171 34.8409 30.2453C34.8683 30.2198 34.9151 30.1797 34.9448 30.156C34.9744 30.1325 35.0215 30.0923 35.0494 30.0668C35.0773 30.0414 35.1198 30.0044 35.1435 29.9848C35.3294 29.8318 35.7917 29.4043 35.9931 29.1991C36.1278 29.0619 36.2508 28.9416 36.2665 28.9318C36.3302 28.8919 36.6811 28.5021 36.6811 28.4712C36.6811 28.4529 36.6971 28.4326 36.7166 28.4261C36.7689 28.4086 37.3043 27.7963 37.3043 27.7542C37.3043 27.7343 37.319 27.7181 37.3369 27.7181C37.3548 27.7181 37.4062 27.668 37.4511 27.6067C37.496 27.5454 37.5658 27.453 37.606 27.4015C37.6462 27.3498 37.6901 27.2807 37.7035 27.2476C37.717 27.2146 37.7541 27.179 37.7862 27.1684C37.8181 27.158 37.8444 27.118 37.8444 27.0798C37.8444 27.0415 37.8599 27.0048 37.879 26.9983C37.9167 26.9854 38.1642 26.6586 38.2665 26.4867C38.3771 26.301 38.4875 26.1304 38.509 26.1119C38.5878 26.044 39.2984 24.8092 39.2984 24.74C39.2984 24.7093 39.3171 24.684 39.3399 24.684C39.3628 24.684 39.3814 24.6439 39.3814 24.5948C39.3814 24.5457 39.4001 24.5056 39.423 24.5056C39.4458 24.5056 39.4645 24.4879 39.4645 24.4663C39.4645 24.4289 39.5561 24.2325 39.6314 24.1083C39.6507 24.0764 39.6793 23.9921 39.6948 23.9209C39.7103 23.8499 39.7396 23.7917 39.76 23.7917C39.7803 23.7917 39.7969 23.7515 39.7969 23.7024C39.7969 23.6533 39.8156 23.6132 39.8384 23.6132C39.8613 23.6132 39.8801 23.577 39.8802 23.5329C39.8803 23.4887 39.9084 23.4066 39.9425 23.3503C39.9767 23.294 40.0046 23.2187 40.0046 23.1828C40.0046 23.147 40.0222 23.1083 40.0438 23.0968C40.0652 23.0854 40.0955 23.004 40.1108 22.9159C40.1262 22.8278 40.1553 22.7468 40.1756 22.7361C40.1958 22.7254 40.2123 22.6783 40.2123 22.6316C40.2123 22.5848 40.2293 22.5375 40.25 22.5266C40.2707 22.5155 40.3005 22.4263 40.3162 22.3281C40.3319 22.23 40.3616 22.1407 40.3824 22.1297C40.403 22.1188 40.42 22.0634 40.42 22.0069C40.42 21.9503 40.4365 21.8952 40.4566 21.8845C40.4767 21.8738 40.5064 21.7606 40.5222 21.633C40.5382 21.5053 40.5684 21.3917 40.5894 21.3804C40.6105 21.3693 40.6277 21.3047 40.6277 21.2369C40.6277 21.1691 40.6458 21.0856 40.668 21.0516C40.7081 20.9898 40.7812 20.6148 40.8194 20.2757C40.8304 20.1775 40.856 20.0651 40.8762 20.0258C41.0411 19.7055 41.0413 15.4531 40.8765 15.1355C40.8561 15.0963 40.8304 14.9838 40.8194 14.8857C40.7812 14.5466 40.7081 14.1715 40.668 14.1097C40.6458 14.0757 40.6277 13.9923 40.6277 13.9245C40.6277 13.8566 40.6105 13.792 40.5894 13.7809C40.5684 13.7696 40.5382 13.6561 40.5222 13.5283C40.5064 13.4007 40.4767 13.2875 40.4566 13.2768C40.4365 13.2661 40.42 13.211 40.42 13.1544C40.42 13.0979 40.403 13.0426 40.3824 13.0316C40.3616 13.0206 40.3319 12.9313 40.3162 12.8332C40.3005 12.735 40.2707 12.6458 40.25 12.6347C40.2293 12.6238 40.2123 12.5765 40.2123 12.5298C40.2123 12.483 40.1958 12.436 40.1756 12.4253C40.1553 12.4145 40.1262 12.3336 40.1108 12.2454C40.0955 12.1573 40.0652 12.0759 40.0438 12.0645C40.0222 12.053 40.0046 12.0143 40.0046 11.9785C40.0046 11.9426 39.9767 11.8673 39.9425 11.8111C39.9084 11.7547 39.8803 11.6726 39.8802 11.6285C39.8801 11.5843 39.8613 11.5481 39.8384 11.5481C39.8156 11.5481 39.7969 11.508 39.7969 11.4589C39.7969 11.4098 39.7803 11.3697 39.76 11.3697C39.7396 11.3697 39.7113 11.3159 39.6969 11.2502C39.6826 11.1845 39.635 11.067 39.5911 10.9891C39.5474 10.9111 39.4989 10.8042 39.4835 10.7515C39.4682 10.6988 39.4388 10.6558 39.4184 10.6558C39.3981 10.6558 39.3814 10.6156 39.3814 10.5665C39.3814 10.5174 39.3628 10.4773 39.3399 10.4773C39.3171 10.4773 39.2984 10.4531 39.2984 10.4235C39.2984 10.3939 39.2534 10.2935 39.1985 10.2004C39.1436 10.1073 38.9942 9.85039 38.8664 9.62941C38.6222 9.20709 38.5433 9.07892 38.509 9.04947C38.4875 9.03096 38.3771 8.86029 38.2665 8.67467C38.1642 8.50278 37.9167 8.17594 37.879 8.163C37.8599 8.15653 37.8444 8.11983 37.8444 8.08157C37.8444 8.04331 37.8181 8.00338 37.7862 7.99289C37.7541 7.98229 37.717 7.94671 37.7035 7.91369C37.6901 7.88067 37.6462 7.81185 37.606 7.76087C37.4162 7.52015 37.367 7.45969 37.3467 7.44318C37.3348 7.43337 37.3064 7.39979 37.2835 7.36856C37.1982 7.25199 36.824 6.82063 36.7538 6.75828C36.7139 6.72269 36.6811 6.68532 36.6811 6.67517C36.6811 6.65119 36.3086 6.25776 36.2421 6.21169C36.2138 6.19206 36.0984 6.07962 35.9854 5.96182C35.8725 5.84403 35.651 5.63097 35.4933 5.4883C35.1513 5.1792 35.1224 5.15344 35.0525 5.09789C35.0229 5.07435 34.9762 5.03419 34.9487 5.00865C34.9213 4.98321 34.8745 4.94272 34.8448 4.91874C34.8152 4.89476 34.7722 4.85884 34.7494 4.83898C34.7141 4.80831 34.4441 4.59413 34.1263 4.3446C33.897 4.16456 33.238 3.69517 33.2146 3.69517C33.2 3.69517 33.0779 3.61887 32.9436 3.52562C32.682 3.34402 32.5304 3.24518 32.3824 3.15974C32.3312 3.13029 32.1793 3.04206 32.0447 2.96353C31.9101 2.88511 31.7811 2.81282 31.7583 2.8029C31.7355 2.79308 31.5838 2.70864 31.4213 2.61538C31.2587 2.52213 31.111 2.44583 31.0928 2.44583C31.0748 2.44583 30.9986 2.40567 30.9238 2.35659C30.8489 2.30751 30.7583 2.26735 30.7225 2.26735C30.6867 2.26735 30.6574 2.25464 30.6574 2.23913C30.6574 2.22352 30.5967 2.18548 30.5224 2.15447C30.4481 2.12357 30.0976 1.97153 29.7435 1.81681C29.111 1.54028 28.9456 1.47492 28.2687 1.23342C28.223 1.21713 28.1173 1.17809 28.034 1.14663C27.9505 1.11518 27.8614 1.08941 27.836 1.08941C27.8107 1.08941 27.7573 1.07524 27.7177 1.05784C27.5901 1.00207 27.4431 0.9541 27.2093 0.891856C27.0837 0.85828 26.9489 0.817119 26.91 0.800164C26.871 0.78332 26.7635 0.759114 26.6711 0.746398C26.5787 0.733681 26.5031 0.709364 26.5031 0.692185C26.5031 0.675119 26.4481 0.661063 26.3809 0.661063C26.3137 0.661063 26.2475 0.645447 26.2339 0.626372C26.2201 0.607297 26.1157 0.581083 26.002 0.568144C25.8881 0.555204 25.7849 0.530664 25.7727 0.513597C25.7604 0.49653 25.6872 0.482587 25.6099 0.482587C25.5327 0.482587 25.459 0.467974 25.4462 0.450238C25.4334 0.43239 25.3247 0.406511 25.2049 0.392679C25.0849 0.378847 24.9681 0.355087 24.9452 0.339805C24.9224 0.324635 24.8289 0.302994 24.7375 0.29184C24.6461 0.280685 24.4031 0.245882 24.1975 0.214425C23.9918 0.182857 23.7067 0.142031 23.5639 0.123514C23.4211 0.105108 23.1781 0.0735401 23.0239 0.0533499C22.6645 0.00649975 18.9293 -0.020718 18.3814 0.0195508ZM12.0461 12.4941V15.3319H15.2657H18.4853V25.1659V35H20.6663H22.8473V25.1659V15.3319H25.9007H28.9541V12.4941V9.65629H20.5001H12.0461V12.4941Z" fill="#0D0AAF"/>
<defs>
<filter id="filter0_d" x="43.8" y="0.156006" width="232.136" height="38.096" filterUnits="userSpaceOnUse" color-interpolation-filters="sRGB">
<feFlood flood-opacity="0" result="BackgroundImageFix"/>
<feColorMatrix in="SourceAlpha" type="matrix" values="0 0 0 0 0 0 0 0 0 0 0 0 0 0 0 0 0 0 127 0"/>
<feOffset dy="4"/>
<feGaussianBlur stdDeviation="2"/>
<feColorMatrix type="matrix" values="0 0 0 0 0 0 0 0 0 0 0 0 0 0 0 0 0 0 0.25 0"/>
<feBlend mode="normal" in2="BackgroundImageFix" result="effect1_dropShadow"/>
<feBlend mode="normal" in="SourceGraphic" in2="effect1_dropShadow" result="shape"/>
</filter>
</defs>
</svg>
