<?xml version="1.0" encoding="UTF-8"?>
<svg id="Layer_2" data-name="Layer 2" xmlns="http://www.w3.org/2000/svg" viewBox="0 0 729.24 198.5">
  <defs>
    <style>
      .cls-1 {
        fill: #073042;
      }
    </style>
  </defs>
  <g id="Layer_1-2" data-name="Layer 1">
    <g>
      <g>
        <path class="cls-1" d="M300.56,94.39c.22,6.78-2.31,12.52-7.59,17.24-5.28,4.71-11.5,7.07-18.67,7.07-9.21,0-17.46-3.82-24.76-11.47l9.06-11.08c4.69,5.26,9.49,7.99,14.4,8.21,2.48,.09,4.63-.46,6.45-1.63,2.35-1.56,3.6-3.98,3.78-7.23,.22-3.91-2.13-7.04-7.04-9.38l-11.47-5.47c-8.17-3.91-12.34-10.62-12.51-20.14-.13-6.47,2.35-11.86,7.43-16.16,4.78-4.08,10.47-6.1,17.07-6.06,8.04,.04,15.47,3.09,22.29,9.12l-9.51,10.04c-2.91-2.48-4.71-3.93-5.41-4.37-2.13-1.35-4.48-2-7.04-1.96-2.56,.04-4.65,.83-6.26,2.35-1.61,1.52-2.41,3.63-2.41,6.32,.04,3.69,2.13,6.49,6.26,8.41l12.25,5.6c8.82,4.04,13.38,10.9,13.68,20.59Z"/>
        <path class="cls-1" d="M366.44,66.56l-32.06,70.12h-15.64l11.01-23.79-21.37-46.33h16.81l12.64,28.93,12.51-28.93h16.1Z"/>
        <path class="cls-1" d="M408.08,114.14c-4.61,2.25-8.84,3.38-12.71,3.38-7.3,0-13.58-2.56-18.83-7.68-5.26-5.12-7.82-11.26-7.69-18.42,.13-7.16,2.75-13.29,7.85-18.39,5.1-5.1,11.2-7.65,18.28-7.65,3.65,0,7.78,1,12.38,3v12.64c-1.43-.56-2.87-1.11-4.3-1.63-2.26-.78-4.24-1.15-5.93-1.11-3.87,.04-6.94,1.31-9.22,3.8-2.28,2.49-3.4,5.54-3.36,9.13,.04,3.6,1.17,6.59,3.39,8.97,2.39,2.51,5.49,3.77,9.32,3.77,3.47,0,7.08-1.26,10.82-3.78v13.96Z"/>
        <path class="cls-1" d="M472.92,116.74h-15.05v-4.69c-4.43,4.13-9.58,6.26-15.44,6.39-6.78,.17-12.56-2.37-17.33-7.62-4.69-5.13-7.1-11.23-7.23-18.31-.13-7.21,2.11-13.51,6.71-18.9,4.78-5.52,10.62-8.23,17.53-8.15,6,.09,11.47,2.35,16.42,6.78v-5.67h14.4v50.18Zm-13.82-24.86c-.04-3.61-1.33-6.71-3.84-9.28-2.52-2.57-5.6-3.79-9.25-3.66-3.78,.13-6.83,1.45-9.16,3.95-2.32,2.51-3.53,5.59-3.62,9.24-.09,3.57,1.18,6.62,3.81,9.15,2.63,2.53,5.68,3.81,9.16,3.85,3.52,.04,6.56-1.26,9.12-3.92,2.56-2.66,3.82-5.77,3.78-9.34Z"/>
        <path class="cls-1" d="M560.31,116.74h-15.05v-28.69c0-6.24-2.68-9.35-8.05-9.3-2.31,0-4.2,.88-5.66,2.64-1.46,1.76-2.19,3.98-2.19,6.67v28.69h-15.25v-28.15c0-6.17-2.22-9.32-6.65-9.45-2.39-.09-4.47,.88-6.26,2.9-1.78,2.02-2.67,4.27-2.67,6.74v27.96h-15.25v-50.18h15.05v6.26c2.43-2.56,4.37-4.26,5.8-5.08,2.04-1.22,4.56-1.8,7.56-1.76,4.52,.04,7.97,.8,10.36,2.28,1.22,.78,3.09,2.69,5.6,5.73,3.65-5.95,8.95-8.8,15.9-8.54,5.39,.22,9.58,2.19,12.58,5.93,2.78,3.48,4.17,7.82,4.17,13.03v32.32Z"/>
        <path class="cls-1" d="M625.86,92.1c-.04,7.69-2.81,14.11-8.31,19.26-5.5,5.15-12.15,7.72-19.97,7.72s-14.15-2.71-19.65-8.15c-5.5-5.43-8.22-11.9-8.18-19.42,.04-7.56,2.91-13.94,8.6-19.16,5.56-5.17,12.27-7.75,20.14-7.75s13.91,2.7,19.32,8.11c5.41,5.41,8.09,11.87,8.05,19.39Zm-15.25-.23c-.22-3.77-1.58-6.9-4.1-9.39-2.51-2.49-5.55-3.67-9.1-3.54-3.42,.13-6.33,1.47-8.71,4.03-2.38,2.56-3.53,5.57-3.44,9.03,.09,3.47,1.35,6.44,3.8,8.9,2.45,2.47,5.38,3.71,8.81,3.71s6.55-1.27,9.13-3.8c2.58-2.54,3.78-5.51,3.61-8.94Z"/>
        <path class="cls-1" d="M669.13,79.72c-1.4-.26-2.88-.39-4.45-.39-3.4,0-6,.7-7.78,2.09-3.14,2.43-4.71,5.95-4.71,10.56v24.76h-15.25v-50.18h15.25v6.84c2.22-3,4.71-5.15,7.46-6.45,2.97-1.39,6.13-2.02,9.49-1.89v14.66Z"/>
        <path class="cls-1" d="M729.22,94.97h-36.04c.43,3,1.68,5.44,3.74,7.33,2.06,1.89,4.65,2.81,7.77,2.77,4.6-.04,8.39-2.74,11.38-8.08l10.99,7.17c-6.13,9.3-13.75,13.84-22.87,13.62-7.69-.17-14.03-3.02-19.03-8.54-4.87-5.39-7.23-11.86-7.1-19.42,.13-7.08,2.32-12.95,6.58-17.59,4.56-5.04,10.64-7.56,18.25-7.56,8.21,0,14.66,2.59,19.35,7.75,4.95,5.43,7.28,12.95,6.97,22.55Zm-15.97-9.71c-.39-6.26-3.74-9.43-10.04-9.51-2.91-.04-5.32,.98-7.23,3.06-1.74,1.87-2.67,4.02-2.8,6.45h20.07Z"/>
      </g>
      <g>
        <path class="cls-1" d="M485.16,160.15c-1.08,0-1.9-.86-1.9-1.94s.82-1.9,1.9-1.9,1.87,.82,1.87,1.9-.82,1.94-1.87,1.94Z"/>
        <path class="cls-1" d="M491.95,160.15c-1.08,0-1.9-.86-1.9-1.94s.82-1.9,1.9-1.9,1.87,.82,1.87,1.9-.82,1.94-1.87,1.94Z"/>
        <path class="cls-1" d="M498.75,160.15c-1.08,0-1.9-.86-1.9-1.94s.82-1.9,1.9-1.9,1.87,.82,1.87,1.9-.82,1.94-1.87,1.94Z"/>
        <path class="cls-1" d="M505.09,134.21h2.76l9.97,22.32,9.97-22.32h2.8v25.75h-2.61v-20.57l-9.18,20.57h-1.9l-9.18-20.49v20.49h-2.61v-25.75Z"/>
        <path class="cls-1" d="M545.44,160.26c-5.75,0-10.11-4.03-10.11-10.49s4.48-10.49,10.19-10.49,10.19,3.99,10.19,10.49-4.52,10.49-10.26,10.49Zm0-2.28c3.85,0,7.58-2.61,7.58-8.21s-3.66-8.21-7.54-8.21-7.5,2.61-7.5,8.21,3.58,8.21,7.46,8.21Z"/>
        <path class="cls-1" d="M563.09,159.96h-2.61v-20.38h2.61v3.62c1.12-2.5,3.47-3.99,6.98-3.99v2.72h-.71c-3.4,0-6.27,1.53-6.27,6.64v11.38Z"/>
        <path class="cls-1" d="M582.8,160.26c-5.79,0-10-4.03-10-10.49s4.14-10.49,10-10.49,9.63,4.26,9.63,9.44c0,.82,0,1.34-.07,2.05h-16.91c.22,4.78,3.55,7.28,7.35,7.28,3.47,0,5.82-1.83,6.57-4.55h2.76c-.93,3.84-4.22,6.76-9.33,6.76Zm-7.35-11.61h14.33c.11-4.74-3.32-7.13-7.09-7.13s-6.94,2.39-7.24,7.13Z"/>
        <path class="cls-1" d="M608.1,141.79h-2.84v-2.2h2.84v-1.42c0-4.37,2.05-6.46,7.2-6.46v2.24c-3.47,0-4.59,1.27-4.59,4.22v1.42h4.74v2.2h-4.74v18.18h-2.61v-18.18Z"/>
        <path class="cls-1" d="M628.48,160.26c-5.75,0-10.11-4.03-10.11-10.49s4.48-10.49,10.19-10.49,10.19,3.99,10.19,10.49-4.52,10.49-10.26,10.49Zm0-2.28c3.85,0,7.58-2.61,7.58-8.21s-3.66-8.21-7.54-8.21-7.5,2.61-7.5,8.21,3.58,8.21,7.46,8.21Z"/>
        <path class="cls-1" d="M646.14,159.96h-2.61v-20.38h2.61v3.62c1.12-2.5,3.47-3.99,6.98-3.99v2.72h-.71c-3.4,0-6.27,1.53-6.27,6.64v11.38Z"/>
        <path class="cls-1" d="M681.37,139.58h2.69l-12.09,29.97h-2.72l3.96-9.7-8.36-20.27h2.87l6.94,17.39,6.72-17.39Z"/>
        <path class="cls-1" d="M696.52,160.26c-5.75,0-10.11-4.03-10.11-10.49s4.48-10.49,10.19-10.49,10.19,3.99,10.19,10.49-4.52,10.49-10.26,10.49Zm0-2.28c3.85,0,7.58-2.61,7.58-8.21s-3.66-8.21-7.54-8.21-7.5,2.61-7.5,8.21,3.58,8.21,7.46,8.21Z"/>
        <path class="cls-1" d="M729.22,159.96h-2.61v-3.58c-1.23,2.58-3.92,3.92-6.94,3.92-4.63,0-8.29-2.84-8.29-8.81v-11.91h2.58v11.61c0,4.52,2.46,6.83,6.2,6.83s6.46-2.39,6.46-7.35v-11.08h2.61v20.38Z"/>
      </g>
      <g>
        <path class="cls-1" d="M130.54,83.61H54.98c-10.11,0-18.31-8.2-18.31-18.31v-10.31c0-10.11,8.2-18.31,18.31-18.31h57.25c10.11,0,18.31,8.2,18.31,18.31v28.62Z"/>
        <path class="cls-1" d="M143.52,161.83h-57.25c-10.11,0-18.31-8.2-18.31-18.31v-28.62h75.56c10.11,0,18.31,8.2,18.31,18.31v10.31c0,10.11-8.2,18.31-18.31,18.31Z"/>
        <path class="cls-1" d="M161.83,0H37.05C16.62,0,0,16.62,0,37.05v124.78c0,2.97,2.41,5.38,5.38,5.38s5.38-2.41,5.38-5.38V40.29c0-16.28,13.25-29.53,29.53-29.53h121.54c2.97,0,5.38-2.41,5.38-5.38s-2.41-5.38-5.38-5.38Z"/>
        <path class="cls-1" d="M193.12,31.29c-2.97,0-5.38,2.41-5.38,5.38v121.53c0,16.28-13.25,29.53-29.53,29.53H36.67c-2.97,0-5.38,2.41-5.38,5.38s2.41,5.38,5.38,5.38h124.78c20.43,0,37.05-16.62,37.05-37.05V36.67c0-2.97-2.41-5.38-5.38-5.38Z"/>
      </g>
    </g>
  </g>
</svg>