<svg xmlns="http://www.w3.org/2000/svg" viewBox="0 0 1000 1000"><title>Nigeria-Logo</title><path d="M255.52,504.05V561H208.08V372.11h47.44V467.9h21.24L307,417.29h49.7l-40.66,69.13L356.73,561H307l-31.17-56.93Z" style="fill:#ed017f"/><path d="M502.68,520.31l-.46-61.9v-7.23c-1.8-21.69-21.23-37.5-43.37-35.69H397a38.6,38.6,0,0,0-7.6,0A39.31,39.31,0,0,0,354,458.41v69.13c1.81,21.69,21.24,37.5,42.93,35.7h70C488.67,561.43,504.48,542,502.68,520.31Zm-47-2.26a8.88,8.88,0,0,1-10.85,8.14H409.6c-5.42-.46-8.59-5-8.13-10.4v-56a9.56,9.56,0,0,1,10.39-8.59H447.1c5,.45,8.59,5.42,8.13,10.85h.46Z" style="fill:#ed017f"/><path d="M595.75,453.89a98.44,98.44,0,0,0-32.53,5.42V560.07H515.78V417.29h41.57l2.71,13.56c8.58-5,17.17-9.49,26.21-11.75a66.9,66.9,0,0,1,23-4.07h11.75a38.07,38.07,0,0,1,40.66,35.7V561H615.18v-97.6A10.52,10.52,0,0,0,612,456.6a10,10,0,0,0-6.78-2.71Z" style="fill:#ed017f"/><path d="M814.44,568.66V417.29H707.36a40.22,40.22,0,0,0-35.7,43.38v58.74a38.34,38.34,0,0,0,40.67,35.69h9.49c15.81,0,31.17-2.26,46.08-5.42l-.9,13.56a10,10,0,0,1-2.71,6.77,10.84,10.84,0,0,1-6.78,2.71c-17.62,0-43.83-.9-78.17-3.61V603.9c31.63,3.16,62.81,5.42,94.44,5.42h5C800,607.52,815.8,589.44,814.44,568.66ZM767.9,516.25A194.3,194.3,0,0,1,735.37,519v-.46h-6.78a9.16,9.16,0,0,1-9-9.48V462c.45-5.43,5.42-8.59,10.84-8.14h37.5Z" style="fill:#ed017f"/><path d="M927.4,415c-29.82.46-59.19,1.81-88.56,5.43L837,452.54l33.89-2.71,38.86-1.36a9.2,9.2,0,0,1,6.78,2.71c1.8,2.26,3.16,4.52,3.16,6.78V468.8h-60.1c-20.78,1.36-37,19.88-35.24,40.67v18.07a38,38,0,0,0,40.67,35.24h9.48a64.46,64.46,0,0,0,22.6-4.06c9.48-2.26,18.07-6.78,26.2-12.2l3.17,13.55h41.56V450.28C966.71,429.49,948.18,413.68,927.4,415Zm-6.33,105.28a113.64,113.64,0,0,1-32.53,5v.91h-6.78a9.48,9.48,0,0,1-9.48-9.49V514a9.2,9.2,0,0,1,2.71-6.78,8.7,8.7,0,0,1,6.77-3.16h39.31Z" style="fill:#ed017f"/><rect x="809.47" y="597.12" width="17.62" height="18.53" style="fill:#ed017f"/><path d="M860.53,616.55a37.72,37.72,0,0,1-9.94-1.35l-7.68-4.07a20.31,20.31,0,0,1-4.52-6.33,22.18,22.18,0,0,1,5-25.75l7.23-3.61a30.49,30.49,0,0,1,9-.91l7.23.91,6.33,2.25v10.85h-2.26l-1.81-1.81a14,14,0,0,0-5.87-2.71l-3.62-.45c-3.16,0-5.87.9-7.68,3.16a13,13,0,0,0-3.16,9c0,2.71.9,6.32,3.16,8.58a10.62,10.62,0,0,0,7.68,2.71l4.07-.45,3.62-1.35,1.8-1.36,1.81-1.35h2.26v10.84l-6.33,2.71Z" style="fill:#ed017f"/><path d="M922,595.77c0-5.88-1.81-11.75-5.88-15.82-4.52-3.61-9.94-6.32-15.81-5.42A26.17,26.17,0,0,0,884,580c-3.61,4.07-6.32,9.94-5.42,15.82A23.67,23.67,0,0,0,884,611.13a24.84,24.84,0,0,0,32.08,0C920.17,606.61,922.43,601.64,922,595.77Zm-14,5.87-1.81,3.62-2.71,2.26a4.31,4.31,0,0,1-3.16.9c-1.36,0-3.16,0-4.07-.9-1.35-.46-2.26-.91-2.71-1.81l-2.26-3.62-.45-5.87a14,14,0,0,1,.45-6.33l2.26-4.06,2.71-1.81,3.62-.45L903,584a3.78,3.78,0,0,1,3.16,1.81l1.81,4.06.45,5.88Z" style="fill:#ed017f"/><path d="M968.52,586.73V615.2H955.41V590.35l-.9-3.62-1.81-1.81-4.06-.45-4.07.91-3.16,1.35V615.2H928.75V575.44h13.11v4.06l6.32-3.61a16.42,16.42,0,0,1,6.78-1.36,12.83,12.83,0,0,1,11.75,7.23,27.45,27.45,0,0,1,7.23-5.42,19,19,0,0,1,7.23-1.81c3.61-.9,7.23.91,9.49,3.62,2.71,3.61,4.06,7.23,3.61,11.29v26.21H981.62V590.8l-.9-3.62a3.21,3.21,0,0,0-2.26-1.8l-3.62-.46-3.16.46Z" style="fill:#ed017f"/><path d="M188.65,381.6a101.46,101.46,0,0,0-75-29.82A103,103,0,0,0,8.82,453c0,1.21,0,2.43,0,3.64C7,513.53,52.2,561,109.13,562.33h4.52C170.58,563.69,218,518.5,218.93,461.57v-5.42A99.85,99.85,0,0,0,188.65,381.6Z" style="fill:#f9a024"/><path d="M113.65,564.59a106.18,106.18,0,0,1-108-103.47V456.6a106.17,106.17,0,0,1,103.47-108h4.52a105.51,105.51,0,0,1,108,103v5a105.21,105.21,0,0,1-103,108Zm0-210.55A100.3,100.3,0,0,0,11.08,451.63v5c-.9,55.58,42.47,101.67,98.5,102.57h4.07a99.44,99.44,0,0,0,102.56-97.6v-5c1.36-55.12-42.92-101.21-98-102.11Z" style="fill:#ed017f"/><path d="M59.43,420.91a19.39,19.39,0,0,1,13.55-5,40.14,40.14,0,0,1,16.27,3.16,76.8,76.8,0,0,1,15.81,8.59l2.26-1.81c-3.16-6.33-8.13-11.3-14-15.36a42,42,0,0,0-20.79-5.43,33.62,33.62,0,0,0-11.29,2.26,19.61,19.61,0,0,0-9,7.23c-2.26,2.71-3.62,6.33-5,9.49a27,27,0,0,0-.9,10.39h3.16A42,42,0,0,1,59.43,420.91ZM127.66,411c4.51-3.16,9.94-5,15.36-6.78,4.52-1.35,9.94-.45,14.46,2.26a49.7,49.7,0,0,1,12.65,11.3l2.71-.91c-.45-3.16-1.36-7.23-3.62-9.94a22.24,22.24,0,0,0-7.23-8.58c-2.71-2.71-6.77-4.07-10.39-5a25.63,25.63,0,0,0-11.75,0,39.74,39.74,0,0,0-28.91,28l2.71,1.36,13.55-12.2M176,481.91a48.39,48.39,0,0,1-9,14.45c-1.8,1.81-3.61,4.07-6.32,5.88l-6.78,5a95.45,95.45,0,0,1-32.08,10.39,95.19,95.19,0,0,1-33.89-.9,75.16,75.16,0,0,1-15.81-5.88c-5.42-2.26-9.94-5.87-14.91-9.49l-1.36,1.36a57.85,57.85,0,0,0,29.82,22.14,72.46,72.46,0,0,0,38,3.16,77.27,77.27,0,0,0,35.24-14,49.57,49.57,0,0,0,19-32.54H176ZM111.84,448l4.07,37.5,2.26-.45L113.65,448Z" style="fill:#ed017f"/></svg>