<svg xmlns="http://www.w3.org/2000/svg" viewBox="0 0 330.06 83.58"><defs><style>.cls-2{fill:#2b958a}</style></defs><g id="Layer_2" data-name="Layer 2"><g id="Capa_2" data-name="Capa 2"><path d="m47.69 26.33-11 11.25A18.39 18.39 0 0 1 11 63.73L0 75a34.06 34.06 0 0 0 30.66 7.67A33.62 33.62 0 0 0 45.27 75a18.29 18.29 0 0 1 5.2-14 17.91 17.91 0 0 1 5.4-3.8 34.21 34.21 0 0 0-.27-16.46 33.84 33.84 0 0 0-7.91-14.41Z" style="fill:#cc9d33"/><path d="M16.42 57.25 27.46 46A18.39 18.39 0 0 1 53.1 19.85l11-11.23A34.06 34.06 0 0 0 33.45 1a33.62 33.62 0 0 0-14.61 7.59 18.29 18.29 0 0 1-5.2 14 17.91 17.91 0 0 1-5.4 3.8 34.21 34.21 0 0 0 .27 16.46 33.84 33.84 0 0 0 7.91 14.4ZM137.11 76.58a5.44 5.44 0 0 1-4-1.39 5.88 5.88 0 0 1-1.38-4.29 6.88 6.88 0 0 1 .64-3.15 4.12 4.12 0 0 1 1.88-1.9 6.74 6.74 0 0 1 3-.63 8 8 0 0 1 2 .24 4.55 4.55 0 0 1 1.57.73 3.2 3.2 0 0 1 1 1.22 3.92 3.92 0 0 1 .36 1.74h-1.56a2.62 2.62 0 0 0-.25-1.2 2.16 2.16 0 0 0-.73-.83 3.13 3.13 0 0 0-1.09-.45 6.31 6.31 0 0 0-1.33-.14 5.61 5.61 0 0 0-1.71.24 3 3 0 0 0-1.27.75 3.38 3.38 0 0 0-.78 1.32 5.92 5.92 0 0 0-.27 1.9v.34a5.54 5.54 0 0 0 .45 2.41 2.84 2.84 0 0 0 1.36 1.35 4.6 4.6 0 0 0 2.08.43 5.14 5.14 0 0 0 2-.35 2.46 2.46 0 0 0 1.2-1 3.66 3.66 0 0 0 .39-1.78v-.19h-3.88v-1.3h5.41v5.78h-1.15L141 75a3.84 3.84 0 0 1-1 .91 4.7 4.7 0 0 1-1.31.51 6.66 6.66 0 0 1-1.58.16ZM151 76.39V64.82h1.41v11.57ZM164.49 76.58a4.5 4.5 0 0 1-2.15-.47 3 3 0 0 1-1.34-1.45 6.94 6.94 0 0 1 0-5 3.06 3.06 0 0 1 1.33-1.44 5.15 5.15 0 0 1 4.3 0 3.09 3.09 0 0 1 1.37 1.47 7.09 7.09 0 0 1 0 5 3.07 3.07 0 0 1-1.32 1.45 4.53 4.53 0 0 1-2.19.44Zm0-1.19a2.71 2.71 0 0 0 1.36-.31 2.06 2.06 0 0 0 .82-1 4.52 4.52 0 0 0 .28-1.72V72a4.42 4.42 0 0 0-.28-1.72 2.06 2.06 0 0 0-.82-1 3.07 3.07 0 0 0-2.73 0 2 2 0 0 0-.82 1A4.42 4.42 0 0 0 162 72v.36a4.52 4.52 0 0 0 .28 1.72 2 2 0 0 0 .82 1 2.72 2.72 0 0 0 1.39.31ZM180.55 76.58a3.3 3.3 0 0 1-1.52-.35 2.61 2.61 0 0 1-1.1-1h-.11l-.15 1.2h-1.12V64.82H178V69h.09a2.61 2.61 0 0 1 .68-.72 2.52 2.52 0 0 1 .86-.4 3.77 3.77 0 0 1 1-.13 3.13 3.13 0 0 1 1.71.46 3 3 0 0 1 1.14 1.43 6.32 6.32 0 0 1 .41 2.45 6.82 6.82 0 0 1-.4 2.55 3 3 0 0 1-1.14 1.45 3.35 3.35 0 0 1-1.8.49Zm-.34-1.23a2.33 2.33 0 0 0 1.21-.29 1.79 1.79 0 0 0 .75-1 5 5 0 0 0 .25-1.75V72a5.11 5.11 0 0 0-.24-1.72 1.87 1.87 0 0 0-.73-1 2.45 2.45 0 0 0-1.28-.31 2.66 2.66 0 0 0-.85.14 1.81 1.81 0 0 0-.71.5 2.36 2.36 0 0 0-.48.95 5 5 0 0 0-.17 1.45v.26a5.27 5.27 0 0 0 .23 1.66 2 2 0 0 0 .74 1 2.2 2.2 0 0 0 1.28.42ZM194.13 76.58a4.2 4.2 0 0 1-.92-.11 3 3 0 0 1-.87-.37 1.92 1.92 0 0 1-.64-.71 2.48 2.48 0 0 1-.24-1.15 2.3 2.3 0 0 1 .42-1.42A2.66 2.66 0 0 1 193 72a6.47 6.47 0 0 1 1.77-.43 19 19 0 0 1 2.22-.13v-1a1.86 1.86 0 0 0-.16-.81 1.11 1.11 0 0 0-.57-.51 3.58 3.58 0 0 0-2.3 0 1.15 1.15 0 0 0-.59.47 1.25 1.25 0 0 0-.17.64v.24h-1.36a1 1 0 0 1 0-.16v-.19a1.92 1.92 0 0 1 .43-1.29 2.57 2.57 0 0 1 1.19-.79 5.57 5.57 0 0 1 1.76-.26 4.61 4.61 0 0 1 1.77.3 2.34 2.34 0 0 1 1.07.87 2.42 2.42 0 0 1 .36 1.34v4.56a.57.57 0 0 0 .14.43.54.54 0 0 0 .35.11h.63v.93a3.25 3.25 0 0 1-.5.17 2.35 2.35 0 0 1-.62.07 1.22 1.22 0 0 1-.69-.17 1 1 0 0 1-.41-.46 2 2 0 0 1-.2-.66H197a2.68 2.68 0 0 1-.73.69 3.53 3.53 0 0 1-1 .46 4.08 4.08 0 0 1-1.14.16Zm.36-1.19a2.86 2.86 0 0 0 1-.16 2.33 2.33 0 0 0 .8-.45 2.26 2.26 0 0 0 .56-.71 2 2 0 0 0 .21-.92v-.7a13.94 13.94 0 0 0-2.21.15 3 3 0 0 0-1.4.51 1.23 1.23 0 0 0-.49 1 1.16 1.16 0 0 0 .2.7 1.18 1.18 0 0 0 .54.41 2.31 2.31 0 0 0 .79.17ZM207.14 76.39V64.82h1.41v11.57ZM231.19 76.58a8 8 0 0 1-1.72-.18 4.4 4.4 0 0 1-1.46-.56 3.11 3.11 0 0 1-1-1 3 3 0 0 1-.38-1.54s0-.1 0-.16a.81.81 0 0 0 0-.16h1.54v.16a1.21 1.21 0 0 0 0 .18 1.64 1.64 0 0 0 .38 1.09 2.22 2.22 0 0 0 1.07.66 4.9 4.9 0 0 0 1.54.22 7.65 7.65 0 0 0 .81 0 4.42 4.42 0 0 0 .82-.17 2.63 2.63 0 0 0 .7-.32 1.59 1.59 0 0 0 .5-.5 1.51 1.51 0 0 0-.13-1.63A2.38 2.38 0 0 0 233 72a8.18 8.18 0 0 0-1.16-.41c-.43-.13-.87-.25-1.33-.37a13.9 13.9 0 0 1-1.34-.4 5.47 5.47 0 0 1-1.16-.58 2.69 2.69 0 0 1-.82-.86 2.31 2.31 0 0 1-.31-1.24 2.59 2.59 0 0 1 .28-1.23A2.35 2.35 0 0 1 228 66a3.91 3.91 0 0 1 1.37-.58 8 8 0 0 1 1.87-.2 6.91 6.91 0 0 1 1.61.18 4.43 4.43 0 0 1 1.31.56 2.73 2.73 0 0 1 .89 1 2.83 2.83 0 0 1 .32 1.39v.19h-1.51v-.24a1.39 1.39 0 0 0-.33-.93 2.25 2.25 0 0 0-.92-.59 3.89 3.89 0 0 0-1.32-.21 6 6 0 0 0-1.6.18 2.08 2.08 0 0 0-1 .53 1.17 1.17 0 0 0-.31.78 1.2 1.2 0 0 0 .31.83 2.27 2.27 0 0 0 .83.55 8.38 8.38 0 0 0 1.17.4l1.33.35c.46.13.9.27 1.33.42a5.8 5.8 0 0 1 1.17.58 2.59 2.59 0 0 1 .82.86 2.42 2.42 0 0 1 .31 1.27 3 3 0 0 1-.58 1.9 3.26 3.26 0 0 1-1.58 1.06 7.26 7.26 0 0 1-2.3.3ZM247.51 76.58a4.53 4.53 0 0 1-2.15-.47 3.08 3.08 0 0 1-1.36-1.45 6.94 6.94 0 0 1 0-5 3.11 3.11 0 0 1 1.33-1.44 5.15 5.15 0 0 1 4.3 0 3.09 3.09 0 0 1 1.37 1.47 7.09 7.09 0 0 1 0 5 3.07 3.07 0 0 1-1.32 1.45 4.53 4.53 0 0 1-2.17.44Zm0-1.19a2.68 2.68 0 0 0 1.36-.31 2 2 0 0 0 .82-1 4.52 4.52 0 0 0 .28-1.72V72a4.42 4.42 0 0 0-.28-1.72 2 2 0 0 0-.82-1 2.68 2.68 0 0 0-1.36-.32 2.75 2.75 0 0 0-1.37.32 2 2 0 0 0-.82 1 4.63 4.63 0 0 0-.27 1.72v.36a4.74 4.74 0 0 0 .27 1.72 2 2 0 0 0 .82 1 2.75 2.75 0 0 0 1.37.31ZM259.57 76.39V64.82H261v11.57ZM272.18 76.58a2.94 2.94 0 0 1-1.95-.62 2.75 2.75 0 0 1-.74-2.18V68h1.41v5.62a2.32 2.32 0 0 0 .13.86 1.15 1.15 0 0 0 .37.53 1.37 1.37 0 0 0 .57.27 3.08 3.08 0 0 0 .71.08 2.28 2.28 0 0 0 1.12-.36 2.26 2.26 0 0 0 .84-.84 2.41 2.41 0 0 0 .33-1.28V68h1.4v8.42h-1.13l-.13-1.27H275a3.65 3.65 0 0 1-.76.84 2.91 2.91 0 0 1-.95.47 3.92 3.92 0 0 1-1.11.12ZM286.93 76.58a1.79 1.79 0 0 1-1-.25 1.35 1.35 0 0 1-.53-.65 2.37 2.37 0 0 1-.16-.88v-5.65h-1.09V68h1.12l.26-2.35h1.12V68h1.58v1.18h-1.58v5.42a1.11 1.11 0 0 0 .14.6.65.65 0 0 0 .55.19h.89v.93a1.21 1.21 0 0 1-.38.13l-.46.09a2.25 2.25 0 0 1-.46.04ZM296.12 66.39v-1.57h1.41v1.57Zm0 10V68h1.41v8.42ZM309.57 76.58a4.53 4.53 0 0 1-2.15-.47 3.14 3.14 0 0 1-1.33-1.45 7.09 7.09 0 0 1 0-5 3.16 3.16 0 0 1 1.33-1.44 5.18 5.18 0 0 1 4.31 0 3.09 3.09 0 0 1 1.32 1.44 7.24 7.24 0 0 1 0 5 3.07 3.07 0 0 1-1.32 1.45 4.57 4.57 0 0 1-2.16.47Zm0-1.19a2.66 2.66 0 0 0 1.36-.31 2 2 0 0 0 .83-1 4.72 4.72 0 0 0 .28-1.72V72a4.61 4.61 0 0 0-.28-1.72 2 2 0 0 0-.83-1 3.05 3.05 0 0 0-2.72 0 2 2 0 0 0-.83 1 4.63 4.63 0 0 0-.27 1.72v.36a4.74 4.74 0 0 0 .27 1.72 2 2 0 0 0 .83 1 2.68 2.68 0 0 0 1.36.31ZM321.64 76.39V68h1.13l.13 1.26h.1a3.6 3.6 0 0 1 .76-.83 3 3 0 0 1 1-.47 3.92 3.92 0 0 1 1.11-.15 3.4 3.4 0 0 1 1.4.27 2 2 0 0 1 .94.88 3.37 3.37 0 0 1 .35 1.65v5.81h-1.41v-5.65a2.31 2.31 0 0 0-.14-.86 1.31 1.31 0 0 0-.36-.53 1.39 1.39 0 0 0-.56-.27 2.82 2.82 0 0 0-.73-.08 2.3 2.3 0 0 0-1.12.28 2.26 2.26 0 0 0-.84.84 2.52 2.52 0 0 0-.31 1.29v5ZM95.41 46.21a12.19 12.19 0 0 0-2.88-1.6 25.32 25.32 0 0 0-3.3-1l-3.29-.78c-1.06-.24-2-.51-2.89-.79a6.47 6.47 0 0 1-2-1 1.9 1.9 0 0 1-.76-1.55 1.78 1.78 0 0 1 .59-1.33 3.79 3.79 0 0 1 1.68-.86 10.29 10.29 0 0 1 2.69-.3 7 7 0 0 1 2.67.45 3.69 3.69 0 0 1 1.61 1.2 3 3 0 0 1 .47 1.68v.3h7.41v-.52a7.72 7.72 0 0 0-3.71-6.74 12.41 12.41 0 0 0-3.94-1.61 20.61 20.61 0 0 0-4.76-.52 22.87 22.87 0 0 0-4.86.5 12.79 12.79 0 0 0-4 1.57 8.34 8.34 0 0 0-3 10.4 7.28 7.28 0 0 0 2 2.47 11.71 11.71 0 0 0 2.87 1.64 25.62 25.62 0 0 0 3.31 1.08l3.32.82c1.06.25 2 .53 2.86.81a6.14 6.14 0 0 1 2 1.08 2.07 2.07 0 0 1 .75 1.64 2.2 2.2 0 0 1-.24 1 2.08 2.08 0 0 1-.73.78 5.48 5.48 0 0 1-1.14.54 7.37 7.37 0 0 1-1.46.3A16.46 16.46 0 0 1 85 56a11.24 11.24 0 0 1-3-.36 4.05 4.05 0 0 1-2-1.21 3.34 3.34 0 0 1-.71-2.22 2.23 2.23 0 0 1 0-.32v-.32h-7.43a1 1 0 0 0 0 .34v.39a8.72 8.72 0 0 0 1.08 4.5 8.34 8.34 0 0 0 3 3 13.52 13.52 0 0 0 4.33 1.61 26.51 26.51 0 0 0 5.25.5 20.33 20.33 0 0 0 6.57-1 9.4 9.4 0 0 0 4.56-3.14A9.05 9.05 0 0 0 98.21 52a7.26 7.26 0 0 0-.75-3.44 7 7 0 0 0-2.05-2.35ZM121.23 39.42a9.27 9.27 0 0 0-5-1.29 9.12 9.12 0 0 0-4 .86 7.06 7.06 0 0 0-3 2.8H109l-.6-3.14h-5.77v37.74h7.06V59h.31a6.44 6.44 0 0 0 1.66 1.59 6.85 6.85 0 0 0 2.17 1 10.67 10.67 0 0 0 2.58.3 9 9 0 0 0 4.87-1.29 8.29 8.29 0 0 0 3.19-3.92 17.11 17.11 0 0 0 1.09-6.68 17.27 17.27 0 0 0-1.12-6.68 8.26 8.26 0 0 0-3.21-3.9Zm-2.78 11.33a9.4 9.4 0 0 1-.43 3.06 3.59 3.59 0 0 1-1.4 1.89 4.56 4.56 0 0 1-2.56.65 4.41 4.41 0 0 1-2-.43 3.74 3.74 0 0 1-1.38-1.21 5.17 5.17 0 0 1-.78-1.85 11 11 0 0 1-.23-2.37v-1a9.48 9.48 0 0 1 .45-3.08 4.06 4.06 0 0 1 1.42-2 4.2 4.2 0 0 1 2.52-.71 4.64 4.64 0 0 1 2.56.63 3.52 3.52 0 0 1 1.4 1.89 9.62 9.62 0 0 1 .43 3.08ZM147 39.38a14.27 14.27 0 0 0-6.27-1.25 14.63 14.63 0 0 0-6.41 1.29 9 9 0 0 0-4.09 3.92 13.79 13.79 0 0 0-1.44 6.66 13.89 13.89 0 0 0 1.44 6.72 9 9 0 0 0 4.16 3.9 15.35 15.35 0 0 0 6.61 1.24 18.41 18.41 0 0 0 4.72-.56 10.23 10.23 0 0 0 3.55-1.66 7 7 0 0 0 2.22-2.71 8.64 8.64 0 0 0 .75-3.68h-6.84a3.7 3.7 0 0 1-.31 1.55 3.24 3.24 0 0 1-.89 1.2 3.86 3.86 0 0 1-1.37.76 6.43 6.43 0 0 1-1.9.25 5.56 5.56 0 0 1-2.88-.64 3.86 3.86 0 0 1-1.6-1.9 8.07 8.07 0 0 1-.51-3.05h16.27v-1.53a14.57 14.57 0 0 0-1.33-6.68 8.46 8.46 0 0 0-3.88-3.83Zm-11 8.1a6.48 6.48 0 0 1 .73-2.46 3.74 3.74 0 0 1 1.59-1.51 5.83 5.83 0 0 1 2.59-.51 4.89 4.89 0 0 1 1.74.28 3.4 3.4 0 0 1 1.29.84 3.66 3.66 0 0 1 .82 1.4 6.1 6.1 0 0 1 .28 2ZM163.06 45.93a4 4 0 0 1 1.49-2 4.61 4.61 0 0 1 2.65-.69 5.21 5.21 0 0 1 2.37.48 3.19 3.19 0 0 1 1.43 1.39 5.16 5.16 0 0 1 .5 2.41h6.93a10.05 10.05 0 0 0-.82-4.22 7.74 7.74 0 0 0-2.35-2.93 10.39 10.39 0 0 0-3.57-1.72 17 17 0 0 0-4.46-.56 14.23 14.23 0 0 0-6.33 1.29 9.07 9.07 0 0 0-4 3.94 14.05 14.05 0 0 0-1.46 6.68 14.22 14.22 0 0 0 1.4 6.66 8.93 8.93 0 0 0 4 3.94 14.32 14.32 0 0 0 6.37 1.29 16.4 16.4 0 0 0 4.48-.58 10.27 10.27 0 0 0 3.57-1.75 7.62 7.62 0 0 0 2.33-3 9.94 9.94 0 0 0 .82-4.15h-6.63a5.17 5.17 0 0 1-.52 2.43 3.15 3.15 0 0 1-1.49 1.42 5.72 5.72 0 0 1-2.43.46 5.22 5.22 0 0 1-2.76-.67 3.8 3.8 0 0 1-1.55-2 10.07 10.07 0 0 1-.47-3.28v-1.53a10.14 10.14 0 0 1 .5-3.31ZM182.87 30.17h7.06v5.43h-7.06zM182.87 38.65h7.06v22.69h-7.06zM216.44 56.31a1.65 1.65 0 0 1-.41-1.17v-9.69a6.22 6.22 0 0 0-1.35-4.17 8 8 0 0 0-3.68-2.37 17.39 17.39 0 0 0-5.49-.78 17.8 17.8 0 0 0-5.73.82 8.05 8.05 0 0 0-3.63 2.33 5.28 5.28 0 0 0-1.27 3.53v.41a1.71 1.71 0 0 0 0 .36h6.89v-.39a1.74 1.74 0 0 1 .43-1.18 2.67 2.67 0 0 1 1.27-.75 6.42 6.42 0 0 1 2-.26 4.68 4.68 0 0 1 2 .36 2.62 2.62 0 0 1 1.14 1 3.24 3.24 0 0 1 .39 1.66v1.42a50.79 50.79 0 0 0-6.22.34 16.53 16.53 0 0 0-4.78 1.27 6.88 6.88 0 0 0-3 2.43 7.08 7.08 0 0 0-1 4 6.8 6.8 0 0 0 .65 3.14 5 5 0 0 0 1.74 2 7.31 7.31 0 0 0 2.46 1 13.45 13.45 0 0 0 2.78.28 13.13 13.13 0 0 0 3.29-.37 8.69 8.69 0 0 0 2.54-1.05 10.25 10.25 0 0 0 1.92-1.55h.3a3.33 3.33 0 0 0 1 1.57 4.62 4.62 0 0 0 1.81 1 7.9 7.9 0 0 0 2.56.37 9 9 0 0 0 2.43-.28 10.46 10.46 0 0 0 1.49-.5v-4.35h-1.47a1.36 1.36 0 0 1-1.06-.43ZM209 52.86a3.94 3.94 0 0 1-1.36 3 4.46 4.46 0 0 1-1.48.84 5.78 5.78 0 0 1-1.9.3 5.25 5.25 0 0 1-1.63-.23 2.27 2.27 0 0 1-1.1-.78 2.19 2.19 0 0 1-.41-1.35 2.27 2.27 0 0 1 .95-1.86 6.52 6.52 0 0 1 2.71-1.07 22.28 22.28 0 0 1 4.22-.35ZM221.8 30.17h7.06v31.18h-7.06zM261.25 44.89c-.17.72-.36 1.5-.56 2.35s-.39 1.65-.56 2.41-.32 1.42-.43 2h-.35c-.14-.69-.31-1.46-.51-2.33s-.41-1.68-.61-2.47-.37-1.41-.51-1.87l-3.58-13.18H242.9v29.54h7V45.43c0-1.16-.06-2.28-.09-3.36s0-2-.08-2.73h.34c.14.57.31 1.28.5 2.11s.38 1.65.58 2.45l.51 2.07L256 61.34h6.21L266.5 46c.17-.63.37-1.39.58-2.26s.42-1.72.61-2.54.32-1.44.4-1.88h.35v2.24c0 1.03 0 2.19-.07 3.45s0 2.51 0 3.75v12.58h7.49V31.76h-11ZM302.87 56.31a1.65 1.65 0 0 1-.41-1.17v-9.69a6.18 6.18 0 0 0-1.36-4.17 7.92 7.92 0 0 0-3.7-2.37 17.48 17.48 0 0 0-5.49-.78 17.8 17.8 0 0 0-5.73.82 8.09 8.09 0 0 0-3.64 2.33 5.33 5.33 0 0 0-1.27 3.53v.41a1.81 1.81 0 0 0 .05.36h6.89v-.39a1.74 1.74 0 0 1 .43-1.18 2.62 2.62 0 0 1 1.27-.75 6.42 6.42 0 0 1 2-.26 4.68 4.68 0 0 1 2 .36 2.62 2.62 0 0 1 1.14 1 3.24 3.24 0 0 1 .39 1.66v1.42a51.07 51.07 0 0 0-6.23.34 16.37 16.37 0 0 0-4.73 1.23 6.91 6.91 0 0 0-3 2.43 7.16 7.16 0 0 0-1 4 6.8 6.8 0 0 0 .65 3.14 5 5 0 0 0 1.74 2 7.23 7.23 0 0 0 2.46 1 13.42 13.42 0 0 0 2.77.28 13.15 13.15 0 0 0 3.3-.37 8.69 8.69 0 0 0 2.54-1.05 9.86 9.86 0 0 0 1.91-1.55h.31a3.33 3.33 0 0 0 1 1.57 4.65 4.65 0 0 0 1.8 1 8 8 0 0 0 2.57.37 9.12 9.12 0 0 0 2.43-.28 10.23 10.23 0 0 0 1.48-.5v-4.31h-1.46a1.36 1.36 0 0 1-1.11-.43Zm-7.47-3.45a4 4 0 0 1-.37 1.68 3.79 3.79 0 0 1-1 1.31 4.51 4.51 0 0 1-1.49.84 5.68 5.68 0 0 1-1.89.3 5.32 5.32 0 0 1-1.64-.23 2.24 2.24 0 0 1-1.09-.78 2.13 2.13 0 0 1-.41-1.35 2.26 2.26 0 0 1 .94-1.86 6.63 6.63 0 0 1 2.72-1.07 22.21 22.21 0 0 1 4.22-.35ZM329.16 41.75a6 6 0 0 0-2.61-2.75 8.66 8.66 0 0 0-4.15-.91 10.65 10.65 0 0 0-3 .43 8.12 8.12 0 0 0-2.54 1.29 10.3 10.3 0 0 0-2 2h-.3l-.56-3.16h-5.81v22.69h7.06V48.08a4.46 4.46 0 0 1 .56-2.26 4.31 4.31 0 0 1 1.51-1.55 4.07 4.07 0 0 1 2.19-.58 4.74 4.74 0 0 1 1.47.21 2.64 2.64 0 0 1 1.08.69 3.56 3.56 0 0 1 .66 1.14 4.85 4.85 0 0 1 .24 1.62v14h7.06v-15a10.34 10.34 0 0 0-.86-4.6Z" class="cls-2"/></g></g></svg>