<svg width="2608" height="964" viewBox="0 0 2608 964" fill="none" xmlns="http://www.w3.org/2000/svg">
<g clip-path="url(#clip0_1_5)">
<path d="M324.494 432.72V865.44C324.873 877.042 322.916 888.602 318.738 899.432C314.56 910.262 308.247 920.142 300.174 928.483C292.101 936.824 282.433 943.457 271.745 947.987C261.057 952.516 249.567 954.851 237.959 954.851C226.351 954.851 214.862 952.516 204.174 947.987C193.486 943.457 183.818 936.824 175.745 928.483C167.672 920.142 161.359 910.262 157.181 899.432C153.003 888.602 151.045 877.042 151.425 865.44V432.72H86.6738C75.0718 433.099 63.5121 431.142 52.6818 426.964C41.8516 422.786 31.9722 416.473 23.6309 408.4C15.2896 400.327 8.65694 390.659 4.1272 379.971C-0.402543 369.283 -2.73682 357.793 -2.73682 346.185C-2.73682 334.577 -0.402543 323.087 4.1272 312.4C8.65694 301.712 15.2896 292.044 23.6309 283.971C31.9722 275.898 41.8516 269.585 52.6818 265.407C63.5121 261.229 75.0718 259.271 86.6738 259.65H151.425C151.449 190.794 178.813 124.766 227.502 76.0769C276.19 27.3883 342.219 0.024517 411.075 0L454.366 0C477.267 0.169727 499.181 9.34904 515.367 25.5521C531.553 41.7551 540.709 63.6791 540.854 86.581C540.709 109.474 531.55 131.389 515.361 147.577C499.173 163.765 477.259 172.924 454.366 173.069H411.075C388.157 173.215 366.219 182.384 350.014 198.589C333.808 214.795 324.64 236.733 324.494 259.65H453.996C476.456 260.385 497.752 269.824 513.38 285.972C529.009 302.12 537.747 323.712 537.747 346.185C537.747 368.658 529.009 390.25 513.38 406.399C497.752 422.547 476.456 431.986 453.996 432.72H324.494Z" fill="#121549"/>
<path d="M778.859 865.44C779.239 877.042 777.281 888.602 773.103 899.432C768.925 910.262 762.612 920.142 754.539 928.483C746.466 936.824 736.798 943.457 726.11 947.987C715.422 952.516 703.933 954.851 692.324 954.851C680.716 954.851 669.227 952.516 658.539 947.987C647.851 943.457 638.183 936.824 630.11 928.483C622.037 920.142 615.724 910.262 611.546 899.432C607.368 888.602 605.41 877.042 605.79 865.44V346.139C606.524 323.678 615.963 302.383 632.111 286.754C648.259 271.125 669.852 262.388 692.324 262.388C714.797 262.388 736.389 271.125 752.538 286.754C768.686 302.383 778.125 323.678 778.859 346.139V865.44Z" fill="#121549"/>
<path d="M1828.19 865.44C1828.57 877.042 1826.61 888.602 1822.43 899.432C1818.26 910.262 1811.94 920.142 1803.87 928.483C1795.8 936.824 1786.13 943.457 1775.44 947.987C1764.75 952.516 1753.26 954.851 1741.66 954.851C1730.05 954.851 1718.56 952.516 1707.87 947.987C1697.18 943.457 1687.52 936.824 1679.44 928.483C1671.37 920.142 1665.06 910.262 1660.88 899.432C1656.7 888.602 1654.74 877.042 1655.12 865.44V346.139C1655.86 323.678 1665.29 302.383 1681.44 286.754C1697.59 271.125 1719.18 262.388 1741.66 262.388C1764.13 262.388 1785.72 271.125 1801.87 286.754C1818.02 302.383 1827.46 323.678 1828.19 346.139V865.44Z" fill="#121549"/>
<path d="M1741.61 21.7378C1760.86 21.7195 1779.69 27.4135 1795.71 38.0992C1811.73 48.7848 1824.21 63.9818 1831.59 81.7669C1838.97 99.5519 1840.9 119.126 1837.15 138.011C1833.4 156.896 1824.13 174.243 1810.51 187.858C1796.9 201.473 1779.55 210.743 1760.66 214.495C1741.78 218.247 1722.21 216.312 1704.42 208.935C1686.64 201.558 1671.44 189.071 1660.75 173.054C1650.07 157.038 1644.37 138.211 1644.39 118.956C1644.46 93.195 1654.73 68.5096 1672.95 50.2934C1691.16 32.0772 1715.85 21.8111 1741.61 21.7378Z" fill="#121549"/>
<path d="M692.278 21.7378C711.532 21.7195 730.359 27.4135 746.376 38.0992C762.393 48.7848 774.88 63.9818 782.256 81.7669C789.633 99.5519 791.568 119.126 787.816 138.011C784.064 156.896 774.795 174.243 761.18 187.858C747.565 201.473 730.217 210.743 711.332 214.495C692.447 218.247 672.873 216.312 655.088 208.935C637.303 201.558 622.106 189.071 611.421 173.054C600.735 157.038 595.041 138.211 595.059 118.956C595.133 93.195 605.399 68.5096 623.615 50.2934C641.831 32.0772 666.516 21.8111 692.278 21.7378Z" fill="#121549"/>
<path d="M1460.59 0C1437.67 0.145514 1415.74 9.31414 1399.53 25.5198C1383.32 41.7254 1374.16 63.6632 1374.01 86.581V307.104C1328.06 280.609 1276.63 265.035 1223.7 261.586C1170.77 258.136 1117.76 266.903 1068.76 287.21C1019.76 307.517 976.084 338.818 941.11 378.696C906.136 418.574 880.8 465.96 867.06 517.191C853.32 568.422 851.544 622.127 861.869 674.154C872.195 726.181 894.346 775.137 926.609 817.238C958.872 859.339 1000.38 893.458 1047.94 916.957C1095.49 940.456 1147.81 952.706 1200.85 952.761C1260.81 953.013 1319.72 937.031 1371.33 906.51H1371.88C1363.69 888.432 1361.23 868.279 1364.83 848.76C1368.43 829.24 1377.91 811.29 1392.01 797.321C1406.11 783.352 1424.15 774.033 1443.7 770.617C1463.25 767.201 1483.38 769.851 1501.38 778.211C1531.12 725.87 1547.04 666.818 1547.64 606.622V86.581C1547.49 63.5834 1538.26 41.5763 1521.95 25.3576C1505.65 9.13889 1483.59 0.0239476 1460.59 0ZM1200.85 779.137C1166.6 779.137 1133.12 768.981 1104.65 749.953C1076.17 730.926 1053.97 703.882 1040.87 672.241C1027.76 640.6 1024.33 605.782 1031.01 572.192C1037.7 538.602 1054.19 507.748 1078.4 483.53C1102.62 459.313 1133.48 442.821 1167.07 436.14C1200.66 429.458 1235.47 432.887 1267.12 445.994C1298.76 459.1 1325.8 481.295 1344.83 509.771C1363.86 538.247 1374.01 571.726 1374.01 605.975C1374.08 628.735 1369.66 651.285 1360.98 672.327C1352.3 693.369 1339.55 712.488 1323.46 728.582C1307.36 744.676 1288.24 757.428 1267.2 766.105C1246.16 774.781 1223.61 779.21 1200.85 779.137Z" fill="#121549"/>
<path d="M1460.5 768.591C1479.75 768.591 1498.57 774.301 1514.57 784.998C1530.58 795.694 1543.05 810.898 1550.41 828.685C1557.77 846.471 1559.7 866.042 1555.93 884.921C1552.17 903.8 1542.89 921.139 1529.28 934.745C1515.66 948.35 1498.31 957.611 1479.43 961.355C1460.54 965.099 1440.98 963.159 1423.2 955.78C1405.42 948.4 1390.22 935.913 1379.54 919.898C1368.86 903.883 1363.17 885.06 1363.19 865.81C1363.26 840.033 1373.54 815.333 1391.78 797.114C1410.01 778.896 1434.72 768.64 1460.5 768.591Z" fill="#121549"/>
<path d="M2421.12 905.77C2415.43 893.22 2412.49 879.593 2412.52 865.81C2412.59 840.048 2422.86 815.363 2441.08 797.147C2459.29 778.931 2483.98 768.664 2509.74 768.591C2523.76 768.671 2537.59 771.829 2550.25 777.841C2580.03 725.482 2595.95 666.39 2596.51 606.159C2596.51 537.677 2576.2 470.733 2538.15 413.794C2500.1 356.854 2446.02 312.477 2382.75 286.274C2319.48 260.072 2249.86 253.221 2182.69 266.587C2115.53 279.954 2053.84 312.939 2005.42 361.37C1957 409.8 1924.03 471.501 1910.68 538.67C1897.33 605.838 1904.2 675.457 1930.42 738.721C1956.64 801.985 2001.04 856.052 2057.98 894.085C2114.93 932.119 2181.88 952.409 2250.37 952.391C2310.29 952.631 2369.17 936.649 2420.75 906.14M2250.09 778.859C2215.87 778.786 2182.45 768.573 2154.04 749.512C2125.62 730.45 2103.5 703.395 2090.46 671.764C2077.41 640.134 2074.04 605.347 2080.76 571.799C2087.48 538.251 2103.99 507.448 2128.21 483.281C2152.43 459.113 2183.27 442.667 2216.83 436.019C2250.39 429.371 2285.17 432.82 2316.77 445.93C2348.38 459.04 2375.39 481.223 2394.39 509.676C2413.39 538.129 2423.53 571.575 2423.53 605.789C2423.59 628.566 2419.14 651.129 2410.44 672.178C2401.74 693.228 2388.97 712.348 2372.84 728.436C2356.72 744.524 2337.57 757.262 2316.51 765.916C2295.44 774.57 2272.86 778.969 2250.09 778.859Z" fill="#121549"/>
<path d="M2509.74 768.591C2528.99 768.573 2547.82 774.267 2563.84 784.953C2579.85 795.638 2592.34 810.835 2599.72 828.62C2607.09 846.405 2609.03 865.979 2605.28 884.864C2601.53 903.749 2592.26 921.097 2578.64 934.712C2565.03 948.327 2547.68 957.596 2528.79 961.348C2509.91 965.1 2490.33 963.165 2472.55 955.788C2454.76 948.412 2439.57 935.925 2428.88 919.908C2418.2 903.891 2412.5 885.064 2412.52 865.81C2412.59 840.049 2422.86 815.363 2441.08 797.147C2459.29 778.931 2483.98 768.665 2509.74 768.591Z" fill="#121549"/>
<path d="M1206.31 514.121C1225.55 514.121 1244.37 519.828 1260.37 530.521C1276.37 541.214 1288.84 556.412 1296.21 574.193C1303.58 591.974 1305.5 611.54 1301.75 630.417C1297.99 649.293 1288.73 666.632 1275.12 680.242C1261.51 693.851 1244.17 703.119 1225.29 706.874C1206.41 710.628 1186.85 708.701 1169.07 701.336C1151.29 693.971 1136.09 681.498 1125.4 665.495C1114.7 649.493 1109 630.679 1109 611.432C1109.04 585.639 1119.31 560.916 1137.55 542.677C1155.79 524.438 1180.51 514.17 1206.31 514.121Z" fill="#F49C00"/>
</g>
<defs>
<clipPath id="clip0_1_5">
<rect width="2607.05" height="963.121" fill="white"/>
</clipPath>
</defs>
</svg>
