<svg width="920" height="867" viewBox="0 0 920 867" fill="none" 
    xmlns="http://www.w3.org/2000/svg">
    <path d="M527.017 394.761C611.602 345.926 640.578 237.762 591.739 153.169C542.899 68.5761 434.737 39.5884 350.153 88.4231C265.569 137.258 236.592 245.422 285.432 330.015C334.272 414.608 442.433 443.595 527.017 394.761ZM551.887 176.177C574.424 215.212 574.564 261.032 556.292 298.753C552.938 306.098 548.869 313.147 544.119 319.786C539.744 325.898 538.829 334.014 542.588 340.524C547.428 348.908 544.556 359.628 536.174 364.467L496.784 387.209C488.513 391.984 477.936 389.15 473.16 380.878C469.427 374.413 461.974 371.193 454.55 371.98C446.088 372.877 437.605 372.909 429.231 372.109C387.43 369.071 347.82 346.041 325.283 307.007C289.152 244.426 310.589 164.406 373.164 128.278C435.739 92.1506 515.756 113.596 551.887 176.177ZM498.518 430.594C492.344 434.159 490.229 442.054 493.794 448.228C497.359 454.403 505.254 456.519 511.428 452.954L585.209 410.356C591.383 406.792 593.499 398.897 589.934 392.722C586.369 386.547 578.474 384.431 572.3 387.996L498.518 430.594ZM534.415 455.335C520.441 463.403 530.399 470.324 530.399 470.324C530.399 470.324 539.348 473.851 545.388 474.341C564.482 475.892 579.665 467.126 587.869 449.815C590.464 444.339 591.884 434.826 591.884 434.826C591.884 434.826 590.31 423.064 576.895 430.809L534.415 455.335Z" fill="#FFCF85"/>
    <path d="M527.017 394.761C611.602 345.926 640.578 237.762 591.739 153.169C542.899 68.5761 434.737 39.5884 350.153 88.4231C265.569 137.258 236.592 245.422 285.432 330.015C334.272 414.608 442.433 443.595 527.017 394.761ZM551.887 176.177C574.424 215.212 574.564 261.032 556.292 298.753C552.938 306.098 548.869 313.147 544.119 319.786C539.744 325.898 538.829 334.014 542.588 340.524C547.428 348.908 544.556 359.628 536.174 364.467L496.784 387.209C488.513 391.984 477.936 389.15 473.16 380.878C469.427 374.413 461.974 371.193 454.55 371.98C446.088 372.877 437.605 372.909 429.231 372.109C387.43 369.071 347.82 346.041 325.283 307.007C289.152 244.426 310.589 164.406 373.164 128.278C435.739 92.1506 515.756 113.596 551.887 176.177ZM498.518 430.594C492.344 434.159 490.229 442.054 493.794 448.228C497.359 454.403 505.254 456.519 511.428 452.954L585.209 410.356C591.383 406.792 593.499 398.897 589.934 392.722C586.369 386.547 578.474 384.431 572.3 387.996L498.518 430.594ZM534.415 455.335C520.441 463.403 530.399 470.324 530.399 470.324C530.399 470.324 539.348 473.851 545.388 474.341C564.482 475.892 579.665 467.126 587.869 449.815C590.464 444.339 591.884 434.826 591.884 434.826C591.884 434.826 590.31 423.064 576.895 430.809L534.415 455.335Z" stroke="black"/>
    <path d="M0 604.181H18.6488V744.047H90.5798V761.363H0V604.181Z" fill="black"/>
    <path d="M109.451 657.463H126.767V761.363H109.451V657.463ZM105.454 616.835C105.454 613.431 106.639 610.471 109.007 607.955C111.523 605.439 114.557 604.181 118.109 604.181C121.661 604.181 124.621 605.439 126.989 607.955C129.505 610.471 130.764 613.431 130.764 616.835C130.764 620.535 129.579 623.569 127.211 625.938C124.843 628.306 121.809 629.49 118.109 629.49C114.409 629.49 111.375 628.306 109.007 625.938C106.639 623.569 105.454 620.535 105.454 616.835Z" fill="black"/>
    <path d="M264.909 756.701C264.909 775.646 260.025 790.002 250.257 799.771C240.636 809.687 226.65 814.646 208.297 814.646C198.084 814.646 188.834 813.165 180.546 810.205C172.405 807.245 164.635 802.139 157.235 794.887L169.667 780.678C175.143 786.598 180.916 791.039 186.984 793.999C193.2 797.107 200.305 798.661 208.297 798.661C215.993 798.661 222.357 797.477 227.39 795.109C232.57 792.889 236.64 789.78 239.6 785.784C242.56 781.936 244.632 777.496 245.816 772.464C247 767.432 247.593 762.177 247.593 756.701V743.381H247.149C243.004 750.041 237.602 754.925 230.942 758.033C224.282 761.141 217.473 762.695 210.517 762.695C202.377 762.695 194.902 761.363 188.094 758.699C181.286 756.035 175.439 752.335 170.555 747.599C165.671 742.862 161.897 737.238 159.233 730.726C156.569 724.214 155.237 717.109 155.237 709.413C155.237 700.977 156.569 693.354 159.233 686.546C161.897 679.738 165.597 674.04 170.333 669.451C175.217 664.715 181.064 661.089 187.872 658.573C194.68 656.057 202.229 654.799 210.517 654.799C214.069 654.799 217.621 655.243 221.173 656.131C224.726 656.871 228.13 658.129 231.386 659.905C234.79 661.533 237.824 663.679 240.488 666.343C243.152 668.859 245.372 671.819 247.149 675.224H247.593V657.463H264.909V756.701ZM173.885 709.413C173.885 714.741 174.847 719.7 176.772 724.288C178.696 728.728 181.286 732.65 184.542 736.054C187.946 739.31 191.868 741.9 196.308 743.825C200.749 745.749 205.485 746.711 210.517 746.711C216.437 746.711 221.691 745.675 226.28 743.603C230.868 741.53 234.716 738.792 237.824 735.388C241.08 731.836 243.522 727.84 245.15 723.4C246.778 718.811 247.593 714.001 247.593 708.969C247.593 703.345 246.704 698.239 244.928 693.65C243.152 688.914 240.636 684.844 237.38 681.44C234.124 678.036 230.202 675.446 225.614 673.67C221.025 671.745 215.993 670.783 210.517 670.783C205.041 670.783 200.009 671.819 195.42 673.892C190.98 675.816 187.132 678.554 183.876 682.106C180.768 685.51 178.326 689.58 176.549 694.316C174.773 698.905 173.885 703.937 173.885 709.413Z" fill="black"/>
    <path d="M296.951 593.524H314.268V671.893H314.712C315.896 669.821 317.524 667.823 319.596 665.899C321.668 663.827 324.111 661.977 326.923 660.349C329.883 658.721 333.139 657.389 336.691 656.353C340.243 655.317 344.017 654.799 348.014 654.799C354.822 654.799 360.668 655.835 365.552 657.907C370.585 659.979 374.729 662.865 377.985 666.565C381.241 670.265 383.609 674.78 385.089 680.108C386.717 685.288 387.531 690.986 387.531 697.203V761.363H370.215V698.979C370.215 690.246 368.29 683.364 364.442 678.332C360.594 673.3 354.6 670.783 346.46 670.783C340.835 670.783 335.951 671.745 331.807 673.67C327.811 675.594 324.481 678.332 321.816 681.884C319.3 685.436 317.376 689.654 316.044 694.538C314.86 699.423 314.268 704.825 314.268 710.745V761.363H296.951V593.524Z" fill="black"/>
    <path d="M477.149 672.116H446.511V724.066C446.511 727.47 446.585 730.652 446.733 733.612C446.881 736.424 447.473 738.94 448.509 741.16C449.545 743.232 451.099 744.935 453.171 746.267C455.244 747.451 458.204 748.043 462.052 748.043C464.568 748.043 467.158 747.747 469.822 747.155C472.486 746.563 475.002 745.675 477.371 744.491L478.037 760.253C475.076 761.585 471.746 762.547 468.046 763.139C464.494 763.731 461.09 764.027 457.834 764.027C451.617 764.027 446.659 763.213 442.959 761.585C439.259 759.957 436.373 757.663 434.301 754.703C432.229 751.743 430.823 748.117 430.083 743.825C429.491 739.384 429.194 734.5 429.194 729.172V672.116H406.55V657.463H429.194V627.936H446.511V657.463H477.149V672.116Z" fill="black"/>
    <path d="M497.693 593.524H515.01V672.56H515.454C520.19 666.935 525.666 662.569 531.883 659.461C538.247 656.353 545.203 654.799 552.751 654.799C560.892 654.799 568.292 656.205 574.952 659.017C581.761 661.681 587.533 665.455 592.269 670.339C597.005 675.224 600.705 680.996 603.37 687.656C606.034 694.316 607.366 701.569 607.366 709.413C607.366 717.257 606.034 724.51 603.37 731.17C600.705 737.83 597.005 743.603 592.269 748.487C587.681 753.371 582.205 757.219 575.84 760.031C569.476 762.695 562.668 764.027 555.416 764.027C546.091 764.027 537.877 762.029 530.772 758.033C523.816 753.889 518.71 748.857 515.454 742.936H515.01V761.363H497.693V593.524ZM515.01 709.413C515.01 714.889 515.824 719.996 517.452 724.732C519.228 729.32 521.744 733.39 525 736.942C528.256 740.346 532.104 743.085 536.545 745.157C541.133 747.081 546.239 748.043 551.863 748.043C557.488 748.043 562.52 747.081 566.96 745.157C571.548 743.085 575.47 740.346 578.727 736.942C581.983 733.39 584.425 729.32 586.053 724.732C587.829 719.996 588.717 714.889 588.717 709.413C588.717 703.937 587.829 698.905 586.053 694.316C584.425 689.58 581.983 685.51 578.727 682.106C575.47 678.554 571.548 675.816 566.96 673.892C562.52 671.819 557.488 670.783 551.863 670.783C546.239 670.783 541.133 671.819 536.545 673.892C532.104 675.816 528.256 678.554 525 682.106C521.744 685.51 519.228 689.58 517.452 694.316C515.824 698.905 515.01 703.937 515.01 709.413Z" fill="black"/>
    <path d="M724.882 736.72C724.882 741.456 725.029 745.897 725.326 750.041C725.622 754.185 725.77 757.959 725.77 761.363H709.341C709.341 758.551 709.267 755.739 709.119 752.927C708.971 750.115 708.897 747.229 708.897 744.269H708.453C707.269 746.785 705.567 749.227 703.347 751.595C701.275 753.963 698.758 756.109 695.798 758.033C692.838 759.809 689.508 761.215 685.808 762.251C682.108 763.435 678.112 764.027 673.819 764.027C667.011 764.027 661.091 762.991 656.059 760.919C651.174 758.847 647.104 755.961 643.848 752.261C640.592 748.561 638.15 744.121 636.522 738.94C635.042 733.612 634.302 727.84 634.302 721.624V657.463H651.618V719.848C651.618 728.58 653.542 735.462 657.391 740.494C661.239 745.527 667.233 748.043 675.373 748.043C680.998 748.043 685.808 747.081 689.804 745.157C693.948 743.233 697.278 740.494 699.794 736.942C702.459 733.39 704.383 729.172 705.567 724.288C706.899 719.403 707.565 714.001 707.565 708.081V657.463H724.882V736.72Z" fill="black"/>
    <path d="M759.218 593.524H776.535V761.363H759.218V593.524Z" fill="black"/>
    <path d="M810.327 593.524H827.644V672.56H828.088C832.824 666.935 838.301 662.569 844.517 659.461C850.881 656.353 857.837 654.799 865.386 654.799C873.526 654.799 880.926 656.205 887.587 659.017C894.395 661.681 900.167 665.455 904.903 670.339C909.64 675.224 913.34 680.996 916.004 687.656C918.668 694.316 920 701.569 920 709.413C920 717.257 918.668 724.51 916.004 731.17C913.34 737.83 909.64 743.603 904.903 748.487C900.315 753.371 894.839 757.219 888.475 760.031C882.11 762.695 875.302 764.027 868.05 764.027C858.725 764.027 850.511 762.029 843.407 758.033C836.451 753.889 831.344 748.857 828.088 742.936H827.644V761.363H810.327V593.524ZM827.644 709.413C827.644 714.889 828.458 719.996 830.086 724.732C831.862 729.32 834.378 733.39 837.635 736.942C840.891 740.346 844.739 743.085 849.179 745.157C853.767 747.081 858.873 748.043 864.498 748.043C870.122 748.043 875.154 747.081 879.594 745.157C884.182 743.085 888.105 740.346 891.361 736.942C894.617 733.39 897.059 729.32 898.687 724.732C900.463 719.996 901.351 714.889 901.351 709.413C901.351 703.937 900.463 698.905 898.687 694.316C897.059 689.58 894.617 685.51 891.361 682.106C888.105 678.554 884.182 675.816 879.594 673.892C875.154 671.819 870.122 670.783 864.498 670.783C858.873 670.783 853.767 671.819 849.179 673.892C844.739 675.816 840.891 678.554 837.635 682.106C834.378 685.51 831.862 689.58 830.086 694.316C828.458 698.905 827.644 703.937 827.644 709.413Z" fill="black"/>
    <path d="M27.8 852.399C27.8 854.299 27.5833 856.116 27.15 857.849C26.7167 859.582 25.9833 861.116 24.95 862.449C23.95 863.782 22.6167 864.849 20.95 865.649C19.3167 866.449 17.3 866.849 14.9 866.849C12.5 866.849 10.4667 866.449 8.8 865.649C7.16667 864.849 5.83333 863.782 4.8 862.449C3.8 861.116 3.08333 859.582 2.65 857.849C2.21667 856.116 2 854.299 2 852.399V830.549H5.3V851.549C5.3 852.816 5.41667 854.166 5.65 855.599C5.88333 857.032 6.33333 858.366 7 859.599C7.7 860.832 8.66667 861.849 9.9 862.649C11.1667 863.449 12.8333 863.849 14.9 863.849C16.9667 863.849 18.6167 863.449 19.85 862.649C21.1167 861.849 22.0833 860.832 22.75 859.599C23.45 858.366 23.9167 857.032 24.15 855.599C24.3833 854.166 24.5 852.816 24.5 851.549V830.549H27.8V852.399Z" fill="black"/>
    <path d="M59.5297 859.399C60.3964 860.899 61.513 862.016 62.8797 862.749C64.2797 863.482 65.863 863.849 67.6297 863.849C68.7297 863.849 69.763 863.682 70.7297 863.349C71.6964 863.016 72.5297 862.549 73.2297 861.949C73.963 861.349 74.5297 860.632 74.9297 859.799C75.363 858.932 75.5797 857.966 75.5797 856.899C75.5797 855.666 75.313 854.649 74.7797 853.849C74.2797 853.049 73.5964 852.399 72.7297 851.899C71.863 851.366 70.8797 850.916 69.7797 850.549C68.713 850.182 67.5964 849.816 66.4297 849.449C65.2964 849.082 64.1797 848.666 63.0797 848.199C62.013 847.732 61.0464 847.132 60.1797 846.399C59.313 845.632 58.613 844.682 58.0797 843.549C57.5797 842.416 57.3297 841.016 57.3297 839.349C57.3297 837.782 57.6297 836.399 58.2297 835.199C58.863 833.966 59.6964 832.949 60.7297 832.149C61.7964 831.316 63.013 830.699 64.3797 830.299C65.7464 829.866 67.1797 829.649 68.6797 829.649C70.613 829.649 72.3964 829.999 74.0297 830.699C75.6964 831.366 77.1297 832.499 78.3297 834.099L75.4797 836.149C74.6464 834.982 73.663 834.116 72.5297 833.549C71.4297 832.949 70.113 832.649 68.5797 832.649C67.513 832.649 66.4964 832.799 65.5297 833.099C64.563 833.366 63.713 833.782 62.9797 834.349C62.2797 834.882 61.713 835.566 61.2797 836.399C60.8464 837.232 60.6297 838.216 60.6297 839.349C60.6297 841.116 61.0797 842.482 61.9797 843.449C62.8797 844.382 63.9964 845.132 65.3297 845.699C66.6964 846.232 68.163 846.716 69.7297 847.149C71.3297 847.549 72.7964 848.099 74.1297 848.799C75.4964 849.499 76.6297 850.482 77.5297 851.749C78.4297 852.982 78.8797 854.699 78.8797 856.899C78.8797 858.499 78.5797 859.916 77.9797 861.149C77.3797 862.382 76.563 863.432 75.5297 864.299C74.5297 865.132 73.363 865.766 72.0297 866.199C70.6964 866.632 69.313 866.849 67.8797 866.849C65.5464 866.849 63.3964 866.449 61.4297 865.649C59.463 864.816 57.7797 863.432 56.3797 861.499L59.5297 859.399Z" fill="black"/>
    <path d="M108.113 830.549H129.763V833.549H111.413V846.149H128.613V849.149H111.413V862.949H130.563V865.949H108.113V830.549Z" fill="black"/>
    <path d="M162.802 846.149H169.802C171.535 846.149 172.935 845.932 174.002 845.499C175.102 845.066 175.952 844.532 176.552 843.899C177.152 843.266 177.552 842.582 177.752 841.849C177.985 841.116 178.102 840.449 178.102 839.849C178.102 839.249 177.985 838.582 177.752 837.849C177.552 837.116 177.152 836.432 176.552 835.799C175.952 835.166 175.102 834.632 174.002 834.199C172.935 833.766 171.535 833.549 169.802 833.549H162.802V846.149ZM159.502 830.549H168.802C169.268 830.549 169.902 830.566 170.702 830.599C171.502 830.632 172.368 830.732 173.302 830.899C174.235 831.066 175.185 831.332 176.152 831.699C177.118 832.066 177.985 832.599 178.752 833.299C179.518 833.999 180.152 834.882 180.652 835.949C181.152 837.016 181.402 838.316 181.402 839.849C181.402 841.549 181.102 842.949 180.502 844.049C179.935 845.149 179.202 846.049 178.302 846.749C177.435 847.416 176.468 847.916 175.402 848.249C174.335 848.582 173.318 848.816 172.352 848.949L182.652 865.949H178.902L168.952 849.149H162.802V865.949H159.502V830.549Z" fill="black"/>
    <path d="M245.629 830.549H267.279V833.549H248.929V846.149H266.129V849.149H248.929V862.949H268.079V865.949H245.629V830.549Z" fill="black"/>
    <path d="M305.517 847.349L293.417 830.549H297.317L307.517 844.949L317.567 830.549H321.517L309.517 847.349L322.667 865.949H318.567L307.367 849.949L296.167 865.949H292.217L305.517 847.349Z" fill="black"/>
    <path d="M349.334 830.549H359.534C360.767 830.549 362.05 830.699 363.384 830.999C364.75 831.266 365.984 831.749 367.084 832.449C368.217 833.149 369.134 834.116 369.834 835.349C370.567 836.549 370.934 838.066 370.934 839.899C370.934 841.499 370.634 842.882 370.034 844.049C369.467 845.216 368.684 846.182 367.684 846.949C366.717 847.682 365.584 848.232 364.284 848.599C363.017 848.966 361.684 849.149 360.284 849.149H352.634V865.949H349.334V830.549ZM352.634 846.149H360.134C361.067 846.149 361.984 846.049 362.884 845.849C363.784 845.616 364.584 845.266 365.284 844.799C365.984 844.299 366.55 843.649 366.984 842.849C367.417 842.049 367.634 841.066 367.634 839.899C367.634 838.766 367.4 837.799 366.934 836.999C366.5 836.199 365.917 835.549 365.184 835.049C364.484 834.516 363.667 834.132 362.734 833.899C361.8 833.666 360.867 833.549 359.934 833.549H352.634V846.149Z" fill="black"/>
    <path d="M399.795 830.549H421.445V833.549H403.095V846.149H420.295V849.149H403.095V862.949H422.245V865.949H399.795V830.549Z" fill="black"/>
    <path d="M454.483 846.149H461.483C463.217 846.149 464.617 845.932 465.683 845.499C466.783 845.066 467.633 844.532 468.233 843.899C468.833 843.266 469.233 842.582 469.433 841.849C469.667 841.116 469.783 840.449 469.783 839.849C469.783 839.249 469.667 838.582 469.433 837.849C469.233 837.116 468.833 836.432 468.233 835.799C467.633 835.166 466.783 834.632 465.683 834.199C464.617 833.766 463.217 833.549 461.483 833.549H454.483V846.149ZM451.183 830.549H460.483C460.95 830.549 461.583 830.566 462.383 830.599C463.183 830.632 464.05 830.732 464.983 830.899C465.917 831.066 466.867 831.332 467.833 831.699C468.8 832.066 469.667 832.599 470.433 833.299C471.2 833.999 471.833 834.882 472.333 835.949C472.833 837.016 473.083 838.316 473.083 839.849C473.083 841.549 472.783 842.949 472.183 844.049C471.617 845.149 470.883 846.049 469.983 846.749C469.117 847.416 468.15 847.916 467.083 848.249C466.017 848.582 465 848.816 464.033 848.949L474.333 865.949H470.583L460.633 849.149H454.483V865.949H451.183V830.549Z" fill="black"/>
    <path d="M502.572 830.549H505.872V865.949H502.572V830.549Z" fill="black"/>
    <path d="M537.31 830.549H558.96V833.549H540.61V846.149H557.81V849.149H540.61V862.949H559.76V865.949H537.31V830.549Z" fill="black"/>
    <path d="M588.699 830.549H592.949L614.499 861.549H614.599V830.549H617.899V865.949H613.649L592.099 834.949H591.999V865.949H588.699V830.549Z" fill="black"/>
    <path d="M678.515 860.399C676.815 862.699 674.848 864.349 672.615 865.349C670.382 866.349 667.965 866.849 665.365 866.849C662.665 866.849 660.182 866.399 657.915 865.499C655.682 864.566 653.765 863.282 652.165 861.649C650.565 859.982 649.315 858.016 648.415 855.749C647.515 853.449 647.065 850.949 647.065 848.249C647.065 845.549 647.515 843.066 648.415 840.799C649.315 838.532 650.565 836.582 652.165 834.949C653.765 833.282 655.682 831.982 657.915 831.049C660.182 830.116 662.665 829.649 665.365 829.649C667.765 829.649 669.998 830.082 672.065 830.949C674.165 831.782 675.998 833.199 677.565 835.199L674.865 837.449C673.765 835.782 672.348 834.566 670.615 833.799C668.915 833.032 667.165 832.649 665.365 832.649C663.065 832.649 660.982 833.049 659.115 833.849C657.282 834.649 655.715 835.749 654.415 837.149C653.115 838.549 652.115 840.199 651.415 842.099C650.715 843.999 650.365 846.049 650.365 848.249C650.365 850.449 650.715 852.499 651.415 854.399C652.115 856.299 653.115 857.949 654.415 859.349C655.715 860.749 657.282 861.849 659.115 862.649C660.982 863.449 663.065 863.849 665.365 863.849C666.265 863.849 667.198 863.749 668.165 863.549C669.132 863.316 670.065 862.982 670.965 862.549C671.898 862.082 672.782 861.516 673.615 860.849C674.448 860.149 675.181 859.316 675.815 858.349L678.515 860.399Z" fill="black"/>
    <path d="M706.32 830.549H727.97V833.549H709.62V846.149H726.82V849.149H709.62V862.949H728.77V865.949H706.32V830.549Z" fill="black"/>
    <path d="M792.447 830.549H795.747V862.949H812.247V865.949H792.447V830.549Z" fill="black"/>
    <path d="M850.047 830.549H853.447L868.347 865.949H864.647L860.797 856.549H842.047L838.047 865.949H834.597L850.047 830.549ZM851.597 834.149L843.347 853.549H859.597L851.597 834.149Z" fill="black"/>
    <path d="M895.175 830.549H905.375C906.709 830.549 908.059 830.666 909.425 830.899C910.792 831.099 912.009 831.549 913.075 832.249C914.175 832.916 915.059 833.866 915.725 835.099C916.425 836.299 916.775 837.899 916.775 839.899C916.775 841.699 916.242 843.266 915.175 844.599C914.109 845.932 912.525 846.816 910.425 847.249V847.349C911.592 847.449 912.659 847.732 913.625 848.199C914.592 848.632 915.425 849.232 916.125 849.999C916.825 850.732 917.359 851.616 917.725 852.649C918.125 853.682 918.325 854.816 918.325 856.049C918.325 858.082 917.925 859.749 917.125 861.049C916.359 862.316 915.375 863.316 914.175 864.049C913.009 864.782 911.725 865.282 910.325 865.549C908.959 865.816 907.675 865.949 906.475 865.949H895.175V830.549ZM898.475 845.849H905.325C907.025 845.849 908.409 845.649 909.475 845.249C910.542 844.816 911.375 844.299 911.975 843.699C912.575 843.099 912.975 842.466 913.175 841.799C913.375 841.099 913.475 840.466 913.475 839.899C913.475 838.666 913.259 837.649 912.825 836.849C912.425 836.016 911.875 835.366 911.175 834.899C910.475 834.399 909.659 834.049 908.725 833.849C907.792 833.649 906.809 833.549 905.775 833.549H898.475V845.849ZM898.475 862.949H906.025C907.959 862.949 909.509 862.716 910.675 862.249C911.875 861.782 912.792 861.199 913.425 860.499C914.059 859.799 914.475 859.066 914.675 858.299C914.909 857.499 915.025 856.782 915.025 856.149C915.025 854.849 914.775 853.732 914.275 852.799C913.775 851.866 913.125 851.116 912.325 850.549C911.525 849.949 910.609 849.516 909.575 849.249C908.575 848.982 907.559 848.849 906.525 848.849H898.475V862.949Z" fill="black"/>
</svg>
