<svg id="svg" version="1.1" xmlns="http://www.w3.org/2000/svg" xmlns:xlink="http://www.w3.org/1999/xlink" width="400" height="139.83969825553984" viewBox="0, 0, 400,139.83969825553984"><g id="svgg"><path id="path0" d="M334.010 46.823 C 333.821 47.012,333.667 47.120,333.667 47.063 C 333.667 47.006,333.555 47.052,333.419 47.165 C 333.282 47.278,333.219 47.450,333.279 47.547 C 333.348 47.658,333.282 47.683,333.102 47.614 C 332.931 47.548,332.857 47.571,332.919 47.670 C 332.975 47.761,332.871 47.892,332.687 47.960 C 332.504 48.028,332.330 48.158,332.302 48.250 C 332.273 48.342,332.194 48.398,332.125 48.375 C 332.056 48.352,332.000 48.403,332.000 48.489 C 332.000 48.574,331.850 48.692,331.667 48.750 C 331.483 48.808,331.333 48.949,331.333 49.064 C 331.333 49.297,330.224 50.333,329.974 50.333 C 329.886 50.333,329.852 50.395,329.898 50.470 C 330.002 50.637,329.401 51.179,329.264 51.042 C 329.211 50.988,329.167 51.013,329.167 51.097 C 329.166 51.321,328.084 52.500,327.879 52.500 C 327.783 52.500,327.579 52.764,327.426 53.087 C 327.273 53.410,327.085 53.636,327.009 53.589 C 326.933 53.542,326.830 53.660,326.780 53.852 C 326.730 54.044,326.610 54.151,326.513 54.091 C 326.402 54.023,326.378 54.089,326.447 54.269 C 326.514 54.443,326.490 54.514,326.387 54.450 C 326.197 54.333,325.471 55.082,325.625 55.236 C 325.678 55.289,325.630 55.333,325.518 55.333 C 325.406 55.333,325.367 55.420,325.433 55.526 C 325.507 55.645,325.478 55.673,325.358 55.599 C 325.246 55.529,325.118 55.606,325.054 55.781 C 324.994 55.947,324.713 56.324,324.430 56.617 C 323.630 57.449,323.477 57.661,323.566 57.805 C 323.611 57.879,323.507 58.042,323.333 58.167 C 323.160 58.292,323.048 58.443,323.084 58.502 C 323.121 58.561,322.913 58.866,322.621 59.180 C 321.937 59.916,320.976 61.493,321.094 61.685 C 321.145 61.766,321.074 61.833,320.938 61.833 C 320.801 61.833,320.639 62.002,320.577 62.208 C 320.516 62.415,320.344 62.771,320.195 63.000 C 320.047 63.229,319.923 63.455,319.921 63.502 C 319.908 63.747,319.248 65.167,319.146 65.167 C 319.080 65.167,318.977 65.392,318.917 65.667 C 318.856 65.942,318.738 66.167,318.653 66.167 C 318.569 66.167,318.510 66.223,318.522 66.292 C 318.571 66.564,318.283 67.500,318.151 67.500 C 318.074 67.500,318.058 67.625,318.117 67.777 C 318.188 67.964,318.159 68.015,318.028 67.934 C 317.921 67.868,317.827 67.874,317.819 67.948 C 317.724 68.877,317.452 69.926,317.280 70.033 C 317.177 70.096,317.144 70.200,317.207 70.263 C 317.270 70.326,317.235 70.536,317.129 70.730 C 317.023 70.924,316.916 71.308,316.891 71.583 C 316.843 72.121,316.712 72.890,316.658 72.958 C 316.640 72.981,316.606 73.075,316.583 73.167 C 316.560 73.258,316.524 73.352,316.501 73.375 C 316.241 73.644,316.288 80.156,316.552 80.349 C 316.626 80.404,316.691 80.760,316.696 81.141 C 316.702 81.522,316.766 81.833,316.838 81.833 C 316.911 81.833,316.950 82.021,316.925 82.250 C 316.900 82.479,316.949 82.667,317.034 82.667 C 317.119 82.667,317.139 82.826,317.077 83.021 C 316.993 83.283,317.019 83.341,317.177 83.244 C 317.328 83.150,317.359 83.192,317.284 83.389 C 317.225 83.542,317.247 83.667,317.333 83.667 C 317.419 83.667,317.446 83.779,317.394 83.917 C 317.341 84.054,317.385 84.167,317.492 84.167 C 317.599 84.167,317.648 84.228,317.602 84.303 C 317.555 84.379,317.666 84.685,317.848 84.983 C 318.029 85.282,318.082 85.469,317.964 85.398 C 317.792 85.295,317.791 85.320,317.957 85.525 C 318.071 85.666,318.114 85.830,318.054 85.890 C 317.994 85.951,318.044 86.000,318.167 86.000 C 318.289 86.000,318.339 86.050,318.277 86.111 C 318.216 86.173,318.297 86.373,318.458 86.557 C 318.674 86.804,318.685 86.858,318.500 86.766 C 318.352 86.692,318.368 86.739,318.542 86.881 C 318.702 87.013,318.833 87.213,318.833 87.326 C 318.833 87.537,319.458 88.507,319.704 88.679 C 319.780 88.731,319.875 88.956,319.917 89.179 C 319.959 89.401,320.126 89.697,320.288 89.836 C 320.770 90.247,321.146 90.766,320.833 90.588 C 320.696 90.510,320.752 90.632,320.958 90.859 C 321.165 91.086,321.334 91.379,321.336 91.511 C 321.338 91.711,321.364 91.710,321.500 91.500 C 321.658 91.255,321.751 91.435,321.690 91.865 C 321.680 91.929,321.859 92.127,322.087 92.306 C 322.314 92.485,322.500 92.729,322.500 92.849 C 322.500 93.022,322.542 93.025,322.707 92.860 C 322.872 92.695,322.867 92.624,322.686 92.512 C 322.560 92.434,322.509 92.287,322.572 92.185 C 322.635 92.083,322.602 92.000,322.500 92.000 C 322.398 92.000,322.359 91.927,322.415 91.837 C 322.470 91.747,322.437 91.528,322.342 91.350 C 321.627 90.013,322.042 89.642,324.458 89.460 C 324.573 89.452,324.667 89.389,324.667 89.320 C 324.667 89.252,324.985 89.143,325.375 89.079 C 325.765 89.014,326.158 88.916,326.250 88.860 C 326.342 88.805,326.522 88.744,326.650 88.724 C 326.778 88.705,326.939 88.599,327.006 88.490 C 327.074 88.380,327.213 88.342,327.315 88.405 C 327.417 88.468,327.500 88.457,327.500 88.380 C 327.500 88.302,327.837 88.140,328.250 88.018 C 328.662 87.896,329.000 87.725,329.000 87.638 C 329.000 87.551,329.067 87.522,329.149 87.573 C 329.231 87.623,329.341 87.554,329.393 87.419 C 329.446 87.279,329.598 87.215,329.742 87.270 C 329.891 87.327,330.040 87.257,330.099 87.102 C 330.156 86.955,330.269 86.877,330.352 86.928 C 330.435 86.979,330.541 86.920,330.589 86.796 C 330.636 86.672,330.835 86.558,331.029 86.544 C 331.224 86.529,331.466 86.434,331.567 86.332 C 331.701 86.197,331.660 86.175,331.417 86.250 C 331.233 86.307,331.364 86.197,331.707 86.007 C 332.050 85.816,332.371 85.665,332.421 85.670 C 332.472 85.675,332.726 85.470,332.987 85.215 C 333.247 84.959,333.633 84.637,333.845 84.500 C 334.431 84.119,336.833 81.718,336.833 81.514 C 336.833 81.414,336.908 81.333,337.000 81.333 C 337.092 81.333,337.150 81.277,337.130 81.208 C 337.110 81.140,337.335 80.823,337.630 80.505 C 337.925 80.186,338.167 79.830,338.167 79.713 C 338.167 79.596,338.250 79.500,338.351 79.500 C 338.453 79.500,338.492 79.387,338.440 79.250 C 338.380 79.094,338.441 79.000,338.602 79.000 C 338.745 79.000,338.827 78.906,338.785 78.792 C 338.743 78.677,338.891 78.340,339.113 78.042 C 339.335 77.744,339.464 77.500,339.399 77.500 C 339.335 77.500,339.400 77.369,339.546 77.208 C 339.691 77.048,339.818 76.842,339.829 76.750 C 339.887 76.241,340.058 75.833,340.213 75.833 C 340.310 75.833,340.340 75.784,340.279 75.724 C 340.219 75.663,340.255 75.512,340.359 75.386 C 340.462 75.261,340.499 75.110,340.440 75.051 C 340.381 74.992,340.449 74.816,340.590 74.659 C 340.818 74.407,340.949 74.009,341.081 73.167 C 341.103 73.029,341.166 72.804,341.222 72.667 C 341.277 72.529,341.357 72.192,341.398 71.917 C 341.439 71.642,341.487 71.417,341.505 71.417 C 341.522 71.417,341.570 71.154,341.610 70.833 C 341.651 70.512,341.708 70.063,341.737 69.833 C 341.766 69.604,341.810 69.379,341.835 69.333 C 341.940 69.134,341.994 68.056,342.041 65.208 L 342.091 62.167 340.462 62.167 L 338.833 62.167 338.833 64.078 L 338.833 65.990 336.625 66.037 L 334.417 66.083 334.417 68.167 L 334.417 70.250 335.708 70.299 L 337.000 70.347 337.000 71.914 L 337.000 73.480 335.083 73.532 L 333.166 73.583 333.166 72.375 L 333.167 71.167 331.257 71.167 L 329.347 71.167 329.298 72.542 L 329.250 73.917 327.167 73.963 L 325.083 74.010 325.136 72.255 L 325.188 70.500 327.011 70.500 L 328.833 70.500 328.833 68.250 L 328.833 66.000 331.167 66.000 L 333.500 66.000 333.500 63.500 L 333.500 61.000 331.875 61.000 L 330.250 61.000 330.299 57.834 L 330.347 54.667 331.549 54.667 L 332.750 54.667 332.699 52.417 L 332.649 50.167 334.908 50.167 C 337.384 50.167,337.401 50.157,336.542 49.228 C 336.244 48.906,336.000 48.541,336.000 48.416 C 336.000 48.291,335.849 48.141,335.664 48.083 C 335.480 48.024,335.371 47.907,335.423 47.823 C 335.475 47.738,335.328 47.480,335.096 47.248 C 334.864 47.016,334.678 46.773,334.683 46.709 C 334.703 46.440,334.330 46.503,334.010 46.823 M339.167 50.404 L 339.167 51.808 340.500 51.862 L 341.834 51.917 341.834 50.458 L 341.833 49.000 340.500 49.000 L 339.167 49.000 339.167 50.404 M343.718 53.417 L 343.750 55.083 345.042 55.132 L 346.333 55.181 346.333 53.674 L 346.333 52.167 345.097 52.167 C 344.266 52.167,343.832 52.098,343.774 51.958 C 343.725 51.844,343.700 52.500,343.718 53.417 M339.250 58.000 L 339.250 59.250 340.542 59.196 L 341.833 59.141 341.833 58.000 L 341.833 56.859 340.542 56.804 L 339.250 56.750 339.250 58.000 M333.833 58.583 L 333.833 60.333 335.739 60.333 L 337.645 60.333 337.698 58.583 L 337.750 56.833 335.792 56.833 L 333.833 56.833 333.833 58.583 M329.500 63.157 L 329.500 64.980 327.500 65.032 L 325.499 65.083 325.500 63.297 L 325.500 61.511 327.458 61.458 C 328.535 61.429,329.435 61.389,329.458 61.369 C 329.481 61.349,329.500 62.154,329.500 63.157 " stroke="none" fill="#4cbc4c" fill-rule="evenodd"></path><path id="path1" d="M313.249 46.934 C 312.269 47.446,309.743 49.124,309.485 49.435 C 309.350 49.597,309.464 49.820,309.947 50.337 L 310.588 51.024 311.476 49.915 C 311.965 49.305,312.854 48.287,313.453 47.653 C 314.619 46.417,314.570 46.245,313.249 46.934 M316.666 47.032 C 314.744 48.579,312.000 51.477,312.000 51.959 C 312.000 52.277,314.238 53.144,315.106 53.163 C 315.211 53.165,315.345 52.907,315.404 52.590 C 315.530 51.922,316.284 49.406,316.505 48.917 C 317.323 47.110,317.378 46.459,316.666 47.032 M306.958 51.875 C 305.139 53.971,303.702 56.271,303.160 57.952 C 303.048 58.299,302.902 58.658,302.835 58.750 C 302.431 59.302,302.503 59.813,303.039 60.195 C 303.336 60.406,303.702 60.692,303.853 60.831 C 304.856 61.754,305.092 61.819,305.244 61.214 C 305.307 60.965,305.490 60.459,305.653 60.089 C 305.815 59.719,306.048 59.154,306.171 58.833 C 306.466 58.062,308.473 54.152,308.738 53.833 C 308.852 53.696,309.110 53.307,309.312 52.970 L 309.680 52.356 308.975 51.595 C 308.077 50.625,308.038 50.630,306.958 51.875 M310.396 54.125 C 309.652 55.269,308.481 57.438,308.033 58.500 C 306.172 62.914,306.199 62.549,307.690 63.226 C 309.762 64.166,313.147 65.075,313.450 64.772 C 313.475 64.748,313.574 63.945,313.672 62.989 C 313.924 60.531,314.303 57.617,314.548 56.251 L 314.757 55.085 313.754 54.732 C 313.202 54.537,312.353 54.143,311.868 53.856 C 311.382 53.569,310.969 53.333,310.948 53.333 C 310.928 53.333,310.680 53.690,310.396 54.125 M301.934 61.792 C 301.134 64.431,300.976 69.384,301.626 71.439 C 302.133 73.039,302.442 73.293,302.577 72.219 C 302.910 69.574,303.922 64.844,304.413 63.637 C 304.492 63.441,304.387 63.268,304.060 63.054 C 303.804 62.887,303.291 62.470,302.922 62.127 C 302.158 61.419,302.057 61.385,301.934 61.792 M305.775 64.792 C 305.723 65.044,305.525 65.925,305.337 66.750 C 305.023 68.122,304.781 69.588,304.346 72.745 C 304.230 73.593,304.239 73.970,304.381 74.141 C 304.620 74.429,308.203 76.167,308.558 76.167 C 308.698 76.167,308.853 76.230,308.900 76.307 C 308.948 76.384,309.571 76.579,310.285 76.740 C 310.999 76.901,311.846 77.100,312.167 77.182 C 313.244 77.458,314.535 77.378,314.440 77.042 C 314.143 75.985,313.702 71.810,313.552 68.625 L 313.452 66.500 312.916 66.500 C 311.796 66.500,308.849 65.641,306.881 64.741 C 305.795 64.244,305.891 64.240,305.775 64.792 M304.095 77.316 L 303.980 78.632 304.898 79.988 C 307.749 84.197,311.663 87.230,315.982 88.574 C 317.713 89.113,317.689 89.142,317.018 87.284 C 316.366 85.480,315.951 84.052,315.394 81.704 C 314.763 79.040,315.006 79.290,312.727 78.960 C 310.863 78.689,309.251 78.266,308.058 77.734 C 307.769 77.605,307.477 77.500,307.409 77.500 C 307.341 77.500,306.616 77.162,305.798 76.750 C 304.980 76.337,304.288 76.000,304.260 76.000 C 304.232 76.000,304.158 76.592,304.095 77.316 " stroke="none" fill="#2c94d3" fill-rule="evenodd"></path><path id="path2" d="M246.497 51.542 L 246.494 57.750 246.018 57.000 C 242.125 50.859,232.168 52.298,229.880 59.333 C 226.660 69.231,238.065 76.747,245.199 69.428 C 245.639 68.975,246.000 68.507,246.000 68.386 C 246.000 68.265,246.070 68.167,246.154 68.167 C 246.239 68.167,246.343 68.035,246.385 67.875 C 246.427 67.715,246.470 68.615,246.481 69.875 L 246.500 72.167 247.333 72.167 L 248.167 72.167 248.167 58.750 L 248.167 45.333 247.333 45.333 L 246.500 45.333 246.497 51.542 M39.500 47.054 C 39.500 47.256,39.872 48.201,40.495 49.583 C 40.859 50.391,41.399 51.689,41.917 53.000 C 42.412 54.256,42.878 55.377,43.335 56.417 C 43.415 56.600,43.902 57.762,44.416 59.000 C 44.931 60.237,45.460 61.486,45.592 61.775 C 45.725 62.064,45.836 62.364,45.839 62.442 C 45.842 62.520,45.990 62.883,46.167 63.250 C 46.344 63.617,46.491 63.974,46.494 64.043 C 46.497 64.113,46.644 64.488,46.820 64.877 C 47.421 66.205,49.337 70.794,49.560 71.439 C 49.778 72.071,49.800 72.084,50.690 72.132 L 51.598 72.181 51.966 71.339 C 52.168 70.876,52.333 70.456,52.333 70.406 C 52.333 70.356,52.481 69.991,52.662 69.595 C 52.842 69.198,53.337 68.021,53.762 66.979 C 54.186 65.936,54.633 64.858,54.754 64.583 C 55.445 63.017,56.000 61.680,56.000 61.581 C 56.000 61.518,56.107 61.231,56.237 60.942 C 56.368 60.653,56.710 59.854,56.997 59.167 C 57.284 58.479,57.586 57.767,57.668 57.583 C 57.750 57.400,58.087 56.575,58.417 55.750 C 58.747 54.925,59.119 54.025,59.243 53.750 C 59.367 53.475,59.668 52.762,59.911 52.167 C 60.155 51.571,60.462 50.847,60.594 50.558 C 60.726 50.269,60.833 49.987,60.833 49.931 C 60.833 49.875,60.979 49.512,61.156 49.123 C 61.631 48.083,62.000 47.146,62.000 46.980 C 62.000 46.899,61.602 46.833,61.115 46.833 L 60.229 46.833 59.865 47.668 C 59.664 48.127,59.500 48.544,59.500 48.594 C 59.500 48.644,59.345 49.025,59.155 49.442 C 58.966 49.858,58.585 50.773,58.310 51.474 C 58.035 52.176,57.706 52.979,57.579 53.259 C 57.453 53.539,56.941 54.776,56.442 56.009 C 55.339 58.732,55.050 59.428,54.740 60.109 C 54.608 60.397,54.500 60.683,54.500 60.744 C 54.500 60.805,54.313 61.265,54.083 61.766 C 53.854 62.267,53.664 62.731,53.661 62.797 C 53.658 62.863,53.510 63.217,53.333 63.583 C 53.156 63.950,53.009 64.314,53.006 64.391 C 53.003 64.469,52.889 64.769,52.753 65.058 C 52.617 65.347,52.106 66.569,51.618 67.773 C 50.620 70.239,50.800 70.224,49.910 67.917 C 49.662 67.275,49.360 66.525,49.238 66.250 C 49.116 65.975,48.781 65.150,48.493 64.417 C 48.206 63.683,47.827 62.769,47.652 62.384 C 47.477 62.000,47.331 61.625,47.328 61.551 C 47.325 61.477,47.177 61.117,47.000 60.750 C 46.823 60.383,46.675 60.029,46.672 59.963 C 46.669 59.897,46.479 59.433,46.250 58.932 C 46.021 58.431,45.833 57.972,45.833 57.911 C 45.833 57.850,45.726 57.564,45.594 57.275 C 45.274 56.574,45.020 55.960,43.553 52.333 C 42.866 50.637,42.200 49.025,42.073 48.750 C 41.945 48.475,41.738 47.950,41.612 47.583 C 41.367 46.866,39.500 46.398,39.500 47.054 M183.226 47.156 C 182.572 47.315,181.773 47.570,181.451 47.722 C 181.130 47.875,180.816 48.000,180.754 48.000 C 180.364 48.000,178.066 49.567,177.108 50.487 C 170.519 56.811,172.684 67.663,181.250 71.242 C 185.260 72.917,190.963 72.194,194.391 69.577 L 195.167 68.985 195.167 64.326 L 195.167 59.667 194.417 59.667 L 193.667 59.667 193.667 63.814 L 193.667 67.960 193.089 68.401 C 189.334 71.265,182.905 71.122,179.259 68.092 C 177.141 66.332,176.078 64.779,175.337 62.358 C 174.926 61.016,174.893 57.292,175.286 56.583 C 175.387 56.400,175.591 55.907,175.738 55.487 C 178.099 48.756,187.817 46.290,193.606 50.954 L 194.296 51.509 194.731 50.992 C 194.971 50.707,195.167 50.370,195.167 50.243 C 195.167 49.996,193.512 48.667,193.205 48.667 C 193.105 48.667,192.925 48.571,192.804 48.455 C 191.469 47.172,186.141 46.450,183.226 47.156 M107.111 49.111 C 107.050 49.172,107.000 50.222,107.000 51.444 L 107.000 53.667 105.667 53.667 L 104.333 53.667 104.333 54.417 L 104.333 55.167 105.667 55.167 L 107.000 55.167 107.006 61.458 C 107.012 67.977,107.084 68.823,107.750 70.226 C 108.740 72.313,111.997 72.821,114.654 71.303 C 115.401 70.877,115.453 70.715,115.079 69.992 C 114.774 69.401,114.877 69.408,113.874 69.912 C 112.118 70.794,110.147 70.594,109.387 69.459 C 108.776 68.545,108.667 67.266,108.667 61.053 L 108.667 55.167 111.917 55.167 L 115.167 55.167 115.167 54.417 L 115.167 53.667 111.917 53.667 L 108.667 53.667 108.667 51.333 L 108.667 49.000 107.944 49.000 C 107.547 49.000,107.172 49.050,107.111 49.111 M261.083 53.169 C 255.905 53.836,252.513 58.672,253.390 64.137 C 253.805 66.725,254.322 67.774,256.038 69.511 C 259.186 72.700,264.973 72.914,268.774 69.982 C 269.840 69.159,269.917 68.972,269.414 68.430 C 268.908 67.884,268.806 67.890,268.135 68.509 C 264.867 71.519,259.289 71.001,256.351 67.413 C 255.911 66.876,255.139 64.796,255.046 63.899 L 254.953 63.000 263.083 63.000 L 271.212 63.000 271.125 61.458 C 270.812 55.901,266.636 52.453,261.083 53.169 M284.298 53.174 C 281.756 53.470,279.549 54.828,278.350 56.833 L 278.001 57.417 278.001 55.292 L 278.000 53.167 277.167 53.167 L 276.333 53.167 276.333 62.583 L 276.333 72.000 277.167 72.000 L 278.000 72.000 278.003 67.042 C 278.006 62.320,278.144 60.182,278.488 59.540 C 278.573 59.381,278.814 58.875,279.023 58.417 C 280.865 54.375,287.635 53.532,290.169 57.029 C 291.117 58.338,291.167 58.769,291.167 65.697 L 291.167 72.000 292.083 72.000 L 293.000 72.000 293.000 65.736 C 293.000 57.817,292.848 57.003,291.003 55.068 C 289.548 53.540,287.096 52.848,284.298 53.174 M69.500 53.271 C 63.909 54.353,60.707 59.618,62.166 65.332 C 63.396 70.148,68.474 73.220,73.189 72.000 C 73.543 71.908,74.136 71.755,74.505 71.658 C 75.809 71.319,78.333 69.615,78.333 69.073 C 78.333 68.966,78.133 68.679,77.889 68.434 L 77.444 67.989 76.930 68.479 C 74.663 70.645,70.378 71.208,67.454 69.727 C 65.371 68.671,63.559 65.721,63.503 63.292 C 63.501 63.223,67.175 63.167,71.667 63.167 L 79.833 63.167 79.833 62.348 C 79.833 56.533,74.924 52.221,69.500 53.271 M84.944 53.278 C 84.883 53.339,84.833 57.614,84.833 62.778 L 84.833 72.167 85.739 72.167 L 86.644 72.167 86.700 66.292 L 86.755 60.417 87.222 59.307 C 89.387 54.168,96.916 53.321,99.201 57.960 L 99.750 59.075 99.801 65.621 L 99.851 72.167 100.676 72.167 L 101.500 72.167 101.500 65.864 C 101.500 59.157,101.413 58.138,100.724 56.750 C 98.401 52.069,90.362 51.968,87.231 56.581 L 86.667 57.412 86.667 55.289 L 86.667 53.167 85.861 53.167 C 85.418 53.167,85.006 53.217,84.944 53.278 M120.041 59.875 C 120.116 67.363,120.169 67.777,121.262 69.424 C 123.992 73.537,132.120 72.893,134.276 68.392 L 134.583 67.750 134.630 69.958 L 134.676 72.167 135.505 72.167 L 136.333 72.167 136.333 62.667 L 136.333 53.167 135.513 53.167 L 134.693 53.167 134.638 59.075 C 134.597 63.519,134.532 65.035,134.375 65.192 C 134.260 65.306,134.167 65.524,134.167 65.677 C 134.167 65.829,133.939 66.380,133.660 66.902 C 131.199 71.514,124.308 71.724,122.217 67.250 L 121.750 66.250 121.696 59.708 L 121.643 53.167 120.808 53.167 L 119.974 53.167 120.041 59.875 M141.333 62.667 L 141.333 72.167 142.250 72.167 L 143.167 72.167 143.171 66.542 C 143.173 63.448,143.248 60.600,143.337 60.214 C 143.989 57.389,146.239 55.303,148.902 55.054 L 150.000 54.952 150.000 54.040 L 150.000 53.128 149.070 53.245 C 146.721 53.538,144.929 54.581,143.741 56.347 L 143.167 57.200 143.167 55.183 L 143.167 53.167 142.250 53.167 L 141.333 53.167 141.333 62.667 M157.183 53.425 C 155.110 53.874,153.115 55.193,151.716 57.038 C 150.005 59.295,149.675 64.190,151.038 67.108 C 153.522 72.429,160.952 73.888,165.792 70.007 C 166.803 69.195,166.805 69.190,166.237 68.515 L 165.808 68.005 165.112 68.544 C 164.730 68.841,164.379 69.124,164.333 69.174 C 162.348 71.337,156.486 70.900,154.083 68.410 C 152.752 67.030,152.088 65.725,151.899 64.116 L 151.787 63.167 159.916 63.167 L 168.045 63.167 167.955 61.542 C 167.632 55.705,162.947 52.174,157.183 53.425 M206.225 53.486 C 203.986 54.094,201.254 55.619,201.470 56.141 C 201.935 57.270,202.111 57.321,203.127 56.625 C 208.618 52.860,214.000 54.793,214.000 60.531 L 214.000 61.500 210.031 61.500 C 202.549 61.500,200.350 62.760,200.529 66.944 C 200.762 72.391,208.724 74.234,213.025 69.836 L 213.967 68.874 214.085 70.520 L 214.203 72.167 214.943 72.167 L 215.683 72.167 215.633 64.958 L 215.583 57.750 215.130 56.782 C 213.761 53.859,209.990 52.464,206.225 53.486 M220.667 62.667 L 220.667 72.167 221.500 72.167 L 222.333 72.167 222.333 66.643 C 222.333 61.507,222.358 61.036,222.685 59.935 C 223.547 57.035,225.509 55.309,228.234 55.054 L 229.333 54.952 229.333 54.059 C 229.333 53.039,229.298 53.024,227.648 53.337 C 225.688 53.709,223.790 54.985,222.821 56.583 L 222.417 57.250 222.370 55.208 L 222.323 53.167 221.495 53.167 L 220.667 53.167 220.667 62.667 M72.752 55.001 C 75.715 55.691,77.674 57.782,78.139 60.749 L 78.283 61.667 70.975 61.667 L 63.667 61.667 63.667 61.192 C 63.667 58.525,66.378 55.619,69.503 54.936 C 70.970 54.616,71.114 54.618,72.752 55.001 M160.697 54.921 C 164.002 55.609,166.500 58.409,166.500 61.425 C 166.500 61.632,165.463 61.667,159.167 61.667 C 155.133 61.667,151.835 61.610,151.836 61.542 C 151.896 58.671,154.550 55.679,157.659 54.979 C 159.259 54.618,159.248 54.619,160.697 54.921 M240.197 54.922 C 244.082 55.737,246.420 58.685,246.405 62.750 C 246.399 64.283,245.943 66.278,245.509 66.667 C 245.458 66.712,245.313 66.951,245.187 67.196 C 242.757 71.916,234.515 71.580,231.995 66.659 C 228.893 60.602,233.800 53.581,240.197 54.922 M264.843 55.026 C 267.515 55.919,269.667 58.736,269.667 61.342 C 269.667 61.439,266.853 61.500,262.319 61.500 L 254.971 61.500 255.086 60.792 C 255.810 56.366,260.521 53.581,264.843 55.026 M213.991 64.458 C 213.963 68.785,209.431 71.653,204.813 70.267 C 201.674 69.325,201.037 65.263,203.788 63.734 C 204.858 63.140,205.738 63.039,210.042 63.019 L 214.000 63.000 213.991 64.458 M232.080 77.388 C 227.613 78.860,227.296 85.028,231.590 86.927 C 232.904 87.508,234.779 87.501,236.115 86.910 C 237.662 86.226,237.667 86.217,237.667 84.141 L 237.667 82.333 237.083 82.333 L 236.500 82.333 236.500 83.804 L 236.500 85.274 235.711 85.668 C 231.905 87.569,228.041 82.858,230.883 79.783 C 231.601 79.006,232.974 78.334,233.843 78.333 C 234.434 78.333,236.270 78.972,236.510 79.262 C 236.813 79.627,237.066 79.549,237.397 78.989 C 238.097 77.804,234.294 76.659,232.080 77.388 M242.833 82.250 L 242.833 87.333 243.417 87.333 L 244.000 87.333 244.000 85.750 L 244.000 84.167 245.629 84.167 L 247.259 84.167 247.712 84.875 C 247.962 85.265,248.240 85.696,248.330 85.833 C 248.421 85.971,248.667 86.346,248.878 86.667 C 249.214 87.178,249.358 87.256,250.047 87.301 C 251.019 87.364,251.034 87.466,249.816 85.726 C 248.707 84.140,248.543 83.833,248.803 83.833 C 249.652 83.833,250.667 82.071,250.667 80.595 C 250.667 77.972,249.387 77.167,245.220 77.167 L 242.833 77.167 242.833 82.250 M259.390 77.406 C 253.780 79.160,255.243 87.333,261.167 87.333 C 266.569 87.333,268.439 81.256,264.086 77.844 C 263.288 77.218,260.748 76.981,259.390 77.406 M271.668 80.792 C 271.671 86.195,272.421 87.333,275.983 87.333 C 279.389 87.333,280.167 86.107,280.167 80.736 L 280.167 77.167 279.500 77.167 L 278.833 77.167 278.833 80.600 C 278.833 85.246,278.409 86.042,275.930 86.042 C 273.452 86.042,273.000 85.191,273.000 80.531 L 273.000 77.167 272.333 77.167 L 271.667 77.167 271.668 80.792 M285.333 82.236 L 285.333 87.333 286.000 87.333 L 286.667 87.333 286.667 85.750 L 286.667 84.167 288.242 84.167 C 291.935 84.167,293.348 83.022,293.122 80.212 C 292.937 77.903,291.876 77.273,288.042 77.194 L 285.333 77.138 285.333 82.236 M247.635 78.589 C 248.882 78.960,249.333 79.474,249.333 80.524 C 249.333 82.258,248.487 82.827,245.708 82.961 L 244.000 83.044 244.000 80.689 L 244.000 78.333 245.386 78.333 C 246.149 78.333,247.161 78.449,247.635 78.589 M262.486 78.662 C 266.989 80.307,265.165 86.881,260.452 85.992 C 257.934 85.516,256.299 82.178,257.708 80.388 C 259.095 78.627,260.752 78.028,262.486 78.662 M290.124 78.586 C 291.594 79.023,292.260 80.381,291.655 81.709 C 291.296 82.497,289.835 82.995,287.875 82.998 L 286.667 83.000 286.667 80.667 L 286.667 78.333 287.970 78.333 C 288.686 78.333,289.656 78.447,290.124 78.586 " stroke="none" fill="#043444" fill-rule="evenodd"></path><path id="path3" d="M336.310 48.953 C 336.744 49.579,337.127 49.882,336.865 49.393 C 336.773 49.221,336.526 48.930,336.317 48.748 L 335.937 48.417 336.310 48.953 M339.792 48.955 C 340.181 48.990,340.819 48.990,341.208 48.955 C 341.598 48.920,341.279 48.892,340.500 48.892 C 339.721 48.892,339.402 48.920,339.792 48.955 M330.597 49.698 C 330.238 50.047,329.990 50.333,330.046 50.333 C 330.204 50.333,331.414 49.190,331.327 49.123 C 331.285 49.090,330.956 49.349,330.597 49.698 M332.732 52.333 C 332.732 53.571,332.758 54.077,332.790 53.458 C 332.822 52.840,332.822 51.827,332.790 51.208 C 332.758 50.590,332.732 51.096,332.732 52.333 M329.497 50.754 C 329.185 51.130,329.366 51.173,329.737 50.812 C 329.914 50.640,329.979 50.500,329.883 50.500 C 329.786 50.500,329.613 50.614,329.497 50.754 M339.796 51.956 C 340.188 51.991,340.788 51.990,341.129 51.954 C 341.471 51.919,341.150 51.890,340.417 51.890 C 339.683 51.891,339.404 51.920,339.796 51.956 M343.833 52.000 C 343.833 52.096,344.361 52.167,345.083 52.167 C 345.806 52.167,346.333 52.096,346.333 52.000 C 346.333 51.904,345.806 51.833,345.083 51.833 C 344.361 51.833,343.833 51.904,343.833 52.000 M339.236 56.893 C 339.189 57.017,339.172 57.598,339.200 58.184 L 339.250 59.250 340.542 59.261 L 341.834 59.273 340.584 59.213 L 339.333 59.153 339.333 58.000 L 339.333 56.847 340.625 56.791 L 341.917 56.734 340.620 56.700 C 339.658 56.675,339.300 56.725,339.236 56.893 M337.667 58.661 L 337.667 60.323 335.708 60.376 L 333.750 60.428 335.792 60.464 L 337.833 60.500 337.833 58.750 C 337.833 57.788,337.796 57.000,337.750 57.000 C 337.704 57.000,337.667 57.748,337.667 58.661 M322.610 59.000 C 322.447 59.275,322.342 59.500,322.376 59.500 C 322.410 59.500,322.604 59.275,322.807 59.000 C 323.010 58.725,323.116 58.500,323.041 58.500 C 322.966 58.500,322.772 58.725,322.610 59.000 M331.792 60.955 L 333.500 61.012 333.500 63.501 L 333.500 65.991 331.125 66.044 L 328.750 66.098 331.250 66.091 L 333.750 66.083 333.750 63.500 L 333.750 60.917 331.917 60.907 L 330.083 60.898 331.792 60.955 M329.396 63.167 C 329.396 64.221,329.423 64.652,329.456 64.125 C 329.490 63.598,329.490 62.735,329.456 62.208 C 329.423 61.681,329.396 62.112,329.396 63.167 M325.563 63.333 C 325.563 64.387,325.590 64.819,325.623 64.292 C 325.656 63.765,325.656 62.902,325.623 62.375 C 325.590 61.848,325.563 62.279,325.563 63.333 M342.048 63.083 C 342.049 63.542,342.081 63.709,342.120 63.456 C 342.158 63.203,342.157 62.828,342.117 62.623 C 342.078 62.418,342.046 62.625,342.048 63.083 M319.970 63.458 C 319.617 63.873,318.981 65.167,319.130 65.167 C 319.199 65.167,319.392 64.848,319.559 64.458 C 319.727 64.069,319.981 63.619,320.124 63.458 C 320.268 63.298,320.347 63.167,320.302 63.167 C 320.256 63.167,320.107 63.298,319.970 63.458 M334.167 68.167 C 334.167 69.358,334.223 70.333,334.292 70.333 C 334.360 70.333,334.417 69.358,334.417 68.167 C 334.417 66.975,334.360 66.000,334.292 66.000 C 334.223 66.000,334.167 66.975,334.167 68.167 M329.200 72.453 L 329.167 73.823 327.042 73.875 L 324.917 73.928 327.047 73.964 C 329.506 74.006,329.375 74.102,329.291 72.318 L 329.233 71.083 329.200 72.453 M333.224 72.417 C 333.224 73.150,333.254 73.429,333.289 73.037 C 333.324 72.645,333.324 72.045,333.288 71.704 C 333.252 71.363,333.223 71.683,333.224 72.417 M316.205 77.000 C 316.205 77.321,316.240 77.452,316.282 77.292 C 316.323 77.131,316.323 76.869,316.282 76.708 C 316.240 76.548,316.205 76.679,316.205 77.000 M338.932 78.250 C 338.782 78.479,338.724 78.667,338.803 78.667 C 338.882 78.667,339.032 78.479,339.136 78.250 C 339.241 78.021,339.299 77.833,339.266 77.833 C 339.232 77.833,339.082 78.021,338.932 78.250 M331.750 85.930 C 331.383 86.149,331.137 86.329,331.203 86.331 C 331.440 86.336,332.500 85.768,332.500 85.636 C 332.500 85.470,332.556 85.448,331.750 85.930 M322.917 89.667 C 322.707 89.757,322.676 89.810,322.833 89.810 C 322.971 89.810,323.233 89.745,323.417 89.667 C 323.627 89.576,323.658 89.523,323.500 89.523 C 323.362 89.523,323.100 89.588,322.917 89.667 M320.435 90.237 C 320.485 90.368,320.631 90.515,320.760 90.564 C 320.954 90.639,320.959 90.597,320.791 90.327 C 320.555 89.950,320.300 89.885,320.435 90.237 M322.698 93.010 C 322.738 93.131,322.869 93.262,322.990 93.302 C 323.115 93.344,323.177 93.281,323.135 93.156 C 323.095 93.036,322.964 92.905,322.844 92.865 C 322.719 92.823,322.656 92.885,322.698 93.010 " stroke="none" fill="#54b44c" fill-rule="evenodd"></path><path id="path4" d="" stroke="none" fill="#305468" fill-rule="evenodd"></path></g></svg>