<svg width="720" height="139" viewBox="0 0 720 139" fill="none" xmlns="http://www.w3.org/2000/svg">
<path d="M55.875 136.522C41.056 136.522 26.844 130.647 16.3654 120.19C5.88681 109.733 0 95.5496 0 80.7609L0 25H37.25V80.7609C37.25 85.6904 39.2123 90.4181 42.7051 93.9038C46.198 97.3896 50.9353 99.3478 55.875 99.3478C60.8147 99.3478 65.552 97.3896 69.0449 93.9038C72.5377 90.4181 74.5 85.6904 74.5 80.7609V25H111.75V80.7609C111.75 95.5496 105.863 109.733 95.3846 120.19C84.906 130.647 70.694 136.522 55.875 136.522Z" fill="#1EC572"/>
<path d="M149 99.3478H55.875V136.522H149V99.3478Z" fill="#016938"/>
<g opacity="0.6">
<g opacity="0.6">
<path opacity="0.6" d="M55.875 136.522C41.056 136.522 26.844 130.647 16.3654 120.19C5.88681 109.733 0 95.5496 0 80.7609L0 25H37.25V80.7609C37.25 85.6904 39.2123 90.4181 42.7051 93.9038C46.198 97.3896 50.9353 99.3478 55.875 99.3478C60.8147 99.3478 65.552 97.3896 69.0449 93.9038C72.5377 90.4181 74.5 85.6904 74.5 80.7609V25H111.75V80.7609C111.75 95.5496 105.863 109.733 95.3846 120.19C84.906 130.647 70.694 136.522 55.875 136.522Z" fill="#1EC572"/>
</g>
</g>
<path d="M171.09 72.202H159V53.416H171.09V48.58C171.09 38.412 173.942 30.538 179.646 24.958C185.35 19.378 193.1 16.588 202.896 16.588C218.644 16.588 228.254 23.594 231.726 37.606L214.986 42.814C213.002 38.226 209.902 35.932 205.686 35.932C200.354 35.932 197.688 39.466 197.688 46.534V53.416H219.078V72.202H197.688V136H171.09V72.202ZM284.227 95.452V53.416H311.197V136H284.227V123.166C279.391 133.21 270.649 138.232 258.001 138.232C247.585 138.232 240.083 135.194 235.495 129.118C230.907 123.042 228.613 115.106 228.613 105.31V53.416H255.397V98.8C255.397 110.952 259.985 117.028 269.161 117.028C274.121 117.028 277.841 115.106 280.321 111.262C282.925 107.418 284.227 102.148 284.227 95.452ZM357.182 93.964V136H330.398V53.416H357.182V66.25C359.414 61.662 362.886 58.004 367.598 55.276C372.434 52.548 377.952 51.184 384.152 51.184C394.568 51.184 402.132 54.284 406.844 60.484C411.556 66.56 413.912 74.496 413.912 84.292V136H387.128V90.802C387.128 78.526 382.54 72.388 373.364 72.388C368.032 72.388 364.002 74.31 361.274 78.154C358.546 81.998 357.182 87.268 357.182 93.964ZM492.234 95.638V93.778C492.234 87.206 490.498 81.998 487.026 78.154C483.678 74.186 479.214 72.202 473.634 72.202C467.434 72.202 462.722 74.248 459.498 78.34C456.398 82.308 454.848 87.764 454.848 94.708C454.848 101.776 456.398 107.356 459.498 111.448C462.722 115.416 467.434 117.4 473.634 117.4C479.214 117.4 483.678 115.416 487.026 111.448C490.498 107.48 492.234 102.21 492.234 95.638ZM492.234 136V121.306C490.25 126.39 486.84 130.482 482.004 133.582C477.168 136.682 471.34 138.232 464.52 138.232C452.74 138.232 443.626 134.202 437.178 126.142C430.854 117.958 427.692 107.48 427.692 94.708C427.692 82.06 430.854 71.644 437.178 63.46C443.626 55.276 452.74 51.184 464.52 51.184C471.34 51.184 477.168 52.796 482.004 56.02C486.84 59.12 490.25 63.212 492.234 68.296V18.82H519.204V136H492.234ZM586.828 101.032V99.358L573.25 102.148C568.538 103.14 565.066 104.38 562.834 105.868C560.726 107.232 559.672 109.402 559.672 112.378C559.672 114.734 560.54 116.656 562.276 118.144C564.012 119.508 566.306 120.19 569.158 120.19C574.242 120.19 578.458 118.454 581.806 114.982C585.154 111.386 586.828 106.736 586.828 101.032ZM613.24 83.362V113.494C613.24 117.586 614.976 119.632 618.448 119.632C620.928 119.632 623.222 119.136 625.33 118.144V132.466C620.37 136.062 614.542 137.86 607.846 137.86C602.886 137.86 598.67 136.62 595.198 134.14C591.85 131.536 589.556 127.94 588.316 123.352C583.604 133.024 574.366 137.86 560.602 137.86C552.294 137.86 545.722 135.876 540.886 131.908C536.05 127.94 533.632 122.422 533.632 115.354C533.632 107.914 536.174 102.21 541.258 98.242C546.466 94.15 553.968 91.174 563.764 89.314L586.828 85.222V83.734C586.828 75.426 582.798 71.272 574.738 71.272C567.67 71.272 563.268 75.178 561.532 82.99L536.608 81.13C538.096 71.954 542.188 64.7 548.884 59.368C555.704 53.912 564.818 51.184 576.226 51.184C587.51 51.184 596.5 53.85 603.196 59.182C609.892 64.514 613.24 72.574 613.24 83.362ZM636.593 18.82H663.377V136H636.593V18.82ZM682.773 18.82H709.557V136H682.773V18.82Z" fill="black"/>
</svg>
