<svg xmlns="http://www.w3.org/2000/svg" fill="none" viewBox="0 0 539 114"><g fill="#588BFF" clip-path="url(#a)"><path d="m112 45-17 9-5 3-11 5-6 3-16 9a1 1 0 0 1-1-1l-2-3v-1a1 1 0 0 0-1-1 1 1 0 0 0-1 1l-2 3-2 7-2 7 2 1 16 4-3-6 1-1 39-20-1 4a45 45 0 0 1-11 21l-1 1-2 1a43 43 0 0 1-3 3h-1v1a44 44 0 0 1-6 3 33 33 0 0 1-4 2h-3a45 45 0 0 1-29-1 54 54 0 0 1-3-2h-2l-1-1-1-1a14 14 0 0 1-1 0 43 43 0 0 1-4-4l-2-1v-1h-1a44 44 0 0 1-3-3l-2-3a45 45 0 0 1-3-6 45 45 0 0 1-4-13 46 46 0 0 1-1-7 44 44 0 0 1 0-5 46 46 0 0 1 2-8 43 43 0 0 1 2-6v-1a45 45 0 0 1 10-13 43 43 0 0 1 3-2v-1l2-1a34 34 0 0 1 2-1l2-1 2-1a41 41 0 0 1 2-1v-1h2l1-1a45 45 0 0 1 15-2h4a53 53 0 0 1 2 0 41 41 0 0 1 8 2 40 40 0 0 1 2 1l2 1h1l2 1-10 6-20 10-11 6v-1l-2-5a1 1 0 0 0-1 0 1 1 0 0 0-1 0l-4 10v2l-2 3a1 1 0 0 0 1 2h2l15 4-2-5a1 1 0 0 1 0-1l13-7 7-3 25-14 10-5a1 1 0 0 0 0-1A57 57 0 0 0 77 4l-2-1a57 57 0 0 0-18-3 57 57 0 0 0-13 1 55 55 0 0 0-10 4A57 57 0 0 0 7 29a47 47 0 0 0-1 3 56 56 0 0 0-4 11 57 57 0 0 0-2 14v1a57 57 0 0 0 2 15 55 55 0 0 0 3 6 57 57 0 0 0 5 10 67 67 0 0 0 5 7 57 57 0 0 0 9 8 42 42 0 0 0 3 1 56 56 0 0 0 30 9h5a56 56 0 0 0 25-9l3-2a58 58 0 0 0 7-6 57 57 0 0 0 15-26 55 55 0 0 0 1-7 56 56 0 0 0 1-6v-1a58 58 0 0 0-2-12zM61 84z"/><path d="M118 23a1 1 0 0 1 1 2l-5 14a1 1 0 0 1-2 0l-2-3a1 1 0 0 0-1 0h-1l-1 1-9 5-2 1-31 16h-2l-4-8a1 1 0 0 1 1-1l31-17 2-1 9-5h1l1-1a1 1 0 0 0 1-1 1 1 0 0 0-1 0l-1-4a1 1 0 0 1 1-1l8 2 6 1z"/></g><path fill="#588BFF" d="M201 85h-9l-1-7-7 6c-3 2-6 2-11 2-8 0-15-3-21-8-6-6-9-14-9-23a30 30 0 0 1 31-32c8 0 14 2 18 6 5 3 8 8 10 13l-12 4c0-3-2-6-5-8s-6-4-11-4-9 2-13 6c-4 3-6 8-6 15 0 6 2 11 6 15 3 4 8 6 13 6s9-2 12-4c2-3 4-5 4-8h-19V54h30v31zm20-26h18l-2-6-7-2c-3 0-5 1-7 3l-2 5zm19 11 10 3c-1 4-3 7-7 10-3 2-7 3-12 3-6 0-11-2-15-6-5-4-7-9-7-16s2-12 6-16 9-6 15-6 11 2 15 6a22 22 0 0 1 5 17v2h-30l4 7c2 2 4 3 7 3 5 0 8-3 9-7zm33-39v12h9v10h-9v18l2 3 3 2 4-1v10l-7 1c-4 0-7-2-9-4-3-2-4-5-4-9V53h-7V43h2c2 0 3 0 4-2 2-1 2-2 2-4v-6h10zm57 54h-38V25h38v11h-26v14h23v10h-23v14h26v11zm50 16h-11V81c-3 3-6 5-12 5s-11-2-15-6-5-10-5-16 1-11 5-16c4-4 9-6 15-6l8 2 4 4v-5h11v58zm-29-46c-2 3-3 5-3 9s1 7 3 9 4 3 7 3 6-1 8-3 3-5 3-9-1-6-3-9c-2-2-5-3-8-3s-5 1-7 3zm68 30-1-5-4 5-7 1c-5 0-9-1-12-5-3-3-4-7-4-11V43h11v24l2 6c2 2 3 3 6 3l6-2 2-7V43h11v34l1 8h-11zm34 0h-12V43h12v42zm-13-56 2-4c1-2 3-3 5-3l5 2 2 5-2 5c-2 2-3 2-5 2s-4 0-5-2l-2-5zm39 2v12h8v10h-8v18l1 3 3 2 4-1v10l-6 1c-4 0-8-2-10-4s-4-5-4-9V53h-7V43h2c2 0 4 0 5-2l1-4v-6h11zm33 70h-12l10-21-18-37h13l11 25 10-25h12l-26 58z"/><defs><clipPath id="a"><path fill="#fff" d="M0 0h119v114H0z"/></clipPath></defs></svg>