<svg width="539" height="114" fill="none" xmlns="http://www.w3.org/2000/svg"><g clip-path="url(#a)" fill="#588BFF"><path d="m112.334 45.006-.068-.315-17.697 9.361-4.82 2.558-11.098 5.873-5.261 2.776-16.188 8.588a1.11 1.11 0 0 1-1.495-.495l-1.427-2.955-.703-1.388a1.115 1.115 0 0 0-1.063-.621 1.11 1.11 0 0 0-.984.741l-1.136 3.3-2.4 6.946-2.241 6.579-.045.127 2.346.63 16.023 4.344.135-.083-2.855-5.888h.045l-.06-.098a.637.637 0 0 0-.052-.075v-.165l.852-.442a.231.231 0 0 0-.052-.068c.025.017.046.04.06.068l39.101-20.276c-.21 1.358-.486 2.7-.815 4.013a45.05 45.05 0 0 1-11.51 20.59c-.463.466-.926.923-1.404 1.373-.366.338-.748.668-1.099.99-.553.488-1.12.96-1.696 1.418-.576.458-1.174.908-1.772 1.343l-.306.217-.306.21-.62.42a44.104 44.104 0 0 1-5.92 3.338c-.747.36-1.554.706-2.361 1.02-.493.203-.994.39-1.495.57-.5.18-1.016.353-1.495.518l-.515.158c-.172.06-.344.105-.523.157a44.956 44.956 0 0 1-29.027-1.38l-.127-.053a53.832 53.832 0 0 1-3.408-1.5c-.471-.24-.942-.48-1.413-.75-.47-.27-.919-.517-1.382-.75-.464-.232-.897-.555-1.346-.84-.224-.142-.448-.285-.657-.435-1.106-.75-2.168-1.5-3.191-2.34-.419-.33-.822-.668-1.219-1.013l-1.18-1.05-.837-.795c-.277-.27-.553-.548-.815-.818a43.898 43.898 0 0 1-2.78-3.128c-.576-.75-1.136-1.447-1.667-2.19a44.794 44.794 0 0 1-3.662-6.098.745.745 0 0 1-.067-.135 1.207 1.207 0 0 1-.075-.135 44.512 44.512 0 0 1-3.99-12.572c-.431-2.435-.664-4.9-.696-7.373a44.073 44.073 0 0 1 .3-5.184c.227-2 .586-3.981 1.075-5.933.18-.698.374-1.395.583-2.078a43.044 43.044 0 0 1 2.243-5.896c.067-.157.134-.307.209-.457A45.183 45.183 0 0 1 26 24.176a43.368 43.368 0 0 1 2.728-2.378l.59-.473c.404-.315.815-.615 1.226-.915l.62-.442a33.855 33.855 0 0 1 1.757-1.163c.598-.368 1.188-.75 1.8-1.088.614-.337 1.226-.675 1.854-.99a41.22 41.22 0 0 1 1.928-.915c.232-.112.464-.21.703-.315l1.494-.593c.501-.187.994-.367 1.495-.54a44.689 44.689 0 0 1 14.603-2.452h.942c.628 0 1.248 0 1.868.075.486 0 .965.067 1.443.112.757.075 1.504.165 2.242.27 1.024.143 2.033.33 3.034.548.703.15 1.398.322 2.093.502.949.255 1.876.54 2.795.848a39.6 39.6 0 0 1 1.868.69c.613.247 1.226.495 1.831.75l.897.413.665.322c.441.218.882.435 1.315.668l.65.352-10.38 5.378-19.767 10.292-10.814 5.58-.39-.75-2.413-4.673a1.116 1.116 0 0 0-1.058-.6 1.111 1.111 0 0 0-.975.728l-3.497 9.624-.643 1.74-1.24 3.383a1.13 1.13 0 0 0 .747 1.5l1.793.458 15.037 3.795.366-.202-2.242-4.336a1.121 1.121 0 0 1 .47-1.5l12.1-6.399 7.063-3.75L87.82 24.393l9.715-5.123a1.1 1.1 0 0 0 .571-.8 1.105 1.105 0 0 0-.294-.94A56.78 56.78 0 0 0 76.506 3.525c-.396-.15-.785-.292-1.18-.427A56.528 56.528 0 0 0 56.797 0a56.764 56.764 0 0 0-12.383 1.358c-1.682.375-3.34.825-4.962 1.35-.867.27-1.72.577-2.564.885-1.121.42-2.242.878-3.31 1.373A57.206 57.206 0 0 0 7.151 29.29a47.08 47.08 0 0 0-1.54 3 56.296 56.296 0 0 0-3.878 10.675A57.207 57.207 0 0 0 0 57.007v1.11c.07 4.043.57 8.067 1.495 12.002.254 1.073.53 2.138.844 3.196 0 .052 0 .105.053.165a55.27 55.27 0 0 0 2.137 5.925 57.217 57.217 0 0 0 5.127 9.474c.56.818 1.136 1.635 1.734 2.43 1.15 1.5 2.384 3 3.684 4.419l.27.292a57.124 57.124 0 0 0 8.967 7.801c.748.54 1.547 1.058 2.34 1.553a56.216 56.216 0 0 0 30.147 8.641c1.592 0 3.17-.06 4.731-.195a56.277 56.277 0 0 0 25.41-8.491c1.12-.698 2.242-1.44 3.266-2.25a57.705 57.705 0 0 0 6.77-5.821 56.889 56.889 0 0 0 14.903-26.366 55.22 55.22 0 0 0 1.263-6.811c.275-2.172.423-4.359.441-6.548v-.526a57.62 57.62 0 0 0-1.248-12.001ZM61.006 84.46v.038a.795.795 0 0 1 0-.037Z"/><path d="M118.17 23.38a1.11 1.11 0 0 1 .748 1.5l-5.261 13.818a1.105 1.105 0 0 1-2.011.112l-1.196-2.318a1.113 1.113 0 0 0-1.494-.465l-.591.315-1.494.75-9.133 4.824-1.86.99-31.046 16.442c-.23.117-.495.15-.747.09l-.747-.18a1.104 1.104 0 0 1-.748-.585l-3.55-7.224a1.114 1.114 0 0 1 .471-1.5l31.486-16.66 1.92-1.02 9.051-4.785 1.495-.796.56-.3a1.107 1.107 0 0 0 .587-1.084 1.14 1.14 0 0 0-.123-.416l-1.861-3.6a1.11 1.11 0 0 1 1.255-1.538l8.602 2.19 5.687 1.44Z"/></g><path d="M201.455 85h-9.52l-.765-6.885c-1.53 2.323-3.825 4.278-6.885 5.865-3.003 1.53-6.63 2.295-10.88 2.295-8.387 0-15.498-2.862-21.335-8.585-5.837-5.723-8.755-13.317-8.755-22.78 0-9.407 3.003-17 9.01-22.78 6.063-5.78 13.345-8.67 21.845-8.67 7.367 0 13.373 1.785 18.02 5.355 4.703 3.57 7.877 7.962 9.52 13.175l-11.22 3.995c-.907-3.117-2.748-5.808-5.525-8.075-2.72-2.323-6.318-3.485-10.795-3.485-5.1 0-9.548 1.757-13.345 5.27-3.74 3.513-5.61 8.585-5.61 15.215 0 6.517 1.813 11.588 5.44 15.215 3.683 3.627 8.217 5.44 13.6 5.44 4.987 0 8.812-1.247 11.475-3.74 2.663-2.55 4.222-5.213 4.675-7.99h-19.04v-10.2h30.09V85ZM220.686 59.33h18.7c-.113-2.323-.963-4.278-2.55-5.865-1.53-1.587-3.796-2.38-6.8-2.38-2.72 0-4.93.85-6.63 2.55-1.7 1.7-2.606 3.598-2.72 5.695Zm19.805 10.88 9.435 2.805c-1.133 3.853-3.371 7.027-6.715 9.52-3.286 2.493-7.395 3.74-12.325 3.74-6.006 0-11.106-2.012-15.3-6.035-4.193-4.08-6.29-9.52-6.29-16.32 0-6.46 2.04-11.73 6.12-15.81 4.08-4.137 8.897-6.205 14.45-6.205 6.46 0 11.504 1.927 15.13 5.78 3.684 3.853 5.525 9.152 5.525 15.895 0 .453-.028.963-.085 1.53v1.36l-.085.595h-29.92c.114 2.72 1.19 4.987 3.23 6.8 2.04 1.813 4.477 2.72 7.31 2.72 4.817 0 7.99-2.125 9.52-6.375ZM273.364 30.685V43.18h8.415v10.03h-8.415v17.51c0 1.757.396 3.003 1.19 3.74.793.737 2.04 1.105 3.74 1.105 1.53 0 2.691-.113 3.485-.34v9.35c-1.644.68-3.769 1.02-6.375 1.02-4.08 0-7.31-1.133-9.69-3.4-2.38-2.323-3.57-5.497-3.57-9.52V53.21h-7.565V43.18h2.125c2.096 0 3.683-.595 4.76-1.785 1.133-1.247 1.7-2.862 1.7-4.845v-5.865h10.2ZM329.723 85h-37.74V24.735h37.74v11.05h-26.01v13.77h23.545V60.01h-23.545v13.94h26.01V85ZM379.642 101.15h-11.05V80.835c-2.153 3.457-6.035 5.185-11.645 5.185-5.893 0-10.767-2.068-14.62-6.205-3.853-4.193-5.78-9.463-5.78-15.81 0-6.233 1.842-11.418 5.525-15.555 3.74-4.193 8.585-6.29 14.535-6.29 3.287 0 5.95.623 7.99 1.87 2.097 1.19 3.514 2.522 4.25 3.995V43.18h10.795v57.97Zm-28.815-45.73c-1.927 2.097-2.89 4.958-2.89 8.585 0 3.627.963 6.517 2.89 8.67 1.984 2.153 4.477 3.23 7.48 3.23 3.004 0 5.468-1.077 7.395-3.23 1.984-2.153 2.975-5.043 2.975-8.67s-.991-6.488-2.975-8.585c-1.927-2.097-4.391-3.145-7.395-3.145-3.003 0-5.496 1.048-7.48 3.145ZM418.776 85c-.227-1.133-.34-2.635-.34-4.505-1.077 1.87-2.692 3.287-4.845 4.25-2.097.907-4.335 1.36-6.715 1.36-4.93 0-8.812-1.558-11.645-4.675-2.833-3.173-4.25-7.112-4.25-11.815V43.18h11.305v24.14c0 2.493.652 4.533 1.955 6.12 1.303 1.53 3.202 2.295 5.695 2.295 2.437 0 4.363-.737 5.78-2.21 1.417-1.53 2.125-3.542 2.125-6.035V43.18h11.305v34.255c0 2.663.142 5.185.425 7.565h-10.795ZM452.516 85h-11.305V43.18h11.305V85Zm-12.665-55.505c0-1.927.68-3.57 2.04-4.93 1.36-1.417 3.003-2.125 4.93-2.125 1.926 0 3.57.68 4.93 2.04 1.36 1.36 2.04 3.032 2.04 5.015 0 1.87-.68 3.485-2.04 4.845-1.36 1.36-3.004 2.04-4.93 2.04-1.927 0-3.57-.68-4.93-2.04-1.36-1.36-2.04-2.975-2.04-4.845ZM478.559 30.685V43.18h8.415v10.03h-8.415v17.51c0 1.757.397 3.003 1.19 3.74.793.737 2.04 1.105 3.74 1.105 1.53 0 2.692-.113 3.485-.34v9.35c-1.643.68-3.768 1.02-6.375 1.02-4.08 0-7.31-1.133-9.69-3.4-2.38-2.323-3.57-5.497-3.57-9.52V53.21h-7.565V43.18h2.125c2.097 0 3.683-.595 4.76-1.785 1.133-1.247 1.7-2.862 1.7-4.845v-5.865h10.2ZM511.94 101.49h-11.985l9.86-21.76-17.765-36.55h12.665l11.135 24.48 10.285-24.48h12.07l-26.265 58.31Z" fill="#588BFF"/><defs><clipPath id="a"><path fill="#fff" d="M0 0h119v114H0z"/></clipPath></defs></svg>