<svg width="539" height="114" viewBox="0 0 539 114" fill="none" xmlns="http://www.w3.org/2000/svg">
<g clip-path="url(#clip0)">
<path d="M112.334 45.0059L112.266 44.6909L94.5693 54.0521L89.7489 56.6099L78.6508 62.4832L73.3895 65.2586L57.2019 73.8472C56.9383 73.9803 56.6328 74.003 56.3525 73.9101C56.0723 73.8173 55.8402 73.6166 55.7073 73.3521L54.2798 70.3967L53.5773 69.0091C53.4805 68.8121 53.328 68.6481 53.1388 68.5377C52.9497 68.4272 52.7323 68.3751 52.5138 68.3879C52.2954 68.4007 52.0855 68.4778 51.9104 68.6097C51.7354 68.7415 51.6029 68.9221 51.5296 69.1291L50.3936 72.4295L47.9946 79.3754L45.7526 85.9538L45.7078 86.0813L48.0544 86.7114L64.0775 91.0545L64.2121 90.972L61.3572 85.0837H61.402L61.3422 84.9862C61.3266 84.96 61.3091 84.9349 61.2899 84.9112V84.7461L62.1419 84.3036C62.1288 84.278 62.111 84.2551 62.0896 84.2361C62.1151 84.2528 62.1358 84.2761 62.1494 84.3036L101.251 64.0284C101.041 65.3861 100.765 66.7288 100.436 68.0414C98.4935 75.8105 94.5204 82.9185 88.9268 88.6317C88.4635 89.0967 88.0001 89.5543 87.5218 90.0043C87.1556 90.3419 86.7745 90.6719 86.4232 90.9945C85.8702 91.482 85.3022 91.9546 84.7267 92.4121C84.1513 92.8697 83.5534 93.3198 82.9555 93.7548L82.6491 93.9724L82.3427 94.1824L81.7224 94.6024C79.8377 95.8659 77.8588 96.9819 75.8034 97.9404C75.0561 98.3004 74.2489 98.6455 73.4418 98.9605C72.9485 99.163 72.4478 99.3506 71.9471 99.5306C71.4464 99.7106 70.9307 99.8831 70.4524 100.048L69.9367 100.206C69.7648 100.266 69.5929 100.311 69.4136 100.363C59.8511 103.129 49.6459 102.644 40.3866 98.983L40.2596 98.9305C39.0937 98.4729 37.9578 97.9554 36.8517 97.4303C36.3809 97.1903 35.91 96.9502 35.4392 96.6802C34.9684 96.4102 34.52 96.1626 34.0566 95.9301C33.5933 95.6976 33.1598 95.375 32.7114 95.09C32.4872 94.9475 32.263 94.805 32.0537 94.6549C30.9477 93.9048 29.8864 93.1547 28.8626 92.3146C28.444 91.9846 28.0405 91.647 27.6444 91.302L26.4636 90.2519L25.6266 89.4568C25.35 89.1867 25.0735 88.9092 24.8119 88.6391C23.8329 87.634 22.9062 86.5989 22.0318 85.5112C21.4564 84.7611 20.8958 84.0635 20.3652 83.321C18.9851 81.389 17.7606 79.3498 16.7032 77.2226C16.6763 77.18 16.6538 77.1348 16.636 77.0876C16.6082 77.0443 16.5833 76.9992 16.5612 76.9526C16.0755 75.955 15.6121 74.9273 15.2011 73.8922C13.9746 70.8298 13.0922 67.6397 12.5704 64.381C12.1397 61.9461 11.9072 59.4802 11.8754 57.0075C11.8731 55.2754 11.9729 53.5446 12.1743 51.8243C12.4018 49.8248 12.7613 47.8427 13.2505 45.891C13.4299 45.1934 13.6242 44.4958 13.8334 43.8133C14.4357 41.7955 15.1851 39.8249 16.0755 37.9175C16.1427 37.76 16.21 37.6099 16.2847 37.4599C18.6847 32.4716 21.9779 27.9687 26.0002 24.1757C26.8746 23.3431 27.7864 22.5555 28.728 21.7979L29.3184 21.3253C29.722 21.0103 30.133 20.7102 30.5441 20.4102L31.1644 19.9676C31.7398 19.5626 32.3228 19.1725 32.9207 18.805C33.5185 18.4374 34.1089 18.0549 34.7218 17.7173C35.3346 17.3798 35.9474 17.0422 36.5752 16.7272C37.2029 16.4121 37.8531 16.0971 38.5033 15.8121C38.735 15.6996 38.9667 15.602 39.2058 15.497L40.7005 14.9044C41.2013 14.7169 41.6945 14.5369 42.1952 14.3644C46.8939 12.7402 51.8289 11.9113 56.7984 11.9116H57.74C58.3678 11.9116 58.9881 11.9116 59.6084 11.9866C60.0942 11.9866 60.5725 12.0541 61.0508 12.0991C61.8081 12.1741 62.5554 12.2641 63.2928 12.3691C64.3167 12.5116 65.3256 12.6992 66.327 12.9167C67.0296 13.0667 67.7246 13.2392 68.4196 13.4193C69.3688 13.6743 70.2955 13.9593 71.2147 14.2669C71.8425 14.4844 72.4702 14.7094 73.0831 14.957C73.6959 15.2045 74.3087 15.452 74.9141 15.7071L75.8109 16.1196L76.476 16.4421C76.917 16.6597 77.3579 16.8772 77.7913 17.1097L78.4415 17.4623L68.0609 22.8405L48.2936 33.1318L37.4795 38.7126L37.0908 37.9625L34.6769 33.2894C34.5775 33.0972 34.4246 32.9381 34.2368 32.8315C34.0491 32.7249 33.8345 32.6754 33.6192 32.6889C33.4038 32.7024 33.1971 32.7784 33.024 32.9076C32.8509 33.0369 32.7189 33.2138 32.6441 33.4169L29.1466 43.0406L28.5038 44.7809L27.2632 48.1638C27.2051 48.311 27.1786 48.4688 27.1854 48.627C27.1922 48.7851 27.2322 48.9401 27.3027 49.0816C27.3732 49.2232 27.4727 49.3483 27.5947 49.4487C27.7167 49.549 27.8584 49.6224 28.0106 49.664L29.8042 50.1216L44.8408 53.9171L45.207 53.7146L42.965 49.379C42.8307 49.1171 42.8048 48.8126 42.893 48.5317C42.9811 48.2508 43.1762 48.0161 43.4358 47.8788L55.5354 41.4804L62.5978 37.7299L87.8207 24.3932L97.5362 19.27C97.6867 19.1901 97.8166 19.0761 97.9157 18.9371C98.0148 18.7981 98.0803 18.6379 98.1071 18.4692C98.134 18.3004 98.1213 18.1277 98.0702 17.9647C98.0191 17.8016 97.931 17.6528 97.8128 17.5298C91.8583 11.303 84.5728 6.51454 76.5059 3.52545C76.1098 3.37543 75.7212 3.23291 75.3251 3.09789C69.364 1.03899 63.1026 -0.00800367 56.7984 -1.56706e-05C54.945 -1.56706e-05 53.1165 0.0874958 51.3129 0.262519C48.9933 0.484886 46.6896 0.850628 44.4148 1.35766C42.7333 1.73271 41.0742 2.18277 39.4525 2.70784C38.5855 2.97788 37.7336 3.28542 36.8891 3.59296C35.768 4.01301 34.647 4.47057 33.5783 4.96564C22.3967 10.0175 13.1314 18.5463 7.15214 29.2913C6.60658 30.2665 6.09838 31.2566 5.61261 32.2917C3.96352 35.709 2.66396 39.2852 1.73388 42.9656C0.577195 47.5558 -0.00523821 52.2728 3.54933e-05 57.0075C3.54933e-05 57.375 3.54933e-05 57.7576 3.54933e-05 58.1176C0.0696457 62.1603 0.570738 66.1838 1.49473 70.1192C1.74883 71.1919 2.02534 72.257 2.33923 73.3146C2.33923 73.3671 2.33923 73.4196 2.39154 73.4797C2.99087 75.4942 3.70451 77.4727 4.52896 79.4054C5.93664 82.7184 7.65321 85.8905 9.65575 88.8792C10.2163 89.6968 10.7917 90.5144 11.3896 91.3095C12.5405 92.8097 13.7736 94.3099 15.074 95.7276L15.3431 96.0201C18.0544 98.9261 21.06 101.541 24.3112 103.821C25.0586 104.361 25.8582 104.879 26.6504 105.374C35.6833 111.058 46.1371 114.054 56.7984 114.015C58.3902 114.015 59.9671 113.955 61.5291 113.82C70.5553 113.078 79.2707 110.165 86.9389 105.329C88.0599 104.631 89.1809 103.889 90.2048 103.079C92.6081 101.317 94.8719 99.3706 96.9757 97.2578C104.23 89.9853 109.38 80.8725 111.878 70.8918C112.441 68.6504 112.863 66.3756 113.141 64.0809C113.416 61.9088 113.564 59.7222 113.582 57.5326V57.0075C113.587 52.9741 113.169 48.9513 112.334 45.0059ZM61.0059 84.4611V84.4986C61.0025 84.5159 61.0025 84.5338 61.0059 84.5511C61.0042 84.5211 61.0042 84.4911 61.0059 84.4611Z" fill="#588BFF"/>
<path d="M118.17 23.3806C118.324 23.4201 118.467 23.4922 118.591 23.5921C118.714 23.6919 118.814 23.8172 118.885 23.9595C118.956 24.1018 118.996 24.2576 119.001 24.4166C119.007 24.5755 118.978 24.7338 118.918 24.8808L113.657 38.6976C113.579 38.8961 113.447 39.0683 113.275 39.1934C113.103 39.3185 112.899 39.3913 112.687 39.4032C112.475 39.415 112.265 39.3654 112.08 39.2603C111.895 39.1551 111.745 38.9988 111.646 38.8101L110.45 36.4923C110.312 36.2331 110.078 36.0389 109.798 35.9518C109.518 35.8648 109.216 35.8919 108.956 36.0272L108.365 36.3423L106.871 37.0924L97.738 41.9155L95.8771 42.9056L64.8324 59.3478C64.6016 59.4652 64.3369 59.4971 64.085 59.4378L63.3377 59.2578C63.1777 59.2219 63.0276 59.1509 62.8984 59.0497C62.7691 58.9485 62.6639 58.8197 62.5903 58.6727L59.0404 51.4493C58.9729 51.3198 58.9316 51.1782 58.9187 51.0327C58.9058 50.8871 58.9217 50.7404 58.9655 50.601C59.0092 50.4617 59.0799 50.3323 59.1736 50.2204C59.2673 50.1086 59.382 50.0163 59.5113 49.9491L90.997 33.2894L92.9177 32.2692L101.968 27.4836L103.463 26.6885L104.023 26.3885C104.152 26.3205 104.266 26.2278 104.359 26.1157C104.452 26.0035 104.522 25.8741 104.565 25.7347C104.608 25.5954 104.623 25.449 104.61 25.3037C104.596 25.1585 104.554 25.0173 104.487 24.8883L102.626 21.2878C102.541 21.0994 102.511 20.8911 102.538 20.6863C102.565 20.4815 102.648 20.2883 102.779 20.1286C102.909 19.9688 103.082 19.8487 103.276 19.7818C103.471 19.715 103.681 19.704 103.881 19.7501L112.483 21.9404L118.17 23.3806Z" fill="#588BFF"/>
</g>
<path d="M201.455 85H191.935L191.17 78.115C189.64 80.4383 187.345 82.3933 184.285 83.98C181.282 85.51 177.655 86.275 173.405 86.275C165.018 86.275 157.907 83.4133 152.07 77.69C146.233 71.9667 143.315 64.3733 143.315 54.91C143.315 45.5033 146.318 37.91 152.325 32.13C158.388 26.35 165.67 23.46 174.17 23.46C181.537 23.46 187.543 25.245 192.19 28.815C196.893 32.385 200.067 36.7767 201.71 41.99L190.49 45.985C189.583 42.8683 187.742 40.1767 184.965 37.91C182.245 35.5867 178.647 34.425 174.17 34.425C169.07 34.425 164.622 36.1817 160.825 39.695C157.085 43.2083 155.215 48.28 155.215 54.91C155.215 61.4267 157.028 66.4983 160.655 70.125C164.338 73.7517 168.872 75.565 174.255 75.565C179.242 75.565 183.067 74.3183 185.73 71.825C188.393 69.275 189.952 66.6117 190.405 63.835H171.365V53.635H201.455V85Z" fill="#588BFF"/>
<path d="M220.686 59.33H239.386C239.273 57.0067 238.423 55.0517 236.836 53.465C235.306 51.8783 233.04 51.085 230.036 51.085C227.316 51.085 225.106 51.935 223.406 53.635C221.706 55.335 220.8 57.2333 220.686 59.33ZM240.491 70.21L249.926 73.015C248.793 76.8683 246.555 80.0417 243.211 82.535C239.925 85.0283 235.816 86.275 230.886 86.275C224.88 86.275 219.78 84.2633 215.586 80.24C211.393 76.16 209.296 70.72 209.296 63.92C209.296 57.46 211.336 52.19 215.416 48.11C219.496 43.9733 224.313 41.905 229.866 41.905C236.326 41.905 241.37 43.8317 244.996 47.685C248.68 51.5383 250.521 56.8367 250.521 63.58C250.521 64.0333 250.493 64.5433 250.436 65.11C250.436 65.6767 250.436 66.13 250.436 66.47L250.351 67.065H220.431C220.545 69.785 221.621 72.0517 223.661 73.865C225.701 75.6783 228.138 76.585 230.971 76.585C235.788 76.585 238.961 74.46 240.491 70.21Z" fill="#588BFF"/>
<path d="M273.364 30.685V43.18H281.779V53.21H273.364V70.72C273.364 72.4767 273.76 73.7233 274.554 74.46C275.347 75.1967 276.594 75.565 278.294 75.565C279.824 75.565 280.985 75.4517 281.779 75.225V84.575C280.135 85.255 278.01 85.595 275.404 85.595C271.324 85.595 268.094 84.4617 265.714 82.195C263.334 79.8717 262.144 76.6983 262.144 72.675V53.21H254.579V43.18H256.704C258.8 43.18 260.387 42.585 261.464 41.395C262.597 40.1483 263.164 38.5333 263.164 36.55V30.685H273.364Z" fill="#588BFF"/>
<path d="M329.723 85H291.983V24.735H329.723V35.785H303.713V49.555H327.258V60.01H303.713V73.95H329.723V85Z" fill="#588BFF"/>
<path d="M379.642 101.15H368.592V80.835C366.439 84.2917 362.557 86.02 356.947 86.02C351.054 86.02 346.18 83.9517 342.327 79.815C338.474 75.6217 336.547 70.3517 336.547 64.005C336.547 57.7717 338.389 52.5867 342.072 48.45C345.812 44.2567 350.657 42.16 356.607 42.16C359.894 42.16 362.557 42.7833 364.597 44.03C366.694 45.22 368.111 46.5517 368.847 48.025V43.18H379.642V101.15ZM350.827 55.42C348.9 57.5167 347.937 60.3783 347.937 64.005C347.937 67.6317 348.9 70.5217 350.827 72.675C352.811 74.8283 355.304 75.905 358.307 75.905C361.311 75.905 363.775 74.8283 365.702 72.675C367.686 70.5217 368.677 67.6317 368.677 64.005C368.677 60.3783 367.686 57.5167 365.702 55.42C363.775 53.3233 361.311 52.275 358.307 52.275C355.304 52.275 352.811 53.3233 350.827 55.42Z" fill="#588BFF"/>
<path d="M418.776 85C418.549 83.8667 418.436 82.365 418.436 80.495C417.359 82.365 415.744 83.7817 413.591 84.745C411.494 85.6517 409.256 86.105 406.876 86.105C401.946 86.105 398.064 84.5467 395.231 81.43C392.398 78.2567 390.981 74.3183 390.981 69.615V43.18H402.286V67.32C402.286 69.8133 402.938 71.8533 404.241 73.44C405.544 74.97 407.443 75.735 409.936 75.735C412.373 75.735 414.299 74.9983 415.716 73.525C417.133 71.995 417.841 69.9833 417.841 67.49V43.18H429.146V77.435C429.146 80.0983 429.288 82.62 429.571 85H418.776Z" fill="#588BFF"/>
<path d="M452.516 85H441.211V43.18H452.516V85ZM439.851 29.495C439.851 27.5683 440.531 25.925 441.891 24.565C443.251 23.1483 444.894 22.44 446.821 22.44C448.747 22.44 450.391 23.12 451.751 24.48C453.111 25.84 453.791 27.5117 453.791 29.495C453.791 31.365 453.111 32.98 451.751 34.34C450.391 35.7 448.747 36.38 446.821 36.38C444.894 36.38 443.251 35.7 441.891 34.34C440.531 32.98 439.851 31.365 439.851 29.495Z" fill="#588BFF"/>
<path d="M478.559 30.685V43.18H486.974V53.21H478.559V70.72C478.559 72.4767 478.956 73.7233 479.749 74.46C480.542 75.1967 481.789 75.565 483.489 75.565C485.019 75.565 486.181 75.4517 486.974 75.225V84.575C485.331 85.255 483.206 85.595 480.599 85.595C476.519 85.595 473.289 84.4617 470.909 82.195C468.529 79.8717 467.339 76.6983 467.339 72.675V53.21H459.774V43.18H461.899C463.996 43.18 465.582 42.585 466.659 41.395C467.792 40.1483 468.359 38.5333 468.359 36.55V30.685H478.559Z" fill="#588BFF"/>
<path d="M511.94 101.49H499.955L509.815 79.73L492.05 43.18H504.715L515.85 67.66L526.135 43.18H538.205L511.94 101.49Z" fill="#588BFF"/>
<defs>
<clipPath id="clip0">
<rect width="119" height="114" fill="white"/>
</clipPath>
</defs>
</svg>
