<svg version="1" xmlns="http://www.w3.org/2000/svg" width="682.667" height="682.667" viewBox="0 0 512 512"><path d="M174.7 102.8c-2.2 2.4-2.1 4.5.1 6.5 1.4 1.3 4.5 1.7 15.2 1.9l13.5.3.5 48.1.5 48 2.7 4.1c3 4.6 9.6 8.3 14.7 8.3 3.1 0 3.2.1 2.6 3.2-.4 2.4.1 4.6 1.7 7.7 4 7.8 13 10.4 19.9 5.8 4.3-2.8 8.2-10.2 7.3-14l-.6-2.7H276.5v4.9c0 14.9 19.9 19.4 26.8 6.1 1.1-2.1 1.7-5 1.5-7.3-.3-3.7-.3-3.7 3.4-3.7 5.7 0 8.2-3.5 5.8-8.1-1-1.8-2.6-1.9-47.5-1.9h-46.4l-2.5-2.3c-1.4-1.2-2.8-3.3-3.1-4.7l-.6-2.5 47.3.3 47.3.2 4-2.3c5.3-3 7.9-7.2 11.4-18.1 16.8-53.3 16.8-53 12-59-3.6-4.6-7.5-5.9-19.1-6.4-8.9-.4-11.2-.2-13.3 1.2-2.7 1.8-3.4 5.7-1.2 7.4.6.5 6.3 1.2 12.5 1.4 15.8.6 15.6.3 10.8 16-11.4 37.4-14.7 46.7-16.8 48.3-1.9 1.3-8.2 1.5-45.8 1.5-37.8 0-43.8-.2-45.8-1.6-2.2-1.5-2.2-1.6-2.2-33V125h7.8c8.3 0 10.2-.9 10.2-4.6 0-3.8-3.6-5.4-11.7-5.4-7.3 0-7.3 0-7.3-2.8-.1-3.7-2-6.9-5.6-9.3-2.5-1.6-4.8-1.9-17.5-1.9-12.9 0-14.8.2-16.2 1.8z"/><path d="M255.1 108.6c-1.2.9-2.1 2.6-2.1 4 0 1.6-.6 2.4-1.8 2.4-2.8 0-6.2 2.9-6.2 5.4 0 2.8 1.6 4.3 5 4.8l2.5.3.2 17.7c.2 16.4.1 17.8-1.5 17.8-2.9 0-6.2 2.9-6.2 5.5 0 2.5 3.3 5.5 6.2 5.5 1.1 0 1.8.9 2 2.6.7 5.6 8.3 5.9 9.5.4.7-3.5 3.3-4.1 3.3-.7 0 2.9 1.8 4.7 4.6 4.7 2.9 0 5.4-2.5 5.4-5.3.1-1.6 1.3-2.8 4.3-4.2 4.9-2.3 8.3-6.9 9.2-12.6.6-3.2.2-5-1.7-8.8l-2.4-4.8 2.3-4.3c2.7-5.1 2.9-7.6.7-13.1-1.7-4-8.2-9.9-11.1-9.9-.7 0-1.3-1-1.3-2.3 0-2.6-1.7-5.2-4.1-6-2.4-.8-5.9 2-5.9 4.9 0 3.5-2.4 3-3.5-.8-1.2-3.8-4.4-5.2-7.4-3.2zm20.7 17.5c3 1.1 4.6 5.3 3.1 8.2-1.8 3.3-2.8 3.7-9.6 3.7H263v-13l5.3.1c2.8.1 6.2.6 7.5 1zm3 26.1c1 2.2 1 3.2.1 5-1.8 3.4-2.8 3.8-9.6 3.8H263v-12.1l7.2.3c6.8.3 7.4.5 8.6 3zM42 314.5V339h14l.1-11.8v-11.7l4.3 11.5 4.3 11.5 7.6.3c7 .3 7.6.1 7-1.5-.4-1-2.6-6.1-4.9-11.3l-4.2-9.5 3.4-6.8L77 303H62.4l-3.1 6.2-3.2 6.3v-12.8L56 290H42v24.5zM146 306.8c0 11.7-.4 17.2-1.2 18-1.5 1.5-6.1 1.5-7.6 0-3.1-3.1.6-9.6 4.8-8.5 1.9.5 2 .1 2-6.9V302h-3c-6.9 0-14 4.8-17.1 11.5-5.7 12.4 3.9 26.5 18.2 26.5 4.1 0 12.2-4.6 14.9-8.7 2.4-3.5 2.5-4.3 2.8-22.5l.4-18.8H146v16.8zM232 314.5V339h14l.1-11.8v-11.7l4.3 11.5 4.3 11.5 7.6.3c7 .3 7.6.1 7-1.5-.4-1-2.6-6.1-4.9-11.3l-4.2-9.5 3.4-6.8 3.4-6.7h-14.6l-3.1 6.2-3.2 6.3v-12.8L246 290h-14v24.5zM87.8 304.9c-7.4 4.7-10.8 14.7-7.7 22.8C82.4 334 91 339.9 97.8 340h3.2v-14h-3c-5.6 0-6.8-8.3-1.3-9.6 5-1.3 5.8.3 6.1 12l.3 10.6H117v-11.8c0-10.5-.3-12.4-2.3-16.2-4.7-9-17.7-11.9-26.9-6.1zM172.8 304.9c-7.4 4.7-10.8 14.7-7.7 22.8 2.3 6.3 10.9 12.2 17.7 12.3h3.2v-14h-3c-5.6 0-6.8-8.3-1.3-9.6 5-1.3 5.8.3 6.1 12l.3 10.6H202v-11.8c0-10.5-.3-12.4-2.3-16.2-4.7-9-17.7-11.9-26.9-6.1zM216.9 304c-6.2 3.2-7.9 8.3-7.9 22.8V339h14v-10.4c0-10.8 1-13.6 4.5-12.2 1.3.4 1.5-.7 1.5-6.9V302h-4.2c-2.4.1-5.9 1-7.9 2z"/><path d="M279.2 304.1c-10.7 5.3-13.3 19.6-5.4 29.1 3.2 3.8 9.4 6.7 14.2 6.8 4.9 0 11.8-3.7 15.4-8.3 2.8-3.5 3.1-4.6 3.1-10.6 0-5.7-.4-7.4-2.8-10.9-5.2-7.9-15.6-10.5-24.5-6.1zM345.8 304.9c-13 8.2-11 27.5 3.4 33.6 2.1.8 5.2 1.5 7 1.5 6.8-.1 15.3-6 17.7-12.3 2-5.3 1.7-5.7-5.7-5.7-5.6 0-6.9.3-8 2-1.5 2.4-5.4 2.6-7.6.4-2.5-2.4-2-6.1 1-8.1 2.4-1.6 2.9-1.6 5.4-.1 2.1 1.2 4.4 1.5 9.4 1.1l6.5-.6-1.5-3.5c-3-7.3-9.1-11.2-17.7-11.2-4.1 0-6.3.6-9.9 2.9zM388.2 304.1c-10.7 5.3-13.3 19.6-5.4 29.1 3.2 3.8 9.4 6.7 14.2 6.8 4.9 0 11.8-3.7 15.4-8.3 2.8-3.5 3.1-4.6 3.1-10.6 0-5.7-.4-7.4-2.8-10.9-5.2-7.9-15.6-10.5-24.5-6.1zM428.2 304c-6.2 3.8-7.2 6.9-7.2 21.7V339h14v-11.3c0-6.3.3-11.7.7-12 .3-.4 1.2-.2 2 .4.9.8 1.3 4.1 1.3 12V339h13v-10.1c0-10.8 1.1-14.9 3.6-12.8 1 .9 1.4 3.8 1.4 12V339h13v-13.3c0-15.1-1.2-18.9-7.1-22-4.2-2.2-10.6-1.8-14.5 1l-2.7 2-3.5-2.3c-4.3-2.9-9.6-3.1-14-.4z"/></svg>