<?xml version="1.0" standalone="no"?>
<!DOCTYPE svg PUBLIC "-//W3C//DTD SVG 20010904//EN"
 "http://www.w3.org/TR/2001/REC-SVG-20010904/DTD/svg10.dtd">
<svg version="1.0" xmlns="http://www.w3.org/2000/svg"
 width="512.000000pt" height="512.000000pt" viewBox="0 0 512.000000 512.000000"
 preserveAspectRatio="xMidYMid meet">
<metadata>
Created by potrace 1.15, written by Peter Selinger 2001-2017
</metadata>
<g transform="translate(0.000000,512.000000) scale(0.100000,-0.100000)"
fill="#000000" stroke="none">
<path d="M1747 4092 c-22 -24 -21 -45 1 -65 14 -13 45 -17 152 -19 l135 -3 5
-481 5 -480 27 -41 c30 -46 96 -83 147 -83 31 0 32 -1 26 -32 -4 -24 1 -46 17
-77 40 -78 130 -104 199 -58 43 28 82 102 73 140 l-6 27 119 0 118 0 0 -49 c0
-149 199 -194 268 -61 11 21 17 50 15 73 -3 37 -3 37 34 37 57 0 82 35 58 81
-10 18 -26 19 -475 19 l-464 0 -25 23 c-14 12 -28 33 -31 47 l-6 25 473 -3
473 -2 40 23 c53 30 79 72 114 181 168 533 168 530 120 590 -36 46 -75 59
-191 64 -89 4 -112 2 -133 -12 -27 -18 -34 -57 -12 -74 6 -5 63 -12 125 -14
158 -6 156 -3 108 -160 -114 -374 -147 -467 -168 -483 -19 -13 -82 -15 -458
-15 -378 0 -438 2 -458 16 -22 15 -22 16 -22 330 l0 314 78 0 c83 0 102 9 102
46 0 38 -36 54 -117 54 -73 0 -73 0 -73 28 -1 37 -20 69 -56 93 -25 16 -48 19
-175 19 -129 0 -148 -2 -162 -18z"/>
<path d="M2551 4034 c-12 -9 -21 -26 -21 -40 0 -16 -6 -24 -18 -24 -28 0 -62
-29 -62 -54 0 -28 16 -43 50 -48 l25 -3 2 -177 c2 -164 1 -178 -15 -178 -29 0
-62 -29 -62 -55 0 -25 33 -55 62 -55 11 0 18 -9 20 -26 7 -56 83 -59 95 -4 7
35 33 41 33 7 0 -29 18 -47 46 -47 29 0 54 25 54 53 1 16 13 28 43 42 49 23
83 69 92 126 6 32 2 50 -17 88 l-24 48 23 43 c27 51 29 76 7 131 -17 40 -82
99 -111 99 -7 0 -13 10 -13 23 0 26 -17 52 -41 60 -24 8 -59 -20 -59 -49 0
-35 -24 -30 -35 8 -12 38 -44 52 -74 32z m207 -175 c30 -11 46 -53 31 -82 -18
-33 -28 -37 -96 -37 l-63 0 0 65 0 65 53 -1 c28 -1 62 -6 75 -10z m30 -261
c10 -22 10 -32 1 -50 -18 -34 -28 -38 -96 -38 l-63 0 0 60 0 61 72 -3 c68 -3
74 -5 86 -30z"/>
<path d="M420 1975 l0 -245 70 0 70 0 1 118 0 117 43 -115 43 -115 76 -3 c70
-3 76 -1 70 15 -4 10 -26 61 -49 113 l-42 95 34 68 34 67 -73 0 -73 0 -31 -62
-32 -63 0 128 -1 127 -70 0 -70 0 0 -245z"/>
<path d="M1460 2052 c0 -117 -4 -172 -12 -180 -15 -15 -61 -15 -76 0 -31 31 6
96 48 85 19 -5 20 -1 20 69 l0 74 -30 0 c-69 0 -140 -48 -171 -115 -57 -124
39 -265 182 -265 41 0 122 46 149 87 24 35 25 43 28 225 l4 188 -71 0 -71 0 0
-168z"/>
<path d="M2320 1975 l0 -245 70 0 70 0 1 118 0 117 43 -115 43 -115 76 -3 c70
-3 76 -1 70 15 -4 10 -26 61 -49 113 l-42 95 34 68 34 67 -73 0 -73 0 -31 -62
-32 -63 0 128 -1 127 -70 0 -70 0 0 -245z"/>
<path d="M878 2071 c-74 -47 -108 -147 -77 -228 23 -63 109 -122 177 -123 l32
0 0 70 0 70 -30 0 c-56 0 -68 83 -13 96 50 13 58 -3 61 -120 l3 -106 69 0 70
0 0 118 c0 105 -3 124 -23 162 -47 90 -177 119 -269 61z"/>
<path d="M1728 2071 c-74 -47 -108 -147 -77 -228 23 -63 109 -122 177 -123
l32 0 0 70 0 70 -30 0 c-56 0 -68 83 -13 96 50 13 58 -3 61 -120 l3 -106 69 0
70 0 0 118 c0 105 -3 124 -23 162 -47 90 -177 119 -269 61z"/>
<path d="M2169 2080 c-62 -32 -79 -83 -79 -228 l0 -122 70 0 70 0 0 104 c0
108 10 136 45 122 13 -4 15 7 15 69 l0 75 -42 0 c-24 -1 -59 -10 -79 -20z"/>
<path d="M2792 2079 c-107 -53 -133 -196 -54 -291 32 -38 94 -67 142 -68 49 0
118 37 154 83 28 35 31 46 31 106 0 57 -4 74 -28 109 -52 79 -156 105 -245 61z"/>
<path d="M3458 2071 c-130 -82 -110 -275 34 -336 21 -8 52 -15 70 -15 68 1
153 60 177 123 20 53 17 57 -57 57 -56 0 -69 -3 -80 -20 -15 -24 -54 -26 -76
-4 -25 24 -20 61 10 81 24 16 29 16 54 1 21 -12 44 -15 94 -11 l65 6 -15 35
c-30 73 -91 112 -177 112 -41 0 -63 -6 -99 -29z"/>
<path d="M3882 2079 c-107 -53 -133 -196 -54 -291 32 -38 94 -67 142 -68 49 0
118 37 154 83 28 35 31 46 31 106 0 57 -4 74 -28 109 -52 79 -156 105 -245 61z"/>
<path d="M4282 2080 c-62 -38 -72 -69 -72 -217 l0 -133 70 0 70 0 0 113 c0 63
3 117 7 120 3 4 12 2 20 -4 9 -8 13 -41 13 -120 l0 -109 65 0 65 0 0 101 c0
108 11 149 36 128 10 -9 14 -38 14 -120 l0 -109 65 0 65 0 0 133 c0 151 -12
189 -71 220 -42 22 -106 18 -145 -10 l-27 -20 -35 23 c-43 29 -96 31 -140 4z"/>
</g>
</svg>
