<svg id="Layer_1" data-name="Layer 1" xmlns="http://www.w3.org/2000/svg" viewBox="0 0 841.89 595.28"><defs><style>.cls-1{fill:#41276d}</style></defs><path class="cls-1" d="M498.86 253.57v100.86h-29.25V339.7a32.35 32.35 0 01-12.53 12.14 36.38 36.38 0 01-17.5 4.18q-18.9 0-28.25-10.55T402 313.64v-60.07h30v60.67q0 18.3 15.71 18.3 9.34 0 15.12-6.36t5.77-16.71v-55.9zM613.56 207.57v146.86h-29.64v-14.92A31.82 31.82 0 01571 351.64a40.09 40.09 0 01-18.9 4.38 41 41 0 01-23.1-6.67 44.35 44.35 0 01-15.81-18.7q-5.67-12-5.67-27.55t5.67-27.35a43.46 43.46 0 0115.71-18.3 41.89 41.89 0 0123.19-6.45 40 40 0 0118.5 4.28 31.55 31.55 0 0112.93 11.83v-59.54zM578 325.48q6-7.65 6-22 0-14.13-6.07-21.78t-17-7.66q-11.15 0-17.31 7.56t-6.16 21.48q0 14.32 6.16 22.18t17.31 7.86q11.07.02 17.07-7.64zM728.26 253.57v100.86h-29.65v-14.92a31.76 31.76 0 01-12.93 12.13 40.08 40.08 0 01-18.89 4.36 41.31 41.31 0 01-38.89-24.57q-5.67-11.83-5.67-27.35t5.67-27.66a44.24 44.24 0 0115.81-18.79 41 41 0 0123.08-6.63 38.69 38.69 0 0118.89 4.58 33.11 33.11 0 0112.93 12.33v-14.34zm-35.61 72q6-7.56 6-21.88t-6-22q-6-7.67-17.11-7.66T658.23 282q-6.16 8-6.17 22.09t6.07 21.58q6.07 7.45 17.41 7.46 11.13.01 17.11-7.55zM395.89 355.85h-37.27l-40.1-45.73v45.73H288.1V207.57h30.42v90.05l38.28-43.71h36.47l-43.32 49zM204.76 355.9l-58.38-67.2 31.88 67.2h-22.1l-32.52-68.51 13.52 68.51h-13.58l-13.53-68.61v68.61h-5.33V207.57h5.33v74l13.72-74h13.54l-13.78 74.32 33.15-74.32h21.86l-33.02 74.05 59.96-74.05h34.26l-62.02 76.61 62.31 71.72h-35.27z"/><circle class="cls-1" cx="753.45" cy="337.8" r="16.47"/></svg>