<svg width="3077" height="547" fill="none" xmlns="http://www.w3.org/2000/svg"><path d="M547 547H0v-56h12l12-1 3-5 14-19 36-47 11-14h81l4 14 4 16 1 2-7 8a313 313 0 0 1-37 45l19 1h19l3-6a89 89 0 0 1 15-21 128 128 0 0 1 7 26l20 1h19l1-1a219 219 0 0 0 7-13l11-12a115 115 0 0 1 6 26 1337 1337 0 0 0 50-1l-3-5c-6-11-5-10-17-46l-5-17 6-9 7-8h81l6 19a2600 2600 0 0 1 17 66l26 1a888 888 0 0 0 25-3l-11-26a2283 2283 0 0 1-51-176h-41l-2 3-9 16-64 85-6-21a4701 4701 0 0 1 67-83h-41l-1 1v2c-1 5-2 8-6 13l-32 40-2-5a4898 4898 0 0 0-12-49v-2h-50l1 3a1317 1317 0 0 1 30 88l-13 17a3463 3463 0 0 1-29-100l-1-7v-1h-43l-4 9-7 13a1709 1709 0 0 1-69 92 2835 2835 0 0 1-57 73H0V0h515L347 218a2950 2950 0 0 0-39 53h31l45-58 32-42L547 0v547zM225 438l-4-14 13-17 2 3 7 20 1 2-2 3-12 16-5-13zm-117-59a4455 4455 0 0 1 30-38 143 143 0 0 0 9-14v4l1 7a385 385 0 0 0 12 41 852 852 0 0 1-52 0zm211 0c17-21 31-39 36-48l2-4 1 5v7a522 522 0 0 0 12 40h1-53 1z" fill="#103083"/><path d="M340 274l-41-1L514 0h33L340 274z" fill="#FC1721"/><path d="M712 471l81-241h59l80 241h-47l-19-59h-93l-19 59h-42zm108-204l-36 112h71l-35-112zM941 471l78-124-72-117h50l52 86 51-86h46l-71 116 77 125h-51l-57-94-57 94h-46zM1162 471l81-241h59l79 241h-46l-20-59h-92l-19 59h-42zm107-204l-35 112h71l-36-112zM1479 471V230h60l64 165 62-165h59v241h-45V289l-72 182h-14l-74-182v182h-40zM1751 471l81-241h59l80 241h-47l-19-59h-93l-19 59h-42zm108-204l-36 112h71l-35-112zM1998 471V230h53l102 174V230h41v241h-46l-109-185v185h-41zM2322 475c-32 0-55-7-71-21a82 82 0 0 1-26-58h43c2 15 7 26 14 33 8 8 21 12 40 12 13 0 24-3 33-10 8-7 13-16 13-27s-4-20-11-25-20-9-40-12c-30-4-52-12-65-22s-20-27-20-49c0-20 8-36 23-49 16-13 36-20 61-20 26 0 47 6 62 18s24 29 26 52h-41c-2-13-7-22-15-27-7-6-18-9-32-9-13 0-23 3-31 9-7 5-10 13-10 22 0 11 3 19 9 24 7 5 21 9 41 12 30 4 52 11 65 22 14 10 21 27 21 50 0 21-8 39-25 53a95 95 0 0 1-64 22zM2417 471l81-241h59l80 241h-47l-19-59h-93l-18 59h-43zm108-204l-36 112h71l-35-112zM2664 471V230h81c28 0 50 6 66 18 16 11 24 29 24 53v1c0 34-18 56-54 65l69 104h-49l-64-97h-28v97h-45zm45-129h36c31 0 46-13 46-39v-1c0-13-4-23-12-28-8-6-19-9-34-9h-36v77zM2920 436h27c26 0 46-7 60-22 13-14 20-35 20-63v-2c0-56-27-84-81-84h-26v171zm-45 35V230h74c41 0 72 11 93 32s32 50 32 86v3c0 37-11 66-32 88-22 21-53 32-94 32h-73z" fill="#103083"/><path d="M715 471l81-241h59l79 241h-46l-20-59h-92l-19 59h-42zm107-204l-35 112h71l-36-112zM944 471l78-124-73-117h51l52 86 51-86h46l-71 116 77 125h-51l-57-94-57 94h-46zM1165 471l80-241h59l80 241h-46l-20-59h-92l-19 59h-42zm107-204l-36 112h72l-36-112zM1482 471V230h60l63 165 63-165h59v241h-45V289l-72 182h-14l-74-182v182h-40zM1754 471l81-241h59l80 241h-47l-19-59h-93l-19 59h-42zm108-204l-36 112h71l-35-112zM2000 471V230h54l102 174V230h41v241h-47l-109-185v185h-41zM2325 475c-32 0-56-7-71-21a82 82 0 0 1-26-58h43c2 15 6 26 14 33 8 8 21 12 40 12 13 0 24-3 33-10 8-7 12-16 12-27s-3-20-10-25-20-9-40-12c-30-4-52-12-65-22-14-10-20-27-20-49 0-20 8-36 23-49 16-13 36-20 61-20 26 0 47 6 62 18s24 29 26 52h-41c-3-13-7-22-15-27-7-6-18-9-32-9-13 0-24 3-31 9-7 5-11 13-11 22 0 11 4 19 10 24 7 5 20 9 40 12 30 4 52 11 66 22 14 10 21 27 21 50 0 21-8 39-25 53a95 95 0 0 1-64 22zM2420 471l81-241h59l80 241h-47l-19-59h-93l-19 59h-42zm108-204l-36 112h71l-35-112zM2667 471V230h81c28 0 50 6 66 18 16 11 24 29 24 53v1c0 34-18 56-54 65l68 104h-48l-64-97h-28v97h-45zm45-129h36c30 0 46-13 46-39v-1c0-13-4-23-12-28-8-6-19-9-34-9h-36v77zM2923 436h27c26 0 46-7 60-22 13-14 20-35 20-63v-2c0-56-27-84-81-84h-26v171zm-45 35V230h74c41 0 72 11 93 32s32 50 32 86v3c0 37-11 66-32 88-22 21-53 32-94 32h-73z" fill="#103083"/></svg>