<svg xmlns="http://www.w3.org/2000/svg" xmlns:xlink="http://www.w3.org/1999/xlink" width="679" height="186" viewBox="0 0 679 186">
  <defs>
    <path id="interswitch@1x-a" d="M52.5171,0.4016 C57.6488,7.3374 58.9811,15.0368 58.9801,21.159 C58.9801,27.7609 57.4319,32.5297 57.4319,32.5297 L44.3369,30.2287 C44.3369,30.2287 47.6074,21.8096 42.6927,15.7095 L0.1324,15.7095 L0.1324,0.4016 L52.5171,0.4016 Z"/>
    <path id="interswitch@1x-c" d="M52.5171,0.4016 C57.6488,7.3374 58.9801,15.0358 58.9801,21.159 C58.9801,27.7609 57.4319,32.5297 57.4319,32.5297 L44.3369,30.2287 C44.3369,30.2287 47.6074,21.8096 42.6927,15.7095 L0.1324,15.7095 L0.1324,0.4016 L52.5171,0.4016 Z"/>
    <path id="interswitch@1x-e" d="M73.3669,0.257 L76.2496,15.5579 L59.2125,15.5579 L59.2125,30.6988 L45.5878,30.6988 L45.5878,15.5579 L25.2692,15.5579 C21.8068,15.5579 19.0601,16.1176 17.0281,17.2611 C14.964,18.3925 13.9425,20.6615 13.9425,24.0689 C13.9425,25.7351 14.1024,27.4074 14.4413,29.1735 C14.7861,30.8888 15.2289,32.489 15.8076,33.9283 L3.0465,36.0923 C2.2509,34.2412 1.5612,32.1931 0.9765,29.9362 C0.3978,27.6722 0.0969,24.8925 0.0969,21.6081 C0.0969,17.432 0.7056,13.9826 1.9131,11.2399 C3.1205,8.5091 4.8147,6.3132 6.9757,4.6779 C9.1197,3.0417 11.7495,1.8922 14.8291,1.2465 C17.9027,0.5878 21.2961,0.257 25.0413,0.257 L73.3669,0.257 Z"/>
    <path id="interswitch@1x-g" d="M56.7311,7.5875 C59.8667,11.3518 61.4679,16.5054 61.4679,23.0854 C61.4679,26.3768 61.1541,29.5254 60.5194,32.539 C59.9036,35.5456 59.202,37.9505 58.4933,39.7156 L45.7442,37.0529 C46.4029,35.2687 46.9816,33.3326 47.4864,31.2466 C48.0042,29.1625 48.274,26.8126 48.274,24.2178 C48.274,19.4261 46.8347,17.0282 43.982,17.0282 C43.3233,17.0282 42.7376,17.1321 42.2268,17.341 C41.7091,17.5509 41.2163,17.9577 40.7425,18.5605 C40.2737,19.1922 39.745,20.0178 39.2022,21.0873 C38.6305,22.1508 38.0378,23.5032 37.3671,25.1464 C36.0367,28.4859 34.7433,31.2596 33.4369,33.4486 C32.1315,35.6445 30.7582,37.3667 29.2309,38.6401 C27.7396,39.9066 26.0893,40.8041 24.2542,41.3089 C22.424,41.8137 20.312,42.0765 17.9031,42.0765 C12.1938,42.0765 7.8758,40.0715 4.9571,36.0813 C2.0495,32.0712 0.5842,26.4008 0.5842,19.0762 C0.5842,14.2914 1.009,10.3063 1.9015,7.1268 C2.7701,3.9342 3.5208,1.7333 4.1005,0.5028 L17.3924,3.0676 C16.2949,5.6574 15.4463,8.3502 14.8046,11.0689 C14.1778,13.8237 13.863,16.5054 13.863,19.1922 C13.863,21.9909 14.1709,23.9719 14.7506,25.1464 C15.3353,26.3149 16.4808,26.8806 18.156,26.8806 C19.4804,26.8806 20.6319,26.1429 21.6114,24.6296 C22.6089,23.1163 23.7174,20.8404 24.9808,17.7538 C25.9354,15.3609 26.9199,13.185 27.9365,11.2219 C28.971,9.2858 30.1784,7.6245 31.6138,6.2542 C33.0431,4.8878 34.7553,3.8303 36.7504,3.0676 C38.7105,2.305 41.0804,1.9422 43.8771,1.9422 C49.2906,1.9422 53.5836,3.8303 56.7311,7.5875 Z"/>
    <path id="interswitch@1x-i" d="M57.9246,62.7907 L57.9246,78.7074 C52.2023,77.1951 46.5479,75.6388 40.9565,74.0205 C35.3381,72.3913 30.0286,70.835 25.0149,69.2787 C19.9832,67.7474 15.3574,66.2351 11.0954,64.7638 C6.8513,63.2825 3.194,61.9172 0.1134,60.6997 L0.1134,48.7872 C5.6809,47.065 11.2133,45.3928 16.7137,43.7446 C22.1942,42.1023 27.7376,40.614 33.306,39.2367 C27.7376,37.8643 22.1942,36.419 16.7137,34.8767 C11.2133,33.3384 5.6809,31.7022 0.1134,30.011 L0.1134,18.0985 C3.194,16.8621 6.8513,15.5157 11.0954,14.0763 C15.3574,12.625 19.9832,11.1427 25.0149,9.5874 C30.0286,8.0491 35.3381,6.4749 40.9565,4.8636 C46.5479,3.2464 52.2023,1.6781 57.9246,0.1778 L57.9246,16.3023 C55.2948,16.8381 52.4062,17.4468 49.2956,18.1045 C46.1791,18.7572 42.9696,19.4449 39.6691,20.1655 C36.3796,20.8842 33.0722,21.6538 29.7337,22.4405 C26.3953,23.2341 23.1987,24.0467 20.1242,24.8693 C23.3457,25.7609 26.6361,26.6345 30.0046,27.4891 C33.379,28.3317 36.6935,29.1633 39.951,29.956 C43.2045,30.7366 46.364,31.5053 49.4056,32.2069 C52.4432,32.9206 55.2948,33.5543 57.9246,34.1131 L57.9246,45.1899 C55.2948,45.7546 52.4432,46.3514 49.4056,47.0461 C46.364,47.7227 43.2045,48.4434 39.951,49.205 C36.6935,49.9437 33.379,50.7483 30.0046,51.555 C26.6361,52.3846 23.3457,53.2342 20.1242,54.1128 C23.1987,54.9434 26.3953,55.767 29.7337,56.5976 C33.0722,57.4282 36.3796,58.2089 39.6691,58.9225 C42.9696,59.6362 46.1791,60.3249 49.2956,60.9886 C52.4062,61.6473 55.2948,62.244 57.9246,62.7907 Z"/>
    <polygon id="interswitch@1x-k" points=".135 .523 57.934 .523 57.934 15.801 .135 15.801"/>
    <path id="interswitch@1x-m" d="M74.3489,0.9526 L77.2496,16.2405 L59.9056,16.2405 L59.9056,31.3705 L46.3059,31.3705 L46.3059,16.2405 L25.9674,16.2405 C22.525,16.2405 19.7533,16.8073 17.7262,17.9327 C15.6752,19.0582 14.6476,21.3392 14.6476,24.7526 C14.6476,26.4068 14.7946,28.105 15.1334,29.8392 C15.4673,31.5914 15.94,33.1787 16.5128,34.623 L3.7637,36.77 C2.9511,34.9189 2.2604,32.8578 1.6697,30.6149 C1.0909,28.3439 0.7951,25.5962 0.7951,22.2987 C0.7951,18.1177 1.3978,14.6663 2.6182,11.9305 C3.8077,9.1868 5.4879,6.9978 7.6679,5.3626 C9.8119,3.7263 12.4536,2.5829 15.5152,1.9242 C18.6008,1.2605 22.0142,0.9526 25.7395,0.9526 L74.3489,0.9526 Z"/>
    <path id="interswitch@1x-o" d="M59.042,16.293 C60.6373,19.7064 61.4629,23.6056 61.4629,27.9846 C61.4629,30.8563 61.174,33.495 60.6323,35.8929 C60.0706,38.2918 59.2889,40.6297 58.2724,42.8737 L45.1965,39.7012 C45.7752,38.2548 46.28,36.6866 46.7357,34.9644 C47.1685,33.2542 47.3954,31.3301 47.3954,29.214 C47.3954,24.7011 45.8861,21.3237 42.8805,19.1157 C39.8689,16.8708 35.9208,15.7763 31.005,15.7763 C25.8135,15.7763 21.7793,16.8168 18.9206,18.9198 C16.069,20.9858 14.6336,24.6382 14.6336,29.8347 C14.6336,31.6869 14.8255,33.661 15.1884,35.795 C15.5582,37.911 16.1369,39.8601 16.9506,41.6553 L3.5348,43.7963 C2.7282,42.0131 2.0515,39.7991 1.4538,37.1294 C0.874,34.4486 0.5722,31.515 0.5722,28.3045 C0.5722,23.3767 1.3738,19.1227 2.9451,15.5734 C4.5153,12.02 6.6583,9.0854 9.3671,6.7964 C12.0838,4.4925 15.2863,2.8313 18.9826,1.7678 C22.6839,0.7033 26.7,0.1735 31.005,0.1735 C35.1881,0.1735 39.1293,0.8082 42.8246,2.0746 C46.5328,3.341 49.7483,5.1682 52.5021,7.5601 C55.2548,9.959 57.4228,12.8616 59.042,16.293 Z"/>
    <path id="interswitch@1x-q" d="M72.3709,0.6807 L75.2466,15.9746 L57.6917,15.9746 C58.0566,16.9961 58.4074,18.3065 58.7393,19.9308 C59.0661,21.529 59.238,23.0973 59.238,24.5986 C59.238,28.9706 58.5913,32.6059 57.3169,35.5205 C56.0345,38.4232 54.2183,40.7671 51.8714,42.5003 C49.5375,44.2585 46.7418,45.4779 43.5313,46.2096 C40.2988,46.9162 36.7015,47.2721 32.7463,47.2721 L0.1344,47.2721 L0.1344,31.9842 L30.7832,31.9842 C36.0548,31.9842 39.788,31.3495 41.999,30.09 C44.173,28.8226 45.2755,26.4737 45.2755,23.0603 C45.2755,21.6709 45.1456,20.4025 44.8987,19.1981 C44.6408,18.0046 44.3579,16.9291 44.0681,15.9746 L0.1344,15.9746 L0.1344,0.6807 L72.3709,0.6807 Z"/>
    <path id="interswitch@1x-s" d="M52.4941,0.5546 C52.4941,0.5546 59.0661,8.242 59.0661,25.0562 C59.0661,40.3571 50.8809,48.7582 32.8633,48.7582 L0.1154,48.7582 L0.1154,33.4763 L32.8633,33.4763 C44.3399,33.4763 45.1336,28.1128 45.1336,23.5309 C45.1336,18.9491 42.6937,15.8805 42.6937,15.8805 L0.1154,15.8805 L0.1154,0.5546 L52.4941,0.5546 Z"/>
    <polygon id="interswitch@1x-u" points="72.363 .76 75.247 16.061 .115 16.061 .115 .76"/>
    <path id="interswitch@1x-w" d="M31.7697,0.4898 C49.7923,0.4898 61.236,11.1909 61.236,26.4858 C61.236,49.4371 36.7094,50.9744 26.867,49.4371 L26.867,15.0221 C26.867,15.0221 14.5917,15.7907 14.5917,31.0726 C14.5917,38.7241 17.0375,46.3746 17.0375,46.3746 L3.9246,47.9058 C3.9246,47.9058 0.6771,40.2614 0.6771,29.5604 C0.6771,14.2535 8.8513,0.4898 31.7697,0.4898 Z M49.7923,25.7351 C49.7923,15.7907 38.3356,15.0221 38.3356,15.0221 L38.3356,36.4242 C38.3356,36.4242 49.7923,35.6735 49.7923,25.7351 Z"/>
    <path id="interswitch@1x-y" d="M119.2326,0.5397 C122.725,0.5397 130.2615,44.5293 130.2615,74.0316 C130.2615,86.8256 128.8441,96.89397 125.0659,99.46978 C107.524,112.75362 -2.5299,19.237 0.8085,11.4446 C2.4778,5.1955 72.5273,61.3025 100.8901,51.9498 C115.8882,47.281 114.2199,0.5397 119.2326,0.5397 Z"/>
    <path id="interswitch@1x-A" d="M22.5915,0.9948 C34.5709,0.9948 44.2654,10.0666 44.2654,21.24742 C44.2654,32.43923 34.5709,41.49902 22.5915,41.49902 C10.606,41.49902 0.9115,32.43923 0.9115,21.24742 C0.9115,10.0666 10.606,0.9948 22.5915,0.9948 Z"/>
  </defs>
  <g fill="none" fill-rule="evenodd" transform="rotate(-90 93 92.5)">
    <path fill="#03435F" d="M88.3372,223.2291 L101.4322,225.5291 C101.4322,225.5291 107.1845,207.8173 96.5164,193.402 L44.1317,193.402 L44.1317,208.7099 L86.692,208.7099 C91.6077,214.81 88.3372,223.2291 88.3372,223.2291"/>
    <g transform="translate(44 193)">
      <mask id="interswitch@1x-b" fill="#fff">
        <use xlink:href="#interswitch@1x-a"/>
      </mask>
      <polygon fill="#03435F" points="-162.227 -931.441 -162.227 1224.306 2891.747 1224.306 2891.747 -931.441" mask="url(#interswitch@1x-b)"/>
    </g>
    <g transform="translate(44 193)">
      <mask id="interswitch@1x-d" fill="#fff">
        <use xlink:href="#interswitch@1x-c"/>
      </mask>
      <polygon fill="#03435F" points="-25.532 -25.262 -25.532 58.193 84.644 58.193 84.644 -25.262" mask="url(#interswitch@1x-d)"/>
    </g>
    <path fill="#03435F" d="M116.3666,91.2563 L119.2493,106.5572 L102.2122,106.5572 L102.2122,121.6981 L88.5875,121.6981 L88.5875,106.5572 L68.2689,106.5572 C64.8075,106.5572 62.0598,107.1169 60.0278,108.2614 C57.9647,109.3928 56.9422,111.6618 56.9422,115.0692 C56.9422,116.7354 57.1021,118.4087 57.441,120.1738 C57.7858,121.8891 58.2286,123.4883 58.8083,124.9276 L46.0462,127.0926 C45.2516,125.2405 44.5619,123.1934 43.9772,120.9365 C43.3985,118.6725 43.0966,115.8928 43.0966,112.6084 C43.0966,108.4333 43.7053,104.9829 44.9128,102.2392 C46.1202,99.5094 47.8144,97.3145 49.9764,95.6782 C52.1194,94.042 54.7492,92.8915 57.8288,92.2458 C60.9024,91.5881 64.2968,91.2563 68.041,91.2563 L116.3666,91.2563 Z"/>
    <g transform="translate(43 91)">
      <mask id="interswitch@1x-f" fill="#fff">
        <use xlink:href="#interswitch@1x-e"/>
      </mask>
      <polygon fill="#03435F" points="-161.227 -829.441 -161.227 1326.306 2892.747 1326.306 2892.747 -829.441" mask="url(#interswitch@1x-f)"/>
      <polygon fill="#03435F" points="-25.567 -25.408 -25.567 61.755 101.914 61.755 101.914 -25.408" mask="url(#interswitch@1x-f)"/>
    </g>
    <path fill="#03435F" d="M55.863,248.1927 C55.863,250.9914 56.1719,252.9714 56.7506,254.1469 C57.3353,255.3144 58.4808,255.8801 60.156,255.8801 C61.4804,255.8801 62.6319,255.1424 63.6114,253.6291 C64.6089,252.1168 65.7174,249.8409 66.9808,246.7543 C67.9354,244.3614 68.9199,242.1845 69.9365,240.2224 C70.971,238.2853 72.1784,236.625 73.6138,235.2537 C75.0421,233.8873 76.7553,232.8298 78.7504,232.0671 C80.7095,231.3045 83.0804,230.9427 85.8771,230.9427 C91.2916,230.9427 95.5846,232.8298 98.7321,236.588 C101.8667,240.3513 103.4679,245.5059 103.4679,252.0859 C103.4679,255.3763 103.1541,258.5249 102.5194,261.5385 C101.9036,264.5461 101.201,266.951 100.4933,268.7151 L87.7442,266.0524 C88.4029,264.2692 88.9816,262.3321 89.4864,260.2471 C90.0032,258.162 90.275,255.8131 90.275,253.2173 C90.275,248.4266 88.8337,246.0277 85.982,246.0277 C85.3233,246.0277 84.7376,246.1326 84.2268,246.3415 C83.7091,246.5504 83.2163,246.9572 82.7425,247.56 C82.2737,248.1927 81.745,249.0173 81.2022,250.0868 C80.6295,251.1503 80.0388,252.5037 79.3671,254.1469 C78.0367,257.4854 76.7433,260.2591 75.4369,262.4491 C74.1315,264.644 72.7572,266.3662 71.2309,267.6396 C69.7396,268.9061 68.0883,269.8046 66.2542,270.3084 C64.424,270.8132 62.312,271.077 59.9031,271.077 C54.1938,271.077 49.8768,269.072 46.9571,265.0808 C44.0495,261.0707 42.5842,255.4003 42.5842,248.0757 C42.5842,243.2909 43.009,239.3058 43.9015,236.1263 C44.7701,232.9347 45.5208,230.7328 46.1005,229.5033 L59.3924,232.0671 C58.2959,234.6569 57.4463,237.3507 56.8046,240.0694 C56.1768,242.8242 55.863,245.5059 55.863,248.1927"/>
    <g transform="translate(42 229)">
      <mask id="interswitch@1x-h" fill="#fff">
        <use xlink:href="#interswitch@1x-g"/>
      </mask>
      <polygon fill="#03435F" points="-160.227 -967.441 -160.227 1188.306 2893.747 1188.306 2893.747 -967.441" mask="url(#interswitch@1x-h)"/>
      <polygon fill="#03435F" points="-25.08 -25.16 -25.08 67.742 87.132 67.742 87.132 -25.16" mask="url(#interswitch@1x-h)"/>
    </g>
    <path fill="#03435F" d="M77.3061,318.2364 C71.7377,316.865 66.1943,315.4197 60.7128,313.8764 C55.2124,312.3381 49.681,310.7019 44.1135,309.0117 L44.1135,297.0992 C47.1931,295.8628 50.8514,294.5164 55.0955,293.077 C59.3575,291.6247 63.9833,290.1434 69.015,288.5871 C74.0297,287.0488 79.3382,285.4756 84.9556,283.8633 C90.548,282.2461 96.2024,280.6778 101.9247,279.1775 L101.9247,295.303 C99.2949,295.8378 96.4053,296.4465 93.2957,297.1042 C90.1792,297.7569 86.9697,298.4456 83.6682,299.1652 C80.3787,299.8849 77.0723,300.6535 73.7338,301.4402 C70.3954,302.2338 67.1988,303.0464 64.1243,303.869 C67.3458,304.7616 70.6352,305.6352 74.0047,306.4898 C77.3791,307.3324 80.6936,308.163 83.9511,308.9557 C87.2036,309.7373 90.3631,310.506 93.4057,311.2066 C96.4433,311.9203 99.2949,312.554 101.9247,313.1137 L101.9247,324.1896 C99.2949,324.7553 96.4433,325.3511 93.4057,326.0458 C90.3631,326.7224 87.2036,327.4431 83.9511,328.2057 C80.6936,328.9434 77.3791,329.749 74.0047,330.5547 C70.6352,331.3843 67.3458,332.2339 64.1243,333.1135 C67.1988,333.9431 70.3954,334.7677 73.7338,335.5973 C77.0723,336.4279 80.3787,337.2086 83.6682,337.9222 C86.9697,338.6359 90.1792,339.3246 93.2957,339.9893 C96.4053,340.647 99.2949,341.2437 101.9247,341.7904 L101.9247,357.7071 C96.2024,356.1948 90.548,354.6385 84.9556,353.0212 C79.3382,351.391 74.0297,349.8347 69.015,348.2794 C63.9833,346.7471 59.3575,345.2348 55.0955,343.7645 C50.8514,342.2832 47.1931,340.9169 44.1135,339.7004 L44.1135,327.7879 C49.681,326.0647 55.2124,324.3925 60.7128,322.7443 C66.1943,321.102 71.7377,319.6137 77.3061,318.2364"/>
    <g transform="translate(44 279)">
      <mask id="interswitch@1x-j" fill="#fff">
        <use xlink:href="#interswitch@1x-i"/>
      </mask>
      <polygon fill="#03435F" points="-162.227 -1017.441 -162.227 1138.306 2891.747 1138.306 2891.747 -1017.441" mask="url(#interswitch@1x-j)"/>
      <polygon fill="#03435F" points="-25.551 -25.486 -25.551 104.371 83.588 104.371 83.588 -25.486" mask="url(#interswitch@1x-j)"/>
    </g>
    <polygon fill="#03435F" points="44.136 368.523 44.136 383.8 101.935 383.8 101.935 368.523"/>
    <g transform="translate(44 368)">
      <mask id="interswitch@1x-l" fill="#fff">
        <use xlink:href="#interswitch@1x-k"/>
      </mask>
      <polygon fill="#03435F" points="-162.227 -1106.441 -162.227 1049.306 2891.747 1049.306 2891.747 -1106.441" mask="url(#interswitch@1x-l)"/>
      <polygon fill="#03435F" points="-25.528 -25.141 -25.528 41.463 83.599 41.463 83.599 -25.141" mask="url(#interswitch@1x-l)"/>
    </g>
    <path fill="#03435F" d="M116.3491,395.9523 L119.2498,411.2412 L101.9058,411.2412 L101.9058,426.3712 L88.3061,426.3712 L88.3061,411.2412 L67.9676,411.2412 C64.5252,411.2412 61.7525,411.807 59.7264,412.9324 C57.6754,414.0579 56.6468,416.3389 56.6468,419.7533 C56.6468,421.4075 56.7948,423.1047 57.1336,424.8389 C57.4665,426.5911 57.9402,428.1784 58.513,429.6237 L45.7629,431.7707 C44.9513,429.9186 44.2606,427.8585 43.6699,425.6146 C43.0911,423.3436 42.7953,420.5959 42.7953,417.2984 C42.7953,413.1174 43.398,409.667 44.6184,406.9302 C45.8069,404.1875 47.4881,401.9975 49.6691,400.3623 C51.8121,398.726 54.4548,397.5826 57.5154,396.9249 C60.601,396.2602 64.0134,395.9523 67.7407,395.9523 L116.3491,395.9523 Z"/>
    <g transform="translate(42 395)">
      <mask id="interswitch@1x-n" fill="#fff">
        <use xlink:href="#interswitch@1x-m"/>
      </mask>
      <polygon fill="#03435F" points="-160.227 -1133.441 -160.227 1022.306 2893.747 1022.306 2893.747 -1133.441" mask="url(#interswitch@1x-n)"/>
      <polygon fill="#03435F" points="-24.869 -24.712 -24.869 62.434 102.914 62.434 102.914 -24.712" mask="url(#interswitch@1x-n)"/>
    </g>
    <path fill="#03435F" d="M73.0054,437.1734 C77.1885,437.1734 81.1297,437.8081 84.825,439.0745 C88.5332,440.3409 91.7477,442.1681 94.5015,444.561 C97.2542,446.9589 99.4232,449.8615 101.0424,453.2929 C102.6377,456.7063 103.4633,460.6055 103.4633,464.9845 C103.4633,467.8562 103.1734,470.4949 102.6317,472.8928 C102.071,475.2927 101.2883,477.6296 100.2728,479.8736 L87.1959,476.7011 C87.7756,475.2557 88.2804,473.6865 88.7361,471.9653 C89.1679,470.2551 89.3948,468.33 89.3948,466.2149 C89.3948,461.701 87.8865,458.3236 84.8809,456.1156 C81.8683,453.8707 77.9202,452.7762 73.0054,452.7762 C67.8139,452.7762 63.7797,453.8157 60.921,455.9197 C58.0694,457.9857 56.634,461.6391 56.634,466.8356 C56.634,468.6868 56.8259,470.6609 57.1888,472.7949 C57.5586,474.9109 58.1373,476.86 58.95,478.6562 L45.5352,480.7972 C44.7286,479.012 44.0509,476.799 43.4542,474.1303 C42.8734,471.4485 42.5726,468.5139 42.5726,465.3044 C42.5726,460.3776 43.3732,456.1226 44.9445,452.5733 C46.5147,449.0199 48.6587,446.0853 51.3685,443.7973 C54.0842,441.4914 57.2867,439.8312 60.983,438.7677 C64.6843,437.7032 68.6994,437.1734 73.0054,437.1734"/>
    <g transform="translate(42 437)">
      <mask id="interswitch@1x-p" fill="#fff">
        <use xlink:href="#interswitch@1x-o"/>
      </mask>
      <polygon fill="#03435F" points="-160.227 -1175.441 -160.227 980.306 2893.747 980.306 2893.747 -1175.441" mask="url(#interswitch@1x-p)"/>
      <polygon fill="#03435F" points="-25.092 -25.49 -25.092 69.459 87.127 69.459 87.127 -25.49" mask="url(#interswitch@1x-p)"/>
    </g>
    <path fill="#03435F" d="M44.134,490.6808 L116.3705,490.6808 L119.2462,505.9757 L101.6923,505.9757 C102.0562,506.9962 102.407,508.3066 102.7389,509.9309 C103.0657,511.5291 103.2386,513.0974 103.2386,514.5987 C103.2386,518.9707 102.5919,522.605 101.3165,525.5196 C100.0351,528.4233 98.2179,530.7662 95.872,532.5004 C93.5371,534.2596 90.7414,535.477 87.5319,536.2097 C84.2994,536.9163 80.7011,537.2722 76.7469,537.2722 L44.134,537.2722 L44.134,521.9833 L74.7828,521.9833 C80.0554,521.9833 83.7876,521.3506 85.9986,520.0901 C88.1736,518.8227 89.2751,516.4738 89.2751,513.0604 C89.2751,511.671 89.1452,510.4026 88.8993,509.1982 C88.6404,508.0047 88.3575,506.9292 88.0677,505.9757 L44.134,505.9757 L44.134,490.6808 Z"/>
    <g transform="translate(44 490)">
      <mask id="interswitch@1x-r" fill="#fff">
        <use xlink:href="#interswitch@1x-q"/>
      </mask>
      <polygon fill="#03435F" points="-162.227 -1228.441 -162.227 927.306 2891.747 927.306 2891.747 -1228.441" mask="url(#interswitch@1x-r)"/>
      <polygon fill="#03435F" points="-25.53 -24.983 -25.53 72.936 100.911 72.936 100.911 -24.983" mask="url(#interswitch@1x-r)"/>
    </g>
    <path fill="#03435F" d="M44.1155,29.5544 L96.4942,29.5544 C96.4942,29.5544 103.0662,37.2418 103.0662,54.056 C103.0662,69.3569 94.88,77.759 76.8644,77.759 L44.1155,77.759 L44.1155,62.4761 L76.8644,62.4761 C88.339,62.4761 89.1337,57.1126 89.1337,52.5307 C89.1337,47.9489 86.6948,44.8803 86.6948,44.8803 L44.1155,44.8803 L44.1155,29.5544 Z"/>
    <g transform="translate(44 29)">
      <mask id="interswitch@1x-t" fill="#fff">
        <use xlink:href="#interswitch@1x-s"/>
      </mask>
      <polygon fill="#03435F" points="-162.227 -767.441 -162.227 1388.306 2891.747 1388.306 2891.747 -767.441" mask="url(#interswitch@1x-t)"/>
      <polygon fill="#03435F" points="-25.549 -25.108 -25.549 74.422 84.729 74.422 84.729 -25.108" mask="url(#interswitch@1x-t)"/>
    </g>
    <polygon fill="#03435F" points="44.115 .76 116.364 .76 119.247 16.061 44.115 16.061"/>
    <g transform="translate(44)">
      <mask id="interswitch@1x-v" fill="#fff">
        <use xlink:href="#interswitch@1x-u"/>
      </mask>
      <polygon fill="#03435F" points="-162.227 -738.441 -162.227 1417.306 2891.747 1417.306 2891.747 -738.441" mask="url(#interswitch@1x-v)"/>
      <polygon fill="#03435F" points="-25.549 -24.904 -25.549 41.725 100.91 41.725 100.91 -24.904" mask="url(#interswitch@1x-v)"/>
    </g>
    <path fill="#03435F" d="M68.8668,181.4375 L68.8668,147.0215 C68.8668,147.0215 56.5915,147.7901 56.5915,163.073 C56.5915,170.7245 59.0373,178.375 59.0373,178.375 L45.9244,179.9062 C45.9244,179.9062 42.6779,172.2618 42.6779,161.5607 C42.6779,146.2529 50.8521,132.4892 73.7695,132.4892 C91.7921,132.4892 103.2358,143.1903 103.2358,158.4862 C103.2358,181.4375 78.7102,182.9748 68.8668,181.4375 M91.7921,157.7355 C91.7921,147.7901 80.3364,147.0215 80.3364,147.0215 L80.3364,168.4236 C80.3364,168.4236 91.7921,167.6739 91.7921,157.7355"/>
    <g transform="translate(42 132)">
      <mask id="interswitch@1x-x" fill="#fff">
        <use xlink:href="#interswitch@1x-w"/>
      </mask>
      <polygon fill="#03435F" points="-160.227 -870.441 -160.227 1285.306 2893.747 1285.306 2893.747 -870.441" mask="url(#interswitch@1x-x)"/>
      <polygon fill="#03435F" points="-24.986 -25.174 -24.986 75.529 86.9 75.529 86.9 -25.174" mask="url(#interswitch@1x-x)"/>
    </g>
    <g transform="translate(0 557)">
      <mask id="interswitch@1x-z" fill="#fff">
        <use xlink:href="#interswitch@1x-y"/>
      </mask>
      <polygon fill="#ED342B" points="-24.93 -25.123 -24.93 126.423 155.925 126.423 155.925 -25.123" mask="url(#interswitch@1x-z)"/>
    </g>
    <g transform="translate(140 636)">
      <mask id="interswitch@1x-B" fill="#fff">
        <use xlink:href="#interswitch@1x-A"/>
      </mask>
      <polygon fill="#ED342B" points="-24.753 -24.668 -24.753 67.163 69.93 67.163 69.93 -24.668" mask="url(#interswitch@1x-B)"/>
    </g>
  </g>
</svg>
