<svg width="608" height="168" xmlns="http://www.w3.org/2000/svg"><defs><linearGradient x1="90.327%" y1="103.379%" x2="38.77%" y2="30.115%" id="a"><stop stop-color="#5C33F3" offset="0%"/><stop stop-color="#2CADFF" offset="100%"/></linearGradient></defs><g fill="none" fill-rule="evenodd"><path d="M119.173.39L22.908 0h-.129C16.731 0 11.068 2.335 6.692 6.746 2.317 11.027 0 16.865 0 22.962v122.076c0 6.097 2.317 11.935 6.692 16.216C10.94 165.535 16.731 168 22.78 168h.129l96.265-.26v-5.837c0-29.968-11.454-57.34-30.244-77.708 19.562-21.276 30.244-48.65 30.244-77.838V.389zM48.52 55.783c-11.454-4.67-23.81-7.654-36.808-8.303v-.26C29.73 44.498 44.014 29.969 46.46 11.806l24.195.13c-1.416 16.995-9.267 32.562-22.136 43.849zm-33.59-40.735c2.059-2.076 4.89-3.244 7.85-3.244h11.712c-2.188 11.806-11.326 21.146-22.908 23.611V22.962c.128-2.984 1.287-5.838 3.346-7.913zm-3.218 105.73v-24.39c31.274 2.854 56.24 28.152 58.944 59.676l-24.195.13c-2.574-18.292-16.731-32.692-34.749-35.417zm11.197 35.416c-2.96 0-5.791-1.168-7.85-3.244-2.06-2.075-3.218-4.93-3.218-7.913v-12.324c11.583 2.464 20.72 11.675 22.908 23.48h-11.84zm84.425-.26l-25.096.13c-2.831-38.01-32.946-68.497-70.654-71.481V59.286c51.607 2.984 92.919 44.757 95.75 96.65zM80.564 75.892a117.437 117.437 0 0 0-20.72-14.66C72.971 48.13 80.95 30.746 82.366 11.935l25.096.13c-1.416 23.87-10.81 46.184-26.898 63.827z" fill="url(#a)" fill-rule="nonzero"/><g fill="#102649"><path d="M264.26 62.413c-5.084-2.732-10.82-4.033-17.209-4.033-6.518 0-12.385 1.431-17.47 4.293-5.084 2.861-8.995 6.763-11.733 11.706-2.738 4.943-4.042 10.536-4.042 16.779 0 4.552.783 8.975 2.478 12.877 1.564 4.032 3.78 7.414 6.648 10.406a29.469 29.469 0 0 0 10.56 6.763 38.795 38.795 0 0 0 13.69 2.472c6.388 0 12.124-1.301 17.209-4.033 5.084-2.731 8.995-6.633 11.864-11.576 2.868-4.943 4.302-10.666 4.302-16.909 0-6.373-1.434-12.096-4.302-17.04-3.13-5.072-7.04-8.974-11.995-11.705zm-4.172 42.532c-3.52 3.642-7.952 5.463-13.167 5.463-5.345 0-9.778-1.82-13.298-5.593-3.52-3.772-5.215-8.324-5.215-13.787 0-5.593 1.695-10.276 5.085-13.918 3.39-3.772 7.952-5.593 13.428-5.593 5.345 0 9.647 1.821 13.167 5.463 3.52 3.642 5.215 8.325 5.215 14.048.13 5.593-1.564 10.275-5.215 13.917z" fill-rule="nonzero"/><path d="M325.274 58.38h-1.825c-3.911 0-7.431.91-10.951 2.732-3.52 1.82-6.388 4.422-8.865 7.804h-.13v-9.495H288.9v63.344h14.601V92.719c0-3.512.652-6.504 1.956-9.235 1.304-2.732 3.39-4.943 5.997-6.504 2.607-1.56 5.736-2.47 9.387-2.47 1.303 0 2.738 0 4.432.13V58.38z"/><path d="M375.728 66.835h-.26c-4.824-5.723-11.343-8.585-19.687-8.585-4.302 0-8.343.78-12.124 2.472-3.781 1.69-7.04 3.902-9.778 6.763-2.738 2.862-4.824 6.374-6.388 10.406-1.565 4.162-2.347 8.454-2.347 13.137 0 3.902.521 7.414 1.434 10.926 1.043 3.382 2.477 6.373 4.302 8.975 1.826 2.601 4.042 4.812 6.519 6.763 2.477 1.951 5.345 3.382 8.474 4.293 3.129.91 6.519 1.43 9.908 1.43 8.605 0 15.384-3.121 20.208-9.495h.13v8.455h13.95V59.03h-14.602v7.804h.261zm-4.693 38.24c-3.52 3.512-7.822 5.333-12.777 5.333-5.345 0-9.777-1.82-13.167-5.332-3.39-3.512-5.085-8.195-5.085-13.788 0-2.991.522-5.723 1.434-8.194.913-2.472 2.217-4.553 3.912-6.244a17.807 17.807 0 0 1 5.866-3.902c2.217-.91 4.563-1.43 7.17-1.43 5.216 0 9.518 1.95 12.908 5.723 3.39 3.772 5.084 8.454 5.084 14.047s-1.825 10.276-5.345 13.788zM463.73 74.119c-1.305-2.471-2.869-4.553-4.694-6.504-1.825-1.95-3.911-3.642-6.128-5.072-2.216-1.431-4.693-2.472-7.43-3.122-2.739-.65-5.476-1.17-8.345-1.17-8.474 0-15.253 2.86-20.207 8.584h-.261v-7.674h-14.602v88.968h14.602V114.7h.13c4.824 5.853 11.473 8.844 20.078 8.844 3.52 0 6.779-.52 9.908-1.43 3.129-1.04 5.997-2.472 8.474-4.293 2.477-1.82 4.693-4.162 6.519-6.763 1.825-2.602 3.259-5.593 4.302-8.975 1.043-3.382 1.434-7.024 1.434-10.926 0-3.122-.391-6.113-1.043-9.105-.652-2.991-1.434-5.463-2.738-7.934zm-15.906 30.957c-3.39 3.511-7.822 5.332-13.168 5.332-5.215 0-9.647-1.82-13.167-5.332-3.52-3.512-5.345-8.195-5.345-13.788 0-5.723 1.694-10.405 5.214-14.178 3.39-3.772 7.953-5.593 13.298-5.593 5.215 0 9.517 1.821 13.037 5.463 3.52 3.642 5.215 8.455 5.215 14.308 0 5.593-1.694 10.276-5.084 13.788zM523.048 66.835h-.26c-4.824-5.723-11.343-8.585-19.686-8.585-4.303 0-8.344.78-12.125 2.472-3.78 1.69-7.04 3.902-9.778 6.763-2.738 2.862-4.824 6.374-6.388 10.406-1.565 4.162-2.347 8.454-2.347 13.137 0 3.902.522 7.414 1.434 10.926 1.043 3.382 2.477 6.373 4.302 8.975 1.826 2.601 4.042 4.812 6.52 6.763 2.476 1.951 5.344 3.382 8.473 4.293 3.13.91 6.519 1.43 9.909 1.43 8.604 0 15.383-3.121 20.207-9.495h.13v8.455h13.95V59.03h-14.601v7.804h.26zm-4.693 38.24c-3.52 3.512-7.822 5.333-12.776 5.333-5.346 0-9.778-1.82-13.168-5.332-3.39-3.512-5.084-8.195-5.084-13.788 0-2.991.521-5.723 1.434-8.194.912-2.472 2.216-4.553 3.91-6.244a17.807 17.807 0 0 1 5.867-3.902c2.217-.91 4.564-1.43 7.17-1.43 5.216 0 9.518 1.95 12.908 5.723 3.39 3.772 5.084 8.454 5.084 14.047s-1.825 10.276-5.345 13.788z" fill-rule="nonzero"/><path d="M591.885 59.29l-16.427 42.664h-.13l-17.47-42.663h-15.384l25.813 59.832-11.472 29.136h15.384l34.94-88.968zM215.762 59.29h-17.21L172.61 88.167h-.26v-56.84h-14.472v91.309h14.471v-14.828l10.69-11.836h.261l16.427 26.664h16.427l-23.206-37.72z"/></g></g></svg>