<svg id="Layer_1" data-name="Layer 1" xmlns="http://www.w3.org/2000/svg" viewBox="0 0 841.89 595.28"><defs><style>.cls-2{fill:#ffb406}</style></defs><path d="M442.77 521.13c3.72-1.86 100.44-43.71 131.14-68.82 31.62-26 48.36-63.25 48.36-107.89V135.16l-2.79-.93c-77.2-41.86-173-39.07-177.64-39.07-3.72 0-99.52-2.79-176.71 39.07l-1.86.93v210.19c0 44.64 16.74 81.85 48.36 107.89 30.69 25.11 127.42 67 131.14 67.89" fill="#341b14"/><path class="cls-2" d="M442.77 525.78S340.46 481.14 308.84 456c-33.48-27.9-49.29-66-49.29-109.75v-217.6c80.91-43.72 183.22-40 183.22-40s102.31-3.72 183.22 40v216.7c0 43.71-15.81 81.85-49.29 109.75-31.62 26-133.93 70.68-133.93 70.68m-168.34-179.5c0 40.92 14.88 74.41 43.71 97.66 26 21.39 103.24 55.8 124.63 65.1 21.39-9.3 99.51-44.64 124.63-65.1 28.83-23.25 43.71-57.67 43.71-97.66V132.37c-107.89-10.23-236.24-4.65-336.68 88.35v125.56z"/><path class="cls-2" d="M546 315.59c14 8.37 19.53 14 20.46 24.18 0 11.16-7.44 17.67-19.53 17.67-10.24 0-22.33-5.58-30.7-13v29.76c10.23 5.58 22.32 10.23 35.35 10.23 31.62 0 46.5-22.32 46.5-42.78.93-18.6-4.65-33.48-31.62-49.29-12.09-7.44-21.39-12.09-21.39-23.25s10.23-15.82 18.6-15.82c11.16 0 22.32 6.51 28.83 13v-27.9c-5.58-4.65-17.67-11.16-35.34-10.23-21.4.93-43.72 15.81-43.72 41.86.93 17.67 6.51 30.69 32.56 45.57m-109.75 67c2.79.93 7.44 1.86 14.88 1.86 36.27 0 56.73-32.55 56.73-79.05 0-47.44-21.39-76.27-59.52-76.27-17.67 0-31.62 3.72-43.71 11.16v210.2h31.62v-67.9zm0-126.49c2.79-.93 7.44-2.79 11.16-2.79 18.6 0 26 14.89 26 51.16 0 35.34-9.3 52.08-27.9 52.08a24.89 24.89 0 01-10.23-1.86v-98.63zM338.6 384.41c19.53 0 36.27-4.65 48.36-13V231h-32.55v121.79c-3.72 2.79-8.37 3.72-14.88 3.72-14.88 0-16.74-13.95-16.74-22.32V231h-32.55v101.33c0 34.41 16.74 52.08 48.36 52.08M555.31 510v21.39H559V523h1l5.58 8.37h4.65s-5.58-8.37-6.51-9.3c2.79-.93 4.65-2.79 4.65-5.58s-1.86-6.51-7.44-6.51zm5.58 2.79c2.79 0 3.72 1.86 3.72 2.79 0 1.86-.93 3.72-4.65 3.72H559v-6.51z"/><path class="cls-2" d="M575.77 520.2a14 14 0 11-13.95-14 13.7 13.7 0 0113.95 14m-13.95-17.67a17.67 17.67 0 1017.67 17.67c0-9.3-8.37-17.67-17.67-17.67"/></svg>