<svg id="Layer_1" data-name="Layer 1" xmlns="http://www.w3.org/2000/svg" viewBox="0 0 891.73 139.17"><defs><style>.cls-1{fill:#fd9002}.cls-2{fill:#01223a}.cls-3{fill:#02233b}.cls-4{fill:#fd9003}</style></defs><path class="cls-1" d="M789.93 525.77H809.38c.57 0 1.49.36 1.64.78 2.2 5.85 6.86 8.06 12.6 8.42 9 .57 14.58-4.16 15.5-13.51.44-4.49.08-9.05.08-13.41a63.65 63.65 0 0 1-5.85 5.84c-9.06 7-22.9 6.76-32.21-.5-7.48-5.83-11.39-13.74-13.09-22.85-1.93-10.35-1.26-20.49 2.89-30.26 5.1-12 15.75-19.07 28.18-18.63 6.88.25 14.41 2.74 20.15 11.27v-10.1h21.57V516.97a47.86 47.86 0 0 1-2.72 16.89c-4.47 12-13.11 18.83-25.65 20.66-8.58 1.25-17 .48-25-3.23-10.19-4.74-15.85-12.91-17.57-23.93a7.44 7.44 0 0 1-.08-.88 6.55 6.55 0 0 1 .11-.71zm49.86-45.49a71.28 71.28 0 0 0-1.94-8.57c-1.89-5.33-5.66-8.87-11.36-9.76a13.78 13.78 0 0 0-13.77 5.48c-5.24 6.76-5.14 19 .11 25.8a14.15 14.15 0 0 0 22.85-.18c2.78-3.75 3.73-8.05 4.1-12.77z" transform="translate(-44.18 -415.9)"/><path class="cls-2" d="M589.14 554.83h-21.21v-45.08c-.5.47-.75.66-1 .9-9.32 11.36-24.81 11.59-35.25 4.65-8.28-5.51-13-13.44-15-23-2.57-12.18-1.36-23.89 5.31-34.67 7.79-12.58 22.65-17.87 35.66-12.82a23.75 23.75 0 0 1 10.12 7.53v-8.49h21.32zm-51.82-73.55a20.89 20.89 0 0 0 2.42 10.72c2.66 4.78 6.66 7.65 12.19 7.9a13.42 13.42 0 0 0 13-7.29c4.11-7.47 4.17-15.25-.13-22.64-4.88-8.38-15.78-9.48-22.54-2.52-3.67 3.86-4.87 8.66-4.93 13.83z" transform="translate(-44.18 -415.9)"/><path class="cls-3" d="M432.4 518.93h-21.33v-10a28.69 28.69 0 0 1-8.1 7.64c-11 6.48-25.81 3.83-34.48-6.11-5.52-6.33-8.25-13.84-9.29-22a50.9 50.9 0 0 1 2.54-24.8c4-10.4 10.75-18 22-20.27 10.75-2.17 19.86.89 26.66 9.83.09.12.21.23.57.6v-34.47h21.43zm-21.34-37.57l.5-.13c-.8-3.17-1.22-6.51-2.49-9.49-2.36-5.56-6.74-8.75-12.94-8.87a13.57 13.57 0 0 0-13.24 8.13 22.64 22.64 0 0 0 .41 21.45 14.23 14.23 0 0 0 23 3c3.6-4.01 4.76-8.86 4.76-14.09z" transform="translate(-44.18 -415.9)"/><path class="cls-1" d="M760.74 452.82v-34.47H782v99.51h-21.22V507.8a61.48 61.48 0 0 1-5.5 5.78c-9.43 7.69-24 7.24-33.76-.91-6.8-5.69-10.48-13.19-12.07-21.72-2.12-11.44-1.48-22.68 4.12-33.14s14.43-16.36 26.53-16.09a24.26 24.26 0 0 1 19.78 10.15c.18.22.38.42.86.95zm-30.54 27.33l-.48.14c.79 3.18 1.19 6.52 2.45 9.5 2.3 5.45 6.5 8.81 12.63 9.09 6.35.29 11-2.71 13.68-8.29a22.79 22.79 0 0 0 .42-19.59c-4.18-9.72-15.61-12.36-23.13-5.46-4.24 3.88-5.53 9.04-5.57 14.61z" transform="translate(-44.18 -415.9)"/><path class="cls-2" d="M170.57 518.94V424.5a2.9 2.9 0 0 1 .57-.13c11.84 0 23.67 0 35.51.08a33.61 33.61 0 0 1 17.75 4.74c7.94 4.92 11.81 12.35 12.8 21.4.78 7.09-.16 13.93-3.81 20.2-4.9 8.42-12.57 12.72-22 13.74-5.8.63-11.69.35-17.55.47h-2v33.93zm21.33-52.46c5.08 0 10 .3 14.85-.09s7.68-3.42 8.53-8.14a20.25 20.25 0 0 0 .18-6c-.64-5.17-3.43-8.27-8.58-8.9-4.26-.52-8.61-.27-12.92-.36h-2.06z" transform="translate(-44.18 -415.9)"/><path class="cls-4" d="M659 485.9c0 9.7 7.52 16 16.36 14a10.13 10.13 0 0 0 7-5.26 2.73 2.73 0 0 1 2.88-1.63c6.21.07 12.43 0 18.64 0h2.09a30.44 30.44 0 0 1-5.44 12.23c-7.79 10.44-18.4 14.6-31.17 13.54-11.64-1-20.64-6.41-26.49-16.61-4.69-8.18-5.82-17.15-5.1-26.41a39.81 39.81 0 0 1 6.34-19.5c6.26-9.32 15.25-13.9 26.27-14.56 9.76-.59 18.66 1.83 26 8.59 6.38 5.86 9.69 13.35 10.72 21.8.48 4 .26 8 .37 12 0 1.35-.51 1.77-1.9 1.77-14.79-.05-29.59 0-44.38 0zm26.69-13c.1-7.8-5.79-13.14-13.91-12.79-6.75.29-13 6.67-12.42 12.79zM935.42 485.9h-48c-.4 5.48 3.07 11.91 8.54 13.69 6 2 11.71 0 14.92-5.25a2.54 2.54 0 0 1 1.62-1.23c7-.08 14-.05 20.95 0a4.32 4.32 0 0 1 .78.17 32.42 32.42 0 0 1-9.29 16.47c-10 9.32-21.86 11.38-34.63 7.73s-20.27-13-23.2-25.79c-2.25-9.83-1.89-19.66 2-29.08 5.49-13.26 15.76-20 29.89-20.84 9.56-.57 18.29 1.9 25.53 8.48 6.06 5.51 9.31 12.55 10.69 20.52a47.87 47.87 0 0 1 .2 15.13zm-48.1-13h26.46c.54-6.47-4.54-12.07-11.44-12.72-7.88-.75-14.25 4.61-15.02 12.72z" transform="translate(-44.18 -415.9)"/><path d="M358 481.69c-.2 10.18-2.8 19.55-9.86 27.19-7.63 8.26-17.38 11.64-28.42 11.17-11.82-.5-21.44-5.4-28-15.45-4.91-7.47-6.54-15.89-6.29-24.7.24-8.32 2.25-16.17 7.28-22.94 7.95-10.71 18.94-15 31.94-14.09 13.26.94 23.23 7.35 29.25 19.41 2.97 6.09 4 12.65 4.1 19.41zm-21.52-.27a72.06 72.06 0 0 0-1.6-8.48c-2-6.41-7-10.22-13.11-10.29s-11.14 3.56-13.22 9.88a27 27 0 0 0 .49 19.08c2.15 5.27 6.17 8.35 12 8.51s10-2.52 12.69-7.52c1.81-3.46 2.42-7.23 2.72-11.19z" transform="translate(-44.18 -415.9)" fill="#01223b"/><path class="cls-3" d="M489.26 443.87h21.36v75h-21.34V509c-.53.58-.72.77-.88 1-6.52 8.21-15.14 11-25.23 9.39C453.5 517.84 447 512 443.76 503a40.18 40.18 0 0 1-2.5-12.6c-.29-15.44-.12-30.89-.12-46.47h21.25v40.54a19.68 19.68 0 0 0 2 9.6c2.59 4.81 7.64 7.19 13.33 6.38s9.7-4.42 10.9-10.32a30.62 30.62 0 0 0 .57-6v-38.18z" transform="translate(-44.18 -415.9)"/><path d="M44.18 483.53l5.24-4.53-5.2-4.52 4.56-4-4.59-4 59.51-50.64 59.53 50.65-4.6 4 4.57 4L158 479l5.24 4.53-59.51 50.64zM59.56 475l44.16 37.57L147.86 475l-44.15-37.57zm44.14 54.53l54.12-46.05-2.6-2.19-51.5 43.82-51.52-43.79-2.61 2.2zm0-96.7l46.85 39.85 2.64-2.17-49.48-42.1-49.47 42.14 2.66 2.14zm-52.13 35.38l52.14-44.36 52.17 44.38 1.95-1.67-54.12-46.05-54.12 46.06zM54.89 479l48.83 41.54L152.53 479l-2-1.64-46.82 39.84-46.84-39.84zm-.75-4l-2.61-2.2-1.91 1.67 2.59 2.18zm103.69-.53l-2-1.69-2.56 2.25 1.95 1.62z" transform="translate(-44.18 -415.9)" fill="#194584"/><path d="M623.23 443.74h13.88v19.21h-13.82V492.57c0 5.33 1.63 6.93 7 6.93h7v19.84c-6.13-.33-12.19-.24-18.12-1.08-8.81-1.26-14.69-7.4-16.38-16.36a52 52 0 0 1-.89-9c-.11-9.29 0-18.58 0-27.87v-2h-8.39v-19.18h8.37v-18.26h21.4z" transform="translate(-44.18 -415.9)" fill="#03233c"/><path d="M242.38 443.82h21.34v11.7c5.52-7.37 12.19-12.3 21.76-12.53v24.42c-1.88 0-3.81-.13-5.72 0a35.53 35.53 0 0 0-7.67 1.08c-5.78 1.83-7.78 6.57-8.15 12.09-.29 4.36-.19 8.75-.21 13.13v25.19h-21.35z" transform="translate(-44.18 -415.9)" fill="#02233c"/></svg>