<svg xmlns="http://www.w3.org/2000/svg" height="81.747" viewBox="0 0 250 81.746841" width="250"><g transform="matrix(1.25 0 0 -1.25 -71.389 104.7)"><g transform="matrix(.63463 0 0 .63463 58.05 19.069)"><path d="m293.59 75.712 19.029 24.815-20.028-3.171c-1.613 0.391-3.336 0.718-5.118 0.968-3.634 0.525-7.252 0.703-10.673 0.517-0.416-0.017-2.594-0.292-6.168-0.772l-167.88-23.496 2.87 21.904-89.346-12.35-4.834-36.896 29.416 14.87-0.78-5.923-22.58-11.689 20.122-6.228-1.789-13.612-35.829-24.652 249.16 35.008 1.02 0.138 0.603 4.925c1.536-0.589 3.267-1.104 5.505-1.643 2.346-0.569 5.029-0.838 8.459-0.832 1.144 0.005 2.407 0.036 3.897 0.094 8.241 0.366 15.181 2.406 20.631 6.079 6.193 4.148 9.742 9.596 10.554 16.185 0.639 5.128-0.465 9.498-3.297 12.986-0.831 1.012-1.812 1.938-2.941 2.772" fill="#ff7900"/><path d="m248.89 60.144 7.064 4.222c0.465-0.338 0.961-0.67 1.495-0.975l-3.673-5.089-5.925-6.499 1.039 8.341zm-27.383-15.765 0.802 6.434 4.331-9.608-5.133 3.174zm-52.891-8.342 0.816 1.806 9.044 1.273 0.149-0.643-6.144-5.664-3.865 3.228zm-66.79-8.623 1.401 12.088 9.947 5.673-8.895 3.361 1.398 12.041 3.755 2.797-1.5-12.041 16.199 8.583 1.666 0.238-0.988-7.935-9.407-5.635 8.296-3.329-1.507-12.119-11.445-8.919-8.92 5.197zm-37.378-2.96 2.542 19.345 14.867 7.771-13.528 4.062 1.975 14.961 7.707 1.075 12.603-3.416-17.134-2.279 12.414-7.228-1.413-12.072-9.947-5.676 8.9-3.37-1.401-12.045-8.041-5.985-9.544 4.857zm136.4 31.423 3.079-1.23-1.534-12.353-2.525-1.97-1.01 0.842-2.782 11.855 4.772 2.856zm31.581 23.481-0.815-6.51-4.372 9.717 5.187-3.207zm-91.156-46.42 1.511 12.164 8.751 5.255 5.106-2.049-5.891-13.128-5.269-4.836-4.208 2.594zm127.34 27.127c0.094-0.013 0.198-0.03 0.312-0.042 1.94-0.267 3.776-0.558 5.445-0.867 1.564-0.282 2.163-0.668 2.366-0.829-0.039-0.237-0.119-0.411-0.193-0.48-0.431-0.363-1.015-0.69-1.708-0.965-0.406-0.166-1.159-0.394-2.42-0.564-1.155-0.156-2.06-0.255-2.708-0.28-2.614-0.109-5.307 0.225-8.03 1.025-0.518 0.148-0.994 0.307-1.426 0.463l8.362 2.539zm8.212 16.516c-1 0.153-2.01 0.309-3.069 0.47-2.514 0.391-3.565 0.777-3.936 0.955 0.045 0.122 0.184 0.275 0.258 0.342 0.401 0.386 0.861 0.676 1.456 0.898 0.766 0.32 1.588 0.553 2.39 0.689 0.97 0.155 1.91 0.252 2.782 0.291 2.549 0.114 4.97-0.202 7.445-0.963 0.129-0.034 0.258-0.078 0.386-0.113l-7.712-2.569zm10.321-2.481 5.45 7.74-0.075-0.03 9.708 12.361-9.752-1.547c-1.703 0.453-3.564 0.822-5.554 1.107-3.178 0.452-6.456 0.65-9.797 0.472-3.92-0.203-83.01-11.494-83.01-11.494l12.345-7.636-1.445-11.652-5.454-3.267-5.693 2.279-4.59 19.566-18.681-2.629-9.323-20.751-11.522-6.895-5.86 2.351 1.093 8.794 3.039 0.438 13.296-3.866 2.342 18.993-66.009-9.243 2.868 21.886-80.178-11.081-3.299-25.144 22.82 11.536 6.277 0.869-1.864-14.147-14.974-7.757 13.314-4.108-2.54-19.331-21.939-15.087 228.12 32.091 0.703 5.705 3.569 0.26c1.861-0.894 3.89-1.565 6.91-2.297 1.985-0.481 4.332-0.713 7.39-0.708 1.08 0 2.288 0.03 3.704 0.099 7.405 0.326 13.583 2.109 18.345 5.315 5.069 3.402 7.959 7.783 8.608 13.035 0.49 3.879-0.283 7.103-2.322 9.603-1.395 1.71-3.405 3.099-6.024 4.17" fill="#fff"/><path d="m110.64 68.087-28.525-3.792 6.723-3.916-1.797-15.412-5.873-3.356 5.254-1.99-1.807-15.533-7.86-5.852 28.537 3.792-6.723 3.921 1.797 15.424 5.866 3.354-5.247 1.978 1.804 15.538 7.851 5.844zm-36.593-17.165-9.071 2.723 2.581 19.602 10.482 1.457 16.659-4.519 1.194 9.074h-0.011l1.119 8.506-26.73-3.69 0.005 0.02-20.739-2.846-0.012-0.057-26.735-3.685-1.105-8.436h-0.002l-1.19-9.075 18.355 9.279 10.519 1.452-2.555-19.414-10.034-5.193 8.889-2.747-3.03-23.038-12.923-8.89 42.42 5.841-10.989 5.595 3.015 22.876 9.888 5.165zm96.482-3.114 5.752 12.799 2.717-11.606-8.469-1.193zm76.147 19.335 1.935 15.595 7.555 5.884-13-1.826v-0.036l-1.075-0.148 0.006 0.03-12.999-1.827 6.278-3.886-2.308-18.62-9.741 21.613 0.009 0.052-8.029-1.129v0.03l-12.994-1.839 7.104-4.386-1.847-14.912-5.41-3.237 4.766-1.909-1.96-15.763-5.321-4.149-3.544 2.96-3.485 14.858 5.326 3.198-6.706 2.686-4.332 18.458-14.469-2.039-9.044-20.122-7.93-4.752 4.911-1.97-7.373-16.419-6.043-5.57 22.889 3.228-4.929 4.103 2.365 5.277 13.257 1.866 1.143-4.881-6.029-5.553 25.319 3.564-0.018 0.029 3.429 0.486-0.004-0.031 13.237 1.867v0.025l7.117 1.005-6.489 4.01 2.301 18.547 9.742-21.607-0.03-0.203 13.237 1.861 2.545 20.427 5.415 3.24-4.777 1.915zm36.517 5.26c-0.287 0.072-0.575 0.131-0.862 0.203l2.664 3.772-8.078-2.695c-1.219 0.19-2.461 0.385-3.763 0.578-2.618 0.414-4.376 0.909-5.267 1.503-0.881 0.584-1.258 1.47-1.119 2.643 0.105 0.785 0.495 1.498 1.169 2.146 0.683 0.639 1.464 1.124 2.336 1.448 0.989 0.411 2.009 0.701 3.039 0.884 1.05 0.163 2.09 0.274 3.109 0.316 2.931 0.132 5.723-0.255 8.429-1.081 2.18-0.669 3.09-1.131 3.09-1.131l0.073 0.082-0.034-0.06 7.252 9.217-3.063-0.483c-1.729 0.483-3.649 0.886-5.817 1.196-3.01 0.433-6.094 0.579-9.252 0.445-6.302-0.272-11.628-1.806-15.964-4.608-4.341-2.802-6.767-6.284-7.281-10.447-0.382-3.107 0.173-5.653 1.688-7.671 1.252-1.665 3.326-2.997 6.207-3.992l-3.278-4.527 9.802 2.98c0.297-0.046 0.574-0.103 0.871-0.145 1.966-0.268 3.832-0.555 5.594-0.882 1.663-0.309 2.91-0.796 3.713-1.465 0.797-0.675 1.148-1.497 1.019-2.475-0.138-1.064-0.539-1.883-1.213-2.45-0.677-0.565-1.519-1.048-2.509-1.441-0.812-0.319-1.841-0.569-3.079-0.737-1.248-0.176-2.238-0.277-2.991-0.302-2.928-0.131-5.909 0.242-8.964 1.136-3.267 0.945-4.93 2.094-4.93 2.094l-7.979-8.77 3.163 0.233c1.812-0.945 3.712-1.636 7.004-2.433 2.797-0.683 6.307-0.698 10.291-0.534 6.881 0.302 12.504 1.913 16.851 4.834 4.355 2.928 6.802 6.58 7.35 10.979 0.382 3.086-0.177 5.549-1.693 7.41-1.509 1.852-4.039 3.267-7.578 4.23zm-137.66-22.09-4.95 1.978 1.639 13.219 5.853 0.839 10.624-3.094 0.766 6.113 0.698 5.747-17.045-2.425-0.01 0.018-13.232-1.865-0.004-0.044-17.059-2.416-0.703-5.687v0.004l-0.767-6.11 11.719 6.205 5.925 0.841-1.633-13.1-5.606-3.357 4.95-1.979-1.933-15.528-7.519-5.867 27.074 3.827-6.313 3.896 1.91 15.424 5.616 3.361" fill="#00274c"/></g></g></svg>
