<svg width="940" height="659" fill="none" xmlns="http://www.w3.org/2000/svg"><path d="M817.4 409.5a271.3 271.3 0 0 1-89 70.8c-34.8 17.7-72.9 26-115 26-36.4 0-70.1-6.7-101.6-20a272.5 272.5 0 0 1-83-54 244.7 244.7 0 0 1-55.2-80.2 243 243 0 0 1-20.4-98.4l37.6-81.8 39.7 86.2 38.7 82.4a192.6 192.6 0 0 0 55.3 49.7c7.7 5 16 9.4 24.9 13.3a157.4 157.4 0 0 0 64.6 13.2c29.9 0 57-6.6 80.2-20.4a181 181 0 0 0 58-54.2l65.2 67.4zM450 51.4A260.6 260.6 0 0 1 608.5 0c42 0 80.2 8.8 115 26a266.9 266.9 0 0 1 86.8 68.5L745 161.4a169.7 169.7 0 0 0-58-52 157.8 157.8 0 0 0-78.5-19.9c-22.6 0-44.2 4.5-64.6 13.3a172.3 172.3 0 0 0-52.6 35.4L450 51.4z" fill="#50AFCF"/><path d="M474.8 335L436 252l-45.9-98.9-164.1 352H122l231-488.5h74.1l186.3 394c-53.6-1.6-108.9-34.8-138.7-75.7z" fill="#4498C6"/><path d="M104 657.2H83.4l-8.9-18.8L60.8 608 52 588.6 43 607.4 23.2 650l-3.3 7.2H0L44.8 562H59l44.8 95zm72.3 0H114V562h62.4v15.5h-44.8v22.6h44.3v15h-44.3v26h44.8v16zm78.5 0h-64.1V562h18.8v76.8h45.3v18.3zm75.2 0h-64.7V562H284v76.8h45.3v18.3h.6zm106.6 0h-20.4l-6.1-12.8-2.8-6-16-34.3-7.2-15.5-16 34.3-10 21.5-6 12.8h-20.5l44.8-95.1h14.4l45.8 95zM569.8 640a59 59 0 0 1-17.1 13.8c-6.6 3.4-14.4 5-22.7 5-7.1 0-13.8-1-19.9-3.9a53.7 53.7 0 0 1-27-26c-2.8-6-4-12-4-19.3a46.5 46.5 0 0 1 15-34.8c4.4-4.4 10-7.7 16-10.5 6.1-2.8 12.8-3.9 20-3.9 8.2 0 15.4 1.7 22.6 5a57.2 57.2 0 0 1 17.1 13.3l-12.7 13.2a25.6 25.6 0 0 0-11.6-10 32.8 32.8 0 0 0-28.2-1.1 42 42 0 0 0-10.5 6.7 46 46 0 0 0-7.2 10 30.1 30.1 0 0 0-2.7 12.1c0 4.4 1 8.3 2.7 12.2 1.7 3.9 3.9 7.2 7.2 10 2.8 2.7 6.1 4.9 10.5 6.6 3.9 1.6 8.3 2.7 12.7 2.7 6.1 0 11-1 15.5-3.8 4.4-2.8 8.3-6.1 11-10.5l13.3 13.2zm81.3 17.2h-20.5l-6.6-21.6c-.6-2.2-1.7-4.4-2.8-6.6a12 12 0 0 0-3.8-5 11.5 11.5 0 0 0-5.6-3.3 28 28 0 0 0-7.2-1.1H598v37.6h-18.2V562h37.6c3.8 0 7.7.5 11 2.2 3.3 1.7 6.6 3.3 8.9 5.5 2.7 2.2 4.4 5.6 6 8.9 1.7 3.3 2.2 7.2 2.2 11 0 2.8-.5 5.6-1 8.3-1.2 2.8-2.3 5-4 7.2a29 29 0 0 1-5.5 6 29.8 29.8 0 0 1-7.1 4c2.7 1 5.5 2.7 7.1 5 1.7 2.1 3.4 4.3 4.5 7.7.5 1 1 2.7 1.6 3.8.6 1.1 1.1 2.8 1.7 4.5l1.6 5a38 38 0 0 0 2.3 5.5l2.2 6.6c.5 1 1 2.7 2.2 3.9zm-23.8-66.4c0-2.2-.5-4.4-1.1-6l-3.3-5-5-3.3c-2.2-.6-3.9-1.1-6-1.1h-13.3v29.8h13.2c2.2 0 4.5-.6 6.1-1.1 2.2-.6 3.9-1.7 5-2.8a8.6 8.6 0 0 0 3.3-4.4c.6-1.6 1.1-3.9 1.1-6zm97.8 66.4h-62.4V562H725v15.5h-44.7v22.6h44.2v15h-44.2v26H725v16zm99-47.6a48.7 48.7 0 0 1-12.7 33.2 37.4 37.4 0 0 1-14.4 10 40 40 0 0 1-18.3 3.8H739v-95h39.7a40 40 0 0 1 18.3 3.8c5.5 2.8 10.5 6 14.4 10 3.8 4.4 7.1 9.4 9.4 14.9a59.3 59.3 0 0 1 3.3 19.3zm-18.8-.5c0-4.5-.6-8.9-2.2-12.7a40 40 0 0 0-6.1-10.5c-2.8-2.8-6-5.6-10-7.2a33.4 33.4 0 0 0-13.2-2.8h-16v65.8h16c5 0 9.4-.6 13.2-2.2 4-1.7 7.2-3.9 10-6.7 2.8-2.7 5-6 6-10 1.2-4.3 2.3-8.8 2.3-13.7zm51.4 48h-18.3v-95h18.3v95zm82.9-78.4h-26v78.5h-18.8v-78.5h-26V562h70.8v16.6z" fill="#283947"/></svg>