<svg xmlns="http://www.w3.org/2000/svg" fill-rule="evenodd" clip-rule="evenodd" image-rendering="optimizeQuality" shape-rendering="geometricPrecision" text-rendering="geometricPrecision" viewBox="0 0 9220 1980"><defs/><path fill="#1aa657" d="M0 994c0 371 230 727 532 881 94 47 234 105 371 105v-743c-40 10-86 72-115 102-63 63-73 98-153 98-48 0-83-41-83-100 0-76 160-182 200-243-183 0-342 42-342-108 0-29 16-55 33-67 38-28 242-17 309-17-8-31-80-93-106-119-32-31-94-77-94-132 0-70 38-100 100-100 57 0 133 96 186 148 21 22 34 44 65 53 0-117-33-251 100-251 47 0 80 36 89 78 9 40 3 128 3 173 80-54 151-201 259-201 66 0 84 54 84 109 0 47-66 95-94 123l-55 54c-21 21-44 34-52 65 54 0 275-13 312 15 65 49 54 175-78 178-77 1-156-1-234-1 81 121 201 138 201 268 0 73-66 75-109 75-65 0-156-148-234-200v743c136 0 262-56 357-103 305-151 537-500 537-841 0-260-68-507-240-688-70-73-92-104-193-174C907-277 0 204 0 994zm7013 209V936c0-117 301-117 301 0v267c0 32-14 46-34 59-67 43-267 44-267-59zm301-468c-79-6-48-17-184-17-115 0-259 65-259 176v351c0 67 43 102 87 130 86 57 241 56 340 29 72-20-24 16 116 16 19 0 42-22 42-41V442c0-51-119-66-139 4-8 29-3 66-3 97v192zm-2842 468V936c0-33 13-47 33-59 58-37 177-37 234 0 20 12 34 26 34 59v267c0 103-201 102-268 59-20-13-33-27-33-59zm301-468c-78-6-48-17-184-17-115 0-259 65-259 176v351c0 67 43 102 87 130 86 57 241 56 340 29 72-20-24 16 116 16 19 0 42-22 42-41V442c0-51-119-66-139 4-8 29-3 66-3 97v192zm384 468V936c0-33 13-47 33-59 58-37 177-37 235 0 20 12 33 26 33 59v267c0 103-200 102-268 59-20-13-33-27-33-59zm-142-761v937c0 50 67 41 92 41 20 0 25-13 42-25 93 45 275 31 358-18 33-19 93-75 93-124V894c0-110-145-176-259-176-136 0-106 11-184 17V543c0-128 2-142-100-142-20 0-42 22-42 41zM3786 936c0-117 301-117 301 0v33h-301v-33zm-142-42v351c0 247 585 219 585 8 0-103 6-108-92-108-66 0-25 142-150 142-211 0-201-20-201-193h402c60 0 41-115 41-200 0-110-145-176-259-176h-67c-115 0-259 65-259 176zm-543 42c0-103 200-102 268-59 38 24 33 47 33 92h-301v-33zm-142-42v351c0 247 585 219 585 8 0-103 6-108-92-108-66 0-25 142-150 142-212 0-201-20-201-193h401c61 0 42-115 42-200 0-110-145-176-259-176h-67c-115 0-259 65-259 176zm4739 42c0-117 301-117 301 0v33h-301v-33zm-142-42v351c0 67 44 102 87 130 141 93 498 42 498-122 0-103 6-108-92-108-45 0-44 56-56 86-31 79-295 87-295-28v-109h401c61 0 42-115 42-200 0-110-145-176-259-176h-67c-115 0-259 65-259 176zm1078-17v59c0 269 443 146 443 267 0 100-112 92-192 92-175 0-50-167-184-167-81 0-67 65-67 134 0 90 141 167 259 167 96 0 159 5 245-49 81-50 81-107 81-185 0-243-443-137-443-251 0-112 92-100 201-100 32 0 85 29 95 55 21 55-9 95 89 95 70 0 58-52 58-100 0-108-132-184-242-184-89 0-180-5-256 45-35 23-87 70-87 122zm-6369 0v59c0 269 443 146 443 267 0 100-112 92-192 92-175 0-50-167-184-167-81 0-67 65-67 134 0 90 141 167 259 167 96 0 159 5 245-49 81-50 81-107 81-185 0-243-443-137-443-251 0-112 92-100 201-100 103 0 102 104 108 117 27 56 134 37 134-9v-58c0-108-132-184-242-184-89 0-180-5-256 45-35 23-87 70-87 122zm3444-117v485c0 111 144 175 259 175h67c114 0 259-65 259-175V760c0-51-113-65-137-3-9 23-5 58-5 87v359c-9 108-200 98-263 62-62-36-38-117-38-237l-3-265c-20-70-139-55-139-3zm919-318v937c0 56 142 69 142-25V468c0-95-142-82-142-26zm1613 318v619c0 52 130 71 142-18v-342c0-100-10-130 67-159 68-26 151 18 151-83 0-93-143-59-196-44-91 25 17-15-122-15-19 0-42 23-42 42zm-1847 0v619c0 56 142 69 142-25V785c0-94-142-81-142-25zm0-318c0 112-7 117 92 117 67 0 67-158 0-158-25 0-92-9-92 41z"/></svg>
