<svg xmlns="http://www.w3.org/2000/svg" viewBox="0 0 1000 1000"><title>Nigeria-Logo</title><path d="M14.37,499.43C13.78,231.84,234.23,10,507.44,14.42c264,4.29,470.66,216.45,478,470.35,8.14,283-221.26,503.73-490.48,500.85C229.57,982.81,13.48,766.06,14.37,499.43ZM499.23,32.48C241.56,32,29.39,244.49,32.28,505.35,35.09,762.58,247,970,505.08,967.49,762.45,965,969.59,753.25,967.37,494.91,965.07,239.46,753.28,30.18,499.23,32.48Z" style="fill:#eae419"/><path d="M499.23,32.48c254-2.3,465.84,207,468.06,462.36,2.22,258.26-204.91,470-462.29,472.57C246.88,969.93,35.09,762.5,32.21,505.27,29.39,244.49,241.56,32,499.23,32.48Zm.22,12.5C250.51,44.91,45.08,248.71,44.86,495.87,44.64,751.55,247.18,954.76,502.49,955c246.72.22,452.15-205.5,452.37-452.59C955.08,247.08,748.91,44.69,499.45,45Z" style="fill:#030303"/><path d="M499.45,45c249.46-.29,455.63,202.1,455.41,457.41C954.64,749.48,749.21,955.13,502.49,955,247.11,954.76,44.56,751.62,44.86,495.87,45.08,248.71,250.51,45,499.45,45Zm-.22,9.1c-246,.08-447.34,201.73-445.34,449.64,2,245.24,203.87,444.45,450.3,442C745.88,943.36,942.43,747,945.61,505.86,948.94,256.85,746.62,53.49,499.23,54.08Z" style="fill:#eae419"/><path d="M499.23,54.08c247.39-.59,449.71,202.77,446.45,451.86C942.5,747,746,943.44,504.26,945.81,257.84,948.25,56,749,54,503.79,51.89,255.81,253.25,54.16,499.23,54.08Zm201.21,89.18c-.67-.67-1.33-1.26-2-1.93.82-3.85,1.56-7.77,2.59-11.54,1-3.48-1.11-4.66-3.62-5.55-4-1.41-3.11,2.14-3.63,3.92-3.4,12.8-4.29,26.34-12.14,37.67-1.55,2.22-.88,3.7,1.26,4.73,1.7.82,3.63,2.15,5-.66,6.36-14.14,19.39-22.57,29.31-33.75-2.82-3.77-5.55-4.59-8.88-.66A78.88,78.88,0,0,1,700.44,143.26Zm-42.92-10.51c.67.52,1.33,1.11,2.07,1.63-.81,6.14-1.4,12.35-2.51,18.42-.67,3.7,1,5.26,4,6.22,3.26,1.11,3.7-1.48,4.59-3.55q7.55-17.1,15.17-34.19c1-2.37,2.59-4.66-1.11-6.14-3.92-1.56-4.14,1.77-5.18,3.84-2.29,4.67-4.29,9.4-6.44,14.06a68.84,68.84,0,0,1,1.19-18.87c.81-4.21-2.22-4.51-4.67-5.77-3.4-1.77-4.44.59-5.47,3.11q-7.44,17.1-15.1,34.19c-1.11,2.44-2.44,4.81,1.19,6.29s4.14-1.7,5.18-3.92Q654,140.51,657.52,132.75ZM319.63,524.51a52.16,52.16,0,0,1-.45,5.92c-.66,3.19,1.11,7.7-2.66,9.18-4.29,1.7-7.18-1.85-9.92-4.88-7.54-8.51-14.87-17.1-20.86-26.87A61.82,61.82,0,0,0,264.2,486.4c-9.47-5.55-16.95-2.37-18.8,8.36-1.25,7.26-1.11,14.66-1.7,22.06-1.11,12.95-.37,26.19-6.51,38.33-1.55,3-2.81,6.73-6.66,7.1-4.07.37-5.18-3.47-7.1-6.29-5.7-8.14-5.85-18.27-9.4-26.86-6.44-15.54-13.54-31.08-23.76-44.7-16.13-21.6-31.74-43.51-44.4-67.41A31.54,31.54,0,0,0,136.62,406c-2-1.48-3.4-5.41-6.81-3.26s-3.4,5.55-2.22,9.1c2.59,7.55,6.07,14.58,9.48,21.83C146.39,453.62,160.3,471.53,164,494a180.55,180.55,0,0,0,15.69,49.29,313.93,313.93,0,0,1,18.72,48.32c3.78,13.25,10.81,18.8,25.09,20.2,12.36,1.26,23.75-4.51,29.16-15,5.77-11.32,6.8-23.9,8.8-36.19.45-2.59-.07-5.55-2.07-7.1-7.25-5.63-5.33-13-4.37-20.2,1-7,1.71-14.06,2.74-21.09.37-2.67-.89-6.59,2.37-7.55,3-.89,5.85,1.62,8,4a22.41,22.41,0,0,1,3.48,4.81c8.81,17.69,21.24,32.86,33.67,48,15,18.28,25.38,17,32.41-5.48,9.7-31.15,11.47-63.56,8.29-96-.52-5.47-.89-10.28,1-15.61,5.7-16.5-4.88-28.64-22.05-25.46a69,69,0,0,0-13.76,4.22c-12.21,5-15.32,16.13-7,26.57a35.41,35.41,0,0,1,8,20.94c.52,7,2,14.06,3,21C316.74,502.53,319.63,513.34,319.63,524.51ZM227.35,667.34c13.76-10.07,27.6-14.88,41.59-19.1,79-24,160.21-37.07,241.32-51,66.3-11.4,132.39-23.76,196.62-44.11,21.61-6.88,43.07-14.35,62.46-26.49,4.81-3,9.54-6.22,12.21-11.54.81-1.63,1.25-3.33-.37-4.67-1.41-1.11-2.52.3-3.7,1-13,8.06-27.53,11.91-42,15.91-81.62,22.49-165.09,36.18-248.27,51.2C419,590.89,351.23,604.58,285.81,628c-16.8,6.07-33.38,12.8-48.1,23.24C233.05,654.76,228.31,658.31,227.35,667.34ZM900,531.4c-3.4,26.12-7.92,52-15.91,77.25a454.11,454.11,0,0,1-29.6,72.3,405.17,405.17,0,0,1-43,66.23,442.43,442.43,0,0,1-53.57,56.91c-19.47,17.32-40.93,31.9-62.54,46.33C803.6,798.91,897.06,673.7,900,531.4ZM429.52,564A25.28,25.28,0,0,0,443,559.29c3.18-2.29,4.44-5.25,1.11-8.51-6.07-6-7.25-13.91-8.81-21.75-5-25.9-10.21-51.8-15-77.7-1.33-7.33-4.88-14.8.37-22.2,1.18-1.63-.81-3.11-1.92-4.3-4.22-4.44-9-5.92-14.51-2.51-6.14,3.85-8.58,8.95-6.58,16.57,9.91,38.41,21.46,76.52,22.71,116.63C420.64,561.81,423.53,564.33,429.52,564Zm61.64-55.73c.52-2.81,2.15-3.62,3.56-4.51,4.95-3.26,10.87-3,16.28-4.52,4.73-1.33,8.73-3.47,8.65-8.95-.07-5.33-4.58-6.73-8.73-7.92-14.28-4.07-35.74,5.11-42.7,18.21-5.92,11.25-.66,21.53,12.07,22.42,9.69.67,19,2.89,28.56,4.29,2.74.37,5.11,1.41,5.77,4.15.59,2.51-1.55,4.07-3.25,5.55-7.7,6.51-16.73,6.14-25.9,5.1-2.67-.29-3.7-2.37-3.26-5,.3-2.29-.44-3.92-2.74-4.59-2.59-.74-4.29.59-5.84,2.44-4.22,5.18-2.59,11.84,3.62,14.8,11.84,5.7,36.26,1.63,45.88-7.54,5-4.74,5.48-10.44,3.78-16.43-1.56-5.55-5.26-9.1-11.25-10.29A111.59,111.59,0,0,1,491.16,508.23Zm308.07-62.08c3.56-5.33,7.92-7,12.81-7.33a29.83,29.83,0,0,0,10.65-2.74c3.55-1.7,6.22-4.22,5.85-8.51-.3-4-3.41-5.62-6.74-6.81-14.06-5.1-38.33,4.52-44.84,17.84-5.77,11.76.29,22.2,13.32,22.27,9.47.08,18.43,3.18,27.75,3.92a5.86,5.86,0,0,1,5.4,3.63c1.11,2.66-1,4.14-2.51,5.7-5.11,5.1-21.46,8.29-27.38,5.4a3.7,3.7,0,0,1-2.3-4.07c.37-3-.66-5.33-3.62-5.7s-4.67,2-5.78,4.29c-2.88,5.85-1.4,10.51,4.37,13.47,11.77,6.07,36.11,1.93,45.51-7.62,9.32-9.4,6.51-22-6.07-26.05C817.29,451.1,808.85,448.88,799.23,446.15ZM565.61,533.47c5.85-1,11.84-1.48,17.54-2.89,8.88-2.22,16.06-7.1,20.35-15.39,5.33-10.14,2.74-19.32-7.77-23.9-8.14-3.63-16.65-7-26-6A3.91,3.91,0,0,1,566.2,484c-7.92-7.62-19.68-6-25.38,4.44-5.25,9.62-8.29,20.5-2.74,30.86C543.85,529.69,554,533.32,565.61,533.47ZM675.5,465.61c3.85,8.73,7.48,17.31,11.47,25.75,5.18,10.88,13.1,13.25,23.76,7.84,7.55-3.84,11.91-10.28,15.69-17.46,1.4-2.66,3.7-6-.15-8.21-3.33-1.93-6.07.59-7.77,3.33a52.5,52.5,0,0,1-9,11.24c-5.18,5-9.25,4.15-13-1.77-4.89-7.77-8-16.21-10.95-24.87-3.7-10.65-11.62-12.21-19.17-3.77-6.36,7.1-10.06,15.76-14.28,24.05-3.41,6.73-6.66,13.62-13.69,18.2-2.22-5.77-1.56-11.17-2.15-16.5-.74-6.21-1.63-12.43-4.88-17.91a5.43,5.43,0,0,0-6.51-2.73c-2.37.59-3.11,2.44-2.74,4.58,2.29,14.88,4.59,29.75,7.18,44.55.66,3.7,3.7,5.63,7.1,6.59,2.89.81,5-.81,6.36-3.18,7.48-12.73,17.91-23.54,22.94-37.74A21.4,21.4,0,0,1,675.5,465.61ZM397.26,551.75c-1-9.55-1.93-19.76-3.33-29.83-1-7.54-2.82-15-4.22-22.49-1.26-6.66-5.11-10.22-11.92-9.11s-10.65,5.26-10.36,12.29a69.71,69.71,0,0,0,1.93,11.69c3.4,16.06,6.51,32.19,6.07,48.77-.15,4.81-.3,9.4,6,10.14s12.28-.15,14.21-7.4C396.74,561.51,396.66,556.85,397.26,551.75ZM106.36,382.5c28.86-81.4,73.48-149.26,138.38-203.2-46,33.07-84.51,72.89-110.78,123.58C121.23,327.3,108.35,351.57,106.36,382.5Zm52.91,329.9c34.93,74.67,94.27,121.74,169.31,151.19C257.32,829.84,200.41,779.89,159.27,712.4Zm400.35-599c0,3.4.74,6.22-.15,8.36-1.26,3-2.3,5.48,1.77,6.44s5.11-1.55,5.55-5.33c1.41-11.84,3.19-23.6,4.67-35.44.37-2.74,2.14-6.22-3.26-7-4.29-.59-6.73-.08-7.92,4.66-1.7,7-4.07,13.77-6.14,20.65-.81-.15-1.63-.22-2.44-.37,0-7.55-.15-15.1.07-22.72.08-4.29-2.37-5-5.84-5.4-3.78-.52-4.89,1-5.33,4.51-1.48,12.36-3.26,24.72-4.89,37.15-.37,2.59-.81,5.4,3,5.7,3.4.22,3.18-2.67,3.48-4.74.88-5.47.88-11.1,3.62-18.05.37,7.17.59,12.5.82,17.9.14,2.82-.45,5.7,3.62,6.59,4.66,1,3.78-2.89,5-5C556.58,119,555.92,115.65,559.62,113.36Zm-207.8,32.56a29.43,29.43,0,0,0-1.33-4.74c-4.15-9.62-8.44-19.16-12.81-28.71-1-2.07-1.55-5-5.4-3.25s-2.22,3.92-1.18,6.14c3.85,8.51,7.77,16.94,11.47,25.53,1.26,2.88,4.36,6.66-.37,8.73s-5.26-3.11-6.59-5.77c-4.14-8.66-8-17.47-11.91-26.27-1.11-2.52-2.52-3.48-5.26-2.07-2.07,1.11-3,2.22-1.92,4.66,5.18,11,10.06,22.12,15.61,33,2.37,4.66,7.18,5.4,11.92,3.7C348.49,155.24,351.82,152.36,351.82,145.92Zm278.1-.52c3.11-.15,2.66-2.59,3-4.36,2.07-12.58,3.92-25.24,6.36-37.74.89-4.44-1.33-5.41-4.51-6.52s-5.55-1.4-7.55,2.52c-5.62,11.47-11.84,22.64-17.61,34-.89,1.7-3.19,3.92.37,5.55,2.59,1.18,4.44.44,5.47-2.08,1.26-3.1,3.11-4.14,6.66-3.18,4.3,1.19,4.15,3.78,3.41,7.11C624.52,144.51,627.77,144.59,629.92,145.4ZM523.5,99.15h.59c0-4.51.23-9.1-.07-13.61-.37-6.81-4.37-10.14-11.1-10.22s-10.73,3.48-11.17,10.14c-.6,9-.74,18.13-.74,27.16,0,7.1,3.7,11,11.1,11s10.87-4,11.32-11C523.72,108.25,523.5,103.67,523.5,99.15ZM404.14,127c-2.52-1.93,1-8.59-4.89-8.59-6.58,0-2.88,5.18-2.73,8.29.14,2.37-.67,4.07-2.89,4.51s-3.77-1.11-4.37-3.18c-2.22-7.32-4.44-14.65-6.51-22-.74-2.59-2.14-5.92,1.26-7.55,3.85-1.77,4.74,1.56,5.77,4.22.74,2,1.63,3.7,4.29,2.59,1.48-.67,3.11-.67,3-3.18-.15-5.85-5.85-11.32-11.84-11-6.81.3-12.29,5.26-10.95,11.32a271.34,271.34,0,0,0,8.58,30.27c1.92,5.62,7,7.18,12.65,5.62C400.81,136.82,404.06,133.56,404.14,127Zm60.38-27.53h.67c.3,4.81.44,9.62.81,14.43.6,7,4.44,11.1,11.62,10.65,7-.44,10.95-4.51,10.51-11.69C488,110.25,490,106,484.58,106c-4.66-.07-3.48,3.4-3.41,6.07.08,3-.74,5.25-4.07,5.18-3,0-3.33-2.52-3.47-4.89-.45-7.32-1-14.65-1.26-22-.15-2.74-.82-6.29,3-7,4-.66,4.29,2.74,4.51,5.63.15,2.52,1.33,3.4,3.85,3.33,3.33-.15,3.33-2.22,3.18-4.66-.29-6.44-3-11-9.91-11.55S465.34,78.73,464.67,86C464.15,90.42,464.52,94.93,464.52,99.45Zm144-2c0-6.66-5-10.43-15.1-11.91-3.18-.45-4.66.07-5.4,3.33-3,12.72-6.07,25.38-9.17,38-.67,2.67-.08,4.29,2.81,5s4.14-.81,4.73-3.33c.67-3,1.48-6.07,2.15-9.1.44-2.22,1.48-3.18,4-3.41C604,115,608.6,109.51,608.53,97.45Zm-184.49,5c-3.4,1.55-4.29-1-5.32-4.44-1.85-6.07-.3-9,6.36-9.33,2.37-.07,5.4-.51,4.22-4.51-.89-3.11-2.89-2.81-5.33-2.22-3,.74-6.07,1.7-9.18,1.7-5.92.08-6.14,3.18-5.1,7.77,2.07,9.4,3.7,18.87,5.62,28.34,2.44,12.07,2.52,12.21,14.95,9.33,2.74-.59,8.07.89,6.59-5-1.19-4.89-5.18-2.22-7.63-1.56-4.58,1.33-6.29-.22-6.43-4.59-.15-3.4-4.15-7.84,3-9,2.15-.37,5.55,0,4.74-4.22C429.89,100.93,427.6,101.22,424,102.41ZM608.09,895.63c-2.37-9-4.44-18-7.26-26.86-1.77-5.55-6.73-6.51-11.84-5.11-4.88,1.34-8,4.89-7,10.07a265,265,0,0,0,6.51,26.19c1.63,5.48,6.36,7,11.62,5.63C605.05,904.36,607.86,901.18,608.09,895.63Zm-62,7c-.74-8.07-1.11-14.28-2-20.43-.82-5.84-4.22-9.1-10.44-8.73-6.07.3-9.84,3.55-9.62,9.55a235.7,235.7,0,0,0,2.44,26c.89,6.06,5.4,8.28,11.25,7.4,5.55-.82,8.51-4.07,8.36-9.77ZM432.92,869.36c-8,.3-11.91,10-7.32,18.5,2.14,4,5,7.55,6.95,11.62,1.19,2.37.67,5.4-2.36,6.22s-3.93-1.41-3.85-4.07c.07-3.11-1.85-4.07-4.44-3.56s-2.07,3.11-2.15,4.89c-.07,5.4,3.11,8.29,8.14,9.32,4.81,1,8.44-.74,10.51-5.18,2.89-6.07,1.18-11.54-2.81-16.65-2.3-2.88-4.81-5.77-5-9.62-.15-2,.44-4.14,2.66-4.73a2.65,2.65,0,0,1,3.55,2.59c.15,3.55,2.52,4.73,5.11,3.7,3-1.26,1.77-4.52,1.11-6.74C441.58,870.77,437.36,869.66,432.92,869.36ZM376.09,464.28c-8.95.07-16.13,5.77-16,12.8.14,6.44,5,10.36,12.87,10.21,9-.15,15.69-5.48,15.62-12.14C388.45,468.64,383.42,464.28,376.09,464.28ZM502.41,910.36c-.29-4.89,3.33-7.62,6-10.73,4.21-4.89,7-10.36,6.14-17-.74-5.55-4.15-8.59-9.77-8.59s-9.18,2.89-9.77,8.59c-.22,2.22-1.77,5.4,2.07,6.21,3.63.82,4.3-1.62,4.3-4.44,0-2.29.88-4.07,3.4-3.77,3,.3,3.11,2.89,3.11,5.18a14.08,14.08,0,0,1-2.74,7.92c-2.66,3.62-5.85,6.95-8,10.88-4.89,8.88-2.52,12.95,7.32,12.35,3.41-.22,9.55,2.89,9.77-2.73.22-6.29-6.07-2.22-9.32-3.19A18.29,18.29,0,0,0,502.41,910.36Zm-97.16-22.42c2.29.88,4.44,1.25,5.33-1.85.59-2.15-.45-3.48-2.37-3.7-5.85-.6-5.48-3.56-4.29-8.22,1.55-6.21,5.1-3.62,8.43-2.81,2.22.52,3.78.52,4.59-2.07.89-2.89-.89-3.48-2.89-4s-3.92-.74-5.77-1.4c-5.7-2.08-9.25-1.56-10.36,5.69-1.11,7.55-3.7,14.8-5.33,22.28-2.88,13.39-4.81,10.43,8.66,14.06,2.15.59,5.48,3.7,6.88-1.19s-3-4.14-5.25-4.51c-5.33-.89-4.22-4.22-3.48-7.62C400.07,889.49,400.59,886.09,405.25,887.94ZM823.51,404.56c12.06,0,22.42-8.59,22.57-18.65.14-9.55-8.44-16.8-19.76-16.65-12.06.15-21.91,9-21.61,19.46C804.86,397.3,813.44,404.56,823.51,404.56ZM320.37,162a40.39,40.39,0,0,0-2.07-5.7c-4.89-9.25-10-18.43-14.95-27.68-1.26-2.36-2.22-4.44-5.7-2.51s-2.29,3.77-.89,6.14c4.66,8.44,9.25,17,13.91,25.38,1.48,2.74,3.41,5.48-.22,8.14-2.88,2.07-1,4.15.45,5.78,1.92,2.22,3.55-.15,5-1.11C318.59,168.79,320.07,166.05,320.37,162ZM459.64,873.14l-4.44-.6c-1.92-.29-3.4.23-3.63,2.37-.14,1.48,0,3.26,1.71,3.41,6,.51,4.29,4.66,4,8.06-.59,7.62-1.4,15.17-2.07,22.79-.22,2.74-1.55,6.07,3,6.37,3.92.29,3.48-3.11,3.7-5.4.89-8.14,1.55-16.36,2.37-24.5.22-2.29-.59-5.62,3.4-5.55,2.59,0,4.66-.37,4.52-3.48-.15-3.4-3.11-2.66-5.11-2.88C464.75,873.43,462.53,873.36,459.64,873.14ZM745,416.4c-3-.3-5.55.74-6.36,4-2.3,9-4.44,18.13-6.44,27.24a3.92,3.92,0,0,0,2.66,4.73c1.93.52,2.89-1.33,3.78-2.81,4.51-7.55,9.25-14.95,13.46-22.64C755.87,420.1,753.2,416.25,745,416.4Zm-372.6-275c-4.73-12.81-9.69-26.35-14.8-39.82-.81-2.22-2.74-1.18-4.37-.66-2.36.74-3,1.92-2.14,4.44q7.1,19.09,14,38.18c1,2.59,2.51,2.67,4.58,2C371.36,145,373,144.44,372.39,141.41ZM574.64,907c-1.93-11.47-3.78-22.94-5.7-34.34-.3-1.55-.37-4-2.66-3.55-3.93.67-4.07,5.77-7.85,7.1-1,.37-1,3.26.52,3.41,6.88.89,5,6.44,5.85,10.36,1.33,5.77,2.14,11.69,3.1,17.54.37,2.22,1,3.77,3.78,3.4C574.19,910.73,575.16,909.47,574.64,907ZM105.69,387c-.15.22-.3.52-.45.74a11.85,11.85,0,0,1-.44-1.48c0-.22.3-.45.44-.67C105.39,386.06,105.54,386.57,105.69,387Z" style="fill:#030303"/><path d="M319.63,524.51c0-11.17-2.89-21.9-4.52-32.85-1.11-7-2.59-14-3-21a35.54,35.54,0,0,0-8-20.94c-8.36-10.44-5.26-21.54,7-26.57a70.57,70.57,0,0,1,13.77-4.22c17.17-3.18,27.82,9,22.05,25.46-1.85,5.4-1.48,10.14-1,15.61,3.11,32.49,1.4,64.83-8.29,96-7,22.5-17.39,23.83-32.41,5.48-12.43-15.1-24.87-30.27-33.67-48a22.41,22.41,0,0,0-3.48-4.81c-2.15-2.37-5-4.88-8-4-3.26.88-1.93,4.88-2.37,7.54-1,7-1.85,14.07-2.74,21.1-1,7.25-3,14.57,4.37,20.2,2,1.55,2.51,4.59,2.07,7.1-2,12.29-3,24.87-8.81,36.19-5.4,10.58-16.8,16.28-29.15,15-14.29-1.4-21.32-7-25.09-20.2a297.39,297.39,0,0,0-18.72-48.32A180.55,180.55,0,0,1,163.93,494c-3.7-22.5-17.61-40.33-26.94-60.24-3.33-7.18-6.88-14.28-9.47-21.83-1.26-3.55-1.18-6.95,2.22-9.1s4.81,1.78,6.81,3.26A32.3,32.3,0,0,1,145.8,417c12.65,23.9,28.27,45.81,44.4,67.41C200.41,498,207.52,513.64,214,529.1c3.56,8.59,3.63,18.72,9.4,26.86,1.93,2.74,3,6.66,7.11,6.29,3.92-.37,5.1-4.07,6.66-7.1,6.14-12.06,5.4-25.38,6.51-38.33.59-7.33.44-14.8,1.7-22.06,1.85-10.73,9.4-13.91,18.8-8.36a61.7,61.7,0,0,1,21.53,21.46c6,9.7,13.32,18.36,20.87,26.87,2.74,3.1,5.62,6.58,9.92,4.88,3.77-1.48,2-6,2.66-9.18A31.93,31.93,0,0,0,319.63,524.51Z" style="fill:#eae419"/><path d="M227.35,667.34c.89-9,5.62-12.58,10.43-16,14.73-10.43,31.3-17.17,48.1-23.23C351.3,604.66,419.16,591,487.24,578.61c83.18-15.1,166.65-28.71,248.28-51.21,14.43-4,29-7.84,42-15.91,1.11-.74,2.29-2.15,3.7-1,1.63,1.26,1.18,3,.37,4.66-2.66,5.4-7.4,8.58-12.21,11.54C750,538.87,728.56,546.34,707,553.23c-64.23,20.27-130.31,32.63-196.62,44-81.11,13.91-162.36,27-241.32,51C255,652.46,241.11,657.27,227.35,667.34Z" style="fill:#eae419"/><path d="M900,531.4C897.14,673.7,803.6,799,695.33,850.56c21.61-14.43,43.07-29,62.54-46.32a452.48,452.48,0,0,0,53.57-56.91,408.61,408.61,0,0,0,43-66.23A462.09,462.09,0,0,0,884,608.8C892,583.42,896.47,557.52,900,531.4Z" style="fill:#eae419"/><path d="M429.52,564c-5.92.37-8.88-2.22-9.1-8.37-1.33-40.1-12.8-78.22-22.72-116.62-2-7.62.44-12.73,6.59-16.58,5.47-3.4,10.28-1.92,14.5,2.52,1.11,1.18,3.11,2.59,1.92,4.29-5.25,7.4-1.7,14.87-.37,22.2,4.81,26,10,51.8,15,77.7,1.55,7.77,2.73,15.76,8.8,21.76,3.33,3.25,2.07,6.21-1.11,8.51A25.12,25.12,0,0,1,429.52,564Z" style="fill:#eae419"/><path d="M491.16,508.23a115,115,0,0,0,24.5,7.26c6.07,1.11,9.69,4.66,11.25,10.28,1.7,6,1.25,11.69-3.78,16.43-9.62,9.1-34,13.25-45.88,7.55-6.21-3-7.84-9.62-3.62-14.8,1.55-1.93,3.25-3.18,5.84-2.44,2.3.66,3.11,2.29,2.74,4.58-.37,2.67.67,4.74,3.26,5,9.1,1.11,18.2,1.4,25.9-5.11,1.7-1.48,3.84-3,3.25-5.55-.66-2.74-3-3.77-5.77-4.14-9.55-1.41-18.94-3.56-28.56-4.3-12.73-.88-18.06-11.17-12.07-22.42,6.89-13.1,28.42-22.27,42.7-18.2,4.15,1.18,8.66,2.59,8.73,7.91.15,5.48-3.84,7.63-8.65,9-5.41,1.55-11.33,1.26-16.28,4.51C493.31,504.61,491.68,505.42,491.16,508.23Z" style="fill:#eae419"/><path d="M799.23,446.15c9.55,2.73,18.06,5,26.35,7.69,12.58,4.07,15.39,16.58,6.07,26.05s-33.75,13.69-45.52,7.62c-5.77-3-7.25-7.62-4.36-13.47,1.11-2.29,2.88-4.66,5.77-4.29,3,.37,4.07,2.67,3.63,5.7a3.71,3.71,0,0,0,2.29,4.07c5.85,2.89,22.28-.3,27.38-5.4,1.56-1.56,3.7-3,2.52-5.7a6.13,6.13,0,0,0-5.4-3.63c-9.33-.74-18.28-3.84-27.75-3.92-13-.07-19.1-10.51-13.33-22.27,6.52-13.32,30.79-23,44.85-17.84,3.33,1.19,6.44,2.82,6.73,6.81.37,4.29-2.29,6.74-5.84,8.51A29.52,29.52,0,0,1,812,438.82C807.15,439.19,802.79,440.82,799.23,446.15Z" style="fill:#eae419"/><path d="M565.61,533.47c-11.62-.15-21.76-3.78-27.38-14.21S535.71,498,541,488.4c5.7-10.43,17.46-12.06,25.38-4.44a3.83,3.83,0,0,0,3.55,1.33c9.33-1,17.84,2.37,26,6,10.43,4.66,13.09,13.76,7.77,23.9-4.37,8.29-11.55,13.17-20.35,15.39C577.45,532,571.46,532.51,565.61,533.47Zm8.95-15.1a58.59,58.59,0,0,0,8-1.77c4.58-1.78,9.1-4.37,9.32-9.92.22-5-4.14-7.11-7.92-9-4.81-2.37-10.06-3.77-14.13-7.62-.89-.89-1.7-2-3.48-.59-2.81,2.22-8,16.79-6.66,20.57C562.06,516.82,568.27,517.48,574.56,518.37Z" style="fill:#eae419"/><path d="M675.5,465.61a21.73,21.73,0,0,0-9.84,12.06c-5,14.21-15.47,25-22.94,37.74-1.41,2.37-3.48,4-6.36,3.18-3.48-1-6.52-2.88-7.11-6.58-2.51-14.8-4.81-29.68-7.18-44.55-.37-2.15.37-4,2.74-4.59a5.4,5.4,0,0,1,6.51,2.74c3.26,5.47,4.22,11.69,4.89,17.91.59,5.25-.08,10.73,2.14,16.5,7-4.59,10.22-11.47,13.69-18.21,4.3-8.36,8-17,14.29-24.05,7.54-8.43,15.46-6.95,19.16,3.78,3,8.58,6.07,17.09,11,24.86,3.7,5.92,7.78,6.74,13,1.78a55.1,55.1,0,0,0,8.95-11.25c1.63-2.74,4.37-5.25,7.77-3.33,3.85,2.22,1.48,5.55.15,8.21-3.7,7.11-8.14,13.62-15.69,17.47-10.65,5.4-18.57,3-23.75-7.85C683,482.92,679.35,474.34,675.5,465.61Z" style="fill:#eae419"/><path d="M397.26,551.75c-.6,5.18-.52,9.76-1.71,14.06-1.92,7.25-7.91,8.21-14.2,7.4s-6.15-5.33-6-10.14c.45-16.58-2.66-32.71-6.07-48.77a70.72,70.72,0,0,1-1.92-11.69c-.3-7,3.7-11.25,10.36-12.29s10.66,2.45,11.91,9.11c1.41,7.54,3.19,14.95,4.22,22.49C395.33,532,396.22,542.2,397.26,551.75Z" style="fill:#eae419"/><path d="M106.36,382.5c1.92-30.85,14.87-55.2,27.6-79.62,26.27-50.69,64.75-90.43,110.78-123.58C179.84,233.17,135.22,301.1,106.36,382.5Z" style="fill:#eae419"/><path d="M159.27,712.4c41.14,67.49,98,117.44,169.31,151.19C253.54,834.14,194.2,787,159.27,712.4Z" style="fill:#eae419"/><path d="M559.62,113.36c-3.7,2.29-3,5.62-4.37,8-1.26,2.15-.37,6.07-5,5-4.07-.88-3.48-3.84-3.63-6.58-.22-5.4-.52-10.73-.81-17.91-2.74,7-2.74,12.58-3.63,18.06-.29,2.07-.07,5-3.48,4.73-3.84-.29-3.33-3.11-3-5.7,1.63-12.35,3.4-24.71,4.88-37.15.45-3.47,1.56-5,5.33-4.51,3.48.44,5.92,1.11,5.85,5.4-.15,7.55-.08,15.1-.08,22.72.82.15,1.63.22,2.45.37,2.07-6.88,4.44-13.69,6.14-20.64,1.11-4.82,3.55-5.26,7.92-4.67,5.4.74,3.62,4.22,3.25,7-1.48,11.84-3.33,23.61-4.66,35.45-.44,3.7-1.48,6.21-5.55,5.32s-3-3.4-1.78-6.43C560.36,119.65,559.62,116.84,559.62,113.36Z" style="fill:#eae419"/><path d="M657.52,132.75c-2.37,5.1-4.81,10.28-7.18,15.39-1,2.22-1.4,5.4-5.18,3.92-3.62-1.4-2.29-3.85-1.18-6.29l15.09-34.19c1.11-2.51,2.08-4.88,5.48-3.1,2.37,1.25,5.48,1.55,4.66,5.77A69.22,69.22,0,0,0,668,133.12c2.14-4.74,4.22-9.47,6.44-14.06,1-2.07,1.25-5.4,5.18-3.85,3.7,1.48,2.22,3.77,1.11,6.14q-7.66,17.1-15.17,34.19c-.89,2.07-1.34,4.59-4.59,3.55-3-1-4.66-2.59-4-6.21,1.11-6.07,1.7-12.29,2.52-18.43.74-1.78,1.26-3.55.22-5.4C658,129.64,658.19,131.49,657.52,132.75Z" style="fill:#eae419"/><path d="M351.82,145.92c0,6.36-3.33,9.32-7.85,11-4.73,1.7-9.47,1-11.91-3.7-5.48-10.8-10.43-22-15.61-33-1.11-2.37-.15-3.55,1.92-4.66,2.74-1.41,4.14-.52,5.25,2.07,3.93,8.8,7.77,17.61,11.92,26.27,1.33,2.66,1.85,7.77,6.58,5.77s1.63-5.85.37-8.73c-3.7-8.59-7.69-17-11.47-25.53-1-2.22-2.59-4.44,1.19-6.14s4.44,1.11,5.4,3.25c4.37,9.55,8.58,19.09,12.8,28.71A24.13,24.13,0,0,1,351.82,145.92Z" style="fill:#eae419"/><path d="M629.92,145.4c-2.15-.81-5.33-.81-4.44-4.66.81-3.4.89-5.92-3.41-7.1-3.47-1-5.33,0-6.66,3.18-1,2.51-2.88,3.25-5.47,2.07-3.63-1.63-1.26-3.85-.37-5.55,5.84-11.32,12-22.5,17.61-34,1.92-4,4.29-3.7,7.55-2.51s5.33,2.07,4.51,6.51c-2.44,12.51-4.29,25.16-6.36,37.74C632.58,142.81,633,145.25,629.92,145.4Zm.74-35.59c-.37-.15-.82-.3-1.19-.45-2.29,4.44-4.51,9-7,13.32-1.48,2.59-1,4.07,1.85,5s3.25-.82,3.62-2.89C628.88,119.8,629.77,114.84,630.66,109.81Z" style="fill:#eae419"/><path d="M523.5,99.15c0,4.52.22,9.1-.07,13.62-.37,7-3.92,11-11.32,11s-11.1-3.92-11.1-11c0-9.1.14-18.13.74-27.15.44-6.67,4.29-10.22,11.17-10.14s10.73,3.33,11.1,10.21c.3,4.51.07,9,.07,13.62A1.32,1.32,0,0,0,523.5,99.15Zm-15.09,4c0,1.7-.08,5.62,0,9.62.07,2.22,1.11,3.85,3.55,3.92s3.55-1.48,3.7-3.7c.44-8.73.81-17.46,1-26.2.08-2.14-.74-3.92-3.18-4.29-3-.44-4.07,1.7-4.29,4.07C508.85,91.31,508.78,96.12,508.41,103.15Z" style="fill:#eae419"/><path d="M404.14,127c-.08,6.58-3.33,9.76-8.44,11.24-5.62,1.56-10.73,0-12.65-5.62a269.26,269.26,0,0,1-8.59-30.27c-1.33-6.06,4.07-11,11-11.32,6-.29,11.69,5.26,11.84,11,.07,2.51-1.56,2.59-3,3.18-2.66,1.18-3.55-.59-4.29-2.59-1-2.66-1.92-6.07-5.77-4.22-3.48,1.63-2,5-1.26,7.55,2,7.4,4.22,14.73,6.51,22,.59,2,2.07,3.63,4.37,3.18s3-2.22,2.88-4.51c-.14-3.11-3.84-8.29,2.74-8.29C405.17,118.39,401.62,125.05,404.14,127Z" style="fill:#eae419"/><path d="M464.52,99.45c0-4.52-.37-9.1.08-13.54.66-7.26,5.33-10.37,12.28-9.92s9.62,5,9.92,11.54c.07,2.45.15,4.59-3.18,4.67-2.45.07-3.7-.82-3.85-3.33-.15-2.89-.52-6.3-4.52-5.63-3.77.67-3,4.22-3,7,.3,7.32.82,14.72,1.26,22,.15,2.29.45,4.81,3.48,4.88,3.33,0,4.14-2.22,4.07-5.18-.07-2.66-1.26-6.06,3.4-6.06,5.41.07,3.41,4.36,3.56,6.88.44,7.25-3.48,11.32-10.51,11.69-7.18.44-10.95-3.7-11.62-10.66-.44-4.81-.59-9.62-.81-14.43A1.37,1.37,0,0,1,464.52,99.45Z" style="fill:#eae419"/><path d="M608.53,97.45C608.6,109.51,604,115,592.47,116c-2.51.23-3.48,1.19-4,3.41-.67,3-1.48,6.07-2.15,9.1-.59,2.52-1.7,4.07-4.74,3.33s-3.47-2.29-2.81-5c3.11-12.65,6.22-25.31,9.18-38,.74-3.19,2.22-3.78,5.4-3.33C603.5,87.09,608.53,90.79,608.53,97.45ZM600.39,100c.67-3.63-.15-6.66-3.18-6.07-5.92,1.11-3.33,7.25-5.11,10.88-1,2.22-.29,5,2.89,4.44C600.76,108.4,598.84,102.7,600.39,100Z" style="fill:#eae419"/><path d="M424,102.41c3.56-1.19,5.85-1.48,6.52,2.29.81,4.22-2.59,3.92-4.74,4.22-7.18,1.11-3.11,5.62-3,9,.14,4.37,1.85,5.92,6.43,4.59,2.45-.66,6.44-3.33,7.63,1.56,1.48,5.84-3.93,4.36-6.59,5-12.43,2.88-12.51,2.74-14.95-9.33-1.92-9.47-3.55-18.94-5.62-28.34-1-4.66-.82-7.69,5.1-7.77,3-.07,6.15-1,9.18-1.7,2.37-.59,4.37-.89,5.33,2.22,1.18,4.07-1.93,4.44-4.22,4.51-6.59.23-8.21,3.19-6.36,9.33C419.75,101.45,420.64,104,424,102.41Z" style="fill:#eae419"/><path d="M608.09,895.63c-.23,5.55-3.11,8.66-8,9.92-5.25,1.33-10-.15-11.61-5.63-2.59-8.58-4.74-17.39-6.52-26.19-1-5.18,2.08-8.73,7-10.07,5.11-1.4,10.06-.44,11.84,5.11C603.65,877.65,605.72,886.68,608.09,895.63Zm-7.33-1.55c-1.78-6.81-3.7-14.51-5.85-22.13a3.09,3.09,0,0,0-4.07-2.07c-2,.59-2.51,2.22-2.14,4.07,1.77,7.47,3.55,14.87,5.47,22.27.52,2.15,2,3.41,4.44,2.89S600.61,896.74,600.76,894.08Z" style="fill:#eae419"/><path d="M546.07,902.59v4.07c.08,5.77-2.81,9-8.36,9.77-5.92.88-10.36-1.34-11.25-7.4A237.29,237.29,0,0,1,524,883c-.22-6,3.55-9.25,9.62-9.55s9.62,3,10.44,8.73C545,888.31,545.33,894.52,546.07,902.59Zm-7.1-3.26c-.44-4.14-1-9.17-1.41-14.21-.22-2.66-.51-5.4-4-5.1-3,.29-3,2.88-2.82,5.18q.9,10.09,1.78,20.2c.22,2.37.74,4.81,3.63,4.81s3.25-2.52,3.18-4.88C539.27,903.62,539.12,901.92,539,899.33Z" style="fill:#eae419"/><path d="M700.44,143.26a96.71,96.71,0,0,0,7.85-7.7c3.33-3.92,6.06-3.11,8.88.67-9.92,11.17-22.95,19.53-29.31,33.74-1.26,2.81-3.18,1.48-5,.67-2.14-1-2.74-2.52-1.26-4.74,7.85-11.32,8.66-24.94,12.14-37.67.44-1.77-.37-5.32,3.63-3.92,2.51.89,4.59,2.07,3.62,5.55-1.11,3.78-1.77,7.7-2.59,11.55-.66,1.18-1.26,2.44-.37,3.77C699,144.51,699.7,143.92,700.44,143.26Z" style="fill:#eae419"/><path d="M432.92,869.36c4.52.3,8.66,1.41,10.14,6.22.67,2.22,1.93,5.47-1.11,6.73-2.59,1-4.88-.07-5.1-3.7a2.68,2.68,0,0,0-3.56-2.59c-2.22.67-2.81,2.74-2.66,4.74.22,3.92,2.81,6.73,5,9.62,3.92,5,5.63,10.51,2.81,16.65-2.07,4.36-5.69,6.14-10.5,5.18-5-1-8.22-3.92-8.14-9.33,0-1.77-.6-4.36,2.14-4.88,2.59-.52,4.52.44,4.44,3.55-.07,2.67.89,4.89,3.85,4.07s3.55-3.77,2.37-6.21c-2-4-4.81-7.63-7-11.62C421,879.35,424.93,869.66,432.92,869.36Z" style="fill:#eae419"/><path d="M376.09,464.28c7.33,0,12.43,4.36,12.51,10.8.15,6.73-6.66,12-15.62,12.14-7.84.14-12.8-3.78-12.87-10.22C360,470.12,367.14,464.35,376.09,464.28Z" style="fill:#eae419"/><path d="M502.41,910.36c1,.22,1.78.37,2.59.59,3.26,1,9.55-3.11,9.33,3.18-.23,5.63-6.37,2.52-9.77,2.74-9.84.59-12.29-3.4-7.33-12.36,2.15-3.92,5.4-7.25,8-10.88a13.9,13.9,0,0,0,2.74-7.91c0-2.22-.07-4.81-3.11-5.18-2.51-.3-3.4,1.48-3.4,3.77,0,2.89-.67,5.25-4.29,4.44-3.85-.89-2.3-4.07-2.07-6.22.59-5.69,4.21-8.51,9.76-8.58s9,3,9.77,8.58c.89,6.66-1.92,12.07-6.14,17C505.74,902.74,502.19,905.4,502.41,910.36Z" style="fill:#eae419"/><path d="M405.25,887.94c-4.66-1.85-5.18,1.55-5.85,4.73-.74,3.33-1.77,6.66,3.48,7.62,2.22.37,6.59-.37,5.25,4.52s-4.73,1.77-6.88,1.18c-13.47-3.62-11.54-.66-8.66-14.06,1.63-7.47,4.22-14.72,5.33-22.27,1-7.25,4.66-7.77,10.36-5.7,1.85.67,3.85.89,5.77,1.41s3.85,1.11,2.89,4c-.81,2.59-2.37,2.67-4.59,2.07-3.33-.81-6.81-3.47-8.43,2.82-1.19,4.66-1.56,7.62,4.29,8.21,1.85.22,3,1.55,2.37,3.7C409.69,889.19,407.54,888.82,405.25,887.94Z" style="fill:#eae419"/><path d="M823.51,404.56c-10,0-18.58-7.18-18.8-15.84-.3-10.43,9.62-19.24,21.61-19.46,11.32-.15,19.83,7.1,19.76,16.65C845.85,396,835.57,404.48,823.51,404.56Zm13.24-9c4.37-3.78,6.88-8.29,4.29-14.06s-7.77-8.07-13.69-8.14c-4.73-.08-9.54.59-13,4.59-4.66,3.18-7,7.62-5.33,13,1.7,5.7,6.44,8.21,12.14,9A18,18,0,0,0,836.75,395.53Z" style="fill:#eae419"/><path d="M320.37,162c-.3,4.07-1.78,6.81-4.59,8.51-1.48.89-3.11,3.33-5,1.11-1.41-1.55-3.33-3.7-.45-5.77,3.7-2.67,1.78-5.41.23-8.14-4.59-8.44-9.18-16.95-13.92-25.39-1.33-2.44-2.51-4.21.89-6.14s4.44.15,5.7,2.52c5,9.25,10.06,18.42,14.95,27.67A38.15,38.15,0,0,1,320.37,162Z" style="fill:#eae419"/><path d="M459.64,873.14c2.81.22,5.11.29,7.33.59,2.07.29,4.95-.52,5.1,2.88.15,3.11-1.92,3.48-4.51,3.48-4-.07-3.18,3.26-3.41,5.55-.81,8.14-1.48,16.36-2.36,24.5-.23,2.29.22,5.69-3.7,5.4-4.52-.3-3.19-3.63-3-6.37.74-7.62,1.48-15.17,2.07-22.79.29-3.4,2-7.62-4-8.06-1.7-.15-1.85-1.93-1.7-3.41.3-2.22,1.7-2.66,3.63-2.37Z" style="fill:#eae419"/><path d="M745,416.4c8.21-.15,10.88,3.77,7.1,10.58-4.29,7.7-9,15.1-13.46,22.64-.89,1.48-1.78,3.33-3.78,2.82a4,4,0,0,1-2.66-4.74c2-9.1,4.14-18.13,6.44-27.23C739.44,417.06,742,416.1,745,416.4Z" style="fill:#eae419"/><path d="M372.39,141.41c.59,3.1-1,3.62-2.74,4.14-2.14.74-3.7.67-4.58-2q-6.88-19.2-14-38.18c-.89-2.44-.22-3.63,2.14-4.44,1.63-.52,3.56-1.56,4.37.66C362.7,115,367.66,128.53,372.39,141.41Z" style="fill:#eae419"/><path d="M574.64,907c.52,2.44-.45,3.7-3,4-2.67.3-3.41-1.25-3.78-3.4-1-5.85-1.85-11.77-3.1-17.54-.89-3.92,1-9.54-5.85-10.36-1.55-.22-1.48-3.11-.52-3.4,3.7-1.33,3.92-6.44,7.85-7.11,2.29-.37,2.36,2,2.66,3.56C570.86,884.09,572.71,895.56,574.64,907Z" style="fill:#eae419"/><path d="M105.69,387c-.15-.45-.3-1-.45-1.48-.14.22-.44.44-.44.66a11.37,11.37,0,0,0,.44,1.48A2.5,2.5,0,0,0,105.69,387Z" style="fill:#eae419"/><path d="M574.56,518.37c-6.29-1-12.43-1.55-14.87-8.36-1.33-3.78,3.85-18.35,6.66-20.57,1.7-1.41,2.52-.23,3.48.59,4,3.85,9.32,5.25,14.13,7.62,3.78,1.92,8.14,4,7.92,9-.22,5.55-4.66,8.14-9.32,9.92A58.59,58.59,0,0,1,574.56,518.37Z" style="fill:#030303"/><path d="M657.52,132.75c.67-1.33.44-3.11,2.29-3.78,1,1.85.52,3.63-.22,5.41Z" style="fill:#030303"/><path d="M630.66,109.81c-.89,5-1.78,9.91-2.67,15-.37,2.07-.66,3.92-3.62,2.88s-3.33-2.37-1.85-5c2.44-4.37,4.66-8.88,7-13.32C629.92,109.51,630.29,109.66,630.66,109.81Z" style="fill:#030303"/><path d="M508.41,103.15c.37-7.11.44-11.84.88-16.65.23-2.3,1.26-4.52,4.3-4.07,2.36.37,3.25,2.22,3.18,4.29-.3,8.73-.67,17.46-1,26.2-.07,2.22-1.18,3.77-3.7,3.7s-3.48-1.78-3.55-3.93C508.33,108.85,508.41,104.85,508.41,103.15Z" style="fill:#030303"/><path d="M600.39,100c-1.55,2.66.37,8.36-5.4,9.25-3.18.52-3.92-2.22-2.89-4.44,1.78-3.7-.89-9.77,5.11-10.88C600.24,93.38,601.13,96.41,600.39,100Z" style="fill:#030303"/><path d="M600.76,894.08c-.15,2.66.22,4.59-2.07,5.1s-3.85-.74-4.44-2.88c-1.93-7.4-3.7-14.88-5.48-22.28-.44-1.77.08-3.47,2.15-4.07A3,3,0,0,1,595,872C597.06,879.65,599,887.34,600.76,894.08Z" style="fill:#030303"/><path d="M539,899.33c.15,2.59.22,4.29.3,6,.07,2.36-.3,4.88-3.19,4.88s-3.4-2.44-3.62-4.81q-.88-10.1-1.78-20.2c-.22-2.3-.22-5,2.81-5.18,3.48-.3,3.78,2.44,4,5.1C538,890.16,538.53,895.19,539,899.33Z" style="fill:#030303"/><path d="M700.44,143.26l-2.29,1.85c-.89-1.34-.37-2.59.37-3.78Z" style="fill:#030303"/><path d="M814.33,378c3.48-4,8.29-4.66,13-4.59,5.92.08,11,2.37,13.69,8.14s.08,10.29-4.29,14.06c-.44-.52-1-1-1.4-1.48-.6-3.4-8.22-4.36-3.11-10.14,1.4-1.62-2.15-4-4.44-5.1-4.22-2-8.29-.3-12.36.44A10.4,10.4,0,0,0,814.33,378Z" style="fill:#030303"/><path d="M836.75,395.53A18.5,18.5,0,0,1,821.14,400c-5.7-.89-10.36-3.33-12.14-9-1.63-5.4.59-9.84,5.33-13,.37.37.74.81,1.11,1.26.22,6,.37,12.06,4.22,19,1-6.44,4.14-7,8.36-5.48,2.29.81,4.88.89,7.33,1.33A13.31,13.31,0,0,1,836.75,395.53Z" style="fill:#030303"/><path d="M835.35,394.05c-2.45-.45-5-.52-7.33-1.33-4.22-1.41-7.33-1-8.36,5.47-3.85-7-4-13-4.22-19,4.07-.74,8.14-2.44,12.36-.44,2.37,1.11,5.92,3.48,4.44,5.11C827.13,389.68,834.75,390.64,835.35,394.05Zm-11.92-6.44c1.93-.44,4.59-1.18,4.59-3.7,0-2.22-2.52-2.59-4.44-2.74-2.15-.15-4.07.3-4,3C819.66,386.28,820.4,388.05,823.43,387.61Z" style="fill:#eae419"/><path d="M823.43,387.61c-3,.44-3.77-1.33-3.85-3.48-.07-2.66,1.85-3.18,4-3,2,.15,4.51.52,4.44,2.74C828,386.5,825.36,387.17,823.43,387.61Z" style="fill:#030303"/></svg>