<svg width="3749" height="900" viewBox="0 0 3749 900" fill="none" xmlns="http://www.w3.org/2000/svg">
<path fill-rule="evenodd" clip-rule="evenodd" d="M450.095 900C698.676 900 900.19 698.528 900.19 450C900.19 201.472 698.676 0 450.095 0C201.515 0 0 201.472 0 450C0 698.528 201.515 900 450.095 900ZM612.532 685.498C566.323 717.571 510.22 736.364 449.732 736.364C291.745 736.364 163.672 608.155 163.672 450.001C163.672 291.847 291.745 163.638 449.732 163.638C607.719 163.638 735.793 291.847 735.793 450.001C735.793 485.306 729.411 519.119 717.738 550.346C672.464 533.915 622.002 529.003 575.797 540.098C594.191 514.435 605.02 482.972 605.02 448.976C605.02 362.556 535.037 292.499 448.709 292.499C362.38 292.499 292.397 362.556 292.397 448.976C292.397 535.396 362.38 605.453 448.709 605.453C468.608 605.453 487.639 601.731 505.144 594.944C548.944 620.356 586.707 656.827 612.532 685.498ZM761.475 646.663C741.068 678.892 715.794 707.734 686.685 732.157C654.802 690.095 590.347 626.579 519.203 586.023C584.94 536.754 686.772 568.26 761.475 646.663Z" fill="#3E2284"/>
<g opacity="0.15">
<path d="M863.082 270.786C793.886 111.616 635.33 0.253784 450.728 0C263.983 0.256805 103.892 114.217 36.0007 276.349C76.8676 315.142 123.224 348.207 173.785 374.258C206.96 252.859 317.938 163.637 449.733 163.637C580.509 163.637 690.789 251.486 724.897 371.449C775.754 344.585 822.26 310.586 863.082 270.786Z" fill="white"/>
<path d="M602.285 419.672C588.581 347.258 525.033 292.498 448.71 292.498C372.02 292.498 308.229 347.785 294.941 420.716C343.382 433.415 394.226 440.177 446.65 440.177C500.492 440.177 552.668 433.044 602.285 419.672Z" fill="white"/>
</g>
<path d="M1347.15 218.023C1283.49 218.023 1231.16 239.826 1190.17 282.558C1150.06 325.291 1130 381.977 1130 452.616C1130 523.256 1150.06 579.942 1190.17 622.674C1231.16 665.407 1283.49 687.209 1347.15 687.209C1403.84 687.209 1445.7 671.512 1474.48 639.244V900H1600.93V226.744H1481.45V273.837C1453.55 236.337 1409.07 218.023 1347.15 218.023ZM1368.08 327.035C1431.74 327.035 1474.48 371.512 1474.48 442.151V463.081C1474.48 533.721 1431.74 578.198 1368.08 578.198C1302.67 578.198 1259.07 531.977 1259.07 452.616C1259.07 373.256 1302.67 327.035 1368.08 327.035Z" fill="#3E2284"/>
<path d="M2081.78 226.744H1954.45V481.395C1954.45 533.721 1925.68 568.605 1877.71 568.605C1829.75 568.605 1805.33 539.826 1805.33 483.14V226.744H1678V510.174C1678 620.93 1740.79 687.209 1844.57 687.209C1899.51 687.209 1938.76 668.895 1961.43 632.267V677.616H2081.78V226.744Z" fill="#3E2284"/>
<path d="M2225.42 2.61625C2161.76 -0.872134 2122.52 89.8256 2171.35 133.43C2200.13 162.209 2250.71 162.209 2279.49 133.43C2294.32 118.605 2302.17 100.291 2302.17 79.3604C2302.17 36.6279 2268.16 2.61625 2225.42 2.61625ZM2289.09 226.744H2161.76V677.616H2289.09V226.744Z" fill="#3E2284"/>
<path d="M2816.85 0H2690.39V265.988C2662.48 233.721 2619.75 218.023 2563.07 218.023C2499.4 218.023 2447.08 239.826 2406.09 282.558C2365.97 325.291 2345.91 381.977 2345.91 452.616C2345.91 523.256 2365.97 579.942 2406.09 622.674C2447.08 665.407 2499.4 687.209 2563.07 687.209C2623.24 687.209 2672.08 663.663 2697.37 631.395V677.616H2816.85V0ZM2584 327.035C2647.66 327.035 2690.39 371.512 2690.39 442.151V462.209C2690.39 534.593 2647.66 577.326 2584 577.326C2518.59 577.326 2474.98 531.977 2474.98 452.616C2474.98 373.256 2518.59 327.035 2584 327.035Z" fill="#3E2284"/>
<path d="M3074.44 218.023C3019.5 218.023 2974.15 234.593 2938.39 267.733C2903.51 300 2886.07 337.5 2886.07 379.36L3013.39 384.593C3013.39 352.326 3035.2 325.291 3076.18 325.291C3115.43 325.291 3134.61 348.837 3134.61 395.058V412.5L3054.38 416.86C2934.03 422.093 2873.86 467.442 2873.86 553.779C2873.86 640.116 2930.54 687.209 3023.86 687.209C3070.95 687.209 3109.32 671.512 3138.97 640.988V677.616H3261.94V399.419C3261.94 280.814 3196.53 218.023 3074.44 218.023ZM3134.61 515.407C3134.61 561.628 3101.47 588.663 3053.51 588.663C3018.63 588.663 3001.18 574.709 3001.18 547.674C3001.18 518.023 3022.99 502.326 3066.59 500.581L3134.61 496.221V515.407Z" fill="#3E2284"/>
<path d="M3744.89 226.744H3600.13L3516.41 364.535L3432.69 226.744H3287.92L3426.58 450L3286.17 677.616H3430.94L3516.41 537.209L3602.74 677.616H3748.38L3605.36 450L3744.89 226.744Z" fill="#3E2284"/>
</svg>
