<svg xmlns="http://www.w3.org/2000/svg" width="97" height="26" fill="none"><path fill="#117ACA" d="m37.99 6.038-.955 3.161h1.718v10.032h3.29V6.038H37.99ZM6.877 5.776C2.777 5.776 0 8.705 0 12.636c0 3.905 2.778 6.86 6.877 6.86 4.073 0 6.85-2.955 6.85-6.86 0-3.931-2.778-6.86-6.85-6.86Zm0 10.527c-2.157 0-3.614-1.583-3.614-3.667 0-2.11 1.457-3.693 3.614-3.693 2.131 0 3.587 1.583 3.587 3.693 0 2.085-1.456 3.667-3.587 3.667ZM22.142 5.777c-4.126 0-6.85 2.955-6.85 6.86v11.872h3.236v-6.78c.998 1.107 2.4 1.767 4.154 1.767 3.695 0 6.31-2.876 6.31-6.86 0-4.01-2.858-6.86-6.85-6.86Zm0 10.526c-2.05 0-3.614-1.556-3.614-3.667 0-1.952 1.268-3.693 3.614-3.693 2.266 0 3.614 1.741 3.614 3.693 0 2.005-1.456 3.667-3.614 3.667ZM36.352 16.488c-2.048-.001-3.045-.95-3.045-2.533V9.206l2.257-.01.965-3.156h-3.222V2.927l-3.237 1.19v9.838c0 3.01 1.698 4.978 4.808 5.437l1.474-2.904Z"/><path fill="#DD2230" d="M38.591 2.294c0 1.003.729 1.741 1.807 1.741 1.079 0 1.807-.738 1.807-1.741 0-1.082-.728-1.794-1.807-1.794s-1.807.713-1.807 1.794Z"/><path fill="#117ACA" d="M56.982 12.636c0-2.242 1.16-3.693 2.967-3.693 1.807 0 2.94 1.556 2.94 3.693v6.596h3.21v-6.596c0-4.037-2.563-6.86-6.15-6.86-1.889 0-3.507.74-4.612 2.032-1.106-1.293-2.697-2.032-4.586-2.032-3.587 0-6.176 2.823-6.176 6.86v6.596h3.237v-6.596c0-2.242 1.16-3.693 2.94-3.693 1.86 0 2.94 1.556 2.94 3.693v6.596h3.29v-6.596ZM80.662 12.636V6.041h-3.21v6.595c0 2.058-1.294 3.667-3.1 3.667-1.808 0-3.103-1.53-3.103-3.667V6.041h-3.29v6.595c0 3.931 2.724 6.86 6.392 6.86 3.587 0 6.311-2.929 6.311-6.86ZM93.525 15.512c0-5.092-7.768-3.219-7.768-5.751 0-.792.81-1.399 1.915-1.399 1.565 0 2.401.818 2.59 1.98h3.21c-.325-2.613-2.158-4.566-5.665-4.566-3.344 0-5.313 1.794-5.313 4.037 0 4.934 7.741 3.034 7.741 5.672 0 .765-.701 1.425-1.996 1.425-1.672 0-2.751-.66-2.94-1.873h-3.21c.244 2.664 2.617 4.458 6.23 4.458 3.13 0 5.206-1.688 5.206-3.983ZM93.823 7.284c0 .859.635 1.554 1.589 1.554.961 0 1.588-.695 1.588-1.554 0-.864-.627-1.555-1.588-1.555-.954 0-1.59.691-1.59 1.555Zm1.589-1.235c.772 0 1.266.583 1.266 1.235 0 .647-.494 1.234-1.266 1.234a1.232 1.232 0 0 1-1.267-1.234c0-.652.504-1.235 1.267-1.235Zm-.57 2.003h.323v-.488h.092c.203.039.349.186.477.488h.344a1.606 1.606 0 0 0-.323-.548.5.5 0 0 0 .287-.458c0-.293-.229-.522-.569-.522h-.63v1.528Zm.878-1.006c0 .125-.097.212-.247.212h-.309v-.436h.31c.15 0 .246.1.246.224ZM70.11 21.8v1.077c.22-.23.498-.345.831-.345.333 0 .608.111.822.334.213.222.32.496.32.824 0 .327-.107.601-.32.823-.215.223-.489.334-.822.334-.337 0-.613-.115-.83-.345v.291h-.316v-2.97l.293-.04.022.017Zm.8 2.764a.802.802 0 0 0 .617-.251.888.888 0 0 0 .231-.623.888.888 0 0 0-.231-.623.803.803 0 0 0-.617-.253.83.83 0 0 0-.595.227c-.16.152-.24.368-.24.649 0 .28.08.495.24.646a.821.821 0 0 0 .595.228ZM74.114 22.586h.304l.018.025-1.071 2.372c-.085.195-.172.33-.258.407a.528.528 0 0 1-.355.11.596.596 0 0 1-.334-.089l-.01-.027.095-.204.03-.008a.364.364 0 0 0 .215.067.268.268 0 0 0 .178-.054.695.695 0 0 0 .142-.228l.128-.278-.908-2.068.018-.025h.321l.739 1.722.749-1.722h-.001ZM76.813 21.925h.146l1.353 2.842-.013.026h-.32l-.304-.65h-1.593l-.305.65h-.312l-.013-.026 1.361-2.842Zm.069.52-.668 1.417h1.326l-.658-1.418ZM79.967 21.844l.009.026-.108.207-.029.01a.542.542 0 0 0-.28-.074.42.42 0 0 0-.316.123c-.08.083-.12.203-.12.361v.088h.707v.265h-.706v1.943h-.318V22.85h-.379v-.266h.38v-.088c0-.25.073-.439.222-.567a.781.781 0 0 1 .526-.191.74.74 0 0 1 .413.105ZM81.437 22.595l.013.026-.104.243-.029.013a.41.41 0 0 0-.234-.052.457.457 0 0 0-.39.2.826.826 0 0 0-.147.509v1.258h-.316v-2.206h.303v.295a.646.646 0 0 1 .599-.349c.109 0 .21.02.304.063ZM82.164 22.118a.252.252 0 0 1-.185.076.255.255 0 0 1-.186-.076.247.247 0 0 1-.075-.18c0-.071.026-.132.075-.182a.253.253 0 0 1 .186-.075.256.256 0 0 1 .185.437Zm-.029 2.675h-.315v-2.207h.315v2.207ZM83.93 22.532c.283 0 .508.085.675.254a.908.908 0 0 1 .25.66v1.347h-.32v-1.315a.675.675 0 0 0-.176-.487c-.117-.12-.277-.18-.478-.18a.686.686 0 0 0-.498.182.635.635 0 0 0-.194.485v1.315h-.32v-2.207h.303v.291c.17-.23.424-.345.758-.345ZM87.085 22.586h.297l.014.025-1.038 2.182h-.143l-1.047-2.182.013-.025h.329l.773 1.709.802-1.71ZM89.82 23.782h-1.908a.788.788 0 0 0 .272.573c.162.14.355.209.58.209.14 0 .284-.03.434-.089a.797.797 0 0 0 .345-.248h.027l.194.16v.026a.981.981 0 0 1-.434.321c-.184.075-.37.112-.557.112-.324 0-.603-.104-.838-.313-.236-.207-.354-.485-.354-.836 0-.333.108-.61.325-.832.216-.222.485-.334.807-.334.31 0 .568.1.775.298.226.215.34.487.34.816 0 .056-.004.1-.01.136l.001.001Zm-1.106-.968a.785.785 0 0 0-.533.186.773.773 0 0 0-.26.5h1.584a.784.784 0 0 0-.218-.46c-.138-.15-.33-.226-.573-.226ZM90.972 24.847c-.36 0-.644-.134-.852-.404v-.026l.198-.16h.029c.06.096.145.171.254.228a.76.76 0 0 0 .35.083c.144 0 .263-.03.354-.092a.286.286 0 0 0 .136-.243.38.38 0 0 0-.103-.25.722.722 0 0 0-.139-.09 4.187 4.187 0 0 0-.14-.07l-.182-.07a2.695 2.695 0 0 1-.233-.107 1.425 1.425 0 0 1-.188-.116.469.469 0 0 1-.195-.392c0-.184.068-.33.205-.44.138-.11.32-.166.544-.166.147 0 .288.034.423.101.137.07.24.16.312.27v.028l-.2.158h-.026a.628.628 0 0 0-.229-.203.622.622 0 0 0-.294-.075.503.503 0 0 0-.299.08.256.256 0 0 0-.113.217.25.25 0 0 0 .101.206c.065.051.173.108.324.173.262.112.432.196.509.252.165.12.249.284.249.49a.546.546 0 0 1-.218.448c-.148.113-.34.17-.578.17h.001ZM93.387 24.457l.029.009.109.205-.01.025a.696.696 0 0 1-.438.151c-.204 0-.364-.06-.48-.18-.117-.122-.174-.292-.174-.514v-1.302h-.38v-.265h.38v-.674l.293-.041.02.017v.698h.71v.265h-.71v1.298c0 .28.122.42.366.42a.377.377 0 0 0 .285-.112Z"/></svg>