<svg width="1000" height="250" fill="none" xmlns="http://www.w3.org/2000/svg"><path fill="#fff" d="M0 0h1000v250H0z"/><path fill-rule="evenodd" clip-rule="evenodd" d="M39.278 164.595h116.268c-15.86-17.736-23.79-42.33-23.79-73.782 0-3.015-.716-6.119-2.147-9.312-1.431-3.192-3.488-6.237-6.171-9.134-2.683-2.897-6.305-5.276-10.867-7.138-4.561-1.863-9.614-2.794-15.16-2.794-5.544 0-10.598.931-15.159 2.794-4.561 1.862-8.183 4.242-10.867 7.138-2.683 2.897-4.74 5.942-6.17 9.134-1.432 3.193-2.147 6.297-2.147 9.312 0 31.452-7.93 56.046-23.79 73.782Zm132.545 0c0 3.074-1.132 5.735-3.398 7.981-2.266 2.247-4.949 3.37-8.05 3.37h-40.067c0 6.267-2.236 11.617-6.708 16.052-4.472 4.434-9.868 6.651-16.188 6.651-6.32 0-11.717-2.217-16.188-6.651-4.472-4.435-6.708-9.785-6.708-16.052H34.448c-3.1 0-5.784-1.123-8.05-3.37-2.265-2.246-3.398-4.907-3.398-7.981a78.213 78.213 0 0 0 8.139-7.804c2.444-2.719 4.979-6.252 7.602-10.597s4.845-9.031 6.663-14.056c1.819-5.025 3.31-11.115 4.472-18.268 1.163-7.154 1.744-14.84 1.744-23.057 0-8.986 3.488-17.337 10.464-25.052 6.976-7.715 16.129-12.4 27.457-14.056a8.768 8.768 0 0 1-.715-3.459c0-2.365.835-4.375 2.504-6.03 1.67-1.655 3.697-2.483 6.082-2.483s4.412.828 6.081 2.483c1.67 1.655 2.505 3.665 2.505 6.03a8.768 8.768 0 0 1-.716 3.459c11.329 1.655 20.481 6.34 27.457 14.056 6.977 7.715 10.465 16.066 10.465 25.052 0 8.218.581 15.903 1.744 23.057 1.162 7.153 2.653 13.243 4.471 18.268 1.819 5.025 4.04 9.711 6.664 14.056 2.623 4.345 5.157 7.878 7.602 10.597a78.164 78.164 0 0 0 8.138 7.804Zm-88.721 9.932c.954 0 1.43.473 1.43 1.419 0 3.488 1.268 6.489 3.802 9.001 2.534 2.513 5.56 3.769 9.078 3.769.954 0 1.43.473 1.43 1.419 0 .946-.476 1.419-1.43 1.419-4.353 0-8.065-1.522-11.135-4.567-3.07-3.045-4.606-6.725-4.606-11.041 0-.946.477-1.419 1.43-1.419Zm25.377-102.252c4.353 0 8.065 1.522 11.135 4.567 3.071 3.045 4.606 6.725 4.606 11.04 0 .947-.477 1.42-1.431 1.42-.954 0-1.431-.473-1.431-1.42 0-3.487-1.267-6.488-3.801-9-2.534-2.513-5.56-3.77-9.078-3.77-.954 0-1.431-.472-1.431-1.418s.477-1.419 1.431-1.419Z" fill="#473700"/><path d="m287.29 69.114-35.285 68.602v33.863h-24.829v-33.863l-35.284-68.602h28.169l19.747 42.912 19.603-42.912h27.879Zm46.9 103.633c-7.938 0-15.077-1.703-21.417-5.109-6.341-3.406-11.326-8.271-14.956-14.596-3.63-6.325-5.445-13.721-5.445-22.186 0-8.369 1.839-15.74 5.517-22.114 3.679-6.373 8.712-11.263 15.101-14.669 6.389-3.406 13.553-5.109 21.49-5.109 7.938 0 15.101 1.703 21.49 5.11 6.389 3.405 11.423 8.295 15.101 14.668 3.679 6.374 5.518 13.745 5.518 22.114 0 8.368-1.863 15.739-5.59 22.113-3.727 6.373-8.809 11.263-15.247 14.669-6.437 3.406-13.624 5.109-21.562 5.109Zm0-21.603c4.743 0 8.785-1.751 12.124-5.254 3.34-3.504 5.01-8.515 5.01-15.034 0-6.52-1.622-11.531-4.865-15.035-3.242-3.503-7.235-5.254-11.979-5.254-4.84 0-8.857 1.727-12.052 5.181-3.194 3.455-4.791 8.491-4.791 15.108 0 6.519 1.573 11.53 4.719 15.034 3.146 3.503 7.091 5.254 11.834 5.254Zm135.619-61.012v81.447h-24.83v-11.093c-2.517 3.6-5.929 6.495-10.237 8.685-4.307 2.189-9.075 3.284-14.302 3.284-6.195 0-11.665-1.387-16.408-4.16-4.743-2.774-8.422-6.787-11.035-12.042-2.614-5.255-3.921-11.434-3.921-18.537V90.132h24.685v44.227c0 5.449 1.403 9.682 4.211 12.698 2.807 3.017 6.582 4.525 11.325 4.525 4.84 0 8.664-1.508 11.471-4.525 2.808-3.016 4.211-7.249 4.211-12.698V90.132h24.83Zm42.689 13.575c2.904-4.477 6.534-8.004 10.89-10.583 4.356-2.578 9.196-3.868 14.521-3.868v26.419h-6.825c-6.195 0-10.842 1.338-13.939 4.014-3.098 2.676-4.647 7.371-4.647 14.086v37.804h-24.829V90.132h24.829v13.575Zm86.686-14.45c9.487 0 17.061 3.089 22.724 9.268s8.494 14.669 8.494 25.47v47.584h-24.684v-44.227c0-5.449-1.404-9.682-4.211-12.698-2.807-3.017-6.582-4.525-11.326-4.525-4.743 0-8.518 1.508-11.325 4.525-2.808 3.016-4.211 7.249-4.211 12.698v44.227h-24.83V90.132h24.83v10.801c2.517-3.6 5.905-6.446 10.164-8.539 4.259-2.092 9.051-3.138 14.375-3.138Zm85.379 83.49c-7.938 0-15.077-1.703-21.417-5.109-6.341-3.406-11.326-8.271-14.956-14.596-3.63-6.325-5.445-13.721-5.445-22.186 0-8.369 1.839-15.74 5.517-22.114 3.679-6.373 8.712-11.263 15.101-14.669 6.389-3.406 13.552-5.109 21.49-5.109 7.938 0 15.101 1.703 21.49 5.11 6.389 3.405 11.423 8.295 15.101 14.668 3.679 6.374 5.518 13.745 5.518 22.114 0 8.368-1.864 15.739-5.59 22.113-3.727 6.373-8.809 11.263-15.247 14.669-6.437 3.406-13.624 5.109-21.562 5.109Zm0-21.603c4.743 0 8.785-1.751 12.124-5.254 3.34-3.504 5.01-8.515 5.01-15.034 0-6.52-1.622-11.531-4.865-15.035-3.242-3.503-7.235-5.254-11.979-5.254-4.84 0-8.857 1.727-12.052 5.181-3.194 3.455-4.791 8.491-4.791 15.108 0 6.519 1.573 11.53 4.719 15.034 3.146 3.503 7.091 5.254 11.834 5.254Zm100.77-.73v21.165h-12.632c-9.003 0-16.021-2.214-21.055-6.641-5.033-4.428-7.55-11.653-7.55-21.676v-32.403h-9.874V90.132h9.874v-19.85h24.829v19.85h16.263v20.727h-16.263v32.695c0 2.433.581 4.184 1.743 5.255 1.161 1.07 3.097 1.605 5.808 1.605h8.857Zm26.282-68.748c-4.356 0-7.914-1.289-10.673-3.868-2.758-2.578-4.138-5.765-4.138-9.56 0-3.892 1.38-7.128 4.138-9.707 2.759-2.578 6.317-3.868 10.673-3.868 4.259 0 7.768 1.29 10.527 3.868 2.759 2.579 4.138 5.815 4.138 9.707 0 3.795-1.379 6.982-4.138 9.56-2.759 2.579-6.268 3.868-10.527 3.868Zm12.342 8.466v81.447h-24.83V90.132h24.83Zm58.662 20.727H869.26v60.72h-24.83v-60.72h-9.002V90.132h9.002v-2.335c0-10.023 2.856-17.637 8.567-22.843 5.655-5.154 13.918-7.757 24.79-7.81h.33c1.84 0 3.195.05 4.066.147v21.164c-4.743-.292-8.083.39-10.019 2.044s-2.904 4.622-2.904 8.903v.73h13.359v20.727ZM977 90.132 926.179 210.26h-26.717l18.586-41.453-32.961-78.674h27.734l18.731 50.941 18.586-50.94H977Z" fill="#473700"/></svg>