<svg width="3856" height="960" fill="none" xmlns="http://www.w3.org/2000/svg"><path d="M467.003 119a361 361 0 1 1-.417 0" fill="#011627"/><path d="M467.003 119a361 361 0 1 1-.417 0" stroke="#011627" stroke-width="210.077" stroke-linecap="round" stroke-linejoin="bevel"/><path d="m474.839 682.526 222.029-200.019-137.51-134.85-222.03 200.019c-36.745 33.102-35.747 90.124 2.228 127.366 37.97 37.234 98.537 40.587 135.283 7.484Z" fill="#FF9F1C"/><path d="m340.437 374.082 228.381 223.837 132.436-119.29-228.382-223.837c-37.793-37.041-98.081-40.37-134.655-7.428-36.57 32.94-35.574 89.677 2.22 126.718Z" fill="#E71D36"/><path d="M1294.2 775.2c-40 0-70.93-9.6-92.8-28.8-21.33-19.733-32-53.067-32-100V443.2h-51.2v-104h51.2V229.6H1291v109.6h100.8v104H1291v183.2c0 27.733 13.07 41.6 39.2 41.6 21.87 0 41.87-5.067 60-15.2v97.6c-27.73 16.533-59.73 24.8-96 24.8Zm378.71 2.4c-65.06 0-118.66-20.533-160.8-61.6-42.13-41.6-63.2-94.933-63.2-160v-1.6c0-62.4 20-115.2 60-158.4s90.67-64.8 152-64.8c67.74 0 119.47 22.4 155.2 67.2 35.74 44.8 53.6 100 53.6 165.6 0 5.333-.53 16-1.6 32h-298.4c5.87 27.2 17.87 48 36 62.4 18.14 14.4 41.07 21.6 68.8 21.6 36.8 0 71.47-14.667 104-44l69.6 61.6c-43.2 53.333-101.6 80-175.2 80ZM1568.11 520h183.2c-3.73-27.733-13.6-49.867-29.6-66.4-15.46-16.533-35.73-24.8-60.8-24.8-25.06 0-45.6 8.267-61.6 24.8-16 16-26.4 38.133-31.2 66.4Zm594.63 257.6c-63.47 0-116.54-21.6-159.2-64.8-42.67-43.2-64-95.467-64-156.8v-1.6c0-61.867 21.33-114.4 64-157.6 42.66-43.733 96.26-65.6 160.8-65.6 70.4 0 127.46 24 171.2 72l-74.4 80c-15.47-16-30.67-27.733-45.6-35.2-14.4-8-31.74-12-52-12-29.87 0-54.67 11.467-74.4 34.4-19.74 22.4-29.6 49.867-29.6 82.4v1.6c0 34.133 9.86 62.4 29.6 84.8 20.26 22.4 46.66 33.6 79.2 33.6 33.6 0 66.4-15.2 98.4-45.6l71.2 72c-23.47 25.6-48.54 45.067-75.2 58.4-26.67 13.333-60 20-100 20Zm254.63-9.6V339.2h121.6V400c35.73-45.867 77.87-68.8 126.4-68.8 57.6 0 97.87 22.667 120.8 68 37.87-45.333 84.8-68 140.8-68 45.87 0 81.33 13.6 106.4 40.8 25.6 26.667 38.4 65.6 38.4 116.8V768h-121.6V528.8c0-58.133-23.73-87.2-71.2-87.2-22.93 0-41.07 7.467-54.4 22.4-12.8 14.933-19.2 36.533-19.2 64.8V768h-121.6V528.8c0-58.133-23.73-87.2-71.2-87.2-22.93 0-41.07 7.467-54.4 22.4-12.8 14.933-19.2 36.533-19.2 64.8V768h-121.6Zm762.56-476V184h128v108h-128Zm3.2 476V339.2h121.6V768h-121.6Zm439 9.6c-65.07 0-118.67-20.533-160.8-61.6-42.13-41.6-63.2-94.933-63.2-160v-1.6c0-62.4 20-115.2 60-158.4s90.67-64.8 152-64.8c67.73 0 119.47 22.4 155.2 67.2 35.73 44.8 53.6 100 53.6 165.6 0 5.333-.53 16-1.6 32h-298.4c5.87 27.2 17.87 48 36 62.4 18.13 14.4 41.07 21.6 68.8 21.6 36.8 0 71.47-14.667 104-44l69.6 61.6c-43.2 53.333-101.6 80-175.2 80ZM3517.33 520h183.2c-3.73-27.733-13.6-49.867-29.6-66.4-15.47-16.533-35.73-24.8-60.8-24.8s-45.6 8.267-61.6 24.8c-16 16-26.4 38.133-31.2 66.4Z" fill="#011627"/></svg>