<svg xmlns="http://www.w3.org/2000/svg" width="510.164" height="121.77" viewBox="0 0 5314 1268" shape-rendering="geometricPrecision" text-rendering="geometricPrecision" image-rendering="optimizeQuality" fill-rule="evenodd" clip-rule="evenodd"><defs><style>.fil1{fill:#b8d344}</style></defs><g id="Layer_x0020_1"><path d="M0 125v897h264c288 0 473-168 473-448 0-281-185-449-473-449H0zm264 190c147 0 245 87 245 259 0 171-98 259-245 259h-45V315h45zm1148 427c1-16 1-30 1-43 0-229-116-366-330-366-198 0-331 157-331 355s136 351 358 351c174 0 266-109 286-149l-141-109c-13 20-61 72-141 72s-138-51-143-111h441zm-325-236c66 0 106 46 109 100H978c5-48 38-100 109-100zm709 345c-98 0-165-67-165-166 0-89 56-160 158-160 50 0 97 19 134 50l58-181c-47-33-113-61-200-61-208 0-364 147-364 354 0 206 151 352 365 352 85 0 153-29 198-60l-57-176c-29 25-77 48-127 48zm186-38c0 147 118 226 250 226 69 0 118-19 152-54l12 37h191V606c0-154-59-273-291-273-112 0-203 36-274 83l79 144c53-26 110-43 169-43 70 0 103 32 103 73v25c-24-11-71-25-130-25-159 0-261 89-261 223zm214-7c0-44 38-72 90-72 51 0 91 26 91 72 0 45-39 69-90 69-50 0-91-24-91-69zm921 182c0 82-79 100-159 100-91 0-166-32-186-41l-62 164c60 31 153 57 248 57 200 0 373-78 373-326V349h-200v53c-19-22-83-69-182-69-193 0-329 146-329 352 0 209 123 354 318 354 102 0 165-51 179-68v17zm7-304c0 106-61 167-145 167-87 0-145-68-145-167 0-100 58-163 144-163 92 0 146 73 146 163zm1976 338h214V649c0-137-20-316-231-316-84 0-143 46-169 86v-70h-209v673h214V621c0-54 34-96 93-96 51 0 88 33 88 96v401z" fill="#2d2f48" fill-rule="nonzero"/><path class="fil1" d="M3845 299c29 0 58 3 87 9l-35 96c-16-2-33-3-50-3-43 0-84 7-123 21l-16-102c43-14 89-21 137-21zm-54 638c-15-26-27-53-36-80l101-18c6 15 13 30 22 44 21 38 48 70 79 96l-79 65c-34-30-63-66-87-107zm823-169c-3 22-7 43-12 64l-44-19c5-18 10-36 13-54l43 9zm-60 175c-13 23-29 44-47 64l-42-45c16-15 30-32 43-50l46 31zm-124 133c-11 8-22 16-34 23-21 12-43 22-65 30l-20-75c26-8 53-19 78-34 4-2 7-4 11-6l30 62zm-179 75c-46 8-93 9-139 2l29-88c37 7 76 7 115 2l-5 84zm-189-8l38-87c-43-12-84-32-120-59l-69 74c45 34 97 58 151 72zm-483-47c-17-13-34-27-49-43l38-28c13 14 26 27 41 39l-30 32zm-122-139c-12-23-23-48-32-73l60-14c6 21 13 42 22 62l-50 25zm-53-174c-2-14-2-27-2-41 0-25 2-48 6-72l75 20c-7 27-10 56-10 85v12l-69-4zm25-193c16-44 39-85 67-121l62 68c-24 30-44 63-59 100l-70-47zm101-160l56 77c32-31 70-57 111-75l-29-96c-52 22-99 54-138 94zM4370 664c-15 26-32 50-51 71l-66-78c10-13 19-27 27-41 22-38 36-77 44-117l96 36c-10 45-26 88-50 129zM3813 36c20-9 40-16 61-21l5 47c-18 4-36 9-53 16l-13-42zm181-36c26 0 53 3 79 8l-18 59c-21-6-43-9-65-11l4-56zm177 40c13 6 25 12 37 19 21 12 41 26 59 41l-55 55c-20-19-43-36-69-51-3-2-7-4-10-6l38-58zm155 118c30 36 54 77 71 119l-90 20c-14-36-33-70-57-101l76-38zm88 168c14 54 19 111 12 167l-98-23c5-45 2-90-9-133l95-11z"/><path d="M3634 602c15-25 32-49 51-71l66 78c-10 13-19 27-28 42-21 37-36 77-43 117l-96-37c10-44 26-88 50-129zm579-272c15 26 26 52 36 80l-101 18c-6-15-14-30-22-45-22-37-49-69-80-96l80-64c33 30 63 66 87 107zm-823 168c2-21 6-42 12-63l44 19c-6 17-10 35-13 54l-43-10zm60-175c13-22 29-44 46-64l42 45c-15 16-30 33-42 50l-46-31zm123-133c11-8 23-15 35-22 21-12 42-23 64-31l21 75c-27 8-53 19-79 34-3 2-7 4-10 6l-31-62zm180-75c46-8 93-9 139-2l-29 88c-38-6-77-7-115-1l5-85zm189 8l-38 87c43 12 83 32 120 59l69-74c-46-33-97-58-151-72zm217 844c-30 0-59-3-87-8l35-97c16 2 33 4 49 4 44 0 85-8 124-21l15 101c-43 14-88 21-136 21zm266-796c17 13 33 27 48 42l-38 29c-12-14-26-27-40-39l30-32zm121 139c13 23 24 47 33 72l-60 14c-6-21-14-42-23-62l50-24zm54 174c1 13 2 27 2 41 0 24-2 48-6 71l-75-20c6-27 10-55 10-85 0-4 0-8-1-12l70 5zm-25 193c-16 44-39 85-67 121l-63-69c25-30 45-63 59-99l71 47zm-102 159l-56-76c-32 31-69 56-111 74l30 97c52-23 98-55 137-95zm-282 395c-20 8-40 15-61 21l-6-48c18-3 36-9 54-15l13 42zm-181 35c-27 0-53-3-79-8l18-59c21 6 43 10 64 12l-3 55zm-178-40c-12-6-24-12-36-19-21-12-41-26-59-41l54-55c21 19 44 37 69 51 4 2 7 4 11 6l-39 58zm-154-118c-31-36-54-76-72-119l91-20c13 36 32 70 57 101l-76 38zm-88-168c-15-54-19-110-13-167l98 23c-5 45-1 90 10 134l-95 10z" fill="#34a853"/></g></svg>