<svg id="Layer_1" data-name="Layer 1" xmlns="http://www.w3.org/2000/svg" viewBox="0 0 443.76 714.94"><defs><style>.cls-1{fill:#8aceb6;}.cls-2{fill:#89ceb6;}.cls-3{fill:#e6077d;}.cls-4{fill:#d2dd24;}</style></defs><title>ntel-logo</title><path class="cls-1" d="M360.35,759.08c9.5-12.21,20.34-21,35.46-22.18,26.06-2,47.2,15.52,50.41,41.77,3.91,32,1.64,64.1,1.59,96.15,0,14.83-9.68,23.29-22.23,22.55-11.09-.67-18.59-10.29-18.65-24.16-.09-23.61.21-47.22-.23-70.83-.32-17.18-9.62-25.33-26.4-24.33-12.44.74-20.61,10.83-20.81,26.75-.29,23.29,0,46.59-.16,69.89-.11,14.38-9.86,23.84-22.91,22.69-9.37-.83-17.93-10.83-18.06-23.27-.38-37.46-.25-74.92,0-112.39,0-4.55,1.64-9.29,3.36-13.6,3.15-7.84,9.59-11.25,17.87-11.4s13.52,4.5,17,11.35C358.16,751.09,358.86,754.56,360.35,759.08Z" transform="translate(-318.12 -182.53)"/><path class="cls-1" d="M509,896.89c-24.93-1.63-41.36-20.45-41.56-48q-.25-33.06.05-66.12c.05-5-.76-7.56-6.51-9.07-8.1-2.12-13.37-8-13.2-17.26.21-11.18,4.19-17.46,13.94-19.43,5.16-1,5.84-3.47,5.74-7.69a147,147,0,0,1,.15-17.94c1-10.32,8.79-16.49,19.55-16.15,10.52.34,17.37,7.28,18.28,17.56.68,7.64-3.81,17.39,2.56,22.38,5.47,4.27,14.76,2,22.11,1.1,16.53-2,27.09,15.22,19.12,29.11-3.24,5.64-7.71,9-14.33,9.1-7.55.1-15.11.26-22.66.11-4.78-.1-7,1.84-6.85,6.66.7,23.26-1.35,46.55,1.19,69.8.58,5.3,2.54,7.25,7.6,7s10-.3,15-.46c12.12-.39,22.58,8.14,23,18.73.35,9.61-8.52,17.82-20.65,19.14C524.07,897.78,516.37,895.17,509,896.89Z" transform="translate(-318.12 -182.53)"/><path class="cls-1" d="M761.86,797.24q0,39.63,0,79.27c0,12.29-6.16,19.7-17.1,20.72s-18.92-5.19-21.25-16.68a53.4,53.4,0,0,1-.84-10.27q-.07-74.09,0-148.15c0-3.76,0-7.46,1.09-11.2,3.27-11,11.19-16.84,21.54-15.51,10.07,1.29,16.58,9.31,16.6,20.67Q761.92,756.67,761.86,797.24Z" transform="translate(-318.12 -182.53)"/><path class="cls-2" d="M705.34,804.63c-1.31-23.11-10.81-42.16-28.22-57.39-17.14-15-37.87-16.15-58.72-13.89-25.34,2.75-44.7,15.84-56.51,38.81-12.45,24.21-12.69,49.69-4.89,75,8.27,26.85,34,46.93,59.29,48.32a71.34,71.34,0,0,0,24.69-.08c6.34-1.68,9.9-5.88,11.45-12.16,3.32-13.48-6.35-24.42-23.59-25.07-13.17-.49-23.33-5.72-31.49-15.65-.51-3.94,2.61-3.25,4.77-3.75,27.21-.09,54.45,0,81.68,0,22.39,0,22.39,0,22.39-22C705.8,812.74,707.08,808.58,705.34,804.63Zm-45.69-2c-10.35-.14-20.7,0-31,0-9.41,0-18.85-.52-28.21.16-8.74.63-8.46-3.08-5.92-9.23,7.34-17.85,22.63-23.16,41.48-22.17,15.33.81,24,10.17,28.43,24.55C666,801.23,664.83,802.68,659.65,802.61Z" transform="translate(-318.12 -182.53)"/><path class="cls-2" d="M615.39,346.18c-12-14.36-26.43-25.63-45.43-27.92-13.36-1.61-27-.45-40.56-.86-20.95-.64-39.54-7-53.53-23.5-8.48-10-14.94-21-15.25-34.64a38.64,38.64,0,0,1-.06-17.25c.78-27.3,25.1-55.35,55.43-57.64,31.28-2.36,63.32-4,94.07,5.22q119.15,35.67,147.19,157.27c3.24,14.16,3.89,28.5,3.83,43-.27,63.56-.22,127.13-.28,190.69-1.38,9.24-.45,18.53-.54,27.8,1.93,32.68-27.91,65.45-60.73,66.58-4.69.16-9.39-.19-14.08-.3-14.18-4.24-28-8.71-38.61-20.26-11.66-12.67-17.93-27.1-18-44.15-.09-73.56,0-147.13-.09-220.7C628.78,373.8,624.92,359.06,615.39,346.18Z" transform="translate(-318.12 -182.53)"/><rect class="cls-3" x="1.61" y="2.04" width="131.43" height="346.31" rx="65.72" ry="65.72"/><circle class="cls-4" cx="67.32" cy="423.88" r="66.52"/></svg>