<svg width="1256" height="550" fill="none" xmlns="http://www.w3.org/2000/svg"><path d="M416 197v-21H184v80h117c-12 43-51 63-94 63-66 0-107-54-107-118 0-61 43-113 107-113 37 0 68 18 86 50h112C381 55 294 0 209 0 95 0 0 84 0 201c0 116 92 205 208 205 120 0 208-89 208-209zM775 244V7H675v237c0 37-2 74-49 74-45 0-51-39-51-74V7H475v237c0 49 4 83 39 120 29 30 72 42 113 42 42 0 80-12 109-42 34-34 39-74 39-120zM1249 203c0-115-92-203-206-203a202 202 0 0 0-206 208c0 112 95 198 205 198 115 0 207-87 207-203zm-100 0c0 60-42 115-105 115-65 0-108-54-108-116 0-61 43-114 107-114s106 55 106 115z" fill="#064785"/><path d="M116 462v-24H45v24h21v86h29v-86h21zM213 548l-30-38c17-3 27-18 27-34 0-12-4-23-13-31-10-7-22-7-34-7h-35v110h27v-36l26 36h32zm-29-71c0 11-8 16-19 16h-10v-31h10c10 0 19 4 19 15zM328 548l-44-110h-22l-44 110h30l6-16h38l5 16h31zm-44-39h-23l12-37 11 37zM432 548V438h-27l2 68-1 1-42-69h-24v110h27l-1-67 42 67h24zM525 516c0-17-11-25-26-32-4-2-19-7-21-12l-1-4c0-6 4-9 9-9 7 0 9 5 10 11h28c0-9-2-15-7-22-7-8-19-12-30-12-19 0-38 11-38 32 0 17 12 25 27 31l9 5c6 2 12 5 12 12 0 6-5 10-11 10-8 0-11-8-11-15h-28v4c0 23 18 35 40 35 21 0 38-11 38-34zM622 475c0-12-4-22-13-29-9-8-22-8-34-8h-36v110h27v-35h12c13 0 23-1 32-9 8-7 12-19 12-29zm-27 0c0 11-8 13-17 13h-12v-26h11c9 0 18 2 18 13zM749 493c0-33-26-57-58-57a57 57 0 0 0-58 58c0 32 26 56 58 56s58-25 58-57zm-28 0c0 17-12 32-30 32s-30-15-30-33c0-17 12-32 30-32s30 16 30 33zM849 548l-29-38c17-3 27-18 27-34 0-12-5-23-14-31-9-7-22-7-34-7h-34v110h27v-36l25 36h32zm-29-71c0 11-8 16-18 16h-10v-31h10c10 0 18 4 18 15zM922 462v-24h-72v24h22v86h28v-86h22zM1090 506h-30c-5 11-14 19-26 19-18 0-30-16-30-33s12-32 30-32c12 0 22 8 26 19h30c-1-6-4-12-8-18a57 57 0 0 0-48-25c-32 0-58 24-58 56 0 33 26 58 58 58 27 0 49-18 56-44zM1216 493c0-33-26-57-58-57a57 57 0 0 0-58 58c0 32 27 56 58 56 32 0 58-25 58-57zm-28 0c0 17-12 32-29 32-19 0-31-15-31-33 0-17 12-32 30-32s30 16 30 33zM1256 548v-26h-26v26h26z" fill="#0C809B"/></svg>