<svg xmlns="http://www.w3.org/2000/svg" viewBox="0 0 1000 1000"><title>Nigeria-Logo</title><path d="M54.3,500.47c1.33-.94,1.59-1.6.26-2.67-8.78-6.78-17.7-13.57-26.35-20.49-3.45-2.79-7.31-5.19-10.51-8.51h-.13v59.61h.13c1.07-.93,2.26-1.86,3.33-2.79,11-8.25,22.09-16.77,33.27-25.15" style="fill:#292525"/><path d="M987.09,400.8c0-2-.4-2.4-2.4-2.4H15.31c-2,0-2.4.4-2.4,2.4v45h0v113.1h0V599.2c0,2,.4,2.4,2.4,2.4H984.56c2,0,2.39-.4,2.39-2.4.14-66.27.14-132.27.14-198.4m-4.66,193.48c0,2.13-.53,2.66-2.66,2.66H20.23c-2.39,0-2.66-.8-2.66-2.8V528.68h-.13V469.06h.13v-63.2c0-2.13.53-2.67,2.66-2.67H979.77c2.13,0,2.66.4,2.66,2.67V594.28" style="fill:#fff"/><path d="M680.77,415.7c0-3.46,0-3.46-3.33-3.46H34.74a18.69,18.69,0,0,1-2.8,0c-1.46-.13-1.86.54-1.86,1.87v50.83a2.58,2.58,0,0,0,1.06,2.39c4.66,3.6,9.32,7.32,14,10.91C54,485.16,62.94,492,71.86,498.87c-2.39,1.86-4.52,3.72-6.79,5.45-10.91,8.25-21.95,16.5-32.86,24.75-1.33,1.07-2.27,2.13-2.13,4.13.13,16.23.13,32.6,0,48.84,0,2.52.53,3.32,3.32,3.32q322.15-.2,644.44,0c2.53,0,3.06-.66,3.06-3.06-.13-55.35-.13-111-.13-166.6M121.63,541.18c-5.06,6.26-12,8.92-19.7,9.32a42.9,42.9,0,0,1-9.18-.53c-7.58-1.07-15-.14-22.62.13H67.87l-1.33-1.33a1.5,1.5,0,0,1,1.2-1.73H68c2-.13,4.13.26,5.46-1.6,1.59-2.13,1.73-4.79,1.73-7.32q.39-9.78.4-19.56V460.28c0-1.73-.14-3.59-.27-5.32-.27-3.86-2-5.59-5.85-6.26l-3.07-.4c-.79,0-1.59-.26-1.59-1.19s.8-1.47,1.73-1.47h8.25c1.59,0,3.06.14,4.66.14H84.1c6.52,0,13.18-.8,19.7.26,13.3,2,18,12.51,17,22.49-.67,8-4.39,14.64-10.11,20.09-1.47,1.33-1.73,1.87.39,2.93,20.36,10.91,21.83,35.8,10.52,49.63M224,448.44c-5.18.8-6.12,1.59-6.38,6.78-.93,13.84-.27,27.55-.4,41.39,0,7.45,0,14.9-1.07,22.35C215,526.68,213,534.13,208,540.52c-7.72,9.71-18.23,12.24-30.08,10.91-17.16-1.86-24.35-13.71-27.14-27.41a88.74,88.74,0,0,1-1.6-17.83V460.41c0-1.33,0-2.79-.13-4.12-.4-5.46-2-7.05-7.45-7.85-1.2-.14-3.33.66-3.06-1.47s2.13-1.19,3.46-1.19c9.31.13,18.63.39,27.94,0l2.26.13,1.07,1.33-1.07,1.2h-.26c-7.06,1.73-7.19,1.73-7.59,9.05-.26,5.19-.26,10.24-.13,15.43.13,14.77-.67,29.41.53,44.18.4,5.59,1.33,11,4,16,3.86,7,9.58,10.91,17.83,10.64,8.52-.4,13.84-5.05,17.17-12.51,2.53-5.72,2.93-12,3.06-18.09.13-4.53.13-9.05.13-13.44V460a38.39,38.39,0,0,0-.13-3.86c-.53-5.18-2-6.78-7.32-7.45l-1.33-.13c-.93,0-1.86-.27-1.73-1.46s.93-1.2,1.86-1.2h.54c8.25.13,16.63.26,24.88,0,1.06,0,2.53-.27,2.53,1.33.13,1.33-1.33,1.06-2.27,1.2m55.76,95a21.65,21.65,0,0,1-15,7.71c-7.05.8-14,.4-20.62-2.13-3.86-1.59-4.26-2.12-4.26-6.25.13-6,.4-12,.53-18V524c.4-.8,0-2.4,1.47-2.26s.93,1.46.93,2.26a34.42,34.42,0,0,0,1.46,8.25,16.85,16.85,0,0,0,18.76,12c7.06-.93,12.25-7.71,12.64-16.1s-3.19-14.5-9.31-19.42c-5.19-4.26-10.78-8-15.3-12.91-8.65-9.58-11.31-20.76-7.85-33,3.06-10.78,12.64-18,23.82-18.63A55,55,0,0,1,283.7,446c1.86.53,2.4,1.47,2.26,3.33-.13,2.53,0,5.19,0,7.72h-.13c0,3.06.13,6.12,0,9.18,0,.93.13,2.39-1.33,2.39s-.93-1.46-1.06-2.39c-.67-6-2.8-11.31-8.65-13.84A15.2,15.2,0,0,0,259,454.16c-6.79,5.06-7.32,16.37-1.06,23.42,3.19,3.59,7.18,6.39,11,9.18,7.19,5.32,13.84,11.18,16.63,20,4.53,13.17,3.6,25.68-5.85,36.73m55.89,6.65c-2,0-4.13.13-6.12,0a135.73,135.73,0,0,0-20.76,0c-1.47.13-2.93,0-4.39,0-.93,0-1.73-.27-1.87-1.33s.67-1.6,1.6-1.6c2-.13,4.26.27,5.59-1.73s1.46-4.66,1.6-7.18c.53-13,.53-26.08.4-39s0-25.82-.14-38.72c0-1.6-.13-3.2-.26-4.93-.4-5.05-1.73-6.38-6.66-7.05-1.06-.13-2.53.13-2.53-1.46s1.6-1.33,2.67-1.33h27.94c1.06,0,2.53-.27,2.53,1.33s-1.33,1.19-2.26,1.33c-5.19.8-6,1.73-6.39,6.78-.27,2.8-.4,5.46-.4,8.25V530.8c0,3.2.27,6.53.4,9.72.26,4.52,2,6.25,6.52,6.52h2.26c1.07,0,2.53,0,2.53,1.46s-1.2,1.6-2.26,1.6m104-101.8c-6.52,1.33-6.78,1.47-7.45,8-.8,8.38-.26,16.76-.53,25.15-.4,21.29-.66,42.45-.93,63.74v2.52c-.27,1.33,0,3.2-1.6,3.73s-2.79-.67-3.72-1.73c-2.27-2.66-4.53-5.46-6.66-8.12-17.16-21.29-34.33-42.58-50-65.07l-1.06-1.33c0,8.79-.14,17.43,0,26.08.26,11.71.66,23.42.93,35.13a21.07,21.07,0,0,0,.66,5.06c.93,4,2.4,5.19,6.66,5.32l1.73.14c.79.13,1.73.26,1.73,1.46s-.94,1.46-2,1.46c-1.6,0-3.06.14-4.66,0-7.05-.66-14-.13-21,0-1.07,0-2.66.54-2.8-1.33s1.6-1.59,2.8-1.73c4.79-.26,6.12-1.33,6.39-6,.93-16.23.79-32.46,1.06-48.83.27-14.77.4-29.67.53-44.44v-1.07c.27-1.06.27-2.66,1.6-2.93s2.13.94,2.79,1.87c6.52,8.65,13,17.3,19.7,25.94,12.9,16.64,25.81,33.4,38.45,50.3l.67.8.4-2.53c-.27-20.22-.67-40.45-1.07-60.67a35.64,35.64,0,0,0-.53-5.33c-.66-4-2.53-5.32-7.45-5.72-1.2-.13-3.06.53-3.06-1.33s1.86-1.33,3.19-1.33c7.72.13,15.57.4,23.29,0h1.6l1.46,1.2c.53,1.19-.13,1.46-1.07,1.59m71.46,82.77a107.78,107.78,0,0,1-1.46,16.1c-.4,2.4-1.6,3.46-4.13,3.46-6.25-.13-12.51,0-18.76-.53-8.92-.8-18-.4-26.88.13a16.5,16.5,0,0,1-2.53-.13l-1.06-1.2.93-1.6.8-.26c6.12-1.2,6.92-2,7.05-8.52q.4-11.17.4-22.35V460.68c0-1.86-.13-3.73-.27-5.59-.26-4-2-5.72-6-6.25-1.07-.14-2.27-.27-3.33-.4l-1.2-1.07,1.07-1.2a16.57,16.57,0,0,1,2.52-.26c7.19.26,14.37.53,19.43.4h21.56a20.61,20.61,0,0,0,7.58-1.2c1.33-.53,2.13-.27,1.87,1.2-.94,6.12-.8,12.24-1.6,18.36-.13.67-.27,1.73-1.33,1.6s-.67-1.07-.8-1.73a16.5,16.5,0,0,0-.13-2.53c-.93-5.46-3.06-7.19-8.52-7.59-4.79-.26-9.58-.53-14.37-.53-1.46,0-2.13.4-2.13,2v32.87c0,1.06,0,2,1.46,1.86,6.13-.13,12.38-.13,18.5-.4a6.08,6.08,0,0,0,5.06-2.66l1.46-1.07.67,1.87c-.4,4.39-.8,8.65-1.07,13-.13,2.26-.26,4.65-.26,6.92,0,.8-.27,1.73-1.07,1.73-1.06,0-.93-1.07-.93-1.73-.8-8.65-1.73-9.58-10.51-10-3.73-.14-7.32-.27-11-.54-1.46,0-2.13.27-2.13,2,0,10.65-.13,21.42.14,32.07.13,6.92,3.06,9.85,10.11,10.25,2.79.13,5.46.13,8.25,0,6.52-.4,9.31-3.07,10.38-9.45l.4-2.26c.26-.8,0-2.27,1.33-2,.66.4.53,1.73.53,2.66m56.95,12.38a21.65,21.65,0,0,1-15,7.71,44.5,44.5,0,0,1-20.89-2.26c-2.8-1.06-4.26-2.79-4-6,.4-6.12.4-12.11.54-18.23v-.79c.39-.8,0-2.4,1.46-2.27,1.2.14.93,1.47.93,2.27a29.09,29.09,0,0,0,1.46,8.25c2.67,8.38,10.12,13.17,18.77,12,7.05-.93,12.24-7.72,12.64-16.1s-3.2-14.5-9.45-19.43c-5.19-4.26-10.78-8-15.3-12.9-8.52-9.32-11.05-20.23-8-32.34,2.67-10.91,12.78-18.76,24.09-19.29a55.3,55.3,0,0,1,16.23,1.73c2.13.53,3.06,1.46,2.8,3.72a68.57,68.57,0,0,0,0,7.45h-.27c0,3.06.13,6.12,0,9.18,0,.8.13,2.4-1.33,2.4s-.93-1.46-1.06-2.4c-.67-6-2.8-11.31-8.65-13.83A15.18,15.18,0,0,0,547.17,454c-6.78,5.05-7.32,16.36-1.06,23.42,3.19,3.59,7.18,6.38,11,9.18,7.19,5.32,13.84,11.17,16.64,20,4.65,13.3,3.72,25.81-5.73,36.86m66.4-.14a22,22,0,0,1-15.17,8A44.53,44.53,0,0,1,598.4,549c-2.79-1.06-4.26-2.79-4-6,.4-6.12.4-12.11.67-18.23l.13-1.07c.4-.8.13-2.13,1.46-2,1.07.13.93,1.19.93,2.13a31.2,31.2,0,0,0,1.47,8.51c2.66,8.38,10.11,13.18,18.76,12,7-.93,12.24-7.72,12.64-16.1s-3.19-14.51-9.45-19.43c-5.19-4.26-10.77-8-15.3-12.91-8.52-9.31-11-20.22-8-32.33,2.66-10.91,12.77-18.77,24.08-19.3A56,56,0,0,1,638.06,446c2,.53,3.06,1.47,2.79,3.73a68.57,68.57,0,0,0,0,7.45h-.27c0,3.06.14,6.12,0,9.18,0,.93.14,2.4-1.33,2.4s-.93-1.47-1.06-2.4c-.67-6-2.8-11.31-8.65-13.84a15,15,0,0,0-15.7,1.73c-6.79,5.06-7.32,16.37-1.07,23.42,3.2,3.59,7.19,6.39,11.05,9.18,7.18,5.19,13.7,11.05,16.63,19.7,4.26,13,3.46,25.55-6,36.72" style="fill:#ea2127"/><path d="M971.12,412.24H689.69c-3.33,0-3.33,0-3.33,3.33V582c0,3.32,0,3.32,3.33,3.32H971.25c3.33,0,3.33,0,3.33-3.32V415.84c.13-3.6.13-3.6-3.46-3.6M751.56,550.63c-8.91,1.2-17.83,0-26.61-.8a100.41,100.41,0,0,0-12.51,0c-2.26.14-4.66.14-6.92.27-1.06,0-2.13,0-2.13-1.46s1.07-1.47,2-1.47c5.59.13,6.38-2.26,6.78-7.45s.54-10.25.54-15.44V457.22c-.27-6.25-2.13-8.25-8.25-8.65l-1.6-.13-1.33-1.33c0-.8.66-1.2,1.33-1.33l2.26-.14c6.92-.13,13.84.8,21.16.14,10.11,0,20.76-.67,31.14,1.06,17,2.93,28.07,12.77,32.86,29.27,5.73,19.17,4.13,37.8-6.52,55.09-7.32,11.85-18.76,17.44-32.2,19.43m131.2-.66c-8.11,0-16.23.26-24.35-.4-.8-.14-2,.4-2.39-.93s.8-1.34,1.46-1.73a2,2,0,0,0,.8-2.67c-2.79-9.31-5.72-18.62-8.52-27.81a1.66,1.66,0,0,0-2.13-1.19H823.55c-1.06,0-1.73.13-2.13,1.33-2.39,8.11-5.59,16-7.18,24.21-.8,4-.14,6.92,5,6.39,1.07-.13,2.4-.13,2.4,1.6s-1.33,1.46-2.4,1.46c-8-.66-16.1-.26-24.08,0-1.07,0-2.4.14-2.4-1.46,0-1.33,1.07-1.6,2.13-1.6,4.92.27,7.85-2.53,9.45-6.78,2.66-7.19,5.05-14.51,7.58-21.69,8-23.69,16.1-47.24,24.09-70.93.53-1.6.8-3.72,2.79-3.86,2.26-.13,2.53,2.26,3.06,3.86,9.45,27.81,18.76,55.49,28.21,83.3a51.71,51.71,0,0,0,5.06,11.44c1.86,3.07,4.26,4.8,8,4.66,1.07,0,2.53-.13,2.4,1.47-.4,1.46-1.73,1.33-2.8,1.33M954,448.44a12.38,12.38,0,0,0-9.58,6.52c-7.18,11.71-12.77,24.08-18.63,36.46-2.26,4.65-4.79,9.31-5.19,14.63-.13,2.13-.26,4.26-.26,6.39.13,9.32-.4,18.63.4,27.95.4,4.79,2.13,6.38,7,6.65a24.1,24.1,0,0,1,3.06.13c.93.13,1.73.53,1.73,1.6a1.65,1.65,0,0,1-1.86,1.33c-2.8,0-5.46.13-8.25-.13-7.72-.8-15.44,0-23.16.13h-2l-1.33-1.33,1.19-1.47,1.47-.13c4.26-.26,5.85-1.59,6.12-5.85.67-11.31,1.06-22.62.13-33.8a26.43,26.43,0,0,0-3.19-10c-6.12-12.24-12.24-24.62-18.5-36.86a48.82,48.82,0,0,0-4.39-7.19,11.51,11.51,0,0,0-7.58-4.92c-.93-.13-1.87-.27-1.73-1.46s1.06-1.33,2.13-1.33c8.78.26,17.43.26,26.21,0,.8,0,1.86,0,2,1.06s-.8,1.46-1.6,1.6c-2.26.53-2.66,2.13-2,4.12l.67,2c6.25,13.7,12.37,27.28,18.89,41.51,5.73-14.37,13-27.14,17.57-41.25,1.2-3.85.8-4.52-2.8-6.52l-.93-1.59,1.33-.93h.8c7.45.39,14.91.26,22.36,0,.93,0,1.86,0,2,1.06-.13,1.2-1.06,1.46-2.13,1.6" style="fill:#292525"/><path d="M439.65,445.78h-1.59c-7.72.39-15.57.13-23.29,0-1.2,0-3.06-.4-3.19,1.33s1.86,1.19,3.06,1.33c4.92.4,6.78,1.73,7.45,5.72a35.51,35.51,0,0,1,.53,5.32c.4,20.23.8,40.45,1.07,60.55l-.4,2.52-.67-.79c-12.64-16.9-25.55-33.67-38.45-50.3-6.66-8.52-13.18-17.3-19.7-25.95-.66-.93-1.46-2.13-2.79-1.86s-1.33,1.86-1.6,2.92v1.07c-.13,14.77-.26,29.67-.53,44.44-.27,16.24,0,32.47-1.07,48.84-.26,4.66-1.59,5.85-6.38,6.12-1.2,0-2.93-.27-2.8,1.73s1.73,1.33,2.8,1.33c7-.13,14-.67,21,0,1.47.13,3.06,0,4.66,0,1.06,0,2-.27,2-1.46s-.93-1.34-1.72-1.47l-1.73-.13c-4.13-.27-5.73-1.46-6.66-5.32a21.07,21.07,0,0,1-.66-5.06c-.4-11.71-.8-23.42-.93-35.13-.14-8.65,0-17.43,0-26.08l1.06,1.33c15.7,22.36,32.87,43.65,50,65.07,2.13,2.79,4.39,5.45,6.66,8.12.93,1.06,2.12,2.26,3.72,1.73s1.47-2.4,1.6-3.73a16.44,16.44,0,0,0,0-2.53c.26-21.29.53-42.45.93-63.74.13-8.38-.4-16.76.4-25.15.66-6.52.93-6.52,7.45-8,.8-.13,1.46-.53,1.46-1.46Z" style="fill:#fff"/><path d="M111,491.68c-2-1.06-1.86-1.59-.4-2.92,5.72-5.46,9.45-12.11,10.12-20.1.79-10-3.73-20.49-17-22.49-6.52-.93-13.17-.13-19.69-.26H79.31c-1.59,0-3.06-.13-4.66-.13H66.4c-.93,0-1.73.39-1.73,1.46s.8,1.2,1.6,1.2a22.68,22.68,0,0,1,3.06.4c3.86.53,5.46,2.39,5.86,6.25.13,1.73.26,3.59.26,5.32,0,19.43.14,38.86,0,58.29,0,6.52-.26,13-.4,19.56-.13,2.52-.13,5.19-1.73,7.32-1.33,1.86-3.46,1.46-5.45,1.59H67.6c-.8.27-1.33.67-1.2,1.73l1.34,1.33H70c7.58-.13,15-1.2,22.49-.13a53.37,53.37,0,0,0,9.18.53c7.85-.53,14.63-3.19,19.69-9.31,11.58-14,10.11-38.86-10.38-49.64M92.49,452c4.79-.53,9,.8,11.57,4.92,5.46,8.79,6.39,18.1,1.73,27.55-2.39,4.79-10.51,7.18-15.3,4.92-1.2-.53-.93-1.46-.93-2.39V470.79c0-5.19.13-10.51,0-15.7,0-2.13.93-2.79,2.93-3.06m19.42,84.76c-4,8.52-13.57,8.39-19,5.06a5.82,5.82,0,0,1-2.66-4.39,42.5,42.5,0,0,1-.53-8.25V498.6c0-2.13.67-2.53,2.66-2.66,7.19-.53,12.24,2.8,16.1,8.52,4.13,6.12,5.73,12.77,6.12,19.69-.39,4.66-.79,8.78-2.66,12.64" style="fill:#fff"/><path d="M223.82,445.78c-8.25.26-16.63.13-24.88,0h-.53c-.94,0-1.87.13-1.87,1.33s.8,1.33,1.73,1.33l1.33.13c5.33.67,6.79,2.26,7.32,7.45a35.57,35.57,0,0,1,.14,3.86v39.65c0,4.53,0,9.05-.14,13.44-.13,6.13-.53,12.38-3.06,18.1-3.19,7.45-8.65,12.11-17.16,12.51-8.25.4-14-3.59-17.83-10.65-2.67-4.92-3.6-10.38-4-16-1.06-14.77-.26-29.41-.53-44.18,0-5.19-.13-10.25.27-15.44.4-7.32.53-7.32,7.58-9.05h.27l1.06-1.19-1.06-1.2-2.26-.13c-9.32.39-18.63.13-27.95,0-1.2,0-3.19-.8-3.46,1.19s2,1.33,3.06,1.47c5.46.8,7.06,2.39,7.45,7.85a40.51,40.51,0,0,1,.14,4.12v45.78A89.47,89.47,0,0,0,151,524c2.8,13.7,9.85,25.55,27.15,27.41,11.84,1.33,22.22-1.2,30.07-10.91,5.06-6.26,6.92-13.71,8.12-21.56,1.06-7.45,1.06-14.9,1.06-22.35.14-13.84-.39-27.55.4-41.39.27-5.19,1.2-6,6.39-6.78.93-.14,2.4.13,2.4-1.33-.4-1.6-1.73-1.47-2.8-1.33" style="fill:#fff"/><path d="M510.18,528.68c-1.33-.27-1.06,1.19-1.33,2l-.4,2.26c-1.06,6.39-3.86,9.05-10.38,9.45-2.79.13-5.46.13-8.25,0-6.92-.4-10-3.33-10.11-10.24-.14-10.65,0-21.43-.14-32.07,0-1.73.8-2,2.13-2,3.73.13,7.32.4,11.05.53,8.65.27,9.71,1.2,10.51,10,0,.8-.13,1.73.93,1.73s1.07-1.06,1.07-1.73c.13-2.26.13-4.65.26-6.92.27-4.39.67-8.65,1.07-13l-.67-1.86-1.46,1.06a6.09,6.09,0,0,1-5.06,2.67c-6.12.26-12.37.26-18.49.39-1.34,0-1.47-.93-1.47-1.86V456.15c0-1.59.53-2,2.13-2,4.79,0,9.58.26,14.37.53,5.59.4,7.59,2.13,8.52,7.59a16.37,16.37,0,0,1,.13,2.52c0,.67-.13,1.6.8,1.73s1.2-.93,1.33-1.59c.8-6.12.53-12.24,1.6-18.37.26-1.46-.54-1.73-1.87-1.19a20.61,20.61,0,0,1-7.58,1.19H477.31c-5.05.14-12.24-.13-19.43-.4a16.59,16.59,0,0,0-2.52.27l-1.07,1.2,1.2,1.06c1.06.14,2.26.27,3.33.4,4,.67,5.72,2.26,6,6.26.14,1.86.27,3.72.27,5.59,0,18.49.13,37,.13,55.48,0,7.46-.26,14.91-.4,22.36-.13,6.52-.93,7.32-7.05,8.51l-.8.14L456,549l1.07,1.2a15.22,15.22,0,0,0,2.52.14c9.05-.54,18-.94,26.88-.14,6.26.53,12.51.4,18.77.53,2.52,0,3.72-1.06,4.12-3.46a93,93,0,0,0,1.46-16.1c.27-1.06.4-2.39-.66-2.52" style="fill:#fff"/><path d="M623.68,486.76c-3.85-2.79-7.85-5.59-11-9.18-6.25-7.05-5.85-18.36,1.06-23.42a15.2,15.2,0,0,1,15.84-1.73c5.85,2.53,8,7.85,8.65,13.84.13.93-.4,2.39,1.06,2.39s1.2-1.46,1.33-2.39c.14-3.06,0-6.12,0-9.18h.27c0-2.53-.13-4.93,0-7.46.27-2.26-.67-3.19-2.79-3.72a55.7,55.7,0,0,0-16.24-1.73c-11.44.53-21.42,8.38-24.08,19.29-3.06,12.11-.54,23,8,32.34,4.53,4.92,10.11,8.78,15.3,12.91,6.26,5,9.85,11.17,9.45,19.42s-5.59,15.17-12.64,16.1a16.65,16.65,0,0,1-18.76-12,31.27,31.27,0,0,1-1.47-8.52c0-.8.14-2-.93-2.13-1.33-.13-1.2,1.2-1.46,2l-.13,1.06c-.14,6.12-.27,12.11-.67,18.23-.27,3.2,1.2,4.93,4,6,6.79,2.53,13.84,2.93,20.89,2.26a22.54,22.54,0,0,0,15.31-8c9.31-11.18,10.24-23.69,5.72-36.86-3.06-8.52-9.58-14.37-16.64-19.56" style="fill:#fff"/><path d="M557.28,486.76c-3.85-2.79-7.85-5.59-11-9.18-6.25-7.05-5.72-18.36,1.06-23.42a15.2,15.2,0,0,1,15.84-1.73c5.85,2.53,8,7.85,8.65,13.84.13.93-.4,2.39,1.06,2.39s1.2-1.59,1.33-2.39c.14-3.06,0-6.12,0-9.18h.27c0-2.53-.13-4.93,0-7.46.27-2.26-.66-3.19-2.79-3.72a55.7,55.7,0,0,0-16.24-1.73c-11.44.53-21.42,8.25-24.08,19.29-3.06,12.11-.4,23,8,32.34,4.53,4.92,10.11,8.65,15.3,12.91,6.26,5,9.85,11.17,9.45,19.42s-5.59,15.17-12.64,16.1a16.65,16.65,0,0,1-18.76-12A34.93,34.93,0,0,1,531.2,524c0-.93.27-2.13-.93-2.26-1.46-.14-1.2,1.46-1.46,2.26v.8c-.13,6.12-.27,12.11-.53,18.23-.27,3.19,1.19,4.92,4,6,6.78,2.53,13.84,2.93,20.89,2.27a22.51,22.51,0,0,0,15-7.72c9.44-11.05,10.38-23.55,6-36.73-3.06-8.91-9.58-14.77-16.9-20.09" style="fill:#fff"/><path d="M268.93,486.76c-3.86-2.79-7.85-5.59-11-9.18-6.26-7.05-5.73-18.36,1.06-23.42a15.2,15.2,0,0,1,15.84-1.73c5.85,2.53,8,7.85,8.65,13.84.13.93-.4,2.39,1.06,2.39s1.2-1.59,1.33-2.39c.13-3.06,0-6.12,0-9.18h.27c0-2.53-.14-5.19,0-7.72a2.8,2.8,0,0,0-2.27-3.33,50.81,50.81,0,0,0-16.76-1.86,25.76,25.76,0,0,0-23.82,18.63c-3.46,12.37-.8,23.42,7.85,33,4.52,5.05,10.11,8.65,15.3,12.91,6.26,5,9.85,11.17,9.32,19.42s-5.59,15.17-12.64,16.1a16.66,16.66,0,0,1-18.77-12,34.92,34.92,0,0,1-1.46-8.25c0-.93.27-2.13-1.06-2.26s-1.07,1.46-1.47,2.26v.8c-.13,6-.4,12-.53,18-.13,4.13.27,4.79,4.26,6.25,6.65,2.67,13.57,2.93,20.62,2.13a22.43,22.43,0,0,0,15-7.71c9.45-11.05,10.38-23.56,6-36.86-2.93-8.65-9.45-14.64-16.77-19.83" style="fill:#fff"/><path d="M335.46,547H333.2c-4.52-.27-6.25-2-6.52-6.52-.26-3.19-.4-6.52-.4-9.72V463.47c0-2.79.14-5.45.4-8.25.4-5.19,1.2-6,6.39-6.78.93-.14,2.39.13,2.26-1.33s-1.46-1.33-2.53-1.33H304.86c-1.07,0-2.53-.14-2.66,1.33s1.46,1.33,2.53,1.46c4.92.67,6.25,2.13,6.65,7.05.13,1.6.27,3.2.27,4.93,0,12.9.13,25.81.13,38.72s.13,26.08-.4,39c-.13,2.52-.13,5-1.6,7.18s-3.59,1.6-5.59,1.73c-.93.13-1.73.53-1.59,1.6s.93,1.33,1.86,1.33c1.46,0,2.93.13,4.39,0a135.73,135.73,0,0,1,20.76,0c2,.13,4.12,0,6.12,0,1.2,0,2.4.13,2.4-1.46s-1.47-1.6-2.67-1.6" style="fill:#fff"/><path d="M790.28,476.11c-4.79-16.36-15.83-26.34-32.86-29.27-10.52-1.73-21-1.06-31.14-1.06-7.32.66-14.24-.27-21.16-.14l-2.26.14c-.67.13-1.33.39-1.33,1.19l1.33,1.33,1.6.14c6.25.53,8.11,2.53,8.25,8.65v67.06c0,5.19-.14,10.25-.54,15.44s-1.19,7.58-6.78,7.45c-.93,0-2,.26-2,1.46,0,1.47,1.07,1.6,2.13,1.47,2.26,0,4.66-.14,6.92-.27a96.71,96.71,0,0,1,12.51,0c8.91.67,17.7,2,26.61.8,13.44-1.86,24.88-7.45,32.2-19.43,10.65-17.16,12.11-35.79,6.52-55m-17,49.64c-4.39,11.44-13.57,17.16-25.68,18a34.3,34.3,0,0,1-12.24-.93c-5.19-1.6-6.92-4-7.32-9.45-.8-12.64-.4-25.28-.4-32.2V458c0-4,.66-4.79,4.66-5.19,20.09-1.73,36.72,8.12,42.18,27.28,4.39,15.43,4.52,30.73-1.2,45.64" style="fill:#fcfdff"/><path d="M882.76,547c-3.59.13-6.12-1.6-8-4.66a58.55,58.55,0,0,1-5.06-11.44c-9.44-27.81-18.76-55.49-28.21-83.3-.53-1.6-.79-4-3.06-3.86-2,.13-2.26,2.26-2.79,3.86-8,23.68-16.1,47.24-24.09,70.92-2.52,7.32-4.92,14.51-7.58,21.69-1.6,4.26-4.39,7-9.45,6.79-1.06-.13-2.13.13-2.13,1.6s1.33,1.46,2.4,1.46c8-.27,16.1-.67,24.08,0,1.07.13,2.4.27,2.4-1.46s-1.33-1.6-2.4-1.6c-5.19.4-5.85-2.4-5-6.39,1.73-8.25,4.92-16.1,7.18-24.22.4-1.19,1.07-1.33,2.13-1.33h24.09c1.06,0,1.86.14,2.12,1.2,2.8,9.32,5.73,18.63,8.52,27.81a2.21,2.21,0,0,1-.8,2.66c-.66.4-1.73.67-1.46,1.73.26,1.33,1.46.93,2.39.93,8.12.67,16.24.4,24.35.4,1.07,0,2.4.14,2.53-1.46.4-1.46-.93-1.33-2.13-1.33m-39.92-39.65h-16.9c-.79,0-2,.39-1.46-1.34,3.73-11.57,7.32-23,11.18-35.39,3.46,11.44,6.79,22.22,10.11,33,1.07,3.73,1.07,3.73-2.93,3.73" style="fill:#fcfdff"/><path d="M953.82,445.78c-7.45.26-14.9.39-22.35,0h-.8l-1.33.93.93,1.59c3.59,2,4.12,2.67,2.79,6.52-4.52,14.11-11.84,26.88-17.56,41.25-6.52-14.23-12.78-27.94-18.9-41.51l-.66-2c-.67-2-.27-3.46,2-4.12.8-.27,1.73-.54,1.6-1.6s-1.06-1.2-2-1.06c-8.78.26-17.43.26-26.21,0-.93,0-2,0-2.13,1.33,0,1.06.93,1.19,1.73,1.46a11.66,11.66,0,0,1,7.59,4.92,40.35,40.35,0,0,1,4.39,7.19c6.12,12.24,12.37,24.48,18.49,36.86a29.18,29.18,0,0,1,3.2,10,220.38,220.38,0,0,1-.14,33.8c-.26,4.39-1.86,5.59-6.12,5.85l-1.46.13-1.2,1.47L897,550.1h2c7.72-.13,15.43-.8,23.15-.13,2.66.26,5.46.13,8.25.13a1.65,1.65,0,0,0,1.86-1.33c.14-1.07-.79-1.47-1.73-1.6a24,24,0,0,0-3.06-.13c-4.92-.27-6.52-1.73-7.05-6.65-.8-9.32-.26-18.63-.4-27.95,0-2.13.14-4.26.27-6.39.53-5.32,3.06-10,5.19-14.63,5.85-12.38,11.44-24.75,18.63-36.46a13.26,13.26,0,0,1,9.58-6.52c1.06-.14,2-.4,1.86-1.6.27-1.2-.8-1.2-1.73-1.06" style="fill:#fcfdff"/><path d="M92.22,496.07c-2,.14-2.66.54-2.66,2.67.13,10.24,0,20.35,0,30.6a43.12,43.12,0,0,0,.53,8.25c.4,1.86,1.06,3.46,2.66,4.39,5.46,3.33,15,3.46,19-5.05,1.86-3.86,2.4-8,2.53-12.51a37.32,37.32,0,0,0-6.12-19.7c-3.73-5.85-8.78-9.18-16-8.65" style="fill:#ea2127"/><path d="M89.69,470.93v16.23c0,.93-.26,1.86.93,2.39,4.79,2.27,12.91-.13,15.31-4.92,4.52-9.45,3.72-18.76-1.73-27.54-2.53-4.13-6.79-5.46-11.58-4.93-2.13.27-2.93.93-2.93,3.2.13,5.05,0,10.38,0,15.57" style="fill:#ea2127"/><path d="M732.27,453c-4,.4-4.66,1.2-4.66,5.19v43.11c.13,6.79-.4,19.56.4,32.21.26,5.45,2.13,7.85,7.32,9.44,4,1.33,8.11,1.2,12.24.94,12.11-.8,21.29-6.52,25.68-18,5.72-14.9,5.59-30.34,1.2-45.51C769,461.08,752.36,451.23,732.27,453" style="fill:#292525"/><path d="M835.66,470.66c-3.86,12.24-7.45,23.82-11.18,35.39-.53,1.87.67,1.34,1.46,1.34h16.9c4,0,4,0,2.8-3.73-3.19-10.78-6.52-21.56-10-33" style="fill:#292525"/></svg>