<svg width="2076" height="415" fill="none" xmlns="http://www.w3.org/2000/svg"><g clip-path="url(#clip0)"><path d="M843 180h11-11zM1299 295zM248 182h-2l12 4-10-4zM1643 412l19-56c-33 16-65 34-94 56h75z" fill="#0097CD"/><path d="M1498 257l-18 52a58 58 0 0 1-57 45c-48-1-26-53-26-53l5-16a500 500 0 0 0-214 123c57-12 80-33 99-57 4-5 7-10 9-16 10 74 112 77 112 77 102 1 137-39 155-71l5-8-19 55c39-25 81-46 124-63l35-102c-34 3-156 16-210 34zM1878 255l10-35 2-6-111 3-3 17-6 21-11 40c37-10 76-17 114-22l5-18z" fill="#FFB600"/><path d="M1730 404h109l30-114c-39 8-78 17-117 29l-22 85z" fill="#0097CD"/><path d="M2053 267l11-35c-28-3-65-5-109-7v1l-11 41c36-2 73-2 109 0z" fill="#FFB600"/><path d="M1907 404h109l36-133c-28 1-67 3-112 9l-33 124zM1995 104c-30-2-92 2-116 51 0 0 10-51-84-51-20 0-48-1-75 32l-15-29h-64l-24 67-8 24c0-71-61-93-116-92-83 0-127 33-150 70l-11 21c-3-68-72-89-126-89-69 0-111 24-136 52l7-28-56 1 23-88-122 29-18 58h-83l11-38c9-25 22-68 61-51l17-35s-80-22-131 3c-29 13-52 32-78 121h-49l-6 27c-19-39-66-51-108-51-83 0-127 33-149 70-17 31-30 64-39 98v-3c-2-7-4-14-8-20-15-30-50-52-84-67a400 400 0 0 0-35-11c-84-21-81-51-73-70 7-20 29-40 75-35 56 5 38 71 38 71h111c3-15 4-31 5-46-3-79-100-92-141-94C32-9 22 117 27 142c4 15 11 29 22 40a207 207 0 0 0 105 58c84 21 81 50 74 70-8 19-30 39-76 35a43 43 0 0 1-31-15c-16-21-15-56-15-56H0s-18 149 208 138c82-8 118-44 133-78 6 77 112 81 112 81 102 1 137-39 155-71 14-24 36-90 36-90 9-24 12-49 8-74h38l-69 234h119l69-234h80l-37 135c-20 78 32 97 62 99 63 5 102-17 102-17l3-32c28 46 99 49 102 50 13-15 65-69 171-119h-93l-5 16a59 59 0 0 1-58 45c-37 0-18-53-18-53l34-91c19-45 39-49 46-49 50 0 26 59 26 59l-1 4h97c-8 21-14 43-20 64 37-17 76-31 116-43l14-39c16-45 47-49 55-48 49 2 25 60 25 60l-1 4c67-13 135-21 204-22 8-16 24-36 53-31 10 2 16 12 15 30h20c29 0 60 2 92 4 7-15 22-37 46-38 13 0 26 5 18 45l107 14 9-34s25-80-78-89zM556 224l-31 88a58 58 0 0 1-57 44c-48 0-26-53-26-53l34-91c15-45 47-49 54-48 49 2 26 60 26 60zm500-43c-17 29-32 75-43 115-6 21-5 43 3 63-64 16-47-41-47-41l38-137 49-1v1z" fill="#0097CD"/></g><defs><clipPath id="clip0"><path fill="#fff" d="M0 0h2076v415H0z"/></clipPath></defs></svg>