<svg data-name="Layer 1" xmlns="http://www.w3.org/2000/svg" viewBox="0 0 308.073 45.793"><path d="M149.636 0a15.057 15.057 0 0 0-9.645 3.29 16.72 16.72 0 0 0-5.679 9.33Q133.41 0 122.142 0a14.123 14.123 0 0 0-9.285 3.2 15.862 15.862 0 0 0-5.227 8.88v-.631a23.14 23.14 0 0 0-1.088-7.303 15.657 15.657 0 0 0-1.082-3.064h-9.105V44.8h11.455V21.18q.09-5.95 2.704-9.195a8.655 8.655 0 0 1 7.121-3.246q3.425-.001 4.823 1.669 1.398 1.67 1.397 5.544V44.8h11.45V21.187q.089-5.95 2.658-9.195a8.624 8.624 0 0 1 7.166-3.246q3.425-.001 4.823 1.668 1.397 1.67 1.398 5.544v28.85h11.448V15.414q.005-7.663-3.516-11.538Q155.76 0 149.636 0ZM190.221.007q-9.735-.006-15.82 5.987-6.084 5.994-6.083 16.272v.18q.006 11.538 6.315 17.442a23.66 23.66 0 0 0 31.267.007q6.31-5.903 6.31-17.533v-.18q.006-10.276-6.123-16.226-6.13-5.95-15.866-5.95Zm10.372 23.699q-.001 14.602-10.366 14.602v.003q-10.283 0-10.276-14.603v-3.245q.001-6.13 2.749-9.465a9.228 9.228 0 0 1 7.527-3.335 9.34 9.34 0 0 1 7.572 3.335q2.794 3.34 2.794 9.465ZM244.6 0a15.35 15.35 0 0 0-10.007 3.29 15.506 15.506 0 0 0-5.318 9.06v-.901a23.021 23.021 0 0 0-1.082-7.303 15.666 15.666 0 0 0-1.088-3.064h-9.118V44.8h11.465V21.187q-.001-5.86 2.93-9.15a9.728 9.728 0 0 1 7.62-3.291q7.301 0 7.301 7.212v28.85h11.36V15.414q.002-7.663-3.697-11.538Q251.267 0 244.6 0ZM301.943 5.956q-6.13-5.95-15.865-5.95-9.736-.005-15.82 5.988-6.085 5.994-6.085 16.272v.18q0 11.538 6.31 17.442a23.665 23.665 0 0 0 31.28 0q6.31-5.903 6.31-17.532v-.18q0-10.27-6.13-16.22Zm-5.498 17.75q-.001 14.602-10.367 14.602v.003q-10.276 0-10.276-14.603v-3.245q.004-6.13 2.75-9.465a9.225 9.225 0 0 1 7.526-3.335 9.34 9.34 0 0 1 7.572 3.335q2.795 3.34 2.795 9.465ZM57.195.305a1.59 1.59 0 0 0-2.525 1.287v16.91L29.86.305a1.59 1.59 0 0 0-2.525 1.287v16.91L2.525.305A1.59 1.59 0 0 0 0 1.592v23.893a1.594 1.594 0 0 0 .654 1.282l25.522 18.72a1.59 1.59 0 0 0 2.526-1.287V27.29l24.81 18.197a1.588 1.588 0 0 0 2.523-1.287V27.289L80.85 45.487a1.588 1.588 0 0 0 2.524-1.287V20.31a1.596 1.596 0 0 0-.657-1.286Z"/></svg>