<svg xmlns="http://www.w3.org/2000/svg" viewBox="0 0 1000 1000"><title>Nigeria-Logo</title><path d="M296.82,581.69c-2.42.62-3.62,2.23-4.06,4.65-2.07,11.53-4.51,23-5,34.74a51.85,51.85,0,0,0,1.45,16.28c2.53,9,8.25,15.2,17.37,17,16.67,3.3,32,.37,43.32-13.35,8.51-10.33,12-22.22,6.61-35.44-.57-1.4-.88-2.84,1-3.22,6.09-1.23,12.21-3,18.39-.43,7.09,3,10.58,8.58,10.66,16,.13,13.72-6,24.67-16.47,33.06-12.67,10.17-27.34,16.1-43.32,18.91-11.36,2-22.79,1.7-34.16.52-16.17-1.68-31.39-6.25-44.38-16.58-14-11.09-20.59-26-21.83-43.38-.44-6.07-.07-12.19-.76-18.41-2.08,5-4.1,10-6.25,15C212,624.08,202.18,639.36,187.32,651a78.53,78.53,0,0,1-33.13,15.3,17.23,17.23,0,0,1-2.28.16c-1.56-.76-3.12.05-4.69.05q-47.4-.12-94.79,0c-3.8,0-7.59.08-11.84-.21.71-1.05,1.38-1.93,1.08-3,9.09-15.1,12.24-32.06,15.55-49,5-25.86,10.25-51.69,15.36-77.54,1.71-8.64,3.31-17.3,5-25.95h0A9,9,0,0,0,78,509.4q4.47-21.87,8.92-43.74A25.1,25.1,0,0,0,87,450.8c-.48-2.42-1-4.84-1.45-7.26-.45-2.74.88-3.28,3.4-3.26,18.18.09,36.37,0,54.55,0,4.29,0,4.29,0,4.43,4.24a19.12,19.12,0,0,1-.18,2.28q-4.89,25-9.81,50c-1,4.91-1.87,9.83-2.9,15.26,3.4-2.06,6.25-3.82,9.13-5.53,12.73-7.58,26-13.09,41.32-12.05,18.33,1.26,31.86,9.62,39.72,26.46,5.67,12.16,6.85,25.08,6,38.28-.14,2.3-.26,4.6-.39,6.89a105.34,105.34,0,0,0,4.32-9.76c4.19-9.87,10.06-18.73,16.51-27.24h0a11.73,11.73,0,0,0,1-.94A93.84,93.84,0,0,1,292,500.9a117.59,117.59,0,0,1,53.18-7c9.37,1,18.13,3.95,26.61,7.91l.05.06c6.66,3.84,13.09,8,18.36,13.71,8.34,9.06,11.88,20,12.52,32a114.57,114.57,0,0,1-2.75,30.61c-.3,1.37-.43,2.94-2.29,3.25a2.41,2.41,0,0,0-1.9-.45H298.09a12.75,12.75,0,0,0-1.37.15Zm1.79-15.15-.18.47a3.39,3.39,0,0,0,.76.19h37.44c.58,0,1.16,0,1.5-.62,3.15-1,2.54-3.93,3.06-6.22a197.78,197.78,0,0,0,5.09-40.1c.13-7.72-5-12.75-12.66-13-10.8-.39-18.27,4.7-23.12,14-6.86,13.14-10.4,27.33-13.1,41.79C297.14,564.44,297.21,565.71,298.61,566.54ZM114,651.3v0c1.83,0,3.65,0,5.48,0a8.85,8.85,0,0,0,2-.35c17.24-4.6,29.29-14.92,34.47-32.24,5.85-19.5,9.91-39.43,13.72-59.42a56.65,56.65,0,0,0-2.12-28.91,11,11,0,0,0-9.62-8c-6.62-.9-12.3,1.24-17.14,5.75-8.78,8.17-13.49,18.55-15.84,30.06-3.71,18.15-7.21,36.33-10.76,54.51-2.34,12-4.58,23.94-7,35.89-.41,2.08,0,2.89,2.2,2.76C110.92,651.22,112.46,651.3,114,651.3Z" style="fill:#d42127"/><path d="M602.28,671c-10,.68-19.91,1.38-29.92.7-18.08-1.23-35.55-4.7-51.61-13.5-6.18-3.38-11.78-7.61-15.18-14.06-5.18-9.83-2.57-21.82,4.9-30.61,13.8-16.21,44-19.06,62.73-4.69a33.23,33.23,0,0,1,6,5.76c1.95,2.45,1.84,3.85-.57,5.85s-5,3.85-7,6.39c-8.79,11.17-4.08,26.45,9.56,30.36,11.91,3.41,21.84.49,30.32-8.89,15.63-17.31,25.12-37.66,31-59.92,1.32-5,2.34-10.09,3.35-15.16.33-1.64.93-3.88-.55-4.83-1.21-.78-2.74.87-4,1.74-12.19,8.6-25.37,15.12-40,18.28-17.76,3.83-35.41,4-52.72-2.58-20.07-7.59-34.69-28.21-35.24-49.62A96,96,0,0,1,518.61,504c.26-.81.43-1.66.64-2.49h0c.37-.76.79-1.51,1.1-2.3a88.42,88.42,0,0,1,15.74-25.89c13.39-15.26,30.46-24.82,49.22-31.76a130.75,130.75,0,0,1,35.37-7.32c14.95-1.18,29.7-.39,44.24,3.57a109.89,109.89,0,0,1,20.39,8.39h0a7.07,7.07,0,0,0,1,.94,86.71,86.71,0,0,1,20.51,17.87c5.53,6.46,9.54,13.85,13.07,21.54.78,2.53,1.52,5.08,2.37,7.6,1.84,5.44,2.15,11.18,3.36,16.75q.09,3.1.2,6.2v8.63c0,1.92-.11,3.84-.17,5.76-.47,3.7-.82,7.42-1.45,11.09-.94,5.56-2.07,11.09-3.12,16.63a.33.33,0,0,0-.08.44,7.12,7.12,0,0,0-.94,3l-.18,1.1q-3.43,9.82-6.88,19.66v0a70.22,70.22,0,0,0-4.24,9.1l.07-.07-.4.74a.28.28,0,0,0-.13.38,55.71,55.71,0,0,0-4.5,8.28l0,0a27.71,27.71,0,0,0-3.48,5.7h0l-8.13,11.5,0,0a34.49,34.49,0,0,0-4.69,5.74l0,0-5.36,5.79a.28.28,0,0,0-.31.26,13.82,13.82,0,0,0-3,3.17l0,0-12.07,10.46v0a252.3,252.3,0,0,1-22,13.83l0,0-10.38,4.64v0c-3.74,1.19-7.47,2.4-11.21,3.57C616.44,668.56,609.31,669.5,602.28,671Zm61.16-179.53A101.4,101.4,0,0,0,661,468.84c-1.93-8.67-6.22-15.8-15-19-6.91-2.47-14-2-20.94.2-10.31,3.21-17.13,10.54-22.85,19.21-8.11,12.28-12.65,25.88-15.47,40.23-2.65,13.5-3,26.85.64,40.19,2.38,8.79,8.18,15.91,18,17,12.34,1.33,23.13-2.41,31.79-11C655,538.07,663.16,516.32,663.44,491.43Z" style="fill:#14b151"/><path d="M419.41,533.76l.25-1.1c1-5.16,2.11-10.31,3-15.5.52-2.92-.51-4-3.45-3.67a39.33,39.33,0,0,1-6.6.18c-1.81-.12-2.08-.91-1.38-2.45a8.24,8.24,0,0,1,2.29-2.88c4.23-3.65,9.09-6.41,13.54-9.75,9.86-7.38,17.36-17,25.14-26.39,9.61-11.56,19.9-22.37,33.15-29.88,7.55-4.28,15.39-7.84,24.19-8.62a20.6,20.6,0,0,1,4.3,0c1.25.15,3.27-.06,3.39,1.39a4.62,4.62,0,0,1-2.08,4.48q-2.1,1.24-4.1,2.66c-11.39,8-17.59,19.49-21.69,32.36a187.26,187.26,0,0,0-4.81,19c-.68,3.3-.65,3.31,2.84,3.31,6,0,11.91,0,17.86,0,2.92,0,3.42.66,2.84,3.43-.84,4-1.63,8.08-2.47,12.11-.16.73-.25,1.56-1.21,1.78-6.89,0-13.78,0-20.67,0-.84,0-2-.57-2.45.79-1.89,1.59-1.85,3.94-2.27,6q-5.76,29.52-11.4,59c-2.32,12.06-4.41,24.16-7.17,36.13-.6,2.61-1.44,5.17-2,7.79-1.43,6.63,2.06,11.11,8.83,11.51,4.42.26,8.54-1.09,12.66-2.36,1.91-.58,2.83-.58,2.25,1.94-4.93,21.35-24.21,36.7-45.84,35.88-13.25-.51-24.52-5.26-31.52-17.37-4.68-8.09-4.75-16.67-3-25.65,6-30.89,11.67-61.82,17.46-92.74A11.32,11.32,0,0,0,419.41,533.76Z" style="fill:#d42128"/><path d="M698,714.92l-1.67-.11a17.17,17.17,0,0,0-5.25-1.07l-.24-.13-.26,0c-1-1-3.21-.1-3.47-2.25l0,0,.63-.6,0,0,.79-.6a.25.25,0,0,0,.33-.21,918.61,918.61,0,0,1,2.34-2.09,9.31,9.31,0,0,0,3.52-3.47l0,0a8.7,8.7,0,0,0,2.93-3.46l-.05,0a.63.63,0,0,0,.53-.68h0a29.3,29.3,0,0,0,5.75-9.82h0a9.9,9.9,0,0,0,.89-1.45c4.48-11,6-22.74,8.24-34.3l.13-1.07a100,100,0,0,0,2.84-13.91l0,0c.58-.45.45-1.08.41-1.69l.18-1.7a141.69,141.69,0,0,0,3.33-16.19l.06-.59a19.58,19.58,0,0,0,1.21-6.33h0a13.09,13.09,0,0,0,1.17-5.75h0c1.88-7.63,3.46-15.32,4.6-23.1l.13-.12-.07-.17c1.81-7.53,3.42-15.1,4.51-22.78a.37.37,0,0,0,.08-.48,225.11,225.11,0,0,0,4.52-22.59.36.36,0,0,0,.08-.48,17,17,0,0,0,1.15-5.84h0c.25-.81.56-1.61.76-2.44,1.89-7.92,2.44-15.79-.78-23.54h0c-.38-2.91-2.47-5.2-3-8.07l.66-.76,5.78-.41,46.71,0h8.65c2.33,0,3.68.95,3.41,3.48h0c-1,2.11-1,4.44-1.49,6.67-1.46,7.39-2.8,14.8-4.19,22.21a.4.4,0,0,0-.07.51,16.09,16.09,0,0,0-1.15,5.82h0c-2.24,9.35-3.87,18.82-5.62,28.27l-.15,1.71a58,58,0,0,0-2.24,11l-.05.57a14.68,14.68,0,0,0-1.07,5.2l-.12,1A143.92,143.92,0,0,0,780,600.08c0,.21,0,.41-.07.62a64.19,64.19,0,0,0-2.27,11.49.39.39,0,0,0-.08.5,13.81,13.81,0,0,0-1.06,5.27l-.06.57c-2.3,9.34-3.92,18.81-5.65,28.27l-.12,1.14a76.65,76.65,0,0,0-2.16,10.39c-.06.56-.11,1.11-.17,1.67-2,7.42-3,15-4.53,22.55a.34.34,0,0,0-.11.45,6.14,6.14,0,0,0-1,3,.3.3,0,0,0-.15.4c-7.48,15.86-21.87,21.86-37.42,26.11-4,1.08-8,1.58-12.09,2.35l-7,.28-3.31,0Z" style="fill:#14b151"/><path d="M961.54,531.5q0,5.71.05,11.45c-2.76,20.62-7.21,40.94-11,61.37-1.69,9-3.31,18.09-5,27.12-2,10.63-.72,21.22.16,31.82.29,3.57,0,4-3.67,4q-23.47,0-46.93.06c-2.2,0-4.41.12-6.61.18-3.82-.93-4.35-1.58-4.74-5.59a27.44,27.44,0,0,0-.51-3.39c-.7-3.11-1.61-3.65-4.29-2-5.8,3.46-11.61,6.91-17.67,9.91l-.57.15-2.28,1h0l-11,3.4-.26,0-.23.13a25.9,25.9,0,0,0-6.42,1.07l-3.38.17-6.36,0-5.08-.2a25.67,25.67,0,0,0-6.45-1.07l-.23-.13-.26.05c-4.5-1.54-9.1-2.82-13.28-5.22a40.75,40.75,0,0,1-18.52-22.42h0a16.2,16.2,0,0,0-1.13-5.19l-.08-1.15c-.3-5.24.45-10.41,1.18-15.57a.29.29,0,0,0,.09-.41c1.61-4.49,2.89-9.09,5.09-13.37,3.91-7.61,9.54-13.8,15.63-19.65h0l.71-.53.5-.5,11.58-8.11v0l7.19-3.54c7.58-3.74,15.66-6.17,23.52-9.2a.22.22,0,0,0,.33-.12,4.67,4.67,0,0,0,1.13-.15c13.38-4.67,26.77-9.31,39.88-14.72A21.46,21.46,0,0,0,904,540.48c3.21-6.62,3.19-13.56,1.3-20.5-.8-2.93-3-4.8-5.87-5.88a23.4,23.4,0,0,0-12.23-.92c-7.65,1.24-11.68,6.3-11.48,14.08.07,2.29.55,4.56.74,6.85.31,3.63-1.08,6.33-4.49,7.89-7.34,3.37-14.77,6.52-22.94,7.12-10.08.74-18.68-2.21-24.22-11.17-7.77-12.57-9.23-26.2-6.14-40.48.44-2.05,1.46-2.56,3.24-1.44,6.27,3.94,13.27,4.9,20.45,4.66a349.66,349.66,0,0,0,41.22-4.18c13.07-2,26.15-2.53,39.28-.43a140.29,140.29,0,0,1,20.81,5.46v0c7.52,4,13.06,9.77,15.62,18.13C960.46,523.55,960.79,527.56,961.54,531.5Zm-63.29,35.29c-5.5,2.17-10.69,3.86-15.31,6.86a98.15,98.15,0,0,0-27.42,27.07c-6.69,9.73-10.67,20.08-8.74,32.17,1.18,7.38,7.15,13.71,14.09,14.32,4.76.42,8.74-1.89,12.69-4,7.05-3.85,12.2-9.35,13.5-17.56,2.19-13.84,5.27-27.51,7.88-41.27C896,578.63,897.1,572.91,898.25,566.79Z" style="fill:#14b151"/><circle cx="778.99" cy="423.39" r="53.02" style="fill:#fff;stroke:#000;stroke-width:0.6693047853462792px"/><path d="M759.33,374.16l1.88,4.57m-31.12,44.32c2.85,6.71,9.5,8.53,15.41,11.08m6.19-46.59c-13.09,3.16-21.51,16.92-21.1,17m33.58-10.7c-4.17,7.29-4.8,16.9-2.66,28.28m16.9-48.26c4.56-1.93,11.88-1.63,20.82.49M754,455c-2.14,2.32-3.4,6.21-4.43,10.49m33.72-79.83c5.56,3,15.77,8.14,22.21,16.26M775,453.26a35,35,0,0,0,20.43,12.58m9.74-44.39a122.89,122.89,0,0,1-25.86,12.09M820,399c-.57-5.21-3-10.23-5.87-15.22m13,36.08a9.16,9.16,0,0,1,4.82,5.34m-13.2,6.59c.79,7.46-2.25,16.36-5.3,25.29" style="fill:none;stroke:#000;stroke-width:0.6693047853462792px"/><path d="M759.59,374.65A85.14,85.14,0,0,1,780.84,373c1.94,3.6,2.67,8.46,3.59,13.29-8.26,3.28-16.17,6.56-21.3,9.59-5.46-2.8-8.46-3.46-14.81-7.42C750.42,383.47,754.23,378.87,759.59,374.65ZM820,398.08c3.54,7.39,7,14.79,8.4,22.35-3.33,5-6.79,10.57-9.6,13.06-4.55-2.68-10-7.06-15.3-11,.12-8.54.44-14.87.68-22C809.84,399.07,815.29,397.91,820,398.08ZM727,433.5a53,53,0,0,1,3.81-32l1.28.35c-1.74,7.53-3.06,15-1.32,21.8a17.26,17.26,0,0,0-2.77,9.9Zm34.17-13.28c7,4.29,13.83,8.47,20.43,12.58-.59,7.77-3.09,14.8-5.13,22-7.26,2.32-15.32.72-23,.81-5.69-8.07-6.58-14.88-8.81-22A85.34,85.34,0,0,1,761.12,420.22Zm56.68,39.19a53,53,0,0,1-28.72,16l-2.36-1.07c2.8-1.93,4.84-5.2,6.52-9.11,5.73-.36,13.47-5.71,20.85-10.17A21.61,21.61,0,0,1,817.8,459.41Zm-60.07,12.5a53.1,53.1,0,0,1-18.46-13.49c3.5,3.19,6.4,6,10.53,6.25C750.27,466.66,752.32,468.91,757.73,471.91Z"/></svg>