<svg xmlns="http://www.w3.org/2000/svg" viewBox="0 0 97.16 20.47"><g data-name="Layer 2"><g data-name="Layer 1"><g data-name="Layer 2"><g data-name="Layer 1-2"><path d="M27.84 12.79a7.67 7.67 0 1 0-7.67 7.67 7.67 7.67 0 0 0 7.67-7.67" style="fill:#0ff"/><path d="M73.85 12.79a7.67 7.67 0 1 0-7.67 7.67 7.68 7.68 0 0 0 7.67-7.67" style="fill:#004bff"/><path d="M11.3 17.78a4.89 4.89 0 0 0 .42-2.13v-.05a3.47 3.47 0 0 0-.4-1.73 4 4 0 0 0-1-1.21 6.42 6.42 0 0 0-1.4-.84c-.5-.22-1-.42-1.53-.59l-1.12-.39a7.66 7.66 0 0 1-.93-.4 2.53 2.53 0 0 1-.68-.44.71.71 0 0 1-.24-.53v-.06a.89.89 0 0 1 .38-.73 1.88 1.88 0 0 1 1.13-.29 5.27 5.27 0 0 1 1.8.38 12.72 12.72 0 0 1 2.11 1l1.56-2.89a10.06 10.06 0 0 0-2.6-1.25A9.17 9.17 0 0 0 6 5.18a6.78 6.78 0 0 0-2 .3 4.55 4.55 0 0 0-1.67.91 4.31 4.31 0 0 0-1.18 1.47 4.61 4.61 0 0 0-.42 2v.05a3.77 3.77 0 0 0 .39 1.81 4.06 4.06 0 0 0 1 1.25 5.18 5.18 0 0 0 1.39.83 13.2 13.2 0 0 0 1.49.53l1.13.36c.34.1.67.21 1 .34a1.93 1.93 0 0 1 .66.43A.81.81 0 0 1 8 16a.93.93 0 0 1-.42.8 2.2 2.2 0 0 1-1.3.3 6.16 6.16 0 0 1-2.2-.44 9.28 9.28 0 0 1-2.36-1.32L0 18.18a10 10 0 0 0 3.06 1.69 9.87 9.87 0 0 0 3.14.54 8 8 0 0 0 2.17-.29 5 5 0 0 0 1.76-.87 3.74 3.74 0 0 0 1.17-1.47m30.84-8.67h3.33V5.7h-3.32v-4h-4.1v4h-4.91v-.58c0-1.06.5-1.59 1.48-1.59a5.55 5.55 0 0 1 1 .09 7 7 0 0 1 .89.27V.42a6.7 6.7 0 0 0-1.25-.3A11.89 11.89 0 0 0 33.57 0a4.44 4.44 0 0 0-3.31 1.15 5 5 0 0 0-1.16 3.59v15.39h4.1v-11h4.91v6.29A5 5 0 0 0 39.23 19a4.45 4.45 0 0 0 3.32 1.15A9.12 9.12 0 0 0 44.2 20a6.8 6.8 0 0 0 1.26-.3v-3.44c-.31.11-.61.19-.89.26a4.19 4.19 0 0 1-1 .09c-1 0-1.49-.53-1.49-1.59v-3.9ZM57 10a9.81 9.81 0 0 1 1.61-3.09 7.67 7.67 0 1 0 0 11.75A9.7 9.7 0 0 1 57 15.58a4.35 4.35 0 0 1-3.12 1.28 4.17 4.17 0 0 1-4.27-4.07 4.18 4.18 0 0 1 4.27-4.07A4.4 4.4 0 0 1 57 10m40.15 10.13v-9.59a5.65 5.65 0 0 0-1.29-4 4.71 4.71 0 0 0-3.59-1.38 5.62 5.62 0 0 0-2.64.6 6.86 6.86 0 0 0-2.1 1.76 4.16 4.16 0 0 0-1.6-1.75 4.87 4.87 0 0 0-2.47-.61 4.81 4.81 0 0 0-1.41.2 4.42 4.42 0 0 0-1.15.52 6.71 6.71 0 0 0-.93.76c-.27.29-.53.59-.77.9V5.4h-4.09v14.73h4.09v-8.2a3.31 3.31 0 0 1 .66-2.23 2.32 2.32 0 0 1 1.82-.76 2.16 2.16 0 0 1 1.78.76 3.48 3.48 0 0 1 .62 2.23v8.2h4.1v-8.2a3.31 3.31 0 0 1 .66-2.23 2.32 2.32 0 0 1 1.82-.76 2.14 2.14 0 0 1 1.77.76 3.42 3.42 0 0 1 .62 2.23v8.2Z"/></g></g></g></g></svg>