<?xml version="1.0" standalone="no"?>
<!DOCTYPE svg PUBLIC "-//W3C//DTD SVG 20010904//EN"
 "http://www.w3.org/TR/2001/REC-SVG-20010904/DTD/svg10.dtd">
<svg version="1.0" xmlns="http://www.w3.org/2000/svg"
 width="290.000000pt" height="174.000000pt" viewBox="0 0 290.000000 174.000000"
 preserveAspectRatio="xMidYMid meet">

<g transform="translate(0.000000,174.000000) scale(0.100000,-0.100000)"
fill="#000000" stroke="none">
<path d="M690 1225 l0 -265 -130 0 -130 0 0 -100 0 -100 220 0 c202 0 220 1
221 18 1 9 4 82 8 162 l6 145 107 -162 107 -163 136 0 135 0 0 250 0 250 -52
0 c-29 0 -70 3 -90 6 l-38 7 -1 -59 c-1 -33 -4 -82 -7 -110 l-7 -51 -140 219
-140 218 -102 0 -103 0 0 -265z"/>
<path d="M1660 1108 l0 -148 -120 0 -120 0 0 -105 0 -105 220 0 220 0 0 60 0
60 80 0 80 0 0 -60 0 -60 220 0 220 0 0 100 0 99 -117 3 -118 3 -3 147 -3 147
-279 3 -280 3 0 -147z m360 -43 c0 -25 -1 -25 -80 -25 -79 0 -80 0 -80 25 0
25 1 25 80 25 79 0 80 0 80 -25z"/>
<path d="M371 573 c1 -30 4 -37 6 -20 5 34 16 35 31 2 18 -39 32 -30 32 20 0
25 -4 45 -10 45 -5 0 -10 -10 -10 -22 l0 -22 -16 22 c-24 34 -34 26 -33 -25z"/>
<path d="M465 575 c0 -33 4 -45 15 -45 11 0 15 12 15 45 0 33 -4 45 -15 45
-11 0 -15 -12 -15 -45z"/>
<path d="M522 608 c-31 -31 -3 -82 40 -76 31 4 39 48 9 48 -12 0 -21 -4 -21
-10 0 -5 5 -10 11 -10 5 0 7 -5 3 -11 -4 -7 -12 -6 -23 5 -21 21 -3 52 28 49
13 -2 20 1 16 7 -9 14 -48 13 -63 -2z"/>
<path d="M602 578 c3 -39 6 -43 31 -46 15 -2 27 1 27 7 0 6 -9 11 -20 11 -11
0 -20 5 -20 10 0 6 9 10 20 10 27 0 25 18 -2 23 l-23 4 23 2 c34 2 26 21 -9
21 -29 0 -30 -1 -27 -42z"/>
<path d="M680 576 c0 -25 5 -46 10 -46 6 0 10 7 10 17 0 15 1 15 18 0 22 -20
36 -22 25 -5 -4 7 -7 26 -8 43 0 25 -4 31 -27 33 -27 3 -28 2 -28 -42z m40 13
c0 -5 -4 -9 -10 -9 -5 0 -10 7 -10 16 0 8 5 12 10 9 6 -3 10 -10 10 -16z"/>
<path d="M765 575 c0 -34 3 -45 15 -45 11 0 15 11 15 45 0 33 -4 45 -15 45
-11 0 -15 -12 -15 -45z"/>
<path d="M827 575 c-17 -49 -16 -51 13 -32 17 10 22 9 30 -3 16 -26 20 -4 7
35 -19 54 -32 54 -50 0z m29 -12 c-10 -10 -19 5 -10 18 6 11 8 11 12 0 2 -7 1
-15 -2 -18z"/>
<path d="M900 575 c0 -51 20 -63 21 -12 l0 32 16 -32 c23 -46 33 -41 32 15 -1
26 -4 37 -6 25 -5 -28 -20 -30 -28 -3 -12 39 -35 23 -35 -25z"/>
<path d="M1020 610 c0 -5 5 -10 10 -10 6 0 10 -13 10 -29 0 -17 5 -33 10 -36
6 -4 10 8 10 29 0 25 4 36 15 36 8 0 15 5 15 10 0 6 -16 10 -35 10 -19 0 -35
-4 -35 -10z"/>
<path d="M1100 575 c0 -43 1 -45 30 -45 17 0 30 5 30 10 0 6 -9 10 -20 10 -11
0 -20 5 -20 10 0 6 7 10 15 10 21 0 19 20 -2 21 -14 0 -13 2 5 9 30 13 28 20
-8 20 -29 0 -30 -2 -30 -45z"/>
<path d="M1170 575 c0 -43 1 -45 30 -45 17 0 30 5 30 10 0 6 -9 10 -20 10 -16
0 -20 7 -20 35 0 19 -4 35 -10 35 -5 0 -10 -20 -10 -45z"/>
<path d="M1240 575 c0 -43 1 -45 30 -45 17 0 30 5 30 10 0 6 -9 10 -20 10 -11
0 -20 5 -20 10 0 6 7 10 15 10 21 0 19 20 -2 21 -14 0 -13 2 5 9 30 13 28 20
-8 20 -29 0 -30 -2 -30 -45z"/>
<path d="M1310 614 c0 -24 25 -84 35 -84 10 0 35 60 35 84 0 18 -19 2 -25 -21
l-8 -28 -10 28 c-10 24 -27 38 -27 21z"/>
<path d="M1395 575 c0 -33 4 -45 15 -45 11 0 15 12 15 45 0 33 -4 45 -15 45
-11 0 -15 -12 -15 -45z"/>
<path d="M1453 604 c-4 -11 2 -23 16 -33 23 -17 19 -34 -5 -24 -8 3 -14 0 -14
-7 0 -6 11 -10 28 -8 34 4 44 42 13 51 -12 3 -21 10 -21 17 0 7 8 9 20 5 11
-4 20 -2 20 4 0 18 -50 13 -57 -5z"/>
<path d="M1528 608 c7 -7 12 -21 12 -33 0 -12 -5 -26 -12 -33 -9 -9 -6 -12 17
-12 23 0 26 3 17 12 -7 7 -12 21 -12 33 0 12 5 26 12 33 9 9 6 12 -17 12 -23
0 -26 -3 -17 -12z"/>
<path d="M1590 606 c-28 -35 11 -93 48 -70 35 22 22 84 -18 84 -10 0 -23 -7
-30 -14z m48 -29 c3 -22 -1 -27 -17 -27 -15 0 -21 6 -21 23 0 46 33 49 38 4z"/>
<path d="M1681 573 c2 -46 2 -46 8 -13 l7 35 17 -32 c24 -45 37 -41 37 12 0
45 -20 66 -21 23 l0 -23 -16 23 c-24 34 -33 27 -32 -25z"/>
<path d="M1807 575 c-17 -49 -16 -51 13 -32 17 10 22 9 30 -3 16 -26 20 -4 7
35 -19 54 -32 54 -50 0z m29 -12 c-10 -10 -19 5 -10 18 6 11 8 11 12 0 2 -7 1
-15 -2 -18z"/>
<path d="M1882 584 c6 -71 68 -74 68 -4 0 51 -18 53 -22 3 -2 -21 -7 -38 -13
-38 -5 0 -11 17 -13 38 -2 20 -8 37 -13 37 -6 0 -9 -16 -7 -36z"/>
<path d="M1960 610 c0 -5 7 -10 15 -10 10 0 15 -11 15 -35 0 -19 5 -35 10 -35
6 0 10 16 10 35 0 19 5 35 10 35 6 0 10 5 10 10 0 6 -16 10 -35 10 -19 0 -35
-4 -35 -10z"/>
<path d="M2040 575 c0 -25 5 -45 10 -45 6 0 10 9 10 20 0 11 7 20 15 20 8 0
15 -6 15 -14 0 -8 5 -18 10 -21 6 -4 10 12 10 39 0 25 -4 46 -10 46 -5 0 -10
-7 -10 -15 0 -8 -7 -15 -15 -15 -8 0 -15 7 -15 15 0 8 -4 15 -10 15 -5 0 -10
-20 -10 -45z"/>
<path d="M2140 606 c-28 -35 11 -93 48 -70 35 22 22 84 -18 84 -10 0 -23 -7
-30 -14z m48 -29 c3 -22 -1 -27 -17 -27 -15 0 -21 6 -21 23 0 46 33 49 38 4z"/>
<path d="M2231 573 c1 -26 3 -40 6 -30 6 21 17 22 33 2 7 -8 17 -15 22 -15 7
0 6 5 0 13 -6 7 -10 26 -9 43 2 25 -2 29 -25 32 -27 3 -28 2 -27 -45z m39 16
c0 -5 -7 -9 -15 -9 -15 0 -20 12 -9 23 8 8 24 -1 24 -14z"/>
<path d="M2315 575 c0 -34 4 -45 15 -45 12 0 15 11 15 45 0 33 -4 45 -15 45
-11 0 -15 -12 -15 -45z"/>
<path d="M2360 610 c0 -5 6 -10 14 -10 10 0 16 -13 19 -37 l4 -38 1 36 c3 65
62 55 62 -10 0 -12 5 -21 10 -21 6 0 10 9 10 20 0 12 7 32 16 45 9 14 12 25 6
25 -6 0 -15 -8 -21 -17 -9 -17 -10 -17 -16 0 -6 13 -19 17 -56 17 -27 0 -49
-4 -49 -10z"/>
<path d="M360 429 c-28 -12 -60 -38 -60 -51 0 -5 18 1 40 12 56 29 58 26 11
-25 -41 -45 -51 -65 -30 -65 15 0 71 41 65 48 -3 2 -12 -1 -21 -8 -27 -23 -16
2 20 41 19 22 35 44 35 49 0 12 -27 12 -60 -1z"/>
<path d="M1100 420 c0 -11 2 -20 5 -20 2 0 9 9 15 20 9 16 8 20 -5 20 -8 0
-15 -9 -15 -20z"/>
<path d="M1333 428 c-7 -13 -9 -17 -12 -37 0 -5 -9 -12 -18 -15 -15 -6 -15 -4
2 14 10 11 13 20 7 20 -26 0 -74 -101 -54 -114 19 -11 67 18 70 42 3 29 -19
25 -33 -6 -10 -23 -25 -30 -25 -12 0 6 20 30 45 53 43 41 56 67 36 67 -6 0
-13 -6 -18 -12z"/>
<path d="M2576 418 c-26 -42 -59 -119 -52 -125 8 -8 17 1 20 19 1 7 4 18 7 23
51 87 59 105 50 105 -6 0 -17 -10 -25 -22z"/>
<path d="M1823 388 c-43 -45 -67 -95 -42 -85 8 2 13 9 12 16 -2 6 17 29 42 52
43 39 55 59 37 59 -4 0 -26 -19 -49 -42z"/>
<path d="M2451 385 c-22 -24 -41 -54 -41 -66 0 -20 1 -20 24 -6 23 15 24 15
19 -3 -6 -24 6 -26 33 -5 16 13 16 14 2 9 -23 -8 -23 4 -1 28 23 25 -1 24 -40
-4 -22 -15 -15 -4 23 35 34 36 48 57 38 57 -8 0 -34 -20 -57 -45z"/>
<path d="M421 384 c-17 -14 -29 -29 -26 -34 2 -4 -9 -25 -25 -46 -52 -69 -38
-84 25 -27 30 26 34 34 18 29 -30 -10 -29 -5 12 44 51 61 49 79 -4 34z"/>
<path d="M1160 384 c-14 -8 -24 -19 -22 -26 2 -6 -2 -15 -9 -19 -7 -4 -13 -17
-14 -28 -2 -25 22 -28 51 -6 18 13 18 14 -5 8 -20 -5 -23 -3 -18 11 4 10 7 20
7 22 0 3 11 8 23 13 13 5 24 16 24 25 0 19 -4 19 -37 0z"/>
<path d="M1600 384 c-14 -7 -25 -17 -25 -21 0 -4 -5 -15 -10 -23 -18 -28 -16
-50 4 -50 23 0 37 16 19 22 -17 6 -2 39 21 45 11 3 21 13 24 24 6 22 2 22 -33
3z"/>
<path d="M1740 384 c-14 -7 -24 -20 -22 -28 1 -7 -4 -16 -12 -19 -17 -7 -10
-47 8 -47 7 0 21 7 32 15 18 13 18 14 -5 8 -20 -5 -23 -3 -18 11 4 10 7 20 7
22 0 3 11 8 23 13 13 5 24 16 24 25 0 19 -4 19 -37 0z"/>
<path d="M780 372 c-28 -9 -50 -35 -50 -59 0 -26 25 -31 55 -10 16 13 15 14
-15 9 -25 -3 -31 -1 -28 9 3 8 15 15 27 17 12 2 25 10 28 18 7 18 2 23 -17 16z"/>
<path d="M478 358 c-20 -17 -28 -42 -18 -58 6 -10 15 -10 46 3 22 9 34 16 28
16 -7 1 -9 12 -6 26 3 20 0 25 -15 25 -11 0 -26 -6 -35 -12z m13 -41 c-16 -16
-26 0 -10 19 9 11 15 12 17 4 2 -6 -1 -17 -7 -23z"/>
<path d="M567 352 c-28 -31 -18 -74 11 -49 12 9 16 9 19 0 6 -18 28 -16 43 2
11 13 10 14 -4 9 -21 -8 -21 4 1 28 26 29 8 31 -26 3 -17 -15 -37 -25 -43 -23
-8 3 -4 9 10 17 12 6 22 16 22 21 0 16 -15 12 -33 -8z"/>
<path d="M843 350 c-36 -22 -36 -21 -27 -45 6 -14 8 -14 32 1 23 15 25 15 19
0 -8 -20 13 -21 39 -1 16 13 16 14 2 9 -19 -6 -25 10 -8 21 17 10 11 35 -7 35
-10 0 -33 -9 -50 -20z m20 -22 c-13 -12 -26 -18 -30 -14 -4 4 1 14 11 22 31
22 43 17 19 -8z"/>
<path d="M995 357 c-21 -16 -30 -67 -12 -67 7 0 21 8 32 17 16 13 17 15 3 10
-22 -8 -23 6 -3 23 31 26 13 40 -20 17z"/>
<path d="M1367 352 c-39 -43 -8 -82 38 -48 18 13 18 14 -8 9 -34 -7 -35 10 -2
25 14 6 25 16 25 22 0 17 -36 11 -53 -8z"/>
<path d="M1463 350 c-31 -19 -41 -39 -26 -53 3 -4 17 0 30 8 21 14 23 14 23 0
0 -19 11 -19 36 0 16 13 16 14 2 9 -19 -6 -25 10 -8 21 17 10 11 35 -7 35 -10
0 -33 -9 -50 -20z m20 -22 c-13 -12 -26 -18 -30 -14 -4 4 1 14 11 22 31 22 43
17 19 -8z"/>
<path d="M1896 351 c-35 -38 -2 -77 39 -47 19 13 18 14 -8 9 -31 -6 -38 12 -8
22 11 3 25 12 31 20 20 24 -33 19 -54 -4z m44 5 c0 -2 -7 -7 -16 -10 -8 -3
-12 -2 -9 4 6 10 25 14 25 6z"/>
<path d="M2047 363 c-14 -14 -7 -32 11 -26 15 6 15 5 3 -11 -22 -27 1 -43 31
-21 15 11 17 15 6 12 -19 -7 -25 8 -8 18 19 12 10 35 -13 35 -13 0 -27 -3 -30
-7z"/>
<path d="M2136 351 c-35 -38 -2 -77 39 -47 19 13 18 14 -8 9 -16 -3 -27 -1
-27 6 0 6 6 11 13 11 8 0 22 9 32 20 18 19 17 20 -7 20 -14 0 -33 -9 -42 -19z
m44 5 c0 -2 -7 -7 -16 -10 -8 -3 -12 -2 -9 4 6 10 25 14 25 6z"/>
<path d="M2239 355 c-31 -17 -41 -36 -28 -56 7 -12 11 -11 26 4 17 17 17 18 1
11 -28 -10 -21 11 7 24 31 14 47 15 23 2 -10 -6 -14 -18 -11 -30 6 -24 13 -25
39 -5 16 13 16 14 2 9 -19 -6 -25 10 -8 21 17 10 11 35 -7 35 -10 -1 -30 -7
-44 -15z"/>
<path d="M2342 354 c-25 -17 -29 -52 -8 -60 8 -3 27 1 43 10 l28 15 -32 -6
c-39 -7 -46 13 -9 27 13 5 27 14 31 19 10 17 -28 13 -53 -5z"/>
<path d="M942 348 c-14 -14 -16 -48 -3 -48 5 0 14 7 21 15 10 12 10 15 0 15
-10 0 -10 3 0 15 15 18 -1 20 -18 3z"/>
<path d="M1819 340 c-21 -17 -21 -19 -4 -13 18 6 18 5 6 -10 -20 -25 -7 -31
26 -12 15 9 20 14 11 11 -19 -6 -25 9 -8 19 12 8 13 25 1 25 -5 0 -19 -9 -32
-20z"/>
</g>
</svg>
