<svg width="713" height="735" fill="none" xmlns="http://www.w3.org/2000/svg"><path d="M356.5 0H1.111v157.89H356.5V0z" fill="#00A75F"/><path d="M1.111 259.391H356.5v124.057H98.647v82.159H356.5v159.512H1.111V259.391zM544.618 30.605h158.319l-174.03 292.79v89.337l174.03 212.387H540.608l-138.99-189.802V241.926l143-211.321z" fill="#026635"/><path d="M35.914 656.327H15.347v8.253h18.88v6.75h-18.88v9.993h21.516v6.988H7.41v-38.866h28.503v6.882zM42.505 649.577h7.383v20.936l9.36-10.811h9.308L58.51 670.697l10.442 17.614h-9.07l-6.883-12.287-3.11 3.243v9.044h-7.384v-38.734zM85.537 683.011c2.197 0 3.884-.782 5.062-2.347 1.178-1.564 1.767-3.788 1.767-6.671 0-2.883-.59-5.097-1.767-6.644-1.178-1.565-2.865-2.347-5.062-2.347-2.198 0-3.894.782-5.09 2.347-1.177 1.547-1.766 3.761-1.766 6.644s.589 5.107 1.767 6.671c1.195 1.565 2.891 2.347 5.089 2.347zm14.713-9.018c0 4.219-1.213 7.831-3.64 10.837-2.425 2.988-6.108 4.483-11.047 4.483-4.94 0-8.622-1.495-11.048-4.483-2.426-3.006-3.639-6.618-3.639-10.837 0-4.148 1.213-7.743 3.64-10.784 2.425-3.041 6.108-4.561 11.047-4.561 4.94 0 8.622 1.52 11.048 4.561s3.639 6.636 3.639 10.784zM121.581 658.885c2.97 0 5.396.782 7.277 2.347 1.898 1.546 2.848 4.122 2.848 7.725v19.354h-7.7v-17.482c0-1.511-.202-2.672-.606-3.48-.738-1.477-2.145-2.215-4.219-2.215-2.549 0-4.298 1.081-5.247 3.243-.492 1.143-.738 2.602-.738 4.377v15.557h-7.488v-28.688h7.25v4.193c.967-1.477 1.881-2.54 2.743-3.191 1.547-1.16 3.507-1.74 5.88-1.74zM149.266 658.885c1.74 0 3.287.387 4.641 1.16 1.353.756 2.452 1.811 3.296 3.164v-13.711h7.62v38.813h-7.304v-3.982c-1.072 1.705-2.294 2.945-3.665 3.718-1.371.773-3.076 1.16-5.115 1.16-3.358 0-6.188-1.353-8.49-4.06-2.286-2.725-3.428-6.214-3.428-10.468 0-4.904 1.125-8.763 3.375-11.575 2.267-2.813 5.291-4.219 9.07-4.219zm1.635 23.994c2.127 0 3.744-.791 4.851-2.373 1.108-1.582 1.662-3.63 1.662-6.144 0-3.515-.888-6.029-2.664-7.541-1.089-.914-2.355-1.371-3.796-1.371-2.198 0-3.815.835-4.852 2.505-1.019 1.653-1.529 3.709-1.529 6.17 0 2.654.518 4.781 1.555 6.381 1.055 1.582 2.646 2.373 4.773 2.373zM184.572 683.011c2.197 0 3.885-.782 5.062-2.347 1.178-1.564 1.767-3.788 1.767-6.671 0-2.883-.589-5.097-1.767-6.644-1.177-1.565-2.865-2.347-5.062-2.347s-3.894.782-5.089 2.347c-1.178 1.547-1.767 3.761-1.767 6.644s.589 5.107 1.767 6.671c1.195 1.565 2.892 2.347 5.089 2.347zm14.713-9.018c0 4.219-1.213 7.831-3.639 10.837-2.426 2.988-6.108 4.483-11.048 4.483-4.939 0-8.622-1.495-11.048-4.483-2.425-3.006-3.638-6.618-3.638-10.837 0-4.148 1.213-7.743 3.638-10.784 2.426-3.041 6.109-4.561 11.048-4.561 4.94 0 8.622 1.52 11.048 4.561s3.639 6.636 3.639 10.784zM246.086 649.445h11.681v38.866H250.2v-26.288c0-.756.008-1.811.026-3.164.018-1.372.026-2.426.026-3.165l-7.356 32.617h-7.884l-7.304-32.617c0 .739.009 1.793.027 3.165.017 1.353.026 2.408.026 3.164v26.288h-7.567v-38.866h11.812l7.067 30.56 7.013-30.56zM272.427 656.143h-7.62v-6.935h7.62v6.935zm-7.62 3.427h7.62v28.741h-7.62V659.57zM296.896 669.88a6.673 6.673 0 0 0-1.081-2.9c-.844-1.161-2.153-1.741-3.929-1.741-2.531 0-4.262 1.257-5.194 3.771-.492 1.336-.738 3.111-.738 5.326 0 2.109.246 3.806.738 5.089.896 2.391 2.584 3.586 5.062 3.586 1.758 0 3.006-.475 3.745-1.424.738-.949 1.186-2.18 1.344-3.691h7.673c-.176 2.285-1.002 4.447-2.478 6.486-2.356 3.287-5.845 4.931-10.468 4.931s-8.025-1.371-10.204-4.114c-2.18-2.742-3.27-6.301-3.27-10.678 0-4.94 1.204-8.781 3.612-11.523 2.409-2.742 5.731-4.113 9.967-4.113 3.604 0 6.548.808 8.833 2.426 2.303 1.617 3.665 4.473 4.087 8.569h-7.699zM325.399 658.885c.141 0 .255.009.343.026.105 0 .325.009.659.027v7.699a20.585 20.585 0 0 0-2.162-.132c-3.024 0-5.054.984-6.091 2.953-.58 1.108-.87 2.813-.87 5.115v13.738h-7.568V659.57h7.172v5.01c1.16-1.916 2.171-3.225 3.033-3.929 1.406-1.177 3.234-1.766 5.484-1.766zM343.724 683.011c2.197 0 3.885-.782 5.063-2.347 1.177-1.564 1.766-3.788 1.766-6.671 0-2.883-.589-5.097-1.766-6.644-1.178-1.565-2.866-2.347-5.063-2.347-2.197 0-3.893.782-5.089 2.347-1.177 1.547-1.766 3.761-1.766 6.644s.589 5.107 1.766 6.671c1.196 1.565 2.892 2.347 5.089 2.347zm14.713-9.018c0 4.219-1.213 7.831-3.639 10.837-2.425 2.988-6.108 4.483-11.048 4.483-4.939 0-8.622-1.495-11.047-4.483-2.426-3.006-3.639-6.618-3.639-10.837 0-4.148 1.213-7.743 3.639-10.784 2.425-3.041 6.108-4.561 11.047-4.561 4.94 0 8.623 1.52 11.048 4.561 2.426 3.041 3.639 6.636 3.639 10.784zM374.442 649.05c.475 0 .905.018 1.292.053.387.017.914.052 1.582.105v6.117c-.422-.052-1.134-.088-2.136-.105-.984-.035-1.67.184-2.056.659a2.37 2.37 0 0 0-.554 1.529v2.426h4.93v5.3h-4.93v23.177h-7.488v-23.177h-4.193v-5.3h4.113v-1.846c0-3.076.519-5.194 1.556-6.354 1.09-1.723 3.718-2.584 7.884-2.584zM389.55 656.143h-7.62v-6.935h7.62v6.935zm-7.62 3.427h7.62v28.741h-7.62V659.57zM412.78 658.885c2.97 0 5.396.782 7.277 2.347 1.899 1.546 2.848 4.122 2.848 7.725v19.354h-7.699v-17.482c0-1.511-.203-2.672-.607-3.48-.738-1.477-2.144-2.215-4.219-2.215-2.548 0-4.297 1.081-5.247 3.243-.492 1.143-.738 2.602-.738 4.377v15.557h-7.488v-28.688h7.251v4.193c.967-1.477 1.881-2.54 2.742-3.191 1.547-1.16 3.507-1.74 5.88-1.74zM445.712 674.336a8.615 8.615 0 0 1-1.45.738c-.474.176-1.134.343-1.977.501l-1.688.317c-1.582.281-2.716.624-3.401 1.028-1.16.686-1.74 1.749-1.74 3.19 0 1.284.351 2.215 1.054 2.795.721.563 1.591.844 2.611.844 1.617 0 3.102-.474 4.456-1.424 1.371-.949 2.083-2.68 2.135-5.194v-2.795zm-4.561-3.507c1.389-.176 2.382-.395 2.979-.659 1.073-.457 1.609-1.169 1.609-2.136 0-1.177-.413-1.986-1.239-2.425-.809-.458-2.004-.686-3.586-.686-1.776 0-3.033.439-3.771 1.318-.527.651-.879 1.53-1.055 2.637h-7.251c.159-2.514.862-4.579 2.11-6.196 1.986-2.531 5.396-3.797 10.23-3.797 3.147 0 5.942.624 8.385 1.872 2.443 1.248 3.665 3.603 3.665 7.066v13.184c0 .914.018 2.021.053 3.322.053.985.202 1.653.448 2.004.246.352.615.642 1.107.87v1.108h-8.173a8.343 8.343 0 0 1-.475-1.635 19.79 19.79 0 0 1-.211-1.74 15.427 15.427 0 0 1-3.586 2.874c-1.617.931-3.445 1.397-5.484 1.397-2.602 0-4.755-.738-6.46-2.215-1.688-1.494-2.531-3.603-2.531-6.328 0-3.533 1.362-6.091 4.086-7.673 1.495-.861 3.692-1.476 6.592-1.845l2.558-.317zM475.85 658.885c2.971 0 5.397.782 7.277 2.347 1.899 1.546 2.848 4.122 2.848 7.725v19.354h-7.699v-17.482c0-1.511-.202-2.672-.607-3.48-.738-1.477-2.144-2.215-4.218-2.215-2.549 0-4.298 1.081-5.247 3.243-.493 1.143-.739 2.602-.739 4.377v15.557h-7.488v-28.688h7.251v4.193c.967-1.477 1.881-2.54 2.742-3.191 1.547-1.16 3.507-1.74 5.88-1.74zM510.101 669.88a6.673 6.673 0 0 0-1.081-2.9c-.844-1.161-2.153-1.741-3.929-1.741-2.531 0-4.262 1.257-5.194 3.771-.492 1.336-.738 3.111-.738 5.326 0 2.109.246 3.806.738 5.089.896 2.391 2.584 3.586 5.062 3.586 1.758 0 3.006-.475 3.745-1.424.738-.949 1.186-2.18 1.344-3.691h7.673c-.176 2.285-1.002 4.447-2.478 6.486-2.356 3.287-5.845 4.931-10.468 4.931s-8.025-1.371-10.204-4.114c-2.18-2.742-3.27-6.301-3.27-10.678 0-4.94 1.204-8.781 3.613-11.523 2.408-2.742 5.73-4.113 9.966-4.113 3.604 0 6.548.808 8.833 2.426 2.303 1.617 3.665 4.473 4.087 8.569h-7.699zM534.333 665.002c-1.741 0-3.094.545-4.061 1.635-.949 1.09-1.547 2.566-1.793 4.43h11.681c-.123-1.987-.73-3.49-1.82-4.509-1.072-1.037-2.408-1.556-4.007-1.556zm0-6.196c2.39 0 4.543.448 6.459 1.345 1.916.896 3.499 2.311 4.747 4.245 1.125 1.705 1.854 3.682 2.188 5.932.193 1.319.273 3.217.237 5.696h-19.67c.106 2.882 1.011 4.904 2.716 6.064 1.037.721 2.285 1.081 3.744 1.081 1.547 0 2.804-.439 3.771-1.318.527-.475.993-1.134 1.397-1.978h7.673c-.193 1.705-1.081 3.437-2.663 5.195-2.461 2.794-5.906 4.192-10.336 4.192-3.656 0-6.882-1.178-9.677-3.533-2.794-2.356-4.192-6.188-4.192-11.496 0-4.975 1.257-8.789 3.771-11.444 2.531-2.654 5.809-3.981 9.835-3.981zM576.573 656.195v8.57h9.545c1.705 0 3.085-.317 4.139-.949 1.073-.651 1.609-1.793 1.609-3.428 0-1.811-.703-3.006-2.11-3.586-1.213-.404-2.759-.607-4.64-.607h-8.543zm0 15.003v10.363h9.545c1.705 0 3.032-.229 3.981-.686 1.723-.844 2.584-2.461 2.584-4.851 0-2.022-.835-3.411-2.505-4.166-.931-.422-2.241-.642-3.928-.66h-9.677zm11.127-21.753c4.763.071 8.138 1.451 10.125 4.14 1.195 1.652 1.793 3.63 1.793 5.933 0 2.373-.598 4.28-1.793 5.721-.668.809-1.653 1.547-2.953 2.215 1.986.721 3.48 1.864 4.482 3.428 1.02 1.564 1.529 3.463 1.529 5.695 0 2.303-.58 4.368-1.74 6.197a10.747 10.747 0 0 1-2.768 3.058c-1.249.949-2.725 1.6-4.43 1.951-1.688.352-3.525.528-5.511.528h-17.613v-38.866H587.7zM622.953 674.336a8.624 8.624 0 0 1-1.451.738c-.474.176-1.133.343-1.977.501l-1.688.317c-1.582.281-2.715.624-3.401 1.028-1.16.686-1.74 1.749-1.74 3.19 0 1.284.351 2.215 1.054 2.795.721.563 1.591.844 2.611.844 1.617 0 3.102-.474 4.456-1.424 1.371-.949 2.083-2.68 2.136-5.194v-2.795zm-4.562-3.507c1.389-.176 2.382-.395 2.98-.659 1.072-.457 1.608-1.169 1.608-2.136 0-1.177-.413-1.986-1.239-2.425-.809-.458-2.004-.686-3.586-.686-1.776 0-3.032.439-3.771 1.318-.527.651-.879 1.53-1.054 2.637h-7.251c.158-2.514.861-4.579 2.109-6.196 1.986-2.531 5.396-3.797 10.23-3.797 3.147 0 5.942.624 8.385 1.872 2.444 1.248 3.665 3.603 3.665 7.066v13.184c0 .914.018 2.021.053 3.322.053.985.202 1.653.448 2.004.246.352.615.642 1.108.87v1.108h-8.174a8.343 8.343 0 0 1-.475-1.635 19.79 19.79 0 0 1-.211-1.74 15.427 15.427 0 0 1-3.586 2.874c-1.617.931-3.445 1.397-5.484 1.397-2.602 0-4.755-.738-6.46-2.215-1.687-1.494-2.531-3.603-2.531-6.328 0-3.533 1.362-6.091 4.087-7.673 1.494-.861 3.691-1.476 6.591-1.845l2.558-.317zM653.09 658.885c2.971 0 5.397.782 7.278 2.347 1.898 1.546 2.847 4.122 2.847 7.725v19.354h-7.699v-17.482c0-1.511-.202-2.672-.606-3.48-.739-1.477-2.145-2.215-4.219-2.215-2.549 0-4.298 1.081-5.247 3.243-.492 1.143-.738 2.602-.738 4.377v15.557h-7.489v-28.688h7.251v4.193c.967-1.477 1.881-2.54 2.742-3.191 1.547-1.16 3.507-1.74 5.88-1.74zM670.097 649.577h7.383v20.936l9.36-10.811h9.308l-10.046 10.995 10.441 17.614h-9.07l-6.882-12.287-3.111 3.243v9.044h-7.383v-38.734z" fill="#69BC97"/></svg>