<svg viewBox="0 0 83 69" xmlns="http://www.w3.org/2000/svg" fill-rule="evenodd" clip-rule="evenodd" stroke-linejoin="round" stroke-miterlimit="1.414"><path d="M14.907 10.3A40.609 40.609 0 0 0 10.3 29.001c0 22.224 18.023 40.248 40.248 40.248 11.248 0 21.547-4.472 29.271-12.603l-3.388-3.117c-6.776 7.182-15.991 11.112-25.883 11.112-19.65 0-35.641-15.99-35.641-35.64 0-5.827 1.356-11.519 4.066-16.533L14.907 10.3z" fill="url(#_Linear1)" fill-rule="nonzero" transform="matrix(.76839 0 0 -.76839 2.814 64.027)"/><path d="M13.355 5.3C8.054 13.187 5.2 22.299 5.2 31.818 5.336 57.792 26.404 78.87 52.5 78.87a47.289 47.289 0 0 0 38.602-19.99l-3.806-2.72A42.54 42.54 0 0 1 52.5 74.246c-23.514 0-42.543-19.038-42.543-42.564 0-8.567 2.583-16.863 7.34-23.934L13.355 5.3z" fill="url(#_Linear2)" fill-rule="nonzero" transform="matrix(.76839 0 0 -.76839 1.423 66.121)"/><path d="M12.635 0C4.483 9.785 0 22.153 0 34.792c0 29.899 24.318 54.362 54.343 54.362 19.97 0 38.175-10.872 47.685-28.404l-4.076-2.175a49.542 49.542 0 0 1-43.609 25.958c-27.443 0-49.724-22.288-49.724-49.741 0-11.688 4.076-22.968 11.548-31.802L12.635 0z" fill="url(#_Linear3)" fill-rule="nonzero" transform="matrix(.76839 0 0 -.76839 .004 68.505)"/><path d="M30.502 34.184v2.708h-1.77v9.58h-2.916v-9.58h-1.458v-2.708h1.458v-2.187c.417.834 2.082 1.042 2.916 2.187h1.77zM40.186 46.472v-6.248c0-1.77-.312-3.748-2.499-3.748-2.187 0-2.5 2.082-2.5 3.748v6.248h-2.915V30.123h2.916v4.894c.937-.833 1.978-1.25 3.124-1.25 1.77 0 3.54 1.042 4.27 2.604.416.938.52 2.082.52 3.124v6.977h-2.916zM47.996 39.599v6.872h-3.02V34.184h2.707v1.146c.73-1.042 1.354-1.562 2.708-1.562h.208v2.811c-1.874.105-2.603 1.146-2.603 3.02zM52.16 32.831v-2.708h2.916v2.708h-2.915zm0 13.64V34.185h2.916v12.288h-2.915zM63.823 46.576h-2.29l-4.999-12.288h3.228l3.02 8.122 2.812-8.122h3.228l-4.999 12.288zM76.11 33.664c-.729 0-1.457.104-2.082.312-2.603.937-4.374 3.436-4.374 6.352 0 3.228 2.29 5.831 5.31 6.456 1.666-.73 3.02-1.979 3.75-3.853 0-.104-.105-.104-.105 0-.625.833-1.458 1.25-2.499 1.25-1.562 0-2.916-1.146-3.228-2.604h9.58c.104-.52.208-.937.208-1.457-.208-3.437-3.02-6.456-6.56-6.456zm-3.436 5.623c.416-1.666 1.77-2.916 3.54-2.916.73 0 1.354.209 1.875.52.728.521 1.353 1.354 1.561 2.291h-6.976v.105z" fill-rule="nonzero"/><path d="M80.944 46.356c-.949-3.252-4.337-5.556-7.724-5.556-.407 0-.813 0-1.22.136.271.135.542.135.813.271 1.762.813 2.981 2.032 3.794 3.794.407.949 1.356 1.355 2.304 1.355h2.033z" fill="url(#_Linear4)" fill-rule="nonzero" transform="matrix(.76839 0 0 -.76839 19.85 78.238)"/><path d="M28.43 30.175V26.11c-1.084 1.491-3.388 1.762-3.794 2.846-.136.135-.136.271-.136.542v3.93c1.355.406 3.93-1.22 3.93-3.253z" fill="url(#_Linear5)" fill-rule="nonzero" transform="matrix(.76839 0 0 -.76839 6.887 53.414)"/><path d="M58.721 53.656v-.728c-.208.208-.313.416-.52.52a2.883 2.883 0 0 1-1.355.313c-1.457 0-2.498-1.146-2.498-2.604 0-1.457 1.04-2.603 2.603-2.603.625 0 1.457.313 1.77.833v-.728h.833v4.894h-.833v.103zm-1.77-4.164c-.938 0-1.666.833-1.666 1.77s.728 1.77 1.666 1.77c.937 0 1.666-.833 1.666-1.77.104-.937-.625-1.77-1.666-1.77zM63.094 55.635c-.729 0-1.25-.209-1.77-.73-.313-.311-.416-.416-.625-.832h1.042c.312.52.833.729 1.457.729 1.041 0 1.77-.625 1.77-1.666v-.105a2.224 2.224 0 0 1-1.77.833 2.578 2.578 0 0 1-2.603-2.603c0-1.458 1.25-2.602 2.707-2.602.73 0 1.25.208 1.77.728v-.625h.73v4.374c0 1.561-1.25 2.499-2.708 2.499zm0-6.144c-.937 0-1.77.833-1.77 1.77s.729 1.77 1.666 1.77c1.041 0 1.77-.833 1.77-1.874.104-.937-.729-1.666-1.666-1.666zM67.884 51.054v2.707h-.937v-4.894h.937v.416c.312-.416.729-.52 1.25-.52v.937c-.938 0-1.25.416-1.25 1.354zM69.863 48.242V47.2h.937v1.04h-.937zm0 5.415v-4.894h.937v4.894h-.937zM74.131 53.864c-1.457 0-2.498-1.145-2.498-2.603 0-1.458 1.04-2.603 2.498-2.603 1.042 0 2.187.729 2.396 1.77h-1.042c-.312-.625-.729-.937-1.354-.937-.936 0-1.665.833-1.665 1.77 0 .938.624 1.77 1.562 1.77.624 0 1.145-.416 1.457-.937h1.042a2.468 2.468 0 0 1-2.396 1.77z" fill="#48a64c" fill-rule="nonzero"/><defs><linearGradient id="_Linear1" x2="1" gradientUnits="userSpaceOnUse" gradientTransform="scale(125.3413 -125.3413) rotate(-7.663 -1.958 2.285)"><stop offset="0" stop-color="#9acb55"/><stop offset="1" stop-color="#0d9a49"/></linearGradient><linearGradient id="_Linear2" x2="1" gradientUnits="userSpaceOnUse" gradientTransform="scale(125.7178 -125.7178) rotate(-7.667 -2.092 2.166)"><stop offset="0" stop-color="#9acb55"/><stop offset="1" stop-color="#0d9a49"/></linearGradient><linearGradient id="_Linear3" x2="1" gradientUnits="userSpaceOnUse" gradientTransform="scale(125.658 -125.658) rotate(-7.666 -2.247 2.041)"><stop offset="0" stop-color="#9acb55"/><stop offset="1" stop-color="#0d9a49"/></linearGradient><linearGradient id="_Linear4" x2="1" gradientUnits="userSpaceOnUse" gradientTransform="matrix(8.92539 0 0 -8.92539 71.964 43.554)"><stop offset="0" stop-color="#9acb55"/><stop offset="1" stop-color="#0d9a49"/></linearGradient><linearGradient id="_Linear5" x2="1" gradientUnits="userSpaceOnUse" gradientTransform="matrix(3.97857 0 0 -3.97857 24.44 29.795)"><stop offset="0" stop-color="#9acb55"/><stop offset="1" stop-color="#0d9a49"/></linearGradient></defs></svg>