<?xml version="1.0" encoding="UTF-8" standalone="no"?>
<!DOCTYPE svg PUBLIC "-//W3C//DTD SVG 1.1//EN" "http://www.w3.org/Graphics/SVG/1.1/DTD/svg11.dtd">
<svg width="100%" height="100%" viewBox="0 0 83 69" version="1.1" xmlns="http://www.w3.org/2000/svg" xmlns:xlink="http://www.w3.org/1999/xlink" xml:space="preserve" xmlns:serif="http://www.serif.com/" style="fill-rule:evenodd;clip-rule:evenodd;stroke-linejoin:round;stroke-miterlimit:1.41421;">
    <g transform="matrix(0.666667,0,0,0.666667,-3069.33,-90)">
        <g transform="matrix(0.996026,0,0,1.52497,3590.34,0)">
            <g transform="matrix(0.488995,0,0,0.488995,843.04,43.148)">
                <g transform="matrix(2.36645,0,0,-1.54563,365.843,221.591)">
                    <path d="M14.907,10.3C11.926,15.992 10.3,22.496 10.3,29.001C10.3,51.225 28.323,69.249 50.548,69.249C61.796,69.249 72.095,64.777 79.819,56.646L76.431,53.529C69.655,60.711 60.44,64.641 50.548,64.641C30.898,64.641 14.907,48.651 14.907,29.001C14.907,23.174 16.263,17.482 18.973,12.468L14.907,10.3Z" style="fill:url(#_Linear1);fill-rule:nonzero;"/>
                </g>
                <g transform="matrix(2.36645,0,0,-1.54563,361.557,225.804)">
                    <path d="M13.355,5.3C8.054,13.187 5.2,22.299 5.2,31.818C5.336,57.792 26.404,78.87 52.5,78.87C67.859,78.87 82.267,71.391 91.102,58.88L87.296,56.16C79.277,67.583 66.228,74.246 52.5,74.246C28.986,74.246 9.957,55.208 9.957,31.682C9.957,23.115 12.54,14.819 17.297,7.748L13.355,5.3Z" style="fill:url(#_Linear2);fill-rule:nonzero;"/>
                </g>
                <g transform="matrix(2.36645,0,0,-1.54563,357.187,230.598)">
                    <path d="M12.635,0C4.483,9.785 0,22.153 0,34.792C0,64.691 24.318,89.154 54.343,89.154C74.313,89.154 92.518,78.282 102.028,60.75L97.952,58.575C89.258,74.612 72.547,84.533 54.343,84.533C26.9,84.533 4.619,62.245 4.619,34.792C4.619,23.104 8.695,11.824 16.167,2.99L12.635,0Z" style="fill:url(#_Linear3);fill-rule:nonzero;"/>
                </g>
                <g transform="matrix(2.36645,0,0,-1.54563,377.292,233.574)">
                    <path d="M31.195,46.591L31.195,43.067L28.892,43.067L28.892,30.6L25.097,30.6L25.097,43.067L23.2,43.067L23.2,46.591L25.097,46.591L25.097,49.437C25.639,48.352 27.807,48.081 28.892,46.591L31.195,46.591Z" style="fill-rule:nonzero;"/>
                </g>
                <g transform="matrix(2.36645,0,0,-1.54563,383.68,230.792)">
                    <path d="M41.099,28.8L41.099,36.931C41.099,39.235 40.693,41.809 37.847,41.809C35.001,41.809 34.594,39.099 34.594,36.931L34.594,28.8L30.8,28.8L30.8,50.076L34.594,50.076L34.594,43.707C35.814,44.791 37.169,45.333 38.66,45.333C40.964,45.333 43.267,43.978 44.216,41.945C44.758,40.725 44.894,39.235 44.894,37.879L44.894,28.8L41.099,28.8Z" style="fill-rule:nonzero;"/>
                </g>
                <g transform="matrix(2.36645,0,0,-1.54563,393.933,236.201)">
                    <path d="M46.93,41.244L46.93,32.3L43,32.3L43,48.291L46.523,48.291L46.523,46.8C47.472,48.155 48.285,48.833 50.047,48.833C50.182,48.833 50.182,48.833 50.318,48.833L50.318,45.174C47.879,45.038 46.93,43.683 46.93,41.244Z" style="fill-rule:nonzero;"/>
                </g>
                <g transform="matrix(2.36645,0,0,-1.54563,399.732,230.792)">
                    <path d="M49.9,46.552L49.9,50.076L53.694,50.076L53.694,46.552L49.9,46.552ZM49.9,28.8L49.9,44.791L53.694,44.791L53.694,28.8L49.9,28.8Z" style="fill-rule:nonzero;"/>
                </g>
                <g transform="matrix(2.36645,0,0,-1.54563,403.262,237.184)">
                    <path d="M63.586,32.8L60.605,32.8L54.1,48.791L58.301,48.791L62.231,38.221L65.89,48.791L70.091,48.791L63.586,32.8Z" style="fill-rule:nonzero;"/>
                </g>
                <g transform="matrix(2.36645,0,0,-1.54563,413.851,236.675)">
                    <path d="M75.102,49.275C74.153,49.275 73.205,49.139 72.392,48.868C69.004,47.649 66.7,44.396 66.7,40.602C66.7,36.401 69.681,33.013 73.611,32.2C75.779,33.149 77.541,34.775 78.49,37.214C78.49,37.35 78.354,37.35 78.354,37.214C77.541,36.13 76.457,35.588 75.102,35.588C73.069,35.588 71.307,37.079 70.901,38.976L83.368,38.976C83.504,39.653 83.639,40.195 83.639,40.873C83.368,45.345 79.709,49.275 75.102,49.275ZM70.63,41.957C71.172,44.125 72.934,45.751 75.237,45.751C76.186,45.751 76.999,45.48 77.677,45.074C78.625,44.396 79.438,43.312 79.709,42.093L70.63,42.093L70.63,41.957Z" style="fill-rule:nonzero;"/>
                </g>
                <g transform="matrix(2.36645,0,0,-1.54563,418.306,250.177)">
                    <path d="M80.944,46.356C79.995,43.104 76.607,40.8 73.22,40.8C72.813,40.8 72.407,40.8 72,40.936C72.271,41.071 72.542,41.071 72.813,41.207C74.575,42.02 75.794,43.239 76.607,45.001C77.014,45.95 77.963,46.356 78.911,46.356L80.944,46.356Z" style="fill:url(#_Linear4);fill-rule:nonzero;"/>
                </g>
                <g transform="matrix(2.36645,0,0,-1.54563,378.385,200.243)">
                    <path d="M28.43,30.175L28.43,26.11C27.346,27.601 25.042,27.872 24.636,28.956C24.5,29.091 24.5,29.227 24.5,29.498L24.5,33.428C25.855,33.834 28.43,32.208 28.43,30.175Z" style="fill:url(#_Linear5);fill-rule:nonzero;"/>
                </g>
                <g transform="matrix(2.36645,0,0,-1.54563,401.497,272.812)">
                    <path d="M57.692,46.636L57.692,47.584C57.421,47.313 57.285,47.042 57.014,46.907C56.472,46.636 55.93,46.5 55.252,46.5C53.355,46.5 52,47.991 52,49.888C52,51.785 53.355,53.276 55.388,53.276C56.201,53.276 57.285,52.869 57.692,52.192L57.692,53.14L58.776,53.14L58.776,46.771L57.692,46.771L57.692,46.636ZM55.388,52.056C54.168,52.056 53.22,50.972 53.22,49.752C53.22,48.533 54.168,47.449 55.388,47.449C56.608,47.449 57.556,48.533 57.556,49.752C57.692,50.972 56.743,52.056 55.388,52.056Z" style="fill:rgb(72,166,76);fill-rule:nonzero;"/>
                </g>
                <g transform="matrix(2.36645,0,0,-1.54563,406.539,276.736)">
                    <path d="M61.252,46.6C60.304,46.6 59.626,46.871 58.949,47.549C58.542,47.955 58.407,48.091 58.136,48.633L59.491,48.633C59.897,47.955 60.575,47.684 61.388,47.684C62.743,47.684 63.692,48.497 63.692,49.852L63.692,49.988C63.15,49.31 62.336,48.904 61.388,48.904C59.491,48.904 58,50.394 58,52.292C58,54.189 59.626,55.679 61.523,55.679C62.472,55.679 63.15,55.408 63.827,54.731L63.827,55.544L64.776,55.544L64.776,49.852C64.776,47.82 63.15,46.6 61.252,46.6ZM61.252,54.595C60.033,54.595 58.949,53.511 58.949,52.292C58.949,51.072 59.897,49.988 61.117,49.988C62.472,49.988 63.421,51.072 63.421,52.427C63.556,53.647 62.472,54.595 61.252,54.595Z" style="fill:rgb(72,166,76);fill-rule:nonzero;"/>
                </g>
                <g transform="matrix(2.36645,0,0,-1.54563,411.666,273.121)">
                    <path d="M65.32,50.223L65.32,46.7L64.1,46.7L64.1,53.069L65.32,53.069L65.32,52.527C65.726,53.069 66.268,53.205 66.946,53.205L66.946,51.985C65.726,51.985 65.32,51.443 65.32,50.223Z" style="fill:rgb(72,166,76);fill-rule:nonzero;"/>
                </g>
                <g transform="matrix(2.36645,0,0,-1.54563,414.02,270.593)">
                    <path d="M66.9,52.247L66.9,53.602L68.12,53.602L68.12,52.247L66.9,52.247ZM66.9,45.2L66.9,51.569L68.12,51.569L68.12,45.2L66.9,45.2Z" style="fill:rgb(72,166,76);fill-rule:nonzero;"/>
                </g>
                <g transform="matrix(2.36645,0,0,-1.54563,415.448,273.175)">
                    <path d="M71.852,46.6C69.955,46.6 68.6,48.091 68.6,49.988C68.6,51.885 69.955,53.376 71.852,53.376C73.207,53.376 74.698,52.427 74.969,51.072L73.614,51.072C73.207,51.885 72.665,52.292 71.852,52.292C70.633,52.292 69.684,51.207 69.684,49.988C69.684,48.768 70.497,47.684 71.717,47.684C72.53,47.684 73.207,48.226 73.614,48.904L74.969,48.904C74.563,47.549 73.343,46.6 71.852,46.6Z" style="fill:rgb(72,166,76);fill-rule:nonzero;"/>
                </g>
            </g>
        </g>
    </g>
    <defs>
        <linearGradient id="_Linear1" x1="0" y1="0" x2="1" y2="0" gradientUnits="userSpaceOnUse" gradientTransform="matrix(124.222,16.7136,16.7136,-124.222,-40.3787,30.1616)"><stop offset="0" style="stop-color:rgb(154,203,85);stop-opacity:1"/><stop offset="1" style="stop-color:rgb(13,154,73);stop-opacity:1"/></linearGradient>
        <linearGradient id="_Linear2" x1="0" y1="0" x2="1" y2="0" gradientUnits="userSpaceOnUse" gradientTransform="matrix(124.594,16.7719,16.7719,-124.594,-38.6725,32.6527)"><stop offset="0" style="stop-color:rgb(154,203,85);stop-opacity:1"/><stop offset="1" style="stop-color:rgb(13,154,73);stop-opacity:1"/></linearGradient>
        <linearGradient id="_Linear3" x1="0" y1="0" x2="1" y2="0" gradientUnits="userSpaceOnUse" gradientTransform="matrix(124.535,16.7617,16.7617,-124.535,-36.7347,35.3713)"><stop offset="0" style="stop-color:rgb(154,203,85);stop-opacity:1"/><stop offset="1" style="stop-color:rgb(13,154,73);stop-opacity:1"/></linearGradient>
        <linearGradient id="_Linear4" x1="0" y1="0" x2="1" y2="0" gradientUnits="userSpaceOnUse" gradientTransform="matrix(8.92539,0,0,-8.92539,71.964,43.5543)"><stop offset="0" style="stop-color:rgb(154,203,85);stop-opacity:1"/><stop offset="1" style="stop-color:rgb(13,154,73);stop-opacity:1"/></linearGradient>
        <linearGradient id="_Linear5" x1="0" y1="0" x2="1" y2="0" gradientUnits="userSpaceOnUse" gradientTransform="matrix(3.97857,0,0,-3.97857,24.4396,29.7948)"><stop offset="0" style="stop-color:rgb(154,203,85);stop-opacity:1"/><stop offset="1" style="stop-color:rgb(13,154,73);stop-opacity:1"/></linearGradient>
    </defs>
</svg>
