<svg id="Layer_1" data-name="Layer 1" xmlns="http://www.w3.org/2000/svg" viewBox="0 0 901.51 171.8"><defs><style>.cls-1{fill:#060606}.cls-2{fill:#070707}</style></defs><path class="cls-1" d="M417.68 506.49v20.66c-.92.36-1.92 1.1-2.92 1.09-20.15-.16-40.35.52-60.42-.87-27.89-1.92-49.27-25.79-50.23-54.13-.93-27.76 19.74-52.78 47.18-57a62.93 62.93 0 0 1 9.31-.87c18.71-.08 37.42 0 56.73 0v21.79c-17.65 0-35.43-.15-53.21 0-15 .16-27 5.92-33.64 20.2-9.65 20.68 2.57 44.8 25.18 47.84 12.57 1.69 25.47 1 38.22 1.28 7.66.14 15.32.01 23.8.01zM668.57 415.14v21.94c-5.84 0-11.67-.11-17.49 0-15.29.36-30.75-.46-45.81 1.59-17.1 2.33-27.87 17.59-27.24 34.78a33 33 0 0 0 29.74 32c11.81 1.18 23.79.83 35.69 1 8.16.13 16.32 0 24.86 0v23c-24.14-1.16-48.44-.1-71.9-4.05-25.74-4.34-42.81-30.27-41.28-56 1.66-27.93 21.22-49.66 48.24-53.41a103 103 0 0 1 13.57-.84c16.97-.06 33.93-.01 51.62-.01zM292.2 415.81v21.27c-15.45 0-30.94-.14-46.42.07-6.2.09-12.53.29-18.55 1.61-15.58 3.43-26.44 18.48-25.66 34.61s13 30.35 28.87 31.92c12.66 1.25 25.48.93 38.23 1.17 7.61.14 15.22 0 23.27 0v21.92c-5.81 0-11.61.06-17.42 0-14.75-.2-29.54.27-44.22-.84a55 55 0 0 1-51.3-53.75c-.79-29.66 19.48-54.94 48.88-57.61 21.03-1.91 42.38-.37 64.32-.37z" transform="translate(-53.89 -415.13)"/><path class="cls-2" d="M909 510v17.9h-22v-16.59c-8.36-4.51-16.26-7.83-23.1-12.66a51.33 51.33 0 0 1-22.38-40.2c-.84-14.06-.17-28.21-.17-42.82h22.91c0 13.52-.48 26.77.13 40 .7 15.13 9.05 25.49 23.08 30.52 22.42 8 44-9.16 44.63-35.38.29-11.58 0-23.17 0-35.19h23.3c-.85 17.58.25 35.34-3 52.26C948.06 490.39 931.26 503 909 510z" transform="translate(-53.89 -415.13)"/><path d="M760.88 437.31H716.3v-21.68h112.5V437h-44.64v91h-23.28z" transform="translate(-53.89 -415.13)" fill="#090909"/><path d="M166.82 437.11h-45.06V528H99.11v-90.7H53.89v-21.8h112.93z" transform="translate(-53.89 -415.13)" fill="#050505"/><path d="M452.27 482.61v45.21h-22.19V415.63h22.06v44.77h54.27v22.2z" transform="translate(-53.89 -415.13)" fill="#030303"/><path d="M543.14 528.07h-22V415.65h22z" transform="translate(-53.89 -415.13)" fill="#0f0f0f"/><path class="cls-1" d="M702.79 528H681V415.75h21.83z" transform="translate(-53.89 -415.13)"/><path class="cls-2" d="M233.67 482.19c-.15-1.94-.37-3.59-.39-5.24v-15.61h58.81v20.85z" transform="translate(-53.89 -415.13)"/><path d="M587.14 586.92c-8.75-.28-15.93-7.37-15.79-15.58.16-8.8 8.2-15.66 17.92-15.28 8.51.33 15.76 7.9 15.37 16.06-.41 8.59-8.11 15.1-17.5 14.8z" transform="translate(-53.89 -415.13)" fill="#d9a80d"/><path d="M520.5 571.56c-.09 8.74-7.45 15.49-16.71 15.33s-16.39-7.13-16.17-15.89c.21-8.13 7.62-15 16.29-15 9.09-.09 16.67 7 16.59 15.56z" transform="translate(-53.89 -415.13)" fill="#18b2d3"/><path d="M420.09 556.1c10 .18 15.9 6.17 15.69 16-.19 9.13-6.34 14.78-16.09 14.77-9.18 0-16.35-7.19-16-16 .31-8.5 7.45-14.93 16.4-14.77z" transform="translate(-53.89 -415.13)" fill="#86b203"/></svg>