<svg xmlns="http://www.w3.org/2000/svg" data-name="Layer 1" viewBox="0 0 1849.1 544.09"><path d="M272.05 0C121.8 0 0 121.8 0 272.05s121.8 272 272.05 272 272-121.8 272-272S422.29 0 272.05 0Zm75.31 389a116.37 116.37 0 0 1-66-20.38 128.94 128.94 0 0 0 25.13-29.87A78.23 78.23 0 1 0 294 214.86v17.25l.34-.47v104.88l-.34.48v.43h-.3a117 117 0 1 1-31-162 129.55 129.55 0 0 0-25.12 29.86A78.24 78.24 0 1 0 255.25 324V200a117 117 0 1 1 92.11 189ZM695.17 273.5a90 90 0 0 1-33.25-6.17 82.37 82.37 0 0 1-27.43-17.58 83.51 83.51 0 0 1-18.64-27.55Q609 206.06 609 185.86t7-36.45a82.73 82.73 0 0 1 46.31-45.25A87.22 87.22 0 0 1 694.7 98q17.34 0 30.76 4.87a73.83 73.83 0 0 1 22.8 12.82 69.55 69.55 0 0 1 15.2 17.93 79.56 79.56 0 0 1 8.43 20.19L741 163.54a50.34 50.34 0 0 0-4.75-12.11 38.05 38.05 0 0 0-8.9-10.93 46.83 46.83 0 0 0-13.66-7.84 56.29 56.29 0 0 0-37.76.36 49.34 49.34 0 0 0-16.63 10.33 50.51 50.51 0 0 0-11.87 17.58q-4.52 10.68-4.52 24.93a60.51 60.51 0 0 0 4.4 23.87A52 52 0 0 0 659 227.07a49.69 49.69 0 0 0 16.62 10.69 53 53 0 0 0 19.59 3.68 51.57 51.57 0 0 0 18.89-3.21A46.67 46.67 0 0 0 728 230a45.05 45.05 0 0 0 9.26-11 50.6 50.6 0 0 0 5.23-12l30.63 9.26a75.62 75.62 0 0 1-8.19 19.84 71.42 71.42 0 0 1-15.44 18.4 80.08 80.08 0 0 1-23 13.66q-13.49 5.34-31.32 5.34ZM906.55 269.94v-69.83h-73.39v69.83h-32.78V101.55h32.78v67.69h73.39v-67.69h33v168.39ZM978 269.94V101.55h105.45v30.88h-72.67v38.47h65.79v29.21h-65.79v38.95h72.67v30.88ZM1192 273.5a90 90 0 0 1-33.25-6.17 82.27 82.27 0 0 1-27.43-17.58 83.38 83.38 0 0 1-18.65-27.55q-6.89-16.14-6.89-36.34t7-36.45a82.73 82.73 0 0 1 46.31-45.25 87.22 87.22 0 0 1 32.45-6.16q17.34 0 30.76 4.87a73.83 73.83 0 0 1 22.8 12.82 69.35 69.35 0 0 1 15.2 17.93 78.84 78.84 0 0 1 8.43 20.19l-30.88 9.74a49.93 49.93 0 0 0-4.75-12.11 37.73 37.73 0 0 0-8.9-10.93 46.7 46.7 0 0 0-13.66-7.84 56.29 56.29 0 0 0-37.76.36 49.34 49.34 0 0 0-16.63 10.33 50.79 50.79 0 0 0-11.87 17.58q-4.52 10.68-4.51 24.93a60.51 60.51 0 0 0 4.39 23.87 52.14 52.14 0 0 0 11.64 17.34 49.89 49.89 0 0 0 16.62 10.69 53.09 53.09 0 0 0 19.6 3.68 51.52 51.52 0 0 0 18.88-3.21 46.67 46.67 0 0 0 13.89-8.19 45.05 45.05 0 0 0 9.26-11 50.6 50.6 0 0 0 5.23-12l30.64 9.26a76 76 0 0 1-8.2 19.84 71.58 71.58 0 0 1-15.43 18.4 80.28 80.28 0 0 1-23 13.66q-13.47 5.29-31.29 5.29ZM1350.9 200.11l-20.9 23v46.79h-32.77V101.55H1330v76.24l67.45-76.24h43l-66.74 73.39 67.22 95h-41.09ZM1521.66 269.94V101.55H1582a94 94 0 0 1 33.25 5.7 74.26 74.26 0 0 1 26.24 16.51 76.23 76.23 0 0 1 17.34 26.48q6.29 15.67 6.29 35.62t-6.29 35.63a74.21 74.21 0 0 1-17.46 26.36 76.38 76.38 0 0 1-26.37 16.39 94 94 0 0 1-33.25 5.7Zm58.9-30.4a59.09 59.09 0 0 0 19.48-3.21 43.33 43.33 0 0 0 16.15-9.85 47.19 47.19 0 0 0 10.92-16.75q4-10.08 4-23.87t-4-23.86a48.25 48.25 0 0 0-10.8-16.75 43.66 43.66 0 0 0-16-10 57.17 57.17 0 0 0-19.51-3.25h-26.36v107.54ZM1769.85 273.5a90 90 0 0 1-33.25-6.17 82.37 82.37 0 0 1-27.43-17.58 83.35 83.35 0 0 1-18.64-27.55q-6.9-16.14-6.89-36.34t7-36.45a82.73 82.73 0 0 1 46.36-45.25 87.18 87.18 0 0 1 32.38-6.16q17.32 0 30.75 4.87a73.6 73.6 0 0 1 22.8 12.82 69.16 69.16 0 0 1 15.2 17.93 78.84 78.84 0 0 1 8.43 20.19l-30.87 9.74a50.34 50.34 0 0 0-4.75-12.11 37.93 37.93 0 0 0-8.94-10.94 46.64 46.64 0 0 0-13.65-7.84 56.32 56.32 0 0 0-37.77.36 49.39 49.39 0 0 0-16.58 10.33 50.67 50.67 0 0 0-11.88 17.58q-4.5 10.68-4.51 24.93 0 13.54 4.4 23.87a52 52 0 0 0 11.63 17.34 49.83 49.83 0 0 0 16.63 10.69 53 53 0 0 0 19.59 3.68 51.48 51.48 0 0 0 18.88-3.21 46.6 46.6 0 0 0 13.9-8.19 45.28 45.28 0 0 0 9.26-11 51.43 51.43 0 0 0 5.23-12l30.63 9.26a75.62 75.62 0 0 1-8.19 19.84 71.62 71.62 0 0 1-15.44 18.4 80 80 0 0 1-23 13.66q-13.46 5.3-31.28 5.3ZM599.7 308.83h1249.4v4H599.7zM654.33 359.23a18.6 18.6 0 0 0-1.57-4.88 16.62 16.62 0 0 0-3.36-4.75 17 17 0 0 0-5.42-3.55 21.53 21.53 0 0 0-14.32-.3 16.32 16.32 0 0 0-5.23 3 13.27 13.27 0 0 0-3.43 4.51 13 13 0 0 0-1.21 5.6 11.92 11.92 0 0 0 2.77 7.88 14.34 14.34 0 0 0 8.18 4.51L643.5 374q10.71 2.4 16.42 8.66a21.84 21.84 0 0 1 5.72 15.34 23 23 0 0 1-2 9.51 24 24 0 0 1-5.89 8.06 29.73 29.73 0 0 1-9.27 5.6 33.73 33.73 0 0 1-12.27 2.1 36.09 36.09 0 0 1-13.47-2.27 30.92 30.92 0 0 1-9.62-5.9 26.7 26.7 0 0 1-6.08-8.12 30.08 30.08 0 0 1-2.77-9.09l11.31-3.61a23.71 23.71 0 0 0 1.75 6.92 17.46 17.46 0 0 0 4 5.84 19.28 19.28 0 0 0 6.26 4 22.25 22.25 0 0 0 8.48 1.5c5.85 0 10.25-1.32 13.17-4a12.59 12.59 0 0 0 1.27-17.87q-3.13-3.66-9.63-5l-12.15-2.65a29.8 29.8 0 0 1-15-7.88q-5.84-5.84-5.84-15.46a22.15 22.15 0 0 1 2.17-9.63 26 26 0 0 1 6-8.06 29.63 29.63 0 0 1 9-5.6 29.16 29.16 0 0 1 11.07-2.1 34.2 34.2 0 0 1 12.33 2 27.15 27.15 0 0 1 8.55 5.12 24.56 24.56 0 0 1 5.35 6.86 28.28 28.28 0 0 1 2.65 7.22ZM694.64 363.56h12.51v10.23h-12.51v30.08c0 2.65.6 4.63 1.8 6s3.29 2 6.26 2c.72 0 1.52 0 2.41-.12a9.49 9.49 0 0 0 2-.36V421q-.72.24-2.76.66a25 25 0 0 1-4.94.42q-7.46 0-11.79-4.27t-4.33-12.22v-31.8h-11.03v-10.23h3.13c3.12 0 5.39-.84 6.79-2.53a9.59 9.59 0 0 0 2.11-6.38v-9.38h10.35ZM718.58 405.92a17.15 17.15 0 0 1 1.33-6.92 15.17 15.17 0 0 1 3.67-5.24 18.59 18.59 0 0 1 5.59-3.49 32 32 0 0 1 7-1.92l15.64-2.29c1.77-.24 3-.76 3.55-1.56a4.45 4.45 0 0 0 .91-2.77 10.16 10.16 0 0 0-3-7.28q-3-3.07-9.57-3.07-6 0-9.26 3.31a13.88 13.88 0 0 0-3.85 8.36l-10.83-2.52a20 20 0 0 1 2.46-7.59 20.33 20.33 0 0 1 5.12-5.95 23.52 23.52 0 0 1 7.28-3.85 27.84 27.84 0 0 1 8.84-1.39 31.21 31.21 0 0 1 11.07 1.75 20.88 20.88 0 0 1 7.46 4.63 17.35 17.35 0 0 1 4.21 6.74 24.42 24.42 0 0 1 1.33 8.06v29q0 3.85.24 6.14a33.22 33.22 0 0 0 .48 3.37h-11.04a25.81 25.81 0 0 1-.42-2.89c-.12-1.2-.18-2.85-.18-4.93a21.8 21.8 0 0 1-2.53 3.24 18.93 18.93 0 0 1-3.85 3.13 20.84 20.84 0 0 1-5.35 2.35 24.64 24.64 0 0 1-6.92.9 21.17 21.17 0 0 1-8-1.44 19.79 19.79 0 0 1-6.07-3.79 16.44 16.44 0 0 1-3.91-5.48 16 16 0 0 1-1.4-6.61Zm20.94 7.82a22.86 22.86 0 0 0 6.56-.91 13.6 13.6 0 0 0 5.29-2.88 13.77 13.77 0 0 0 3.55-5.3 21.36 21.36 0 0 0 1.33-8V394l-17.69 2.65a11.85 11.85 0 0 0-6 2.71 7.49 7.49 0 0 0-2.4 5.95 8.15 8.15 0 0 0 2.52 5.84 9.14 9.14 0 0 0 6.84 2.59ZM817.25 375a34.91 34.91 0 0 0-4.93-.36q-7.1 0-11.49 4.15t-4.39 13.66v29h-11.31v-57.89h11.07v10.11a18.8 18.8 0 0 1 3.67-5.48 19.59 19.59 0 0 1 4.39-3.37 16.28 16.28 0 0 1 4.69-1.74 23.45 23.45 0 0 1 4.57-.48 19.24 19.24 0 0 1 2.23.12 13.12 13.12 0 0 1 1.5.24ZM847.45 363.56H860v10.23h-12.55v30.08c0 2.65.61 4.63 1.81 6s3.29 2 6.26 2q1.08 0 2.4-.12a9.48 9.48 0 0 0 2.05-.36V421c-.48.16-1.41.38-2.77.66a24.89 24.89 0 0 1-4.93.42q-7.47 0-11.79-4.27t-4.34-12.22v-31.8h-11.07v-10.23h3.13q4.69 0 6.8-2.53a9.64 9.64 0 0 0 2.11-6.38v-9.38h10.34ZM950.1 359.23a18.6 18.6 0 0 0-1.57-4.88 16.46 16.46 0 0 0-3.37-4.75 17 17 0 0 0-5.41-3.55 19.65 19.65 0 0 0-7.7-1.38 19.44 19.44 0 0 0-6.62 1.08 16.48 16.48 0 0 0-5.24 3 13.37 13.37 0 0 0-3.42 4.51 13 13 0 0 0-1.21 5.6 11.87 11.87 0 0 0 2.77 7.88 14.3 14.3 0 0 0 8.18 4.51l12.76 2.75q10.71 2.4 16.42 8.66a21.84 21.84 0 0 1 5.72 15.34 23 23 0 0 1-2 9.51 24 24 0 0 1-5.89 8.06 29.73 29.73 0 0 1-9.27 5.6 33.73 33.73 0 0 1-12.27 2.1 36.09 36.09 0 0 1-13.47-2.27 31.09 31.09 0 0 1-9.63-5.9 26.66 26.66 0 0 1-6.07-8.12 29.8 29.8 0 0 1-2.77-9.09l11.31-3.61a24 24 0 0 0 1.74 6.92 17.63 17.63 0 0 0 4 5.84 19.23 19.23 0 0 0 6.25 4 22.34 22.34 0 0 0 8.49 1.5q8.78 0 13.17-4a12.61 12.61 0 0 0 1.27-17.87q-3.13-3.66-9.63-5l-12.15-2.65a29.83 29.83 0 0 1-15-7.88q-5.84-5.84-5.83-15.46a22.29 22.29 0 0 1 2.16-9.63 26.08 26.08 0 0 1 6-8.06 29.63 29.63 0 0 1 9-5.6 29.08 29.08 0 0 1 11.07-2.1 34.2 34.2 0 0 1 12.33 2 27 27 0 0 1 8.54 5.12 24.6 24.6 0 0 1 5.36 6.86 28.66 28.66 0 0 1 2.65 7.22ZM1000 361.75a29.71 29.71 0 0 1 11.91 2.35 28.45 28.45 0 0 1 15.53 16.12 33.68 33.68 0 0 1 2.16 12.22 34.1 34.1 0 0 1-2.16 12.27 28.48 28.48 0 0 1-6.14 9.75 29 29 0 0 1-9.39 6.44 31.48 31.48 0 0 1-23.82 0 29.1 29.1 0 0 1-9.39-6.44 28.46 28.46 0 0 1-6.13-9.75 33.89 33.89 0 0 1-2.17-12.27 33.47 33.47 0 0 1 2.17-12.22 28.54 28.54 0 0 1 6.13-9.68 28.94 28.94 0 0 1 9.39-6.44 29.71 29.71 0 0 1 11.91-2.35Zm0 51.38a17.83 17.83 0 0 0 6.86-1.32 16.49 16.49 0 0 0 5.78-4 18.83 18.83 0 0 0 4-6.5 25.29 25.29 0 0 0 1.44-8.9 24.88 24.88 0 0 0-1.44-8.85 19 19 0 0 0-4-6.43 16.49 16.49 0 0 0-5.78-4 18.36 18.36 0 0 0-13.72 0 16.45 16.45 0 0 0-5.77 4 18.83 18.83 0 0 0-4 6.43 24.65 24.65 0 0 0-1.45 8.85 25.05 25.05 0 0 0 1.45 8.9 18.68 18.68 0 0 0 4 6.5 16.45 16.45 0 0 0 5.77 4 17.9 17.9 0 0 0 6.86 1.32ZM1044.07 421.44v-57.88h10.83v7.7a17 17 0 0 1 7.64-7.1 23.23 23.23 0 0 1 9.93-2.29 20.64 20.64 0 0 1 10.17 2.65 16.55 16.55 0 0 1 7.16 8.3q3.48-6.26 8.66-8.6a25.74 25.74 0 0 1 10.71-2.35 21.24 21.24 0 0 1 7.34 1.33 18.28 18.28 0 0 1 6.44 4 19.43 19.43 0 0 1 4.51 6.86 26 26 0 0 1 1.69 9.8v37.55H1118V385.1a15 15 0 0 0-2.94-9.45q-3-3.78-9.33-3.79A12.34 12.34 0 0 0 1096 376a15.18 15.18 0 0 0-3.67 10.41v35H1081V385.1a15.18 15.18 0 0 0-2.88-9.45q-2.89-3.78-9.39-3.79a12.56 12.56 0 0 0-9.81 4.09 15.25 15.25 0 0 0-3.67 10.59v34.9ZM1197.61 405a25.08 25.08 0 0 1-3.55 7.16 25.81 25.81 0 0 1-5.65 5.78 27.51 27.51 0 0 1-7.52 3.91 28.52 28.52 0 0 1-9.27 1.44 30.53 30.53 0 0 1-11.07-2 27 27 0 0 1-9.32-6 28.52 28.52 0 0 1-6.38-9.75 34.47 34.47 0 0 1-2.35-13.11 32.57 32.57 0 0 1 2.29-12.46 31 31 0 0 1 6.07-9.62 27 27 0 0 1 8.85-6.26 25.79 25.79 0 0 1 10.47-2.23A30.09 30.09 0 0 1 1182 364a23.8 23.8 0 0 1 8.72 6.2 27.4 27.4 0 0 1 5.36 9.56 39 39 0 0 1 1.86 12.34q0 1.08-.06 2a12.05 12.05 0 0 1-.18 1.57h-43.56a20.19 20.19 0 0 0 1.45 7.1 16.62 16.62 0 0 0 3.67 5.59 16 16 0 0 0 5.53 3.61 18.35 18.35 0 0 0 6.8 1.27q7.1 0 10.83-3.37a19.54 19.54 0 0 0 5.42-8.31Zm-11.43-18.41A15.82 15.82 0 0 0 1182 376q-4-4.26-11.67-4.27a15.65 15.65 0 0 0-6.44 1.26 14.93 14.93 0 0 0-4.81 3.37 17.2 17.2 0 0 0-3.19 4.76 14.54 14.54 0 0 0-1.33 5.41ZM1227.57 363.56h12.52v10.23h-12.52v30.08c0 2.65.61 4.63 1.81 6s3.29 2 6.26 2q1.08 0 2.4-.12a9.48 9.48 0 0 0 2-.36V421c-.48.16-1.41.38-2.77.66a24.89 24.89 0 0 1-4.93.42q-7.47 0-11.79-4.27t-4.34-12.22v-31.8h-11.07v-10.23h3.13q4.7 0 6.8-2.53a9.64 9.64 0 0 0 2.11-6.38v-9.38h10.34ZM1266.44 421.44h-11.31v-87.12h11.31v36a17.38 17.38 0 0 1 7.82-6.5 25.53 25.53 0 0 1 9.75-1.93 22.12 22.12 0 0 1 9.08 1.75 17.85 17.85 0 0 1 6.5 4.81 20.08 20.08 0 0 1 3.85 7.28 31.38 31.38 0 0 1 1.27 9v36.7h-11.31v-34.77a23.27 23.27 0 0 0-.67-5.65 11.74 11.74 0 0 0-2.28-4.64 11.2 11.2 0 0 0-4.22-3.12 15.43 15.43 0 0 0-6.31-1.15 12.8 12.8 0 0 0-5.72 1.21 12.28 12.28 0 0 0-4.15 3.24 14.68 14.68 0 0 0-2.59 4.82 22 22 0 0 0-1 6ZM1320.23 341.66a8 8 0 0 1 2.34-5.84 7.8 7.8 0 0 1 5.72-2.34 8 8 0 0 1 8.18 8.18 7.76 7.76 0 0 1-2.34 5.71 7.92 7.92 0 0 1-5.84 2.35 8 8 0 0 1-8.06-8.06Zm2.52 79.78v-57.88H1334v57.88ZM1364.51 421.44h-11.31v-57.88h11.07v8.3a18.28 18.28 0 0 1 7.94-7.7 22.84 22.84 0 0 1 9.87-2.29 22.18 22.18 0 0 1 9.08 1.75 17.93 17.93 0 0 1 6.5 4.81 20.23 20.23 0 0 1 3.85 7.28 31.38 31.38 0 0 1 1.26 9v36.7h-11.31v-34.75a23.28 23.28 0 0 0-.66-5.65 11.62 11.62 0 0 0-2.29-4.64 11.09 11.09 0 0 0-4.21-3.12 15.45 15.45 0 0 0-6.32-1.15 12.9 12.9 0 0 0-5.89 1.27 12 12 0 0 0-4.21 3.43 14.71 14.71 0 0 0-2.53 5.05 21.85 21.85 0 0 0-.84 6.14ZM1427.56 422a15.63 15.63 0 0 0 4.87 10.17 15.27 15.27 0 0 0 10.89 4q9.15 0 13.42-4.69t4.27-14.08v-8.31a17.07 17.07 0 0 1-6.62 6.74 20.91 20.91 0 0 1-11.07 2.77 26.47 26.47 0 0 1-10.65-2.11 25.26 25.26 0 0 1-14-14.62 32.75 32.75 0 0 1-.06-22.32 27 27 0 0 1 5.41-8.9 25.51 25.51 0 0 1 19.25-8.24 23.42 23.42 0 0 1 11.2 2.4 15.36 15.36 0 0 1 6.61 6.74v-8.06h11.19v53.55a40.42 40.42 0 0 1-1.44 10.77 24 24 0 0 1-4.87 9.26 24.87 24.87 0 0 1-9 6.5 33.77 33.77 0 0 1-13.72 2.47 30.16 30.16 0 0 1-10-1.63 27.1 27.1 0 0 1-8.19-4.51 24.07 24.07 0 0 1-5.77-6.8 21.54 21.54 0 0 1-2.71-8.6Zm17.44-12.84a15.31 15.31 0 0 0 11.91-5.05q4.57-5.06 4.57-13.48t-4.57-13.47a15.32 15.32 0 0 0-11.91-5.06q-7.59 0-12.15 5.06t-4.58 13.47q0 8.55 4.52 13.54t12.21 4.99ZM1552.34 347.07v74.37h-11.79v-74.37H1512v-10.95h68.83v10.95ZM1605.05 361.75a29.71 29.71 0 0 1 11.95 2.35 28.94 28.94 0 0 1 9.39 6.44 28.54 28.54 0 0 1 6.13 9.68 33.47 33.47 0 0 1 2.17 12.22 33.89 33.89 0 0 1-2.17 12.27 28.46 28.46 0 0 1-6.13 9.75 29.1 29.1 0 0 1-9.39 6.44 31.48 31.48 0 0 1-23.82 0 29 29 0 0 1-9.39-6.44 28.48 28.48 0 0 1-6.14-9.75 34.1 34.1 0 0 1-2.16-12.27 33.68 33.68 0 0 1 2.16-12.22 28.45 28.45 0 0 1 15.53-16.12 29.68 29.68 0 0 1 11.87-2.35Zm0 51.38a17.9 17.9 0 0 0 6.86-1.32 16.45 16.45 0 0 0 5.77-4 18.68 18.68 0 0 0 4-6.5 25.05 25.05 0 0 0 1.45-8.9 24.65 24.65 0 0 0-1.45-8.85 18.83 18.83 0 0 0-4-6.43 16.45 16.45 0 0 0-5.77-4 18.36 18.36 0 0 0-13.72 0 16.49 16.49 0 0 0-5.78 4 19 19 0 0 0-4 6.43 24.88 24.88 0 0 0-1.44 8.85 25.29 25.29 0 0 0 1.44 8.9 18.83 18.83 0 0 0 4 6.5 16.49 16.49 0 0 0 5.78 4 17.87 17.87 0 0 0 6.86 1.32ZM1689.64 412.65a18.76 18.76 0 0 1-6.56 7.28 19.76 19.76 0 0 1-11.37 3.07 26.9 26.9 0 0 1-11.43-2.34 25 25 0 0 1-8.6-6.5 29.61 29.61 0 0 1-5.48-9.75 37 37 0 0 1-1.93-12.09 33.88 33.88 0 0 1 2-11.61 30.13 30.13 0 0 1 5.6-9.63 27.06 27.06 0 0 1 8.66-6.62 25.23 25.23 0 0 1 11.19-2.47 24.88 24.88 0 0 1 6.8.85 19.32 19.32 0 0 1 5.11 2.22 15.45 15.45 0 0 1 3.61 3.13 13.63 13.63 0 0 1 2.17 3.55v-37.42h11.19v76.41c0 2.81.08 5.17.24 7.1s.28 3.13.36 3.61h-11a21.73 21.73 0 0 1-.42-3.07c-.12-1.4-.18-3-.18-4.75Zm-33.81-20.33a28.49 28.49 0 0 0 1.14 8.24 19.67 19.67 0 0 0 3.31 6.56 15.4 15.4 0 0 0 5.29 4.33 16 16 0 0 0 7.22 1.56 14.93 14.93 0 0 0 7-1.62 16.08 16.08 0 0 0 5.3-4.39 20 20 0 0 0 3.31-6.62 29.11 29.11 0 0 0 1.14-8.3q0-9-4.39-14.56t-12.24-5.52a16.23 16.23 0 0 0-7 1.51 15.37 15.37 0 0 0-5.41 4.21 19.17 19.17 0 0 0-3.43 6.44 26.54 26.54 0 0 0-1.24 8.16ZM1716.23 405.92a17.15 17.15 0 0 1 1.33-6.92 15.17 15.17 0 0 1 3.67-5.24 18.47 18.47 0 0 1 5.59-3.49 32 32 0 0 1 7-1.92l15.64-2.29c1.77-.24 3-.76 3.55-1.56a4.51 4.51 0 0 0 .91-2.77 10.16 10.16 0 0 0-3-7.28q-3-3.07-9.57-3.07-6 0-9.26 3.31a13.88 13.88 0 0 0-3.85 8.36l-10.83-2.52a19.78 19.78 0 0 1 2.46-7.59A20.33 20.33 0 0 1 1725 367a23.52 23.52 0 0 1 7.28-3.85 27.79 27.79 0 0 1 8.84-1.39 31.21 31.21 0 0 1 11.07 1.75 20.88 20.88 0 0 1 7.46 4.63 17.35 17.35 0 0 1 4.21 6.74 24.68 24.68 0 0 1 1.33 8.06v29q0 3.85.24 6.14a33.22 33.22 0 0 0 .48 3.37h-11.07a25.81 25.81 0 0 1-.42-2.89c-.12-1.2-.18-2.85-.18-4.93a21.8 21.8 0 0 1-2.53 3.24 18.93 18.93 0 0 1-3.85 3.13 20.91 20.91 0 0 1-5.36 2.35 24.52 24.52 0 0 1-6.91.9 21.17 21.17 0 0 1-8-1.44 19.79 19.79 0 0 1-6.07-3.79 16.44 16.44 0 0 1-3.91-5.48 16 16 0 0 1-1.38-6.62Zm20.94 7.82a22.91 22.91 0 0 0 6.56-.91A13.6 13.6 0 0 0 1749 410a13.77 13.77 0 0 0 3.55-5.3 21.56 21.56 0 0 0 1.33-8V394l-17.69 2.65a11.81 11.81 0 0 0-6 2.71 7.47 7.47 0 0 0-2.41 5.95 8.16 8.16 0 0 0 2.53 5.84 9.14 9.14 0 0 0 6.86 2.59ZM1783.62 445.62l14.44-30.56-24.91-51.5h13l18 39.95 17.33-39.95h12.15L1796 445.62ZM1830.06 413.74a8.25 8.25 0 0 1 2.41-6 8 8 0 0 1 5.9-2.47 8.43 8.43 0 0 1 8.42 8.43 7.89 7.89 0 0 1-2.47 5.89 8.19 8.19 0 0 1-6 2.41 8.23 8.23 0 0 1-8.31-8.3Z"/></svg>