<?xml version="1.0" encoding="utf-8"?>
<!-- Generator: Adobe Illustrator 23.0.0, SVG Export Plug-In . SVG Version: 6.00 Build 0)  -->
<svg version="1.1" xmlns="http://www.w3.org/2000/svg" xmlns:xlink="http://www.w3.org/1999/xlink" x="0px" y="0px"
	 viewBox="0 0 1178.63 409.31" style="enable-background:new 0 0 1178.63 409.31;" xml:space="preserve">
<style type="text/css">
	.st0{display:none;}
	.st1{display:inline;fill:#00ADEE;}
	.st2{fill:#58595B;}
	.st3{fill:#00C3D1;}
	.st4{fill:#010A72;}
	.st5{fill:#2E7ED8;}
	.st6{fill:none;stroke:#FFFFFF;stroke-width:1.9058;stroke-miterlimit:10;}
	.st7{fill:#1A1E21;}
	.st8{fill:none;stroke:#FFFFFF;stroke-miterlimit:10;}
	.st9{fill:#FFFFFF;}
	.st10{clip-path:url(#SVGID_2_);}
	.st11{fill:#01568D;}
	.st12{fill:#01A0D3;}
	.st13{fill:#0063A7;}
	.st14{fill:#0D95AD;}
	.st15{fill:#00A79D;}
	.st16{fill:#0171BB;}
	.st17{fill:#0061A5;}
	.st18{fill:#0088B9;}
	.st19{fill:#0192C8;}
	.st20{fill:#1A4E9B;}
	.st21{opacity:0.49;fill:url(#SVGID_3_);}
	.st22{opacity:0.61;fill:url(#SVGID_4_);}
	.st23{fill:#231F20;}
	.st24{clip-path:url(#SVGID_6_);}
	.st25{opacity:0.49;fill:url(#SVGID_7_);}
	.st26{opacity:0.61;fill:url(#SVGID_8_);}
	.st27{opacity:0.49;fill:url(#SVGID_9_);}
	.st28{fill:#231F20;stroke:#27AAE1;stroke-miterlimit:10;}
	.st29{fill:#A7A9AC;}
	.st30{fill:#EF4136;}
	.st31{fill:#662D91;}
	.st32{fill:#FFCE00;}
	.st33{fill:none;stroke:#FFFFFF;stroke-width:8;stroke-miterlimit:10;}
	.st34{fill:url(#SVGID_10_);}
	.st35{fill:#92278F;}
	.st36{fill:url(#SVGID_11_);}
	.st37{fill:url(#SVGID_12_);}
	.st38{fill:url(#SVGID_13_);}
	.st39{fill:#D7DF23;}
	.st40{fill:url(#SVGID_14_);}
	.st41{fill:url(#SVGID_15_);}
	.st42{fill:url(#SVGID_16_);}
	.st43{fill:url(#SVGID_17_);}
	.st44{fill:url(#SVGID_18_);}
	.st45{fill:url(#SVGID_19_);}
	.st46{fill:url(#SVGID_20_);}
	.st47{fill:url(#SVGID_21_);}
	.st48{fill:url(#SVGID_22_);}
	.st49{fill:url(#SVGID_23_);}
	.st50{fill:url(#SVGID_24_);}
	.st51{fill:url(#SVGID_25_);}
	.st52{fill:url(#SVGID_26_);}
	.st53{fill:url(#SVGID_27_);}
	.st54{fill:url(#SVGID_28_);}
	.st55{fill:url(#SVGID_29_);}
	.st56{fill:url(#SVGID_30_);}
	.st57{fill:url(#SVGID_31_);}
	.st58{fill:url(#SVGID_32_);}
	.st59{fill:url(#SVGID_33_);}
	.st60{fill:url(#SVGID_34_);}
	.st61{fill:url(#SVGID_35_);}
	.st62{fill:url(#SVGID_36_);}
	.st63{fill:url(#SVGID_37_);}
	.st64{fill:url(#SVGID_38_);}
	.st65{fill:url(#SVGID_39_);}
	.st66{fill:url(#SVGID_40_);}
	.st67{fill:url(#SVGID_41_);}
	.st68{fill:url(#SVGID_42_);}
	.st69{fill:url(#SVGID_43_);}
	.st70{fill:url(#SVGID_44_);}
	.st71{fill:url(#SVGID_45_);}
	.st72{fill:url(#SVGID_46_);}
	.st73{fill:url(#SVGID_47_);}
	.st74{fill:url(#SVGID_48_);}
	.st75{fill:url(#SVGID_49_);}
	.st76{fill:url(#SVGID_50_);}
	.st77{fill:url(#SVGID_51_);}
	.st78{fill:url(#SVGID_52_);}
	.st79{fill:url(#SVGID_53_);}
	.st80{fill:url(#SVGID_54_);}
	.st81{fill:url(#SVGID_55_);}
	.st82{fill:url(#SVGID_56_);}
	.st83{fill:url(#SVGID_57_);}
	.st84{fill:url(#SVGID_58_);}
	.st85{fill:url(#SVGID_59_);}
	.st86{fill:url(#SVGID_60_);}
	.st87{fill:url(#SVGID_61_);}
	.st88{fill:url(#SVGID_62_);}
	.st89{fill:url(#SVGID_63_);}
	.st90{fill:url(#SVGID_64_);}
	.st91{fill:url(#SVGID_65_);}
	.st92{fill:url(#SVGID_66_);}
	.st93{fill:url(#SVGID_67_);}
	.st94{fill:url(#SVGID_68_);}
	.st95{fill:url(#SVGID_69_);}
	.st96{fill:url(#SVGID_70_);}
	.st97{fill:url(#SVGID_71_);}
	.st98{fill:url(#SVGID_72_);}
	.st99{fill:url(#SVGID_73_);}
	.st100{fill:url(#SVGID_74_);}
	.st101{fill:url(#SVGID_75_);}
	.st102{fill:url(#SVGID_76_);}
	.st103{fill:url(#SVGID_77_);}
	.st104{fill:url(#SVGID_78_);}
	.st105{fill:url(#SVGID_79_);}
	.st106{fill:url(#SVGID_80_);}
	.st107{fill:url(#SVGID_81_);}
	.st108{fill:url(#SVGID_82_);}
	.st109{fill:url(#SVGID_83_);}
	.st110{fill:url(#SVGID_84_);}
	.st111{fill:url(#SVGID_85_);}
	.st112{fill:url(#SVGID_86_);}
	.st113{fill:url(#SVGID_87_);}
	.st114{fill:url(#SVGID_88_);}
	.st115{fill:url(#SVGID_89_);}
	.st116{fill:url(#SVGID_90_);}
	.st117{fill:url(#SVGID_91_);}
	.st118{fill:url(#SVGID_92_);}
	.st119{fill:url(#SVGID_93_);}
	.st120{fill:url(#SVGID_94_);}
	.st121{fill:url(#SVGID_95_);}
	.st122{fill:url(#SVGID_96_);}
	.st123{fill:url(#SVGID_97_);}
	.st124{fill:url(#SVGID_98_);}
	.st125{fill:url(#SVGID_99_);}
	.st126{fill:url(#SVGID_100_);}
	.st127{fill:url(#SVGID_101_);}
	.st128{fill:url(#SVGID_102_);}
	.st129{fill:url(#SVGID_103_);}
	.st130{fill:url(#SVGID_104_);}
	.st131{fill:url(#SVGID_105_);}
	.st132{fill:url(#SVGID_106_);}
	.st133{fill:url(#SVGID_107_);}
	.st134{fill:url(#SVGID_108_);}
	.st135{fill:url(#SVGID_109_);}
	.st136{fill:url(#SVGID_110_);}
	.st137{fill:url(#SVGID_111_);}
	.st138{fill:url(#SVGID_112_);}
	.st139{fill:url(#SVGID_113_);}
	.st140{fill:url(#SVGID_114_);}
	.st141{fill:url(#SVGID_115_);}
	.st142{fill:url(#SVGID_116_);}
	.st143{fill:url(#SVGID_117_);}
	.st144{fill:url(#SVGID_118_);}
	.st145{fill:url(#SVGID_119_);}
	.st146{fill:url(#SVGID_120_);}
	.st147{fill:url(#SVGID_121_);}
	.st148{fill:url(#SVGID_122_);}
	.st149{fill:url(#SVGID_123_);}
	.st150{fill:url(#SVGID_124_);}
	.st151{fill:url(#SVGID_125_);}
	.st152{fill:url(#SVGID_126_);}
	.st153{fill:url(#SVGID_127_);}
	.st154{fill:url(#SVGID_128_);}
	.st155{fill:url(#SVGID_129_);}
	.st156{fill:url(#SVGID_130_);}
	.st157{fill:url(#SVGID_131_);}
	.st158{fill:url(#SVGID_132_);}
	.st159{fill:url(#SVGID_133_);}
	.st160{fill:url(#SVGID_134_);}
	.st161{fill:url(#SVGID_135_);}
	.st162{fill:url(#SVGID_136_);}
	.st163{fill:url(#SVGID_137_);}
	.st164{fill:url(#SVGID_138_);}
	.st165{fill:url(#SVGID_139_);}
	.st166{fill:url(#SVGID_140_);}
	.st167{fill:url(#SVGID_141_);}
	.st168{fill:url(#SVGID_142_);}
	.st169{fill:url(#SVGID_143_);}
	.st170{fill:url(#SVGID_144_);}
	.st171{fill:url(#SVGID_145_);}
	.st172{fill:url(#SVGID_146_);}
	.st173{fill:url(#SVGID_147_);}
	.st174{fill:url(#SVGID_148_);}
	.st175{fill:url(#SVGID_149_);}
	.st176{fill:url(#SVGID_150_);}
	.st177{fill:url(#SVGID_151_);}
	.st178{fill:url(#SVGID_152_);}
	.st179{fill:url(#SVGID_153_);}
	.st180{fill:url(#SVGID_154_);}
	.st181{fill:url(#SVGID_155_);}
	.st182{fill:url(#SVGID_156_);}
	.st183{fill:url(#SVGID_157_);}
	.st184{fill:url(#SVGID_158_);}
	.st185{fill:url(#SVGID_159_);}
	.st186{fill:url(#SVGID_160_);}
	.st187{fill:url(#SVGID_161_);}
	.st188{fill:url(#SVGID_162_);}
	.st189{fill:url(#SVGID_163_);}
	.st190{fill:url(#SVGID_164_);}
	.st191{fill:url(#SVGID_165_);}
	.st192{fill:url(#SVGID_166_);}
	.st193{fill:url(#SVGID_167_);}
	.st194{fill:url(#SVGID_168_);}
	.st195{fill:url(#SVGID_169_);}
	.st196{fill:url(#SVGID_170_);}
	.st197{fill:url(#SVGID_171_);}
	.st198{fill:url(#SVGID_172_);}
	.st199{fill:url(#SVGID_173_);}
	.st200{fill:url(#SVGID_174_);}
	.st201{fill:url(#SVGID_175_);}
	.st202{fill:url(#SVGID_176_);}
	.st203{fill:url(#SVGID_177_);}
	.st204{fill:url(#SVGID_178_);}
	.st205{fill:url(#SVGID_179_);}
	.st206{fill:url(#SVGID_180_);}
	.st207{fill:url(#SVGID_181_);}
	.st208{fill:url(#SVGID_182_);}
	.st209{fill:url(#SVGID_183_);}
	.st210{fill:url(#SVGID_184_);}
	.st211{fill:url(#SVGID_185_);}
	.st212{fill:url(#SVGID_186_);}
	.st213{fill:url(#SVGID_187_);}
	.st214{fill:url(#SVGID_188_);}
	.st215{fill:url(#SVGID_189_);}
	.st216{fill:url(#SVGID_190_);}
	.st217{fill:url(#SVGID_191_);}
	.st218{fill:url(#SVGID_192_);}
	.st219{fill:url(#SVGID_193_);}
	.st220{fill:url(#SVGID_194_);}
	.st221{fill:url(#SVGID_195_);}
	.st222{fill:url(#SVGID_196_);}
	.st223{fill:url(#SVGID_197_);}
	.st224{fill:url(#SVGID_198_);}
	.st225{fill:url(#SVGID_199_);}
	.st226{fill:url(#SVGID_200_);}
	.st227{fill:url(#SVGID_201_);}
	.st228{fill:url(#SVGID_202_);}
	.st229{fill:url(#SVGID_203_);}
	.st230{fill:url(#SVGID_204_);}
	.st231{fill:url(#SVGID_205_);}
	.st232{fill:url(#SVGID_206_);}
	.st233{fill:url(#SVGID_207_);}
	.st234{fill:url(#SVGID_208_);}
	.st235{fill:url(#SVGID_209_);}
	.st236{fill:url(#SVGID_210_);}
	.st237{fill:url(#SVGID_211_);}
	.st238{fill:url(#SVGID_212_);}
	.st239{fill:url(#SVGID_213_);}
	.st240{fill:url(#SVGID_214_);}
	.st241{fill:url(#SVGID_215_);}
	.st242{fill:url(#SVGID_216_);}
	.st243{fill:url(#SVGID_217_);}
	.st244{fill:url(#SVGID_218_);}
	.st245{fill:url(#SVGID_219_);}
	.st246{fill:url(#SVGID_220_);}
	.st247{fill:url(#SVGID_221_);}
	.st248{fill:url(#SVGID_222_);}
	.st249{fill:url(#SVGID_223_);}
	.st250{fill:url(#SVGID_224_);}
	.st251{fill:url(#SVGID_225_);}
	.st252{fill:url(#SVGID_226_);}
	.st253{fill:#F1F2F2;}
	.st254{fill:#F6931E;}
	.st255{fill:url(#SVGID_227_);}
	.st256{fill:url(#SVGID_228_);}
	.st257{fill:url(#SVGID_229_);}
	.st258{fill:url(#SVGID_230_);}
	.st259{fill:url(#SVGID_231_);}
	.st260{fill:url(#SVGID_232_);}
	.st261{fill:url(#SVGID_233_);}
	.st262{fill:url(#SVGID_234_);}
	.st263{fill:url(#SVGID_235_);}
	.st264{fill:url(#SVGID_236_);}
	.st265{fill:url(#SVGID_237_);}
	.st266{fill:url(#SVGID_238_);}
	.st267{fill:url(#SVGID_239_);}
	.st268{fill:url(#SVGID_240_);}
	.st269{fill:url(#SVGID_241_);}
	.st270{fill:url(#SVGID_242_);}
	.st271{fill:url(#SVGID_243_);}
	.st272{fill:url(#SVGID_244_);}
	.st273{fill:url(#SVGID_245_);}
	.st274{fill:url(#SVGID_246_);}
	.st275{fill:url(#SVGID_247_);}
	.st276{fill:url(#SVGID_248_);}
	.st277{fill:url(#SVGID_249_);}
	.st278{fill:url(#SVGID_250_);}
	.st279{fill:url(#SVGID_251_);}
	.st280{fill:url(#SVGID_252_);}
	.st281{fill:url(#SVGID_253_);}
	.st282{fill:url(#SVGID_254_);}
	.st283{fill:url(#SVGID_255_);}
	.st284{fill:url(#SVGID_256_);}
	.st285{fill:url(#SVGID_257_);}
	.st286{fill:url(#SVGID_258_);}
	.st287{fill:url(#SVGID_259_);}
	.st288{fill:url(#SVGID_260_);}
	.st289{fill:url(#SVGID_261_);}
	.st290{fill:url(#SVGID_262_);}
	.st291{fill:url(#SVGID_263_);}
	.st292{fill:url(#SVGID_264_);}
	.st293{fill:url(#SVGID_265_);}
	.st294{fill:url(#SVGID_266_);}
	.st295{fill:url(#SVGID_267_);}
	.st296{fill:url(#SVGID_268_);}
	.st297{fill:url(#SVGID_269_);}
	.st298{fill:url(#SVGID_270_);}
	.st299{fill:url(#SVGID_271_);}
	.st300{fill:url(#SVGID_272_);}
	.st301{fill:url(#SVGID_273_);}
	.st302{fill:url(#SVGID_274_);}
	.st303{fill:url(#SVGID_275_);}
	.st304{fill:url(#SVGID_276_);}
	.st305{fill:url(#SVGID_277_);}
	.st306{fill:url(#SVGID_278_);}
	.st307{fill:url(#SVGID_279_);}
	.st308{fill:url(#SVGID_280_);}
	.st309{fill:url(#SVGID_281_);}
	.st310{fill:url(#SVGID_282_);}
	.st311{fill:url(#SVGID_283_);}
	.st312{fill:url(#SVGID_284_);}
	.st313{fill:url(#SVGID_285_);}
	.st314{fill:url(#SVGID_286_);}
	.st315{fill:url(#SVGID_287_);}
	.st316{fill:url(#SVGID_288_);}
	.st317{fill:url(#SVGID_289_);}
	.st318{fill:url(#SVGID_290_);}
	.st319{fill:url(#SVGID_291_);}
	.st320{fill:url(#SVGID_292_);}
	.st321{fill:url(#SVGID_293_);}
	.st322{fill:url(#SVGID_294_);}
	.st323{fill:url(#SVGID_295_);}
	.st324{fill:url(#SVGID_296_);}
	.st325{fill:url(#SVGID_297_);}
	.st326{fill:url(#SVGID_298_);}
	.st327{fill:url(#SVGID_299_);}
	.st328{fill:url(#SVGID_300_);}
	.st329{fill:url(#SVGID_301_);}
	.st330{fill:url(#SVGID_302_);}
	.st331{fill:url(#SVGID_303_);}
	.st332{fill:url(#SVGID_304_);}
	.st333{fill:url(#SVGID_305_);}
	.st334{fill:url(#SVGID_306_);}
	.st335{fill:url(#SVGID_307_);}
	.st336{fill:url(#SVGID_308_);}
	.st337{fill:url(#SVGID_309_);}
	.st338{fill:url(#SVGID_310_);}
	.st339{fill:url(#SVGID_311_);}
	.st340{fill:url(#SVGID_312_);}
	.st341{fill:url(#SVGID_313_);}
	.st342{fill:url(#SVGID_314_);}
	.st343{fill:url(#SVGID_315_);}
	.st344{fill:url(#SVGID_316_);}
	.st345{fill:url(#SVGID_317_);}
	.st346{fill:url(#SVGID_318_);}
	.st347{fill:url(#SVGID_319_);}
	.st348{fill:url(#SVGID_320_);}
	.st349{fill:url(#SVGID_321_);}
	.st350{fill:url(#SVGID_322_);}
	.st351{fill:url(#SVGID_323_);}
	.st352{fill:url(#SVGID_324_);}
	.st353{fill:url(#SVGID_325_);}
	.st354{fill:url(#SVGID_326_);}
	.st355{fill:url(#SVGID_327_);}
	.st356{fill:url(#SVGID_328_);}
	.st357{fill:url(#SVGID_329_);}
	.st358{fill:url(#SVGID_330_);}
	.st359{fill:url(#SVGID_331_);}
	.st360{fill:url(#SVGID_332_);}
	.st361{fill:url(#SVGID_333_);}
	.st362{fill:url(#SVGID_334_);}
	.st363{fill:url(#SVGID_335_);}
	.st364{fill:url(#SVGID_336_);}
	.st365{fill:url(#SVGID_337_);}
	.st366{fill:url(#SVGID_338_);}
	.st367{fill:url(#SVGID_339_);}
	.st368{fill:url(#SVGID_340_);}
	.st369{fill:url(#SVGID_341_);}
	.st370{fill:url(#SVGID_342_);}
	.st371{fill:url(#SVGID_343_);}
	.st372{fill:url(#SVGID_344_);}
	.st373{fill:url(#SVGID_345_);}
	.st374{fill:url(#SVGID_346_);}
	.st375{fill:url(#SVGID_347_);}
	.st376{fill:url(#SVGID_348_);}
	.st377{fill:url(#SVGID_349_);}
	.st378{fill:url(#SVGID_350_);}
	.st379{fill:url(#SVGID_351_);}
	.st380{fill:url(#SVGID_352_);}
	.st381{fill:url(#SVGID_353_);}
	.st382{fill:url(#SVGID_354_);}
	.st383{fill:url(#SVGID_355_);}
	.st384{fill:url(#SVGID_356_);}
	.st385{fill:url(#SVGID_357_);}
	.st386{fill:url(#SVGID_358_);}
	.st387{fill:url(#SVGID_359_);}
	.st388{fill:url(#SVGID_360_);}
	.st389{fill:url(#SVGID_361_);}
	.st390{fill:url(#SVGID_362_);}
	.st391{fill:url(#SVGID_363_);}
	.st392{fill:url(#SVGID_364_);}
	.st393{fill:url(#SVGID_365_);}
	.st394{fill:url(#SVGID_366_);}
	.st395{fill:url(#SVGID_367_);}
	.st396{fill:url(#SVGID_368_);}
	.st397{fill:url(#SVGID_369_);}
	.st398{fill:url(#SVGID_370_);}
	.st399{fill:url(#SVGID_371_);}
	.st400{fill:url(#SVGID_372_);}
	.st401{fill:url(#SVGID_373_);}
	.st402{fill:url(#SVGID_374_);}
	.st403{fill:url(#SVGID_375_);}
	.st404{fill:url(#SVGID_376_);}
	.st405{fill:url(#SVGID_377_);}
	.st406{fill:url(#SVGID_378_);}
	.st407{fill:url(#SVGID_379_);}
	.st408{fill:url(#SVGID_380_);}
	.st409{fill:url(#SVGID_381_);}
	.st410{fill:url(#SVGID_382_);}
	.st411{fill:url(#SVGID_383_);}
	.st412{fill:url(#SVGID_384_);}
	.st413{fill:url(#SVGID_385_);}
	.st414{fill:url(#SVGID_386_);}
	.st415{fill:url(#SVGID_387_);}
	.st416{fill:url(#SVGID_388_);}
	.st417{fill:url(#SVGID_389_);}
	.st418{fill:url(#SVGID_390_);}
	.st419{fill:url(#SVGID_391_);}
	.st420{fill:url(#SVGID_392_);}
	.st421{fill:#FFFFFF;stroke:#231F20;stroke-width:4;stroke-miterlimit:10;}
	.st422{fill:none;stroke:#000000;stroke-miterlimit:10;}
	.st423{fill:url(#SVGID_393_);}
	.st424{fill:none;stroke:#231F20;stroke-width:2;stroke-miterlimit:15;}
	.st425{fill:none;stroke:#231F20;stroke-width:2;stroke-miterlimit:15;stroke-dasharray:14.8379,1.9784;}
	.st426{fill:none;stroke:#231F20;stroke-width:2;stroke-miterlimit:15;stroke-dasharray:15.4315,2.0575;}
	.st427{fill:none;stroke:#231F20;stroke-width:2;stroke-miterlimit:15;stroke-dasharray:14.9952,1.9994;}
	.st428{fill:none;stroke:#231F20;stroke-width:2;stroke-miterlimit:15;stroke-dasharray:15.0732,2.0097;}
	.st429{fill:none;stroke:#231F20;stroke-width:2;stroke-miterlimit:15;stroke-dasharray:15.6342,2.0846;}
	.st430{opacity:0.1;clip-path:url(#SVGID_395_);fill:url(#SVGID_396_);}
	.st431{fill:url(#SVGID_397_);}
	.st432{fill:url(#SVGID_398_);}
	.st433{fill:url(#SVGID_399_);}
	.st434{fill:url(#SVGID_400_);}
	.st435{fill:url(#SVGID_401_);}
	.st436{fill:url(#SVGID_402_);}
	.st437{fill:url(#SVGID_403_);}
	.st438{fill:url(#SVGID_404_);}
	.st439{fill:url(#SVGID_405_);}
	.st440{fill:url(#SVGID_406_);}
	.st441{fill:url(#SVGID_407_);}
	.st442{fill:url(#SVGID_408_);}
	.st443{fill:url(#SVGID_409_);}
	.st444{fill:url(#SVGID_410_);}
	.st445{fill:url(#SVGID_411_);}
	.st446{fill:url(#SVGID_412_);}
	.st447{fill:url(#SVGID_413_);}
	.st448{fill:url(#SVGID_414_);}
	.st449{fill:url(#SVGID_415_);}
	.st450{fill:url(#SVGID_416_);}
	.st451{fill:url(#SVGID_417_);}
	.st452{fill:url(#SVGID_418_);}
	.st453{fill:url(#SVGID_419_);}
	.st454{fill:url(#SVGID_420_);}
	.st455{fill:url(#SVGID_421_);}
	.st456{fill:url(#SVGID_422_);}
	.st457{fill:url(#SVGID_423_);}
	.st458{fill:url(#SVGID_424_);}
	.st459{fill:url(#SVGID_425_);}
	.st460{fill:url(#SVGID_426_);}
	.st461{fill:url(#SVGID_427_);}
	.st462{fill:url(#SVGID_428_);}
	.st463{fill:url(#SVGID_429_);}
	.st464{fill:url(#SVGID_430_);}
	.st465{fill:url(#SVGID_431_);}
	.st466{fill:url(#SVGID_432_);}
	.st467{fill:url(#SVGID_433_);}
	.st468{fill:url(#SVGID_434_);}
	.st469{fill:url(#SVGID_435_);}
	.st470{fill:url(#SVGID_436_);}
	.st471{fill:url(#SVGID_437_);}
	.st472{fill:url(#SVGID_438_);}
	.st473{fill:url(#SVGID_439_);}
	.st474{fill:url(#SVGID_440_);}
	.st475{fill:url(#SVGID_441_);}
	.st476{fill:url(#SVGID_442_);}
	.st477{fill:url(#SVGID_443_);}
	.st478{fill:url(#SVGID_444_);}
	.st479{fill:url(#SVGID_445_);}
	.st480{fill:url(#SVGID_446_);}
	.st481{fill:url(#SVGID_447_);}
	.st482{fill:url(#SVGID_448_);}
	.st483{fill:url(#SVGID_449_);}
	.st484{fill:url(#SVGID_450_);}
	.st485{fill:url(#SVGID_451_);}
	.st486{fill:url(#SVGID_452_);}
	.st487{fill:url(#SVGID_453_);}
	.st488{fill:url(#SVGID_454_);}
	.st489{fill:url(#SVGID_455_);}
	.st490{fill:url(#SVGID_456_);}
	.st491{fill:url(#SVGID_457_);}
	.st492{fill:url(#SVGID_458_);}
	.st493{fill:url(#SVGID_459_);}
	.st494{fill:url(#SVGID_460_);}
	.st495{fill:url(#SVGID_461_);}
	.st496{fill:url(#SVGID_462_);}
	.st497{fill:url(#SVGID_463_);}
	.st498{fill:url(#SVGID_464_);}
	.st499{fill:url(#SVGID_465_);}
	.st500{fill:url(#SVGID_466_);}
	.st501{fill:url(#SVGID_467_);}
	.st502{fill:url(#SVGID_468_);}
	.st503{fill:url(#SVGID_469_);}
	.st504{fill:url(#SVGID_470_);}
	.st505{fill:url(#SVGID_471_);}
	.st506{fill:url(#SVGID_472_);}
	.st507{fill:url(#SVGID_473_);}
	.st508{fill:url(#SVGID_474_);}
	.st509{fill:url(#SVGID_475_);}
	.st510{fill:url(#SVGID_476_);}
	.st511{fill:url(#SVGID_477_);}
	.st512{fill:url(#SVGID_478_);}
	.st513{fill:url(#SVGID_479_);}
	.st514{fill:url(#SVGID_480_);}
	.st515{fill:url(#SVGID_481_);}
	.st516{fill:#231F20;stroke:#231F20;stroke-width:4;stroke-miterlimit:10;}
	.st517{fill:url(#SVGID_482_);}
	.st518{fill:url(#SVGID_483_);}
	.st519{fill:#E6E7E8;}
	.st520{fill:#D1D3D4;}
	.st521{fill:url(#SVGID_484_);}
	.st522{fill:url(#SVGID_485_);}
	.st523{fill:url(#SVGID_486_);}
	.st524{fill:url(#SVGID_487_);}
	.st525{fill:url(#SVGID_488_);}
	.st526{fill:url(#SVGID_489_);}
	.st527{fill:url(#SVGID_490_);}
	.st528{fill:url(#SVGID_491_);}
	.st529{fill:url(#SVGID_492_);}
	.st530{fill:url(#SVGID_493_);}
	.st531{fill:url(#SVGID_494_);}
	.st532{fill:url(#SVGID_495_);}
	.st533{fill:url(#SVGID_496_);}
	.st534{fill:url(#SVGID_497_);}
	.st535{fill:url(#SVGID_498_);}
	.st536{fill:url(#SVGID_499_);}
	.st537{fill:url(#SVGID_500_);}
	.st538{fill:url(#SVGID_501_);}
	.st539{fill:url(#SVGID_502_);}
	.st540{fill:url(#SVGID_503_);}
	.st541{fill:url(#SVGID_504_);}
	.st542{fill:url(#SVGID_505_);}
	.st543{fill:url(#SVGID_506_);}
	.st544{fill:url(#SVGID_507_);}
	.st545{fill:url(#SVGID_508_);}
	.st546{fill:url(#SVGID_509_);}
	.st547{fill:url(#SVGID_510_);}
	.st548{fill:url(#SVGID_511_);}
	.st549{fill:url(#SVGID_512_);}
	.st550{fill:#BA1515;}
	.st551{fill:#F5F5F5;}
	.st552{fill:none;stroke:#FFFFFF;stroke-miterlimit:10;stroke-dasharray:15.0474,15.0474;}
	.st553{fill:none;stroke:#FFFFFF;stroke-miterlimit:10;stroke-dasharray:6.2965,6.2965;}
	.st554{fill:none;stroke:#FFFFFF;stroke-miterlimit:10;stroke-dasharray:9.6998,9.6998;}
	.st555{fill:#1C9FBC;}
	.st556{fill:#8DC63F;}
	.st557{fill:#EE362E;}
	.st558{fill:#06070B;}
	.st559{fill:#FFD600;}
	.st560{fill:none;}
	.st561{fill:#E6C100;}
	.st562{fill:#C20A1B;}
	.st563{fill:#0C93CC;}
	.st564{fill:#F9ED32;}
	.st565{fill:#C2C918;}
	.st566{fill:#CC0000;}
	.st567{fill:#414042;}
	.st568{opacity:0.1;fill:url(#SVGID_513_);}
	.st569{opacity:0.13;fill:url(#SVGID_514_);}
	.st570{opacity:0.21;fill:url(#SVGID_515_);}
	.st571{fill:#C7181E;}
	.st572{fill:url(#SVGID_516_);}
	.st573{fill:url(#SVGID_517_);}
	.st574{fill:url(#SVGID_518_);}
	.st575{fill:#EF0E00;}
	.st576{fill:url(#SVGID_519_);}
	.st577{fill:#EC008C;}
	.st578{fill:#00ABE6;}
	.st579{fill:#00A8E0;}
	.st580{fill:#BE0012;}
	.st581{fill:#FFF200;}
	.st582{fill:#DA1C5C;}
	.st583{fill:url(#SVGID_520_);}
	.st584{fill:url(#SVGID_521_);}
	.st585{fill:url(#SVGID_522_);}
	.st586{fill:url(#SVGID_523_);}
	.st587{fill:url(#SVGID_524_);}
	.st588{fill:url(#SVGID_525_);}
	.st589{fill:url(#SVGID_526_);}
	.st590{clip-path:url(#SVGID_528_);fill:#B0A724;}
	.st591{clip-path:url(#SVGID_528_);fill:#41D155;}
	.st592{clip-path:url(#SVGID_528_);}
	.st593{fill:#27AAE1;}
	.st594{clip-path:url(#SVGID_530_);}
	.st595{fill:#41D155;}
	.st596{fill:#B0A724;}
	.st597{fill:#D41920;}
	.st598{clip-path:url(#SVGID_532_);}
	.st599{clip-path:url(#SVGID_534_);}
	.st600{fill:#00A651;}
	.st601{fill:#262262;}
	.st602{fill:#EE2A7B;}
	.st603{fill:url(#SVGID_535_);}
	.st604{fill:url(#SVGID_536_);}
	.st605{fill:url(#SVGID_537_);}
	.st606{fill:#FFFFFF;stroke:#231F20;stroke-miterlimit:10;}
	.st607{fill:url(#SVGID_538_);}
	.st608{fill:url(#SVGID_539_);}
	.st609{fill:url(#SVGID_540_);}
	.st610{fill:url(#SVGID_541_);}
	.st611{fill:url(#SVGID_542_);}
	.st612{fill:url(#SVGID_543_);}
	.st613{fill:url(#SVGID_544_);}
	.st614{fill:url(#SVGID_545_);}
	.st615{fill:url(#SVGID_546_);}
	.st616{fill:url(#SVGID_547_);}
	.st617{fill:url(#SVGID_548_);}
	.st618{fill:url(#SVGID_549_);}
	.st619{fill:url(#SVGID_550_);}
	.st620{fill:url(#SVGID_551_);}
	.st621{fill:url(#SVGID_552_);}
	.st622{fill:#EC1C24;}
	.st623{fill:#FFFF00;}
	.st624{opacity:0.47;fill:url(#SVGID_553_);}
	.st625{fill:#009444;}
	.st626{fill:#006930;}
	.st627{fill:#28B066;}
	.st628{fill:#FBB040;}
	.st629{opacity:0.5;fill:#FBE7C9;}
	.st630{opacity:0.49;fill:#FBD69E;}
	.st631{opacity:0.44;fill:#FBD69E;}
	.st632{fill:#FBD69E;}
	.st633{fill:#BD7A13;}
	.st634{opacity:0.45;fill:#FFFFFF;}
	.st635{opacity:0.25;fill:#EBB35E;}
	.st636{opacity:0.24;fill:#9E6715;}
	.st637{opacity:0.14;fill:#F2C16F;}
	.st638{fill:#F2C16F;}
	.st639{fill:#F2D096;}
	.st640{opacity:0.48;fill:url(#SVGID_554_);}
	.st641{opacity:0.48;fill:url(#SVGID_555_);}
	.st642{fill:#83C5E1;}
	.st643{fill:url(#SVGID_556_);}
	.st644{fill:url(#SVGID_557_);}
	.st645{fill:url(#SVGID_558_);}
	.st646{fill:url(#SVGID_559_);}
	.st647{fill:url(#SVGID_560_);}
	.st648{fill:url(#SVGID_561_);}
	.st649{fill:url(#SVGID_562_);}
	.st650{fill:url(#SVGID_563_);}
	.st651{opacity:0.5;fill:url(#SVGID_564_);}
	.st652{opacity:0.59;fill:url(#SVGID_565_);}
	.st653{fill:url(#SVGID_566_);}
	.st654{fill:url(#SVGID_567_);}
	.st655{fill:#F15A2A;}
	.st656{fill:#1C75BC;}
	.st657{fill:none;stroke:#FFFFFF;stroke-width:0.5;stroke-miterlimit:10;stroke-dasharray:5.161,5.161;}
	.st658{fill:url(#SVGID_568_);}
	.st659{fill:#C49A6C;}
	.st660{fill:#9B8579;}
	.st661{fill:#3C2415;}
	.st662{fill:#8B5E3C;}
	.st663{fill:#754C29;}
	.st664{fill:url(#SVGID_569_);}
	.st665{fill:url(#SVGID_570_);}
	.st666{opacity:0.49;fill:url(#SVGID_571_);}
	.st667{fill:#100717;}
	.st668{fill:#532475;}
	.st669{fill:#421D5E;}
	.st670{fill:#3D1B57;}
	.st671{fill:#2D1440;}
	.st672{fill:#29123B;}
	.st673{fill:#1A0B24;}
	.st674{fill:#241030;}
	.st675{fill:url(#SVGID_572_);}
	.st676{fill:url(#SVGID_573_);}
	.st677{fill:#EE2D24;}
	.st678{fill:#F7921E;}
	.st679{fill:#B4D433;}
	.st680{fill:#009CB3;}
	.st681{opacity:0.19;fill:#D1D3D4;}
	.st682{opacity:0.19;fill:#BCBEC0;}
	.st683{fill:url(#SVGID_574_);}
	.st684{fill:#939598;}
	.st685{fill:url(#SVGID_575_);}
	.st686{fill:#592800;}
	.st687{fill:#08B795;}
	.st688{fill:#0548A8;}
	.st689{fill:#1CB7F4;}
	.st690{fill:#9217BA;}
	.st691{fill:#2798DE;}
	.st692{fill:#808080;}
	.st693{fill:#006699;}
	.st694{fill:#EF521B;}
	.st695{fill:url(#SVGID_576_);}
	.st696{fill:url(#SVGID_577_);}
	.st697{fill:#F15A29;}
	.st698{fill:#64D4F2;}
	.st699{fill:#FF5450;}
	.st700{fill:url(#SVGID_578_);}
	.st701{fill:url(#SVGID_579_);}
	.st702{opacity:0.32;fill:url(#SVGID_580_);}
	.st703{fill:#BE1E2D;}
	.st704{fill:#F0B60C;}
	.st705{fill:#0063CD;}
	.st706{fill:#008F3F;}
	.st707{fill:#EB0104;}
	.st708{fill:#FEFEFE;}
	.st709{fill:#E0D62D;}
	.st710{fill:#664224;}
	.st711{fill:#4D321B;}
	.st712{fill:#A31A26;}
	.st713{fill:#7A131D;}
	.st714{fill:#C9C028;}
	.st715{fill:#C2B59B;}
	.st716{fill:none;stroke:#27AAE1;stroke-miterlimit:10;}
	.st717{fill:#DED32D;}
	.st718{fill:#A11A26;}
	.st719{fill:#7D6A61;}
	.st720{fill:#665750;}
	.st721{fill:#871520;}
	.st722{fill:#6D6E71;}
	.st723{fill:#ED1C24;}
	.st724{clip-path:url(#SVGID_582_);}
	.st725{opacity:0.49;fill:url(#SVGID_583_);}
	.st726{opacity:0.61;fill:url(#SVGID_584_);}
	.st727{fill:url(#SVGID_585_);}
	.st728{fill-rule:evenodd;clip-rule:evenodd;fill:#FFFFFF;}
	.st729{fill:none;stroke:#FFFFFF;stroke-width:6;stroke-miterlimit:10;}
	.st730{fill:#00AEEF;}
	.st731{clip-path:url(#SVGID_587_);}
	.st732{fill:#3E3E3E;}
	.st733{opacity:0.49;fill:url(#SVGID_588_);}
	.st734{opacity:0.61;fill:url(#SVGID_589_);}
	.st735{fill:#27A043;}
	.st736{fill:#B5D546;}
	.st737{fill:#59B048;}
	.st738{fill:#3E8C3C;}
	.st739{fill:#DAE23D;}
	.st740{fill:#72BD46;}
	.st741{fill:#B1D13F;}
	.st742{fill:#B5D242;}
	.st743{fill:#A5BF3C;}
	.st744{fill:#5AB349;}
	.st745{fill:#FFFEFF;}
	.st746{fill:#005610;}
	.st747{fill:#E6E7E8;stroke:#000000;stroke-miterlimit:10;}
	.st748{fill:#DAE435;}
	.st749{fill:#80C84A;}
	.st750{fill:#F8EC32;}
	.st751{opacity:0.27;fill:url(#SVGID_590_);}
	.st752{clip-path:url(#SVGID_592_);}
	.st753{opacity:0.49;fill:url(#SVGID_593_);}
	.st754{opacity:0.61;fill:url(#SVGID_594_);}
	.st755{fill:#D0D2D3;}
	.st756{fill:#F0F1F1;}
	.st757{fill:#E5E6E7;}
	.st758{fill:#BBBDBF;}
	.st759{clip-path:url(#SVGID_596_);}
	.st760{opacity:0.49;fill:url(#SVGID_597_);}
	.st761{opacity:0.61;fill:url(#SVGID_598_);}
	.st762{fill:url(#SVGID_599_);}
	.st763{fill:url(#SVGID_600_);}
	.st764{fill:url(#SVGID_601_);}
	.st765{fill:url(#SVGID_602_);}
	.st766{fill:url(#SVGID_603_);}
	.st767{fill:#545454;}
	.st768{fill:#FBD400;}
	.st769{fill:#FBAE06;}
	.st770{fill:url(#SVGID_604_);}
	.st771{fill:#00FEF7;}
	.st772{fill:#6EFDC9;}
	.st773{fill:url(#SVGID_605_);}
	.st774{fill:#FF81B5;}
	.st775{fill:#FF7A94;}
	.st776{fill:url(#SVGID_606_);}
	.st777{fill:#789EC1;}
	.st778{fill:#2583B6;}
	.st779{fill:url(#SVGID_607_);}
	.st780{fill:url(#SVGID_608_);}
	.st781{fill:url(#SVGID_609_);}
	.st782{fill:url(#SVGID_610_);}
	.st783{fill:url(#SVGID_611_);}
	.st784{fill:url(#SVGID_612_);}
	.st785{fill:none;stroke:#FFFFFF;stroke-width:0.9529;stroke-miterlimit:10;}
	.st786{fill:url(#SVGID_613_);}
	.st787{fill:none;stroke:#000000;stroke-width:2;stroke-miterlimit:10;}
</style>
<g id="Layer_3">
</g>
<g id="Layer_1" class="st0">
</g>
<g id="Layer_1_copy">
	<g id="Volume_High_-_Orange">
	</g>
	<g id="Email_-_Grey">
	</g>
	<g>
		<path d="M204.66,0C91.63,0,0,91.63,0,204.66c0,113.03,91.63,204.66,204.66,204.66c113.03,0,204.66-91.63,204.66-204.66
			C409.31,91.63,317.68,0,204.66,0z M261.31,292.65c-18.41,0-35.5-5.66-49.63-15.33c7.38-6.47,13.77-14.05,18.91-22.47
			c8.94,5.48,19.47,8.65,30.73,8.65c32.5,0,58.85-26.35,58.85-58.85c0-32.5-26.35-58.85-58.85-58.85
			c-15.52,0-29.63,6.01-40.15,15.83v12.98c0.09-0.12,0.17-0.24,0.26-0.35v78.9c-0.09,0.13-0.18,0.25-0.26,0.38v0.33h-0.22
			c-15.81,23.39-42.57,38.78-72.94,38.78c-48.6,0-87.99-39.4-87.99-87.99s39.4-87.99,87.99-87.99c18.41,0,35.5,5.66,49.63,15.33
			c-7.38,6.47-13.77,14.05-18.9,22.46c-8.94-5.48-19.47-8.65-30.73-8.65c-32.5,0-58.85,26.35-58.85,58.85
			c0,32.5,26.35,58.85,58.85,58.85c17.51,0,33.24-7.65,44.02-19.8v-14.99v-78.1v-0.2c16.11-20.55,41.16-33.75,69.29-33.75
			c48.6,0,88,39.4,88,87.99S309.91,292.65,261.31,292.65z"/>
		<path d="M471.55,206.98c4.36,4.74,9.65,8.3,15.88,10.69c6.22,2.39,13.2,3.58,20.94,3.58c3.95,0,7.63-0.32,11.03-0.96
			c3.4-0.64,6.43-1.44,9.08-2.4c2.64-0.96,4.88-1.96,6.71-3.01c1.83-1.05,3.07-1.91,3.71-2.57c0.64-0.67,1.1-1.27,1.4-1.79
			c0.29-0.52,0.52-1.15,0.7-1.88c0.18-0.72,0.31-1.6,0.39-2.62c0.09-1.02,0.13-2.25,0.13-3.71c0-2.09-0.06-3.77-0.18-5.02
			c-0.12-1.25-0.29-2.22-0.52-2.92c-0.23-0.7-0.52-1.16-0.87-1.4c-0.35-0.23-0.81-0.35-1.39-0.35c-0.76,0-1.82,0.47-3.18,1.4
			c-1.37,0.93-3.11,1.98-5.23,3.14c-2.12,1.16-4.67,2.22-7.64,3.19c-2.97,0.96-6.48,1.44-10.55,1.44c-4.48,0-8.51-0.77-12.09-2.31
			c-3.57-1.54-6.63-3.88-9.16-7.02c-2.53-3.14-4.48-7.14-5.85-12c-1.37-4.86-2.05-10.6-2.05-17.23c0-6.05,0.64-11.49,1.92-16.31
			c1.28-4.83,3.15-8.94,5.63-12.34c2.47-3.4,5.47-6.02,8.99-7.85c3.52-1.83,7.51-2.75,11.99-2.75c4.07,0,7.58,0.51,10.51,1.52
			c2.94,1.02,5.47,2.15,7.59,3.4c2.12,1.25,3.85,2.39,5.19,3.4c1.34,1.02,2.44,1.53,3.32,1.53c0.52,0,0.99-0.18,1.39-0.52
			c0.41-0.35,0.76-0.9,1.05-1.66c0.29-0.76,0.49-1.74,0.61-2.97c0.11-1.22,0.18-2.7,0.18-4.45c0-1.63-0.04-3-0.13-4.1
			c-0.09-1.1-0.22-2.06-0.39-2.88c-0.18-0.81-0.41-1.48-0.7-2c-0.29-0.52-0.83-1.18-1.61-1.96c-0.78-0.79-2.17-1.73-4.14-2.84
			c-1.98-1.1-4.2-2.08-6.68-2.92c-2.47-0.84-5.16-1.52-8.07-2.05c-2.91-0.52-5.93-0.79-9.07-0.79c-7.74,0-14.82,1.31-21.24,3.93
			c-6.43,2.62-11.94,6.46-16.53,11.52c-4.6,5.06-8.17,11.31-10.73,18.76c-2.56,7.45-3.84,15.96-3.84,25.56
			c0,9.42,1.16,17.68,3.49,24.78C463.85,196.33,467.19,202.25,471.55,206.98z"/>
		<path d="M560.45,218.98c0.87,0.29,2.05,0.52,3.54,0.7c1.48,0.17,3.32,0.26,5.54,0.26c2.27,0,4.13-0.09,5.58-0.26
			c1.45-0.17,2.62-0.41,3.49-0.7c0.87-0.29,1.49-0.67,1.83-1.13c0.35-0.47,0.52-0.99,0.52-1.57v-45.63h42.23v45.63
			c0,0.58,0.19,1.11,0.56,1.57c0.38,0.47,0.99,0.84,1.84,1.13c0.84,0.29,2,0.52,3.49,0.7c1.48,0.17,3.36,0.26,5.63,0.26
			c2.21,0,4.04-0.09,5.5-0.26c1.46-0.17,2.62-0.41,3.49-0.7c0.87-0.29,1.49-0.67,1.87-1.13c0.38-0.47,0.57-0.99,0.57-1.57V109.67
			c0-0.58-0.19-1.1-0.57-1.57c-0.38-0.47-1-0.84-1.87-1.14c-0.87-0.29-2.04-0.52-3.49-0.7c-1.45-0.18-3.28-0.26-5.5-0.26
			c-2.27,0-4.14,0.09-5.63,0.26c-1.48,0.17-2.65,0.41-3.49,0.7c-0.85,0.29-1.46,0.67-1.84,1.14c-0.38,0.47-0.56,0.99-0.56,1.57
			v41.44h-42.23v-41.44c0-0.58-0.18-1.1-0.52-1.57c-0.35-0.47-0.96-0.84-1.83-1.14c-0.87-0.29-2.04-0.52-3.49-0.7
			c-1.46-0.18-3.32-0.26-5.58-0.26c-2.22,0-4.06,0.09-5.54,0.26c-1.49,0.17-2.66,0.41-3.54,0.7c-0.87,0.29-1.5,0.67-1.87,1.14
			c-0.38,0.47-0.57,0.99-0.57,1.57v106.61c0,0.58,0.19,1.11,0.57,1.57C558.96,218.31,559.58,218.69,560.45,218.98z"/>
		<path d="M677.53,219.41h56.71c0.52,0,1-0.16,1.44-0.48c0.44-0.32,0.8-0.83,1.09-1.52c0.29-0.7,0.51-1.61,0.66-2.75
			c0.14-1.13,0.22-2.54,0.22-4.23c0-1.69-0.07-3.1-0.22-4.23c-0.15-1.14-0.36-2.05-0.66-2.75c-0.29-0.7-0.65-1.21-1.09-1.53
			c-0.44-0.32-0.92-0.48-1.44-0.48h-40.66V169.6h34.11c0.52,0,1.01-0.14,1.44-0.44c0.44-0.29,0.8-0.77,1.09-1.44
			c0.29-0.67,0.51-1.56,0.66-2.66c0.14-1.1,0.22-2.5,0.22-4.19c0-1.63-0.07-3.01-0.22-4.15c-0.14-1.13-0.36-2.03-0.66-2.7
			c-0.29-0.67-0.65-1.16-1.09-1.49c-0.43-0.32-0.91-0.48-1.44-0.48h-34.11V124.5h40.31c0.52,0,0.99-0.16,1.4-0.48
			c0.41-0.32,0.76-0.83,1.04-1.53c0.29-0.7,0.51-1.61,0.66-2.75c0.14-1.14,0.22-2.52,0.22-4.14c0-1.75-0.07-3.19-0.22-4.32
			c-0.15-1.13-0.36-2.06-0.66-2.79c-0.29-0.73-0.64-1.24-1.04-1.53c-0.41-0.29-0.87-0.44-1.4-0.44h-56.36
			c-1.92,0-3.53,0.57-4.84,1.7c-1.31,1.13-1.97,2.98-1.97,5.54v98.41c0,2.56,0.66,4.4,1.97,5.54
			C673.99,218.85,675.61,219.41,677.53,219.41z"/>
		<path d="M763.37,206.98c4.36,4.74,9.65,8.3,15.88,10.69c6.22,2.39,13.2,3.58,20.94,3.58c3.95,0,7.63-0.32,11.04-0.96
			c3.4-0.64,6.43-1.44,9.07-2.4c2.65-0.96,4.88-1.96,6.71-3.01c1.84-1.05,3.07-1.91,3.71-2.57c0.64-0.67,1.1-1.27,1.4-1.79
			c0.29-0.52,0.52-1.15,0.7-1.88c0.18-0.72,0.31-1.6,0.39-2.62c0.09-1.02,0.13-2.25,0.13-3.71c0-2.09-0.06-3.77-0.17-5.02
			c-0.11-1.25-0.29-2.22-0.52-2.92c-0.23-0.7-0.52-1.16-0.88-1.4c-0.35-0.23-0.81-0.35-1.39-0.35c-0.76,0-1.82,0.47-3.18,1.4
			c-1.37,0.93-3.11,1.98-5.23,3.14c-2.12,1.16-4.67,2.22-7.64,3.19c-2.96,0.96-6.48,1.44-10.55,1.44c-4.48,0-8.51-0.77-12.08-2.31
			c-3.58-1.54-6.63-3.88-9.16-7.02s-4.48-7.14-5.84-12c-1.37-4.86-2.05-10.6-2.05-17.23c0-6.05,0.64-11.49,1.92-16.31
			c1.28-4.83,3.15-8.94,5.63-12.34c2.47-3.4,5.47-6.02,8.99-7.85c3.52-1.83,7.51-2.75,11.99-2.75c4.07,0,7.58,0.51,10.51,1.52
			c2.93,1.02,5.46,2.15,7.59,3.4c2.12,1.25,3.85,2.39,5.19,3.4c1.34,1.02,2.44,1.53,3.31,1.53c0.52,0,0.99-0.18,1.4-0.52
			c0.41-0.35,0.76-0.9,1.05-1.66c0.29-0.76,0.49-1.74,0.61-2.97c0.11-1.22,0.18-2.7,0.18-4.45c0-1.63-0.04-3-0.13-4.1
			c-0.09-1.1-0.22-2.06-0.39-2.88c-0.18-0.81-0.41-1.48-0.7-2c-0.29-0.52-0.83-1.18-1.61-1.96c-0.78-0.79-2.17-1.73-4.14-2.84
			c-1.98-1.1-4.2-2.08-6.67-2.92c-2.47-0.84-5.16-1.52-8.07-2.05c-2.91-0.52-5.93-0.79-9.07-0.79c-7.74,0-14.82,1.31-21.24,3.93
			c-6.43,2.62-11.94,6.46-16.53,11.52c-4.6,5.06-8.17,11.31-10.73,18.76c-2.56,7.45-3.84,15.96-3.84,25.56
			c0,9.42,1.16,17.68,3.49,24.78C755.66,196.33,759.01,202.25,763.37,206.98z"/>
		<path d="M852.27,218.93c0.87,0.32,2.05,0.57,3.53,0.74c1.48,0.17,3.33,0.26,5.54,0.26c2.27,0,4.13-0.09,5.58-0.26
			c1.46-0.17,2.62-0.42,3.49-0.74c0.87-0.32,1.49-0.71,1.84-1.18c0.35-0.46,0.52-1.02,0.52-1.66v-53.56l34.11,53.56
			c0.41,0.82,0.97,1.51,1.7,2.1c0.72,0.58,1.92,1.02,3.58,1.31c1.66,0.29,4.38,0.44,8.16,0.44c2.39,0,4.36-0.09,5.93-0.26
			c1.57-0.17,2.81-0.42,3.71-0.74c0.9-0.32,1.51-0.72,1.83-1.22c0.32-0.49,0.48-1.06,0.48-1.7c0-0.47-0.13-1.09-0.39-1.87
			c-0.26-0.79-1.03-2.37-2.31-4.76l-33.76-51.03l30.97-40.57c1.46-2.27,2.44-3.93,2.97-4.97c0.52-1.05,0.79-2.06,0.79-3.05
			c0-0.58-0.18-1.1-0.52-1.57c-0.35-0.46-0.97-0.86-1.87-1.18c-0.9-0.32-2.11-0.57-3.62-0.74c-1.51-0.18-3.43-0.26-5.76-0.26
			c-2.27,0-4.13,0.06-5.58,0.17c-1.46,0.12-2.65,0.32-3.58,0.61c-0.93,0.29-1.69,0.69-2.27,1.18c-0.58,0.49-1.07,1.12-1.48,1.87
			l-33.06,47.98v-48.07c0-0.64-0.18-1.19-0.52-1.66c-0.35-0.47-0.96-0.84-1.84-1.14c-0.87-0.29-2.03-0.52-3.49-0.7
			c-1.46-0.18-3.32-0.26-5.58-0.26c-2.21,0-4.06,0.09-5.54,0.26c-1.49,0.17-2.66,0.41-3.53,0.7c-0.87,0.29-1.5,0.67-1.87,1.14
			c-0.38,0.47-0.57,1.02-0.57,1.66V216.1c0,0.64,0.19,1.19,0.57,1.66C850.77,218.22,851.4,218.62,852.27,218.93z"/>
		<path d="M994.73,219.41h26.96c10,0,18.62-1.09,25.87-3.27c7.24-2.18,13.39-5.6,18.45-10.25c5.06-4.65,8.94-10.66,11.64-18.02
			c2.71-7.36,4.06-16.21,4.06-26.56c0-8.96-1.25-16.84-3.75-23.64c-2.5-6.81-6.15-12.52-10.95-17.14
			c-4.8-4.62-10.7-8.11-17.71-10.47c-7.01-2.35-15.54-3.53-25.6-3.53h-28.97c-1.92,0-3.53,0.57-4.84,1.7
			c-1.31,1.13-1.96,2.98-1.96,5.54v98.41c0,2.56,0.65,4.4,1.96,5.54C991.2,218.85,992.81,219.41,994.73,219.41z M1010.78,124.5h11.6
			c7.04,0,12.72,0.95,17.06,2.84c4.33,1.89,7.88,4.52,10.65,7.89c2.76,3.37,4.77,7.36,6.02,11.95c1.25,4.6,1.87,9.57,1.87,14.92
			c0,6.51-0.71,12.22-2.14,17.1c-1.43,4.89-3.58,8.97-6.46,12.26c-2.88,3.29-6.47,5.75-10.77,7.37c-4.31,1.63-9.6,2.44-15.88,2.44
			h-11.95V124.5z"/>
		<path d="M1178.46,197.3c-0.11-1.25-0.29-2.22-0.52-2.92c-0.23-0.7-0.52-1.16-0.87-1.4c-0.35-0.23-0.82-0.35-1.39-0.35
			c-0.76,0-1.82,0.47-3.18,1.4c-1.37,0.93-3.11,1.98-5.23,3.14c-2.12,1.16-4.67,2.22-7.64,3.19c-2.96,0.96-6.48,1.44-10.56,1.44
			c-4.48,0-8.51-0.77-12.08-2.31c-3.58-1.54-6.63-3.88-9.16-7.02s-4.48-7.14-5.84-12c-1.37-4.86-2.05-10.6-2.05-17.23
			c0-6.05,0.64-11.49,1.92-16.31c1.28-4.83,3.15-8.94,5.63-12.34c2.47-3.4,5.47-6.02,8.99-7.85c3.52-1.83,7.51-2.75,11.99-2.75
			c4.07,0,7.58,0.51,10.51,1.52c2.93,1.02,5.46,2.15,7.59,3.4c2.12,1.25,3.85,2.39,5.19,3.4c1.34,1.02,2.44,1.53,3.31,1.53
			c0.52,0,0.99-0.18,1.4-0.52c0.41-0.35,0.76-0.9,1.05-1.66c0.29-0.76,0.49-1.74,0.61-2.97c0.11-1.22,0.17-2.7,0.17-4.45
			c0-1.63-0.04-3-0.13-4.1c-0.09-1.1-0.22-2.06-0.39-2.88c-0.18-0.81-0.41-1.48-0.7-2c-0.29-0.52-0.83-1.18-1.61-1.96
			c-0.79-0.79-2.17-1.73-4.15-2.84c-1.98-1.1-4.2-2.08-6.67-2.92c-2.47-0.84-5.16-1.52-8.07-2.05c-2.91-0.52-5.93-0.79-9.07-0.79
			c-7.74,0-14.82,1.31-21.24,3.93c-6.43,2.62-11.94,6.46-16.53,11.52c-4.59,5.06-8.17,11.31-10.73,18.76
			c-2.56,7.45-3.84,15.96-3.84,25.56c0,9.42,1.16,17.68,3.49,24.78c2.33,7.1,5.67,13.02,10.04,17.75c4.36,4.74,9.65,8.3,15.88,10.69
			c6.22,2.39,13.2,3.58,20.94,3.58c3.95,0,7.63-0.32,11.04-0.96c3.4-0.64,6.42-1.44,9.07-2.4c2.65-0.96,4.88-1.96,6.72-3.01
			c1.83-1.05,3.07-1.91,3.71-2.57c0.64-0.67,1.1-1.27,1.4-1.79c0.29-0.52,0.52-1.15,0.7-1.88c0.17-0.72,0.31-1.6,0.39-2.62
			c0.09-1.02,0.13-2.25,0.13-3.71C1178.63,200.22,1178.58,198.55,1178.46,197.3z"/>
		<rect x="451.14" y="248.67" width="692.1" height="3.01"/>
		<path d="M478.92,299.49c-1.06-1.02-2.27-1.92-3.62-2.67c-1.35-0.75-2.72-1.46-4.12-2.11c-1.4-0.66-2.77-1.31-4.12-1.97
			c-1.35-0.66-2.55-1.39-3.62-2.21s-1.92-1.75-2.56-2.82c-0.64-1.06-0.97-2.34-0.97-3.82c0-1.01,0.18-1.98,0.54-2.89
			c0.36-0.92,0.9-1.71,1.62-2.39c0.72-0.68,1.62-1.22,2.71-1.61c1.09-0.39,2.36-0.59,3.82-0.59c1.49,0,2.81,0.18,3.97,0.54
			c1.16,0.36,2.16,0.76,3,1.21c0.84,0.45,1.54,0.85,2.1,1.21c0.56,0.36,0.97,0.54,1.24,0.54c0.15,0,0.28-0.05,0.39-0.15
			c0.11-0.1,0.21-0.24,0.28-0.43c0.08-0.19,0.13-0.41,0.17-0.67c0.04-0.26,0.05-0.55,0.05-0.87c0-0.34-0.01-0.64-0.04-0.87
			c-0.02-0.24-0.06-0.44-0.11-0.61c-0.05-0.17-0.11-0.31-0.17-0.43c-0.06-0.11-0.21-0.29-0.44-0.52c-0.24-0.24-0.72-0.54-1.45-0.93
			c-0.73-0.38-1.56-0.73-2.49-1.04c-0.93-0.31-1.91-0.56-2.95-0.76c-1.04-0.2-2.07-0.3-3.08-0.3c-2.03,0-3.89,0.27-5.58,0.82
			c-1.7,0.54-3.15,1.33-4.36,2.35c-1.21,1.03-2.15,2.27-2.82,3.75c-0.67,1.47-1,3.13-1,4.99c0,1.91,0.32,3.55,0.97,4.93
			c0.64,1.39,1.49,2.59,2.54,3.62c1.05,1.03,2.24,1.92,3.58,2.69c1.34,0.77,2.7,1.48,4.1,2.13c1.39,0.66,2.76,1.31,4.1,1.97
			c1.34,0.66,2.53,1.39,3.58,2.19c1.05,0.8,1.9,1.74,2.54,2.8c0.64,1.06,0.96,2.34,0.96,3.82c0,1.43-0.25,2.71-0.76,3.84
			c-0.51,1.13-1.22,2.07-2.14,2.84c-0.91,0.77-2,1.35-3.26,1.76c-1.26,0.41-2.65,0.61-4.15,0.61c-1.85,0-3.48-0.22-4.88-0.65
			c-1.4-0.43-2.6-0.9-3.6-1.41c-1-0.51-1.82-0.98-2.45-1.41c-0.63-0.43-1.12-0.65-1.46-0.65c-0.15,0-0.29,0.03-0.43,0.09
			c-0.14,0.06-0.24,0.18-0.33,0.35c-0.09,0.18-0.16,0.4-0.2,0.67c-0.05,0.27-0.08,0.62-0.08,1.04c0,0.57,0.06,1.04,0.19,1.43
			c0.13,0.39,0.32,0.72,0.59,1c0.28,0.28,0.77,0.63,1.5,1.04c0.73,0.41,1.63,0.81,2.69,1.21c1.06,0.4,2.28,0.74,3.63,1.02
			c1.36,0.28,2.8,0.42,4.34,0.42c2.25,0,4.33-0.31,6.23-0.93c1.91-0.62,3.55-1.51,4.93-2.69c1.38-1.17,2.46-2.6,3.23-4.28
			c0.77-1.68,1.15-3.59,1.15-5.71c0-1.88-0.32-3.51-0.96-4.88C480.84,301.72,479.99,300.52,478.92,299.49z"/>
		<path d="M506.78,289.61c0.32,0,0.59-0.16,0.8-0.46c0.21-0.31,0.32-0.77,0.32-1.39c0-0.32-0.02-0.6-0.07-0.83
			c-0.05-0.24-0.12-0.43-0.22-0.59c-0.1-0.16-0.22-0.28-0.35-0.35c-0.14-0.08-0.29-0.11-0.46-0.11h-9.27v-8.24
			c0-0.15-0.04-0.28-0.11-0.41c-0.07-0.12-0.19-0.23-0.36-0.31c-0.16-0.09-0.38-0.15-0.67-0.19c-0.28-0.04-0.65-0.06-1.09-0.06
			c-0.42,0-0.78,0.02-1.06,0.06c-0.28,0.04-0.51,0.1-0.69,0.19c-0.17,0.09-0.29,0.19-0.35,0.31c-0.06,0.13-0.09,0.26-0.09,0.41v8.24
			h-5.01c-0.17,0-0.33,0.04-0.46,0.11c-0.14,0.07-0.25,0.19-0.35,0.35c-0.1,0.16-0.18,0.36-0.22,0.59
			c-0.05,0.23-0.08,0.51-0.08,0.83c0,0.62,0.1,1.08,0.3,1.39c0.2,0.31,0.47,0.46,0.81,0.46h5.01v20.88c0,1.88,0.17,3.51,0.5,4.9
			c0.34,1.39,0.87,2.53,1.61,3.43c0.74,0.9,1.69,1.58,2.86,2.02c1.16,0.44,2.57,0.67,4.23,0.67c0.49,0,1-0.03,1.52-0.09
			c0.52-0.06,1.01-0.15,1.48-0.26c0.47-0.11,0.88-0.25,1.24-0.41c0.36-0.16,0.63-0.34,0.81-0.52c0.19-0.19,0.32-0.44,0.41-0.76
			c0.09-0.32,0.13-0.74,0.13-1.26c0-0.32-0.02-0.59-0.06-0.8c-0.04-0.21-0.09-0.38-0.15-0.52c-0.06-0.14-0.14-0.23-0.24-0.28
			c-0.1-0.05-0.21-0.07-0.34-0.07c-0.19,0-0.43,0.06-0.69,0.19c-0.26,0.12-0.57,0.26-0.94,0.41c-0.37,0.15-0.8,0.29-1.28,0.41
			c-0.48,0.13-1.02,0.19-1.61,0.19c-1.93,0-3.26-0.67-3.99-2c-0.73-1.34-1.1-3.28-1.1-5.83v-20.29H506.78z"/>
		<path d="M536.44,288.49c-0.98-1.04-2.26-1.84-3.84-2.39c-1.58-0.56-3.52-0.84-5.82-0.84c-1.19,0-2.37,0.11-3.56,0.33
			c-1.19,0.22-2.29,0.51-3.32,0.87c-1.02,0.36-1.94,0.75-2.72,1.17c-0.79,0.42-1.34,0.79-1.65,1.09c-0.31,0.31-0.5,0.62-0.57,0.93
			c-0.07,0.31-0.11,0.72-0.11,1.24c0,0.29,0.02,0.55,0.06,0.76c0.04,0.21,0.1,0.39,0.19,0.52c0.09,0.14,0.19,0.23,0.31,0.28
			c0.12,0.05,0.26,0.07,0.41,0.07c0.25,0,0.66-0.18,1.24-0.54c0.58-0.36,1.32-0.76,2.21-1.21c0.89-0.45,1.93-0.85,3.11-1.21
			c1.19-0.36,2.52-0.54,4.01-0.54c1.53,0,2.83,0.18,3.9,0.56c1.06,0.37,1.93,0.93,2.6,1.67c0.67,0.74,1.15,1.66,1.45,2.76
			c0.3,1.1,0.45,2.37,0.45,3.8v2.89h-5.35c-2.42,0-4.62,0.23-6.6,0.69c-1.98,0.46-3.67,1.14-5.08,2.06
			c-1.41,0.92-2.5,2.06-3.26,3.43s-1.15,2.99-1.15,4.84c0,1.51,0.26,2.87,0.78,4.08c0.52,1.21,1.26,2.24,2.23,3.1
			c0.96,0.86,2.14,1.51,3.54,1.97c1.4,0.46,2.98,0.69,4.73,0.69c1.95,0,3.84-0.44,5.66-1.34c1.82-0.89,3.48-2.15,4.99-3.78v3.75
			c0,0.25,0.08,0.44,0.24,0.57c0.16,0.14,0.39,0.24,0.69,0.3c0.3,0.06,0.66,0.09,1.08,0.09c0.44,0,0.8-0.03,1.06-0.09
			c0.26-0.06,0.47-0.16,0.63-0.3c0.16-0.14,0.24-0.33,0.24-0.57v-22.7c0-1.93-0.21-3.65-0.63-5.17S537.42,289.53,536.44,288.49z
			 M534.76,312.27c-1.71,1.88-3.32,3.27-4.84,4.17c-1.52,0.9-3.16,1.35-4.92,1.35c-2.23,0-3.95-0.57-5.18-1.72
			c-1.22-1.15-1.84-2.69-1.84-4.62c0-1.11,0.22-2.1,0.65-2.97c0.43-0.87,1.09-1.61,1.99-2.23c0.89-0.62,2-1.09,3.34-1.41
			c1.33-0.32,2.89-0.48,4.67-0.48h6.12V312.27z"/>
		<path d="M569.94,286.88c-0.04-0.14-0.08-0.25-0.13-0.33c-0.05-0.09-0.14-0.19-0.29-0.3c-0.15-0.11-0.41-0.24-0.8-0.37
			c-0.39-0.14-0.82-0.26-1.3-0.35c-0.48-0.1-0.93-0.17-1.35-0.21s-0.79-0.06-1.11-0.06c-0.74,0-1.46,0.09-2.17,0.26
			c-0.71,0.17-1.43,0.5-2.17,0.98c-0.74,0.48-1.52,1.16-2.34,2.02c-0.82,0.87-1.71,2-2.67,3.42v-5.31c0-0.15-0.03-0.28-0.09-0.41
			c-0.06-0.12-0.17-0.23-0.31-0.31c-0.15-0.09-0.36-0.15-0.63-0.19c-0.27-0.04-0.62-0.06-1.04-0.06c-0.42,0-0.76,0.02-1.02,0.06
			c-0.26,0.04-0.47,0.1-0.65,0.19c-0.17,0.09-0.29,0.19-0.35,0.31c-0.06,0.13-0.09,0.26-0.09,0.41v33.57c0,0.15,0.03,0.29,0.09,0.41
			c0.06,0.13,0.18,0.22,0.35,0.3c0.18,0.07,0.4,0.14,0.69,0.19c0.28,0.05,0.64,0.07,1.06,0.07c0.44,0,0.81-0.02,1.09-0.07
			c0.29-0.05,0.51-0.11,0.67-0.19c0.16-0.08,0.28-0.17,0.35-0.3c0.07-0.12,0.11-0.26,0.11-0.41v-22.7c0.94-1.51,1.8-2.78,2.58-3.82
			c0.78-1.04,1.52-1.87,2.22-2.5c0.71-0.63,1.38-1.09,2.02-1.37c0.64-0.29,1.3-0.43,1.97-0.43c0.57,0,1.09,0.06,1.56,0.17
			c0.47,0.11,0.9,0.23,1.3,0.35c0.4,0.13,0.74,0.24,1.04,0.35c0.29,0.11,0.56,0.17,0.78,0.17c0.15,0,0.27-0.04,0.35-0.13
			c0.09-0.09,0.16-0.21,0.22-0.37c0.06-0.16,0.11-0.37,0.13-0.63c0.02-0.26,0.04-0.57,0.04-0.94c0-0.37-0.01-0.67-0.02-0.91
			C570,287.2,569.98,287.01,569.94,286.88z"/>
		<path d="M592.66,289.61c0.32,0,0.59-0.16,0.79-0.46c0.21-0.31,0.32-0.77,0.32-1.39c0-0.32-0.03-0.6-0.08-0.83
			c-0.05-0.24-0.12-0.43-0.22-0.59c-0.1-0.16-0.21-0.28-0.35-0.35c-0.14-0.08-0.29-0.11-0.46-0.11h-9.27v-8.24
			c0-0.15-0.04-0.28-0.11-0.41c-0.07-0.12-0.19-0.23-0.35-0.31c-0.16-0.09-0.38-0.15-0.67-0.19c-0.28-0.04-0.65-0.06-1.09-0.06
			c-0.42,0-0.77,0.02-1.06,0.06c-0.29,0.04-0.51,0.1-0.69,0.19c-0.17,0.09-0.29,0.19-0.35,0.31c-0.06,0.13-0.09,0.26-0.09,0.41v8.24
			h-5.01c-0.17,0-0.33,0.04-0.46,0.11c-0.14,0.07-0.26,0.19-0.35,0.35c-0.1,0.16-0.18,0.36-0.22,0.59
			c-0.05,0.23-0.07,0.51-0.07,0.83c0,0.62,0.1,1.08,0.3,1.39c0.2,0.31,0.47,0.46,0.82,0.46h5.01v20.88c0,1.88,0.17,3.51,0.5,4.9
			c0.34,1.39,0.87,2.53,1.61,3.43c0.74,0.9,1.7,1.58,2.86,2.02c1.16,0.44,2.57,0.67,4.23,0.67c0.49,0,1-0.03,1.52-0.09
			c0.52-0.06,1.01-0.15,1.48-0.26c0.47-0.11,0.89-0.25,1.24-0.41c0.36-0.16,0.63-0.34,0.81-0.52c0.19-0.19,0.32-0.44,0.41-0.76
			c0.09-0.32,0.13-0.74,0.13-1.26c0-0.32-0.02-0.59-0.06-0.8c-0.04-0.21-0.09-0.38-0.15-0.52c-0.06-0.14-0.14-0.23-0.24-0.28
			c-0.1-0.05-0.21-0.07-0.33-0.07c-0.2,0-0.43,0.06-0.69,0.19c-0.26,0.12-0.57,0.26-0.94,0.41c-0.37,0.15-0.8,0.29-1.28,0.41
			c-0.48,0.13-1.02,0.19-1.62,0.19c-1.93,0-3.26-0.67-3.99-2c-0.73-1.34-1.09-3.28-1.09-5.83v-20.29H592.66z"/>
		<path d="M641.33,299.49c-1.06-1.02-2.27-1.92-3.62-2.67c-1.35-0.75-2.72-1.46-4.12-2.11c-1.4-0.66-2.77-1.31-4.12-1.97
			c-1.35-0.66-2.55-1.39-3.62-2.21s-1.92-1.75-2.56-2.82c-0.64-1.06-0.97-2.34-0.97-3.82c0-1.01,0.18-1.98,0.54-2.89
			c0.36-0.92,0.9-1.71,1.61-2.39c0.72-0.68,1.62-1.22,2.71-1.61c1.09-0.39,2.36-0.59,3.82-0.59c1.49,0,2.81,0.18,3.97,0.54
			c1.16,0.36,2.16,0.76,3,1.21c0.84,0.45,1.54,0.85,2.1,1.21c0.56,0.36,0.97,0.54,1.24,0.54c0.15,0,0.28-0.05,0.39-0.15
			c0.11-0.1,0.21-0.24,0.28-0.43c0.07-0.19,0.13-0.41,0.17-0.67c0.04-0.26,0.05-0.55,0.05-0.87c0-0.34-0.01-0.64-0.04-0.87
			c-0.02-0.24-0.06-0.44-0.11-0.61c-0.05-0.17-0.11-0.31-0.17-0.43c-0.06-0.11-0.21-0.29-0.44-0.52c-0.24-0.24-0.72-0.54-1.45-0.93
			c-0.73-0.38-1.56-0.73-2.49-1.04c-0.93-0.31-1.91-0.56-2.95-0.76c-1.04-0.2-2.07-0.3-3.08-0.3c-2.03,0-3.89,0.27-5.58,0.82
			c-1.69,0.54-3.15,1.33-4.36,2.35c-1.21,1.03-2.15,2.27-2.82,3.75c-0.67,1.47-1,3.13-1,4.99c0,1.91,0.32,3.55,0.97,4.93
			c0.64,1.39,1.49,2.59,2.54,3.62c1.05,1.03,2.24,1.92,3.58,2.69c1.34,0.77,2.7,1.48,4.1,2.13c1.4,0.66,2.77,1.31,4.1,1.97
			c1.34,0.66,2.53,1.39,3.58,2.19c1.05,0.8,1.9,1.74,2.54,2.8c0.64,1.06,0.96,2.34,0.96,3.82c0,1.43-0.25,2.71-0.76,3.84
			c-0.51,1.13-1.22,2.07-2.14,2.84c-0.91,0.77-2,1.35-3.27,1.76c-1.26,0.41-2.64,0.61-4.15,0.61c-1.85,0-3.48-0.22-4.88-0.65
			c-1.4-0.43-2.6-0.9-3.6-1.41c-1-0.51-1.82-0.98-2.45-1.41c-0.63-0.43-1.12-0.65-1.46-0.65c-0.15,0-0.29,0.03-0.43,0.09
			c-0.14,0.06-0.25,0.18-0.33,0.35c-0.09,0.18-0.16,0.4-0.2,0.67c-0.05,0.27-0.08,0.62-0.08,1.04c0,0.57,0.06,1.04,0.19,1.43
			c0.13,0.39,0.32,0.72,0.59,1c0.27,0.28,0.77,0.63,1.5,1.04c0.73,0.41,1.63,0.81,2.69,1.21c1.06,0.4,2.27,0.74,3.63,1.02
			c1.36,0.28,2.8,0.42,4.34,0.42c2.25,0,4.33-0.31,6.23-0.93c1.91-0.62,3.55-1.51,4.93-2.69c1.38-1.17,2.46-2.6,3.23-4.28
			c0.77-1.68,1.15-3.59,1.15-5.71c0-1.88-0.32-3.51-0.96-4.88C643.25,301.72,642.39,300.52,641.33,299.49z"/>
		<path d="M679.87,290.03c-1.31-1.55-2.95-2.73-4.92-3.54c-1.97-0.82-4.26-1.22-6.88-1.22c-2.74,0-5.14,0.46-7.2,1.37
			c-2.05,0.92-3.77,2.2-5.14,3.84c-1.37,1.64-2.4,3.59-3.08,5.84c-0.68,2.25-1.02,4.71-1.02,7.38c0,2.77,0.33,5.26,0.99,7.46
			c0.66,2.2,1.64,4.07,2.97,5.62c1.32,1.55,2.97,2.73,4.93,3.56c1.97,0.83,4.26,1.24,6.88,1.24c2.72,0,5.11-0.46,7.16-1.39
			c2.05-0.93,3.77-2.22,5.14-3.88c1.37-1.65,2.4-3.61,3.1-5.86c0.69-2.25,1.04-4.71,1.04-7.38c0-2.74-0.34-5.22-1-7.42
			C682.17,293.45,681.18,291.58,679.87,290.03z M678.5,309.12c-0.45,1.73-1.13,3.23-2.06,4.49c-0.93,1.26-2.12,2.25-3.58,2.97
			c-1.46,0.72-3.19,1.07-5.2,1.07c-2.18,0-3.99-0.38-5.45-1.15c-1.46-0.77-2.62-1.8-3.49-3.12c-0.86-1.31-1.48-2.84-1.85-4.58
			c-0.37-1.74-0.56-3.58-0.56-5.51c0-2,0.22-3.87,0.67-5.6c0.44-1.73,1.13-3.23,2.06-4.51c0.93-1.27,2.12-2.27,3.58-2.99
			c1.46-0.72,3.19-1.08,5.2-1.08c2.18,0,4,0.39,5.45,1.17c1.46,0.78,2.62,1.83,3.48,3.15c0.87,1.32,1.48,2.85,1.85,4.58
			c0.37,1.73,0.56,3.55,0.56,5.45C679.16,305.51,678.95,307.39,678.5,309.12z"/>
		<path d="M739.13,289.38c-0.88-1.26-2.04-2.26-3.49-3c-1.45-0.74-3.22-1.11-5.32-1.11c-0.84,0-1.69,0.12-2.56,0.35
			c-0.87,0.24-1.76,0.62-2.69,1.15c-0.93,0.53-1.91,1.24-2.93,2.11c-1.02,0.88-2.12,1.96-3.28,3.25c-0.37-1.01-0.86-1.94-1.45-2.78
			c-0.59-0.84-1.31-1.56-2.15-2.17c-0.84-0.61-1.81-1.07-2.91-1.41c-1.1-0.33-2.35-0.5-3.77-0.5c-1.71,0-3.43,0.48-5.16,1.45
			c-1.73,0.96-3.56,2.52-5.49,4.67v-4.75c0-0.15-0.03-0.28-0.09-0.41c-0.06-0.12-0.17-0.23-0.31-0.31
			c-0.15-0.09-0.36-0.15-0.63-0.19c-0.27-0.04-0.62-0.06-1.04-0.06c-0.42,0-0.76,0.02-1.02,0.06c-0.26,0.04-0.48,0.1-0.65,0.19
			c-0.17,0.09-0.29,0.19-0.35,0.31c-0.06,0.13-0.09,0.26-0.09,0.41v33.57c0,0.15,0.03,0.29,0.09,0.41c0.06,0.13,0.18,0.22,0.35,0.3
			c0.17,0.07,0.4,0.14,0.69,0.19c0.28,0.05,0.64,0.07,1.06,0.07c0.45,0,0.81-0.02,1.09-0.07c0.29-0.05,0.51-0.11,0.67-0.19
			c0.16-0.08,0.28-0.17,0.35-0.3c0.07-0.12,0.11-0.26,0.11-0.41v-24.08c1.88-2.35,3.62-4.13,5.21-5.34c1.6-1.21,3.17-1.82,4.73-1.82
			c1.26,0,2.35,0.25,3.28,0.76c0.93,0.51,1.7,1.22,2.3,2.15c0.61,0.93,1.06,2.04,1.35,3.34c0.3,1.3,0.45,2.74,0.45,4.32v20.66
			c0,0.15,0.03,0.29,0.09,0.41c0.06,0.13,0.18,0.22,0.35,0.3c0.17,0.07,0.4,0.14,0.69,0.19c0.28,0.05,0.64,0.07,1.06,0.07
			c0.42,0,0.77-0.02,1.06-0.07c0.28-0.05,0.51-0.11,0.67-0.19c0.16-0.08,0.28-0.17,0.35-0.3c0.07-0.12,0.11-0.26,0.11-0.41v-24.08
			c1.91-2.35,3.65-4.13,5.25-5.34c1.6-1.21,3.17-1.82,4.73-1.82c1.26,0,2.35,0.25,3.28,0.76c0.93,0.51,1.69,1.22,2.3,2.15
			c0.61,0.93,1.05,2.04,1.34,3.34c0.28,1.3,0.43,2.74,0.43,4.32v20.66c0,0.15,0.03,0.29,0.09,0.41c0.06,0.13,0.18,0.22,0.35,0.3
			c0.17,0.07,0.4,0.14,0.69,0.19c0.28,0.05,0.65,0.07,1.1,0.07c0.42,0,0.77-0.02,1.06-0.07c0.28-0.05,0.51-0.11,0.67-0.19
			c0.16-0.08,0.28-0.17,0.36-0.3c0.07-0.12,0.11-0.26,0.11-0.41v-21.07c0-1.88-0.19-3.66-0.57-5.34
			C740.64,292.12,740.01,290.64,739.13,289.38z"/>
		<path d="M777.9,289.92c-1.15-1.42-2.61-2.55-4.4-3.4c-1.78-0.84-3.93-1.26-6.45-1.26c-2.35,0-4.48,0.41-6.4,1.24
			c-1.92,0.83-3.56,2.03-4.92,3.6c-1.36,1.57-2.4,3.48-3.13,5.73c-0.73,2.25-1.09,4.8-1.09,7.64c0,2.97,0.35,5.58,1.06,7.83
			c0.71,2.25,1.74,4.13,3.1,5.66c1.36,1.52,3.04,2.67,5.05,3.45c2,0.78,4.3,1.17,6.9,1.17c1.58,0,3.06-0.12,4.43-0.37
			c1.37-0.25,2.58-0.52,3.62-0.84c1.04-0.31,1.88-0.62,2.52-0.93c0.64-0.31,1.03-0.52,1.15-0.65c0.13-0.12,0.22-0.25,0.3-0.37
			c0.07-0.13,0.13-0.26,0.16-0.39c0.04-0.14,0.07-0.29,0.09-0.45c0.03-0.16,0.04-0.33,0.04-0.5c0-0.37-0.02-0.68-0.05-0.93
			c-0.04-0.25-0.09-0.45-0.17-0.61c-0.07-0.16-0.17-0.28-0.3-0.35c-0.12-0.07-0.26-0.11-0.41-0.11c-0.25,0-0.66,0.14-1.24,0.41
			c-0.58,0.27-1.32,0.58-2.23,0.91c-0.9,0.33-1.97,0.64-3.21,0.91c-1.24,0.27-2.64,0.41-4.19,0.41c-2.2,0-4.05-0.32-5.56-0.96
			c-1.51-0.64-2.73-1.56-3.67-2.77c-0.94-1.2-1.61-2.64-2.02-4.32c-0.41-1.68-0.61-3.56-0.61-5.64h22.89c0.45,0,0.9-0.17,1.37-0.5
			c0.47-0.33,0.71-0.94,0.71-1.84v-0.89c0-2.08-0.27-4.05-0.8-5.93C779.89,292.99,779.05,291.34,777.9,289.92z M756.25,300.4
			c0.07-1.49,0.34-2.91,0.81-4.29c0.47-1.37,1.14-2.58,2.02-3.62c0.88-1.04,1.95-1.87,3.23-2.5c1.27-0.63,2.75-0.94,4.43-0.94
			c3.27,0,5.75,1,7.46,3c1.71,2,2.52,4.78,2.45,8.35H756.25z"/>
		<path d="M806.07,289.61c0.32,0,0.59-0.16,0.8-0.46c0.21-0.31,0.32-0.77,0.32-1.39c0-0.32-0.03-0.6-0.08-0.83
			c-0.05-0.24-0.12-0.43-0.22-0.59c-0.1-0.16-0.21-0.28-0.35-0.35c-0.14-0.08-0.29-0.11-0.46-0.11h-9.27v-8.24
			c0-0.15-0.04-0.28-0.11-0.41c-0.07-0.12-0.19-0.23-0.35-0.31c-0.16-0.09-0.38-0.15-0.67-0.19c-0.28-0.04-0.65-0.06-1.09-0.06
			c-0.42,0-0.77,0.02-1.06,0.06c-0.29,0.04-0.51,0.1-0.69,0.19c-0.17,0.09-0.29,0.19-0.36,0.31c-0.06,0.13-0.09,0.26-0.09,0.41v8.24
			h-5.01c-0.17,0-0.33,0.04-0.46,0.11c-0.14,0.07-0.26,0.19-0.35,0.35c-0.1,0.16-0.17,0.36-0.22,0.59
			c-0.05,0.23-0.07,0.51-0.07,0.83c0,0.62,0.1,1.08,0.3,1.39c0.2,0.31,0.47,0.46,0.82,0.46h5.01v20.88c0,1.88,0.17,3.51,0.5,4.9
			c0.33,1.39,0.87,2.53,1.61,3.43c0.74,0.9,1.69,1.58,2.86,2.02c1.16,0.44,2.57,0.67,4.23,0.67c0.49,0,1.01-0.03,1.52-0.09
			c0.52-0.06,1.01-0.15,1.48-0.26c0.47-0.11,0.89-0.25,1.24-0.41c0.36-0.16,0.63-0.34,0.82-0.52c0.18-0.19,0.32-0.44,0.41-0.76
			c0.09-0.32,0.13-0.74,0.13-1.26c0-0.32-0.02-0.59-0.06-0.8c-0.04-0.21-0.09-0.38-0.15-0.52c-0.06-0.14-0.14-0.23-0.24-0.28
			c-0.1-0.05-0.21-0.07-0.34-0.07c-0.2,0-0.43,0.06-0.69,0.19c-0.26,0.12-0.58,0.26-0.95,0.41c-0.37,0.15-0.8,0.29-1.28,0.41
			c-0.48,0.13-1.02,0.19-1.61,0.19c-1.93,0-3.26-0.67-3.99-2c-0.73-1.34-1.09-3.28-1.09-5.83v-20.29H806.07z"/>
		<path d="M840.59,289.38c-0.92-1.26-2.15-2.26-3.65-3c-1.51-0.74-3.37-1.11-5.57-1.11c-1.83,0-3.66,0.48-5.49,1.43
			c-1.83,0.95-3.66,2.44-5.49,4.47V270.2c0-0.15-0.04-0.28-0.11-0.41c-0.07-0.12-0.19-0.23-0.35-0.31
			c-0.16-0.09-0.38-0.15-0.67-0.19c-0.28-0.04-0.65-0.06-1.09-0.06c-0.42,0-0.77,0.02-1.06,0.06c-0.29,0.04-0.51,0.1-0.69,0.19
			c-0.17,0.09-0.29,0.19-0.36,0.31c-0.06,0.13-0.09,0.26-0.09,0.41v50.01c0,0.15,0.03,0.29,0.09,0.41c0.06,0.13,0.18,0.22,0.36,0.3
			c0.17,0.07,0.4,0.14,0.69,0.19c0.28,0.05,0.64,0.07,1.06,0.07c0.44,0,0.81-0.02,1.09-0.07c0.29-0.05,0.51-0.11,0.67-0.19
			c0.16-0.08,0.28-0.17,0.35-0.3c0.07-0.12,0.11-0.26,0.11-0.41v-24.08c1.88-2.35,3.67-4.13,5.38-5.34
			c1.71-1.21,3.42-1.82,5.12-1.82c1.34,0,2.5,0.25,3.51,0.76c1,0.51,1.82,1.22,2.46,2.15c0.64,0.93,1.13,2.04,1.45,3.34
			c0.32,1.3,0.48,2.99,0.48,5.06v19.92c0,0.15,0.04,0.29,0.11,0.41c0.07,0.13,0.19,0.22,0.35,0.3c0.16,0.07,0.38,0.14,0.67,0.19
			c0.28,0.05,0.65,0.07,1.09,0.07c0.42,0,0.77-0.02,1.06-0.07c0.29-0.05,0.51-0.11,0.67-0.19c0.16-0.08,0.28-0.17,0.35-0.3
			c0.07-0.12,0.11-0.26,0.11-0.41v-20.33c0-2.37-0.21-4.4-0.61-6.08C842.18,292.12,841.51,290.64,840.59,289.38z"/>
		<path d="M857.67,272.32c-1.11,0-1.88,0.21-2.3,0.63c-0.42,0.42-0.63,1.22-0.63,2.41c0,1.19,0.21,1.99,0.61,2.39
			c0.41,0.41,1.15,0.61,2.24,0.61c1.11,0,1.88-0.21,2.3-0.63c0.42-0.42,0.63-1.22,0.63-2.41s-0.21-1.99-0.61-2.39
			C859.51,272.52,858.76,272.32,857.67,272.32z"/>
		<path d="M859.39,285.92c-0.16-0.09-0.38-0.15-0.67-0.19c-0.28-0.04-0.65-0.06-1.09-0.06c-0.42,0-0.77,0.02-1.06,0.06
			c-0.29,0.04-0.51,0.1-0.69,0.19c-0.17,0.09-0.29,0.19-0.35,0.31c-0.06,0.13-0.09,0.26-0.09,0.41v33.57c0,0.15,0.03,0.29,0.09,0.41
			c0.06,0.13,0.18,0.22,0.35,0.3c0.17,0.07,0.4,0.14,0.69,0.19c0.28,0.05,0.64,0.07,1.06,0.07c0.45,0,0.81-0.02,1.09-0.07
			c0.28-0.05,0.51-0.11,0.67-0.19c0.16-0.08,0.28-0.17,0.36-0.3c0.07-0.12,0.11-0.26,0.11-0.41v-33.57c0-0.15-0.04-0.28-0.11-0.41
			C859.67,286.11,859.56,286,859.39,285.92z"/>
		<path d="M896.83,289.38c-0.93-1.26-2.15-2.26-3.65-3c-1.51-0.74-3.37-1.11-5.57-1.11c-1.83,0-3.67,0.48-5.53,1.45
			c-1.85,0.96-3.75,2.52-5.68,4.67v-4.75c0-0.15-0.03-0.28-0.09-0.41c-0.06-0.12-0.17-0.23-0.31-0.31
			c-0.15-0.09-0.36-0.15-0.63-0.19c-0.27-0.04-0.62-0.06-1.04-0.06c-0.42,0-0.76,0.02-1.02,0.06c-0.26,0.04-0.48,0.1-0.65,0.19
			c-0.17,0.09-0.29,0.19-0.35,0.31c-0.06,0.13-0.09,0.26-0.09,0.41v33.57c0,0.15,0.03,0.29,0.09,0.41c0.06,0.13,0.18,0.22,0.35,0.3
			c0.17,0.07,0.4,0.14,0.69,0.19c0.28,0.05,0.64,0.07,1.06,0.07c0.44,0,0.81-0.02,1.09-0.07c0.28-0.05,0.51-0.11,0.67-0.19
			c0.16-0.08,0.28-0.17,0.35-0.3c0.08-0.12,0.11-0.26,0.11-0.41v-24.08c1.88-2.35,3.67-4.13,5.38-5.34
			c1.71-1.21,3.42-1.82,5.12-1.82c1.34,0,2.5,0.25,3.51,0.76c1,0.51,1.82,1.22,2.46,2.15c0.64,0.93,1.13,2.04,1.45,3.34
			c0.32,1.3,0.48,2.99,0.48,5.06v19.92c0,0.15,0.04,0.29,0.11,0.41c0.07,0.13,0.19,0.22,0.35,0.3c0.16,0.07,0.38,0.14,0.67,0.19
			c0.28,0.05,0.65,0.07,1.09,0.07c0.42,0,0.77-0.02,1.06-0.07c0.29-0.05,0.51-0.11,0.67-0.19c0.16-0.08,0.28-0.17,0.35-0.3
			c0.07-0.12,0.11-0.26,0.11-0.41v-20.33c0-2.37-0.21-4.4-0.61-6.08C898.42,292.12,897.75,290.64,896.83,289.38z"/>
		<path d="M937.39,285.86h-9.9c-0.72-0.17-1.5-0.32-2.35-0.43c-0.86-0.11-1.76-0.17-2.73-0.17c-1.83,0-3.51,0.28-5.05,0.84
			c-1.54,0.56-2.85,1.35-3.95,2.39s-1.96,2.31-2.58,3.8c-0.62,1.5-0.93,3.18-0.93,5.06c0,1.56,0.2,2.89,0.6,4.01
			c0.39,1.11,0.95,2.14,1.67,3.08c-0.84,0.94-1.56,2-2.15,3.17c-0.59,1.17-0.89,2.53-0.89,4.06c0,1.04,0.3,2.02,0.89,2.93
			c0.59,0.92,1.52,1.69,2.78,2.34c-0.79,0.67-1.49,1.32-2.1,1.97c-0.61,0.64-1.11,1.31-1.52,2.01c-0.41,0.69-0.71,1.42-0.91,2.19
			c-0.2,0.77-0.3,1.58-0.3,2.45c0,1.26,0.26,2.44,0.8,3.53c0.53,1.09,1.39,2.03,2.56,2.84c1.17,0.8,2.68,1.43,4.53,1.89
			c1.84,0.46,4.07,0.69,6.69,0.69c2.75,0,5.11-0.3,7.09-0.91c1.98-0.61,3.6-1.42,4.88-2.45c1.27-1.03,2.21-2.22,2.82-3.58
			c0.61-1.36,0.91-2.78,0.91-4.27c0-1.44-0.3-2.68-0.89-3.75c-0.59-1.06-1.4-1.96-2.41-2.69c-1.02-0.73-2.19-1.28-3.54-1.65
			c-1.35-0.37-2.79-0.58-4.32-0.63l-9.09-0.37c-1.44-0.05-2.6-0.4-3.51-1.04c-0.9-0.64-1.35-1.44-1.35-2.37
			c0-0.84,0.16-1.58,0.48-2.23c0.32-0.64,0.73-1.21,1.22-1.71c0.77,0.62,1.83,1.14,3.19,1.56c1.36,0.42,2.79,0.63,4.3,0.63
			c1.85,0,3.55-0.27,5.08-0.82c1.53-0.54,2.86-1.33,3.97-2.35c1.11-1.03,1.97-2.28,2.58-3.77c0.61-1.48,0.91-3.18,0.91-5.08
			c0-1.39-0.21-2.7-0.61-3.95c-0.41-1.25-1.13-2.41-2.17-3.47h5.3c0.35,0,0.63-0.14,0.86-0.41c0.22-0.27,0.33-0.76,0.33-1.45
			c0-0.62-0.09-1.09-0.28-1.41C938.11,286.02,937.81,285.86,937.39,285.86z M913.22,321.82c0.33-0.58,0.78-1.18,1.35-1.8
			c0.57-0.62,1.3-1.27,2.19-1.97l9.76,0.33c2.23,0.07,4,0.54,5.32,1.41c1.32,0.87,1.99,2.12,1.99,3.75c0,0.94-0.19,1.84-0.56,2.71
			c-0.37,0.87-0.99,1.63-1.85,2.3c-0.87,0.67-2,1.21-3.4,1.61c-1.4,0.41-3.13,0.61-5.21,0.61c-3.29,0-5.86-0.47-7.7-1.41
			c-1.84-0.94-2.76-2.32-2.76-4.15c0-0.57,0.06-1.13,0.19-1.69C912.66,322.97,912.89,322.4,913.22,321.82z M929.82,300.23
			c-0.32,1-0.81,1.88-1.45,2.63c-0.64,0.76-1.46,1.36-2.47,1.8c-1,0.44-2.17,0.67-3.5,0.67c-2.52,0-4.48-0.71-5.88-2.13
			c-1.4-1.42-2.1-3.37-2.1-5.84c0-1.14,0.16-2.21,0.48-3.23c0.32-1.01,0.8-1.91,1.45-2.67c0.64-0.77,1.46-1.37,2.45-1.82
			c0.99-0.44,2.14-0.67,3.45-0.67c2.57,0,4.56,0.72,5.95,2.15c1.4,1.43,2.1,3.42,2.1,5.97C930.3,298.19,930.14,299.23,929.82,300.23
			z"/>
		<path d="M993.7,276.86c0.14-0.09,0.27-0.21,0.37-0.37c0.1-0.16,0.17-0.37,0.22-0.61c0.05-0.25,0.07-0.53,0.07-0.85
			c0-0.35-0.02-0.65-0.07-0.91c-0.05-0.26-0.13-0.48-0.22-0.65c-0.1-0.17-0.22-0.3-0.37-0.39c-0.15-0.09-0.31-0.13-0.48-0.13h-33.16
			c-0.2,0-0.37,0.04-0.5,0.13c-0.14,0.09-0.25,0.22-0.35,0.39c-0.1,0.17-0.17,0.39-0.22,0.65c-0.05,0.26-0.07,0.56-0.07,0.91
			c0,0.32,0.02,0.61,0.07,0.85c0.05,0.25,0.12,0.45,0.22,0.61c0.1,0.16,0.22,0.28,0.35,0.37c0.13,0.09,0.3,0.13,0.5,0.13h14.32
			v43.22c0,0.15,0.04,0.29,0.11,0.41c0.07,0.13,0.19,0.22,0.37,0.3c0.17,0.07,0.41,0.14,0.71,0.19c0.3,0.05,0.66,0.07,1.07,0.07
			c0.42,0,0.78-0.02,1.08-0.07c0.29-0.05,0.53-0.11,0.71-0.19c0.17-0.08,0.29-0.17,0.37-0.3c0.07-0.12,0.11-0.26,0.11-0.41v-43.22
			h14.32C993.39,276.99,993.55,276.95,993.7,276.86z"/>
		<path d="M1020.11,290.03c-1.31-1.55-2.95-2.73-4.92-3.54c-1.97-0.82-4.26-1.22-6.88-1.22c-2.75,0-5.15,0.46-7.2,1.37
			c-2.05,0.92-3.77,2.2-5.14,3.84c-1.37,1.64-2.4,3.59-3.08,5.84c-0.68,2.25-1.02,4.71-1.02,7.38c0,2.77,0.33,5.26,0.99,7.46
			c0.66,2.2,1.64,4.07,2.96,5.62c1.32,1.55,2.97,2.73,4.93,3.56c1.97,0.83,4.26,1.24,6.88,1.24c2.72,0,5.11-0.46,7.16-1.39
			c2.05-0.93,3.77-2.22,5.14-3.88c1.37-1.65,2.41-3.61,3.1-5.86c0.69-2.25,1.04-4.71,1.04-7.38c0-2.74-0.34-5.22-1-7.42
			C1022.41,293.45,1021.42,291.58,1020.11,290.03z M1018.74,309.12c-0.44,1.73-1.13,3.23-2.06,4.49c-0.93,1.26-2.12,2.25-3.58,2.97
			c-1.46,0.72-3.19,1.07-5.19,1.07c-2.18,0-4-0.38-5.45-1.15c-1.46-0.77-2.62-1.8-3.49-3.12c-0.86-1.31-1.48-2.84-1.85-4.58
			c-0.37-1.74-0.56-3.58-0.56-5.51c0-2,0.22-3.87,0.67-5.6c0.44-1.73,1.13-3.23,2.06-4.51c0.93-1.27,2.12-2.27,3.58-2.99
			c1.46-0.72,3.19-1.08,5.2-1.08c2.18,0,3.99,0.39,5.45,1.17c1.46,0.78,2.62,1.83,3.49,3.15c0.86,1.32,1.48,2.85,1.85,4.58
			c0.37,1.73,0.56,3.55,0.56,5.45C1019.41,305.51,1019.19,307.39,1018.74,309.12z"/>
		<path d="M1060.6,269.68c-0.16-0.07-0.38-0.13-0.67-0.18c-0.28-0.05-0.65-0.07-1.09-0.07c-0.42,0-0.77,0.02-1.06,0.07
			c-0.29,0.05-0.51,0.11-0.69,0.18c-0.17,0.07-0.29,0.18-0.35,0.3c-0.06,0.13-0.09,0.26-0.09,0.41v20.22
			c-1.63-1.76-3.29-3.08-4.97-3.99c-1.68-0.9-3.54-1.35-5.56-1.35c-2.35,0-4.41,0.43-6.19,1.3c-1.78,0.86-3.28,2.1-4.49,3.71
			c-1.21,1.61-2.13,3.56-2.75,5.84c-0.62,2.29-0.93,4.85-0.93,7.7c0,2.42,0.25,4.72,0.74,6.88c0.49,2.17,1.28,4.05,2.35,5.66
			c1.08,1.61,2.47,2.88,4.17,3.82c1.71,0.94,3.77,1.41,6.2,1.41c2.25,0,4.33-0.55,6.23-1.65c1.9-1.1,3.75-2.62,5.53-4.55v4.82
			c0,0.17,0.04,0.32,0.13,0.44c0.09,0.13,0.21,0.23,0.37,0.3c0.16,0.07,0.37,0.13,0.63,0.17c0.26,0.04,0.59,0.06,0.98,0.06
			c0.37,0,0.68-0.02,0.93-0.06c0.25-0.04,0.45-0.09,0.61-0.17c0.16-0.07,0.27-0.17,0.33-0.3c0.06-0.12,0.09-0.27,0.09-0.44v-49.82
			c0-0.15-0.04-0.28-0.11-0.41C1060.88,269.86,1060.76,269.76,1060.6,269.68z M1056.65,310.64c-1.09,1.34-2.11,2.45-3.06,3.36
			c-0.96,0.9-1.87,1.64-2.77,2.21c-0.89,0.57-1.75,0.98-2.6,1.22c-0.84,0.25-1.71,0.37-2.6,0.37c-1.78,0-3.26-0.41-4.45-1.24
			c-1.19-0.83-2.14-1.93-2.86-3.3c-0.72-1.37-1.22-2.94-1.52-4.69c-0.29-1.76-0.44-3.56-0.44-5.41c0-1.73,0.17-3.44,0.52-5.12
			c0.34-1.68,0.9-3.19,1.67-4.52c0.77-1.34,1.75-2.41,2.97-3.23c1.21-0.81,2.67-1.22,4.38-1.22c1.88,0,3.68,0.59,5.4,1.78
			c1.72,1.19,3.51,2.91,5.36,5.16V310.64z"/>
		<path d="M1094.25,288.49c-0.98-1.04-2.26-1.84-3.84-2.39c-1.58-0.56-3.52-0.84-5.82-0.84c-1.19,0-2.37,0.11-3.56,0.33
			c-1.19,0.22-2.3,0.51-3.32,0.87c-1.02,0.36-1.94,0.75-2.73,1.17c-0.79,0.42-1.34,0.79-1.65,1.09c-0.31,0.31-0.5,0.62-0.57,0.93
			c-0.07,0.31-0.11,0.72-0.11,1.24c0,0.29,0.02,0.55,0.06,0.76c0.04,0.21,0.1,0.39,0.19,0.52c0.09,0.14,0.19,0.23,0.31,0.28
			c0.12,0.05,0.26,0.07,0.41,0.07c0.25,0,0.66-0.18,1.24-0.54c0.58-0.36,1.32-0.76,2.21-1.21c0.89-0.45,1.93-0.85,3.12-1.21
			c1.19-0.36,2.52-0.54,4.01-0.54c1.53,0,2.83,0.18,3.9,0.56c1.06,0.37,1.93,0.93,2.6,1.67c0.67,0.74,1.15,1.66,1.45,2.76
			c0.3,1.1,0.45,2.37,0.45,3.8v2.89h-5.35c-2.42,0-4.62,0.23-6.6,0.69c-1.98,0.46-3.67,1.14-5.08,2.06
			c-1.41,0.92-2.5,2.06-3.26,3.43c-0.77,1.37-1.15,2.99-1.15,4.84c0,1.51,0.26,2.87,0.78,4.08c0.52,1.21,1.26,2.24,2.23,3.1
			c0.96,0.86,2.15,1.51,3.54,1.97c1.4,0.46,2.98,0.69,4.73,0.69c1.96,0,3.84-0.44,5.66-1.34c1.82-0.89,3.48-2.15,4.99-3.78v3.75
			c0,0.25,0.08,0.44,0.24,0.57c0.16,0.14,0.39,0.24,0.69,0.3c0.3,0.06,0.66,0.09,1.07,0.09c0.44,0,0.8-0.03,1.06-0.09
			c0.26-0.06,0.47-0.16,0.63-0.3c0.16-0.14,0.24-0.33,0.24-0.57v-22.7c0-1.93-0.21-3.65-0.63-5.17
			C1095.92,290.81,1095.22,289.53,1094.25,288.49z M1092.56,312.27c-1.71,1.88-3.32,3.27-4.85,4.17c-1.52,0.9-3.16,1.35-4.91,1.35
			c-2.23,0-3.95-0.57-5.18-1.72c-1.22-1.15-1.84-2.69-1.84-4.62c0-1.11,0.22-2.1,0.65-2.97c0.43-0.87,1.09-1.61,1.99-2.23
			c0.89-0.62,2-1.09,3.34-1.41c1.34-0.32,2.9-0.48,4.68-0.48h6.12V312.27z"/>
		<path d="M1132.64,285.75c-0.31-0.05-0.7-0.07-1.17-0.07c-0.49,0-0.92,0.02-1.26,0.06c-0.34,0.04-0.62,0.11-0.84,0.22
			c-0.21,0.11-0.38,0.34-0.5,0.69l-10.31,29.31h-0.14l-10.5-29.31c-0.07-0.17-0.16-0.32-0.24-0.44c-0.09-0.12-0.22-0.22-0.41-0.3
			c-0.19-0.07-0.44-0.13-0.76-0.17c-0.32-0.04-0.76-0.06-1.3-0.06c-0.52,0-0.94,0.02-1.24,0.06c-0.31,0.04-0.53,0.12-0.67,0.24
			c-0.14,0.12-0.21,0.29-0.21,0.5c0,0.21,0.06,0.49,0.18,0.84l12.21,32.75c0.05,0.17,0.15,0.35,0.3,0.52
			c0.15,0.17,0.32,0.3,0.52,0.37l-4.75,11.91c-0.13,0.3-0.17,0.55-0.15,0.76c0.02,0.21,0.12,0.38,0.28,0.52
			c0.16,0.14,0.39,0.23,0.69,0.28c0.29,0.05,0.67,0.07,1.11,0.07c0.86,0,1.49-0.09,1.89-0.28c0.39-0.19,0.66-0.41,0.78-0.69
			l4.67-12.58l12.54-33.64c0.12-0.32,0.19-0.59,0.19-0.8c0-0.21-0.07-0.38-0.22-0.5C1133.18,285.88,1132.95,285.8,1132.64,285.75z"
			/>
		<path d="M1139.23,314.09c-1.21,0-2.05,0.23-2.52,0.7c-0.47,0.47-0.71,1.44-0.71,2.9c0,1.43,0.23,2.38,0.69,2.84
			c0.46,0.46,1.27,0.69,2.43,0.69c1.21,0,2.05-0.24,2.52-0.71c0.47-0.47,0.71-1.44,0.71-2.89c0-1.43-0.23-2.38-0.69-2.84
			C1141.2,314.32,1140.39,314.09,1139.23,314.09z"/>
	</g>
</g>
</svg>
