<svg width="1367" height="365" viewBox="0 0 1367 365" fill="none" xmlns="http://www.w3.org/2000/svg">
<path d="M367.081 76.2523C363.493 235.717 295.11 297.235 195.274 356.41C191.727 358.501 187.684 359.604 183.566 359.604C179.448 359.604 175.405 358.501 171.858 356.41C71.7349 297.068 3.25627 235.334 0.00335526 75.0803C-0.0606079 71.3408 0.790818 67.6424 2.48338 64.3073C4.17595 60.9722 6.6583 58.1016 9.71427 55.9454C61.3304 19.9242 120.696 0 183.554 0C246.412 0 298.363 22.1964 355.767 56.2325C359.25 58.2766 362.131 61.2048 364.117 64.7204C366.104 68.2361 367.126 72.2143 367.081 76.2523Z" fill="#1062FE"/>
<path opacity="0.16" d="M142.175 212.444L250 320.652C298.578 284.774 335.078 242.151 353.615 175.849L265.977 88.5703L142.175 212.444Z" fill="url(#paint0_linear_3_643)"/>
<path d="M170.279 240.573L97.0168 167.286L125.169 139.158L170.279 184.268L265.977 88.5703L294.129 116.722L170.279 240.573Z" fill="white"/>
<path d="M447.789 263.019H409.781L476.108 86.6419H514.365L580.692 263.019H541.691L531.009 232.712H458.471L447.789 263.019ZM494.988 131.357H494.491L470.146 200.169H519.333L494.988 131.357ZM642.447 266C607.006 266 588.209 250.929 586.056 220.788H621.829C622.16 225.59 624.064 229.648 627.542 232.96C631.186 236.107 636.485 237.68 643.441 237.68C650.065 237.68 655.117 236.603 658.594 234.451C662.072 232.298 663.811 229.399 663.811 225.756C663.811 221.781 661.327 218.883 656.359 217.061C651.39 215.074 645.345 213.501 638.224 212.341C631.268 211.182 624.23 209.609 617.109 207.621C609.987 205.634 603.943 201.742 598.974 195.946C594.006 190.149 591.522 182.448 591.522 172.843C591.522 160.753 596.324 150.568 605.93 142.288C615.535 134.007 628.122 129.867 643.689 129.867C661.41 129.867 674.576 134.338 683.188 143.281C691.8 152.224 696.437 162.409 697.099 173.837H663.066C662.735 169.365 660.83 165.639 657.352 162.658C654.04 159.677 649.403 158.186 643.441 158.186C637.81 158.186 633.421 159.428 630.275 161.913C627.128 164.231 625.555 167.212 625.555 170.856C625.555 174.83 628.039 177.728 633.007 179.55C637.976 181.372 643.938 182.862 650.893 184.022C658.015 185.015 665.053 186.506 672.009 188.493C679.13 190.481 685.175 194.455 690.143 200.417C695.112 206.379 697.596 214.329 697.596 224.265C697.596 236.355 692.628 246.375 682.691 254.324C672.92 262.108 659.505 266 642.447 266ZM764.23 266C728.789 266 709.992 250.929 707.839 220.788H743.612C743.943 225.59 745.847 229.648 749.325 232.96C752.969 236.107 758.268 237.68 765.224 237.68C771.848 237.68 776.899 236.603 780.377 234.451C783.855 232.298 785.594 229.399 785.594 225.756C785.594 221.781 783.11 218.883 778.142 217.061C773.173 215.074 767.128 213.501 760.007 212.341C753.051 211.182 746.013 209.609 738.892 207.621C731.77 205.634 725.725 201.742 720.757 195.946C715.789 190.149 713.305 182.448 713.305 172.843C713.305 160.753 718.107 150.568 727.713 142.288C737.318 134.007 749.905 129.867 765.472 129.867C783.193 129.867 796.359 134.338 804.971 143.281C813.582 152.224 818.22 162.409 818.882 173.837H784.849C784.518 169.365 782.613 165.639 779.135 162.658C775.823 159.677 771.186 158.186 765.224 158.186C759.593 158.186 755.204 159.428 752.058 161.913C748.911 164.231 747.338 167.212 747.338 170.856C747.338 174.83 749.822 177.728 754.79 179.55C759.759 181.372 765.721 182.862 772.676 184.022C779.798 185.015 786.836 186.506 793.792 188.493C800.913 190.481 806.958 194.455 811.926 200.417C816.895 206.379 819.379 214.329 819.379 224.265C819.379 236.355 814.411 246.375 804.474 254.324C794.703 262.108 781.288 266 764.23 266ZM924.205 206.876V132.848H959.481V263.019H926.938V247.12C920.148 259.706 907.396 266 888.682 266C873.445 266 861.687 261.362 853.406 252.088C845.291 242.648 841.234 229.979 841.234 214.08V132.848H876.509V210.106C876.509 227.164 883.713 235.693 898.122 235.693C906.733 235.693 913.192 233.208 917.498 228.24C921.97 223.272 924.205 216.15 924.205 206.876ZM1065.2 131.854V164.894C1062.72 164.397 1060.4 164.148 1058.25 164.148C1047.81 164.148 1039.95 166.881 1034.65 172.346C1029.51 177.811 1026.95 186.423 1026.95 198.182V263.019H991.672V132.848H1024.21V149.74C1031.67 137.65 1043.92 131.606 1060.98 131.606L1065.2 131.854ZM1199.99 208.118H1105.59C1106.75 217.061 1110.06 223.934 1115.53 228.737C1120.99 233.374 1128.2 235.693 1137.14 235.693C1142.77 235.693 1147.82 234.533 1152.3 232.215C1156.93 229.731 1160.24 226.17 1162.23 221.533H1197.76C1193.95 234.782 1186.41 245.547 1175.15 253.827C1164.05 261.942 1151.05 266 1136.15 266C1116.94 266 1101.2 259.624 1088.95 246.871C1076.69 234.119 1070.57 217.724 1070.57 197.685C1070.57 178.308 1076.69 162.161 1088.95 149.243C1101.2 136.326 1116.85 129.867 1135.9 129.867C1154.95 129.867 1170.43 136.326 1182.35 149.243C1194.44 161.995 1200.49 178.142 1200.49 197.685L1199.99 208.118ZM1135.65 158.186C1127.7 158.186 1121.16 160.422 1116.03 164.894C1110.89 169.199 1107.58 175.161 1106.09 182.78H1165.21C1163.89 175.327 1160.66 169.365 1155.52 164.894C1150.39 160.422 1143.77 158.186 1135.65 158.186ZM1314.5 146.759V76.7052H1349.77V263.019H1317.23V247.12C1308.62 259.706 1294.87 266 1275.99 266C1257.61 266 1243.04 259.541 1232.27 246.623C1221.51 233.705 1216.12 217.475 1216.12 197.933C1216.12 178.391 1221.51 162.161 1232.27 149.243C1243.04 136.326 1257.61 129.867 1275.99 129.867C1284.6 129.867 1292.22 131.523 1298.85 134.835C1305.64 137.982 1310.85 141.956 1314.5 146.759ZM1306.55 224.514C1312.51 217.558 1315.49 208.698 1315.49 197.933C1315.49 187.168 1312.51 178.308 1306.55 171.352C1300.75 164.397 1293.05 160.919 1283.44 160.919C1273.84 160.919 1266.06 164.397 1260.09 171.352C1254.3 178.308 1251.4 187.168 1251.4 197.933C1251.4 208.698 1254.3 217.558 1260.09 224.514C1266.06 231.47 1273.84 234.947 1283.44 234.947C1293.05 234.947 1300.75 231.47 1306.55 224.514Z" fill="#1062FE"/>
<defs>
<linearGradient id="paint0_linear_3_643" x1="305.372" y1="251.796" x2="155.869" y2="102.277" gradientUnits="userSpaceOnUse">
<stop stop-color="#1062FE"/>
<stop offset="1" stop-color="#06155A"/>
</linearGradient>
</defs>
</svg>
