<svg width="570" height="570" fill="none" xmlns="http://www.w3.org/2000/svg"><g clip-path="url(#clip0)"><path fill="#8934AD" d="M0 0h570v570H0z"/><path d="M109.158 377.501c0 4.089-1.604 7.517-4.811 10.283-3.207 2.765-6.955 4.148-11.244 4.148-1.924 0-3.788-.32-5.592-.962 1.002 0 1.904-.12 2.706-.36.16-.04 1.042-.381 2.646-1.023 2.325-.881 4.129-2.064 5.411-3.547 1.604-1.844 2.405-4.069 2.405-6.675 0-.881-.08-1.703-.24-2.465-.361-2.245-1.463-3.928-3.307-5.051-1.804-1.122-4.089-1.683-6.855-1.683-.962 0-1.984.06-3.067.18l-2.284.301v35.476c0 1.163.06 2.185.18 3.067.12.841.44 1.623.962 2.345.32.481.701.942 1.142 1.383A9.54 9.54 0 0 0 88.834 414H73.982c.802-.401 1.283-.661 1.443-.782.4-.28.762-.801 1.082-1.563.361-.762.602-1.624.722-2.586.12-1.002.18-2.004.18-3.006V372.33v-.781c0-1.083-.06-1.925-.18-2.526-.08-.641-.36-1.323-.842-2.044a6.208 6.208 0 0 0-1.022-1.203c-.36-.321-.862-.641-1.503-.962h18.46c4.53 0 8.378 1.062 11.544 3.187 3.528 2.365 5.292 5.532 5.292 9.5zm78.261 13.229c0 6.494-2.305 12.126-6.915 16.896-4.971 5.131-11.324 7.697-19.061 7.697-8.498 0-15.393-2.445-20.685-7.336-5.291-4.931-7.937-11.084-7.937-18.46 0-6.895 2.265-12.827 6.795-17.798 4.931-5.412 11.324-8.118 19.181-8.118 9.501 0 16.817 2.847 21.948 8.539 4.449 4.971 6.674 11.164 6.674 18.58zm-8.358-1.022c0-5.693-1.483-10.403-4.45-14.131-3.447-4.329-8.358-6.494-14.731-6.494-5.733 0-10.323 2.165-13.77 6.494-3.127 3.929-4.69 8.739-4.69 14.431 0 5.813 1.804 10.643 5.412 14.492 3.647 3.808 8.277 5.712 13.889 5.712 5.452 0 9.942-2.165 13.47-6.494 3.246-4.009 4.87-8.679 4.87-14.01zm67.139 14.25L242.412 414h-31.387c.44-.2.901-.401 1.383-.601a3.97 3.97 0 0 0 1.563-1.684 6.759 6.759 0 0 0 .782-2.345c.16-.842.24-1.764.24-2.766v-33.853-.842c0-1.242-.06-2.204-.18-2.886-.08-.681-.361-1.403-.842-2.165-.321-.561-.662-.962-1.022-1.202-.321-.241-.862-.521-1.624-.842h15.093c-.722.321-1.263.621-1.624.902-.361.241-.721.641-1.082 1.203-.481.801-.782 1.623-.902 2.465-.12.842-.18 2.064-.18 3.668v34.574c.36.121 1.643.321 3.848.602 2.245.28 4.429.42 6.554.42 2.445 0 4.369-.26 5.772-.781a274.685 274.685 0 0 0 3.307-1.323c1.123-.481 2.486-1.343 4.089-2.586zM323.57 414h-16.235c.841-.08 1.743-.641 2.706-1.684.32-.36.481-.801.481-1.322 0-.482-.141-1.103-.421-1.864l-5.412-13.53h-18.58l-4.51 12.267a7.878 7.878 0 0 0-.481 2.706c0 .962.221 1.663.662 2.104.761.722 1.543 1.163 2.345 1.323h-14.371a13.81 13.81 0 0 0 1.563-.842c.441-.321.882-.681 1.323-1.082a9.581 9.581 0 0 0 1.623-2.165c.281-.521.662-1.363 1.143-2.525l14.972-37.341c.161-.401.281-.741.361-1.022.08-.321.12-.661.12-1.022 0-.281-.06-.641-.18-1.082-.361-1.163-1.203-1.864-2.526-2.105H300.3l16.355 40.347c.28.802.601 1.623.962 2.465.361.802.842 1.624 1.443 2.466a15.003 15.003 0 0 0 1.984 2.164c.682.602 1.523 1.183 2.526 1.744zm-20.625-23.691l-7.336-18.64-7.456 18.64h14.792zM394.143 414c-.12.04-.782.08-1.984.12-1.163.04-2.566.06-4.209.06h-.902c-2.486 0-4.29-.12-5.412-.36-1.082-.281-2.445-1.223-4.089-2.826-1.323-1.283-2.906-3.107-4.75-5.472a888.318 888.318 0 0 1-4.871-6.374c-1.122-1.403-2.585-3.528-4.389-6.374-1.363-2.164-2.245-3.587-2.646-4.269.722 0 1.644-.12 2.766-.361a22.13 22.13 0 0 0 3.367-1.142c2.005-.882 3.568-1.984 4.691-3.307 1.403-1.644 2.104-3.568 2.104-5.773 0-.24-.02-.521-.06-.842-.04-.36-.06-.641-.06-.841-.321-2.005-1.363-3.608-3.127-4.811-1.764-1.242-3.948-1.864-6.554-1.864-1.082 0-2.305.161-3.668.481l-1.142.301V407.205c0 1.083.02 1.925.06 2.526.08.561.28 1.162.601 1.804.321.641.641 1.122.962 1.443.321.28.822.621 1.503 1.022h-14.31c.681-.321 1.222-.641 1.623-.962.441-.321.802-.802 1.082-1.443a6.592 6.592 0 0 0 .602-2.045c.12-.721.18-1.523.18-2.405V372.27c0-1.483-.1-2.565-.301-3.247a6.5 6.5 0 0 0-.841-2.044c-.562-.922-1.403-1.644-2.526-2.165h18.761c4.169 0 7.616.982 10.342 2.946 3.087 2.205 4.63 5.332 4.63 9.381 0 2.605-1.082 5.191-3.247 7.756-2.165 2.526-4.831 4.209-7.997 5.051l-.722.181 12.026 15.212c.802.962 1.884 2.045 3.247 3.247 1.122.962 2.165 1.744 3.127 2.345.962.562 1.984 1.143 3.066 1.744.882.481 1.904.922 3.067 1.323zm40.772 0h-15.033c.521-.281.922-.501 1.203-.661.641-.401 1.102-.902 1.383-1.504.32-.641.561-1.343.721-2.104.201-.802.301-1.684.301-2.646V372.33v-.781c0-1.123-.06-1.985-.18-2.586-.121-.601-.441-1.323-.963-2.165-.521-.841-1.342-1.503-2.465-1.984h14.972c-.641.281-1.162.581-1.563.902a4.838 4.838 0 0 0-1.082 1.263c-.281.521-.521 1.363-.722 2.525-.2 1.123-.301 2.145-.301 3.067v34.694c0 .963.061 1.764.181 2.406.12.601.401 1.343.842 2.224.28.522.621.942 1.022 1.263.441.281 1.002.561 1.684.842zm61.233-14.251c0 4.851-2.185 8.719-6.555 11.605-3.968 2.606-8.758 3.909-14.371 3.909-1.603 0-3.046-.06-4.329-.181a24.476 24.476 0 0 1-3.908-.721l-4.51-1.143-1.984-9.44 1.022.722c5.011 3.527 9.821 5.291 14.431 5.291 3.447 0 6.213-.661 8.298-1.984 2.124-1.363 3.187-3.067 3.187-5.111 0-2.566-.962-4.65-2.886-6.254-1.884-1.643-5.713-3.708-11.485-6.193-4.169-1.804-7.176-3.969-9.02-6.494-1.483-2.045-2.224-4.35-2.224-6.915 0-4.57 1.803-7.977 5.411-10.222 3.167-1.964 7.537-2.946 13.109-2.946 2.084 0 3.948.12 5.592.36 1.643.201 3.367.582 5.171 1.143l.781.24v8.418l-.902-.841c-1.363-1.243-3.106-2.265-5.231-3.067a17.613 17.613 0 0 0-6.374-1.203c-2.445 0-4.549.582-6.313 1.744-1.764 1.123-2.646 2.646-2.646 4.57 0 2.566 1.123 4.73 3.367 6.494 1.604 1.283 4.57 2.866 8.9 4.75 4.369 1.844 7.636 3.788 9.801 5.833 2.445 2.325 3.668 4.87 3.668 7.636zM194.485 475.607c0 4.049-1.764 7.576-5.292 10.583-3.768 3.207-8.498 4.81-14.19 4.81h-19.061c.601-.241 1.062-.481 1.383-.722.361-.24.701-.581 1.022-1.022.481-.681.802-1.363.962-2.044.16-.682.241-1.503.241-2.465v-35.056-.842-.721c0-1.002-.081-1.824-.241-2.466a4.073 4.073 0 0 0-.782-1.804c-.36-.561-.761-.982-1.202-1.262a8.77 8.77 0 0 0-1.624-.782h19.182c4.289 0 7.837.982 10.643 2.946 2.806 1.965 4.209 4.37 4.209 7.216 0 3.047-.602 5.291-1.804 6.734-.602.722-2.065 1.744-4.39 3.067l-.841.481.901.361c3.688 1.483 6.314 3.026 7.877 4.63 2.005 2.084 3.007 4.87 3.007 8.358zm-12.988-22.489c-.401-2.525-1.503-4.369-3.307-5.532-1.403-.921-3.167-1.382-5.292-1.382-1.523 0-2.725.2-3.607.601l-1.985.842v13.89l2.947.06c2.766 0 5.231-.562 7.396-1.684 2.645-1.363 3.968-3.247 3.968-5.652 0-.201-.04-.581-.12-1.143zm4.57 22.789c0-3.206-1.323-5.692-3.969-7.456-2.325-1.563-5.171-2.345-8.538-2.345-.882 0-1.784.061-2.706.181l-3.488.541v17.798l1.203.541c1.924.882 4.069 1.323 6.434 1.323 3.087 0 5.632-.821 7.636-2.465 2.285-1.884 3.428-4.59 3.428-8.118zM271.931 491h-16.235c.842-.08 1.744-.641 2.706-1.684.321-.36.481-.801.481-1.322 0-.482-.14-1.103-.421-1.864l-5.411-13.53h-18.58l-4.51 12.267a7.855 7.855 0 0 0-.481 2.706c0 .962.221 1.663.661 2.104.762.722 1.544 1.163 2.346 1.323h-14.371a13.81 13.81 0 0 0 1.563-.842c.441-.321.882-.681 1.323-1.082a9.581 9.581 0 0 0 1.623-2.165c.281-.521.662-1.363 1.143-2.525l14.972-37.341c.16-.401.281-.741.361-1.022.08-.321.12-.661.12-1.022 0-.281-.06-.641-.18-1.082-.361-1.163-1.203-1.864-2.526-2.105h12.146l16.356 40.347c.28.802.601 1.623.962 2.465.36.802.841 1.624 1.443 2.466a15.003 15.003 0 0 0 1.984 2.164c.681.602 1.523 1.183 2.525 1.744zm-20.624-23.691l-7.336-18.64-7.456 18.64h14.792zm95.226-25.495c-1.603.641-2.766 1.644-3.487 3.007a8.191 8.191 0 0 0-.722 1.683c-.16.601-.24 1.343-.24 2.225v1.082l.06 43.654c-1.163-.36-2.165-.761-3.007-1.202-.841-.401-1.783-1.002-2.826-1.804a14.76 14.76 0 0 1-1.924-1.624c-.28-.28-1.142-1.343-2.585-3.187l-26.337-33.251.06 30.726v.782c0 .962.1 1.844.301 2.645.24.802.761 1.744 1.563 2.827.201.24.601.561 1.203.962.601.36 1.042.581 1.323.661h-14.371a8.957 8.957 0 0 0 1.623-.842c.722-.481 1.283-1.042 1.684-1.683a6.368 6.368 0 0 0 .902-2.285c.2-.882.3-1.644.3-2.285V449.39c0-.962-.06-1.824-.18-2.585-.08-.762-.301-1.423-.662-1.984-.561-.802-1.082-1.403-1.563-1.804-.441-.441-1.102-.842-1.984-1.203h11.966c.08.601.16.982.24 1.143.241.44.401.721.481.841.281.441.621.942 1.022 1.504l27.119 34.213v-29.824c0-1.283-.08-2.305-.241-3.067-.12-.761-.461-1.583-1.022-2.465a5.246 5.246 0 0 0-1.142-1.323c-.441-.361-1.003-.701-1.684-1.022h14.13zM385.021 491h-14.852c.641-.361 1.142-.702 1.503-1.022.401-.321.721-.762.962-1.323.28-.561.501-1.263.661-2.105.201-.841.301-1.763.301-2.766V449.27v-.782c0-1.122-.06-1.984-.18-2.585-.121-.601-.421-1.283-.902-2.045-.321-.521-.662-.922-1.023-1.202-.32-.281-.801-.561-1.443-.842h14.973c-.642.241-1.163.521-1.564.842-.401.28-.781.701-1.142 1.263-.481.721-.782 1.403-.902 2.044-.08.641-.12 1.563-.12 2.766V483.183c0 1.283.04 2.325.12 3.127.12.762.421 1.623.902 2.585.28.482.641.902 1.082 1.263a8.82 8.82 0 0 0 1.624.842zm29.523 0h-1.443c-.521 0-1.183.02-1.984.06-1.964 0-3.788-.06-5.472-.18-1.684-.161-2.866-.421-3.548-.782-1.002-.481-1.563-.762-1.683-.842-.762-.441-1.604-1.303-2.526-2.585l-15.694-21.106 12.868-16.956c.241-.361.481-.862.722-1.504.24-.641.361-1.242.361-1.803 0-.602-.101-1.083-.301-1.444-.441-1.002-1.243-1.683-2.405-2.044h14.19l-17.497 22.188 15.393 20.263c.481.642.962 1.223 1.443 1.744a22.881 22.881 0 0 0 1.924 1.564c1.403 1.042 2.405 1.743 3.006 2.104.602.361 1.484.802 2.646 1.323z" fill="#fff"/><path d="M299.5 80L205 177.5h46.5L347 80h-47.5zM305 136l-94.5 97.5H257l95.5-97.5H305zM317 185l-94.5 97.5H269l95.5-97.5H317z" fill="#F2A809"/></g><defs><clipPath id="clip0"><path fill="#fff" d="M0 0h570v570H0z"/></clipPath></defs></svg>