<?xml version="1.0" encoding="utf-8"?>
<!-- Generator: Adobe Illustrator 22.1.0, SVG Export Plug-In . SVG Version: 6.00 Build 0)  -->
<svg version="1.1" id="Layer_1" xmlns="http://www.w3.org/2000/svg" xmlns:xlink="http://www.w3.org/1999/xlink" x="0px" y="0px"
	 viewBox="0 0 1781 402" style="enable-background:new 0 0 1781 402;" xml:space="preserve">
<style type="text/css">
	.st0{fill:#36C3F0;}
</style>
<path class="st0" d="M202,250c-16.2,29-46.8,46.9-80,47c-17,0-33-4-48-12c-20.2-10.7-35.3-29.1-42-51H0v168h30V279
	c12,14,26,25,43,34c16,7,34,11,52,11c31.9,0.5,62.7-12.1,85-35c15-15,26-34,31-55h-32L202,250z M55,138c17.3-17.7,41.2-27.5,66-27
	c39.8-1.1,75.6,24.1,88,62h33c-6-20-17-40-32-55c-22.7-22.9-53.8-35.6-86-35c-37.4-0.7-72.6,17.3-94,48V89H0v85h33
	C37,160,45,148,55,138z M497,251c-17.6,27.8-48.1,44.7-81,45c-39.5,0.1-74.8-24.7-88-62h-33c5,21,16,40,32,55
	c22.3,22.9,53.1,35.5,85,35c37,0.7,72.1-15.9,95-45v39h30v-84h-33L497,251z M335,157c16.3-29.2,47.5-46.9,81-46
	c40.1-1,76,24.7,88,63h33V89h-30v42c-21.5-30.5-56.7-48.5-94-48c-32.2-0.6-63.3,12.1-86,35c-16,15-27,34-32,56h32L335,157z M693,265
	l-15-31h-32l30,67l-45,101h32l75-168h-32L693,265z M803,89h-32l-38,85h32L803,89z M612,89h-32l38,85h33L612,89z M868,0h-30v174h30V0
	z M868,234h-30v84h30V234z M1136,131c-10-15-25-28-41-36s-34-13-52-12c-32.2-0.6-63.3,12.1-86,35c-16,15-28,34-33,56h33l7-17
	c16.3-29.2,47.5-46.9,81-46c50.8-0.6,92.5,40.2,93,91c0,1,0,2,0,3c1.2,33.3-16.6,64.3-46,80c-29.4,15.9-64.9,15.5-94-1
	c-19.2-11.2-33.8-29-41-50h-32c5,21,16,40,31,55c22.3,22.9,53.1,35.5,85,35c37,0.7,72.1-15.9,95-45v39h30V89h-30V131z M1291,3h-30
	v86h-42v25h42v204h30V114h48V89h-48V3z M1590,127c-24-29-56-44-96-44c-39,0-70,14-93,43c-39,47.3-36.9,116.2,5,161
	c21,25,51,37,90,37c15,0,31-2,46-8c14-5,26-12,37-22c12-11,22-24,29-39l-25-13c-7,12-16,23-26,32c-9,8-18,13-29,17
	c-22.3,7.9-46.7,7.9-69,0c-33.7-14.8-55.3-48.2-55-85h212C1616,174,1607,148,1590,127z M1407,180c9-40.7,45.3-69.5,87-69
	c27-0.1,52.7,11.2,71,31c9,12,15,24,18,38H1407z M1753,83c-11,0-22,3-32,9c-11,8-21,18-29,30V89h-31v229h31v-78c0-39,2-66,6-79
	c5-17,12-29,21-37c8-8,19-12,29-13l16,4l16-25C1772,86,1763,83,1753,83z"/>
<path class="st0" d="M1044,278c42,0.4,76.3-33.4,76.7-75.3s-33.4-76.3-75.3-76.7c-31.4-0.3-59.7,18.8-71.3,48h51v-17l72,46l-72,45
	v-14h-50C987.5,260.9,1014.4,278,1044,278z"/>
</svg>
