<?xml version="1.0" encoding="utf-8"?>
<!-- Generator: Adobe Illustrator 25.4.1, SVG Export Plug-In . SVG Version: 6.00 Build 0)  -->
<svg version="1.1" id="Layer_1" xmlns="http://www.w3.org/2000/svg" xmlns:xlink="http://www.w3.org/1999/xlink" x="0px" y="0px"
	 viewBox="0 0 512 211" style="enable-background:new 0 0 512 211;" xml:space="preserve">
<style type="text/css">
	.st0{fill:#144470;}
	.st1{fill:#23CE6B;}
	.st2{opacity:0.6;fill:url(#SVGID_1_);enable-background:new    ;}
	.st3{fill:url(#SVGID_00000161627473661313241860000002288216131448089789_);}
</style>
<path class="st0" d="M45.9,104c-13.3,14.2,0,0-13.3,14.2c0,2,0.2,28.8,0.2,41c0,4.8-2.2,7.2-6.7,7.2c-6.6,0-13.1,0-19.7,0
	c-3.8,0-6.4-2.8-6.4-6.7C0,109.5,0.1,59.3,0,9.1c0-5.4,3.2-8,7.4-8.2c6-0.2,11.9-0.4,17.9,0c4.7,0.3,7.2,1.6,7.2,8.2
	c0,17.6,0,55.3,0,58.2c0.1,5.5,41.9-51.3,48.4-60.2c3.2-4.4,7.3-6,12-6.2c6.3-0.2,12.6-0.1,18.9,0c5.6,0,4.7,2.6,3.8,4
	c-5,7.9-20.4,31.2-48.8,76.6c7.6,10.2,16.8,22.2,24.5,32.4c7.8,10.4,15.4,20.8,23.1,31.3c4,5.4,8,10.8,11.8,16.3
	c1.7,2.5,0.6,4.9-2.4,4.9c-9.9,0.1-19.8,0.3-29.7-0.1c-4.2-0.2-7.4-3.3-9.9-7c-5.4-8-11-15.8-16.5-23.7c-5-7.2-9.9-14.4-14.9-21.6
	C50.8,110.8,48.7,107.9,45.9,104z"/>
<path class="st0" d="M383.9,59.3c2.2-2,4.4-3.9,6.8-5.8c7.2-5.8,15.1-9.3,24.2-10c6.8-0.5,13.6-0.7,20.3,1.2
	c6.3,1.8,11.5,5.2,15.5,10.7c4.8,6.6,6.5,14.4,6.6,22.5c0.2,26.6,0.1,53.2,0.1,79.8c0,4.1-1.7,5.8-5.4,5.8c-6,0-11.9,0-17.9,0
	c-4.1,0-5.8-1.8-5.8-6.3c0-19.9,0-39.8,0-59.7c0-4.4,0-8.9-0.6-13.2c-0.9-5.5-3.9-10-9-11.8c-9.5-3.3-18.8-2.6-27,4.1
	c-2.5,2-4.7,4.4-6.9,6.8c-0.7,0.8-1.1,2.3-1.1,3.4c0,22.8,0,45.7,0,68.5c0,1.4,0.1,2.8-0.1,4.1c-0.3,2.3-1.6,3.8-3.9,3.8
	c-7,0-14,0-21,0c-2.3,0-3.9-1.9-4.1-4.4c0-0.4,0-0.9,0-1.4c0-50.3,0.1-100.7,0-151.1c0-4.1,1.5-5.4,5.4-5.7
	c6.2-0.4,12.4-0.2,18.7-0.1c3.7,0.1,4.7,1.4,4.8,5.4c0.1,52.7,0,0,0.1,52.7C383.4,59.1,383.7,59.2,383.9,59.3z"/>
<path class="st0" d="M183.5,125.5c1.4-3.9,2.6-7.3,3.8-10.6c2.2-6.1,4.4-12.1,6.5-18.2c1.7-4.9,3.3-9.9,5-14.8
	c1.6-4.5,3.2-8.9,4.9-13.4c1.6-4.5,3.2-9.1,4.9-13.7c0.7-1.9,1.2-3.8,2-5.6c1.4-3,4.1-3.7,6.9-3.8c6.7-0.1,13.5-0.1,20.2,0
	c4.2,0.1,4.9,1.8,3.3,6c-2.2,5.7-4.2,11.4-6.4,17.1c-2.2,5.8-4.4,11.5-6.6,17.3c-2,5.4-4,10.8-6.1,16.2c-2.3,6.1-4.7,12.2-6.9,18.3
	c-2.5,6.9-4.9,13.8-7.4,20.6c-1.7,4.5-3.6,8.7-5.3,13.2c-1.7,4.4-3.1,9-4.8,13.4c-3.2,8-5.3,16.5-9.8,23.9
	c-4.7,7.9-11,13.3-19.4,16.3c-7.8,2.8-15.8,3.2-23.8,2.8c-2.2-0.1-4.6-0.5-6.3-1.8c-1.2-0.8-1.8-3.5-1.6-5.2
	c0.6-5.5,1.7-10.9,2.4-16.4c0.9-6.2,2.7-6.6,7.2-5.2c14.6,4.9,21-8.5,21.3-16.4c0.2-3.3-1.2-6.5-2.5-9.7c-2.8-6.8-5-13.8-7.6-20.7
	c-1.6-4.4-3.4-8.7-5-13c-1.3-3.6-2.4-7.2-3.7-10.8c-1.5-4.1-3.1-8.2-4.7-12.3c-1.7-4.7-3.3-9.5-5.1-14.1c-1.8-4.6-3.8-9.2-5.5-13.8
	c-1.5-3.9-2.8-7.9-4.2-11.9c-1.1-3-2.3-6-3.1-9.2c-0.9-3.5,0-4.7,3.5-4.8c5.6-0.1,11.1-0.1,16.6-0.1c1.9,0,3.9,0.1,5.8,0.3
	c2.9,0.4,4.4,2.7,5.3,5.3c2.4,6.7,4.8,13.5,7,20.3c2,6,3.9,12.2,6,18.1c2.6,7.4,5.5,14.7,8.2,22.1c1.2,3.4,2.2,6.9,3.4,10.3
	C182.2,123,182.7,124,183.5,125.5z"/>
<path class="st0" d="M290.4,166.6c-8.7,0.1-15-1.4-22.1-3.3c-8.7-2.4-16.9-6.3-23.8-12.8c-1.7-1.6-2.2-4.8-1-7
	c2.7-4.9,5.5-9.7,8.2-14.6c1.4-2.5,4-3,6.3-1c6.6,5.9,14.3,9.4,22.4,11.6c4.7,1.3,9.8,1.7,14.6,1.5c4.1-0.2,8.6-0.9,11.7-4.5
	c5.3-6.1,4-11.9-3.1-14.7c-6.1-2.4-12.8-3.3-19.1-5.2c-7.4-2.2-14.9-4.2-22-7.3c-6.7-2.9-12-8.4-15-15.7c-2.8-6.9-2.9-14.5-1.4-21.6
	c2.2-10.4,8.5-17.9,17.4-23c10.7-6.1,22-6.4,33.7-5.8c6.5,0.4,12.9,1.7,18.8,4.3c5.2,2.3,10.1,5.5,15,8.7c2.7,1.7,2.7,4.5,0.6,8.2
	c-2.2,4.1-4.5,8.1-6.7,12.2c-1.6,2.9-3.2,3.2-5.8,1.5c-3.2-2.2-6.3-4.4-9.7-6.2c-7.8-4-16.1-5.2-24.5-3.9c-4.5,0.7-8.7,2.8-10.9,7.7
	c-1.3,2.8-0.8,6.1,1.7,7.4c3.3,1.8,6.8,3.3,10.3,4.4c4.3,1.3,8.7,2.1,13.1,3.2c4.5,1.1,9,2.1,13.4,3.6c10,3.5,18.8,9,23.3,19.8
	c2.6,6.2,2.4,12.8,1.9,19.4c-0.8,10.3-6,17.7-13.7,23.5c-7.1,5.3-15.2,7.4-23.5,8.7C297,166.3,294.2,166.6,290.4,166.6z"/>
<path class="st1" d="M477.4,19.3C477,9.1,484.8,1,494.7,1c9,0,18.5,8,17.1,21c-0.8,7.4-7.5,17.6-19.3,16.4
	C485.3,37.6,476.8,30.3,477.4,19.3z"/>
<linearGradient id="SVGID_1_" gradientUnits="userSpaceOnUse" x1="520.699" y1="209.2594" x2="496.491" y2="176.7482" gradientTransform="matrix(1 0 0 -1 0 212)">
	<stop  offset="0" style="stop-color:#33197E"/>
	<stop  offset="1" style="stop-color:#33197E;stop-opacity:0"/>
</linearGradient>
<path class="st2" d="M492.5,38.3c11.9,1.2,18.5-8.9,19.3-16.4c0.6-5.8-0.9-10.6-3.6-14.1c2.4,11.3-4.9,20.5-15.7,21.8
	C492.5,38.3,492.5,29.6,492.5,38.3z"/>
<path class="st0" d="M509.3,51.3c0-3.5-1.4-4.2-4.4-2.5c-3.4,1.9-6.8,2.8-10.2,2.8c-3.4,0-6.8-0.8-10.2-2.8c-2.9-1.6-4.4-1-4.4,2.5
	c0,35.8,0,71.5,0,107.3c0,3.1,1.7,4.9,4.6,4.9c3.3,0,6.6,0,9.9,0c3.3,0,6.6,0,9.9,0c2.9,0,4.6-1.8,4.6-4.9
	C509.3,122.8,509.3,87.1,509.3,51.3z"/>
<linearGradient id="SVGID_00000099652649743399742000000012851005821929534865_" gradientUnits="userSpaceOnUse" x1="29.5615" y1="106.6848" x2="118.3377" y2="202.7769" gradientTransform="matrix(1 0 0 -1 0 212)">
	<stop  offset="0" style="stop-color:#23CE6B"/>
	<stop  offset="1" style="stop-color:#23CE6B;stop-opacity:0"/>
</linearGradient>
<path style="fill:url(#SVGID_00000099652649743399742000000012851005821929534865_);" d="M115.7,5C84.9,35.8,56,64.1,32.6,85.4v32.8
	c34.3-36.7,0,0,34.3-36.7C115.7,5,66.9,81.5,115.7,5z"/>
<path class="st1" d="M32.6,98.9V85.4c24-21.8,52.8-50.2,83.1-80.4L32.6,98.9z"/>
</svg>
