<svg xmlns="http://www.w3.org/2000/svg" viewBox="0 0 808.54 144.65"><title>Asset 2</title><g id="Layer_2" data-name="Layer 2"><g id="Layer_1-2" data-name="Layer 1"><path d="M77.58,17.24A42.32,42.32,0,0,0,61.66,4.71Q51.72,0,36.68,0H0V111.9H36.36q13.47,0,23.27-4.31A44.33,44.33,0,0,0,75.85,95.75,48.2,48.2,0,0,0,85.33,78,77.25,77.25,0,0,0,88.39,55.8,87.5,87.5,0,0,0,86,35.11a48,48,0,0,0-8.38-17.87M77.5,80A41.33,41.33,0,0,1,67.07,95.37a38.2,38.2,0,0,1-14.34,8.15A53.4,53.4,0,0,1,37,105.94H6.9V6H35.58a88,88,0,0,1,9.16.55A48,48,0,0,1,54.93,8.78a42.21,42.21,0,0,1,9.87,4.94,31.24,31.24,0,0,1,8.47,8.78,48.4,48.4,0,0,1,6,13.71A73.85,73.85,0,0,1,81.49,55.8q0,14.58-4,24.2"/><path d="M152.64,41.14a31.28,31.28,0,0,0-10.89-8.54,34.07,34.07,0,0,0-15-3.13A34.64,34.64,0,0,0,110.72,33a33.69,33.69,0,0,0-11.36,9.4A40.56,40.56,0,0,0,92.54,56a57.58,57.58,0,0,0-2.27,16.22,58.47,58.47,0,0,0,2.19,16.37,37.22,37.22,0,0,0,6.66,13.16,31.66,31.66,0,0,0,11.13,8.79,35.7,35.7,0,0,0,15.6,3.2q14.55,0,23.43-7.51t11.51-21.63h-6q-2.67,11.3-9.74,17.63t-19.17,6.35a28.5,28.5,0,0,1-13-2.82,26.58,26.58,0,0,1-9.28-7.68,34.36,34.36,0,0,1-5.57-11.29,47.47,47.47,0,0,1-1.89-13.48V72.4h65.2c0-.41,0-1,.07-1.65s.08-1.27.08-1.79a49.89,49.89,0,0,0-2.27-15.28,38.16,38.16,0,0,0-6.66-12.54M96.38,67.24A48.74,48.74,0,0,1,98.9,55a32,32,0,0,1,5.8-10.42A28.79,28.79,0,0,1,114,37.38a28.35,28.35,0,0,1,12.73-2.74,26.36,26.36,0,0,1,12,2.66,27.83,27.83,0,0,1,9,7.13,31.15,31.15,0,0,1,5.59,10.35,48,48,0,0,1,2.19,12.46Z"/><path d="M261.63,32.05a34.86,34.86,0,0,0-9.24,3.84,28.17,28.17,0,0,0-7.06,6,19.74,19.74,0,0,0-4,7.37h-.47V31.35h-6v74.94a29.61,29.61,0,0,1-4.23.43,5.06,5.06,0,0,1-3.14-.85,4.89,4.89,0,0,1-1.57-2.28,12.46,12.46,0,0,1-.55-3.13c0-1.15-.07-2.3-.07-3.45V50.16a18.78,18.78,0,0,0-6.66-15q-6.66-5.73-21.23-5.72T175,36.13q-7.92,6.66-8.54,20h6Q173,45.29,179.67,40t17.47-5.33a37,37,0,0,1,10.34,1.25,19.4,19.4,0,0,1,6.9,3.45,13.63,13.63,0,0,1,3.92,5,14.74,14.74,0,0,1,1.26,6.1,45.76,45.76,0,0,1-.47,7.06,8.06,8.06,0,0,1-2.36,4.63A12.87,12.87,0,0,1,211.17,65a54.48,54.48,0,0,1-10.1,1.47l-9.25.79a95.15,95.15,0,0,0-10.11,1.57,30.39,30.39,0,0,0-9.56,3.69A21.37,21.37,0,0,0,165,79.54c-1.87,3-2.81,6.81-2.81,11.52q0,11.6,7.05,17.15t19.91,5.56a38,38,0,0,0,10.64-1.4,32.59,32.59,0,0,0,8.7-3.92,28.57,28.57,0,0,0,6.51-5.73,25.25,25.25,0,0,0,4.08-6.81h.3v4.22a25.44,25.44,0,0,0,.4,4.63,9,9,0,0,0,1.49,3.69,7.49,7.49,0,0,0,3.21,2.5,14.46,14.46,0,0,0,5.72.94,18.8,18.8,0,0,0,4.7-.59v.59h6v-44a51.17,51.17,0,0,1,.79-7.83,29.82,29.82,0,0,1,1.72-6,22.28,22.28,0,0,1,2.74-4.85A54.15,54.15,0,0,1,250,44.66a26.12,26.12,0,0,1,11.52-6.89,28.25,28.25,0,0,1,10.74-.94v-6a37.88,37.88,0,0,0-10.59,1.18M219.39,81.19a39.6,39.6,0,0,1-.85,6,25.9,25.9,0,0,1-4,9.25,28.4,28.4,0,0,1-9.08,8.45q-6,3.69-16.14,3.69-9.87,0-15.51-4.31t-5.65-13.24a17.17,17.17,0,0,1,2.19-9.17,16.14,16.14,0,0,1,5.73-5.56A25.65,25.65,0,0,1,184,73.42c2.92-.57,5.85-1,8.77-1.32l10-.95a79.84,79.84,0,0,0,9.94-1.4,11.33,11.33,0,0,0,6.66-3.61Z"/><path d="M310.91,0h-38.4V111.9h38.4q13.95,0,24.13-3.92a42.07,42.07,0,0,0,16.77-11.36,46.65,46.65,0,0,0,9.72-18.34,90.55,90.55,0,0,0,3.13-25q0-27-14-40.11T310.91,0m36.76,73a43.35,43.35,0,0,1-5.41,12.15,28.49,28.49,0,0,1-7.45,7.68,36.87,36.87,0,0,1-8.38,4.31,34.91,34.91,0,0,1-8,1.87,60.33,60.33,0,0,1-6.27.4H287.4V12.54h25.08q10.35,0,17.39,2.9a28.17,28.17,0,0,1,11.52,8.46,34.56,34.56,0,0,1,6.43,13.48,75.29,75.29,0,0,1,1.95,17.95A64.24,64.24,0,0,1,347.67,73"/><path d="M499.89,72a32.23,32.23,0,0,0-8.46-4.16,100.64,100.64,0,0,0-9.79-2.66c-3.14-.73-6.27-1.43-9.41-2.12a54.5,54.5,0,0,1-8.46-2.5,19.64,19.64,0,0,1-6.2-3.76,7.5,7.5,0,0,1-2.42-5.73A7.85,7.85,0,0,1,456.72,46a11.37,11.37,0,0,1,4.07-3.13,20.68,20.68,0,0,1,5.57-1.65,40,40,0,0,1,6-.47,30.26,30.26,0,0,1,6.51.71,19.74,19.74,0,0,1,5.86,2.27,12.7,12.7,0,0,1,6.43,10.65h13.33a29.89,29.89,0,0,0-3.14-12.29,21.21,21.21,0,0,0-7.13-7.85A29.35,29.35,0,0,0,484,30.18,63.38,63.38,0,0,0,471.29,29a45.09,45.09,0,0,0-10.73,1.33,32.07,32.07,0,0,0-9.72,4.08,22.23,22.23,0,0,0-7,7.13A19.34,19.34,0,0,0,441,52q0,7.84,3.92,12.22a26.51,26.51,0,0,0,9.79,6.82,66.32,66.32,0,0,0,12.79,3.77c4.59.89,8.84,1.87,12.76,3a33.24,33.24,0,0,1,9.79,4.31A8.88,8.88,0,0,1,494,90a9.88,9.88,0,0,1-1.87,6.18,11.9,11.9,0,0,1-4.79,3.68,24.41,24.41,0,0,1-6.34,1.73,49.46,49.46,0,0,1-6.59.47,38.94,38.94,0,0,1-7.91-.79,21.83,21.83,0,0,1-6.89-2.58,14.1,14.1,0,0,1-4.94-4.86,15,15,0,0,1-2-7.45h-25.5c-1.17,5.25-3.51,9.18-7.07,11.76S411.84,102,406.2,102a27.47,27.47,0,0,1-11.44-2.2,22.21,22.21,0,0,1-8-5.88,22.58,22.58,0,0,1-4.54-8.46A31.69,31.69,0,0,1,381,75.39h60.65a64.94,64.94,0,0,0-1.34-15.53,44.4,44.4,0,0,0-6-15,35.18,35.18,0,0,0-11.44-11.36Q415.76,29,404.94,29a37.05,37.05,0,0,0-15.28,3.13,36,36,0,0,0-12.06,8.78,40.23,40.23,0,0,0-7.91,13.32,48.49,48.49,0,0,0-2.83,16.92,65.44,65.44,0,0,0,2.74,17.09,37.37,37.37,0,0,0,7.3,13.47,33,33,0,0,0,12,8.77,41.55,41.55,0,0,0,16.84,3.14q13.78,0,22.88-6.9c5.31-4,9-9.8,11-17.28a26.91,26.91,0,0,0,2.87,9.69,23.42,23.42,0,0,0,7.53,8.46,31.41,31.41,0,0,0,10.8,4.63,57.67,57.67,0,0,0,12.86,1.4,66.16,66.16,0,0,0,12.3-1.17,33.24,33.24,0,0,0,11.12-4.16,23.77,23.77,0,0,0,8-7.83c2-3.24,3.05-7.3,3.05-12.22a19,19,0,0,0-2.27-9.71,20.2,20.2,0,0,0-6-6.51M383,54.78a23.52,23.52,0,0,1,4.71-7.28,21.3,21.3,0,0,1,7.13-4.94,23.06,23.06,0,0,1,9.32-1.81,22.64,22.64,0,0,1,9.17,1.81,23.16,23.16,0,0,1,7.21,4.85,22.71,22.71,0,0,1,4.86,7.29,27.32,27.32,0,0,1,2.11,8.93H381a28,28,0,0,1,2-8.85"/><polygon points="524.54 83.22 528.45 34.49 528.45 0 513.57 0 513.57 34.49 517.49 83.22 524.54 83.22"/><rect x="512.31" y="94.5" width="17.39" height="17.4"/><path d="M595.65,42.47h-.16a23.73,23.73,0,0,0-10-10.1A29.9,29.9,0,0,0,571.35,29q-10.5,0-17.7,4A34.55,34.55,0,0,0,542,43.18,40.4,40.4,0,0,0,535.78,57a62.24,62.24,0,0,0-1.88,14.81,53.46,53.46,0,0,0,2.28,15.75,37.75,37.75,0,0,0,6.81,13,33.22,33.22,0,0,0,11.29,8.85,35.74,35.74,0,0,0,15.83,3.29,32.36,32.36,0,0,0,14.8-3.52,22.33,22.33,0,0,0,10.42-11h.32v5.32a53.69,53.69,0,0,1-1.34,12.38,25.65,25.65,0,0,1-4.31,9.64,20.78,20.78,0,0,1-7.51,6.27A24.85,24.85,0,0,1,571.35,134a35.77,35.77,0,0,1-6.88-.72A24.88,24.88,0,0,1,557.8,131a16.62,16.62,0,0,1-5.17-4.07,9.77,9.77,0,0,1-2.27-6.12H537A21,21,0,0,0,540.48,132a24.9,24.9,0,0,0,7.92,7.36,35.52,35.52,0,0,0,10.66,4.08,55.37,55.37,0,0,0,11.51,1.25q19.42,0,28.52-9.87T608.18,105V30.88H595.65V42.47Zm-2,38.55a33.1,33.1,0,0,1-4.14,10.12,22,22,0,0,1-7.45,7.2,21.51,21.51,0,0,1-11.21,2.74,20.22,20.22,0,0,1-11-2.74,21.12,21.12,0,0,1-7-7.2,31.5,31.5,0,0,1-3.77-10,56.78,56.78,0,0,1-1.09-11,45.58,45.58,0,0,1,1.34-11.12,27.24,27.24,0,0,1,4.23-9.4A21.19,21.19,0,0,1,561,43.18a23,23,0,0,1,11-2.43,21.16,21.16,0,0,1,10.65,2.51,20.7,20.7,0,0,1,7.13,6.66,29.19,29.19,0,0,1,4,9.32A44.31,44.31,0,0,1,595,69.75,48.81,48.81,0,0,1,593.68,81"/><path d="M677.28,37.3a21.88,21.88,0,0,0-8.62-6.11A35.29,35.29,0,0,0,655.33,29q-18,0-26.32,14.73h-.32V30.88H616.16v81h13.33V66.14A32.59,32.59,0,0,1,631,56,22.83,22.83,0,0,1,635.44,48a19.62,19.62,0,0,1,7.45-5.31,26.76,26.76,0,0,1,10.57-1.89c5.11,0,9.14,1.47,12.06,4.39s4.39,6.9,4.39,11.91V111.9h13.33V58.62a50.06,50.06,0,0,0-1.34-12,22.57,22.57,0,0,0-4.62-9.33"/><path d="M754.71,44.83a35.38,35.38,0,0,0-11.44-11.36c-4.76-3-10.73-4.47-17.95-4.47a37,37,0,0,0-15.27,3.13A35.79,35.79,0,0,0,698,40.92a40.08,40.08,0,0,0-7.91,13.31,48.72,48.72,0,0,0-2.83,16.92A65.44,65.44,0,0,0,690,88.24a37.28,37.28,0,0,0,7.3,13.47,33,33,0,0,0,12,8.77,41.5,41.5,0,0,0,16.85,3.14q13.8,0,22.88-6.9T760.74,86.2H747.57q-1.71,8-7.12,11.91T726.58,102a27.55,27.55,0,0,1-11.43-2.19,22.14,22.14,0,0,1-12.54-14.35,32,32,0,0,1-1.26-10.1H762a64.84,64.84,0,0,0-1.33-15.52,44.86,44.86,0,0,0-6-15m-53.36,18.8a27.7,27.7,0,0,1,2-8.85,23.49,23.49,0,0,1,4.7-7.28,21.3,21.3,0,0,1,7.13-4.94,23.08,23.08,0,0,1,9.33-1.81,22.59,22.59,0,0,1,9.16,1.81,23.16,23.16,0,0,1,7.21,4.85,22.82,22.82,0,0,1,4.86,7.29,27.58,27.58,0,0,1,2.12,8.93Z"/><path d="M790.67,33.39q-7,4.68-11.91,14.56h-.3V30.88H765.92v81h13.31v-36A55.71,55.71,0,0,1,780.8,62a26.83,26.83,0,0,1,5-10.26,21.43,21.43,0,0,1,9.1-6.42,37.49,37.49,0,0,1,13.63-2.19V29q-10.81-.33-17.87,4.39"/></g></g></svg>