<svg width="592" height="624" fill="none" xmlns="http://www.w3.org/2000/svg"><path d="M301.402 623.89h-.404C288.665 619.266-29.908 494.158 15.424 72.041c0 0 80.35-61.031 285.574-61.031h.367c205.224 0 285.574 61.031 285.574 61.031 45.369 422.117-273.204 547.225-285.537 551.849z" fill="url(#paint0_linear)"/><path d="M290.391 612.88h-.404C277.654 608.256-40.919 483.148 4.413 61.031c0 0 80.35-61.031 285.574-61.031h.367c205.224 0 285.574 61.031 285.574 61.031 45.368 422.117-273.204 547.225-285.537 551.849z" fill="url(#paint1_linear)"/><path d="M290.353 578.089s-91.472-33.47-166.022-128.998l-.294-.294a427.838 427.838 0 0 1-46.323-74.059C42.036 302.22 20.306 206.655 33.667 82.464c0 0 28.374-21.506 94.959-37.58 39.642-9.579 92.866-17.212 161.727-17.212-.367-.404 0 550.417 0 550.417z" fill="#8D267D"/><path d="M500.68 378.665v.257a427.526 427.526 0 0 1-43.424 68.811c-74.807 96.52-167.27 130.356-167.27 130.356V449.128 330.772v-303.1c184.559 0 256.943 54.792 256.943 54.792 13.398 126.466-9.396 223.242-46.249 296.201z" fill="#94939B"/><path d="M289.986 330.992v118.245L154.43 213.811l-30.099 235.28-.293-.294a427.814 427.814 0 0 1-46.324-74.059l-.22-.478L128.48 44.883l161.507 286.109z" fill="#fff"/><path d="M502.551 374.334c-.624 1.505-1.248 2.936-1.872 4.404v.257a427.524 427.524 0 0 1-43.424 68.738l-1.505 1.504-29.952-235.426-135.813 235.316V330.772L451.492 44.883l51.059 329.451z" fill="#fff"/><defs><linearGradient id="paint0_linear" x1="572.624" y1="213.481" x2="118.877" y2="355.445" gradientUnits="userSpaceOnUse"><stop stop-color="#D3D2D2"/><stop offset="1" stop-color="#D3D2D2"/></linearGradient><linearGradient id="paint1_linear" x1=".008" y1="306.513" x2="580.369" y2="306.513" gradientUnits="userSpaceOnUse"><stop stop-color="#939598"/><stop offset="1" stop-color="#FDFDFD"/></linearGradient></defs></svg>