<svg width="98" height="98" fill="none" xmlns="http://www.w3.org/2000/svg"><path d="M48.748 97.497c26.924 0 48.75-21.825 48.75-48.748C97.497 21.825 75.671 0 48.747 0 21.826 0 0 21.826 0 48.748c0 26.924 21.826 48.75 48.748 48.75z" fill="#032343"/><path fill-rule="evenodd" clip-rule="evenodd" d="M46.755 5.968c-8.623.332-17.576 3.648-24.043 8.788-1.824 1.493-3.316 2.82-4.974 4.477l-.498.498-1.658 1.99c-1.326 1.492-2.653 3.647-3.814 5.637-2.32 4.145-4.145 8.457-4.974 13.762-.829 4.312-.829 8.623-.332 12.934.166 1.492.332 2.819 1.161 3.648.995.829 2.322.829 3.316 0 1.161-1.161.664-2.156.498-3.648-1.16-8.457.497-16.084 4.145-23.38 1.492-2.984 4.477-6.964 7.13-9.285 1.492-1.327 2.155-1.99 3.814-3.15 7.461-5.307 16.083-7.96 25.535-7.13 5.306.497 10.446 2.155 14.425 4.31 3.648 1.99 4.809 2.985 7.627 5.307l.664.663c.497.332.829.663 1.16 1.16l.664.664c.497.497 2.155 2.653 2.653 3.15.331.498.663.83.995 1.327.331.497.497.995.994 1.326 1.161.83 2.653.332 3.317-.497.995-1.16.331-2.487-.332-3.482-2.653-3.98-5.638-6.964-9.12-9.783-6.964-5.472-16.58-9.451-28.353-9.12v-.166zM10.608 60.852c-3.316.663-2.156 5.638.995 4.974 1.16-.331 2.321-1.492 1.99-2.984-.332-1.161-1.493-2.156-2.985-1.99zm74.947-29.349c-3.317.664-2.488 5.638.828 4.975 3.15-.663 2.322-5.472-.828-4.975zM43.438 58.696l1.493 3.98c.166.663-1.658 3.814-1.161 7.627.166 1.327.497 1.824.995 2.653 2.819 4.145 8.788 4.145 11.773-.166 2.155-3.316 1.326-6.466-1.327-8.953-.497-.498-.332-.332-.663-1.161a45.827 45.827 0 01-.995-2.653c-.166-.498-.83-2.321-.995-2.653l-1.824-4.974 17.079-6.467-4.643-2.156a61.201 61.201 0 01-4.809-2.155c-.497-.166-1.99-.995-2.32-.995-.664.166-1.825.663-2.488.995l-9.949 3.813c-1.658.664-3.648 1.161-3.648 3.15 0 1.327 1.161 3.98 1.658 5.141.664 1.658 1.327 3.316 1.824 4.974zm-2.155-22.052l25.203-9.617c-.166-.332-7.461-3.98-8.622-4.643-.166-.166-1.658-.83-1.824-.995-.332-.166-20.229 7.627-23.213 8.788-1.493.497-2.488.995-2.985 2.321-.497 1.16-.663 3.317-.663 4.809 0 1.658.331 3.15.995 4.31.497.83 1.823 1.825 3.15 2.322 1.492.498 3.15.332 4.477-.166 2.653-1.16 4.145-4.31 3.482-6.964v-.165zm43.442 22.384c-1.326 4.974-3.647 9.286-6.3 12.602l-1.659 1.99c-.165.165-.331.331-.497.663-.497.497-.663.829-1.16 1.16l-2.488 2.322c-.331.331-.829.663-1.326.995-4.809 3.482-9.617 5.969-16.25 7.13-11.607 2.155-22.218-1.493-29.348-6.965-1.659-1.326-4.311-3.647-5.472-5.14-.166-.166-.332-.497-.498-.663-1.16-1.492-1.823-2.321-2.984-3.98-1.824-2.818-5.472-.663-4.477 1.99.497 1.161 2.985 4.477 3.98 5.472.331.332.828.995 1.16 1.326.498.332.663.83 1.16 1.161 5.804 5.804 13.1 9.783 21.39 11.441 11.275 2.322 22.22-.166 30.675-5.14 12.27-7.296 20.395-20.56 20.727-35.65 0-1.99-.166-6.963-.663-8.622-.995-2.652-5.306-1.99-5.14.498.331 3.98 1.16 10.114-.83 17.41z" fill="url(#paint0_linear)"/><defs><linearGradient id="paint0_linear" x1="65.823" y1="84.563" x2="37.469" y2="10.114" gradientUnits="userSpaceOnUse"><stop stop-color="#77BE4D"/><stop offset="1" stop-color="#07C9EB"/></linearGradient></defs></svg>