<svg width="226" height="45" viewBox="0 0 226 45" fill="none" xmlns="http://www.w3.org/2000/svg">
<path d="M64.5586 33.7138V19.3509H70.8402V16.1749H64.4881C64.2763 13.634 65.7232 12.8929 68.5111 12.8929H70.8402V10.0698H69.111C64.1352 10.0698 61.2061 12.3283 60.7826 16.1749H58.1006V19.3509H60.7474V33.7138H64.5586ZM76.7688 33.7138V10.0698H72.9576V33.7138H76.7688Z" fill="black"/>
<path d="M87.5956 34.0667C92.1127 34.0667 94.4418 31.2435 95.0064 28.2792H95.2182V33.7138H98.7118V16.1749H94.9358V24.8561C94.9358 28.6674 93.1361 30.6436 89.2542 30.6436C85.5488 30.6436 84.0313 28.985 84.0313 25.7031V16.1749H80.2553V26.7265C80.2553 30.7848 82.655 34.0667 87.5956 34.0667Z" fill="black"/>
<path d="M105.986 14.1281V10.0698H102.174V14.1281H105.986ZM105.986 33.7138V16.1749H102.174V33.7138H105.986Z" fill="black"/>
<path d="M117.243 34.0667C121.196 34.0667 123.772 32.1611 124.513 28.6674H124.76V33.7138H128.254V10.0698H124.442V20.939H124.231C123.525 17.9746 121.16 15.822 116.996 15.822C111.668 15.822 108.633 19.4921 108.633 24.962C108.633 30.3613 111.703 34.0667 117.243 34.0667ZM112.479 24.962C112.479 20.7272 114.667 19.2804 118.337 19.2804C122.254 19.2804 124.442 21.1154 124.442 24.8561V25.1384C124.442 28.8086 122.149 30.573 118.408 30.573C114.632 30.573 112.479 29.1615 112.479 24.962Z" fill="black"/>
<path d="M140.635 34.0667C145.893 34.0667 149.74 31.1024 149.74 26.7265V26.3383H145.964V26.5853C145.964 29.3026 143.988 30.6436 140.565 30.6436C136.612 30.6436 134.848 28.738 134.848 24.962C134.848 21.1154 136.612 19.2451 140.565 19.2451C143.988 19.2451 145.964 20.5861 145.964 23.3034V23.5151H149.74V23.1622C149.74 18.7863 145.893 15.822 140.635 15.822C134.848 15.822 131.072 19.4921 131.072 24.962C131.072 30.3613 134.848 34.0667 140.635 34.0667Z" fill="black"/>
<path d="M161.522 34.0667C167.38 34.0667 171.297 30.3613 171.297 24.962C171.297 19.4921 167.38 15.822 161.522 15.822C155.699 15.822 151.782 19.4921 151.782 24.962C151.782 30.3613 155.699 34.0667 161.522 34.0667ZM161.522 30.6789C157.287 30.6789 155.523 28.6674 155.523 24.962C155.523 21.2213 157.287 19.1745 161.522 19.1745C165.792 19.1745 167.557 21.2213 167.557 24.962C167.557 28.6674 165.792 30.6789 161.522 30.6789Z" fill="black"/>
<path d="M177.874 14.1281V10.0698H174.063V14.1281H177.874ZM177.874 33.7138V16.1749H174.063V33.7138H177.874Z" fill="black"/>
<path d="M185.215 33.7138V25.0326C185.215 21.2213 186.944 19.2451 190.791 19.2451C194.426 19.2451 195.908 20.9037 195.908 24.1856V33.7138H199.719V23.1622C199.719 19.1039 197.319 15.822 192.449 15.822C188.003 15.822 185.674 18.6451 185.144 21.6095H184.897V16.1749H181.404V33.7138H185.215Z" fill="black"/>
<path d="M211.408 34.0667C216.349 34.0667 219.595 32.1258 219.595 28.8438C219.595 25.9501 217.69 24.5385 213.526 24.0092L209.467 23.4445C206.82 23.0916 206.115 22.5976 206.115 21.2213C206.115 19.5627 207.244 18.8569 210.455 18.8569C214.337 18.8569 215.396 19.9509 215.396 22.033V22.2447H219.172V22.1388C219.172 17.9746 215.925 15.822 210.561 15.822C205.162 15.822 202.374 18.0099 202.374 21.0801C202.374 24.0092 204.386 25.4208 207.703 25.8442L212.502 26.4794C215.008 26.8323 215.855 27.2911 215.855 28.738C215.855 30.2907 214.831 30.9965 211.408 30.9965C207.738 30.9965 206.362 30.2554 206.362 27.9616V27.6793H202.55V27.7852C202.55 31.8435 205.762 34.0667 211.408 34.0667Z" fill="black"/>
<path d="M0.016674 22.3132C0.016674 13.8805 0.016674 9.66412 1.92102 6.57003C2.97382 4.8595 4.41338 3.41993 6.12391 2.36714C9.218 0.462791 13.4723 0.462791 21.9809 0.462791C30.4895 0.462791 34.7438 0.462791 37.8379 2.36714C39.5485 3.41993 40.988 4.8595 42.0408 6.57002C43.9452 9.66412 43.9452 13.8805 43.9452 22.3132C43.9452 30.746 43.9452 34.9623 42.0408 38.0564C40.988 39.767 39.5485 41.2065 37.8379 42.2593C34.7438 44.1637 30.4895 44.1637 21.9809 44.1637C13.4723 44.1637 9.218 44.1637 6.12391 42.2593C4.41338 41.2065 2.97382 39.767 1.92102 38.0564C0.016674 34.9623 0.016674 30.746 0.016674 22.3132Z" fill="#131228"/>
<path fill-rule="evenodd" clip-rule="evenodd" d="M16.3871 16.836V27.6496C16.3871 30.6234 13.9541 33.0565 10.9803 33.0565V22.2429C10.9803 19.2692 13.4133 16.836 16.3871 16.836Z" fill="white"/>
<path fill-rule="evenodd" clip-rule="evenodd" d="M21.7941 11.4293H32.6077C32.6077 14.403 30.1747 16.8361 27.2008 16.8361H16.3872C16.3872 13.8623 18.8202 11.4293 21.7941 11.4293Z" fill="white"/>
<path d="M24.4973 27.6724C26.0029 27.6724 27.2234 26.4519 27.2234 24.9463C27.2234 23.4408 26.0029 22.2203 24.4973 22.2203C22.9918 22.2203 21.7713 23.4408 21.7713 24.9463C21.7713 26.4519 22.9918 27.6724 24.4973 27.6724Z" fill="url(#paint0_linear_1_8)"/>
<defs>
<linearGradient id="paint0_linear_1_8" x1="24.487" y1="29.4605" x2="10.7171" y2="19.7587" gradientUnits="userSpaceOnUse">
<stop stop-color="#A8FF78"/>
<stop offset="1" stop-color="#1FFFBB"/>
</linearGradient>
</defs>
</svg>
