<svg width="108" height="35" viewBox="0 0 108 35" fill="none" xmlns="http://www.w3.org/2000/svg">
<g clip-path="url(#clip0)">
<path d="M33.6146 17.1078C33.6146 26.2963 26.1657 33.7461 16.9764 33.7461C14.4561 33.7479 11.9684 33.1765 9.70159 32.075C7.43477 30.9735 5.44817 29.3708 3.89215 27.3882C5.46311 25.522 7.39447 24.3418 10.0672 24.563C10.7657 24.6219 11.4767 24.5496 12.1787 24.5746C13.6774 24.6299 15.0334 24.1696 16.2939 23.422C18.393 22.182 19.8515 20.3363 21.0862 18.2836C21.443 17.693 21.3681 17.462 20.6161 17.47C17.8729 17.4995 15.1297 17.4932 12.3866 17.4834C7.87263 17.4703 4.71316 19.5296 2.90818 23.6611C2.70111 24.1345 2.52849 24.6223 2.39166 25.1205C1.04145 22.666 0.335525 19.9092 0.339864 17.1078C0.339864 7.91936 7.78877 0.467778 16.9773 0.467778C19.7451 0.465832 22.4696 1.15531 24.9033 2.4736C27.3371 3.79188 29.403 5.69722 30.9134 8.0166C25.5555 7.99519 20.1986 7.79358 14.847 8.09154C10.4062 8.33775 7.31062 12.6349 8.37309 17.1667C9.60417 15.3825 11.2733 15.0337 13.1413 15.0453C16.7774 15.0694 20.4127 15.0061 24.0488 15.0123C25.6671 15.0123 27.1265 14.5583 28.42 13.6189C29.7992 12.6189 31.0811 11.5038 32.016 10.0506C32.0223 10.0425 32.0285 10.0327 32.0339 10.0247C33.0783 12.2397 33.6182 14.6589 33.6146 17.1078Z" fill="#7535FD"/>
<path d="M47.4658 9.13006C44.4723 9.13006 42.5764 11.001 42.5764 14.0693V15.8405H40.1566V18.2602H42.5764V28.6377H45.3703V18.2602H48.5135V15.8405H45.3703V13.9945C45.3703 12.4977 46.3432 11.5747 47.7651 11.5747C47.9896 11.5747 48.264 11.5997 48.5634 11.6246V9.20489C48.2391 9.155 47.8649 9.13006 47.4658 9.13006ZM51.058 10.1778C50.3844 10.8513 50.3844 11.9489 51.058 12.6474C51.7565 13.321 52.8541 13.321 53.5526 12.6474C54.251 11.9489 54.251 10.8513 53.5526 10.1778C52.8541 9.4793 51.7565 9.4793 51.058 10.1778ZM53.7022 15.8405H50.9083V28.6377H53.7022V15.8405ZM62.8776 15.616C61.1065 15.616 59.8592 16.2646 59.1357 17.5368V15.8405H56.4915V28.6377H59.2854V21.3286C59.2854 19.5325 60.4828 18.2103 62.254 18.2103C63.9503 18.2103 65.0479 19.4077 65.0479 21.3036V28.6377H67.8668V20.9294C67.8668 19.308 67.3928 18.0108 66.4698 17.0628C65.5468 16.0899 64.3494 15.616 62.8776 15.616ZM76.1558 15.616C74.2599 15.616 72.7133 16.2147 71.5159 17.3871C70.3434 18.5596 69.7447 20.1811 69.7447 22.2516C69.7447 24.2971 70.3434 25.9186 71.5408 27.116C72.7382 28.2885 74.2849 28.8872 76.1558 28.8872C79.274 28.8872 81.5691 27.0661 82.068 24.1724L79.3239 23.9229C79.0495 25.5195 77.8771 26.4674 76.1558 26.4674C74.0604 26.4674 72.5886 24.8709 72.5886 22.2516C72.5886 19.5824 74.0354 18.0108 76.1558 18.0108C77.8521 18.0108 79.0994 19.0336 79.299 20.7049L82.043 20.4555C81.6189 17.462 79.274 15.616 76.1558 15.616ZM90.2249 15.6908C88.4038 15.6908 87.2064 16.3394 86.5828 17.6366V15.8405H83.8637V28.6377H86.6576V21.6778C86.6576 19.7819 88.0546 18.4099 90.2249 18.4099V15.6908ZM96.1725 15.616C94.6508 15.616 93.4035 16.065 92.4805 16.988C91.5575 17.886 91.0836 18.9338 91.0836 20.1312L93.9024 20.231C93.9024 19.0086 94.7007 18.0607 96.1974 18.0607C97.7191 18.0607 98.4675 18.9587 98.4675 20.7299V21.1041L95.4241 21.2787C92.3059 21.4533 90.7343 22.7505 90.7343 25.1453C90.7343 27.5151 92.4057 28.8872 95 28.8872C96.3222 28.8872 97.4946 28.4132 98.4675 27.4902V28.6377H101.286V20.68C101.286 17.4121 99.4653 15.616 96.1725 15.616ZM98.4925 23.7234C98.4925 25.5943 97.345 26.5422 95.474 26.5422C94.2018 26.5422 93.5532 26.0683 93.5532 25.0954C93.5532 24.0726 94.3016 23.5238 95.8233 23.449L98.4925 23.2743V23.7234Z" fill="black"/>
</g>
<defs>
<clipPath id="clip0">
<rect width="107.414" height="35" fill="white"/>
</clipPath>
</defs>
</svg>
