<svg xmlns="http://www.w3.org/2000/svg" viewBox="0 0 1000 1000"><title>Nigeria-Logo</title><rect x="17" y="18" width="965" height="965" style="fill:#162d4c"/><path d="M438.53,162.49l0-.49h291l0,.51Z" style="fill:#e4b935"/><path d="M438.53,162.49l291,0c-2.2,10.58-4.36,21.17-6.61,31.74Q710,254.9,697,315.53c-3.5,16.43-7,32.87-10.54,49.28-.45,2-.25,2.71,2,2.74,8,.12,16,0,24-.31a47.22,47.22,0,0,1,11.69.76c7,1.48,8.95,6.53,4.76,12.4a23.88,23.88,0,0,1-8.88,7.12c-7.89,4.07-16.43,5.81-25.12,6.94a86.47,86.47,0,0,1-12.94,1c-1.68,0-2.11.78-2.39,2.13q-4,19-8.07,38.08L646.82,552.09c-.5,2.36-1,4.71-1.47,7.09-.24,1.34-.72,2.15-2.25,1.87a6.51,6.51,0,0,0-1.25,0H357.12c-3.44,0-3.43,0-2.69-3.52q21.38-100.68,42.74-201.36,4.77-22.46,9.57-44.9a3.63,3.63,0,0,0-.16-2.63c-4.25-8.41-5.6-17.54-6.49-26.76-2.27-23.44,3.18-45.83,9.57-68.05,1.85-6.4,8.81-10.34,16.4-9.48,2.79.31,3.59-.45,4.11-3.09,2.53-12.64,5.3-25.23,8-37.84A5.53,5.53,0,0,1,438.53,162.49Zm99,207a10.46,10.46,0,0,1,2.24,0c9.14,2.08,13.82-3.32,17.52-10.37.42-.81.85-1.63,1.21-2.46,2.57-5.85,2.56-5.86-2.17-10a8,8,0,0,0-1-.8c-2.07-1.26-2.06-2.61-.79-4.67a37.85,37.85,0,0,1,38.37-17.53,13.87,13.87,0,0,1,6.91,3c6.5,5.21,13.22,10.12,20.08,14.86a184.26,184.26,0,0,0,19.72,12.21c2.53,1.32,2.67,1.26,2.44-1.46q-.66-7.71-1.53-15.41c-1.29-11.54-4.78-22.17-12.16-31.44-5.29-6.64-10.32-13.49-15.72-20.05a5.06,5.06,0,0,1-1.29-4.26c1.2-9.46,1.22-9.52-4.68-17-13-16.48-28.44-30.6-44.22-44.34a7.34,7.34,0,0,0-3.16-1.38A160.58,160.58,0,0,0,526,213.82c-6.52-.3-12.56.42-17.91,4.42-4.37,3.27-9,3.81-14.49,2.9-17.72-2.95-35.53-5.37-53.32-7.89-5.18-.73-10.31-2-15.6-1.74-4.55.21-7.08,1.79-8.23,5.54-5.67,18.52-10,37.31-9.37,56.86a86.34,86.34,0,0,0,17.08,50c12,16.18,28.24,26.56,46.81,33.59C492.38,365.58,514.76,368.47,537.48,369.45Zm-2,122.73c-1.05.69-1.74,1.15-2.44,1.59-8.67,5.44-17.33,10.9-26.05,16.26-1.76,1.08-1.84,1.64-.2,3,14,11.55,27.94,23.19,41.91,34.79.35.3.67.81,1.41.46.15-2.58.45-5.23.41-7.88a21.12,21.12,0,0,1,1.85-8.68c3.89-9.28,7.61-18.63,11.43-27.94a8.17,8.17,0,0,0,.65-3.62c-.34-8.24-.66-16.48-.91-24.72a8.09,8.09,0,0,0-1.31-4.19c-8.84-14.3-17.62-28.63-26.49-42.92a4.44,4.44,0,0,1-.56-3.94c1.48-5.11,2.82-10.26,4.29-15.38a16.44,16.44,0,0,0,.5-6.16c-.52-5.64-1-11.28-1.39-16.93-.11-1.88-.64-2.5-2.63-2.51a199.44,199.44,0,0,1-39.44-3.91c-33.81-7-61.06-23.92-80.5-52.79-.39-.57-.58-1.39-1.62-1.62-.11.47-.23.93-.33,1.39q-12.94,61.38-25.87,122.78c-1.08,5.11-1.08,5.17,4.06,5.71,3.32.35,6.48,1.41,10,.13,17.05-6.13,34.21-11.95,51.31-18a5,5,0,0,1,5.24.66q34.05,24.3,68.24,48.42Zm-79.94-45.57c0,12.24,0,24.31,0,36.39a14.93,14.93,0,0,1-1.19,6c-6.6,15.71-13.12,31.46-19.74,47.17a4.74,4.74,0,0,0,.18,4.67c1.4,2.46,2.64,5,3.79,7.59a3,3,0,0,0,3.17,2.06c15.92-.09,31.83,0,47.74-.07.69,0,1.48.32,2.22-.49-1.46-3-2.87-6.11-4.45-9.11a6.65,6.65,0,0,1-.68-4.75c3.9-19.06,7.7-38.15,11.66-57.2.4-1.89,0-2.83-1.5-3.88q-19.58-13.63-39.09-27.36A3.41,3.41,0,0,0,455.51,446.61Zm220.15-57.54c1.83,0,3.66.06,5.49,0,10.93-.44,21.72-1.79,32.12-5.39a22.72,22.72,0,0,0,8.64-4.83c1.18-1.13,2.25-2.46,1.56-4.17-.61-1.52-2.26-1.63-3.64-1.64-3.33,0-6.68-.09-10,.21A124.72,124.72,0,0,1,668,370.18c-24.36-6.05-46.07-17.54-66.15-32.3a18.1,18.1,0,0,0-9-3.71c-9.37-1-17.51,1.17-23.57,8.93-1.12,1.43-1.15,2.34.32,3.64a172.25,172.25,0,0,0,24.89,18.35C619.39,380.27,646.24,389.09,675.66,389.07ZM601.2,378.29c.26,1.74.5,3,.63,4.35.41,4.3,1.82,8.48,1.39,12.86-1.32,13.43-4.18,26.63-5.94,40-1.36,10.41-2.75,20.83-2.19,31.35.45,8.5,3.21,16.16,10.42,21.21,6.8,4.76,14.27,6.21,22.12,2.16a3.13,3.13,0,0,0,1.9-3.16,48.75,48.75,0,0,0-.83-8.43c-.35-1.76-.92-2.22-2.82-1.88-7.06,1.27-11.91-3.81-10.53-10.82,1.21-6.16,3.66-11.9,6-17.67,5.69-13.85,12.45-27.23,18.36-41a42.17,42.17,0,0,0,2.75-12.11c.16-1.36,0-2.06-1.7-2.28a71.49,71.49,0,0,1-8.3-1.72A126.82,126.82,0,0,1,601.2,378.29Z" style="fill:#dfac0f"/><path d="M542.06,676.62a42.31,42.31,0,0,1,8.57,2.32c9.08,3.79,13.92,10.82,14.36,20.41.82,17.71-7.71,30.72-21.79,40.47a53.74,53.74,0,0,1-30.78,9.48c-14.57.11-29.15,0-43.73,0-3.9,0-4.78-1.1-4-4.88q13.23-64.11,26.47-128.22c.9-4.39,2-5.25,6.4-5.25,9.41,0,18.82,0,28.24,0,8.71,0,17.3,1,25.36,4.55,8.74,3.85,15.3,9.89,16.24,19.85,1.34,14.21-3.45,26.16-14.9,35.12A59.09,59.09,0,0,1,542.06,676.62Zm-38.57,56.53V733c3.08,0,6.16.13,9.23,0,14.79-.71,24.49-9.24,27.16-23.78,2.16-11.82-3.58-20-15.37-21.78-7.36-1.09-14.79-.26-22.18-.52-1.22,0-1.29.68-1.46,1.52-.82,4.07-1.67,8.14-2.52,12.2-2.08,10-4.12,20-6.27,30-.44,2-.06,2.75,2.18,2.6C497.32,733,500.41,733.15,503.49,733.15Zm8.3-62.41a40.38,40.38,0,0,0,9.44-.54c11.49-2.63,20.26-12.86,21.4-25,.91-9.65-3.34-15.39-12.79-17.33-4.19-.86-8.44-.62-12.66-.89-2.9-.19-3.88.69-4.43,3.58-2.41,12.72-5.08,25.39-7.8,38.06-.43,2,.17,2.23,1.85,2.12S510.12,670.74,511.79,670.74Z" style="fill:#fff"/><path d="M658.47,661.78c1.31-3.25,2.52-6,3.52-8.77a4.71,4.71,0,0,1,5.06-3.51c4.25.09,8.5,0,12.75,0,3.15,0,4.07,1.17,3.47,4.18q-7,34.59-14,69.19a17.35,17.35,0,0,0-.48,5.7c.43,3.2,1.5,4.33,4.7,4.75,2,.26,2.84,1.36,2.5,3.24-.57,3.19-1.23,6.37-2,9.52a4,4,0,0,1-4.13,3.32,41.75,41.75,0,0,1-11.9-1.16c-6.15-1.62-9.51-5.59-10.29-12-.09-.73-.12-1.47-.19-2.33-1.08.26-1.46,1.16-2,1.78-12.4,13.54-27.76,18.34-45.66,15.23-12.06-2.1-19.56-9.63-22.26-21.66-2.31-10.25-1.07-20.37,1-30.46,2.44-12,6.55-23.31,14-33.29,12.87-17.39,33.59-21.08,49.35-17.13C649.2,650.27,654.58,654.69,658.47,661.78Zm-59,55.45a39.71,39.71,0,0,0,.58,6.73c1.09,6.64,4.75,10.32,11.39,11.43,13,2.18,25.44-3.47,31.91-15.13a74.38,74.38,0,0,0,9.06-38.37c-.23-9.46-4.72-15.33-12.68-17.66a31.54,31.54,0,0,0-14.33-.55c-8.42,1.42-13.33,7.06-16.77,14.24C602.67,690.34,600.55,703.67,599.47,717.23Z" style="fill:#fff"/><path d="M851.32,611.8Q847.17,632,843,652.12c-2.76,13.43-5.51,26.86-8.29,40.38,1.3-.08,1.72-1,2.33-1.6,12.49-12.37,25-24.72,37.4-37.18a12.72,12.72,0,0,1,10-4.11c4.57.17,9.16,0,13.74.09,1,0,2.26-.27,2.7.73s-.78,1.7-1.47,2.34q-23,21.65-46.14,43.22c-1.62,1.51-1.62,2.45-.47,4.23,9.56,14.81,19,29.7,28.51,44.56.45.7.9,1.41,1.29,2.13.82,1.5.37,2.55-1.33,2.56-7.25,0-14.5.07-21.74-.09-2.17,0-3.42-1.77-4.48-3.58q-10.79-18.54-21.66-37c-.44-.75-.65-1.71-1.76-2.23-2.06,10-4.09,19.87-6.14,29.76-.64,3.1-1.25,6.2-1.95,9.28s-1.87,3.91-4.86,3.93c-4.66,0-9.33,0-14,0-4.16,0-4.94-.92-4.11-4.91,2.56-12.37,5.16-24.74,7.72-37.12Q816.71,667,825,626.61a4,4,0,0,1,2.36-3.16c7.15-3.54,14.24-7.2,21.36-10.79A4.54,4.54,0,0,1,851.32,611.8Z" style="fill:#fff"/><path d="M728.13,665.64a74,74,0,0,1,11.92-12.57c10.51-8.6,31.81-7.26,41.69,1.77,8,7.33,10.17,16.72,8.44,26.9-2.25,13.19-5.24,26.25-7.85,39.38-.57,2.85-1.11,5.74-.32,8.66.55,2.05,1.43,3.7,4,3.68,2.16,0,3,1.32,2.64,3.31-.57,3.18-1.21,6.37-1.95,9.52a3.89,3.89,0,0,1-4,3.18,38.39,38.39,0,0,1-11.88-1.21c-9-2.53-13.44-9-13-19,.29-6.79,2.28-13.27,3.47-19.89,1.62-9,4.33-17.8,4.83-27a43.57,43.57,0,0,0,0-5.48c-.7-10.1-7-14.92-16.91-13.24a22.23,22.23,0,0,0-15.2,10c-4.46,6.54-6.35,14-7.93,21.62q-5.17,24.9-10.43,49.8c-.74,3.5-1.93,4.41-5.51,4.42-4.83,0-9.67,0-14.5,0-3.07,0-4-1.26-3.42-4.28q7-34.21,14.06-68.42c.52-2.52,1.14-5,.38-7.64-.6-2-1.68-3.3-4-3.49-2.79-.23-3.39-1.2-2.83-4s1.12-5.55,1.7-8.31a4.26,4.26,0,0,1,4.33-3.75A38.1,38.1,0,0,1,718,650.78c6.59,1.91,9.34,5.28,10,12.1C728,663.6,728,664.32,728.13,665.64Z" style="fill:#fff"/><path d="M144.09,670.48h15.1c7.5,0,15,0,22.5,0,3.61,0,4.48,1.06,3.77,4.6-.56,2.77-1.16,5.53-1.78,8.29-.79,3.48-2,4.44-5.79,4.44-11.5,0-23,0-34.49-.08-2.19,0-3.1.42-3.57,2.79-3.48,17.62-7.18,35.19-10.79,52.79-1,5-1.8,5.68-7,5.68-4.75,0-9.5,0-14.24,0-3.44,0-4.33-1.11-3.63-4.49q6.3-30.54,12.63-61.06,6.9-33.35,13.76-66.69c1.12-5.44,1.87-6.1,7.49-6.09l65,.12c4.64,0,5.34.85,4.39,5.28-.56,2.6-1.09,5.21-1.71,7.8-.77,3.23-1.91,4.13-5.23,4.13-15,0-30,0-45,0-2,0-2.84.37-3.26,2.5C149.64,643.74,146.86,657,144.09,670.48Z" style="fill:#fff"/><path d="M340.8,751.5a73.55,73.55,0,0,1-23.25-4,17.19,17.19,0,0,1-7-4.21c-2-2.09-2-4-.25-6.24,1.14-1.43,2.41-2.75,3.63-4.13,3-3.43,3.5-3.55,8-2,6.24,2.1,12.52,4,19.15,4.33,5.87.31,11.64.08,17.18-2.18a14.11,14.11,0,0,0,8.66-10.25c.93-3.61-.12-6.1-3.29-8.1a47.07,47.07,0,0,0-10.74-4.62c-4.26-1.38-8.51-2.87-12.84-4-15.5-4.13-19.23-15.82-16.2-29.13,3.61-15.85,16.15-27,32.82-29.38,11.87-1.67,23.59-1,34.77,3.93a20.79,20.79,0,0,1,6.13,3.76c1.86,1.78,2,3.26.4,5.23-2,2.38-4.08,4.62-6.07,7-1,1.17-2.09,1.09-3.37.72-4.87-1.39-9.52-3.52-14.53-4.43-5.71-1-11.43-1.35-17.07.27a14.66,14.66,0,0,0-10.31,10c-1.8,5.35.17,9.17,5.55,10.86,6.66,2.09,13.35,4.07,20,6.1a42.59,42.59,0,0,1,9.63,4c5.62,3.35,8.4,8.38,8.73,14.81.89,17.26-8.4,30.95-25.52,37.67C357.66,750.39,350,751.53,340.8,751.5Z" style="fill:#fff"/><path d="M424.38,664.49c-3.05,0-6.13,0-9.2,0-3.56,0-4.35-.93-3.67-4.34.49-2.45,1-4.89,1.59-7.31a4.11,4.11,0,0,1,4.3-3.43c2.75,0,5.51-.16,8.25,0,1.84.13,2.4-.57,2.69-2.27.76-4.5,1.74-9,2.6-13.47.16-.82.23-1.57,1.14-2,8.23-4.14,16.45-8.32,24.91-12.61.22,2.69-.65,4.94-1.08,7.22-1.31,7-2.74,13.87-4.22,20.79-.39,1.81-.12,2.5,1.95,2.39,3.4-.17,6.83-.08,10.24,0,2.76.05,3.62,1.05,3.13,3.78s-1.08,5.21-1.71,7.79-2.23,3.57-4.74,3.55c-3.58,0-7.17,0-10.75,0-1.28,0-1.93.29-2.21,1.65q-5.57,27.9-11.24,55.76a12.48,12.48,0,0,0,.31,6.42,7.14,7.14,0,0,0,6.94,4.75c6.61.17,6.67.23,5.41,6.74-.39,2-.83,4.07-1.3,6.09a3.86,3.86,0,0,1-3.87,3.29c-5.32.13-10.69.48-16-.46-10.4-1.86-15.55-8-15.73-18.68-.12-7,1.79-13.67,3.16-20.43,3-14.83,6.09-29.65,9.13-44.48A2.78,2.78,0,0,0,424.38,664.49Z" style="fill:#fff"/><path d="M286.31,660.57A46.29,46.29,0,0,1,289.4,657c7.47-7.08,16.6-9.45,26.62-9.26,2,0,2.87.64,2.33,2.89-1.08,4.44-1.91,8.94-2.87,13.41-.85,4-2.16,4.66-6.15,4.17-10.23-1.25-21.42,2.27-24.75,17-4.44,19.7-8.69,39.45-13,59.18-1,4.71-1.88,5.43-6.76,5.42-4.41,0-8.83,0-13.24,0-3.45,0-4.3-1.11-3.57-4.51q7.37-34.26,14.76-68.5a23.83,23.83,0,0,0,.78-6.17c-.16-3.32-1.36-4.7-4.69-5.24-2-.32-2.94-1.44-2.55-3.48.57-3,1.14-6,1.82-9a4.15,4.15,0,0,1,4.21-3.58c5.16-.08,10.33,0,15.34,1.53,4.66,1.42,7.52,4.42,7.92,9.48Z" style="fill:#fff"/><path d="M198.83,732.34c.21-7.13,2.27-13.94,3.75-20.84,4.07-19,8.25-38,12.4-57,.76-3.49,2-4.44,5.5-4.46q7,0,14,0c3.51,0,4.36,1,3.63,4.39q-7.37,34.14-14.79,68.26a27.48,27.48,0,0,0-.73,8.43c.3,3.19,1.43,4.4,4.51,4.86,1.84.28,2.69,1.37,2.38,3.12-.58,3.28-1.24,6.54-2,9.77a3.82,3.82,0,0,1-3.81,3c-5,.16-10-.24-14.7-2.23C202,746.74,198.65,740.88,198.83,732.34Z" style="fill:#fff"/><path d="M548.19,810.46c8.44,4.79,9.18,14.4,2,21.33-5.24,5.1-16.68,6.74-23.18,3.34a8.83,8.83,0,0,1-5-8.07,15.43,15.43,0,0,1,7.71-14.43c1.25-.78,2.62-1.37,3.92-2,0-.19,0-.42-.08-.46-7.11-3.68-5.53-10.43-1.81-15.72a13.24,13.24,0,0,1,7.61-4.91,23.89,23.89,0,0,1,10.4-.4c3.32.55,6.36,1.93,7.39,5.49A11.7,11.7,0,0,1,555,805.84C553.23,807.92,550.89,809.17,548.19,810.46Zm-17.66,14.1a5.77,5.77,0,0,0,4.87,6c6.61,1.42,13-5.34,11.35-12a5.82,5.82,0,0,0-5.7-4.67C535.42,813.65,530.51,818.61,530.53,824.56Zm13.83-29.68a7.27,7.27,0,0,0-7.32,7.23,5,5,0,0,0,4.79,5.3c3.65.06,7.5-4,7.58-7.91C549.46,796.76,547.42,794.9,544.36,794.88Z" style="fill:#fff"/><path d="M594.44,798.14a10.18,10.18,0,0,0-8.39-9.09,18.62,18.62,0,0,0-9.36.73c-8.62,3.11-11.75,10.13-12.56,18.42-.85,8.92,4.33,13.52,13.27,12.48,3.38-.4,5.71-2.29,8.11-4.5a18.47,18.47,0,0,1-2.69,8.21c-2.59,4.68-6.46,7.06-11.94,6.14a28.57,28.57,0,0,1-5.35-1.14c-3-1.13-3.07,1.52-3.92,2.89-1.06,1.71.79,2.08,1.77,2.56,8.27,4.11,17.35,2.34,23-5.16C593.46,820.41,595.94,809.66,594.44,798.14Zm-7.16,4.43a22,22,0,0,1-2.67,8c-1.58,2.59-3.75,4.15-6.94,4-4-.1-5.75-1.89-5.66-6.47a21.19,21.19,0,0,1,2.08-7.82,9.07,9.07,0,0,1,3.56-4.06c2.33-1.35,4.9-2.08,7.31-.54S587.73,799.87,587.28,802.57Z" style="fill:#fff"/><path d="M617,825H599.3c-2.45,0-2.92-.77-1.8-3a10.64,10.64,0,0,1,1.62-2.18c8.09-9.28,16.31-18.45,24.24-27.86,2.33-2.77,5-2.48,7.89-2.33,1.63.08,1,1.43.81,2.31q-2.12,10.38-4.28,20.74a41.8,41.8,0,0,1-1,4.63c-.57,1.76.21,1.86,1.65,1.94,1.13.06,3.14-1,3.09,1.5-.07,3.4-.81,4.48-3.35,4.21s-3.43.74-3.59,3a21.08,21.08,0,0,1-.49,2.44c-1.25,6.12-1.25,6.07-7.5,5.73-1.55-.09-1.83-.71-1.55-2C615.69,831.2,616.3,828.27,617,825Zm4.68-22.84-14.25,17c3.62,0,6.57,0,9.52,0a1.34,1.34,0,0,0,1.52-1.26C619.47,812.9,620.5,807.88,621.67,802.15Z" style="fill:#fff"/><path d="M331.75,836.68a29.46,29.46,0,0,1-11.13-2.2c-.88-.38-2.61-.61-1.82-2s.93-4.09,3.75-3.42a43.77,43.77,0,0,0,11.84,1.46,13.14,13.14,0,0,0,6-1.61c4.65-2.6,4.82-7.56.22-10.27a60,60,0,0,0-7-3.16c-9.87-4.25-11.7-13.88-3.87-21.34,6.3-6,13.89-6.51,21.92-4.45.72.19,1.42.45,2.13.69,3.81,1.31,3.88,1.59,1.8,4.88a2,2,0,0,1-2.66,1,31.64,31.64,0,0,0-12.08-1.32A8.74,8.74,0,0,0,334,799c-2,3.25-1.26,6.2,2.15,7.87,2.31,1.13,4.75,2,7.11,3,10.18,4.32,11.62,15.68,2.88,22.5C342.5,835.17,337.69,836.65,331.75,836.68Z" style="fill:#fff"/><path d="M390.76,807.48c2.33-2.51,4.28-4.88,7.53-5.6,8.81-1.94,14.89,3.94,13.09,12.76-.84,4.15-1.73,8.29-2.53,12.45-.28,1.48-.45,2.81,1.54,3.63,1.56.64.21,2.19.16,3.33a1.8,1.8,0,0,1-1.81,1.94c-5.46.62-8.88-2.89-7.92-8.33.72-4.09,1.6-8.15,2.4-12.23a12,12,0,0,0,.27-2c.07-2.37,0-4.77-2.51-6-2.16-1.07-5.55-.16-7.49,2s-2.83,5-3.43,7.9c-1.16,5.53-2.36,11.05-3.45,16.6a2.19,2.19,0,0,1-2.5,2.09c-5.85.14-5.84.19-4.66-5.54q1.95-9.53,3.87-19.05c.31-1.55.75-3.19-1.54-3.77-1-.26-.78-1.21-.52-1.87.46-1.15-.11-2.82,1.65-3.32A6.07,6.07,0,0,1,390.76,807.48Z" style="fill:#fff"/><path d="M465.71,821.94c-2.16,0-4.34.11-6.49,0-1.6-.1-2,.58-2,2-.21,5.26,2.63,8.05,7.84,7.41a32.49,32.49,0,0,0,6.3-1.44c1.59-.53,2.18,0,2.81,1.35s.35,2.39-1,3.07a23.66,23.66,0,0,1-13.32,2.42c-7.75-.76-11.26-5.25-10.53-13.05a33.53,33.53,0,0,1,3.29-12.2c3.83-7.63,11-11.15,19.22-9.5,4.78,1,7.6,4.13,7.84,9a18.62,18.62,0,0,1-.3,4.47c-1,4.82-3,6.45-7.91,6.55-1.91,0-3.83,0-5.74,0Zm-7.17-5.47h10.67a2.18,2.18,0,0,0,2.1-1c1.08-1.85.57-5.73-1-7.25s-3.91-1.64-6.23-.32C460.83,809.73,459.64,813,458.54,816.47Z" style="fill:#fff"/><path d="M235.37,612c2.66,0,5.32-.06,8,0,2.42.07,3.37,1.18,2.91,3.5q-1.56,7.82-3.3,15.58c-.61,2.67-2,3.76-4.8,3.78-5,0-10,0-15,0-3.12-.05-4-1.24-3.33-4.28,1-4.87,2.08-9.74,3.17-14.59.65-2.9,1.94-3.93,4.85-4,2.49,0,5,0,7.48,0Z" style="fill:#fff"/><path d="M508.61,799.17c-2.7,1.12-5.12,2.13-7.56,3.1-.6.24-1.47.66-1.84.42-.72-.46-.15-1.37-.11-2.09.15-2.6,1.48-4.11,4-5.06,4.58-1.76,9-3.85,13.53-5.78.66-.29,1.39-1,2-.58s.09,1.39,0,2.07c-2.87,14.1-5.79,28.19-8.63,42.29-.38,1.89-1.22,2.57-3.19,2.54-5.69-.08-5.65,0-4.48-5.55,2.08-9.84,4.1-19.7,6.14-29.55C508.54,800.51,508.53,800,508.61,799.17Z" style="fill:#fff"/><path d="M417.91,824.72a31.76,31.76,0,0,1,3.22-13.24c4.17-8.7,15.29-12.61,23.78-8.33,1.08.55,3.09.83,2.38,2.82-.81,2.22-2.78,3.17-4.72,2.25-7.65-3.6-13.06.93-15.11,7.31a26.64,26.64,0,0,0-1.48,9.8c.26,4.14,2.83,6.34,7,6a25.05,25.05,0,0,0,5.78-1.48c1-.33,1.9-.65,2.41.74.42,1.15,1.23,2.15-.14,3.32-4.21,3.59-15.07,3.87-19.4.41C418.47,831.86,417.83,828.42,417.91,824.72Z" style="fill:#fff"/><path d="M358.61,828.47c.92-4.59,2-10,3.13-15.49.58-2.85,1.26-5.68,1.76-8.54a2.18,2.18,0,0,1,2.49-2.1c5.91-.18,5.88-.23,4.7,5.47-1.31,6.35-2.61,12.69-3.86,19.05-.3,1.54-.59,3,1.56,3.83,1.52.58.23,2,.18,3.11s-.35,1.92-1.62,2.17C362.46,836.85,358.61,833.82,358.61,828.47Z" style="fill:#fff"/><path d="M370.74,788.07c1,0,1.77,0,2.51,0s1.41.32,1.26,1.16c-.34,1.87-.76,3.72-1.22,5.56-.18.7-.82.94-1.52,1.07-5.9,1.06-6.58.23-5.38-5.56C367,787.16,369.26,788.34,370.74,788.07Z" style="fill:#fff"/><path d="M537.48,369.45c-22.72-1-45.1-3.87-66.53-12-18.57-7-34.81-17.41-46.81-33.59a86.34,86.34,0,0,1-17.08-50c-.59-19.55,3.7-38.34,9.37-56.86,1.15-3.75,3.68-5.33,8.23-5.54,5.29-.26,10.42,1,15.6,1.74,17.79,2.52,35.6,4.94,53.32,7.89,5.48.91,10.12.37,14.49-2.9,5.35-4,11.39-4.72,17.91-4.42a160.58,160.58,0,0,1,33.31,4.65,7.34,7.34,0,0,1,3.16,1.38c15.78,13.74,31.19,27.86,44.22,44.34,5.9,7.46,5.88,7.52,4.68,17a5.06,5.06,0,0,0,1.29,4.26c5.4,6.56,10.43,13.41,15.72,20.05,7.38,9.27,10.87,19.9,12.16,31.44q.87,7.69,1.53,15.41c.23,2.72.09,2.78-2.44,1.46a184.26,184.26,0,0,1-19.72-12.21c-6.86-4.74-13.58-9.65-20.08-14.86a13.87,13.87,0,0,0-6.91-3,37.85,37.85,0,0,0-38.37,17.53c-1.27,2.06-1.28,3.41.79,4.67a8,8,0,0,1,1,.8c4.73,4.1,4.74,4.11,2.17,10-.36.83-.79,1.65-1.21,2.46-3.7,7-8.38,12.45-17.52,10.37A10.46,10.46,0,0,0,537.48,369.45Zm24.24-87.21-13.51-15.16c-1.13-1.27-1.75,0-2.41.54q-10.26,8.94-20.48,17.94c-.58.51-1.44.85-1.56,1.95Z" style="fill:#162d4c"/><path d="M535.45,492.18l-8.41-6Q492.9,462,458.8,437.79a5,5,0,0,0-5.24-.66c-17.1,6-34.26,11.83-51.31,18-3.55,1.28-6.71.22-10-.13-5.14-.54-5.14-.6-4.06-5.71Q401.09,387.86,414,326.47c.1-.46.22-.92.33-1.39,1,.23,1.23,1.05,1.62,1.62,19.44,28.87,46.69,45.83,80.5,52.79a199.44,199.44,0,0,0,39.44,3.91c2,0,2.52.63,2.63,2.51.35,5.65.87,11.29,1.39,16.93a16.44,16.44,0,0,1-.5,6.16c-1.47,5.12-2.81,10.27-4.29,15.38a4.44,4.44,0,0,0,.56,3.94c8.87,14.29,17.65,28.62,26.49,42.92a8.09,8.09,0,0,1,1.31,4.19c.25,8.24.57,16.48.91,24.72a8.17,8.17,0,0,1-.65,3.62c-3.82,9.31-7.54,18.66-11.43,27.94a21.12,21.12,0,0,0-1.85,8.68c0,2.65-.26,5.3-.41,7.88-.74.35-1.06-.16-1.41-.46-14-11.6-27.9-23.24-41.91-34.79-1.64-1.35-1.56-1.91.2-3,8.72-5.36,17.38-10.82,26.05-16.26C533.71,493.33,534.4,492.87,535.45,492.18Z" style="fill:#162d4c"/><path d="M455.51,446.61a3.41,3.41,0,0,1,2.14,1.06Q477.2,461.35,496.74,475c1.52,1.05,1.9,2,1.5,3.88-4,19-7.76,38.14-11.66,57.2a6.65,6.65,0,0,0,.68,4.75c1.58,3,3,6.09,4.45,9.11-.74.81-1.53.49-2.22.49-15.91,0-31.82,0-47.74.07a3,3,0,0,1-3.17-2.06c-1.15-2.58-2.39-5.13-3.79-7.59a4.74,4.74,0,0,1-.18-4.67c6.62-15.71,13.14-31.46,19.74-47.17a14.93,14.93,0,0,0,1.19-6C455.47,470.92,455.51,458.85,455.51,446.61Z" style="fill:#162d4c"/><path d="M675.66,389.07c-29.42,0-56.27-8.8-81.23-24a172.25,172.25,0,0,1-24.89-18.35c-1.47-1.3-1.44-2.21-.32-3.64,6.06-7.76,14.2-9.92,23.57-8.93a18.1,18.1,0,0,1,9,3.71c20.08,14.76,41.79,26.25,66.15,32.3a124.72,124.72,0,0,0,41.86,3.06c3.31-.3,6.66-.24,10-.21,1.38,0,3,.12,3.64,1.64.69,1.71-.38,3-1.56,4.17a22.72,22.72,0,0,1-8.64,4.83c-10.4,3.6-21.19,4.95-32.12,5.39C679.32,389.13,677.49,389.07,675.66,389.07Z" style="fill:#162d4c"/><path d="M601.2,378.29a126.82,126.82,0,0,0,31.29,12.87,71.49,71.49,0,0,0,8.3,1.72c1.65.22,1.86.92,1.7,2.28a42.17,42.17,0,0,1-2.75,12.11c-5.91,13.75-12.67,27.13-18.36,41-2.37,5.77-4.82,11.51-6,17.67-1.38,7,3.47,12.09,10.53,10.82,1.9-.34,2.47.12,2.82,1.88a48.75,48.75,0,0,1,.83,8.43,3.13,3.13,0,0,1-1.9,3.16c-7.85,4.05-15.32,2.6-22.12-2.16-7.21-5.05-10-12.71-10.42-21.21-.56-10.52.83-20.94,2.19-31.35,1.76-13.36,4.62-26.56,5.94-40,.43-4.38-1-8.56-1.39-12.86C601.7,381.33,601.46,380,601.2,378.29Z" style="fill:#162d4c"/><path d="M561.72,282.24l-38,5.27c.12-1.1,1-1.44,1.56-1.95q10.21-9,20.48-17.94c.66-.57,1.28-1.81,2.41-.54Z" style="fill:#dcaa10"/></svg>