<svg width="1544" height="1277" fill="none" xmlns="http://www.w3.org/2000/svg"><g clip-path="url(#clip0)"><path d="M1243 119c-353 3-714-228-1057-54C100 108 0 204 0 308v969c280-209 577-254 870-257 128-1 256-8 380-44 100-29 212-78 294-141V41c-118 83-156 77-301 78z" fill="#fff"/><path d="M1519 82c-89 55-138 56-246 56h-29c-133 2-267-30-397-60-227-53-441-102-650 3-85 43-172 133-172 221v926l35-23V337c0-89 86-179 171-221 210-106 424-56 650-4 130 30 238 71 370 70 0 0 209 7 268-100z" fill="#BBE2F1"/><path d="M1268 926c-111 31-218 51-422 33-267-23-670-15-821 269 295-187 602-224 843-226 114-1 248-7 376-43 71-20 238-77 273-135-59 28-173 80-249 102zM1378 342c-29 0-39-19-39-40 0-20 10-39 39-39s38 19 38 40c0 20-9 39-38 39zm0-72c-24 0-32 14-32 33 0 18 8 33 32 33s31-15 31-33c0-19-7-33-31-33zm8 56l-9-17h-5v17h-12v-46h20c14 0 17 8 17 15s-4 11-10 13l11 18h-12zm-7-36h-7v11h7c6 0 6-3 6-6s-1-5-6-5zM1153 628c5-3 11-4 17-5l16-4c19-21 43-38 62-41h1c2-4 2-7 2-9l-1-5c-5-4-11-5-20-4-27 5-63 38-82 67v6l5-5z" fill="#AE9A63"/><path d="M1353 766c-15 7-34 1-45-11-14-16-26-34-35-53-6-11-11-23-19-33-8-9-22-24-35-22 105-16 135-131 47-139-59-6-108 42-130 83V427c0-34-4-118 36-132 44-14 20 43 68 46 20 1 38-14 42-31 5-21-12-42-30-52-52-26-206 35-206 235v222c-7 8-14 14-22 20-41 27-46-17-46-17V559s-2-36 13-42h-58c-27 0-25 19-25 19v11c-9-17-29-28-53-29-72-3-116 66-119 129-1 18 1 37 5 55-4 5-7 10-12 14-35 34-86 52-133 41l-14-4c-39-14-57-55-56-96 1-39 22-89 60-103 8-2 16-4 24-3 4 1 9 2 12 5 4 2 7 8 9 12 9 27-9 92-99 106 0 0 25 27 83 12 22-6 42-14 59-31 10-11 17-23 22-38 4-14 4-31 0-46-5-18-18-34-33-43-14-8-29-12-45-15-66-10-160 35-166 138-5 96 58 154 156 154 68 0 113-41 141-76 12 33 35 60 69 68 67 17 91-57 91-57s-1 33 16 49c14 13 33 12 50 7 26-9 50-28 71-50v20s1 18-14 32h83s21-1 21-27V624c25-39 85-92 117-67 0 0 13 12-5 35-7 7-15 14-23 19-12 7-24 12-37 17l-18 4c-6 1-11 2-15 5-3 2-6 4-7 7-3 4-4 9-5 14 0 0 8-4 19-2 15 3 23 13 29 26l19 41 15 28c13 24 33 45 61 49 22 3 44 0 60-17 4-5 7-11 7-17zM908 656c0 99-51 90-51 90-28 0-57-44-57-94 0-51 25-90 57-92 23-2 49 17 51 51v45z" fill="#20307F"/><path d="M692 279c-16-62-75-109-133-132a312 312 0 0 0-168-16 388 388 0 0 0-212 114c-13 14-25 33-34 51-25 52-15 122 40 150 10 5 23 7 34 7 45 2 95-37 75-86-24 37-57 21-57 21-25-12-30-41-23-65 7-28 25-53 45-73 45-43 105-67 166-74 62-7 133 15 168 71 28 46 20 104-13 145-34 41-107 46-139-2a78 78 0 0 1-14-53c4-29 23-56 54-59-3-8-10-25-47-19 0 0-114 18-114 182v206c0 34 4 116-37 130-43 15-19-44-68-46-20-1-37 13-41 31-5 22 11 42 30 52 51 26 211-24 211-153V436c43 41 103 51 159 35 15-4 29-12 42-19 42-25 71-68 79-115 3-19 1-40-3-58z" fill="#20307F"/><path d="M1297 312a55 55 0 0 1-80 36c6 11 18 22 41 24 26 1 50-17 56-42 6-26-9-48-28-62 9 13 14 28 11 44zM850 729c-10-15-18-36-18-60 0-46 23-76 44-78 5-1 10 1 15 3-3-5-6-10-10-13-6-6-15-9-22-8-22 1-44 32-44 78 0 38 18 69 35 78zM1012 547v178c-6 3-10 4-12 3-3-2-6-9-6-14V545s0-25 13-28h19s-14 7-14 30zM1169 528v-85-20c0-33 2-89 27-98h1l-4-9c-5-12-5-12-15-8-25 8-27 64-27 97v141l18-18zM1333 553v2c0 36-29 74-76 94l9 10 21 35c9 20 20 36 33 50l8 6c-8-11-17-23-24-38l-20-35-10-10c48-20 77-59 77-94v-2c-1-18-9-36-27-48 6 9 9 20 9 30zM1052 829h82c15-1 35-13 35-42V686h10c-6-12-11-17-18-18l-10 1v100c0 30-20 41-34 42h-85s13 17 20 18zM723 649c-5 12-12 23-20 32-20 21-45 29-65 35-33 8-56 4-72-2l10 18c-13-8-22-21-28-36 16 6 39 10 72 2 21-6 45-14 65-34 12-12 20-26 26-44 5-17 5-36 0-54-2-10-7-19-13-28a87 87 0 0 1 34 62c0-1 2 25-9 49zM916 798c-5-6-9-13-12-20-18 23-47 42-88 32-14-4-27-11-38-20 15 19 34 32 56 37 38 10 66-7 84-28l-2-1zM1380 771c-4-3-8-3-12-2-2 10-7 18-10 21-17 19-42 26-73 22-15-2-28-8-40-17 16 20 36 32 58 35 31 4 56-3 72-22 5-4 11-14 11-25 0-5-2-10-6-12zM1021 802l-1-5c0-4 2-8 4-10l4-7c-16 12-31 22-47 28-21 7-40 5-55-4l8 11c16 15 39 19 65 10 10-3 20-9 30-15-3-2-7-4-8-8zM746 752c-39 43-85 66-137 66-48 0-88-13-117-38l5 6c30 32 75 49 130 49 50 0 95-22 133-62l-14-21zM610 584c-24 9-40 36-47 65l-21 6c1-35 20-78 50-89 6-2 12-3 17-2l5 1s18 12-4 19zM428 189c-63 8-119 33-158 71-15 14-34 38-42 66-4 17-2 40 16 48l3 2c-3-10-4-22-1-33 8-28 27-51 42-66 39-38 95-63 158-70 41-4 90 5 126 33-35-42-96-56-144-51zM302 456a75 75 0 0 1-65 28c-7 0-24-1-39-8-16-8-28-18-37-31l19 13c15 7 33 9 39 9 27 1 59-10 75-33 11-15 18-39 9-62 0 0 31 41-1 84zM278 762c-4-8-10-17-20-22l7 13c5 12 5 12 13 9z" fill="#AE9A63"/><path d="M724 292c-9-36-31-67-58-91 18 21 33 45 40 73a170 170 0 0 1-82 189c-11 6-27 15-45 20-53 15-107 8-149-19v196c0 58-30 109-85 142-51 31-114 41-148 23l-9-6c7 10 17 19 27 24 34 18 97 8 147-23 55-33 86-84 86-142V482a183 183 0 0 0 194-1c46-28 77-73 85-125 3-20 2-43-3-64zM471 398c-9-14-13-29-11-42 2-22 16-45 41-48 4 0 8-2 10-6s3-9 1-13c-4-11-11-19-21-23l4 6c2 4 1 8-1 12s-7 6-11 7c-25 2-38 25-41 47a67 67 0 0 0 29 60z" fill="#AE9A63"/><path d="M832 744c-22-17-39-53-39-92 0-54 27-96 64-99 8-1 18 1 26 5-10-7-22-11-34-10-36 3-64 45-64 99 0 44 21 83 47 97zM964 713V554v-5c0-6 1-16 4-25h10c-5 11-6 23-6 30v164s2 21 15 27c0 0-23 3-23-32zM623 549c-13-7-29-5-38-1-41 14-64 67-65 109-1 33 10 72 41 92-37-19-49-61-49-96 2-43 25-95 65-110 10-3 19-5 27-3 0-1 10 1 19 9zM1268 304c-4 13-17 27-35 26l-10-2c4 3 9 6 18 6 17 1 31-12 34-25 4-18-10-36-26-44 12 9 22 24 19 39zM1218 640c59-9 94-51 93-85 0-16-8-27-22-34 9 7 14 17 15 29 0 34-35 77-94 85 0 0-7 5 8 5zM1122 599V413c0-40-1-115 41-129 15-5 24-2 30 4-5-2-12-2-22 1-43 14-42 89-41 129v171l-8 10zM1310 766l-6-6c-14-15-27-34-37-55l-18-31c-6-7-14-15-22-19l14 14 18 32c10 21 23 39 36 54 5 5 10 8 15 11zM895 545c1 3 4 4 7 4-5-8-12-14-21-18 6 4 11 9 14 14zM1136 598l-13 17-1 3v147c0 19-12 21-14 21h-60l-2 5h70c2 0 14-2 14-21V623l1-4c18-27 59-69 95-75 9-2 18-1 25 2-9-7-20-9-33-7-22 4-46 21-65 40l-17 19z" fill="#0069B4"/><path d="M683 568c4 15 3 30-1 42-4 14-11 26-20 35-17 17-38 24-56 29-23 6-41 5-53 2l-3 1c12 5 32 10 64 2 18-5 39-12 55-29 10-9 16-21 21-35 4-12 4-28 0-42-4-15-16-30-29-38l-4-2c12 9 22 22 26 35zM1279 788l-15-5c7 5 15 8 23 9 25 4 42-1 54-14l1-2-11-1c-12 11-29 16-52 13zM749 721c-1-2-4-4-6-4l-7 2-1 2c-38 48-83 72-134 72-34 0-64-7-87-21 25 17 57 26 95 26 51 0 97-25 135-74l5-2v-1zM1045 739c0-2-2-4-3-4-3-1-6-1-8 2-22 23-45 39-68 47-8 3-21 6-33 1 13 11 31 7 41 4 23-8 45-24 68-48l3-2zM908 733c-2 1-4 2-5 5-2 6-25 66-83 52-10-2-18-6-26-12 6 3 12 6 19 7 50 13 74-32 80-48 1 0 7-13 15-4zM417 165c-68 8-128 35-170 76-24 24-40 50-48 76-7 26-1 60 27 74v-1h-1c-20-16-24-45-18-68 7-26 24-52 48-76 42-41 102-68 170-76 37-4 80 2 117 21-38-23-85-30-125-26zM471 274c-30 8-47 36-50 63l-1 9a90 90 0 0 0 40 72c-13-6-24-15-32-28a90 90 0 0 1-16-49l1-8c3-27 23-57 54-65 0 0 8 4 4 6zM685 281c-11-48-51-86-93-110 39 24 75 60 86 105 4 18 5 38 3 55-7 46-35 86-76 111a162 162 0 0 1-159 9c36 21 81 27 127 13 16-4 30-12 40-18 41-24 68-64 75-110 3-17 2-38-3-55zM413 427c-2-2-5-3-8-1-3 1-4 3-4 6v225c0 68-47 107-76 124-47 29-102 34-125 23l7 4c23 12 78 7 127-23 28-16 75-55 75-123V437c0-3 1-5 4-7h3l-3-3zM220 447c24 1 50-12 63-30 5-7 9-16 9-28l-1-6-7 6c-1 9-5 17-9 23a77 77 0 0 1-63 31c-12-1-23-3-31-7l-4-3 12 8c8 3 19 5 31 6z" fill="#0069B4"/><path d="M237 758c3 9 8 19 18 22-5-4-8-11-10-17-5-10-9-19-19-23 5 5 8 11 11 18z" fill="#0069B4"/></g><defs><clipPath id="clip0"><path fill="#fff" d="M0 0h1544v1277H0z"/></clipPath></defs></svg>