<svg width="1989" height="574" fill="none" xmlns="http://www.w3.org/2000/svg"><path d="M545 408V162h102c20 0 36 2 47 6 10 5 19 13 25 24 7 11 10 23 10 37 0 17-5 32-16 44a78 78 0 0 1-49 23c8 4 14 8 18 12 9 9 18 20 26 33l40 67h-39l-30-51c-9-15-16-27-22-34-6-8-11-14-16-17-4-3-9-5-14-6l-17-2h-35v110h-30zm30-138h66c14 0 24-1 32-4s14-8 18-15 6-14 6-22c0-12-4-21-12-29-7-7-20-11-37-11h-73v81zM868 350l29 4c-4 18-13 33-25 43a74 74 0 0 1-48 15c-25 0-44-8-58-24a99 99 0 0 1-22-68c0-30 8-53 22-70 15-16 33-24 56-24s41 8 55 24 21 39 21 68v8H774c1 20 6 35 15 45 9 11 21 16 35 16 10 0 19-3 27-9 7-6 13-15 17-28zm-93-48h93c-1-15-4-27-10-34-9-12-21-18-35-18-13 0-24 5-33 14-9 10-14 22-15 38zM914 408V230h25v25c12-20 30-29 53-29 10 0 19 1 28 5 8 4 15 9 19 15 4 7 7 14 9 23l1 29v110h-28V299c0-12-1-21-3-27-3-6-6-11-12-15a44 44 0 0 0-51 7c-9 8-13 24-13 46v98h-28z" fill="#E65741"/><path d="M1100 408V162h46l54 174 11 36 13-39 55-171h41v246h-30V202l-67 206h-27l-67-210v210h-29zM1342 319c0-33 9-58 26-74 14-13 32-19 52-19 23 0 42 8 56 24 15 16 22 38 22 66 0 23-3 41-9 54a77 77 0 0 1-68 41c-24 1-43-7-58-23-14-16-21-39-21-69zm29 0c0 22 5 40 14 51s21 17 35 17 26-6 35-17c10-12 14-29 14-52 0-22-4-39-14-50-9-12-21-18-35-18s-26 6-35 17c-9 12-14 29-14 52zM1519 408V230h25v25c12-20 30-29 53-29 10 0 20 1 28 5s15 9 19 15c4 7 7 14 9 23l1 29v110h-28V299c0-12-1-21-3-27s-6-11-12-15a44 44 0 0 0-51 7c-9 8-13 24-13 46v98h-28zM1799 350l29 4c-4 18-13 33-25 43a74 74 0 0 1-48 15c-24 0-44-8-58-24a99 99 0 0 1-21-68c0-30 7-53 21-70 15-16 33-24 56-24s41 8 55 24 21 39 21 68v8h-124c1 20 6 35 15 45 10 11 21 16 35 16 11 0 19-3 27-9 7-6 13-15 17-28zm-93-48h94c-2-15-5-27-11-34-9-12-21-18-35-18-13 0-24 5-33 14-9 10-14 22-15 38zM1850 476l-3-28 16 3c6 0 11-1 15-4 4-2 7-5 9-9a154 154 0 0 0 12-30l-64-178h31l34 103 13 41 11-41 36-103h28l-63 181c-7 19-12 33-16 40-5 10-11 17-18 22-6 5-14 7-23 7-5 0-11-1-18-4z" fill="#27799D"/><circle cx="368" cy="207" r="58" fill="#E65741"/><path d="M148 132l23 90c5 19 20 35 41 40 30 8 62-10 71-41s-9-63-40-71l-90-23c-3-1-6 2-5 5z" fill="#65BBC2"/><path d="M447 421l-24-90c-5-19-19-35-40-40-31-8-63 10-71 41-9 31 9 63 40 71l90 23c3 1 6-2 5-5zM153 426l90-23c19-5 35-20 40-41 8-30-10-62-41-71s-63 9-71 40l-23 90c-1 3 2 6 5 5z" fill="#27799D"/></svg>