<svg width="2049" height="926" fill="none" xmlns="http://www.w3.org/2000/svg"><g clip-path="url(#clip0)" fill="#D71920"><path d="M32 792l-15 78c-2 6-2 11-2 17 0 17 10 25 24 25 18 0 31-12 36-42l16-78h16l-15 78c-7 39-26 55-54 55-23 0-39-12-39-39l1-19 14-76h18v1zM130 925l12-67c3-11 3-20 5-28h14l-3 18c8-14 21-21 35-21 11 0 23 7 23 26l-1 16-11 54h-17l10-54 1-13c0-9-4-16-15-16s-28 13-32 37l-9 46h-12v2zM251 925l18-95h17l-18 95h-17zm21-122c0-5 6-11 11-11 6 0 10 4 10 10 0 7-4 11-11 11-6 0-10-4-10-10zM356 805l-4 25h22l-3 12h-22l-8 46c-2 6-2 10-2 16 0 5 3 8 9 8h7l-2 13-12 1c-14 0-20-8-20-18l1-18 10-48h-14l3-12h14l4-21 17-4zM461 919c-7 4-19 7-31 7-25 0-36-17-36-38 0-28 21-61 51-61 18 0 28 11 28 24 0 25-28 32-63 30-1 5 0 13 2 19 4 8 11 12 21 12 11 0 19-4 25-7l3 14zm-19-79c-15 0-26 15-30 29 25 0 44-3 44-18 0-7-5-11-14-11zM599 785l-21 109c-2 10-4 21-4 29h-16l3-18c-8 14-21 21-33 21-19 0-28-15-28-35 0-33 25-64 58-64 6 0 13 1 17 3l8-45h16zm-27 59c-3-3-8-4-15-4-22 0-41 23-41 48 0 12 5 24 19 24 12 0 28-14 32-35l5-33zM696 794c9-2 19-3 28-3 14 0 24 3 31 9 6 6 10 13 10 21 0 17-14 30-28 34 13 4 22 14 22 29 0 14-7 24-15 31-10 8-25 11-43 11l-28-1 23-131zm-5 117l14 1c19 0 38-8 38-29 0-16-13-23-28-23h-13l-11 51zm12-63h13c18 0 34-10 34-25 0-13-10-18-24-18l-14 1-9 42zM853 925l3-24c-10 19-24 26-37 26-16 0-26-14-26-30 0-34 24-67 65-67 9 0 20 1 26 4l-10 49c-3 17-4 33-4 43h-17v-1zm11-84l-11-1c-24 0-45 25-45 51 0 11 4 21 17 21 14 0 29-18 33-43l6-28zM910 925l13-67 4-28h14l-3 18c8-14 21-21 35-21 11 0 24 7 24 26l-2 16-11 54h-17l10-54 1-13c0-9-4-16-15-16s-28 13-32 37l-8 46h-13v2zM1033 925l26-138h16l-17 86c3-3 7-7 8-10l34-33h19l-41 39 27 56h-18l-22-46-13 11-7 36h-12v-1zM1195 925l15-83h-12l2-12h13l1-6c3-14 7-25 16-33 5-6 14-9 22-9 7 0 11 2 13 3l-5 13c-2-2-5-2-9-2-13 0-20 13-23 28v6h21l-3 12h-20l-16 83h-15zM1355 867c0 30-21 60-53 60-23 0-36-18-36-39 0-30 22-60 53-60 25-1 36 19 36 39zm-72 20c0 15 8 26 22 26 20 0 34-25 34-46 0-11-6-26-23-26-19-1-33 24-33 46zM1385 925l11-62c3-12 4-25 5-33h14l-2 21c5-13 16-23 29-23h4l-3 16h-4c-14 0-26 16-31 39l-8 42h-15zM1545 883l-21 42h-17l69-131h19l19 131h-17l-6-42h-46zm45-14l-6-38c-1-7-1-17-3-24l-11 24-19 38h39zM1647 925l15-83h-12l3-12h12l2-6c2-14 7-25 15-33 5-6 14-9 22-9 7 0 11 2 13 3l-4 13c-3-2-6-2-10-2-13 0-20 13-22 28l-2 4h21l-3 13h-21l-15 82h-14v2zM1718 925l11-62 6-33h14l-3 21c6-13 17-23 29-23h5l-3 16h-4c-14 0-27 16-31 39l-8 42h-16zM1798 925l18-95h17l-18 95h-17zm21-122c0-5 4-11 11-11 5 0 10 4 10 10 0 7-5 11-12 11-5 0-9-4-9-10zM1925 920c-6 3-16 6-28 6-25 0-36-17-36-36 0-32 23-62 57-62 8 0 17 3 19 5l-4 12c-4-1-8-4-15-4-25 0-41 24-41 46 0 15 9 25 24 25 10 0 17-3 22-6l2 14zM2020 925l2-24c-9 19-23 26-36 26-17 0-26-14-26-30 0-34 23-67 65-67 9 0 20 1 25 4l-9 49c-3 17-5 33-5 43h-16v-1zm11-84l-11-1c-24 0-45 25-45 51 0 11 4 21 17 21 14 0 29-18 33-43l6-28zM406 232l-60 278c-18 60-51 102-121 105-60 0-84-40-69-124l53-259h-88L60 529c-11 114 56 146 158 143 97-3 164-47 202-135l67-305h-81zM1147 372l35 144h-130l95-144zm27-140L879 662h80l56-83h184l18 83h95l-105-430h-33zM1461 665h169c152-7 185-76 136-191l-185-361-120 552zM1876 0c-152 7-184 77-135 191l184 361L2045 0h-169zM603 608l31-145h35c51 0 94 18 94 66 0 58-57 82-121 82l-39-3zm67-321h42c46 0 74 11 74 48 0 44-42 72-105 72h-35l24-120zm-67-55l-7 1-89 431h171c58 0 91-16 113-29 35-23 60-60 69-105 11-61-31-93-83-98 53-12 98-51 101-107 7-93-98-93-98-93H603z"/></g><defs><clipPath id="clip0"><path fill="#fff" d="M0 0h2049v926H0z"/></clipPath></defs></svg>