<svg width="1761" height="501" viewBox="0 0 1761 501" fill="none" xmlns="http://www.w3.org/2000/svg">
<g clip-path="url(#clip0)">
<path d="M896.731 443.64V65.0268H967.158V236.594L1112.25 64.4973H1187.97L1031.23 245.596L1195.91 443.64H1112.78L967.158 266.777V443.64H896.731Z" fill="#BE194B"/>
<path d="M1382.84 64.5051C1382.21 64.4999 1381.58 64.4973 1380.96 64.4973C1269.71 64.4973 1188.76 143.799 1188.76 254.492C1188.76 365.184 1269.71 444.487 1380.96 444.487C1480.51 444.487 1556.01 380.338 1570.2 286.899H1488.72C1477.15 338.654 1437.49 375.097 1380.96 375.097C1312.67 375.097 1269.16 322.78 1269.16 254.492C1269.16 185.653 1312.67 133.887 1380.96 133.887C1381.59 133.887 1382.21 133.891 1382.84 133.9V64.5051Z" fill="#BE194B"/>
<path fill-rule="evenodd" clip-rule="evenodd" d="M657.591 444.487C768.284 444.487 849.238 365.184 849.238 254.492C849.238 143.799 768.284 64.4973 657.591 64.4973C546.348 64.4973 465.394 143.799 465.394 254.492C465.394 365.184 546.348 444.487 657.591 444.487ZM657.591 375.097C589.303 375.097 545.797 322.78 545.797 254.492C545.797 185.653 589.303 133.887 657.591 133.887C725.329 133.887 768.835 185.653 768.835 254.492C768.835 322.78 725.329 375.097 657.591 375.097Z" fill="#BE194B"/>
<path d="M78.2496 70.5553V437.878H0.0488281V70.5553H78.2496Z" fill="#BE194B"/>
<path fill-rule="evenodd" clip-rule="evenodd" d="M354.934 297.998L438.091 437.878H347.774L275.632 307.36H218.358V437.878H140.157V70.5553H311.978C388.527 70.5553 435.888 120.67 435.888 188.958C435.888 253.391 394.585 288.636 354.934 297.998ZM218.358 238.522H300.964C331.804 238.522 355.484 219.797 355.484 188.407C355.484 158.118 331.804 139.394 300.964 139.394H218.358V238.522Z" fill="#BE194B"/>
<path d="M1504.8 263.37V101.767H1562.64V64.4973H1404.02V101.767H1462.16V263.37H1504.8Z" fill="#BE194B"/>
<path d="M1671.78 263.37L1748.4 64.4973H1700.4L1645.24 217.155L1590.08 64.4973H1542.08L1618.7 263.37H1671.78Z" fill="#BE194B"/>
</g>
<defs>
<clipPath id="clip0">
<rect width="1760.95" height="499.031" fill="white" transform="translate(0.0488281 0.984375)"/>
</clipPath>
</defs>
</svg>
