<svg xmlns="http://www.w3.org/2000/svg" viewBox="0 0 2670.5 642"><path d="M328.2 324.3c-8.8 8.4-17 17.3-24.7 26.8-14.3 17.6-20.5 29-20.5 38.1 0 9.9 11.2 16.3 28.8 16.3 43.1 0 98-32.3 98-57.6 0-8.3-8.1-13.1-14.9-15.7-15.7-6.1-33.2-9.1-53.7-9.1-4.3-.1-8.7.3-13 1.2z"/><path d="M740.1 320.9c0-96.5-50.5-185.9-133-235.8-130.3-78.8-299.7-37-378.5 93.2s-37 299.7 93.2 378.5c130.3 78.8 299.7 37 378.5-93.2-17.4 13.3-37.2 20.6-55.9 20.6-5 0-9.9-.5-14.8-1.6-31-6.8-52.4-25.6-60.1-53.1-9-31.6 1.7-69 27.2-95.3.5-.5 42.2-42 59.4-58.5 19.9-19.3 27.2-31.9 27.6-37.5-8.5.6-42 19-78.1 45.2-45.3 32.9-92.6 75.2-136.6 122.7-9 9.8-11.6 12.3-15.1 12.3-4.3 0-10.2-5.9-10.2-10.2 0-3.1 1.9-7.3 11.2-17.7 13.6-15.6 13.6-15.6 78.1-82 21.5-21.8 43.8-50.1 49.5-60.9 2.1-4.3 2.7-6.1 2.7-8.1 0-.3-.1-.6-.2-.9-5.5.2-26.2 11.9-53.1 33.9-27.8 22.7-41.3 35.2-59.3 55.9-1 1.3-3.9 4.8-7.5 4.8-4.3-.4-7.7-3.9-8-8.3 0-2.2 0-8.7 35.5-41.9 36.8-34.2 73.1-56.2 92.6-56.2 8.4 0 14.2 6.3 14.2 15.3 0 11.9-7.1 25.2-26.3 48.4 16.9-13.8 34.4-26.7 52.6-38.7 25-16.6 45.7-25.7 58.3-25.7 9.6-.1 17.6 7.4 17.9 17 0 9.9-4.9 19.4-18.3 35.1-5.9 6.8-19.9 21-42.9 43.5l-20.5 20.2-5.5 5.4c-22.6 21.8-32.7 52-25.6 76.8 5.6 19.8 21.5 33.5 44.7 38.6 3.4.7 6.9 1.1 10.4 1.1 14.9 0 31-6.3 45.4-17.9 29.7-24 47.7-65 49.9-113.7.4-4 .6-7.6.6-11.3zm-310.5-14.8c-14.1 4-28.9 7.6-41 10.1 4.4 1 8.8 2.4 13 4.2 16.4 7.1 24.7 18 24.7 32.3 0 15.3-8.6 29.3-26.4 42.6-25.8 19.3-56.3 30.4-84.3 30.4s-44.7-13.2-44.7-35.4v-1.8c-5.8 7-13.1 15.8-15 18.2-5.5 7.7-10.1 11.3-14.3 11.3-5.1 0-10.5-4.9-10.5-9.4 0-3.7 2.4-8.1 9.2-16.4 17.7-21.7 33-39.4 46.7-54.2 5.3-5.4 10.3-11.1 15.1-17.1-.1-.2-.3-.5-.5-.9-1-1.4-1.5-3-1.6-4.8 0-7.5 9.7-8.3 14.8-8.3 24.9-26 45-46.9 59.9-62.1-28.7 3.8-52.1 9.8-66.6 17.2-3.5 2.1-7.5 3.4-11.6 3.7-4.7-.3-8.5-4.1-8.8-8.8 0-6.9 6.1-10.6 18.9-15.9 23.4-9.7 53.7-15.9 90.1-18.2l.9-.8c6.2-5.5 8.2-6.7 12.2-6.7s7.2 3.9 7.7 7.7c8.8-.1 17.7.8 26.3 2.6 23.7 4.9 36.7 18.1 36.7 37.3-.3 19.4-16.8 33.4-50.9 43.2z"/><path d="M414.6 242c-3.9 0-4.6 0-11.5.5-6.5 7.2-14 15.2-22.4 24.2-6.3 6.8-13.2 14.2-20.6 22.1l-7 7.6c-3.5 3.7-5.7 6.1-8.5 9.2 84.4-12.1 122.3-32.7 122.3-48.3 0-10.3-17.1-15.3-52.3-15.3z"/><g><path d="M1653.6 336.3c-2.8 0-4.2.9-10.1 6.5l-2.2 1.8c-1.4-12-7.4-17.1-18.5-17.1-17.9 0-50.7 16.2-74.7 36.4-66 56.7-100.4 79.4-121.8 79.4-5.1 0-7.8-1.8-7.8-5.5 0-5.5 6.5-19.8 17.5-39.7 12.9-23.1 16.6-27.7 29.2-36.9 64.1-48.4 80.8-62.8 114-98.7 30.7-33.1 44.6-54.5 44.6-68.3 0-6.9-3.7-11.1-10.1-11.1-18.9 0-67.3 40.1-126 104.7-20.7 22.1-39.2 46.1-55.4 71.6l-72 52.9c-27.7 20.3-52.8 30.9-65.1 30.9-5.1 0-7.8-1.8-7.8-5.5 0-5.5 6.5-19.8 17.5-39.7 12.9-23.1 16.6-27.7 29.2-36.9 64.1-48.4 80.8-62.8 114-98.7 30.8-33.2 44.6-54.5 44.6-68.3 0-6.9-3.7-11.1-10.2-11.1-18.9 0-67.3 40.1-126 104.7-20.7 22.1-39.2 46.1-55.3 71.6l-72 52.9c-27.7 20.3-45.1 28.8-60.3 30.5-15.2 1.7-28.2-4.2-28.2-17.6 0-5.2.9-10.4 2.8-15.2 13.9-4.9 27.3-10.9 40.1-17.9 38.3-19.9 55.4-36.5 55.4-53.6 0-9.7-6-14.8-17.5-14.8-14.3 0-33.7 9.7-59.5 29.5-21.7 17.1-32.8 30.4-42.4 52.6l-2.6 7.4c-19.2 9.1-60.4 25.9-108.8 28.3 16.5-7.6 32.2-16.9 46.8-27.8 27.7-20.8 41.1-42.4 41.1-65.5 0-21.2-12.5-37.4-36.9-48-12.5-5.1-19.4-6.9-47.1-12 20.2-2.8 57.2-11.1 93.2-21.2 53.5-15.2 78.9-36.4 78.9-65.1 0-29.2-19.8-48.4-55.8-55.8-16.2-3.2-27.2-4.2-47.5-4.2.4-1.2.5-2.4.5-3.7 0-4.2-3.7-8.8-7.4-8.8-4.6 0-6.5.9-16.6 9.7l-2.8 2.2c-58.6 3.7-108.4 13.5-147.2 29.5-21.2 8.8-27.7 13.8-27.7 21.2.5 4.9 4.3 8.7 9.2 9.2 3.7 0 9.7-1.8 16.6-5.5 27.3-13.8 72-24.4 125-30.4-25.4 25.8-61.9 63.7-109.3 113.5-14.8 0-21.2 2.8-21.2 8.3 0 1.9.7 3.6 1.8 5.1.9 1.4 1.5 3 1.8 4.6 0 1.8-7.4 10.6-26.3 30.9-24.9 26.8-51.2 57.7-76.1 88.1-9.7 12-13.8 18.9-13.8 23.5 0 4.6 6.5 10.2 12 10.2 4.6 0 11.1-5.1 19.4-16.6 8.3-10.2 29.5-35.9 35.9-42.9-1.6 6.3-2.4 12.9-2.2 19.4 0 33.2 25.4 52.6 67.8 52.6 23.3-.3 46.3-4.5 68.2-12.5 2.9 0 5.8.2 8.7.2 51.1 0 95.4-16.5 118.4-26.9 0 1.1-.1 2.1-.1 3.3 0 17.1 10.1 25.8 29.5 25.8 38.6 0 61.8-12.5 101-42 14.8-10.6 30-21.7 44.8-32.8-12 23.1-17.9 41.1-17.9 54.9 0 12.5 6.5 18.9 18.4 18.9 19.7 0 46.6-11.5 85.8-41.1 14.8-10.6 30-21.7 44.8-32.8-12 23.1-17.9 41.1-17.9 54.9 0 12.5 6.5 18.9 18.4 18.9 21.7 0 42.9-11.1 72.9-33.7 8.8-6.9 10.1-7.9 18.9-14.3-3.4 7.4-5.2 15.3-5.5 23.4 0 12 7.9 19.8 19.4 19.8 13.5 0 18.4-3.2 60.9-39.2-10.6 17.9-12.5 22.6-12.5 30.4s6.5 13.5 15.2 13.5c12.5 0 15.2-.9 15.2-4.6 0-2.8-.9-3.7-4.6-3.7-6.5 0-10.2-1.4-10.2-5.1 0-3.2 3.2-8.8 10.6-17.9 10.6-12.9 19.8-24.5 28.1-34.6 6.5-7.4 6.5-7.4 12-14.3 18.4-22.6 18.4-22.6 18.4-28.1-.2-3.7-3.4-6-7.6-6zm-115.3-72.9c49.8-55.8 67.8-73.4 74.3-73.4 1.9.2 3.3 1.8 3.2 3.7 0 24.5-64.1 92.3-147.6 155.5 13.3-20.3 30-40.2 70.1-85.8zm-131.1 0h.1c49.8-55.8 67.8-73.4 74.3-73.4 1.9.2 3.3 1.8 3.2 3.7 0 24.5-64.1 92.3-147.6 155.5 13.3-20.3 29.9-40.2 70-85.8zm-191.4 68.7c2.7.1 4.8 2.4 4.7 5.1v.4c0 13.8-35.5 44.3-73.8 63.2 11.4-28.6 52-68.7 69.1-68.7zm-226.6-91.8c28.6-30.9 52.6-56.3 71.5-77 13.5-.9 14.3-.9 21.2-.9 62.3 0 90.4 9.2 90.4 30 0 35.1-84.4 68.3-218.2 85.8 14.4-15.8 16.2-17.6 35.1-37.9zM914 439.6c-31.9 0-52.2-12.5-52.2-31.8 0-16.2 10.1-35.5 34.6-65.5 13-16 27-31.1 42-45.2 7.7-1.6 15.6-2.4 23.5-2.2 34.6 0 63.7 5.1 89.5 15.2 18.5 6.9 27.7 17.5 27.7 30.4.1 44.2-91.7 99.1-165.1 99.1zm676-43.4c-28.6 25.4-48 39.2-55.3 39.2-3 .1-5.5-2.3-5.6-5.3v-.7c0-11.1 14.8-29.2 53.1-63.2 24.9-22.6 35.1-29.5 42.9-29.5 4.6 0 6.9 2.8 6.9 7.4-.1 10.1-13.4 26.3-42 52.1zM2226.2 280.4c15.7 0 31.8-11.1 31.8-21.7 0-7.4-4.6-12.5-11.5-12.5-15.2 0-30.9 12-30.9 23.1 0 7 4.2 11.1 10.6 11.1zM2343.5 280.4h1.3c6.4-.3 12.7-2.1 18.5-5.1 9.2-4.6 13.5-9.7 13.5-16.6 0-7.4-4.6-12.5-11.5-12.5-15.2 0-30.9 12-30.9 23.5-.5 5.6 3.6 10.4 9.1 10.7z"/><path d="M2474.4 336.3c-2.8 0-4.2.9-10.2 6.5l-2.2 1.8c-1.4-12-7.4-17.1-18.4-17.1-17.9 0-51 15.9-74.7 36.4-2.7 2.2-5.2 4.6-7.5 6.7-39.6 30.6-86.4 53.2-120 65.5l14.9-17.9c8.3-10.1 17.1-20.2 25.4-30.9 9.2-11.1 18.9-22.6 28.6-34.6 9.7-11.5 12.9-17.5 12.9-24 0-6-4.2-8.8-12.5-8.8-5.1 0-13.5 6-30 22.6-75.2 67.3-124.1 100.1-141.6 100.1-9 0-12-.9-12-6 0-5.5 6.9-15.2 35.5-48.9 35.5-41.5 36.9-43.4 36.9-50.3 0-5.3-4.3-9.7-9.7-9.7-8.3 0-14.3 2.8-20.8 10.1-6.9 8.3-31.4 28.1-90.4 74.3-25.8 20.3-49.4 30.4-59.1 30.4-6.5 0-10.1-1.4-10.1-5.1 0-3.2 3.2-8.8 10.6-17.9 10.6-12.9 19.8-24.5 28.1-34.6 6.5-7.4 6.5-7.4 12-14.3 18.5-22.6 18.5-22.6 18.5-28.1 0-4.2-3.2-6.5-7.4-6.5-2.8 0-4.2.9-10.2 6.5l-2.2 1.8c-1.4-12-7.4-17.1-18.4-17.1-17.9 0-50.7 16.2-74.7 36.4-66 56.7-99.9 79.4-124.6 79.4-6 0-10.1-3.2-10.1-6.9 0-8.8 24.5-34.6 135.2-142.6 39.7-38.7 60.9-60.4 69.7-70.6 20.8-24.5 28.6-39.2 28.6-54 0-12.5-11.1-22.6-24-22.6-19.4 0-52.6 14.8-92.3 41.1-31.4 20.2-60.4 42.4-108.9 81.7-12.9 10.6-15.2 12.5-25.8 20.8 13.8-13.5 21.2-21.7 38.7-42.9 32.8-39.7 44.8-61.4 44.8-79.8 0-12-7.4-19.8-17.9-19.8-30.4 0-89 35.9-147.6 90.4-35.1 32.8-56.3 56.7-56.3 64.6 0 3.7 4.2 8.3 7.9 8.3 2.2 0 5.5-2.2 8.3-6 29.2-33.2 50.3-53.5 97.3-91.8 40.1-32.8 77.5-56.3 90.4-56.3 2.8 0 5.1 2.8 5.1 6.5 0 4.6-1.4 8.3-5.1 15.7-10.1 19.4-48 66.4-81.7 100.6C1692 387.9 1692 387.9 1669.8 413.3c-12.5 13.8-17.1 21.2-17.1 25.4 0 4.2 7.4 11.5 11.5 11.5 3.2 0 6.9-3.2 20.8-18.5 72.4-78 149-146.7 223.8-200.7 57.2-41.5 115.8-74.7 131-74.7 2.4-.1 4.4 1.8 4.5 4.2v.5c0 12.9-17.1 36.9-46.6 65.5-43.4 41.5-78.9 76.6-125.5 124.6-60.9 62.8-66.9 70.1-66.9 85.3 0 10.6 9.2 18.9 21.2 18.9 35.5 0 61.9-20.5 85.8-37.8 9-6.6 10.1-7.9 18.9-14.3-3.4 7.4-5.3 15.5-5.4 23.7 0 12 7.9 19.8 19.4 19.8 13.5 0 18.5-3.2 60.9-39.2-10.6 17.9-12.5 22.6-12.5 30.4s6.5 13.5 15.2 13.5c25.8 0 51.9-14.9 86.3-42 24.3-19.2 43.8-35.1 66-53.5-37.8 45.2-49.8 64.1-49.8 79.4 0 9.2 7.9 15.7 18.5 15.7 36.2 0 78.7-34.8 159.6-104.7-24.9 30.9-52.1 64.6-82.1 100.6-29.2 8.3-51.2 19.8-73.3 39.7-27.2 24.5-48 59.5-48 81.2 0 7.8 4.6 13.5 11.1 13.5 9.7 0 20.2-8.3 45.7-35.1 64.1-67.8 64.1-67.8 86.3-94.6l2.4-2.8c37.7-12.8 73.7-30.1 107.2-51.6-1.5 2.1-2.8 4.3-4 6.6-3.4 7.3-5.3 15.2-5.6 23.3 0 12 7.9 19.8 19.4 19.8 13.5 0 18.4-3.2 60.9-39.2-10.6 17.9-12.5 22.6-12.5 30.4s6.5 13.5 15.2 13.5c12.5 0 15.2-.9 15.2-4.6 0-2.8-.9-3.7-4.6-3.7-6.5 0-10.1-1.4-10.1-5.1 0-3.2 3.2-8.8 10.6-17.9 10.6-12.9 19.8-24.5 28.1-34.6 6.5-7.4 6.5-7.4 12-14.3 18.5-22.8 18.5-22.8 18.5-28.3 0-4.5-3.2-6.8-7.4-6.8zm-466.9 59.9c-28.6 25.4-48 39.2-55.4 39.2-3 .1-5.5-2.3-5.6-5.3v-.7c0-11.1 14.8-29.2 53.1-63.2 24.9-22.6 35.1-29.5 42.9-29.5 4.6 0 6.9 2.8 6.9 7.4.1 10.1-13.3 26.3-41.9 52.1zm142.1 119.5c-41.1 47.5-45.7 52.6-51.2 52.6-2.2 0-3.7-2.2-3.7-5.5 0-14.3 15.7-42.4 34.1-61.8 20.2-20.8 46.6-37.4 71.5-44.3-7.3 8.7-7.3 8.7-50.7 59zm261.1-119.5c-28.6 25.4-48 39.2-55.3 39.2-3 .1-5.5-2.3-5.6-5.3v-.7c0-11.1 14.8-29.2 53.1-63.2 24.9-22.6 35.1-29.5 42.9-29.5 4.6 0 6.9 2.8 6.9 7.4 0 10.1-13.3 26.3-42 52.1z"/></g></svg>