<svg id="Layer_1" xmlns="http://www.w3.org/2000/svg" viewBox="0 0 1000 1000"><style>.st0{display:none;fill:#fefefe}.st2{fill:#253e4b}.st4{fill:#2a424f}</style><path class="st0" d="M38.8 772.3c0-190 0-380.1-.1-570.1 0-3.9.8-4.7 4.7-4.7 303.2.1 606.5.1 909.7 0 3.9 0 4.7.7 4.7 4.7-.1 190-.1 380.1-.1 570.1H38.8zm715.8-432c-1.6 1.9-2.6 4-1.5 6.6-.9 3.6-.2 7.4.8 10.7 1.2 3.8-.2 4-3.2 4.3-12.8 1-25.4 2.5-37.2 8-32.5 12-57.2 49.4-55.5 70.5 7.2-9.6 17.3-13.8 28-17 9.8-2 19.7-1.9 29.7-2.1 16.4-.3 31-5.5 43.5-16.3 1.2 0 1.9-.7 2.3-1.7 15-14.4 23.7-31.6 23-52.8-.4-10.6-5.5-20.1-8.2-30.2 0-2.2 1-4.7-.9-6.3-.9-.8-2.4.5-3 1.8-10.3 5-16.3 13.2-17.8 24.5zM204.1 536.2c1.9.5 3.2.8 4.4 1.2 22.6 7.1 45.8-2.8 51-29.4.9-4.9 1.6-9.8 1.5-14.8-.4-26.1-14.4-42.1-39.4-45.1-9.6-1.1-19.1.3-28.5 1.7-14 2.1-14 2.1-13.9 15.7v5.2c0 31 .1 61.9-.1 92.9 0 4.3 1.1 5.7 5.4 5.4 4.9-.4 9.9-.3 14.9 0 3.6.2 5-.7 4.9-4.7-.5-9.2-.2-18.4-.2-28.1zm-78-115.9c-6.9-1.3-13.8.3-20.6 2.9-11.3 4.4-18.7 12.3-20.7 24.1-2.2 13 1 24.4 12.7 32.5 7 4.8 14.9 7.2 22.6 10.3 5.6 2.2 11.5 3.9 16 8.3 5.9 5.7 4.2 15.6-3.7 17.9-9.6 2.7-19.4 2.5-29-.3-4.6-1.3-10-5.5-13.2-4.2-3.8 1.6-3.8 8.6-5.7 13.1-.3.7-.4 1.5-.8 2.1-2 3.5-.6 5.3 2.9 6.8 16.2 6.8 32.9 8.7 50.2 5.2 15.9-3.2 27.4-11.7 29.3-28.6 1.8-15.6-3.2-29.6-23-37.5-8.5-3.4-17-6.8-25.4-10.4-4.8-2.1-7.3-6.1-7.1-11.3.2-6.8 5.4-8.5 10.9-9 9.2-.8 18.3-.4 26.8 3.6 2.4 1.1 5.4 2 6.2-1.1 1.2-4.9 3.3-9.4 5.1-13.9 1.5-3.7-.4-4-2.6-4.9-9.7-4.2-19.7-7-30.9-5.6zm168.7 81.8h6.6c15.3 0 30.6-.1 45.8.1 3.5 0 5.3-.6 5-4.6-.4-5.1.1-10.4-.5-15.4-3.1-24.4-23.1-38.6-47.2-33.9-20.7 4-33.3 20-34.6 43.8-1.6 28.5 15.3 47.1 43.8 48.2 7.7.3 15.3-.7 22.8-2.2 11.1-2.3 11.1-2.3 9.1-13.6-.4-2.1-.8-4.1-1-6.2-.3-3-1.5-3.7-4.4-2.7-6.7 2.3-13.7 3.2-20.9 3.1-11.3-.2-20.5-3.8-24.5-16.6zm507.9 0c3.8 0 7.6.2 11.5 0 5.7-.3 13.8 2.6 16.4-1.1 3.4-5 1.5-12.9.5-19.6-2.2-13.8-8.5-24.9-22-30.6-23.1-9.8-48.5 1.5-56.8 25.2-3.7 10.5-3.9 21.3-1.4 32.2 3.8 16.3 14.1 26.2 30.1 30.4 12.1 3.1 24.3 1.8 36.3-.8 9.8-2.1 9.7-2.3 7.9-12.3-.4-2.1-.8-4.1-1-6.2-.3-3.5-1.3-4.8-5.3-3.4-7.3 2.5-14.9 3.4-22.6 2.8-9.1-.6-16.4-3.8-20.8-12.7-2.2-4.4-.2-3.9 2.6-3.9h24.6zm-158.3 3.6s-.1 0 0 0c0-8.4.2-16.8-.1-25.2-.7-20.6-11-31.2-31.5-32.7-8.1-.6-16 0-24 1.2-12.3 1.9-12.3 2-10.1 14.3.2.9.4 1.9.4 2.8 0 4.3 1.2 5.9 6.1 4.5 8.3-2.3 16.9-3.3 25.5-1.3 5.5 1.2 8.4 4.9 9.5 10.2.7 3.3.4 5.1-4.2 4.4-10.5-1.6-21-1.2-31 2.8-10.5 4.2-16 12.3-16.2 23.3-.3 15.6 7.3 25.3 22.8 28.2 16.8 3.2 33.5 1.1 50.1-2.2 3-.6 2.9-2.4 2.9-4.5-.2-8.6-.2-17.2-.2-25.8zm16.4-10.7c0 12.8.1 25.6-.1 38.4-.1 3.5.9 4.8 4.5 4.6 5.1-.3 10.3-.4 15.5 0 4.5.4 5.3-1.4 5.3-5.5-.2-19.3 0-38.6-.2-57.9 0-3.5.7-4.9 4.6-5.2 16.3-1.2 20.6 2.4 21.4 18.8.1 2.1.1 4.2.1 6.3 0 12.8.2 25.6-.1 38.4-.1 4.1 1.2 5.3 5.2 5 5.3-.3 10.7-.2 16 0 2.5.1 3.9-.4 3.9-3.4-.4-18.7.9-37.5-.7-56.2-1.6-17.8-11.4-27.7-29.1-29.9-14.4-1.8-28.5.4-42.6 3.5-3.3.7-3.6 2.4-3.6 5.2 0 12.7-.1 25.3-.1 37.9zm190.8 74.8c-15.9 0-31.7.1-47.6-.1-3.5 0-5 .8-5.6 4.5-2.3 14.9-4.7 29.8-7.4 44.6-.7 4.1.1 5.1 4.3 5.1 31.1-.2 62.3-.1 93.4 0 3.5 0 5-.9 5.6-4.5 2.3-15.1 4.7-30.2 7.5-45.2.7-3.9-.4-4.5-3.9-4.5-15.3.2-30.8.1-46.3.1zm-7.5-97.8c.6 12.3-1.1 27.3 1 42.1 2 14.1 10.2 22.7 23.8 25 7.2 1.2 14.5 1.2 21.7-.1 12.1-2.3 12.1-2.4 9.9-14.3-.1-.8-.3-1.5-.3-2.3-.3-4.3-1.3-7.4-6.8-4.9-2.4 1-5.2 1.1-7.9 1.2-11.3.7-15.8-3.4-16.3-14.8-.2-6.3-.2-12.6 0-18.9.1-4.5-2-10.4.8-13.3s8.7-.6 13.2-.9c5.1-.4 11.8 2.2 14.8-1.1 3-3.2.4-9.8 1-14.9.5-4.3-1.4-5.1-5.2-4.9-7.1.3-14.1 0-21.2.1-2.8.1-3.6-.9-3.6-3.6.2-5.9-.1-11.9.1-17.8.2-3.5-.5-4.8-4.4-4-5.4 1.2-10.9 2-16.4 2.6-3.6.4-4.5 2-4.5 5.6.4 12.1.3 24.4.3 39.2zm-401.6.4c.7 12.5-1.3 27.6 1.1 42.6 2.2 13.5 10.1 21.7 23.4 24 8.1 1.4 16.4 1.3 24.5-.7 9.6-2.4 9.6-2.4 7.8-11.8-.4-2.2-1-4.5-1.2-6.8-.2-2.9-1.1-3.9-4.3-3-3.6 1-7.5 1.6-11.3 1.8-9.8.4-14.1-3.4-14.7-13.3-.4-6.8-.2-13.7-.2-20.6-.1-13.9 0-13.8 13.8-14 5.2-.1 12.4 2.5 15.2-1.2 2.6-3.4.6-10.2 1-15.5.2-3.4-1.1-4.2-4.3-4.1-7.1.2-14.1-.1-21.2.1-3.5.1-4.7-.8-4.6-4.4.3-5.9 0-11.8.1-17.8.1-2.7-.7-3.8-3.6-3.3-6 1.1-12 2-18.1 2.8-3 .4-3.4 2-3.4 4.7v40.5zm-34.1-24.9c-29.8-.1-49.6 22.1-46.8 51 2.2 22.9 13.3 36.6 33 40.5 9.9 2 19.8 1.6 29.6-.8 8.4-2 8.4-2 7-10.3-.5-3.2-1.1-6.4-1.5-9.6-.3-2.5-1.3-3-3.8-2.1-5.5 1.9-11.2 2.5-16.9 2.4-9.1-.1-16.2-3.2-20.3-12.1-2.5-5.5-2.9-11.2-2.2-16.9 1.4-10.8 7.7-20.4 21.1-20.7 5-.1 10 .3 14.6 2.1 2.9 1.1 4.1.3 4.6-2.7.9-4.3 1.9-8.6 3.3-12.7 1-3-.1-4-2.7-4.9-6.5-1.9-13.2-3.3-19-3.2zm103.1 48.3c0 12.2.3 24.5-.1 36.7-.2 4.8 1.5 5.8 5.8 5.5 4.8-.3 9.6-.3 14.3 0 4 .3 5.2-1 5.1-5.1-.2-16.8-.1-33.6-.1-50.4 0-13.5.4-13.8 14.4-13.1 4.6.2 10.4 4.4 13.4 1.1 2.9-3.2 2.1-9.4 3.5-14.2 1.3-4.2 0-5.6-4.1-6.5-16.8-3.6-33-1.4-49.1 3.6-2.8.9-3.2 2.6-3.2 5.1.2 12.5.1 24.9.1 37.3zm251.4 128.4c14.3-.1 20.6-4.4 22.8-15.8 3.4-17.5 3.4-17.5-14.9-15.5h-.6c-4.9 1.1-3.2 5.5-3.9 8.4-.8 3.2 2.5 1.7 4 2.1 1.3.4 3.4-.8 3.7 1.4.3 2.1-.1 4.1-2.3 5.4-3.7 2.2-11.3 1.9-14.7-.8-5.5-4.3-5.4-15.9.1-22.7 5.2-6.3 13.6-7.2 19.6-1.7 1.8 1.6 2.9 1.6 4.9.7 8.5-4.1 8.8-7.4.9-13.1-2.5-1.8-5.3-2.9-8.4-3.5-17.4-3.1-32.6 8.8-35.2 27.7-2 15.8 8.2 27.5 24 27.4zM704.3 614h1.7c4.4.3 11.3-2.5 8.3 6.8-.1.4.1 1.4.4 1.5 2.9 1.2 6 .4 9 .5 2.5.1 2-2.2 2.7-3.6.8-1.8-.6-5.1 3-5.2 4.9-.2 2.8-4.6 4-7 1.2-2.3-.3-3-2.5-3.7-2-.7-1.9-3.3-1.2-4.9 2.9-6.9 3-14.5 4.9-21.6.3-1.2 1.1-3.3-.6-3.4-4.4-.2-9.5-2.5-13 1.4-8.5 9.5-16.6 19.4-24.7 29.3-2 2.5-2.8 6.4-1.8 9.2.6 1.8 4.5.5 7 .7.9.1 1.9 0 2.8 0z"/><path class="st0" d="M812.2 616.4c-3.3-.4-8.9 1.8-10.8-.9-1.6-2.3.7-7.5 1.4-11.4 1.4-7.5 3.1-15 4.3-22.5.5-3.5 2.3-3.9 5.1-3.6 3.9.4 2 3.1 1.7 4.7-1.4 7.9-2.8 15.8-4.6 23.6-.8 3.4.3 4 3.3 3.9 3.4-.2 6.9-.2 10.3 0 1.4.1 3.9-1.1 3.7 2-.2 2.3-.5 4.6-3.9 4.3-3.3-.3-6.6-.1-10.5-.1zM707.9 603c4.2-4.7 7.8-8.7 11.7-13-.7 14.1-1.1 14.6-11.7 13z"/><path class="st2" d="M668.7 541.3v35.8h-21.4V460.4c7.7.7 16.6-5.1 23 4.7 23.5-11.8 41.5-9.7 55.6 6.6 13.5 15.6 14.3 42.5 1.9 59.7-13.4 18.7-30.9 21.8-59.1 9.9zm44.7-38.5c-.1-14.3-9.7-24.3-23.1-24.1-13.4.2-22.9 10.6-22.8 24.7.2 14 10.1 24.3 23.3 24.2 13.2-.1 22.7-10.6 22.6-24.8zM775.5 509.3c3.8 16.9 19.5 25.7 33.1 16.8 12-7.8 19.1-1.6 28.3 2.9-12.8 19.5-38.4 25.8-60 15.4-20.4-9.9-29.8-34.7-21.9-57.6 7.7-22.2 29.5-33.4 54.5-28.1 21.5 4.5 34.7 24.4 32.6 50.6h-66.6zm1.5-18h42.5c-4.8-10.5-12.6-14.5-22.3-14.1-8.9.5-16.7 3.7-20.2 14.1z"/><path d="M512 430.9c13.9 0 27.2-.9 40.4.2 19.2 1.7 29 13.5 29 32.8 0 18.3-10.9 30.9-29.3 33.3-5.6.7-11.2.6-17.7.9v47.5h-22.5c.1-38 .1-76 .1-114.7zm23 44c17.9.2 23.2-2.5 22.9-11.3-.3-8.7-6-11.4-22.9-10.6v21.9z" fill="#233c49"/><path class="st4" d="M219.5 426.9c35.4 0 61.6 26 61.7 61.1 0 35.3-26.1 61.4-61.4 61.4-34.6 0-61.1-26.2-61.2-60.4 0-35.2 26.4-62.1 60.9-62.1zm.2 13.3c-26.1 0-47.7 22.1-47.4 48.7.2 26.1 21.6 47.5 47.3 47.7 26.4.1 47.9-21.5 48-48.2.2-26.6-21.4-48.2-47.9-48.2zM494.4 504.3h-75.2c-.7 14.9 6.4 25.7 19.3 30.6 15 5.7 28.2.5 43.9-17.6 3 1.4 6.2 2.9 9.4 4.5-9.7 23-33.1 32.9-57.3 24.9-21.3-7.1-33.7-31.2-28.2-54.8 5.3-23.2 26.4-37.3 50.9-34 22.7 2.9 38.4 22.2 37.2 46.4zm-15-11.4c-2.7-14.3-13.2-22.8-28.3-23.3-15.5-.5-26.3 7.6-30.6 23.3h58.9z"/><path d="M318.6 545.9h-11.9v-85.4c3.5-.3 6.8-.5 10.8-.9.7 3.8 1.3 7 2 10.8 1.7-1.2 3.3-2.1 4.7-3.3 11.8-10 25-13.1 39.3-6.7 14.1 6.3 17.7 19 17.8 33.1.1 17.1 0 34.3 0 52.1h-12.4c0-16.3.3-32.3-.1-48.2-.5-20-5.7-27.1-19.7-27.7-15.2-.7-28.1 10.6-29.7 27.2-1 11-.6 22.1-.8 33.2-.1 4.9 0 9.9 0 15.8z" fill="#2e4652"/><path d="M622.9 545.8h-21.4v-85.3h21.4v85.3z" fill="#27404c"/><path d="M217 568.8c-10.7 0-21.3.4-32-.3-2.8-.2-5.5-3.5-8.2-5.3 2.7-1.9 5.3-5.5 8-5.6 22.1-.5 44.2-.5 66.2 0 2.8.1 5.5 3.5 8.2 5.3-2.7 1.9-5.2 5.4-8 5.6-11.4.6-22.8.3-34.2.3z" fill="#008ab0"/><path d="M626.3 439.6c-.6 9.1-5.4 14.3-14.5 14.1-9.1-.2-13.7-5.6-13.7-14.8.1-9.4 5.3-14.2 14.2-14.1 9.4.1 13.4 6 14 14.8z" fill="#27404d"/></svg>