<svg xmlns="http://www.w3.org/2000/svg" width="133" height="49"><path style="fill:#010101;stroke:none" d="M0 0v49h133V0H0z"/><path style="fill:#ff0401;stroke:none" d="M12 7v6h13V7H12z"/><path style="fill:#fac90c;stroke:none" d="M25 7v6h37v-1h-7V7H25z"/><path style="fill:#eafc10;stroke:none" d="M55 7v5l19 1V7H55z"/><path style="fill:#fac90c;stroke:none" d="M80 7v6h5V7h-5z"/><path style="fill:#eafc10;stroke:none" d="M85 7v6h36V7H85z"/><path style="fill:#93ce01;stroke:none" d="M121 7v6h6V7h-6z"/><path style="fill:#ff0401;stroke:none" d="M74 8v22L54 14v28h5V25l20 17V32h1c3.191 9.36 15.002 12.952 23 7h1l5 2V29h12c0 5.82-1.149 11.443 6 12V15c-5.907.46-5.981 3.738-6 9h-12v-9l-5 2h-1c-8.159-6.07-20.934-2.233-23 8h-1c0-6.729 1.355-13.027-5-17m-62 7v26c6.619-.528 5.996-5.468 6-11l11-3c.222 10.716 13.362 22.719 22.258 10.776C55.162 32.532 53 21.242 53 15h-6c0 5.164 1.745 14.247-1.028 18.772-2.52 4.112-7.699 2.986-9.793-.83C33.558 28.164 35 20.291 35 15c-3.194.014-5.27-.403-6 3-5.216-3.752-10.812-3-17-3z"/><path style="fill:#010101;stroke:none" d="M18 19v6c6.549-.51 5.694-4.463 0-6m86 15V21c-4.407-.255-8.492-3.005-12.985-1.257-7.025 2.733-7.745 12.457-.971 15.938 4.748 2.44 9.41-.169 13.956-1.681z"/></svg>