<?xml version="1.0" encoding="utf-8"?>
<!-- Generator: Adobe Illustrator 25.4.1, SVG Export Plug-In . SVG Version: 6.00 Build 0)  -->
<svg version="1.1" id="Layer_1" xmlns="http://www.w3.org/2000/svg" xmlns:xlink="http://www.w3.org/1999/xlink" x="0px" y="0px"
	 viewBox="0 0 87.9 26.2" style="enable-background:new 0 0 87.9 26.2;" xml:space="preserve">
<style type="text/css">
	.st0{fill:#5BA532;}
	.st1{fill:#1489C8;}
</style>
<g transform="translate(-254.616 -372.875)">
	<path class="st0" d="M333.2,375.6c0,0.8-0.4,1.6-1,2.1c-0.5,0.3-0.7,0.9-0.5,1.5c0.2,0.6,0.8,1,1.4,1c0.2,0,0.5-0.1,0.7-0.2
		c1.4-0.7,3-0.1,3.7,1.3s0.1,3-1.3,3.7c-0.4,0.2-0.9,0.3-1.4,0.3c-1.3-0.1-2.4-1.1-2.6-2.4c0-0.6-0.4-1.2-1-1.4
		c-0.6-0.2-1.3-0.1-1.8,0.4c-0.4,0.4-0.7,1-0.9,1.5c-0.5,1.4-2,2.2-3.5,1.8c-0.5-0.2-0.9-0.4-1.2-0.8c-0.8-0.9-0.9-2.4-0.2-3.4
		c0.7-1,2.1-1.4,3.3-1c0.3,0.2,0.7,0.2,1.1,0.3c0.6,0,1.1-0.4,1.1-1c0-0.1,0-0.2,0-0.3c-0.1-0.5-0.4-1-0.8-1.4c-0.8-0.8-1-2-0.5-3.1
		c0.7-1.4,2.3-1.9,3.7-1.3c0.7,0.3,1.2,0.9,1.4,1.6C333.2,375,333.2,375.3,333.2,375.6z"/>
	<path class="st1" d="M339.6,389.8c-0.4,0-0.7-0.1-1-0.2c-0.1,0-0.1-0.1-0.2-0.1c-0.5-0.3-1.2-0.2-1.6,0.3c-0.4,0.5-0.4,1.1,0,1.6
		c0.1,0.3,0.3,0.5,0.5,0.7c1.1,1.1,1.1,2.8,0,3.9c-1.1,1.1-2.8,1.1-3.9,0c-1.1-1.1-1.1-2.8,0-3.9c0.1-0.1,0.1-0.1,0.2-0.2
		c0.5-0.4,0.7-1,0.5-1.6c-0.3-0.6-0.9-1-1.5-1c-0.2,0-0.4,0.1-0.5,0.2c-1,0.5-2.1,0.3-2.9-0.3c-0.9-0.7-1.2-1.8-0.9-2.8
		c0.2-1.1,1.1-1.9,2.2-2c1.5-0.3,2.9,0.7,3.2,2.2c0,0,0,0.1,0,0.1c0,0.7,0.5,1.3,1.1,1.6c0.7,0.2,1.5-0.1,1.9-0.7
		c0.3-0.4,0.5-0.8,0.6-1.2c0.5-1.4,2-2.2,3.4-1.8c1.4,0.5,2.2,2,1.8,3.4C342,389.1,340.9,389.9,339.6,389.8L339.6,389.8z"/>
	<path class="st0" d="M258.2,397l1-3.2c0.4-1.1,0.7-2.2,1.1-3.3c0.2-0.5,0.2-0.5,0.9-0.5c0.4-0.1,0.7,0.2,0.8,0.5
		c0.7,2.2,1.4,4.4,2.1,6.5c0.4-1.7,1-3.4,1.5-5c0.2-0.5,0.3-1.1,0.5-1.6c0-0.3,0.3-0.4,0.5-0.4c0.3,0,0.5,0,0.8,0
		c0.3,0,0.3,0.1,0.3,0.4c-0.7,2.2-1.4,4.4-2.2,6.6c-0.2,0.5-0.4,1.1-0.5,1.6c-0.1,0.2-0.2,0.3-0.4,0.3c-1.4,0-1.1,0.2-1.5-1.1
		c-0.6-1.9-1.2-3.7-1.8-5.6c0-0.1-0.1-0.2-0.1-0.4c-0.1,0.4-0.2,0.7-0.3,1.1c-0.6,1.8-1.2,3.6-1.8,5.4c-0.1,0.3-0.4,0.6-0.7,0.5
		c-0.9,0-0.9,0-1.2-0.8c-0.8-2.5-1.6-5.1-2.5-7.6c-0.1-0.4-0.1-0.4,0.3-0.4c1.4,0,1.2-0.1,1.5,1.2c0.5,1.8,1.1,3.6,1.6,5.5
		C258.1,396.7,258.1,396.9,258.2,397L258.2,397z"/>
	<path class="st1" d="M322.7,391.1l0.5-0.4c0.8-0.7,1.8-0.9,2.8-0.8c1.4,0.2,2.4,1.3,2.4,2.7c0.1,2,0,4,0.1,6.1
		c0,0.2-0.1,0.3-0.3,0.3c-0.3,0-0.6,0-0.9,0c-0.3,0-0.4-0.1-0.4-0.4c0-1.6,0-3.3,0-4.9v-0.5c0.1-1-0.6-1.9-1.6-2.1
		c-0.3,0-0.7,0-1,0.2c-0.6,0.2-1.1,0.5-1.5,1c-0.1,0.1-0.2,0.3-0.1,0.5c0,1.9,0,3.9,0,5.8c0,0.3-0.1,0.5-0.4,0.4
		c-0.3,0-0.8,0.1-1.1-0.1c-0.3-0.2-0.1-0.7-0.1-1.1c0-3.8,0-7.5,0-11.3c0-0.3,0.1-0.5,0.4-0.5c0.4,0,0.8-0.1,1.1,0.1
		s0.1,0.7,0.1,1.1c0,1.2,0,2.4,0,3.6C322.7,390.8,322.7,391,322.7,391.1L322.7,391.1z"/>
	<path class="st1" d="M290.8,391.2c0.5-0.6,1.2-1,2-1.2c1.5-0.5,3.2,0.3,3.7,1.8c0.1,0.4,0.2,0.8,0.1,1.2c0,1.9,0,3.7,0,5.6
		c0,0.2-0.1,0.3-0.3,0.3c-0.3,0-0.5,0-0.8,0c-0.3,0-0.5-0.1-0.5-0.4c0-1.7,0-3.3,0-5c0-0.3,0-0.7-0.1-1c-0.2-1-1.2-1.6-2.2-1.4
		c-0.1,0-0.3,0.1-0.4,0.1c-0.6,0.2-1.1,0.5-1.5,1c-0.1,0.1-0.2,0.3-0.1,0.5c0,1.9,0,3.8,0,5.7c0,0.4-0.1,0.5-0.5,0.5
		c-0.3,0-0.6,0-0.9,0c-0.2,0-0.2-0.1-0.2-0.2c0-0.1,0-0.1,0-0.2c0-4,0-8,0-12c0-0.4,0.1-0.5,0.4-0.4c0.3,0,0.5,0,0.8,0
		c0.3,0,0.4,0.1,0.4,0.4c0,1.5,0,3,0,4.5L290.8,391.2z"/>
	<path class="st0" d="M273.2,390.4c-2-1.1-4.5-0.3-5.5,1.7c0,0.1-0.1,0.1-0.1,0.2c-0.4,0.9-0.5,1.8-0.4,2.8c0,2.3,1.8,4.1,4.1,4.1
		c0.2,0,0.4,0,0.6,0c1,0,2-0.4,2.8-1.1c0.1-0.1,0.2-0.1,0.2-0.3c-0.1-0.4-0.5-0.7-1-0.6c0,0,0,0-0.1,0c-0.4,0.3-0.9,0.5-1.3,0.6
		c-1.4,0.5-3-0.2-3.5-1.6c0-0.1-0.1-0.2-0.1-0.4c-0.1-0.3-0.1-0.6-0.1-0.8c-0.1-0.3,0-0.4,0.4-0.4c0.9,0,1.8,0,2.6,0
		c0.9,0,1.8,0,2.8,0c0.3,0,0.4-0.1,0.5-0.4C275.1,392.6,274.4,391.2,273.2,390.4z M273.3,393.5c-1.5,0-3,0-4.4,0c0,0-0.1,0-0.1,0
		c0.1-0.4,0.2-0.8,0.4-1.2c0.6-1,1.7-1.5,2.8-1.1c1,0.2,1.6,1.1,1.6,2.1C273.5,393.4,273.5,393.5,273.3,393.5L273.3,393.5z"/>
	<path class="st1" d="M302.6,390.1c-1.7-0.7-3.6-0.2-4.7,1.2c-0.9,1.2-1.2,2.8-0.8,4.3c0.2,1.6,1.4,2.9,3,3.2c0.8,0.2,1.6,0.2,2.3,0
		c0.7-0.1,1.4-0.5,2-1c0.2-0.2,0.2-0.3,0.1-0.5c-0.4-0.6-0.5-0.6-1.1-0.2c-0.8,0.5-1.8,0.7-2.8,0.5c-1.3-0.4-2.2-1.7-2.1-3.1
		c0-0.2,0.2-0.2,0.3-0.2c0.9,0,1.8,0,2.8,0s1.8,0,2.7,0c0.3,0,0.5-0.1,0.5-0.4C305,392.4,304.1,390.8,302.6,390.1L302.6,390.1z
		 M303.1,393.5H301c-0.7,0-1.4,0-2.1,0c-0.3,0-0.3-0.1-0.3-0.3c0.2-1.4,1.5-2.3,2.8-2.1c0.1,0,0.2,0,0.3,0.1c1,0.2,1.7,1.1,1.7,2.2
		C303.4,393.5,303.3,393.5,303.1,393.5L303.1,393.5z"/>
	<path class="st1" d="M311.9,398.5c0-0.9,0-1.8,0-2.9c0-0.9,0.1-2-0.1-3.1c-0.1-1.3-1-2.4-2.3-2.6c-1.5-0.3-3,0.1-4.1,1.2
		c-0.1,0.1-0.1,0.2,0,0.3c0.3,0.7,0.6,0.8,1.2,0.3c0.6-0.4,1.3-0.7,2-0.7c0.8,0,1.4,0.5,1.6,1.2c0.1,0.4,0.1,0.8,0.1,1.3
		c0,0.3-0.1,0.3-0.3,0.3c-0.5,0-1.1,0-1.6,0.1c-1,0.1-1.9,0.5-2.7,1c-0.7,0.5-1,1.4-0.8,2.2c0.1,0.8,0.8,1.5,1.6,1.6
		c1.3,0.3,2.6,0,3.6-0.9c0.3-0.3,0.3-0.3,0.4,0.1c0.2,0.7,0.2,0.8,1,0.8C311.9,398.9,311.9,398.8,311.9,398.5z M310.3,396.8
		c-0.4,0.5-1,0.9-1.7,1c-0.4,0.1-0.8,0.1-1.2,0c-0.7-0.1-1.1-0.8-1-1.5c0.1-0.4,0.3-0.7,0.6-0.9c0.8-0.4,1.6-0.6,2.5-0.6
		c0.9,0,0.9,0,0.9,0.8v0.2C310.3,396.2,310.5,396.6,310.3,396.8L310.3,396.8z"/>
	<path class="st0" d="M288.2,392.8c0.1-1.4-0.9-2.6-2.3-2.9c-1.4-0.3-2.8,0.1-3.9,1c-0.3,0.3-0.3,0.5-0.1,0.8s0.4,0.4,0.8,0.3
		c0.2-0.1,0.4-0.2,0.5-0.3c0.5-0.4,1.2-0.6,1.8-0.5c0.7,0,1.3,0.4,1.5,1.1c0.1,0.5,0.2,1,0.1,1.5c0,0.2-0.1,0.2-0.3,0.2
		c-0.5,0-1.1,0-1.6,0.1c-0.9,0.1-1.9,0.4-2.7,0.9c-0.7,0.5-1.1,1.4-0.9,2.2c0.1,0.9,0.8,1.6,1.6,1.7c1.1,0.3,2.3,0,3.3-0.7
		c0.2-0.2,0.4-0.3,0.6-0.5c0,0.2,0.1,0.4,0.1,0.6c0,0.3,0.3,0.6,0.6,0.6c0,0,0.1,0,0.1,0c0.1,0,0.2,0,0.3,0c0.2,0,0.3,0,0.3-0.3
		C288.3,396.7,288.3,394.8,288.2,392.8z M286.6,396.8c-0.4,0.5-0.9,0.8-1.5,1c-0.4,0.1-0.9,0.2-1.3,0.1c-0.5-0.1-0.9-0.4-1-0.9
		c-0.1-0.5,0.1-1.1,0.6-1.4c0.7-0.4,1.5-0.6,2.3-0.6c1-0.1,1-0.1,1,1C286.7,396.2,286.9,396.6,286.6,396.8L286.6,396.8z"/>
	<path class="st1" d="M316.5,394.4c0-0.9,0-1.8,0-2.7c0-0.2-0.1-0.4-0.3-0.3c-0.2,0-0.3,0-0.5,0c-0.5,0-0.6-0.1-0.6-0.6
		c0-0.3,0.1-0.4,0.4-0.4c1.1-0.1,1.1-0.1,1.2-1.2c0.1-0.5,0.1-1,0.2-1.5c0.2-0.4,0.7-0.6,1.1-0.5c0,0,0,0,0,0
		c0.1,0.1,0.1,0.2,0.1,0.3c0,0.8,0,1.6,0,2.4c0,0.3,0.1,0.4,0.3,0.3c0.6,0,1.2,0,1.8,0c0.3,0,0.4,0.1,0.4,0.4c0,0.8,0,0.8-0.8,0.8
		c-0.5,0-0.9,0-1.4,0c-0.3,0-0.4,0-0.4,0.4c0,1.7,0,3.3,0,5c-0.1,0.6,0.3,1.1,0.9,1.1c0.2,0,0.5,0,0.7-0.2c0.2-0.1,0.4-0.4,0.6-0.2
		c0.2,0.2,0.4,0.5,0.5,0.8c0.1,0.1-0.1,0.2-0.1,0.2c-0.8,0.7-2,0.8-3,0.5c-0.7-0.3-1.2-1-1.2-1.7
		C316.5,396.2,316.5,395.3,316.5,394.4L316.5,394.4z"/>
	<path class="st1" d="M313.1,392.5c0-2,0-4,0-6.1c0-0.3,0.1-0.5,0.4-0.4c0.4,0,0.8-0.1,1.1,0.1c0.2,0.2,0.1,0.7,0.1,1.1
		c0,3.8,0,7.6,0,11.3c0,0.3-0.1,0.5-0.4,0.4c-0.4,0-0.8,0.1-1.1-0.1s-0.1-0.7-0.1-1.1C313.1,396,313.1,394.2,313.1,392.5z"/>
	<path class="st0" d="M280.4,392.4c0,2,0,4.1,0,6.1c0,0.3-0.1,0.4-0.4,0.4c-0.3,0-0.5,0-0.8,0c-0.3,0-0.4-0.1-0.4-0.4
		c0-3.3,0-6.6,0-9.9c0-0.8,0-1.5,0-2.3c0-0.3,0.1-0.4,0.3-0.3c0.4,0,0.9-0.2,1.2,0.1c0.2,0.2,0.1,0.7,0.1,1.1
		C280.4,388.9,280.4,390.7,280.4,392.4z"/>
	<path class="st0" d="M275.7,392.5c0-2,0-4.1,0-6.1c0-0.3,0.1-0.4,0.4-0.4c0.4,0,0.9-0.2,1.1,0.1c0.2,0.2,0.1,0.7,0.1,1.1
		c0,3.8,0,7.5,0,11.3c0,0.4-0.1,0.5-0.4,0.4c-0.3,0-0.5,0-0.8,0c-0.3,0-0.4-0.1-0.4-0.4c0-1.8,0-3.5,0-5.3L275.7,392.5z"/>
</g>
</svg>
