<svg xmlns="http://www.w3.org/2000/svg" viewBox="0 0 1000 1000"><title>Nigeria-Logo</title><path d="M163.31,377.8l3.49-19.66H82v0c-8.9,0-17.36,7.11-19.11,16L30.15,559.77h0c-1.67,9,4.21,16.29,13.23,16.33H136l3.45-19.63H59.9l14.7-83.34h64.63l3.38-19.31H78l13.43-76Z" style="fill:#00577a"/><path d="M205.1,579.33c-37.38,0-59-33.57-49.34-88.71,9.89-56.09,43.18-88.39,81.2-88.39,20.89,0,31.14,6.68,35.71,11.4l-9.49,16.17c-4.41-3.81-11.25-8.22-23.92-8.22-31.06,0-48.07,28.16-55.1,68.09-7.23,40.87,2.39,69.08,30,69.08,11.72,0,20.34-3.81,27.45-8.22l3.89,17.4c-7.71,6-21.33,11.4-40.36,11.4" style="fill:#00577a"/><path d="M350.81,420c-32.61,0-45.4,36.43-51.52,70.95S294.12,560,326.1,560c32.66,0,44.81-34.88,50.81-69.08S383.43,420,350.81,420M322.73,579.33c-46.6,0-60.11-38.34-51.29-88.39,9-51,36.23-88.71,82.19-88.71,46.88,0,60.19,37.7,51.17,88.71C396,541,369,579.33,322.73,579.33" style="fill:#00577a"/><path d="M663.37,479.22c-44,5.36-71.31,14.54-77.38,49.1-4.37,24.71,9,34.84,34.4,34.84,10.72,0,21.57-1.87,29.2-5.68ZM615.3,579.33c-44.33,0-61.53-19.31-56-50.37,8-45.33,52.76-58.6,106.66-64l1.83-10.45c4.65-26.3-9.85-33.89-31.74-33.89-16.45,0-32.73,6-43.06,10.77l-3.78-16.49a127.18,127.18,0,0,1,54.51-12.67c31.7,0,57.2,13.63,49.81,55.42L674.14,567.29c-14.27,7.31-35.08,12-58.84,12" style="fill:#00577a"/><path d="M791.72,576.15l21.61-122.59c2.82-15.85-.79-33.25-29.91-33.25-15.85,0-23.87,2.18-33.37,6L723.59,576.15H695.75l28.52-161.88c16.53-7.27,37.3-12,64.51-12,47.56,0,56.85,26.3,52.56,50.69L819.61,576.15Z" style="fill:#00577a"/><path d="M961.67,615.4H20.38l.87-5.6H962.46Z" style="fill:#bdcf00"/><path d="M526.68,488.71c-7.63,43.11-26.74,72.58-61.9,72.58-8.9,0-17.56-.95-23.36-4.13L464.51,426.3c8.7-4.4,16.36-6.63,29-6.63,32.3,0,39.73,31.7,33.14,69M503.4,403.18c-16.77,0-26.9,3.46-36.23,7.91l14.7-83.26-30.71,17.75L412.07,567.29c9,6.67,25.74,12,48.9,12,50.69,0,84.1-36.75,93.75-91.57,9.1-51.64-12-84.58-51.32-84.58" style="fill:#00577a"/><path d="M989,405.41H959.88l-74.8,79.17h-.64l19.07-107.89c19-106.86-96.37-129.43-216.78-111-81.83,12.56-154.14,45.17-154.14,45.17s94.39-33,177.46-37.74c104.87-6,187.07,9.93,163.07,121.05l-32.1,182h27.25l15.54-88.11h.63l49.74,88.11h31.7l-55.58-91Z" style="fill:#00577a"/><path d="M35.79,671.25,23.83,739h-10l12-67.77H11l1.19-6.71H51.8l-1.19,6.71Z" style="fill:#00577a"/><path d="M82.39,739l7.27-41.35c1.07-6-.56-11.48-9.86-11.48a23.2,23.2,0,0,0-11.87,2.9L59.11,739H49.57l15-85h9.49l-5.2,29.67c5.28-2.5,9.73-3.57,14-3.57,14.86,0,17.8,8.94,16.37,17.16L91.92,739Z" style="fill:#00577a"/><path d="M134,685.75c-8.46,0-15.93,6.83-18.51,22.64l28.68-4.25c2.3-13.22-1.87-18.39-10.17-18.39m-19.07,27.73c-1.27,13.19,3.78,19.7,14.26,19.7a32.43,32.43,0,0,0,15-3.37l1.39,6.27c-3.93,2.15-10.45,4-18.35,4-15.26,0-24.28-9.66-20.62-30.43,3.53-19.83,15.06-30.08,28.8-30.08,14,0,20.82,9.1,17.16,28.57Z" style="fill:#00577a"/><path d="M224.68,669.42a25.19,25.19,0,0,0-8.7,1.39L210.5,702l3.18.32c15.45,1.55,22.4-5.65,24.35-16.45s-2-16.45-13.35-16.45m-12,39-3.3-.31L204,739h-9.74l12.6-71.46c4.56-2.39,11.44-4.14,19.34-4.14,17.56,0,23.8,9.46,21.49,22.53-2.34,13.23-13.3,24.63-34.91,22.44" style="fill:#00577a"/><path d="M282.72,705.89c-15,1.87-24.35,5-26.42,16.77-1.51,8.42,3.1,11.91,11.76,11.91a24,24,0,0,0,10-1.94Zm-16.4,34.21c-15.14,0-21-6.64-19.15-17.25,2.74-15.45,18-20,36.43-21.84l.63-3.58c1.59-9-3.38-11.56-10.84-11.56-5.6,0-11.17,2-14.7,3.66l-1.31-5.65A44,44,0,0,1,276,679.59c10.84,0,19.54,4.65,17,18.95L286.42,736c-4.89,2.55-12,4.14-20.1,4.14" style="fill:#00577a"/><path d="M331.66,739l7.39-41.91c1-5.4-.27-11.36-10.25-11.36a26.7,26.7,0,0,0-11.4,2.07l-9,51.2h-9.53l9.77-55.29c5.64-2.51,12.71-4.13,22.05-4.13,16.25,0,19.43,9,18,17.32L341.2,739Z" style="fill:#00577a"/><path d="M424.74,682.49a48.29,48.29,0,0,1-.56-9h-.24a66,66,0,0,1-3.85,9l-13.86,28.29h22.2ZM432.09,739,429,716.7H403.45L392.28,739h-9.09l38.33-74.48h8.9l12,74.48Z" style="fill:#00577a"/><path d="M472.73,686.59,463.51,739h-9.57l9.25-52.43h-6.75l1.07-5.92h6.72l1.47-8.23c2-11.48,10.25-19,22.92-18.39l-1,6c-5.8.32-10.73,3.06-12.2,11.28l-1.63,9.3h10.17l-1,5.92Z" style="fill:#00577a"/><path d="M516.27,686.94c-4.53-1.43-10-1-13.47,1.08l-9,51h-9.53L494,683.8c6.28-2.9,12-4.44,25.82-4.13Z" style="fill:#00577a"/><path d="M536.81,669.42c-3.14,0-5.25-2.38-4.73-5.2a6.76,6.76,0,0,1,6.55-5.32,4.43,4.43,0,0,1,4.61,5.32,6.77,6.77,0,0,1-6.43,5.2m-17,69.6,10.29-58.35h9.54L529.3,739Z" style="fill:#00577a"/><path d="M563.74,740.1c-12.79,0-20.18-11.48-16.84-30.31,3.33-19.19,14.73-30.2,27.72-30.2,7.15,0,10.65,2.27,12.2,3.9L583.56,689a11.57,11.57,0,0,0-8.14-2.78c-10.65,0-16.45,9.65-18.87,23.28-2.42,13.94.83,23.59,10.25,23.59a17.59,17.59,0,0,0,9.41-2.78l1.31,5.92c-2.66,2-7.31,3.89-13.78,3.89" style="fill:#00577a"/><path d="M622.77,705.89c-15,1.87-24.35,5-26.42,16.77-1.51,8.42,3.06,11.91,11.72,11.91a23.92,23.92,0,0,0,10-1.94ZM606.36,740.1c-15.13,0-21.05-6.64-19.14-17.25,2.7-15.45,18-20,36.43-21.84l.63-3.58c1.59-9-3.38-11.56-10.84-11.56a36.55,36.55,0,0,0-14.7,3.66l-1.31-5.65a43.88,43.88,0,0,1,18.63-4.29c10.84,0,19.54,4.65,17,18.95L626.47,736c-4.89,2.55-12,4.14-20.11,4.14" style="fill:#00577a"/><path d="M671.75,739l7.35-41.91c.95-5.4-.27-11.36-10.21-11.36a26.78,26.78,0,0,0-11.44,2.07l-9,51.2h-9.49l9.73-55.29c5.64-2.51,12.75-4.13,22.05-4.13,16.25,0,19.43,9,18,17.32L681.25,739Z" style="fill:#00577a"/><path d="M761.1,669.19A29.94,29.94,0,0,0,751,670.81l-4.69,26.5h4.84c15.38,0,21.46-4.73,23.12-14.46,1.67-9.14-3-13.66-13.14-13.66m-10.69,33.13h-5L740.2,732c2.58,1.19,5.6,1.71,10.17,1.71,9.73,0,18-3.89,19.94-14.74,2-11.56-3.81-16.64-19.9-16.64m-.76,37.78c-8.42,0-15.29-1.51-19.58-4.13l12-68.41c4.53-2.39,11.95-4.13,20.1-4.13,16.36,0,23.71,7.82,21.81,18.63-1.83,10.64-10.61,16.05-17.52,17.36l0,.2c6.68,1.31,15.93,7.91,13.94,19.27-2.7,14.93-15.37,21.21-30.74,21.21" style="fill:#00577a"/><path d="M823.86,705.89c-15,1.87-24.35,5-26.46,16.77-1.47,8.42,3.1,11.91,11.76,11.91a24.18,24.18,0,0,0,10-1.94ZM807.45,740.1c-15.17,0-21.05-6.64-19.18-17.25,2.78-15.45,18-20,36.47-21.84l.59-3.58c1.59-9-3.34-11.56-10.8-11.56-5.65,0-11.21,2-14.74,3.66l-1.27-5.65a43.84,43.84,0,0,1,18.59-4.29c10.84,0,19.58,4.65,17,18.95L827.56,736c-4.89,2.55-12,4.14-20.11,4.14" style="fill:#00577a"/><path d="M874,739l7.39-41.91c.92-5.4-.27-11.36-10.25-11.36a26.9,26.9,0,0,0-11.44,2.07l-9,51.2h-9.54L851,683.73c5.64-2.51,12.72-4.13,22-4.13,16.21,0,19.39,9,18,17.32L883.49,739Z" style="fill:#00577a"/><path d="M928.86,739l-17-30.07h-.27L906.33,739H897l15-85h9.3l-9.46,53.71h.2l25.63-27.09h9.89L920.71,708l19,31.06Z" style="fill:#00577a"/></svg>