<svg width="485" height="68" viewBox="0 0 485 68" fill="none" xmlns="http://www.w3.org/2000/svg">
<path d="M145.081 36.9339H131.263C130.793 31.4795 127.391 28.1063 122.31 28.1063C115.871 28.1063 111.999 33.7546 111.999 42.8549C111.999 51.9554 115.871 57.5964 122.31 57.5964C127.421 57.5964 130.823 53.8645 131.204 47.8571H145.111C144.067 59.5986 135.367 67.4288 122.4 67.4288C107.738 67.4288 98.181 57.7758 98.181 42.8549C98.181 27.9341 107.709 18.281 122.37 18.281C135.337 18.281 144.007 26.104 145.081 36.9339ZM162.592 25.781C166.054 21.0011 170.8 18.6471 175.925 18.6471C186.707 18.6471 193.615 25.013 193.615 37.5726V65.9719H180.372V38.8502C180.372 31.8383 177.149 28.6589 171.949 28.6589C166.465 28.6589 162.488 32.7498 162.488 41.2114V65.9719H149.229V1.17127H162.473L162.391 25.781H162.592ZM231.077 51.9409H244.612C242.717 60.4027 234.39 67.4143 221.617 67.4143C206.479 67.4143 197.682 57.216 197.682 42.4745C197.682 28.8383 206.479 18.2667 221.557 18.2667C232.622 18.2667 240.762 24.2738 243.784 33.6469C244.828 36.8335 245.276 40.3789 245.276 45.4818H210.738C211.119 55.0341 215.962 58.4001 221.617 58.4001C226.914 58.4001 230.413 55.6873 231.077 51.9409ZM211.022 37.465H232.047C231.197 30.4603 226.825 27.2738 221.55 27.2738C216.275 27.2738 212.059 30.4747 211.022 37.4793V37.465ZM289.408 33.9196H276.724C276.724 29.19 273.882 27.1877 269.151 27.1877C264.898 27.1877 262.623 28.824 262.623 31.4938C262.623 34.7665 265.652 35.5847 272.934 37.4076C281.544 39.5607 291.005 41.7137 291.005 52.9673C291.005 61.6152 282.872 67.4432 269.815 67.4432C256.475 67.4432 248.246 62.1609 248.246 50.9362H261.675C261.675 55.5794 264.607 58.2207 270.099 58.2207C274.732 58.2207 277.098 56.491 277.098 53.7565C277.098 49.7518 273.501 48.9336 266.033 47.0245C257.989 45.0224 249.379 43.2063 249.379 32.4627C249.379 24.1805 257.326 18.2667 269.248 18.2667C281.835 18.2811 289.408 23.6494 289.408 33.934V33.9196ZM322.058 55.9457V65.6846C319.775 66.2834 317.418 66.5877 315.052 66.589C303.987 66.589 299.16 62.2829 299.16 51.575V29.2044H291.4V19.738H299.197V7.72382H312.403V19.738H321.58V29.2044H312.403V49.2996C312.403 54.3953 314.112 56.3979 318.648 56.3979C319.8 56.4119 320.949 56.2645 322.058 55.9597V55.9457ZM357.916 19.537V30.5536C356.546 30.2766 355.152 30.1228 353.752 30.0943C345.612 30.0943 341.263 35.0105 341.263 44.1107V65.9574H328.019V19.738H340.233V26.2905H340.427C343.642 21.2667 347.888 19.0059 353.573 19.0059C355.039 19.0118 356.498 19.195 357.916 19.5514V19.537ZM402.384 36.5607V53.3043C402.384 59.1324 402.854 62.8643 403.704 65.9574H391.766C391.297 63.9247 391.076 61.846 391.11 59.7639H390.968C387.379 64.6799 382.015 67.0484 375.36 67.0484C365.138 67.0484 358.99 61.041 358.99 53.0319C358.99 45.4818 363.72 40.3788 377.643 38.2903C381.239 37.7449 386.596 37.1995 389.663 37.0129V35.3765C389.663 29.5488 386.447 27.1877 381.806 27.1877C376.889 27.1877 374.054 29.8216 373.86 34.1924H360.937C361.415 25.3647 368.033 18.2667 381.754 18.2667C395.475 18.2667 402.384 24.4676 402.384 36.5751V36.5607ZM389.61 44.764C386.767 44.9433 382.798 45.3092 379.956 45.7614C374.472 46.6731 372.203 48.4028 372.203 52.1347C372.203 55.5938 374.658 57.9623 379.299 57.9623C382.037 57.9623 384.97 57.1442 386.864 55.3214C389.103 53.1683 389.61 50.6778 389.61 46.4937V44.764ZM434.692 55.9597V65.699C432.407 66.2974 430.055 66.6013 427.693 66.6034C416.619 66.6034 411.792 62.2973 411.792 51.589V29.2044H404.04V19.738H411.792V7.72382H425.043V19.738H434.241V29.2044H425.065V49.2996C425.065 54.3953 426.766 56.3979 431.31 56.3979C432.454 56.4098 433.59 56.2623 434.692 55.9597ZM470.803 51.9409H484.328C482.439 60.4027 474.113 67.4143 461.341 67.4143C446.204 67.4143 437.398 57.216 437.398 42.4745C437.398 28.8383 446.204 18.2667 461.273 18.2667C472.347 18.2667 480.478 24.2738 483.507 33.6469C484.553 36.8335 485 40.3789 485 45.4818H450.442C450.82 55.0341 455.662 58.4001 461.324 58.4001C466.625 58.4001 470.122 55.6873 470.803 51.9409ZM450.739 37.465H471.748C470.897 30.4603 466.527 27.2738 461.244 27.2738C455.96 27.2738 451.769 30.4747 450.722 37.4793L450.739 37.465ZM94.3533 19.0059C88.6754 19.0059 84.4228 21.281 81.2069 26.2905H81.0129V19.738H68.8066V31.5297C67.2214 32.4624 65.5626 33.2735 63.8451 33.9555C65.3372 20.836 62.9198 9.81227 52.3179 4.01333C34.8514 -5.54634 12.7368 2.42721 3.8208 23.0896C-3.16276 39.2879 -2.28981 63.345 21.1454 67.3786C40.3278 70.6728 53.8248 60.3236 58.7344 49.2639C62.1974 48.4576 65.569 47.3229 68.7994 45.8762V65.9719H82.0799V44.1252C82.0437 42.0339 82.3305 39.9491 82.9303 37.9387C83.1235 37.2974 83.3732 36.6732 83.6765 36.0727C85.6165 32.1613 89.2949 30.1087 94.5473 30.1087C95.9445 30.1367 97.3357 30.2904 98.703 30.568V19.5514C97.2829 19.1934 95.8215 19.0101 94.3533 19.0059ZM28.0991 56.1034C19.1085 56.1467 14.1917 50.0029 14.1917 40.1779C14.2912 36.6965 14.858 33.2421 15.8779 29.9005C17.6686 34.8167 22.3392 41.599 28.3826 45.41C32.4862 47.9935 37.1121 49.881 41.626 50.2975C38.2909 53.4769 34.0904 56.0821 28.0991 56.1034ZM48.7217 37.9315C47.5487 38.0209 46.3698 38.0065 45.1999 37.8884C32.7697 36.9124 27.6813 27.6542 27.5619 21.3815C27.4724 16.4366 30.9269 12.0515 36.172 12.0515H36.2317C45.2224 12.0515 50.2958 17.8792 50.2362 27.891C50.2605 31.2922 49.7499 34.6772 48.7217 37.9315Z" fill="#5E3EEB"/>
</svg>
