<?xml version="1.0" encoding="UTF-8"?><svg id="Layer_2" xmlns="http://www.w3.org/2000/svg" viewBox="0 0 960.34 152.63"><g id="Layer_1-2"><path d="M154.15,88.26c-6.57,35.46-38.19,64.37-75.55,64.37-16.51,0-32.04-5.17-44.8-13.99v.02S0,152.32,0,152.32l13.23-34.53C5.37,106,.76,91.95.76,76.81.76,34.66,36.46,0,78.6,0c39.23,0,71.54,29.59,75.83,67.67-40.45-.54-52.75-7.61-60.67-13.13-1.51-1.05-3.12-1.85-4.75-2.43-3.46-1.52-7.27-2.36-11.29-2.36-15.51,0-26.57,9.53-26.57,25.05s11.81,25.04,27.33,25.04c2.42,0,4.77-.31,7.01-.89h0c4.05-.87,6.67-2.33,6.67-2.33,24.79-13.67,55.63-10.41,61.98-8.36Z"/><path d="M245.16,134.5c-32.51,0-57.02-25.11-57.02-58.4s23.79-57.77,56.56-57.77c28.3,0,47.46,15.34,50.02,40.02v.08s-21.59,0-21.59,0c-4.28-11.69-15.22-19.22-27.96-19.22-19.98,0-33.4,14.82-33.4,36.89s13.42,37.04,33.4,37.04c12.76,0,23.29-7.24,27.5-18.88l22.06.14v.09c-1.07,6.68-8.42,40.01-49.56,40.02h-.01Z"/><path d="M244.7,18.4c30.73,0,47.64,17.67,49.94,39.95h-21.51c-3.94-10.91-14.32-19.22-27.96-19.22-20,0-33.48,15-33.48,36.96s13.48,37.11,33.48,37.11c13.63,0,23.63-8.03,27.57-18.94l21.9.19c-2.3,14.6-13.83,39.95-49.47,39.96h-.01c-32.41,0-56.95-24.85-56.95-58.32s23.77-57.7,56.49-57.7M244.7,18.25c-15.89,0-30.32,5.78-40.62,16.28-10.33,10.52-16.02,25.29-16.02,41.57s5.81,31.05,16.36,41.82c10.52,10.74,24.99,16.65,40.74,16.65,15.78,0,28.34-4.9,37.36-14.56,8.95-9.59,11.57-21.05,12.27-25.53l.03-.18h-.18s-21.9-.19-21.9-.19h-.11s-.04.1-.04.1c-4.19,11.62-14.7,18.83-27.43,18.83-19.93,0-33.33-14.85-33.33-36.96,0-10.75,3.18-19.96,9.2-26.62,6.03-6.67,14.37-10.19,24.12-10.19,12.7,0,23.62,7.5,27.81,19.12l.04.1h21.79l-.02-.17c-1.19-11.53-6.16-21.36-14.36-28.43-8.85-7.63-21.2-11.66-35.73-11.66h0Z"/><path d="M356.26,131.14v-48.55c0-9.29-6.06-15.53-15.07-15.53s-15.07,6.24-15.07,15.53v48.55h-22.88V18.13h22.88v37.56c4.37-5.96,12.02-9.23,21.59-9.23,18.8,0,31.43,12.57,31.43,31.29v53.4h-22.88Z"/><path d="M326.04,18.21v37.72c4.54-6.36,12.42-9.39,21.66-9.39,18.63,0,31.36,12.42,31.36,31.21v53.32h-22.72v-48.48c0-9.39-6.21-15.6-15.15-15.6s-15.15,6.21-15.15,15.6v48.48h-22.72V18.21h22.72M326.19,18.05h-23.03v113.17h23.03v-48.63c0-9.24,6.03-15.45,15-15.45s14.99,6.21,14.99,15.45v48.63h23.03v-53.48c0-18.76-12.66-31.36-31.51-31.36-9.49,0-17.11,3.22-21.51,9.08V18.05h0Z"/><path d="M430.84,132.96c-25.26,0-44.31-18.59-44.31-43.25s19.05-43.25,44.31-43.25,44.31,18.59,44.31,43.25-19.05,43.25-44.31,43.25ZM430.84,67.06c-12.17,0-20.68,9.31-20.68,22.65s8.5,22.65,20.68,22.65,20.68-9.31,20.68-22.65-8.5-22.65-20.68-22.65Z"/><path d="M430.84,46.54c24.54,0,44.23,18.18,44.23,43.18s-19.69,43.17-44.23,43.17-44.24-18.18-44.24-43.17,19.69-43.18,44.24-43.18M430.84,112.43c12.42,0,20.75-9.39,20.75-22.72s-8.33-22.72-20.75-22.72-20.75,9.54-20.75,22.72,8.33,22.72,20.75,22.72M430.84,46.38c-12.03,0-23.19,4.35-31.43,12.26-8.36,8.02-12.96,19.06-12.96,31.07s4.6,23.05,12.96,31.07c8.24,7.9,19.4,12.26,31.43,12.26s23.19-4.35,31.43-12.26c8.36-8.02,12.96-19.06,12.96-31.07s-4.6-23.05-12.96-31.07c-8.24-7.9-19.4-12.26-31.43-12.26h0ZM430.84,112.28c-6.02,0-11.18-2.18-14.92-6.31-3.72-4.1-5.68-9.72-5.68-16.26,0-13.29,8.47-22.57,20.6-22.57s20.6,9.28,20.6,22.57c0,6.53-1.96,12.16-5.68,16.26-3.74,4.13-8.9,6.31-14.92,6.31h0Z"/><polygon points="559.25 131.14 540.32 76.16 521.3 131.09 501.23 131.14 472.64 48.28 496.23 48.28 511.54 97.49 527.52 48.33 552.89 48.28 568.95 97.49 584.02 48.33 607.84 48.28 579.3 131.14 559.25 131.14"/><path d="M607.73,48.35l-28.48,82.71h-20l-18.94-55.14-19.09,55.14h-20l-28.48-82.71h23.48l15.3,49.39,16.06-49.39h25.3l16.06,49.39,15.15-49.39h23.63M607.94,48.2h-23.96l-.03.11-15.01,48.92-15.91-48.92-.03-.11h-25.52l-.03.11-15.91,48.93-15.16-48.92-.03-.11h-23.81l.07.2,28.48,82.71.04.1h20.22l.04-.1,18.94-54.72,18.79,54.72.04.1h20.22l.04-.1,28.48-82.71.07-.2h0Z"/><path d="M647.52,132.96c-23.66,0-42.19-19-42.19-43.25s18.47-43.25,42.04-43.25c9.62,0,18.03,3.08,23.71,8.68V18.13h22.88v113.01h-21.36v-7.76c-5.82,6.18-14.72,9.58-25.07,9.58ZM650.24,67.06c-11.83,0-19.77,9.16-19.77,22.79s7.76,22.5,19.77,22.5,18.49-8.41,18.49-22.5-6.91-22.79-18.49-22.79Z"/><path d="M693.87,18.21v112.86h-21.21v-7.88c-5.91,6.36-15,9.7-25.15,9.7-24.09,0-42.11-19.09-42.11-43.17s18.48-43.18,41.96-43.18c9.85,0,18.18,3.18,23.78,8.79V18.21h22.72M650.24,112.43c12.27,0,18.57-9.1,18.57-22.58s-6.3-22.87-18.57-22.87-19.85,9.69-19.85,22.87,7.43,22.58,19.85,22.58M694.02,18.05h-23.03v36.9c-5.69-5.53-14.07-8.57-23.63-8.57-23.62,0-42.12,19.03-42.12,43.33,0,11.76,4.29,22.67,12.07,30.73,7.85,8.13,18.57,12.6,30.2,12.6,10.3,0,19.15-3.36,24.99-9.46v7.64h21.52V18.05h0ZM650.24,112.28c-11.96,0-19.69-8.8-19.69-22.43,0-6.56,1.81-12.19,5.23-16.28,3.53-4.21,8.53-6.44,14.46-6.44,11.53,0,18.41,8.49,18.41,22.71,0,6.76-1.61,12.38-4.65,16.25-3.22,4.1-7.85,6.18-13.76,6.18h0Z"/><path d="M741.96,133c-11.83,0-22.52-4.6-30.12-12.96-7.28-8.01-11.29-18.84-11.29-30.48,0-24.57,17.79-43.1,41.38-43.1h.51c24.02.28,40.15,16.79,40.15,41.09,0,3.3,0,6.15-.08,8.53v.07h-58.16c1.4,10.47,9.02,16.96,19.91,16.96,7.79,0,13.4-2.93,16.68-8.7l21.67-.04-.02.09c-3.58,16.48-18.75,27.67-38.63,28.5-.67.03-1.34.04-2,.04h0ZM759.32,79.33c-.95-8.84-7.57-14.54-16.88-14.54s-15.39,5.3-17.63,14.54h34.51Z"/><path d="M741.93,46.53c.17,0,.34,0,.51,0,25.48.29,40.07,18.14,40.07,41.01,0,3.33,0,6.15-.08,8.53h-58.17c1.36,10.45,8.79,17.12,20,17.12,8.03,0,13.56-3.14,16.75-8.74h21.51c-3.84,17.67-19.98,27.66-38.56,28.43-.67.03-1.34.04-1.99.04-25.06,0-41.33-20.04-41.33-43.37,0-24.52,17.92-43.03,41.3-43.03M724.72,79.41h34.69c-.91-8.79-7.57-14.69-16.97-14.69s-15.45,5.15-17.73,14.69M741.93,46.38c-11.37,0-21.86,4.39-29.53,12.37-7.69,7.99-11.93,18.93-11.93,30.81s4.02,22.51,11.31,30.53c7.61,8.38,18.33,12.99,30.18,12.99.66,0,1.33-.01,2-.04,9.48-.4,18.09-3.13,24.89-7.91,7.2-5.06,11.98-12.2,13.81-20.65l.04-.19h-21.79l-.04.08c-3.26,5.75-8.85,8.66-16.61,8.66-10.81,0-18.39-6.44-19.82-16.81h58.15v-.15c.09-2.38.09-5.23.09-8.53,0-11.45-3.74-21.77-10.52-29.08-7.21-7.77-17.49-11.95-29.7-12.09-.17,0-.34,0-.51,0h0ZM724.91,79.26c2.25-9.15,8.63-14.39,17.53-14.39s15.81,5.64,16.79,14.39h-34.32Z"/><path d="M834.11,132.96c-24.99,0-43.84-18.66-43.84-43.4,0-11.71,4.28-22.57,12.04-30.58,7.84-8.09,18.57-12.54,30.21-12.54.53,0,1.07,0,1.61.03,29.41,1.02,36.55,17.39,39.89,34.93l.02.09-20.67-.02c-2.67-8.9-10.01-14.39-19.24-14.39-11.91,0-20.22,9.31-20.22,22.65s8.32,22.65,20.22,22.65c9.23,0,16.57-5.49,19.17-14.34l20.74.21v.09c-2.52,16.74-14.33,34.64-39.91,34.65h-.02Z"/><path d="M832.52,46.51c.53,0,1.07,0,1.61.03,30.6,1.06,36.75,18.73,39.82,34.87l-20.58-.02c-2.58-8.79-10-14.39-19.24-14.39-11.97,0-20.3,9.39-20.3,22.72s8.33,22.72,20.3,22.72c9.39,0,16.66-5.61,19.24-14.39l20.58.26c-2.3,15.37-13.06,34.57-39.82,34.58h-.01c-24.84,0-43.77-18.64-43.77-43.33s18-43.05,42.17-43.05M832.52,46.35c-11.66,0-22.41,4.46-30.26,12.57-7.78,8.03-12.06,18.91-12.06,30.64,0,24.79,18.88,43.48,43.92,43.48,12.16,0,21.99-3.9,29.21-11.58,7.57-8.05,10-17.95,10.78-23.13l.03-.17h-.18s-20.58-.26-20.58-.26h-.12s-.03.11-.03.11c-2.58,8.81-9.9,14.28-19.09,14.28-11.86,0-20.15-9.28-20.15-22.57s8.28-22.57,20.15-22.57c9.19,0,16.51,5.47,19.09,14.28l.03.11h.11l20.58.02h.19s-.03-.18-.03-.18c-1.46-7.69-3.75-16.45-9.62-23.16-6.55-7.48-16.47-11.35-30.34-11.83-.54-.02-1.08-.03-1.61-.03h0Z"/><polygon points="935.31 131.14 915.3 98.02 903.85 110.36 903.88 131.14 881 131.14 881 18.13 903.88 18.13 903.88 79.52 933.43 48.3 960.17 48.28 930.06 81.73 960.14 131.14 935.31 131.14"/><path d="M903.8,18.21v61.51l29.69-31.36h26.51l-29.99,33.33,29.99,49.39h-24.69l-20-33.18-11.51,12.42v20.75h-22.72V18.21h22.72M903.95,18.05h-23.03v113.17h23.03v-20.85l11.33-12.23,19.89,33,.04.07h25.05l-.14-.23-29.93-49.29,29.92-33.24.23-.26h-26.92l-.05.05-29.43,31.08V18.05h0Z"/></g></svg>