<?xml version="1.0" encoding="utf-8"?>
<!-- Generator: Adobe Illustrator 27.2.0, SVG Export Plug-In . SVG Version: 6.00 Build 0)  -->
<svg version="1.1" id="Layer_1" xmlns="http://www.w3.org/2000/svg" xmlns:xlink="http://www.w3.org/1999/xlink" x="0px" y="0px"
	 viewBox="0 0 1080 400" style="enable-background:new 0 0 1080 400;" xml:space="preserve">
<path d="M176,213.5c-7.4,40.1-43.2,72.8-85.4,72.8c-18.7,0-36.2-5.8-50.7-15.8v0L1.7,285.9l15-39c-8.9-13.3-14.1-29.2-14.1-46.3
	c0-47.6,40.3-86.8,88-86.8c44.3,0,80.9,33.4,85.7,76.5c-45.7-0.6-59.6-8.6-68.6-14.9c-1.7-1.2-3.5-2.1-5.4-2.8
	c-3.9-1.7-8.2-2.7-12.8-2.7c-17.5,0-30,10.8-30,28.3s13.4,28.3,30.9,28.3c2.7,0,5.4-0.4,7.9-1l0,0c4.6-1,7.5-2.6,7.5-2.6
	C133.9,207.5,168.8,211.2,176,213.5L176,213.5z"/>
<g>
	<path d="M205.8,199.8c0-38,26.9-65.2,63.9-65.2c34.7,0,53.9,20,56.5,45.2h-24.3c-4.5-12.3-16.2-21.7-31.6-21.7
		c-22.6,0-37.9,16.9-37.9,41.8s15.2,42,37.9,42c15.4,0,26.7-9.1,31.2-21.4l24.8,0.2c-2.6,16.5-15.6,45.2-55.9,45.2
		C233.6,265.7,205.8,237.6,205.8,199.8L205.8,199.8z"/>
	<path d="M421.5,201.6v60.3h-25.7v-54.8c0-10.6-7-17.6-17.1-17.6s-17.1,7-17.1,17.6v54.8h-25.7V134.3h25.7v42.6
		c5.1-7.2,14-10.6,24.5-10.6C407.1,166.3,421.5,180.4,421.5,201.6L421.5,201.6z"/>
	<path d="M430.1,215.1c0-28.3,22.3-48.8,50-48.8s50,20.6,50,48.8s-22.3,48.8-50,48.8S430.1,243.4,430.1,215.1L430.1,215.1z
		 M503.5,215.1c0-14.9-9.4-25.7-23.5-25.7s-23.5,10.8-23.5,25.7s9.4,25.7,23.5,25.7S503.5,230.2,503.5,215.1z"/>
	<path d="M680.1,168.4l-32.2,93.5h-22.6l-21.4-62.3l-21.6,62.3h-22.6l-32.2-93.5H554l17.3,55.8l18.2-55.8H618l18.2,55.8l17.1-55.8
		L680.1,168.4L680.1,168.4z"/>
	<path d="M777.4,134.3v127.6h-24V253c-6.7,7.2-17,11-28.4,11c-27.2,0-47.6-21.6-47.6-48.8s20.9-48.8,47.4-48.8
		c11.1,0,20.5,3.6,26.9,9.9v-42L777.4,134.3L777.4,134.3z M749.1,215.3c0-15.1-7.1-25.9-21-25.9s-22.4,10.9-22.4,25.9
		s8.4,25.5,22.4,25.5S749.1,230.5,749.1,215.3z"/>
	<path d="M877.6,222.3h-65.8c1.5,11.8,9.9,19.4,22.6,19.4c9.1,0,15.3-3.6,18.9-9.9h24.3c-4.3,20-22.6,31.3-43.6,32.1
		c-29.6,1.2-49-21.9-49-49s20.5-48.9,47.3-48.6c28.8,0.3,45.3,20.5,45.3,46.4C877.7,216.5,877.7,219.6,877.6,222.3L877.6,222.3z
		 M851.5,203.5c-1-9.9-8.6-16.6-19.2-16.6s-17.5,5.8-20,16.6H851.5L851.5,203.5z"/>
	<path d="M886.5,215c0-27.7,21.2-49.6,49.5-48.6c34.6,1.2,41.5,21.2,45,39.4l-23.3,0c-2.9-9.9-11.3-16.3-21.8-16.3
		c-13.5,0-23,10.6-23,25.7s9.4,25.7,23,25.7c10.6,0,18.8-6.3,21.8-16.3l23.3,0.3c-2.6,17.4-14.8,39.1-45,39.1
		C907.9,264,886.5,242.9,886.5,215L886.5,215z"/>
	<path d="M1044.4,206.1l33.9,55.8h-27.9l-22.6-37.5l-13,14v23.5h-25.7V134.3h25.7v69.5l33.6-35.4h30L1044.4,206.1L1044.4,206.1z"/>
</g>
</svg>
