<?xml version="1.0" encoding="UTF-8"?><svg id="Layer_2" xmlns="http://www.w3.org/2000/svg" viewBox="0 0 399.3 65.68"><defs><style>.cls-1{stroke:#000;stroke-miterlimit:10;stroke-width:1.87px;}</style></defs><g id="Layer_1-2"><path class="cls-1" d="M65.47,37.48c-2.72,14.68-15.81,26.65-31.28,26.65-6.84,0-13.27-2.14-18.55-5.79h0s-13.99,5.66-13.99,5.66l5.48-14.3c-3.25-4.88-5.16-10.7-5.16-16.97C1.96,15.29,16.74.94,34.19.94c16.24,0,29.62,12.25,31.4,28.02-16.75-.22-21.84-3.15-25.12-5.44-.63-.44-1.29-.76-1.97-1.01-1.43-.63-3.01-.98-4.67-.98-6.42,0-11,3.95-11,10.37s4.89,10.37,11.32,10.37c1,0,1.97-.13,2.9-.37h0c1.68-.36,2.76-.96,2.76-.96,10.27-5.66,23.04-4.31,25.67-3.46Z"/><path d="M103.16,56.63c-13.46,0-23.61-10.4-23.61-24.18s9.85-23.92,23.42-23.92c11.72,0,19.65,6.35,20.71,16.57l-8.94.04c-1.77-4.84-6.3-7.96-11.58-7.96-8.27,0-13.83,6.14-13.83,15.27s5.56,15.34,13.83,15.34c5.28,0,9.65-3,11.39-7.82l9.1.06c-.41,2.8-3.45,16.61-20.48,16.61h0Z"/><path d="M102.97,8.55c12.73,0,19.72,7.32,20.68,16.54h-8.91c-1.63-4.52-5.93-7.96-11.58-7.96-8.28,0-13.86,6.21-13.86,15.31s5.58,15.37,13.86,15.37c5.65,0,9.79-3.32,11.42-7.84l9.07.08c-.95,6.04-5.73,16.54-20.48,16.55h0c-13.42,0-23.58-10.29-23.58-24.15s9.84-23.89,23.39-23.89M102.97,8.49c-6.58,0-12.55,2.39-16.82,6.74-4.28,4.36-6.63,10.47-6.63,17.21s2.41,12.86,6.77,17.32c4.36,4.45,10.35,6.9,16.87,6.9,6.53,0,11.74-2.03,15.47-6.03,3.71-3.97,4.79-8.72,5.08-10.57v-.07s-.06,0-.06,0l-9.07-.08h-.04s-.02.04-.02.04c-1.74,4.81-6.09,7.8-11.36,7.8-8.25,0-13.8-6.15-13.8-15.3,0-4.45,1.32-8.26,3.81-11.02,2.5-2.76,5.95-4.22,9.99-4.22,5.26,0,9.78,3.11,11.52,7.92l.02.04h9.02v-.07c-.5-4.77-2.56-8.85-5.95-11.77-3.66-3.16-8.78-4.83-14.8-4.83h0Z"/><path d="M149.19,55.24l-.03-20.11c0-3.85-2.51-6.43-6.24-6.43s-6.24,2.58-6.24,6.43v20.07l-9.44.03-.03-46.76,9.44-.03.03,15.65c1.74-2.54,4.93-3.92,8.94-3.92,7.79,0,13.02,5.21,13.02,12.96v22.11h-9.44Z"/><path d="M136.65,8.47v15.62c1.88-2.63,5.14-3.89,8.97-3.89,7.72,0,12.98,5.14,12.98,12.92v22.08h-9.41v-20.07c0-3.89-2.57-6.46-6.27-6.46s-6.27,2.57-6.27,6.46v20.07h-9.41V8.47h9.41M136.71,8.41h-9.54v46.86h9.54v-20.14c0-3.83,2.5-6.4,6.21-6.4s6.21,2.57,6.21,6.4v20.14h9.54v-22.14c0-7.77-5.24-12.99-13.05-12.99-3.93,0-7.08,1.33-8.91,3.76v-15.49h0Z"/><path d="M180.04,55.99c-10.46,0-18.35-7.7-18.35-17.91s7.89-17.91,18.35-17.91,18.35,7.7,18.35,17.91-7.89,17.91-18.35,17.91ZM180.04,28.7c-5.04,0-8.56,3.86-8.56,9.38s3.52,9.38,8.56,9.38,8.56-3.86,8.56-9.38-3.52-9.38-8.56-9.38Z"/><path d="M180.04,20.2c10.16,0,18.32,7.53,18.32,17.88s-8.15,17.88-18.32,17.88-18.32-7.53-18.32-17.88,8.15-17.88,18.32-17.88M180.04,47.49c5.14,0,8.59-3.89,8.59-9.41s-3.45-9.41-8.59-9.41-8.59,3.95-8.59,9.41,3.45,9.41,8.59,9.41M180.04,20.14c-4.98,0-9.6,1.8-13.01,5.08-3.46,3.32-5.37,7.89-5.37,12.87s1.91,9.54,5.37,12.87c3.41,3.27,8.03,5.08,13.01,5.08s9.6-1.8,13.01-5.08c3.46-3.32,5.37-7.89,5.37-12.87s-1.91-9.54-5.37-12.87c-3.41-3.27-8.03-5.08-13.01-5.08h0ZM180.04,47.43c-2.49,0-4.63-.9-6.18-2.61-1.54-1.7-2.35-4.03-2.35-6.73,0-5.5,3.51-9.35,8.53-9.35s8.53,3.84,8.53,9.35c0,2.71-.81,5.03-2.35,6.73-1.55,1.71-3.69,2.61-6.18,2.61h0Z"/><polygon points="233.21 55.24 225.34 32.38 217.5 55.22 209.19 55.24 197.37 20.97 207.12 20.92 213.48 41.4 220.07 20.95 230.58 20.92 237.26 41.4 243.47 20.95 253.29 20.92 241.52 55.24 233.21 55.24"/><path d="M253.29,20.96l-11.79,34.25h-8.28l-7.84-22.83-7.9,22.83h-8.28l-11.79-34.25h9.72l6.34,20.45,6.65-20.45h10.48l6.65,20.45,6.27-20.45h9.79M253.38,20.89h-9.92v.04s-6.23,20.26-6.23,20.26l-6.59-20.26v-.04h-10.58v.04s-6.6,20.26-6.6,20.26l-6.28-20.26v-.04h-9.87l.03.08,11.79,34.25v.04h8.39v-.04s7.86-22.66,7.86-22.66l7.78,22.66v.04h8.39v-.04s11.81-34.25,11.81-34.25l.03-.08h0Z"/><path d="M269.76,55.99c-9.8,0-17.47-7.87-17.47-17.91s7.65-17.91,17.41-17.91c4.01,0,7.52,1.3,9.87,3.65l-.05-15.35,9.44-.03.03,46.76-8.81.03-.03-3.29c-2.36,2.62-6.06,4.05-10.38,4.05ZM270.89,28.7c-4.9,0-8.19,3.79-8.19,9.44s3.21,9.32,8.19,9.32,7.66-3.48,7.66-9.32-2.86-9.44-7.66-9.44Z"/><path d="M288.96,8.47v46.73h-8.78v-3.26c-2.45,2.63-6.21,4.01-10.41,4.01-9.97,0-17.44-7.9-17.44-17.88s7.65-17.88,17.38-17.88c4.08,0,7.53,1.32,9.85,3.64v-15.37h9.41M270.89,47.49c5.08,0,7.69-3.77,7.69-9.35s-2.61-9.47-7.69-9.47-8.22,4.01-8.22,9.47,3.08,9.35,8.22,9.35M289.02,8.41h-9.54v15.28c-2.36-2.29-5.82-3.55-9.78-3.55-9.78,0-17.44,7.88-17.44,17.94,0,4.87,1.77,9.39,5,12.72,3.25,3.36,7.69,5.22,12.5,5.22,4.26,0,7.93-1.39,10.35-3.92v3.17h8.91V8.41h0ZM270.89,47.43c-4.95,0-8.16-3.65-8.16-9.29,0-2.72.75-5.05,2.17-6.74,1.46-1.74,3.53-2.67,5.99-2.67,4.77,0,7.62,3.52,7.62,9.4,0,2.8-.67,5.12-1.93,6.73-1.33,1.7-3.25,2.56-5.7,2.56h0Z"/><path d="M308.87,56.01c-4.9,0-9.33-1.91-12.47-5.37-3.01-3.32-4.67-7.8-4.67-12.62,0-10.17,7.37-17.85,17.14-17.85h.21c9.94.12,16.63,6.95,16.63,17.02,0,1.38,0,2.55-.03,3.53l-24.12.03c.6,4.32,3.76,7.02,8.28,7.02,3.23,0,5.55-1.21,6.91-3.6l8.94-.02c-1.45,6.86-7.73,11.5-15.97,11.84-.28.01-.55.02-.83.02ZM309.07,27.76c-3.73,0-6.39,2.21-7.31,6.06l14.33-.04c-.41-3.64-3.16-6.02-7.03-6.02Z"/><path d="M308.86,20.2c.07,0,.14,0,.21,0,10.55.12,16.59,7.51,16.59,16.98,0,1.38,0,2.54-.03,3.53h-24.09c.56,4.33,3.64,7.09,8.28,7.09,3.32,0,5.62-1.3,6.93-3.62h8.91c-1.59,7.32-8.27,11.45-15.97,11.77-.28.01-.55.02-.83.02-10.38,0-17.11-8.3-17.11-17.96,0-10.15,7.42-17.82,17.1-17.82M301.73,33.82h14.36c-.38-3.64-3.14-6.08-7.02-6.08s-6.4,2.13-7.34,6.08M308.86,20.14h0c-4.71,0-9.05,1.82-12.23,5.12-3.18,3.31-4.94,7.84-4.94,12.76s1.66,9.32,4.68,12.64c3.15,3.47,7.59,5.38,12.5,5.38.27,0,.55,0,.83-.02,3.93-.16,7.49-1.3,10.31-3.27,2.98-2.09,4.96-5.05,5.72-8.55l.02-.08h-9.02l-.02.03c-1.35,2.38-3.67,3.59-6.88,3.59-4.48,0-7.62-2.67-8.21-6.96h24.08v-.06c.04-.99.04-2.17.04-3.53,0-4.74-1.55-9.02-4.36-12.04-2.99-3.22-7.24-4.95-12.3-5-.07,0-.14,0-.21,0h0ZM301.81,33.75c.93-3.79,3.57-5.96,7.26-5.96s6.55,2.34,6.95,5.96h-14.21Z"/><path d="M347.03,55.99c-10.35,0-18.15-7.73-18.15-17.97s7.52-17.86,17.5-17.86c.22,0,.44,0,.67.01,12.18.42,15.14,7.2,16.52,14.46l-8.55.03c-1.1-3.68-4.15-5.96-7.97-5.96-4.93,0-8.37,3.86-8.37,9.38s3.44,9.38,8.37,9.38c3.82,0,6.86-2.27,7.94-5.94l8.55.08c-1.01,6.97-5.9,14.38-16.49,14.38h0Z"/><path d="M346.36,20.19c.22,0,.44,0,.67.01,12.67.44,15.22,7.76,16.49,14.44h-8.52c-1.07-3.65-4.14-5.97-7.97-5.97-4.96,0-8.41,3.89-8.41,9.41s3.45,9.41,8.41,9.41c3.89,0,6.9-2.32,7.97-5.96l8.52.11c-.95,6.36-5.41,14.32-16.49,14.32h0c-10.28,0-18.12-7.72-18.12-17.94s7.45-17.83,17.46-17.83M346.36,20.13c-4.83,0-9.28,1.85-12.53,5.2-3.22,3.32-5,7.83-5,12.69,0,10.26,7.82,18,18.19,18,5.04,0,9.1-1.61,12.09-4.79,3.13-3.33,4.14-7.43,4.46-9.58v-.07s-.06,0-.06,0l-8.52-.11h-.05s-.01.05-.01.05c-1.07,3.65-4.1,5.91-7.91,5.91-4.91,0-8.34-3.84-8.34-9.35s3.43-9.35,8.34-9.35c3.81,0,6.84,2.27,7.91,5.91v.05h8.58s.08,0,.08,0v-.08c-.62-3.18-1.57-6.81-4-9.59-2.71-3.1-6.82-4.7-12.56-4.9-.22,0-.45-.01-.67-.01h0Z"/><polygon points="388.93 55.24 380.62 41.49 375.9 46.63 375.91 55.21 366.47 55.24 366.44 8.47 375.88 8.44 375.91 33.94 388.15 20.94 399.15 20.92 386.76 34.78 399.21 55.24 388.93 55.24"/><path d="M375.88,8.47v25.47l12.29-12.98h10.98l-12.42,13.8,12.42,20.45h-10.22l-8.28-13.74-4.77,5.14v8.59h-9.41V8.47h9.41M375.94,8.41h-9.54v46.86h9.54v-8.63l4.69-5.06,8.24,13.66.02.03h10.37l-.06-.1-12.4-20.41,12.39-13.77.1-.11h-11.15l-.02.02-12.18,12.87V8.41h0Z"/></g></svg>