<svg width="28" height="28" viewBox="0 0 28 28" fill="none" xmlns="http://www.w3.org/2000/svg">
<path d="M20.7977 0.630249V0.67873V26.6153H27.3909V0.630249H20.7977Z" fill="#2054D2"/>
<path d="M27.294 13.6227C27.2987 16.3229 26.5024 18.9638 25.0058 21.2112C23.5092 23.4586 21.3795 25.2116 18.8863 26.2482C16.393 27.2848 13.6483 27.5585 10.9995 27.0347C8.35061 26.5109 5.91669 25.213 4.0057 23.3054C2.09471 21.3978 0.792548 18.9662 0.264008 16.3183C-0.264531 13.6704 0.00430515 10.9252 1.0365 8.43012C2.06869 5.93505 3.81784 3.80225 6.0626 2.30163C8.30735 0.801001 10.9468 4.25935e-06 13.647 0C17.2622 -5.70277e-06 20.7297 1.43447 23.2883 3.98853C25.8469 6.5426 27.2875 10.0075 27.294 13.6227ZM6.66592 13.6227C6.66592 15.0035 7.07535 16.3532 7.84244 17.5012C8.60952 18.6492 9.69982 19.544 10.9754 20.0724C12.2511 20.6008 13.6547 20.739 15.0089 20.4697C16.3631 20.2003 17.607 19.5354 18.5833 18.5591C19.5596 17.5828 20.2245 16.3389 20.4939 14.9847C20.7632 13.6305 20.625 12.2268 20.0966 10.9512C19.5682 9.67559 18.6735 8.5853 17.5254 7.81821C16.3774 7.05112 15.0277 6.64169 13.647 6.64169C11.7955 6.64169 10.0198 7.37719 8.71062 8.6864C7.40142 9.9956 6.66592 11.7713 6.66592 13.6227Z" fill="#D8A28F"/>
</svg>
