<svg xmlns="http://www.w3.org/2000/svg" xmlns:xlink="http://www.w3.org/1999/xlink" viewBox="0 0 1000 1000"><defs><clipPath id="a"><path d="M15.2,474.48A90.82,90.82,0,1,0,106,383.66,90.84,90.84,0,0,0,15.2,474.48" style="fill:none"/></clipPath><linearGradient id="b" x1="-7202.32" y1="3938.86" x2="-7195.3" y2="3938.86" gradientTransform="translate(59778.84 -203398.32) rotate(-45) scale(25.89)" gradientUnits="userSpaceOnUse"><stop offset="0" stop-color="#c9cacb"/><stop offset="1" stop-color="#e8e8e9"/></linearGradient></defs><title>Nigeria-Logo</title><path d="M346.84,417.7H323.39a29.34,29.34,0,0,1-7.91-1.13l-1.55-.7v11.44h2.82v-2.26a3.09,3.09,0,0,1,2.83-3.11h12.14v40.54a3.4,3.4,0,0,1-3.39,3.24h-2v2.83h17.37v-2.83h-2a3.41,3.41,0,0,1-3.39-3.24V421.94h12a3,3,0,0,1,3,3.11v2.26h2.83V415.87l-1.55.7a27.27,27.27,0,0,1-7.77,1.13" style="fill:#46505a"/><path d="M404.46,465.72a2.82,2.82,0,0,1-3-2.54V430.27a2.92,2.92,0,0,1,3-2.54h1.84v-2.82H389.92v2.82h1.83a2.94,2.94,0,0,1,3,2.68v14.41H371.27V430.27a3,3,0,0,1,3-2.68h1.83v-2.83H359.69v2.83h1.84a2.94,2.94,0,0,1,3,2.68V463a2.84,2.84,0,0,1-3,2.68h-1.84v2.83h16.38v-2.83h-1.83a2.84,2.84,0,0,1-3-2.68v-14h23.59v14a2.84,2.84,0,0,1-3,2.68h-1.83v2.83h16.38v-2.83Z" style="fill:#46505a"/><path d="M443.87,457.11c-2,4.66-4.24,7.06-10,7.2H424.1V448.78H435a1.6,1.6,0,0,1,1.7,1.83v2h3v-12h-3v2c0,1.27-.57,1.84-1.7,1.84H424.24V428.86h13.28a2.34,2.34,0,0,1,2.4,2.54v2.12h3V422.93l-1.55.56a27.44,27.44,0,0,1-7.35,1H412.66v2.83h2a2.74,2.74,0,0,1,3,2.54v32.91a2.76,2.76,0,0,1-3,2.68h-2v2.83h30.08l4.66-12.15h-3.11Z" style="fill:#46505a"/><path d="M509.12,427.45V416l-1.55.7a30.32,30.32,0,0,1-7.91,1.13H476.22a29.27,29.27,0,0,1-7.91-1.13l-1.56-.7v11.44h2.83v-2.4a3.09,3.09,0,0,1,2.82-3.11h12.15v40.54a3.4,3.4,0,0,1-3.39,3.24h-2v2.83h17.37v-2.83h-2a3.4,3.4,0,0,1-3.39-3.24V421.94h12a3,3,0,0,1,3,3.11v2.26Z" style="fill:#46505a"/><path d="M532.71,423.78c-14,0-24.57,9.88-24.57,22.88s10.59,22.88,24.57,22.88,24.58-9.89,24.58-22.88-10.59-22.88-24.58-22.88m0,4.23c10,0,17.23,7.91,17.23,18.65s-7.2,18.64-17.23,18.64-17.23-7.91-17.23-18.64S522.83,428,532.71,428" style="fill:#46505a"/><path d="M597.4,427.59h2.26a2.91,2.91,0,0,1,2.83,2.4v26.27L568,423.78l-2.54-.15.28,1.27a54,54,0,0,1,.71,8.48V463a2.69,2.69,0,0,1-2.83,2.54h-2.26v2.83h15.4v-2.83h-2.26A2.78,2.78,0,0,1,571.7,463V436.63l34.6,32.77h2.4l-.14-1.27a62.75,62.75,0,0,1-.71-8.76V429.85a2.67,2.67,0,0,1,2.83-2.4h2.26v-2.83h-15.4Z" style="fill:#46505a"/><path d="M643.87,427.59h1.84l1.27.56.14,1.13-9.89,16.25-9-16.25.14-1.27,1.13-.56h1.84v-2.83H613.08v2.83h2a6.67,6.67,0,0,1,5.51,3l12.71,19.92V462.9a2.85,2.85,0,0,1-3,2.68h-1.84v2.83h16.39v-2.83H643a2.94,2.94,0,0,1-3-2.68V450.47l13.13-19.92c1.13-1.41,3.11-3.1,5.51-3.1h2v-2.83H644v3Z" style="fill:#46505a"/><path d="M713.22,455.84c-2.12,5.22-4.8,8.47-11.3,8.47H693V445.67h10.74a2.32,2.32,0,0,1,2.26,2.26v2.12h2.82V436.91H706V439a2.45,2.45,0,0,1-2.26,2.4h-10.6V422.08h13a3.09,3.09,0,0,1,2.82,3.11v2.26h2.83V415.87l-1.56.7a29.34,29.34,0,0,1-7.91,1.13H680.88v2.83h2a3.48,3.48,0,0,1,3.39,2.82v38.84a3.31,3.31,0,0,1-3.39,3.25h-2v2.83h30.65l4.8-13.42h-3Z" style="fill:#46505a"/><path d="M752.49,457.11c-2,4.66-4.24,7.06-10,7.2h-9.75v-34a3,3,0,0,1,3.11-2.68h1.84v-2.83H721.13v2.83H723a3.08,3.08,0,0,1,3.1,2.68V463a2.75,2.75,0,0,1-3,2.68h-2v2.83h30.08l4.67-12.15h-3.11Z" style="fill:#46505a"/><path d="M787.66,427.59h2.11a2.09,2.09,0,0,1,2.26,1.83v23.31c0,7.91-4.94,12.71-13.13,12.71-7.35,0-11.73-5.08-11.73-13.42V429.57a2.1,2.1,0,0,1,2.26-2h2.12v-2.83H756.16v2.83h2.12a2.1,2.1,0,0,1,2.26,2V453c0,10.31,7.06,16.67,18.5,16.67S797.4,463.32,797.4,453v-23.3c0-1.13,1-1.84,2.26-1.84h2.12v-2.82H787.65v2.54Z" style="fill:#46505a"/><path d="M859.12,462.9l-5.65-39h-2.26l-17.09,33.89-17.65-33.89h-2.26l-5.51,39a3.49,3.49,0,0,1-3.67,3h-2.12v2.82H818v-2.82H815.9l-1.13-.57-.28-1,2.68-24.43,15.4,29.66h2.26l.14-.85a32.64,32.64,0,0,1,2.4-6.78l11.44-22.6,3.25,25-.28,1-1.13.57h-2.12v2.82H865.2v-2.82h-2.12c-1.84-.15-3.53-1-4-3" style="fill:#46505a"/><path d="M899.24,457.11c-2,4.66-4.24,7.06-10,7.2h-9.75V448.78h10.88c1.13,0,1.69.7,1.69,1.83v2h3v-12h-3v2c0,1.27-.56,1.84-1.69,1.84H879.6V428.86h13.28a2.34,2.34,0,0,1,2.4,2.54v2.12h3V422.93l-1.41.56a27.51,27.51,0,0,1-7.35,1H868.16v2.83h2a2.74,2.74,0,0,1,3,2.54v32.91a2.76,2.76,0,0,1-3,2.68h-2v2.83h30.09l4.66-12.15H899.8Z" style="fill:#46505a"/><path d="M937.09,457.11c-2,4.66-4.24,7.06-10,7.2h-9.74v-34a3,3,0,0,1,3.1-2.68h1.84v-2.83H905.59v2.83h1.84a3.09,3.09,0,0,1,3.11,2.68V463a2.76,2.76,0,0,1-3,2.68h-2v2.83h30.23l4.66-12.15h-3.11Z" style="fill:#46505a"/><path d="M972.26,424.76v2.83h2.12a2.09,2.09,0,0,1,2.26,1.83v23.31c0,7.91-4.95,12.71-13.14,12.71-7.34,0-11.72-5.08-11.72-13.42V429.57a2.1,2.1,0,0,1,2.26-2h2.12v-2.83h-15.4v2.83h2.12a2.1,2.1,0,0,1,2.26,2V453c0,10.31,7.06,16.67,18.5,16.67S982,463.32,982,453v-23.3c0-1.13,1-1.84,2.26-1.84h2.12v-2.82Z" style="fill:#46505a"/><path d="M344.44,495.67a26,26,0,0,0,6.92-1v6.92h-.71v-1a3.05,3.05,0,0,0-3.11-3.11H334.69V513h10.59a2.26,2.26,0,0,0,2.4-2.54v-.71h.71v8.62h-.71v-.71c0-1.41-.7-2.54-2.26-2.54H334.69v13.42a3.36,3.36,0,0,0,3.53,3.25h.85v.56H326.36v-.56h.84a3.37,3.37,0,0,0,3.54-3.25v-29a3.37,3.37,0,0,0-3.54-3.25h-.84v-.56h18.08Z" style="fill:#3f5059"/><path d="M425.65,513.89c0,11.3-9.18,19.07-20.62,19.07s-20.62-7.77-20.62-19.07,9.18-19.07,20.62-19.07,20.62,7.77,20.62,19.07m-4.52,0c0-10.31-7.06-17.38-16.1-17.38s-16.1,7.07-16.1,17.38S396,531.26,405,531.26s16.1-7.06,16.1-17.37" style="fill:#3f5059"/><path d="M496,495.67v.56h-.85a2.92,2.92,0,0,0-3,2.54v20.48c0,8.48-5.8,13.71-15.26,13.71s-15.25-5.23-15.25-13.56V498.92a2.76,2.76,0,0,0-3-2.69h-.85v-.56h11.59v.56h-.85a2.84,2.84,0,0,0-3,2.69v19.77c0,7.91,4.24,12.71,11.3,12.71,7.63,0,12.43-4.52,12.43-12.15V498.77c0-1.55-1.27-2.54-3-2.54h-.84v-.56Z" style="fill:#3f5059"/><path d="M570.85,495.67v.56h-1a3.39,3.39,0,0,0-3.39,3.11v26a61.06,61.06,0,0,0,.56,7.77h-.56L534.69,503v25.43a3.41,3.41,0,0,0,3.39,3.24h1v.57H527.63v-.57h1a3.32,3.32,0,0,0,3.39-3.24V502.31a53.71,53.71,0,0,0-.57-7.63h.71l31.64,29.8V499.2a3.4,3.4,0,0,0-3.39-3.11h-1v-.56h11.44Z" style="fill:#3f5059"/><path d="M624,495.67c12,0,19.63,6.92,19.63,18.22S636,532.11,624,532.11H603.62v-.57h.84a3.31,3.31,0,0,0,3.39-3.25V499.48a3.27,3.27,0,0,0-3.53-3.25h-.7v-.56Zm-12,34.6H624.1c9.32,0,15.11-6.21,15.11-16.38s-5.79-16.53-15.11-16.53H612Z" style="fill:#3f5059"/><path d="M708.7,528c1.27,2.54,3.11,3.53,4.66,3.53h.43v.57H701.36v-.57h.42c1.41,0,3-1.27,2.12-3.67l-3.39-8h-15.4l-3.39,7.91c-1,2.4.71,3.81,2.12,3.81h.43v.57H672.68v-.57h.43c1.55,0,3.53-1,4.8-3.53l12.57-27s2.26-4.66,2.4-6.21h.57Zm-8.76-10-6.78-16.66L686.1,518Z" style="fill:#3f5059"/><path d="M764.21,495.53a24.85,24.85,0,0,0,6.78-1v6.92h-.71v-1a3,3,0,0,0-3.11-3.11h-11v30.93a3.53,3.53,0,0,0,3.53,3.25h.71v.57H747.82v-.57h.71a3.35,3.35,0,0,0,3.53-3.25V497.36H741a3,3,0,0,0-3.1,3.11v1h-.71v-6.92a25.79,25.79,0,0,0,6.78,1Z" style="fill:#3f5059"/><path d="M802.63,532.11v-.57h.84c2.26,0,4.1-1.41,4.1-3.25V499.62c0-1.83-1.84-3.25-4.1-3.25h-.84v-.56h13.84v.56h-.85c-2.26,0-4.09,1.42-4.09,3.25v29c0,1.83,1.83,3.25,4.09,3.25h.85v.56H802.63Z" style="fill:#3f5059"/><path d="M890.48,513.89c0,11.3-9.18,19.07-20.62,19.07s-20.62-7.77-20.62-19.07,9.18-19.07,20.62-19.07,20.62,7.77,20.62,19.07m-4.52,0c0-10.31-7.06-17.38-16.1-17.38s-16.1,7.07-16.1,17.38,7.06,17.37,16.1,17.37S886,524.2,886,513.89" style="fill:#3f5059"/><path d="M965.9,495.67v.56h-1a3.4,3.4,0,0,0-3.39,3.11v26a60,60,0,0,0,.57,7.77h-.57L929.89,503v25.43a3.41,3.41,0,0,0,3.39,3.24h1v.57H922.68v-.57h1a3.31,3.31,0,0,0,3.39-3.24V502.31a54.64,54.64,0,0,0-.56-7.63h.7l31.64,29.8V499.2a3.39,3.39,0,0,0-3.39-3.11h-1v-.56H965.9Z" style="fill:#3f5059"/><g style="clip-path:url(#a)"><polygon points="-75.62 474.48 106.02 292.84 287.66 474.48 106.02 656.12 -75.62 474.48" style="fill:url(#b)"/></g><path d="M191.89,502.59a6.88,6.88,0,0,1-4.94,5.65c-2.54.56-4.1-2.26-5.37-4.38a11.4,11.4,0,0,0-3.1-3.81c-2.55-1.84-3.11-3.39.84-3.82,1.56-.28,2.4-1.27,1.42-2.26-2.55-2.4-1.7-5.65-2.69-8.33-.56-1.41.14-4.94-3.67-2.4-1.27.85-1.41-1.41-1.69-2.4-.71-2.12-2.83-3.82-4.38-3.68s-3.39,1.84-4.1,4.24a29.37,29.37,0,0,1-4.52,8.9c-2.26,2.82-3.39,6.36-.42,9.6,1.27,1.56,3.53,2.83,1.69,5-2.4,2.82-2.54-1.27-3.53-1.56-7.63-1.69-8.19-9-11.58-14-.71-1.13,1-4.38-2.54-2.82l-.43-.14c-3.81-7.35-10-4.24-15.82-3.82-5.5.28-10.59-2.12-15.82-6.5.29,4.24,2.83,5.23,4.24,7.07,2.4,2.82,3.53.42,5.65,0s4.8,1.55,6.92,3c1.7,1.13.14,2.69-.56,4-4.8,8.05-13.14,10.87-21.33,13.7-2.82,1-2.54-1.84-3.25-3.39a180.09,180.09,0,0,0-10.45-20.06,7.7,7.7,0,0,0-2.26-1.55c3.39,9.74,6.36,19.21,13.7,26.55,2.54,2.54,4.94.14,7.34.43,1.7.28,3.68-2.26,5,0,1.13,1.69-.28,3.53-1.13,5.22-2,4-4.24,7.49-8.48,9.61-1.83,1-3.39,2.68-5.08,4.09-3.67,3-4.24,6.5-2.4,10.74,2.26,4.94,1.27,6.78-3.53,8.75-2,.71-3.25,1.27-3,4.24.57,5.37-9.6,10.74-16.1,9.18-5.93-1.41-8-7.06-11.87-10.87-2.11-2.12-3.38-4.95-5.36-7.35A6.64,6.64,0,0,1,58,532c1.83-4.66-1.42-8.48-3.53-12-1.84-2.82-3.39-5.08-1.84-8.61.85-1.84.42-3.68-2.26-4L49,507c-2.55-6.36-9.32-5.37-14.13-7.77-4.38-2.12-4.38-6.5-5.93-10-3.11-7.06-.85-14,1.41-20.76.85-2.4,2.4-4.8,4.66-5.79a28.68,28.68,0,0,0,8.76-6.08c4.38-4.23,9,.85,13.56.14,1.55-.28,3.25.85,4.8,1.13,2.69.57,3.53,2,2.12,4.24-1.69,2.69-1.41,4.24,2,4.66,1.41.14,1.55,2.12,2.4,3,1,1.13,2.26,2.54,3.67.7,1.84-2.68,3.53-1.69,5.37-.28,3.53,2.83,7.91,3.11,12.15,3.11,3.1,0,3.24-3.39,3.81-5.65s-1.41-1.84-2.83-2c-3.81-.28-7.48-1-7.34-6.07,0-1.7-1.41-1.7-2.54-1.13s-2.4.85-1,2.4a1.61,1.61,0,0,1-.42,2.83c-1.84,1-1.84-1-2.26-1.84-2.26-4-.71-9.32-5.09-12.57-1,2,0,3.67,1,5.37.71,1.27,2,2.54-.42,3.39-2.83,1-1.42-1.42-1.84-2.26-1.84-3.39-1.84-8.76-7.63-7.77-2.54.42-4.94,2.12-6.92,3.95-2.54,2.26-5.08,3-7.63,1-1.83-1.41-3.1-3.95-1-6.07s2.68-6.92,7.48-3.25c2.83,2.12,4.66-.85,4.24-2.54-1.27-4.81,1.41-4,4.09-3.68a8.54,8.54,0,0,0,2.83-1c-3.67-1.28-5.79-2.69-1.13-5.65,1.69-1.13.28-4.81,3.53-5.37,1,1.55-.71,2.12-1,3-1.27,4.81.28,6.5,5,5.51,1-.14,1.83-1.41,2.68-.56,3.95,3.53,7.2,2.4,11.3-.28,1.55-1,1.41-1.56,1.41-2.69.14-1.69-.85-3.53.42-5.22-3.38,1.13-3.38,4.8-6.21,6.35-2.26,1.27-2.68,2.54-4.38-1-2.54-5.79-3.11-5.51,3-8.19a24.71,24.71,0,0,0,2.54-1.55c6.36-4.52,12.71-6.78,19.35-.28,1.55,1.55,12.85-2.12,14.12-4,2.41-3.25,5.09-6.36,6.22-10.45l1.27-1.27c4,1.41,7.06-1,10.88-2.12a17.3,17.3,0,0,1-2.4-6.22c-.85-4.94-6.36-5.93-10.46-7.06-4.66-1.41-9.6-1.55-14.4-2-2.69-.28-5.65-.84-7.63,2.26-1.41,2.26-3.67.15-5.51,0-1.27,0-3.11-.56-3.53,1-.42,2.12,1.55,1.42,2.68,1.7,2.26.56,4,1.69,1.7,4.09-1,1-.71,1.42-.28,2.41,1,2.11-.57,3.38-2.26,3.53-2.83.14-5,1.83-7.49,2.82-5.37,2.12-10.59,4.94-16.53,2.26-3.53-1.55-6.21,2.26-11,1.13,9.46-9,21.18-9.6,31.64-13.28-1.84-2-4.24-1.83-6.92-.84-5.51,2-10.6,4.94-17,4.8-4-.14-7.49,3.67-10.31,6.5s-7.77,2.82-9.33,7.34a1.56,1.56,0,0,1-2.54.28c-.71-1-1.84-2.26-.28-3.53,7.34-6.07,13.84-13.42,24.15-14.12,2.26-.14,4.38-1.56,6.78-.71.28-1,4.52.28,1.55-3-1.13-1.28,1.13-2.12,2.41-2.41,24.43-6.63,48-5.79,70.19,7.77,2.4,1.42,4.81,3,7.07,4.52l.28,1.41c-2.26,1-3.53-1.69-5.51-1.55a10.86,10.86,0,0,0,10,8.05c3.67.28,5.36,3.25,7.06,5.65a10.31,10.31,0,0,0,2.4,3.11h-.14l1.13,1.13v-.14c3.25,2.54,2.68,7.06,4.8,10.17s3.11,2.26,4.1-.57v-.42c3.95,2.12,1.83,7.34,6.21,10.17-3.67.14-5.22-1.41-7.06-2.69-1.27-.84-2.68-3.67-4.24-1.13s2.12,1.7,2.26,2.26c1,4.52,5.65,6.5,7.21,10.6.7,2,1.13,4.09,3.1,5.51a2.18,2.18,0,0,1,.43,3.1c-2.26,3.68-3.68,7.35-2.83,11.73l-.14,1.41c-1.41,2.4-1.41,2.4.71,4.94,1.83,2.4,1.69,9.18-.29,11.44a1.6,1.6,0,0,1-1.69.57c-1.13-.28-2.12-3.11-3.39-.43-.71,1.56-.56,3.68,1,4.52,3.39,1.84,3.53,4.95,3.67,8,0,2.12,3.67,3,1.7,5.37,2.82.14,3.53-3.81,5.5-1.55ZM97.69,458.1c1-.71,3.24.56,3-1.56a5.25,5.25,0,0,0-4.38-4.38c-1.83-.28-3.81.85-4.94-1.69-.42-1-1.84-.14-2.54.42a6.09,6.09,0,0,0-2.4,5.09,1.26,1.26,0,0,0,1.69,1.27c3.39-1.13,6.5.14,9.61.85m-5.23-35.88-.85-.14-1.13.85c-.14.85.57.56.85.28Z" style="fill:#c5212a"/><path d="M106.73,551.74c-1.84-.28-3.39-1.69-2.83-3,1.27-3.1-1.55-7.9,3.81-9.18l.71-.56c1.55-1.41,3.53-4.24,5.37-3.11,2.54,1.7.42,4.52-.57,6.78s-2,4.24-2.82,6.36c-.71,1.83-2.26,2.12-3.67,2.68" style="fill:#c5212a"/><path d="M196,487.48c-.71,2.68-1.41,5.65-2.26,8.47-.56,1.55-1.84,3.25-3.67,2.68-1.56-.42-2-2.4-1.7-3.81,1.13-4.52,3.11-8.76,3.68-13.42a1.16,1.16,0,0,1,1.55-.85l1.27,1.42c.42,1.55.71,3.39,1.13,5.51" style="fill:#c5212a"/><path d="M195.85,476.46c-2.12-4.94-4-9-5.65-13.14a1.93,1.93,0,0,1,.28-2.26l1.7.43c1.13,4.66,6.07,8.33,3.67,15" style="fill:#c5212a"/><path d="M101.92,405.41c-2.26,2-3.67,3.53-5.93,2.4-.71-.28-.56-1.27-.14-1.83,1.41-2.12,3.39-1.27,6.07-.57" style="fill:#c5212a"/><path d="M73.67,412.48a2.48,2.48,0,0,1-2.54,2.4c-1.27.14-2.4-.43-2.4-1.84a2,2,0,0,1,1.7-2.12c1.69-.42,2.26,1.13,3.24,1.56" style="fill:#c5212a"/><path d="M173.67,418.83c-.7,0-1.27-.14-2-.14v.14a1,1,0,0,0-1.13-1.13h.14c.42-1-.28-3,1.27-2.68s1.41,2.4,1.69,3.81Z" style="fill:#4e5962"/><path d="M180.59,428v.43c-1.69-.57-1.83-2.12-2-3.54h0c2.12.15,2.4,1.42,2,3.11" style="fill:#4e5962"/><path d="M178.62,424.9c-.85-.14-1.56-.56-1.56-1.41l.71-.42c1,.14,1,1,.85,1.83Z" style="fill:#4e5962"/><polygon points="192.04 502.59 191.75 501.46 192.18 501.46 191.89 502.59 192.04 502.59" style="fill:#c5212a"/><path d="M175.65,420.81l.71.56c-.85.57-.57-.14-.71-.56Z" style="fill:#4e5962"/><path d="M175.65,420.81c-.7,0-1-.28-1-1h0c.71,0,1,.28,1,1Z" style="fill:#4e5962"/><path d="M173.67,418.83a.89.89,0,0,1,1,1h0c-.7,0-1.13-.28-1-1Z" style="fill:#4e5962"/><polyline points="254.32 407.53 254.32 541.43 256.44 541.43 256.44 407.53" style="fill:#bbbdbe"/></svg>