<svg width="174" height="50" viewBox="0 0 174 50" fill="none" xmlns="http://www.w3.org/2000/svg">
<path d="M62.0848 9.31599C59.5372 9.31599 57.4599 10.0607 55.9313 11.5893C54.4027 13.1179 53.658 15.1168 53.658 17.6644V19.7418H49.9737V24.6803H53.658V40.0054H59.3412V24.6803H64.0446V19.7418H59.3412V17.5077C59.3412 15.5871 60.7522 14.2937 62.7511 14.2937C63.1823 14.2937 63.6134 14.3329 64.0838 14.3721V9.43358C63.4958 9.35519 62.8295 9.31599 62.0848 9.31599Z" fill="black"/>
<path d="M71.6017 9.55116H65.8793V40.0054H71.6017V9.55116Z" fill="black"/>
<path d="M78.537 9.66875C75.6758 9.51197 73.912 13.5882 76.1069 15.5479C77.4003 16.8414 79.6736 16.8414 80.967 15.5479C81.6334 14.8816 81.9861 14.0585 81.9861 13.1179C81.9861 11.1973 80.4575 9.66875 78.537 9.66875ZM81.3982 19.7418H75.6758V40.0054H81.3982V19.7418Z" fill="black"/>
<path d="M94.1342 19.3498C91.273 19.3498 88.9214 20.3297 87.0792 22.2502C85.2763 24.1708 84.3748 26.7184 84.3748 29.8932C84.3748 33.0679 85.2763 35.6156 87.0792 37.5361C88.9214 39.4566 91.273 40.4365 94.1342 40.4365C96.6819 40.4365 98.5632 39.731 99.8567 38.2808V50H105.54V19.7418H100.17V21.8583C98.916 20.1729 96.9171 19.3498 94.1342 19.3498ZM95.0749 24.2491C97.9361 24.2491 99.8567 26.2481 99.8567 29.4228V30.3635C99.8567 33.5383 97.9361 35.5372 95.0749 35.5372C92.1353 35.5372 90.1756 33.4599 90.1756 29.8932C90.1756 26.3265 92.1353 24.2491 95.0749 24.2491Z" fill="black"/>
<path d="M121.028 19.3498C118.284 19.3498 116.285 20.1729 115.031 21.8583V19.7418H109.622V50H115.345V38.2808C116.638 39.731 118.559 40.4365 121.028 40.4365C123.928 40.4365 126.28 39.4566 128.083 37.5361C129.925 35.6156 130.826 33.0679 130.826 29.8932C130.826 26.7184 129.925 24.1708 128.083 22.2502C126.28 20.3297 123.928 19.3498 121.028 19.3498ZM120.126 24.2491C123.066 24.2491 125.026 26.3265 125.026 29.8932C125.026 33.4599 123.066 35.5372 120.126 35.5372C117.265 35.5372 115.345 33.5383 115.345 30.3635V29.4228C115.345 26.2481 117.265 24.2491 120.126 24.2491Z" fill="black"/>
<path d="M141.689 19.3498C139.22 19.3498 137.182 20.0945 135.575 21.5839C134.007 23.0341 133.223 24.7195 133.223 26.6008L138.946 26.836C138.946 25.3858 139.926 24.1708 141.768 24.1708C143.532 24.1708 144.394 25.229 144.394 27.3063V28.0902L140.788 28.2862C135.379 28.5214 132.675 30.5595 132.675 34.4397C132.675 38.32 135.222 40.4365 139.416 40.4365C141.533 40.4365 143.257 39.731 144.59 38.3592V40.0054H150.116V27.5023C150.116 22.1718 147.177 19.3498 141.689 19.3498ZM144.394 32.7152C144.394 34.7925 142.904 36.0075 140.749 36.0075C139.181 36.0075 138.397 35.3804 138.397 34.1654C138.397 32.8328 139.377 32.1273 141.337 32.0489L144.394 31.8529V32.7152Z" fill="black"/>
<path d="M173.075 19.7418H166.725L162.1 31.8137L157.436 19.7418H151.126L159.043 38.2024L153.869 50H160.101L173.075 19.7418Z" fill="black"/>
<path fill-rule="evenodd" clip-rule="evenodd" d="M0 3.96647C0 1.2438 2.0728 -0.479091 4.63006 0.118361L32.4458 6.61694C35.0029 7.21436 37.0759 9.15827 37.0759 10.9635V38.4029C37.0759 40.206 35.0031 42.152 32.4458 42.7495L4.63006 49.248C2.07295 49.8455 0 48.1258 0 45.3999V3.96647ZM7.87863 14.0328C7.87863 11.8344 9.68434 10.3119 11.9074 10.6315L23.9976 12.3697C26.2227 12.6896 28.0264 14.3659 28.0264 16.1148C28.0264 17.8632 26.2207 19.167 23.9976 19.0271L11.9074 18.2667C9.68238 18.1267 7.87863 16.2316 7.87863 14.0328ZM7.66421 24.6832C7.66421 22.4077 9.53332 20.6385 11.8344 20.7316L24.3491 21.2376C26.6523 21.3308 28.5194 22.873 28.5194 24.6832C28.5194 26.493 26.6503 28.0357 24.3491 28.1288L11.8344 28.6348C9.53128 28.728 7.66421 26.9593 7.66421 24.6832ZM12.5131 39.5406C15.0727 39.1496 17.1476 36.9695 17.1476 34.6711C17.1476 32.3727 15.0727 30.64 12.5131 30.801C9.95356 30.962 7.87863 33.1421 7.87863 35.6705C7.87863 38.1989 9.95356 39.9316 12.5131 39.5406Z" fill="url(#paint0_linear)"/>
<defs>
<linearGradient id="paint0_linear" x1="-32.7469" y1="-27.3278" x2="-33.9316" y2="111.019" gradientUnits="userSpaceOnUse">
<stop stop-color="#1400FF"/>
<stop offset="1" stop-color="#FC199B"/>
</linearGradient>
</defs>
</svg>
