<svg width="214" height="22" viewBox="0 0 214 22" fill="none" xmlns="http://www.w3.org/2000/svg">
<path d="M27.5277 17.8176C27.3392 18.1004 26.8678 18.1947 26.585 17.9119C26.3022 17.7233 26.2079 17.252 26.4907 16.9692C26.585 16.7806 26.7736 16.6863 27.0564 16.6863C27.2449 16.6863 27.4335 16.5921 27.5277 16.4978L28.8476 14.8009C28.9418 14.7066 28.9418 14.6123 28.9418 14.5181V13.7639C28.9418 13.4811 28.7533 13.1982 28.4705 13.1982C28.2819 13.1982 28.0934 13.2925 27.9991 13.4811L27.7163 13.7639C27.622 13.8582 27.622 14.0467 27.622 14.2352C27.7163 14.4238 27.622 14.6123 27.5277 14.8009C27.3392 15.0837 26.8678 15.178 26.585 14.8952C26.3022 14.7066 26.2079 14.2352 26.4907 13.9524C26.585 13.7639 26.7736 13.6696 27.0564 13.6696C27.2449 13.6696 27.4335 13.5753 27.5277 13.4811L28.9418 11.6899C29.0361 11.5956 29.0361 11.5013 29.0361 11.407V0.471366C29.0361 0.188546 28.8476 0 28.5647 0H5.27928C2.63963 0 0.471348 2.16828 0.471348 4.9022V11.03C0.471348 11.1242 0.471348 11.2185 0.565621 11.3128L3.111 14.6123C3.20527 14.7066 3.39382 14.8009 3.58236 14.8009C3.77091 14.8009 3.95945 14.8952 4.148 15.0837C4.33655 15.3665 4.33655 15.8379 4.05373 16.0264C3.77091 16.215 3.29954 16.215 3.111 15.9322C2.82818 15.8379 2.82818 15.5551 2.82818 15.3665C2.92245 15.178 2.82818 14.9894 2.7339 14.8952L1.31981 13.0097C1.13126 12.7269 0.848441 12.7269 0.659895 12.8211C0.471348 12.9154 0.377075 13.104 0.377075 13.2925V15.178C0.377075 15.2722 0.377075 15.3665 0.471348 15.4608L1.60263 16.9692C1.6969 17.0634 1.88545 17.1577 2.07399 17.1577C2.26254 17.1577 2.45108 17.252 2.63963 17.4405C2.82818 17.7233 2.82818 18.1947 2.54536 18.3833C2.26254 18.5718 1.79117 18.5718 1.60263 18.289C1.50835 18.1004 1.41408 17.9119 1.50835 17.7233C1.60263 17.5348 1.50835 17.3463 1.41408 17.252L1.31981 17.1577C1.13126 16.8749 0.848441 16.8749 0.659895 16.9692C0.471348 17.0634 0.377075 17.252 0.377075 17.4405V21.3057C0.377075 21.5885 0.565621 21.8714 0.848441 21.8714C1.03699 21.8714 1.22553 21.7771 1.31981 21.5885L8.57884 12.3498C8.76738 12.1612 9.0502 12.067 9.33302 12.2555L9.4273 12.3498L14.518 18.8546C14.7066 19.0432 14.9894 19.0432 15.2722 18.8546C15.4608 18.6661 15.4608 18.4775 15.3665 18.289L12.5383 12.7269C12.444 12.5383 12.444 12.3498 12.6326 12.1612L16.215 7.54185C16.4035 7.3533 16.6863 7.25903 16.9691 7.44758L17.0634 7.54185L28.0934 21.6828C28.2819 21.9656 28.5647 21.9656 28.7533 21.8714C28.9418 21.7771 29.0361 21.5885 29.0361 21.4V16.7806C29.0361 16.4978 28.8476 16.215 28.5647 16.215C28.3762 16.215 28.1876 16.3092 28.0934 16.4978L27.9048 16.7806C27.8106 16.8749 27.8106 17.0634 27.8106 17.252C27.7163 17.4405 27.7163 17.7233 27.5277 17.8176Z" fill="url(#paint0_linear)"/>
<path d="M39.0291 15.7435L39.7833 14.3294C39.8775 14.1409 40.1604 14.1409 40.3489 14.2352C41.0088 14.7065 41.8573 15.0836 42.7057 15.1779C43.2714 15.2722 43.837 14.8008 43.837 14.2352V14.1409C43.837 13.481 43.2714 12.9154 42.1401 12.444C40.726 11.8783 38.9348 10.7471 38.9348 8.76733C38.9348 7.07042 40.2546 5.46777 42.8 5.46777C44.1198 5.46777 45.3454 5.93914 46.3824 6.69332C46.5709 6.7876 46.5709 7.07042 46.4767 7.25896L45.6282 8.57879C45.5339 8.76733 45.2511 8.86161 45.0626 8.76733C44.4027 8.20169 43.5542 7.91887 42.7057 7.73033C42.2344 7.63606 41.763 8.01315 41.6687 8.57879C41.6687 9.2387 42.1401 9.71006 43.4599 10.1814C44.7797 10.6528 46.8538 11.6898 46.8538 13.9524C46.7595 16.0264 44.9683 17.5347 42.9886 17.4405H42.8943C41.4802 17.5347 40.1604 17.0634 39.1234 16.1206C38.9348 16.0264 38.9348 16.0264 39.0291 15.7435Z" fill="#000001"/>
<path d="M56.941 5.93907C56.941 5.75052 57.1295 5.65625 57.2238 5.65625H59.2978C59.4863 5.65625 59.5806 5.8448 59.5806 5.93907V12.7267C59.5806 13.858 60.5233 14.8007 61.6546 14.8007C62.7859 14.8007 63.7286 13.858 63.7286 12.7267V5.93907C63.7286 5.75052 63.9172 5.65625 64.1057 5.65625H66.1797C66.3683 5.65625 66.4625 5.8448 66.4625 5.93907V12.821C66.4625 15.4607 64.2943 17.6289 61.6546 17.6289C59.015 17.6289 56.8467 15.4607 56.8467 12.821L56.941 5.93907Z" fill="#000001"/>
<path d="M78.5295 5.75059C78.5295 5.56205 78.7181 5.46777 78.8123 5.46777H79.0951C79.1894 5.46777 79.2837 5.56205 79.378 5.65632L83.2432 12.9154L87.1084 5.65632C87.2026 5.56205 87.2969 5.46777 87.3912 5.46777H87.674C87.8625 5.46777 87.9568 5.56205 87.9568 5.75059L89.8423 16.9691C89.8423 17.1576 89.748 17.2519 89.6537 17.3462H89.5595H87.5797C87.3912 17.3462 87.2969 17.2519 87.2969 17.0634L86.5427 11.8783L83.7145 17.3462C83.6203 17.4405 83.526 17.5347 83.4317 17.5347H83.1489C83.0546 17.5347 82.9603 17.4405 82.8661 17.3462L80.0379 11.8783L79.1894 17.0634C79.1894 17.2519 79.0951 17.3462 78.9066 17.3462H76.9269C76.7383 17.3462 76.644 17.2519 76.644 17.0634V16.9691L78.5295 5.75059Z" fill="#000001"/>
<path d="M101.344 5.75059C101.344 5.56205 101.532 5.46777 101.626 5.46777H101.909C102.004 5.46777 102.098 5.56205 102.192 5.65632L106.057 12.9154L110.017 5.65632C110.111 5.56205 110.205 5.46777 110.3 5.46777H110.582C110.771 5.46777 110.865 5.56205 110.865 5.75059L112.751 16.9691C112.751 17.1576 112.656 17.2519 112.562 17.3462H112.468H110.488C110.3 17.3462 110.205 17.2519 110.205 17.0634L109.451 11.8783L106.623 17.3462C106.529 17.4405 106.434 17.5347 106.34 17.5347H106.057C105.963 17.5347 105.869 17.4405 105.774 17.3462L102.946 11.8783L102.192 17.0634C102.192 17.2519 102.004 17.3462 101.909 17.3462H99.9295C99.741 17.3462 99.6467 17.2519 99.6467 17.0634V16.9691L101.344 5.75059Z" fill="#000001"/>
<path d="M123.121 5.93907C123.121 5.75052 123.309 5.65625 123.403 5.65625H125.383C125.572 5.65625 125.666 5.8448 125.666 5.93907V16.969C125.666 17.1576 125.477 17.2518 125.383 17.2518H123.403C123.215 17.2518 123.121 17.0633 123.121 16.969V5.93907Z" fill="#000001"/>
<path d="M138.299 8.10735H135.942C135.753 8.10735 135.659 7.91881 135.659 7.82453V5.93907C135.659 5.75052 135.847 5.65625 135.942 5.65625H143.389C143.578 5.65625 143.672 5.8448 143.672 5.93907V7.73026C143.672 7.9188 143.484 8.01308 143.389 8.01308H141.033V16.969C141.033 17.1576 140.844 17.2518 140.75 17.2518H138.77C138.581 17.2518 138.487 17.0633 138.487 16.969L138.299 8.10735Z" fill="#000001"/>
<path d="M153.571 5.93907C153.571 5.75052 153.759 5.65625 153.854 5.65625H160.83C161.018 5.65625 161.113 5.8448 161.113 5.93907V7.73026C161.113 7.9188 160.924 8.01308 160.83 8.01308H156.21V10.0871H159.981C160.17 10.0871 160.264 10.2756 160.264 10.3699V12.1611C160.264 12.3496 160.076 12.4439 159.981 12.4439H156.21V14.7065H160.83C161.018 14.7065 161.113 14.895 161.113 14.9893V16.7805C161.113 16.969 160.924 17.0633 160.83 17.0633H153.854C153.665 17.0633 153.571 16.8748 153.571 16.7805V5.93907Z" fill="#000001"/>
<path d="M176.762 5.46777C178.271 5.46777 179.685 5.93914 180.816 7.07042C180.91 7.16469 181.004 7.35324 180.816 7.54178L179.496 8.86161C179.402 8.95588 179.213 8.95588 179.119 8.86161C178.459 8.29597 177.705 8.01315 176.856 8.01315C174.971 8.01315 173.463 9.52152 173.463 11.407C173.463 13.2924 174.971 14.8008 176.856 14.8008C177.705 14.8008 178.459 14.518 179.119 14.0466C179.213 13.9524 179.402 13.9524 179.59 14.0466L180.91 15.4607C181.004 15.555 181.004 15.7435 180.91 15.9321C179.779 16.9691 178.365 17.5347 176.856 17.5347C173.557 17.5347 170.823 14.8008 170.823 11.5013C170.823 8.20169 173.463 5.46777 176.762 5.46777Z" fill="#000001"/>
<path d="M191.092 5.93907C191.092 5.75052 191.28 5.65625 191.374 5.65625H193.354C193.543 5.65625 193.637 5.8448 193.637 5.93907V10.1814H198.445V5.93907C198.445 5.75052 198.633 5.65625 198.728 5.65625H200.707C200.896 5.65625 200.99 5.8448 200.99 5.93907V16.969C200.99 17.1576 200.802 17.2518 200.707 17.2518H198.728C198.539 17.2518 198.445 17.0633 198.445 16.969V12.5382H193.637V16.969C193.637 17.1576 193.448 17.2518 193.354 17.2518H191.374C191.186 17.2518 191.092 17.0633 191.092 16.969V5.93907Z" fill="#000001"/>
<path fill-rule="evenodd" clip-rule="evenodd" d="M207.212 4.05372C207.118 5.84491 208.627 7.35328 210.418 7.35328C212.303 7.35328 213.717 5.84491 213.717 4.14799C213.717 2.3568 212.303 0.848432 210.512 0.848432C208.721 0.754158 207.212 2.26253 207.212 4.05372ZM207.495 4.05372C207.495 2.45107 208.815 1.13125 210.418 1.13125C212.02 1.13125 213.34 2.45107 213.34 4.05372C213.34 5.65636 212.02 6.97618 210.418 6.97618C208.815 6.97618 207.495 5.65636 207.495 4.05372Z" fill="white"/>
<path d="M210.983 5.18478C210.795 5.27905 210.606 5.27905 210.418 5.27905C209.852 5.27905 209.475 4.90196 209.381 4.43059V4.33632C209.381 3.77068 209.758 3.29932 210.323 3.29932H210.418C210.606 3.29932 210.795 3.29932 210.889 3.39359L210.795 3.67641C210.7 3.58214 210.512 3.58214 210.418 3.58214C210.041 3.58214 209.758 3.86496 209.663 4.24205V4.33632C209.663 4.71341 209.946 4.99623 210.229 5.09051H210.323C210.512 5.09051 210.606 5.09051 210.795 4.99623L210.983 5.18478Z" fill="white"/>
<defs>
<linearGradient id="paint0_linear" x1="0.423269" y1="21.8727" x2="28.8749" y2="21.8727" gradientUnits="userSpaceOnUse">
<stop stop-color="#673090"/>
<stop offset="1" stop-color="#922A8E"/>
</linearGradient>
</defs>
</svg>
