<svg width="2926" height="553" fill="none" xmlns="http://www.w3.org/2000/svg"><path d="M375 235c71-58 216-267-11-230-99 15-244 111-273 222-15-30-32-58-50-86-28-38-59-8-29 30a640 640 0 0 1 146 381c7-67-4-149-31-229 13 4 28 6 41 6 46 76 117 141 196 171 73 29 170 12 130-105-21-64-70-120-119-160zm10-203c126-14-9 143-53 172-41-27-93-51-143-44 36-47 124-119 196-128zM188 194c34-3 71 16 100 36-28 14-58 22-89 25-46 0-56-57-11-61zm174 244c-59-17-115-65-155-113 33-7 66-20 96-38 11-5 22-13 32-20 35 32 72 75 86 124 14 53-24 57-59 47z" fill="#F5A623"/><path d="M858 103H686c-6 0-11 5-11 11h-1v270c0 6 5 11 11 11 5 0 10-5 11-11V262h146c6 0 9-5 9-10 0-6-4-9-9-9H695V124h163c6 0 9-5 9-10 0-3-3-7-9-11zm79-14h-1c-5 0-8 4-8 9v285c0 6 4 10 9 10 6 0 9-5 9-10V100c0-7-3-11-9-11zm249 102c0-6-4-10-9-10-6 0-9 5-9 10v119c0 40-31 72-69 71-40 0-63-28-63-72V191c0-6-4-10-9-10-4 0-9 5-9 10v121c0 50 30 87 79 87 30 1 58-16 72-44v31c0 6 5 9 9 9 6 0 9-5 9-9h-1V191zm165 10c4 0 9-4 9-9 0-4-5-9-9-9h-63v-59c0-5-5-10-9-10h-1c-5 0-8 5-8 10v59h-22c-5 0-9 3-9 8s4 10 9 10h22v138c0 39 25 58 54 58 10 0 20-2 29-5 3-2 6-5 6-9 0-5-4-8-8-8-7 2-15 3-23 3-24 0-40-11-40-41V201h63zm155 0c5 0 9-4 9-9 0-4-4-9-9-9h-63v-59c0-5-4-10-9-10h-1c-5 0-8 5-8 10v59h-22c-4 0-9 3-9 8s5 10 9 10h22v138c0 39 25 58 55 58 9 0 19-2 28-5 4-2 6-5 6-9 0-5-3-8-8-8-7 2-15 3-23 3-24 0-40-11-40-41V201h63zm137-24c-53 0-93 48-93 111v1c0 67 44 111 97 111 28 1 57-11 76-34 3-2 4-5 4-7 0-5-5-10-9-10l-6 2a86 86 0 0 1-64 30c-39 0-74-31-78-83h156c4 0 9-5 9-10 0-63-36-111-92-111zm-74 101c3-46 34-82 73-82 45 0 69 39 71 82h-144zm319-98c-36 3-66 28-79 64v-52c0-4-5-9-9-9-6 0-9 3-10 9v196c0 5 4 10 9 10s9-4 10-10v-78c0-69 37-102 79-107h1c6 0 9-6 9-11 0-7-4-12-10-12z" fill="#000"/><path d="M2225 169c-13 0-25 10-28 24l-34 114-33-114c-3-14-16-25-31-25h-3c-15 0-28 9-31 25l-33 112-32-113c-4-13-15-24-29-24h-1c-15 0-26 13-26 29l2 15 51 157c4 16 17 27 33 28h2c15 0 27-11 32-27l33-112 33 112c4 16 17 27 32 27h3c16 0 29-11 33-28l51-159 3-12v-1c0-16-12-28-27-28zm147 0c-23-1-45 4-67 11-9 4-14 13-14 24 0 15 11 26 25 25 2 0 5 0 8-2 13-4 27-6 41-6 30 0 45 14 45 41v3c-16-6-34-8-51-8-49 0-83 23-83 72 0 43 33 68 71 68 24 1 47-10 63-28 1 16 13 27 28 27 16 0 29-14 29-31V265c1-25-7-51-23-70-17-16-40-26-72-26zm39 145c0 24-20 39-47 38-19 0-32-10-32-27v-1c0-19 16-31 41-31 12 0 26 4 38 9v12zm259-146c-12 0-24 8-27 22l-46 129-44-128c-4-14-15-23-29-23-15 0-27 12-29 29 0 5 2 10 4 15l64 157c4 16 17 27 33 28h4c14-1 28-11 34-27l62-157 3-15v-1c0-16-12-29-29-29zm155-1c-61 0-103 52-103 115v10c2 61 52 108 109 105 26 0 51-9 72-27 6-5 8-11 8-18v-1c0-14-10-25-23-25-5 0-10 1-14 5a62 62 0 0 1-42 15c-25 1-47-17-50-44h117c15-1 27-15 26-31v-5c0-54-45-101-100-99zm-45 98c5-29 21-47 45-47s40 19 43 47h-88z" fill="#000" stroke="#000"/></svg>