<svg id="Layer_1" data-name="Layer 1" xmlns="http://www.w3.org/2000/svg" xmlns:xlink="http://www.w3.org/1999/xlink" viewBox="0 0 693.7 407"><defs><style>.cls-1{fill:none;}.cls-2{fill:#56bd82;}.cls-3{clip-path:url(#clip-path);}</style><clipPath id="clip-path" transform="translate(0 0)"><rect class="cls-1" width="693.7" height="407"/></clipPath></defs><title>bolt_logo</title><polygon class="cls-2" points="557.6 0 485.6 15.3 485.6 306 557.6 306 557.6 0"/><g class="cls-3"><path class="cls-2" d="M352.6,86.9A111.1,111.1,0,1,0,463.7,198,111.11,111.11,0,0,0,352.6,86.9m0,147.1a36,36,0,1,1,36-36,36,36,0,0,1-36,36" transform="translate(0 0)"/><path class="cls-2" d="M352.6,335a36,36,0,1,1-36,36,36,36,0,0,1,36-36" transform="translate(0 0)"/><path class="cls-2" d="M192.4,144.2A94.53,94.53,0,0,0,112,0H0V306H126a94.54,94.54,0,0,0,66.4-161.8M72.1,72h40a22.5,22.5,0,0,1,0,45h-40Zm54,162h-54V189h54a22.5,22.5,0,1,1,0,45" transform="translate(0 0)"/><path class="cls-2" d="M693.6,163V91h-36V36l-72,15.3V237.6c0,43.9,27.3,69.2,67.5,71.3.4,0,.9.1,1.3.1h.7c.9,0,1.7.1,2.6.1h.9a74.23,74.23,0,0,0,35.1-9v-53a60.12,60.12,0,0,1-16.1,2.1c-14.4,0-19.9-12.6-19.9-29.7V163Z" transform="translate(0 0)"/></g></svg>