<svg width="465" height="465" viewBox="0 0 465 465" fill="none" xmlns="http://www.w3.org/2000/svg">
<path fill-rule="evenodd" clip-rule="evenodd" d="M50 0C22.3858 0 0 22.3858 0 50V415C0 442.614 22.3858 465 50 465H415C442.614 465 465 442.614 465 415V50C465 22.3858 442.614 0 415 0H50ZM56.75 432.333L204.667 284V410.667C204.667 415.389 206.267 419.344 209.467 422.533C212.656 425.733 216.611 427.333 221.333 427.333C226.056 427.333 230.011 425.733 233.2 422.533C236.4 419.344 238 415.389 238 410.667V244C238 239.278 236.4 235.317 233.2 232.117C230.011 228.928 226.056 227.333 221.333 227.333H54.6667C49.9444 227.333 45.9833 228.928 42.7833 232.117C39.5944 235.317 38 239.278 38 244C38 248.722 39.5944 252.683 42.7833 255.883C45.9833 259.072 49.9444 260.667 54.6667 260.667H181.333L33 408.583C29.6667 411.917 28 415.872 28 420.45C28 425.039 29.6667 429 33 432.333C36.3333 435.667 40.2889 437.333 44.8667 437.333C49.4556 437.333 53.4167 435.667 56.75 432.333Z" fill="#2A2AB3"/>
</svg>
