<svg xmlns="http://www.w3.org/2000/svg" viewBox="0 0 3163 923" style="enable-background:new 0 0 3163 923" xml:space="preserve"><path d="M319.24 147.48c-55.64 11.04-106.7 37.44-147.83 76.5-26.88 25.59-43.54 47.67-59.4 78.38-24.46 47.41-33.6 85.65-33.6 139.79 0 54.14 9.14 92.39 33.6 139.79 15.86 30.71 32.52 52.79 59.4 78.38 56.17 53.6 124.98 80.81 204 80.81 52.68 0 92.19-9.16 135.73-30.98 21.77-11.04 51.07-29.9 51.07-33.13 0-1.08-16.4-18.32-36.28-38.25l-36.29-36.36-16.13 8.89c-30.1 16.7-51.87 22.63-87.62 23.97-27.14 1.08-36.01.54-55.1-4.31-87.89-22.09-147.56-98.31-147.56-188.81 0-108.28 85.47-193.93 193.52-193.93 142.18 0 234.91 145.99 176.05 276.89l-7.53 16.97 36.02 36.36c19.62 19.93 37.09 36.09 38.7 36.09 5.91 0 30.1-45.25 40.59-76.23 10.21-29.9 14.51-58.99 14.51-96.16 0-54.14-9.14-92.39-33.6-139.79-15.86-30.71-32.52-52.79-59.4-78.38-41.66-39.86-92.72-65.99-149.71-76.76-26.33-5.12-87.61-4.85-113.14.27zM1387.32 424.64v197.97h72.57V226.67h-72.57v197.97zM2509.19 230.71c-100.25 21.82-171.75 120.13-159.65 218.71 6.18 49.02 23.65 84.31 58.86 119.32 33.6 33.13 62.89 49.02 107.78 58.18 49.19 9.97 110.47-2.96 151.33-31.78l7.51-5.39 14.78 13.2c27.14 23.43 23.93 23.16 40.59 4.85 26.6-29.36 26.33-26.66 5.91-45.25l-17.75-15.89 11.57-20.47c45.67-80.27 32.53-174.54-33.87-240.26-29.29-29.36-61.82-46.87-101.6-55.22-22.28-4.85-63.69-4.85-85.46 0zm79.29 68.41c53.76 16.7 94.33 72.72 94.33 130.1 0 16.43-6.45 42.29-14.24 57.64l-5.91 11.31-26.62-23.16-26.6-23.16-11.82 13.2c-6.72 7.54-15.6 17.78-19.9 23.43l-7.79 9.7 25.81 22.36 25.51 22.35-12.09 6.2c-16.39 8.35-40.05 14.28-56.71 14.28-69.07 0-130.36-64.65-130.36-137.1 0-15.89 6.18-40.67 14.79-58.18 8.06-16.43 29.83-41.75 46.23-53.06 29.58-20.22 71.23-26.41 105.37-15.91zM769.15 265.72v33.67h123.64v323.22h75.26V299.39h123.64v-67.34H769.15v33.67zM2811.82 427.33v195.28h271.48v-64.64h-198.91V232.06h-72.57v195.27zM2172.14 288.62v40.4h-43v59.26H2171.87l.81 92.12.81 92.39 7.26 13.47c15.59 29.63 38.97 43.1 74.72 43.1 20.69 0 24.73-.81 41.12-8.89 10.21-5.12 19.08-10.77 19.89-12.93.81-2.16-1.34-10.24-4.57-18.05-3.49-7.54-7.79-17.78-9.67-22.63l-3.49-8.35-10.22 5.12c-11.82 6.2-22.58 6.46-32.79 1.35-13.98-7.54-14.78-12.39-15.86-98.04l-.81-78.65h67.47v-59.26h-67.2v-80.8h-67.2v40.39zM1197.84 322.82c-16.66 1.35-41.66 5.93-56.44 10.77-11.56 3.5-43.54 16.43-46.77 18.85-1.35.81 21.5 51.98 23.11 51.98.54 0 5.37-2.15 11.02-5.12 43-21.82 95.68-22.35 119.87-.81 7.8 7 17.74 30.17 17.74 42.02 0 9.43-.54 10.23-5.91 8.62-38.44-10.77-82.78-13.74-109.66-7.27-33.06 8.08-61.28 29.63-74.45 56.56-6.45 12.93-7.53 18.32-7.53 37.98 0 19.12 1.07 25.32 6.99 37.71 13.98 29.09 40.59 47.95 76.6 54.14 35.48 6.2 70.42-1.62 98.91-22.09l15.05-10.77v27.21h69.88v-98.58c0-104.78-1.07-117.17-13.97-142.22-7.53-14.81-30.91-37.44-46.77-45.52-20.15-9.96-52.13-15.61-77.67-13.46zm32.25 167.81c10.48 1.62 22.84 4.04 27.68 5.65 8.6 2.69 8.6 2.96 8.6 20.2 0 19.93-3.77 29.09-17.2 40.67-30.1 26.67-87.08 25.59-105.63-1.88-10.75-15.62-7.53-38.52 7.26-50.64 18.82-15.35 41.13-19.39 79.29-14zM1630.57 323.64c-33.06 3.77-62.89 18.05-86.01 41.48-20.43 20.47-32.25 40.94-38.97 67.87-22.85 89.69 27.15 174.27 114.77 193.93 46.5 10.24 109.66-4.31 143.53-33.4l11.02-9.43-20.96-21.01-20.7-21.01-6.99 4.85c-11.02 7.81-32.79 18.05-46.5 21.82-16.4 4.31-49.19 2.43-61.55-3.77-22.04-10.5-41.12-34.48-47.04-58.99l-1.61-7.27h226.31l-1.07-10.23c-.81-5.39-2.15-18.32-2.96-28.28-4.3-51.18-35.21-103.43-72.84-122.56-23.65-12.12-57.79-17.51-88.43-14zm44.62 60.6c22.85 8.08 38.7 26.13 47.04 53.87l3.5 12.12h-77.68c-43 0-77.94-.54-77.94-1.08 0-4.85 9.41-25.59 15.86-34.75 19.07-28.01 58.04-41.2 89.22-30.16zM1972.72 323.9c-19.62 2.96-41.12 12.93-56.98 26.94l-12.36 11.04v-32.86h-72.56v293.6H1903.11l.81-96.16c.81-94 1.08-96.7 6.72-107.74 11.29-20.74 34.94-33.94 61.28-33.94 24.19-.27 41.93 10.51 53.22 31.78 5.64 10.51 5.91 14.28 6.72 108.28l.81 97.78h69.62V519.45c0-77.03-1.07-106.39-3.76-116.36-14.81-56.56-65.34-88.08-125.81-79.19z"/><circle cx="377.21" cy="443.43" r="121.04"/></svg>