<svg width="1500" height="750" fill="none" xmlns="http://www.w3.org/2000/svg"><g clip-path="url(#a)"><path d="M545.992 483.648h-35.044V266.399h35.044v217.249ZM720.398 390.29v93.358h-32.465v-82.667c0-24.967-12.867-38.928-34.605-38.928-20.92 0-38.473 13.804-38.473 39.242v82.353h-32.56V335.074h32.276v18.143c11.923-17.514 30.389-22.011 45.584-22.011 35.391 0 60.243 24.338 60.243 59.084ZM867.717 353.06v-92.729h32.434v223.254h-32.434v-17.766c-10.224 13.175-25.575 21.697-46.684 21.697-41.588 0-74.305-32.734-74.305-78.171 0-45.437 32.717-78.139 74.337-78.139 21.077 0 36.428 8.679 46.652 21.854Zm-87.548 56.285c0 26.068 16.893 47.607 44.828 47.607 26.834 0 44.828-20.47 44.828-47.607 0-27.136-17.994-47.606-44.828-47.606-28.03 0-44.828 21.571-44.828 47.606ZM971.499 283.757a22.441 22.441 0 0 1-6.688 16.179 22.463 22.463 0 0 1-16.277 6.461 22.207 22.207 0 0 1-22.65-22.64 22.458 22.458 0 0 1 6.464-16.269 22.463 22.463 0 0 1 16.186-6.685 22.71 22.71 0 0 1 16.314 6.648 22.693 22.693 0 0 1 6.651 16.306Zm-6.512 199.892h-32.591V335.075h32.591v148.574ZM1126.46 354.915l-20.79 22.2c-10.38-9.779-21.39-15.377-35.67-15.377-24.98 0-44.05 19.559-44.05 47.607s18.88 47.607 44.05 47.607a54.145 54.145 0 0 0 36.46-15.502l20 22.325c-13.49 15.722-33.34 23.74-55.52 23.74-47.19 0-78.207-33.645-78.207-78.17s30.897-78.139 78.207-78.139c22.18 0 42.34 8.05 55.52 23.709ZM1183.25 283.757a22.54 22.54 0 0 1-6.69 16.179 22.432 22.432 0 0 1-7.49 4.882 22.41 22.41 0 0 1-8.79 1.579 22.208 22.208 0 0 1-16.16-6.487 22.192 22.192 0 0 1-4.9-7.413 22.336 22.336 0 0 1-1.59-8.74 22.423 22.423 0 0 1 6.45-16.279 22.527 22.527 0 0 1 7.42-4.983 22.482 22.482 0 0 1 8.78-1.692 22.698 22.698 0 0 1 16.31 6.648 22.827 22.827 0 0 1 4.98 7.483 22.8 22.8 0 0 1 1.68 8.823Zm-6.55 199.892h-32.56V335.075h32.56v148.574ZM1347.21 390.29v93.358h-32.59v-82.667c0-24.967-12.87-38.928-34.61-38.928-20.95 0-38.47 13.804-38.47 39.242v82.353h-32.56V335.074h32.27v18.143c11.93-17.514 30.39-22.011 45.62-22.011 35.36 0 60.34 24.338 60.34 59.084ZM1500 395.101v88.547h-32.59v-16.76a63.383 63.383 0 0 1-48.23 20.628c-33.37 0-52-20.785-52-48.393s23.75-44.965 59.27-44.965h40.9c-1.64-21.382-13.97-33.426-38.1-33.426a69.732 69.732 0 0 0-40.9 14.874l-13.33-25.565a96.028 96.028 0 0 1 58.48-18.866c42.91.031 66.5 24.369 66.5 63.926Zm-32.59 42.638v-18.866h-36.3c-22.34 0-29.01 10.691-29.01 20.313 0 9.622 6.83 20.156 23.75 20.156 13.81-.063 29.64-7.17 41.56-21.603ZM316.377 393.937 173.021 537.134a18.504 18.504 0 0 0-5.42 13.081 18.49 18.49 0 0 0 5.42 13.081 18.514 18.514 0 0 0 26.174 0l143.198-143.04a18.497 18.497 0 0 0-13.086-31.58 18.513 18.513 0 0 0-13.087 5.418l.157-.157ZM339.342 287.215 145.149 481.226a18.519 18.519 0 0 0 13.205 31.174 18.532 18.532 0 0 0 12.969-4.981l194.192-193.854a18.512 18.512 0 0 0-.418-25.744 18.533 18.533 0 0 0-25.755-.449v-.157ZM71.096 356.361l143.262-143.417a18.518 18.518 0 0 0-13.243-31.158 18.532 18.532 0 0 0-12.962 4.996L45.017 330.105a18.516 18.516 0 0 0 .449 25.744 18.533 18.533 0 0 0 25.756.418l-.126.094ZM48.194 463.083 242.23 268.978a18.484 18.484 0 0 0 5.564-13.122 18.485 18.485 0 0 0-11.479-17.204 18.508 18.508 0 0 0-20.259 4.195L22.021 436.921a18.528 18.528 0 0 0-5.865 13.222 18.516 18.516 0 0 0 11.59 17.474 18.544 18.544 0 0 0 14.467-.252 18.532 18.532 0 0 0 6.013-4.282h-.032ZM106.204 488.804a18.518 18.518 0 0 0-12.985-32.039 18.53 18.53 0 0 0-13.22 5.877l-23.374 23.364a18.514 18.514 0 0 0 .45 25.743 18.534 18.534 0 0 0 25.755.418l23.374-23.363ZM304.675 238.099l-23.374 23.363a18.495 18.495 0 0 0 0 26.162 18.513 18.513 0 0 0 26.174 0l23.373-23.363a18.497 18.497 0 0 0-13.086-31.58 18.513 18.513 0 0 0-13.087 5.418ZM180.666 362.021l-22.021 22.011a18.495 18.495 0 0 0 0 26.162 18.51 18.51 0 0 0 26.173 0l22.021-22.011 22.021-22.011a18.497 18.497 0 0 0-13.087-31.58 18.514 18.514 0 0 0-13.087 5.418l-22.02 22.011ZM51.372 295.674l23.373-23.395a18.494 18.494 0 0 0 0-26.162 18.512 18.512 0 0 0-26.173 0l-23.405 23.426a18.528 18.528 0 0 0-5.88 13.215 18.511 18.511 0 0 0 5.416 13.411 18.53 18.53 0 0 0 20.62 3.842 18.524 18.524 0 0 0 6.017-4.274l.032-.063Z" fill="#0235DD"/><path d="M101.17 238.226c10.216 0 18.498-8.278 18.498-18.49 0-10.211-8.282-18.489-18.498-18.489-10.216 0-18.497 8.278-18.497 18.489 0 10.212 8.281 18.49 18.497 18.49ZM355.889 354.443a18.509 18.509 0 0 0-4.036 20.189 18.526 18.526 0 0 0 17.123 11.443 18.534 18.534 0 0 0 17.122-11.443 18.511 18.511 0 0 0-4.036-20.189 18.49 18.49 0 0 0-13.086-5.422 18.49 18.49 0 0 0-13.087 5.422ZM105.763 520.564a18.509 18.509 0 0 0-4.036 20.189 18.535 18.535 0 0 0 34.246 0 18.519 18.519 0 0 0-17.123-25.599 18.535 18.535 0 0 0-13.087 5.41ZM31.616 395.887a18.516 18.516 0 0 0-2.809-28.495 18.535 18.535 0 0 0-27.412 8.311 18.514 18.514 0 0 0 4.016 20.184 18.564 18.564 0 0 0 26.205 0ZM281.647 229.61a18.516 18.516 0 0 0-2.788-28.508 18.534 18.534 0 0 0-27.421 8.319 18.516 18.516 0 0 0 4.036 20.189 18.564 18.564 0 0 0 26.173 0ZM119.29 449.562a18.502 18.502 0 0 0 28.455-2.811 18.488 18.488 0 0 0 0-20.54 18.5 18.5 0 0 0-18.983-7.865 18.502 18.502 0 0 0-9.472 5.055 18.545 18.545 0 0 0 0 26.161ZM242.041 326.866a18.535 18.535 0 0 0 28.508-2.807 18.514 18.514 0 0 0-8.315-27.4 18.534 18.534 0 0 0-20.193 4.014 18.55 18.55 0 0 0 0 26.193ZM273.248 517.451a18.483 18.483 0 0 0 2.812 28.441 18.5 18.5 0 0 0 27.362-8.294 18.48 18.48 0 0 0-4.001-20.147 18.496 18.496 0 0 0-13.087-5.423 18.498 18.498 0 0 0-13.086 5.423Z" fill="#0593EB"/><path d="m336.133 454.593-23.373 23.363a18.495 18.495 0 0 0 0 26.162 18.51 18.51 0 0 0 26.173 0l23.374-23.363a18.498 18.498 0 0 0-13.087-31.58 18.513 18.513 0 0 0-13.087 5.418Z" fill="#0235DD"/></g><defs><clipPath id="a"><path fill="#fff" transform="translate(0 181.5)" d="M0 0h1500v387.236H0z"/></clipPath></defs></svg>