<svg xmlns="http://www.w3.org/2000/svg" viewBox="0 0 1000 1000"><title>Nigeria-Logo</title><path d="M792.05,709.6c.75.15,1.35.6,1.35,1.35.07,3.14.22,6.21,0,9.35-.15,2.84-4,4.41-6.21,2.76a3.38,3.38,0,0,1-1.05-1.72c-.82-2.31-1.57-4.63-2.32-7-.15-.37-.07-.9-.29-1.2-1.8-2.09-1.35-4.56-1.43-7,0-3.14-.15-6.28.08-9.35.3-4.26-.82-8.3-.9-12.49,0-1.27-1.57-2.39-2.91-2.31-2,.22-4,.52-6,.82a2,2,0,0,0-1.57,1.64c-.15.9-.07,1.87-.22,2.84-.08.45-.3.9-.45,1.5-1.79-1-.37-3.07-1.87-4.11-.3.37-.6.6-.67.89a8.34,8.34,0,0,0,1,5.54c1.79,3.44,2,7.25,2.69,10.92a2.69,2.69,0,0,1-.15,1.57C768.79,709,765.35,713.49,760,716a9.18,9.18,0,0,0-4.26,3.59c-1.57,2.47-3.07,4.93-3,8.22,0,2.62-.68,5.31-.75,8a13.51,13.51,0,0,1-1.35,4.26,18,18,0,0,1-2,4.41,29.92,29.92,0,0,1-4.48,5.16,24,24,0,0,1-5.39,3.59c-2.69,1.27-5.38,2.47-8.52,2.09-2-.22-4,0-6.06-.07-2.62-.08-4.71-1.05-5.91-3.52a35.42,35.42,0,0,1-2-4.86,64.36,64.36,0,0,0-4.42-10.77,132.37,132.37,0,0,1-5.75-12.93,27.81,27.81,0,0,1-1.2-7.18c-.22-2.54.07-5.09-.75-7.63a9.3,9.3,0,0,1-.15-3.21,47.82,47.82,0,0,0-1.79-15.26,12.38,12.38,0,0,1-.6-2.32c-.08-2.09-.15-4-1.87-5.6-.52-.45-.52-1.5-.67-2.25-1-6.13-4.34-10.54-9.35-14.06a9.12,9.12,0,0,0-5.31-1.64,17.58,17.58,0,0,1-6.8-.67,5.13,5.13,0,0,0-2.4-.08c-3.44.38-6.95.82-10.39,1.27-4.19.53-8.38.68-12.41-.6a4.74,4.74,0,0,1-2.32-1.49c-2.47-3.07-5-6-5.69-10.1-.44-2.76-1.27-5.45-1.42-8.37-.22-3.37-.89-6.66-1.34-10a25.22,25.22,0,0,1,1-12,51,51,0,0,1,5.09-10,13.83,13.83,0,0,1,4.41-4.64,4.4,4.4,0,0,0,1.5-1.34,13.54,13.54,0,0,1,7.62-4.94,5.65,5.65,0,0,0,1.8-.82c1.87-1.65,4.26-2.24,6.21-3.66,3.88-2.85,8.45-4.12,13-5.46a5.74,5.74,0,0,1,1.57-.3c3.14.07,6.13-.9,9.19-1.35a46.22,46.22,0,0,1,6.44-.22,4.11,4.11,0,0,1,1.57.45c2.54,1.12,2.91,3,1.12,5.16-.6.74-1.35,1.34-1.95,2a3.65,3.65,0,0,0,.15,5.09c1.8,1.94,4.27,2.84,6.43,4.11,3.44,2.1,7.26,1.8,11.07,1.65a4.89,4.89,0,0,0,3.81-2c1.43-2,2.85-3.89,4.49-6,2.47.74,5.31,1,7.7,2.69a7.79,7.79,0,0,0,5,1.27c3.22-.08,6.51,0,9.72,0,1,0,1.87,0,2.85.07a2.2,2.2,0,0,1,2.16,2,18,18,0,0,1,.08,2.84,2.56,2.56,0,0,1-1.8,2.47,23.12,23.12,0,0,0-3,1.27c-2.76,1.35-3.36,3.59-1.79,6.36a21.75,21.75,0,0,0,1.57,2.39,96.67,96.67,0,0,1,5.83,8.68A15.47,15.47,0,0,0,758.1,634a16.78,16.78,0,0,1,3.29,4,54.19,54.19,0,0,0,6.21,7.48,9.11,9.11,0,0,0,4.78,2.92,3.12,3.12,0,0,1,1.2.29,4.87,4.87,0,0,0,4.94.83c1.72-.68,3.21-1.2,4.26-2.84.22-.38.89-.45,1.42-.68-.9,3.74-.75,7.48-.67,11.29.07,4.34.29,8.68.29,13a4.38,4.38,0,0,1-4.11,4.71,18.52,18.52,0,0,1-6.43-.08,17.88,17.88,0,0,0-4.86-.3,9.41,9.41,0,0,0-5.83,2.55,1.79,1.79,0,0,0-.15,2.84,34.18,34.18,0,0,0,2.76,2.39c4.57-1,8.83-2,13-2.84,3.59-.68,5,.45,5.45,4.11.3,2.69.68,5.38.83,8.08q.22,6.5.22,13a49.38,49.38,0,0,0,2.1,13.61,7,7,0,0,0,.67,1.87,3.25,3.25,0,0,0,3.21,1.34,2.16,2.16,0,0,0,1.28-2.32v-3.21C792,713.87,792,711.7,792.05,709.6Zm-43.37-31.1a11.7,11.7,0,0,1,1.64,2.16c1.87,4.19,4.27,8.08,5.46,12.57.83,3.14,1.8,6.2,1,9.57a4.71,4.71,0,0,0,2.1,4.56,4.82,4.82,0,0,0,4.86-1,4.74,4.74,0,0,0,1.72-3.14,17.61,17.61,0,0,0-.6-7.63c-1.64-4.41-3.29-8.9-4.86-13.31-.75-2-1.5-4-1.35-5.68a22.13,22.13,0,0,0,3.59-3.14,3,3,0,0,0-1.87-4.71,6,6,0,0,0-2-.15c-2.4.29-3.82-1-4.72-3.07a27.88,27.88,0,0,1-1.42-3.37c-1.72-7.1-4.86-13.75-5.9-21.08a7.26,7.26,0,0,0-.3-1.2,98.16,98.16,0,0,1-4.86-12.86,9.7,9.7,0,0,0-1.57-2.54c-3.37,0-5.09,1.57-5.69,4.48-.15.68-.37,1.27-.52,2-1.05,3.59-2.17,7.25-3.14,10.84-2.09,7.55-5.16,14.81-6.58,22.58a61.55,61.55,0,0,1-2.84,9.35c-1.2,3.14-.83,6.73-2.84,9.65a2,2,0,0,0-.23,1.19c-.15,4.12-1.64,7.85-2.47,11.82a64.71,64.71,0,0,0-1.72,16.52A5.77,5.77,0,0,0,716.9,718a4.47,4.47,0,0,0,6.65-3.52c.15-1.72.08-3.51.08-5.31.07-6-.08-12.11.75-18.24s4.18-9.42,9.42-10.92C738.36,678.8,743.22,677.52,748.68,678.5Z" style="fill:#0075ff"/><path d="M375.39,713c1.65-.45,3.22-.82,4.86-1.27.82-.08,1.57,0,2.39-.15,3.44-.68,6.81-1.35,10.25-2.17,3.14-.75,6.28-1.57,9.35-2.47.29-.07.52-.67,1-1.34a31,31,0,0,0-3.14-.3l-15.71-.45c-1.34,0-2.69.07-4,.15-1.35-.08-2.7-.23-4-.3-.9-.23-1.8-.6-2.69-.75-4.72-.6-9.43-1.12-14.14-1.64a9.2,9.2,0,0,0-2,.14,11.74,11.74,0,0,0-1.57-.14c-.89-.3-1.72-.68-2.61-.9-6.66-1.42-13.24-2.69-19.89-4.19-3.82-.9-7.56-2.17-11.37-3.14a167.63,167.63,0,0,1-22.73-7.4c-9.43-3.82-18.62-8.15-27.67-12.64-5.53-2.77-10.84-6.21-16.15-9.42a190,190,0,0,1-23.63-17.05c-3.89-3.37-7.7-6.81-11.52-10.32a92.58,92.58,0,0,1-7.18-7.1c-3.36-3.82-6.58-7.86-9.79-11.89-2-2.55-4-5.16-6.06-7.63-3.66-4.11-7.63-8-11.29-12.27a137.58,137.58,0,0,1-8.75-11.21,141.69,141.69,0,0,1-10.54-17.35c-1.05-2.09-2-4.11-3-6.21-.45-1-.9-1.94-1.28-3-1.34-3.06-2.69-6.2-4-9.34a3.35,3.35,0,0,1-.15-1.5c1.27-1.35,2.69-.45,4-.6,2.32-.22,3.36,1,4.19,3,1.12,3,2.47,6,3.89,8.9,1.64,3.44,3.51,6.73,5.23,10.1a4.21,4.21,0,0,0,1,1.27c.38.37.53,1.27,1.72.82-1.42-4.11-2.84-8.15-4.41-12.19-1.2-3.14-2.54-6.28-4-9.35a3.51,3.51,0,0,1,.37-3.81c2.47,0,4.86.07,7.33.07,1.27,1.5,1.49,3.37,1.79,5.16a36.07,36.07,0,0,0,3,9.65,171.06,171.06,0,0,0,13.83,23.85c5.46,7.86,11.22,15.56,18.09,22.36,2.85,2.84,5.16,6.28,8.23,8.9s6.06,5.46,9.05,8.08a4.06,4.06,0,0,0,1.42.6.31.31,0,0,0,.45.22,34.5,34.5,0,0,0,10.84,8.9c4.64,2.54,9.35,4.86,14.13,7.1a191.23,191.23,0,0,0,23.93,8.9c1,.38,2.25,1.05,3.52.15,0-1.64-1.42-2.24-2.4-3a182,182,0,0,1-16.07-14.13c-2.25-2.17-4.56-4.19-6.88-6.21l-.15-.15a3.72,3.72,0,0,0-2.4-2.32l-.07-.07c-2-2.84-4-5.69-7-7.63-1.34-.9-2.54-2-3.89-3a26.48,26.48,0,0,0-2.47-1.35l-.29-.15a26.38,26.38,0,0,0-1.65-2.24c-3-3.07-6-6.21-9.12-9.12-6.81-6.36-12.42-13.76-17.95-21.24-1.72-2.39-3.21-4.93-4.86-7.4-.22-.3-.67-.38-1.05-.53h0a5.25,5.25,0,0,0-.44-1.49c-1.87-3.37-3.74-6.73-5.69-10.1a8.09,8.09,0,0,0-1.34-1.34h0a4.94,4.94,0,0,0-2-3l-.08-.3c-.22-.45-.52-.9-.75-1.35.15-.15.08-.22,0-.37a25.35,25.35,0,0,0-3.66-8.53c-.15-.22-.45-.3-.67-.45h0c-.15-3-1.5-5.75-1.95-8.74-.07-1.2-.15-2.4-.15-3.59,0-2.62.08-5.31.15-7.93,0-1.35.15-2.62.23-4,1,.37,1.27,1.19,1.64,2.17,1.72,5,3.22,10,5.31,14.88a213.8,213.8,0,0,0,15.11,29.08c1.87,3,3.81,5.91,5.75,8.75a1.45,1.45,0,0,0,2.17.68c-.52-1.2-.89-2.47-1.49-3.59-1.2-2.55-2.62-5-3.74-7.63-1.87-4.49-3.44-9.05-5.24-13.61a14.09,14.09,0,0,0-1.34-1.94l-.08-.3a19,19,0,0,0-.44-2.77c-.83-3-1.72-5.91-2.62-8.9a9.51,9.51,0,0,1-.38-4.34,12.1,12.1,0,0,0,3.37,2.77,18.59,18.59,0,0,1,3.29,2.32c1,.67,1.87,1.5,2.92,2.09a11.81,11.81,0,0,1,4.56,4.42c-.75,1.86.74,3.06,1.57,4.33,2.69,4,5.61,8,8.3,12,6.13,9,13.91,16.53,21.76,24,3.14,3,6.43,5.76,9.87,8.45,3.74,2.92,7.55,5.76,11.51,8.38,4.64,3,9.5,5.68,14.29,8.52A122.67,122.67,0,0,0,306,620.17c1.64.67,3.36,1.05,4.93,1.87,5.09,2.62,10.84,3.44,16.08,5.61a1.58,1.58,0,0,0,2.24-.53c-3.14-2-6.28-4-9.34-6.13-5.16-3.51-10.55-6.65-15.26-10.69-6.65-5.61-13.38-11-19.74-16.83s-12.41-12-18.4-18.39-11.36-13.76-16.82-20.79a12.35,12.35,0,0,1-1.27-2.92c2.54-1,5.08-.82,7.7-.59a4.12,4.12,0,0,1,1.35.74,7.52,7.52,0,0,0,2.16,4.19c1.2,1.27,2.32,2.69,3.44,4,3.37,4,6.44,8.37,10.17,12.11,6.14,6.14,11.74,12.72,18.4,18.32,2.47,2.1,4.79,4.34,7.33,6.44A223.36,223.36,0,0,0,318,611.05c5.53,3.66,11,7.47,16.67,10.77,6.43,3.73,13.09,7.1,19.67,10.54a18.27,18.27,0,0,0,8.15,2.17c1.49,0,3,.15,4.49.3,6.5.37,12.93,1,19.44,1.12,4.71.07,9.49-.38,14.2-.6,1.87-.08,3.82-.08,5.69-.22A248.78,248.78,0,0,0,432,631.24c1.57-.3,3.29-.3,4.56-1.42.82-.23,1.57-.38,2.39-.6a2.34,2.34,0,0,0,2.92-.82l3.59-.68a1.55,1.55,0,0,0,2.17-.67c.59-.22,1.19-.37,1.79-.6a5.5,5.5,0,0,0,1.57,0c2.84-.9,5.68-1.79,8.45-2.77,1.65-.59,3.44-.74,4.79-2,.74-.3,1.57-.53,2.31-.83a6,6,0,0,0,4.71-2h.23a4.18,4.18,0,0,0,3.81-1.64c1.2-.45,2.47-1,3.67-1.42a1.66,1.66,0,0,0,1.72-1h0a21.91,21.91,0,0,0,3.81-1.12,233.87,233.87,0,0,0,32.75-19.67,5.76,5.76,0,0,0,2.69-2.84c.15.08.3,0,.38-.22,1.2,0,1.94-.83,2.77-1.5,4.56-3.59,8.82-7.55,13.08-11.51A178.71,178.71,0,0,0,560.24,550c3.74-5.31,7-11,10.32-16.52.52-.9.9-1.95,1.34-2.92.23-.45.3-1.12,1.05-.82.3.75.6,1.42.9,2.09,0,1.42.07,2.84.07,4.34a2.67,2.67,0,0,0-.07,2.69c-.08,1.12-.08,2.32-.15,3.44-1.2,1.72-2.62,3.22-3.07,5.39-.15.37-.3.74-.44,1a20.78,20.78,0,0,0-2.25,2.25c-3.81,5.08-7.18,10.54-11.36,15.33q-6.06,6.84-12.34,13.46c-2.25,2.31-4.71,4.41-7,6.65a133.41,133.41,0,0,1-19,15.26,14.09,14.09,0,0,0-1.72,1.12c-7.92,6.2-16.75,11-25.64,15.48-6.51,3.21-13,6.65-20,8.89-6.66,2.17-13.31,4.64-20,6.66a229.23,229.23,0,0,1-27.3,6.21c-4.26.74-8.52,1.42-12.86,1.79-6.73.52-13.53.75-20.26,1.12-1.05.08-2.17.08-3.22.23-.52.07-1.12,0-1.35.89a8.6,8.6,0,0,0,2,1c6.66,1.72,13.31,3.66,20.19,4.48s14,1.65,21,2.17c3.73.3,7.62.6,11.36-.22,2.77-.6,5.46-1.42,8.23-2.25,9.34-2.91,18.47-6.28,27.52-9.79,9.42-3.74,18.54-8.15,27.51-12.79,1.8-.9,3.52-2.09,5.31-3a229.67,229.67,0,0,0,26.47-16.53,253.54,253.54,0,0,0,34.78-29.83c.89-.9,2.24-1.65,2.24-3.22l-.15-.15.07.15a3.77,3.77,0,0,0,1.35-.75c2.92-3.36,5.91-6.73,8.75-10.09a50.75,50.75,0,0,0,3.44-4.49,12.75,12.75,0,0,0,1.64-7c0-1.87.68-2.61,2.32-2.61,3-.08,6,0,8.9.15.52,0,1.12.59,1.57.82-1.12,2.09-2.09,4-3.07,5.91h0a8.94,8.94,0,0,0-4.11,6.58c-.75,4.48-1.64,9-2.76,13.46-1,4.18-2.47,8.3-3.74,12.41-.15.6-.23,1.2-.38,1.94.53-.07.9,0,1-.07,3.59-2.92,6.28-6.66,9.05-10.32a13,13,0,0,0,.89-1.79,159.64,159.64,0,0,0,6.73-25,10.27,10.27,0,0,1,1.87-4.64l.75-.22c3.52-1,4.64-2.54,4.64-6.06,0-2.54.15-5.08.15-7.7.07-1.35.15-2.69.15-4,0-3.36-.08-6.73-.15-10.09a25,25,0,0,0-.3-4,14.81,14.81,0,0,1,.45-6.81,5.07,5.07,0,0,1,5.16-4.18c1,0,2.17.07,3.21.15a3.76,3.76,0,0,1,1.72,3.29c.23,6.8-.9,13.53-1,20.26a14.26,14.26,0,0,1-.45,1.95c-.37,2.91-.67,5.83-1.05,9.27a5.14,5.14,0,0,0,2.7-3.44,128.25,128.25,0,0,0,5.31-15.78c1.19-4.86,2.31-9.72,3.44-14.58,2-.23,4-.38,6-.6a2.24,2.24,0,0,1,.89,2.39,147,147,0,0,1-4.78,18.85c-.82,2.84-2.09,5.61-3,8.45a108.3,108.3,0,0,1-6.21,14.95A115.29,115.29,0,0,1,613,569.25a13,13,0,0,0-1.65,3.21c-1.57,4.49-3.14,9-4.63,13.46a16.81,16.81,0,0,0-.38,2.47c2.47-1.57,3.67-3.22,12.27-19.07,3.51-6.5,6.65-13.31,9.57-20.11a164.29,164.29,0,0,0,7.62-21.39c2-7.25,4-14.58,5.91-21.83,1-.38,1.87-.83,2.84-1.2,1-.15,2-.23,3.07-.38a2.76,2.76,0,0,1,.67,2.62q-.9,3.38-1.57,6.73c-1.94,11.14-5.91,21.61-9.49,32.23-2,5.76-4.72,11.22-7.26,16.75-2,4.26-4.19,8.53-6.43,12.64a104.79,104.79,0,0,1-6.28,10.84c-3.44,5-6.66,10.17-10.24,15.11-4.86,6.73-10.1,13.08-15.48,19.36-3.07,3.59-6.36,7-9,10.92a152.05,152.05,0,0,1-10.91,14.13A173,173,0,0,1,552.54,665,198.57,198.57,0,0,1,535.94,678a171.36,171.36,0,0,1-22.14,12.72,191.24,191.24,0,0,1-22.21,9,171.84,171.84,0,0,1-32.45,7.18A139.39,139.39,0,0,1,436,708a54.84,54.84,0,0,0-14.43,1.57q-20.75,4.83-41.57,9.5a13.13,13.13,0,0,1-2.4.3,1.74,1.74,0,0,1-1.87-1.27A42.61,42.61,0,0,0,375.39,713Zm172.14-81.73c-2.77,1.34-5.76,2.39-8.38,4-5.9,3.59-12.26,6.21-18.47,9.12-2.76,1.35-5.76,2.32-8.67,3.44-5.46,2-10.77,4.34-16.3,6a313.77,313.77,0,0,1-39,9.35,18.06,18.06,0,0,0-2.62.9l-2.24.22a60.68,60.68,0,0,0-10.4,1.35c-.07,0-.22.15-.3.22-.82.08-1.57.15-2.39.15-1.42-.3-2.84-.52-4.11.53-1.35.07-2.62.15-4,.3a21.7,21.7,0,0,0-3.22-.15c-3.81.22-7.55.59-11.37.67-5.83.15-11.66,0-17.49,0a44.8,44.8,0,0,0-4.49.15c-2.32.22-4.56.6-6.88.82-4.34.38-8.67.53-12.94.9a223.93,223.93,0,0,1-33.27.07c-4.19-.3-8.38-.67-12.57-1-.89-.07-1.94-.37-2.69.82.3.38.45.9.9,1,5.83,3.14,11.67,6.36,17.65,9.2,7.1,3.36,14.43,6.13,21.76,8.9a45.39,45.39,0,0,0,11.36,2.91c3.22.3,6.43.83,9.65,1.2,8.08.9,16.15,1.5,24.3,1.72a185.25,185.25,0,0,0,19.45-.6c6.87-.52,13.75-.75,20.63-1.94,4.94-.9,9.95-1.42,14.73-2.77a146.34,146.34,0,0,0,25.5-9.27c4.49-2.17,9.13-4.19,13.39-6.73s8.67-4.49,12.49-7.48c5.38-4.26,11.14-8.15,16.45-12.49a116.12,116.12,0,0,0,15.48-15.48c3.29-3.88,6.35-8.07,9.49-12.11.3-.37.68-.9.08-1.42a3.43,3.43,0,0,1-.38-.08c-3.36,2-6.8,3.89-10.09,5.91a12,12,0,0,1-1.12,1.65Zm-62.14,13.08c.75-.15,1.57-.3,2.32-.52,8.74-2.84,17.57-5.46,26.24-8.53,7.41-2.61,14.58-5.68,21.91-8.52,4.26-1.64,8.6-3.29,12.86-5a11.85,11.85,0,0,0,2.1-1.2c6-3.88,11.66-8.22,17.5-12.48a19.5,19.5,0,0,0,6.5-8.6c1-2.62,2.24-5.24,3.22-7.86,1.64-4.41,3.14-8.89,4.63-13.38.3-.82.75-1.79-.3-2.47-.3.08-.67,0-.82.15-1.42,1.27-2.77,2.54-4.11,3.89-3.52,3.59-6.88,7.25-10.47,10.69a252.85,252.85,0,0,1-32.6,25.95,224.89,224.89,0,0,1-20.64,12.79c-2.54,1.34-5,2.69-7.55,4-3.59,1.87-7.18,3.74-10.85,5.46A50.13,50.13,0,0,0,485.39,644.32Zm-75.75,13c-1.2-.37-1.8-.59-2.39-.74-3.59-.75-7.18-1.27-10.77-2.1a231.12,231.12,0,0,1-29.09-8.75c-3.29-1.19-6.51-2.69-9.8-4a15.2,15.2,0,0,0-1.94-.6c-2.39-.45-4.79-1-7.18-1.34a194.73,194.73,0,0,1-30.66-7.56,186.1,186.1,0,0,1-24.15-9.64c-6.51-3.29-12.86-6.88-19.14-10.7a181.5,181.5,0,0,1-20-14.65,198.42,198.42,0,0,1-24-24.16,5.39,5.39,0,0,0-2-1.79,6.63,6.63,0,0,0,.15,1.12c2.69,5,5.16,10.17,8.22,14.88A274.72,274.72,0,0,0,256.79,614a13,13,0,0,0,3,2.69c11,7.85,22.44,15,34.85,20.56a261.62,261.62,0,0,0,31.48,12,283.31,283.31,0,0,0,31.18,7.25,220.61,220.61,0,0,0,23.41,2.84c2.69.23,5.38.53,8.08.6s5.68.15,8.52,0c2.54-.15,5.08-.6,7.7-.9A6.75,6.75,0,0,0,409.64,657.33Zm-82.41,30.06c-2.76-1.12-4.78-2-6.8-2.76-13-4.71-25.87-9.65-38.14-16-5.23-2.77-10.54-5.54-15.7-8.53a303.47,303.47,0,0,1-27.29-18.24c-1.5-1.05-3-2.25-5.24-2.55.52,2,2,2.92,3.14,3.82,6.88,5.46,14.06,10.54,21.39,15.4,2.17,1.42,4.34,2.77,6.5,4.11a43.59,43.59,0,0,0,4.86,2.84c7.33,3.52,14.44,7.41,21.91,10.7,4.79,2.17,9.8,4,14.66,5.91,4.26,1.72,8.75,3,13.16,4.33C321.92,687,324.09,687.77,327.23,687.39Zm18.47-25.34a8.59,8.59,0,0,0-1.19-.83c-6.58-1.34-13.16-3.14-19.59-5a240.05,240.05,0,0,1-29.24-10.69c-2-.82-4-1.8-5.91-2.54-.67-.23-1.64-.45-1.79,1.19,4.86,3.52,9.94,7.11,14.8,10.92a20.79,20.79,0,0,0,10.84,4c7.93,1,15.78,2.54,23.71,2.77C339.87,662.12,342.49,662.05,345.7,662.05Zm-65.65-3.15a56.87,56.87,0,0,0,10.17,5.91c5.31,2.32,10.62,4.79,16,7,5.76,2.31,11.67,4.41,17.5,6.5.6.23,1.42.75,2.17-.22-1.05-.6-1.95-1.12-2.84-1.65-4.86-2.91-9.87-5.68-14.59-8.82a24.56,24.56,0,0,0-7.62-3.52C294.11,662.34,287.3,660.7,280.05,658.9Zm189,38.37c1.57.89,2.84.37,4.18.07a134.53,134.53,0,0,0,29.32-9.2c4.93-2.17,9.72-4.63,14.65-6.88a27.63,27.63,0,0,0,6.51-4.11,7.23,7.23,0,0,0,.9-1.2c-.3-.22-.45-.37-.53-.3a8.48,8.48,0,0,0-1.87.45c-8.15,3.89-16.15,8.08-24.75,11-5,1.72-9.94,3.44-14.95,5.08-4.12,1.35-8.23,2.62-12.34,3.89C469.76,696.29,469.46,696.82,469.09,697.27Zm115.68-93.78c-2,1.65-3.44,2.85-4.94,4a16.45,16.45,0,0,0-4.19,5.38c-1.12,2-2.31,4-3.44,6-1,1.8-2,3.52-3,5.31-.22.38-.07,1-.15,1.65C573.48,622.71,582.45,610.07,584.77,603.49Z" style="fill:#0075ff"/><path d="M231.52,313.51c.82-.75,1.57-1.5,2.39-2.32a7.18,7.18,0,0,0,3.52-3.89h-.08c.38-.3.67-.6,1.05-.9,2-.82,2.91-2.84,4.48-4.11a1.76,1.76,0,0,0,1.72-1.57,9.85,9.85,0,0,0,4.34-4c.38-.3.82-.6,1.2-.89a5.61,5.61,0,0,0,1.79-.83,149.23,149.23,0,0,1,15.33-11.21A168.75,168.75,0,0,1,290,271.33c1.57-.74,3.22-1.42,4.87-2.09a162,162,0,0,1,20.33-6.88,172.74,172.74,0,0,1,22.21-4.64c10-1.12,19.89-2.39,29.91-1.79a21.49,21.49,0,0,0,7.18-.82c5.84-1.57,11.82-2.77,17.73-4.19a9.79,9.79,0,0,0,1.79-.82c.82-.08,1.57-.23,2.39-.3.3.07.53.22.83.15,4.63-1,9.27-2,13.83-3.07,2-.45,4-1,5.91-1.34s4-.6,6-.9a18.13,18.13,0,0,1,1.35,5.31,1.8,1.8,0,0,1-1.27,1.87,19.58,19.58,0,0,1-2,.45c-4.63,1-9.27,1.86-13.9,2.84-2.92.59-5.84,1.27-8.75,1.94-.68.15-1.2.6-.75,1.5.22.07.45.3.75.3,1,.07,2.17.15,3.21.15,12,.22,23.86.74,35.67,2.69,7.25,1.19,14.43,2.24,21.61,3.66a236.68,236.68,0,0,1,35.07,10,262.14,262.14,0,0,1,31.26,13.54c4.34,2.24,8.52,4.71,12.79,7.1a197.38,197.38,0,0,1,26.77,18.32A193.61,193.61,0,0,1,581,328.69a12.59,12.59,0,0,0,2.32,1.49l.23-.3-.23.23c.08,1.19,1,1.87,1.72,2.62,1.72,1.94,3.52,3.73,5.16,5.75,4,4.94,7.93,9.87,11.89,14.81a24.71,24.71,0,0,0,1.94,2,152.08,152.08,0,0,1,19.45,23.25,148.81,148.81,0,0,1,12.41,21.32,11.77,11.77,0,0,0,1.64,2.24c.08.37.23.67.3,1.05a6.3,6.3,0,0,0,.3,1.57c.9,2.39,2,4.71,2.84,7.17.53,1.65,1.57,3.22,1.13,5.09l.07-.08c-2.62.38-4.86-1-7.18-1.34-.82-2-1.49-3.81-2.17-5.53a132.61,132.61,0,0,0-9.49-18.77,1.51,1.51,0,0,0-1.8-1,124.88,124.88,0,0,0,4.64,14.21c.82,1.87,1.79,3.67,2.47,5.54.59,1.57,1.42,3.21.59,5.16a20.26,20.26,0,0,1-7.62.37c-.23-.67-.45-1.35-.6-1.95-1.12-4.86-2.24-9.72-4.56-14.2l-2.25-4.27c-2.61-4.71-4.86-9.64-8.07-14.05-2.77-3.82-5.83-7.48-8.38-11.44-3.21-5-7.32-9.35-11.29-13.76-8.22-9.13-17.42-17.28-26.84-25.2a15,15,0,0,0-1.27-1c-4-2.09-7.86-4.33-11.82-6.28-2.77-1.34-5.76-2.31-8.6-3.59a160.37,160.37,0,0,0-23.25-8.3,5.53,5.53,0,0,0-1.57.23c.67.82,1.12,1.42,1.64,1.94,4.26,3.74,8.6,7.41,12.86,11.07.75.67,1.57,1.57,2.84,1.27l.08.08c-.3,1.27.67,1.94,1.42,2.69,4.19,4.18,8.6,8.15,12.49,12.71a32.87,32.87,0,0,0,2.91,2.77c3.52,3,7,5.9,10.47,9,3.22,2.92,6.43,5.83,9.42,8.9a186.17,186.17,0,0,1,20.42,25.57c5.38,7.85,9.72,16.23,14.21,24.6a2.7,2.7,0,0,1-.08,3.29,32,32,0,0,1-3.81.08,4.19,4.19,0,0,1-3.82-2.54c-1.79-3.74-3.81-7.48-5.83-11.15a116.94,116.94,0,0,0-9.64-14.5c-.38-.45-.9-.83-1.43-1.35-.67,1.42.15,2.32.6,3.29A207.2,207.2,0,0,1,587.68,413a5.75,5.75,0,0,1,.38,2.76l-2.62.23c-2.62-.15-5.31-.3-7.7-.45-1.65-2.39-3-4.49-4.49-6.58-3.44-4.71-6.65-9.57-10.39-14a175.21,175.21,0,0,0-30.74-29.24c-.74-.53-1.64-.9-2.39-1.35l-.22-.15c-.23-.3-.38-.75-.68-1a152.53,152.53,0,0,0-21.46-13c-5.91-3-12-5.68-18.09-8.15-5.16-2-10.47-3.59-15.78-5.31-.82-.3-.9-.23-2.69.45,1.72,1.12,3.21,2.17,4.78,3.14a201.06,201.06,0,0,1,18.62,12.93c4.79,3.74,9.8,7.18,14.13,11.45,3.67,3.58,7.78,6.73,11.45,10.24,7.25,7,14,14.66,20.71,22.28a10.49,10.49,0,0,0,1.87,1.42c.37.6.75,1.28,1.12,1.87a2.73,2.73,0,0,0,.52,1.05c3,4,5.91,8,9,12a7.87,7.87,0,0,1,1.79,3.52,22.78,22.78,0,0,0-7.4-1.35,14.61,14.61,0,0,1-3.44-.74c.22-1.65-.82-2.77-1.72-4a252.22,252.22,0,0,0-23-26.69,234.7,234.7,0,0,0-22.21-20.12c-5.31-4.19-10.47-8.6-16.22-12.11-4.94-3.07-9.8-6.21-14.73-9.35a198.48,198.48,0,0,0-21.39-11.52,17.63,17.63,0,0,0-5.83-1.57,221.69,221.69,0,0,0-24.31-1.49,194.21,194.21,0,0,0-38.36,3.21c-5.61,1.13-11.14,2.17-16.75,3.37-1.27.3-2.76.3-3.66,1.49-1.5-.22-2.69.45-4,1a26.39,26.39,0,0,0-3.52.52,177.14,177.14,0,0,0-26.55,9.87,201.48,201.48,0,0,0-27.51,14.66A215,215,0,0,0,269,381.26,173.63,173.63,0,0,0,245.65,406c-1.72,2.24-3.14,4.71-4.78,7-1.13,2-2.55,3.59-5,4a11.42,11.42,0,0,0-3.59,1.72c-1.42.75-2.7,1.65-4.12,2.55-1-.75-.82-1.5-.22-2.47l9.2-13.24a13.36,13.36,0,0,0,1.12-2.54l.52-.52a1.93,1.93,0,0,0,1.57-2l.08-.23c1.72-1.19,3.44-2.31,4-4.56.22-.07.3-.15.22-.37,2.85-1.8,4.57-4.71,7-7,.37-.3.45-.9.67-1.42.45-.45.82-.9,1.27-1.35a9.24,9.24,0,0,0,4.94-5.16l-.23-.22.15.22a3.49,3.49,0,0,0,2.77-2.39l.3-.15a17.32,17.32,0,0,0,2.09-1.12c1.35-1.12,2.62-2.39,4-3.52,5.9-4.71,11.74-9.57,18.09-13.68C291.27,356,297,352.09,302.86,349a212.18,212.18,0,0,1,33.87-14.73c4.11-1.35,8.15-3.07,12.26-4.19,6-1.65,12.12-2.84,18.17-4.19,1.87-.37,3.74-.6,5.61-.9,5.46-.82,10.92-1.94,16.45-2.46,6.36-.6,12.72-.75,19.07-1.05a16,16,0,0,0,5.84-1.2,12.56,12.56,0,0,0-1.72-.89c-5.54-1.35-11-2.7-16.61-3.82a159.23,159.23,0,0,0-33.12-3,16.06,16.06,0,0,0-3.22.37c-3.29.83-6.5,1.8-9.79,2.7a186.68,186.68,0,0,0-21.54,7.25c-10.54,4.19-20.94,8.9-31,14.06a217.49,217.49,0,0,0-20.79,11.74,311.28,311.28,0,0,0-26.92,19.51,163.26,163.26,0,0,0-19,17.65c-4.94,5.39-10,10.7-14.36,16.53-3.44,4.48-3.51,4.56-4.11,10.24-.08.68-.08,1.35-.15,2-.23,4-.53,8.08-.68,12.19-.07,3.37.08,6.81.23,10.17,0,.9.15,1.94,1.34,2.24a38,38,0,0,1-.59,10.47,24.08,24.08,0,0,0,.37,10.84c.52,1.8,1.12,3.59.67,5.54a3.83,3.83,0,0,0,.38,2.39,59.18,59.18,0,0,0,4.26,7.78,26.6,26.6,0,0,1,3.66,7.1,6,6,0,0,0,.08,2.32c.9,2.69,1.94,5.31,3,7.93,1.5,3.88,3.07,7.7,4.64,11.51.59,1.57,1.19,3.22,1.79,4.86-2.47-2.91-5.38-4.63-9.35-3.51h-.37a5.62,5.62,0,0,0-.22-1.57,150.27,150.27,0,0,1-6.66-17.87,4.92,4.92,0,0,0-.9-1.8c-.22-.37-.75-.6-1.42-1.2a62.23,62.23,0,0,0-1,6.36c-.15,6.66-.23,13.24-.15,19.89a31.16,31.16,0,0,0,1.34,6.28,11,11,0,0,1-.52,2.7,33.36,33.36,0,0,1-2.54,4.48c-2,2.92-3,6-2,9.5-.83-.08-1.5-.23-1.87-1.12-3.07-7.71-6.43-15.26-9-23.18a22,22,0,0,0-2.46-5.76c-.23-1.05-.38-2-.6-3.07.52-.52.52-.82,0-1.42v-7a2,2,0,0,0-.08-2.47c0-1.57,0-3.21-.07-4.78-.08-4.64-.23-9.35-.23-14a12.07,12.07,0,0,1,.3-1.57c1.5,1.42,1.57,3.36,1.87,5.23A164.65,164.65,0,0,0,201.08,501c.53,1.65,1.2,3.15,2,5.24.45-13.24,1-25.87,4.27-38.21a14.52,14.52,0,0,0,.15-6.43c-.75-4-1.43-8-2-12a210.79,210.79,0,0,1-1.34-24.75,33.07,33.07,0,0,0-.38-3.37,6.44,6.44,0,0,0-2.84,3.22c-2.32,4.26-4.56,8.6-6.95,12.86-.3.52-1.05.82-1.57,1.2-.68-2-.08-4,.22-6a9.17,9.17,0,0,0,.22-3.21,33.8,33.8,0,0,1-.44-7.26c.07-3.81-1.58-5.68-5.46-6.13-2.25-.3-4.57-.07-6.88-.15-1.5-.07-2.92-.22-4.42-.3a23.65,23.65,0,0,1,1.35-3.81c2.09-4,4.26-7.85,6.43-11.74,1.65-3,3.59-5.76,4.79-8.9,2.09-5.16,3.74-10.39,5.61-15.63.15-.52.74-1.12-.3-1.79-1.65,2.47-3.37,4.93-4.94,7.4a242.36,242.36,0,0,0-14.8,28c-.83,1.87-1.35,3.81-2,5.68-2.7.3-5.31,1.35-8,1a22.21,22.21,0,0,1,1-3.44c1-2.46,2.17-4.93,3.29-7.4,2.69-5.76,5.61-11.37,8.6-17a219.34,219.34,0,0,1,12.48-20.34c3.15-4.56,6.73-8.75,9.88-13.31,3.58-5.24,8.22-9.65,12.18-14.59a44.7,44.7,0,0,0,3.14-3.66c3.07-4.26,6.14-8.52,9.58-12.56a13.67,13.67,0,0,0,1.27-2.47l.15-.3c1.87-1.87,3.74-3.74,5.61-5.68A5.91,5.91,0,0,0,231.52,313.51Zm16.75,16.08a1.75,1.75,0,0,0-1.27,1.49l-1.12.9a5.4,5.4,0,0,0-1.28.9c-2,2.69-4,5.38-6,8.07.3.15.45.3.53.3,3.06-.52,4.56-3.74,7.55-4.41.52-.08,1-.9,1.42-1.35.07-.07.07-.22.15-.37a5.56,5.56,0,0,1,1-.38,3.16,3.16,0,0,0,2.77-1.57l2.24-1.34A2.76,2.76,0,0,0,257,330l.3-.08a31,31,0,0,0,3.74-1.49c4.48-2.17,9-4.49,13.46-6.66,2.46-1.19,5-2.09,7.47-3.14,4.12-1.64,8.3-3.36,12.42-4.93,5.68-2.17,11.51-3.82,17.42-5.54a250.08,250.08,0,0,1,25.65-6.2c2.91-.53,5.91-.9,8.82-1.5A86.47,86.47,0,0,1,358,298.78c2.84-.15,5.68-.6,8.52-.83,5.54-.44,11.07-1,16.6-1.19,6-.23,11.89,0,17.87-.08,1.87,0,3.82-.15,5.69-.3,5.53-.44,11.06-1.19,16.6-1.42,10.54-.45,21.16-.67,31.7-.15,2,.08,4,.08,6.06.23,4,.3,8.08.67,12.11,1,.6.07,1.35.22,1.65-1.05-3.37-1.87-6.73-3.81-10.17-5.61a8.49,8.49,0,0,0-2.77-.59l-.07.07a.91.91,0,0,0-1.12-.75c-1.72-.82-3.44-1.57-5.24-2.39-.45-.45-.82-1.05-1.42-1.27-2-.82-4.11-1.57-6.21-2.32a4.9,4.9,0,0,0-3.73-1.42,4.75,4.75,0,0,0-3.82-1.72c-.9-.3-1.72-.6-2.61-.9-.15-.22-.3-.52-.53-.59-3.66-1.35-7.25-3.07-11.07-3.82-6-1.12-12-1.64-18.09-2.32-3.89-.45-7.78-.74-11.74-.82-11.07-.15-22.21-.6-33.28.52-3.36.38-6.73.68-10.09,1.05-1.2.15-2.4.38-3.59.45-7.63.45-14.88,2.62-22.29,4.34a.76.76,0,0,0-.37.15c-4.64,1.79-9.42,3.44-14,5.46C302,287.19,291.42,292,281.84,298.7c-5.75,4-11.66,7.85-16.82,12.71-4.41,4.19-8.82,8.38-13.16,12.64a12.6,12.6,0,0,0-1.57,2.32,9.83,9.83,0,0,0-.82,1.2,2.2,2.2,0,0,0-1.2,2ZM496,309.1c-1.5-2-3.29-3.29-5.91-2.92l-5.68-.9a22.19,22.19,0,0,0-3.07-.89c-5.38-.68-10.77-1.2-16.15-1.72a44.85,44.85,0,0,0-4.49-.08,7.63,7.63,0,0,0-2,.75c9.87,3,19,5.61,28,8.52,9.28,3,18,7.11,27.07,10.85a8.58,8.58,0,0,0-2-2.32c-3.21-2.54-6.35-5-9.64-7.48A22.29,22.29,0,0,0,496,309.1Zm62.44,62.14a5,5,0,0,0-.53-1.5c-4.86-6.8-9.94-13.53-15.4-19.89a8.64,8.64,0,0,0-1.5-1.35c-5-3.51-9.64-7.32-15-10.32s-10.54-6.13-16-8.74a213,213,0,0,0-20.79-9.13,270.72,270.72,0,0,0-31.48-9.49c-3.66-.83-7.4-1.65-11.14-2.32-4.26-.82-8.53-1.65-12.79-2.1-7.92-.89-15.93-1.49-23.85-2.24a31.63,31.63,0,0,0-10.92.52c-1.72.45-3.44.6-5.23.9-1.5.3-3,.67-5.31,1.12,1.57.53,2.31.9,3.06,1.05,4.11.82,8.23,1.5,12.34,2.39A169.94,169.94,0,0,1,423,315.45c6.43,2.17,12.79,4.49,19,7.11a12.39,12.39,0,0,0,2.69.82c8.52,1.57,17.05,3.06,25.42,5.08a165.28,165.28,0,0,1,22.36,7.26,198.4,198.4,0,0,1,32.6,16.45,178.7,178.7,0,0,1,33.28,27.14c3.74,3.89,7.18,8.08,10.77,12.12.45.52,1,1,1.64.15a7.1,7.1,0,0,0-.37-1.13c-2.24-4-4.41-8.07-6.73-12-1.42-2.39-2.77-4.93-5.09-6.73C558.74,371.46,558.67,371.31,558.45,371.24ZM315.79,320c-5.9.68-11.36,2.55-16.9,4.42-6.88,2.31-13.83,4.63-20.56,7.47-6,2.55-12,4.79-18.1,7s-11.74,4.79-16.9,8.6c-4.63,3.52-9.27,7-13.91,10.47a7.08,7.08,0,0,0-2.24,2.84c-2,4.56-4.26,9.05-6.13,13.69a110.67,110.67,0,0,0-3.51,10.76c-.3.9-.83,2.25.44,2.85,1.05.44,1.57-.83,2.17-1.43A253.82,253.82,0,0,1,240,367.57c5.23-4.48,10.69-8.67,16.08-12.93,8.52-6.73,17.72-12.34,27.06-17.8a279.55,279.55,0,0,1,27.07-13.76C312.13,322.18,313.92,321.06,315.79,320ZM213.2,374.45l-.67-.45a12.19,12.19,0,0,0-1.5,1.12c-1.65,1.65-3.29,3.22-4.79,5a22.16,22.16,0,0,0-4,6.44,136.21,136.21,0,0,0-7.78,32.15c-.08.45-.37,1.12.6,1.35.52-.68,1.12-1.43,1.64-2.17,2.62-3.82,5.09-7.63,7.78-11.29a11.8,11.8,0,0,0,2.32-5.46,133,133,0,0,1,5.08-21.61A47.5,47.5,0,0,0,213.2,374.45Zm261.35-97a13.18,13.18,0,0,0,2.16,1.12c5.16,1.94,10.4,3.74,15.56,5.83s10.47,4.41,15.63,6.73c4.18,1.87,8.37,3.81,12.41,6,5.91,3.22,11.89,6.51,17.57,10.1,6.06,3.81,11.89,7.92,17.8,12,2.32,1.57,4.71,3.22,7.1,4.71a8.76,8.76,0,0,0,2.4.45,16.7,16.7,0,0,0-1.65-2c-13.16-11.22-27.74-20.19-42.92-28.26-10.84-5.76-22.44-10.1-34.1-14-3.59-1.19-7.25-2-10.92-3C475.37,276.94,475.14,277.17,474.55,277.47ZM265.62,294.36c1.49-.67,2.61-1,3.66-1.64,3.74-1.94,7.4-3.89,11.14-5.83,10.62-5.84,21.91-10,33.43-13.69,5.68-1.79,11.36-3.51,17-5.53a4.92,4.92,0,0,0,3.07-2c-11.14,1.35-21.39,4.71-31.63,8.38-12.94,4.56-24.75,11.44-36.19,19C265.84,293.09,265.84,293.47,265.62,294.36Zm251,10.17c-7.4-6-35.51-17.94-43.37-18.61,2.55,1.49,4.64,2.69,6.66,3.88,4.64,2.77,9.2,5.61,13.83,8.38a17.35,17.35,0,0,0,4,1.72c4,1.05,8.15,2,12.19,3C512.23,303.41,514.4,303.94,516.64,304.53ZM215.37,359.94c3.59-2.09,6.73-4.56,8.75-8.22,2.54-4.71,5.53-9.27,8.22-13.91.45-.75,1.35-1.42.82-2.77a48.32,48.32,0,0,0-6.73,7.33C222.17,347.76,217.91,353.29,215.37,359.94Z" style="fill:#0075ff"/><path d="M557.55,422c.45.15,1.12.22,1.42.6a15.33,15.33,0,0,1,1.49,2.39c3.14,5.31,6.36,10.62,9.43,15.93,1.19,2,1.64,4.56,3.81,6a52,52,0,0,1,1,12.79,40.71,40.71,0,0,0,.38,6c-.68.22-1.35.3-1.65-.45-.9-2.09-1.72-4.26-2.69-6.28-3.14-6.43-6.36-12.79-9.5-19.14a3.16,3.16,0,0,0-2.24-2.1,9,9,0,0,1-1.27-5C557.62,429,557.55,425.52,557.55,422Z" style="fill:#0075ff"/><path d="M624.32,447.66a5.54,5.54,0,0,1,1.95,0c2.09,1,4.11,2,6.13,3.06a1.63,1.63,0,0,1,.9.83c.75,2,2.17,3.66,3.14,5.53a1.64,1.64,0,0,1,.15,1.2,12.93,12.93,0,0,0-.38,4.78,3,3,0,0,1-1.34,2.4c-1,.15-1.42-.3-1.5-1.35-.22-2.39-.45-4.79-.75-7.25a9.93,9.93,0,0,0-1-2.1c-.37,3.89-.6,7-.9,10-.14,2-.22,4-.37,6-.3.45-.52,1.05-1,1.2-2.24.75-4.41,1.87-6.88,1.5.07-1.2.15-2.4.3-3.67C624,462.54,624.85,455.14,624.32,447.66Z" style="fill:#0075ff"/><path d="M619.91,473.61a5.88,5.88,0,0,1-1.57.37c-6.8.75-5.91-.37-7-4.94a31.45,31.45,0,0,1-.89-8.37c.07-1.87.29-3.74-.53-5.53a3.49,3.49,0,0,1,0-1.95,37.41,37.41,0,0,1,1.72-4.48,2.5,2.5,0,0,1,2.84-1.72c.53,2.24,1.13,4.41,1.57,6.65C617.44,460.37,618.72,467,619.91,473.61Z" style="fill:#0075ff"/><path d="M153.15,453c.23,3.14.08,6.2.23,9.34.15,4.19-.3,8.31.07,12.49.37,4.41-.15,8.9-.15,13.39s.08,9.2,0,13.76c-.07,5.23.15,10.54-.75,15.77-.44,2.62-.07,5.39-.07,8.08a1.69,1.69,0,0,1-1.65-1.49c-.44-2.92-1.12-5.84-1.42-8.83-.6-5.91-1.19-11.81-1.57-17.8-.22-3.73.08-7.55.15-11.36.08-1.87.3-3.74.38-5.68.22-9,1.79-17.73,3.44-26.55A1.61,1.61,0,0,1,153.15,453Z" style="fill:#0075ff"/><path d="M642.12,416.85a.46.46,0,0,1,.3.07v.23a.59.59,0,0,0-.3-.3Z" style="fill:#0075ff"/><path d="M62.52,548.68c-6.2,0-11.36-.07-16.52,0s-10.25.23-15.41.38a3.09,3.09,0,0,0-1.19.07c-2.1,1-4.19.38-6.36-.07a6,6,0,0,1-5.31-6.43v-.38c1.35-7.55.6-15.1.67-22.66.08-8.67-1.12-17.27-.82-25.94.08-3.37,0-6.73-.07-10.17,0-4-.08-8.08-.08-12.19V457.08a23,23,0,0,0-.22-3.21,43.92,43.92,0,0,1-.38-4.42c-.07-5.16,0-10.32,0-15.48,0-1.64.3-3.21.38-4.86a28.19,28.19,0,0,0-.15-5.6c-.38-2.77,1-4.94,2-7.26a3,3,0,0,1,3.06-1.57c2.17.08,4.34.08,6.51.08,7.33,0,14.65-.38,21.91.15,9.49.67,18.92.3,28.41.67,1,.07,2.1.45,3.14.52,4.19.45,8.15,1.65,12.27,2.47,1.72.3,3.44.75,5.16.9a4.24,4.24,0,0,1,3.14,1.64,17.09,17.09,0,0,0,5.61,3.89,39.06,39.06,0,0,1,10.84,7.63c2.54,2.62,5.38,5,7.7,7.78a44.66,44.66,0,0,1,8.23,16.15,119.49,119.49,0,0,1,3.88,17.79,30.14,30.14,0,0,1,.23,3.67c-.08,4-.23,8.07-.38,12.19-.14,3.36.08,6.8-.89,10.09a13,13,0,0,0-.23,2.39c-.07,1.5.08,3-1.12,4.19a2.37,2.37,0,0,0-.45,1.5c-.3,3.21-2.24,5.76-3.21,8.67a5.08,5.08,0,0,1-1.2,1.65,18.52,18.52,0,0,0-2.62,4c-1.87,3.37-4.11,6.8-7.32,9-2.17,1.5-4.27,2.77-5.69,5a3.63,3.63,0,0,1-2,1.2,11,11,0,0,0-5.53,3.22,4.2,4.2,0,0,1-1.72.89c-2.77,1-5.61,2-8.45,2.92-2.32.67-4.56,1.64-7.1,1.57a8.6,8.6,0,0,0-2.4.37C79.87,548.76,70.6,548.08,62.52,548.68Zm3.74-32.15v-.15a34.09,34.09,0,0,0,4.86-.08A22.13,22.13,0,0,0,74.93,515a51,51,0,0,0,6.88-2.32c4.42-2.09,8.6-4.56,11-9.12.37-.67,1-1.27,1.42-2A25.17,25.17,0,0,0,96,498.43a41.76,41.76,0,0,0,2.46-16.3c-.14-3.07-.67-6.13-1.12-9.2-.3-1.87-1-3.66-1.34-5.46a7.79,7.79,0,0,0-1.65-3.66c-2.54-3.44-5.91-5.83-9.35-8.3-2.91-2-5.75-4-9.49-4a1.67,1.67,0,0,1-.82-.23c-3.37-1.34-7-1-10.4-1.72a12.32,12.32,0,0,0-1.64-.07c-2.47.22-4,1.72-4,4.19-.08,3,.15,5.9.22,8.89,0,1,0,1.87-.07,2.85-.15,2.31-.38,4.56-.45,6.88-.3,9.87.9,19.74-.67,29.53a11.35,11.35,0,0,0,0,1.65c-.08,1.64-.15,3.21-.38,4.86a9.31,9.31,0,0,0,1.65,6.13,4.08,4.08,0,0,0,3.74,2.09C63.79,516.53,65.06,516.53,66.26,516.53Z" style="fill:#020103"/><path d="M585.51,415.88l2.62-.23c3.07.23,6.21-.22,9.2.6a6,6,0,0,0,1.64,0c5.69.08,11.37-.15,17,.53,2.32.29,4.79-.45,7.18.07,4-1.12,8.08-.37,12.12-.07a17,17,0,0,1,4,.67,17.57,17.57,0,0,0,5.16,1,15.12,15.12,0,0,1,3.14.6c1.42.3,2.92.67,4.34,1.05h0c.37.52.6,1.19,1.12,1.49,1.79,1.05,3.66,2,5.61,3,.45.23,1,.08,1.57.15l.07.23.23-.08a9.4,9.4,0,0,0,.89,2.17c1.65,2.09,3.52,4,5.16,6.13a7.09,7.09,0,0,1,1.72,2.62,10.45,10.45,0,0,0,3.89,5.83c.08.38.08.82.15,1.2-.15.52-.52,1-.37,1.49A55.21,55.21,0,0,0,674.5,452c1.42,3.21-.15,6.73,1.2,9.94a5.14,5.14,0,0,1-.08,2.39q-.55,3.6-1.34,7.18c-.75,3.52-1,7.18-2.62,10.55a44.55,44.55,0,0,1-2.54,4.56,23.65,23.65,0,0,0-3.59,6.73c-.08.3-.23.6-.3.89-2,.23-2.84,1.95-4.27,3-3.51,2.69-7,5.53-11.66,6.28-.45.07-.82.52-1.27.82-1,.15-2,.22-3.07.37a16.46,16.46,0,0,0-7.4.38c-.22.07-.45.52-.6.82-2,.22-4,.37-6,.6-3.52-.3-7.18-.08-10.54-1.35-.08,0-.15.23-.23.3-1.05-.07-2.17-.15-3.21-.15a5.09,5.09,0,0,0-5.16,4.19,17.32,17.32,0,0,0-.45,6.8,18.07,18.07,0,0,1,.3,4c.07,3.37.15,6.73.15,10.1,0,1.34-.08,2.69-.15,4-.08,2.55-.15,5.09-.15,7.71,0,3.51-1.12,5-4.64,6.05-.22.08-.52.15-.75.23a11,11,0,0,1-3.06.15c-5.61-1-11.29-.45-17-.3-1.72.07-3.51-.08-5.23-.15a6.34,6.34,0,0,1-6.13-4.41,4.56,4.56,0,0,0-.83-1.27c.08-1.13.08-2.32.15-3.44a2.25,2.25,0,0,0,.08-2.7c0-1.42-.08-2.84-.08-4.33.15-.75.68-1.57.53-2.25-.6-2-.23-4-.15-6,.07-1.05,0-2.17,0-3.22,0-4.71-.08-9.5-.08-14.21,0-11.66.08-23.25,0-34.92a6.09,6.09,0,0,1,1-3.81,1.23,1.23,0,0,0-.07-1.8,40.51,40.51,0,0,1-.37-6,45.56,45.56,0,0,0-1-12.78,10.61,10.61,0,0,0,.75-8.9,8.6,8.6,0,0,1-.37-2.4c-.08-3.36,0-6.73,0-10.09a13.22,13.22,0,0,1,1.64-5.76,5.23,5.23,0,0,1,4.71-3.21C582.07,416.4,583.79,416.1,585.51,415.88Zm29.09,31.18a2.43,2.43,0,0,0-2.84,1.72,41.82,41.82,0,0,0-1.72,4.49,2.51,2.51,0,0,0,0,1.94c.75,1.8.53,3.74.53,5.53a31.53,31.53,0,0,0,.89,8.38c1,4.56.23,5.68,7,4.93.52-.07,1-.29,1.57-.37.9,0,1.8-.07,2.69-.07,2.47.37,4.64-.75,6.88-1.5.38-.15.6-.82,1-1.2,2.76-.52,4.18-2.39,4.71-5,0-.07-.15-.22-.23-.29.68-.68,1.42-1.35,1.35-2.4a11.5,11.5,0,0,1,.37-4.78,2.17,2.17,0,0,0-.15-1.2c-1-1.87-2.39-3.51-3.14-5.53a2.44,2.44,0,0,0-.9-.83c-2-1-4-2.16-6.13-3.06a5.48,5.48,0,0,0-1.94,0c-1.2-1.65-3.14-1.35-4.79-1.65A5.73,5.73,0,0,0,614.6,447.06Zm38,24.3a1.86,1.86,0,0,0-2.54-1c-.45.15-.75.67-1.12,1,.37.37.67.82,1,1A2.07,2.07,0,0,0,652.59,471.36ZM600,466.28a3.79,3.79,0,0,0,4.71,1.57,1.21,1.21,0,0,0,.68-.9,1.72,1.72,0,0,0-.75-1.2A5.29,5.29,0,0,0,600,466.28Zm29.39,12.56c-.08-.22-.08-.37-.15-.52a2.33,2.33,0,0,0-3.22-.15c-.15.15-.07.82.08,1a2.56,2.56,0,0,0,2.62.45A3.23,3.23,0,0,0,629.41,478.84Zm-31.78-27.07c-.75-.82-1.12-1.42-1.65-1.64-.3-.15-1,.3-1.19.67-.38.6.07,1.2,1,1.27A7.9,7.9,0,0,0,597.63,451.77Zm12.64,40.08a6.19,6.19,0,0,0,1.42-.6,1.14,1.14,0,0,0,.37-1c-.15-.75-.75-1-1.42-1s-1.57.15-1.87,1.05c-.07.22,0,.59.15.67C609.37,491.33,609.82,491.55,610.27,491.85Zm-15.71-15.63c-.22.23-1,.68-1,1.13-.07.67.6,1,1.35,1.12s1.34-.15,1.57-.9S595.83,476.22,594.56,476.22Zm-6.88-10V467a12,12,0,0,0,2.32.07c.15,0,.38-.37.38-.6s-.3-.6-.45-.6C589.18,466,588.43,466.13,587.68,466.2Zm21.76-22.65a2.61,2.61,0,0,0-1-.83,1.15,1.15,0,0,0-1.64.68c-.23.59.22,1,.82,1.12S609,444.67,609.44,443.55Zm-6.13,42.69c.45,1.13,1.12,1.27,2,1a.86.86,0,0,0,.37-.6c0-.15-.22-.53-.45-.53C604.66,486.09,604,486.17,603.31,486.24Zm4.41,9.87c-.89-1.34-.89-1.34-2.69-.82C606.08,496.79,606.08,496.79,607.72,496.11Z" style="fill:#020103"/><path d="M738.21,549.43a81.58,81.58,0,0,0-13.53-1c-2.7.07-5.31.07-7.71-1.5-.3-.22-.74-.15-1.19-.22-.38-2-1.35-3.74-1.27-5.91.22-5,.15-10,0-15-.08-3.51-.6-7-.6-10.47-.08-6.8.07-13.53-.08-20.34-.3-11.29.6-22.43,1-33.72a5.31,5.31,0,0,1,.15-1.57c.83-1.95.08-3.74-.29-5.54-.45-2.39-2.17-3.36-4.19-3.81a20.23,20.23,0,0,0-3.67-.15c-3.81,0-7.55.15-11.36.08-2.55-.08-5.09-.38-7.56-.53a20.65,20.65,0,0,1-1.34-2.32,14.58,14.58,0,0,1-1.12-5.9c0-5.54-.08-11.15.07-16.68a27.74,27.74,0,0,1,1.12-4.71,4.27,4.27,0,0,1,3.52-3,8.59,8.59,0,0,1,2.39-.37c4.71-.3,9.5-.45,14.21-.75,2.39-.15,4.86-.38,7.25-.45,1.87,0,3.74.22,5.61.37,3.66.3,7.25.68,10.92.9,1.57.08,3.21-.37,4.86-.37,7.18-.08,14.36-.08,21.53-.08a9.13,9.13,0,0,1,2,.15,16,16,0,0,0,7.26.08c4.71-.9,9,.44,13.53,1.87.82,3,1.72,5.75,1.5,8.82-.08,1.05.07,2.17.07,3.21.23,4.34.45,8.68.53,12.94a4.09,4.09,0,0,1-.53,2.32c-1.72,2.62-3.81,4.56-7.25,4.34-4.34-.23-8.68.22-12.94-.83a6.78,6.78,0,0,0-5.46.9c-2.84,1.8-3.29,4.71-2.91,7.48s.45,5.38.59,8.07c.3,4.72.6,9.43.68,14.21.15,10.55.15,21.16.22,31.71,0,5.53.3,11.14-.15,16.67-.37,4.86-.6,9.72-.74,14.58a5.62,5.62,0,0,1-5.61,5.69c-2.32.07-4.64.07-6.88.07C739.93,548.76,738.88,548.53,738.21,549.43Z" style="fill:#020103"/><path d="M284.31,451.77h-1.79c-1.8-1.42-3.52-2.92-5.39-4.19a14.87,14.87,0,0,0-3.89-2.09c-3.06-1.05-6.2-1.87-9.34-2.77a8.33,8.33,0,0,0-3.59-.37,23.45,23.45,0,0,0-9.05,3.44,5.27,5.27,0,0,0-2.32,2.77c-1.42,4.33-.45,7.92,3.07,10.46a21.36,21.36,0,0,0,4.26,2.4c6.73,2.76,13.83,4.56,20.79,6.65a6.06,6.06,0,0,0,1.19.15c3.22.6,6.29,1.35,8.83,3.67a36.63,36.63,0,0,0,4.41,2.84,23.23,23.23,0,0,1,2.54,1.94c2.92,2.62,5,6,7.11,9.27.89,1.43.89,3.37,1.27,5.09a.53.53,0,0,0,.15.37c1.87,2.92,1.49,6.21,1.87,9.43s-.38,6.73-.45,10.09a34.84,34.84,0,0,1-2.1,11.44,51.73,51.73,0,0,1-5.31,10.4,17.54,17.54,0,0,1-5,5.23,11.08,11.08,0,0,0-4.26,4.79c-.45.14-1,.37-1.42.52a3.89,3.89,0,0,0-4.34,2.69l.08-.07a4.73,4.73,0,0,0-1.12.22,34.51,34.51,0,0,1-13.31,4.11,62.61,62.61,0,0,0-6.36.75,25.52,25.52,0,0,0-3.44.9,6.25,6.25,0,0,0-1.34-.75c-2.62-.3-5.24-.45-7.71.6a38.28,38.28,0,0,1-18.47-3.52,15.8,15.8,0,0,0-7.85-1.57,12.3,12.3,0,0,0-4.56-4.41c-1.05-.6-1.94-1.42-2.92-2.09a19.91,19.91,0,0,0-3.29-2.32,11,11,0,0,1-3.36-2.77,1.52,1.52,0,0,0-.82-1.72c-1-3.51.07-6.58,2-9.49a33.48,33.48,0,0,0,2.54-4.49,10.87,10.87,0,0,0,.52-2.69,2.37,2.37,0,0,0,2.47-1c1.12-2,2.77-3.59,3.14-5.91l-.15-.23.15.15c1.05-.74,2.17-1.42,3.22-2.16.22-.15.07-.68.14-1.05h.38c4-1.12,6.88.52,9.35,3.51a33,33,0,0,1,4.93,3.52c2.62,2.61,6.21,3.81,9,6.2a4.63,4.63,0,0,0,1.87.75c4.12.6,8.3,1.42,12.42,0a8.58,8.58,0,0,1,2.39-.45,5.5,5.5,0,0,0,4.41-3.21c.6-1.05.82-2.4,1.57-3.29,1.57-1.8,1.42-3.67,1-5.69-.6-3.21-1.87-5.9-4.86-7.47a15.48,15.48,0,0,1-1.27-1,25.71,25.71,0,0,0-6.88-3.36c-4.94-1.27-9.87-2.92-14.73-4.41a15.75,15.75,0,0,1-2.62-1.05c-3.81-2.32-8.15-3.66-11.67-6.43-.44-.3-1-.45-1.42-.75a3.2,3.2,0,0,0-3.44.15,22.71,22.71,0,0,0-3.66-7.1,59.83,59.83,0,0,1-4.26-7.78,3.74,3.74,0,0,1-.38-2.39c.45-1.95-.15-3.74-.67-5.54a25.28,25.28,0,0,1-.37-10.84,38,38,0,0,0,.59-10.47c.53-.07,1.2.08,1.43-.22a5.66,5.66,0,0,0,1.57-2.24c1.42-4.12,4.56-7,6.87-10.47a5.87,5.87,0,0,1,1.87-1.42,7.18,7.18,0,0,0,3.67-3.59c1.34-.83,2.69-1.72,4.11-2.55a14.58,14.58,0,0,1,3.59-1.72,7.42,7.42,0,0,0,5-4c.08.3.15.89.3,1a2.93,2.93,0,0,0,1.94.22c2.32-.75,4.71-.52,7.11-.67,1.27-.08,2.69.22,3.74-.9a6.34,6.34,0,0,0,4.26-.3,3,3,0,0,0,3.06.08c.6.07,1.2.07,1.8.15,1.2,1.19,2.77.67,4.19.82,1.87.22,3.74.22,5.61.6a53.76,53.76,0,0,1,19.14,7,7.52,7.52,0,0,0,1.87.45c.67,1.94,2.39,3,3.74,4.33a19.43,19.43,0,0,1-1.95,7.33,16.27,16.27,0,0,0-1,3.07,5.78,5.78,0,0,1-.9,2.24,14.06,14.06,0,0,0-2.69,5.38A11.87,11.87,0,0,1,284.31,451.77Z" style="fill:#020103"/><path d="M153.15,453c.15-.53.53-1.05.45-1.5-.15-2,.15-4,0-6-.6-6.88.52-13.68-.22-20.56a13.75,13.75,0,0,1,.74-5.16,6.25,6.25,0,0,1,6.21-4.19c1.2.07,2.39.07,3.59.07,2.77.38,5.38-.67,8-1,1.27.3,2.62.53,3.89.82,1.5.08,2.92.23,4.41.3,2.32.08,4.64-.07,6.88.15,3.89.45,5.53,2.32,5.46,6.13a33.13,33.13,0,0,0,.45,7.26,9.56,9.56,0,0,1-.23,3.21c-.3,2-.89,4-.22,6a13.34,13.34,0,0,1,.37,7.1,13.19,13.19,0,0,0-.07,4.86,13.71,13.71,0,0,1-.15,5.23c-.37,1.5.37,2.92.45,4.34s-.45,3.14-.53,4.79a35.58,35.58,0,0,0,.38,4,10.85,10.85,0,0,0-.3,1.57c.07,4.64.15,9.35.22,14,0,1.57,0,3.22.08,4.79,0,.82,0,1.65.07,2.47v7c-.52.59-.52.82,0,1.42.23,1,.38,2,.6,3.06a62.36,62.36,0,0,0-.52,19.37c-.08,1.35-.15,2.62-.23,4-.07,2.62-.15,5.31-.15,7.93,0,1.2.15,2.39.15,3.59a8,8,0,0,0-.22,1.87,6.86,6.86,0,0,1-7.33,7.7,71.77,71.77,0,0,0-8,.6c-2.47,0-4.86-.08-7.33-.08s-5.08.15-7.63.15a25.08,25.08,0,0,1-5.23-.52,4.48,4.48,0,0,1-3.89-4.86c-.07-4,0-8.08.08-12.11,0-1.72.3-3.52-1-4.94,0-2.69-.37-5.46.07-8.08.9-5.23.68-10.54.75-15.77.08-4.56-.07-9.2,0-13.76s.53-9,.15-13.39c-.37-4.18.15-8.37-.07-12.49C153.23,459.25,153.38,456.11,153.15,453Zm17.13,65.8c1-.3,1.72-.45,2.46-.75s1.27-.82.9-1.49a2.26,2.26,0,0,0-1.57-1,4.61,4.61,0,0,0-2.24.52c-.38.15-.83.9-.68,1.2A3.66,3.66,0,0,0,170.28,518.77Zm13-73.35c0-.3,0-.45-.08-.53A1.65,1.65,0,0,0,181,443.7a1.19,1.19,0,0,0-.59.89,1.65,1.65,0,0,0,2,1.42C182.84,446,183.06,445.56,183.29,445.42Zm-13.91.59c1.34,1.2,2.54.9,3.81-.15C171.17,444,171.17,444,169.38,446Z" style="fill:#020103"/><path d="M558.89,437.56c-1,.38-1.27,1.27-1.34,2.25-.23,4-1.12,8-.75,12.11v.37a67.49,67.49,0,0,1,0,12.87,116.93,116.93,0,0,0-.07,12.56c.22,5.38.37,10.77-.68,16.15a12.93,12.93,0,0,0-.07,2.39c.3,6.51-1,12.87-1.35,19.37a19.52,19.52,0,0,1-1.42,5.83c-1.27,3.29-2.24,6.66-4.11,9.65a7.3,7.3,0,0,0-.6,1.87l-.07.07c-.6.3-1.5.38-1.72.83-2,3.51-5.24,5.75-8.23,8.3a25.65,25.65,0,0,1-7.7,4.48,75.78,75.78,0,0,1-15.26,3.82,124.46,124.46,0,0,1-21,1.19c-2.24-.07-4.56.15-6.88.3-.9-.07-1.79-.07-2.62-.15-1.49-1.42-3.44-1.27-5.31-1.34a12.86,12.86,0,0,1-4.41-.53c-4.41-1.72-8.9-3.29-13.31-4.93a20,20,0,0,1-4-2,76.53,76.53,0,0,1-5.91-4.94,15.92,15.92,0,0,1-3.14-3.21c-2.77-4-5.38-8.08-6.8-12.86-.3-.9-.83-1.72-1.2-2.55a5.4,5.4,0,0,1-.67-1.86c-.6-4.87-1.27-9.65-1.57-14.51-.38-5.16-.38-10.25-.53-15.41a6,6,0,0,1,.08-1.19,58.26,58.26,0,0,0-.08-15.33,27.2,27.2,0,0,1,0-4.86c.08-1.72.3-3.52.3-5.24.08-6.65.08-13.31.08-19.89.07-6.2.3-12.48.22-18.69,0-3.14,1.8-5.46,5-5.76,1.5-.15,3-.37,4.41-.37,2.17-.08,4.34-.15,6.51-.08,5.38,0,10.84.08,16.23.15a9.31,9.31,0,0,1,2,.3,3.35,3.35,0,0,1,2.32,1.42,10.72,10.72,0,0,1,2.25,7.18c-.08,10.17,0,20.34-.15,30.51-.08,4.86.59,9.8-.45,14.58a6,6,0,0,0,0,1.2c.22,3.51.37,7,.6,10.47.3,6.65.59,13.23,1,19.89.07,1.64.6,3.21.67,4.78.23,4.26,2.92,6.81,6.13,9,3.74,2.54,8,3.21,12.34,3.59,4.86.44,9-1.58,12.94-4.12a10.24,10.24,0,0,0,2.91-3.29,46.77,46.77,0,0,0,3.07-6.13,9.25,9.25,0,0,0,.75-3.14c.22-2.54.3-5.16.37-7.7.08-5.69-.07-11.37,0-17.05s.38-11.67.45-17.5c0-3.36-.37-6.73-.45-10.09-.07-4.34-.07-8.68-.07-13s.52-8.89-.08-13.31a6,6,0,0,1,2.32-5.38,11.73,11.73,0,0,1,8.67-2.77c3.89.23,7.86.3,11.74.3a17.91,17.91,0,0,0,3.52-.75,18.43,18.43,0,0,0,3.44.75,22.78,22.78,0,0,1,7.4,1.35,7.26,7.26,0,0,0,.45,1.34c.75,1.2,1.5,2.32,2.24,3.44,0,3.52.08,7,0,10.55A15.15,15.15,0,0,0,558.89,437.56Z" style="fill:#020103"/><path d="M866.6,654.57a45.52,45.52,0,0,0-6.5-.15c-5.54.37-10,3.21-13.91,6.8a81,81,0,0,0-7.63,8.3,46.36,46.36,0,0,0-3.36,5.54c-2,3.21-3.89,6.5-6.81,9-.37.3-.9.52-1.42.9a4.6,4.6,0,0,1-1.64-4c.07-4.34.22-8.68.44-12.94.08-2,.45-4,.45-6.05a9.82,9.82,0,0,0-.82-3.89,4.22,4.22,0,0,0-5-2.47,4.41,4.41,0,0,0-3.36,4c-.08,1-.08,2.17-.23,3.21-.37,1.87-1.27,2.47-3.81,2.62-.53.07-1,.22-1.5.3-.45.3-.82.75-1.34.82-5.61,1.57-11.22,3.07-16.83,4.56a6.2,6.2,0,0,1-1.2.23,1.71,1.71,0,0,1-1.79-1.35,9.09,9.09,0,0,1-.07-2c.29-4.18.67-8.37,1-12.56a36.6,36.6,0,0,0,.3-4,133,133,0,0,1,2.1-18.09,146.94,146.94,0,0,1,3.88-17,27.39,27.39,0,0,1,1.35-3.36,2.76,2.76,0,0,1,3-1.65,2.69,2.69,0,0,1,2.24,2.1l.9,3.14a67.42,67.42,0,0,1,1.72,17.34c-.07,3.37-.15,6.81-.22,10.17a23.14,23.14,0,0,0,.15,3.22,3.11,3.11,0,0,0,2.91,2.39,2.7,2.7,0,0,0,2.92-1.72,23.67,23.67,0,0,0,.75-4c.15-1.72.15-3.52.22-5.24.08-3,.23-6,.08-9-.38-6.35-.75-12.71-3.44-18.69a15.47,15.47,0,0,0-3.07-4.71,7.79,7.79,0,0,0-11.22-.3,23.79,23.79,0,0,0-7,11.14c-.29,1.05-.52,2.17-1.57,2.69a1.17,1.17,0,0,1,.15.37c-.07.23-.15.53-.22.75s-.08.53-.15.75c-.22,1.65-.52,3.22-.75,4.86-.15,2.62-.45,5.16-.82,7.7-.08.3-.52.6-.75.83,0,.67-.07,1.34-.07,1.94a3.9,3.9,0,0,1-.3,4.11c-.08,1.65-.15,3.29-.3,4.86-.9,3.74-.75,7.48-.67,11.29.07,4.34.29,8.68.29,13a4.38,4.38,0,0,1-4.11,4.71,18.52,18.52,0,0,1-6.43-.08,17.88,17.88,0,0,0-4.86-.3,9.46,9.46,0,0,0-5.83,2.54,1.8,1.8,0,0,0-.15,2.85,32.5,32.5,0,0,0,2.77,2.39c4.56-1,8.82-2,13-2.84,3.59-.68,5,.45,5.46,4.11.29,2.69.67,5.38.82,8.08q.23,6.5.22,13a49.38,49.38,0,0,0,2.1,13.61,7,7,0,0,0,.67,1.87,3.25,3.25,0,0,0,3.21,1.34,2.16,2.16,0,0,0,1.28-2.32v-3.21c0-2.17.07-4.34.07-6.51-.07-.82-.07-1.57-.15-2.39a3.94,3.94,0,0,1-.6-1.42c-.37-5.38-.75-10.77-1-16.15a28.83,28.83,0,0,1,.22-3.59c0-1-.07-2-.07-3.07a11.3,11.3,0,0,1,.14-3.14,3.37,3.37,0,0,1,1.72-2c1.72-.74,3.44-1.64,5.39-1,.52-.08,1-.23,1.57-.3,1.49-1.42,3.59-1.05,5.31-1.65,3.36-1.12,6.8-1.87,10.17-2.84,2.09-.6,2.91.08,3.21,2.24.9,7,.68,14.06.68,21.09,0,1.8,0,3.52.15,5.31.3,3.51,2.61,5.09,6,4a23.15,23.15,0,0,0,3.59-1.87,6.38,6.38,0,0,1,.37-1.12c-.22-5.16,2.24-9.42,4.94-13.46,5-7.7,11.29-14.43,17.27-21.46a12.3,12.3,0,0,1,6.8-4.19c4.19-1,8.38-2.16,12.79-1a3.62,3.62,0,0,0,1.95-.3c1.72-.82,1.94-2.25.82-3.59C871.39,655.46,869.07,654.79,866.6,654.57Z" style="fill:#231f20"/><path d="M956.86,697.19l-.23-.07h0v.07Z" style="fill:#231f20"/><path d="M985.57,699.66c-1.27-4.71-2.46-9.42-3.81-14.06a15.1,15.1,0,0,1-.37-7.55c.74-3.74,1.12-7.48,1.57-11.22.52-4-1.13-7.1-4.19-9.57a12.07,12.07,0,0,1-1.42-1.35c-.82,0-1.72.08-2.54.15-.08.08-.15.23-.3.3-3,.45-5.69,1.8-8.6,2.54h-.3a3.64,3.64,0,0,1-2.77,1.57h0a1.63,1.63,0,0,1-1.94,1.35l-.15.23h-.23a32.63,32.63,0,0,1-2.69,2.91c-6.5,5.54-12.41,11.59-16.75,19.07-2,3.51-4.19,7-5.23,10.92a27.6,27.6,0,0,0-.83,3.59,7.18,7.18,0,0,0,10.25,7.32,21.92,21.92,0,0,0,6-4.18c1.65-1.57,3.07-3.44,5.24-4.34,0-.82.37-1.35,1.19-1.35l.23-.07a16.23,16.23,0,0,1,1.19-1.12l.15-.3a3.43,3.43,0,0,1,.6-1.42c3.07-3.29,6.13-6.58,9.27-9.87.15-.15.45-.15.75-.23.37-1.49,1.2-3,2.84-2.46,1.35.44,1.42,2,1,3.43a10.56,10.56,0,0,1,.15,1.58c1.13,1.12.75,2.54.9,3.81a21.2,21.2,0,0,0,4,10.84c1.27,1.8,2.77,2.92,5.08,2.39.53-.07,1-.22,1.8-.29A7.33,7.33,0,0,0,985.57,699.66ZM963,679.24a206.16,206.16,0,0,1-15.33,15,8.36,8.36,0,0,1-.9.82,2.2,2.2,0,0,1-2.24.6c-.67-.22-.75-1.12-.22-2.54a26.84,26.84,0,0,1,1.72-3.67,48.59,48.59,0,0,1,7.92-10.69c2-2,4-4.11,6.13-5.91a53,53,0,0,1,6.58-4.71,7.38,7.38,0,0,1,3-1c.52-.08,1.12.37,1.87.67A58.57,58.57,0,0,1,963,679.24Z" style="fill:#231f20"/><path d="M929.34,694.35a27,27,0,0,1-17.35,7.7c-6.2.37-9.64-3-10.84-8.22a30.21,30.21,0,0,1,1.57-18,15.21,15.21,0,0,1,1.79-2.62c.08-.3.23-.67.3-1a2.12,2.12,0,0,1,1.35-2.24l.07-.3c.3-.3.6-.68.9-1h-.07c.3-2.4,2.09-3.59,3.89-4.87,1.34-.89,2.76-1.72,4.78-.89.45,1.27.9,2.76,1.42,4.26a9.41,9.41,0,0,0,9.5-3.22,22.23,22.23,0,0,0,3.59-4.33,3.53,3.53,0,0,0,.22-3.44c-.52-1.12-1-2.17-1.57-3.52A17.39,17.39,0,0,0,926,652a37.2,37.2,0,0,0-12.42,1.65,23.93,23.93,0,0,0-10.47,7.32,39.23,39.23,0,0,0-9.94,26,60.87,60.87,0,0,0,.67,10.47c.53,3.37,1.95,6.51,5.16,8.38,1.42.82,2.84,1.57,4.19,2.39a12.26,12.26,0,0,1,1.42,1.27,17.88,17.88,0,0,0,2,.37c2.17-.15,4.34-.3,6.5-.52h.3a3.72,3.72,0,0,1,1.2-1,69.2,69.2,0,0,1,7.63-2.47c3.66-1,6.43-3.22,9.27-5.46a5.27,5.27,0,0,0,1.72-3.51c.22-1.2-.67-2-1.42-2.77C931,694.2,930.16,694.27,929.34,694.35Z" style="fill:#231f20"/><path d="M764.83,695.62c-1.64-4.41-3.29-8.9-4.86-13.31-.75-2-1.5-4-1.35-5.68a22.13,22.13,0,0,0,3.59-3.14,3,3,0,0,0-1.87-4.71,6,6,0,0,0-2-.15c-2.47.29-3.82-1-4.72-3.07a27.88,27.88,0,0,1-1.42-3.37c-1.72-7.1-4.86-13.75-5.9-21.08a7.26,7.26,0,0,0-.3-1.2,98.16,98.16,0,0,1-4.86-12.86,11.82,11.82,0,0,0-1.5-2.54c-3.36,0-5.08,1.57-5.68,4.48-.15.68-.38,1.27-.53,2-1,3.59-2.16,7.25-3.14,10.84-2,7.55-5.16,14.81-6.58,22.58a61.55,61.55,0,0,1-2.84,9.35c-1.19,3.14-.82,6.73-2.84,9.65a2,2,0,0,0-.22,1.19c-.15,4.12-1.65,7.85-2.47,11.82a64.71,64.71,0,0,0-1.72,16.52A5.77,5.77,0,0,0,717,718a4.48,4.48,0,0,0,6.66-3.52c.15-1.72.07-3.51.07-5.31.08-6-.07-12.11.75-18.24s4.19-9.42,9.42-10.92c4.64-1.27,9.42-2.54,15-1.57a11.78,11.78,0,0,1,1.64,2.17c1.87,4.19,4.27,8.15,5.46,12.64.9,3.14,1.8,6.2,1,9.49-.44,1.57.83,3.89,2.1,4.57a4.81,4.81,0,0,0,4.86-1,4.57,4.57,0,0,0,1.72-3.14A20.08,20.08,0,0,0,764.83,695.62Zm-19-24.23c-.75.15-1.57.3-2.32.38-2.47.07-4.86.07-7.33.07a12.56,12.56,0,0,1-2.39-.07c-2.84-.45-4-2.1-3.29-4.94l6-20.94c.08-.22.38-.37,1-1a9.2,9.2,0,0,1,1.19,1.8c.53,1.34,1,2.76,1.5,4.18,1.79,4.94,3.51,9.87,5.31,14.81A9.75,9.75,0,0,1,745.84,671.39Z" style="fill:#231f20"/><path d="M745.84,671.39c-.75.15-1.57.3-2.32.38-2.47.07-4.86.07-7.33.07a12.56,12.56,0,0,1-2.39-.07c-2.84-.45-4-2.1-3.29-4.94l6-20.94c.08-.22.38-.37,1-1a9.2,9.2,0,0,1,1.19,1.8c.53,1.34,1,2.76,1.5,4.18,1.79,4.94,3.51,9.87,5.31,14.81A9.75,9.75,0,0,1,745.84,671.39Z" style="fill:#0075ff"/><path d="M886.79,657c-3.81-.15-5.31.67-5.68,5.53a11.81,11.81,0,0,0,.07,1.65c0,.67.08,1.34.08,2,.3,10-1,20-1.72,29.91a48.94,48.94,0,0,0-.08,5.68,5,5,0,0,0,2,3.82c1.8,1.34,3.89.74,4.49-1.35a18,18,0,0,0,.6-4c.07-2.7,0-5.39.07-8.08a98.25,98.25,0,0,1,.6-10.47c.9-5.46,2.1-10.84,3.29-16.23.67-3,.38-5.6-2.09-8.07A3.63,3.63,0,0,0,886.79,657Z" style="fill:#231f20"/><path d="M882.38,628.4c-2.39-.45-4.19.67-5.38,3a3.76,3.76,0,0,0,1.49,5.23c3.07,2,6.58,2.39,10,2.84,1.72.23,2.77-1,2.54-2.84C890.68,633,887.32,628.1,882.38,628.4Z" style="fill:#231f20"/><path d="M421.15,548.53a.57.57,0,0,0-.44.6c-6.21.08-12.42.3-18.62-.45a20.76,20.76,0,0,0-6.44,0c-4,.75-7.77-.22-11.51-1a5,5,0,0,1-3.44-2.55c-3.44-5.75-6.88-11.51-9.87-17.57-1.05-2.17-2.17-4.34-3.29-6.5a5.92,5.92,0,0,0-1.42-1.28v-.07c-1.57-3.29-3-6.66-4.64-9.87-.9-1.8-2.62-2.69-4.41-3.44-1.2-.52-2.39,0-3.51.52-.53.23-.83.9-1.35,1.42,1.27.83,2.24,1.42,3.14,2a5.77,5.77,0,0,1-.37,3.74,4.31,4.31,0,0,0-.38,2c.38,3.73.68,7.55,1.27,11.29a70.42,70.42,0,0,1,.53,13.76,15.76,15.76,0,0,1-.75,3.58,5.47,5.47,0,0,1-4.71,3.82,17.59,17.59,0,0,1-2.84.15c-6.21,0-12.49-.08-18.7,0a26.2,26.2,0,0,1-7.55-1.42,3.28,3.28,0,0,1-2.54-3.59c.07-3.67-.08-7.33,0-11,.07-5.69.15-11.37.3-17.05.37-12.42-.75-24.9.37-37.32,0-.37-.07-.82-.07-1.19-.15-3.82-.3-7.56-.38-11.37,0-3,.23-5.91.15-8.9a28.49,28.49,0,0,1,.23-5.61,25.39,25.39,0,0,0,0-5.23c-.08-1.05-.3-2.17-.3-3.22,0-4.33.07-8.67,0-13-.08-3.21.82-6.13,1.57-9.2A3.26,3.26,0,0,1,324,418c.9-.15,1.94.08,2.54-1,.82.07,1.57.3,2.39.3l17.2-.23a8.82,8.82,0,0,0,1.8.68,87.53,87.53,0,0,0,20.26-.9,25.35,25.35,0,0,1,8.9-.07c3.37.52,6.66,1.19,10,1.42,4.56.3,8.45,2.69,12.71,3.81a4.18,4.18,0,0,1,1.42.75c2.25,1.94,4.71,3.44,6.73,5.76,1.5,1.72,2.47,3.88,4.19,5.38a14.82,14.82,0,0,1,3.59,6.21c.45,1.12.75,2.31,1.2,3.44a14.67,14.67,0,0,1,1.34,7.55c-.45,4.48,1,8.9.15,13.31.82,2.17-.15,4.19-.6,6.28-1.49,6.88-6.05,12-10.39,17.12a2.42,2.42,0,0,1-1,.75c-2.4,1.27-4.71,2.69-7.18,3.74a18.44,18.44,0,0,0-5.16,3.22,6.85,6.85,0,0,0,.37,5.16c1.2,2.09,2.62,4,4,6.05.45.68,1.27,1.2,1.49,1.87,1.12,3,3.82,4.86,5.46,7.48.37.6,1.27,1,1.94,1.42.08.37.15.82.23,1.2-.15,1.42.9,2.17,1.72,3.06A46.54,46.54,0,0,1,413,526a50.15,50.15,0,0,0,8.23,9.42l-.08.3a7.55,7.55,0,0,0,1.87,5.08c2.25,2.92,2,4-1.27,6.43A7.67,7.67,0,0,0,421.15,548.53Zm-65.58-87.34h0c0,3.14,0,6.21-.07,9.35a11,11,0,0,0,1,4.34,4.06,4.06,0,0,0,3.74,2.61A28.23,28.23,0,0,0,371.35,476c3.52-1.2,5.91-3.74,8.38-6.13a2.74,2.74,0,0,0,.6-1.42,37.93,37.93,0,0,0,1-9.65,9.2,9.2,0,0,0-2.17-6,21.15,21.15,0,0,0-18.69-6.73,5.3,5.3,0,0,0-4.94,5.46Z" style="fill:#020103"/></svg>