<svg xmlns="http://www.w3.org/2000/svg" xml:space="preserve" id="Layer_1" x="0" y="0" viewBox="0 0 441.1 76.96"><style>.st0{fill:#282828}</style><g id="Path_2344_3_"><path d="M26.63.17H43.7l-.56 39.5c0 19.89-7.27 30.77-22.88 34.15-5.51 1.3-11.19 2.23-16.85 2.8l-3.26.34L0 58.51l2.92-.12a64.4 64.4 0 0 0 16.96-2.96c3.04-1.18 6.71-4.07 6.34-15.63v-.07l.41-24.82zM231.45 3.2c1.67 2.11 2.48 4.66 2.37 7.27v61.87h-16.56V33.68l-22.18 34.18c-.96 1.52-2.33 2.89-3.92 3.82-1.55.93-3.19 1.4-5.1 1.37-3.7 0-7.18-2.04-9.04-5.34l-22.47-34.43v39.06h-16.59V9.75c-.15-2.37.66-4.82 2.3-6.78 1.77-1.86 4.14-2.82 6.52-2.74 3.19-.15 6.44 1.52 8.36 4.41l31.04 45.65 30.4-45.55c1.74-2.89 5-4.7 8.45-4.51 2.24-.09 4.74.97 6.42 2.97M329.29 6.08c-2.33-4.92-8.3-7.05-13.26-4.78-2.08 1.03-3.78 2.7-4.78 4.78l-39.59 66.35h19.99l10.22-18.25 36.51-.15 10.44 18.3h19.23zm-1.05 31.01h-16.69l8.26-13.82zM127.06 50.34c.47 6.22-2.23 12.4-7.18 16.32l-.34.22c-5.81 3.38-12.27 5.15-18.89 5.15-.93 0-15.88-.1-15.88-.1-1.93 0-3.92-.07-5.9-.15a35 35 0 0 1-6.4-.81c-2.11-.44-4.16-1.12-6.15-2.03-2.04-.96-3.85-2.26-5.37-3.92l-.03-.03a18.6 18.6 0 0 1-3.73-6.08 22.8 22.8 0 0 1-1.4-8.63V.24h16.34v49.44c0 1.33 0 5.37 11.25 5.37H99.7c11 0 11-4.04 11-5.37V.24h16.37zM245.3.91h17.15v71.72H245.3z" class="st0"/></g><path d="M436.01 17.15c-.61-1-1.28-1.94-2.01-2.84-.98-1.4-2.1-2.69-3.35-3.84l-1.18-1.18-2.67-2.26-2.69-1.86-1.49-.83A34.55 34.55 0 0 0 405.72 0a33.7 33.7 0 0 0-16.9 4.34l-1.49.83-2.84 1.86-2.69 2.26-1.18 1.18a25 25 0 0 0-3.35 3.84 33.9 33.9 0 0 0-6.23 14.06c-.54 2.37-.81 4.76-.83 7.18.05 3.58.61 7.13 1.67 10.54a38 38 0 0 0 1.86 4.83l1.67 3.02 1 1.33c.57 1.01 1.25 1.98 2.01 2.84 1.45 1.77 3.08 3.38 4.83 4.83l2.69 2.01c.88.66 1.84 1.22 2.84 1.67a34.14 34.14 0 0 0 16.88 4.36c5.9.02 11.69-1.42 16.9-4.17l1.52-1.01a36 36 0 0 0 4.17-2.84c.83-.83 1.82-1.49 2.5-2.26l2.26-2.5 2.01-2.69 1.01-1.49a36.47 36.47 0 0 0 5.04-18.48c.08-6.47-1.66-12.86-5.02-18.38h-.07v-.01zm-4.11 9.68-13.06 12.72 3.02 18.08-16.24-8.52-16.03 8.52 3.01-18.08-13.03-12.72 18.08-2.67 8.19-16.41 8.03 16.41z" style="fill:#f8991d"/></svg>