<svg xmlns="http://www.w3.org/2000/svg" xmlns:xlink="http://www.w3.org/1999/xlink" viewBox="0 0 1000 1000"><defs><radialGradient id="a" cx="511.93" cy="335.07" fy="207.2459797983829" r="127.83" gradientTransform="translate(5.02 208.18) scale(0.97 0.39)" gradientUnits="userSpaceOnUse"><stop offset="0" stop-color="#40b93c"/><stop offset="0.17" stop-color="#40b93c" stop-opacity="0.98"/><stop offset="0.32" stop-color="#41b93d" stop-opacity="0.93"/><stop offset="0.46" stop-color="#41ba3d" stop-opacity="0.83"/><stop offset="0.59" stop-color="#42ba3e" stop-opacity="0.7"/><stop offset="0.72" stop-color="#43ba3f" stop-opacity="0.52"/><stop offset="0.85" stop-color="#45bb41" stop-opacity="0.31"/><stop offset="0.97" stop-color="#47bc43" stop-opacity="0.07"/><stop offset="1" stop-color="#47bc43" stop-opacity="0"/></radialGradient><clipPath id="b"><path d="M451.35,294.76c22.28,16.1,38.67-13.93,36.07-17.06-5.83-7-1.83-18.15,10.5-16.4,6.47.92-1.87-35.3-21.83-35.3-18.5,0-45.36,33.3-12.59,44.2-6.66.21-15.37-.41-20.39-2.66C438.72,272,441.22,287.34,451.35,294.76Zm87.8-47.3c-2.31,2.88-6.72,6.89-10.17,7.67,16.22-19.42-6.87-32.74-21.07-32.29-4.13.13-7.79,1.74-8.62,5.88-2.14,10.64,7.25,22.88,4,38.72-2.17,10.77,33.66,21.21,40.24-2.64C544.73,260.65,544.36,251.7,539.15,247.46Zm-40.1,27.87c10.52-2,31.56,26.15.51,36.16C462.46,323.45,489.83,277.06,499.05,275.33Z" style="fill:none"/></clipPath><radialGradient id="c" cx="2068.34" cy="1000.61" r="1.48" gradientTransform="matrix(52.8, -6.66, -6.66, -52.8, -102074.65, 66902.76)" gradientUnits="userSpaceOnUse"><stop offset="0" stop-color="#fde17b"/><stop offset="0.3" stop-color="#fcd205"/><stop offset="1" stop-color="#f89c0e"/></radialGradient></defs><title>Nigeria-Logo</title><rect x="8" y="168.67" width="984" height="662.66" style="fill:#ec1b24"/><path d="M141.76,747.24H110.7q-8,0-8-12.93V505.73q0-12.93,8-12.94h31.06l47.05-.14a140.45,140.45,0,0,1,26.29,3.41,95.08,95.08,0,0,1,25.21,10.41q8.77,4.61,22.3,19.77a98.38,98.38,0,0,1,12,21q6.61,15.6,6.61,40.72v64.21q0,25.11-6.61,40.87a100.15,100.15,0,0,1-12,20.81q-13.53,15.3-22.3,19.91a95.08,95.08,0,0,1-25.21,10.41,140.45,140.45,0,0,1-26.29,3.41l-47.05-.14ZM155.9,542v156.2h33.37c4.51,0,7.58-.24,9.22-.74q29.07-7,29.06-41.17V583.75q0-34.18-29.06-41Q196,542,189.27,542Z" style="fill:#fff"/><path d="M372.12,686.15l-13.07,50.68q-3.09,10.41-11.38,10.41H310.46q-5.85,0-5.84-7a31.08,31.08,0,0,1,.92-6.84l60.27-226.79q2.78-13.83,11.07-13.83h55.36q8.29,0,11.07,13.83l60,226.79a31.08,31.08,0,0,1,.92,6.84q0,7-5.84,7h-36.9q-8.31,0-11.38-10.41L437,686.15Zm51.81-51.27-19.37-75.2-19.37,75.2Z" style="fill:#fff"/><path d="M577,616.75V736.83q0,10.41-8.3,10.41h-36.9q-8,0-8-12.93V505.73q0-12.93,8-12.94h36.9q8.29,0,73.49,133.91v-121q0-12.93,8-12.94H687q8.31,0,8.3,10.41V736.83q0,10.41-8.3,10.41h-36.9Q642.15,747.24,577,616.75Z" style="fill:#fff"/><path d="M718.44,580q0-43.85,36.75-70.9,24.75-16,51.35-16.05v.3a10.22,10.22,0,0,1,2.62-.74,140.57,140.57,0,0,1,26.29,3.41,95.08,95.08,0,0,1,25.21,10.41q8.77,4.61,22.3,19.77a98.38,98.38,0,0,1,12,21q6.62,15.6,6.61,40.72v64.21q0,25.11-6.61,40.87a100.15,100.15,0,0,1-12,20.81q-13.53,15.3-22.3,19.91a95.08,95.08,0,0,1-25.21,10.41,140.57,140.57,0,0,1-26.29,3.41,9.8,9.8,0,0,1-2.62-.74v.3q-26.6,0-51.35-16.05-36.75-27-36.75-71Zm129.46,3.71q0-34.18-29.06-41-2.46-.74-9.22-.74-24.92,0-34.75,22a123,123,0,0,0-2.77,13.83v84.42a114.15,114.15,0,0,0,2.77,13.82q9.84,22.14,34.75,22.14c4.51,0,7.58-.24,9.22-.74q29.07-7,29.06-41.17Z" style="fill:#fff"/><path d="M914.67,495.56a17.74,17.74,0,0,1,8.54,2.25,16,16,0,0,1,6.5,6.43,17.46,17.46,0,0,1,0,17.36,16.17,16.17,0,0,1-6.43,6.43,17.42,17.42,0,0,1-17.3,0,16.2,16.2,0,0,1-6.44-6.43,17.4,17.4,0,0,1,0-17.36,16,16,0,0,1,6.5-6.43A17.8,17.8,0,0,1,914.67,495.56Zm0,2.88a14.82,14.82,0,0,0-7.13,1.88,13.49,13.49,0,0,0-5.43,5.37,14.49,14.49,0,0,0,0,14.47,13.6,13.6,0,0,0,5.38,5.36,14.43,14.43,0,0,0,14.42,0,13.64,13.64,0,0,0,5.37-5.36,14.53,14.53,0,0,0,0-14.47,13.34,13.34,0,0,0-5.42-5.37A14.84,14.84,0,0,0,914.67,498.44ZM907,522.56v-18.7h6.43a15.54,15.54,0,0,1,4.77.52,4.58,4.58,0,0,1,2.35,1.8,4.84,4.84,0,0,1,.87,2.75A5,5,0,0,1,920,512.5a5.77,5.77,0,0,1-3.88,1.7,5.28,5.28,0,0,1,1.59,1,21.47,21.47,0,0,1,2.76,3.71l2.28,3.66h-3.68l-1.66-2.95a15.18,15.18,0,0,0-3.16-4.35,3.87,3.87,0,0,0-2.41-.65h-1.78v7.95Zm3-10.52h3.66a5.93,5.93,0,0,0,3.59-.79,2.55,2.55,0,0,0,1-2.07,2.53,2.53,0,0,0-.46-1.49,2.83,2.83,0,0,0-1.28-1,9.62,9.62,0,0,0-3-.32h-3.43Z" style="fill:#fff"/><path d="M628.61,288.38a10.78,10.78,0,1,0-10.78-10.78,10.78,10.78,0,0,0,10.78,10.78m-128.4-28.77v13.08c-90.87,0-164.53,36.59-164.53,81.72,0,46,73.66,83.32,164.53,83.32,91.09,0,164.93-38.1,164.93-85.1,0-51.37-73.84-93-164.93-93" style="fill:#fff"/><path d="M627.34,274.34h1a3.08,3.08,0,0,1,.8.08,1.27,1.27,0,0,1,.49.26.77.77,0,0,1,.26.39,1.45,1.45,0,0,1,.07.47,1.3,1.3,0,0,1-.35.94,1.92,1.92,0,0,1-1.31.35h-1v-2.49m-2,7.65a3,3,0,0,0,.92.09,2.61,2.61,0,0,0,.88-.09.33.33,0,0,0,.2-.33v-3.13h.59a1.69,1.69,0,0,1,1.11.32,2.58,2.58,0,0,1,.63,1.16l.47,1.53a.71.71,0,0,0,.13.29l.23.15a1.37,1.37,0,0,0,.38.08l.6,0,.68,0,.38-.06.17-.11,0-.16a2.93,2.93,0,0,0-.16-.66l-.54-1.42a3.27,3.27,0,0,0-.8-1.28,2.85,2.85,0,0,0-1-.6,3.2,3.2,0,0,0,1.57-.83,2.28,2.28,0,0,0,.58-1.67,2.62,2.62,0,0,0-.25-1.2,2.12,2.12,0,0,0-.72-.83,3.11,3.11,0,0,0-1.17-.49,6.68,6.68,0,0,0-1.57-.17H626.1a.93.93,0,0,0-.74.29,1.13,1.13,0,0,0-.24.77v8a.34.34,0,0,0,.22.33m3.27-11.36a7,7,0,1,1-6.76,7,6.87,6.87,0,0,1,6.76-7m0,15.69a8.72,8.72,0,1,0-8.73-8.72,8.72,8.72,0,0,0,8.73,8.72m-81.45-17.43a21.84,21.84,0,0,1-2.53,4.85c23.09,5.1,47.6,13.85,65.16,26.52a.68.68,0,0,1-.61,1.21c-29.79-15.48-68.76-23.32-109-23.32-84.95,0-153.82,34.14-153.82,76.26,0,43,68.87,77.85,153.82,77.85,85.16,0,154.2-35.65,154.2-79.62,0-39.22-45-72.43-107.25-83.75" style="fill:#40b93c"/><path d="M583,410.27c.94-.19,1.26.72.39,1.07-21.85,8.85-52.09,13.86-83.2,13.86-75.64,0-137-31.69-137-70.79s61.32-70.79,137-70.79c85.21,0,137.39,36.8,137.12,69-.26,28.4-37.93,55.25-114.15,55.25-31.76,0-72-5.93-104.24-18.85-1.44-.58-2.12,1.49-.82,2.17,35.27,18.83,99.16,32,164.9,19.07" style="fill:#0b4919"/><path d="M500.21,425.2c-75.64,0-137-31.69-137-70.79s61.32-70.79,137-70.79c84.88,0,137,36.51,137.12,68.63v.38c-.26,28.4-37.93,55.25-114.15,55.25-31.76,0-72-5.93-104.24-18.85a1.34,1.34,0,0,0-.49-.1,1.07,1.07,0,0,0-1,1.14,1.25,1.25,0,0,0,.69,1.13c25.47,13.6,65.87,24.22,111.11,24.22A280.12,280.12,0,0,0,583,410.27a1,1,0,0,1,.24,0c.42,0,.67.24.66.51a.72.72,0,0,1-.51.58c-21.85,8.85-52.09,13.86-83.2,13.86m.17-139.42h-.21a254.64,254.64,0,0,0-38.39,2.84c-26.41,4-48.92,12.1-64.22,22.64a63.46,63.46,0,0,0-13,11.57,36.72,36.72,0,0,0-7.19,12.94,28.15,28.15,0,0,0-.45,14.51,35.84,35.84,0,0,0,7.28,14.16,61.13,61.13,0,0,0,12.89,12.45c15.29,10.54,38.3,18.5,64.71,22.51a258.32,258.32,0,0,0,38.39,2.48c14.23,0,25.27-.52,38.35-2.48,29.52-4.44,50.53-13,65.07-22.7,5.39-3.73,9.09-8.07,12.55-12.33a35.39,35.39,0,0,0,7.25-14.18A27.91,27.91,0,0,0,623,335.7a37,37,0,0,0-7.18-12.93,64.57,64.57,0,0,0-13-11.56C588,301,564.11,292.34,538.6,288.62a249.41,249.41,0,0,0-38.22-2.84" style="fill:#0a4919"/><ellipse cx="499.5" cy="340.5" rx="127.5" ry="65.5" style="fill:url(#a)"/><path d="M585.11,340c-1.49,15.49-7.6,31-17.25,31-3.94,0-6.78-3.12-6.78-8.29C561.08,349.33,571.67,335.6,585.11,340Zm14.59-1.25c.89-4.75-.42-6.8-4.69-8-28-7.9-49.3,10-49.3,34.26,0,9.24,4.62,17.93,14.68,17.93,8,0,15.36-5.57,20.52-11.82a34.38,34.38,0,0,0,.25,6.89c.84,4.34,5.27,6.56,15.32,3.3C594.94,375.1,595.69,360.13,599.7,338.7Zm-63.9,10.77c4.89-25.42,6.25-39.34,6.25-43.76,0-1.22-.57-3.14-4.51-3.14a23.51,23.51,0,0,0-11.8,2.87c.41,1.49,1.7,12.23-7.68,56.53-4,18.83-.41,23,15.42,20.25C532,377.59,532,369,535.8,349.47Zm-26.3-20.89c-6.56,0-15,6.27-20.06,16.81.66-4.76,1-10.46.46-13.69-.17-1.05-.81-1.91-3.94-1.77a28.07,28.07,0,0,0-10.87,3.13s2.31,6.34-2.77,38.42c-1.54,9.7,5.09,12.53,16.17,10.74-4.34-6.26,3.58-45.08,21.65-37.07C517.26,334.06,515.31,328.58,509.5,328.58Zm-88.95,24.28c4.82-9.23,11.77-19.57,15.42-27.23.68,6.79,3.59,25.6,3.59,25.6A87.84,87.84,0,0,0,420.55,352.86Zm44.28,29c-5.73-10.08-11.7-36.44-17.51-70.34-.42-2.49-.89-3.29-3-3.26-2.87,0-10.33.82-13.31,1.91-2.17,5.5-5.24,10.76-15.39,26.14-25.7,39-26.9,49.41-4.4,45.91-.54-3.54-.3-8.76,3.91-16.78,0,0,5.4-3,26.33-3.23,3.85,21.4,7,21.6,23.36,19.65" style="fill:#fff"/><path d="M442,261.62c-7.94,5.46-7.41,21.12,1.65,32.17s23.27,12.75,32.47,7.81c-1.79,10.3,3.81,21.08,24.9,14.25,21.27-6.88,22.39-21.15,18.11-31.61,11.92.87,24.5-4.11,28.47-16.49,2.9-9.06,1.07-20.24-8.42-26,.46-13-15.64-24.26-31.46-23.95-8.14.16-13.28,5.33-13.56,12-10.51-11.6-24.71-11.88-38.44-.11-13.22,11.34-15.61,27.18-8.7,33.78a25.61,25.61,0,0,1-5-1.89" style="fill:#fff"/><g style="clip-path:url(#b)"><path d="M451.35,294.76c22.28,16.1,38.67-13.93,36.07-17.06-5.83-7-1.83-18.15,10.5-16.4,6.47.92-1.87-35.3-21.83-35.3-18.5,0-45.36,33.3-12.59,44.2-6.66.21-15.37-.41-20.39-2.66C438.72,272,441.22,287.34,451.35,294.76Zm87.8-47.3c-2.31,2.88-6.72,6.89-10.17,7.67,16.22-19.42-6.87-32.74-21.07-32.29-4.13.13-7.79,1.74-8.62,5.88-2.14,10.64,7.25,22.88,4,38.72-2.17,10.77,33.66,21.21,40.24-2.64C544.73,260.65,544.36,251.7,539.15,247.46Zm-40.1,27.87c10.52-2,31.56,26.15.51,36.16-37.1,12-9.73-34.43-.51-36.16" style="fill:url(#c)"/></g></svg>