<svg id="Layer_1" data-name="Layer 1" xmlns="http://www.w3.org/2000/svg" viewBox="0 0 1000 1000"><defs><style>.cls-1{fill:#007a40;}</style></defs><title>Verdant-logo-new-V-shaped</title><polygon class="cls-1" points="300.52 531.18 247.66 444.24 300.46 555.77 344.61 483.99 358.37 508.52 344.93 458.97 300.52 531.18"/><path class="cls-1" d="M266.11,492.23,262,490.86l3.25-2.9a16.81,16.81,0,0,0-24.9,7.4,16.82,16.82,0,0,0,25.78-3.13Z"/><path class="cls-1" d="M270.51,469.73l-.37-3.71-3,2.18a14.38,14.38,0,0,1,10.83-19.4,14.37,14.37,0,0,1-7.43,20.93Z"/><path class="cls-1" d="M431.11,544a24.17,24.17,0,0,1-8.15,7.21A36.91,36.91,0,0,1,409,555.42a47.45,47.45,0,0,1-10.11,0,43.28,43.28,0,0,1-9.3-2,25.13,25.13,0,0,1-9.16-5.39,29.78,29.78,0,0,1-3.37-3.37q-1.49-1.62-3.17-3.84a33.18,33.18,0,0,1-3.17-5.19,28.61,28.61,0,0,1-2-4.85,35.63,35.63,0,0,1-1.41-4.92,32.29,32.29,0,0,1-.74-5.73c-.09-.71-.19-1.52-.27-2.42a30.53,30.53,0,0,1,0-5.93,49.86,49.86,0,0,1,5.52-17.93,39.7,39.7,0,0,1,4.45-6.67,29.92,29.92,0,0,1,6.47-5.86,34.53,34.53,0,0,1,8.76-4.18,39.6,39.6,0,0,1,11.32-1.75,28.65,28.65,0,0,1,11.32,3,36.71,36.71,0,0,1,5,3,32.89,32.89,0,0,1,5.06,4.51,45.12,45.12,0,0,1,4.85,6.4,57.33,57.33,0,0,1,4.38,8.56c0,.09.14.63.4,1.62a21.31,21.31,0,0,1,.61,3.23,12,12,0,0,1,0,3.17c-.13.94-.56,1.42-1.28,1.42H429.9q-2.7,0-6.61.06c-2.6.05-5.55.07-8.82.07H378.15a39,39,0,0,0-.27,8.09,76.36,76.36,0,0,0,1.14,8.35,36.85,36.85,0,0,0,3.17,9.44,33.66,33.66,0,0,0,4.72,7.41A30.44,30.44,0,0,0,393,549a17.58,17.58,0,0,0,8.76,2.9,34.31,34.31,0,0,0,8.62-.27,36.9,36.9,0,0,0,7.35-2.29,15.37,15.37,0,0,0,6.54-5.39ZM380,501a4.79,4.79,0,0,0,.14,2.63,2.27,2.27,0,0,0,.94,1.14,1.93,1.93,0,0,0,1.48.27H421c1.71,0,2.74-.61,3.1-1.82a8.44,8.44,0,0,0,.07-4.11,23.24,23.24,0,0,0-1.48-4.58c-.68-1.53-1.2-2.61-1.55-3.24q-4-6.74-8.49-9.36a22.94,22.94,0,0,0-8.22-3.17,17.63,17.63,0,0,0-8.63,1.08,19.65,19.65,0,0,0-3.64,1.75c-1,.63-1.84,1.21-2.56,1.75a13.82,13.82,0,0,0-2,1.89,17.54,17.54,0,0,0-3.44,4.51,42.13,42.13,0,0,0-2.36,5.19A46.83,46.83,0,0,0,380,501Z"/><path class="cls-1" d="M466.49,481.71a27.24,27.24,0,0,0-9.24,4.44,26.93,26.93,0,0,0-7,8.22l.27,61.46H440L439.73,479l10.65-.13-.13,8.08a28,28,0,0,1,9.7-6.87,42.59,42.59,0,0,1,9.7-2.83,41.13,41.13,0,0,1,10.51-.27l2.09.27a13.6,13.6,0,0,1,2,.4L480,482.11Q472.08,480.09,466.49,481.71Z"/><path class="cls-1" d="M495.8,540.73a40.61,40.61,0,0,1-4.86-9.23,54.48,54.48,0,0,1-2.29-8.15,43.52,43.52,0,0,1-.54-8.22,46.54,46.54,0,0,1,1.42-9.77q1.14-4.25,2.22-7.08a38.65,38.65,0,0,1,2.83-5.79,33.55,33.55,0,0,1,9.71-9.91,41,41,0,0,1,9.7-4.65,31.78,31.78,0,0,1,10.38-1.21,25,25,0,0,1,7.81,1.41,45.3,45.3,0,0,1,6.2,2.77,28.21,28.21,0,0,1,5.53,4l.13-40.7h11.19l-.41,69.27a17.19,17.19,0,0,1,6.27,5.12,21.13,21.13,0,0,1,2.76,5.26,17.4,17.4,0,0,1,.68,5.66,12.32,12.32,0,0,1-.74,4.11,32.25,32.25,0,0,1-1.76,4,24.06,24.06,0,0,1-2.29,3.64,28.34,28.34,0,0,1-2.49,2.9,5.32,5.32,0,0,0-.81.67c-.18.18-.4.43-.67.74s-.5.56-.68.74V555H544.18v-2.29a32.1,32.1,0,0,1-7.08,2.09q-3.57.6-7.34.87a33.39,33.39,0,0,1-6,0q-2.89-.27-6-.67a7.83,7.83,0,0,1-1.41-.14c-.5-.08-1-.17-1.42-.26a30.48,30.48,0,0,1-12.26-6.47q-1.76-1.49-3.3-3a20.6,20.6,0,0,1-2.76-3.23,1.64,1.64,0,0,1-.41-.61A1.84,1.84,0,0,0,495.8,540.73ZM499,510.41a61.1,61.1,0,0,0,.07,10.45,56.79,56.79,0,0,0,1.41,8.35,39.28,39.28,0,0,0,2.23,6.54,34.14,34.14,0,0,0,2.63,4.85,22.35,22.35,0,0,0,7.54,7.28,26.83,26.83,0,0,0,6.2,2,38.19,38.19,0,0,0,8,.81,44.41,44.41,0,0,0,8.69-.88,26.42,26.42,0,0,0,8.36-3.17L544,513.38a8,8,0,0,1-1.34-.41,1.07,1.07,0,0,0-.41-.13,1.33,1.33,0,0,1-.47-.07,1.66,1.66,0,0,0-.47-.07,1.19,1.19,0,0,1-.54-.13l-1.21-2.83,2.15.54a12.33,12.33,0,0,0,1.48.4,7.3,7.3,0,0,0,.81.14V494.1a22.43,22.43,0,0,0-6.13-8.35,24.59,24.59,0,0,0-6.94-4,22.61,22.61,0,0,0-8.09-1.49,14.33,14.33,0,0,0-7.74,1.55,26,26,0,0,0-5.73,4,33.69,33.69,0,0,0-4.85,5.79,24.51,24.51,0,0,0-2.77,5.87q-1,3.16-1.68,6.13C499.66,505.87,499.3,508.17,499,510.41Zm62.26,19.41c.27-3.69-.24-6.42-1.55-8.22a19.62,19.62,0,0,0-4.92-4.72v24.66a24.52,24.52,0,0,0,3.1-3.1,15.36,15.36,0,0,0,2.16-3.64A16.17,16.17,0,0,0,561.29,529.82Z"/><path class="cls-1" d="M633.93,555h-9.84v-5.66a41.93,41.93,0,0,1-11.32,4.51,61.11,61.11,0,0,1-10.91,1.69,54.14,54.14,0,0,1-11.46-.14,22.42,22.42,0,0,1-4.92-1,29.07,29.07,0,0,1-3.84-1.55,17.23,17.23,0,0,1-3.37-1.88,15.38,15.38,0,0,1-4-3.78,16.47,16.47,0,0,1-2.09-3.91,14.45,14.45,0,0,1-.94-4.31,17.31,17.31,0,0,1,2.22-10.38,26.49,26.49,0,0,1,6-7,32.91,32.91,0,0,1,9-5.26q5.65-2.3,9.77-4c2.74-1.17,5-2.16,6.8-3,2.16-.89,3.91-1.66,5.26-2.29a24.39,24.39,0,0,0,4.58-2.9c1.26-1,2.34-1.95,3.23-2.76a34.65,34.65,0,0,0,2.56-2.83,10.07,10.07,0,0,0,2.5-5.39,11.79,11.79,0,0,0-.47-4.58,12.59,12.59,0,0,0-2.29-4.31,14.71,14.71,0,0,0-5.4-3.51,29.85,29.85,0,0,0-5.52-1.48,21.89,21.89,0,0,0-5.93-.27,25.74,25.74,0,0,0-9.57,2.7,23.26,23.26,0,0,0-5.66,4.17,13.32,13.32,0,0,0-3.37,5.39,10.12,10.12,0,0,0-.74,2.63c-.13,1-.25,1.78-.34,2.49-.09.9-.18,1.76-.27,2.57-1.7.09-3.28.13-4.71.13h-3.51a6.85,6.85,0,0,1-1.88-.13,7.21,7.21,0,0,0,.4-1.49,10.24,10.24,0,0,1,.4-1.61,14.24,14.24,0,0,1,2.57-4.72,35.46,35.46,0,0,1,5.12-6.07,32.56,32.56,0,0,1,3.23-2.62,30.62,30.62,0,0,1,3.1-2c1.08-.54,2.16-1,3.24-1.48a29.66,29.66,0,0,1,7.61-2.16c2.56-.35,4.87-.58,6.94-.67a44.79,44.79,0,0,1,7,.27q7.27,1.21,11.39,4.51a25.08,25.08,0,0,1,6.13,6.81,22.65,22.65,0,0,1,3,8.89Zm-10-49.73a46,46,0,0,1-7.21,4.65q-4,2.08-7.48,3.57c-2.7,1.17-5.39,2.29-8.09,3.37a44.46,44.46,0,0,0-9,3.91,34.12,34.12,0,0,0-5.19,3.77,13.63,13.63,0,0,0-3.1,4,15.65,15.65,0,0,0-2.56,7.75,20.9,20.9,0,0,0,1.08,6.67,12.48,12.48,0,0,0,2.7,4.45,11.66,11.66,0,0,0,3.37,2.43,12.41,12.41,0,0,0,4.17,1.21,39.08,39.08,0,0,0,10.58-.07,44.26,44.26,0,0,0,8-1.95,33,33,0,0,0,6.87-3.5,15.34,15.34,0,0,0,3.58-3.71,17.75,17.75,0,0,0,1.68-3.3,10.19,10.19,0,0,0,.54-3.24Z"/><path class="cls-1" d="M710.21,555.69H699.29q.13-10.52.14-19.81V520.25q0-3.64-.07-6.6c0-2-.07-3.6-.07-4.86a59.61,59.61,0,0,0-.94-8.89,45.13,45.13,0,0,0-2.49-7.82,19.26,19.26,0,0,0-4.79-6.87,15.76,15.76,0,0,0-5.12-3.1,23.59,23.59,0,0,0-6.67-1.42,31.3,31.3,0,0,0-9.63,1,18.59,18.59,0,0,0-5.39,2.15A42.22,42.22,0,0,0,658.8,488a40.11,40.11,0,0,0-6.13,6.94l-.27,60.78H642l-.27-77h11.32v6.6a23.94,23.94,0,0,1,3.5-2.83,44.33,44.33,0,0,1,4-2.29,23.25,23.25,0,0,1,5.05-1.88q3.78-.81,7.68-1.35a46.75,46.75,0,0,1,7.21-.27,25,25,0,0,1,7.35,1.35,29.07,29.07,0,0,1,5.12,1.61,38.94,38.94,0,0,1,4.85,2.77,21.18,21.18,0,0,1,4.85,4.51,24.5,24.5,0,0,1,3.64,6.34,55,55,0,0,1,2.5,8.76,64.93,64.93,0,0,1,1.14,13.2Z"/><path class="cls-1" d="M759.67,555.29a37.24,37.24,0,0,1-13.41,0,48.14,48.14,0,0,1-10.58-3.24,41.57,41.57,0,0,1-9.3-5.79,23.85,23.85,0,0,1-6.13-8,43.53,43.53,0,0,1-3-8.56,37.94,37.94,0,0,1-1-9.57l-.13-76h10.78v34.23h28v5.39h-28V515.8a41.4,41.4,0,0,0,1.55,13.88,38.08,38.08,0,0,0,4.11,9.17,23.47,23.47,0,0,0,6.06,6.74,20.85,20.85,0,0,0,6.81,2.89,53.18,53.18,0,0,0,6.27,1,30.87,30.87,0,0,0,6.47-.13Z"/></svg>