<svg xmlns="http://www.w3.org/2000/svg" viewBox="0 0 1000 1000"><title>Nigeria-Logo</title><path d="M199.12,475.18H188.81c-6.89,0-9.75-4.4-9.75-10.75v-45.5h20.06V406.1H179.06V381.9H164.61v82.33c0,17.35,8.7,24.76,24.18,24.76h10.33V475.18Z" style="fill:#0072a9;fill-rule:evenodd"/><path d="M60.09,449.81v.6c0,29.47,24.07,40,46.61,40,22,0,44.19-10.55,44.19-33.87,0-22.65-18.62-28.78-36.07-32.75l-6.09-1.32c-15.64-3.42-29.19-6.3-29.19-17.94,0-16.6,17.06-18.49,24.37-18.49,16.11,0,25.48,7.77,27.05,22.29l0,.53h15.22v-.63c-.87-22.81-16.06-35.85-41.69-35.85-20.41,0-41,10.25-41,33.24,0,20.49,17.14,25.92,36.23,30.09l3.76.83c16.12,3.43,31.35,6.69,31.35,20.47,0,17.1-17.32,19.64-27.67,19.64-8.72,0-16.6-2.23-22.19-6.26-6.31-4.59-9.64-11.47-9.64-20v-.6Z" style="fill:#0072a9;fill-rule:evenodd"/><path d="M286.06,475.65l-.81.29a10.53,10.53,0,0,1-3.84.74c-3.48,0-3.64-1.88-3.64-8.42V426.75c0-15.36-10.08-22.8-30.85-22.8-12.6,0-33.86,3.56-34.79,27.6l0,.63h14.42l0-.57c.54-10,6.78-14.77,19.58-14.77,11.8,0,17.35,4.06,17.35,12.87,0,7.33-7.43,8.37-17.66,9.81-2.92.41-5.89.84-9,1.44-14.07,2.7-27.82,6.89-27.82,25.44,0,14.5,10.23,23.26,27.31,23.26,11.48,0,20.81-4.06,28-11.77.56,9.52,6.57,11.77,11.7,11.77a18.51,18.51,0,0,0,9.84-2.36l.29-.18V475.65Zm-46.82,1c-4.5,0-15-1.09-15-11.23,0-9.77,8-12.6,15.74-14,2.37-.4,4.9-.74,7.31-1,6.21-.8,12.08-1.58,16.06-3.92h0v12.56c0,6.81-6.56,17.61-24.1,17.61Z" style="fill:#0072a9;fill-rule:evenodd"/><path d="M298.83,406.1V488h14.49V441.82c0-15.42,8.67-24.71,23.26-24.71,9.72,0,15.79,6.07,15.79,15.68V488h14.48V434.35c0-20.29-9.31-30.12-28.41-30.12-11.62,0-20.3,4.55-25.95,13.6V406.1Z" style="fill:#0072a9;fill-rule:evenodd"/><path d="M443.64,375.33v40.73c-6.12-8.65-17.18-11.83-25.74-11.83-22.79,0-37.48,16.67-37.48,42.57,0,11.89,3.38,22.58,9.42,30.16,6.7,8.42,16.52,13,28.37,13s21-4.36,25.43-11.82V488h14.49V375.33ZM420.07,477c-16.83,0-24.4-14.62-24.4-29.22,0-9.18,2.3-30.62,23.64-30.62,23,0,24.8,23,24.8,30,0,14.49-6.29,29.85-24,29.85Z" style="fill:#0072a9;fill-rule:evenodd"/><path d="M549.78,475.92l-.79.29a10.68,10.68,0,0,1-3.85.74c-3.55,0-3.7-1.88-3.7-8.41V427c0-15.36-10.07-22.8-30.78-22.8-12.65,0-33.88,3.56-34.83,27.59l0,.63h14.47l0-.56c.54-10,6.73-14.78,19.56-14.78,11.82,0,17.31,4.16,17.31,12.87,0,7.33-7.38,8.37-17.61,9.81-2.95.41-5.92.84-9.07,1.44-14,2.71-27.76,6.9-27.76,25.44,0,14.5,10.16,23.26,27.27,23.26,11.49,0,20.83-4.06,27.91-11.77.56,9.52,6.56,11.77,11.69,11.77a18.39,18.39,0,0,0,9.89-2.36l.29-.17V475.92ZM503,477c-4.5,0-14.95-1.09-14.95-11.22,0-9.77,7.91-12.6,15.67-14,2.37-.4,4.84-.74,7.33-1,6.22-.81,12.09-1.59,16-3.93h0v12.56C527,466.16,520.5,477,503,477Z" style="fill:#0072a9;fill-rule:evenodd"/><path d="M606,404.24h-.57c-13.52-.44-22.6,5-29.41,17.67V406.1H562.4V488h14.42v-36.5c0-21.79,9.16-32,28.6-32h.6v-15.2Z" style="fill:#0072a9;fill-rule:evenodd"/><path d="M671.24,375.33v40.73c-6.13-8.65-17.14-11.83-25.82-11.83-22.67,0-37.43,16.67-37.43,42.57,0,11.89,3.34,22.58,9.48,30.16,6.71,8.42,16.48,13,28.33,13s21-4.38,25.44-11.82V488h14.53V375.33ZM647.7,477c-16.88,0-24.4-14.62-24.4-29.22,0-9.18,2.29-30.62,23.64-30.62,23,0,24.76,23,24.76,30,0,14.49-6.3,29.85-24,29.85Z" style="fill:#0072a9;fill-rule:evenodd"/><path d="M90,601.77l0,.54c-1.49,19.44-13.55,31.61-31.51,31.61-12.41,0-22-4.53-28.5-13.61C24.11,612.36,21,601.14,21,587.8c0-12.14,3.19-23.09,8.85-30.94,6.5-8.87,16.32-13.54,28.37-13.54,16.31,0,27.71,8.66,30.6,23.26l.09.49h16l-.11-.68c-1.63-11.53-7.08-21-15.73-27.43-8.15-6.09-18.8-9.31-30.71-9.31-16.45,0-30.19,6-39.77,17.4C9.87,557.53,5,572.46,5,588.89c0,36.19,20,58.7,52.15,58.7,13.81,0,25.58-4.17,34-12s13.39-19.27,14.79-33.14l.06-.64Z" style="fill:#0072a9;fill-rule:evenodd"/><path d="M119.88,532.19V645h14.46V598.79c0-15.52,8.74-24.72,23.27-24.72,9.77,0,15.8,6,15.8,15.6V645h14.48V591.21c0-20.19-9.26-30-28.36-30-8.59,0-20,3.26-25.19,12.41V532.19Z" style="fill:#0072a9;fill-rule:evenodd"/><path d="M218.17,589.33l0-.58c.53-10,6.72-14.68,19.54-14.68,11.86,0,17.34,4.07,17.34,12.8,0,7.41-7.38,8.46-17.65,9.9-2.88.4-5.86.83-9,1.44-14.08,2.7-27.83,6.89-27.83,25.34,0,14.58,10.22,23.26,27.31,23.26,11.43,0,20.82-4,27.89-11.67.57,9.51,6.62,11.67,11.76,11.67,4.13,0,7.24-.73,9.8-2.27l.28-.17V632.9l-.8.28a10.38,10.38,0,0,1-3.84.74c-3.45,0-3.6-1.87-3.6-8.51V583.9c0-15.28-10.12-22.71-30.9-22.71-12.59,0-33.84,3.58-34.79,27.51v.63Zm12.71,44.59c-4.54,0-15-1.09-15-11.32,0-9.77,7.93-12.5,15.75-13.87,2.36-.43,4.83-.74,7.22-1.05,6.28-.8,12.17-1.58,16.09-3.94h0v12.47c0,6.83-6.52,17.71-24,17.71Z" style="fill:#0072a9;fill-rule:evenodd"/><path d="M685.77,645V532.3H671.24V573c-6.13-8.66-17.14-11.84-25.82-11.84-22.67,0-37.43,16.68-37.43,42.58,0,11.79,3.34,22.56,9.48,30.16,6.71,8.41,16.48,12.88,28.33,12.88s21-4.29,25.44-11.74V645Zm-38.07-11c-16.88,0-24.4-14.72-24.4-29.21,0-9.18,2.29-30.64,23.64-30.64,23,0,24.76,23,24.76,30,0,14.4-6.3,29.85-24,29.85Z" style="fill:#0072a9;fill-rule:evenodd"/><path d="M447.66,619.54c-2.47,9.29-9.48,14.38-20,14.38-7.46,0-13.71-2.33-18-6.76-4.34-4.6-6.64-11.14-6.52-18.59h60.35l0-.58c.58-14.56-3.89-28.37-12-36.77-6.44-6.66-14.87-10-25.16-10-22.33,0-38.54,17.87-38.54,42.58.87,27.39,15.22,43,39.31,43,18.45,0,31.14-9.91,34.92-27.27Zm-22.05-45.47c12.09,0,21.65,9.23,22.57,21.63h-45c1.06-10.92,8.31-21.63,22.41-21.63Z" style="fill:#0072a9;fill-rule:evenodd"/><path d="M582.69,619.73c-2.51,9.18-9.6,14.19-20,14.19-7.45,0-13.64-2.33-17.93-6.76-4.45-4.6-6.72-11.14-6.62-18.59h60.41l0-.58c.57-14.56-3.89-28.37-12-36.77-6.39-6.66-14.91-10-25.15-10-22.38,0-38.51,17.87-38.51,42.58.84,27.39,15.15,43,39.29,43,18.43,0,31-9.84,34.87-27.08Zm-22.05-45.66c12.05,0,21.68,9.23,22.61,21.63H538.18c1.07-10.92,8.42-21.63,22.46-21.63Z" style="fill:#0072a9;fill-rule:evenodd"/><path d="M304.85,645V608.43c0-21.88,9.11-32,28.6-32h.61v-15.2h-.58c-13.57-.44-22.7,5-29.41,17.57V563H290.39v82Z" style="fill:#0072a9;fill-rule:evenodd"/><path d="M492.24,645V608.43c0-21.88,9.05-32,28.59-32h.6v-15.2h-.57c-13.62-.44-22.7,5-29.41,17.57V563H477.77v82Z" style="fill:#0072a9;fill-rule:evenodd"/><path d="M380.57,632.15H370.31c-6.94,0-9.79-4.4-9.79-10.85V575.9h20.05V563.06H360.52V538.88H346.06V621.1c0,17.45,8.75,24.87,24.22,24.87h10.29V632.15Z" style="fill:#0072a9;fill-rule:evenodd"/><path d="M824.24,675.72c-9.89,5.89-18.86,9.4-28.27,9.4-24.36,0-44.72-20-45.89-43.93l47.47-28.28,73.78,33-47.09,29.83Z" style="fill:#71b0d1;fill-rule:evenodd"/><path d="M852.45,554.23,817.21,538.7c-15.76-7-30.63-12.9-30.63-30.23,0-9,2.73-13.7,7-18.39L868.18,523l-18.49,10.67c-5.09,3.13-8.62,5.88-8.62,9.8,0,4.24,4.85,7.85,11.38,10.81Z" style="fill:#a4d0a0;fill-rule:evenodd"/><path d="M887.08,391.54l-36.14,21.93c-3.21,1.94-7.5,5.06-7.5,9.88,0,5.47,8.34,9.67,15.76,13.19l-45.23-20c-13.32-5.86-26.61-12.52-26.61-28.58a29.56,29.56,0,0,1,5.08-16.91l97.77-59.74c11.72,6.64,23.08,20.08,23.08,38.09,0,19.29-9.77,32.2-26.21,42.09Z" style="fill:#71b0d1;fill-rule:evenodd"/><path d="M964,462.18l-9,5.09-74.68-33L967.12,382c11.71,6.76,23.2,20.07,23.2,38.07,0,19.28-9.51,32.58-26.35,42.07Z" style="fill:#a4d0a0;fill-rule:evenodd"/><path d="M900.93,525.59,945.1,545c16.55,7.42,21.64,16.12,21.64,27.11,0,6.25-3.53,12.53-8.6,16.84l-74.28-33,12.57-7c10.62-5.87,14.15-9.4,14.15-13.31,0-4.07-2.48-6.75-9.65-10Z" style="fill:#71b0d1;fill-rule:evenodd"/><path d="M979.65,688.64c-18.79-14.47-38.84-24.26-63.21-35.32L803.8,603.49c-28.3-12.62-47.06-29.43-47.06-57.73,0-27.5,13.31-40.81,30.62-51.76l6.25-3.92c-4.3,4.69-7,9.39-7,18.39,0,17.33,14.87,23.19,30.63,30.23l131,57.75c22.79,9.79,43.65,26.63,43.65,55.3,0,15.76-6,29.86-12.25,36.89Z" style="fill:#22a947;fill-rule:evenodd"/><path d="M966.35,583.83l-8.21,5.11c5.07-4.31,8.6-10.59,8.6-16.84,0-11-5.1-19.69-21.64-27.11L805,483.31c-28.28-12.5-45.89-28.66-45.89-56.83,0-25.94,12.91-42.88,33.36-55.38A29.56,29.56,0,0,0,787.36,388c0,16.06,13.29,22.72,26.61,28.58l136.21,60.08c24.77,11,44.82,27.5,44.82,57.74,0,23.59-11,38.46-28.65,49.42Z" style="fill:#0072a9;fill-rule:evenodd"/></svg>