<svg xmlns="http://www.w3.org/2000/svg" viewBox="0 0 1000 1000"><title>Nigeria-Logo</title><rect x="17" y="18" width="965" height="965" style="fill:#05466d"/><path d="M743.46,382.9a146.11,146.11,0,0,1-52,1.3l59-251.25H387.79l-12.38,55.17L361.31,186a7.09,7.09,0,0,0-7.79,4.67c-17.59,51-16.33,88.09-4.52,115.08l-70.5,314H636.18L681.4,427.13c40.06-8.4,60.39-25,64-40.05C745.88,385.15,744.64,382.59,743.46,382.9Z" style="fill:#e8b64a"/><path d="M599,284a7.15,7.15,0,0,1-2.58-5.51v-8.6a7.14,7.14,0,0,0-1.89-4.82l-55.84-60.5a7.31,7.31,0,0,0-4.61-2.29l-54.4-4.52a6.93,6.93,0,0,0-4.52,1.19l-10.58,7a7.18,7.18,0,0,1-5,1.14l-90.81-13.61a7.09,7.09,0,0,0-7.8,4.67C295.84,387,488.94,385.51,520.18,384.07a7.05,7.05,0,0,0,6.07-3.92l5.81-11.63a7.11,7.11,0,0,0-1.34-8.19L528,357.64a7,7,0,0,1-1.09-8.64c12.22-19.82,42.18-19.82,42.18-19.82,6.51,0,10.93,5,13.76,13.41A239.79,239.79,0,0,0,636.53,372C635.59,318.05,607.77,291.08,599,284Zm-111.87,3L517,257.15,541.8,282Z" style="fill:#05466d"/><path d="M623.76,532.86c-5,19.87-54.64,0-49.67-29.81,2.78-16.39,11.47-67.36,13-109.93.05,0,.15,0,.2.09,14.41,7.51,30.55,14.91,45.85,19.73-9.14,54.25-31.69,75.31-31.69,92.6C601.41,525.41,628.73,513,623.76,532.86Z" style="fill:#05466d"/><path d="M731.81,399.77c-5.51,7.23-27.77,13.86-68.3,13.86-8.55,0-18.28-2-28.42-5.4-.65-.22-1.29-.43-2-.7-15.3-5.19-31.44-13.16-45.85-21.24,0-.06-.15-.06-.2-.11a499.19,499.19,0,0,1-44.11-27.94,1.35,1.35,0,0,1-.2-2c4.12-5,21.46-23.54,38.8-9.52.45.32.84.69,1.34,1.07,1,.85,2.19,1.71,3.43,2.67a238.85,238.85,0,0,0,49.82,28.85l.4.16a226,226,0,0,0,94.24,18.19A1.29,1.29,0,0,1,731.81,399.77Z" style="fill:#05466d"/><path d="M353,326.7,313.28,505.54l14.9,5,84.45-44.71,91.91,72L464.79,557.7l54.65,44.71,5-19.87,14.9-34.78V513l-34.77-59.62,9.93-24.83L507,401.21S390.28,408.66,353,326.7Z" style="fill:#05466d"/><polygon points="412.63 480.7 407.66 530.38 377.86 589.99 387.79 609.86 452.38 609.86 442.44 589.99 462.31 520.44 412.63 480.7" style="fill:#05466d"/><path d="M542,730.82c2.77.86,5.06,1.43,7.24,2.26,10.62,4.08,16.37,13.55,15.66,25.66-1.15,19.78-15.47,37.32-36.13,44.3a56.25,56.25,0,0,1-18.09,3q-22.26,0-44.52,0c-5.55,0-6.07-.63-5-6q13.54-65.79,27.11-131.56c.65-3.13,2-5.46,5.54-5.36,15,.4,30-.78,44.87,1.39a20.14,20.14,0,0,1,2.22.36c11.31,2.82,22,7.12,25.33,19.53,3.7,13.57-.31,25.75-9.61,36.16C552.7,725,547.56,727.8,542,730.82Zm-41,58.5c2.55,0,5.09.08,7.64,0,18.19-.7,29.84-11.61,30.29-28.34.26-10-4.42-16.15-14.18-18.31-8-1.76-16.12-.61-24.18-.89-1.87-.07-2.08,1.32-2.36,2.66-2.84,13.92-5.63,27.86-8.6,41.76-.51,2.41-.15,3.3,2.41,3.17C495,789.21,498,789.32,501,789.32Zm9.34-64.45c17.82,0,29.91-10.51,31.24-27.15.66-8.33-3.33-14.11-11.39-16.44-5-1.43-10.07-1.12-15.14-1.36-3-.14-3.79,1.1-4.29,3.68-2.18,11.15-4.51,22.27-6.83,33.39C502.26,724.87,502.23,724.87,510.31,724.87Z" style="fill:#fff"/><path d="M662.07,715.67c.51-12.49,8-13.39,17.2-12.77,8.53.58,8.57.13,6.82,8.74q-6.65,32.8-13.31,65.61a32.4,32.4,0,0,0-.78,4.88c-.17,3.64.11,7.08,5,7.45,1.34.1,2.52.94,2.39,2.22a41.74,41.74,0,0,1-2.78,12.62,3.28,3.28,0,0,1-3,1.75c-5.88.24-11.76.14-17.08-2.78-4.76-2.61-6.42-7.17-6.73-13.94-2.15,2.52-3.35,4.2-4.82,5.6-13.27,12.6-29.07,16.22-46.58,12.29-13.17-3-21-12.88-21.84-28.36-1.09-20.7,3.36-40.34,15.21-57.62,12-17.54,29.33-23.33,49.9-20C650,702.7,653.55,705.4,662.07,715.67Zm-61.72,56.6a33.33,33.33,0,0,0,1.28,10.24,12.24,12.24,0,0,0,9.78,8.84c12.49,2.64,25.5-2,32.32-12.63,8.83-13.78,12.21-29.18,10.72-45.44-.75-8.14-5.85-13.28-13.73-15.27-13.38-3.36-24.09,1.31-30.42,13.57C603.72,744.33,601.7,758.24,600.35,772.27Z" style="fill:#fff"/><path d="M860.74,663.43c-5.79,28.18-11.4,55.4-17.08,83,2.18-.34,3-1.8,4.08-2.84,12.16-12,24.34-24,36.39-36.1,3.06-3.08,6.42-4.65,10.79-4.41s8.69,0,13,.17c1.25,0,3-.75,3.63.81s-1.12,2.26-2.05,3.12c-13.19,12.43-26.45,24.8-39.62,37.26-3,2.85-8.12,5.19-8.29,8.88-.15,3.33,3.74,6.86,5.91,10.27q12.08,19,24.17,37.9c.75,1.18,2.25,2.35,1.22,4-.83,1.32-2.4,1-3.72,1-5.85,0-11.7,0-17.54,0A7.9,7.9,0,0,1,864,802.1c-6.7-11.69-13.56-23.3-20.44-34.9-.77-1.3-1.05-3.79-3-3.34-1.62.38-1.26,2.77-1.58,4.29-2.29,10.85-4.59,21.69-6.65,32.58-.78,4.12-2.82,6-7,5.8s-8.69,0-13,0c-3.55,0-5.15-1.23-4.31-5.26q12.66-60.45,25.09-121c.32-1.57.46-3.13,2.31-4C843.58,672.2,851.69,668,860.74,663.43Z" style="fill:#fff"/><path d="M733.6,718.48c2.87-3.07,5.29-5.91,8-8.49,11.7-11.23,32.15-12.7,45.16-3,10.84,8.08,12.61,19.5,10.33,31.86-2.39,12.95-5.3,25.81-7.86,38.73a27.06,27.06,0,0,0-.44,7.13c.18,2.46,1.08,4.76,4.21,4.89,1.12,0,2.38.41,2.52,1.5.57,4.56-.66,8.94-2.31,13.07-1.17,2.92-4.32,2.13-6.79,2.13a34.34,34.34,0,0,1-9.76-1.41c-9-2.67-13.7-9.81-12.76-20.09,1.17-12.85,4.89-25.25,7.22-37.91,1.19-6.5,2.3-13,.53-19.58s-5.72-9.53-12.3-9.7c-10.11-.27-17,4.78-21.78,13.23-4.21,7.43-5.66,15.73-7.37,23.93q-4.68,22.43-9.29,44.85c-1.28,6.17-1.94,6.69-8.43,6.7-3.9,0-7.79.06-11.69,0-4.79-.08-5.52-1-4.55-5.75q7.21-35.19,14.48-70.38a15.26,15.26,0,0,0,.32-6.23c-.4-2-1.3-3.87-3.63-4-3.68-.22-3.89-2.33-3.43-5.27,1.81-11.7,3.45-12.95,15.16-11.17C728.37,704.88,731.33,707.84,733.6,718.48Z" style="fill:#fff"/><path d="M156.58,663c11.38,0,22.77,0,34.16,0,4.78,0,5.45.92,4.5,5.7-2.87,14.4-1.71,12.11-14.61,12.22-12.59.1-25.18.14-37.76-.06-3.26-.06-4.3,1-4.89,4.12Q134.58,703,130.56,721c-.72,3.2.14,3.8,3.13,3.76,11.24-.14,22.48-.07,33.71,0,5.46,0,6,.5,5,5.62-2.83,13.93-1.37,12.3-14.57,12.34-9.29,0-18.58.11-27.86-.06-2.89,0-4.07.67-4.68,3.72-3.56,18.06-7.48,36.06-11.08,54.11-.8,4-2.71,5.61-6.74,5.42-4.63-.22-9.28,0-13.93-.06-5.32,0-5.9-.77-4.77-6.2q11.48-55.41,23-110.82c1.4-6.74,2.84-13.48,4.07-20.26.74-4.09,2.84-5.81,7.07-5.74,11.23.17,22.47.05,33.71.05Z" style="fill:#fff"/><path d="M336.25,808.51c-10-.16-18-1.22-25.79-3.63a22.12,22.12,0,0,1-7.24-3.51c-3.77-2.94-3.72-5.2-1-9.1,3.91-5.53,8.12-7.14,14.81-4.36a49.67,49.67,0,0,0,30,2.61c5.9-1.29,10.44-4.4,12.42-10.48,1.58-4.87.64-7.58-3.9-10.11-6.87-3.84-14.53-5.57-21.94-7.91-17-5.4-23.09-17-17.35-34,4.1-12.14,12.17-20.68,24.31-24.68a61.6,61.6,0,0,1,46.82,2.73c7,3.27,7.26,5.65,2.27,11.3-5.2,5.88-5.2,5.89-12.75,3.28-8.3-2.86-16.71-4.84-25.56-2.94-5.86,1.25-10,4.57-12.09,10.27s-.25,9.57,5.64,11.49c6.27,2,12.59,3.91,18.89,5.85,22.22,6.84,28.08,27.15,13.08,45.47-8.12,9.92-18.94,14.87-31.34,16.82A55,55,0,0,1,336.25,808.51Z" style="fill:#fff"/><path d="M453.58,671.3c-2,9.89-3.54,18.72-5.52,27.45-.75,3.31-.05,4.33,3.28,4.07a83.88,83.88,0,0,1,8.54,0c1.5,0,3,.23,3.65,2,2,5.68-3.54,13.87-9.42,13.91-10.18,0-10.25,0-12.27,9.79q-4.93,23.76-9.69,47.56c-1.85,9.26.45,12.32,9.79,13.21,2.8.27,4.23,1.32,3.51,4.3-.1.44-.22.87-.3,1.31-2.37,12.73-1.8,11.14-13.22,11.16-20.59,0-28.38-9.36-24.37-29.62,3.45-17.49,7.15-34.93,10.75-52.38,1.13-5.46,1.16-5.45-4.59-5.45-8.76,0-8.76,0-6.84-8.75,1.48-6.7,1.92-7.07,8.57-7.09,1.5,0,3-.1,4.49,0,2.2.18,3.46-.59,3.5-2.93,0-.29.16-.59.15-.88-.11-11,5.68-17.34,15.82-20.75C444,676.68,448.25,674,453.58,671.3Z" style="fill:#fff"/><path d="M276.26,714c6.12-6.11,12.47-10.79,20.66-12,3.39-.49,6.85-.58,10.28-.81,2.43-.16,3.19,1,2.66,3.32-1.07,4.67-2.12,9.35-3.06,14.05-.62,3.06-2.31,4.17-5.41,4-16.55-1-23.79,4.74-27.29,21.11-4.07,19-8.4,38-12.41,57.08-.9,4.28-2.75,6.27-7.26,5.94-4-.29-8.09,0-12.14-.06-5.42,0-6.13-.84-5-6q5.11-23.72,10.29-47.42c1.74-8,3.53-16.1,5.12-24.18,1.23-6.25.61-7.23-5.12-9.64a2.74,2.74,0,0,1-2-3.13q.89-5.09,2.07-10.12c.57-2.38,2.4-3.4,4.69-3.45a51.14,51.14,0,0,1,15.58,1.68C272.45,705.65,275.23,708.71,276.26,714Z" style="fill:#fff"/><path d="M215.71,703.51c2.1,0,4.19,0,6.29,0,5.23,0,5.91.83,4.83,5.78-4.16,19.16-8.39,38.3-12.51,57.47-1.28,6-3.2,11.88-3.35,18.07-.09,3.52,0,7.07,5,7.5,1.79.16,2.43,1.69,2.12,3.37-.61,3.23-1.27,6.46-2,9.66a4.16,4.16,0,0,1-4.63,3.39,77.18,77.18,0,0,1-8.07-.42c-12.2-1.78-18.66-9.82-16.89-22.07,2.7-18.68,7.74-36.9,11.53-55.37,1.47-7.19,3.34-14.29,4.63-21.51.78-4.38,2.85-6.31,7.28-5.91C211.8,703.66,213.76,703.51,215.71,703.51Z" style="fill:#fff"/><path d="M219.38,688c-2.39,0-4.79-.06-7.19,0-3.49.11-5.05-1.19-4.17-4.89,1.15-4.8,2.11-9.65,3.12-14.48.61-2.93,2.33-4.37,5.35-4.35,4.94,0,9.89.1,14.83,0,3.87-.1,4.62,1.86,3.9,5.14-1,4.38-2,8.76-2.8,13.17-.72,3.82-2.6,5.88-6.75,5.46C223.6,687.78,221.48,688,219.38,688Z" style="fill:#fff"/><path d="M643.34,860.8c-2.55,0-5.1-.09-7.64,0-3.7.16-3.66-1.64-2.28-4.15a12.91,12.91,0,0,1,1.67-2.11q13-14.88,26.06-29.75c1.19-1.35,2.29-2.61,4.37-2.8,5.52-.49,6-.06,4.93,5.29q-2.43,11.88-5,23.73c-.46,2.15-.35,3.54,2.41,3.29,1.12-.1,2.82-.21,2.47,1.6s.13,4.87-2.37,4.66c-5.36-.44-4.82,3.34-5.77,6.48-.65,2.17.33,5.4-3.45,6-6.12.92-7.12,0-5.78-6.1.25-1.17.39-2.37.7-3.53.54-2-.21-2.7-2.22-2.62C648.74,860.88,646,860.8,643.34,860.8Zm.66-6.46c4.15,0,6.81,0,9.47,0a2.19,2.19,0,0,0,2.55-1.89q1.47-7.28,3-14.55l-.85-.38Z" style="fill:#fff"/><path d="M580.3,844.9c9.13,7.08,8.55,19.19-1.28,25.32-6.75,4.21-14.2,4.55-21.6,2.06-5.76-1.93-7.86-7.41-6.18-14.53,1.25-5.3,3.77-8.08,11.58-12.81-8.05-9-4.42-20,7.56-23.2a25.54,25.54,0,0,1,8-.59c4.67.25,9,1.35,10.94,6.29,1.74,4.52,0,10.48-4,13.84C583.78,842.6,582,843.68,580.3,844.9Zm-2.44,11.46c.19-4.63-2.38-7.55-6.74-7.67-5.5-.15-10.64,4.9-11,10.82a6.74,6.74,0,0,0,6.66,7.39C572.38,867.25,577.63,862.27,577.86,856.36Zm-2.65-28.5a8.25,8.25,0,0,0-8,7.73,5.36,5.36,0,0,0,5.46,5.72c3.81-.09,7.92-4.39,7.85-8.36C580.48,829.4,578.17,828.12,575.21,827.86Z" style="fill:#fff"/><path d="M618.83,852.46c-4.43,3.89-9.42,4.46-14.79,3a9.51,9.51,0,0,1-6.89-6.48c-4.41-12.87,6.34-27.88,20-27.92,7.28,0,12.12,3.76,12.93,11,1.35,12-1.24,23.32-8.4,33.17-6.11,8.4-16,10.72-25.2,6.48-1.33-.61-3.6-.89-2.48-3.32.85-1.87,1.61-4,4.56-3.06a33.79,33.79,0,0,0,7,1.39C612.72,867.34,619.47,860.19,618.83,852.46ZM622,835.4c.07-3.31-.58-5.65-3-6.78-2.8-1.29-5.59-.59-8,1.21-3.61,2.7-4.71,6.74-5.34,10.93-.47,3.21-.69,6.6,3,8a7.83,7.83,0,0,0,9.57-2.81A21.21,21.21,0,0,0,622,835.4Z" style="fill:#fff"/><path d="M344.08,873.56a31.82,31.82,0,0,1-10.87-1.68c-1.65-.63-4.84-.33-4-3.51.7-2.79,2.6-4,5.78-3.07a43.28,43.28,0,0,0,8,1.18,18.09,18.09,0,0,0,7.13-.63c3.16-1,5.89-2.69,6.2-6.32s-2.37-5.27-5.16-6.59c-2.43-1.16-5-2-7.43-3.19-8.07-3.88-10.27-10.74-6.06-18.66,5.24-9.83,23-13.89,31.91-7.37a1.91,1.91,0,0,1,.59,3c-.91,1.51-1.53,3.26-4,2.68a73.55,73.55,0,0,0-8.84-1.52c-3.69-.41-7.21.17-10.06,2.81-4,3.71-3.44,8.08,1.42,10.41,2.69,1.29,5.57,2.21,8.28,3.48,9.2,4.32,11.15,15,4.07,22.4C356.17,872,350,873.35,344.08,873.56Z" style="fill:#fff"/><path d="M408,840.91c3.92-4.87,8.5-6.76,14.18-5.5,5.28,1.16,8.28,4.74,8.31,10.16,0,5-1.79,9.69-2.53,14.56-.36,2.34-1.54,4.62,1.11,7,2.1,1.85,0,5.43-2.9,5.52-5.28.18-8.29-2.69-7.7-8,.53-4.74,1.82-9.39,2.56-14.12.52-3.36,1.36-7.11-2.82-8.94-3.38-1.47-7.68.89-9.54,5.45-2.9,7.11-3.49,14.82-5.27,22.23-.68,2.83-6.25,4.93-8.5,3.09-1.33-1.08-.47-2.54-.23-3.75,1.46-7.34,3-14.65,4.57-22,.3-1.47,1-3.22-.55-4.12-2.72-1.58-1.58-3.64-.8-5.4.85-1.92,2.8-1.12,4.4-1C405.08,836.26,406.9,837.8,408,840.91Z" style="fill:#fff"/><path d="M489.58,857.43a19.35,19.35,0,0,0-4,.05c-1.85.4-4.79-1.64-5.27,2.18s1.4,6.86,4.78,7.55c3.18.66,6.25-.1,9.29-1,1.73-.52,3.46-1.23,4.33,1.36s-.82,3.27-2.5,4a26.78,26.78,0,0,1-16.73,1.39c-5-1.22-7.72-4.55-8.05-10.11-.44-7.52,1.28-14.62,6-20.68,4.92-6.37,11.54-8.27,19.22-6.51,5.91,1.36,8.9,6.18,8.1,12.62-.87,7-3.06,9-10.16,9.19C492.88,857.45,491.23,857.42,489.58,857.43ZM488,851.61c2.63-.83,6.36,1.58,7.73-2.57a6,6,0,0,0-1.79-6.93c-2.18-1.75-4.55-1.14-6.67.21-2.92,1.86-5.25,4.85-5,8C482.48,852.73,486,850.9,488,851.61Z" style="fill:#fff"/><path d="M535.25,833.15a41.4,41.4,0,0,1-5,1.81c-1.53.36-3.58,2.83-4.5.64a4.87,4.87,0,0,1,2.35-6.18c6.19-2.82,12.48-5.44,19.7-8.57-1.73,8.28-3.26,15.54-4.77,22.81-1.8,8.63-3.71,17.24-5.32,25.91-1,5.5-5.17,3.13-7.83,3-3.31-.15-1.27-3-1-4.54,2-10.41,4.24-20.8,6.38-31.19C535.57,835.7,536.09,834.54,535.25,833.15Z" style="fill:#fff"/><path d="M451,873.57c-10.22,0-14.87-5.12-13.79-15.25a35.23,35.23,0,0,1,4.08-13.69c4.75-8.48,16.33-12.24,25-8.08,1.4.67,3.95,1.12,2.75,3.67a3.89,3.89,0,0,1-5.11,2.35c-9.39-2.69-13.87-.12-16.66,9.33a26,26,0,0,0-.77,3.5c-1.65,10.56,1.78,13.61,12.14,10.83,1.75-.47,3.48-1.19,4.4,1.36s-1,3.13-2.5,4C457.77,873,455.15,873.55,451,873.57Z" style="fill:#fff"/><path d="M382.77,835.82c4-.91,4.21,1.36,3.42,4.83-1.57,6.84-2.95,13.72-4.31,20.6-.39,2-1.26,4,1.23,5.56,1.63,1,.5,2.75.23,4.12-.35,1.72-1.81,1.66-3.19,1.69-5.26.08-8.41-2.89-7.57-8.12,1.42-8.84,3.42-17.58,5.16-26.36C378.29,835.38,380.44,835.86,382.77,835.82Z" style="fill:#fff"/><path d="M596.41,829c-1.29-.52-4,1.29-3.91-2.29.17-5,1.35-6.49,5.68-6.31,1.54.06,4.21-1.36,4.1,2.19C602.13,827.6,600.94,829,596.41,829Z" style="fill:#fff"/></svg>