<svg width="131" height="24" viewBox="0 0 131 24" fill="none" xmlns="http://www.w3.org/2000/svg">
<path d="M19.0781 20.3078H27.6935V11.6924C25.4086 11.6924 23.2172 12.6001 21.6015 14.2158C19.9858 15.8315 19.0781 18.0228 19.0781 20.3078V20.3078Z" fill="#7557D3"/>
<path d="M9.53906 11.6924V20.3078H18.1544C18.1544 19.1761 17.9316 18.0556 17.4986 17.0101C17.0656 15.9647 16.4309 15.0148 15.6309 14.2147C14.8308 13.4147 13.881 12.7802 12.8358 12.3474C11.7905 11.9146 10.6703 11.692 9.53906 11.6924Z" fill="#7557D3"/>
<path d="M0 11.6923C-6.38222e-08 12.824 0.222872 13.9445 0.655871 14.99C1.08887 16.0354 1.72349 16.9853 2.52354 17.7853C3.32359 18.5854 4.27337 19.2199 5.31862 19.6527C6.36387 20.0855 7.48413 20.3081 8.61539 20.3077V20.3077V11.6923H0Z" fill="#7557D3"/>
<path d="M77.3942 3.69238L73.3684 14.74L69.377 3.69238H65.8457L71.6631 19.028L69.8486 24.0001H73.2274L80.9226 3.69238H77.3942Z" fill="black"/>
<path d="M129.387 3.69233C129.626 3.69269 129.861 3.74756 130.07 3.85168C130.286 3.95552 130.464 4.11296 130.582 4.30498C130.705 4.49232 130.769 4.70511 130.769 4.92175C130.769 5.1384 130.705 5.35119 130.582 5.53853C130.465 5.72978 130.288 5.88708 130.073 5.99184C129.862 6.09804 129.624 6.15386 129.382 6.15386C129.14 6.15386 128.902 6.09804 128.692 5.99184C128.478 5.88635 128.301 5.72923 128.182 5.53853C128.062 5.35105 127.999 5.13889 128 4.92313C128.001 4.7063 128.065 4.49334 128.185 4.30498C128.304 4.11219 128.483 3.95457 128.701 3.85168C128.91 3.74652 129.147 3.6916 129.387 3.69233V3.69233ZM129.387 3.9341C129.196 3.93391 129.007 3.97743 128.84 4.06048C128.666 4.14459 128.522 4.27138 128.426 4.42586C128.329 4.57731 128.277 4.74856 128.275 4.92313C128.275 5.09665 128.326 5.26713 128.423 5.41764C128.519 5.57138 128.661 5.69803 128.834 5.78304C129.003 5.86934 129.194 5.91476 129.389 5.91476C129.583 5.91476 129.774 5.86934 129.943 5.78304C130.115 5.69721 130.257 5.57076 130.354 5.41764C130.451 5.26713 130.502 5.09665 130.502 4.92313C130.501 4.74856 130.448 4.57731 130.351 4.42586C130.26 4.26985 130.12 4.14022 129.949 4.05223C129.776 3.97022 129.583 3.92951 129.387 3.9341ZM128.769 5.58249V4.27751H129.538C129.618 4.27916 129.696 4.29702 129.767 4.32971C129.825 4.35915 129.873 4.40184 129.906 4.45335C129.943 4.51106 129.962 4.57647 129.962 4.64291C129.963 4.73261 129.926 4.81938 129.857 4.88468C129.779 4.95446 129.676 4.99813 129.566 5.00829C129.603 5.0189 129.638 5.03568 129.668 5.05774C129.705 5.08728 129.738 5.12048 129.767 5.15666C129.767 5.1704 129.813 5.22259 129.875 5.31599L130.048 5.59073H129.68L129.557 5.37919C129.508 5.27726 129.439 5.18413 129.353 5.10446C129.292 5.06679 129.22 5.04752 129.146 5.04951H129.069V5.59898L128.769 5.58249ZM129.078 4.84071H129.199C129.302 4.84416 129.405 4.83864 129.507 4.82423C129.547 4.8123 129.581 4.79032 129.606 4.76105C129.629 4.73086 129.64 4.69551 129.64 4.6594C129.642 4.6248 129.63 4.59077 129.606 4.56323C129.581 4.53355 129.545 4.51228 129.504 4.5028C129.403 4.48541 129.299 4.47895 129.195 4.48356H129.075L129.078 4.84071Z" fill="black"/>
<path d="M123.333 3.7379V5.81484C122.655 5.03867 121.809 4.41818 120.855 3.99785C119.902 3.57752 118.864 3.36777 117.818 3.38365C113.395 3.38365 110.154 6.93758 110.154 11.3828C110.154 15.8281 113.383 19.382 117.818 19.382C118.863 19.3973 119.899 19.1885 120.852 18.7703C121.805 18.3521 122.652 17.7348 123.333 16.9623V19.0249H126.77V3.7379H123.333ZM118.502 16.3709C115.743 16.3709 113.653 14.1597 113.653 11.3743C113.653 8.58883 115.707 6.37763 118.502 6.37763C121.296 6.37763 123.333 8.60311 123.333 11.3743C123.333 14.1454 121.258 16.3709 118.502 16.3709Z" fill="black"/>
<path d="M88.1368 3.38363C89.1638 3.36792 90.1816 3.57809 91.117 3.99902C92.0524 4.41996 92.8822 5.04121 93.5467 5.81812V3.73794H96.9229V19.0278H93.5467V16.9647C92.8786 17.7362 92.0477 18.3526 91.1129 18.7704C90.178 19.1881 89.162 19.3969 88.1368 19.3821C83.7956 19.3821 80.6152 15.8418 80.6152 11.3814C80.6152 6.92106 83.7956 3.38363 88.1368 3.38363ZM88.8051 16.3733C91.5101 16.3733 93.5467 14.1616 93.5467 11.3757C93.5467 8.58976 91.5302 6.37816 88.8051 6.37816C86.0799 6.37816 84.049 8.60405 84.049 11.3757C84.049 14.1474 86.1001 16.3733 88.8051 16.3733Z" fill="black"/>
<path d="M65.232 9.61674V19.0751H61.8611V9.90336C61.8611 7.83112 60.4577 6.38369 58.4243 6.38369C56.325 6.38369 54.4634 8.12921 54.4634 10.6285V19.0751H51.0781V3.73822H54.4634V5.77893C54.9943 5.03941 55.693 4.43658 56.502 4.02002C57.3111 3.60346 58.2075 3.38507 59.1174 3.38281C62.7976 3.38281 65.232 5.83912 65.232 9.61674Z" fill="black"/>
<path d="M41.1833 16.6114C43.3528 16.6114 44.8909 15.8428 46.3971 14.3685L48.2219 16.1257C46.5332 18.0399 44.4101 19.3828 41.2268 19.3828C36.068 19.3828 32.6152 15.8428 32.6152 11.3828C32.6152 6.92281 36.1751 3.38281 40.9284 3.38281C45.6064 3.38281 48.9229 6.84853 48.9229 11.08C48.9214 11.5258 48.8718 11.9702 48.7752 12.4057H36.0854C36.4156 14.8428 38.4489 16.6114 41.1833 16.6114ZM36.1925 9.85709H45.3833C44.9517 7.71995 43.2167 6.17139 40.9139 6.17139C39.8228 6.17803 38.7654 6.54444 37.9098 7.21233C37.0542 7.88022 36.4498 8.81119 36.1925 9.85709V9.85709Z" fill="black"/>
<path d="M19.0781 2.15234C19.0781 4.43728 19.9858 6.62865 21.6015 8.24435C23.2172 9.86004 25.4086 10.7677 27.6935 10.7677V10.7677V2.15234H19.0781Z" fill="#7557D3"/>
<path d="M9.53906 10.7677C10.6703 10.7681 11.7905 10.5455 12.8358 10.1127C13.881 9.67996 14.8308 9.04542 15.6309 8.24537C16.4309 7.44532 17.0656 6.49544 17.4986 5.44999C17.9316 4.40453 18.1544 3.28397 18.1544 2.15234H9.53906V10.7677Z" fill="#7557D3"/>
<path d="M0 10.7677H8.61539V2.15234C7.48413 2.15196 6.36387 2.37453 5.31862 2.80732C4.27337 3.24012 3.32359 3.87465 2.52354 4.6747C1.72349 5.47475 1.08887 6.42465 0.655871 7.4701C0.222872 8.51556 -6.38221e-08 9.6361 0 10.7677V10.7677Z" fill="#7557D3"/>
<path d="M109.231 16.8172V16.4324H107.788C105.85 16.4324 105.105 15.6168 105.105 13.9138V6.63671H109.038V3.67302H105.117V0H101.724V3.67589H98.7695V6.63959H101.733V14.066C101.733 17.65 103.518 19.3846 106.764 19.3846C106.862 19.3846 106.963 19.3846 107.053 19.3846H109.228V16.8201L109.231 16.8172Z" fill="black"/>
</svg>
