<svg xmlns="http://www.w3.org/2000/svg" width="450" height="154" fill="none"><path fill="#00C9B6" d="M53.1462 24.0612c-.8162 0-1.5457.5204-1.8084 1.2932L35.8636 70.6955c-.6019 1.765-3.1193 1.7115-3.6447-.079L18.9458 25.4334c-.2398-.8136-.9871-1.3722-1.8364-1.3722H1.91569c-1.300784 0-2.221527 1.2677-1.8210898 2.5021L23.3939 98.3741c.2551.7881.9897 1.3238 1.8186 1.3238h15.7191c.8212 0 1.5507-.5255 1.8134-1.3034l16.0966-47.7463c.584-1.7293 3.0249-1.7395 3.6218-.0153l16.5148 47.7769c.2678.7703.9922 1.2881 1.8084 1.2881H96.044c.8315 0 1.5686-.5382 1.8211-1.3314l23.0039-71.8083c.395-1.2344-.526-2.497-1.822-2.497h-14.265c-.852 0-1.602.5637-1.839 1.3825l-12.9821 45.109c-.5177 1.7981-3.0453 1.8594-3.6498.0893L70.8572 25.3544c-.2627-.7728-.9921-1.2932-1.8083-1.2932H53.1462zM122.505 79.1931c0 11.9569 9.784 22.8299 25.625 22.8299 8.59 0 14.819-3.0428 19.009-6.8405 1.426-1.2932 4.395-.3393 4.597 1.5737.063.6299.135 1.1579.198 1.5889.125.8137.827 1.3493 1.648 1.3493h13.062c1.298 0 1.415-1.1529 1.402-2.3057-.025-2.1935 0-5.4913 0-9.8094v-37.585c0-15.0661-8.853-28.2677-32.149-28.2677-17.831 0-29.406 10.6613-31.599 23.0085-.171.9565.474 1.8491 1.42 2.0634l12.697 2.8745c1.12.2525 2.199-.5357 2.451-1.6553 1.477-6.5779 6.616-11.5362 15.186-11.5362 9.94 0 14.288 5.1266 14.288 11.4928 0 2.6398-1.242 4.8154-5.59 5.4378l-19.415 2.9484c-12.891 1.8645-22.83 9.3197-22.83 22.8326zm29.043 8.6973c-7.144 0-11.026-4.6598-11.026-9.7839 0-6.2131 4.504-9.3197 10.095-10.2532l17.527-2.622c1.158-.1709 2.196.7244 2.196 1.8925V68.32c0 14.755-8.697 19.5704-18.792 19.5704zM218.21 99.6934c1.056 0 1.912-.857 1.912-1.9129V1.91285c0-1.055925-.856-1.91291104-1.912-1.91291104h-14.192c-1.056 0-1.913.85698604-1.913 1.91291104V97.7805c0 1.0559.857 1.9129 1.913 1.9129h14.192zM251.665 99.6934c1.056 0 1.913-.857 1.913-1.9129V1.91285c0-1.055925-.857-1.91291104-1.913-1.91291104h-14.192c-1.056 0-1.913.85698604-1.913 1.91291104V97.7805c0 1.0559.857 1.9129 1.913 1.9129h14.192zM282.109 58.0797c-1.077.2885-2.18-.4007-2.254-1.5112-.502-7.56 3.737-16.2502 13.769-18.9383 11.101-2.9745 18.566 2.0412 21.672 9.5134.418.9996-.196 2.0963-1.244 2.3769l-31.943 8.5592zm42.796 9.5435c-1.045-.0474-1.924.7531-2.066 1.7894-.96 7.0698-5.046 13.1948-14.701 15.7819-10.17 2.725-20.366-2.0975-24.382-11.8318-.415-1.0058.198-2.11 1.247-2.3912l50.34-13.4885c.7-.1874 1.15-.7624 1.05-1.4827-.149-1.0585-.463-2.7039-.943-4.495-6.19-23.1015-23.373-34.4172-45.876-28.3876-18.453 4.9444-31.455 24.8288-25.265 47.9328 6.633 24.7522 28.045 34.4515 47.848 29.1455 16.748-4.488 25.509-16.9379 26.694-30.0542.095-1.0472-.725-1.9287-1.773-1.9778l-12.173-.5408zM369.193 2.83284c0-1.05848-.854-1.912918-1.912-1.912918h-12.48c-1.059 0-1.913.854438-1.913 1.912918v9.42426c0 6.6774-3.574 11.804-11.649 11.804h-1.971c-1.056 0-1.913.8544-1.913 1.9129v12.1713c0 1.0559.857 1.9129 1.913 1.9129h10.154c1.055 0 1.912.8544 1.912 1.9129v36.1388c0 14.1326 8.698 22.5191 22.675 22.5191 4.971 0 8.139-.7221 9.845-1.273.73-.2321 1.181-.931 1.181-1.6961V86.3431c0-1.2064-1.107-2.1297-2.306-1.9818-1.176.1428-2.604.2703-3.905.2703-6.68 0-9.631-2.7954-9.631-9.4727V41.9711c0-1.0585.857-1.9129 1.913-1.9129h11.863c1.056 0 1.913-.857 1.913-1.9129V25.974c0-1.0585-.857-1.9129-1.913-1.9129h-11.863c-1.056 0-1.913-.857-1.913-1.9129V2.83284zM391.771 78.7569c-.903.2525-1.5 1.1223-1.316 2.0405 1.742 8.6106 10.391 21.2256 30.966 21.2256 19.26 0 28.579-12.7349 28.579-24.2276 0-11.1842-7.455-19.8816-21.743-22.9882l-11.493-2.3286c-4.66-.931-7.611-3.882-7.611-7.9195 0-4.6599 4.504-8.6974 10.871-8.6974 8.559 0 12.204 5.0221 13.497 9.1999.342 1.1095 1.474 1.8517 2.591 1.5354l11.468-3.2775c.936-.2678 1.53-1.1936 1.293-2.1373-1.931-7.6517-9.22-19.4556-28.849-19.4556-15.686 0-27.802 11.1841-27.802 24.3832 0 10.4063 6.992 19.1037 20.346 22.0547l11.184 2.4868c6.058 1.2421 8.853 4.3486 8.853 8.3862 0 4.6598-3.884 8.6973-11.337 8.6973-8.552 0-13.551-4.7771-15-10.6332-.285-1.1579-1.436-1.9639-2.586-1.6451l-11.911 3.3004z"/><path fill="#5C2799" d="M315.821 148.121c0 2.453 1.961 4.415 4.412 4.415 2.454 0 4.469-1.962 4.469-4.415 0-2.451-2.015-4.466-4.469-4.466-2.451 0-4.412 2.015-4.412 4.466zM327.852 145.013c0 4.196 3.433 8.009 8.99 8.009 2.78 0 4.856-.908 6.315-2.097.628-.51 1.926.322 2.089 1.115.072.339.276.166.62.166h3.749c.806 0 1.426-.74 1.352-1.541-.066-.707-.122-1.625-.122-2.711V134.77c0-5.285-3.107-9.917-11.279-9.917-5.999 0-9.98 3.441-10.975 7.545-.153.63.283 1.227.913 1.37l3.265.739c.745.169 1.459-.365 1.711-1.086.694-1.974 2.426-3.393 5.14-3.393 3.489 0 5.014 1.799 5.014 4.033 0 .926-.436 1.688-1.961 1.908l-6.813 1.035c-4.522.653-8.008 3.267-8.008 8.009zm10.189 3.05c-2.507 0-3.869-1.634-3.869-3.433 0-2.178 1.581-3.267 3.543-3.596l5.733-.857c.625-.094 1.186.39 1.186 1.023 0 5.175-3.053 6.863-6.593 6.863zM367.558 118.158c.222 0 .428.007.62.018.846.043 1.668-.587 1.668-1.436v-2.916c0-.482-.278-.918-.748-1.035-.632-.158-1.545-.296-2.576-.296-5.45 0-9.263 3.596-9.263 9.534v2.375c0 .706-.571 1.275-1.275 1.275h-2.082c-.704 0-1.275.571-1.275 1.275v2.954c0 .704.571 1.275 1.275 1.275h2.082c.704 0 1.275.571 1.275 1.275v18.481c0 .704.571 1.276 1.275 1.276h3.823c.707 0 1.276-.572 1.276-1.276v-18.481c0-.704.571-1.275 1.275-1.275h3.606c.707 0 1.276-.571 1.276-1.275v-2.954c0-.704-.569-1.275-1.276-1.275h-3.606c-.704 0-1.275-.569-1.275-1.275v-2.212c0-3.267 2.234-4.032 3.925-4.032zM387.602 126.557c0-.607-.431-1.138-1.036-1.184-.204-.015-.423-.025-.655-.025-2.15 0-4.094.642-5.56 1.813-.62.495-2.122.038-2.122-.755 0-.403-.327-.732-.73-.732h-4.15c-.706 0-1.275.571-1.275 1.275v23.986c0 .704.569 1.275 1.275 1.275h3.77c.704 0 1.275-.571 1.275-1.275v-11.366c0-4.958 2.232-7.791 7.137-7.791.194 0 .39.005.592.015.78.036 1.479-.556 1.479-1.339v-3.897zM395.184 152.211c.704 0 1.276-.571 1.276-1.275V126.95c0-.704-.572-1.275-1.276-1.275h-3.716c-.704 0-1.275.571-1.275 1.275v23.986c0 .704.571 1.275 1.275 1.275h3.716zm-5.97-35.851c0 2.288 1.851 4.086 4.086 4.086 2.287 0 4.139-1.798 4.139-4.086 0-2.29-1.852-4.142-4.139-4.142-2.235 0-4.086 1.852-4.086 4.142zM413.436 130.684c3.278 0 5.078 1.727 5.961 3.629.316.686 1.084 1.102 1.793.845l3.257-1.191c.617-.225.969-.883.739-1.498-1.443-3.884-5.282-7.616-11.804-7.616-7.628 0-13.566 5.885-13.566 14.056 0 8.065 5.938 14.113 13.73 14.113 6.34 0 10.202-3.737 11.794-7.527.262-.625-.09-1.316-.725-1.548l-3.15-1.143c-.691-.25-1.443.138-1.78.791-.921 1.78-2.806 3.652-6.139 3.652-3.979 0-7.41-2.997-7.41-8.338 0-5.338 3.431-8.225 7.3-8.225zM426.844 145.013c0 4.196 3.433 8.009 8.991 8.009 2.78 0 4.856-.908 6.315-2.097.627-.51 1.926.322 2.089 1.115.069.339.273.166.62.166h3.749c.806 0 1.426-.74 1.352-1.541-.067-.707-.123-1.625-.123-2.711V134.77c0-5.285-3.106-9.917-11.278-9.917-6.002 0-9.983 3.441-10.975 7.545-.153.63.28 1.227.913 1.37l3.262.739c.747.169 1.462-.365 1.714-1.086.691-1.974 2.426-3.393 5.139-3.393 3.487 0 5.012 1.799 5.012 4.033 0 .926-.433 1.688-1.961 1.908l-6.81 1.035c-4.522.653-8.009 3.267-8.009 8.009zm10.19 3.05c-2.508 0-3.87-1.634-3.87-3.433 0-2.178 1.579-3.267 3.543-3.596l5.734-.857c.622-.094 1.183.39 1.183 1.023 0 5.175-3.05 6.863-6.59 6.863z"/></svg>