<svg width="156" height="26" fill="none" xmlns="http://www.w3.org/2000/svg"><path d="M28.538 16.915c.07 1.703.599 3.072 1.588 4.107.99 1.036 2.37 1.554 4.142 1.554.806 0 1.508-.092 2.106-.277.598-.184 1.105-.437 1.519-.759.437-.322.782-.69 1.035-1.104a6.32 6.32 0 0 0 .656-1.381l2.555.69a7.614 7.614 0 0 1-2.693 3.9c-1.288.99-3.037 1.485-5.247 1.485-1.22 0-2.347-.207-3.382-.621a7.81 7.81 0 0 1-2.624-1.83c-.736-.782-1.312-1.714-1.726-2.796-.414-1.081-.621-2.278-.621-3.59v-.828c0-1.197.207-2.313.621-3.349a7.97 7.97 0 0 1 1.795-2.658 8.004 8.004 0 0 1 2.658-1.76 8.52 8.52 0 0 1 3.348-.656c1.404 0 2.612.265 3.625.794 1.035.506 1.876 1.14 2.52 1.899a7.189 7.189 0 0 1 1.45 2.485c.322.897.483 1.726.483 2.485v2.21H28.538Zm5.73-7.319c-.759 0-1.472.127-2.14.38-.644.23-1.22.564-1.726 1.001a5.752 5.752 0 0 0-1.208 1.554 5.719 5.719 0 0 0-.587 1.898h11.046a4.8 4.8 0 0 0-.552-2.002 4.59 4.59 0 0 0-1.208-1.519 5.317 5.317 0 0 0-1.691-.966 5.522 5.522 0 0 0-1.934-.346ZM49.85 11.944c0 .828.344 1.461 1.035 1.898.713.438 2.002.725 3.866.863 2.002.161 3.52.645 4.556 1.45 1.059.782 1.588 1.933 1.588 3.452v.207c0 .829-.172 1.576-.518 2.244a4.762 4.762 0 0 1-1.38 1.657c-.576.46-1.289.805-2.14 1.035-.829.253-1.738.38-2.727.38-1.335 0-2.486-.172-3.452-.518-.944-.368-1.738-.84-2.382-1.415a6.244 6.244 0 0 1-1.416-2.002 6.877 6.877 0 0 1-.552-2.278l2.555-.622c.115 1.312.62 2.37 1.518 3.176.898.782 2.095 1.174 3.59 1.174 1.266 0 2.279-.242 3.038-.725.782-.507 1.174-1.208 1.174-2.106 0-.966-.38-1.657-1.14-2.071-.759-.414-1.99-.679-3.693-.794-1.979-.138-3.498-.598-4.556-1.38-1.06-.783-1.588-1.922-1.588-3.418v-.207c0-.806.172-1.508.517-2.106a4.71 4.71 0 0 1 1.381-1.553 6.652 6.652 0 0 1 2.002-.932 8.502 8.502 0 0 1 2.313-.311c1.128 0 2.117.161 2.969.483.851.3 1.565.702 2.14 1.208a4.877 4.877 0 0 1 1.312 1.692c.322.644.529 1.289.621 1.933l-2.554.621c-.115-1.104-.564-1.967-1.347-2.589-.76-.621-1.76-.932-3.003-.932-.483 0-.955.058-1.415.173a3.773 3.773 0 0 0-1.174.449 2.49 2.49 0 0 0-.828.794c-.207.299-.31.655-.31 1.07ZM64.754 7.525h5.385V.483h2.692v7.042h6.628v2.486h-6.628v11.115c0 .69.311 1.035.932 1.035h4.868v2.486h-5.834c-.782 0-1.427-.253-1.933-.76-.484-.506-.725-1.15-.725-1.933V10.01h-5.385V7.526ZM99.937 18.571a8.547 8.547 0 0 1-.966 2.624 7.498 7.498 0 0 1-1.692 2.106 7.716 7.716 0 0 1-2.416 1.346c-.92.322-1.945.483-3.072.483a9.97 9.97 0 0 1-3.418-.587 8.43 8.43 0 0 1-2.796-1.691c-.805-.76-1.45-1.68-1.933-2.762-.46-1.081-.69-2.324-.69-3.728v-.414c0-1.38.23-2.623.69-3.728.483-1.105 1.128-2.037 1.933-2.796a8.603 8.603 0 0 1 2.796-1.76 9.473 9.473 0 0 1 3.418-.622c1.081 0 2.083.161 3.003.483.92.322 1.726.783 2.416 1.381a6.808 6.808 0 0 1 1.726 2.071c.46.806.771 1.68.932 2.624l-2.692.621a5.153 5.153 0 0 0-.518-1.726 4.304 4.304 0 0 0-1.07-1.484 4.678 4.678 0 0 0-1.622-1.036c-.645-.253-1.393-.38-2.244-.38-.829 0-1.611.162-2.348.484-.713.299-1.346.736-1.898 1.311a6.05 6.05 0 0 0-1.312 2.002 7.094 7.094 0 0 0-.449 2.555v.414c0 .967.15 1.841.45 2.624.321.76.759 1.403 1.31 1.933.553.529 1.198.943 1.934 1.242.736.277 1.53.415 2.382.415.851 0 1.588-.127 2.209-.38.644-.276 1.185-.621 1.622-1.036.46-.437.817-.932 1.07-1.484.277-.552.46-1.128.553-1.726l2.692.621ZM118.85 16.293c0 1.427-.242 2.693-.725 3.797-.46 1.082-1.081 2.002-1.864 2.762a8.052 8.052 0 0 1-2.761 1.691 9.111 9.111 0 0 1-3.245.587 9.206 9.206 0 0 1-3.28-.587 8.135 8.135 0 0 1-2.727-1.691c-.782-.76-1.415-1.68-1.898-2.762-.46-1.104-.691-2.37-.691-3.797v-.414c0-1.404.231-2.647.691-3.728.483-1.105 1.116-2.037 1.898-2.796a8.226 8.226 0 0 1 2.762-1.726 9.103 9.103 0 0 1 3.245-.587 9.11 9.11 0 0 1 3.245.587 7.87 7.87 0 0 1 2.727 1.726c.805.76 1.438 1.691 1.898 2.796.483 1.081.725 2.324.725 3.728v.414Zm-8.595 6.283c.828 0 1.588-.138 2.278-.415a5.498 5.498 0 0 0 1.864-1.277 5.974 5.974 0 0 0 1.243-1.967c.299-.783.448-1.657.448-2.624v-.414c0-.92-.149-1.76-.448-2.52a5.9 5.9 0 0 0-1.243-2.002 5.5 5.5 0 0 0-1.864-1.277 5.47 5.47 0 0 0-2.278-.484c-.806 0-1.565.162-2.279.484a5.51 5.51 0 0 0-1.864 1.277 5.898 5.898 0 0 0-1.242 2.002c-.299.76-.449 1.6-.449 2.52v.414c0 .967.15 1.841.449 2.624.299.759.713 1.415 1.242 1.967.53.552 1.14.978 1.83 1.277a6.348 6.348 0 0 0 2.313.415ZM126.76 2.416a2.3 2.3 0 0 1 .69-1.691c.484-.483 1.059-.725 1.726-.725.668 0 1.231.242 1.692.725.483.46.725 1.024.725 1.691 0 .668-.242 1.243-.725 1.726-.461.46-1.024.69-1.692.69-.667 0-1.242-.23-1.726-.69a2.417 2.417 0 0 1-.69-1.726Zm-4.902 19.745h6.007v-12.15h-5.385V7.525h8.077v14.636h5.592v2.486h-14.291V22.16ZM143.573 24.647h-2.692V7.525h2.692v2.9h.414c1.059-2.255 2.9-3.383 5.523-3.383 1.98 0 3.556.621 4.73 1.864 1.173 1.22 1.76 3.06 1.76 5.523v10.218h-2.692V14.98c0-1.795-.403-3.14-1.209-4.038-.805-.898-1.898-1.347-3.279-1.347-1.634 0-2.923.564-3.866 1.692-.921 1.104-1.381 2.589-1.381 4.453v8.906ZM8.136 3.058V.706L0 5.676V10.272L8.136 5.3V3.058ZM0 12.647v12.076h8.136V7.453L0 12.647Z" fill="#000"/><path d="m16.085 2.992-7.95 4.46 5.504 5.195v12.076h8.135V7.453l-5.69-4.46Z" fill="#000"/></svg>