<svg fill="none" xmlns="http://www.w3.org/2000/svg" viewBox="0 0 1110 286"><path d="M414.784 224.533v17.422H381.06V42.9h33.724v76.576c8.02-11.333 22.952-19.078 40.922-19.078 41.196 0 65.792 29.303 65.792 71.881s-24.608 71.881-66.352 71.881c-16.862 0-32.342-7.46-40.362-19.627Zm72.99-52.254c0-25.704-14.932-42.566-37.597-42.566-22.666 0-37.597 16.862-37.597 42.578 0 25.716 14.919 42.566 37.597 42.566 22.665 0 37.597-16.862 37.597-42.578ZM674.114 241.955h-34.01v-21.569c-7.746 15.206-23.5 23.774-43.4 23.774-31.246 0-51.695-22.666-51.695-55.293v-86.253h33.724v79.067c0 19.078 11.893 32.342 29.029 32.342 19.079 0 32.342-14.932 32.342-35.393v-76.028h34.01v139.353ZM697.054 195.504h30.959c1.382 13.275 11.607 21.569 26.813 21.569 13.275 0 22.117-6.637 22.117-14.931 0-30.96-76.302-1.382-76.302-60.263 0-24.333 21.283-41.469 50.038-41.469 32.627 0 55.019 17.97 56.401 45.056h-30.959c-1.931-12.989-13.824-19.626-24.608-19.626-12.167 0-20.187 5.529-20.187 14.931 0 30.137 77.41-3.039 77.41 59.989 0 26.264-21.283 43.4-53.91 43.4-33.713 0-56.116-18.793-57.772-48.656ZM834.464 42.9h33.724v81.283c7.746-15.205 23.774-23.773 43.687-23.773 31.245 0 51.694 22.665 51.694 55.293v86.252h-33.724v-79.067c0-19.078-11.893-32.341-29.303-32.341-18.804 0-32.342 14.931-32.342 35.392v76.028h-33.724V42.9h-.012ZM1109.82 152.378v89.577h-33.45V221.22c-5.8 13.824-21.84 22.952-41.74 22.952-27.65 0-46.453-17.696-46.453-41.744 0-27.099 21.013-43.961 52.253-43.961h25.72c6.91 0 10.22-3.873 10.22-9.402 0-13.549-10.51-23.225-28.48-23.225s-28.75 11.332-29.3 23.773h-30.413c1.656-27.646 25.153-49.203 61.373-49.203 35.39-.012 60.27 20.448 60.27 51.968Zm-33.45 30.685v-2.216h-31.24c-14.37 0-24.05 8.02-24.05 20.187 0 10.784 8.84 17.97 21.57 17.97 21.27 0 33.72-14.932 33.72-35.941Z" fill="#000639"/><path d="M263.149 285.799a22.458 22.458 0 0 1-16.082-6.739L6.662 38.82A22.816 22.816 0 0 1 23.112.85a22.825 22.825 0 0 1 15.833 5.811L279.23 246.902a22.828 22.828 0 0 1 6.197 11.658 22.823 22.823 0 0 1-9.658 23.359 22.82 22.82 0 0 1-12.621 3.88ZM263.167 147.517a22.717 22.717 0 0 1-16.098-6.746L145.153 38.861a22.762 22.762 0 0 1 0-32.193 22.766 22.766 0 0 1 32.196 0l101.917 101.908a22.608 22.608 0 0 1 0 32.195 22.256 22.256 0 0 1-16.099 6.746ZM124.683 286a22.742 22.742 0 0 1-16.099-6.747L6.668 177.344a22.764 22.764 0 0 1 24.81-37.129 22.765 22.765 0 0 1 7.387 4.935L140.78 247.059a22.6 22.6 0 0 1 6.734 16.097 22.605 22.605 0 0 1-6.734 16.097A22.256 22.256 0 0 1 124.683 286Z" fill="#16CB3E"/></svg>