<svg width="1080" height="1080" fill="none" xmlns="http://www.w3.org/2000/svg">
  <path d="M240.78 286.29H167.7L102.74 489h39.15l17.98-55.68h89.9L268.62 489h39.15l-66.99-202.71Zm-70.47 114.84 33.93-104.69 34.8 104.69h-68.73Zm191.038 88.16v-203h-35.96v203h35.96Zm79.271-149.64v-53.36h-35.96v53.36h-21.75v28.13h3.48s18.27 0 18.27 20.01v64.67c0 20.59 16.53 36.83 36.83 36.83h24.65v-31.9h-14.21c-6.09 0-11.31-5.22-11.31-11.31V390.4c0-21.46-45.53-22.62-53.07-22.62h78.59v-28.13h-25.52ZM217 647.26s-38.86-8.99-40.02-9.28c-13.05-3.48-24.07-9.86-24.07-23.2 0-14.5 17.69-26.39 40.02-26.39 27.26 0 42.63 16.82 42.63 33.35h37.99c0-35.38-27.55-65.25-80.62-65.25-44.95 0-78.01 24.07-78.01 58.58 0 35.67 22.62 52.78 55.68 60.32 0 0 39.15 8.99 40.02 9.28 15.08 3.77 27.55 11.31 27.55 26.1 0 18.27-22.62 29.87-46.4 27.84-32.19-2.61-44.08-23.78-44.08-38.86h-37.7c0 33.06 27.55 69.6 82.36 71.05 41.18.87 83.81-21.75 83.81-60.03 0-35.38-24.36-55.1-59.16-63.51Zm151.568 89.61c-22.91 0-35.09-21.75-35.09-46.69 0-25.23 15.08-46.69 34.8-46.69 15.66 0 28.13 11.6 32.48 27.55h38.86c-6.38-37.41-36.25-59.45-71.63-59.45-39.73 0-74.24 34.8-72.21 83.23 1.74 45.24 34.22 73.66 73.08 73.66 36.25 0 63.22-24.07 70.18-56.84h-40.02c-3.19 13.05-14.79 25.23-30.45 25.23Zm131.549-59.74v.87-.87Zm41.18-64.96c-22.04 1.74-40.89 24.65-41.18 64.96.29-20.01 9.28-34.51 29.87-34.51 22.62 0 29.87 16.82 29.87 35.38v87.29h36.25v-99.47c0-34.8-28.71-55.68-54.81-53.65Zm-77.14-49.88v203h35.96v-203h-35.96Zm229.555 49.3c-38.57 0-73.95 28.71-73.95 78.59s34.8 78.01 73.95 78.3c39.44-.29 74.24-28.71 74.24-78.3 0-49.88-35.67-78.59-74.24-78.59Zm0 124.99c-19.14 0-37.7-15.08-37.7-46.4 0-29.58 18.27-46.4 37.7-46.69 19.72.29 37.99 17.4 37.99 46.69 0 31.32-18.56 46.4-37.99 46.4Zm167.09-124.99c-38.57 0-73.95 28.71-73.95 78.59s34.8 78.01 73.95 78.3c39.44-.29 74.24-28.71 74.24-78.3 0-49.88-35.67-78.59-74.24-78.59Zm0 124.99c-19.14 0-37.7-15.08-37.7-46.4 0-29.58 18.27-46.4 37.7-46.69 19.72.29 37.99 17.4 37.99 46.69 0 31.32-18.56 46.4-37.99 46.4Zm135.77 28.71v-203h-35.96v203h35.96ZM997 445H505v44h492v-44Z" fill="#000"/>
</svg>
