<!DOCTYPE svg PUBLIC "-//W3C//DTD SVG 20010904//EN" "http://www.w3.org/TR/2001/REC-SVG-20010904/DTD/svg10.dtd">
<svg version="1.0" xmlns="http://www.w3.org/2000/svg" width="512px" height="329px" viewBox="0 0 5120 3290" preserveAspectRatio="xMidYMid meet">
<g id="layer101" fill="#006633" stroke="none">
<path d="M2060 3031 c0 -5 13 -11 29 -14 60 -12 61 -17 61 -258 0 -206 -1 -220 -20 -239 -11 -11 -31 -20 -45 -20 -14 0 -25 -4 -25 -10 0 -6 93 -10 260 -10 l260 0 0 121 c0 134 -13 154 -37 59 -30 -120 -83 -160 -207 -160 l-76 0 0 115 0 115 30 0 c39 0 75 -35 89 -86 6 -22 11 -45 11 -51 0 -7 5 -13 10 -13 6 0 10 62 10 165 0 156 -10 211 -24 127 -9 -61 -45 -106 -90 -113 l-38 -6 4 114 c3 107 5 116 27 134 13 10 36 19 52 19 16 0 29 5 29 10 0 6 -58 10 -155 10 -85 0 -155 -4 -155 -9z"/>
<path d="M2298 2334 c-38 -20 -61 -68 -54 -110 7 -34 55 -84 82 -84 18 0 18 -32 -2 -145 -38 -221 -103 -390 -183 -472 -132 -136 -329 -155 -669 -64 -36 10 -40 15 -46 50 -7 48 -54 91 -97 91 -113 0 -152 -148 -52 -199 42 -21 83 -13 120 24 l35 35 108 -44 c248 -99 382 -202 448 -344 68 -147 13 -377 -153 -633 -40 -61 -47 -68 -64 -59 -63 33 -151 -22 -151 -95 0 -29 8 -45 34 -71 47 -47 95 -47 142 0 38 38 44 77 20 124 -14 27 -12 29 76 130 199 228 362 320 515 293 126 -23 304 -146 461 -317 l69 -76 -20 -38 c-24 -50 -16 -91 25 -125 69 -58 168 -13 168 77 0 35 -6 50 -27 70 -34 32 -70 42 -104 29 -25 -9 -28 -6 -87 92 -108 179 -147 305 -139 445 12 202 159 364 446 493 l104 47 24 -29 c47 -55 134 -44 168 21 39 74 -8 149 -93 150 -57 0 -102 -41 -102 -93 l0 -35 -72 -16 c-159 -34 -208 -40 -343 -40 -118 -1 -151 2 -210 21 -201 63 -293 209 -314 496 -9 140 -4 207 16 207 8 0 28 13 44 29 23 24 29 38 29 73 -1 85 -78 133 -152 92z"/>
<path d="M1804 1996 c-86 -38 -154 -139 -153 -231 0 -136 95 -240 229 -252 168 -16 304 135 269 297 -26 122 -123 200 -248 200 -36 -1 -80 -7 -97 -14z"/>
<path d="M3025 1171 c-161 -42 -242 -214 -169 -359 57 -115 184 -168 305 -127 164 56 222 259 115 400 -49 63 -173 106 -251 86z"/>
<path d="M2292 697 c-49 -15 -127 -90 -147 -139 -66 -164 52 -347 224 -348 74 0 124 17 172 59 139 118 109 341 -56 417 -55 26 -134 30 -193 11z"/>
</g>
<g id="layer102" fill="#00339a" stroke="none">
<path d="M1720 3279 c0 -5 5 -7 10 -4 6 4 10 -18 10 -59 0 -37 -4 -66 -10 -66 -5 0 -10 -4 -10 -10 0 -5 15 -10 34 -10 29 0 38 6 58 38 22 35 23 36 26 12 2 -13 -1 -26 -7 -28 -23 -8 -10 -22 19 -22 17 0 30 5 30 10 0 6 -4 10 -10 10 -6 0 -10 30 -10 70 0 39 -4 70 -8 70 -5 0 -26 -26 -48 -57 l-39 -57 -3 49 c-2 32 1 51 10 56 8 6 2 9 -19 9 -18 0 -33 -5 -33 -11z"/>
<path d="M1955 3210 l0 -80 38 0 c20 0 37 5 37 10 0 6 -4 10 -10 10 -15 0 -13 127 3 133 6 3 -6 6 -28 6 l-40 1 0 -80z"/>
<path d="M2121 3264 c-28 -36 -26 -75 4 -108 20 -22 32 -26 65 -24 35 3 40 6 40 27 0 23 -1 23 -19 7 -31 -29 -56 -17 -59 28 -2 22 -1 50 2 63 8 28 36 31 36 3 0 -11 -5 -20 -12 -20 -6 0 -8 -3 -4 -7 7 -8 76 -13 76 -6 0 10 -24 49 -34 55 -26 18 -75 8 -95 -18z"/>
<path d="M2320 3279 c0 -5 5 -7 10 -4 6 4 10 -18 10 -59 0 -37 -4 -66 -10 -66 -5 0 -10 -4 -10 -10 0 -6 28 -10 65 -10 64 0 65 0 65 28 -1 24 -2 25 -14 10 -7 -10 -23 -18 -35 -18 -16 0 -21 6 -21 25 0 29 15 33 29 8 8 -14 10 -8 10 27 0 35 -2 41 -10 28 -15 -27 -29 -21 -29 11 0 24 4 29 20 26 29 -6 40 -14 40 -31 0 -8 5 -14 10 -14 6 0 10 14 10 30 l0 30 -70 0 c-43 0 -70 -4 -70 -11z"/>
<path d="M2538 3283 c15 -6 17 -133 2 -133 -5 0 -10 -4 -10 -10 0 -19 106 -12 131 9 24 19 24 19 5 40 -15 17 -17 24 -8 33 7 7 12 20 12 30 0 10 5 18 10 18 6 0 10 5 10 10 0 6 -13 10 -30 10 -24 0 -31 -5 -36 -27 -10 -46 -13 -53 -24 -53 -5 0 -10 16 -10 36 0 21 4 33 10 29 6 -3 10 -1 10 4 0 6 -19 11 -42 10 -24 0 -37 -3 -30 -6z m90 -111 c3 -17 -2 -22 -17 -22 -16 0 -21 6 -21 26 0 33 33 30 38 -4z"/>
<path d="M2758 3283 c15 -6 17 -133 2 -133 -5 0 -10 -4 -10 -10 0 -5 20 -10 45 -10 25 0 45 5 45 10 0 6 -4 10 -10 10 -15 0 -13 127 3 133 6 3 -10 5 -38 5 -27 0 -44 -2 -37 -5z"/>
<path d="M2909 3277 c6 -8 21 -42 35 -77 13 -35 28 -66 32 -67 5 -2 22 30 38 71 15 42 33 77 40 80 6 2 -8 5 -30 5 -34 1 -42 -2 -40 -16 1 -23 -39 -30 -48 -8 -3 9 -2 13 4 10 6 -3 10 -1 10 4 0 6 -12 11 -26 11 -21 0 -24 -3 -15 -13z"/>
<path d="M0 3210 c0 -7 268 -10 785 -10 517 0 785 3 785 10 0 7 -268 10 -785 10 -517 0 -785 -3 -785 -10z"/>
<path d="M3688 3203 c232 -2 612 -2 845 0 232 1 42 2 -423 2 -465 0 -655 -1 -422 -2z"/>
<path d="M1825 2893 l-130 -162 -3 126 c-3 137 6 163 55 163 12 0 23 5 23 10 0 6 -35 10 -85 10 -50 0 -85 -4 -85 -10 0 -5 8 -10 18 -10 11 0 26 -8 35 -18 24 -27 25 -283 1 -306 -8 -9 -22 -16 -30 -16 -8 0 -14 -4 -14 -10 0 -6 27 -10 63 -10 l62 0 100 126 c55 69 102 127 105 129 3 2 3 -44 0 -102 -4 -89 -8 -107 -24 -119 -11 -8 -26 -14 -33 -14 -7 0 -13 -4 -13 -10 0 -6 33 -10 80 -10 47 0 80 4 80 10 0 6 -6 10 -13 10 -8 0 -22 9 -33 21 -17 18 -20 42 -24 187 l-5 166 -130 -161z"/>
<path d="M3132 3029 c-105 -52 -137 -197 -67 -299 50 -72 132 -92 201 -49 l37 22 19 -23 c10 -12 20 -21 22 -19 8 9 16 189 9 189 -5 0 -15 -20 -22 -45 -29 -99 -131 -165 -179 -117 -23 23 -42 101 -42 170 1 111 36 172 99 172 53 0 99 -33 123 -86 22 -52 36 -53 19 -1 -12 35 -49 76 -88 96 -33 17 -84 13 -131 -10z"/>
<path d="M3923 3031 c-115 -53 -147 -209 -61 -307 42 -47 82 -66 139 -66 172 0 254 220 127 339 -56 53 -135 65 -205 34z m130 -21 c34 -27 50 -79 50 -161 0 -169 -115 -239 -180 -109 -39 77 -27 217 22 266 30 30 73 31 108 4z"/>
<path d="M0 3030 c0 -5 11 -10 25 -10 37 0 45 -32 45 -173 0 -131 -11 -167 -51 -167 -10 0 -19 -4 -19 -10 0 -6 43 -10 110 -10 67 0 110 4 110 10 0 6 -13 10 -30 10 -19 0 -33 7 -40 19 -5 11 -10 86 -10 170 l0 151 59 0 c53 0 62 -3 84 -30 14 -16 31 -46 37 -67 22 -68 30 -60 30 30 l0 87 -175 0 c-110 0 -175 -4 -175 -10z"/>
<path d="M370 3030 c0 -5 11 -10 25 -10 14 0 29 -8 35 -19 5 -11 10 -80 10 -155 0 -143 -7 -166 -51 -166 -10 0 -19 -4 -19 -10 0 -6 63 -10 170 -10 l170 0 0 76 c0 74 -12 92 -23 35 -3 -16 -17 -41 -30 -57 -20 -23 -34 -28 -85 -32 l-62 -4 0 86 c0 78 2 86 19 86 25 0 59 -43 67 -86 13 -71 24 -30 24 91 0 121 -11 161 -25 93 -11 -50 -32 -78 -60 -78 -24 0 -25 2 -25 78 l0 78 60 -6 c71 -7 106 -34 123 -97 6 -24 15 -43 19 -43 4 0 8 36 8 80 l0 80 -175 0 c-110 0 -175 -4 -175 -10z"/>
<path d="M740 3031 c0 -5 10 -11 23 -15 30 -7 49 -41 107 -201 55 -150 65 -172 72 -159 3 5 34 83 68 174 34 91 67 171 73 178 5 6 18 12 28 12 11 0 19 5 19 10 0 6 -38 10 -95 10 -57 0 -95 -4 -95 -10 0 -5 14 -10 30 -10 34 0 34 1 18 -51 l-11 -39 -67 0 c-64 0 -68 1 -74 25 -8 30 8 65 29 65 8 0 15 5 15 10 0 6 -30 10 -70 10 -38 0 -70 -4 -70 -9z m220 -128 c0 -16 -45 -133 -51 -133 -4 0 -18 32 -31 70 l-25 70 53 0 c30 0 54 -3 54 -7z"/>
<path d="M1160 3030 c0 -5 8 -10 18 -10 37 0 42 -19 42 -163 0 -144 -7 -177 -40 -177 -11 0 -20 -5 -20 -11 0 -7 49 -10 159 -7 144 3 162 5 188 24 37 28 50 73 32 110 -16 32 -49 51 -111 63 l-43 8 42 19 c29 13 49 32 64 59 32 58 49 75 76 75 12 0 23 5 23 10 0 6 -28 10 -64 10 l-64 0 -51 -90 c-50 -86 -54 -90 -87 -90 l-34 0 1 53 c2 79 10 101 42 105 15 2 27 8 27 13 0 5 -45 9 -100 9 -60 0 -100 -4 -100 -10z m286 -211 c12 -14 18 -34 18 -62 -2 -58 -28 -77 -110 -77 l-64 0 0 80 0 80 68 0 c57 0 72 -4 88 -21z"/>
<path d="M2600 3031 c0 -5 10 -11 23 -15 31 -8 43 -31 106 -200 31 -82 61 -151 66 -153 6 -2 39 72 74 164 35 93 68 174 73 181 6 6 19 12 29 12 11 0 19 5 19 10 0 6 -38 10 -95 10 -57 0 -95 -4 -95 -10 0 -5 14 -10 30 -10 34 0 34 1 18 -51 l-11 -39 -67 0 c-64 0 -68 1 -74 25 -8 30 8 65 29 65 8 0 15 5 15 10 0 6 -30 10 -70 10 -38 0 -70 -4 -70 -9z m220 -128 c0 -16 -45 -133 -51 -133 -4 0 -18 32 -31 70 l-25 70 53 0 c30 0 54 -3 54 -7z"/>
<path d="M3440 3030 c0 -5 20 -10 45 -10 34 0 47 -5 55 -19 5 -11 10 -86 10 -170 0 -150 0 -151 -23 -151 -12 0 -33 7 -46 16 -27 20 -60 88 -61 126 0 15 -4 30 -10 33 -6 4 -10 -30 -10 -94 l0 -101 185 0 185 0 0 100 c0 60 -4 100 -10 100 -5 0 -10 -13 -10 -28 0 -41 -46 -127 -76 -140 -54 -25 -54 -24 -54 139 0 84 5 159 10 170 8 14 21 19 50 19 22 0 40 5 40 10 0 6 -53 10 -140 10 -87 0 -140 -4 -140 -10z"/>
<path d="M4240 3030 c0 -5 8 -10 18 -10 37 0 42 -19 42 -170 0 -151 -5 -170 -42 -170 -10 0 -18 -4 -18 -10 0 -13 264 -13 312 0 72 20 100 94 55 146 -17 19 -40 30 -83 39 l-59 13 43 19 c32 15 51 34 75 74 25 42 38 55 60 57 52 6 27 22 -35 22 l-63 0 -53 -90 c-48 -81 -56 -90 -82 -90 l-30 0 0 68 c0 70 10 92 42 92 10 0 18 5 18 10 0 6 -40 10 -100 10 -60 0 -100 -4 -100 -10z m289 -216 c28 -36 27 -79 -4 -109 -20 -21 -34 -25 -85 -25 l-60 0 0 80 0 80 64 0 c58 0 67 -3 85 -26z"/>
<path d="M4750 3030 c0 -5 10 -10 23 -10 36 0 47 -19 47 -85 0 -55 -5 -68 -46 -135 -56 -91 -82 -120 -106 -120 -10 0 -18 -4 -18 -10 0 -6 40 -10 100 -10 60 0 100 4 100 10 0 6 -9 10 -19 10 -36 0 -33 20 12 97 l45 76 41 -64 c22 -35 41 -69 41 -74 0 -18 -23 -35 -47 -35 -13 0 -23 -4 -23 -10 0 -6 35 -10 85 -10 47 0 85 3 85 8 0 4 -15 14 -33 22 -21 10 -50 42 -84 94 -51 76 -53 83 -53 146 0 71 10 90 47 90 13 0 23 5 23 10 0 6 -43 10 -110 10 -67 0 -110 -4 -110 -10z"/>
<path d="M4952 2585 c-69 -58 -43 -149 51 -179 25 -8 81 17 101 45 9 13 16 41 16 62 0 85 -101 128 -168 72z m123 -7 c15 -14 28 -38 32 -60 5 -32 1 -41 -25 -68 -41 -40 -83 -41 -123 -1 -20 20 -29 39 -29 61 0 42 47 90 89 90 17 0 41 -10 56 -22z"/>
<path d="M4980 2509 l0 -50 33 3 c29 3 32 6 32 38 0 19 4 41 8 48 5 8 3 12 -7 12 -8 0 -18 -9 -21 -20 -3 -11 -11 -20 -16 -20 -5 0 -9 9 -9 20 0 11 -4 20 -10 20 -5 0 -10 -23 -10 -51z m50 -19 c0 -5 -7 -10 -15 -10 -8 0 -15 5 -15 10 0 6 7 10 15 10 8 0 15 -4 15 -10z"/>
<path d="M1936 2369 c-65 -19 -107 -91 -87 -152 15 -46 60 -87 103 -93 42 -7 100 17 122 50 64 98 -28 227 -138 195z"/>
<path d="M2298 2334 c-38 -20 -61 -68 -54 -110 7 -34 55 -84 82 -84 18 0 18 -32 -2 -145 -38 -221 -103 -390 -183 -472 -132 -136 -329 -155 -669 -64 -36 10 -40 15 -46 50 -7 48 -54 91 -97 91 -113 0 -152 -148 -52 -199 42 -21 83 -13 120 24 l35 35 108 -44 c248 -99 382 -202 448 -344 23 -49 27 -70 27 -147 -1 -140 -51 -281 -170 -469 -30 -49 -54 -91 -52 -93 2 -2 45 44 96 102 201 230 364 324 518 296 126 -23 304 -146 461 -317 l69 -76 -20 -38 c-24 -50 -16 -91 25 -125 69 -58 168 -13 168 77 0 35 -6 50 -27 70 -34 32 -70 42 -104 29 -25 -9 -28 -6 -87 92 -108 179 -147 305 -139 445 13 219 176 383 521 526 63 26 35 29 -71 7 -152 -31 -279 -44 -378 -38 -302 20 -439 173 -464 520 -9 140 -4 207 16 207 8 0 28 13 44 29 23 24 29 38 29 73 -1 85 -78 133 -152 92z"/>
<path d="M2660 1973 c-183 -96 -183 -350 0 -446 49 -25 63 -28 126 -25 58 3 80 9 120 33 56 35 108 113 119 176 16 93 -36 202 -119 254 -40 24 -62 30 -120 33 -63 3 -77 0 -126 -25z"/>
<path d="M3191 1963 c-48 -24 -78 -92 -62 -144 17 -57 61 -89 123 -89 43 0 54 4 83 33 64 64 51 157 -25 199 -43 22 -75 23 -119 1z"/>
<path d="M1355 1897 c-43 -43 -52 -79 -34 -131 32 -92 140 -114 206 -42 27 29 33 44 33 81 0 78 -49 125 -131 125 -33 0 -47 -6 -74 -33z"/>
<path d="M1194 1297 c-91 -84 -23 -230 100 -214 58 8 106 61 106 117 0 81 -49 130 -130 130 -32 0 -48 -7 -76 -33z"/>
<path d="M1583 1170 c-67 -27 -127 -92 -147 -161 -20 -66 -20 -82 0 -150 43 -144 218 -219 352 -150 88 46 136 126 136 226 0 78 -15 118 -68 173 -70 75 -178 99 -273 62z"/>
<path d="M3289 627 c-40 -27 -66 -89 -55 -132 4 -15 22 -43 41 -62 29 -29 40 -33 83 -33 40 0 57 6 81 26 119 100 -21 288 -150 201z"/>
<path d="M1970 277 c-34 -17 -70 -74 -70 -112 0 -38 36 -95 70 -112 57 -29 137 -5 166 49 18 32 17 95 -2 128 -33 54 -107 76 -164 47z"/>
</g>
<g id="layer103" fill="#663f8f" stroke="none">
<path d="M2348 2140 c-4 -8 -12 -55 -18 -105 -31 -226 -105 -425 -189 -512 -132 -136 -329 -155 -669 -64 -36 10 -40 15 -46 50 -15 97 -148 124 -192 40 -40 -78 9 -159 96 -159 23 0 42 10 67 35 l35 35 108 -44 c248 -99 382 -202 448 -344 23 -49 27 -70 27 -147 -1 -140 -51 -281 -170 -469 -30 -49 -54 -91 -52 -93 2 -2 45 44 96 102 201 230 364 324 518 296 128 -24 304 -145 466 -323 42 -45 78 -80 80 -78 3 3 -24 52 -59 110 -276 451 -159 751 380 974 63 26 35 29 -71 7 -301 -62 -512 -49 -646 40 -79 52 -141 148 -172 267 -17 69 -34 267 -28 323 6 44 -1 83 -9 59z"/>
</g>
<g id="layer104" fill="#ff6500" stroke="none">
<path d="M2643 2375 c-102 -44 -93 -197 14 -234 146 -51 231 175 88 235 -42 17 -61 17 -102 -1z"/>
<path d="M2332 2045 c-31 -230 -106 -434 -191 -522 -132 -136 -329 -155 -669 -64 -36 10 -40 15 -46 50 -15 97 -148 124 -192 40 -40 -78 9 -159 96 -159 23 0 42 10 67 35 l35 35 108 -44 c248 -99 382 -202 448 -344 23 -49 27 -70 27 -147 -1 -140 -51 -281 -170 -469 -30 -49 -54 -91 -52 -93 2 -2 45 44 96 102 201 230 364 324 518 296 128 -24 307 -147 465 -322 40 -44 74 -76 76 -71 1 5 -25 53 -58 108 -146 239 -177 435 -95 601 73 148 218 259 479 367 63 26 35 29 -71 7 -301 -62 -512 -49 -646 40 -79 52 -141 148 -172 267 -18 70 -34 263 -27 335 8 86 -14 48 -26 -48z"/>
<path d="M3484 1266 c-17 -8 -41 -27 -53 -42 -19 -24 -22 -38 -19 -83 4 -45 10 -59 36 -82 42 -38 90 -46 137 -23 98 46 99 181 2 227 -42 20 -62 21 -103 3z"/>
<path d="M1440 657 c-47 -16 -80 -68 -80 -124 0 -38 6 -51 33 -78 43 -43 79 -52 131 -34 107 37 114 179 12 229 -48 23 -49 23 -96 7z"/>
<path d="M2679 265 c-56 -30 -80 -116 -50 -173 19 -35 70 -62 120 -62 83 0 141 93 107 173 -27 66 -114 96 -177 62z"/>
</g>
<g id="layer105" fill="#a9d045" stroke="none">
<path d="M2996 2159 c-48 -38 -23 -109 39 -109 60 0 86 67 42 108 -29 27 -47 28 -81 1z"/>
<path d="M1620 2163 c-41 -15 -54 -78 -22 -106 25 -23 68 -21 92 3 27 27 25 56 -5 85 -24 25 -36 28 -65 18z"/>
<path d="M1240 900 c-39 -39 -11 -110 43 -110 29 0 67 39 67 68 0 29 -34 62 -65 62 -14 0 -34 -9 -45 -20z"/>
<path d="M3485 865 c-29 -28 -31 -51 -9 -83 32 -46 114 -18 114 39 0 30 -9 43 -37 58 -31 16 -41 14 -68 -14z"/>
<path d="M2322 113 c-31 -28 -35 -56 -11 -86 38 -50 112 -24 112 40 0 29 -34 63 -63 63 -10 0 -27 -8 -38 -17z"/>
</g>
<g id="layer106" fill="#ffe3dd" stroke="none">
<path d="M2408 1355 l32 -14 0 -129 c0 -128 -6 -152 -37 -152 -9 0 -13 18 -13 65 l0 65 -187 -1 c-159 0 -183 -2 -153 -12 l35 -12 0 -139 0 -139 -35 -13 c-32 -11 -23 -12 85 -12 109 0 116 1 80 12 l-40 12 -3 147 -3 147 53 0 c71 0 110 -25 140 -89 l23 -51 67 0 68 0 1 78 c1 42 0 109 -1 148 -2 77 5 89 55 97 17 2 -22 5 -85 5 -107 1 -113 0 -82 -13z"/>
<path d="M2599 1258 c-8 -18 -24 -37 -36 -43 -25 -11 -31 -25 -10 -25 18 0 42 -28 55 -65 9 -25 11 -14 11 68 1 53 0 97 -2 97 -2 0 -10 -15 -18 -32z"/>
<path d="M2724 1173 c-14 -50 -42 -89 -71 -103 -18 -8 -33 -18 -33 -22 0 -5 27 -8 60 -8 l60 0 0 75 c0 73 -5 93 -16 58z"/>
</g>
<g id="layer107" fill="#fffefe" stroke="none">
<path d="M2403 1363 c15 -2 31 -12 35 -21 7 -17 1 -253 -8 -282 -4 -12 6 -16 43 -18 l47 -3 -2 151 c-1 83 2 154 8 159 5 5 25 11 44 14 19 2 -17 4 -80 4 -63 0 -103 -2 -87 -4z"/>
<path d="M2610 1270 c0 -12 -12 -32 -27 -46 l-28 -25 24 -18 c12 -10 26 -33 31 -52 6 -25 8 -9 9 64 1 53 -1 97 -4 97 -3 0 -5 -9 -5 -20z"/>
<path d="M2053 1178 c20 -6 37 -14 38 -19 5 -100 -1 -262 -11 -274 -11 -13 -4 -15 51 -15 49 0 60 3 51 12 -8 8 -12 57 -12 155 l0 143 54 0 c39 0 62 -6 86 -22 36 -24 68 -71 69 -100 1 -10 6 -18 12 -18 6 0 8 7 5 16 -3 9 -6 42 -6 75 l0 59 -187 -1 c-145 -1 -179 -3 -150 -11z"/>
<path d="M2704 1118 c-14 -32 -27 -45 -51 -52 -51 -14 -39 -26 27 -26 l60 0 0 60 c0 33 -4 60 -8 60 -5 0 -17 -19 -28 -42z"/>
</g>


</svg>