<svg xmlns="http://www.w3.org/2000/svg" fill="none" viewBox="0 0 113 23"><defs/><path fill="#FC6435" d="M109.65 13.87c.28-1.8-.33-3.09-1.68-3.48-1.65-.48-2.88.3-3.68 2.36h-2.74c-.37-1.92 1.59-4.54 3.73-4.83 1.37-.2 2.83-.17 4.18.12 1.7.36 2.95 1.7 3.1 3.45.3 3.69.3 7.38.42 11.15h-3.02c-.1-.37-.22-.73-.36-1.2a5.8 5.8 0 01-5.69 1.27c-1.86-.56-2.88-1.94-2.92-3.91-.05-1.97.9-3.55 2.76-4 1.91-.5 3.87-.64 5.9-.93zm-3.28 6.48c2.07 0 3.37-1.14 3.47-3.08.02-.58-.12-.95-.76-.88-1.08.1-2.22.05-3.25.34-.62.17-1.37.73-1.63 1.32-.6 1.36.38 2.3 2.17 2.3zM52.72 22.64h-2.88l-.23-1.1c-.24.1-.45.17-.64.3a5.66 5.66 0 01-5.14.84c-1.75-.48-2.74-1.72-2.86-3.66-.14-2 .54-3.52 2.27-4.06 1.65-.5 3.44-.65 5.19-.87 1.44-.17 1.49-.17 1.2-1.58-.3-1.41-.94-2.07-2.15-2.21-1.48-.17-2.38.39-3.02 1.75-.14.31-.56.63-.87.68-.73.1-1.46.02-2.24.02.1-1.8.8-3.1 2.1-4.03 2.1-1.48 4.36-1.46 6.6-.46 2.1.94 2.67 2.94 2.7 5.1 0 3.06-.03 6.1-.03 9.28zm-3.06-6.37c-1.6.22-3.1.3-4.51.66-.5.12-1.04 1-1.11 1.58-.05.5.45 1.33.92 1.55a3.4 3.4 0 003.56-.41c1.04-.73 1.28-1.85 1.14-3.38zM32.4 22.56c-.23.08-.26.1-.3.1-3.12.15-3.12.15-4.82-2.55-.56-.9-1.15-1.8-1.81-2.87-.9 1.41-1.77 2.65-2.5 3.99-.6 1.09-1.33 1.7-2.6 1.48-.52-.1-1.09-.03-1.87-.03 1.16-1.89 2.1-3.69 3.3-5.31 1.19-1.6 1.33-2.9 0-4.52-1.15-1.41-1.98-3.09-3.1-4.88 1.22 0 2.26-.05 3.27.04.29.03.57.5.78.8.9 1.37 1.75 2.75 2.7 4.28.91-1.46 1.74-2.67 2.45-3.98.47-.9 1.06-1.29 2.05-1.17.64.07 1.32.03 2.22.03-1.4 2.2-2.6 4.27-3.92 6.24-.47.73-.45 1.24 0 1.92 1.42 2.06 2.74 4.2 4.15 6.43zM95.42 13.3c-1.02-2.54-2.57-3.49-4.8-2.95-1.98.48-3.3 2.7-3.09 5.24.29 3.48 2.5 5.4 5.36 4.5.73-.22 1.65-.8 1.89-1.46.54-1.43 1.49-1.26 2.53-1.14.3.02.59.14.9.22-.7 3.54-3.6 5.56-7.42 5.2-3.77-.37-6.3-3.38-6.32-7.56-.03-4.15 2.38-7.26 5.92-7.63 4.3-.43 7.03 1.36 7.84 5.4-.97.07-1.92.14-2.81.19zM64.6 2.65c-3.07.31-3.97 1.5-3.57 4.51.05.3.5.68.8.73.85.1 1.7.03 2.65.03v2.62h-3.45V22.6h-3.02v-12c-.54-.03-.94-.05-1.37-.05-1.23-.02-1.89-1.07-1.27-2.2.14-.28.7-.37 1.1-.4 1.54-.07 1.5-.05 1.56-1.6.05-1.05.12-2.11.45-3.09a4.92 4.92 0 015.27-3.2c.3.05.73.5.8.85.14.53.04 1.12.04 1.75zM2.4 10.54H0V8.01c.28-.02.52-.07.73-.07 1.91-.02 1.82.32 1.82-1.9v-3.2c.78 0 1.46.03 2.15 0 .66-.05.92.24.87.92-.05 1.02.02 2.02-.05 3.04-.04.92.33 1.21 1.18 1.17.8-.05 1.63 0 2.5 0v2.62c-.9 0-1.81.05-2.73 0-.74-.05-.97.24-.95.97.03 1.87 0 3.72 0 5.59 0 2.28.73 3 2.98 3h.68v2.41c-3.35 1.48-6.6-.65-6.63-4.44-.02-2.38 0-4.76-.02-7.17 0-.07-.05-.14-.12-.4zM67.57 8.01h2.76l.17 1.7c1.08-1.2 2.24-2.1 4-1.89 0 .73.08 1.46-.02 2.14a1.2 1.2 0 01-.7.8c-2.2.53-3.28 1.85-3.28 4.18-.03 2.52 0 5.07 0 7.67h-2.9c-.03-4.8-.03-9.62-.03-14.6zM12.56 22.61V7.94c.82 0 1.6-.1 2.33.05.26.05.57.66.57 1.02.05 3.64.02 7.26.02 10.9v2.7h-2.92zM77.67 8.01h2.83v14.6h-2.83V8.01zM38.14 20.91c.02 1.12-.8 2-1.89 2.02-1.06.02-1.91-.85-1.93-2a2 2 0 011.88-2.03c1.07 0 1.92.9 1.94 2.01zM14.02 4.5c-1.11 0-1.82-.76-1.82-1.9S12.93.68 14.02.68a1.9 1.9 0 011.91 2 1.78 1.78 0 01-1.91 1.81zM79.13 4.5c-1.1 0-1.84-.74-1.86-1.88A1.83 1.83 0 0179.09.68a1.93 1.93 0 011.95 1.97 1.87 1.87 0 01-1.9 1.84z"/></svg>
