<svg id="Layer_1" data-name="Layer 1" xmlns="http://www.w3.org/2000/svg" viewBox="0 0 955.65 116.2"><defs><style>.cls-1{fill:#03aded}.cls-2{fill:#242021}</style></defs><path class="cls-1" d="M809.28 548.16v4.2c-5.78-.31-11.39-.84-17-.85-8.13 0-16.27.57-24.4.47-2.93 0-5.89-2-8.76-1.87-8.14.45-16.24 1.55-24.36 2.4-.82.09-1.64.21-2.78.36v-7.25c-4.06 2.27-7.63 5-11.66 6.38-14.86 5-32.32-1.86-37.78-18.54-2.43-7.4-3.87-15-3.35-22.68.77-11.41 3.88-22.15 11.71-30.85 6-6.64 13.81-9.9 22.68-10.31 5.76-.27 11.55 0 17.89 0-.24-5.36-.35-11.35-.85-17.32a6.21 6.21 0 0 0-6.18-5.74c-3.88-.1-4-1.81-3.31-5.23a62.89 62.89 0 0 0 7.52 0q12.23-1.46 24.42-3.3c2.81-.43 3.73.18 3.28 2.94a27.93 27.93 0 0 0-.52 4.34v88.17c0 7.74 1.13 9.17 8.36 11.54.93.31 1.55 1.57 2.37 2.47 7-1.8 8.45-7.56 8.55-13.65.24-15.25.39-30.51-.06-45.75-.22-7.22-.91-8.88-9.22-10.69v-4.75c3.27 0 6.36.24 9.41 0a204.82 204.82 0 0 0 20.47-2.48c3.7-.73 4 .54 4 3.43q0 30.88.09 61.75c0 8.17 1.67 10.47 9.48 12.81zm-77.73-37.73v-25.27c0-4.61-1.06-6-5.5-7.45-8.11-2.61-15.17.72-17.6 9.46a91.82 91.82 0 0 0-3 20.44c-.37 8.51 0 17.11 3.37 25.18 3.5 8.31 11 11.52 19.46 8.55 2.27-.8 3.36-1.93 3.31-4.54-.13-8.78 0-17.57 0-26.37z" transform="translate(-21.09 -437.91)"/><path class="cls-2" d="M240.56 549.46v3.85h-42.08l-.19-3.8c7-2 9.74-6.35 9.71-13.68-.09-24.25.4-48.5.58-72.75a52.92 52.92 0 0 0-.7-9.11c-.68-4.05-3.86-6.06-9.36-6.23v-4.08l34.49-4v39.49c5.32-5.15 11.39-8.15 18.83-8.15 7.28 0 14.51-.35 20.79 4.53 5.77 4.48 7.91 10.65 8.12 17.45.41 13.13.33 26.28.48 39.41 0 2.1.09 4.21.24 6.31.48 6.72 2.35 9 8.93 10.79v3.47H249v-3.63a10 10 0 0 0 7.36-10.08c.12-14.49.58-29-.24-43.45-.65-11.4-10.49-16.38-21-11.56a4.44 4.44 0 0 0-2.24 3.21q0 27 .3 53.93c.11 4.23 2.13 6.24 7.39 8.1z" transform="translate(-21.09 -437.91)"/><path class="cls-1" d="M445.63 442.4v18.76h-4.48c-1-7-5.38-11.29-12.27-12.07-10.73-1.21-21.64-1.58-30.25 6.68-5.44 5.22-8.49 12-10.12 19.32-3.82 17.24-3.84 34.41 1.79 51.25 4.8 14.37 15.65 20.82 30.57 19V521c0-.74-.07-1.49 0-2.23.17-5-1.23-7.2-5.64-9-3.35-1.39-3.35-1.39-3.16-4.87H455l.18 3.62-1.73.55c-5.83 1.77-7.93 4.57-8 10.82-.07 8.68-.16 17.37-.07 26 0 2.46-.48 3.52-3.21 4.23-11.11 2.92-22.38 3.07-33.71 2.63-11.06-.43-21.35-3.37-30.58-9.64-9.92-6.75-15.13-16.44-17-28-.91-5.54-1.85-11.2-1.64-16.77.52-13.86 2.84-27.3 11.94-38.63 7.35-9.15 17.07-14.21 28.19-16.92 16.23-3.93 32.4-2.54 46.3-.41zM918 470.15l.33 7.17c3-1.91 5.35-4.08 8.16-5.14 10.13-3.84 20.43-4.58 30.26.79 6.9 3.78 9.54 10.47 9.74 18 .41 15 .45 30 .77 44.93.17 7.93 2.07 10.27 9.49 12.38v3.57h-41.82c-.74-2.45-.43-3.8 2.49-5.15 2-.94 3.87-3.9 4.38-6.27a58.7 58.7 0 0 0 .84-12.57c-.06-11.28-.39-22.56-.48-33.84-.09-11.67-9-13.86-18.33-12.09-3.82.73-5.29 2.42-5.2 6.65.35 16.37.19 32.75.24 49.12 0 5.94 1.56 8.13 7.25 10.28v3.86h-42l-.25-3.78c8-1.58 10.35-7.42 10.43-14.47.16-15.13.34-30.27-.08-45.4-.2-7.17-.91-9.35-9.39-10.84v-4z" transform="translate(-21.09 -437.91)"/><path class="cls-1" d="M448.63 478.19v-4.14l34-4v54.44a36.64 36.64 0 0 0 .9 8c1.55 6.67 7.85 9.94 15.78 8.31a12 12 0 0 0 4.74-1.76 5.86 5.86 0 0 0 2.36-3.84c.13-14.64.06-29.28 0-43.91 0-2.55.19-5.41-.87-7.56a10.88 10.88 0 0 0-5.5-5.26c-3.08-1-3.84-2.44-3.2-4.89l34.16-3.43v13.91c0 16.75-.07 33.49 0 50.24 0 7.7 1.67 9.46 9.07 10.85.93 4.56.76 4.92-3.56 4.79a93.5 93.5 0 0 0-27.07 2.7c-2 .53-3.13 0-3-2.32.07-1.8 0-3.6 0-4.79-5 2.37-9.69 5.4-14.79 6.78-9.18 2.49-18.34 1.64-26.15-4.4a16.73 16.73 0 0 1-6.5-12.64c-.53-14.2-.56-28.42-.86-42.62a29.94 29.94 0 0 0-.79-8c-1.22-3.94-4.3-6.11-8.71-6.46zm132.23 67.54c-2.94 1.6-7.12 5.13-11.88 6.24-15.13 3.56-28.21-1.25-28.87-19.8a36.51 36.51 0 0 1 1.31-10c1.85-7.34 6.9-11.72 14.18-13 6.4-1.17 13-1.56 19.4-2.17 2.06-.2 4.15 0 6.89 0-.34-6 .15-11.77-1.19-17.1-1.69-6.72-7.32-10.48-16.7-9-5.28.86-8.78 4.19-11.6 8.48a1 1 0 0 1-.58-.11c-5-4.54-4.82-6 0-11 6-6.31 13.41-8.64 21.75-8.57 5.16 0 10.45 0 15.46 1 9.59 2 16.07 10.22 16.31 20.63.31 13.5.06 27 .08 40.51 0 7.63 1.72 8.92 9.25 7.27.74-.16 2.2.37 2.39.91.37 1.07.57 2.71 0 3.51-4 5.57-9.39 9.07-16.35 9.38-4.32.2-8.84 1-12.75-2.05-2.42-1.9-5-3.56-7.15-5.11zm1-32.38c-2.6.25-4.56.38-6.51.62-4.93.61-8.75 2.88-10.18 7.85-1.59 5.48-2 11.06 1.74 15.93 2.89 3.8 10.21 4.31 13.85 1.18a3.27 3.27 0 0 0 1.06-2.16c.07-7.63 0-15.26 0-23.43zm268.92-6.41c-.42-5.88-.21-11.37-1.33-16.58-1.75-8.14-8.91-11.31-16.73-9.16-4.46 1.23-8.37 4.49-13 7.08-4.49-3-4.33-4.55 0-9.28 6.65-7.35 14.94-9.74 24.37-9.38 4.67.18 9.47.06 13.95 1.17 10.16 2.52 15.72 9.94 16 21.58.38 13.63.08 27.28.1 40.92 0 5.79 3.14 8 8.59 6.22.89-.29 2.66-.06 3 .49a4 4 0 0 1 .06 3.47c-4.34 5.79-10.07 9.29-17.47 9.48-5.26.13-10.72.69-14.43-4.36-1.07-1.45-2-3-3-4.57-2.37 1.83-4.78 3.59-7.08 5.48-6.12 5-22.52 5.11-28.49-1.06a25.14 25.14 0 0 1-5.79-10.62c-2.2-8.2-1.39-16.43 4.46-23a19.69 19.69 0 0 1 9.88-5.55c6.32-1.41 12.9-1.71 19.39-2.34 2.17-.22 4.4 0 7.52 0zm-.35 6.42c-2.9.33-5.35.48-7.75.9-4.55.79-8 3.39-8.85 7.91a30.35 30.35 0 0 0-.18 11.71c1.43 6.7 10 9.38 15.5 5.27a3.48 3.48 0 0 0 1.23-2.41c.08-7.61 0-15.17 0-23.43z" transform="translate(-21.09 -437.91)"/><path class="cls-2" d="M197.6 461.94h-5.06c-.86-8.56-4.56-11.8-13.26-11.77h-13.09v84.39c0 9.19 3.16 12.56 12.52 13.33 0 .68.12 1.39.12 2.11a15.77 15.77 0 0 1-.15 1.79h-50.3l-.14-3c3.39-1.48 6.71-2.26 9.09-4.19 1.85-1.5 3.11-4.33 3.6-6.78a56.06 56.06 0 0 0 .66-10.92v-76.66c-6.07 0-12.13-.52-18.06.15-5.58.62-7.77 4.06-9.12 11.59h-4.24v-19.82h86.33z" transform="translate(-21.09 -437.91)"/><path d="M354.12 506.83h-44.33c.51 10.82.29 21.7 8.81 29.75a20.23 20.23 0 0 0 10.26 5 36.34 36.34 0 0 0 19.6-2.17 3.6 3.6 0 0 1 3.17 1c.42.46 0 2.32-.62 3a29.39 29.39 0 0 1-19.86 9.34c-8.24.44-16.52 1.11-24.71-1.83-8.93-3.21-14.52-9.31-18.13-17.7-3.9-9.09-3.78-18.81-2.78-28.18 1.19-11.22 5.28-21.92 14.79-28.91a37.18 37.18 0 0 1 15.29-6.19c5.34-.93 11.12-.43 16.54.45 11.74 1.92 18.89 11.92 20.84 22.83.76 4.32.75 8.72 1.13 13.61zm-44.48-8.28H330c-.5-5.23-.62-10.3-1.54-15.22s-4-7.16-8.54-7.08-7.5 2.24-8.48 7.25c-1 4.81-1.19 9.75-1.78 15z" transform="translate(-21.09 -437.91)" fill="#252122"/><path class="cls-1" d="M662.67 547.94v3.85h-47.38l-.21-3.74c4-1 7.56-2.63 9-6.5a25.4 25.4 0 0 0 1.48-8.56c.14-14.76.29-29.53 0-44.28-.17-7.92-1.82-10.33-9.41-11.37v-4l33.07-3.22v9.13c1.94-1.66 3.38-2.53 4.35-3.77 5.71-7.31 20.55-7.45 27.55-2.89 1.79 1.16 2.22 2.52 1.4 4.34-2.58 5.69-5.15 11.38-7.87 17a3.2 3.2 0 0 1-2.43 1.55c-.73 0-1.63-1.06-2.1-1.85-2-3.42-3.26-7.68-7.85-8.59a65.58 65.58 0 0 0-10.38-1.1c-.56 0-1.7 1.7-1.71 2.62-.1 16.87-.23 33.74 0 50.61.1 7.19 3.54 9.89 12.49 10.77z" transform="translate(-21.09 -437.91)"/><path d="M96.1 554.11h-75V439.85h75zm-72.24-111.7v108.94h69.36V442.41z" transform="translate(-21.09 -437.91)" fill="#0cb0ee"/><path class="cls-1" d="M773.7 454.23c-.11-5.46 1.61-9.45 8.15-9.91a55.81 55.81 0 0 1 13 .69c4.18.69 6 4.08 6.36 8 .46 4.42-1.45 8-5.17 9.76a20.53 20.53 0 0 1-15.89.83c-4.76-1.61-6.43-4.26-6.45-9.37z" transform="translate(-21.09 -437.91)"/><path d="M68 486.88c10.12-4.23 16.48-19.05 12.57-29.26-1.3-3.39-3.24-4.19-5.67-2.26a3.41 3.41 0 0 0 .66.48c3.21 1.29 4.07 2.72 3 5.06-.9 2-3.49 2.51-6 1.24a6.24 6.24 0 0 1-3.29-7c.63-3.67 2.84-6 6.12-6.33 4.92-.55 9 2.06 10.41 7.22 2.47 8.91 1.68 23.59-8.94 31.84-3.18 2.47-7 4.06-10.39 5.93-.24-.12.2.3.62.27 3.18-.19 3.71 1.83 3.58 4.29-.16 3.13-1.09 3.85-4.36 3.91-4.46 0-5.22.52-4.61 4.92.91 6.56 2.4 13 3.54 19.57a72.61 72.61 0 0 1 1.41 10.58c.12 4.75-3.53 7.84-8.53 7.79s-8.6-2.88-8.16-7.69c.59-6.48 2.13-12.87 3.14-19.32.67-4.25 1.27-8.52 1.68-12.8.2-2.17-.91-3.14-3.34-3.12-4.32 0-5-.84-5.1-4.39 0-2.46.78-3.91 3.51-3.69a8.08 8.08 0 0 0 1.92-.35c-.26-.37-.35-.6-.46-.61-14.73-2.16-20.52-14.88-21.07-26.51-.21-4.42-.22-8.88 2.2-12.9 3.61-6 11.25-6.58 14.8-1.13 2.66 4.09.28 9.73-4.28 9.76a5 5 0 0 1-3.71-1.82c-1-1.63-.17-3.34 1.57-4.37l1-.59c-1.6-1.36-3-1.35-4 .56a17.91 17.91 0 0 0-2 5.89c-1.68 10.2 3.49 20.84 12 24.79 1.46.68 3 1.11 4.58 1.64l.64-.7c-.52-.45-1-1-1.57-1.36-.86-.64-2.33-1.12-2.5-1.92-.43-1.92 1.13-2 2.59-2 .44 0 .88-.4 2-1a11.73 11.73 0 0 1-2.37-.68 28.13 28.13 0 0 1-2.33-1.75c.71-.59 1.38-1.21 2.14-1.74.48-.34 1.07-.52 1.43-1.4a4.21 4.21 0 0 1-1.29-.34c-.83-.54-1.58-1.18-2.36-1.79.72-.63 1.43-1.29 2.18-1.92.51-.4 1.08-.73 1.62-1.09a13.22 13.22 0 0 1-1.48-1c-.77-.63-1.48-1.34-2.22-2 .7-.72 1.31-1.92 2.13-2.07 1.76-.36 2.11-1.24 2-2.81-.09-2.37.07-4.54-1.92-6.61-1.11-1.16-1.37-3.72-1.08-5.49.39-2.38 2.81-1.83 4.58-1.85 2.8 0 5.61.27 8.39 0 5.19-.44 5.77 3.78 3.58 6.84a9.22 9.22 0 0 0-1.92 7.21c.15 1 1 1.75 1.69 2.55s1.38 1.46 2.09 2.18c-.78.67-1.55 1.36-2.34 2a11.76 11.76 0 0 1-1 .69l3.28 3.11-3.73 2.88a13.71 13.71 0 0 1 1.28.85c.72.57 1.39 1.19 2.09 1.79-.69.6-1.36 1.23-2.09 1.77a15.64 15.64 0 0 1-2.18 1c2.61 1 6 .67 3.74 4.31l-3.1 1 .39 1zm-6.3-24c-1.45-1.14-2.29-2.31-3.22-2.38-.7-.06-2.17 1.33-2.12 1.92a3.38 3.38 0 0 0 1.92 2.54c.81.24 1.85-1 3.41-2zm0 25.67c-1.45-1.14-2.29-2.3-3.19-2.37-.71 0-2.16 1.31-2.12 1.92a3.27 3.27 0 0 0 1.92 2.49c.81.21 1.83-1 3.39-2zm-3.4-19l-2.55 1.42a9 9 0 0 0 2.8 1c.81 0 1.62-.68 2.42-1.07zm-2.88 6.2c1 2.79 3 1.52 4.37 1.77.32.06.75-.55 1.13-.86-.38-.31-.72-.84-1.12-.88-1.25-.12-2.58 0-4.32 0zm.4 5.22l-.3.73c.46.36.91 1 1.38 1a32.62 32.62 0 0 0 3.93-.31c-.26-.48-.47-1.35-.78-1.38a40.06 40.06 0 0 0-4.18-.07z" transform="translate(-21.09 -437.91)" fill="#282425"/><path d="M61.74 462.88c-1.57 1-2.62 2.28-3.39 2.13a3.38 3.38 0 0 1-1.92-2.54c-.06-.63 1.41-2 2.12-1.92.91 0 1.72 1.18 3.2 2.33z" transform="translate(-21.09 -437.91)" fill="#efeeee"/><path d="M61.75 488.57c-1.57 1-2.6 2.21-3.4 2.08a3.27 3.27 0 0 1-1.92-2.49c0-.64 1.4-2 2.12-1.92.92 0 1.72 1.17 3.21 2.34z" transform="translate(-21.09 -437.91)" fill="#f4f4f4"/><path d="M58.33 469.51l2.67 1.35c-.81.38-1.63 1.08-2.42 1.07a9 9 0 0 1-2.8-1z" transform="translate(-21.09 -437.91)" fill="#e1e0e0"/><path d="M55.5 475.71c1.74 0 3.07-.07 4.38 0 .39 0 .75.57 1.12.88-.38.3-.82.9-1.13.86-1.38-.21-3.37 1-4.37-1.73zm.4 5.22a40.06 40.06 0 0 1 4.24.07c.31 0 .52.89.78 1.38a32.61 32.61 0 0 1-3.93.31c-.47 0-1-.66-1.38-1z" transform="translate(-21.09 -437.91)" fill="#f9f9f9"/><path d="M68 486.88l-3.31 1.38-.39-1 3.1-1z" transform="translate(-21.09 -437.91)" fill="#fcfdfd"/></svg>