<svg xmlns="http://www.w3.org/2000/svg" viewBox="0 0 1000 1000"><title>Nigeria-Logo</title><rect x="9" y="9" width="982" height="982" style="fill:#fcb800"/><path d="M559.5,363.66V361a25.78,25.78,0,0,0-23.56-25.7v-7.71a8.93,8.93,0,0,0-8.93-8.93h0a8.93,8.93,0,0,0-8.94,8.93v7.6h-5.69v-7.6a8.93,8.93,0,0,0-8.94-8.93h0a8.93,8.93,0,0,0-8.93,8.93v7.6H488.2a7.5,7.5,0,0,0-7.5,7.51h0a7.5,7.5,0,0,0,7.5,7.5h6.31v65.39h-6.38A7.43,7.43,0,0,0,480.7,423h0a7.42,7.42,0,0,0,7.43,7.43h6.38v5.69a8.93,8.93,0,0,0,8.93,8.93h0a8.93,8.93,0,0,0,8.94-8.93v-5.58h5.69v5.57a8.93,8.93,0,0,0,8.94,8.93h0a8.93,8.93,0,0,0,8.93-8.93v-5.68a25.79,25.79,0,0,0,23.56-25.71v-2.65a25.67,25.67,0,0,0-8.64-19.22A25.69,25.69,0,0,0,559.5,363.66Zm-16,39.85a11.92,11.92,0,0,1-7.59,11.11,11.51,11.51,0,0,1-4.36.84h-19.2V391.2h19.2a11.51,11.51,0,0,1,4.36.84,11.88,11.88,0,0,1,7.59,11.11Zm0-40.22A12.54,12.54,0,0,1,531,375.84H512.38V350.5H531a12.54,12.54,0,0,1,12.56,12.56Z"/><path d="M637.57,332.36H588.69a8.94,8.94,0,0,0-8.94,8.94,8.95,8.95,0,0,0,8.94,8.92h33.24a6.34,6.34,0,0,1,6.08,8.17l-28.08,93.78a17.13,17.13,0,0,1-16.42,12.23H440a10.74,10.74,0,0,1-10.74-10.75V350.22h23.06a8.93,8.93,0,0,0,8.92-8.92,9,9,0,0,0-8.92-8.94H429.25v-6.31A19.24,19.24,0,0,0,410,306.8H366.16a9.76,9.76,0,0,0-9.76,9.75h0a9.77,9.77,0,0,0,9.76,9.75H404a6.05,6.05,0,0,1,6.06,6.05V497a17.89,17.89,0,0,0,17.88,17.88H449a24.12,24.12,0,1,0,44.1,0h46.28a24.12,24.12,0,1,0,44.1,0h12.3a8.94,8.94,0,0,0,8.94-8.94,8.95,8.95,0,0,0-8.94-8.94H440.66a11.41,11.41,0,0,1-11.41-11.41v-3.32h165a23,23,0,0,0,22-16.38l.43-1.48,34.17-114.18a13.67,13.67,0,0,0,.6-4A13.9,13.9,0,0,0,637.57,332.36ZM570,523.39a8.51,8.51,0,1,1-8.5-8.52A8.51,8.51,0,0,1,570,523.39Zm-90.38,0a8.51,8.51,0,1,1-8.5-8.52A8.51,8.51,0,0,1,479.6,523.39Z"/><path d="M124.08,691.41v-91h24.25V647l11-20.56h25.15l-11.87,22.73,16.47,42.25H162.89l-14.56-40.34v40.34Z" style="fill:#373435"/><path d="M232.84,691.41v-26c0-10.59-1.79-16.6-9.7-16.6a9.51,9.51,0,0,0-9.45,9.45,9.19,9.19,0,0,0,9.45,9.45,13.35,13.35,0,0,0,4.85-1.15V691.8c-1.92.12-3.71.25-5.24.25a33.7,33.7,0,1,1,.13-67.4c13.53,0,24.89,7.15,30.25,18.89,3.58,8,4,15.06,4,22v25.91Z" style="fill:#373435"/><path d="M332.79,646.61v5.74c0,5.23-.13,10.21-1.66,15.45-4.6,16.08-17,25.4-32.56,25.4a33.25,33.25,0,0,1-24-10.21,34.14,34.14,0,0,1-9.7-24c0-19.41,14.81-34.47,33.58-34.47,1.53,0,3.32.13,5.23.26v25.78a13.92,13.92,0,0,0-4.72-1.27,9.36,9.36,0,0,0-9.58,9.7,9.62,9.62,0,0,0,9.45,9.57c7.91,0,9.7-6.13,9.7-17V600.39h24.26Z" style="fill:#373435"/><path d="M384.23,691.41v-26c0-10.59-1.79-16.6-9.71-16.6a9.5,9.5,0,0,0-9.44,9.45,9.19,9.19,0,0,0,9.44,9.45,13.26,13.26,0,0,0,4.85-1.15V691.8c-1.91.12-3.7.25-5.23.25a33.7,33.7,0,1,1,.13-67.4c13.53,0,24.89,7.15,30.25,18.89,3.58,8,4,15.06,4,22v25.91Z" style="fill:#373435"/><path d="M443.45,691.41H418.56V659.75c0-12,1.4-20.17,8.81-27.44a26.42,26.42,0,0,1,18.12-7.66,53.59,53.59,0,0,1,9.19.76v26.17c-1.78-.25-3.19-.51-3.95-.51-6.26,0-7.28,4.34-7.28,12.9Z" style="fill:#373435"/><path d="M462.85,691.41v-91H487.1V647l11-20.56h25.15l-11.87,22.73,16.47,42.25H501.66L487.1,651.07v40.34Z" style="fill:#373435"/><path d="M533.44,640.09a33.81,33.81,0,0,1,28.47-15.44A34.66,34.66,0,0,1,596.25,659a33.69,33.69,0,0,1-10.09,24.12,34.17,34.17,0,0,1-24.25,10.09,34.16,34.16,0,0,1-28.47-53.11Zm28.47,27.71a8.93,8.93,0,0,0,8.93-8.81,9,9,0,0,0-8.93-8.94,8.88,8.88,0,0,0,0,17.75Z" style="fill:#373435"/><path d="M616.15,661.92a15.64,15.64,0,1,1-15.7,15.58A15.75,15.75,0,0,1,616.15,661.92Z" style="fill:#6dc38f"/><path d="M704.62,659v.25c0,19.92-15.7,34-34.34,34a33.6,33.6,0,0,1-18.89-5.74,34.34,34.34,0,0,1,18.89-62.81c16.59,0,30.76,11.23,33.7,28H679c-2.43-2.69-5-4-8.17-4-5.62,0-9.83,4.08-9.83,9.32a9.45,9.45,0,0,0,9.32,9.31c5,0,8-2.68,9.32-8.29Z" style="fill:#373435"/><path d="M715.08,640.09a33.81,33.81,0,0,1,28.47-15.44A34.66,34.66,0,0,1,777.89,659a33.69,33.69,0,0,1-10.09,24.12,34.17,34.17,0,0,1-24.25,10.09,34.16,34.16,0,0,1-28.47-53.11Zm28.47,27.71a8.93,8.93,0,0,0,8.93-8.81,9,9,0,0,0-8.93-8.94,8.88,8.88,0,0,0,0,17.75Z" style="fill:#373435"/><path d="M784.39,651.58v-2c0-5.1.26-9.83,3.7-14.81,4.73-6.63,11.87-10.08,21.07-10.08,8.93,0,16.59,3.7,20.93,10.08,4.34-6,11.62-10.08,20.94-10.08,7.91,0,14.81,2.81,19.4,7.91,5.24,5.75,5.49,11.75,5.49,19v39.83h-23.1V659c0-6-.77-9.45-5.62-9.45s-5.62,3.45-5.62,9.45v32.42h-23V659c0-6-.76-9.45-5.61-9.45s-5.62,3.45-5.62,9.45v32.42h-23Z" style="fill:#373435"/></svg>