<svg xmlns="http://www.w3.org/2000/svg" width="341" height="133.6"><path d="M8.4 124.7a9.3 9.3 0 01-3-6.6 8.3 8.3 0 013-6.4 9.6 9.6 0 0113.9 0 7.8 7.8 0 002.9 2.1 8.4 8.4 0 003.5.7 11 11 0 003.6-.7 11.5 11.5 0 003.3-2 33.5 33.5 0 002.1-3.7 8.8 8.8 0 001-3.5v-9.9h-9.3a22.9 22.9 0 01-8.9-2.2 37.2 37.2 0 01-9.6-6 39.6 39.6 0 01-7.7-9.2A21.5 21.5 0 010 66a27.8 27.8 0 012.3-11 28.6 28.6 0 016.3-9 30 30 0 0120.8-8.6 27 27 0 0110.9 2.3 29 29 0 018.9 6.2A30.7 30.7 0 0158 66v38.6a27.7 27.7 0 01-2.2 11 30 30 0 01-6.2 9.1 30.9 30.9 0 01-9.7 6.6 27.3 27.3 0 01-21.7 0 29.2 29.2 0 01-9.8-6.6zm20.9-68a11 11 0 00-7.1 2.6 8.7 8.7 0 00-3 6.6A10.2 10.2 0 0029.3 76h9.3V66a9 9 0 00-.8-3.8 8.6 8.6 0 00-2.1-2.9 8.5 8.5 0 00-3-1.9 8.3 8.3 0 00-3.4-.7z" fill="#33475b"/><path d="M74.6.1a10.5 10.5 0 017 2.6 8.9 8.9 0 013 6.6 10 10 0 01-.8 3.8 10.2 10.2 0 01-2.2 3.2 13.4 13.4 0 01-3.1 2.2 10 10 0 01-3.8.8 8 8 0 01-3.4-.8 10.5 10.5 0 01-3-2.2 10.4 10.4 0 01-2.9-7 9 9 0 01.8-3.7 8.6 8.6 0 012.1-2.9 9.5 9.5 0 013-1.9 7.5 7.5 0 013.3-.7z" fill="#66c469"/><path d="M84.5 47.5v37.2a10 10 0 01-.8 3.8 11 11 0 01-5.3 5.3 10 10 0 01-3.8.8 8 8 0 01-3.4-.8 11 11 0 01-5.1-5.3 10 10 0 01-.8-3.8V47.5a10 10 0 01.8-3.8 9.5 9.5 0 012.1-3 12.9 12.9 0 013-2.3 7.7 7.7 0 013.4-.8 10 10 0 013.8.8 11 11 0 015.3 5.3 6.9 6.9 0 01.8 3.8zM120.3 37.4a24 24 0 015.3.6 24.8 24.8 0 014.8 1.7V9.3a9.2 9.2 0 012.5-6.7 8.6 8.6 0 016.4-2.6 8.9 8.9 0 019.2 9.3v57.1a27.6 27.6 0 01-2.2 11 28.7 28.7 0 01-5.9 9 27.6 27.6 0 01-9 6 26.5 26.5 0 01-11.1 2.2 27.6 27.6 0 01-10.9-2.2 28.6 28.6 0 01-15.1-15 26.9 26.9 0 01-2.2-11 29.5 29.5 0 018.3-20.5 30.8 30.8 0 019-6.2 27.7 27.7 0 0110.9-2.3zm0 19a8.3 8.3 0 00-6.6 3 10 10 0 00-2.6 7 7.5 7.5 0 00.7 3.3 11.2 11.2 0 001.9 3 10 10 0 002.9 2 7.9 7.9 0 003.7.6 10.4 10.4 0 003.9-.7 9.6 9.6 0 003.2-2 10.6 10.6 0 002.2-2.9 7.6 7.6 0 00.8-3.3 9.9 9.9 0 00-10.1-10z" fill="#33475b"/><path d="M165.3.1a10.5 10.5 0 017 2.6 8.9 8.9 0 013 6.6 10 10 0 01-.8 3.8 10.2 10.2 0 01-2.2 3.2 13.4 13.4 0 01-3.1 2.2 10 10 0 01-3.8.8 8 8 0 01-3.4-.8 10.5 10.5 0 01-3-2.2 10.4 10.4 0 01-2.9-7 9 9 0 01.8-3.7 8.6 8.6 0 012.1-2.9 9.5 9.5 0 013-1.9 7.2 7.2 0 013.3-.7z" fill="#ef3054"/><path d="M175.2 47.5v37.2a10 10 0 01-.8 3.8 11 11 0 01-5.3 5.3 10 10 0 01-3.8.8 8 8 0 01-3.4-.8 11 11 0 01-5.1-5.3 10 10 0 01-.8-3.8V47.5a10 10 0 01.8-3.8 9.5 9.5 0 012.1-3 12.9 12.9 0 013-2.3 7.7 7.7 0 013.4-.8 10 10 0 013.8.8 11 11 0 015.3 5.3 7.9 7.9 0 01.8 3.8zM277 66.6v18.2a10 10 0 01-.8 3.8 9.7 9.7 0 01-2.2 3.1 10.6 10.6 0 01-3.1 2.1 10 10 0 01-3.8.8 8.4 8.4 0 01-6.6-2.9 10.4 10.4 0 01-2.6-6.9V66.6a10 10 0 00-9.9-9.9 7.3 7.3 0 00-3.3.8 9.8 9.8 0 00-2.9 2.1 10.6 10.6 0 00-2.1 3.1 10 10 0 00-.8 4v18.1a10.4 10.4 0 01-2.6 7 8.3 8.3 0 01-6.6 2.8 10 10 0 01-3.8-.8 10.2 10.2 0 01-5.2-5.2 10 10 0 01-.8-3.8V66.6a10 10 0 00-2.6-7 8.3 8.3 0 00-6.6-2.9 8.5 8.5 0 00-6.7 3 10.5 10.5 0 00-2.6 7v18.1a10 10 0 01-.8 3.8 10.2 10.2 0 01-5.2 5.2 9.5 9.5 0 01-3.7.8 8.4 8.4 0 01-6.6-2.9 10.4 10.4 0 01-2.6-6.9v-37a10.4 10.4 0 012.6-7.2 8.8 8.8 0 0110.5-2 11.4 11.4 0 012.8 2c1.9-.8 3.8-1.4 5.8-2a23 23 0 016.4-1 25 25 0 0110.1 2.1 33 33 0 018.9 5.5 27.3 27.3 0 018.3-5.5 24.1 24.1 0 019.9-2 27.5 27.5 0 0111.3 2.2 31.4 31.4 0 019.2 6.1 29.5 29.5 0 016.2 9 26.4 26.4 0 012.3 10.7v1zM312.8 37.6a28 28 0 0119.9 8.3 29.2 29.2 0 016.1 9 25.6 25.6 0 012.2 11 29.2 29.2 0 01-2.2 11.2 28 28 0 01-6.1 9.1 29.5 29.5 0 01-9 6.2 26.9 26.9 0 01-10.9 2.2 28.7 28.7 0 01-11.2-2.2 25.1 25.1 0 01-8.9-6.2 30.3 30.3 0 01-5.9-9 29.2 29.2 0 01-2.2-11.4 27.2 27.2 0 012.2-10.9 29.9 29.9 0 015.9-9 27.2 27.2 0 018.9-6 30.2 30.2 0 0111.2-2.3zm0 19a10.5 10.5 0 00-7 2.6 8.9 8.9 0 00-3 6.6 9.5 9.5 0 00.8 3.7 9.7 9.7 0 002.2 3.1 10.2 10.2 0 003.2 2.2 10 10 0 003.8.8 8.5 8.5 0 006.5-3 10.2 10.2 0 002.6-6.9 8.9 8.9 0 00-2.6-6.6 9.1 9.1 0 00-6.5-2.5z" fill="#33475b"/></svg>