<svg width="1192" height="678" fill="none" xmlns="http://www.w3.org/2000/svg"><path fill-rule="evenodd" clip-rule="evenodd" d="M0 393.6v278.7h45.6v-20.7A85.4 85.4 0 0 0 107 678c27 0 49.4-9.9 67.1-29.6 17.8-19.9 26.8-45 26.8-75.5 0-29.4-8.9-54-26.6-73.8a85.4 85.4 0 0 0-128.6-1.4V388.1L0 393.6zm138.7 135.1a68.2 68.2 0 0 1 15.4 46.3c0 17.8-5.2 32.7-15.8 44.6A50.3 50.3 0 0 1 99 637.2a51.2 51.2 0 0 1-40.6-17.6 66.5 66.5 0 0 1-15.4-46c0-18.7 5.2-33.8 15.6-45.5a52.5 52.5 0 0 1 41-17.6c15.7 0 28.7 6 39.1 18.2z" fill="#20365C"/><path d="M1021.8 393.6v278.7h45.7v-95.5c0-24.3 3.1-41.5 9.5-51.5 6.5-9.9 17.7-14.8 33.6-14.8 12.5 0 21.5 3.6 27 10.7 5.7 7 8.5 18.5 8.5 34.3v116.8h45.7v-121c0-27.6-5.7-47.7-17-60.3a69.5 69.5 0 0 0-53.6-21.7 78.6 78.6 0 0 0-53.8 22V388l-45.6 5.5zM236 474.8h45.5v17.6a87.2 87.2 0 0 1 22.4-18c6.6-3.4 14.4-5 23.5-5 12 0 24.6 3.8 37.7 11.7l-20.9 41.8a43.6 43.6 0 0 0-25.3-9.4c-25 0-37.4 18.8-37.4 56.4v102.4H236V474.8z" fill="#20365C"/><path fill-rule="evenodd" clip-rule="evenodd" d="M521 474.8h45.7v197.5H521v-20.7a87.4 87.4 0 0 1-128.4-3.2 110.1 110.1 0 0 1-26.5-75.5c0-29.6 8.8-54.2 26.5-74a85.6 85.6 0 0 1 128.4-1.2v-23zm-108.4 98.1c0 19 5 34.4 15.2 46.3 10.4 12 23.6 18 39.4 18 16.9 0 30.5-5.8 41-17.4a67.5 67.5 0 0 0 15.6-45.8c0-18.6-5.3-33.8-15.7-45.9a51.6 51.6 0 0 0-40.5-17.6c-15.7 0-28.8 6-39.4 17.8a65.8 65.8 0 0 0-15.6 44.6z" fill="#20365C"/><path d="M611.2 474.8h45.9V493c16-15.8 33.9-23.7 53.9-23.7 23 0 40.9 7.2 53.7 21.7 11.1 12.3 16.7 32.4 16.7 60.2v121.1h-45.9V562c0-19.5-2.7-33-8-40.4-5.3-7.5-15-11.3-28.9-11.3-15.1 0-25.9 5-32.2 15-6.2 9.9-9.3 27.1-9.3 51.7v95.3h-45.9V474.8zM840.7 567.6a61 61 0 0 1 104.3-43l31-30.8a104.7 104.7 0 1 0 30.4 73.8h-43.7a61 61 0 0 1-122 0z" fill="#20365C"/><path fill-rule="evenodd" clip-rule="evenodd" d="M611.2 0v375.3H622V0h-11zm67 267.8a36.8 36.8 0 1 0 0-73.6 36.8 36.8 0 0 0 0 73.6zM714.9 140a36.8 36.8 0 1 1-73.5 0 36.8 36.8 0 0 1 73.5 0zm-159.8 82.3a36.8 36.8 0 1 0 0-73.6 36.8 36.8 0 0 0 0 73.6z" fill="#1DAFEC"/></svg>