<svg xmlns="http://www.w3.org/2000/svg" viewBox="0 0 1482.8 581.05"><defs><style>.cls-1{fill:#0093e1}.cls-2{fill:#aaa}.cls-3{fill:#b3151e}.cls-4{fill:#828282}</style></defs><g id="Layer_2" data-name="Layer 2"><g id="Layer_2-2" data-name="Layer 2"><path class="cls-1" d="M63.85 372.28c-13.45 13-21.09 28.38-24.72 37.28A320.69 320.69 0 0062 443.68c64.52-3 103.65-23.9 128-46.45 30.19-27.93 37.67-55 35.76-64.59-2.31-11.63-22.9-26.35-53.24-52.14s-46.64-77.63 38.21-144.94c78.29-62.11 169.47-81 188-84.36C357.33 19 306.43 0 251.35 0 112.53 0 0 120.29 0 270.37c0 40.49 9.8 78.88 25.7 113.4 17.52-11.28 38.15-11.49 38.15-11.49z"/><path class="cls-1" d="M461.52 121.79c-19.5 13.85-42.65 15.55-42.65 15.55 15.32-8.37 23.45-25.24 27.57-37.71q-7-9.24-14.71-17.74c-25.73-6.81-59.09-3.42-84.44 12.42-25.11 15.69-48.24 43.85-57.29 62.05s-12 40.12 45.2 72.51c61.36 34.73 14.22 89.09-13.08 118.68C285.91 386.73 206.45 444 206.45 444h233c36.2-47.08 63.29-107.58 63.29-173.58-.04-55.08-15.21-106.07-41.22-148.63z"/><circle class="cls-2" cx="740.28" cy="254.52" r="26.92"/><path class="cls-3" d="M781.68 264h140.93v-19.09h-141a42.84 42.84 0 011.13 9.61 42.26 42.26 0 01-1.06 9.48zM617.22 382.82c-9.25-20.6-10.51-57.15 8.46-79.2s57.65-22.77 80.34-1.9v-37a147.28 147.28 0 00-14.73-5.41c-9-2.82-48.18-9.48-76.89 6.41S568.52 319 568.52 349.5s10.25 66.9 52.55 87.4c0 0 14.86 7.05 40 7.05 21.27 0 33.32-6.53 33.32-6.53l17.94-32.81s-18.45 9-39.21 9.23-46.63-10.38-55.9-31.02zM725.54 300.53h29.47v139.78h-29.47zM847.84 297.09c-9 0-23.36 2.62-23.36 2.62l-20.24 27.49v-26.67h-29.47v139.78h29.47V333s8-9.56 25.38-9.56 28.08 5.59 31.8 12.54a27.12 27.12 0 013.13 13.78v90.6H894v-90.6s1.12-28-12-40.81c-10.9-10.68-24.49-11.86-34.16-11.86zM1194.05 297.09c-8.73 0-22.63 2.62-22.63 2.62l-19.92 28c-1.67-6.86-4.5-13.9-9.33-18.76-10.54-10.63-23.71-11.81-33.06-11.81-8.73 0-22.63 2.62-22.63 2.62l-19.59 27.49v-26.72h-29.47v139.78h29.47V333s7.74-9.56 24.58-9.56 27.18 5.59 30.79 12.54a28 28 0 013 13.78v90.6h28.54v-90.6a92.72 92.72 0 00-1.37-17.42c2-2.11 9.71-8.9 24-8.9 16.83 0 27.18 5.59 30.79 12.54a28 28 0 013 13.78v90.6h28.53v-90.6s1.09-28-11.65-40.81c-10.53-10.68-23.69-11.86-33.05-11.86zM1026.55 372.09s0-34.29-12.44-51-29.73-24-46.73-24c-19.15 0-50.67 12-60.38 52.62s9.71 75.79 31.55 86.71 55.54 9.6 66.76 3.89l17.3-28.16s-18.24 9.72-40.24 8.8-33.15-10.64-37.86-17.59-8.21-15.3-7.53-31.27zm-79.18-43.37c9.12-12.12 28.47-13.27 38.45-2.83s10.06 26.83 10.06 26.83h-57.35s.65-13.1 8.84-24zM1354.35 421.64v-71.93s1.14-27-13.17-40.22c-11.17-10.33-23.35-12.4-33-12.4-9 0-32.81 3.78-32.81 3.78L1255.2 333a61.44 61.44 0 0129.37-9.71c12.44-.78 21.61-1.34 28.93 2.32 5.18 2.59 7.73 7.51 8.66 9.73a35 35 0 012.72 14.34v6.05h-26.43s-25.12.21-41.11 17.45-10.79 52.52 4.57 62.28 41.11 7.68 46.51 6.44l16.46-23.8v3.51a61.25 61.25 0 003.11 18.67h30.71c-4.48-4.45-4.35-18.64-4.35-18.64zm-29.47-12.93v7c-4 2-12 5.52-20.1 5.93-11.31.56-27.51-1.26-27.51-22.25 0-16.43 20.19-21.86 27.51-21.82h20.1z"/><path class="cls-3" d="M1433.35 332c-13.66-4.55-30-14.6-23.38-34.92s50.35-18.2 65.52 2.05v-33.2s-24.09-15.76-60.15-11.49v-9.54h-396.07V264h371.2c-16.5 12.23-22.23 33.3-22.23 49.52 0 23.59 18.35 38.93 41.11 44.31s33.1 18.25 33.1 30.25-7 25.66-27.11 25.66-36.72-7.21-47.1-17.59v35.17a96.31 96.31 0 0047.1 12.83c26.9 0 67.46-13.45 67.46-55.86s-35.8-51.73-49.45-56.29z"/><path class="cls-4" d="M43.59 508.18c-17.48 1.11-23.69 17.7-23.69 30.73 0 1.56-.07 8.63-.07 10.3 0 18.84-19.83 19.6-19.83 19.6v12.24c23.29 0 30.75-13.93 30.75-38.93 0-16.55 8.5-21 14.24-22.16a17.55 17.55 0 015.15-.29v-11.41a41.73 41.73 0 00-6.55-.08zM56.03 508.09h12.28v72.96H56.03zM162.33 508.09l-21.53 56.76-21.53-56.76H107l25.49 67.22a8.9 8.9 0 0016.64 0l25.49-67.22zM94.82 551.18v-72.32H82.54v74.43A25.72 25.72 0 00108.26 579h6.25v-11.34h-3.21a16.48 16.48 0 01-16.48-16.48zM249.55 532.9V579h12.29v-44a16.48 16.48 0 0116.48-16.48h3.21v-11.34h-6.25a25.73 25.73 0 00-25.73 25.72zM397.27 532.9V579h12.28v-44A16.48 16.48 0 01426 518.53h3.21v-11.35H423a25.73 25.73 0 00-25.73 25.72zM62.17 485.15a7.79 7.79 0 107.83 7.79 7.79 7.79 0 00-7.83-7.79zM371.34 508.09h12.28v72.96h-12.28zM377.48 485.15a7.79 7.79 0 107.79 7.79 7.79 7.79 0 00-7.79-7.79zM492 478.86v41.43a34.8 34.8 0 1011.62 25.93v-67.36zm-23.21 90.56a23.21 23.21 0 1123.21-23.2 23.21 23.21 0 01-23.23 23.2zM205.91 569.42a23 23 0 01-17.58-8.22l38.82-24.31 9.89-6.22a34.82 34.82 0 103.37 20h-11.74a23.2 23.2 0 01-22.76 18.75zm0-46.41a23 23 0 0113.94 4.73l-36.69 23A23.12 23.12 0 01205.91 523zM325.12 511.39a34.67 34.67 0 00-23.21 8.9v-41.43h-11.62v67.36a34.83 34.83 0 1034.83-34.83zm0 58a23.21 23.21 0 1123.2-23.2 23.21 23.21 0 01-23.2 23.23z"/><path class="cls-2" d="M1155.9 167.74s-1.63 2.62-2.84 4.24a1 1 0 01-.09.13l-5.7-3.32c2.25-2.67 3.79-4.52 3.79-4.52l-1.58-1.11c-5.75 8-16.61 19.64-21.5 24.66-2.41 2.48-3.88 2.83-4.76 2.55-1.35-10.23 3.94-30.61 3.94-30.61a2.27 2.27 0 00-.79-2.34l-14-11a3.73 3.73 0 00-4.7 0 84.08 84.08 0 00-15.19 17c5.13-11.89 9.94-23 12.28-29.61 6.87-19.44 3.24-28.81 3.24-28.81a3.87 3.87 0 00-1.48-1.83l-6.63-4.91h-.05a11.47 11.47 0 00-6.74-2.33c-1.84-.1-6.9-.07-18.37 9.4l-36.8-29.53c8.16-3.36 20.26-6.42 28.5-4.48a30.49 30.49 0 00-5.68-1.32l-.65-.9c2.05.61 4.15 1.33 6.33 2.22a46.88 46.88 0 00-7.5-3.84c-7.52-3.1-19.72-6.18-32.22-1.14-9.71 3.89-25.9 13.66-54.21 39.3-55.63 50.44-100.76 96.73-100.76 96.73l.44.41 16.73 15.57.44.41s3.57-4 9.43-10.49l59.14 43.91-3.92 5.49-.19.27c-2 2.88-3.15 4.47-3.15 4.47l-.61.87 17.38 13.51.37-.55s61.4-92.91 82.35-121.09c7.92-10.65 14.88-19.26 20.75-26.07a83.84 83.84 0 01-2.59 6.55c-3.87 8.63-10.11 21.25-12.36 28.26-3.65 11.36-5.49 25.14 0 30.85 0 0-2.18-3.59-.53-13.37l19.54 14a71.39 71.39 0 00-2.66 8.59c-2.18 10.18 2.52 11.43 2.52 11.43s3.73 2.17 8.54-2.33c3.19-3 16.2-19.53 26.35-32.23-.14 2.3-.12 6 1.13 8.84a5.4 5.4 0 002 2.06c.07 0 .09.11.18.15l11.8 5.84c1.78.89 4 .78 6.44-.44 6.65-3.34 15.6-14.82 17.93-17.91 1-1.26 8.21-10.58 8.21-10.58zm-45.15-20.59l14.25 11.42a39.59 39.59 0 00-4.3 4.21l-14.84-12.09c3.67-3.69 4.89-3.54 4.89-3.54zm-8.51 7.49c.8-1 1.54-1.77 2.22-2.49l15.13 12c-1.43 1.69-3.08 3.64-4.89 5.8l-15-12.2c.87-1.09 1.72-2.15 2.54-3.11zm18.45 32.73l-9.33-5a36.62 36.62 0 01.54-4.14l9 4.53c-.11 1.26-.2 2.5-.26 3.7.02.33.06.59.05.91zm-7.63-10.69l2.6-3.23 6 3c-.2 1.49-.39 3-.55 4.54zm-15.13-37.79l-19.87-14.68a44.66 44.66 0 015.71-9.11c1.44-1.45 2.71-2.67 3.78-3.67l15 12a130.87 130.87 0 01-4.62 15.46zm5.42-19.44v.07l-13.14-10.44a28 28 0 019.62-5.11 2.87 2.87 0 012.22.23c1.49 1.28 2.89 5.49 1.3 15.25zM1097.62 98l4.56 3.27a9.94 9.94 0 00-2.4-.28l-4.21-3.32a9.22 9.22 0 012.05.33zm-5.19 0l4.06 3.49a17.12 17.12 0 00-2.12.76l-3.94-3.54a15.49 15.49 0 012-.71zm-4.8 2.15l4 3.56c-.73.45-1.49 1-2.28 1.53l-4-3.65q1.14-.77 2.28-1.43zm-5.37 3.53l4.28 3.82q-.9.8-1.92 1.74l-4.6-3.73c.84-.71 1.59-1.33 2.24-1.82zm-4.87 4.19l4.58 3.93c-.8.8-1.65 1.67-2.54 2.6l-4.8-3.9c.98-.95 1.89-1.81 2.76-2.62zm-.48 9.2c-.75.82-1.53 1.67-2.34 2.57l-5.15-3.91c.93-1 1.84-1.89 2.71-2.76zm-6.05-8.39c-4 3.65-8.78 8.34-14.28 14.35l-41.79-32.2c7.82-6 13.59-9.85 16.7-11.84.38-.25.93-.52 1.4-.78zm-85.48 7.65c9-8.6 17-15.55 23.81-21.07l42.73 33c-5.45 6.23-11.57 13.63-18.46 22.47-.21.27-.41.54-.62.8zm41.86 42.41c-9 11.65-17.58 22.95-25.52 33.54l-52.49-38.92c10.44-11.09 20.76-21.83 29.57-30.6zm31.26-90.11l.85 1.18c-.59-.07-1.22-.12-1.86-.17l-1.11-1.53c.7.17 1.4.34 2.12.53zm-4.22-1l1.35 1.88h-2.23l-1.65-2.28c.83.13 1.68.29 2.53.45zm-5.12-.76l1.94 2.69c-.85 0-1.72.12-2.62.21l-2.23-3.09c.95.08 1.92.15 2.91.24zm-6.56-.18l2.84 3.5c-.9.15-1.82.32-2.76.52L1039 67c1.16-.11 2.35-.21 3.6-.26zm-7.31.88l3.8 4.06c-1.06.3-2.14.64-3.24 1l-4.17-4.17c1.12-.26 2.32-.58 3.61-.84zm-7.17 2.24l4.21 4.2c-.88.38-1.8.8-2.78 1.29l-4.55-3.87a25.81 25.81 0 013.12-1.57zm-6.62 3.71l4.38 3.75c-1.09.62-2.23 1.3-3.43 2.07l-4.57-3.51c1.35-.83 2.54-1.59 3.62-2.26zm-7 4.57l4.5 3.5c-1.11.75-2.28 1.58-3.49 2.45l-4.44-3.57c1.21-.8 2.36-1.6 3.44-2.33zm-6.73 4.73l4.49 3.64c-1 .74-2 1.51-3 2.33L1005 84.9zm-6.58 4.91l4.49 3.92c-1 .77-1.91 1.56-2.9 2.39l-4.2-4.29c.9-.65 1.76-1.31 2.62-1.97zm-6.06 4.75l4.31 4.41c-1.3 1.12-2.63 2.29-4 3.51l-4.35-4.62 4.05-3.25zM987.36 99l4.47 4.75a496.69 496.69 0 00-3.86 3.54l-4.97-4.64q2.25-1.92 4.36-3.65zm-8 6.94l5 4.68c-1.36 1.28-2.74 2.59-4.16 4l-5.13-4.77q2.22-2.09 4.32-3.96zm-8.17 7.46l5.23 4.86q-2.21 2.13-4.36 4.25l-5.31-4.95zm-8.47 8l5.38 5c-2 2-4 3.9-5.9 5.82l-5.49-5.1zm-10 9.57l5.55 5.17-4.9 4.9-5.69-5.21q2.56-2.54 5.07-4.94zm-10.12 9.78l5.79 5.31-4.39 4.36-6-5.22zm-10 9.72l6.16 5.34-6 6.19-6.23-5.56zM922 160.88l6.35 5.67-5.73 6-6.7-5.63c1.99-2.02 4.08-4.02 6.08-6.04zm-11.17 11l6.88 5.77q-3.81 4-7.25 7.68l-6.8-6.33zm-22.05 36.94l-7.78-7.18 6.88-6.89 7.42 6.91c-2.59 2.86-4.79 5.27-6.52 7.19zm3.63-18.61l6.73-6.71 7 6.48q-3.48 3.74-6.46 7zm13.68 9.94c9.76-10.76 22.72-25 36-39.21l53.4 39.64a3193.76 3193.76 0 00-31.24 42.7zm59.76 66.66l-6.51-5 5.56-7.93 6.61 4.29c-2.3 3.48-4.2 6.4-5.66 8.67zm10.2-15.56L969.7 247l5.25-7.45 6.1 4.23c-1.79 2.69-3.44 5.16-5 7.5zm9.74-14.46l-6-4.14c1.55-2.19 3.15-4.46 4.79-6.76l5.88 4c-1.59 2.43-3.16 4.71-4.67 6.93zm8.66-12.59l-5.8-4 5.74-8.07 5.7 4c-1.95 2.8-3.81 5.47-5.64 8.1zm8.9-12.69l-5.66-4q2.77-3.88 5.6-7.81l5.61 4c-1.9 2.7-3.75 5.3-5.55 7.84zm8.85-12.37l-5.6-4q2.28-3.18 4.56-6.32l5.64 4q-2.34 3.18-4.6 6.35zm8.4-11.5l-5.67-4 3.36-4.61 5.75 4q-1.74 2.33-3.44 4.64zm7-9.47l-5.79-4c1.28-1.75 2.55-3.47 3.79-5.15l5.75 4.17zm7.13-9.44l-5.8-4.21 3.42-4.58 5.8 4.31c-1.15 1.52-2.26 3.02-3.39 4.51zm8.08-10.51l-1.42 1.83-5.84-4.34c1.16-1.52 2.28-3 3.36-4.4l5.91 4.34zm5-6.4l-5.92-4.35q1.83-2.34 3.66-4.59l5.76 4.51zm6.3-7.93l-5.73-4.49q1.56-1.91 3.11-3.73l5.62 4.51c-.95 1.23-1.94 2.46-2.97 3.74zm5.77-7.11l-5.55-4.46c.86-1 1.7-2 2.55-2.94l5.47 4.4zm5.28-6.37l-5.38-4.32 2.34-2.6 5.3 4.26zm4.66-5.45l-5.33-4.06c.84-.9 1.66-1.79 2.47-2.64l5.12 4.12c-.7.85-1.45 1.72-2.23 2.62zm2.57 11.13c1.27-2.76 2.47-5.38 3.64-7.83l20.4 14.62c-.81 2.18-1.59 4.24-2.28 6.1-1 2.57-2.27 5.77-3.77 9.32l-21-15.54c1.03-2.23 2.05-4.49 3.04-6.64zm-4.86 10.91l21.23 15.2c-1.84 4.3-3.86 9-5.85 13.59L1062 160.32c1.7-4.39 3.58-8.87 5.53-13.32zm-11.2 30.08c.44-1.81 1-3.77 1.68-5.9s1.52-4.36 2.35-6.62l21 15c-1.81 4.29-3.53 8.47-5 12.28zm17.91 36.92c-.3-2.53 1.16-7.88 3.6-14.73l8.1 6.25c-5.21 6.9-7.94 9.96-11.7 8.48zm17.66-16.3c-1.73 2.22-3.2 4.15-4.55 6l-8.61-6.85c1.09-3 2.33-6.14 3.67-9.46l11 8.46zm2.94-3.7l-11.44-9.09c.92-2.25 1.88-4.55 2.86-6.87 0-.1.23-.53.57-1.23l13.36 10.59c-1.9 2.32-3.71 4.6-5.35 6.6zm6.82-8.38l-13.66-11.1c.78-1.44 1.8-3.18 3-5l1.19-1.72 14.59 11.56c-1.68 2.09-3.42 4.19-5.12 6.26zm6.64-8l-14.49-11.8c1.41-2 2.89-4.06 4.38-6l15 11.93zm4.73 12.59a3.13 3.13 0 01-1.27-1.5 17.91 17.91 0 01-.49-4.32l9.46 5.07a13.64 13.64 0 001.44 5.64zm8.84-15.26l-5.16-2.76c.91-1.12 1.73-2.11 2.45-3l3.34 1.67c-.21 1.3-.42 2.66-.63 4.07zm-1.82-6.78c.47-.54.89-1 1.23-1.4 1-1 1.73-1.9 2.44-2.7-.28 1.43-.63 3.33-1 5.52zm5.4 27.39a6 6 0 01-1.91-3.58 3.17 3.17 0 001.82-.28l5.63 3.56c-2.13 1.03-4.07 1.33-5.54.28zm7.09-1.16l-5.69-3.56a33.28 33.28 0 003.59-3.12l6.09 3.62a31.53 31.53 0 01-3.99 3.04zm5.33-4.27l-6.21-3.62c1-1.06 2.3-2.42 3.68-4l6.27 3.73a68.306 68.306 0 01-3.74 3.87zm4.92-5.16l-6.31-3.67c1.09-1.22 2.23-2.52 3.37-3.83l6.17 3.67c-.94 1.14-2.02 2.45-3.23 3.86zm6.48-8l-2.19 2.82-6.13-3.57c.84-1 1.65-1.91 2.45-2.84l5.87 3.59zm1-1.28l-5.9-3.44c.68-.79 1.33-1.55 1.94-2.28l5.69 3.48z"/></g></g></svg>