<svg xmlns="http://www.w3.org/2000/svg" width="1280" height="1280"><path fill="#C0F01C" d="m172.2 475.7 6.875-.014q7.164-.01 14.328-.002c6.05.006 12.099-.01 18.148-.034a3724 3724 0 0 1 14.18-.013q3.34 0 6.681-.015c32.7-.132 65.358 3.442 90.588 26.378l2.535 2.18C338.97 515.892 348.788 529.725 356 546l1.371 3.086c2.813 7.029 4.32 13.88 5.379 21.351l.35 2.43c2.589 20.665 2.061 41.722 2.03 62.512q-.006 5.772.004 11.546c.058 45.723.058 45.723-2.384 62.638l-.392 2.742c-1.192 7.69-3.166 14.565-6.358 21.695l-.864 1.943C343.324 762.11 322.331 783.297 296 795h-3l-1 2c-5.693 2.495-11.116 3.724-17.25 4.563l-2.273.341c-16.146 2.323-32.175 3.412-48.477 3.397l-5.565.013q-5.788.01-11.576.002-5.837-.007-11.675.02c-46.431.216-90.066-.968-125.184-35.336-18-18.613-18-18.613-18-26l-2-1c-1.24-2.57-2.365-5.11-3.437-7.75l-.948-2.309c-2.299-5.765-3.902-11.405-5.107-17.5-.398-2.434-.398-2.434-1.508-4.441a198 198 0 0 1-.5-7.25l-.219-3.953-.122-2.26a273 273 0 0 0-.398-5.434c-.79-9.724-.942-19.39-.964-29.142l-.009-2.566q-.022-6.754-.028-13.508a2130 2130 0 0 0-.041-10.906c-.118-19.075.061-38.045 1.61-57.067l.176-2.276c.63-7.864 1.427-15.303 4.495-22.638l.9-2.263c12.58-31.35 34.393-54.501 65.449-68.076 19.804-8.306 41.719-7.977 62.85-7.962"/><path fill="#1B1B1B" d="M641 558c102.789 0 102.789 0 128 22l1.863 1.574c15.576 14.215 22.126 35.77 23.062 56.199.653 22.632-5.884 44.367-21.508 61.027-15.883 16.027-35.581 22.08-57.417 25.2h-74zm39 37v92c31.772 1.04 31.772 1.04 59.313-11.312 9.38-9.381 13.953-21.554 14.687-34.688-.586-13.527-4.662-24.19-13.816-34.137-2.165-1.847-3.404-2.491-6.184-2.863v-2a356 356 0 0 0-4.875-2.375l-2.742-1.336C711.283 592.535 696.32 595 680 595M1170.055 588.879c18.565-.578 35.43 5.69 49.507 17.621 13.783 13.022 20.585 30.465 21.586 49.29.075 4.936-.438 9.24-1.148 14.21h-97c5.378 10.755 9.95 17.334 21.402 21.316 10.293 2.709 21.133 2.185 30.606-2.964 4.001-2.715 7.5-6.022 10.992-9.352 5.926 2.186 10.953 5.61 16.25 9l3.086 1.945 2.93 1.867 2.68 1.708C1233 695 1233 695 1234 697c-13.327 16.283-28.028 25.94-48.812 29.688-20.654 1.968-40.407-2.018-57.188-14.688-13.048-10.992-21.01-25.128-24-42-1.532-21.926 1.516-41.301 15.863-58.809 13.602-13.95 30.848-21.172 50.192-22.312m-17.68 38.808c-4.908 4.779-8.03 9.586-9.375 16.313h61c-1.207-7.24-3.515-12.069-9.187-16.84-14.005-9.675-28.527-8.415-42.438.528M602 600c11.511 10.34 16.134 24.255 17.16 39.365.244 6.076.186 12.15.133 18.229q-.009 2.89-.013 5.783c-.011 5.017-.04 10.034-.074 15.052-.036 6.05-.05 12.1-.067 18.15-.03 9.14-.087 18.28-.139 27.421h-38l-.148-15.074q-.053-4.765-.11-9.53c-.06-5.027-.118-10.054-.164-15.08q-.057-6.09-.136-12.178a1078 1078 0 0 1-.045-4.615c.107-19.729.107-19.729-7.397-37.523-6.376-6.068-12.837-6.448-21.262-6.27-6.835.493-10.701 2.95-15.488 7.707-8.03 10.21-7.853 22.894-7.86 35.239q-.021 2.495-.05 4.989c-.043 4.331-.063 8.663-.078 12.995-.023 5.221-.076 10.443-.123 15.664-.069 7.892-.1 15.784-.139 23.676h-38V592h36l1 17 2.625-3.5c17.674-20.102 51.701-21.11 72.375-5.5"/><path fill="#151614" d="M186 551c6.117-.093 12.23-.172 18.347-.22a855 855 0 0 0 6.22-.082c26.99-.443 48.906 6.158 69.433 24.302 18.018 19.014 24.726 42.213 24.336 67.96-.868 22.626-12.398 44.12-28.52 59.626-17.442 14.95-39.653 21.67-62.472 21.512l-2.12-.003c-2.575-.006-5.15-.02-7.724-.033L186 724v-40c19.875-.312 19.875-.312 26.085-.388q2.485-.049 4.97-.1l2.527-.02c11.892-.284 22.03-4.532 30.75-12.668C260.018 660.42 262.866 649.07 263 635c-.948-13.278-4.947-24.62-14.914-33.754-9.317-7.405-19.786-10.498-31.52-10.66l-2.66-.059c-2.781-.06-5.562-.106-8.344-.152l-5.685-.117c-4.626-.097-9.251-.177-13.877-.258z"/><path fill="#1B1B1B" d="M963 592h41l4.875 14.625 1.694 5.078q4.496 13.472 8.966 26.954 2.461 7.42 4.927 14.84 1.228 3.698 2.453 7.398 1.732 5.232 3.472 10.46l1.062 3.218.976 2.928c.28.848.562 1.697.852 2.57.563 1.907.563 1.907 1.723 2.929l1.132-3.41q5.27-15.872 10.55-31.742 2.716-8.16 5.425-16.32 2.613-7.87 5.233-15.737 1-3.007 1.998-6.018 1.394-4.2 2.795-8.398l.839-2.54c1.914-5.72 1.914-5.72 3.028-6.835a234 234 0 0 1 8.629-.098l2.619.005c2.771.005 5.543.018 8.314.03q2.813.009 5.624.014 6.907.017 13.814.049c-2.079 7.27-4.513 14.356-7.148 21.441l-1.229 3.326q-1.996 5.399-3.998 10.795l-2.79 7.55-4.354 11.773a17961 17961 0 0 0-11.162 30.25l-3.56 9.667-6.61 17.952-1.144 3.105-1.07 2.905-.918 2.494c-1.33 3.584-2.675 7.162-4.017 10.742h-46c-9-21.6-9-21.6-9-26l-2-1c-.746-2.004-.746-2.004-1.437-4.562-.946-3.366-1.969-6.623-3.25-9.875C994 679 994 679 994 676l-2-1c-.704-1.883-.704-1.883-1.363-4.348-1.932-6.83-4.444-13.416-6.94-20.056l-1.052-2.842-.958-2.553C981 643 981 643 981 640l-2-1c-.746-2.004-.746-2.004-1.437-4.562-.946-3.366-1.969-6.623-3.25-9.875C973 621 973 621 973 618l-2-1c-.676-1.758-.676-1.758-1.312-4.125-2.018-7.023-4.377-13.943-6.688-20.875"/><path fill="#1C1C1B" d="M813.326 591.886q2.214 0 4.428.016l2.35.005c2.486.005 4.972.018 7.458.03q2.523.008 5.045.014c4.131.01 8.262.03 12.393.049l1 24 3.062-4.625c8.516-12.05 19.248-16.184 33.458-18.895 6.127-.657 12.318-.48 18.48-.48v36c-4.493 2.246-7.601 2.073-12.438 1.875-11.621-.218-21.883 1.92-30.562 10.125-6.592 6.592-9.082 16.354-9.205 25.42l-.06 3.943-.051 4.246-.063 4.355q-.082 5.721-.153 11.442-.077 5.843-.161 11.684-.162 11.454-.307 22.91-8.09.037-16.18.055-2.755.008-5.51.02c-2.633.013-5.266.018-7.9.023l-2.503.015c-1.97 0-3.939-.051-5.907-.113-1.68-1.68-1.126-3.744-1.127-6.049l-.009-3.314.007-3.668-.006-3.838q-.005-5.226 0-10.45c.003-3.638 0-7.276 0-10.913q-.004-9.165.005-18.33.007-10.611-.002-21.222-.007-9.094-.003-18.188.003-5.44-.001-10.877c-.004-4.04.001-8.08.007-12.12l-.007-3.668.009-3.314.001-2.898c.208-3.55.783-3.14 4.452-3.265M913 592h38v132h-38c-1.68-1.68-1.126-3.744-1.127-6.049l-.009-3.314.007-3.668-.006-3.838a4704 4704 0 0 1 0-10.45c.003-3.638 0-7.276 0-10.913q-.004-9.165.005-18.33.007-10.611-.002-21.222-.007-9.094-.003-18.188.003-5.44-.001-10.877c-.004-4.04.001-8.08.007-12.12l-.007-3.668.009-3.314.001-2.898C912 593 912 593 913 592"/><path fill="#1A1B1B" d="M430 592h38v132h-38z"/><path fill="#171814" d="M128 606h40v118h-40z"/><path fill="#161714" d="M128 551h40v39h-40z"/><path fill="#1C1C1B" d="M916.602 539.886q2.404 0 4.808.016l2.26.003c2.798.006 5.595.02 8.393.032L951 540v38l-18.937.062-5.985.028-4.668.008-2.47.015c-1.98 0-3.96-.05-5.94-.113-1.788-1.788-1.128-4.196-1.139-6.576l.006-2.362-.003-2.41q0-2.527.006-5.053c.005-2.588 0-5.175-.007-7.763q0-2.45.004-4.899l-.006-2.36c.029-6.542.029-6.542 4.74-6.69"/><path fill="#1A1A1C" d="M430 540h38v38h-38z"/></svg>