<svg xmlns="http://www.w3.org/2000/svg" viewBox="0 0 1000 1000"><title>Nigeria-Logo</title><path d="M558,551.7c.42-.77.76-1.58,1.13-2.37L693.42,257.47c1.1-2.38,2.21-4.75,3.29-7.14.38-.82.76-1.54,1.86-1.53,2.47,0,4.95,0,7.77,0-.62,1.5-1,2.61-1.52,3.68Q633,409.06,561.19,565.63c-1.91,4.16-3.88,8.31-5.72,12.5-1.62,3.7-1.38,7.3,1.3,10.44a9.77,9.77,0,0,0,10,3.4c4-.81,6-3.58,7.56-7Q646,429,717.62,273.09c4.56-9.92,9-19.87,13.7-29.75,2.58-5.48.49-13.19-6.71-14.68V228H688.55a.75.75,0,0,1-.06.62c-3.92.86-6,3.63-7.61,7q-8,17.42-16,34.83Q608,394.59,551,518.67c-.54,1.19-1.11,2.36-1.76,3.74-1.5-1-1.52-2.66-2.33-3.83-2.78-4-2.1-7.69-.09-12.06q58.68-127.63,117-255.41c1.22-2.68,2.48-5.35,3.69-8,2.86-6.36-.19-12.72-6.94-14.55h0a1.3,1.3,0,0,0-.22-.53H625a.81.81,0,0,1-.08.61c-3.9.79-6.21,3.37-7.79,6.82q-9.14,19.95-18.31,39.88l-80.35,175c-.37.79-.75,1.57-1.25,2.59-1.62-1.72-2-3.92-3.1-5.67-2.06-3.26-1.73-6.17-.1-9.7q44.14-95.59,88-191.3c1.25-2.72,2.19-5.43,1.5-8.52a9.73,9.73,0,0,0-8.23-7.79,25.39,25.39,0,0,0-3.6-.17c-9.18,0-18.36.17-27.53-.07-5.94-.16-9.61,2.38-12,7.66Q528,290.21,503.65,343q-8.61,18.75-17.22,37.5c-.4.89-.88,1.74-1.54,3.05-1.6-3.5-3-6.64-4.49-9.79-.55-1.21.3-2.1.73-3q7.11-15.66,14.29-31.28,21.68-47.34,43.35-94.69c2-4.34,1.41-8.65-1.57-11.87a8.85,8.85,0,0,0-6.63-3.1c-10.82,0-21.64-.09-32.46,0-4.65,0-7.66,2.75-9.54,6.84l-10.8,23.51Q466.1,285.61,454.4,311c-.39.86-.56,1.9-1.65,2.53L444.66,296c-8.79-19.14-17.65-38.26-26.31-57.46-2-4.51-4.36-8.47-9.09-10.51h-4.59c-.83,1.08-2.22,1.26-3.26,2-3.39,2.44-5.09,5.63-4.58,9.85a15,15,0,0,0,1.57,4.28q21,45.86,42,91.69a5.89,5.89,0,0,1,.11,5.52Q415,396.66,389.65,452a5.27,5.27,0,0,1-1.33,2.19,12.77,12.77,0,0,1-1.92-3.6q-48.87-106.38-97.73-212.78a24.36,24.36,0,0,0-1.8-3.48c-3-4.48-8.44-6-12.91-3.6-5.2,2.76-7.14,8-4.89,13.3.39.91.82,1.79,1.22,2.69l107.48,234.6a32.07,32.07,0,0,0,1.43,3c4.07,7,13.2,7.18,17.55.41a34,34,0,0,0,2.05-4.09L451.15,367a11.36,11.36,0,0,1,1.76-3.27c1.53,2.19,2.21,4.75,3.51,7,1.06,1.82.81,3.39-.05,5.22-4.54,9.69-9,19.43-13.42,29.15q-24,52.23-48,104.46a9.87,9.87,0,0,0-.05,8.83c.85,1.78,1.66,3.57,2.47,5.36,4.27,9.45,8.56,18.89,12.78,28.36,1.42,3.18,3.56,5.47,7,6.35,5.53,1.41,10.11-.77,12.61-6.13,5.2-11.19,10.33-22.4,15.49-33.61q19-41.36,38.06-82.7c.41-.89.55-2,1.74-2.58,1.07,2.33,1.93,4.59,3.1,6.67s.94,3.73,0,5.8Q458,511.48,427.93,577.13c-.5,1.09-1.05,2.17-1.44,3.3a9.8,9.8,0,0,0,7.05,13c4.85,1.25,9.38-1,11.7-6q8-17.25,15.86-34.52,18.88-41.06,37.78-82.11c.46-1,.6-2.29,1.94-2.88.79,1.69,1.53,3.27,2.26,4.85,1.51,3.27,2.92,6.6,4.56,9.8a10,10,0,0,0,8.93,5.72c4.11.15,7-2,9.1-5.41a33.36,33.36,0,0,0,1.59-3.23L625.6,266q3.49-7.59,7-15.17c.46-1,.77-2.09,2.21-2,2.38.11,4.78-.21,7.21.21.1,1.73-.9,3-1.51,4.33q-46.66,101.82-93.38,203.6-11.75,25.6-23.51,51.19a9.2,9.2,0,0,0-.38,7.91q8,17.79,16.06,35.51c1.83,4,5.17,5.75,9.49,5.78A9.82,9.82,0,0,0,558,551.7Zm-92.8-215.38q6.25-13.68,12.58-27.35c8.59-18.63,17.22-37.24,25.7-55.92,1-2.26,2.24-3.16,4.65-2.88a54.91,54.91,0,0,0,5.82,0l-45.14,98.4c-1.64-3.55-2.93-6.4-4.26-9.22C464,338.17,464.81,337.27,465.24,336.32Zm7.27,74.48q-9,19.65-18,39.26Q438.46,485,422.43,520c-.58,1.27-1.18,2.52-1.95,4.17a6.58,6.58,0,0,1-.6-.73c-1.39-3.08-3.6-6.07-3.92-9.26-.3-3,2.17-5.81,3.48-8.67Q443.18,453.52,467,401.61a9.14,9.14,0,0,1,2-3.42c1.5,3.28,3,6.41,4.36,9.56C473.84,408.91,473,409.84,472.51,410.8Zm28.32,7.44c-1.6-3.46-2.85-6.24-4.18-9-.7-1.45.13-2.55.66-3.7q7.71-16.83,15.48-33.62,27.24-59.2,54.47-118.41c.32-.69.68-1.37,1-2.08a1.89,1.89,0,0,1,2-1.25c2.39,0,4.77,0,7.65,0Z" style="fill:#990d81"/><path d="M165.59,680.24l-27.38,74.64-8.63,22.9c-.11.31-17.32.94-17.32.94a7.59,7.59,0,0,0-.3-1.25Q100,747.89,88,718.32c-.23-.57-.33-1.25-1.08-1.42a5.7,5.7,0,0,0-.33.58L61.78,778.72h-17c.23-1.28-.52-2.32-.92-3.42Q37.07,757,30.27,738.79q-9.27-25-18.55-49.94l-.08-.22L9,681.6l-.45-1.22c7.24,0,14.5,0,21.74-.18,1.91,0,2.35,1,2.88,2.42q7.44,19.57,14.95,39.13C50,726.61,51.87,731.47,54,737c.61-1.38,1-2.2,1.33-3Q65.66,708.63,76,683.32c1.46-3.56.69-3,4.69-3.07,5,0,10,0,15.07,0,2.89,0,2.9,0,4,2.72q9.87,25.29,19.73,50.6c.38,1,.83,2,1.48,3.52.57-1.34,1-2.16,1.28-3l20.18-50.79c1.21-3.06,1.22-3.06,4.36-3.06Z" style="fill:#990d81"/><path d="M393.77,742.72q0-30.29,0-60.59c0-2.9,0-2.92-2.84-2.93-6,0-12,.15-18-.08-2.85-.11-4.44.75-5.9,3.3-9.17,16-18.53,31.89-27.85,47.8-.57,1-.93,2.14-2.16,2.83-.65-1.11-1.22-2-1.74-3-9-16.12-17.94-32.22-26.81-48.39a4.14,4.14,0,0,0-4.31-2.56c-6.55.16-13.1,0-19.65.07-4.2,0-3.81-.5-3.81,3.88q0,44.71,0,89.42c0,2.07.05,4.15.08,6.22h21V720.24c1.06.22,1.21.91,1.5,1.44q15.36,27.39,30.7,54.79a12.28,12.28,0,0,1,.62,1.49c.95.57,1.34-.09,1.75-.78l6.51-11q13-22,26.05-43.91a6.49,6.49,0,0,1,2.26-2.88v2.66q0,26.52,0,53c0,1.2.06,2.4.09,3.6h22.3a10,10,0,0,0,.23-3.57Q393.78,758.94,393.77,742.72Z" style="fill:#990d81"/><path d="M262.42,759q-30.3,0-60.61,0c-3.08,0-3.1,0-3.11-2.93,0-5.24,0-10.49,0-15.73,0-2.84,0-2.85,2.85-2.88h1.63q19.17,0,38.34,0c2.52,0,2.56,0,2.57-2.47,0-4.69,0-9.39,0-14.09,0-3.07,0-2.8-2.93-2.82-7.64-.05-15.29,0-22.93,0-5.68,0-11.36,0-17,0-2.44,0-2.48-.06-2.5-2.57,0-4.37,0-8.74,0-13.11,0-2.26.06-2.31,2.4-2.31,7.42,0,14.85,0,22.28,0q19.49,0,39,0c2.49,0,2.52,0,2.54-2.53,0-4.59,0-9.18,0-13.76,0-3.69.44-3.5-3.55-3.5q-40.63,0-81.25,0c-4.89,0-4.23-.54-4.23,4.1q0,47.17,0,94.36h90.48c0-5.24.12-10.48.12-15.72C266.46,758.42,266.94,759.05,262.42,759Z" style="fill:#990d81"/><path d="M946.11,717.85q22.68-19.05,45.34-38.13v-.65c-9,0-17.91.16-26.86.06a9.42,9.42,0,0,0-6.51,2.29q-20.57,16.77-41.29,33.34c-.78.62-1.37,1.76-2.82,1.42v-2.65q0-15.9,0-31.79c0-2.49-.05-2.53-2.55-2.54q-8.85,0-17.69,0c-2.52,0-2.52,0-2.58,2.51,0,.65,0,1.31,0,2v84.22c0,2.62.07,5.25,0,7.86-.06,1.67.48,2.3,2.22,2.28,6.12-.09,12.23-.08,18.35,0,1.63,0,2.51-.4,2.3-2.19a16,16,0,0,1,0-2q0-13.61,0-27.2c0-1-.26-2.19.83-3q5.52-4.09,11-8.25a1.21,1.21,0,0,1,1.93.31c.4.52.82,1,1.24,1.53q15.91,19.37,31.8,38.75a4.72,4.72,0,0,0,4.11,2c7.65-.11,15.3,0,22.94-.07.68,0,1.53.42,2-.46a7.8,7.8,0,0,0-1.86-2.66q-21.18-26.26-42.39-52.52C943.67,719.9,943.19,720.3,946.11,717.85Z" style="fill:#990d81"/><path d="M506.21,766.26Q486.56,724.89,467,683.5c-1.22-2.6-2.61-3.5-5.4-3.32a96.46,96.46,0,0,1-11.78,0c-2.64-.15-4,.7-5.14,3.19-10.57,23.1-21.31,46.12-32,69.18-4,8.7-8,17.44-11.95,26.16h21.63c3.63-7.34,7.29-14.65,10.83-22,.77-1.59,1.84-1.86,3.39-1.85,9.39,0,18.79,0,28.19,0,3.06,0,6.12,0,9.18,0a2.47,2.47,0,0,1,2.57,1.52c3.52,7.15,7.11,14.26,10.66,21.4a2.93,2.93,0,0,1,.09,1h24.26c.48-1-.24-1.65-.59-2.4C509.4,773,507.8,769.61,506.21,766.26Zm-64.41-29L455.21,711c4.59,9.13,8.81,17.56,13.21,26.32Z" style="fill:#990d81"/><path d="M640.64,728.3c-1.06-.71-2.37-1.1-3.17-2.15.08-.18.1-.29.17-.35.43-.34.86-.67,1.3-1,5.56-4,8.84-9.34,9.3-16.2,1-14.19-6-24.71-19.69-28.07a54.66,54.66,0,0,0-13-1.33q-29.5,0-59,0c-2.88,0-2.92,0-2.92,2.83q0,46.54,0,93.09c0,2.85,0,2.85,2.87,2.88h1.31q27.54,0,55.07,0a100.55,100.55,0,0,0,11.77-.62c15.73-1.81,27.49-12.5,26.67-30.19A22.8,22.8,0,0,0,640.64,728.3Zm-64.2-26.65c0-2.39.06-2.47,2.28-2.47q17.52,0,35.06.05a21.42,21.42,0,0,1,6.46.91c3.75,1.2,5.39,3.69,5.33,8-.06,4.07-1.8,6.5-5.42,7.62a27.76,27.76,0,0,1-8.11.9c-4.92.05-9.83,0-14.75,0h0c-6.11,0-12.23,0-18.35,0-2.45,0-2.48-.06-2.5-2.58Q576.4,707.88,576.44,701.65Zm46.45,54.49c-3.87,1.79-8.06,1.86-12.2,2-4.48.12-9,0-13.44,0h0c-6,0-12,0-18,0-2.75,0-2.79,0-2.8-2.62,0-5.58,0-11.15,0-16.72,0-1.56.51-2.08,2.07-2.07,12,.07,24,0,36,.14a22.58,22.58,0,0,1,7.7,1.43c3.92,1.47,5.8,4.42,6,8.54S626.85,754.32,622.89,756.14Z" style="fill:#990d81"/><path d="M874.79,679.16c-5.14.09-10.27,0-15.41,0-3.76,0-3.49-.31-3.49,3.58q0,26.21,0,52.43c0,1.09.37,2.31-.7,3.6-.93-1.06-1.69-2-2.53-2.85q-26.75-27.26-53.47-54.52a6.55,6.55,0,0,0-5.4-2.29c-4.26.16-8.52,0-12.78.05-4,0-3.79-.43-3.79,3.62v91.43c0,.66,0,1.31,0,2-.07,1.2.39,1.8,1.68,1.79q8.85,0,17.7,0c1.22,0,1.85-.41,1.81-1.68,0-.88,0-1.75,0-2.63q0-26.37,0-52.76a9,9,0,0,1,.25-3.53c1.12.11,1.54,1,2.12,1.55,3.93,3.94,7.83,7.92,11.75,11.88q22.32,22.62,44.64,45.27a5.6,5.6,0,0,0,4.56,1.92c4-.13,8.09,0,12.13,0,3.19,0,3.19,0,3.22-3.22V683.34c0-.66-.05-1.32,0-2C877.24,679.66,876.48,679.13,874.79,679.16Z" style="fill:#990d81"/><path d="M746.91,735.5q-12.78-26.91-25.52-53.82c-.85-1.81-1.83-2.62-3.91-2.54-4.47.16-9,.18-13.42,0-2.19-.09-3.26.63-4.18,2.63q-21.5,46.66-43.13,93.26c-.39.85-1.14,1.64-.69,3,6.46,0,13,0,19.51,0,1.61,0,2-1.09,2.49-2.14,3.27-6.54,6.61-13,9.77-19.64a3.76,3.76,0,0,1,4-2.43c11.9.09,23.8.11,35.7,0,2.28,0,3.48.64,4.47,2.76,3.06,6.51,6.39,12.9,9.62,19.33.53,1.07.89,2.14,2.49,2.13,7.42-.07,14.84,0,22.51,0a7.08,7.08,0,0,0-1-3.18Q756.25,755.15,746.91,735.5Zm-49.63,1c.25-2.2,10-21.73,13-26l13.07,26Z" style="fill:#990d81"/></svg>