<svg version="1.1" id="Layer_1" xmlns="http://www.w3.org/2000/svg" x="0" y="0" viewBox="0 0 1000 1000" xml:space="preserve"><style>.st0{fill:#231f20}.st2{fill:#fff}</style><switch><g><path class="st0" d="M561.7 431.9c-11.2 0-18.6 7.1-18.6 16.2s7.4 16.2 18.6 16.2c11.2 0 18.6-7.1 18.6-16.7-.1-9.1-7.4-15.7-18.6-15.7zm-15.3 42v86.8h30.4v-86.8h-30.4zM673 509c0-1.3-.1-2.5-.2-3.7-2.1-22.8-16.8-32.9-35.6-32.9-10.9 0-20.7 3.7-27.6 10.9v-9.4h-29v86.8H611v-42c0-14.4 7.5-20.5 17.3-20.5 8.8 0 14.3 5.3 14.3 17.8v44.7H673V511v-2z"/><path class="st0" d="M741.7 473.9v10.6c-5.9-8.2-15.2-12-27.2-12-20.2 0-37.8 12.6-41.7 32.9-.2 1.2-.4 2.5-.6 3.8-.2 1.7-.3 3.4-.3 5.2 0 3.6.4 7 1.1 10.2V511v-2l7.2-.4 23.8-1.4c2.8-6.6 9.4-10.6 17.7-10.6 10.9 0 18.9 7.1 18.9 17.6 0 10.6-8 17.8-18.9 17.8-5.9 0-11-2.1-14.4-5.7l-24.5-1-9.7-.4c4.6 19.4 21.7 31.3 41.4 31.3 11.1 0 19.9-3.4 25.8-10.3v2.9c0 13.6-6.9 21-23.2 21-10.3 0-22.1-3.5-29.3-9.3l-11.1 21.3c10.6 7.5 26.4 11.4 43.1 11.4 28.9 0 46.8-12.4 50.3-38.5.4-2.9.6-5.9.6-9.2v-71.7h-29z"/><path class="st0" d="M797.6 500.1c0-3.2 3.7-6.1 13.9-6.1 7.7 0 16.4 1.6 25 6.4l9.1-20.7c-8.6-4.8-22.1-7.4-34.3-7.4-22.1 0-36.2 8.2-40.7 20.1-1.1 2.8-1.6 5.7-1.6 8.8 0 3.7.6 6.8 1.6 9.4 8.6 22.8 49.7 13.2 49.7 23.7 0 3.7-3.4 5.9-13.6 5.9-10.6 0-22.3-3-30.3-8l-5.8 13.2-3.3 7.6 2.7 1.5c8.8 4.4 22.5 7.4 35.7 7.4 28.2 0 42.9-12.5 42.9-28.5.1-34.2-51-21.2-51-33.3zM713.4 481.4c-17 0-31.1 11.9-33.2 27.2l23.8-1.4 9.4-.5c6.5-.4 11.9 4 11.9 9.9 0 5.8-5.3 10.3-11.9 10l-6.1-.2-24.5-1c5.2 10.9 16.9 18.5 30.6 18.5 18.5 0 33.5-14 33.5-31.2 0-17.3-15-31.3-33.5-31.3z"/><circle class="st0" cx="715.6" cy="516.6" r="4.1"/><g><path d="M500.1 473.8c-12.3 21.2-24.5 42.2-36.8 63.3-.8 1.4-1.6 2.8-2.5 4.2-4.2 7.2-8.3 14.3-12.5 21.5-13.2-23-26.2-45.7-39.2-68.5-.5-.9-1.1-1.8-1.6-2.8 0-.1-.1-.1-.1-.2l-4.5-7.8v-.1l-4.8-8.4c-.3-.5-.6-1.1-.9-1.6h21.7c4.2 0 8.3 0 12.5.1.6 0 1.5.6 1.8 1.2 4.7 8.1 9.4 16.3 14.1 24.4.3.5.9 1.1 1.3 1.1s.9-.7 1.2-1.2c4.8-8.1 9.5-16.3 14.3-24.4.3-.5 1.1-1.1 1.7-1.1 11.2.2 22.4.3 34.3.3z" fill="#c32026"/><path class="st2" d="M463.2 537.1c-.8 1.4-1.6 2.8-2.5 4.2-.4-.8-.8-1.5-1.1-2.1-1.4-2.4-2.6-3.8-3.9-3.7-2.8.4-5.4 2.3-8.4.5-.8-.5-1.6-1.2-2.4-2.2-1.8-2.2-4.7-6.2-7.2-10-3.2-4.9-5.8-9.6-5-10.2 1-.8 5 4.7 7.8 8.5 1 1.4 1.8 2.5 2.3 3.2 1.9 2.5 6.6.8 5.7-1.2-.5-1.1-2.3-3.6-4.1-6.1-1.7-2.4-3.5-4.7-4.3-5.7-1.6-2.1-.9-3.6-.9-3.6s1.7-.3 3.3 1.8c.6.8 1.9 2.6 3.4 4.5 2.2 2.8 4.6 6 5.7 6.8.3.2.6.3.9.3.7-.1 1.4-.6 1.8-1.4.7-1.1.9-2.8 0-4-1.3-1.8-5.7-6.9-7.7-10.2-.8-1.4-1.2-2.4-.8-2.7 1.3-.7 9.5 8.6 14.1 14.6.8 1 1.4 1.9 2 2.7 3.7 5.4.1 7.6-1.3 10.9-.7 1.3.5 2.9 2.6 5.1z"/><linearGradient id="SVGID_1_" gradientUnits="userSpaceOnUse" x1="474.4745" y1="518.1857" x2="542.6505" y2="518.1857"><stop offset="0" stop-color="#efb65e"/><stop offset="1" stop-color="#ed9348"/></linearGradient><path d="M542.7 473.7c-.3.6-.7 1.1-1 1.7-1.6 2.8-3.2 5.6-4.9 8.3-10.5 18-20.9 35.9-31.3 53.8-1.9 3.3-3.8 6.6-5.8 9.9-3 5.1-5.9 10.2-8.9 15.3-5.5-9.6-10.9-19.1-16.4-28.6l33.2-60.4c.2-.1.4-.1.6-.1h34.5z" fill="url(#SVGID_1_)"/><path class="st2" d="M505.5 537.5c-1.9 3.3-3.8 6.6-5.8 9.9-.9-1.2-1.8-2.5-2.7-3.8-3.2-4.7-5.9-9.2-6.9-12-.5-1.4-.8-2.7-1-3.9-.3-1.9-.4-3.6-.2-4.9.3-2.3 1.3-3.3 2.3-2.2.8.9 2.8 3.2 5.5 6.3 2.6 3.1 5.7 6.8 8.8 10.6z"/></g><g><path class="st0" d="M290.7 483.9v-10.4h-29v86.8h30.4v-39.9c0-15.2 8.5-21.5 20.8-21.5 2.2 0 4.2.2 6.9.5V472c-12.8 0-22.9 4-29.1 11.9z"/><path class="st0" d="M352.6 472c-11.3 0-23.4 2.4-32.8 7-1.9.9-3.8 2-5.5 3.1l5.5 11 4.8 9.7c5.9-4.6 15.2-7.5 23.5-7.5 12 0 17.9 5 18.4 13.8h-17.3c-26.9 0-38.6 9.9-38.6 26 0 15.1 11.5 26.7 32.3 26.7 12.6 0 21.3-4.3 25.6-12.6v11.2H397v-48.2c0-27.7-16.2-40.2-44.4-40.2zm14 60.4c-2.4 6.9-8.3 10.1-15.1 10.1-7.2 0-11.4-3.7-11.4-8.8 0-5.3 3.5-8.8 13.3-8.8h13.1v7.5zM260.9 527.7c-3.8 22.4-24.6 39.6-49.8 39.6-27.8 0-50.4-21-50.4-46.9s22.6-46.9 50.4-46.9c25 0 45.7 17 49.7 39.2l-12.5.7c-1.2.1-2.4.2-3.5.5-2.9-8.1-10.8-14.1-19.8-14.7-11.8-.7-33.7 7.4-34.5 19.2-.7 11.8 20.1 22.6 31.8 23.4 10 .6 19.5-5.7 22.6-14.9 1.1.2 2.2.4 3.4.4l12.6.4z"/></g><g><text transform="translate(854.5847 478.6383)" class="st0" font-size="17.9102" font-family="Helvetica-Bold">R</text><path class="st0" d="M860.9 484c-6.6 0-12-5.4-12-12s5.4-12 12-12 12 5.4 12 12c0 6.7-5.4 12-12 12zm0-22.3c-5.7 0-10.3 4.6-10.3 10.3 0 5.7 4.6 10.3 10.3 10.3 5.7 0 10.3-4.6 10.3-10.3 0-5.6-4.6-10.3-10.3-10.3z"/></g></g></switch></svg>