<svg xmlns="http://www.w3.org/2000/svg" viewBox="0 0 1000 1000"><title>Nigeria-Logo</title><path d="M973.84,522H864.63a17.94,17.94,0,0,0-18,18v43.87a17.94,17.94,0,0,0,18,18H973.84a17.94,17.94,0,0,0,18-18V540A18.05,18.05,0,0,0,973.84,522Zm-27.48,18.92h11.17v11.17H946.36Zm19.45,16.75v11.17H954.65V557.69Zm-16.57,0v11.17H938.07V557.69Zm-19.45-16.75H941v11.17H929.79Zm2.88,16.75v11.17H921.5V557.69Zm-19.46-16.75h11.17v11.17H913.21Zm2.88,16.75v11.17H904.93V557.69Zm-19.45-16.75h11.17v11.17H896.64Zm2.88,16.75v11.17H888.35V557.69Zm-19.37-16.75h11.17v11.17H880.15ZM883,557.69v11.17H871.87V557.69Zm-19.45-16.75h11.17v11.17H863.58Zm11.17,44.67H863.58V574.44h11.17Zm82.78,0H880.15V574.44h77.38Zm16.48,0H962.85V574.44H974Zm0-33.5H962.85V540.94H974Z"/><path d="M110.18,507.1H92.9L73.36,442.72,53.83,507.1H36.55L8.29,401H29.84l16.4,66.9L65.6,401H81.13l19.36,66.9L117.07,401H138.7Z"/><path d="M214.15,496.37c-7.41,7.41-16.57,11.6-28.61,11.6s-21.28-4.19-28.78-11.6c-10.73-10.73-10.47-24-10.47-42.31s-.26-31.57,10.47-42.3c7.41-7.42,16.66-11.6,28.78-11.6s21.11,4.18,28.61,11.6c10.73,10.73,10.56,24,10.56,42.3S224.88,485.64,214.15,496.37ZM198.8,424.32a17.27,17.27,0,0,0-13.26-5.67,17.65,17.65,0,0,0-13.43,5.67c-4,4.45-5.06,9.42-5.06,29.74s1,25.3,5.06,29.84a17.65,17.65,0,0,0,13.43,5.67,17.27,17.27,0,0,0,13.26-5.67c4-4.45,5.24-9.42,5.24-29.84S202.81,428.77,198.8,424.32Z"/><path d="M300,507.1l-20.68-42.31H264.4V507.1H243.72V401h41.53c21.63,0,34.36,14.74,34.36,32.45,0,14.91-9.07,24.16-19.36,27.82L324,507H300Zm-16.14-87.58H264.31v28h19.54c9.07,0,15-5.84,15-14S293,419.52,283.85,419.52Z"/><path d="M401,507.1l-27.22-48.24-13.69,16.4V507.1H339.42V401h20.67v46.14L397.51,401h25.21l-35.24,42.22,37.68,63.94H401Z"/><path d="M469.65,508c-16,0-28.26-3.4-38.73-14l13.43-13.44c6.72,6.72,15.79,8.9,25.65,8.9,12.21,0,18.75-4.62,18.75-13.08,0-3.75-1-6.89-3.31-8.9-2.09-1.92-4.45-3-9.42-3.75l-12.82-1.75c-9.08-1.3-15.79-4.18-20.59-8.81-5.06-5.05-7.59-12-7.59-20.84,0-18.93,14-32.19,36.9-32.19,14.57,0,25.21,3.58,34.28,12.39l-13.08,13c-6.72-6.37-14.75-7.32-21.73-7.32-11,0-16.39,6.1-16.39,13.43a10.09,10.09,0,0,0,3.14,7.59,18.42,18.42,0,0,0,9.85,4.18l12.48,1.75c9.68,1.31,15.79,4,20.23,8.2,5.67,5.32,8.2,13.08,8.2,22.5C509,496.37,491.89,508,469.65,508Z"/><path d="M568.66,419.52V507.1H548V419.52H520.24V401H596.4v18.49Z"/><path d="M663.3,507.1,657,488.35H619.34L613,507.1H591.34L629.89,401h16.23L684.85,507.1Zm-24.77-74.76L625.09,470.9h26.35Z"/><path d="M728.37,419.52V507.1H707.61V419.52H679.87V401H756v18.49Z"/><path d="M771.2,507.1V401h20.68V507.1Z"/><path d="M878.41,496.37C871,503.78,861.84,508,849.8,508s-21.29-4.19-28.79-11.6c-10.73-10.73-10.47-24-10.47-42.31s-.26-31.57,10.47-42.3c7.42-7.42,16.66-11.6,28.79-11.6s21.11,4.18,28.61,11.6c10.73,10.73,10.55,24,10.55,42.3S889.14,485.64,878.41,496.37Zm-15.35-72.05a17.29,17.29,0,0,0-13.26-5.67,17.69,17.69,0,0,0-13.44,5.67c-4,4.45-5.05,9.42-5.05,29.74s1,25.3,5.05,29.84a17.69,17.69,0,0,0,13.44,5.67,17.29,17.29,0,0,0,13.26-5.67c4-4.45,5.23-9.42,5.23-29.84S867.07,428.77,863.06,424.32Z"/><path d="M970.61,507.1l-42-65.07V507.1H907.89V401h18.5l42,64.9V401H989.1V507.1Z"/></svg>