<svg width="1179" height="418" fill="none" xmlns="http://www.w3.org/2000/svg"><path fill-rule="evenodd" clip-rule="evenodd" d="M221 411l65-180c13-32 34-33 36-33 13 0 32-7 57-30l5-5 2-2c34-29 68-39 93-39 40 0 62 15 66 50 29-34 71-50 106-50 69 0 72 48 49 111l-65 178h-73l61-168c9-27 23-64-19-64-49 0-76 58-89 95l-50 137h-74l62-168c9-27 23-64-20-64-48 0-75 58-89 95l-50 137h-73zM660 411l103-282h73L733 411h-73z" fill="#87919A"/><path d="M288 127l20 5 3 1 21 6c-40 47-101 37-101 37h-10c-20 0-47 7-58 31-20 45 121 17 75 118-30 66-100 92-160 92-28 0-54-5-78-12l22-41h73c19 0 52-7 64-35 25-55-119-17-73-119 27-61 92-88 150-88 22 0 38 2 52 5z" fill="#87919A"/><path fill-rule="evenodd" clip-rule="evenodd" d="M982 0L853 354c-22 51-79 56-90 57h-4L908 0h74zM981 242h125c11-35 5-66-36-66s-72 28-89 66zm36 122h94l-12 31c-32 15-65 22-105 22-93 0-127-53-94-146 30-81 98-149 185-149 105 0 108 72 73 171H963c-14 45 9 71 54 71z" fill="#87919A"/><path fill-rule="evenodd" clip-rule="evenodd" d="M770 108l18-48c3-9 12-22 50-22h31l-2 6c-25 64-93 64-93 64h-4z" fill="#B0D235"/></svg>