<svg width="2015" height="389" fill="none" xmlns="http://www.w3.org/2000/svg"><path d="M1544 160c38 26 50 62 36 102-14 37-54 57-110 53l-14-67c18-10 51-3 41-35-4-11-28-15-50-25l-15 128h-77l32-297c49 0 96-3 142 0 27 2 48 19 55 47 7 29 4 57-20 79l-20 15zm-94-35c21-6 37-10 52-16 2-1 3-19 0-20-13-14-26-16-44-16l-8 52zM369 178l-23 207h-75l30-275c47 0 94-2 140 1 32 3 51 27 60 57 20 75-34 146-110 141l-12-59c45-15 59-28 52-52-5-20-20-25-62-20zM164 86c-14 0-25-2-33 2-9 6-19 17-20 27-2 5 13 15 23 19 7 3 17 1 25 1 72 1 114 63 90 130-18 48-63 77-119 76l-17-76c12-1 24 1 32-4 10-6 16-17 24-26-10-6-18-14-28-19-6-3-15-1-23-1-62-3-99-43-96-101C25 58 79 4 132 7c6 1 16 8 17 14 7 20 10 41 15 65zM1816 283c-37 38-99 49-147 28a94 94 0 0 1-56-95c3-80 77-133 154-111 47 14 77 70 61 115-2 6-14 11-22 11l-113 1-3 11c13 5 30 16 39 11 41-19 60 14 87 29zm-63-101l4-10c-10-4-20-13-30-12s-20 10-30 16l5 8h31l20-2zM752 200c0 65-56 121-121 122-55 0-99-43-100-98-1-65 59-125 124-123 56 1 97 43 97 99zm-117 48c26 0 48-22 47-43-3-21-16-34-37-34s-41 21-41 42c1 22 13 33 31 35zM1140 111l7-4c64-5 64-5 79 58 1 9 4 17 8 33 12-26 22-44 28-64 7-23 19-32 43-28 12 2 26 0 44 0l-12 31c-31 72-64 142-92 215-11 29-27 40-56 35h-30c1-6 0-11 2-14 29-43 20-88 8-134-11-43-20-85-29-128zM939 108l43-2c1-54 48-44 81-60v57c17 3 40 1 48 11 11 15 11 38 16 61h-73c-5 38-11 74-12 111-2 25-9 33-33 31-14-2-27 0-46 0l13-135c-37-13-24-47-37-74zM1963 105c43 5 43 5 51 70h-60l-16 139h-74l8-95c1-17 14-36-15-50-11-5-10-37-16-59 10-1 19-1 27-3 6-1 16-6 16-8 4-16 4-24 12-30 11-8 29-9 43-14l24-7v57zM928 171l-7 3c-61-7-66 15-69 70l-9 71-27 1h-48c5-47 8-93 18-135 11-49 67-83 116-74 6 1 13 8 15 14l11 50zM92 303c1 25-21 47-46 47-24 0-45-21-46-45s18-45 43-46c26-2 48 19 49 44zM277 44c1 26-20 48-45 48-24 0-44-20-45-45-1-26 19-47 45-47 25 0 44 19 45 44z" fill="#011B33"/><path d="M1450 125l8-52c16 5 31 9 44 16 3 1 2 19 0 20-15 6-30 10-52 16zM1753 182l-20 2h-32l-4-8c10-6 20-15 30-16 9-1 19 8 29 12l-3 10zM635 248c-18-2-30-13-31-35-1-21 19-42 41-42 21 0 34 12 37 33 1 22-21 44-47 44z" fill="#fff"/></svg>