<svg width="552" height="144" fill="none" xmlns="http://www.w3.org/2000/svg"><path fill-rule="evenodd" clip-rule="evenodd" d="M154.237 123.728L167.777.406h22.616l-5.728 51.3226c3.422-4.6133 7.154-8.2243 11.196-10.833 4.042-2.6087 8.32-3.913 12.833-3.913 3.175 0 6.076.6178 8.705 1.8536 2.628 1.2357 4.897 3.1716 6.807 5.8077 1.909 2.6362 3.397 6 4.463 10.0915 1.067 4.0916 1.6 8.9657 1.6 14.6224 0 7.4692-1.029 14.5675-3.088 21.2952-2.058 6.7277-4.823 12.645-8.295 17.753-3.471 5.107-7.476 9.158-12.014 12.151-4.538 2.993-9.287 4.49-14.247 4.49-3.819 0-7.179-.811-10.08-2.431-2.902-1.62-5.369-3.748-7.403-6.384l-.223.824c-1.2 3.985-4.561 6.672-8.347 6.672h-12.335zm45.232-67.3862c-1.636 0-3.335.6865-5.096 2.0595-1.76 1.373-3.459 3.254-5.096 5.643-1.636 2.3891-3.161 5.19-4.575 8.4028-1.414 3.2128-2.591 6.6315-3.534 10.2563l-2.232 19.9356c1.439 1.318 3.051 2.252 4.836 2.801 1.786.549 3.497.824 5.133.824 2.679 0 5.146-.989 7.403-2.966 2.256-1.977 4.203-4.5718 5.84-7.7846 1.636-3.2128 2.913-6.8787 3.831-10.9977.917-4.119 1.376-8.3203 1.376-12.6041 0-5.4371-.719-9.3913-2.157-11.8627-1.439-2.4714-3.348-3.7071-5.729-3.7071zm100.136 67.3862h-8.662c-6.203 0-11.232-5.581-11.232-12.466 0-.57.035-1.139.105-1.703-3.174 4.833-6.696 8.623-10.564 11.369-3.869 2.746-8.134 4.119-12.796 4.119-2.778 0-5.456-.618-8.035-1.854-2.579-1.236-4.86-3.103-6.844-5.602s-3.571-5.684-4.761-9.556c-1.191-3.872-1.786-8.4438-1.786-13.7161 0-7.7437 1.277-15.0892 3.831-22.0366 2.555-6.9474 6.126-13.0297 10.713-18.2471 4.588-5.2174 10.031-9.3638 16.33-12.4393 6.299-3.0756 13.217-4.6133 20.756-4.6133 3.67 0 7.39.2746 11.159.8238 3.77.5492 7.489 1.5378 11.16 2.9657l-9.374 82.9559zm-33.924-18.864c1.686 0 3.323-.701 4.91-2.101 1.587-1.401 3.087-3.3091 4.501-5.7256 1.413-2.4165 2.715-5.2448 3.905-8.4851 1.191-3.2403 2.208-6.7002 3.051-10.3798l2.678-23.643h-1.339c-3.77 0-7.204.9336-10.304 2.8009-3.1 1.8673-5.765 4.4073-7.997 7.6201-2.232 3.2129-3.956 6.9474-5.171 11.2037-1.215 4.2563-1.822 8.8008-1.822 13.6338 0 2.746.198 5.0801.595 7.0023.396 1.9222.93 3.4737 1.599 4.6547.67 1.181 1.463 2.046 2.381 2.595.917.549 1.922.824 3.013.824zm48.505 18.864l9.374-85.4273h5.038c8.018 0 14.518 7.2144 14.518 16.1138 0 .506-.022 1.0117-.065 1.5154 2.976-5.8215 6.2-10.2974 9.672-13.4279 3.472-3.1304 7.067-4.6956 10.787-4.6956 2.083 0 4.141.5217 6.175 1.5652l-4.166 23.643c-2.53-1.2082-4.935-1.8124-7.217-1.8124-3.819 0-7.203 1.9085-10.154 5.7254-2.951 3.817-5.344 9.9542-7.18 18.4119l-4.166 38.3885h-22.616zm63.236-18.453v-1.4c0-.549.037-1.332.111-2.348.075-1.016.199-2.3614.372-4.0365.174-1.675.41-3.8855.707-6.6315l3.943-34.9291h-6.175c-.942 0-1.735-.3432-2.38-1.0297-.645-.6865-.967-1.7162-.967-3.0892 0-.055.049-.5355.148-1.4417.1-.9062.199-1.8673.298-2.8833.099-1.016.198-1.9634.298-2.8421.099-.8787.148-1.373.148-1.4828l.548-4.6957 11.356-.1647 2.029-15.0336c.758-5.6112 5.1-9.7627 10.213-9.7627h11.787l-2.827 24.961h17.26l-.151 1.364c-1.019 9.1933-8.054 16.1005-16.399 16.1005h-2.644l-3.72 33.5286c-.248 2.2517-.434 4.0229-.558 5.3135-.124 1.2906-.223 2.2792-.297 2.9657a193.301 193.301 0 0 0-.149 1.4004c-.025.2472-.037.3982-.037.4531 0 1.5928.334 2.9248 1.004 3.9958.669 1.071 1.723 1.606 3.162 1.606.793 0 1.45-.096 1.971-.288.347-.128 1.575-.664 3.683-1.607l7.588 14.334c-3.075 2.472-6.373 4.325-9.895 5.561-3.521 1.236-7.067 1.854-10.638 1.854-2.976 0-5.654-.454-8.035-1.36-2.38-.906-4.426-2.224-6.137-3.954-1.711-1.73-3.05-3.803-4.018-6.22-.967-2.416-1.5-5.162-1.599-8.238zm115.014-45.9675c0 3.8993-.694 7.4691-2.083 10.7094-1.388 3.2403-3.806 6.1098-7.253 8.6087-3.447 2.4988-8.084 4.6269-13.912 6.3844-5.828 1.7574-13.155 3.1304-21.984 4.119.099 5.8215 1.253 10.0777 3.46 12.769 2.207 2.691 5.468 4.036 9.783 4.036 2.033 0 3.794-.192 5.282-.576 1.488-.385 2.789-.879 3.905-1.483 6.688-3.62 14.684-2.391 20.233 3.112l.933.925c-2.728 2.965-5.394 5.533-7.998 7.702-2.604 2.169-5.282 3.954-8.034 5.355-2.753 1.4-5.679 2.43-8.779 3.089-3.1.659-6.485.989-10.155.989-4.563 0-8.754-.865-12.573-2.595-3.819-1.73-7.104-4.174-9.857-7.332-2.753-3.158-4.885-6.961-6.398-11.41-1.513-4.4483-2.269-9.3911-2.269-14.8282 0-4.5583.459-9.0068 1.376-13.3455.918-4.3387 2.232-8.4164 3.943-12.2334 1.711-3.8169 3.807-7.3317 6.287-10.5446 2.479-3.2128 5.269-5.9725 8.369-8.2791 3.1-2.3067 6.497-4.1053 10.192-5.3959 3.695-1.2906 7.626-1.9359 11.792-1.9359 4.116 0 7.774.659 10.973 1.9771 3.199 1.3181 5.89 3.0343 8.072 5.1487 2.182 2.1144 3.844 4.4897 4.984 7.1259 1.141 2.6361 1.711 5.2723 1.711 7.9084zm-27.079-4.9428c-3.819 0-7.167 1.6888-10.044 5.0664-2.876 3.3776-5.034 8.0045-6.472 13.881 4.811-.8238 8.704-1.6888 11.68-2.595 2.976-.9062 5.282-1.8947 6.919-2.9657 1.636-1.0709 2.74-2.2242 3.31-3.4599.571-1.2357.856-2.5675.856-3.9954 0-1.428-.496-2.7735-1.488-4.0366-.992-1.2632-2.579-1.8948-4.761-1.8948zm30.948 69.3633l9.374-85.4273h3.607c8.773 0 15.884 7.8929 15.884 17.6292 2.976-5.8215 6.2-10.2974 9.671-13.4279 3.472-3.1304 7.068-4.6956 10.788-4.6956 2.083 0 4.141.5217 6.174 1.5652l-4.166 23.643c-2.529-1.2082-4.934-1.8124-7.216-1.8124-3.819 0-7.204 1.9085-10.155 5.7254-2.951 3.817-5.344 9.9542-7.179 18.4119l-4.166 38.3885h-22.616z" fill="#000"/><path d="M95.6916 61.3621C113.731 46.1925 150.84-8.0246 92.8568 1.5266c-25.255 3.9328-56.5625 26.9172-64.0359 55.5709-3.899-7.6621-8.2013-15.072-12.8853-22.1926-6.958-9.8321-20.7489-.23-13.0178 9.883 21.905 28.9346 37.1095 63.7681 37.1095 98.8831 1.804-17.417 4.7713-40.784-1.929-61.5719 2.4518 1.8398 2.6294 1.9778 4.3361 4.2213 11.8544 19.6646 30.0637 36.0006 50.4224 43.8666 18.5552 7.585 43.2942 3.09 33.2442-27.249-5.412-16.5742-18.04-31.1819-30.4094-41.5759z" fill="#F5A623"/></svg>