<svg width="235" height="108" fill="none" xmlns="http://www.w3.org/2000/svg"><path fill-rule="evenodd" clip-rule="evenodd" d="M70.36 53.862v-.252c0-22.526-14.871-34.858-30.493-34.858-9.873 0-16.247 4.656-20.87 10.948V4.082L0 0v87.461h18.996v-8.809c4.499 5.412 10.748 10.068 20.87 10.068 15.872 0 30.494-12.333 30.494-34.859Zm-18.996 0c0 11.325-7.498 18.624-16.371 18.624-8.874 0-16.247-7.425-16.247-18.624v-.252c0-11.2 7.373-18.624 16.247-18.624 8.873 0 16.371 7.424 16.371 18.624v.252Zm60.822-29.757L98.868 65.943 83.62 20.01H63.5l26.244 67.703c-1.625 3.398-3.375 4.404-6.624 4.404-2.5 0-5.624-1.132-8.123-2.642l-6.374 13.842c4.874 2.895 9.998 4.656 16.872 4.656 11.372 0 16.871-5.159 21.995-18.876l22.772-61.109 39.006 8.381H154.87v28.818c0 4.405 1.874 6.544 6.123 6.544 3.499 0 6.624-.88 9.373-2.39v15.352c-3.999 2.391-8.623 3.9-14.997 3.9-11.622 0-19.496-4.655-19.496-20.26V36.37h-7.998v-8.894l-15.689-3.37Zm121.305 31.518v-.251c0-1.772-.088-3.53-.265-5.26l-18.652-4.008c.174.756.315 1.539.421 2.346h-28.619c.518-2.996 1.467-5.632 2.812-7.801l-17.526-3.766c-2.52 5.046-3.907 10.839-3.907 16.979v.251c0 20.638 14.872 34.859 34.993 34.859 12.122 0 21.12-4.783 27.369-12.584l-10.873-9.69c-5.249 4.907-9.873 6.92-16.246 6.92-8.498 0-14.497-4.53-16.372-13.213h46.615c.126-1.761.25-2.894.25-4.782ZM235 48.248c-1.758-16.928-12.075-31.29-32.346-31.29-13.254 0-23.791 7.329-29.181 18.07l17.533 3.768c2.553-4.08 6.517-6.486 11.648-6.486 7.22 0 11.995 4.717 13.684 11.928L235 48.248Zm-99.984-30.032H115.27l-1.283 4.031 15.669 3.367v-7.398h7.998V.976h18.996v17.24h15.747v16.36h-1.034l-39.296-8.444 2.949-7.916Z" fill="#1834FF"/></svg>