<svg id="Layer_1" data-name="Layer 1" xmlns="http://www.w3.org/2000/svg" viewBox="0 0 185 20"><title>fourthcanvas</title><path d="M0,19.61V.39H14.48V4.2H4.71V8.5h7.41v3.77H4.71v7.34Z"/><path d="M21.79,20c-4.42,0-7.41-2.95-7.41-7.15s3-7.15,7.41-7.15,7.45,3,7.45,7.15S26.2,20,21.79,20Zm0-3.33c2,0,2.89-1.55,2.89-3.82S23.7,9,21.79,9s-2.9,1.55-2.9,3.82S19.82,16.67,21.79,16.67Z"/><path d="M40.48,6H45V19.61H40.48V17.49A4.56,4.56,0,0,1,36.11,20c-3.73,0-4.9-2.51-4.9-5.41V6h4.46v7.49c0,1.93.64,3,2.31,3s2.5-1.35,2.5-3.52Z"/><path d="M57.8,10.34a4.51,4.51,0,0,0-2.35-.53c-1.87,0-3.09,1.06-3.09,3.38v6.42H47.89V6h4.47V8.5a4.12,4.12,0,0,1,3.82-2.85,3.23,3.23,0,0,1,1.92.53Z"/><path d="M60.8,9.13H58.88V6.43l1-.15c1.38-.24,1.77-1,2.11-2.22l.44-1.79h2.75V6h3.68V9.13H65.16v5.65c0,1.16.54,1.65,1.62,1.65A6.29,6.29,0,0,0,69,15.89v2.9A6.18,6.18,0,0,1,65,20c-2.26,0-4.27-1-4.27-4V9.13Z"/><path d="M75.52,19.61H71.05V.39h4.47V8.16A4.82,4.82,0,0,1,80,5.7c3.73,0,5,2.51,5,5.46v8.5H80.52V12.17c0-1.93-.64-3-2.31-3s-2.69,1.4-2.69,3.53Z"/><path d="M97,0c5.89,0,9.08,3.67,9.42,8.5l-4.51.2c-.3-2.47-1.72-4.59-5-4.59s-5,2.27-5,5.89,1.91,5.89,5,5.89,4.71-2.12,5-4.59l4.51.2C106,16.33,102.85,20,97,20a9.6,9.6,0,0,1-9.91-10A9.6,9.6,0,0,1,97,0Z"/><path d="M121,15.94c0,.73.3,1,.89,1a2.39,2.39,0,0,0,1.12-.24v2.36a4.71,4.71,0,0,1-2.89.87,3.1,3.1,0,0,1-3.24-2.37c-.78,1.55-2.5,2.37-4.61,2.37-2.75,0-4.52-1.35-4.52-3.72,0-2.61,2-3.72,5-4.3l3.83-.67V11a1.79,1.79,0,0,0-2-2,2.1,2.1,0,0,0-2.2,1.93l-4.18-.29c.45-2.9,2.66-4.93,6.63-4.93C118.4,5.7,121,7.29,121,11Zm-4.41-2.37-2.26.44c-1.37.29-2.26.63-2.26,1.69,0,.77.64,1.3,1.57,1.3a2.9,2.9,0,0,0,3-3.14Z"/><path d="M129.05,19.61h-4.47V6h4.47V8.16a4.83,4.83,0,0,1,4.51-2.46c3.73,0,5,2.51,5,5.46v8.5h-4.47V12.17c0-1.93-.63-3-2.3-3-1.82,0-2.7,1.4-2.7,3.53Z"/><path d="M144.9,19.61,139.65,6h4.71l3.24,8.84h.14L151,6h4.37l-5.2,13.57Z"/><path d="M168.94,15.94c0,.73.3,1,.88,1a2.4,2.4,0,0,0,1.13-.24v2.36a4.71,4.71,0,0,1-2.89.87,3.1,3.1,0,0,1-3.24-2.37c-.78,1.55-2.5,2.37-4.61,2.37-2.75,0-4.52-1.35-4.52-3.72,0-2.61,2-3.72,5-4.3l3.83-.67V11a1.79,1.79,0,0,0-2-2,2.1,2.1,0,0,0-2.2,1.93l-4.18-.29c.45-2.9,2.66-4.93,6.63-4.93,3.58,0,6.18,1.59,6.18,5.27Zm-4.41-2.37-2.26.44c-1.37.29-2.26.63-2.26,1.69,0,.77.64,1.3,1.57,1.3a2.9,2.9,0,0,0,2.95-3.14Z"/><path d="M175.47,15.07c.19,1.31,1.23,2,2.89,2,1.23,0,2-.43,2-1.16s-.45-1-1.58-1.21l-2.1-.33c-3.19-.49-4.86-1.55-4.86-4.26s2.3-4.49,6-4.49c3.93,0,6.23,1.69,6.53,4.64l-3.68.14c-.2-1.2-1.18-1.88-2.9-1.88C176.7,8.55,176,9,176,9.76c0,.53.44.87,1.13,1l2.65.44c3,.43,4.75,1.79,4.75,4.35,0,2.85-2.45,4.44-6.23,4.44s-6.52-1.5-6.82-4.78Z"/></svg>