<svg width="148" height="38" viewBox="0 0 148 38" fill="none" xmlns="http://www.w3.org/2000/svg">
<g clip-path="url(#clip0_307_36)">
<path d="M0.00143347 18.9962C-0.0346295 21.7854 0.610385 24.5291 1.86525 26.9945C2.50366 28.2487 4.01356 28.8306 5.19615 28.0676C7.81924 26.375 9.61373 22.9477 9.61373 18.9962C9.61373 15.0465 7.8257 11.6277 5.2123 9.93346C4.03163 9.16804 2.52055 9.74552 1.87914 10.9979C0.617507 13.4613 -0.0324619 16.2055 0.00143347 18.9962Z" fill="#1C2A3F"/>
<g style="mix-blend-mode:multiply" opacity="0.2">
<g style="mix-blend-mode:multiply" opacity="0.2">
<path d="M9.39694 16.6482C9.10313 15.0868 8.07631 16.0626 8.23235 17.6437C8.27607 18.0868 8.2986 18.5382 8.2986 18.9962C8.2986 19.4377 8.27775 19.8729 8.2372 20.3004C8.08713 21.883 9.11808 22.8587 9.40594 21.2953C9.54196 20.5566 9.61385 19.787 9.61385 18.9962C9.61385 18.1882 9.53879 17.4021 9.39694 16.6482Z" fill="white"/>
</g>
</g>
<path d="M28.8574 22.3317L28.5276 22.2558C27.6106 22.0583 26.6554 22.1405 25.7857 22.4919C24.916 22.8433 24.1718 23.4477 23.6494 24.2268C22.2773 26.266 20.2078 27.1947 17.7972 27.1947C16.8352 27.2027 15.8789 27.0463 14.9696 26.7322C13.8986 26.342 12.721 26.3628 11.6645 26.7906C10.608 27.2184 9.74767 28.0227 9.24992 29.0481C8.96333 29.638 8.80679 30.2825 8.7909 30.9382C8.77501 31.5938 8.90014 32.2451 9.15783 32.8482C9.41551 33.4513 9.79973 33.9919 10.2845 34.4336C10.7693 34.8753 11.3433 35.2077 11.9676 35.4083C13.8546 35.9968 15.8205 36.2934 17.7972 36.2877C23.4827 36.2877 28.5352 33.8467 31.6319 29.738C32.105 29.1077 32.4117 28.3685 32.5238 27.5885C32.6359 26.8085 32.5498 26.0128 32.2733 25.2748C31.9969 24.5369 31.539 23.8804 30.942 23.3661C30.345 22.8517 29.6281 22.4959 28.8574 22.3317Z" fill="#1C2A3F"/>
<path d="M9.24976 8.96698C9.75046 9.99431 10.6144 10.7994 11.6745 11.2265C12.7345 11.6536 13.9153 11.6723 14.9884 11.2791C15.8909 10.9638 16.841 10.8061 17.797 10.8128C20.1281 10.8128 22.1407 11.7149 23.4408 13.6329C23.9745 14.4476 24.7444 15.0799 25.6474 15.445C26.5503 15.8102 27.5433 15.8907 28.4933 15.6758L28.8724 15.5811C29.6341 15.3994 30.3382 15.0299 30.9206 14.5063C31.5029 13.9828 31.945 13.3218 32.2065 12.5837C32.468 11.8455 32.5406 11.0537 32.4177 10.2803C32.2948 9.50691 31.9803 8.77657 31.5029 8.15585C28.3569 4.10398 23.3233 1.71228 17.7856 1.71228C15.8099 1.71578 13.8463 2.02258 11.9637 2.62196C11.3405 2.82361 10.7678 3.15651 10.2842 3.59821C9.80055 4.0399 9.41723 4.58014 9.16005 5.18251C8.90286 5.78487 8.7778 6.43537 8.79327 7.09016C8.80875 7.74494 8.96441 8.3888 9.24976 8.97835V8.96698Z" fill="#1C2A3F"/>
<g style="mix-blend-mode:overlay" opacity="0.3">
<g style="mix-blend-mode:overlay" opacity="0.3">
<g style="mix-blend-mode:overlay" opacity="0.3">
<path d="M17.7555 35.0066C14.6491 35.0103 11.6095 34.1052 9.01123 32.4026C9.2259 33.1036 9.60792 33.7418 10.1243 34.2621C10.6407 34.7825 11.2759 35.1694 11.9752 35.3894C13.8622 35.9779 15.8281 36.2745 17.8048 36.2688C23.4903 36.2688 28.5428 33.8278 31.6395 29.7191C32.0833 29.1319 32.3797 28.4467 32.5037 27.7212C32.6277 26.9956 32.5757 26.2509 32.3521 25.5497C31.0918 28.3669 29.0428 30.7591 26.4526 32.4372C23.8624 34.1154 20.8418 35.0078 17.7555 35.0066Z" fill="#841414"/>
</g>
</g>
<g style="mix-blend-mode:overlay" opacity="0.3">
<g style="mix-blend-mode:overlay" opacity="0.3">
<path d="M17.7555 3.03131C20.8176 3.03138 23.8154 3.91085 26.3922 5.56514C28.9691 7.21943 31.0166 9.57895 32.2914 12.3631C32.5149 11.6528 32.5627 10.8989 32.4306 10.1661C32.2986 9.43329 31.9907 8.74347 31.5334 8.15585C28.3874 4.10398 23.3538 1.71228 17.8161 1.71228C15.8302 1.71267 13.8562 2.01951 11.9638 2.62196C11.2577 2.84465 10.6172 3.23777 10.099 3.7666C9.58066 4.29543 9.20057 4.94372 8.99219 5.65423C11.593 3.93961 14.6404 3.02747 17.7555 3.03131Z" fill="#841414"/>
</g>
</g>
</g>
<path d="M54.5215 10.02C55.1415 10.34 55.4515 10.85 55.4515 11.55C55.4515 11.97 55.3015 12.38 55.0015 12.78C54.6815 13.2 54.2715 13.41 53.7715 13.41C53.4315 13.41 53.0915 13.32 52.7515 13.14C51.7715 12.68 50.7115 12.45 49.5715 12.45C48.1715 12.45 46.9515 12.75 45.9115 13.35C44.8715 13.93 44.0715 14.76 43.5115 15.84C42.9515 16.9 42.6715 18.12 42.6715 19.5C42.6715 21.86 43.3015 23.65 44.5615 24.87C45.8415 26.09 47.5115 26.7 49.5715 26.7C50.7915 26.7 51.8515 26.47 52.7515 26.01C53.1115 25.85 53.4315 25.77 53.7115 25.77C54.2315 25.77 54.6715 25.99 55.0315 26.43C55.3315 26.81 55.4815 27.22 55.4815 27.66C55.4815 27.98 55.4015 28.27 55.2415 28.53C55.0815 28.79 54.8515 28.99 54.5515 29.13C52.9915 29.91 51.3315 30.3 49.5715 30.3C47.6115 30.3 45.8115 29.89 44.1715 29.07C42.5315 28.23 41.2215 27 40.2415 25.38C39.2615 23.76 38.7715 21.8 38.7715 19.5C38.7715 17.46 39.2315 15.63 40.1515 14.01C41.0915 12.39 42.3815 11.13 44.0215 10.23C45.6615 9.30997 47.5115 8.84998 49.5715 8.84998C51.3515 8.84998 53.0015 9.23998 54.5215 10.02ZM73.7501 21.99C73.7501 23.59 73.3901 25.03 72.6701 26.31C71.9501 27.57 70.9601 28.55 69.7001 29.25C68.4601 29.95 67.0901 30.3 65.5901 30.3C64.0701 30.3 62.6901 29.95 61.4501 29.25C60.2101 28.55 59.2301 27.57 58.5101 26.31C57.7901 25.03 57.4301 23.59 57.4301 21.99C57.4301 20.39 57.7901 18.96 58.5101 17.7C59.2301 16.42 60.2101 15.43 61.4501 14.73C62.6901 14.01 64.0701 13.65 65.5901 13.65C67.0901 13.65 68.4601 14.01 69.7001 14.73C70.9601 15.43 71.9501 16.42 72.6701 17.7C73.3901 18.96 73.7501 20.39 73.7501 21.99ZM70.1501 21.99C70.1501 21.01 69.9401 20.14 69.5201 19.38C69.1201 18.6 68.5701 18 67.8701 17.58C67.1901 17.16 66.4301 16.95 65.5901 16.95C64.7501 16.95 63.9801 17.16 63.2801 17.58C62.6001 18 62.0501 18.6 61.6301 19.38C61.2301 20.14 61.0301 21.01 61.0301 21.99C61.0301 22.97 61.2301 23.84 61.6301 24.6C62.0501 25.36 62.6001 25.95 63.2801 26.37C63.9801 26.79 64.7501 27 65.5901 27C66.4301 27 67.1901 26.79 67.8701 26.37C68.5701 25.95 69.1201 25.36 69.5201 24.6C69.9401 23.84 70.1501 22.97 70.1501 21.99ZM85.3378 13.65C87.3778 13.65 88.7878 14.26 89.5678 15.48C90.3478 16.68 90.7378 18.35 90.7378 20.49V28.17C90.7378 28.69 90.5678 29.13 90.2278 29.49C89.8878 29.83 89.4578 30 88.9378 30C88.4178 30 87.9878 29.83 87.6478 29.49C87.3078 29.13 87.1378 28.69 87.1378 28.17V20.49C87.1378 19.39 86.9078 18.53 86.4478 17.91C85.9878 17.27 85.1978 16.95 84.0778 16.95C82.9178 16.95 82.0078 17.29 81.3478 17.97C80.6878 18.63 80.3578 19.47 80.3578 20.49V28.17C80.3578 28.69 80.1878 29.13 79.8478 29.49C79.5078 29.83 79.0778 30 78.5578 30C78.0378 30 77.6078 29.83 77.2678 29.49C76.9278 29.13 76.7578 28.69 76.7578 28.17V15.78C76.7578 15.26 76.9278 14.83 77.2678 14.49C77.6078 14.13 78.0378 13.95 78.5578 13.95C79.0778 13.95 79.5078 14.13 79.8478 14.49C80.1878 14.83 80.3578 15.26 80.3578 15.78V16.29C80.8978 15.57 81.5978 14.95 82.4578 14.43C83.3378 13.91 84.2978 13.65 85.3378 13.65ZM106.812 13.98C107.292 13.98 107.692 14.14 108.012 14.46C108.332 14.76 108.492 15.14 108.492 15.6C108.492 15.84 108.412 16.14 108.252 16.5L102.642 28.86C102.502 29.2 102.292 29.47 102.012 29.67C101.752 29.87 101.452 29.98 101.112 30L100.842 30.03C100.502 30.03 100.182 29.93 99.8824 29.73C99.6024 29.51 99.3824 29.22 99.2224 28.86L93.6424 16.5C93.5024 16.18 93.4324 15.86 93.4324 15.54C93.4324 15.14 93.6024 14.78 93.9424 14.46C94.2824 14.12 94.7024 13.95 95.2024 13.95C95.5824 13.95 95.9324 14.05 96.2524 14.25C96.5724 14.45 96.8124 14.73 96.9724 15.09L101.112 24.57L105.222 15.12C105.382 14.74 105.602 14.45 105.882 14.25C106.162 14.05 106.472 13.96 106.812 13.98ZM126.602 21.99C126.602 23.59 126.242 25.03 125.522 26.31C124.802 27.57 123.812 28.55 122.552 29.25C121.312 29.95 119.942 30.3 118.442 30.3C116.922 30.3 115.542 29.95 114.302 29.25C113.062 28.55 112.082 27.57 111.362 26.31C110.642 25.03 110.282 23.59 110.282 21.99C110.282 20.39 110.642 18.96 111.362 17.7C112.082 16.42 113.062 15.43 114.302 14.73C115.542 14.01 116.922 13.65 118.442 13.65C119.942 13.65 121.312 14.01 122.552 14.73C123.812 15.43 124.802 16.42 125.522 17.7C126.242 18.96 126.602 20.39 126.602 21.99ZM123.002 21.99C123.002 21.01 122.792 20.14 122.372 19.38C121.972 18.6 121.422 18 120.722 17.58C120.042 17.16 119.282 16.95 118.442 16.95C117.602 16.95 116.832 17.16 116.132 17.58C115.452 18 114.902 18.6 114.482 19.38C114.082 20.14 113.882 21.01 113.882 21.99C113.882 22.97 114.082 23.84 114.482 24.6C114.902 25.36 115.452 25.95 116.132 26.37C116.832 26.79 117.602 27 118.442 27C119.282 27 120.042 26.79 120.722 26.37C121.422 25.95 121.972 25.36 122.372 24.6C122.792 23.84 123.002 22.97 123.002 21.99ZM141.519 13.95C142.039 13.95 142.469 14.13 142.809 14.49C143.149 14.83 143.319 15.26 143.319 15.78V28.53C143.319 31.13 142.619 33.02 141.219 34.2C139.819 35.4 137.949 36 135.609 36C134.929 36 134.229 35.94 133.509 35.82C132.809 35.72 132.239 35.58 131.799 35.4C130.819 34.98 130.329 34.4 130.329 33.66C130.329 33.52 130.359 33.36 130.419 33.18C130.539 32.74 130.739 32.4 131.019 32.16C131.319 31.94 131.639 31.83 131.979 31.83C132.179 31.83 132.369 31.86 132.549 31.92C132.689 31.98 132.929 32.08 133.269 32.22C133.629 32.36 133.999 32.47 134.379 32.55C134.779 32.65 135.189 32.7 135.609 32.7C137.029 32.7 138.069 32.39 138.729 31.77C139.409 31.17 139.749 30.13 139.749 28.65V28.35C138.709 29.65 137.089 30.3 134.889 30.3C133.849 30.3 132.929 30.06 132.129 29.58C131.329 29.08 130.709 28.4 130.269 27.54C129.829 26.66 129.609 25.66 129.609 24.54V15.78C129.609 15.26 129.779 14.83 130.119 14.49C130.459 14.13 130.889 13.95 131.409 13.95C131.929 13.95 132.359 14.13 132.699 14.49C133.039 14.83 133.209 15.26 133.209 15.78V23.46C133.209 24.72 133.479 25.63 134.019 26.19C134.579 26.73 135.389 27 136.449 27C137.489 27 138.289 26.7 138.849 26.1C139.429 25.48 139.719 24.6 139.719 23.46V15.78C139.719 15.26 139.889 14.83 140.229 14.49C140.569 14.13 140.999 13.95 141.519 13.95Z" fill="#1C2A3F"/>
</g>
<defs>
<clipPath id="clip0_307_36">
<rect width="148" height="38" fill="white"/>
</clipPath>
</defs>
</svg>
