<svg width="712" height="525" viewBox="0 0 712 525" fill="none" 
    xmlns="http://www.w3.org/2000/svg">
    <path d="M142.453 184.308V218.687C142.453 218.687 112.97 217.971 106.787 218.21C98.4655 218.448 100.13 229.431 100.13 229.431L99.6543 273.837H141.74V311.32H98.941V454.805H26.4206V311.32H0.979004V273.837H28.5605V213.435C28.5605 213.435 25.9451 185.979 57.8065 185.263C89.6679 184.547 142.453 184.308 142.453 184.308Z" fill="#0D3A94"/>
    <path d="M264.43 288.164H316.978C321.733 288.164 325.538 289.836 325.538 285.061L324.825 230.15C324.825 229.433 324.825 228.956 324.587 228.24C323.398 223.226 320.069 196.487 282.263 187.892C281.55 187.653 281.074 187.414 280.361 187.414C272.515 186.459 221.156 180.491 198.33 187.653C183.588 192.189 174.79 198.874 167.657 206.036C161.237 212.482 155.293 222.748 154.818 231.821L155.293 284.345C154.342 290.791 160.524 300.34 169.084 307.025C181.21 316.336 203.323 328.512 233.52 342.598C233.52 342.598 250.402 347.851 251.353 358.594C252.066 367.189 253.968 396.077 253.968 406.821C253.968 409.924 252.304 412.789 249.689 414.222C246.36 416.132 241.129 417.325 235.185 414.46C232.569 413.028 230.667 410.163 230.667 407.059L229.24 354.774C229.002 350.238 229.24 346.179 224.723 346.179L160.762 345.463C156.244 345.463 155.055 343.792 155.055 348.328L156.482 413.267C156.482 414.222 156.72 414.938 156.958 415.893C159.098 422.339 170.035 450.511 200.708 453.137C233.282 456.002 270.613 454.808 275.606 454.569C276.081 454.569 276.319 454.569 276.795 454.569C281.55 453.614 314.125 451.705 325.3 422.339C325.538 421.623 325.776 420.668 326.013 419.951C326.727 411.595 327.678 365.995 326.013 348.567C326.013 348.328 326.013 347.851 326.013 347.612C325.3 344.031 321.733 323.499 287.019 309.174C287.019 309.174 243.982 290.552 232.093 280.047C230.191 278.376 227.814 273.601 227.814 271.214L228.051 231.582C229.954 223.465 235.422 225.852 242.793 225.852C250.164 225.852 254.444 232.059 254.444 239.461L255.157 284.583C254.92 288.881 259.913 288.164 264.43 288.164Z" fill="#0D3A94"/>
    <path d="M442.76 446.449C442.76 446.449 408.758 459.103 381.177 453.373C357.875 448.359 347.651 432.841 343.133 425.44C341.707 423.052 341.231 413.025 341.231 410.16L340.756 217.493C340.756 210.808 343.133 204.362 347.651 199.587C355.26 191.47 368.813 180.727 385.695 182.159C412.325 184.308 438.242 188.366 438.242 188.366L436.102 225.372C436.102 225.372 417.794 220.12 415.416 227.043C410.423 241.368 412.087 405.863 412.087 405.863C412.087 405.863 416.129 420.187 429.207 412.786C442.284 405.385 442.76 410.638 442.76 410.638V446.449Z" fill="#0D3A94"/>
    <path d="M518.372 58.4868L437.292 120.083V448.595H517.183L518.372 58.4868Z" fill="#0D3A94"/>
    <path d="M520.274 451.947H434.2V118.42L521.7 52.0493L520.274 451.947ZM440.62 445.5H513.854L515.043 64.9415L440.62 121.524V445.5V445.5Z" fill="#0887D6"/>
    <path d="M642.25 454.805H711.917V217.493C711.917 217.493 709.301 190.515 666.74 185.263C666.74 185.263 644.865 181.443 626.557 189.083L607.059 196.006L605.871 229.908C605.871 229.908 630.837 221.552 638.208 225.849C644.39 229.431 643.439 237.548 644.152 251.873C644.865 266.675 642.25 454.805 642.25 454.805Z" fill="#0D3A94"/>
    <path d="M536.442 7.16577L617.285 77.1179V451.708H537.631L536.442 7.16577Z" fill="#0D3A94"/>
    <path d="M620.613 454.808H534.539L533.351 0L620.851 75.682V454.808H620.613ZM540.959 448.362H614.193V78.7857L539.77 14.3247L540.959 448.362Z" fill="#0887D6"/>
    <path d="M12.868 524.212V478.038H22.0942L33.0582 510.732C34.0693 513.776 34.8065 516.055 35.27 517.566C35.7966 515.887 36.6181 513.419 37.7345 510.165L48.8249 478.038H57.0715V524.212H51.163V485.566L37.7029 524.212H32.1735L18.7766 484.904V524.212H12.868Z" fill="#1A93D9"/>
    <path d="M67.0876 524.212V478.038H100.58V483.487H73.2174V497.629H98.8421V503.046H73.2174V518.763H101.654V524.212H67.0876Z" fill="#1A93D9"/>
    <path d="M110.217 524.212V478.038H130.755C134.883 478.038 138.022 478.458 140.17 479.298C142.319 480.117 144.036 481.576 145.321 483.676C146.605 485.776 147.248 488.096 147.248 490.637C147.248 493.912 146.184 496.674 144.057 498.92C141.929 501.167 138.643 502.595 134.199 503.204C135.821 503.981 137.053 504.747 137.895 505.503C139.686 507.141 141.382 509.188 142.982 511.645L151.04 524.212H143.33L137.2 514.606C135.41 511.834 133.935 509.713 132.777 508.243C131.618 506.774 130.576 505.745 129.649 505.157C128.743 504.569 127.816 504.159 126.868 503.928C126.173 503.781 125.036 503.708 123.456 503.708H116.347V524.212H110.217ZM116.347 498.416H129.522C132.324 498.416 134.515 498.133 136.094 497.566C137.674 496.978 138.875 496.054 139.696 494.794C140.518 493.514 140.929 492.128 140.929 490.637C140.929 488.453 140.128 486.658 138.527 485.251C136.947 483.844 134.441 483.141 131.007 483.141H116.347V498.416Z" fill="#1A93D9"/>
    <path d="M189.935 508.023L196.065 509.566C194.78 514.585 192.463 518.417 189.113 521.063C185.785 523.687 181.709 525 176.885 525C171.893 525 167.828 523.992 164.689 521.976C161.572 519.939 159.191 517 157.548 513.157C155.926 509.314 155.115 505.188 155.115 500.779C155.115 495.97 156.032 491.781 157.864 488.212C159.718 484.621 162.341 481.902 165.732 480.054C169.144 478.185 172.894 477.251 176.98 477.251C181.614 477.251 185.511 478.427 188.671 480.778C191.831 483.13 194.032 486.437 195.275 490.7L189.24 492.117C188.165 488.758 186.607 486.311 184.563 484.778C182.52 483.246 179.95 482.479 176.854 482.479C173.294 482.479 170.313 483.33 167.912 485.03C165.532 486.731 163.857 489.02 162.888 491.897C161.919 494.752 161.435 497.703 161.435 500.747C161.435 504.674 162.004 508.107 163.141 511.047C164.3 513.965 166.09 516.149 168.512 517.598C170.935 519.047 173.557 519.771 176.38 519.771C179.813 519.771 182.72 518.784 185.101 516.811C187.481 514.837 189.092 511.908 189.935 508.023Z" fill="#1A93D9"/>
    <path d="M203.837 524.212V478.038H209.967V496.999H234.044V478.038H240.173V524.212H234.044V502.448H209.967V524.212H203.837Z" fill="#1A93D9"/>
    <path d="M245.323 524.212L263.112 478.038H269.716L288.674 524.212H281.691L276.288 510.228H256.919L251.832 524.212H245.323ZM258.689 505.251H274.392L269.558 492.464C268.083 488.579 266.988 485.387 266.272 482.889C265.682 485.849 264.85 488.789 263.776 491.708L258.689 505.251Z" fill="#1A93D9"/>
    <path d="M293.508 524.212V478.038H299.796L324.125 514.291V478.038H330.002V524.212H323.714L299.385 487.928V524.212H293.508Z" fill="#1A93D9"/>
    <path d="M352.12 524.212V483.487H336.859V478.038H373.574V483.487H358.249V524.212H352.12Z" fill="#1A93D9"/>
    <path d="M396.45 524.212V478.038H413.828C417.366 478.038 420.2 478.511 422.327 479.455C424.476 480.379 426.15 481.818 427.351 483.771C428.573 485.702 429.184 487.729 429.184 489.849C429.184 491.823 428.646 493.681 427.572 495.424C426.498 497.167 424.876 498.574 422.706 499.645C425.508 500.464 427.656 501.86 429.152 503.834C430.669 505.808 431.427 508.138 431.427 510.826C431.427 512.989 430.963 515.005 430.037 516.874C429.131 518.721 428.004 520.149 426.656 521.157C425.308 522.165 423.612 522.931 421.569 523.456C419.547 523.96 417.061 524.212 414.112 524.212H396.45ZM402.579 497.44H412.595C415.313 497.44 417.261 497.262 418.441 496.905C419.999 496.443 421.169 495.676 421.948 494.605C422.748 493.535 423.149 492.191 423.149 490.574C423.149 489.041 422.78 487.697 422.043 486.542C421.305 485.366 420.252 484.568 418.883 484.148C417.514 483.708 415.165 483.487 411.837 483.487H402.579V497.44ZM402.579 518.763H414.112C416.092 518.763 417.482 518.69 418.283 518.543C419.694 518.291 420.874 517.871 421.822 517.283C422.769 516.695 423.549 515.845 424.16 514.732C424.771 513.598 425.076 512.296 425.076 510.826C425.076 509.104 424.634 507.614 423.749 506.354C422.864 505.073 421.632 504.18 420.052 503.676C418.493 503.151 416.239 502.889 413.29 502.889H402.579V518.763Z" fill="#1A93D9"/>
    <path d="M434.776 524.212L452.565 478.038H459.169L478.126 524.212H471.144L465.741 510.228H446.372L441.285 524.212H434.776ZM448.141 505.251H463.845L459.011 492.464C457.536 488.579 456.441 485.387 455.725 482.889C455.135 485.849 454.303 488.789 453.228 491.708L448.141 505.251Z" fill="#1A93D9"/>
    <path d="M482.961 524.212V478.038H489.248L513.578 514.291V478.038H519.455V524.212H513.167L488.838 487.928V524.212H482.961Z" fill="#1A93D9"/>
    <path d="M529.534 524.212V478.038H535.664V500.936L558.666 478.038H566.976L547.544 496.747L567.829 524.212H559.74L543.247 500.842L535.664 508.212V524.212H529.534Z" fill="#1A93D9"/>
    <path d="M590.705 524.212V478.038H596.835V518.763H619.647V524.212H590.705Z" fill="#1A93D9"/>
    <path d="M633.96 524.212V483.487H618.699V478.038H655.414V483.487H640.09V524.212H633.96Z" fill="#1A93D9"/>
    <path d="M661.734 524.212V478.038H677.69C681.292 478.038 684.041 478.259 685.937 478.7C688.591 479.309 690.855 480.411 692.73 482.007C695.173 484.065 696.995 486.7 698.196 489.912C699.418 493.104 700.029 496.758 700.029 500.873C700.029 504.38 699.618 507.488 698.796 510.196C697.975 512.905 696.922 515.152 695.637 516.937C694.352 518.7 692.941 520.097 691.403 521.126C689.886 522.133 688.043 522.9 685.873 523.425C683.725 523.95 681.25 524.212 678.448 524.212H661.734ZM667.863 518.763H677.753C680.808 518.763 683.198 518.48 684.926 517.913C686.674 517.346 688.064 516.548 689.096 515.519C690.55 514.07 691.677 512.128 692.477 509.692C693.299 507.236 693.709 504.264 693.709 500.779C693.709 495.949 692.909 492.243 691.308 489.66C689.728 487.057 687.801 485.314 685.526 484.432C683.883 483.802 681.239 483.487 677.595 483.487H667.863V518.763Z" fill="#1A93D9"/>
</svg>
