<svg xmlns="http://www.w3.org/2000/svg" viewBox="0 0 1000 1000"><title>Nigeria-Logo</title><path d="M298.87,390c-10.31-1-20.35,1.44-30.43,2.83-.87-.93-.1-1.62.26-2.21,24.48-40.07,58.3-67.37,105.16-76.75A151.62,151.62,0,0,1,424,312.13c6.72.91,12.8-1.56,19.17-2.5,6.09-.9,7.29,0,4.23,5.32-6,10.44-2.38,20.64-.69,31Q451.15,373,456,400c.59,3.34-.09,5.88-2.5,8.07-4.6,4.19-8.55,9.49-16.26,6.94-5-1.64-8.84-3.66-9-9.63a6.33,6.33,0,0,0-1.41-3.65c-6.77-7.78-13.42-15.71-21.62-22.08-4.85-3.77-7.64-3.25-11.11,1.92-3.93,5.85-6.09,12.54-8.62,19.05-6,15.35-11.9,30.71-21.67,44.22-1.94,2.68-3.85,3.87-7.37,3.53a266.48,266.48,0,0,0-40.26-1.12c.28,1.85,1.49,1.8,2.67,1.95,13.21,1.62,26.4,3.32,39.61,4.91,10.41,1.26,17,12.18,12.76,21.67a548.42,548.42,0,0,1-28.1,53.39,14.56,14.56,0,0,1-5.56,5.56q-8.28,4.6-16.47,9.38c-2.18,1.27-3.61,1-4.71-1.42a32.2,32.2,0,0,1-2.75-17.52c.49-3.91,6.93-7,11.69-5.95,5.91,1.33,8.61-.88,8.36-7-.12-2.88,1.27-5.13,2.66-7.37,4.75-7.62,9.63-15.16,14.39-22.78,1-1.63,2.88-3.39,1.59-5.38s-3.65-1.39-5.58-1.22c-8.89.78-17.57,1.44-26,5.51-14.32,6.9-30,9.71-45.69,11.88-20.38,2.81-41.09,2.55-61.62,6.7.66-9.3,1.52-18.26-.06-28.19-2.41,2.92-2.57,5.4-2.85,7.77-3.45,29.71-19.87,51.22-43.27,68.24a133.34,133.34,0,0,1-47.39,21.57c-11.93,2.91-20.45,9.48-26.35,20.27-6.71,12.27-11.92,25.31-18.87,37.4-7.27,12.66-18.44,20.76-33.19,23.06-7.52,1.17-8.72-.36-6.51-7.66.92-3,2.09-6,3.15-8.94,2.4-6.78,5.47-12.5,14.35-11.4,3.35.42,5.16-2,6.34-5.19,6.81-18.4,13.89-36.69,20.64-55.11a10.39,10.39,0,0,1,6.56-6.82c8-3,16-5.79,23.74-9.12,13.38-5.71,17.2-12,16.27-26.36-.77-12.11-2.29-24.21.29-36.29,5.15-24.21,21-39.79,41.62-51.43,18.46-10.4,38.73-15.74,59-21q33.33-8.56,66.62-17.25c1.88-.49,3.71-1.14,5.56-1.71Z" style="fill:#03b1f0"/><path d="M502.26,609.08c23.38,0,41.65,18,41.48,40.77-.18,23.07-18.68,41-42.12,40.83-23.17-.17-41.14-17.87-41.16-40.56C460.44,627,478.77,609,502.26,609.08Zm-23.93,40.35c-.06,14.6,9.93,25.42,23.57,25.52,13.94.1,24.12-10.41,24.12-24.91,0-14.24-10.44-25.22-24-25.29C488.2,624.68,478.39,634.92,478.33,649.43Z" style="fill:#06b4f1"/><path d="M345.74,622.22c5.3-6.87,11.2-11.33,19.19-12.73,16.95-3,31.49,7.55,32.36,24.73.79,15.59.37,31.25.25,46.88,0,5.22-3.58,8.18-8.75,8.14s-8.7-3.11-8.91-8.67c-.24-6.64-.07-13.3-.08-20,0-5.82.11-11.65-.08-17.46-.36-11.42-6.39-17.91-16.45-17.92-10.34,0-17.48,7-17.73,18.15-.27,12.13,0,24.28-.13,36.42-.05,6-3.18,9.28-8.62,9.41s-9.06-3-9.09-8.35q-.21-31.18,0-62.37a8.41,8.41,0,0,1,8.05-8.57,9,9,0,0,1,9.58,7.62C345.55,618.78,345.56,620,345.74,622.22Z" style="fill:#06b4f1"/><path d="M581.85,621.94c8.08-10.54,18.1-14.65,30.62-12.14,11.75,2.36,20.24,11.61,20.59,23.68.45,15.95.24,31.92.16,47.88,0,4.84-3.53,8.08-8.23,8.21a8.56,8.56,0,0,1-9-8.13c-.34-6.3-.12-12.63-.18-19-.07-7.31.21-14.65-.38-21.92-.77-9.48-6.36-14.71-15.31-15.29s-15.73,4.51-18,13.27c-1.44,5.58-.64,11.25-.74,16.88-.14,8,0,16-.05,23.94,0,6.29-3.7,10.31-9.1,10.2-5.17-.09-8.7-4-8.72-10.09-.07-19.45,0-38.91,0-58.36,0-7.07,3.08-11,8.57-11.21s8.79,3.49,9.31,10.51A9.62,9.62,0,0,0,581.85,621.94Z" style="fill:#05b3f1"/><path d="M285.51,678.26c-1.59.26-2.06,1.46-2.77,2.3-8.39,10-20.72,11.53-32.36,7.79-10.38-3.34-16.56-13.45-16.65-26-.1-14.31-.06-28.63,0-42.94,0-6,3.23-9.42,8.53-9.48,5.49-.06,9.06,3.53,9.13,9.58.11,10.65,0,21.3,0,32,0,2,0,4,.14,6,.7,10.63,6.76,16.61,16.71,16.56s17-6.64,17.33-16.86c.38-12.31.18-24.63.16-37,0-4.83,1.7-8.56,6.55-10,6-1.79,11.22,2.38,11.25,9q.12,30.21,0,60.42c0,5.83-3.35,9.66-8.36,9.89s-8.58-3.23-9.41-9C285.69,679.82,285.61,679.06,285.51,678.26Z" style="fill:#06b4f1"/><path d="M4.71,531.72a27.44,27.44,0,0,1,.84-15.16c8.54-26.74,28.27-40.34,54.42-46.42,9.48-2.2,19.11-2.39,28.76-2.15,12.25.3,24.25-.59,35.46-6.16,1.06-.53,2.33-1.21,3.25-.29,1.13,1.13-.27,2.09-.84,3a60.82,60.82,0,0,0-7.28,14.13c-.95,2.79-3.36,3.55-5.5,4.66C92.14,494.55,69,501.55,45.3,507.08c-8.27,1.94-16.37,4.33-23.89,8.4A39.72,39.72,0,0,0,4.71,531.72Z" style="fill:#05b3f1"/><path d="M394.18,455.84c-3.48.3-7.09.11-10.4,1-6.37,1.74-10.66-1.4-15-5.12-1.25-1.06-1.08-1.77-.4-2.88,1.3-2.13,2.59-4.26,3.81-6.43,5.89-10.44,5.89-10.47,17.91-9,7.26.88,14.51,1.85,21.76,2.79,7.78,1,13.85,10.82,10.7,18.05A340.09,340.09,0,0,1,396.14,504c-4.51,6.93-13.22,9.14-20.3,13-1.51.83-2.32-.86-2.86-2.05a28,28,0,0,1-2.44-15.07c.46-3.63,5.8-6.48,10.25-5.7,5.9,1,7.64-.39,7.71-6.5,0-2.49,1.22-4.46,2.44-6.42,4.23-6.77,8.59-13.45,12.78-20.24,2.7-4.36,2.12-5.29-3.06-5.38-1.16,0-2.32.05-3.49.1-1,0-2,.13-3,.2Z" style="fill:#06b4f1"/><path d="M669.53,627.53c7.53-10.26,17-17,30.12-16.92a35.1,35.1,0,0,1,24.78,10.11c14.81,14.22,16,40.38,2.5,55.95-5,5.82-11.19,10.09-18.72,11.69a37.6,37.6,0,0,1-21.6-1.23c-7.19-2.75-12.33-8.07-18.24-13.42,0,2.92,0,5.84,0,8.76,0,2.7.25,5.86-3.67,5.71-3.39-.13-3.45-2.94-3.44-5.57,0-8.65,0-17.3,0-26q0-29.46,0-58.91c0-1.33,0-2.66.05-4,.14-2.11,1.29-3.53,3.42-3.55,2.44,0,3.44,1.49,3.45,3.9,0,9.15.11,18.3.17,27.45,0,1.78,0,3.56,0,5.34ZM728.47,650c-.12-19-12.61-32.59-29.84-32.48S668,632,668.06,650.31s13.75,32.45,31,32.43C716.47,682.72,728.59,669.25,728.47,650Z" style="fill:#0ab8f2"/><path d="M810,675.59c-12.63,15.1-29.74,16-42.48,11.3-10.51-3.89-15.69-11.7-15.48-22,.2-9.84,5.9-17.37,16.21-21,12.39-4.43,25-3.19,37.4-.45,3.75.82,4.52.14,4.41-3.52-.39-12.63-8.31-20.87-21.36-21.82a48.67,48.67,0,0,0-23.35,4.1c-2.36,1-5,2.33-6.3-1s1.47-4.28,3.83-5.25c10-4.12,20.39-5.88,31.22-3.94,13.54,2.43,22.41,12,22.77,25.72.41,15.29.13,30.61.17,45.91,0,2.39-.5,4.55-3.28,4.68-3.09.15-3.8-2.06-3.76-4.69C810,681.27,810,679,810,675.59Zm-20-27.93c-8.82-.17-14.8,0-20.37,2.66-6,2.84-9.71,7.38-9.94,14.28-.23,7.07,3,12.22,9.2,15.25,10.44,5.09,20.71,3.78,30.45-1.91,9.14-5.33,11.58-13.91,10.92-23.93-.17-2.52-1-3.47-3.34-4C800.33,648.69,793.78,647.67,789.92,647.66Z" style="fill:#0ab8f2"/><path d="M960.7,651.17c-5.84,5.72-11.38,11.22-17,16.62-1.5,1.44-1.72,3.09-1.69,5,0,3.83,0,7.66,0,11.48,0,2.38-1,3.85-3.54,3.8s-3.51-1.54-3.54-3.88c0-.67,0-1.33,0-2q0-42.69,0-85.39a22.51,22.51,0,0,1,.1-3.49,3.28,3.28,0,0,1,3.36-3.08,3.17,3.17,0,0,1,3.43,3.45c.07,2.83.18,5.65.18,8.48q0,26.22,0,52.44v4.92c2.38-.27,3.14-1.92,4.22-3q19.32-19.87,38.54-39.83c.93-1,1.88-1.89,2.79-2.86,1.66-1.79,3.67-2.73,5.65-.94,2.15,1.95.87,3.89-.78,5.57-5.14,5.22-10.3,10.42-15.41,15.66-3.72,3.81-9.92,7.4-10.37,11.58-.5,4.63,5.86,8.65,9.22,12.94,5.86,7.46,11.89,14.78,17.89,22.13,1.66,2,3.43,4.5,1.13,6.53-2.52,2.23-4.8.29-6.65-2C979.09,673.83,969.86,662.48,960.7,651.17Z" style="fill:#0ab8f2"/><path d="M849.75,624.2c8.22-10.31,18.47-14.7,31.3-13.36,14.59,1.51,25.15,11.8,25.73,26.47.61,15.45.23,30.94.29,46.41,0,2.42-.55,4.38-3.51,4.33-3.22-.06-3.62-2.27-3.62-4.82q0-19.22,0-38.44a47.58,47.58,0,0,0-.38-7.46c-2.14-13.21-11.51-20.78-24.8-20.18-13.59.61-24.37,10.92-24.84,24.55-.43,12.63-.13,25.28-.15,37.93,0,1.33,0,2.66,0,4,0,2.38-.57,4.36-3.5,4.43s-3.72-1.7-3.74-4.19c0-.67,0-1.33,0-2V618.47c0-.83,0-1.66,0-2.49.13-2.2.86-4,3.44-4,2.81,0,3.67,1.89,3.74,4.29C849.81,618.89,849.75,621.54,849.75,624.2Z" style="fill:#0ab8f2"/><path d="M439.62,649.72c0,10,0,19.94,0,29.91,0,6.21-2.86,9.38-8.32,9.6-5.69.22-9.35-3-9.4-9.18q-.22-30.4,0-60.82c.05-5.79,3.86-9.36,8.94-9.32,5.33,0,8.72,3.78,8.76,9.9C439.67,629.78,439.62,639.75,439.62,649.72Z" style="fill:#06b4f1"/><path d="M102.22,617.16c-2,.27-3.15-1.42-2-4.88,1.1-3.3,2.37-6.55,3.46-9.86,1.75-5.35,4.6-9,11-8.68,3.35.17,5.57-1.77,6.2-5.24,1.9-10.53,7.71-17.35,18.32-20.13,3.3-.86,6.26-3,9.39-4.55.86-.43,1.75-1.27,2.72-.5s.29,1.81-.14,2.65c-6,11.86-11,24.4-19,34.94C125.35,609.81,116,616.26,102.22,617.16Z" style="fill:#06b4f1"/></svg>