<svg width="2001" height="609" fill="none" xmlns="http://www.w3.org/2000/svg"><path d="M1697.05 215.448a87.728 87.728 0 0 1 54.67 18.844l.84.667.77.597a89.446 89.446 0 0 1 12.6 12.633l215.11 215.178v-96.185l-143.87-144.084-32.5-32.494a157.419 157.419 0 0 0-72.25-41.127c-86.36-22.072-174.65 31.863-192.58 119.31a160.588 160.588 0 0 0 15.51 107.624 160.61 160.61 0 0 0 80.54 73.062 160.572 160.572 0 0 0 195.52-60.359l3.51-5.86 1.26-2.14 9.02-14.563-49.79-49.83-.25.316-22.98 35.091a88.933 88.933 0 0 1-33.46 31.054 88.97 88.97 0 0 1-88.19-2.633 88.889 88.889 0 0 1-31.54-32.994 89.009 89.009 0 0 1-11.04-44.291 89.086 89.086 0 0 1 12.37-43.935 89.065 89.065 0 0 1 32.53-32.022 89.02 89.02 0 0 1 44.13-11.683l.07-.176Z" fill="#004882"/><path d="m1922.71 265.208.11-.141L2001 141.406h-80.6l-46.96 74.288-.21.316 49.48 49.198Z" fill="#C20C38"/><path d="M18.107 217.138a135.773 135.773 0 0 1 49.619-56.146 129.626 129.626 0 0 1 70.182-19.615 120.872 120.872 0 0 1 57.97 13.475 99.52 99.52 0 0 1 38.601 35.336v-44.285h95.904v312.978h-51.76a44.288 44.288 0 0 1-44.144-44.32 103.772 103.772 0 0 1-38.986 35.336 120.505 120.505 0 0 1-58.076 13.475 127.132 127.132 0 0 1-69.55-19.931 137.318 137.318 0 0 1-49.62-56.637C6.082 362.31 0 333.98 0 301.813s6.036-60.392 18.107-84.675Zm196.3 28.599a67.342 67.342 0 0 0-97.027-.28c-13.171 13.662-19.757 32.447-19.757 56.356s6.633 42.893 19.897 56.953a66.673 66.673 0 0 0 97.027.28c13.264-13.825 19.908-32.716 19.932-56.672.023-23.955-6.668-42.834-20.072-56.637ZM453.627 0v458.886h-95.904V43.794L453.627 0ZM615.75 154.851a118.935 118.935 0 0 1 57.76-13.44 129.635 129.635 0 0 1 70.182 19.616 136.085 136.085 0 0 1 49.654 56.146c12.142 24.283 18.212 52.508 18.212 84.675 0 32.167-6.07 60.497-18.212 84.991a137.623 137.623 0 0 1-49.654 56.636 128.07 128.07 0 0 1-70.182 19.932 119.061 119.061 0 0 1-57.479-13.475 105.285 105.285 0 0 1-38.987-34.775v193.001h-95.939V145.903h95.939v44.285a104.238 104.238 0 0 1 38.706-35.337Zm78.429 90.605a65.876 65.876 0 0 0-49.128-20.493 64.756 64.756 0 0 0-48.531 20.774c-13.264 13.826-19.897 32.705-19.897 56.637 0 23.932 6.633 42.823 19.897 56.672a67.17 67.17 0 0 0 48.732 20.741 67.158 67.158 0 0 0 48.611-21.021c13.451-14.037 20.177-33.021 20.177-56.953 0-23.932-6.62-42.718-19.861-56.357ZM1117.76 178.157c21.74 23.745 32.6 56.368 32.6 97.87v182.859h-95.44V288.94c0-21.055-5.42-37.325-16.25-48.812-10.83-11.486-25.42-17.335-43.76-17.545-18.318 0-32.904 5.848-43.759 17.545-10.855 11.697-16.271 27.968-16.247 48.812v169.946h-95.939V43.794L934.904 0v187.948a102.639 102.639 0 0 1 40.004-33.091 127.337 127.337 0 0 1 56.632-12.317c35.8 0 64.54 11.872 86.22 35.617ZM1195.97 217.142a136.08 136.08 0 0 1 49.65-56.145 129.647 129.647 0 0 1 70.19-19.616 120.66 120.66 0 0 1 58.04 13.439 99.356 99.356 0 0 1 38.6 35.337v-44.25h95.83v312.978h-51.76a44.33 44.33 0 0 1-31.34-12.981 44.327 44.327 0 0 1-12.98-31.339 103.458 103.458 0 0 1-38.98 35.336 120.252 120.252 0 0 1-57.94 13.475 127.041 127.041 0 0 1-69.55-19.931 137.587 137.587 0 0 1-49.76-56.637c-12.14-24.494-18.21-52.824-18.21-84.991s6.07-60.392 18.21-84.675Zm196.51 28.599a67.261 67.261 0 0 0-22.11-15.327 67.292 67.292 0 0 0-26.34-5.451 67.373 67.373 0 0 0-26.38 5.298 67.298 67.298 0 0 0-22.2 15.2c-13.28 13.662-19.93 32.447-19.93 56.356s6.65 42.893 19.93 56.953a66.761 66.761 0 0 0 22.05 15.544 66.706 66.706 0 0 0 26.41 5.534 66.687 66.687 0 0 0 48.57-20.797c13.26-13.826 19.9-32.717 19.9-56.672 0-23.956-6.64-42.835-19.9-56.638Z" fill="#004882"/></svg>