<svg data-name="Layer 1" xmlns="http://www.w3.org/2000/svg" viewBox="0 0 665.35 160.09"><defs><linearGradient id="a" x1="201.62" y1="579.76" x2="239.66" y2="557.8" gradientTransform="matrix(2.07 0 0 -1.01 -207.92 1014.29)" gradientUnits="userSpaceOnUse"><stop offset="0" stop-color="#ab0132"/><stop offset="1" stop-color="#dd1836"/></linearGradient><linearGradient id="b" x1="218.13" y1="514.65" x2="256.19" y2="492.67" gradientTransform="matrix(2.07 0 0 -1.01 -207.48 1015.31)" gradientUnits="userSpaceOnUse"><stop offset="0" stop-color="#15734e"/><stop offset="1" stop-color="#4e9020"/></linearGradient></defs><path d="M215.39 447.83a56.53 56.53 0 0 1 103.54 0L339.36 436a80 80 0 0 0-140.84-6.55v-27.12h-22.79v68.21H244v-22.71z" transform="translate(-175.73 -390.5)" fill="url(#a)"/><path d="M318.94 493.33a56.58 56.58 0 0 1-103.54 0L195 505.08a80 80 0 0 0 140.84 6.62v27.13h22.71v-68.29h-68.24v22.79z" transform="translate(-175.73 -390.5)" fill="url(#b)"/><path d="M414.72 91a33.71 33.71 0 1 1-33.67-33.75A33.66 33.66 0 0 1 414.72 91zm-86-57.65h11.12v90.15h-11.15zm237.76 24.76h11.36v7.65a33.52 33.52 0 0 1 22.32-8.52h2.76v11h-2.76a22.69 22.69 0 0 0-22.32 18.53v36.73h-11.39V58.12zm-72.79.24h11.36v8a33.71 33.71 0 1 1 22.71 58.59 33.35 33.35 0 0 1-22.71-8.83v32.49h-11.39zM321.12 73.81v34.86l-.71.79-.47.47-.39.39v.08a1 1 0 0 0-.39.39h-.08c-.08.16-.24.24-.39.39-.16.16-.24.32-.39.39l-.08.08-.32.32-.08.08-.39.39h-.08l-.32.32-.16.16c-.08.08-.24.16-.32.24l-.08.08a1.39 1.39 0 0 1-.39.32l-.08.08-.32.32-.16.08-.32.32-.16.08-.32.24-.24.16-.24.24-.24.16-.16.16-.24.16-.16.08-.08.08a.41.41 0 0 1-.32.16l-.16.16-.32.24-.16.08-.08.08a.41.41 0 0 1-.32.16l-.16.16c-.08.08-.24.16-.32.24l-.24.08a1.09 1.09 0 0 1-.32.24 46.06 46.06 0 1 1-24.6-85 45.68 45.68 0 0 1 32.57 13.49l2 2-7.81 7.73-1.85-2.04a35.1 35.1 0 1 0-1.34 50.79v-19.4h-30V73.81h41.17zM631.67 57.5a33.67 33.67 0 1 1-33.75 33.67 33.66 33.66 0 0 1 33.75-33.67zm22.6 33.66a22.67 22.67 0 1 0-22.63 22.71 22.65 22.65 0 0 0 22.63-22.71zm-103.86.08a22.71 22.71 0 1 0-22.71 22.63 22.72 22.72 0 0 0 22.74-22.63zm-129.65-.08a33.67 33.67 0 1 1 33.67 33.67 33.66 33.66 0 0 1-33.63-33.67zm56.39 0a22.71 22.71 0 1 0-22.71 22.71 22.72 22.72 0 0 0 22.74-22.71zM358.31 91a22.67 22.67 0 1 0 22.71-22.71A22.65 22.65 0 0 0 358.34 91z" fill="#3e882d"/></svg>