<svg width="3005" height="546" fill="none" xmlns="http://www.w3.org/2000/svg"><path fill-rule="evenodd" clip-rule="evenodd" d="M781 198c-36 0-68 27-68 76 0 50 32 77 69 77 38 0 56-26 61-45l52 19c-12 38-49 80-113 80-72 0-127-56-127-131s55-130 125-130c66 0 102 42 113 81l-53 19c-5-22-22-46-59-46zm247 154c37 0 69-26 69-78 0-51-32-77-69-77-36 0-68 26-68 77s32 78 68 78zm0-208c74 0 128 55 128 130 0 76-54 131-128 131-73 0-127-55-127-131 0-75 54-130 127-130zm294 8h60l58 170 49-170h59l-78 245h-59l-61-176-59 176h-60l-80-245h63l50 170 58-170zm391-2v60l-19-2c-46 0-66 26-66 72v117h-59V152h57v39c12-27 39-42 71-42l16 1zm109 346h-63l59-128-104-216h66l70 155 66-155h62l-156 344zm314-344h61l58 170 49-170h59l-78 245h-59l-61-176-59 176h-60l-80-245h63l49 170 58-170zm306 245h-58V152h58v245zm-67-331c0-21 17-39 38-39s38 18 38 39-17 38-38 38-38-17-38-38zm97 265l51-14c2 22 19 41 50 41 24 0 37-13 37-28 0-13-9-23-29-27l-36-8c-43-10-66-38-66-72 0-42 39-79 90-79 69 0 91 45 95 69l-50 14c-2-14-12-37-45-37-21 0-35 13-35 28 0 13 9 23 25 26l37 8c46 10 70 38 70 74 0 37-30 79-92 79-71 0-99-47-102-74zm268-83h120c-1-29-20-55-60-55-37 0-58 28-60 55zm127 63l49 16c-13 43-51 78-110 78-67 0-126-49-126-132 0-77 58-129 120-129 75 0 119 50 119 128l-1 18h-179c1 38 30 64 67 64 35 0 53-18 61-43z" fill="#0267F6"/><path d="M289 450a182 182 0 0 1-157-276l3-4 33 22-2 3c-41 67-20 154 48 195s156 20 198-47 20-154-48-195c-22-14-48-21-75-21V88c101 0 183 81 183 181 0 101-82 182-183 181z" fill="#0267F6"/><path d="M84 200a217 217 0 1 0 398-33A220 220 0 0 0 290 53V12a256 256 0 0 1 61 506c-81 20-167-1-230-54-64-57-98-140-89-225l4-36" fill="#0267F6"/><path d="M292 205l-256-2 23-34c2-2 3-3 5-3h228v39zm50-78H82l11-20c3-5 7-15 12-18l10-1h174l53 39zm0-74H125l22-38c1-1 3-3 5-3h145l45 41z" fill="#0267F6"/><path d="M289 373c-58 0-105-47-105-104s47-103 105-103c57 0 104 46 104 103s-47 104-104 104zm0-168a64 64 0 1 0 0 128c36 0 65-29 65-64s-29-64-65-64z" fill="#0267F6"/></svg>