<svg xmlns="http://www.w3.org/2000/svg" width="2725" height="503" viewBox="0 0 2725 503">
  <path fill="#0066F5" d="M251.46,0 L110.53,0 L110.26,0.49 L90.81,35.92 L251.46,35.92 C370.46,35.92 466.99,132.42 466.99,251.46 C466.99,370.5 370.49,467 251.46,467 C132.43,467 35.92,370.49 35.92,251.46 C35.9102337,228.942607 39.4365191,206.563349 46.37,185.14 L87.52,185.14 C58.3492171,257.225226 79.6892903,339.907505 140.10251,388.871341 C200.515729,437.835177 285.824917,441.590222 350.306626,398.123871 C414.788334,354.65752 443.310632,274.170028 420.586329,199.800542 C397.862026,125.431056 329.223837,74.6318731 251.46,74.63 L69.57,74.63 L49.86,110.54 L251.46,110.54 C314.789702,110.552884 370.32981,152.816399 387.224816,213.850898 C404.119823,274.885397 378.218122,339.692883 323.909497,372.269323 C269.600871,404.845764 200.23057,397.186156 154.337513,353.545823 C108.444456,309.905491 97.3059373,241.008163 127.11,185.13 L173.73,185.13 C142.612148,221.659953 141.106892,274.922055 170.111955,313.15116 C199.117018,351.380266 250.816567,364.274989 294.377353,344.145008 C337.938139,324.015027 361.622077,276.284656 351.304233,229.419954 C340.98639,182.555252 299.447056,149.184591 251.46,149.21 L28.62,149.21 L8.9,185.14 C2.99715316,206.752492 0.0040834327,229.055906 0,251.46 C0,390.33 112.58,502.92 251.46,502.92 C390.34,502.92 502.92,390.33 502.92,251.46 C502.92,112.59 390.33,0 251.46,0 Z M251.46,185.14 C288.087525,185.14 317.78,214.832475 317.78,251.46 C317.78,288.087525 288.087525,317.78 251.46,317.78 C214.832475,317.78 185.14,288.087525 185.14,251.46 C185.14,214.832475 214.832475,185.14 251.46,185.14 L251.46,185.14 Z M613.45,256.77 C613.45,186.91 660.32,137.83 730.61,137.83 C773.94,137.83 809.31,156.83 827.88,188.68 L787.21,217.42 C774.38,197.07 754.93,187.35 731.94,187.35 C693.94,187.35 668.72,214.35 668.72,256.77 C668.72,298.77 693.92,326.18 731.94,326.18 C754.94,326.18 774.38,316.01 787.21,295.67 L827.88,324.41 C809.31,356.69 773.94,375.26 730.61,375.26 C660.32,375.26 613.45,326.18 613.45,256.77 Z M835.52,256.77 C835.52,191.33 881.95,137.83 954.02,137.83 C1026.53,137.83 1072.51,191.33 1072.51,256.77 C1072.51,321.77 1026.51,375.26 954.02,375.26 C882,375.26 835.52,321.76 835.52,256.77 Z M1017.24,256.77 C1017.24,215.65 992.92,186.91 954.02,186.91 C915.12,186.91 890.79,215.65 890.79,256.77 C890.79,297.44 915.11,326.18 954.02,326.18 C992.93,326.18 1017.24,297.44 1017.24,256.77 Z M1426.57,144 L1357.57,369.05 L1299.31,369.05 L1250.54,210.32 L1201.34,369.05 L1143,369.05 L1074.4,144 L1127.92,144 L1174.53,306.26 L1224.59,144 L1276.38,144 L1326.45,306.26 L1372.62,144 L1426.57,144 Z M2184.51,144 L2115.45,369.05 L2057.19,369.05 L2008.42,210.32 L1959.22,369.05 L1901,369.05 L1832.38,144.05 L1885.9,144.05 L1932.51,306.31 L1982.52,144 L2034.31,144 L2084.38,306.26 L2130.56,144 L2184.51,144 Z M1588,143.14 L1588,193.54 C1579.81376,192.183477 1571.53708,191.444726 1563.24,191.33 C1523.89,191.33 1503.11,211.23 1503.11,258.09 L1503.11,369.09 L1449.2,369.09 L1449.2,144 L1502.2,144 L1502.2,181.6 C1513.26,155.52 1537.57,140.04 1568.52,140.04 C1575.14574,139.910687 1581.7417,140.960353 1588,143.14 Z M1811.79,144 L1811.79,346.5 C1811.79,422.11 1769.79,463.66 1695.5,463.66 C1657.04,463.66 1621.67,452.17 1600.44,432.27 L1624.76,392.92 C1643.76,407.92 1668.53,415.47 1692.41,415.47 C1733.97,415.47 1758.73,392.04 1758.73,346.47 L1758.73,327.06 C1745.91,351.82 1718.5,366.85 1685.33,366.85 C1637.58,366.85 1607.52,336.79 1607.52,281.96 L1607.52,144 L1661.46,144 L1661.46,268.26 C1661.46,302.75 1675.61,317.78 1703.9,317.78 C1736.62,317.78 1758.29,297.89 1758.29,265.16 L1758.29,144 L1811.79,144 Z M2198.7,72.84 C2198.7,53.38 2212.41,39.23 2233.19,39.23 C2253.52,39.23 2267.19,53.38 2267.19,72.84 C2267.19,92.3 2253.48,106.44 2233.19,106.44 C2212.41,106.44 2198.7,92.29 2198.7,72.84 Z M2206.22,144.02 L2260.16,144.02 L2260.16,369.07 L2206.22,369.07 L2206.22,144.02 Z M2287.3,332.37 L2316.48,298.32 C2334.16,317.78 2361.58,329.27 2390.32,329.27 C2415.96,329.27 2430.11,319.55 2430.11,305.4 C2430.11,293.46 2421.26,285.95 2398.72,280.64 L2362.02,272.24 C2315.15,261.19 2295.26,239.52 2295.26,208.57 C2295.26,167.01 2329.74,137.83 2388.11,137.83 C2427.9,137.83 2461.06,151.53 2480.51,173.65 L2451.77,208.57 C2432.32,191.77 2410.21,183.81 2386.77,183.81 C2361.57,183.81 2349.19,193.1 2349.19,206.81 C2349.19,217.42 2356.7,224.05 2380.58,229.35 L2419.49,238.64 C2466.79,249.25 2484.04,270.91 2484.04,301.86 C2484.04,346.52 2449.55,375.26 2389.87,375.26 C2345.22,375.26 2307.64,358.46 2287.3,332.37 Z M2723.59,272.68 L2556,272.68 C2561.75,308.94 2585.62,328.39 2622.32,328.39 C2647.52,328.39 2668.74,319.11 2685.1,300.09 L2717.38,331.93 C2696.16,359.34 2662.11,375.26 2620.55,375.26 C2548.92,375.26 2501.17,328.39 2501.17,257.65 C2501.17,187.79 2547.17,137.83 2615.25,137.83 C2680.68,137.83 2724.89,183.37 2724.89,251.9 C2724.88182,258.846727 2724.44767,265.786417 2723.59,272.68 L2723.59,272.68 Z M2556,236 L2671,236 C2668.35,202.83 2648,184.71 2615.74,184.71 C2582.55,184.7 2561.77,203.71 2556,236 Z"/>
</svg>
