<svg id="Layer_1" data-name="Layer 1" xmlns="http://www.w3.org/2000/svg" viewBox="0 0 790.67 267.03"><defs><style>.cls-1{fill:#010101}.cls-4{fill:#fdfdfd}.cls-5{fill:#ececec}</style></defs><path class="cls-1" d="M116.75 482.42c1.1-3.27 2.14-6.57 3.32-9.81 2.66-7.34 7.86-12.41 14.65-16a70.14 70.14 0 0 1 32.49-8.13 125.28 125.28 0 0 1 40 5.55v27.4c-2.58-.78-4.94-1.72-7.39-2.2a170.56 170.56 0 0 0-17.58-3 127.39 127.39 0 0 0-17.1 0c-2.15.1-4.72.64-6.24 2a9.06 9.06 0 0 0-3 6c-.06 3.08 2.63 4.94 5.41 5.72 6.09 1.71 12.37 2.79 18.38 4.7a196.26 196.26 0 0 1 22.76 8.38c8.06 3.72 12.13 11 14 19.44a41.16 41.16 0 0 1-2.78 26.4c-3.47 7.78-9.56 12.65-17 16.21-11.12 5.36-23 6.9-35.14 6.25-6.42-.34-12.82-1.23-19.64-1.91l-1.06-29c3.86.68 7.49 1.41 11.15 2 6.91 1 13.8 2 20.76-.12 3.31-1 5.42-3.25 5.7-6.15s-2.35-5.18-4.9-6.23a82.32 82.32 0 0 0-11.2-3.2c-5.84-1.48-11.78-2.62-17.54-4.36a76.34 76.34 0 0 1-12.43-5c-8.16-4.14-12.67-11.13-14.54-20-.28-1.32-.77-2.6-1.16-3.9q.08-5.59.08-11.04z" transform="translate(-116.75 -351.12)"/><path d="M385.67 351.12a16.76 16.76 0 0 0 2.61 1.9c8 3.75 16 7.37 24 11.16 3.93 1.87 8 3.62 11.55 6.1 7.24 5.05 15 9.37 21 16.13 3.66 4.13 3.85 7.35 0 11.35a88.75 88.75 0 0 1-20.65 15.38c-9.62 5.41-19.51 10.36-29.39 15.28-3.12 1.56-6.62 2.35-9.92 3.57-4.61 1.7-6.54.22-8.8-5-2.06-4.76-2.76-10.11-4-15.22-.59-2.43-1.15-4.87-1.53-7.34a28 28 0 0 1 .21-3.54c-.12-6.92-.6-13.85-.32-20.75.17-4.28 1.32-8.54 2.31-12.75.9-3.81 1.45-7.67 3.43-11.28 1.6-2.92 3.32-4.6 6.69-4.42a4.86 4.86 0 0 0 1.67-.57z" transform="translate(-116.75 -351.12)" fill="#329efa"/><path class="cls-1" d="M284.64 570.24v47.91H242.9v-138h-14.51v-29.23c.73-.06 1.38-.16 2-.16h35a2.81 2.81 0 0 1 3.13 1.94c2.15 4.82 4.63 9.5 7.23 14.72 1.34-1.65 2.27-3.33 3.66-4.4 4.34-3.35 8.61-6.92 13.37-9.56a42.64 42.64 0 0 1 20.91-5c11.07.07 21.85 2.1 31.11 9.35 5.21 4.07 8.65 9.31 11.5 14.87a47 47 0 0 1 4.56 14.32c1.28 8.77 2.47 17.69 2.26 26.52-.4 16.87-5.54 32.15-18.43 44-6.44 5.9-14.19 9.25-22.5 11.5a74.83 74.83 0 0 1-23.28 2.17c-4.65-.19-9.29-.62-14.27-.95zm0-25.87c5.72 0 11.06.28 16.37-.06 8.5-.54 14.89-4.43 17.51-13a54 54 0 0 0 2.55-11.56c.72-9.38.94-18.78-2-28-4-12.41-14.4-14-22.82-11.64-6.77 1.87-11.32 8.57-11.46 16-.15 7.83-.09 15.66-.11 23.5s-.01 15.91-.01 24.76zM470.92 480.1h-14.54v-29.39h30.72c8.86 0 8.84 0 12 8.22 1 2.67 2.24 5.27 3.75 8.81a38.3 38.3 0 0 0 2.5-3.22c2.7-4.46 7.18-6.8 11.32-9.5 5.51-3.59 11.82-4.85 18.19-5.87a57.71 57.71 0 0 1 21.73.61c15.08 3.34 24.72 12.33 27.81 27.69a52.88 52.88 0 0 1 .81 10.2q.12 40 .07 80c0 .55-.08 1.1-.14 1.74h-41.39v-3.07-70.51c0-6.65-3.52-12.86-8.28-14.59-7-2.53-14.48-1.21-18.31 3.58a22.69 22.69 0 0 0-4.74 14.49c-.06 22.26 0 44.52 0 66.78v3.28h-41.5V480.1zM726.13 522.4a25.42 25.42 0 0 0 5.11 11.71 22.13 22.13 0 0 0 10.17 7.13c2.82 1.08 6.06 1.09 9.11 1.55 1.54.23 3.27.93 4.6.48 3.37-1.15 6.75.37 10.09-.6 5.72-1.66 11.64-2.74 17.24-4.7 4.6-1.61 8.88-4.16 13.8-6.54-.13 2.33-.28 4.26-.32 6.19 0 1.37.14 2.75.13 4.13 0 .91-.21 1.81-.25 2.72-.1 2 0 4-.26 6-.27 2.3-.39 4.75-1.33 6.79-.64 1.37-2.46 2.39-4 3.14a111 111 0 0 1-22.86 8.69c-9 2.2-18.09 2.54-27.25 2.09-11.64-.56-22.66-3.23-32.67-9.55-7.59-4.79-12.9-11.51-17.16-19.18-3.86-7-5.51-14.57-6.5-22.39a86.74 86.74 0 0 1 1.8-29.66A52.88 52.88 0 0 1 697 467.95c4.94-6 11.1-10.21 18-13.75s14-4.81 21.31-5.87c5-.74 10.32-.2 15.42.45a115.77 115.77 0 0 1 17 3.5c3.08.87 5.85 2.89 8.69 4.51A49.43 49.43 0 0 1 790.9 468a41.72 41.72 0 0 1 8.1 15.86 80.89 80.89 0 0 1 2.47 21.47 20.1 20.1 0 0 1-4.73 13.54 6.76 6.76 0 0 1-3.2 2.42 44.15 44.15 0 0 1-9 1.07c-18.91.09-37.83 0-56.74 0zm-1.08-20.4h33.38c1.79 0 2.2-1 2.31-2.54a28.53 28.53 0 0 0-2.8-14.91c-5.53-11.13-20.78-12.81-27.51-3-4.15 6.1-5.06 13.09-5.38 20.45z" transform="translate(-116.75 -351.12)"/><path d="M812.29 450.33l18.89-.14.47-.44v-27.78l42-9.37v37.14l.5.46h26.2v28.65h-26.57c-.07.93-.18 1.65-.18 2.37 0 16.52-.26 33.05.11 49.57.16 7.32 3.44 10.6 10.36 10.78 6.17.16 11.83-2.07 17.52-4 1.27-.44 2.21-1.72 3.4-2.48 1.75-1.12 2.5-.21 2.44 1.53-.2 5.32-.48 10.64-.74 16a63.64 63.64 0 0 0-.33 6.53 3.48 3.48 0 0 1-2 3.59 51.27 51.27 0 0 1-20.3 6.87c-6.7.84-13.35 2.36-20.19 1.58a44.48 44.48 0 0 1-20.13-7c-4.69-3.1-6.55-7.9-9.35-12.06-1.62-2.42-1.58-6-2-9.17s-.49-6.29-.71-9.44v-53.97l-.47-.47h-19V450.9z" transform="translate(-116.75 -351.12)"/><path d="M614.45 430.19c-2.38-.06-4.76-.13-7.14-.16s-4.55 0-7 0v-28.85h56.1c.06 1.31.17 2.53.17 3.75v131.29c-.15 8.62 3.71 9.59 11.15 7.27a28.08 28.08 0 0 0 3.9-1.81v19.87a4.33 4.33 0 0 1-2.79 4.08c-8.84 4.37-18.12 5.8-27.84 5.69-6.7-.08-12.91-1.6-17.95-5.91a19.43 19.43 0 0 1-5.54-8.35c-1.56-4.78-2.14-9.9-3-14.9-.2-1.23.44-2.56.44-3.85V433.98c0-1.05-.05-2.1-.08-3.15z" transform="translate(-116.75 -351.12)" fill="#020202"/><path d="M446.3 542.21a2.08 2.08 0 0 1 .13.82c-.36 6.73-.71 13.46-1.21 20.18 0 .63-1 1.35-1.73 1.75-9.35 5.32-19.54 7-30.08 6.14a39.08 39.08 0 0 1-13.23-3.1c-4.48-2.09-7.38-6.42-9.26-11.06-2.31-5.7-1.9-11.81-1.92-17.79-.07-18.91 0-37.82 0-56.73v-3.32h-14.59v-28.75h56.06V534.28A41.51 41.51 0 0 0 431 540c.42 3 2.1 4.77 5.08 4.44a96.13 96.13 0 0 0 10.22-2.23z" transform="translate(-116.75 -351.12)"/><path class="cls-4" d="M831.66 527.72v5.73c-2.34-1.9-2.34-4.77 0-5.73z" transform="translate(-116.75 -351.12)"/><path class="cls-5" d="M812.29 450.33l-.15.57-.64-.38zM831.64 449.74l-.47.44z" transform="translate(-116.75 -351.12)"/><path class="cls-4" d="M831.19 479.08l.47.47z" transform="translate(-116.75 -351.12)"/><path class="cls-5" d="M614.45 430.19l.46.63z" transform="translate(-116.75 -351.12)"/><path d="M874.19 450.2l-.5-.46z" transform="translate(-116.75 -351.12)" fill="#dfdfdf"/><path class="cls-4" d="M284.67 544.37v-24.68c0-7.92 0-15.67.11-23.5.14-7.43 4.69-14.13 11.46-16 8.42-2.33 18.78-.77 22.82 11.64 3 9.17 2.76 18.57 2 28a54 54 0 0 1-2.55 11.56c-2.62 8.53-9 12.42-17.51 13-5.26.26-10.61-.02-16.33-.02zM725.05 502c.31-7.4 1.22-14.39 5.38-20.46 6.73-9.83 22-8.15 27.51 3a28.53 28.53 0 0 1 2.8 14.91c-.11 1.53-.51 2.55-2.31 2.54h-31.19z" transform="translate(-116.75 -351.12)"/></svg>