<svg xmlns="http://www.w3.org/2000/svg" width="400" height="173" viewBox="0 0 400 172.147" fill-rule="evenodd"><path d="M78.945 1.542c.06.1-.092.258-.34.352-.586.223-2.616.223-2.754 0-.058-.095-.222-.172-.365-.172s-.206.083-.14.19c.193.313-.294.492-1.347.495-.673.002-.993-.066-1-.213-.006-.118-.08-.04-.167.173-.134.333-.282.387-1.073.387-.505 0-1.006.087-1.112.194s-.53.206-.94.22-.914.122-1.12.237c-.454.254-1.2.275-1.345.038-.17-.277-.395-.2-.37.13.02.23-.13.314-.62.355-.44.036-.65-.018-.657-.172-.006-.125-.08-.052-.167.16-.118.293-.295.388-.73.388-.316 0-.656.08-.755.18s-.367.202-.594.227-.596.145-.82.266-.588.185-.81.143c-.25-.048-.44.018-.5.175-.065.168-.265.227-.605.177s-.54.01-.603.172-.266.222-.597.173c-.38-.055-.523.003-.585.24-.045.172-.224.314-.4.316-.365.003-1.545.392-1.72.568-.064.065-.294.118-.51.118s-.44.077-.498.172-.263.172-.453.172a.99.99 0 0 0-.606.26c-.143.143-.336.213-.43.155s-.3.007-.46.143c-.41.347-1.357.7-1.554.58-.1-.056-.21.014-.263.156s-.256.257-.448.257-.35.077-.35.172-.097.173-.215.174c-.2.002-3.52 1.635-4.827 2.382-.358.204-.757.37-.886.37s-.28.122-.338.27-.186.217-.288.155-.276.001-.388.143-.553.443-.98.668l-1.55.918-2.08 1.226c-.245.13-.584.387-.754.574-.235.26-.382.3-.626.17-.25-.133-.3-.116-.225.074.082.215-.88 1.14-1.186 1.14-.057 0-.316.197-.575.437s-.573.398-.697.35-.227-.002-.227.103c0 .266-.827 1.004-1.124 1.004-.136 0-.568.35-.96.775s-.818.775-.944.775-.6.397-1.054.882-1.135 1.097-1.514 1.36c-.695.48-6.877 6.616-7.443 7.387-.168.228-.697.848-1.175 1.377s-1.172 1.37-1.542 1.866-.734.904-.8.904-.136.097-.137.216-.202.447-.45.73a11.36 11.36 0 0 0-.837 1.122c-.213.333-.514.71-.67.84s-.282.33-.282.445-.158.354-.352.53-.474.575-.623.888-.338.568-.422.568-.153.1-.153.2-.193.453-.43.764-.43.647-.43.748-.063.183-.14.183-.27.252-.432.56a22.9 22.9 0 0 1-.661 1.162c-.564.92-1.235 2.152-2.205 4.047L9.5 49.59c-.44.82-.536 1.054-.536 1.29 0 .143-.078.26-.172.26s-.172.14-.172.3-.093.402-.205.515-.22.302-.237.42-.205.605-.415 1.078l-.538 1.25-.317.775c-.088.213-.2.56-.27.774s-.186.388-.28.388-.128.14-.074.3-.015.462-.155.646-.256.505-.26.713-.083.425-.178.483-.172.29-.172.517-.077.458-.172.516-.172.28-.172.49-.114.544-.252.742-.2.403-.157.456c.167.166-.12.8-.362.8-.148 0-.197.127-.137.357.052.197.01.642-.094 1a17.47 17.47 0 0 0-.283 1.101c-.053.257-.192.444-.3.415s-.155-.02-.084.02.13.327.13.64c0 .58-.348 1.054-.603.824-.078-.07-.072-.012.01.13.272.46.27 1.06-.002 1.475-.147.224-.267.76-.267 1.193 0 .496-.085.82-.23.875-.166.063-.207.348-.15 1.038.07.855.043.96-.283 1.045-.3.075-.33.157-.195.41.297.553.204 1.86-.154 2.165-.263.225-.296.4-.18.902.175.774.02 2.46-.247 2.693-.218.2-.298 16.646-.08 16.512.31-.19.5 2.035.232 2.847-.08.25-.064.36.044.295.498-.308.644.608.312 1.956-.058.237-.06.334-.004.215.176-.37.386-.237.508.32.07.316.04.61-.072.723-.104.104-.18.503-.166.887.014.417.054.537.1.3.062-.322.123-.36.32-.194.307.254.33 1.647.03 1.77-.128.053-.05.14.192.212.365.1.398.198.322.872-.063.558-.025.75.15.75.33 0 .506.845.26 1.24-.174.28-.16.32.104.276.225-.038.323.076.363.42.03.26-.028.473-.13.473s-.175.213-.164.474c.013.31.048.365.1.163.133-.516.482-.22.482.41 0 .323.095.666.212.76.283.23.39.98.175 1.25-.122.153-.094.215.097.215.273 0 .577.632.392.817-.056.056.024.24.178.412s.24.462.192.648c-.052.2.01.377.15.43.132.05.24.283.24.518s.078.473.173.532.172.247.172.42a.8.8 0 0 0 .266.534c.146.122.227.323.18.447s.008.287.123.36c.274.176.69 1.375.552 1.596-.06.096.023.174.18.174.213 0 .268.1.21.417s.008.44.26.506c.213.056.303.184.242.344-.054.14.02.3.17.356.166.064.233.232.177.445-.05.188-.025.342.054.342.142 0 .685.965.685 1.216 0 .07.272.61.603 1.195s.603 1.175.603 1.308.077.242.172.242.172.146.172.326.124.373.276.432c.162.062.234.215.175.37-.057.15.01.306.155.36.14.054.255.245.255.424s.077.326.172.326.172.076.172.17.272.593.603 1.11.603 1.023.603 1.123.058.18.13.18.235.238.364.53.42.728.645.972.4.54.4.66.07.245.154.276.298.297.474.6c.66 1.097 1.323 2.053 1.464 2.108.08.032.147.16.147.287s.065.256.146.287.445.484.81 1.005.92 1.216 1.23 1.544.567.67.567.756.3.494.69.905.69.886.69 1.055.17.384.38.477.79.705 1.288 1.358 1.98 2.242 3.288 3.53c1.614 1.588 2.36 2.44 2.315 2.643-.036.166.018.302.12.302s.186-.097.188-.216c.001-.143.058-.13.17.043.092.142.168.2.17.15s.3.172.664.516.964.87 1.334 1.167 1 .828 1.4 1.18a24.11 24.11 0 0 0 1.722 1.332c.547.38 1.02.76 1.05.844s.16.15.283.15.27.116.325.26.218.258.363.258.264.064.264.143.213.252.473.386.826.476 1.256.76c.906.6 1.435.914 2.113 1.257.27.135.447.343.4.465-.057.15.027.19.265.13.192-.05.4-.01.46.087.108.173 1.42.964 2.565 1.545.308.156.56.384.56.505 0 .132.11.178.275.115.152-.058.326-.036.388.05s.42.308.8.497.728.386.775.44.396.24.775.415l2.05.982c.748.364 1.465.662 1.592.662s.232.078.232.172.158.173.35.173.392.11.444.246.224.247.382.247c.416 0 1.58.43 1.58.582 0 .07.194.13.43.13s.43.077.43.172.196.172.436.172.48.117.535.26.312.258.587.258c.27 0 .536.077.595.172s.29.172.516.172.458.078.517.172.334.173.613.173.506.077.506.172.223.172.495.172.592.116.7.258.476.26.796.26c.376 0 .582.083.582.234 0 .16.142.207.443.15a1.5 1.5 0 0 1 .818.104c.206.103.607.2.89.237.37.036.5.135.493.35-.028.355.013.365.43.104.4-.25 1.23-.053 1.23.293 0 .2.07.224.354.07.456-.244 1.424-.046 1.304.266-.07.18.113.208.845.133.763-.08.953-.045 1.04.184.085.22.25.26.77.176 1.1-.176 2.195.3 1.153.502-.244.047-.153.084.248.098.35.013.69-.063.754-.17.076-.122.4-.154.886-.087.947.13 1.2.268.885.485-.153.106.003.125.455.055 1.566-.243 3.327-.11 3.114.233-.047.077 1.066.11 2.473.077 2.065-.05 2.607-.015 2.808.186s.94.253 3.762.265c2.18.01 3.42-.045 3.27-.143-.4-.26 1.568-.422 3.718-.306 1.642.088 1.962.063 2.088-.162.175-.313 1.593-.397 2.77-.163.542.107.725.096.64-.04-.148-.24.42-.552 1-.552.41 0 .442-.057.442-.774 0-.427-.07-.775-.155-.775s-.2-.368-.254-.818c-.265-2.21-.324-2.552-.468-2.704-.086-.1-.156-.453-.156-.807s-.077-.692-.172-.75-.172-.48-.172-.94c0-.58-.078-.862-.26-.93s-.258-.344-.258-.87c0-.424-.077-.818-.172-.877s-.172-.483-.172-.943c0-.468-.086-.865-.195-.9s-.213-.4-.237-.832c-.058-1.048-.397-2.477-.604-2.547-.093-.032-.17-.434-.17-.894s-.077-.884-.172-.943-.172-.446-.172-.86-.067-.796-.15-.847-.19-.498-.236-.993-.16-.924-.246-.953-.126-.336-.086-.682c.05-.43-.01-.7-.186-.82-.143-.104-.306-.537-.362-.96-.253-1.93-.33-2.33-.474-2.484-.085-.1-.154-.492-.154-.894s-.078-.778-.172-.836-.172-.406-.172-.773-.117-.782-.26-.925c-.153-.153-.258-.574-.258-1.035 0-.427-.078-.825-.172-.883s-.172-.45-.172-.87-.078-.765-.173-.765-.172-.426-.172-.947-.077-.947-.172-.947-.172-.35-.172-.775c0-.574-.067-.775-.26-.775-.2 0-.258-.23-.258-1.043 0-.652-.064-1.004-.172-.937s-.172-.223-.172-.75c0-.472-.073-.883-.163-.915s-.18-.464-.203-.96-.104-.904-.182-.904-.14-.295-.14-.656-.114-.806-.253-1-.255-.698-.258-1.142-.083-.856-.178-.914-.172-.562-.172-1.12-.077-1.06-.172-1.12-.172-.566-.172-1.13-.07-1.023-.153-1.023-.184-.556-.223-1.236c-.042-.758-.15-1.264-.277-1.306s-.208-.446-.208-1.088c0-.565-.077-1.02-.172-1.02s-.173-.485-.173-1.11c0-.6-.077-1.157-.172-1.216s-.172-.562-.172-1.12-.077-1.06-.172-1.12-.172-.522-.172-1.03c0-1.026-.13-1.515-.363-1.37-.085.053-.154-.448-.154-1.12 0-.695-.074-1.215-.172-1.215s-.172-.456-.172-1.023-.078-1.07-.173-1.13-.172-.6-.172-1.2-.077-1.12-.172-1.152-.182-.5-.194-1.038c-.015-.654-.1-1-.26-1.07-.17-.064-.236-.435-.236-1.3 0-.692-.073-1.21-.172-1.21s-.172-.46-.172-1.033-.077-1.033-.172-1.033-.172-.476-.172-1.085c0-.596-.073-1.158-.163-1.248s-.18-.617-.202-1.17c-.026-.646-.122-1.038-.268-1.094-.3-.12-.29-1.048.03-1.367a1.08 1.08 0 0 0 .258-.666c0-.225.078-.456.172-.515s.173-.257.173-.44.082-.335.182-.335.143-.063.095-.14.025-.358.162-.623.25-.626.25-.805.117-.325.26-.325.258-.153.258-.344.077-.345.172-.345.172-.193.172-.43.078-.43.172-.43.173-.155.173-.345.077-.344.172-.344.172-.194.172-.43.078-.43.172-.43.172-.107.172-.237.117-.334.26-.452a.8.8 0 0 0 .258-.538c0-.177.077-.323.172-.323s.172-.155.172-.344.078-.345.173-.345.172-.185.172-.412.116-.456.258-.51.258-.218.258-.363.078-.263.173-.263.172-.155.172-.345.058-.345.13-.346c.155-.001.56-.835.56-1.152 0-.123.06-.224.13-.225.173-.001.73-.997.73-1.304 0-.134.078-.244.173-.244s.172-.155.172-.345.077-.344.172-.344.172-.138.172-.306.158-.442.352-.608.305-.376.248-.468-.036-.168.047-.168.256-.27.386-.603.3-.602.377-.602.14-.155.14-.345.07-.344.153-.344.203-.194.262-.43.184-.43.277-.43.17-.155.17-.344.058-.345.13-.345.24-.252.377-.56.348-.662.472-.788.226-.338.226-.473.078-.246.172-.246.173-.155.173-.344.077-.345.172-.345.172-.155.172-.344.06-.345.13-.345c.135 0 .217-.13.816-1.305.19-.37.403-.7.474-.732s.13-.206.13-.388.077-.33.172-.33.172-.116.172-.258.078-.258.172-.258.172-.107.172-.237.117-.334.26-.452a.8.8 0 0 0 .258-.538c0-.177.078-.323.172-.323s.172-.155.172-.344.078-.345.173-.345.172-.155.172-.344.077-.344.172-.344.172-.108.172-.24.116-.285.258-.34.26-.203.26-.33c0-.32.403-1.156.56-1.157.07-.001.13-.123.13-.272s.096-.38.215-.51c.51-.57.645-.764.645-.933 0-.1.078-.18.173-.18s.172-.155.172-.344.077-.345.172-.345.172-.165.172-.367.144-.492.32-.646a1.74 1.74 0 0 0 .442-.665c.067-.214.195-.388.283-.388s.16-.155.16-.344.077-.345.172-.345.172-.155.172-.344.077-.344.172-.344.172-.1.172-.2.194-.453.43-.764.43-.686.43-.834.078-.27.173-.27.172-.155.172-.344.077-.344.172-.344.172-.117.172-.26.078-.258.173-.258.307-.3.47-.69.357-.69.43-.69.13-.155.13-.344.078-.344.173-.344.172-.12.172-.264.116-.308.258-.363.258-.208.258-.34c0-.225.318-.9.517-1.1.048-.047.203-.318.344-.602s.355-.58.474-.655.215-.288.215-.473.078-.336.172-.336.172-.155.172-.344.078-.345.173-.345.172-.116.172-.258.077-.258.172-.258.172-.147.172-.326.116-.37.26-.425.258-.218.258-.363.077-.264.172-.264.172-.148.172-.33.058-.356.13-.387.36-.503.64-1.048.557-1 .614-1 .2-.27.34-.603.3-.602.377-.602.14-.155.14-.345.074-.344.164-.344.293-.27.45-.603.355-.602.438-.602.153-.2.153-.44c0-.293.068-.4.2-.316s.167.033.1-.145c-.063-.162.097-.493.4-.834.277-.31.504-.667.504-.792s.078-.227.173-.227.172-.155.172-.345.077-.344.172-.344.172-.083.172-.184.194-.437.43-.748.43-.654.43-.763.078-.2.172-.2.172-.155.172-.345.078-.344.173-.344.172-.116.172-.258.076-.26.17-.26.217-.193.277-.43.177-.43.26-.43.154-.154.154-.344.072-.344.16-.344.26-.27.38-.603.27-.603.335-.603.163-.135.22-.3c.098-.293.212-.488.843-1.446.166-.252.3-.563.3-.692s.158-.332.35-.452.305-.294.248-.386-.02-.166.08-.166.182-.117.182-.26.078-.258.172-.258.173-.155.173-.344.077-.345.172-.345.172-.16.172-.354.066-.314.147-.264.294-.216.474-.6.384-.683.455-.684.13-.142.13-.314.155-.478.345-.68.344-.44.344-.528.116-.255.258-.373.26-.343.26-.5.155-.397.344-.533.344-.378.344-.536.117-.333.26-.387a.43.43 0 0 0 .258-.37c0-.15.155-.438.344-.64.45-.48.435-.65-.05-.65-.218 0-.47-.068-.56-.15-.303-.28-1.81-1.054-2.05-1.054-.13 0-.264-.06-.296-.13-.082-.187-1.85-1.075-2.14-1.075-.133 0-.243-.11-.243-.242 0-.157-.12-.2-.342-.153-.2.055-.38-.01-.44-.17-.058-.15-.233-.224-.414-.177-.172.046-.365-.002-.43-.105s-.257-.187-.43-.187-.412-.12-.534-.266-.32-.228-.44-.182-.31-.028-.424-.165-.374-.248-.58-.248-.448-.064-.538-.142-.512-.246-.94-.374-.866-.342-.978-.477-.287-.195-.39-.132c-.263.162-.87-.06-.87-.32 0-.143-.176-.19-.515-.142s-.546-.007-.61-.17-.266-.22-.584-.175c-.27.04-.542-.013-.606-.117s-.31-.188-.55-.188a1.99 1.99 0 0 1-.808-.208c-.206-.114-.57-.235-.806-.27s-.504-.134-.594-.223-.416-.16-.723-.16-.622-.097-.698-.215-.447-.216-.826-.216c-.55 0-.684-.06-.665-.3.026-.328-.197-.406-.368-.13-.147.237-.89.216-1.346-.038-.207-.115-.705-.222-1.107-.236s-.83-.11-.952-.21-.646-.207-1.164-.237c-.773-.043-.937-.107-.918-.354.014-.166-.045-.302-.13-.302s-.153.078-.153.172c0 .212-1.888.226-2.217.017-.13-.083-.184-.236-.12-.342s.005-.19-.14-.19-.306.077-.365.172c-.254.41-3.1.126-2.937-.294.08-.207-.067-.224-.895-.106-.544.078-1.61.126-2.367.106-1.85-.048-8.08-.05-9.9-.002-.805.02-1.877-.024-2.383-.1-.63-.094-.883-.08-.807.043m63.974 1.375c0 .184-.078.382-.173.44s-.172.257-.172.44-.077.335-.172.335-.172.155-.172.344-.078.344-.172.344-.173.194-.173.43-.07.43-.16.43c-.184 0-.7.973-.7 1.318 0 .128-.078.232-.173.232s-.172.155-.172.344-.077.345-.172.345-.172.185-.172.412-.116.457-.26.51-.258.218-.258.363-.062.264-.137.264-.236.27-.356.602-.3.603-.38.603-.16.147-.16.326-.116.37-.258.425-.26.202-.26.328c0 .32-.403 1.156-.56 1.158-.07.001-.13.118-.13.26s-.078.258-.172.258-.173.155-.173.344-.114.345-.258.345-.258.14-.258.3-.09.4-.202.512c-.148.148-.153.3-.016.61.24.53.026.88-.45.728-.343-.11-.46.036-.382.48.014.078-.054.094-.15.034s-.31.187-.478.547-.344.694-.396.74-.215.343-.363.657-.34.562-.423.55-.192.136-.24.33-.22.508-.387.7-.3.465-.3.606-.078.257-.173.257-.172.16-.172.354-.07.312-.153.26c-.173-.107-.708.63-.708.977 0 .125-.155.338-.344.475a.95.95 0 0 0-.345.685c0 .286-.207.616-.598.952-.33.283-.6.654-.603.824s-.198.503-.434.74-.43.543-.43.68-.077.25-.172.25-.172.117-.172.26-.078.258-.172.258-.173.102-.173.226-.136.376-.302.56c-.46.506-.903 1.242-.903 1.495 0 .125-.155.34-.344.475s-.345.35-.345.477-.193.408-.43.627-.43.483-.43.585c0 .192-.678 1.43-.866 1.583-.06.047-.253.338-.432.645s-.386.56-.46.56-.135.155-.135.344-.077.345-.172.345-.172.08-.172.18a.75.75 0 0 1-.176.388c-.833.987-1.03 1.28-1.03 1.542 0 .166-.078.3-.173.3s-.172.155-.172.345-.11.344-.247.344-.345.27-.465.603-.28.603-.356.603-.137.15-.137.334-.078.382-.172.44-.173.257-.173.44-.116.334-.258.334-.26.097-.262.215-.155.41-.34.646-.338.566-.34.732-.08.3-.176.3-.172.158-.172.35-.103.39-.23.438-.334.356-.463.683-.297.596-.374.596-.14.155-.14.344-.077.344-.172.344-.172.155-.172.345-.065.344-.145.344-.29.27-.47.603-.384.603-.457.603-.133.193-.133.43-.078.43-.173.43-.172.155-.172.345-.077.344-.172.344-.172.113-.172.25-.194.444-.43.68-.43.545-.43.686-.078.304-.172.362-.172.257-.172.44-.078.334-.173.334-.172.155-.172.345-.074.344-.164.344-.293.27-.45.603-.355.602-.44.602-.152.155-.152.345-.078.344-.172.344-.173.194-.173.43-.1.43-.226.43-.332.27-.462.603-.3.602-.377.602-.14.155-.14.345-.077.344-.172.344-.172.194-.172.43c0 .268-.098.43-.26.43-.143 0-.258.153-.258.345s-.062.344-.137.344-.236.27-.356.603-.3.602-.38.602-.16.147-.16.326-.116.37-.258.425-.26.257-.26.45-.077.35-.172.35-.172.116-.172.258-.077.26-.172.26-.172.155-.172.344-.078.344-.173.344-.172.155-.172.345-.115.344-.258.344c-.16 0-.258.163-.258.43 0 .236-.078.43-.172.43s-.173.12-.173.266-.155.43-.344.635-.344.5-.344.68-.117.312-.26.312-.258.153-.258.345-.078.344-.172.344-.172.194-.172.43-.063.43-.14.43-.247.27-.377.603-.296.602-.368.602-.268.29-.433.646-.347.684-.405.732-.207.338-.33.645-.286.56-.36.56-.182.194-.24.43-.184.43-.277.43-.17.155-.17.344-.077.345-.172.345-.172.158-.172.35-.145.507-.322.697-.467.632-.646.983-.382.664-.453.695-.13.206-.13.388-.077.33-.172.33-.172.16-.172.354-.078.307-.173.248-.172.086-.172.34c0 .525.425.748.882.462.175-.11.587-.2.914-.2s.643-.078.7-.172.446-.172.86-.172.802-.078.86-.173.406-.172.773-.172.782-.116.924-.258c.154-.153.574-.258 1.036-.258.427 0 .824-.078.883-.173s.45-.172.87-.172.765-.077.765-.172.426-.172.947-.172.947-.078.947-.172.382-.173.85-.173c.524 0 .947-.098 1.106-.258.144-.144.565-.258.95-.258s.738-.078.797-.172.49-.172.957-.172.85-.078.85-.173.422-.172.937-.172.985-.077 1.043-.172.49-.172.957-.172c.642 0 .85-.064.85-.26s.23-.258 1.023-.258c.563 0 1.07-.077 1.13-.172s.49-.172.957-.172.85-.078.85-.172.426-.173.947-.173.947-.063.947-.14.36-.158.8-.18 1.018-.154 1.283-.29.83-.25 1.255-.25.82-.077.88-.172.485-.172.947-.172.89-.077.948-.172.523-.172 1.033-.172.968-.068 1.02-.15.537-.187 1.078-.232 1.014-.17 1.05-.28c.04-.117.446-.198.988-.198.508 0 .97-.078 1.03-.172s.528-.173 1.044-.173.937-.077.937-.172.46-.172 1.033-.172 1.033-.077 1.033-.172.42-.172.935-.172c.6 0 1.027-.093 1.193-.26s.585-.258 1.13-.258c.48 0 .873-.07.873-.157s.446-.2.99-.253c2.4-.233 2.904-.304 3.228-.446.2-.083.692-.2 1.116-.24s.798-.17.832-.27.48-.184.994-.184.932-.07.932-.157.446-.2.99-.25c1.752-.168 2.707-.314 2.884-.442.094-.07.56-.145 1.033-.168s.983-.153 1.133-.288c.16-.143.635-.243 1.152-.243.484 0 .928-.078.987-.173s.49-.172.957-.172.85-.077.85-.172.426-.172.947-.172.947-.078.947-.172.378-.173.84-.173c.523 0 .917-.094 1.047-.25.12-.144.586-.272 1.097-.302.72-.04.9-.1.89-.36.001-.17.103-.37.227-.447.325-.2 1.063-.02 1.063.26s.275.318.43.066c.058-.094.49-.172.957-.172s.85-.068.85-.15.44-.187.98-.232 1.01-.17 1.048-.28.406-.198.826-.198.76-.077.76-.172.383-.172.85-.172.898-.078.957-.172.45-.173.87-.173.765-.077.765-.172.34-.172.753-.172c.46 0 .838-.1.97-.258.123-.15.498-.26.884-.26 1.033 0 1.336-.265 1.162-1.016-.08-.34-.146-.978-.148-1.416-.003-.494-.102-.88-.263-1.01s-.258-.51-.258-.97c0-.414-.077-.753-.172-.753s-.172-.306-.172-.68-.078-.726-.172-.785-.173-.368-.173-.69-.077-.63-.172-.688-.172-.33-.172-.6-.116-.6-.258-.752-.26-.492-.26-.777-.077-.567-.172-.626-.172-.368-.172-.688-.077-.63-.172-.69-.172-.287-.172-.507-.1-.613-.245-.872-.204-.578-.154-.707-.034-.283-.186-.342c-.166-.063-.276-.306-.276-.604 0-.274-.078-.498-.173-.498s-.172-.27-.172-.603-.077-.602-.172-.602-.172-.272-.172-.603-.07-.603-.16-.603-.21-.23-.27-.514-.185-.56-.272-.613-.16-.25-.16-.433-.078-.334-.172-.334-.172-.178-.172-.396-.064-.47-.143-.56-.248-.502-.378-.914-.336-.79-.46-.836-.225-.23-.225-.402-.077-.364-.172-.423-.172-.256-.172-.44-.06-.335-.135-.335-.237-.348-.363-.774c-.13-.437-.333-.775-.468-.775s-.24-.155-.24-.345-.078-.344-.173-.344-.172-.194-.172-.43-.077-.43-.172-.43-.172-.155-.172-.344-.076-.345-.17-.345-.218-.193-.277-.43-.177-.43-.262-.43-.153-.12-.153-.268-.062-.23-.137-.184-.148-.078-.163-.276-.09-.406-.165-.462-.248-.314-.382-.575-.348-.473-.474-.473-.23-.177-.23-.393-.155-.504-.344-.64-.345-.38-.345-.542-.193-.447-.43-.633-.43-.463-.43-.615-.077-.277-.172-.277-.172-.08-.172-.18-.2-.384-.42-.634-.382-.518-.334-.595-.034-.14-.182-.14-.268-.117-.268-.26-.078-.258-.173-.258-.172-.138-.172-.306-.155-.418-.344-.555-.344-.347-.344-.468-.117-.22-.26-.22-.258-.107-.258-.238-.504-.757-1.12-1.39-1.12-1.236-1.12-1.337-.348-.514-.774-.917-.775-.784-.775-.847c0-.147-.457-.608-.603-.608s-.603-.457-.603-.598c0-.156-.822-.95-.984-.95-.077 0-.288-.2-.47-.442-.535-.712-.9-1.108-1.026-1.108-.17 0-.962-.82-.962-.996 0-.083-.194-.255-.43-.382s-.43-.3-.43-.383-.073-.108-.162-.053c-.165.102-.872-.547-.872-.8 0-.077-.08-.14-.177-.14s-.443-.252-.766-.56c-.813-.774-1.085-1-1.25-1-.078 0-.253-.155-.39-.344s-.34-.345-.45-.345-.247-.116-.3-.258-.18-.258-.28-.258-.422-.233-.72-.517-.615-.516-.705-.516-.435-.27-.766-.603-.722-.603-.867-.603-.39-.14-.542-.313-.53-.46-.838-.64-.56-.387-.56-.46-.108-.135-.24-.135-.423-.193-.646-.428-.483-.43-.578-.434-.366-.158-.602-.344-.53-.338-.654-.34-.417-.198-.653-.435-.544-.43-.68-.43-.25-.077-.25-.172-.12-.172-.265-.172-.432-.155-.635-.345c-.495-.46-1.338-.467-1.338-.01m27.292 68.715c-.06.094-.49.172-.957.172s-.85.077-.85.172-.344.172-.765.172-.806.068-.858.15-.536.187-1.077.232-1.015.17-1.05.28-.406.198-.826.198-.76.078-.76.172-.383.172-.85.172-.898.078-.957.173-.446.172-.86.172-.796.067-.847.15-.46.19-.908.242-.845.177-.88.28-.47.19-.995.19c-.513 0-.933.077-.933.172s-.387.172-.86.172-.86.078-.86.172-.383.173-.85.173-.898.077-.957.172-.402.172-.764.172c-.374 0-.75.11-.872.258-.137.165-.518.258-1.054.258-.462 0-.84.078-.84.173s-.426.172-.947.172-.947.077-.947.172-.342.172-.76.172-.787.074-.818.163-.434.182-.894.206c-.496.025-.87.133-.922.267-.055.142-.392.225-.92.225-.458 0-.88.078-.94.172s-.49.173-.957.173-.85.077-.85.172-.387.172-.86.172-.86.077-.86.172-.3.175-.645.178-.84.117-1.077.253-.753.248-1.148.252-.743.08-.774.17-.465.18-.962.203-.904.103-.904.18-.35.142-.775.142-.775.077-.775.172-.39.172-.866.172c-.61 0-.895.076-.965.258s-.362.26-1.028.26c-.51 0-.93.077-.93.172s-.333.172-.74.172-.814.07-.904.156-.512.196-.94.245c-1.453.17-2.482.416-2.546.6-.038.112-.46.194-.998.194-.513 0-.933.078-.933.173s-.43.172-.957.172c-.594 0-.917.065-.85.172s-.224.172-.754.172c-.474 0-.91.078-.968.172s-.406.173-.772.173-.783.116-.925.258c-.154.154-.575.258-1.045.258-.433 0-.787.078-.787.172s-.383.172-.85.172-.9.078-.957.173-.483.172-.943.172-.863.07-.894.153-.403.192-.826.24-.798.173-.833.277-.467.19-.996.19c-.513 0-.932.077-.932.172s-.388.172-.86.172-.86.078-.86.172-.383.173-.85.173-.892.067-.943.15-.46.19-.91.24-.844.177-.88.28-.444.2-.9.2-.846.077-.846.172-.372.172-.827.172-.9.07-1 .155-.512.195-.938.243c-1.23.138-2.492.453-2.555.638-.03.093-.384.17-.783.17-1.498 0-1.653.197-1.655 2.1 0 .93.076 1.716.17 1.776s.172.673.172 1.366c0 .9.072 1.32.26 1.475.175.145.258.535.258 1.216 0 .55.078 1.05.172 1.108s.172.524.172 1.033.078.975.173 1.034.172.562.172 1.12.077 1.06.172 1.12.172.492.172.963c0 .602.077.885.258.955.186.07.26.36.26 1.028 0 .5.077.928.172.928s.172.455.172 1.02.073 1.045.163 1.076.18.465.203.962.094.904.16.904.157.395.204.88.163.93.26 1c.163.103.236.494.495 2.65.054.45.16.818.238.818s.18.406.227.904c.12 1.26.36 2.386.6 2.83.112.206.204.69.204 1.076s.078.7.172.7.173.383.173.85.077.898.172.957.172.45.172.87.077.765.172.765.163.058.152.13c-.086.543.066 1.44.28 1.654.16.16.258.584.258 1.12 0 .475.077.91.172.97s.172.528.172 1.043.078.937.173.937.172.344.172.765.077.812.172.87.172.48.172.936c0 .528.094.908.258 1.044.17.142.26.527.26 1.14 0 .5.077.926.172.926s.172.388.172.86.078.86.172.86.172.427.172.947.078.947.173.947.172.4.172.867c0 .61.076.895.258.965s.258.36.258 1.028c0 .51.078.93.173.93s.172.382.172.85.077.9.172.958.172.484.172.947.068.882.15.933.187.537.232 1.078.17 1.014.28 1.05.198.393.198.792.07.8.156.9.203.57.26 1.067c.258 2.294.317 2.626.463 2.626.085 0 .155.343.155.763 0 .448.107.87.26 1.02.167.168.258.595.258 1.218 0 .528.077.96.172.96s.172.383.172.85.078.9.172.957.173.528.173 1.044.077.937.172.937.172.354.172.787c0 .47.104.89.258 1.045s.26.572.26 1.01c0 .414.077.8.172.86s.172.474.172.923.072.9.16.98.185.43.215.753c.054.58.486.99.486.462 0-.295.687-.534 1.17-.408a.61.61 0 0 0 .538-.171c.154-.165.427-.22.8-.16.396.064.594.018.66-.154.05-.135.284-.245.516-.245s.66-.136.948-.3c.45-.257.58-.268.893-.074.202.126.32.154.264.063-.155-.25.364-.6.743-.502.194.05.373-.013.426-.152.05-.132.327-.24.614-.24s.522-.086.522-.19c0-.117.234-.164.603-.12.4.047.602-.001.602-.142 0-.116.175-.26.388-.32.416-.117 1.064-.378 1.547-.624.164-.084.417-.152.562-.152s.397-.073.562-.162c.91-.492 2.31-1.046 2.438-.966.082.05.194-.023.248-.165s.256-.257.45-.257.35-.077.35-.172.188-.172.417-.172.442-.058.473-.13.522-.353 1.09-.627l1.894-.94 1.247-.622c.212-.1.387-.238.387-.31s.157-.13.346-.13.344-.087.344-.193.152-.152.345-.102c.224.06.344.006.344-.152 0-.133.067-.242.148-.242s.436-.195.787-.433.71-.39.8-.334.208-.02.265-.17.185-.27.284-.27.428-.2.732-.42c.413-.315.6-.37.748-.224s.197.107.197-.162c0-.24.194-.452.578-.634.32-.15.677-.393.796-.536s.328-.262.463-.262.433-.203.663-.45c.25-.27.524-.4.68-.35.145.055.263.015.263-.09 0-.212.802-1.005 1.016-1.005.075 0 .36-.198.636-.44s.694-.548.93-.678.65-.474.92-.765.582-.528.697-.528.515-.318.89-.707a15.34 15.34 0 0 1 1.542-1.353c.473-.355 2.488-2.263 4.477-4.24s3.68-3.575 3.758-3.55.095-.03.037-.123c-.21-.343 2.005-2.7 2.346-2.496.176.106.173.07-.013-.16-.216-.266-.176-.37.36-.937.332-.35.788-.9 1.013-1.24a10.83 10.83 0 0 1 .802-1.031c.216-.236.392-.52.392-.632s.066-.228.146-.26.66-.832 1.288-1.78 1.247-1.844 1.374-1.994.283-.38.344-.516.304-.555.538-.934.53-.882.66-1.12c.454-.83.73-1.292.822-1.378.052-.047.323-.55.603-1.12s.567-1.06.638-1.09.13-.12.13-.2c0-.242 2.078-4.465 2.25-4.57.09-.054.16-.25.16-.433s.078-.334.172-.334.173-.228.173-.507.077-.554.172-.613.172-.256.172-.44.078-.334.172-.334.172-.15.172-.335.07-.376.153-.428.204-.367.266-.7.188-.605.278-.605.164-.232.164-.516.078-.517.173-.517.172-.156.172-.347a1.64 1.64 0 0 1 .158-.645c.086-.165.3-.764.452-1.332s.362-1.107.445-1.197.15-.38.15-.646.078-.482.172-.482.172-.267.172-.593.078-.64.173-.698.172-.38.172-.716c0-.458.083-.63.335-.696.27-.07.3-.145.147-.388-.225-.36-.047-1.214.253-1.214.147 0 .194-.26.152-.86-.038-.546.01-.86.13-.86.112 0 .19-.35.19-.854 0-.5.098-.946.23-1.07.152-.142.204-.482.153-1.008-.055-.57 0-.87.193-1.064s.24-.45.17-.883c-.126-.78.068-1.837.338-1.837.152 0 .192-.46.148-1.722-.046-1.356-.01-1.722.173-1.722.352 0 .34-14.808-.01-15.084-.19-.15-.22-.54-.143-1.85.08-1.324.052-1.662-.132-1.662-.335 0-.482-.906-.27-1.667.24-.863.24-.86-.16-.965-.233-.06-.344-.235-.344-.537 0-.47-1.204-.696-1.464-.274" fill="#43a3d4"/><path d="M219.544 89.798v31.08h7.748V93.502l28.842-.088.093-7.663h-28.935V65.95h30.995v-7.232h-38.743v31.08m48.385 0v31.08h8.093v-62.16h-8.093v31.08m22.465-30.866c-.045.12-.062 14.086-.038 31.038l.044 30.822 4.003.046 4.003.047.087-50.488.388.336c.213.185.387.466.387.625s.175.476.388.704c.645.7.818.924.818 1.112 0 .1.058.18.13.18s.23.23.355.5a3.38 3.38 0 0 0 .642.904c.23.217.418.49.42.6s.08.215.175.215.173.116.173.258.077.258.172.258.172.122.172.27c0 .31.402.763.676.763.102 0 .185.14.185.312s.147.47.326.66a4.74 4.74 0 0 1 .588.851 2.51 2.51 0 0 0 .621.753c.198.14.36.377.36.528s.14.424.3.607a2.46 2.46 0 0 1 .425.635c.063.166.195.302.293.302s.177.116.177.258.078.258.173.258.172.102.172.226.155.392.344.596.345.442.345.53.116.206.258.26.258.2.258.325.155.338.345.474.346.367.35.512c.007.34.407.866.66.866.108 0 .196.155.196.344s.077.344.172.344.172.117.172.26.068.258.152.258.247.232.365.516.32.517.45.517.238.116.238.258.077.26.172.26.172.137.172.306.155.418.344.555.345.375.345.53.193.428.43.606.43.46.43.626.077.304.172.304.172.098.172.217.194.363.43.54.43.45.43.606.155.393.344.53.345.386.345.555.077.306.172.306.172.116.172.258a.26.26 0 0 0 .258.259c.142 0 .26.126.26.28s.136.406.302.56a3.29 3.29 0 0 1 .56.795c.31.624.6.947.847.947.102 0 .185.177.185.393s.155.504.344.64.345.35.345.476.174.404.387.618a4.31 4.31 0 0 1 .63.85c.134.253.386.613.56.8s.317.424.317.525.116.23.258.284.258.207.258.34.078.24.172.24.173.138.173.306.155.42.344.555.346.328.347.426.23.436.5.752.56.74.623.94c.136.43.487.8.746.8.102 0 .185.14.185.312s.155.478.344.682.344.44.344.524.175.344.388.576.497.63.632.886.308.464.387.464.143.116.143.258.078.26.172.26.173.105.173.234.193.38.43.557.43.464.43.635.174.498.387.726c.646.7.818.924.818 1.112 0 .1.077.18.172.18s.172.078.172.174c0 .307.767 1.37 1 1.373.12.001.216.157.216.347s.077.344.172.344.172.116.172.258.06.26.13.26.233.232.36.516.338.517.472.517.244.155.244.344.078.344.173.344.172.117.172.26.064.258.143.258.25.213.384.474.455.686.716.947l.475.473h9.818v-62.16H335.6v24.968l-.087 24.968c-.16 0-.687-.61-.93-1.08a4.4 4.4 0 0 0-.56-.805c-.174-.187-.317-.46-.317-.606s-.116-.265-.258-.265a.26.26 0 0 1-.258-.259c0-.142-.078-.258-.172-.258s-.173-.12-.173-.266-.174-.453-.387-.68c-.646-.7-.818-.924-.818-1.112 0-.1-.065-.18-.145-.18s-.324-.348-.544-.774-.502-.775-.63-.775-.232-.155-.232-.345-.077-.344-.172-.344-.172-.116-.172-.258-.06-.26-.13-.26-.233-.232-.36-.516-.338-.517-.472-.517-.244-.155-.244-.344-.078-.344-.173-.344-.172-.1-.172-.22-.155-.332-.344-.468-.347-.367-.35-.512c-.007-.34-.407-.866-.66-.866-.108 0-.196-.14-.196-.312s-.147-.47-.326-.662-.444-.575-.59-.85-.423-.614-.62-.754-.36-.39-.36-.56-.077-.307-.172-.307-.172-.08-.172-.18c0-.188-.172-.422-.818-1.112-.213-.228-.387-.516-.387-.64s-.27-.534-.6-.912-.6-.766-.602-.864-.16-.29-.348-.425-.344-.358-.344-.492-.194-.423-.43-.643-.43-.518-.43-.665-.078-.266-.172-.266-.173-.117-.173-.26-.068-.258-.15-.258-.248-.233-.365-.517-.32-.516-.452-.516-.237-.116-.237-.258-.078-.26-.172-.26-.172-.138-.172-.306-.155-.418-.345-.555-.344-.344-.344-.46-.194-.407-.43-.643-.43-.55-.43-.697-.078-.266-.172-.266-.173-.116-.173-.258-.058-.26-.13-.26-.36-.347-.645-.77-.575-.772-.646-.775-.13-.13-.13-.285-.194-.46-.43-.68-.43-.502-.43-.628-.155-.34-.345-.477-.344-.34-.344-.453-.27-.485-.603-.826-.602-.757-.602-.924-.155-.415-.345-.552-.344-.35-.344-.476-.175-.4-.4-.608-.502-.6-.64-.868a4.87 4.87 0 0 0-.643-.912c-.216-.234-.393-.5-.393-.588s-.078-.164-.173-.164-.172-.116-.172-.258-.077-.258-.172-.258-.172-.122-.172-.27c0-.31-.402-.762-.677-.762-.1 0-.184-.14-.184-.312s-.155-.48-.344-.682-.345-.444-.345-.534-.27-.444-.602-.785-.603-.736-.603-.876-.078-.255-.172-.255-.173-.116-.173-.26-.077-.258-.172-.258-.172-.105-.172-.234-.194-.38-.43-.557-.43-.442-.43-.586-.27-.57-.6-.95-.6-.767-.603-.864-.158-.29-.348-.426-.346-.367-.35-.51c-.008-.34-.407-.866-.66-.866-.108 0-.196-.155-.196-.345s-.077-.344-.172-.344-.172-.116-.172-.258-.068-.26-.152-.26-.247-.232-.365-.516l-.214-.517h-5.15c-3.962 0-5.17.05-5.232.215m61.048 3.4v3.616h20.49v54.93h8.093V65.95H400v-7.232h-48.558v3.616" fill="#444"/><path d="M84.374 1.205c0 .095-.3.173-.69.173s-.69.072-.69.16.252.13.56.093c1.344-.164 3.806-.212 5.596-.108 1.066.06 1.937.054 1.937-.017s-.3-.13-.69-.13-.688-.078-.688-.173c0-.107-1.005-.172-2.67-.172s-2.67.065-2.67.172m-6.086.423c-.068.176-.444.268-1.267.3L75.85 2l1.15.034c1.21.035 2.13-.192 1.95-.483-.158-.255-.552-.21-.662.078M95.3 1.56c-.195.316.05.39 1.427.423 1.008.024 1.07.015.25-.037-.74-.047-1.115-.148-1.18-.32-.113-.295-.337-.325-.496-.067m-14.328.107c.166.044.437.044.603 0s.03-.078-.302-.078-.467.035-.3.078m11.537 0a1.39 1.39 0 0 0 .602 0c.166-.043.03-.078-.3-.078s-.467.035-.3.078M75 1.972c.076.198-.13.262-.996.31l-1.09.06 1.033.03c1.08.032 1.6-.137 1.4-.462-.174-.28-.448-.233-.336.06m23.73-.06c-.2.325.31.494 1.39.462l1.033-.03-1.09-.06c-.867-.05-1.072-.113-.996-.31.112-.292-.162-.34-.335-.06m-26.294.454c.074.193-.098.237-.834.215-1.28-.04-1.393-.024-1.272.173.06.095.012.172-.105.172s-.16.052-.096.115.3.026.503-.082.774-.22 1.246-.244c.79-.043 1.453-.592.714-.592-.144 0-.21.103-.156.243m28.888-.13c-.18.29.083.518.57.494.425-.022.43-.03.063-.1-.26-.05-.368-.163-.307-.32.107-.277-.162-.337-.326-.073m1.464.47c.237.042.504.148.594.235.263.253.61.183.502-.1-.07-.178-.32-.25-.813-.235-.47.016-.566.05-.283.1m-34.395.43c.024.118-.22.26-.56.322-.59.11-.59.112-.086.133.284.012.75-.132 1.033-.32l.517-.342-.474-.002c-.28 0-.456.084-.43.21m36.954.14c.235.197.634.33.947.316l.54-.022-.603-.112c-.34-.063-.584-.204-.56-.322s-.13-.207-.344-.204l-.388.006.407.338m-38.547.3c0 .113-.284.213-.646.23l-.645.027.58.07c.568.07 1.062-.175.828-.4-.065-.065-.118-.027-.118.083m40.336.03c.045.17.304.266.745.28.647.02.65.02.074-.057-.33-.043-.666-.17-.745-.28-.098-.137-.12-.12-.074.057m-41.886.217c0 .15-.135.3-.3.353-.282.074-.282.08.006.1.31.02.6-.423.403-.62-.06-.06-.108.016-.108.167m43.447.04c.024.234.173.354.464.373.36.024.368.015.052-.054-.207-.045-.416-.212-.464-.372-.062-.2-.077-.195-.052.053m-45.06.517c-.124.323.05.32.483-.006.328-.248.328-.252-.025-.252-.197 0-.403.116-.458.258m46.306-.006c.433.327.607.33.483.006-.055-.142-.26-.258-.458-.258-.353 0-.353.004-.025.252m-47.62.373c0 .225-.12.26-.602.183-.474-.077-.603-.04-.603.17 0 .218-.132.25-.684.16s-.666-.062-.59.137c.065.17-.056.27-.392.32l-.488.073.48.026c.264.014.52-.077.567-.202.055-.143.275-.2.595-.153.34.05.54-.01.605-.177.06-.157.248-.223.5-.175.436.083 1.13-.21 1.13-.48 0-.09-.116-.166-.26-.166s-.258.126-.258.28m48.994-.117c-.133.215.46.525 1.006.525.238 0 .484.085.55.188s.336.157.606.117c.303-.044.523.015.577.156.048.125.302.216.566.202l.48-.026-.487-.073c-.32-.048-.457-.153-.4-.304.05-.128-.022-.274-.158-.327s-.248-.02-.248.072-.202.167-.45.167c-.29 0-.42-.077-.365-.218.06-.16-.098-.2-.584-.154-.525.05-.668.004-.668-.213 0-.302-.264-.372-.425-.112M58.65 5.95c-.077.2-.23.254-.52.18s-.443-.02-.518.175c-.08.206-.24.25-.62.175-.385-.076-.514-.038-.514.152 0 .142-.157.254-.357.254s-.473.116-.615.258-.18.258-.084.258a.38.38 0 0 0 .281-.172c.058-.095.282-.172.498-.172s.445-.053.51-.118c.173-.173 1.354-.565 1.7-.568.297-.003.6-.445.425-.62-.048-.048-.135.04-.195.197m56.55-.065c-.006.316.57.576.866.393.102-.063.277-.004.39.132s.552.35.978.477.85.296.94.374c.29.253.472.15.205-.116-.142-.142-.42-.258-.615-.258s-.356-.103-.356-.23c0-.156-.165-.204-.517-.152-.4.058-.517.01-.517-.216 0-.233-.1-.27-.502-.18-.38.083-.546.034-.683-.202-.162-.278-.182-.28-.187-.022M54.456 7.57c-.174.28-.168.322.032.245.26-.1.513-.583.305-.583-.07 0-.22.152-.337.338m-.828.367c-.065.104-.302.153-.527.1-.27-.052-.41.002-.41.156 0 .13-.135.24-.3.248s-.218.048-.117.1c.224.093 1.386-.374 1.536-.618.06-.096.07-.174.022-.174s-.138.084-.202.188m66.712.027c.13.166.377.3.55.3s.36.078.42.172.237.164.397.153c.25-.018.247-.032-.023-.102-.186-.048-.275-.18-.22-.326.07-.187-.008-.22-.334-.138-.254.064-.55.012-.728-.127-.27-.212-.276-.206-.062.067m-68.5.53c0 .188-.143.287-.413.287-.226 0-.456.116-.51.258s-.024.258.068.258a.17.17 0 0 0 .167-.172c0-.095.157-.172.35-.172.348 0 .65-.434.446-.64-.06-.06-.107.022-.107.18m70.308.026a.42.42 0 0 0 .378.378c.248.026.262.01.052-.052a.63.63 0 0 1-.378-.377c-.063-.21-.077-.197-.052.05m-72.126.965c-.063.102-.262.148-.44.102-.205-.054-.325.004-.325.157 0 .145-.177.242-.44.242-.25 0-.395.075-.334.172s.01.172-.105.172-.172.04-.125.086c.094.095 2.2-.892 2.2-1.03 0-.162-.323-.09-.44.1m74.508.14c-.173.108-.095.207.3.382.294.13.534.295.534.367s.136.124.3.116.21-.05.096-.097-.166-.185-.12-.31c.06-.16-.037-.202-.338-.144-.292.056-.443-.003-.484-.2-.04-.18-.137-.222-.29-.125m1.468.308c.112.08.2.29.173.47s.06.355.172.395c.143.05.166-.07.077-.4-.07-.26-.24-.503-.375-.54-.175-.047-.188-.024-.047.077m-78.36.67c-.064.168-.026.247.1.205.258-.086.4-.478.173-.478-.093 0-.215.123-.273.273m-.69.35c-.067.175-.232.244-.45.187-.198-.052-.298-.02-.24.078.057.092-.06.2-.258.262s-.36.163-.36.247-.158.152-.35.152-.39.108-.442.24c-.053.14-.232.203-.425.153-.235-.062-.333 0-.333.21s-.098.273-.344.208c-.224-.058-.345-.005-.345.152 0 .134-.116.243-.258.243s-.258.077-.258.172-.147.172-.326.172-.373.12-.43.27-.18.22-.276.163-.365.1-.6.354c-.288.31-.54.432-.776.37-.202-.053-.304-.02-.244.077.116.188-.414.647-.757.656-.213.005-1.068.813-1.068 1.01 0 .052.213-.095.473-.326.436-.386.733-.58 1.68-1.1.19-.104.693-.417 1.12-.696l1.55-.918c.426-.225.867-.526.98-.668s.287-.206.388-.143.232-.007.288-.155.21-.27.337-.27c.536 0 2.273-1.103 2-1.27-.093-.057-.217.02-.275.173m79.89-.124c-.102.165.987.88 1.334.875.136-.001.125-.053-.032-.153-.13-.082-.194-.22-.142-.304s-.112-.152-.365-.148c-.28.003-.444-.08-.418-.2.05-.247-.233-.292-.377-.06m-89.05 5.613c-.178.237-.498.43-.713.43-.23 0-.39.105-.39.258 0 .454 1.034-.134 1.384-.787.248-.465.103-.414-.282.098m-1.447 1.11c0 .137-.15.192-.393.146-.294-.056-.394.004-.394.238 0 .39.078.388.613-.023.235-.18.37-.386.3-.456s-.127-.027-.127.095m-1.633 1.21c-.065.105-.266.144-.447.086-.23-.072-.33-.022-.33.166 0 .148.1.27.225.27.313 0 .918-.464.782-.6-.062-.06-.165-.025-.23.08m-1.9 1.562c-.06.098-.26.132-.44.074-.23-.073-.33-.022-.33.165 0 .376.402.337.774-.074.172-.2.266-.345.21-.345s-.152.08-.213.18m-1.783 1.355c-.443.464-.785.704-.83.58-.085-.232-1.257.848-1.257 1.16 0 .102.33-.043.732-.324.786-.547 2.31-2.042 2.185-2.145-.042-.034-.415.294-.83.73M28.5 23.823c-.392.43-.446.69-.07.332.22-.21.367-.416.325-.457s-.157.016-.256.125m-2.905 2.962l-2.167 2.28c0 .065 1.007-.888 2.238-2.116l2.24-2.28c0-.16-.37.18-2.3 2.116m-2.926 2.918c-.237.237-.478.43-.537.43-.208 0-.598.497-.598.763 0 .15-.078.27-.172.27s-.174.096-.175.215-.35.55-.775.96-.772.816-.772.902c0 .196-.46.763-1.076 1.33-.26.24-.474.52-.474.623 0 .26-.865 1.23-1.05 1.176-.085-.023-.154.112-.154.302s-.136.482-.302.65-.405.506-.533.75a5.09 5.09 0 0 1-.657.904c-.234.252-.4.592-.368.755.04.21.143.116.348-.315.16-.337.45-.756.643-.93s.352-.414.352-.53.127-.316.282-.445.456-.506.67-.84a11.36 11.36 0 0 1 .837-1.122c.248-.284.45-.613.45-.73s.062-.216.137-.216.44-.406.8-.904l1.542-1.875 1.113-1.29c.134-.176.44-.534.678-.794.543-.592.366-.627-.217-.043m-8.2 10.703c-.14.27-.34.567-.444.662-.273.245-.432.774-.234.774.09 0 .166-.082.166-.183s.2-.447.447-.77.418-.672.382-.78-.178.027-.317.296m-1.225 1.724c-.183.048-.252.193-.195.4.048.185.001.336-.105.336s-.192.082-.192.182c0 .296.327.007.608-.538.144-.278.24-.496.214-.485s-.174.053-.33.095m-1.482 2.754c-.118.048-.215.235-.215.417s-.078.33-.172.33-.173.082-.173.182c0 .298.305.02.58-.53l.226-.5c-.016.008-.127.053-.245.1m-1.55 2.765c-.118.042-.215.22-.215.397s-.077.367-.172.426-.172.257-.172.44c0 .188-.118.335-.27.335s-.22.078-.16.175c.17.273.363.066.843-.895.472-.95.48-.998.145-.878m-1.55 3.316c-.118.19-.215.46-.215.604s-.077.26-.172.26-.172.087-.172.193c0 .133.08.127.258-.02.142-.118.26-.354.26-.524s.09-.338.198-.375.166-.16.128-.274c-.044-.13-.148-.08-.284.136m-.647 1.556c-.06.096-.18.13-.268.076-.197-.12-.205.1-.016.4.102.16.195.1.338-.216.195-.427.16-.603-.054-.26m-.773 1.777c0 .157-.077.287-.172.287s-.172.193-.172.43c0 .248-.1.43-.235.43-.157 0-.207.14-.152.428s-.008.463-.196.535c-.153.06-.278.173-.278.255 0 .294.505-.053.607-.416.11-.4.307-.892.627-1.577.11-.237.15-.482.086-.545s-.115.014-.115.172m-1.248 3.07c-.166.174-.302.5-.302.747s-.097.43-.217.43c-.13 0-.216.224-.215.56.001.35-.077.544-.21.518-.148-.03-.178.12-.102.5.08.4.032.597-.187.757-.176.13-.225.26-.122.323.208.13.536-.43.536-.914 0-.2.077-.393.172-.452s.172-.29.172-.516.078-.458.172-.517.172-.26.172-.446.127-.534.282-.77c.344-.526.258-.65-.152-.22M4.65 61.693c0 .153-.135.358-.3.454-.275.16-.276.176-.012.18.29.005.608-.618.415-.81-.056-.056-.102.023-.102.176m-.496 1.304c-.015.414-.088.553-.256.488-.185-.07-.217.074-.15.67.074.657.042.763-.238.775-.178.007-.244.047-.147.087.26.11.093 1.45-.18 1.45-.243 0-.245.42-.004.64.082.073.098.046.036-.062s.004-.292.145-.41.256-.4.256-.653a4.04 4.04 0 0 1 .161-.969c.465-1.535.557-1.964.48-2.265-.05-.198-.092-.1-.104.248M3.12 67.633c-.01.217-.136.438-.278.492-.185.072-.258.362-.258 1.028 0 .71-.06.93-.258.93-.142 0-.26.083-.26.185 0 .686.61-.026.656-.768.03-.46.172-1.018.316-1.24s.226-.54.182-.7c-.063-.24-.085-.22-.1.083m-.852 3.783c-.02.523-.102.732-.287.732-.142 0-.258.078-.258.172 0 .262.515.206.62-.068.05-.132.062-.54.024-.904l-.07-.664-.03.732m169.466.472c.026.483.63.9.63.445 0-.102-.11-.185-.246-.185s-.283-.174-.33-.387c-.055-.262-.073-.22-.055.127M1.894 73.775c0 .53-.087.815-.28.924-.155.086-.248.255-.208.376.054.162.15.143.367-.075.27-.27.448-1.99.207-1.99-.047 0-.086.345-.086.766m170.153.18c-.04.57.17 1.12.423 1.12.312 0 .306-.28-.008-.402-.135-.05-.28-.312-.32-.578-.043-.285-.082-.342-.096-.14m.55 3.947c.022.628.454 1.146.454.544 0-.15-.072-.272-.16-.272s-.196-.213-.24-.474c-.05-.296-.07-.22-.054.202m-171.2-.03c-.01.166-.098.302-.193.302s-.172.116-.172.258.08.258.178.258c.237 0 .387-.422.287-.808-.074-.285-.082-.286-.1-.01m-.313 2.368c0 .52.032.734.07.474s.04-.687 0-.947-.07-.048-.07.473m171.873 6.285l.05 3.13v-6.37c-.028-1.722-.05-.264-.05 3.24M1.1 87.215l.052 2.895v-5.682c-.028-1.593-.052-.338-.052 2.787m172.326-2.84c0 .33.036.467.08.3s.043-.437 0-.603-.08-.03-.08.302m.004 3.53c.002.378.037.513.078.3a1.89 1.89 0 0 0-.003-.689c-.043-.164-.077.01-.075.4m-.88 6.414c.02.524.04.556.098.17.04-.262.144-.432.233-.377s.16-.022.16-.17-.116-.268-.258-.268c-.188 0-.25.175-.233.646m-171.458.97c-.066.173-.043.364.05.426s.216.228.27.37c.06.16.103.093.11-.173.016-.625-.27-1.04-.43-.623M172.1 97.69c-.06.317-.075.8-.034 1.076.05.34.083.237.1-.322s.1-.856.284-.923c.33-.126.336-.406.008-.406-.147 0-.295.236-.358.575M1.49 98.265c-.187.187-.128.404.096.357.118-.024.26.22.322.56l.112.603.023-.625c.02-.595-.312-1.135-.553-.895m170.485 1.47c-.192.24-.3.63-.27 1.074l.03.697.066-.732c.044-.492.147-.732.314-.732.137 0 .248-.155.248-.344 0-.428-.017-.427-.387.037m-170.143.735c-.055.142-.012.238.095.216s.25.152.32.39c.153.517.202.08.053-.473-.12-.446-.327-.504-.47-.132m169.602 1.566c-.058.15-.105.615-.105 1.033s-.077.76-.172.76-.172.122-.172.27c0 .24.028.242.258.012.155-.155.258-.576.258-1.05 0-.544.08-.823.258-.89.14-.054.214-.168.162-.253-.147-.238-.372-.183-.487.118m-169.197.36c0 .088.073.233.16.323s.192.473.23.852l.068.69.03-.797c.02-.527-.058-.87-.23-1.01-.142-.118-.26-.143-.26-.056m.345 2.304c0 .1.07.14.157.085s.197 0 .245.12c.053.13.093.097.1-.085.007-.165-.103-.3-.245-.3s-.258.082-.258.182m167.96 1.274c-.06.233-.066.524-.017.646s.095.013.103-.242.15-.544.315-.64c.283-.165.284-.176.003-.18-.175-.003-.342.17-.404.418m-167.615.266c0 .095.125.172.278.172.2 0 .26.125.203.508-.04.28-.01.468.067.42.166-.103.185-.614.036-1-.114-.297-.584-.378-.584-.1m167.313.976c-.064.063-.115.368-.115.678s-.078.612-.172.67-.173.373-.173.698-.077.593-.172.593-.172.122-.172.27c0 .24.03.24.258.012.142-.142.26-.54.26-.884 0-.372.07-.582.172-.518s.172-.195.172-.666c0-.59.07-.79.3-.85.242-.064.248-.083.03-.1-.15-.01-.324.032-.387.095m-166.804.4c-.2.133-.204.16.04.16.162.001.322.173.364.4.065.34.077.33.098-.076.027-.536-.146-.7-.5-.475m.352 1.355c0 .102.073.186.16.186s.196.213.24.474c.06.366.074.34.055-.116-.02-.515-.455-1.034-.455-.544m.345 1.36c0 .092.122.215.272.272.168.065.247.026.205-.1-.086-.258-.477-.4-.477-.173m165.073.664c-.198.198-.125.402.144.402a.26.26 0 0 0 .258-.259c0-.27-.203-.34-.402-.143m-.435 1.4c-.12.446-.29.945-.38 1.1a1.61 1.61 0 0 0-.161.645c0 .19-.078.347-.172.347s-.173.122-.173.27c0 .24.03.242.26.012.142-.142.258-.466.258-.72 0-.33.07-.435.246-.367.194.074.225-.03.15-.5-.077-.474-.04-.592.188-.592.24 0 .26-.668.03-.983-.015-.02-.125.33-.246.775m-164.08-.467c.166.097.302.3.302.454s.045.233.1.177c.193-.193-.125-.817-.414-.812-.265.005-.264.02.01.18m.24 1.1c-.06.158-.005.263.14.263.133 0 .276.135.32.3.063.24.083.226.1-.065.026-.48-.413-.874-.557-.5m.405 1.036c0 .062.125.237.277.39.254.255.272.25.215-.04s-.492-.602-.492-.348m.344 1.035c0 .142.126.258.28.258.228 0 .24-.047.065-.258-.118-.142-.244-.26-.28-.26s-.065.117-.065.26m.345.834c0 .157.11.285.244.285s.283.097.33.215c.05.124.093.136.1.027s-.142-.33-.33-.5c-.3-.28-.344-.283-.344-.027m161.355.404c-.007.207-.1.425-.184.484s-.173.257-.173.44-.077.335-.172.335-.172.15-.172.334-.077.382-.172.44-.172.224-.172.367c0 .232.028.232.258.002.142-.142.258-.418.258-.615s.078-.356.172-.356.173-.194.173-.43c0-.268.097-.43.258-.43.288 0 .302-.1.086-.603-.143-.332-.148-.33-.16.033m-160.84.575c0 .092.087.167.192.167.114 0 .162.203.12.5-.053.36-.01.474.152.412.134-.052.226.037.226.218 0 .168.042.264.094.212.15-.15-.328-1.5-.566-1.59-.12-.046-.217-.01-.217.083m1.25 2.686c.222.066.274.2.196.51-.085.337-.05.4.172.313.192-.073.282-.008.29.214s.042.248.1.076c.053-.134-.012-.328-.143-.43a.66.66 0 0 1-.239-.444c0-.14-.155-.272-.344-.29-.268-.028-.278-.016-.043.053m157.97.697c-.24.24-2.185 4.412-2.098 4.5.05.05.09.001.09-.1s.11-.2.242-.2c.157 0 .21-.12.152-.344-.06-.233-.005-.345.172-.345s.233-.11.173-.342c-.056-.213.01-.38.177-.445.147-.056.23-.202.182-.324s.036-.342.183-.5.268-.43.268-.625.078-.356.173-.356.172-.14.172-.3.093-.403.206-.517.166-.207.115-.207-.144.053-.208.117m-157.41.915c-.06.097.01.126.163.067.19-.073.267.005.267.273a1.03 1.03 0 0 0 .258.633c.334.334.33.084-.013-.6-.277-.556-.49-.673-.675-.372m.774 1.533c0 .084.125.202.278.26.176.068.245.232.188.45-.06.23-.004.342.173.342s.233.112.172.345c-.056.216-.005.344.138.344a.37.37 0 0 1 .315.215c.047.12.093.133.1.03.02-.283-1.024-2.14-1.205-2.14-.087 0-.16.07-.16.154m153.984 2.72c-.267.575-.15.744.14.198.117-.22.297-.46.4-.528.123-.082.1-.127-.068-.128-.142-.001-.355.205-.472.458m-.525 1.093c-.115.184-.208.432-.208.552s.118-.007.262-.282c.298-.572.26-.77-.054-.27m-.592.942c-.065.19-.312.654-.548 1.033-.803 1.3-.952 1.62-.685 1.518.13-.05.24-.238.24-.418s.068-.325.15-.325.248-.235.367-.52.33-.584.467-.66c.145-.082.225-.317.19-.556-.057-.384-.07-.39-.18-.07m-150.112.344c0 .142.126.258.28.258.228 0 .24-.047.065-.258-.118-.142-.244-.258-.28-.258s-.065.116-.065.258m.58.622c.06.13.157.374.215.54s.175.302.258.302.153.146.153.325.116.37.258.426.258.024.258-.068-.058-.168-.13-.17-.28-.315-.463-.7c-.3-.624-.813-1.24-.55-.657m1.254 2.167c.06.17.224.403.364.517s.2.327.154.474-.017.266.088.266c.27 0 .648.54.654.933.003.182.055.28.115.22.126-.127.752.62.752.897 0 .103.077.188.172.188s.172.108.172.24.116.284.26.34c.278.107.005-.43-.6-1.182-.153-.19-.384-.557-.514-.818s-.3-.473-.38-.473-.144-.105-.144-.233-.193-.443-.43-.698-.43-.533-.43-.618-.076-.2-.17-.258c-.1-.062-.126.02-.062.205m146.474-.004a2.33 2.33 0 0 1-.343.559c-.127.15-.745 1.047-1.374 1.994l-1.288 1.78c-.08.032-.146.158-.146.28s-.116.32-.258.438c-.38.316-.314.554.086.304.2-.118.345-.332.345-.475s.232-.53.516-.863.516-.688.516-.793.194-.337.43-.515.433-.44.436-.583c.007-.336.407-.864.654-.864.105 0 .145-.12.088-.266s.013-.36.154-.474c.258-.208.54-.81.38-.81-.047 0-.136.13-.196.288m-143.36 4.658c.062.164.292.463.51.666s.397.456.397.563.077.196.172.196.172.136.172.303.17.41.38.54l.38.237-.316-.497c-.51-.8-1.193-1.698-1.34-1.76-.075-.03-.136-.167-.136-.3s-.075-.244-.167-.244-.115.134-.052.297m139.1 1.458c-.183.3-.635.89-1.003 1.29s-.626.8-.57.89-.015.206-.157.26-.256.198-.254.32c.002.168.04.163.152-.016.09-.142.245-.183.385-.102.13.075.18.076.114.002s-.012-.244.122-.377.203-.346.155-.47c-.078-.204.347-.632 1.393-1.403.272-.2.28-.232.044-.15-.166.058-.302.026-.302-.07s.09-.206.198-.243.166-.16.127-.28-.22.04-.403.35m-136.986 1.15c0 .096.08.225.18.286s.132.26.075.44c-.063.2-.024.33.1.33.246 0 1.562 1.287 1.526 1.492-.057.323.025.575.187.575.368 0 .142-.558-.516-1.272-.38-.41-.69-.805-.69-.875s-.194-.36-.43-.64-.43-.433-.43-.336m134.198 2.323c-.995 1.17-1.102 1.336-.987 1.523.07.112.04.142-.072.073-.105-.064-.28.05-.39.258l-.2.375.537-.382c.295-.2.536-.454.536-.543s.136-.166.302-.174.21-.05.095-.097c-.264-.108-.1-.556.413-1.06.375-.375.48-.552.327-.552-.037 0-.29.26-.56.578m-131.797 1.097c.48.19 1.075.92.97 1.193-.073.19-.027.24.157.17.168-.065.264.004.27.196.005.163.254.5.553.726.588.466.525.297-.29-.774-.886-1.168-1.36-1.637-1.64-1.623-.222.012-.226.03-.02.112m126.943 4.12l-1.364 1.536c.083.083 2.773-2.604 2.857-2.855.096-.288-.01-.195-1.493 1.32m-123.232-.14c.188.222.497.483.688.58.365.187.312.13-.514-.556-.497-.413-.503-.414-.174-.025m2.864 2.948c.207.28.44.47.515.424.155-.095-.515-.934-.745-.934-.08 0 .023.23.23.5m117.498.007c-.272.284-.45.516-.394.516s.35-.232.653-.516.482-.517.395-.517-.38.232-.654.517m-116.656.646c-.003.245 1.188 1.42 1.44 1.42.09 0 .307.128.48.285.188.17.314.205.314.086 0-.11-.07-.2-.154-.2s-.51-.337-.947-.75-.794-.702-.795-.646-.078-.013-.17-.155c-.112-.172-.168-.187-.17-.042m115.28.58c-.38.283-1.08.898-1.555 1.366s-.954.85-1.062.85-.415.238-.683.528-.682.633-.92.76-.593.385-.79.573a4.76 4.76 0 0 1-.904.621c-.3.155-.542.376-.54.492.002.15.046.143.15-.023.1-.155.285-.19.557-.107.225.07.35.063.277-.013-.207-.218.755-1.1 1.197-1.1.22 0 .38-.058.358-.13-.063-.2.765-1.076 1.02-1.076.125 0 .227-.078.227-.172s.155-.172.344-.172.345-.087.345-.193c0-.265 1.36-1.604 1.493-1.47.096.096 1.262-1.004 1.262-1.2 0-.1-.03-.093-.775.464M31.176 150.94c.006.087.5.538 1.077 1 .617.487.81.596.456.258-1.128-1.08-1.542-1.42-1.533-1.26m3.092 2.502c.677.645 1.032.898 1.028.734-.003-.082-.332-.374-.732-.647-.593-.405-.648-.42-.296-.087m1.383.928c-.001.095.055.256.124.357.178.26.73.442.73.24 0-.092-.113-.167-.25-.167s-.33-.136-.425-.302-.177-.223-.18-.13m1.142 1.05c.05.133.206.242.345.242.3 0 .744.41.744.688 0 .118.138.152.345.086.23-.072.38-.02.45.16.057.15.25.27.43.27s.326.078.326.172.114.173.253.173c.157 0 .214.1.15.267-.08.212-.014.244.327.16.3-.073.46-.028.523.14.107.28.813.52.813.28 0-.086-.155-.156-.344-.156s-.345-.072-.345-.16-.213-.27-.473-.407a21.74 21.74 0 0 1-2.11-1.242c-1.25-.82-1.542-.956-1.433-.672m99.496.15c-.19.23-.47.424-.624.428s-.378.126-.498.27-.48.386-.802.54-.543.32-.492.37c.12.12.985-.328 1.228-.638.113-.144.28-.185.414-.102.15.092.183.072.102-.06-.073-.118-.012-.2.15-.2.15 0 .318-.116.373-.258s.174-.258.265-.258.282-.116.424-.26c.2-.198.206-.257.03-.256-.125.001-.382.19-.572.423m-4.046 2.603l-.43.24.474.002c.307.002.473-.088.473-.255 0-.143-.02-.25-.043-.242s-.236.125-.473.256m-90.46.34c.052.136.242.248.42.248s.326.078.326.172.105.173.233.173.443.193.698.43c.47.435.79.55.79.286 0-.08-.174-.232-.387-.338l-1.283-.707c-.563-.323-.86-.42-.8-.264m89.27.316c-.1.132-.43.335-.7.45s-.51.333-.51.482c0 .222.04.214.232-.047.128-.175.302-.28.388-.237s.386-.138.67-.404.428-.485.322-.485-.28.108-.4.24m-1.9 1.138c0 .094-.155.172-.344.172s-.346.058-.347.13-.39.32-.86.55c-.572.28-.802.48-.687.593s.254.06.417-.163c.134-.184.294-.285.355-.224s.31-.075.556-.302.556-.412.69-.412.36-.116.503-.258c.23-.23.228-.26-.012-.26-.15 0-.27.078-.27.173m-83.426.783c.284.145.606.382.715.526.14.182.235.203.32.067.066-.107.092-.208.06-.226l-.603-.333c-.3-.165-.648-.3-.775-.3s.001.12.285.266m80.5.758l-1.08.536c-.532.254-.75.44-.613.523.12.074.296.013.41-.144s.318-.23.483-.165c.184.07.284.02.284-.144 0-.15.163-.253.4-.253s.402-.103.402-.26c0-.142-.006-.253-.014-.248s-.13.075-.273.154m-78.273.514c0 .213.108.273.394.218s.393.006.393.215.094.26.332.185c.218-.07.39 0 .506.203.12.215.23.254.355.13s-.148-.34-.9-.712c-.925-.456-1.08-.49-1.08-.24m2.447 1.13c.054.142.284.258.51.258s.412.078.412.173.194.172.43.172c.268 0 .43.097.43.258 0 .142.08.258.178.258.12 0 .12-.11-.006-.344-.1-.19-.336-.344-.523-.344s-.338-.078-.338-.173-.15-.172-.334-.172-.382-.077-.44-.172c-.167-.27-.43-.2-.32.086m72.554-.098c0 .088-.168.185-.373.215s-.394.154-.418.275-.004.14.044.043.24-.177.43-.177.458-.116.6-.258c.23-.23.23-.258-.012-.258-.15 0-.27.072-.27.16m-2.034.883c-.433.192-.696.407-.63.515.073.12.19.08.33-.112.12-.163.324-.26.457-.212s.375-.058.54-.23c.372-.388.248-.38-.7.04m-68.005.34c.23.366.4.427.545.193.05-.08-.1-.234-.333-.34-.396-.18-.4-.17-.212.147m1.052.426c.142.142.42.258.615.258s.357.112.357.254c0 .2.13.228.517.15.404-.08.516-.043.516.176 0 .154.08.28.178.28.12 0 .12-.11-.006-.344a.71.71 0 0 0-.608-.345c-.234 0-.425-.077-.425-.172s-.194-.172-.43-.172-.43-.078-.43-.172-.122-.172-.27-.172c-.24 0-.242.028-.013.258m65.458-.086c-.06.094-.258.172-.443.172a1.9 1.9 0 0 0-.722.199c-.812.42-.992.5-1.287.502-.262.01-.257.032.04.16.51.22.603.202.603-.11 0-.224.12-.26.592-.184s.573.044.498-.15c-.064-.167.027-.246.28-.246a1.03 1.03 0 0 0 .633-.258c.142-.142.18-.258.084-.258s-.222.077-.28.172m-62.482 1.29c.055.142.217.258.36.258.212 0 .22-.048.047-.258-.118-.142-.28-.258-.36-.258s-.102.116-.047.258m1.053.2c.12.048.173.158.12.244s.18.158.516.158c.388 0 .613.082.613.224 0 .154.187.2.602.153.47-.055.603-.01.603.207 0 .152.128.277.285.277.256 0 .254-.035-.027-.345-.172-.2-.53-.344-.8-.344s-.5-.077-.5-.172-.228-.172-.506-.172-.555-.078-.613-.173-.2-.166-.312-.158c-.147.01-.143.038.01.1m57.2.047c0 .088-.246.185-.546.215s-.566.153-.6.273-.004.14.044.043.32-.176.602-.176.63-.116.773-.258c.23-.23.228-.26-.013-.26-.148 0-.27.073-.27.162m-2.22.76c-.107.13-.37.2-.588.16-.235-.045-.564.067-.817.277-.327.272-.358.353-.14.357a.44.44 0 0 0 .388-.266c.077-.2.263-.25.707-.19.425.057.603.014.603-.146 0-.126.174-.26.387-.302.37-.072.372-.076.02-.1-.2-.012-.454.082-.56.21m-51.333.54c0 .142.078.258.173.258s.172-.116.172-.258-.078-.258-.172-.258-.173.116-.173.258m1.316.344c.067.175.34.26.84.26.408 0 .78.08.83.176s.068.078.044-.043-.31-.244-.633-.275-.663-.127-.753-.215c-.252-.246-.44-.2-.33.098m45.834.32a.59.59 0 0 1-.521.152c-.473-.123-1.17.11-1.17.393 0 .14.077.256.172.256s.172-.127.172-.28c0-.237.134-.263.858-.167.71.095.84.07.76-.137-.067-.175.05-.273.39-.324l.487-.073-.467-.026c-.256-.014-.564.08-.683.207m-43.368.238c.233.044.52.207.64.364.2.263.217.263.222.002.006-.318-.355-.504-.913-.47-.33.02-.326.032.05.103m4.05 1.013c.153.154.322.236.374.184.153-.153-.11-.462-.392-.462-.225 0-.223.038.018.278m1.552.194c.377.038.74.16.808.267s.182.138.256.064c.227-.227-.34-.455-1.062-.427l-.69.026.687.07m2.025.335c.166.043.437.043.603 0s.03-.08-.302-.08-.467.036-.3.08m26.772.07c-.333.195-.25.5.138.5.14 0 .202-.104.148-.246-.068-.176.068-.266.48-.317.564-.07.565-.07.057-.093-.284-.012-.654.058-.822.155m-25.724.25c0 .16.098.228.243.173.134-.052.28-.094.326-.094s.034-.077-.024-.172c-.166-.268-.545-.203-.545.093m2.52.07c.33.084.626.237.66.34.075.224.664.248.798.03.124-.202-.19-.313-1.216-.43-.718-.08-.753-.072-.242.06m20.123-.04c-.56.086-.816.567-.3.567.192 0 .303-.074.248-.164s.19-.212.55-.272l.823-.168c.232-.078-.746-.05-1.32.037m-15.254.514c.45.04.818.145.818.234s.272.163.603.163c.588 0 .818-.23.387-.386-.118-.043-.757-.08-1.42-.08-.856-.001-.97.02-.388.07m9.17.035c-.43.094-.463.134-.202.238.457.18 1.32.152 1.32-.042 0-.09.717-.19 1.593-.222l1.592-.057-1.894-.015c-1.04-.01-2.126.035-2.4.098" fill="#51a9dd"/><path d="M81.536.5c-.06.1-.001.224.134.275.396.152 2.187.006 2.232-.182C83.958.367 81.68.278 81.536.5M90.153.5c-.15.242.357.362 1.54.362S93.38.74 93.23.5c-.124-.202-2.952-.202-3.077 0m5.85.35c-.14.226.406.5.793.4.523-.137.382-.56-.187-.56-.278 0-.55.072-.606.16m-16.71.355c-.067.108.3.172.98.17.765-.002 1-.052.828-.17-.34-.22-1.672-.22-1.808 0m13.69 0c0 .095.43.173.957.173.595 0 .917-.066.85-.173-.058-.094-.49-.172-.957-.172s-.85.078-.85.172m-17.3.34c-.07.11.147.178.578.178.897 0 1.06-.267.197-.318-.366-.02-.715.04-.775.14m21.434.006c.345.223 1.43.223 1.29 0-.058-.095-.43-.17-.828-.17-.53.002-.653.047-.463.17m-24.02.344c-.063.102.125.167.463.16.475-.01.513-.037.226-.16-.467-.2-.565-.2-.69 0m26.88.03c.115.187 1.1.187 1.1 0 0-.08-.268-.144-.595-.144s-.555.065-.506.144m-29.077.262c-.427.112-.194.398.323.398.237 0 .387-.07.334-.158s0-.196.118-.244c.268-.108-.36-.104-.775.004m31.613.155c0 .152.183.243.488.243.268 0 .488-.09.488-.2s-.047-.154-.104-.097-.277.038-.488-.042c-.285-.11-.384-.084-.384.097m-33.807.415c0 .095.194.172.43.172s.43-.077.43-.172-.193-.172-.43-.172-.43.077-.43.172m35.816.002c0 .202.63.23.752.035.046-.075-.104-.152-.334-.17s-.418.042-.418.136M67.24 3.1c-.06.095.057.173.258.173s.317-.078.258-.173-.175-.172-.258-.172-.2.078-.258.172m39.087 0a.47.47 0 0 0 .365.173c.142 0 .2-.078.152-.173s-.223-.172-.365-.172-.21.078-.152.172m-42.163.776c-.06.157 0 .258.154.258.278 0 .342-.27.1-.42-.085-.052-.2.02-.253.162m45.46-.14c-.194.194-.118.398.148.398.142 0 .258-.073.258-.162 0-.218-.27-.373-.406-.236M61.3 4.65c0 .095.116.172.258.172s.26-.077.26-.172-.117-.172-.26-.172-.258.077-.258.172m53.49.636c-.194.194-.118.397.15.397.142 0 .258-.073.258-.162 0-.217-.27-.372-.407-.235m5.228 2.12c0 .095.116.172.26.172s.258-.077.258-.172-.116-.172-.258-.172-.26.078-.26.172m-69.91 1.55c0 .095.116.172.258.172s.258-.077.258-.172-.116-.172-.258-.172-.258.077-.258.172M39.72 14.58c-.198.198-.126.402.143.402a.26.26 0 0 0 .259-.259c0-.27-.204-.34-.402-.143m-11.036 8.505c-.203.204-.248.334-.117.334.217 0 .706-.41.706-.6 0-.19-.26-.076-.59.256m-.76.77c-.12.26-.128.425-.025.425.092 0 .168-.1.168-.244s.093-.275.207-.313c.138-.046.147-.106.025-.18-.1-.062-.27.08-.375.313m-5.34 5.35c-.314.355-.112.524.224.187.147-.146.267-.3.267-.364 0-.18-.256-.09-.49.177M19.89 32.37c-.172.2-.256.345-.188.345.182 0 .673-.518.58-.612-.044-.043-.22.077-.392.267M8.462 50.264c-.173.107-.18.177-.032.27.237.146.414.017.327-.238-.036-.104-.158-.117-.295-.032M6.826 53.67c-.194.194-.12.397.148.397.142 0 .258-.073.258-.162 0-.217-.27-.373-.406-.235m-1.55 4.1c-.06.157-.001.258.153.258.14 0 .253-.116.253-.258s-.07-.258-.153-.258-.2.116-.253.258M4.133 61.3c0 .195.077.307.172.248s.172-.218.172-.354-.078-.248-.172-.248-.172.16-.172.354m-.33 1.34c-.128.238-.108.316.08.316.137 0 .25-.143.25-.316s-.036-.316-.08-.316-.157.142-.25.316m-1.22 4.506c0 .19.077.344.172.344s.172-.155.172-.344-.077-.345-.172-.345-.172.155-.172.345M2.238 68.8c0 .237.078.43.173.43s.172-.194.172-.43-.078-.43-.172-.43-.173.194-.173.43m-.458 1.906c-.057.148-.016.358.09.465.146.145.195.076.195-.27 0-.518-.13-.606-.286-.195m-.402 2.57c0 .372.07.58.172.517.094-.06.172-.29.172-.517s-.078-.458-.172-.516c-.103-.064-.172.145-.172.516m170.99.18c.004.445.028.47.2.2.132-.228.13-.372-.006-.508s-.188-.052-.184.318M1.148 75.362c-.182.183-.133 1.263.057 1.263.095 0 .173-.3.173-.69 0-.704-.03-.775-.23-.574m171.56.91c0 .29.077.526.172.526s.172-.19.172-.42-.077-.468-.172-.527c-.1-.062-.172.113-.172.42M.69 80.24c0 .574.076 1.033.172 1.033s.172-.46.172-1.033-.076-1.033-.172-1.033-.172.46-.172 1.033m172.363.43c0 .66.068.947.222.947.206 0 .233-.307.144-1.593-.053-.752-.366-.2-.366.646M.69 92.026c0 .8.077 1.5.172 1.56.1.068.172-.458.172-1.454 0-.925-.07-1.56-.172-1.56s-.172.6-.172 1.453m172.363-.097c0 .857.284 1.54.366.882.098-.785.027-1.6-.15-1.758-.168-.14-.215.052-.215.876m-.344 4.326c0 .38.062.69.138.69s.157-.3.18-.69c.023-.388-.037-.69-.138-.69s-.18.3-.18.69M1.033 97.364c0 .23.078.468.172.527.1.062.173-.113.173-.42 0-.29-.078-.526-.173-.526s-.172.19-.172.42m171.33 1.742c0 .365.07.57.173.507.094-.06.172-.335.172-.613s-.078-.507-.172-.507-.173.276-.173.613m-170.91.435c-.063.103-.03.274.076.38.14.14.192.09.192-.187 0-.416-.1-.48-.268-.192m170.57 1.974c.005.446.028.47.2.2.133-.228.13-.37-.005-.508s-.19-.052-.185.318m-.522 1.886c0 .375.323.646.358.3.007-.07.04-.265.07-.43.033-.172-.047-.302-.186-.302-.144 0-.243.175-.243.43M2.127 103.7c.03.205.147.402.256.44.298.1.242-.598-.056-.713-.187-.07-.24.003-.2.274m169.03 1.348c0 .195.077.306.172.248s.172-.218.172-.355-.077-.248-.172-.248-.172.16-.172.355m-168.575.582c0 .137.077.296.172.355s.172-.053.172-.248-.077-.355-.172-.355-.172.112-.172.248m167.37 4.057c0 .19.07.344.153.344.194 0 .375-.448.237-.586-.208-.207-.4-.094-.4.242m-.345 1.205c0 .322.046.367.207.207s.16-.253 0-.414-.207-.114-.207.207m-165.13 1.904c0 .195.077.307.172.248s.172-.218.172-.354-.077-.248-.172-.248-.172.16-.172.354m164.04 1.483c-.165.164-.142.4.04.4.084 0 .198-.116.253-.258.1-.262-.083-.353-.292-.143m-163.313.606c.107.32.477.372.477.068 0-.15-.122-.273-.272-.273s-.242.092-.205.205m160.098 7.027c0 .095.117.173.26.173s.258-.078.258-.173-.116-.172-.258-.172-.26.078-.26.172m-3.788 7.318c0 .143.078.26.172.26s.173-.116.173-.26-.078-.258-.173-.258-.172.116-.172.258m-147.362 3.027c.034.102.135.185.225.185s.19-.083.225-.185-.067-.185-.225-.185-.26.083-.225.185m143.85 2.498c-.162.42-.127.463.154.182.292-.292.33-.455.104-.455-.084 0-.2.123-.258.273M17.74 137.16c.01.26.498.835.613.72.058-.058-.058-.28-.257-.494s-.36-.315-.356-.226m1.544 2.068c0 .183.533.632.632.533.054-.054-.022-.22-.168-.365-.274-.273-.464-.342-.464-.168m134.697.503c-.32.363-.26.463.13.22.19-.118.344-.273.344-.345 0-.205-.237-.142-.473.126m-2.24 2.755c-.32.364-.26.463.13.22.19-.118.344-.273.344-.345 0-.205-.237-.142-.474.126m-129.127.86c.204.44.458.577.458.247 0-.184-.418-.676-.575-.676-.045 0 .008.193.117.43m128.42-.266c.038.114.126.2.194.194.206-.02.166-.258-.056-.332-.113-.037-.175.025-.138.138m-127.79.837c0 .215.678.894.893.894.077 0 .14-.078.14-.172s-.088-.173-.195-.173-.34-.166-.517-.37-.32-.285-.32-.18m1.033 1.152c0 .126 1.32 1.464 1.443 1.464.06 0 .107-.117.107-.26s-.085-.258-.2-.258-.406-.232-.67-.516c-.452-.484-.69-.632-.69-.43m1.658 1.6c-.047.077.064.233.247.347.392.245.44.114.086-.24-.136-.136-.286-.184-.333-.108m.766.7c-.016.263 1.222 1.443 1.358 1.294.05-.055-.005-.136-.123-.178s-.215-.154-.215-.247c0-.22-.442-.662-.662-.662-.094 0-.2-.097-.257-.215-.067-.167-.1-.165-.1.008m117.98 2.014c-.26.294-.28.603-.043.603.094 0 .172-.116.172-.258s.077-.258.172-.258.172-.078.172-.172c0-.243-.22-.203-.473.085m-114.82 1.34l.084.597a.24.24 0 0 0 .228.22c.12.002.52.35.89.775s.8.77.953.77.4.155.526.344.352.345.48.345.184.074.128.165.153.295.464.456.7.434.843.6c.302.345 1.358.445 1.358.128 0-.105-.108-.15-.24-.1-.168.064-.213-.008-.152-.24.048-.182.01-.332-.085-.332-.21 0-3.313-2.367-4.26-3.25-.9-.84-1.312-1.006-1.216-.49m9.43 6.68c.034.1.135.185.225.185s.19-.084.225-.185-.067-.185-.225-.185-.26.083-.225.185m94.698-.022c.074.222.3.262.33.056.007-.07-.08-.156-.194-.194s-.175.024-.137.138m-86.6 4.7c.106.32.477.372.477.068 0-.15-.123-.272-.273-.272s-.24.092-.204.204m75.38 1.604c0 .142.07.258.154.258s.198-.116.253-.258c.06-.158 0-.26-.154-.26-.14 0-.253.117-.253.26m-2.755 1.12c0 .095.116.172.26.172s.258-.077.258-.172-.116-.172-.258-.172-.26.077-.26.172m-62.85 1.55c0 .094.117.172.26.172s.258-.078.258-.172-.116-.173-.258-.173-.26.078-.26.173m1.127.332c-.118.2.154.396.313.237.164-.164.133-.397-.052-.397-.09 0-.206.072-.26.16m1.198.53c.06.094.223.172.365.172s.2-.078.152-.172a.47.47 0 0 0-.365-.173c-.142 0-.2.078-.152.173m54.12.034c.16.16.252.16.413 0s.115-.207-.207-.207-.367.046-.206.207M63.4 168.244c.034.1.136.185.226.185s.19-.084.225-.185-.068-.185-.225-.185-.26.083-.226.185m46.172.073c0 .142.055.258.122.258s.22-.116.337-.258c.178-.215.158-.258-.122-.258-.185 0-.337.116-.337.258m-43.105.738c0 .075.155.147.344.162s.345-.047.345-.136-.155-.16-.345-.16-.344.06-.344.135m1.894.38c0 .095.116.172.258.172s.258-.077.258-.172-.116-.172-.258-.172-.258.077-.258.172m2.066.43c.118.142.32.258.446.258.136 0 .19-.108.133-.258-.054-.143-.255-.26-.446-.26-.29 0-.31.043-.133.26m2.376.464c.16.16.253.16.414 0s.114-.206-.207-.206-.367.046-.207.206m2.532.3c.058.095.338.173.623.173.3 0 .472-.072.4-.173-.06-.094-.34-.172-.623-.172-.3 0-.472.072-.4.172m22.643-.02c0 .083.193.15.43.15s.43-.068.43-.15-.194-.15-.43-.15-.43.068-.43.15m-18.85.372c.06.098.41.16.774.14.865-.05.7-.317-.196-.317-.43 0-.647.066-.578.178m14.374-.006c0 .094.3.172.69.172s.688-.078.688-.172-.3-.172-.688-.172-.69.077-.69.172" fill="#eef6f9"/><path d="M81.093 1.196c.18.113.032.178-.516.226-.56.05-.438.076.457.098 1.54.038 3.34-.145 3.34-.34 0-.08-.795-.147-1.765-.145-1.14.001-1.677.06-1.516.16m8.62-.015c0 .193 1.796.376 3.34.34.696-.017.945-.058.577-.097-.355-.037-.646-.14-.646-.23s-.73-.162-1.636-.162c-.9 0-1.635.067-1.635.148m-12.816.4c.045.07-.212.162-.57.202s-.074.063.63.053c.883-.012 1.3-.087 1.35-.242.055-.166-.13-.214-.708-.184-.43.023-.747.1-.703.17m18.878.002c.055.167.447.243 1.356.263 1.157.024 1.212.01.588-.14-1.37-.335-2.028-.376-1.944-.122m-22 .307c.294.125.255.16-.258.225-.4.052-.237.088.487.106 1.287.032 1.462-.378.188-.44-.55-.027-.666.003-.417.11m25.34-.044c-.296.297-.03.4.96.375.602-.015.828-.058.513-.097-.31-.04-.528-.126-.485-.195.098-.16-.834-.237-.99-.083m-27.452.343c-.338.14-.068.404.414.404.27 0 .407-.08.362-.215-.08-.238-.442-.327-.776-.19m30.035.002c-.214.214-.117.36.292.44.255.05.472-.026.582-.203.182-.29-.606-.505-.874-.236m-32.28.667c-.186.2-.167.25.115.25.494 0 .894-.185.785-.362-.145-.234-.65-.172-.9.11m34.444-.05c.04.118.336.23.66.246s.454-.01.288-.056-.3-.158-.3-.246-.16-.16-.36-.16c-.2 0-.33.09-.288.215m-36.132.275c.06.096-.068.21-.283.255s-.08.07.3.056c.745-.028.946-.334.282-.428-.242-.034-.363.013-.298.117m37.932-.036c-.225.225.092.407.708.406l.636-.001-.493-.258c-.547-.284-.69-.31-.85-.147m-39.646.394c.054.087-.038.195-.205.238s-.013.088.342.1c.468.015.646-.05.646-.238 0-.162-.164-.258-.44-.258-.243 0-.397.07-.343.16m41.248.1c0 .19.196.258.732.257l.732-.001-.494-.257c-.628-.328-.97-.327-.97.001m-42.802.435c0 .224.084.316.236.258.13-.05.306-.1.393-.1s.158-.117.158-.26c0-.154-.158-.258-.393-.258-.28 0-.394.1-.394.35m44.467-.234c-.213.212-.118.36.278.437.294.056.394-.005.394-.24 0-.303-.438-.433-.672-.198M63.1 4.3c.053.087 0 .2-.12.254s-.03.08.2.058c.527-.05.697-.47.2-.47-.203 0-.326.07-.272.157m47.32.058c.094.283 1.034.28 1.092-.004.024-.12.005-.14-.044-.044s-.2.177-.34.177-.206-.078-.148-.172-.06-.172-.262-.172c-.22 0-.34.087-.297.215m-48.737.394c-.188.213-.155.252.215.252.274 0 .437-.097.437-.26 0-.326-.362-.323-.652.007m50.07-.007c0 .18.168.253.56.24.307-.01.424-.056.258-.1s-.3-.15-.3-.238-.117-.16-.26-.16a.26.26 0 0 0-.258.258m-51.336.24c.198.126.198.164 0 .242-.13.052-.022.1.238.107.312.01.474-.074.474-.244s-.166-.258-.474-.256c-.332.002-.403.047-.238.15m52.656-.04c-.242.243-.096.4.36.388.26-.007.376-.053.257-.1s-.172-.16-.12-.245c.11-.18-.322-.217-.497-.043m-53.935.42c-.082.132-.056.164.07.085.11-.067.2-.04.2.06s.123.182.273.182c.343 0 .223-.412-.142-.483-.15-.03-.33.04-.4.156m55.14-.074c-.194.193-.13.4.125.4.132 0 .284-.116.34-.258.1-.26-.243-.365-.464-.143M57.9 5.854c.085.313.673.345.773.044.04-.12-.05-.216-.2-.216s-.274.097-.275.216c-.002.145-.06.132-.185-.044-.163-.23-.175-.23-.112 0m57.5.044c.04.118.2.24.358.27.2.04.255-.026.183-.215-.122-.318-.646-.372-.54-.055m-58.44.283c.198.125.198.164 0 .25-.13.056-.047.085.182.064.6-.057.673-.47.07-.467-.34.002-.417.048-.253.152m59.6.104c0 .172.16.252.474.238.295-.012.36-.05.17-.1-.167-.043-.26-.15-.205-.238s-.023-.16-.17-.16-.27.116-.27.258m-60.675.294c.046.075-.136.136-.405.136-.375 0-.5.08-.5.345 0 .4.153.437.504.086.142-.142.42-.258.615-.258s.357-.112.357-.248-.147-.236-.333-.222-.294.086-.248.16m61.71.05c0 .147.154.26.356.26.196 0 .473.116.615.258.36.36.563.322.456-.086-.06-.226-.235-.345-.51-.345-.236 0-.374-.075-.314-.172s-.053-.172-.248-.172-.354.112-.354.258m-63.54.775c0 .095-.237.172-.527.172s-.483.07-.43.158 0 .197-.12.245c-.13.052-.095.092.087.1.167.008.438-.058.603-.146s.435-.2.6-.253c.368-.113.4-.448.043-.448-.142 0-.258.078-.258.172M119.5 7.4c0 .097.135.22.3.27s.436.166.6.253c.518.277.898.213.587-.098-.142-.142-.42-.26-.615-.26s-.357-.077-.357-.172-.116-.172-.258-.172-.258.08-.258.178m-67.284.625c-.337.136-.252.402.13.402.19 0 .344-.114.344-.258 0-.265-.098-.295-.473-.144m69.264.03c-.186.186-.07.373.23.373.174 0 .316-.103.316-.23 0-.222-.37-.32-.545-.144m-70.168.46a.26.26 0 0 0 .258.259.26.26 0 0 0 .259-.259.26.26 0 0 0-.259-.258.26.26 0 0 0-.258.258m70.943 0a.26.26 0 0 0 .258.259.26.26 0 0 0 .258-.259.26.26 0 0 0-.258-.258.26.26 0 0 0-.258.258m-71.632.43c0 .095-.16.172-.356.172s-.473.116-.615.258c-.288.288-.047.345.414.1.164-.088.435-.202.6-.253.32-.1.42-.448.13-.448-.094 0-.172.077-.172.172m72.493-.033c0 .136 1.185.722 1.462.722.077 0-.084-.194-.36-.43-.483-.414-1.103-.578-1.103-.29m-74.3.722c.06.094-.01.172-.156.172s-.344.153-.444.34c-.15.278-.134.322.08.24.143-.055.218-.17.166-.255s.103-.154.345-.154c.277 0 .44-.096.44-.258 0-.142-.12-.258-.27-.258s-.22.077-.162.172m76.023.086c0 .157.15.253.387.244.213-.007.3-.052.17-.1s-.172-.158-.12-.245-.023-.157-.17-.157-.268.116-.268.258m-78.124 1.03c-.25.267-.5.375-.73.315-.225-.06-.388.007-.456.185-.06.152-.176.234-.26.182s-.154.025-.154.173.116.268.258.268.26-.058.26-.13.25-.237.56-.368.702-.402.876-.602.26-.257.19-.126c-.08.156-.046.21.104.162.126-.042.26-.17.296-.28.12-.357-.548-.2-.942.222m79.713-.222a.49.49 0 0 0 .273.273c.125.042.164-.037.1-.205-.12-.313-.476-.378-.372-.068m.77.247c-.182.182.043.41.405.41.184 0 .334.07.334.154s.107.195.24.246c.16.06.213-.006.16-.204-.042-.163-.24-.308-.438-.323s-.412-.1-.475-.21-.164-.133-.226-.07m-82.774 1.26c0 .29.306.36.407.095.06-.156 0-.257-.154-.257-.14 0-.253.073-.253.162m-.86.44a.26.26 0 0 0 .259.258.26.26 0 0 0 .258-.258.26.26 0 0 0-.258-.258.26.26 0 0 0-.259.258m-.344.24c0 .085-.194.203-.43.262-.466.117-.593.446-.172.446.142 0 .26-.078.26-.172s.116-.172.258-.172a.26.26 0 0 0 .258-.259c0-.142-.04-.258-.086-.258s-.086.07-.086.153m-1.38.7c-.197.122-.207.2-.044.364s.233.144.32-.086c.144-.375.044-.476-.277-.278m-.685.514c0 .095-.155.173-.345.173s-.344.114-.344.258c0 .34.26.327.687-.038.374-.32.45-.565.174-.565-.095 0-.172.078-.172.172m-1.894 1.206c0 .095.11.172.248.172s.296-.077.354-.172-.053-.172-.248-.172-.354.077-.354.172m-.898.544c-.396.408-.073.58.373.198.194-.166.352-.35.352-.407 0-.214-.44-.087-.725.21m97.67.216c0 .15.123.273.273.273s.242-.092.204-.205c-.106-.32-.477-.372-.477-.068m-98.795.53c-.282.32-.27.43.043.43.144 0 .26-.153.26-.345 0-.404-.018-.41-.302-.086m-.718.56c-.007.118-.168.215-.358.215s-.344.115-.344.258.083.26.184.26c.293 0 .713-.5.618-.734-.068-.17-.09-.168-.1.002m-1.55 1.205c-.007.12-.168.215-.358.215s-.344.115-.344.26c0 .318.162.32.578.005.175-.133.278-.343.228-.468-.067-.17-.093-.172-.104-.01m-2.21 1.51c-.66.706-.433 1.074.263.425.27-.25.394-.953.15-.85-.013.006-.2.197-.412.424m-1.033.867c-.316.344-.264.666.057.345.15-.15.247-.34.215-.426s-.153-.048-.272.08m-.732.765c.21.135.185.167-.13.17-.213.002-.387.075-.387.162s-.114.185-.254.216c-.168.036-.204.135-.107.3.117.186.26.136.685-.243.606-.54.676-.768.235-.764-.257.002-.263.027-.043.17m-2.67 2.238c.06.095.025.172-.075.172s-.183.117-.183.26-.12.258-.267.258-.516.232-.818.516-.61.516-.68.516-.13.084-.13.186c0 .198-.423.676-.598.676-.157 0-.952.822-.952.985 0 .076-.206.293-.46.48-.756.564-.91.768-.796 1.064.073.188.042.24-.093.157-.12-.075-.2-.017-.2.144 0 .148-.09.268-.2.268s-.152.05-.09.11 1.474-1.257 3.14-2.928c2.26-2.265 2.937-3.037 2.664-3.037-.202 0-.32.077-.26.172m-6.264 6.075c-.244.244-.248.468-.008.468.344 0 .7-.47.435-.572-.13-.05-.32-.002-.427.104m-1.202 1.652c-.297.277-.54.6-.54.716s-.167.357-.37.534-.294.322-.2.322c.212 0 1.432-1.302 1.432-1.528 0-.09.096-.2.215-.243s.168-.128.11-.19-.348.112-.645.4m-1.703 2.086c-.213.173-.387.44-.387.59s-.12.274-.27.274-.224.07-.17.158 0 .192-.12.234-.174.124-.122.18c.172.188 1.606-1.34 1.51-1.607-.03-.08-.228-.003-.44.17m-1.736 2.08c-.21.195-.336.427-.28.516s.014.162-.092.162-.14.086-.075.19c.075.12.302-.024.613-.387.724-.847.604-1.198-.165-.482m-.775 1.137c-.063.063-.116.277-.117.474-.002.296-.033.313-.172.1s-.188-.194-.276.13c-.06.214-.175.388-.258.388s-.153.116-.153.258-.077.258-.172.258-.172.137-.172.304-.194.45-.43.627-.43.45-.43.605-.155.394-.344.53c-.41.294-.478.9-.086.75.142-.055.258-.193.258-.307s.155-.373.344-.577.345-.454.345-.556.186-.388.414-.634.518-.646.645-.89.368-.583.533-.75.302-.423.302-.565c0-.284-.055-.318-.23-.144m-3.214 4.74c0 .15-.116.32-.258.374-.332.127-.336.454-.006.454.36 0 .694-.672.452-.914-.136-.136-.188-.112-.188.086m-.746 1.115c-.063.063-.115.24-.115.392s-.155.4-.344.526-.345.378-.345.536-.116.333-.258.387-.258.224-.258.375-.113.39-.25.527-.203.378-.143.533c.072.188.04.24-.094.157s-.2.024-.2.316c0 .243-.078.44-.172.44s-.173.198-.173.44c0 .25-.074.395-.172.335s-.172-.025-.172.076c0 .46.36.095.8-.808.264-.545.54-1.016.615-1.048s.136-.197.136-.37.115-.355.255-.41c.146-.056.212-.212.154-.363s-.016-.265.09-.265.326-.3.5-.69.358-.688.43-.688.132-.117.132-.26c0-.27-.204-.34-.402-.143m-3 5.663c-.12.13-.215.358-.215.5s-.078.228-.173.17-.172.015-.172.162.116.27.258.27.26-.14.26-.3.086-.396.19-.502.164-.268.13-.362-.155-.07-.277.064m-.69 1.55a1.03 1.03 0 0 0-.215.604c0 .252-.08.34-.25.274-.158-.06-.218-.013-.162.132.048.125-.034.348-.18.495s-.268.423-.268.61-.09.373-.203.4-.145.16-.074.275c.175.283.45.085.45-.324 0-.184.077-.334.172-.334s.172-.105.172-.233.197-.603.438-1.055c.447-.84.51-1.276.122-.855m-1.57 3.334c-.13.08-.237.35-.237.597 0 .267-.096.45-.237.45-.13 0-.237.15-.237.334s-.077.382-.172.44c-.266.164-.203.603.086.603.16 0 .26-.16.26-.417 0-.228.075-.442.167-.473s.19-.25.215-.488.156-.515.287-.618c.31-.242.19-.63-.13-.43m-1.184 2.865c-.118.128-.215.315-.215.413 0 .27.34.216.452-.073.15-.4.003-.6-.237-.34m-.477 1.12c-.063.198-.073.4-.024.45.144.144.458-.113.458-.375 0-.402-.313-.456-.434-.075m-.6 1.28a.26.26 0 0 0 .258.258.26.26 0 0 0 .258-.258.26.26 0 0 0-.258-.259.26.26 0 0 0-.258.259m.02.656c-.01.17-.098.263-.192.205s-.173.01-.173.152c0 .366.328.523.447.213.054-.143.063-.4.018-.57-.077-.3-.08-.3-.1.001m-.472.946c.066.105.022.346-.096.535-.228.367-.113.64.192.453.245-.152.235-.903-.015-1.057-.12-.075-.152-.047-.08.07m-.395 1.64c-.134.252-.19.512-.126.577.2.202.488-.23.428-.643-.057-.4-.06-.39-.302.066m-.637 1.52c.01.206.117.407.235.447.3.096.275-.382-.02-.627-.187-.155-.23-.118-.216.18m-.11 1.033c.067.254.035.333-.102.248-.126-.078-.2.007-.2.232 0 .2.112.354.258.354.18 0 .258-.182.258-.603 0-.33-.07-.602-.156-.602s-.112.167-.06.37m166.834.06c-.076.2.038.258.498.258.62 0 .8-.23.325-.412-.446-.17-.718-.12-.823.154M3.272 65.53c0 .148-.078.22-.173.162s-.172.084-.172.334c0 .277.096.44.26.44.18 0 .258-.182.258-.603 0-.33-.04-.603-.086-.603s-.086.12-.086.27m-.32 1.67c-.013.165-.1.3-.196.3s-.172.155-.172.344c0 .396.31.464.45.1.052-.135.06-.426.018-.646-.048-.252-.085-.288-.1-.098m-.885 2.373c0 .34.087.51.26.51.157 0 .258-.16.258-.412 0-.227-.116-.457-.258-.51-.194-.075-.26.028-.26.412m0 1.296c0 .25-.074.394-.172.334s-.172.113-.172.42c0 .354.085.527.258.527.195 0 .258-.2.258-.86 0-.473-.038-.86-.086-.86s-.086.198-.086.44m169.78.937c0 .19.115.344.258.344s.258-.153.258-.344-.114-.345-.258-.345-.258.153-.258.345M1.68 73.155c.04.276-.01.555-.115.62-.268.165-.243 1.004.027.915.253-.084.394-1.656.168-1.882-.1-.1-.123.055-.08.348m170.57.702c.032.97.457 1.2.453.243-.002-.455-.05-.585-.156-.417-.12.188-.173.15-.24-.173-.046-.228-.072-.072-.058.347M1.405 76.238c-.015.213-.105.387-.2.387s-.172.35-.172.775.074.775.165.775c.22 0 .396-.998.306-1.734-.04-.325-.084-.416-.1-.203m171.194.922c.06.298.11.648.11.778s.077.237.172.237c.303 0 .204-1.33-.108-1.45-.235-.1-.263-.02-.173.434M.904 81.216c-.275.11-.317 9.357-.043 9.357.1 0 .177-1.602.185-4.434l.07-4.736c.032-.165.045-.295.03-.287l-.243.1m172.148 5.03c0 3.74.046 4.666.24 4.826.204.17.24-.527.235-4.628l-.24-4.826c-.193 0-.235.833-.235 4.628m-.44 8.722c-.065.526-.07 1.005-.012 1.064s.107-.022.107-.18.077-.287.172-.287c.217 0 .228-1.322.013-1.456-.088-.054-.214.332-.28.86M1.033 96.34c0 .33.072.603.16.603s.194.174.235.387c.05.256.082.184.096-.215.026-.734-.133-1.378-.34-1.378-.083 0-.152.27-.152.603m171.273 1.234c-.063.063-.103.51-.09 1 .015.498.057.67.097.402.04-.26.145-.474.233-.474s.16-.232.16-.516c0-.494-.155-.65-.402-.402M1.488 98.613c-.174.173-.13.945.05.835.087-.054.194.04.238.206s.088.017.1-.333c.02-.612-.158-.937-.386-.708m170.385 2.42c.014.545.058.776.097.514s.145-.432.233-.377.16-.177.16-.514c0-.43-.077-.613-.258-.613-.203 0-.253.213-.232 1m-170.04-.354c-.197.197-.12.595.09.465.136-.084.166-.03.092.162-.06.158-.035.287.057.287.206 0 .222-.806.018-.932-.08-.05-.197-.042-.258.018m169.785 1.545c-.216.216-.115.746.142.746.168 0 .244-.148.22-.43-.035-.432-.148-.53-.362-.316m-169.38.65l-.012.393c-.008.07.07.153.172.187.233.078.245-.598.013-.742-.095-.06-.173.014-.173.162m168.82 1.553c-.058.232-.066.523-.017.645.057.142.095.113.103-.078.008-.166.09-.302.186-.302s.172-.155.172-.344c0-.485-.316-.43-.444.08m-168.403.498c-.076.2-.032.374.118.468.307.19.405-.074.178-.48-.165-.294-.178-.293-.296.01m168.1.915c-.063.063-.106.354-.095.646s.056.395.1.227.15-.26.238-.205.16-.1.16-.342c0-.427-.166-.562-.402-.326m-167.83.76c0 .1.116.3.26.442.23.23.258.21.258-.184 0-.28-.096-.443-.258-.443-.143 0-.26.083-.26.185m167.4 1.322c.01.355.056.51.1.342s.15-.26.238-.205.16-.1.16-.342c0-.277-.096-.44-.26-.44-.187 0-.252.178-.238.646m-167.045.14c0 .148.07.225.157.17s.197 0 .245.12.093.042.1-.17c.008-.236-.088-.387-.245-.387-.142 0-.258.12-.258.268m166.68.947c0 .164.116.342.258.397.183.07.258-.016.258-.298 0-.237-.103-.396-.258-.396-.142 0-.258.134-.258.297m-166.222.277c-.198.198-.126.402.143.402a.26.26 0 0 0 .259-.259c0-.268-.204-.34-.402-.143m165.787 1.103c-.062.197-.068.404-.012.46s.102.007.102-.1.078-.163.172-.104.173-.053.173-.248c0-.46-.29-.458-.435.002m-165.385.5c0 .203.07.325.157.27s.2 0 .254.12.08.03.058-.2c-.05-.527-.47-.698-.47-.2m164.972.994c.008.26.053.376.1.257s.158-.172.245-.12.157-.062.157-.257c0-.2-.112-.354-.258-.354-.17 0-.254.16-.245.473m-164.628.287c0 .15.086.273.192.273s.153.152.102.344-.014.345.077.345c.244 0 .1-1.08-.156-1.164-.118-.04-.215.052-.215.202m164.27.888c0 .393.03.414.26.184.142-.142.258-.34.258-.443s-.116-.184-.258-.184c-.163 0-.26.164-.26.443M4.82 113.55c0 .136.078.296.173.354s.172.248.172.42.15.353.33.4c.233.06.304.015.24-.152-.05-.132-.16-.24-.245-.24s-.154-.233-.154-.517c0-.344-.086-.516-.258-.516-.142 0-.26.11-.26.248m163.582.42c0 .247.08.323.265.25.294-.113.258-.43-.06-.536-.113-.038-.204.09-.204.285m-.412.98c-.14.366-.14.365.154.478.186.072.258-.02.258-.326 0-.476-.252-.57-.412-.152m-162.31.67c0 .154.1.214.26.154.142-.055.258-.17.258-.253s-.116-.154-.258-.154-.26.114-.26.253m161.975.206c-.174.174-.138.712.055.83.098.06.127-.01.068-.162-.057-.147-.017-.267.088-.267s.19-.116.19-.258c0-.27-.204-.342-.402-.144m-161.63.574c0 .095.077.172.172.172s.172.16.172.357.116.473.258.615c.23.23.26.22.26-.098 0-.197-.078-.357-.173-.357s-.172-.194-.172-.43c0-.267-.097-.43-.258-.43-.142 0-.258.078-.258.172m161.17.933c0 .23-.097.455-.216.503-.162.066-.152.136.043.286s.208.22.04.287c-.367.148-.737.593-.634.76.17.273.422.173.422-.168 0-.18.116-.37.258-.425.15-.058.26-.316.26-.62 0-.287.077-.522.172-.522s.172-.116.172-.258a.26.26 0 0 0-.258-.258c-.158 0-.258.16-.258.416m-.99 2.28c-.118.047-.215.23-.215.406s-.077.368-.172.427-.172.257-.172.44-.078.335-.172.335-.173.116-.173.258a.26.26 0 0 0 .259.258c.16 0 .258-.162.258-.43 0-.237.078-.43.172-.43s.172-.198.172-.44c0-.25.075-.395.173-.335s.172-.053.172-.248-.02-.348-.043-.34l-.26.1m-158.598.243c.034.102.136.185.226.185s.19-.083.225-.185-.067-.185-.225-.185-.26.083-.226.185m.397.677c-.06.096.014.295.162.443s.27.38.27.515.078.246.173.246.172-.116.172-.258-.078-.258-.172-.258-.173-.194-.173-.43c0-.436-.234-.575-.43-.257m.712 1.63a.65.65 0 0 0 .327.327c.15.057.202.003.145-.146-.05-.13-.197-.277-.327-.326-.15-.058-.202-.004-.145.145m156.173.19c-.16.42-.126.463.154.183.293-.293.33-.455.105-.455-.085 0-.2.122-.26.272m-155.765.673c0 .062.125.237.277.39.254.254.272.25.215-.04s-.492-.602-.492-.348m155.43.03c-.21.2-.118.574.144.574.143 0 .258-.153.258-.344 0-.343-.183-.448-.402-.23m-154.57 1.607c0 .095.097.174.215.175.17.002.17.032.004.137-.155.1-.12.2.13.38.188.135.34.422.34.638s.082.392.182.392.14.072.085.16.01.265.14.395.29.408.358.617c.14.442.36.492.506.114.058-.15-.008-.307-.154-.363-.14-.053-.255-.244-.255-.424s-.058-.326-.13-.327-.278-.312-.46-.69-.394-.687-.473-.687-.135-.058-.124-.13c.05-.316-.034-.56-.193-.56-.094 0-.172.078-.172.172m153.746.043a1.79 1.79 0 0 0 0 .345c.012.07-.04.13-.115.13s-.365.445-.646 1-.568 1.016-.64 1.048-.13.212-.13.4c0 .458.414.312.486-.17.03-.206.127-.374.215-.374s.16-.15.16-.334.077-.382.172-.44.172-.238.172-.4.194-.438.43-.616.43-.43.43-.558c0-.294-.51-.31-.537-.02M11.88 128.305c0 .108.162.336.36.508s.316.384.26.473.13.422.412.74.513.677.514.795.07.215.155.215.193.155.242.345c.105.4.467.467.467.086 0-.142-.077-.258-.17-.258s-.283-.272-.422-.603-.333-.603-.432-.603-.18-.155-.18-.344-.063-.344-.14-.344-.246-.272-.376-.603c-.22-.564-.69-.84-.69-.408m149.686.408c-.158.33-.35.603-.428.603s-.14.155-.14.344-.082.344-.18.344-.295.272-.433.603-.328.603-.422.603-.17.116-.17.258a.26.26 0 0 0 .259.258c.233 0 .334-.204.278-.56-.01-.07.057-.13.152-.13s.172-.08.172-.18c0-.17.135-.364.646-.933.118-.132.215-.4.215-.597s.078-.357.172-.357.173-.116.173-.258.077-.258.172-.258.172-.078.172-.173c0-.383-.368-.135-.637.43m-2.3 3.616c-.127.236-.184.476-.127.533.175.175.47-.104.47-.443 0-.176.097-.36.215-.407.14-.056.12-.09-.057-.1-.15-.007-.375.18-.502.417m-144.725.083c-.127.206.034.52.267.52.21 0 .2-.467.001-.596-.088-.054-.21-.02-.268.076m.518.686c-.06.098-.028.178.073.178s.182.194.182.43.077.43.172.43.172.103.172.23c0 .258 1.015 1.223 1.148 1.1.124-.124-.27-.804-.465-.804-.09 0-.166-.116-.166-.258s-.078-.258-.172-.258-.172-.085-.172-.188c0-.322-.653-1.042-.772-.85m143.187.738c-.082.213-.35.62-.598.904s-.448.632-.448.774c0 .16.162.06.423-.258l.774-.898c.373-.404.47-.9.176-.9-.097 0-.244.174-.327.388M16.875 135.86c0 .095.077.172.172.172s.172.127.172.28c0 .383.74 1.026.84.73.04-.12-.016-.248-.125-.284s-.198-.136-.198-.222c0-.202-.554-.848-.727-.848-.074 0-.134.077-.134.172m139.776.24c-.166.125-.3.3-.3.4s-.097.217-.216.26-.157.14-.087.214c.157.168.82-.403.82-.705 0-.12.097-.256.215-.304s.138-.09.043-.095-.307.095-.473.22M18.21 137.523c.12.047.215.195.215.328 0 .32.54.94.72.83.315-.195-.52-1.3-.958-1.26-.117.008-.107.048.023.1m136.845.578c-.202.224-.255.408-.15.515s.256.054.418-.146c.54-.67.302-1-.27-.37M19.76 139.417c.118.047.215.223.215.4 0 .387.613.963.764.718.127-.205-.728-1.23-1.008-1.21-.104.008-.092.052.03.1m133.65.72c-.245.267-.49.605-.547.752-.172.45.427.16.905-.435.236-.295.333-.477.215-.404s-.215.057-.215-.035.097-.207.215-.255.138-.09.043-.097-.372.208-.616.474m-131.885 1.664c0 .255.074.402.172.342s.172.014.172.162.117.268.26.268c.38 0 .314-.303-.173-.8l-.43-.43v.45m128.576 2.082l-2.428 2.454c-2.766 2.585-3.1 2.952-2.884 3.167.174.173.195.156.103-.086-.08-.2-.03-.3.162-.3.152 0 .276-.078.276-.173s.108-.172.24-.172c.218 0 3.893-3.515 3.893-3.724 0-.13.472-.58.607-.58.293 0 1.09-1.07 1-1.33-.08-.21-.035-.25.18-.17.162.063.288.028.288-.08s.167-.334.37-.51.278-.32.164-.32-.997.822-1.963 1.826m-127.026-.207c0 .162.063.256.14.208s.25.064.383.248.34.335.462.335.22.08.22.178c0 .232 1.14 1.372 1.372 1.372.098 0 .178.168.178.373s.048.325.106.267c.162-.163.582.327.585.682.002.266.028.274.17.056.11-.173.167-.187.17-.043.002.118.12.215.26.215s.258.1.258.2.05.152.107.094c.1-.1-2.815-3.078-4.038-4.153-.34-.3-.373-.302-.373-.033m120.993 6.18c-.174.177-.275.364-.224.415.123.122.67-.43.596-.604-.03-.074-.2.01-.372.19m-114.795.132c0 .1.078.134.173.076s.172-.003.172.125.154.243.343.258.673.335 1.076.712c.927.87 4.082 3.295 4.284 3.295.083 0 .15.083.15.185 0 .274.454.676.763.676.15 0 .27.078.27.173s.077.172.172.172c.375 0 .142-.386-.345-.57-.284-.107-.56-.333-.614-.5s-.194-.307-.312-.307-.364-.138-.548-.306-.915-.747-1.625-1.286l-2.066-1.67c-.427-.38-.863-.693-.97-.694s-.29-.12-.41-.26c-.25-.3-.517-.34-.517-.076m113.414.856c-.52.537-.595.682-.345.678.387-.007.922-.4.922-.66 0-.107.114-.196.253-.196.154 0 .214-.1.154-.258-.143-.37-.244-.326-.984.436m-1.317 1.2c0 .094-.097.172-.216.172s-.424.22-.68.49l-.463.49.408-.078c.562-.108 1.588-1.248 1.122-1.248-.095 0-.172.077-.172.172m-2.487 1.884c-.478.498-.48.504-.075.405.38-.095 1.012-.605 1.012-.818 0-.26-.507-.036-.937.413m-1.27.797c-.125.142-.19.352-.142.467.065.16.088.16.098-.006.008-.118.17-.215.358-.215s.344-.115.344-.258c0-.33-.362-.323-.658.012m-100.6 1.12c0 .102.116.3.258.443.2.2.26.206.26.03.002-.168.047-.16.17.03s.167.198.17.03c.004-.272-.415-.72-.673-.72-.102 0-.185.083-.185.184m99.182-.035c0 .105-.27.304-.602.442-.613.256-.814.614-.345.614.142 0 .258-.114.258-.253 0-.154.1-.214.26-.154.142.055.258.02.258-.08s.168-.203.373-.234c.34-.05.35-.075.086-.29-.183-.15-.287-.167-.287-.045m-98.063.713c-.06.095.017.22.17.28.33.126.513-.013.355-.27-.143-.23-.385-.236-.524-.01m.775.515c0 .095.116.173.258.173s.26-.078.26-.173-.116-.172-.26-.172-.258.078-.258.172m95.51-.057c-.21.21-.12.392.143.292.142-.055.26-.17.26-.253 0-.18-.238-.204-.402-.04m-94.303.832a.26.26 0 0 0 .258.258.26.26 0 0 0 .258-.258.26.26 0 0 0-.258-.258.26.26 0 0 0-.258.258m93.155-.096c0 .1-.116.182-.258.182s-.253.136-.245.302c.008.18.05.214.1.086.048-.12.192-.216.32-.216.306 0 .48-.3.257-.428-.096-.06-.175-.026-.175.074m-92.38.527c.06.094.257.172.44.172s.334.1.334.2.058.143.13.072c.152-.152-.433-.618-.774-.618-.13 0-.188.078-.13.173m91.003.344c0 .095.117.172.26.172s.258-.077.258-.172-.116-.172-.258-.172-.26.077-.26.172m-89.84.387c.04.12.24.24.447.27s.332.127.278.215.093.16.327.16.466.08.514.177c.053.107.074.102.053-.014-.02-.104-.265-.32-.547-.478s-.538-.346-.57-.417c-.1-.222-.578-.14-.503.086m88.983.122c-.235.18-.37.385-.3.455s.126.033.126-.082.097-.196.215-.18c.454.058.646-.022.646-.27 0-.34-.167-.32-.686.078m-.957.536c-.062.1-.072.225-.02.275.123.124.46-.094.46-.297 0-.22-.297-.205-.438.022m-86.002.332c-.298.185-.136.4.24.317.16-.035.215-.142.138-.264-.082-.132-.22-.15-.378-.053m.69.603c0 .144.153.26.344.26s.344.077.344.172.188.172.417.172.455.08.503.176c.053.108.074.102.053-.013-.02-.105-.265-.32-.547-.478s-.537-.346-.57-.417c-.105-.237-.545-.133-.545.13m83.515.078c-.235.18-.375.382-.3.448s.245-.008.4-.162.352-.237.44-.183.158-.023.158-.17c0-.35-.163-.334-.686.068m-81.367.976c.153.153.322.236.374.184.153-.154-.11-.463-.392-.463-.225 0-.223.038.018.28m79.564-.12c-.055.09-.02.21.076.27s.175.02.175-.085.09-.137.198-.07c.124.076.153.047.076-.076-.148-.24-.4-.258-.525-.04m-78.138.815c.12.048.172.16.12.245s-.016.158.085.158.182-.117.182-.26-.136-.252-.3-.244c-.182.008-.216.048-.085.1m76.564.125c-.05.132-.232.203-.405.157-.323-.084-.648.227-.447.428.062.062.177.01.256-.12s.22-.185.313-.128.346-.05.562-.236c.322-.28.34-.34.103-.34-.16 0-.33.108-.382.24m-74.973.51c0 .204.853 1 .984.918.088-.054.377.014.64.15.596.31.614.31.614-.01 0-.158-.16-.258-.416-.258-.23 0-.462-.097-.517-.215-.08-.173-.12-.173-.2 0-.154.33-.34.258-.557-.216-.158-.348-.548-.612-.548-.37m73.397.055c-.29.117-.274.402.025.402.13 0 .284-.116.34-.258.1-.264.016-.298-.364-.144m-1.076.575c0 .094-.15.172-.335.172-.357 0-.634.294-.45.478.062.06.262.017.446-.097s.45-.21.595-.21a.26.26 0 0 0 .26-.258.26.26 0 0 0-.258-.259c-.142 0-.258.078-.258.173m-69.738.76c0 .15.123.273.273.273s.242-.092.204-.205c-.106-.32-.477-.372-.477-.068m68.095-.06c-.063.1-.07.227-.018.28.142.142.628-.08.628-.285 0-.234-.465-.23-.6.006m-67.016.452c.16.16.348.233.42.162s.014-.2-.125-.288c-.42-.265-.606-.186-.294.126m66.12-.177c-.263.106-.286.402-.03.402.102 0 .3-.116.443-.258.268-.268.067-.338-.412-.144m-65.304.66a.26.26 0 0 0 .259.259.26.26 0 0 0 .258-.259.26.26 0 0 0-.258-.258.26.26 0 0 0-.259.258m64.27-.043c.105.318.588.36.588.05 0-.146-.147-.265-.33-.265s-.3.093-.258.215m-63.176.388c.142.142.303.258.357.258s.098-.116.098-.258c0-.147-.154-.26-.357-.26-.317 0-.328.03-.098.26m62.1 0c0 .142.083.258.184.258s.3-.116.443-.258c.23-.23.21-.26-.185-.26-.278 0-.442.096-.442.26m-61.152.228c.198.136.198.175 0 .254-.13.052-.058.1.167.107.483.016.42-.39-.07-.47-.25-.04-.274-.014-.096.108m60.118.116c0 .142.045.258.1.258s.214-.116.356-.258c.23-.23.22-.258-.098-.258-.202 0-.357.112-.357.258m-58.95.345c.11.288.337.337.48.104.053-.085-.026-.2-.176-.26-.388-.148-.416-.134-.305.155m57.96-.145c-.29.118-.273.403.025.403.132 0 .284-.116.34-.258.1-.265.017-.298-.364-.145m-56.928.66c-.068.176.01.258.24.258.186 0 .34-.116.34-.258s-.108-.258-.24-.258-.285.116-.34.258m55.508-.086c0 .095-.233.172-.517.172-.344 0-.516.086-.516.258 0 .143.12.26.268.26s.22-.078.162-.172c-.065-.105.2-.173.65-.173.557 0 .756-.068.756-.258 0-.156-.16-.258-.402-.258-.22 0-.4.077-.4.172m-54.35.432c.61.317.626.317.626-.002 0-.176-.176-.257-.56-.257l-.56.001.493.258m1.253.343c.054.142.207.258.34.258s.24-.116.24-.258-.152-.258-.34-.258c-.23 0-.307.082-.24.258m50.8-.144c-.176.176-.137.402.07.402.1 0 .3-.116.442-.258.23-.23.222-.258-.07-.258-.18 0-.38.05-.443.114m-49.317.52c.16.16.34.243.4.184.17-.17-.09-.475-.405-.475-.262 0-.262.023.006.29m48.04-.177c-.33.133-.256.403.1.403.18 0 .37-.117.426-.26.098-.256-.116-.314-.536-.144m-46.77.66c-.072.186.02.258.326.258.263 0 .425-.098.425-.258 0-.142-.147-.258-.326-.258s-.37.116-.425.258m45.214-.06c.09.268.474.315.488.06.005-.095-.12-.2-.278-.232-.18-.037-.26.028-.2.172m-43.8.27c.322.06.36.113.172.232-.177.113-.117.155.225.157s.443-.065.37-.256c-.062-.162-.3-.25-.64-.235-.45.02-.47.037-.126.102m42.202.133c0 .163.164.26.44.26.242 0 .397-.07.343-.158s0-.197.12-.245-.035-.093-.343-.1c-.39-.01-.56.065-.56.244m-40.594.205c.166.043.302.15.302.238s.116.16.258.16a.26.26 0 0 0 .258-.258c0-.18-.168-.253-.56-.24-.307.01-.424.056-.258.1m1.913.484c.282.282.8.35.8.104 0-.173-.417-.362-.8-.362-.226 0-.226.03.002.258m2.2.443c.034.102.118.18.186.173s.24-.013.383-.013.26-.078.26-.173-.2-.172-.445-.172-.417.084-.383.185m1.993.275c.214.045.34.16.283.255-.065.104.087.15.384.116.778-.09.573-.398-.283-.426-.426-.014-.6.01-.384.055m27.074.062c0 .277.572.433.656.18.06-.178.104-.176.223.012s.15.17.152-.067c.001-.22-.136-.3-.514-.3-.284 0-.517.08-.517.177m-24.28.29c.237.043.504.148.594.235.2.203.956.206.956.004 0-.238-.474-.365-1.263-.34-.47.016-.568.05-.287.1m21.134-.005c-.166.044-.26.15-.205.238.13.21 1.284.208 1.284-.001 0-.088.174-.193.387-.234s.04-.077-.387-.08-.912.033-1.08.076m-16.497.5c-.108.13.156.198.876.224.566.02 1.03-.037 1.03-.128 0-.235-1.72-.322-1.906-.096m11.377.07c0 .094.387.172.86.172s.86-.078.86-.172-.388-.172-.86-.172-.86.077-.86.172" fill="#6cb8d8"/></svg>