<svg viewBox="0 0 100 39" xmlns="http://www.w3.org/2000/svg" xml:space="preserve" style="fill-rule:evenodd;clip-rule:evenodd;stroke-linejoin:round;stroke-miterlimit:2"><path d="M5.03 0a5.026 5.026 0 0 1 5.03 5.021 5.025 5.025 0 0 1-3.962 4.907v2.227h3.033v2.132H6.098v2.62a4.824 4.824 0 0 1 3.76 4.701 4.823 4.823 0 0 1-4.828 4.819 4.823 4.823 0 0 1-4.828-4.819 4.824 4.824 0 0 1 3.76-4.701v-2.62H.929v-2.132h3.033V9.928A5.025 5.025 0 0 1 0 5.021 5.026 5.026 0 0 1 5.03 0Zm12.01 16.789a4.824 4.824 0 0 0-4.829 4.819 4.824 4.824 0 0 0 4.829 4.819 4.823 4.823 0 0 0 4.828-4.819 4.824 4.824 0 0 0-4.828-4.819ZM5.03 28.776a4.823 4.823 0 0 1 4.828 4.819 4.823 4.823 0 0 1-4.828 4.819 4.823 4.823 0 0 1-4.828-4.819 4.823 4.823 0 0 1 4.828-4.819Zm12.01 0a4.824 4.824 0 0 0-4.829 4.819 4.824 4.824 0 0 0 4.829 4.819 4.823 4.823 0 0 0 4.828-4.819 4.824 4.824 0 0 0-4.828-4.819ZM5.03 2.182a2.841 2.841 0 0 1 2.844 2.839A2.841 2.841 0 0 1 5.03 7.86a2.841 2.841 0 0 1-2.844-2.839A2.841 2.841 0 0 1 5.03 2.182ZM40.679 38.177h-.823a2.103 2.103 0 0 1-1.515-.633 2.242 2.242 0 0 1-.457-.683 2.104 2.104 0 0 1-.169-.837v-4.052H31.91v4.052c0 .299-.057.578-.169.837a2.198 2.198 0 0 1-.46.683 2.24 2.24 0 0 1-.68.463c-.257.112-.535.17-.832.17h-.822V23.706h.822c.297 0 .575.059.832.171.257.112.483.265.68.459.196.197.348.422.46.68.112.259.169.538.169.834v3.694h5.805V25.85a2.1 2.1 0 0 1 .169-.834c.112-.258.264-.483.457-.68.19-.194.417-.347.677-.459.26-.112.541-.171.838-.171h.823v14.471ZM52.097 36.092a2.164 2.164 0 0 1-.163.208 7.049 7.049 0 0 1-.223.244c-.078.086-.159.164-.237.242l-.209.194a5.848 5.848 0 0 1-.417.323 3.983 3.983 0 0 1-.473.286 4.496 4.496 0 0 1-.549.245 6.768 6.768 0 0 1-.602.183 4.945 4.945 0 0 1-.67.119 6.105 6.105 0 0 1-.727.041c-.815 0-1.532-.132-2.162-.398a5.062 5.062 0 0 1-.893-.469 4.42 4.42 0 0 1-1.752-2.225 5.421 5.421 0 0 1-.359-1.983v-.378c0-.401.031-.779.085-1.136.057-.36.145-.707.264-1.037.23-.674.551-1.245.96-1.718a4.454 4.454 0 0 1 1.536-1.116c.589-.265 1.262-.398 2.023-.398.758 0 1.418.123 1.973.371.29.133.555.282.792.452a4.11 4.11 0 0 1 1.16 1.337c.145.269.267.565.365.885.125.418.21.877.247 1.377v.507a1.43 1.43 0 0 1-.146.562 1.521 1.521 0 0 1-.338.449 1.645 1.645 0 0 1-.477.299 1.5 1.5 0 0 1-.565.109h-5.064c.027.173.064.333.112.486.043.153.101.296.165.429.139.282.318.52.538.714.196.19.447.344.751.456.271.105.596.16.971.16.511 0 .978-.092 1.408-.279.304-.126.575-.214.808-.259a2.12 2.12 0 0 1 .636-.041c.186.021.359.069.507.147.153.075.295.177.427.303l.298.309Zm-6.364-5.215a3.595 3.595 0 0 0-.216.891h3.866v-.231a2.966 2.966 0 0 0-.122-.779 1.97 1.97 0 0 0-.345-.622 1.53 1.53 0 0 0-.575-.402 1.413 1.413 0 0 0-.382-.115 2.633 2.633 0 0 0-.44-.034 1.84 1.84 0 0 0-.805.16 1.797 1.797 0 0 0-.582.442 2.285 2.285 0 0 0-.399.69ZM59.282 30.258l-.05-.01c-.092-.007-.18-.01-.261-.014-.085-.003-.169-.006-.254-.006a3.53 3.53 0 0 0-.747.071 1.8 1.8 0 0 0-.593.228 2.032 2.032 0 0 0-.439.333c-.129.13-.237.283-.321.453v5.521a1.408 1.408 0 0 1-.41 1.01 1.414 1.414 0 0 1-.446.306 1.4 1.4 0 0 1-1.838-.759 1.478 1.478 0 0 1-.108-.557v-9.443.01h.585c.474.007.901.132 1.279.374.382.242.67.561.869.959.197-.398.485-.717.867-.959a2.407 2.407 0 0 1 1.282-.374h.585v2.857ZM66.495 34.051l2.578-8.61a2.49 2.49 0 0 1 .43-.854c.195-.248.422-.455.686-.615a2.572 2.572 0 0 1 1.806-.354l.843.14-4.54 13.092a1.903 1.903 0 0 1-.704.953c-.328.235-.7.354-1.11.354-.415 0-.788-.119-1.119-.358a1.913 1.913 0 0 1-.694-.949l-4.489-13.045.764-.149c.329-.058.653-.058.972.006.314.062.608.177.876.337.267.164.501.371.7.623.196.255.345.544.444.867l2.557 8.562ZM82.659 36.092a2.133 2.133 0 0 1-.162.208 8.274 8.274 0 0 1-.224.244c-.078.086-.159.164-.237.242l-.209.194a5.63 5.63 0 0 1-.417.323 3.904 3.904 0 0 1-.473.286 4.55 4.55 0 0 1-.548.245c-.19.068-.393.129-.602.183a4.973 4.973 0 0 1-.67.119 6.134 6.134 0 0 1-.728.041c-.815 0-1.532-.132-2.161-.398a5.037 5.037 0 0 1-.894-.469 4.446 4.446 0 0 1-1.752-2.225 5.42 5.42 0 0 1-.358-1.983v-.378c0-.401.03-.779.084-1.136a5.75 5.75 0 0 1 .264-1.037c.23-.674.551-1.245.961-1.718a4.454 4.454 0 0 1 1.536-1.116c.588-.265 1.262-.398 2.023-.398.758 0 1.417.123 1.972.371.291.133.555.282.792.452.237.171.453.368.646.596.196.224.369.473.514.741.146.269.267.565.365.885.126.418.21.877.247 1.377v.507a1.43 1.43 0 0 1-.145.562 1.541 1.541 0 0 1-.815.748 1.505 1.505 0 0 1-.566.109h-5.064a3.46 3.46 0 0 0 .278.915c.138.282.318.52.538.714.195.19.446.344.751.456.27.105.595.16.971.16.51 0 .977-.092 1.407-.279.304-.126.575-.214.808-.259.234-.047.447-.061.636-.041.187.021.359.069.508.147.152.075.294.177.426.303l.298.309Zm-6.364-5.215a3.794 3.794 0 0 0-.216.891h3.866v-.231a3.007 3.007 0 0 0-.121-.779 1.992 1.992 0 0 0-.346-.622 1.527 1.527 0 0 0-.574-.402 1.432 1.432 0 0 0-.383-.115 2.624 2.624 0 0 0-.44-.034c-.318 0-.584.054-.805.16a1.797 1.797 0 0 0-.582.442 2.306 2.306 0 0 0-.399.69ZM92.737 33.792c.206.371.307.82.307 1.347 0 .47-.105.902-.318 1.286-.196.384-.49.725-.879 1.017a3.467 3.467 0 0 1-.636.384c-.23.109-.481.208-.751.296-.538.16-1.14.238-1.817.238-.758 0-1.414-.105-1.962-.319a5.45 5.45 0 0 1-.771-.347 2.988 2.988 0 0 1-.647-.473 4.253 4.253 0 0 1-.575-.694 4.251 4.251 0 0 1-.355-.68 3.375 3.375 0 0 1-.179-.592 2.464 2.464 0 0 1-.048-.449l.011-1.276h.565c.321 0 .625.061.909.184.285.122.535.293.755.503.23.252.393.562.484.929.014.065.031.133.05.197a1.245 1.245 0 0 0 .488.65c.169.112.372.204.602.279.226.058.467.088.724.088.541 0 .947-.105 1.217-.319a.94.94 0 0 0 .41-.796c0-.153-.03-.29-.091-.409a.757.757 0 0 0-.319-.34 1.803 1.803 0 0 0-.29-.163 6.123 6.123 0 0 0-.372-.156 5.31 5.31 0 0 0-.481-.133 38.203 38.203 0 0 1-.588-.146 10.324 10.324 0 0 1-1.499-.439 4.964 4.964 0 0 1-1.187-.647 3.686 3.686 0 0 1-.437-.428 2.795 2.795 0 0 1-.338-.49c-.183-.33-.277-.728-.277-1.194 0-.425.094-.844.277-1.255.206-.405.48-.752.822-1.037a4.142 4.142 0 0 1 1.33-.728 5.576 5.576 0 0 1 1.755-.259c.701 0 1.309.082 1.834.248.27.092.517.198.747.313.227.116.437.252.63.405.375.293.667.646.872 1.065.19.391.295.82.305 1.285v1.354h-.592a2.25 2.25 0 0 1-.998-.217 2.238 2.238 0 0 1-.758-.599.65.65 0 0 1-.104-.15 1.522 1.522 0 0 1-.102-.224 2.854 2.854 0 0 1-.095-.255 2.577 2.577 0 0 1-.074-.249 1.323 1.323 0 0 0-.166-.384 1.07 1.07 0 0 0-.311-.323 1.181 1.181 0 0 0-.504-.218 3.95 3.95 0 0 0-.694-.051c-.47 0-.832.109-1.093.33a.986.986 0 0 0-.395.816.851.851 0 0 0 .436.738c.074.055.159.106.257.15.102.048.216.096.348.14.126.04.264.081.416.122.153.038.318.075.494.109.556.105 1.086.242 1.587.408.244.082.47.174.673.279.206.109.396.225.576.35.179.126.335.269.47.426.135.153.254.323.352.503ZM98.799 36.245c.027.007.101.013.223.024.122.01.25.017.386.02l.379.01c.115.004.186.004.213-.003v.537c0 .232-.048.446-.139.643a1.827 1.827 0 0 1-.368.514 1.56 1.56 0 0 1-.535.333 1.456 1.456 0 0 1-.643.085 11.172 11.172 0 0 1-1.038-.129 1.28 1.28 0 0 1-.481-.194 4.166 4.166 0 0 1-.399-.316 2.356 2.356 0 0 1-.555-.888 2.512 2.512 0 0 1-.152-.602 5.239 5.239 0 0 1-.044-.721v-6.259h-1.418v-.657a1.24 1.24 0 0 1 .369-.874 1.268 1.268 0 0 1 .89-.367h.159v-3.307h.572a2 2 0 0 1 .788.16c.247.106.46.249.646.432.183.184.328.398.433.643.105.245.159.507.159.786v1.286h1.644v.646a1.249 1.249 0 0 1-1.248 1.252h-.396v5.98c0 .197.02.367.061.507.024.061.051.115.078.17a.37.37 0 0 0 .108.129.554.554 0 0 0 .308.16Z" style="fill:#540a45"/></svg>