<svg xmlns="http://www.w3.org/2000/svg" width="721" height="185" viewBox="0 0 721 185">
  <g fill="none" fill-rule="evenodd" transform="rotate(-90 92.5 92.5)">
    <path fill="#ED342B" d="M.8084 611.5196C2.4777 605.2715 72.5272 661.3785 100.89 652.0238 115.8881 647.357 114.2188 600.6167 119.2325 600.6167 124.2402 600.6167 137.557 691.02772 125.0658 699.54477 107.5239 712.82861-2.53 619.312.8084 611.5196M162.5913 720.57452C150.6058 720.57452 140.9113 711.51572 140.9113 700.32291 140.9113 689.1431 150.6058 680.0713 162.5913 680.0713 174.5707 680.0713 184.2662 689.1431 184.2662 700.32291 184.2662 711.51572 174.5707 720.57452 162.5913 720.57452"/>
    <path fill="#003C58" d="M105.5114 40.2954C105.5114 27.4523 95.1002 17.0392 82.2552 17.0392 69.4121 17.0392 59.0009 27.4523 59.0009 40.2954 59.0009 53.1384 69.4121 63.5516 82.2552 63.5516 95.1002 63.5516 105.5114 53.1384 105.5114 40.2954L105.5114 40.2954zM40.6305 70.1245L48.8127 61.9463C44.7665 55.7112 42.4106 48.2797 42.4106 40.2954 42.4106 18.2886 60.2494.4479 82.2552.4479 104.2639.4479 122.1027 18.2886 122.1027 40.2954 122.1027 62.3012 104.2639 80.1419 82.2552 80.1419 74.013 80.1419 66.3535 77.6371 59.9965 73.349L50.1081 83.2375 40.6305 70.1245zM89.1406 575.9922L101.8667 578.3781C101.8667 578.3781 107.4601 559.9506 97.0949 544.9716L46.1885 544.9716 46.1885 560.8802 87.5493 560.8782C92.3231 567.2412 89.1406 575.9922 89.1406 575.9922M74.2569 181.09C78.315 181.09 82.1402 181.7477 85.7345 183.064 89.3279 184.3824 92.4594 186.2856 95.1292 188.7764 97.7999 191.2682 99.917 194.2918 101.4832 197.8532 103.0475 201.4115 103.8331 205.4687 103.8331 210.0245 103.8331 213.0122 103.5653 215.7539 103.0315 218.2447 102.4978 220.7356 101.7331 223.1585 100.7346 225.5054L88.0295 222.1969C88.6002 220.7016 89.099 219.0624 89.5238 217.2852 89.9526 215.504 90.1655 213.5099 90.1655 211.3049 90.1655 206.6061 88.7072 203.1008 85.7875 200.7888 82.8679 198.4759 79.0257 197.3194 74.2569 197.3194 69.2032 197.3194 65.288 198.4049 62.5133 200.5749 59.7366 202.7459 58.3482 206.5352 58.3482 211.9457 58.3482 213.8668 58.5252 215.9318 58.882 218.1388 59.2398 220.3438 59.8066 222.3728 60.5902 224.225L47.5662 226.4669C46.7816 224.6148 46.1079 222.3018 45.5382 219.5251 44.9674 216.7494 44.6836 213.6878 44.6836 210.3434 44.6836 205.2188 45.4482 200.8068 46.9775 197.1065 48.5068 193.4043 50.5908 190.3607 53.2236 187.9778 55.8574 185.5889 58.971 183.8487 62.5663 182.7452 66.1606 181.6417 70.0578 181.09 74.2569 181.09M92.4998 374.2947C92.4998 363.9545 81.365 363.1579 81.365 363.1579L81.365 385.4296C81.365 385.4296 92.4998 384.6349 92.4998 374.2947M70.2281 398.9523L70.2281 363.1579C70.2281 363.1579 58.2947 363.9545 58.2947 379.8632 58.2947 387.8145 60.6826 395.7718 60.6826 395.7718L47.9565 397.361C47.9565 397.361 44.7759 389.4067 44.7759 378.2719 44.7759 362.3623 52.7302 348.0459 74.9999 348.0459 92.4998 348.0459 103.6346 359.1798 103.6346 375.0894 103.6346 398.9523 79.7737 400.5436 70.2281 398.9523M92.4998 507.8627C92.4998 497.5215 81.365 496.7269 81.365 496.7269L81.365 518.9995C81.365 518.9995 92.4998 518.2029 92.4998 507.8627M70.2281 532.5202L70.2281 496.7269C70.2281 496.7269 58.2947 497.5215 58.2947 513.4301 58.2947 521.3844 60.6826 529.3367 60.6826 529.3367L47.9565 530.928C47.9565 530.928 44.7759 522.9767 44.7759 511.8398 44.7759 495.9302 52.7302 481.6129 74.9999 481.6129 92.4998 481.6129 103.6346 492.7507 103.6346 508.6593 103.6346 532.5202 79.7737 534.1115 70.2281 532.5202"/>
    <polygon fill="#003C58" points="46.182 168.861 46.182 152.954 102.343 152.954 102.343 168.861"/>
    <path fill="#003C58" d="M102.3346 141.697L51.4582 141.724C51.4582 141.724 45.0702 133.7427 45.0702 116.2428 45.0702 100.3362 53.0245 91.5873 70.5244 91.5873L102.3366 91.5873 102.3366 107.4939 70.5244 107.4939C59.3866 107.4939 58.5929 113.0623 58.5929 117.8331 58.5929 122.6079 60.9788 125.7924 60.9788 125.7924L102.3346 125.7874 102.3346 141.697zM82.1809 253.6163C83.8791 255.1826 85.6473 256.7968 87.4864 258.4681 89.3256 260.1393 91.1487 261.7585 92.9529 263.3218 94.7601 264.8861 96.4753 266.3624 98.1025 267.7488 99.7287 269.1361 101.1461 270.3266 102.3505 271.3221L102.3505 290.2403C98.0135 286.4641 93.8765 282.7828 89.9353 279.1875 85.9941 275.5931 81.928 271.661 77.7369 267.3889 75.8128 269.5249 73.5119 271.7299 70.8391 274.0109 68.1634 276.2868 65.4017 278.4938 62.548 280.6278 59.6963 282.7668 56.8446 284.7219 53.992 286.5011 51.1393 288.2822 48.5385 289.7775 46.1866 290.986L46.1866 272.6935C48.0417 271.556 50.0908 270.2576 52.3407 268.8043 54.5877 267.348 56.8366 265.8017 59.0826 264.1674 61.3286 262.5322 63.4876 260.808 65.5576 258.9968 67.6246 257.1857 69.3738 255.3905 70.8032 253.6163L46.1866 253.6163 46.1866 237.7077 116.377 237.7077 119.1837 253.6163 82.1809 253.6163zM116.3715 300.2173L119.1792 316.1259 102.6289 316.1259 102.6289 331.8696 89.389 331.8696 89.389 316.1259 69.6392 316.1259C66.2918 316.1259 63.622 316.7137 61.6319 317.8871 59.6378 319.0616 58.6423 321.4265 58.6423 324.9888 58.6423 326.697 58.8022 328.4582 59.1221 330.2734 59.4429 332.0875 59.8857 333.7428 60.4575 335.2381L48.0702 337.479C47.2866 335.5579 46.6119 333.4219 46.0412 331.073 45.4744 328.7261 45.1905 325.8414 45.1905 322.425 45.1905 318.081 45.7763 314.4887 46.9507 311.643 48.1252 308.7943 49.7624 306.5184 51.8615 304.8082 53.9595 303.1 56.5053 301.9065 59.4959 301.2318 62.4855 300.5532 65.795 300.2173 69.4243 300.2173L116.3715 300.2173zM45.119 433.0399C45.1889 428.41 45.6887 424.6578 46.6113 421.7741 47.5369 418.8925 48.8373 416.6115 50.5115 414.9433 52.1817 413.2671 54.2118 412.1286 56.5967 411.5249 58.9805 410.9192 61.6693 410.6173 64.6589 410.6173L116.3779 410.6173 119.1856 426.5259 67.8624 426.5259C66.4351 426.5259 65.1557 426.6319 64.0152 426.8468 62.8777 427.0597 61.9162 427.4695 61.1345 428.0742 60.3489 428.6789 59.7092 429.5505 59.2124 430.691 58.7127 431.8285 58.3938 433.3607 58.2529 435.2819L45.119 433.0399zM45.119 468.9715C45.1889 464.3417 45.6887 460.5884 46.6113 457.7058 47.5369 454.8231 48.8373 452.5421 50.5115 450.8739 52.1817 449.1997 54.2118 448.0592 56.5967 447.4555 58.9805 446.8508 61.6693 446.5479 64.6589 446.5479L116.3779 446.5479 119.1856 462.4565 67.8624 462.4565C66.4351 462.4565 65.1557 462.5645 64.0152 462.7774 62.8777 462.9913 61.9162 463.4001 61.1345 464.0048 60.3489 464.6096 59.7092 465.4821 59.2124 466.6216 58.7127 467.7601 58.3938 469.2914 58.2529 471.2125L45.119 468.9715z"/>
  </g>
</svg>
