<svg xmlns="http://www.w3.org/2000/svg" xmlns:xlink="http://www.w3.org/1999/xlink" viewBox="0 0 1000 1000"><defs><clipPath id="a"><path d="M1035.2,474.48A90.82,90.82,0,1,0,1126,383.66a90.84,90.84,0,0,0-90.82,90.82" style="fill:none"/></clipPath><linearGradient id="b" x1="-6182.32" y1="3938.86" x2="-6175.3" y2="3938.86" gradientTransform="translate(42127.95 -184727.42) rotate(-45) scale(25.89)" gradientUnits="userSpaceOnUse"><stop offset="0" stop-color="#c9cacb"/><stop offset="1" stop-color="#e8e8e9"/></linearGradient></defs><title>Nigeria-Logo</title><path d="M450.35,428.48c19.54.22,36.3,5.71,49.6,19.76,9.47,10,14.8,22.17,17.13,35.62,3.08,18.27,1.66,36.15-6.76,52.91C500,557.21,483,568.33,460.49,571c-12.47,1.5-24.72.45-36.52-4.21-15.33-6-26.6-16.61-33.29-31.56-10.52-23.68-10.67-47.65.3-71.1,9.69-20.59,26.68-31.78,49.15-34.87A86,86,0,0,1,450.35,428.48Zm32.24,73c0-10.14-1.28-18.41-5.26-26.15-5.26-10.29-13.68-15.78-25.25-16.16-12.25-.37-21.65,4.51-27.51,15.41-5.56,10.22-6.39,21.34-5.26,32.69a49.25,49.25,0,0,0,5.56,18.49c10.22,19.54,40.73,19.76,51.33,1A53,53,0,0,0,482.59,501.52Z" style="fill:#370773"/><path d="M828.58,557a46.57,46.57,0,0,1-6.54,7.14c-9.84,8-21,8.86-32.76,6-12.1-2.86-20.82-10.37-26-21.42-9.32-19.54-10.3-39.61-1.36-59.44,10.22-22.78,32.92-27.06,49.68-21.2A30.47,30.47,0,0,1,824.52,477l2.11,2.55c.75-.9.45-1.88.45-2.7.07-15.26.15-30.59.07-45.85,0-2,.53-2.63,2.63-2.63,9.25.15,18.42.08,27.66,0,1.88,0,2.55.3,2.55,2.41q-.11,67.63,0,135.34c0,1.81-.37,2.41-2.33,2.41-8.94-.08-18-.08-26.9,0-1.73,0-2.33-.38-2.25-2.18C828.66,563.45,828.58,560.52,828.58,557Zm-.3-38c.08-5.86-.6-11.57-3.08-17-3-6.69-8-10.68-15.56-11q-11.94-.45-17.36,10.15a33.35,33.35,0,0,0-3.38,13.9c-.3,7.89.53,15.63,4.66,22.62,3.68,6.24,9.32,9,16.46,8.72s12.17-3.91,15.1-10.45C827.6,530.53,828.21,524.82,828.28,519Z" style="fill:#370773"/><path d="M628.38,568.56h-28c-5.49,0-5.64-.15-6.24-5.71-.15-1.05-.3-2.11-.52-3.46a41.27,41.27,0,0,1-18.27,10.3,52.32,52.32,0,0,1-25.92.6c-17.74-4.29-24.13-17.81-22.47-33.44,1.35-13.16,9.84-20.07,21.64-23.83,8.87-2.78,18-3.68,27.13-5,3.83-.6,7.74-.83,11.5-2,3.6-1.13,5.78-3.38,6.16-7.29a8.38,8.38,0,0,0-4.28-8.64,22.38,22.38,0,0,0-20.37-1.28c-3.76,1.58-5.94,4.73-7,8.57-.45,1.57-1,2.1-2.63,2.1q-13.08-.1-26.15,0c-2,0-2.33-.6-2.11-2.4,1.58-14.66,10-23.68,23.53-27.81a83.41,83.41,0,0,1,49.07-.23c13.68,4.14,20.89,14.13,21,28.41.15,15.86,0,31.79.08,47.65C624.62,553,625.07,560.74,628.38,568.56ZM593.06,522c-5,2.33-10.15,2.93-15.11,4.06-4.73,1-9.69,1.8-13.75,4.73s-5.33,6.84-4.51,11.58c.75,4.43,3.61,6.91,7.74,8.19a24.06,24.06,0,0,0,11.35.22c6.54-1.12,10.67-5,12.7-11.19C593.13,533.91,593.28,528.13,593.06,522Z" style="fill:#370773"/><path d="M674.82,481.91c10.15-14.28,28.86-19.46,46.52-14.13,10.6,3.23,16.84,10.67,19.54,21.27A59.24,59.24,0,0,1,742.61,504c.07,20.67,0,41.41.07,62.08,0,1.8-.37,2.4-2.33,2.4q-14.19-.11-28.4,0c-1.81,0-2.18-.52-2.18-2.25.07-18.19.07-36.37,0-54.64a33.76,33.76,0,0,0-1.13-9.09c-1.73-5.86-5.56-8.87-11.57-9.62-15-1.73-20.59,8.8-21,18.56-.37,11.73-.15,23.45-.15,35.18,0,6.61-.07,13.3,0,19.91,0,1.43-.38,1.88-1.8,1.88-9.77-.08-19.62-.08-29.39,0-1.88,0-1.73-1-1.73-2.18V471c0-1.88.38-2.55,2.41-2.55,8.94.15,18,.15,26.9,0,2.11,0,2.63.6,2.56,2.63C674.67,474.85,674.82,478.38,674.82,481.91Z" style="fill:#370773"/><path d="M978.06,518.51c-.08,27.13-16.91,47.72-43,52.15-30.29,5.19-56.14-12.4-61.25-41.55-4.21-24.05,6.09-47.73,27.81-58.1,27.58-13.15,66.28-1.88,75,34.65A66.06,66.06,0,0,1,978.06,518.51Zm-32.84.6c-.23-7.14-1.06-12.47-3.46-17.36-3.46-7.06-8.94-10.9-17-10.67-7.89.22-13.22,4.21-16.08,11.27a42.61,42.61,0,0,0-.3,32.32c3,7.89,9.09,11.87,17,11.87s13.82-4.28,17-11.95A42.36,42.36,0,0,0,945.22,519.11Z" style="fill:#370773"/><path d="M172.74,331.76h3c.15,1.05,1,1,1.73,1a179.18,179.18,0,0,1,21,1.35,163,163,0,0,1,32.24,7.06,184.74,184.74,0,0,1,21,8.8,111.06,111.06,0,0,1,15.33,9.62c5.49,3.83,10.37,8.56,15.18,13.22a118.33,118.33,0,0,1,14,16.53c6.16,8.5,10.75,17.74,15.18,27.21,1.58,3.46,2.63,7.06,4,10.6A142.13,142.13,0,0,1,321.31,447c1.43,6.46,2.41,13.15,3.24,19.76a279.8,279.8,0,0,1,2.33,30.59c.07,3.9-.23,7.81-.3,11.64a222.84,222.84,0,0,1-2.11,25.41c-.9,6.61-1.8,13.22-3.31,19.76a183.67,183.67,0,0,1-7.44,24.35,73.83,73.83,0,0,1-5.26,11.65c-.07,0-.15-.08-.22-.08s.15.08.22.08a4,4,0,0,1-.37,1.65c-2.33,4.74-5.41,9.09-7.82,13.83-2.63,5.18-6.84,9.47-10.37,14a101.72,101.72,0,0,1-18.49,17.88,125.27,125.27,0,0,1-17.88,11.88c-3.83,2-7.67,4.2-11.72,5.86-3,1.28-6.32,2.1-9.32,3.38-7,2.93-14.36,4.28-21.65,6.16A50.07,50.07,0,0,1,204,666c-5.33.61-10.67,1.13-16,1.66-6.47.52-12.93.45-19.39.6a78.56,78.56,0,0,1-13.83-.68c-4.73-.75-9.62-.75-14.2-1.8-6.84-1.58-13.76-2.78-20.44-4.81-7.37-2.18-14.36-5.34-21.35-8.42s-13.3-7.51-19.61-12c-4.13-2.93-7.74-6.38-11.57-9.69-1.13-1-2-2.11-3.09-3.16a77,77,0,0,1-8.94-9.54c-3.38-4.59-6.69-9.17-9.69-14a150.89,150.89,0,0,1-17.81-41.56c-1.88-7.22-3.38-14.43-4.81-21.72-2-11.05-2.63-22.17-3.23-33.29a141,141,0,0,1,.52-24.65c.45-3.53.23-7.07.83-10.6,1-5.86,1.5-11.8,2.7-17.58,1.21-6,2.63-12,4.29-18a166.6,166.6,0,0,1,7.89-22.32c1.5-3.53,3.46-6.91,5.18-10.29a136.73,136.73,0,0,1,8.8-14.66,105.54,105.54,0,0,1,11.34-13.82,147.31,147.31,0,0,1,13.16-12.48,113,113,0,0,1,14.57-9.92c4.66-2.7,9.55-5,14.36-7.44,3.61-1.88,7.51-2.93,11.27-4.36a153.7,153.7,0,0,1,18.11-5.26,116.32,116.32,0,0,1,11.5-1.88c7.06-1,14.05-1.95,21.19-1.8h5C171.61,332.74,172.59,333,172.74,331.76Zm1.73,318.86A137.47,137.47,0,0,0,199.19,648a100.58,100.58,0,0,0,18.64-5.86,97.71,97.71,0,0,0,20.74-12,106.34,106.34,0,0,0,16.84-16,110.29,110.29,0,0,0,11.5-16.09c1.57-2.85,3.3-5.71,4.73-8.71A199.65,199.65,0,0,0,280.13,568c1.05-3.23,2.11-6.46,2.86-9.69a246.52,246.52,0,0,0,5.26-28.71c1.05-8.57,1.28-17.13,1.8-25.7.45-8-.3-15.86-.82-23.82a194.38,194.38,0,0,0-2.71-21.87c-2.63-14.58-6.46-28.86-12.63-42.39a123.25,123.25,0,0,0-12.7-22.39c-5.56-7.59-11.57-14.81-19.08-20.74a100.36,100.36,0,0,0-28.34-16.24,112.89,112.89,0,0,0-40.88-6.68c-3.08.07-6.09.22-9.17.45A107.68,107.68,0,0,0,149,352.13a100.84,100.84,0,0,0-28.4,10.14,84.52,84.52,0,0,0-11.35,7.14,126.46,126.46,0,0,0-15.78,14.65,109.51,109.51,0,0,0-9.77,12.85,133.78,133.78,0,0,0-12.4,23.68,129.72,129.72,0,0,0-5,13.75,237.09,237.09,0,0,0-6.92,32.39C58,477,57.69,487.17,57.16,497.39c-.38,7.37.45,14.73.83,22.1a174.07,174.07,0,0,0,2.7,23.37c2.93,15.55,7.14,30.73,14.21,45a123.86,123.86,0,0,0,15,24.28,100.22,100.22,0,0,0,44.18,32.09C147.12,648.9,160.57,650.32,174.47,650.62Z" style="fill:#f6d600"/><path d="M174.47,650.62c-13.83-.3-27.35-1.72-40.36-6.53a98.62,98.62,0,0,1-23-12A105,105,0,0,1,89.93,612a127.28,127.28,0,0,1-15-24.28c-7.07-14.28-11.2-29.46-14.21-45A171.3,171.3,0,0,1,58,519.34c-.38-7.37-1.21-14.73-.83-22.1.45-10.22.75-20.44,2.25-30.66a237.09,237.09,0,0,1,6.92-32.39,129.72,129.72,0,0,1,5-13.75,139.29,139.29,0,0,1,12.4-23.68,122.55,122.55,0,0,1,9.77-12.85,126.46,126.46,0,0,1,15.78-14.65,92.19,92.19,0,0,1,11.35-7.14A98.29,98.29,0,0,1,149,352a107.64,107.64,0,0,1,14.73-1.87c3.08-.15,6.09-.38,9.17-.45a114.64,114.64,0,0,1,40.88,6.68,99.55,99.55,0,0,1,28.34,16.24c7.51,5.93,13.52,13.15,19.08,20.74a128.88,128.88,0,0,1,12.7,22.39c6.24,13.53,10,27.81,12.63,42.39A194.38,194.38,0,0,1,289.23,480c.52,8,1.27,15.85.82,23.82-.52,8.57-.75,17.13-1.8,25.7A246.52,246.52,0,0,1,283,558.19c-.83,3.23-1.81,6.54-2.86,9.69a194,194,0,0,1-8.49,21.35c-1.43,3-3.08,5.86-4.73,8.71A101.92,101.92,0,0,1,255.41,614a99.7,99.7,0,0,1-37.58,28,100.58,100.58,0,0,1-18.64,5.86A125.94,125.94,0,0,1,174.47,650.62Zm22.32-44.49c1.13,0,2.33.08,3.46,0s2.25-.37,3.45-.45a69.74,69.74,0,0,0,30.59-9.32,89.2,89.2,0,0,0,23.82-19.31c5.19-5.94,10-12.25,13.38-19.31a76.39,76.39,0,0,0,7.14-43.36,105.07,105.07,0,0,0-9.32-31.27c-7.21-15.55-17.43-29.16-29.08-41.56A181.09,181.09,0,0,0,204.76,412a118.28,118.28,0,0,0-28-13.23c-10.67-3.38-21.64-5.26-33-4.2a78.07,78.07,0,0,0-12.47,2,80,80,0,0,0-28.71,14.28,95,95,0,0,0-22.92,24.88,74.58,74.58,0,0,0-11.2,50.72A103.93,103.93,0,0,0,78,518.21a156,156,0,0,0,22.47,33.89A195.22,195.22,0,0,0,127,577.88a145.75,145.75,0,0,0,32.16,19.69A98,98,0,0,0,196.79,606.13Z" style="fill:#f4b400"/><path d="M308.46,590.2c-.07,0-.15-.07-.22-.07a.28.28,0,0,1,.22.07Z" style="fill:#636363"/><path d="M196.79,606.13a97.37,97.37,0,0,1-37.73-8.64A142.43,142.43,0,0,1,126.9,577.8,195.75,195.75,0,0,1,100.37,552c-8.79-10.45-16.53-21.5-22.47-33.9a103.94,103.94,0,0,1-9.54-31.71,74.73,74.73,0,0,1,11.35-50.73,94.8,94.8,0,0,1,22.92-24.87,79.61,79.61,0,0,1,28.7-14.28,76.62,76.62,0,0,1,12.48-2c11.35-1.05,22.24.83,33,4.21a122.37,122.37,0,0,1,28,13.23,177.7,177.7,0,0,1,35.47,29.53C252,454,262.17,467.48,269.39,483a105.08,105.08,0,0,1,9.31,31.26,76.09,76.09,0,0,1-7.14,43.36c-3.45,7.14-8.19,13.38-13.37,19.32a88.5,88.5,0,0,1-23.82,19.31,69.5,69.5,0,0,1-30.59,9.32c-1.13.07-2.26.37-3.46.45A28,28,0,0,1,196.79,606.13ZM191,426a62.09,62.09,0,0,0-21.64,3.83c-15.26,5.49-28.11,14.81-39.53,26.15a123.43,123.43,0,0,0-15,17.59c-10,14.73-17.06,30.28-15.49,48.62a46.76,46.76,0,0,0,4.06,16,65.76,65.76,0,0,0,20.22,25.1,53.37,53.37,0,0,0,30,11.27,55.78,55.78,0,0,0,21-3c16.23-5.27,29.91-14.66,42-26.53a123.3,123.3,0,0,0,18.72-23.15c8.11-13.3,13.6-27.35,12.32-43.44a50.86,50.86,0,0,0-6.54-21.19,65.09,65.09,0,0,0-15-17.73C216,431,204.38,426.07,191,426Z" style="fill:#ea6e00"/><path d="M191,426c13.46.15,24.95,5,35.1,13.6a65.3,65.3,0,0,1,15,17.74,51,51,0,0,1,6.54,21.19c1.27,16.08-4.21,30.06-12.33,43.44a118,118,0,0,1-18.71,23.14c-12.1,11.88-25.78,21.27-42,26.53a55.77,55.77,0,0,1-21,3,53.83,53.83,0,0,1-30-11.28,67,67,0,0,1-20.21-25.1,47.35,47.35,0,0,1-4.06-16c-1.58-18.42,5.49-34,15.48-48.63a119.55,119.55,0,0,1,15-17.58c11.42-11.35,24.27-20.67,39.52-26.15A59.62,59.62,0,0,1,191,426Zm33.75,75.52c.22-16.83-6.84-28.25-20.9-34.94-18-8.57-36.74-8.64-55.46-2.33-10,3.38-18.11,9.47-22.77,19.24a38.74,38.74,0,0,0-3.3,21c1.05,10.07,5.18,18.49,13.07,24.8,10,8,22,10.67,34.35,11.35a72.5,72.5,0,0,0,28.85-4.14C214.38,530.83,225.2,518.13,224.75,501.52Z" style="fill:#d50016"/><path d="M224.75,501.52c.45,16.61-10.37,29.24-26.08,35a72.55,72.55,0,0,1-28.86,4.14c-12.47-.68-24.35-3.31-34.34-11.35-7.89-6.31-12.1-14.65-13.08-24.8a38.75,38.75,0,0,1,3.31-21c4.66-9.77,12.77-15.86,22.77-19.24,18.71-6.31,37.42-6.24,55.46,2.33C217.91,473.27,225,484.69,224.75,501.52Z" style="fill:#370773"/><g style="clip-path:url(#a)"><polygon points="944.38 474.48 1126.02 292.84 1307.66 474.48 1126.02 656.12 944.38 474.48" style="fill:url(#b)"/></g></svg>