<svg width="418" height="64" viewBox="0 0 418 64" fill="none" xmlns="http://www.w3.org/2000/svg">
<path d="M25.4997 35.4913V45.1708L30.8981 54.4169L33.6937 45.1708L34.5613 21.5741C34.6256 20.4826 35.0433 19.5355 35.8145 18.7329C36.6178 17.9303 37.5497 17.529 38.6101 17.529C39.7348 17.529 40.6988 17.9303 41.5021 18.7329C42.3055 19.5034 42.6911 20.4505 42.6589 21.5741L41.7913 46.76L37.4533 61.0624C36.8428 63.0208 35.5896 64 33.6937 64H29.3557C27.8454 64 26.6565 63.2455 25.7889 61.7366L21.3545 54.1279L16.92 61.6403C15.9239 63.2134 14.735 64 13.3532 64H9.11162C8.17975 64 7.32821 63.7271 6.55701 63.1813C5.81794 62.6356 5.352 61.9935 5.1592 61.2551L0.917588 46.4229L0.00178519 21.5741C-0.0303483 20.5147 0.37132 19.5836 1.20679 18.781C2.04226 17.9463 3.02233 17.529 4.147 17.529C5.17527 17.529 6.07501 17.9142 6.84621 18.6847C7.64955 19.4231 8.06728 20.3863 8.09941 21.5741L9.01522 45.2671L11.6662 54.3205L17.3056 44.8819V35.4913C17.3056 34.3677 17.7073 33.4206 18.5106 32.6501C19.314 31.8475 20.2941 31.4462 21.4509 31.4462C22.5434 31.4462 23.4913 31.8475 24.2947 32.6501C25.098 33.4206 25.4997 34.3677 25.4997 35.4913Z" fill="#D6DE23"/>
<path d="M101.511 32.7464V42.5222C101.511 43.6137 101.11 44.5608 100.306 45.3634C99.503 46.166 98.5551 46.5673 97.4625 46.5673H68.8316V48.927C68.8316 50.3075 69.4261 51.4793 70.615 52.4424L72.9768 54.4169C74.2622 55.4121 75.4832 55.9097 76.6401 55.9097H97.4625C98.5551 55.9097 99.503 56.311 100.306 57.1136C101.11 57.8841 101.511 58.8312 101.511 59.9549C101.511 61.0464 101.094 61.9935 100.258 62.7961C99.4548 63.5987 98.5229 64 97.4625 64H76.1098C74.696 64 73.2018 63.7111 71.6272 63.1332C70.0848 62.5232 68.9441 61.8972 68.205 61.2551L64.59 58.0767C63.4653 57.1778 62.5174 55.9258 61.7462 54.3205C61.0071 52.7153 60.6376 51.2385 60.6376 49.8901V31.3499C60.6376 30.2904 61.0393 28.8618 61.8426 27.064C62.6781 25.2661 63.7224 23.8696 64.9756 22.8743L68.3496 20.2257C70.5668 18.4279 73.025 17.529 75.7242 17.529H87.0995C89.9594 17.529 92.6586 18.7168 95.1971 21.0925L98.2337 23.9819C100.419 25.9403 101.511 28.8618 101.511 32.7464ZM68.928 32.1204V38.3807H93.5101V32.7464C93.5101 31.2375 93.0442 30.0818 92.1123 29.2792L89.7505 27.2084C88.5294 26.2132 87.4369 25.7156 86.4729 25.7156H76.3026C75.0494 25.7156 73.9087 26.149 72.8804 27.0158L70.5186 28.9902C69.4582 29.7928 68.928 30.8362 68.928 32.1204Z" fill="#D6DE23"/>
<path d="M128.696 4.04515V23.067L132.263 20.2257C134.512 18.3637 136.842 17.4327 139.252 17.4327H146.675C149.406 17.4327 151.832 18.3637 153.953 20.2257L157.809 23.5485C158.87 24.4796 159.737 25.8119 160.412 27.5455C161.119 29.2792 161.472 30.9807 161.472 32.6501V49.0233C161.472 50.5001 161.151 52.0572 160.508 53.6945C159.866 55.3318 159.127 56.5357 158.291 57.3062L154.773 60.629C153.873 61.4959 152.587 62.2824 150.917 62.9887C149.246 63.6629 147.832 64 146.675 64H139.734C136.36 64 132.681 62.1219 128.696 58.3657V59.9549C128.696 61.0785 128.295 62.0416 127.491 62.8442C126.72 63.6147 125.772 64 124.647 64C123.523 64 122.559 63.6147 121.755 62.8442C120.984 62.0416 120.599 61.0785 120.599 59.9549V4.04515C120.599 2.92149 121 1.97442 121.804 1.20391C122.607 0.401304 123.555 0 124.647 0C125.772 0 126.72 0.401304 127.491 1.20391C128.295 1.97442 128.696 2.92149 128.696 4.04515ZM146.048 25.6193H140.457C139.107 25.6193 138.079 25.9243 137.372 26.5342L130.094 32.7464C129.162 33.5811 128.696 34.8332 128.696 36.5026V45.6524C128.696 47.0008 129.226 48.1244 130.287 49.0233L136.794 54.5132C137.726 55.38 138.706 55.8134 139.734 55.8134H146.337C147.269 55.8134 148.073 55.5245 148.748 54.9466L151.977 52.0572C152.845 51.4151 153.278 50.5001 153.278 49.3123V32.2649C153.278 30.9165 152.845 29.8891 151.977 29.1828L149.037 26.7269C148.137 25.9885 147.141 25.6193 146.048 25.6193Z" fill="#D6DE23"/>
<path d="M206.401 4.04515V23.067L209.968 20.2257C212.217 18.3637 214.547 17.4327 216.957 17.4327H224.38C227.111 17.4327 229.537 18.3637 231.658 20.2257L235.514 23.5485C236.575 24.4796 237.442 25.8119 238.117 27.5455C238.824 29.2792 239.177 30.9807 239.177 32.6501V49.0233C239.177 50.5001 238.856 52.0572 238.213 53.6945C237.571 55.3318 236.832 56.5357 235.996 57.3062L232.478 60.629C231.578 61.4959 230.292 62.2824 228.622 62.9887C226.951 63.6629 225.537 64 224.38 64H217.439C214.065 64 210.386 62.1219 206.401 58.3657V59.9549C206.401 61.0785 206 62.0416 205.196 62.8442C204.425 63.6147 203.477 64 202.352 64C201.228 64 200.264 63.6147 199.46 62.8442C198.689 62.0416 198.304 61.0785 198.304 59.9549V4.04515C198.304 2.92149 198.705 1.97442 199.509 1.20391C200.312 0.401304 201.26 0 202.352 0C203.477 0 204.425 0.401304 205.196 1.20391C206 1.97442 206.401 2.92149 206.401 4.04515ZM223.753 25.6193H218.162C216.812 25.6193 215.784 25.9243 215.077 26.5342L207.799 32.7464C206.867 33.5811 206.401 34.8332 206.401 36.5026V45.6524C206.401 47.0008 206.931 48.1244 207.992 49.0233L214.499 54.5132C215.431 55.38 216.411 55.8134 217.439 55.8134H224.043C224.974 55.8134 225.778 55.5245 226.452 54.9466L229.682 52.0572C230.55 51.4151 230.983 50.5001 230.983 49.3123V32.2649C230.983 30.9165 230.55 29.8891 229.682 29.1828L226.742 26.7269C225.842 25.9885 224.846 25.6193 223.753 25.6193Z" fill="#D6DE23"/>
<path d="M298.56 32.1204V49.2159C298.56 52.8437 296.841 56.1986 293.403 59.2807C289.996 62.3627 286.478 63.9037 282.847 63.9037H273.351C269.656 63.9037 266.121 62.3466 262.747 59.2325C259.373 56.0863 257.686 52.7474 257.686 49.2159V32.1204C257.686 28.5889 259.325 25.2661 262.603 22.152C265.912 19.0058 269.495 17.4327 273.351 17.4327H282.847C286.478 17.3684 289.996 18.8774 293.403 21.9594C296.841 25.0414 298.56 28.4284 298.56 32.1204ZM265.88 32.4575V48.8307C265.88 50.3075 266.41 51.4793 267.471 52.3461L270.507 54.9466C271.182 55.5245 272.13 55.8134 273.351 55.8134H282.75C284.132 55.8134 285.385 55.3158 286.51 54.3205L288.968 52.1535C289.964 51.383 290.462 50.3075 290.462 48.927V32.5538C290.462 30.9486 289.964 29.7607 288.968 28.9902L286.124 26.7269C285.16 25.9243 284.036 25.5229 282.75 25.5229H274.363C272.532 25.5229 271.118 25.9564 270.122 26.8232L267.374 29.1828C266.378 30.0176 265.88 31.1091 265.88 32.4575Z" fill="#D6DE23"/>
<path d="M328.781 17.529H347.339C350.231 17.529 352.785 18.3958 355.002 20.1294C357.22 21.8309 358.328 23.5004 358.328 25.1377C358.328 26.2935 357.91 27.2405 357.075 27.9789C356.272 28.7173 355.372 29.0865 354.376 29.0865C353.09 29.0865 351.918 28.5087 350.857 27.3529C349.797 26.1971 348.688 25.6193 347.531 25.6193H329.215C327.416 25.6193 326.516 26.3737 326.516 27.8826C326.516 28.9421 327.111 29.7447 328.299 30.2904L349.845 39.8254C352.03 40.7886 353.813 42.3456 355.195 44.4966C356.609 46.6155 357.316 48.9752 357.316 51.5756C357.316 55.0429 356.079 57.9804 353.605 60.3883C351.162 62.7961 348.383 64 345.266 64H328.878C326.05 64 323.415 63.1492 320.973 61.4477C318.563 59.7462 317.358 58.0928 317.358 56.4876C317.358 55.4281 317.744 54.4971 318.515 53.6945C319.318 52.8598 320.346 52.4424 321.6 52.4424C322.628 52.4424 323.72 53.0203 324.877 54.1761C326.066 55.3318 327.769 55.9097 329.986 55.9097H345.073C346.262 55.9097 347.258 55.4602 348.062 54.5613C348.865 53.6303 349.267 52.5709 349.267 51.383C349.267 49.553 348.367 48.2368 346.567 47.4342L324.829 37.6584C322.74 36.7274 321.134 35.379 320.009 33.6132C318.884 31.8475 318.322 30.0497 318.322 28.2197C318.322 25.3303 319.318 22.8262 321.31 20.7073C323.335 18.5884 325.825 17.529 328.781 17.529Z" fill="#D6DE23"/>
<path d="M388.453 17.529H407.01C409.902 17.529 412.457 18.3958 414.674 20.1294C416.891 21.8309 418 23.5004 418 25.1377C418 26.2935 417.582 27.2405 416.747 27.9789C415.943 28.7173 415.044 29.0865 414.048 29.0865C412.762 29.0865 411.589 28.5087 410.529 27.3529C409.469 26.1971 408.36 25.6193 407.203 25.6193H388.887C387.088 25.6193 386.188 26.3737 386.188 27.8826C386.188 28.9421 386.782 29.7447 387.971 30.2904L409.517 39.8254C411.702 40.7886 413.485 42.3456 414.867 44.4966C416.281 46.6155 416.988 48.9752 416.988 51.5756C416.988 55.0429 415.751 57.9804 413.276 60.3883C410.834 62.7961 408.055 64 404.938 64H388.55C385.722 64 383.087 63.1492 380.645 61.4477C378.235 59.7462 377.03 58.0928 377.03 56.4876C377.03 55.4281 377.415 54.4971 378.187 53.6945C378.99 52.8598 380.018 52.4424 381.271 52.4424C382.3 52.4424 383.392 53.0203 384.549 54.1761C385.738 55.3318 387.441 55.9097 389.658 55.9097H404.745C405.934 55.9097 406.93 55.4602 407.733 54.5613C408.537 53.6303 408.938 52.5709 408.938 51.383C408.938 49.553 408.039 48.2368 406.239 47.4342L384.501 37.6584C382.412 36.7274 380.806 35.379 379.681 33.6132C378.556 31.8475 377.994 30.0497 377.994 28.2197C377.994 25.3303 378.99 22.8262 380.982 20.7073C383.007 18.5884 385.497 17.529 388.453 17.529Z" fill="#D6DE23"/>
</svg>
