<svg xmlns="http://www.w3.org/2000/svg" viewBox="0 0 1000 1000"><title>Nigeria-Logo</title><path d="M130.34,917.89H91.61l.5-18.61V783a147.41,147.41,0,0,0-1-15.63,31,31,0,0,0-1.63-7.26A39.87,39.87,0,0,0,86,754.5l2-5.33h42.88l47.26-.75a31.22,31.22,0,0,1,5.2,14.83,35.85,35.85,0,0,1-1.94,15.94h-5.89q-1.14-5.46-8.4-9.3a36.08,36.08,0,0,0-15.42-4.22l-22.57-1q-1.64,29.28-1.63,58.18h32.09q3.88,0,6-.12a19.52,19.52,0,0,0,5.21-1.24,14.23,14.23,0,0,0,5.2-3.23,48.19,48.19,0,0,1,.87,8.68q0,15.76-23.44,15.76-4.77,0-13.54-.25t-12.66-.25q-.12,16.5.38,36.23l.37,19.85.63,7.94A51,51,0,0,0,130.34,917.89Z" style="fill:#11237d"/><path d="M244.94,862.56q0,35.48,2.76,55.33h-36l1.38-86.59a65.14,65.14,0,0,0-1.38-14.08,32.9,32.9,0,0,0-3.14-9.12,20.55,20.55,0,0,0-3.89-4.9,11.2,11.2,0,0,0-3.25-2.3,6.19,6.19,0,0,0-1.51-.37v-4.59Q214.6,787,227.64,787q18.56,0,18.55,24.19,0,3.72-.62,12.59c-.42,5.92-.63,10.52-.63,13.83ZM208.71,754.5A16.93,16.93,0,0,1,214,741.91a17.48,17.48,0,0,1,12.67-5.15,16.39,16.39,0,0,1,12.09,5.15,17.23,17.23,0,0,1,5.08,12.59,16.19,16.19,0,0,1-5.08,12,16.68,16.68,0,0,1-12.09,5,17.8,17.8,0,0,1-12.67-5A15.93,15.93,0,0,1,208.71,754.5Z" style="fill:#11237d"/><path d="M406.67,908v5.58q-15.17,7.68-28.2,7.69a24.94,24.94,0,0,1-12.41-3.66,22.06,22.06,0,0,1-9.41-10.36q-16.66,14-34.6,14a53.93,53.93,0,0,1-19.37-3.47A51.57,51.57,0,0,1,286,907.28q-7.59-7-12-19.1t-4.39-28a87,87,0,0,1,2.57-20.84,79.61,79.61,0,0,1,8-20A77.3,77.3,0,0,1,293,802.27a55.15,55.15,0,0,1,18.05-11.85A58.65,58.65,0,0,1,333.84,786,62.46,62.46,0,0,1,346,787.44q7,1.42,7,1.92,0-7.82-.13-14.45t-.37-12.1a70.36,70.36,0,0,0-1.07-9.73,35.46,35.46,0,0,0-2.19-7.45,15.14,15.14,0,0,0-9.53-8.62v-4.59l3.51-1.86a48.21,48.21,0,0,1,9.9-3.85,44,44,0,0,1,12.29-1.86,36.19,36.19,0,0,1,9.28,1,15.26,15.26,0,0,1,6.58,3.85,17.15,17.15,0,0,1,4.32,8.31A58.72,58.72,0,0,1,387,752v3.23q0,2.24-.62,16.87T385.05,808q-.69,21.22-.69,39.58,0,10.55.12,17.3t.51,13.53a105.32,105.32,0,0,0,1,10.6,53.87,53.87,0,0,0,1.82,7.63,15.69,15.69,0,0,0,2.69,5.52,16.41,16.41,0,0,0,3.95,3.23,15.13,15.13,0,0,0,5.33,2A51.82,51.82,0,0,0,406.67,908Zm-71.33-5.09q10.16,0,16.67-4.59l.26-29.16V805.86q-13.8-3.35-20.56-3.35a21.12,21.12,0,0,0-13.8,4.84A30.09,30.09,0,0,0,309,820a82.47,82.47,0,0,0-4.38,15.69,92.58,92.58,0,0,0-1.38,15.88q0,24.19,8.9,37.77T335.34,902.88Z" style="fill:#11237d"/><path d="M519.27,847.05,517,848q-6.39,2.49-17.3,2.49l-56.91-.75c.16,1.9.25,5.05.25,9.43q.49,18.48,11.22,29t23.88,10.55A55.44,55.44,0,0,0,501,893.57q11.6-5.21,20.37-18.11a28.54,28.54,0,0,1,0,15.45,29.61,29.61,0,0,1-7.46,12.78,53,53,0,0,1-12.85,9.42,65.8,65.8,0,0,1-16.3,6.08,77.24,77.24,0,0,1-17.67,2,62.31,62.31,0,0,1-21.25-3.54A54.19,54.19,0,0,1,428,907q-8-7.12-12.72-19.16t-4.83-27.67q0-20.46,7.08-37.09T438,796.74A50.49,50.49,0,0,1,468.5,787a62.85,62.85,0,0,1,18.11,2.42,45.89,45.89,0,0,1,13.29,6.07,37.82,37.82,0,0,1,9,9,50.54,50.54,0,0,1,5.76,10,52,52,0,0,1,3,10.48,91,91,0,0,1,1.32,9.18c.17,2.28.25,4.61.25,7Zm-52.4-44.54a15.91,15.91,0,0,0-9.16,2.73,21.37,21.37,0,0,0-6.76,8,67.46,67.46,0,0,0-4.58,11,122.59,122.59,0,0,0-3.32,13.58q7.4-.12,22.31-.74t23.07-.75a61.91,61.91,0,0,0-1.38-11.85,47.35,47.35,0,0,0-3.76-10.85,21.41,21.41,0,0,0-6.77-8.13A16.26,16.26,0,0,0,466.87,802.51Z" style="fill:#11237d"/><path d="M584.85,917.89h-36q.75-39,.75-72.2l.63-79.77q0-12.54-4.07-20T537.09,737v-4.59l3.51-1.86a51.35,51.35,0,0,1,10.15-3.85,45.7,45.7,0,0,1,12.54-1.86q12,0,16.55,6.21t4.51,19.1q0,7.82-.75,17.87Q582,795.2,582,834.77v32.38q0,13.89.63,26.92A236.37,236.37,0,0,0,584.85,917.89Z" style="fill:#11237d"/><path d="M653.57,862.56q0,35.48,2.76,55.33h-36l1.39-86.59a64.48,64.48,0,0,0-1.39-14.08,32.62,32.62,0,0,0-3.13-9.12,20.55,20.55,0,0,0-3.89-4.9,11.08,11.08,0,0,0-3.26-2.3,6,6,0,0,0-1.5-.37v-4.59Q623.23,787,636.27,787q18.56,0,18.55,24.19,0,3.72-.62,12.59c-.42,5.92-.63,10.52-.63,13.83ZM617.34,754.5a16.93,16.93,0,0,1,5.26-12.59,17.47,17.47,0,0,1,12.66-5.15,16.41,16.41,0,0,1,12.1,5.15,17.23,17.23,0,0,1,5.08,12.59,16.19,16.19,0,0,1-5.08,12,16.7,16.7,0,0,1-12.1,5,17.79,17.79,0,0,1-12.66-5A15.93,15.93,0,0,1,617.34,754.5Z" style="fill:#11237d"/><path d="M731.55,768.52l-2.89,21.09h24a38.49,38.49,0,0,0,8.08-.93q4.34-.93,5.46-3.16a22.07,22.07,0,0,1,.75,6.08q0,15.25-22.06,15.26-2,0-8.34-.38t-8.59-.37V863.3c-.08,2.4-.08,4.93,0,7.57s.19,5.27.31,7.88a31,31,0,0,0,1.26,7.44,26.84,26.84,0,0,0,2.69,6.21,11.85,11.85,0,0,0,4.7,4.28,15.39,15.39,0,0,0,7.21,1.61,55.66,55.66,0,0,0,16.18-2.55c5.59-1.69,9.11-3.94,10.53-6.76a16.47,16.47,0,0,1-1.38,15.57q-4.63,7.63-14.48,12.16a49.91,49.91,0,0,1-21.13,4.53q-11.77,0-19.49-2.73a23.31,23.31,0,0,1-11.72-8.43,34.36,34.36,0,0,1-5.52-12.84,87.79,87.79,0,0,1-1.5-17.68q0-9.43,1.25-28t1.25-27.17q0-14.64-2.25-17.49A28.3,28.3,0,0,0,683,797.67l1.25-7.56a12.48,12.48,0,0,0,3-.5,40.86,40.86,0,0,0,5.83-2.29,32,32,0,0,0,8.78-6.64A59.89,59.89,0,0,0,711,768.52Z" style="fill:#11237d"/><path d="M851.1,917.64l-3-1.24a20.66,20.66,0,0,1-6.7-4.65,18.49,18.49,0,0,1-5.08-8.13L813.87,833a92.88,92.88,0,0,0-5.45-14,62.34,62.34,0,0,0-5.65-9.62,42.07,42.07,0,0,0-5.07-5.71,27.38,27.38,0,0,0-3.77-3,7.38,7.38,0,0,0-1.87-.87l-.26-4.59a47.7,47.7,0,0,1,11.22-5.7A36,36,0,0,1,815.5,787q10.79,0,15.79,5.08t8,16.25q2.5,14.4,20.06,63l3.07,6.26q2.82,5.77,3.07,6.52l1.25-5.21a64.24,64.24,0,0,1,2.64-8.81l16.17-45.78q3.51-9.79,3.51-16t-4.26-8.56l-.51-4.59A33.93,33.93,0,0,1,905,787q9,0,9,9.43,0,6.57-6.4,22.33L856.49,943.32q-2.76,6.7-4.64,10.86T847,964a44,44,0,0,1-6.07,9,65.81,65.81,0,0,1-7.21,6.7,26.1,26.1,0,0,1-9.28,4.84A40.56,40.56,0,0,1,813.12,986q-11.54,0-18.12-8.68t-4-21.59q2.51,3.1,8.09,5.09a33.35,33.35,0,0,0,11.22,2q9.52,0,16.23-3.53a20,20,0,0,0,9.47-10.12l12-26.17Z" style="fill:#11237d"/><path d="M771.55,15.77A106.48,106.48,0,0,0,752.17,14H146.29a5.45,5.45,0,0,0-5.44,5.44V527.51A106.75,106.75,0,0,0,164,593.93c174.9-67.7,482.33-304.16,621-574.8A104.93,104.93,0,0,0,771.55,15.77Z" style="fill:#11237d"/><path d="M859.15,121V629.05a5.45,5.45,0,0,1-5.44,5.44H247.83a106.89,106.89,0,0,1-46.46-10.58C379.51,552.6,687.92,312.78,822.56,40.44A106.61,106.61,0,0,1,859.15,121Z" style="fill:#4dc247"/></svg>