<svg id="Layer_1" data-name="Layer 1" xmlns="http://www.w3.org/2000/svg" viewBox="0 0 834 126"><defs><style>.cls-4{fill:#503863}</style></defs><path d="M785 564c-3.35-3.58-7.27-6.77-9.92-10.8C769 544 763.6 534.49 758 525.05c-4.88-8.21-11.64-10.76-21-7.55v32.83c0 10.98-1.06 11.93-12.07 11.66-1.8 0-3.59-.2-6.1-.35v-8.15-99c0-1.5 0-3 .13-4.5.39-6.27 2.11-8.26 8.26-7.94 13.78.71 27.56 1.57 41.31 2.79 20 1.77 30.84 19.23 29.85 38.78-.74 14.61-9.27 23.7-22 29.5-2.84 1.3-5.74 2.48-9.19 4l29.95 44.74L793 564zm-48.15-51.5c12.79 1.24 24.71.63 34.36-8 11.38-10.16 13.87-25 7.26-38.64-6.77-14-21.21-22-35.78-20-3.7.51-5.82 2.29-5.82 6.11-.03 19.98-.02 39.96-.02 60.53z" transform="translate(-84 -438)" fill="#4e3662"/><path d="M145 438c3.93 1 7.91 1.79 11.78 3 15 4.66 17.67 9 15.86 25.38-3.52-4.06-6.56-8.16-10.19-11.65-8.9-8.55-19.39-13.12-31.28-7.51a35 35 0 0 0-14 12.17c-16.26 25.67-18.8 52.46-4.23 79.92 6 11.27 14.66 18.4 28.17 17.85 5.91-.24 9.73-2.42 11-8.25a165.25 165.25 0 0 0 2.76-22.17c.28-3.55-2.08-6-5.58-6.65s-6.93-.81-10.39-1.25c-2-.26-4-.65-6-1l.18-1.44h49.36l.27 1.12-10.71 2.85c0 8.71.32 17.38-.19 26-.16 2.69-1.89 6.5-4.05 7.69-36.14 19.85-68.87 1.59-80.14-26.51-1.38-3.44-2.42-7-3.62-10.54v-4-10-5l3.07-11.2c6.87-25 21.31-42.37 48-47.38 1.69-.32 3.31-.93 5-1.41z" transform="translate(-84 -438)" fill="#0b316b"/><path d="M325 438c4.38 1.24 6.09 4.65 7.64 8.6q20.75 52.85 41.75 105.61c1.21 3.06 2.22 6.2 3.52 9.87-5.56-.44-10.53-.68-15.46-1.25-5.2-.6-8.22-4.2-10.19-8.61s-3.57-9.3-5.4-13.93c-2.47-6.29-6.86-9.35-13.86-9.19-11.63.26-23.26.07-35.27.07-2.24 7.68-4.39 15.34-6.72 23-2.19 7.13-5.73 9.41-13.46 8.52 2.57-7.94 5-15.8 7.64-23.6 9.95-29.76 19.83-59.53 30.06-89.19 1.25-3.63 4.43-6.58 6.72-9.85zm-25.94 85.7h44.05C335 502.54 327 481.71 319 460.91c-.32-.82-1.91-2-2.3-1.78a4.7 4.7 0 0 0-2.3 2.61c-5.17 20.54-10.21 41.1-15.34 61.96z" transform="translate(-84 -438)" fill="#0a306a"/><path class="cls-4" d="M622 564a58.78 58.78 0 0 0-7.62-.95c-8.65 0-14.62-3.63-17.5-12-1.57-4.55-3.42-9-5-13.56s-4.73-7-9.71-7c-11.64.05-23.29-.11-34.93.16a6 6 0 0 0-4.31 3.28c-2.24 6.24-4 12.66-5.84 19-2.1 7.26-5.09 9.48-13.64 9.48.84-2.76 1.58-5.38 2.44-8q17.5-52.49 35-105c.37-1.1.77-2.2 1.14-3.3 1.31-3.86 3.78-6 8.06-6.16s6.16 2.5 7.54 6q15.11 38.23 30.25 76.44c4.52 11.43 9.11 22.83 13.52 34.3.87 2.25 1 4.77 1.55 7.17zm-32.83-38.34C581 504.37 573 483.54 565 462.75c-.33-.86-1.79-2.15-2.14-2a4.83 4.83 0 0 0-2.58 2.48c-1.4 4.93-2.49 9.94-3.72 14.92-3.88 15.71-7.77 31.42-11.74 47.49zM918 464l-2.16 4.67c-1.52-2.06-2.71-3.9-4.13-5.55-3.55-4.16-6.72-8.81-10.9-12.22-9.68-7.92-21.6-6.74-29.75 2.89-20.71 24.48-23.3 55.76-11.67 82.42 8.11 18.59 30.32 24.71 43.84 16.25a6.84 6.84 0 0 1 2.3-.46l.92 1.38c-3.16 2.21-6.11 4.83-9.53 6.51-3.76 1.84-7.94 2.79-11.94 4.13H875l-8.73-2.9A50.13 50.13 0 0 1 832 516.41a106.71 106.71 0 0 1 7.5-46.41c7.83-19.59 24.1-27.48 44.05-28.72 5.87-.36 11.94.66 17.76 1.86 7.44 1.54 14.06 4.75 16.69 12.83V464z" transform="translate(-84 -438)"/><path d="M632 564V450.61c0-6 2.64-8.54 8.63-8.57 19.31-.11 38.62-.15 57.94 0 8.84.07 12.33 4.07 11.91 12.89-.1 2.08-.47 4.14-.84 7.29-10.24-15-25.64-14.5-40.27-16.07-4-.43-7.94-.94-11.93-1.07-4.92-.16-8.12 2.23-8.19 6.81-.23 15.94-.09 31.88-.09 48.4h39.38c1.53 4.65-1.52 4.58-3.9 4.63-8.15.14-16.31.22-24.46.07-9.24-.17-11.21 1.6-11.22 10.81 0 13.32-.11 26.64.06 40 .05 4-.6 7.19-5.07 8.24z" transform="translate(-84 -438)" fill="#4c3460"/><path d="M806 564c0-38-.12-76 0-114 0-6.67 1.9-8.2 8.45-8.2 2.82 0 5.64.23 8.83.38.11 1.64.29 3.09.29 4.54v106.97c0 4.83-1.56 8.62-6.54 10.27z" transform="translate(-84 -438)" fill="#533d67"/><path d="M507 559.93c-.92.11-1.57.16-2.21.26-12.75 2.1-14.75-.88-14.64-14 .22-26 .22-52 .29-77.95a21.43 21.43 0 0 0-.6-3c-1.14 2.23-1.94 3.52-2.49 4.92-10.77 27.18-21.41 54.41-32.38 81.51-1.27 3.13-3.74 6.63-6.61 8.09-6.95 3.55-12.59.57-15-6.95q-12.74-40.13-25.45-80.27a21.72 21.72 0 0 0-4.57-8.24q-2.65 19.87-5.34 39.7c-2.29 17-4.5 34-7 50.93-.38 2.57-2 5-3.06 7.44l-2-.64 3.91-121.59c4.46 0 8.72-.17 13 0 5.35.26 7.58 4.09 9.17 8.57q10.45 29.34 21 58.65c5.14 14.33 10.33 28.65 15.91 44.09 1-2.23 1.68-3.42 2.14-4.67q17.73-47.36 35.43-94.73c4.45-11.88 7.62-13.56 20.55-11C507 480.51 507 520 507 559.93z" transform="translate(-84 -438)" fill="#0d326c"/><path d="M190.39 560.55V441.34a3.88 3.88 0 0 1 .89-.46c14.08-2.93 16.64-.76 16.61 13.3-.08 33.3 0 66.61 0 99.91v2.8c21-2 42.83 2.59 61.4-12.7.15 1.72.26 2.49.28 3.26.38 12.22-.43 13.08-12.59 13.09h-60.95z" transform="translate(-84 -438)" fill="#0e346d"/></svg>