<svg id="Layer_1" data-name="Layer 1" xmlns="http://www.w3.org/2000/svg" viewBox="0 0 796.05 286.58"><defs><style>.cls-2{fill:#fe0101}</style></defs><path d="M606.85 486.53v-2.52-89.41a160.39 160.39 0 0 0-.92-18.44c-1.44-12.14-7.85-17.93-20.13-19-5.87-.51-11.73-1.18-17.76-1.79v-4.24h211.84v4.36c-3.75.19-7.52.25-11.27.61a64.7 64.7 0 0 0-8.44 1.46 4.58 4.58 0 0 0-3.78 5c.22 2.89.43 6 1.66 8.56 2.83 5.82 6.2 11.39 9.5 17 6.39 10.82 12.88 21.57 19.46 32.59a13.21 13.21 0 0 0 1.42-1.36c10.38-13.62 20.89-27.15 31-41a32.65 32.65 0 0 0 4.92-11.47c1.47-6.1-1.57-9.73-7.81-10.32-5.44-.52-10.9-.9-16.53-1.36v-4.06h75.62v4.32c-2.63.16-5.3.36-8 .49-12.41.58-23.29 4.63-31.53 14.29q-15.94 18.67-31.66 37.53c-4.33 5.18-8.43 10.55-12.77 15.72-1.24 1.48-1.32 2.47-.3 4.11 17.63 28.4 35.14 56.8 52.81 85.14 7 11.23 14.38 22.22 21.54 33.35 6.48 10.08 15.92 14.66 27.63 15.18 1.51.07 3 .32 4.62.5v4.34H762v-4.33c3.51-.16 7-.17 10.54-.54a32.22 32.22 0 0 0 7.62-1.61c3.89-1.42 5.86-4.67 4.68-8.66a60.14 60.14 0 0 0-5.57-13.72c-11.16-18.77-22.66-37.34-34-56-.17-.28-.4-.53-.75-1-3.41 4.4-6.8 8.66-10.07 13-11.56 15.37-23.15 30.72-34.54 46.23a30.83 30.83 0 0 0-4.48 9.26c-2 6.54 1.31 11 8 11.55 6 .51 12.09 1 18.27 1.52v4.27h-80.78v-4.17c3.79-.17 7.55-.37 11.32-.5 14.55-.5 25.49-7.57 34.5-18.52q26.62-32.36 53.51-64.5c1.47-1.76 1.46-2.91.29-4.76-19.39-30.94-38.59-62-58.12-92.85a96.55 96.55 0 0 0-13.59-17.2c-7.15-7-16.6-8.05-26.22-7.33-3.28.25-6.54.74-9.8 1.16-10.67 1.39-17.07 7.09-18.7 17.83a136.09 136.09 0 0 0-1.11 20.21q-.13 83.71 0 167.43v3.44h-33.64a4.26 4.26 0 0 1-3.8-1.84q-61.27-78.4-122.6-156.75-7.49-9.57-15-19.14c-.49-.62-1-1.2-1.94-2.21a18.74 18.74 0 0 0-.33 2.19q0 69.4.11 138.8a87 87 0 0 0 1.47 17.63c2 9.37 7.9 14 17.41 14.82 3.28.3 6.54.72 9.81 1s6.54.59 10 .9v4.39h-84.85V562c5-.55 10.13-1 15.19-1.69 3.68-.47 7.34-1.07 11-1.74a12.88 12.88 0 0 0 10.09-8.33 47.84 47.84 0 0 0 3-11.67 139.57 139.57 0 0 0 .59-15.93q.06-65.22 0-130.45c0-4.89-.29-9.79-.47-14.68a3.34 3.34 0 0 0-.43-1.67c-6.28-9.34-13.8-17.26-25.4-19.43-4.92-.92-10.08-.57-15.13-.8h-1.42V351h110.31a4.49 4.49 0 0 1 4 1.93q51.55 65.91 103.19 131.75c.63.8 1.37 1.51 2.06 2.26z" transform="translate(-101.93 -347.98)" fill="#4d4d4d"/><path class="cls-2" d="M294.61 464.85c5.25-8.23 10.85-16.85 16.27-25.57 12.59-20.25 39.84-18.56 53.35-9 12.08 8.52 18.43 20 19.78 34.55 2.26 24.27-5.91 45.42-19.58 64.88-9.49 13.51-20.76 25.11-35.92 32.28-13.43 6.36-27.5 8.94-42.31 6.42a27 27 0 0 1-3.18-.8c-11.5-3.44-16.14-9.47-16.54-21.5a5.09 5.09 0 0 0-.44-2.28c-.08.23-.14.47-.23.69-9 21.78-18.07 43.53-27 65.34a71.82 71.82 0 0 0-3.45 10.82c-1.06 4.5-.19 8.38 6 8.68s12.45.71 18.85 1.08v4.16H147.48v-4.29c4.25-.52 8.55-1.13 12.87-1.55 7-.68 12.77-3.76 16-10 5-9.46 9.8-19 14-28.85q28.37-67.11 56.27-134.43a133 133 0 0 0 4.86-14.8c.71-2.48.54-5.32-1.76-6.94s-5-.74-6.89.75c-4 3.14-8.19 6.33-11.54 10.15a155.43 155.43 0 0 0-23.65 35.45c-.14.3-.35.57-.64 1l-4-1.44c1.94-3.68 3.72-7.25 5.67-10.73 6.54-11.66 13.76-22.88 23.29-32.34 10.09-10 22.23-14.72 36.58-12.67 13.88 2 22.57 10.44 24.74 24.54.85 5.55.94 11.34 1.33 16.4zm-23.56 82.85c0 1-.07 2 0 3 .61 7.84 7.41 11.58 14.07 7.36a22.16 22.16 0 0 0 6.68-7.05c17.88-29.17 31.14-60.42 41.26-93 2.09-6.74 4-13.62 2.89-20.86-.93-6-4.92-8.39-10.33-5.58a32.42 32.42 0 0 0-8.81 7 100.1 100.1 0 0 0-16.43 25.09A556.92 556.92 0 0 0 276 524.58c-2.45 7.52-4.77 15.1-4.95 23.12z" transform="translate(-101.93 -347.98)"/><path class="cls-2" d="M192.6 518.17l3.57 2c-8.33 13.07-16 26.37-26.61 37.61-6.52 6.94-15.12 9.9-24.39 11a52.29 52.29 0 0 1-18.38-.59c-12.19-2.84-20.41-12.76-22-25.72-1.35-11.08 1.27-21.31 6-31.09 8.11-16.84 16.51-33.55 24.7-50.35 2.88-5.9 5.53-11.91 8.17-17.93a16.52 16.52 0 0 0 1.61-5.55c.09-1.6-.27-4-1.32-4.68a6 6 0 0 0-5.11 0 34 34 0 0 0-7.52 5.47 128.09 128.09 0 0 0-23.91 31.54c-.44.8-.91 1.59-1.42 2.49-.7-.22-1.34-.39-2-.61s-1.23-.5-2.1-.87c7.93-13.4 15.46-26.93 27.38-37.14a41.51 41.51 0 0 1 32.92-10.09c16.28 2 26.29 13.56 27.23 30.44a51 51 0 0 1-3.3 21.07c-6.82 18.11-15.81 35.15-25.18 52-3.84 6.91-7.21 14.08-10.66 21.2a22.16 22.16 0 0 0-1.68 5.54c-.82 4.36 2.49 7.74 6.73 6.5a21.42 21.42 0 0 0 8.22-4.17 89.88 89.88 0 0 0 11.74-12.49c5.17-6.85 9.74-14.16 14.55-21.28.98-1.31 1.81-2.77 2.76-4.3zM190.15 348c16.52 0 28.24 11.27 28.24 27.18 0 15.39-12.48 27.52-28.32 27.53s-27.92-11.77-27.9-27.46S174 348 190.15 348z" transform="translate(-101.93 -347.98)"/></svg>