<svg width="125" height="40" viewBox="0 0 125 40" fill="none" xmlns="http://www.w3.org/2000/svg">
<path opacity="0.7" d="M0 12.7V28.1H8.52053L0 12.7Z" fill="#5D2ECE"/>
<path opacity="0.7" d="M12.8776 5L0 12.7H17.1379L12.8776 5Z" fill="#5D2ECE"/>
<path d="M25.7546 12.7L12.877 5L17.1372 12.7H25.7546Z" fill="#5D2ECE"/>
<path opacity="0.7" d="M12.8776 35.8001L25.7552 28.1001H8.52051L12.8776 35.8001Z" fill="#5D2ECE"/>
<path opacity="0.7" d="M17.1387 12.7L25.756 28.0999V12.7H17.1387Z" fill="#5D2ECE"/>
<path d="M0 28.1L12.8776 35.8L8.52053 28.1H0Z" fill="#5D2ECE"/>
<path d="M69.6168 28.0999H65.9375V18.8999C65.9375 15.4999 68.6486 12.5999 72.0374 12.5999H73.8771V16.3999H72.0374C70.6819 16.3999 69.6168 17.4999 69.6168 18.8999V28.0999Z" fill="#5D2ECE"/>
<path d="M101.278 28.3C97.1144 28.3 93.7256 24.7 93.7256 20.4C93.7256 16 97.1144 12.5 101.278 12.5C105.441 12.5 108.83 16.1 108.83 20.4C108.83 24.8 105.441 28.3 101.278 28.3ZM101.278 16.3C99.1477 16.3 97.308 18.2 97.308 20.4C97.308 22.6 99.0509 24.5 101.278 24.5C103.408 24.5 105.151 22.6 105.151 20.4C105.151 18.2 103.408 16.3 101.278 16.3Z" fill="#5D2ECE"/>
<path d="M84.237 12.4999H81.3323V16.2999H84.237C86.3671 16.2999 88.2068 18.1999 88.2068 20.3999C88.2068 22.5999 86.4639 24.4999 84.237 24.4999H83.5592C81.4291 24.4999 79.5894 22.5999 79.5894 20.3999V5.19995H76.0069V20.3999C76.0069 24.7999 79.3958 28.2999 83.5592 28.2999H84.237C88.4004 28.2999 91.7893 24.6999 91.7893 20.3999C91.7893 15.9999 88.4004 12.4999 84.237 12.4999Z" fill="#5D2ECE"/>
<path d="M125 28.0999H121.32V19.3999C121.32 17.5999 119.868 16.1999 118.222 16.1999H117.641C115.898 16.1999 114.543 17.6999 114.543 19.3999V28.0999H110.863V19.3999C110.863 15.4999 113.865 12.3999 117.641 12.3999H118.125C121.901 12.3999 124.903 15.4999 124.903 19.3999V28.0999H125Z" fill="#5D2ECE"/>
<path d="M46.2816 28.0999H41.3436C37.4706 28.0999 34.2754 24.7999 34.2754 20.7999V20.1999C34.2754 16.1999 37.4706 12.8999 41.3436 12.8999H46.2816V16.6999H41.3436C39.5039 16.6999 37.9547 18.2999 37.9547 20.2999V20.8999C37.9547 22.8999 39.5039 24.4999 41.3436 24.4999H46.2816V28.0999Z" fill="#5D2ECE"/>
<path d="M63.7099 28.1H60.0306V20.4C60.0306 18.1 58.191 16.2 55.964 16.2C53.3497 16.2 51.7037 18.2 51.7037 20C51.7037 20.2 51.7037 20.5 51.7037 20.6C51.7037 22.6 53.2529 24.2 55.0926 24.2H58.2878V28H55.0926C51.2196 28 48.0244 24.7 48.0244 20.7V20.1C48.0244 15.9 51.6069 12.5 55.964 12.5C60.2243 12.5 63.6131 16.1 63.6131 20.4V28.1H63.7099Z" fill="#5D2ECE"/>
</svg>
