<?xml version="1.0" standalone="no"?>
<!DOCTYPE svg PUBLIC "-//W3C//DTD SVG 20010904//EN"
 "http://www.w3.org/TR/2001/REC-SVG-20010904/DTD/svg10.dtd">
<svg version="1.0" xmlns="http://www.w3.org/2000/svg"
 width="312.000000pt" height="161.000000pt" viewBox="0 0 312.000000 161.000000"
 preserveAspectRatio="xMidYMid meet">

<g transform="translate(0.000000,161.000000) scale(0.100000,-0.100000)"
fill="#000000" stroke="none">
<path d="M0 805 l0 -805 1560 0 1560 0 0 805 0 805 -1560 0 -1560 0 0 -805z
m598 618 c-21 -2 -55 -2 -75 0 -21 2 -4 4 37 4 41 0 58 -2 38 -4z m-184 -25
c-8 -12 -94 -10 -94 2 0 7 20 10 49 9 28 -2 48 -6 45 -11z m-10 -43 c39 -5 61
-4 71 5 12 10 39 10 127 1 62 -6 133 -13 158 -15 25 -1 -34 -3 -131 -4 -97 -1
-198 -4 -225 -7 -35 -4 -43 -3 -29 4 18 9 18 10 -5 10 -15 1 -31 -4 -38 -11
-9 -9 -12 -9 -12 0 0 7 6 12 13 12 8 0 7 4 -3 11 -13 9 -13 10 1 6 9 -3 41 -8
73 -12z m43 9 c-3 -3 -12 -4 -19 -1 -8 3 -5 6 6 6 11 1 17 -2 13 -5z m448 -5
c-39 -7 -38 -8 11 -5 48 3 52 1 52 -21 0 -18 -4 -21 -13 -13 -7 6 -37 13 -66
16 -30 3 -63 9 -74 14 -11 5 -27 11 -35 13 -8 3 26 5 75 5 72 -1 82 -2 50 -9z
m-56 -45 c3 -3 -92 -4 -211 -3 -198 1 -218 -1 -258 -20 -48 -23 -61 -21 -53
10 5 16 11 19 32 14 15 -3 38 -2 52 3 24 9 429 5 438 -4z m101 -17 c0 -5 -10
-7 -22 -3 -13 3 -28 6 -34 6 -6 0 -11 6 -11 14 0 10 7 11 34 3 18 -6 33 -15
33 -20z m-742 -32 c-1 -14 -6 -25 -10 -25 -4 0 -8 11 -8 25 0 14 4 25 10 25 5
0 9 -11 8 -25z m73 -15 c5 0 9 7 9 15 0 8 5 15 10 15 17 0 11 -23 -14 -54 -28
-34 -40 -22 -29 31 5 29 8 33 11 16 2 -13 8 -23 13 -23z m766 28 c-13 -8 -13
-8 20 -12 25 -3 44 -16 24 -16 -7 0 -9 -5 -5 -11 4 -8 9 -7 15 2 6 11 11 11
21 1 9 -9 9 -12 0 -12 -7 0 -12 -4 -12 -10 0 -5 4 -9 10 -7 5 1 21 -11 36 -28
18 -21 24 -24 19 -11 -6 19 -5 19 15 1 11 -10 20 -26 20 -35 0 -24 57 -134 63
-123 3 5 4 18 2 29 -2 10 -4 23 -4 27 -1 5 -5 6 -9 3 -5 -3 -16 7 -25 23 l-16
27 35 2 c25 2 34 -1 34 -13 0 -8 -5 -15 -11 -15 -7 0 -8 -7 -4 -17 4 -10 9
-29 11 -42 3 -14 7 -28 9 -31 2 -4 0 -20 -4 -36 l-8 -29 -11 27 c-26 63 -78
159 -83 153 -3 -2 -13 8 -23 23 -20 30 -85 80 -129 99 -17 8 -26 17 -21 24 4
7 0 9 -12 5 -11 -3 -25 -2 -31 2 -7 5 9 8 37 8 28 0 44 -3 37 -8z m80 -3 c0
-10 -6 -14 -14 -10 -8 3 -18 5 -21 6 -4 0 2 4 13 9 11 5 20 9 21 9 0 1 1 -6 1
-14z m423 1 c0 -20 -19 -31 -32 -18 -6 6 -7 15 -4 21 10 16 36 13 36 -3z m540
4 c0 -5 -4 -10 -9 -10 -6 0 -13 5 -16 10 -3 6 1 10 9 10 9 0 16 -4 16 -10z
m280 0 c0 -5 -7 -10 -16 -10 -8 0 -12 5 -9 10 3 6 10 10 16 10 5 0 9 -4 9 -10z
m360 6 c0 -11 -19 -15 -25 -6 -3 5 1 10 9 10 9 0 16 -2 16 -4z m-2214 -23
c-11 -3 -25 -10 -31 -17 -9 -8 15 -11 97 -9 88 1 108 -1 108 -13 0 -8 8 -14
18 -14 14 0 15 -2 2 -10 -8 -5 -10 -10 -5 -10 6 0 16 5 22 11 14 14 33 3 33
-17 0 -12 -7 -14 -32 -9 -32 7 -32 6 -13 -10 20 -16 20 -16 -3 -5 -12 6 -20
15 -17 21 7 10 -35 30 -48 22 -4 -3 -13 0 -20 5 -7 6 -62 12 -122 14 l-110 3
1 -48 c1 -27 7 -54 13 -60 8 -8 11 -8 11 1 0 6 7 9 15 6 8 -4 15 -10 15 -15 0
-4 -6 -6 -13 -3 -7 2 -17 -8 -24 -26 -6 -17 -8 -28 -3 -25 5 3 11 -1 13 -7 3
-7 6 -3 6 10 1 13 5 21 10 17 6 -3 15 4 22 16 8 16 8 27 -2 45 -17 32 -2 45
19 17 15 -20 19 -20 36 -7 28 20 39 17 19 -4 -10 -11 -26 -18 -35 -16 -10 2
-18 -1 -18 -7 0 -5 10 -9 23 -10 22 -1 22 -1 -2 -8 -13 -3 -29 -15 -35 -26
-16 -28 -38 -44 -53 -38 -9 4 -13 -4 -13 -25 0 -26 12 -40 40 -46 3 -1 19 -8
37 -16 26 -12 32 -21 38 -56 3 -23 3 -54 -1 -69 -6 -22 -4 -26 7 -19 10 6 8 0
-3 -19 -10 -14 -18 -30 -18 -34 0 -4 5 -1 10 7 5 8 10 11 10 5 0 -5 -5 -17
-10 -25 -7 -11 -10 -12 -10 -2 0 10 -4 10 -16 -2 -16 -17 -33 -20 -58 -10 -25
10 -8 24 30 24 37 0 40 6 20 33 -8 10 -20 15 -30 11 -22 -9 -20 9 3 23 17 11
21 9 26 -7 4 -11 11 -20 16 -20 6 0 6 7 -1 19 -7 15 -6 23 5 35 8 8 15 23 14
33 0 16 -1 16 -8 -1 -7 -19 -8 -19 -13 2 -4 12 -2 20 3 16 5 -3 9 0 9 5 0 12
-23 15 -34 4 -3 -4 -15 -7 -26 -8 -22 -2 -34 23 -24 50 5 13 4 16 -5 11 -8 -6
-11 -27 -7 -72 3 -35 1 -66 -5 -69 -5 -4 -9 58 -9 159 0 146 -8 202 -23 164
-3 -7 -6 7 -6 32 -1 33 2 41 9 30 8 -12 10 -11 10 8 0 28 56 56 116 58 21 1
30 0 20 -3z m278 -3 c39 0 53 -4 53 -14 0 -14 -64 -33 -75 -22 -3 3 4 6 16 6
12 0 22 5 22 10 0 6 -25 10 -56 10 -36 0 -53 4 -49 11 4 6 14 8 22 5 8 -3 38
-6 67 -6z m676 6 c0 -3 -4 -8 -10 -11 -5 -3 -10 -1 -10 4 0 6 5 11 10 11 6 0
10 -2 10 -4z m420 -6 c0 -5 -5 -10 -11 -10 -5 0 -7 5 -4 10 3 6 8 10 11 10 2
0 4 -4 4 -10z m520 6 c0 -3 -4 -8 -10 -11 -5 -3 -10 -1 -10 4 0 6 5 11 10 11
6 0 10 -2 10 -4z m-2089 -45 c-7 -11 -12 -101 -13 -218 l-3 -198 -2 180 c-3
189 -7 221 -23 195 -6 -9 -10 -10 -10 -3 0 6 7 18 15 27 8 8 15 18 15 23 0 5
6 15 12 21 17 17 22 -1 9 -27z m326 33 c-3 -3 -12 -4 -19 -1 -8 3 -5 6 6 6 11
1 17 -2 13 -5z m1681 -6 c-3 -7 -20 -14 -39 -16 -32 -2 -33 -1 -15 13 24 18
59 20 54 3z m-1400 -7 c11 -7 10 -9 -3 -14 -11 -5 -14 -3 -9 5 5 8 2 9 -10 5
-10 -4 -15 -3 -11 3 7 12 16 12 33 1z m722 -1 c0 -5 -11 -10 -25 -10 -14 0
-25 5 -25 10 0 6 11 10 25 10 14 0 25 -4 25 -10z m376 -5 c-26 -19 -47 -19
-40 0 4 8 18 15 33 15 25 -1 25 -1 7 -15z m104 11 c0 -2 -7 -6 -15 -10 -8 -3
-15 -1 -15 4 0 6 7 10 15 10 8 0 15 -2 15 -4z m-205 -16 c-3 -5 -11 -10 -16
-10 -6 0 -7 5 -4 10 3 6 11 10 16 10 6 0 7 -4 4 -10z m470 -16 c16 -16 18 -84
3 -84 -4 0 -8 4 -8 9 0 21 -75 43 -153 44 -51 1 -82 6 -84 14 -3 7 3 10 14 8
54 -11 106 -13 92 -4 -10 8 -7 8 11 3 14 -4 40 -10 58 -15 19 -4 42 -15 53
-25 18 -16 19 -16 19 10 0 21 -4 26 -17 22 -10 -3 -25 -1 -33 4 -13 9 -13 11
0 20 20 13 26 13 45 -6z m-1411 -34 c-4 -33 -2 -39 11 -34 9 4 14 13 11 20 -3
7 0 16 6 20 7 4 6 9 -3 15 -8 5 -9 9 -4 9 6 0 22 -11 37 -24 14 -14 28 -23 30
-20 3 2 13 -5 23 -16 17 -19 17 -20 -6 -30 -17 -8 -32 -8 -49 -1 -21 8 -22 10
-5 10 13 1 16 4 9 11 -10 10 -61 -4 -74 -21 -3 -3 -23 -9 -45 -12 -22 -3 -32
-3 -22 -1 9 3 17 10 17 15 0 5 11 9 25 9 20 0 25 5 27 28 0 15 2 32 3 37 2 6
3 13 4 18 0 4 3 7 5 7 2 0 2 -18 0 -40z m1106 30 c0 -6 10 -8 24 -4 24 6 43
-17 30 -37 -3 -6 -6 -71 -6 -145 1 -113 -2 -135 -14 -130 -21 8 -17 -8 9 -31
22 -21 99 -35 113 -20 13 12 51 8 64 -8 11 -13 5 -15 -42 -15 -30 0 -82 -3
-114 -6 -43 -4 -64 -2 -78 8 -17 13 -17 16 -2 30 9 9 16 22 16 28 0 15 26 41
34 33 3 -4 6 1 6 10 0 20 -11 22 -28 5 -9 -9 -15 -9 -24 0 -9 9 -9 15 0 24 9
9 12 9 12 -2 1 -11 3 -10 11 3 6 9 13 15 17 13 4 -2 3 35 -3 82 -9 82 -10 84
-16 42 -4 -30 -7 -37 -9 -20 -2 14 -2 32 -1 40 1 8 3 23 5 32 3 26 16 34 17
12 0 -17 2 -16 11 4 14 28 3 40 -22 24 -16 -10 -18 -9 -13 5 6 14 3 14 -19 -3
-24 -18 -25 -19 -7 -32 11 -7 19 -21 19 -30 0 -12 -7 -9 -24 13 -13 16 -21 35
-19 42 3 7 0 13 -6 13 -6 0 -11 -3 -11 -7 0 -5 -22 -6 -50 -5 -27 2 -50 7 -50
12 0 4 24 6 53 4 29 -2 46 0 39 5 -8 5 -2 8 18 8 20 0 26 -3 18 -9 -11 -6 -11
-8 0 -8 7 0 15 7 18 15 7 17 24 20 24 5z m-1640 -10 c0 -5 -9 -10 -20 -10 -11
0 -20 5 -20 10 0 6 9 10 20 10 11 0 20 -4 20 -10z m105 0 c3 -5 1 -10 -4 -10
-6 0 -11 5 -11 10 0 6 2 10 4 10 3 0 8 -4 11 -10z m63 -20 c11 0 23 4 27 10 3
5 13 6 21 3 24 -9 -4 -23 -48 -23 -20 0 -38 -5 -40 -12 -3 -7 -7 -5 -11 6 -5
11 -3 15 5 10 8 -5 9 0 5 17 -5 22 -5 22 7 7 7 -10 23 -18 34 -18z m2 20 c0
-5 -2 -10 -4 -10 -3 0 -8 5 -11 10 -3 6 -1 10 4 10 6 0 11 -4 11 -10z m905 0
c9 -14 52 -12 58 3 4 8 8 9 14 1 4 -6 15 -14 23 -17 8 -3 -21 -6 -66 -6 -74
-1 -82 -3 -92 -23 -6 -13 -11 -17 -11 -9 -1 18 38 61 55 61 7 0 16 -4 19 -10z
m207 -1 c11 -6 23 -7 27 -3 10 14 53 16 45 2 -11 -17 -14 -78 -4 -78 4 0 12
15 15 33 10 45 21 55 55 52 44 -3 44 -9 1 -33 -80 -45 -105 -137 -61 -226 25
-53 25 -56 -1 -56 -18 0 -19 2 -9 15 16 19 1 39 -22 30 -10 -4 -14 -14 -11
-26 4 -14 0 -19 -15 -19 -12 0 -24 4 -27 10 -4 6 -16 3 -31 -7 -19 -12 -22
-18 -12 -24 23 -15 1 -20 -43 -10 -57 13 -156 14 -164 1 -13 -21 -24 -8 -23
27 1 32 3 34 11 16 8 -19 19 -22 86 -25 47 -2 86 2 101 9 14 7 30 13 35 13 18
0 70 74 72 104 2 16 8 35 14 42 6 8 9 20 6 29 -4 8 -1 17 5 21 7 5 5 12 -7 21
-11 7 -13 13 -7 13 7 0 12 12 12 28 0 20 -3 23 -9 13 -7 -11 -13 -12 -23 -4
-21 16 -76 24 -80 11 -3 -7 -10 -8 -17 -4 -9 6 -8 11 6 22 22 16 48 18 75 3z
m833 -8 l30 -7 -26 -7 c-15 -4 -45 -22 -66 -40 -39 -32 -39 -32 -39 -104 1
-65 4 -74 31 -103 36 -38 89 -55 147 -46 23 4 46 5 50 4 19 -8 78 98 79 144 1
30 2 31 8 8 4 -14 4 -38 -1 -54 -4 -16 -5 -32 -3 -35 3 -2 5 1 5 8 0 7 5 9 10
6 6 -3 10 -13 10 -21 0 -8 -4 -12 -10 -9 -5 3 -10 0 -10 -7 -1 -9 -5 -7 -14 4
-12 16 -14 15 -26 -10 -7 -15 -12 -38 -11 -51 2 -15 -1 -21 -8 -17 -6 4 -11 2
-11 -3 0 -6 5 -11 10 -11 6 0 10 -7 10 -15 0 -8 -7 -15 -15 -15 -8 0 -15 4
-15 9 0 5 -26 9 -57 9 -39 -1 -51 -3 -38 -9 16 -6 17 -8 3 -8 -9 -1 -23 6 -31
14 -8 8 -17 11 -21 8 -3 -4 -6 -2 -6 4 0 6 7 14 16 17 10 4 13 2 8 -6 -5 -8
10 -9 56 -5 35 4 66 10 69 13 11 11 -25 24 -49 17 -41 -11 -130 1 -130 18 0 5
-5 9 -11 9 -6 0 -9 -6 -6 -14 5 -12 -30 -46 -46 -46 -10 0 -14 40 -5 46 5 3 7
13 3 22 -3 8 -1 18 5 22 6 4 8 14 5 22 -5 13 -11 11 -34 -11 -15 -14 -26 -29
-24 -32 4 -9 -28 -21 -35 -14 -3 3 0 5 7 5 7 0 9 5 6 10 -3 6 -2 10 3 10 11 0
41 81 43 114 1 18 2 18 9 -4 l8 -25 1 27 c1 14 4 33 7 42 3 9 1 16 -5 16 -6 0
-11 -7 -11 -16 0 -20 -16 -10 -23 15 -3 14 -1 18 9 14 10 -3 12 0 9 10 -5 11
0 14 20 11 30 -3 46 24 38 65 -3 21 -1 23 19 17 13 -4 37 -11 53 -15z m65 9
c0 -5 7 -10 15 -10 8 0 15 5 15 11 0 5 5 7 10 4 6 -4 8 -11 5 -16 -3 -5 1 -6
9 -3 9 3 14 9 12 13 -3 4 4 7 15 7 18 0 19 -2 4 -12 -14 -11 -14 -12 1 -18 9
-4 14 -9 11 -12 -3 -4 3 -15 14 -27 10 -11 19 -25 19 -30 0 -5 -14 7 -30 29
-17 21 -39 38 -48 39 -41 4 -82 17 -76 26 7 12 24 12 24 -1z m-2110 -20 c0 -5
-4 -10 -10 -10 -5 0 -10 5 -10 10 0 6 5 10 10 10 6 0 10 -4 10 -10z m755 0
c-3 -5 -12 -7 -20 -3 -21 7 -19 13 6 13 11 0 18 -4 14 -10z m-1005 -360 c2
-274 9 -403 20 -380 1 3 6 86 9 185 l7 180 2 -204 c2 -185 4 -207 22 -236 23
-37 60 -65 86 -65 23 0 15 -6 -18 -14 -21 -5 -28 -2 -33 15 -4 13 -12 18 -21
15 -9 -3 -12 -1 -9 5 4 6 0 16 -8 22 -9 7 -20 28 -26 47 -10 35 -10 35 -10 5
2 -52 -1 -65 -11 -65 -7 0 -8 6 -2 16 5 9 7 26 4 37 -5 20 -6 20 -13 1 -7 -18
-8 -18 -8 3 -1 12 5 23 11 26 11 4 11 7 1 18 -7 7 -13 24 -13 37 0 14 -5 22
-12 20 -8 -3 -14 -30 -16 -74 -2 -38 -8 -73 -14 -79 -18 -18 -2 134 17 155 15
17 17 52 16 309 0 160 -3 306 -6 325 -8 41 4 71 16 40 4 -10 8 -165 9 -344z
m1448 344 c12 -4 22 -14 22 -25 0 -10 5 -21 10 -24 6 -3 10 -18 9 -33 l-1 -27
-11 30 c-17 43 -29 60 -52 73 -22 13 -12 15 23 6z m-1038 -24 c0 -5 -10 -15
-22 -21 -27 -15 -88 -18 -88 -6 0 5 14 7 30 3 22 -4 32 -1 36 9 3 7 12 11 20
8 8 -3 14 0 14 6 0 6 2 11 5 11 3 0 5 -4 5 -10z m90 -6 c0 -8 4 -13 8 -10 5 3
31 -6 58 -20 46 -24 47 -25 14 -19 -18 3 -37 10 -41 16 -5 8 -9 8 -14 -1 -4
-7 1 -13 14 -17 12 -3 21 -9 21 -13 0 -5 8 -11 18 -13 16 -4 15 -5 -1 -6 -10
0 -36 17 -58 39 -22 22 -45 40 -52 40 -7 0 -6 4 3 10 21 14 30 12 30 -6z
m-483 -487 c-1 -89 -3 -13 -3 168 0 182 2 254 3 162 2 -93 2 -241 0 -330z
m1170 361 c-2 -24 -4 -5 -4 42 0 47 2 66 4 43 2 -24 2 -62 0 -85z m-1090 80
c-3 -7 -5 -2 -5 12 0 14 2 19 5 13 2 -7 2 -19 0 -25z m513 28 c0 -11 -19 -15
-25 -6 -3 5 1 10 9 10 9 0 16 -2 16 -4z m-125 -44 c16 -20 29 -40 27 -44 -1
-5 22 -8 52 -8 l55 0 -17 -40 c-20 -47 -36 -54 -108 -45 -64 8 -120 47 -94 65
13 9 13 10 0 10 -9 0 -21 -5 -27 -11 -19 -19 50 -66 131 -90 39 -11 80 -30 91
-40 20 -20 20 -20 -16 -5 -20 8 -69 22 -108 31 -81 19 -126 50 -136 95 -11 49
35 123 65 105 5 -3 11 -1 15 5 12 20 41 9 70 -28z m833 26 c-3 -7 -10 -13 -15
-13 -6 0 -15 -3 -19 -7 -4 -5 0 -8 9 -8 10 0 17 -5 17 -11 0 -6 -7 -9 -14 -6
-10 4 -13 1 -9 -9 3 -7 9 -14 14 -14 5 0 9 -7 9 -16 0 -8 -4 -12 -10 -9 -6 4
-10 -5 -10 -19 0 -14 -4 -26 -10 -26 -14 0 -13 123 2 138 16 16 41 15 36 0z
m37 -6 c-3 -3 -11 0 -18 7 -9 10 -8 11 6 5 10 -3 15 -9 12 -12z m354 4 c9 -6
10 -11 2 -15 -6 -4 -7 -18 -2 -36 5 -21 3 -37 -7 -53 -13 -21 -13 -22 4 -16
13 5 16 4 9 -3 -5 -6 -21 -13 -35 -17 -14 -3 -20 -3 -13 0 7 3 10 11 7 19 -3
7 -1 16 5 19 6 4 8 13 4 21 -3 9 0 22 7 29 9 12 6 14 -23 13 -19 -1 -33 -5
-31 -9 2 -4 0 -9 -6 -13 -13 -8 -13 -26 0 -45 9 -13 11 -13 20 0 5 8 10 11 10
5 0 -5 -5 -17 -10 -25 -8 -13 -12 -12 -29 5 -11 11 -20 27 -21 35 -5 35 1 61
13 59 20 -2 57 13 57 23 0 6 -7 7 -16 4 -9 -3 -12 -2 -9 4 7 12 43 9 64 -4z
m348 -11 c20 -14 23 -19 12 -26 -10 -6 -11 -9 -1 -9 15 0 16 -46 2 -55 -7 -4
-9 2 -5 18 5 20 1 29 -19 42 -14 10 -24 21 -21 25 3 4 -3 11 -12 14 -9 4 -20
1 -25 -6 -6 -10 -8 -10 -9 2 0 10 -3 8 -9 -5 l-9 -20 0 20 c-1 17 -3 17 -11 5
-5 -8 -10 -10 -10 -4 0 6 3 14 8 18 11 12 80 0 109 -19z m345 -7 c19 -22 25
-78 8 -78 -5 0 -10 -7 -10 -15 0 -17 -31 -35 -57 -34 -10 0 -3 5 15 10 17 5
32 16 32 24 0 9 -6 12 -15 9 -22 -9 -18 14 5 26 11 6 20 15 20 20 0 15 -77 12
-92 -3 -10 -11 -15 -12 -25 -1 -18 17 -16 28 7 49 11 10 20 15 20 10 0 -4 -7
-13 -15 -19 -12 -8 -2 -11 44 -11 48 -1 58 2 49 12 -6 7 -21 13 -34 13 -13 0
-24 5 -24 11 0 17 51 1 72 -23z m133 -16 c-3 -3 -5 0 -5 7 0 9 -8 11 -21 8
-13 -3 -19 -1 -16 6 3 7 10 11 16 10 6 -2 11 3 12 10 0 6 5 1 10 -12 5 -13 7
-26 4 -29z m-1771 32 c16 -6 23 -26 9 -22 -5 1 -19 -1 -33 -5 -14 -3 -51 -8
-84 -10 -52 -3 -56 -2 -35 9 13 7 20 14 14 15 -11 2 59 15 92 18 12 0 28 -2
37 -5z m144 -49 c-8 -9 -50 33 -44 44 5 8 14 3 28 -14 11 -14 19 -28 16 -30z
m-583 15 c-8 -16 -15 -41 -15 -56 0 -27 -10 -29 -14 -2 -1 7 -5 18 -9 25 -7
11 30 62 46 63 4 0 1 -13 -8 -30z m500 20 c3 -5 -1 -10 -9 -10 -9 0 -16 5 -16
10 0 6 4 10 9 10 6 0 13 -4 16 -10z m-558 -15 c0 -8 -6 -15 -14 -15 -14 0 -17
12 -6 23 11 11 20 8 20 -8z m33 11 c0 -3 -4 -8 -10 -11 -5 -3 -10 -1 -10 4 0
6 5 11 10 11 6 0 10 -2 10 -4z m1027 -18 c-3 -8 -6 -5 -6 6 -1 11 2 17 5 13 3
-3 4 -12 1 -19z m413 12 c0 -5 -5 -10 -11 -10 -5 0 -7 5 -4 10 3 6 8 10 11 10
2 0 4 -4 4 -10z m-332 -39 c1 -32 -12 -49 -23 -31 -3 5 -1 19 5 30 17 33 1 23
-20 -12 -20 -34 -22 -33 -25 14 -2 22 1 26 11 17 9 -7 16 -6 26 4 18 20 25 14
26 -22z m603 21 c-7 -2 -18 1 -23 6 -8 8 -4 9 13 5 13 -4 18 -8 10 -11z
m-1221 -7 c13 -15 35 -21 26 -7 -2 4 4 8 14 8 16 0 16 -2 3 -22 -15 -24 -3
-41 20 -28 8 5 7 2 -2 -9 -13 -17 -15 -16 -32 10 -10 15 -29 35 -41 45 -13 10
-18 18 -12 18 6 0 17 -7 24 -15z m1172 -27 c-2 -24 -7 -46 -11 -50 -7 -8 -3
55 4 80 8 23 11 12 7 -30z m-1865 0 c-3 -7 -5 -2 -5 12 0 14 2 19 5 13 2 -7 2
-19 0 -25z m806 -8 c15 -40 15 -40 -9 -40 -18 0 -24 5 -24 22 0 21 0 21 15 2
19 -25 19 -11 0 26 -9 17 -12 30 -7 30 5 0 16 -18 25 -40z m847 23 c0 -10 -4
-25 -10 -33 -6 -10 -9 -5 -8 18 1 33 18 47 18 15z m-1546 -14 c-6 -11 -24 -2
-24 11 0 5 7 7 15 4 8 -4 12 -10 9 -15z m1456 12 c0 -6 -4 -13 -10 -16 -5 -3
-10 1 -10 9 0 9 5 16 10 16 6 0 10 -4 10 -9z m-1492 -38 c-2 -22 -4 -23 -15
-7 -18 24 -16 45 2 38 8 -4 14 -17 13 -31z m95 25 c-4 -7 -8 -17 -8 -23 0 -5
-8 -11 -17 -13 -25 -5 -22 14 4 32 27 19 32 20 21 4z m437 1 c-11 -8 -7 -9 18
-6 22 2 36 -1 39 -10 3 -7 9 -11 14 -8 10 7 35 -72 25 -82 -3 -4 -15 3 -26 15
-22 23 -14 31 10 10 12 -11 12 -10 1 5 -7 9 -19 17 -26 17 -8 0 -15 5 -17 11
-3 9 -10 9 -26 0 -30 -16 -45 -6 -31 20 9 17 7 20 -8 17 -10 -2 -22 -7 -26
-13 -5 -6 -7 -4 -4 5 2 8 10 14 16 13 6 -2 11 1 11 5 0 4 10 9 22 9 18 2 20 0
8 -8z m160 1 c0 -5 -5 -10 -11 -10 -5 0 -7 5 -4 10 3 6 8 10 11 10 2 0 4 -4 4
-10z m80 -34 c0 -5 -7 -1 -15 10 -8 10 -14 24 -14 29 0 6 6 1 14 -9 8 -11 15
-24 15 -30z m392 9 c3 -29 1 -35 -14 -35 -11 0 -18 7 -18 18 0 14 2 15 10 2 7
-11 10 -7 10 18 0 42 7 41 12 -3z m666 -1 c-10 -10 -28 6 -28 24 0 15 1 15 17
-1 9 -9 14 -19 11 -23z m292 3 c0 -5 -4 -5 -10 -2 -5 3 -10 14 -10 23 0 15 2
15 10 2 5 -8 10 -19 10 -23z m246 7 c-4 -9 -9 -15 -11 -12 -3 3 -3 13 1 22 4
9 9 15 11 12 3 -3 3 -13 -1 -22z m-697 -26 c1 -5 -3 -8 -9 -8 -5 0 -10 12 -9
28 0 24 1 25 9 7 5 -11 9 -23 9 -27z m-1538 -28 c6 0 7 6 3 13 -5 8 -4 9 4 2
6 -5 12 -22 14 -37 2 -15 7 -30 11 -34 4 -4 7 -12 7 -18 0 -6 -5 -3 -11 7 -18
30 -30 19 -23 -19 5 -27 4 -35 -5 -30 -18 11 -13 64 7 75 10 6 12 11 4 11 -7
0 -10 6 -7 13 4 6 -1 3 -9 -7 -15 -19 -16 -17 -15 25 1 24 4 34 6 22 2 -13 9
-23 14 -23z m357 10 c9 0 24 -5 32 -10 11 -8 2 -10 -33 -8 -34 2 -46 7 -42 16
3 8 5 19 5 25 0 7 5 4 11 -5 5 -10 18 -18 27 -18z m1376 15 c3 -8 1 -15 -4
-15 -6 0 -10 7 -10 15 0 8 2 15 4 15 2 0 6 -7 10 -15z m-669 -5 c3 -5 1 -10
-4 -10 -6 0 -11 5 -11 10 0 6 2 10 4 10 3 0 8 -4 11 -10z m-399 -142 c4 -99
-7 -130 -24 -65 -6 23 -5 38 6 55 12 19 13 27 2 46 -6 13 -9 33 -6 43 4 13 0
25 -9 33 -13 11 -13 15 -3 21 20 13 30 -25 34 -133z m-236 122 c0 -5 -5 -10
-11 -10 -5 0 -7 5 -4 10 3 6 8 10 11 10 2 0 4 -4 4 -10z m129 -12 c-1 -13 -5
-34 -9 -48 -7 -20 -8 -16 -9 23 -1 26 4 47 9 47 6 0 10 -10 9 -22z m158 -20
c-3 -8 -6 -5 -6 6 -1 11 2 17 5 13 3 -3 4 -12 1 -19z m793 -9 c0 -6 -4 -7 -10
-4 -5 3 -20 1 -32 -5 -21 -11 -21 -10 2 9 24 19 40 19 40 0z m705 1 c3 6 11 8
16 5 19 -12 8 -22 -25 -22 -25 0 -33 4 -29 14 4 10 9 11 18 3 9 -8 15 -8 20 0z
m-907 -37 c-6 -7 -9 -13 -7 -13 2 0 19 -4 37 -9 37 -11 45 4 10 19 -21 8 -20
9 9 9 17 1 35 -3 38 -9 3 -5 15 -10 25 -10 14 0 18 5 13 17 -6 15 -5 16 9 3
15 -14 14 -16 -5 -26 -15 -9 -17 -13 -6 -17 31 -12 -69 -5 -105 8 -21 7 -45
11 -52 8 -8 -3 -14 0 -14 6 0 7 7 14 15 17 12 5 13 10 5 20 -9 10 -7 11 14 1
18 -9 22 -15 14 -24z m572 27 c0 -5 -4 -10 -10 -10 -5 0 -10 5 -10 10 0 6 5
10 10 10 6 0 10 -4 10 -10z m-1492 -21 c-22 -12 -24 -41 -3 -33 10 4 13 2 10
-8 -4 -9 0 -15 9 -15 10 0 13 10 12 33 -3 33 12 40 36 16 9 -9 9 -12 -3 -13
-7 -1 -17 -1 -21 0 -11 1 -10 -11 2 -29 9 -13 11 -13 20 0 6 9 21 14 45 12 19
-2 35 1 35 6 0 5 6 9 13 9 9 0 13 -12 13 -34 -1 -18 -4 -33 -8 -33 -8 0 -11
15 -9 35 0 6 -16 9 -39 7 -25 -3 -37 -8 -33 -15 3 -5 2 -7 -3 -4 -6 3 -16 2
-24 -3 -9 -5 -19 -5 -27 2 -9 7 -13 7 -13 -1 0 -6 -7 -11 -15 -11 -8 0 -14 3
-13 8 0 4 -1 14 -5 22 -17 45 -14 56 12 58 22 1 23 0 9 -9z m382 -69 c0 -79 0
-80 -25 -80 -25 0 -25 1 -25 80 0 79 0 80 25 80 25 0 25 -1 25 -80z m922 66
c31 -4 48 -1 52 7 5 9 7 9 12 0 3 -7 12 -13 20 -13 8 0 14 -5 14 -11 0 -6 -8
-8 -17 -5 -10 3 -52 8 -93 12 -41 3 -82 10 -90 15 -9 5 -2 7 20 4 19 -2 56 -6
82 -9z m-1642 -27 c0 -15 -18 -19 -23 -6 -3 8 1 14 9 14 8 0 14 -4 14 -8z m96
-4 c-11 -8 -22 -12 -25 -9 -6 6 19 24 34 24 6 -1 1 -7 -9 -15z m132 -18 c23
-10 42 -23 42 -27 0 -5 -15 -1 -32 8 -18 9 -42 15 -53 14 -17 -2 -18 -1 -5 8
12 9 9 10 -15 5 -16 -3 -38 -8 -49 -12 -12 -3 -16 -1 -12 6 4 6 15 11 24 11
15 0 15 2 2 10 -25 17 50 -1 98 -23z m722 22 c0 -6 7 -9 15 -5 8 3 19 -3 25
-12 8 -14 11 -15 19 -3 7 10 15 11 37 3 l29 -10 -32 -1 c-17 -1 -39 -8 -47
-17 -9 -8 -21 -12 -28 -8 -8 5 -6 10 8 15 29 11 -74 11 -114 0 -19 -6 -32 -6
-32 0 0 5 19 12 42 16 24 3 37 8 29 11 -11 4 -11 6 0 13 20 12 49 11 49 -2z
m326 -19 c13 0 26 -5 30 -11 4 -7 -1 -9 -15 -5 -11 3 -30 9 -41 12 -11 3 -20
10 -20 17 0 8 3 8 12 -1 7 -7 22 -12 34 -12z m-116 -5 c7 -8 28 -15 46 -15 19
0 34 -4 34 -10 0 -5 -12 -10 -26 -10 -14 0 -23 -4 -19 -10 11 -17 -5 -11 -41
16 -18 14 -31 30 -28 35 8 13 20 11 34 -6z m-1135 -54 c7 -28 9 -48 3 -45 -5
3 -16 -2 -23 -12 -13 -17 -14 -17 -15 -2 0 9 5 20 10 23 6 3 10 19 10 35 0 34
-20 51 -21 18 -1 -23 -1 -23 -9 2 l-8 25 -1 -27 c-1 -33 -10 -58 -21 -58 -5 0
-6 17 -3 38 6 36 20 55 34 46 4 -2 11 1 14 7 10 15 15 7 30 -50z m75 28 c7
-12 9 -32 4 -47 -4 -15 -8 -32 -10 -39 -3 -15 61 -27 82 -15 14 8 12 10 -9 16
-14 3 -33 3 -41 0 -9 -3 -16 -1 -16 5 0 14 30 14 64 1 30 -11 34 -26 9 -34
-10 -3 6 -3 35 -1 33 3 52 0 52 -7 0 -7 -24 -9 -74 -5 -89 6 -120 20 -112 49
3 12 0 30 -5 40 -7 13 -7 23 1 33 8 10 8 14 -2 18 -9 4 -10 6 -1 6 7 1 17 -8
23 -20z m363 -9 c4 0 3 7 0 17 -4 11 -3 14 5 9 20 -12 14 -46 -7 -46 -12 0
-20 9 -24 27 -4 24 -4 26 8 10 7 -9 15 -17 18 -17z m920 23 c-7 -2 -21 -2 -30
0 -10 3 -4 5 12 5 17 0 24 -2 18 -5z m-443 -7 c0 -2 -7 -6 -15 -10 -8 -3 -15
-1 -15 4 0 6 7 10 15 10 8 0 15 -2 15 -4z m-786 -23 c8 -19 -7 -38 -22 -29
-11 7 -4 46 8 46 4 0 11 -8 14 -17z m1808 -11 c-19 -6 -44 6 -37 18 4 7 14 6
28 -2 14 -7 17 -13 9 -16z m-2202 8 c0 -5 -2 -10 -4 -10 -3 0 -8 5 -11 10 -3
6 -1 10 4 10 6 0 11 -4 11 -10z m573 -12 c-9 -10 -14 -20 -12 -22 15 -13 51
-26 59 -21 6 3 10 4 10 1 0 -3 -10 -10 -21 -17 -12 -6 -19 -7 -15 -1 3 5 -1
12 -9 16 -10 4 -15 -1 -15 -14 0 -11 -2 -20 -4 -20 -2 0 -11 -3 -20 -6 -11 -4
-16 -1 -16 10 0 9 -7 16 -16 16 -13 0 -14 3 -5 14 10 12 7 18 -18 31 -17 8
-31 18 -31 20 0 12 31 3 47 -13 26 -25 53 -45 53 -39 0 3 -7 13 -16 21 -14 15
-14 16 1 16 10 0 15 6 12 13 -3 7 3 13 14 13 17 0 17 -2 2 -18z m46 1 c-16
-10 -23 -4 -14 10 3 6 11 8 17 5 6 -4 5 -9 -3 -15z m72 -12 c11 -3 19 -14 20
-29 1 -20 2 -21 6 -3 3 11 10 26 15 32 11 14 28 8 28 -8 0 -6 -4 -8 -9 -5 -9
6 -64 -124 -56 -132 8 -9 33 19 39 43 6 23 36 36 36 16 0 -15 -74 -100 -87
-100 -6 -1 -13 7 -15 17 -6 29 4 62 18 62 17 0 22 50 8 89 -4 11 -7 11 -21 0
-9 -8 -14 -9 -10 -2 4 6 2 13 -5 15 -7 3 -9 11 -3 24 7 16 9 17 12 3 2 -10 13
-19 24 -22z m1057 21 c8 -8 15 -8 24 -1 16 13 58 -1 59 -19 0 -7 2 -24 4 -38
2 -14 1 -19 -1 -12 -3 6 -10 12 -16 12 -5 0 -1 -16 11 -35 19 -33 18 -43 -4
-27 -6 4 -15 21 -20 37 l-10 30 -119 3 c-116 3 -155 -6 -140 -30 4 -6 2 -13
-3 -17 -13 -8 -4 -123 9 -115 6 4 5 -3 -1 -15 -13 -23 0 -29 17 -8 5 7 6 21 1
32 -11 27 -11 37 0 31 12 -8 41 4 41 16 0 6 -9 8 -20 5 -13 -3 -24 1 -31 14
-9 18 -6 19 75 18 l84 -1 -56 -47 c-32 -27 -75 -67 -97 -89 -21 -23 -46 -42
-54 -42 -8 0 -11 -3 -7 -7 4 -5 9 -6 11 -3 2 3 14 -5 28 -18 23 -21 31 -22
148 -20 l124 3 6 30 c4 17 7 24 8 17 0 -8 11 -23 24 -33 20 -19 20 -20 2 -15
-11 3 -26 2 -33 -2 -9 -6 -5 -12 14 -20 25 -12 29 -32 6 -40 -7 -2 -16 8 -22
23 l-10 26 -127 -1 c-174 -1 -175 -1 -168 10 4 6 12 8 18 4 7 -3 3 2 -7 10
-11 9 -24 16 -28 16 -5 0 -8 56 -7 125 0 68 -2 129 -6 135 -3 5 -19 10 -35 10
-31 0 -51 -23 -43 -50 2 -8 -3 -3 -12 13 -9 15 -17 27 -19 27 -1 0 -2 -15 -2
-34 1 -19 3 -34 6 -34 28 2 30 -6 30 -98 0 -63 -3 -93 -10 -89 -6 4 -8 15 -5
26 4 10 2 26 -3 35 -8 14 -12 13 -29 -10 -23 -29 -35 -34 -27 -11 4 10 0 15
-12 15 -11 0 -15 3 -8 8 49 34 59 123 18 171 -25 31 -27 31 -120 31 -56 0 -93
4 -89 9 3 5 -7 11 -22 13 -23 4 -25 6 -10 12 24 11 115 -3 96 -15 -11 -7 -8
-9 9 -9 13 0 20 4 17 10 -3 6 1 10 9 10 9 0 16 -4 16 -10 0 -5 7 -10 15 -10
21 0 19 28 -2 33 -10 3 7 5 37 6 42 1 51 -2 42 -11 -18 -18 -15 -51 3 -44 10
3 15 -1 15 -12 1 -13 3 -12 13 6 10 18 15 20 26 10 10 -11 12 -10 9 2 -2 11 5
14 25 13 15 -1 27 2 27 8 0 17 29 9 40 -11 6 -11 15 -18 21 -15 5 4 9 2 9 -4
0 -5 -4 -12 -8 -15 -14 -8 -14 -136 0 -136 9 0 9 -3 0 -12 -7 -7 -12 -23 -11
-38 0 -23 1 -23 9 -5 8 18 9 18 10 -5 1 -22 2 -23 11 -7 7 12 7 22 1 30 -6 7
-9 49 -8 93 1 63 5 87 19 101 9 11 17 27 17 36 0 13 14 17 78 20 42 1 84 4 93
5 8 1 20 -3 27 -10z m345 5 c9 -2 17 -13 17 -24 0 -22 22 -49 39 -49 6 0 11 5
11 11 0 6 7 4 15 -5 8 -8 15 -19 15 -25 0 -6 -7 -8 -15 -5 -21 9 -19 -10 6
-37 13 -16 19 -18 16 -7 -3 9 0 24 7 33 22 30 26 -6 5 -45 -11 -22 -18 -28
-19 -17 0 10 -8 17 -20 17 -24 0 -24 -3 -5 -40 14 -28 14 -33 -5 -70 -11 -21
-20 -48 -20 -59 0 -11 -4 -22 -9 -26 -6 -3 -8 -14 -6 -25 4 -20 -9 -27 -19
-11 -4 5 0 12 6 14 7 3 1 6 -14 6 -19 1 -28 -4 -28 -14 0 -22 -17 -18 -23 5
-4 17 0 20 29 20 24 0 37 6 45 21 9 18 6 26 -25 55 -35 33 -41 59 -11 48 8 -4
13 -10 10 -15 -6 -8 24 -49 36 -49 9 0 32 57 28 67 -2 4 -9 7 -16 5 -6 -1 -14
6 -17 16 -6 19 -31 23 -54 8 -29 -18 -23 6 11 43 34 38 51 44 40 15 -3 -8 1
-14 10 -14 21 0 29 26 11 40 -8 7 -14 17 -14 23 0 27 -38 36 -150 38 -89 2
-104 4 -65 9 l50 7 -46 1 c-38 2 -48 6 -52 23 -5 20 -2 20 101 18 59 -1 115
-4 125 -6z m162 -3 c3 -5 1 -10 -4 -10 -6 0 -11 5 -11 10 0 6 2 10 4 10 3 0 8
-4 11 -10z m55 -10 c0 -5 -4 -10 -10 -10 -5 0 -10 -4 -10 -10 0 -5 13 -7 32
-3 24 5 30 3 26 -8 -2 -8 4 -23 15 -33 20 -19 20 -19 14 3 -3 14 -1 21 6 18 7
-2 13 -18 15 -35 2 -18 7 -30 12 -27 13 8 24 -39 16 -69 -5 -19 -1 -25 19 -30
14 -4 25 -13 25 -21 0 -24 20 -17 21 8 1 21 1 21 9 -3 4 -14 8 -32 9 -40 1
-13 0 -13 -9 0 -8 13 -10 12 -10 -2 0 -10 5 -18 10 -18 6 0 10 -6 10 -12 -1
-7 -9 -3 -19 10 -11 12 -22 22 -25 22 -11 0 -6 -28 6 -32 8 -3 7 -11 -4 -27
-9 -13 -14 -31 -10 -40 4 -12 3 -14 -9 -6 -8 6 -28 10 -46 10 -17 0 -29 3 -27
7 3 4 1 8 -5 8 -5 0 -12 -6 -14 -12 -4 -8 -6 -7 -6 3 -1 9 -8 19 -16 23 -8 3
-15 12 -15 21 0 8 -5 15 -11 15 -5 0 -8 -4 -5 -9 8 -12 -24 -37 -32 -25 -12
16 -49 16 -56 -1 -3 -9 -4 -20 -2 -23 6 -10 -51 -9 -60 1 -4 4 5 7 19 7 19 0
31 8 42 29 14 27 19 30 80 33 45 2 66 -1 70 -9 2 -7 0 -13 -5 -13 -18 0 -6
-25 15 -32 68 -22 96 7 65 68 -11 21 -20 44 -20 51 0 7 -4 13 -9 13 -12 0 -22
41 -13 54 3 6 9 0 13 -14 6 -22 7 -22 8 -4 1 21 -31 67 -44 64 -4 -1 -16 13
-27 30 -17 28 -23 32 -57 28 -24 -2 -43 2 -52 11 -11 12 -10 14 9 9 20 -6 27
2 23 25 0 4 8 7 19 7 11 0 20 -4 20 -10z m-2280 -10 c0 -5 -5 -10 -11 -10 -5
0 -7 -4 -4 -10 9 -14 -7 -12 -28 5 -20 14 -21 13 36 24 4 0 7 -3 7 -9z m820
-66 c0 -22 -32 -103 -46 -115 -9 -7 -14 -8 -14 -1 0 6 -3 19 -7 29 -6 15 -5
16 9 5 17 -13 20 -11 31 23 l7 20 -16 -20 c-15 -18 -16 -18 -10 -2 3 10 6 42
6 70 l0 52 20 -25 c11 -14 20 -30 20 -36z m1369 24 c11 -11 12 -10 6 1 -5 9
-4 12 3 7 7 -4 12 -16 12 -27 0 -18 -1 -19 -25 -3 -24 16 -33 34 -17 34 4 0
14 -6 21 -12z m-2032 -25 c0 -16 -2 -22 -4 -15 -7 18 -24 15 -21 -4 2 -10 -3
-19 -10 -21 -15 -6 -6 24 16 50 19 22 20 22 19 -10z m903 -19 c0 -13 -3 -24
-7 -24 -5 0 -8 13 -8 29 0 16 3 27 8 24 4 -2 7 -15 7 -29z m1337 14 c-3 -8 -6
-5 -6 6 -1 11 2 17 5 13 3 -3 4 -12 1 -19z m-1520 -10 c-3 -8 -6 -5 -6 6 -1
11 2 17 5 13 3 -3 4 -12 1 -19z m-844 -15 c-6 -2 -9 -14 -6 -26 4 -19 2 -18
-14 6 -23 35 -45 31 -49 -10 -3 -27 -1 -30 16 -26 11 3 20 0 20 -6 0 -6 -11
-11 -25 -11 -22 0 -30 9 -26 32 0 4 2 20 3 36 2 28 2 28 46 18 25 -5 40 -12
35 -13z m213 -30 c-3 -31 -11 -60 -18 -65 -7 -4 -10 -8 -5 -8 12 0 -29 -73
-54 -95 l-23 -20 23 33 c21 30 21 34 7 62 -17 34 -8 41 12 9 7 -12 16 -18 19
-15 3 3 0 13 -8 23 -9 11 -10 14 -1 9 7 -4 12 -1 12 8 0 9 5 16 10 16 6 0 10
9 10 21 0 11 -4 17 -10 14 -5 -3 -10 1 -10 9 0 9 4 16 9 16 5 0 13 9 16 20 12
37 17 20 11 -37z m-141 37 c-3 -5 -16 -10 -28 -9 -21 0 -21 1 -2 9 28 12 37
12 30 0z m492 -24 c-21 -19 -61 -41 -90 -49 -28 -8 -42 -16 -31 -16 12 -1 41
6 64 14 56 20 57 19 30 -10 -22 -23 -49 -35 -114 -50 -15 -3 -26 -8 -23 -11 2
-3 23 0 46 5 55 12 51 -6 -9 -37 -44 -23 -89 -25 -175 -8 -11 3 -23 5 -27 5
-5 1 -8 6 -8 12 0 5 5 7 12 3 8 -5 9 -2 5 10 -4 10 -2 27 5 39 6 12 11 37 9
55 -2 31 -1 32 26 25 62 -16 176 -7 238 19 80 34 87 33 42 -6z m274 -15 c-8
-5 -9 -11 -3 -15 5 -3 8 -20 7 -38 -2 -18 -3 -44 -4 -57 l-1 -24 -23 21 c-13
12 -28 19 -32 15 -5 -5 -5 -1 1 7 6 8 19 39 30 68 12 36 21 49 28 42 8 -8 7
-13 -3 -19z m274 8 c-5 -14 -3 -20 7 -18 27 3 49 -1 44 -10 -3 -4 7 -6 22 -4
21 4 24 2 12 -6 -8 -6 -32 -10 -53 -9 -30 1 -39 6 -43 24 -3 13 -3 28 1 33 11
18 17 12 10 -10z m93 5 c4 -4 -5 -5 -20 -2 -15 3 -29 0 -31 -5 -2 -6 -6 -3
-10 7 -6 15 -2 16 24 12 17 -2 34 -8 37 -12z m722 -6 c-108 -97 -111 -99 -126
-87 -8 6 -14 16 -14 22 0 6 6 3 13 -6 11 -15 14 -15 35 3 12 10 18 21 13 24
-5 4 -13 1 -17 -5 -4 -8 -9 -7 -15 2 -16 26 -10 45 15 44 25 0 50 -15 26 -15
-11 0 -12 -2 -1 -12 10 -11 15 -9 27 6 21 30 18 34 -26 32 -22 -1 -46 1 -53 6
-6 4 24 8 68 8 l80 0 -25 -22z m-1886 -20 c7 -5 4 -8 -6 -8 -10 0 -18 -4 -18
-10 0 -5 8 -10 18 -11 14 0 14 -2 -3 -8 -11 -5 -21 -4 -23 0 -2 5 -10 9 -18 9
-19 0 -18 5 9 32 12 13 24 19 26 13 2 -5 9 -13 15 -17z m671 -10 c-1 -24 3
-49 9 -57 8 -11 8 -13 -1 -7 -8 4 -13 2 -13 -8 0 -8 -4 -18 -10 -21 -6 -3 -7
1 -4 10 4 11 2 14 -9 9 -12 -4 -14 -1 -10 15 4 16 9 19 18 11 15 -12 16 5 2
27 -6 10 7 63 16 63 2 0 2 -19 2 -42z m1075 11 c0 -5 -6 -9 -14 -9 -15 0 -28
24 -19 34 7 7 33 -13 33 -25z m657 9 c-3 -8 -6 -5 -6 6 -1 11 2 17 5 13 3 -3
4 -12 1 -19z m-726 -12 c-8 -10 -9 -16 -1 -21 6 -3 8 -11 5 -16 -6 -9 6 -13
36 -10 8 1 21 -11 27 -26 10 -23 10 -25 0 -13 -18 21 -42 25 -34 5 3 -9 2 -13
-4 -10 -6 3 -10 14 -11 23 0 11 -3 12 -6 5 -6 -15 -49 -17 -58 -3 -3 6 -13 10
-21 10 -9 0 -12 -5 -8 -12 5 -7 2 -8 -7 -3 -11 6 -12 5 -1 -6 7 -7 29 -13 51
-12 22 1 44 -3 49 -10 8 -9 -5 -12 -55 -10 -36 1 -70 6 -75 11 -5 5 8 23 34
45 24 21 50 43 58 51 20 19 36 20 21 2z m537 -28 c6 -16 8 -28 3 -28 -5 0 -11
8 -14 18 -2 9 -8 26 -12 37 -12 30 9 6 23 -27z m-1228 -3 c0 -19 -4 -35 -10
-35 -5 0 -10 16 -10 35 0 19 5 35 10 35 6 0 10 -16 10 -35z m949 -26 c-17 -10
-15 -17 6 -34 20 -16 20 -16 -2 -12 -13 3 -23 1 -23 -5 0 -5 -5 -6 -11 -2 -8
4 -7 9 2 15 12 8 11 11 -1 19 -9 6 -10 10 -3 10 6 0 15 10 18 21 6 17 9 19 16
8 4 -8 4 -16 -2 -20z m251 16 c10 -13 9 -15 -8 -15 -15 0 -20 5 -16 15 4 8 7
15 9 15 1 0 8 -7 15 -15z m-1640 -20 c-7 -9 -10 -19 -6 -22 4 -4 11 -1 16 7 7
11 9 5 6 -18 -2 -18 -6 -35 -9 -38 -11 -12 -29 9 -24 27 7 26 -10 24 -18 -1
-4 -11 -9 -18 -13 -16 -4 2 -15 -7 -25 -20 -11 -15 -13 -24 -6 -24 8 0 8 -4
-2 -16 -8 -10 -21 -13 -37 -9 -15 4 -21 2 -17 -4 3 -6 -9 -17 -27 -25 -25 -11
-28 -15 -13 -15 11 -1 31 -4 45 -7 23 -5 24 -5 7 9 -24 20 -12 26 43 23 42 -3
70 7 70 24 0 3 -10 6 -22 6 -15 -1 -23 6 -25 19 -1 11 0 14 3 8 3 -7 13 -13
21 -13 13 0 13 3 3 15 -10 12 -10 15 4 15 9 0 16 -8 16 -20 0 -22 20 -26 38
-8 8 8 8 15 1 24 -8 9 -4 12 16 9 19 -2 25 2 21 11 -3 8 -1 14 4 14 6 0 10 -9
10 -21 0 -17 -4 -19 -22 -13 -20 6 -21 5 -9 -10 7 -9 11 -17 7 -17 -3 -1 -9
-2 -13 -3 -5 -1 -28 -16 -52 -34 -24 -17 -49 -32 -55 -32 -6 0 -5 4 3 9 10 6
2 9 -23 8 -33 -1 -35 -2 -15 -12 19 -11 17 -13 -26 -25 -38 -11 -54 -11 -81
-1 -37 14 -87 6 -63 -10 9 -5 -11 -9 -54 -9 -47 0 -66 3 -61 11 5 8 1 8 -14 0
-11 -6 -42 -11 -69 -10 -33 1 -41 3 -25 7 13 4 24 11 25 17 1 5 21 27 44 48
40 37 43 38 69 24 l28 -15 -39 2 c-25 1 -40 -4 -43 -13 -3 -10 0 -12 11 -8 11
4 14 2 10 -9 -4 -11 -9 -12 -16 -5 -16 16 -31 13 -18 -3 7 -9 28 -12 64 -9 38
2 47 1 32 -6 -19 -9 -19 -10 3 -10 12 -1 22 4 22 9 0 6 18 10 40 10 22 0 40 5
40 10 0 6 8 10 18 10 9 0 24 5 32 10 10 7 0 8 -35 5 -49 -5 -49 -5 14 11 57
14 71 23 130 83 36 36 68 65 70 64 2 -1 -2 -9 -9 -18z m-578 -19 c14 -20 8
-27 -11 -16 -25 13 -44 13 -36 0 3 -5 2 -10 -4 -10 -15 0 -34 -68 -27 -96 5
-17 3 -23 -4 -19 -15 9 -9 107 7 123 15 16 17 32 3 32 -5 0 -10 -7 -10 -17 0
-9 -3 -14 -6 -10 -4 3 -4 13 -1 21 5 11 15 13 44 9 21 -3 41 -11 45 -17z m131
-16 c3 -11 1 -20 -4 -20 -5 0 -9 9 -9 20 0 11 2 20 4 20 2 0 6 -9 9 -20z
m1783 2 c0 -10 -8 -18 -18 -18 -16 0 -16 2 -1 18 9 10 17 18 17 18 1 0 2 -8 2
-18z m154 4 c0 -3 -4 -8 -10 -11 -5 -3 -10 -1 -10 4 0 6 5 11 10 11 6 0 10 -2
10 -4z m-1272 -20 c10 -6 11 -11 2 -20 -8 -8 -15 -7 -24 7 -12 15 -14 16 -20
2 -3 -8 -2 -23 1 -32 5 -12 2 -15 -10 -10 -19 7 -22 -4 -6 -20 8 -8 7 -13 -2
-18 -7 -5 -10 -4 -5 3 3 6 2 13 -3 17 -5 3 -14 -3 -20 -12 -7 -14 -13 -15 -21
-7 -9 9 -4 18 19 35 17 12 31 28 31 34 0 28 30 39 58 21z m222 -7 c0 -5 -4 -9
-10 -9 -5 0 -10 7 -10 16 0 8 5 12 10 9 6 -3 10 -10 10 -16z m90 11 c0 -5 -5
-10 -11 -10 -5 0 -7 5 -4 10 3 6 8 10 11 10 2 0 4 -4 4 -10z m116 -8 c17 -10
17 -11 -9 -12 -16 0 -26 4 -22 10 8 12 -5 13 -23 1 -8 -4 -13 -17 -12 -27 4
-36 -1 -50 -10 -29 -8 18 -9 17 -9 -7 -1 -16 -5 -28 -11 -28 -12 0 -12 7 -4
50 5 22 9 28 15 18 7 -10 9 -9 9 5 0 9 -4 17 -10 17 -5 0 -10 4 -10 9 0 12 72
7 96 -7z m84 8 c0 -5 -5 -10 -11 -10 -5 0 -7 5 -4 10 3 6 8 10 11 10 2 0 4 -4
4 -10z m-1213 -34 c-2 -6 -14 -10 -26 -9 -11 2 -21 -1 -21 -6 0 -13 30 -22 43
-14 7 3 4 -3 -6 -14 -28 -32 -129 -81 -134 -65 -3 6 -10 9 -16 5 -8 -5 -8 -2
0 9 7 8 9 19 5 23 -4 5 5 1 20 -8 32 -20 45 -22 30 -4 -8 9 -3 12 21 12 30 0
32 2 31 41 -1 36 2 41 19 36 14 -3 18 -1 13 6 -5 8 -2 10 9 6 9 -4 14 -12 12
-18z m-117 -19 c0 -3 -7 -7 -15 -11 -11 -4 -15 2 -15 20 0 23 2 24 15 10 8 -8
15 -17 15 -19z m36 6 c-10 -10 -19 5 -10 18 6 11 8 11 12 0 2 -7 1 -15 -2 -18z
m1001 -3 c-3 -11 0 -20 6 -20 7 0 6 -5 -3 -11 -11 -8 -8 -9 15 -4 34 7 24 -8
-11 -19 -20 -6 -22 -3 -21 34 1 22 5 40 10 40 5 0 7 -9 4 -20z m89 -6 c-3 -8
-1 -25 5 -36 7 -13 7 -24 1 -30 -6 -6 -12 0 -16 17 -4 16 -11 23 -18 19 -6 -4
-3 5 8 19 22 30 29 34 20 11z m1331 -26 c-3 -7 -5 -2 -5 12 0 14 2 19 5 13 2
-7 2 -19 0 -25z m-1627 12 c0 -5 -2 -10 -4 -10 -3 0 -8 5 -11 10 -3 6 -1 10 4
10 6 0 11 -4 11 -10z m530 -16 c0 -8 -4 -14 -8 -14 -4 0 -8 9 -8 19 0 11 4 17
8 15 4 -3 8 -12 8 -20z m78 -2 c2 -7 -7 -9 -25 -7 -40 5 -40 5 -18 15 24 10
37 8 43 -8z m778 -9 c-6 -6 -36 9 -36 18 0 5 9 4 20 -3 10 -7 18 -14 16 -15z
m224 6 c0 -5 -4 -9 -10 -9 -5 0 -10 7 -10 16 0 8 5 12 10 9 6 -3 10 -10 10
-16z m-2125 1 c19 -8 19 -9 -2 -9 -12 -1 -25 4 -28 9 -7 12 2 12 30 0z m1485
0 c8 -5 11 -10 5 -10 -5 0 -17 5 -25 10 -8 5 -10 10 -5 10 6 0 17 -5 25 -10z
m173 -1 c-8 -8 -32 -8 -85 -1 l-73 9 85 2 c61 1 81 -2 73 -10z m-1288 -19 c-3
-5 -16 -15 -28 -21 -21 -10 -21 -9 2 10 25 23 36 27 26 11z m1005 0 c-19 -13
-30 -13 -30 0 0 6 10 10 23 10 18 0 19 -2 7 -10z m-980 -17 c-1 -18 -18 -35
-24 -24 -4 6 -4 16 -1 21 7 12 25 13 25 3z m55 -4 c4 -6 5 -13 2 -16 -8 -7
-47 7 -47 18 0 13 37 11 45 -2z m320 -20 c-7 -10 -35 -1 -35 11 0 5 9 6 20 3
11 -3 17 -9 15 -14z m93 9 c-4 -12 -22 -12 -26 0 -1 5 4 9 13 9 9 0 14 -4 13
-9z m222 -3 c0 -8 -4 -15 -10 -15 -5 0 -10 7 -10 15 0 8 5 15 10 15 6 0 10 -7
10 -15z m100 -5 c0 -11 -4 -20 -10 -20 -5 0 -10 9 -10 20 0 11 5 20 10 20 6 0
10 -9 10 -20z m700 -11 c0 -10 -7 -19 -15 -19 -16 0 -19 9 -9 34 8 20 24 11
24 -15z m73 18 c3 -8 1 -20 -4 -28 -8 -12 -10 -12 -18 0 -10 15 -4 41 9 41 4
0 10 -6 13 -13z m-2446 -29 c-3 -8 -6 -5 -6 6 -1 11 2 17 5 13 3 -3 4 -12 1
-19z m793 7 c10 -13 9 -15 -8 -15 -22 0 -36 13 -25 24 10 10 20 7 33 -9z m65
-2 l20 -16 -20 8 c-11 4 -26 8 -32 8 -7 0 -13 4 -13 9 0 13 23 9 45 -9z m1025
8 c0 -17 -18 -21 -24 -6 -3 9 0 15 9 15 8 0 15 -4 15 -9z m290 -6 c0 -8 -7
-15 -15 -15 -16 0 -20 12 -8 23 11 12 23 8 23 -8z m-1474 -48 c10 -22 8 -23
-20 -20 -26 3 -28 2 -11 -7 14 -7 3 -8 -40 -4 -33 3 -65 6 -72 6 -6 1 -9 7 -6
15 3 8 22 13 52 13 25 0 53 5 61 10 21 14 24 13 36 -13z m-386 -25 c3 -2 -20
-2 -51 1 -35 3 -66 1 -80 -7 -27 -13 -109 -19 -109 -7 0 21 220 34 240 13z
m123 -19 c-24 -2 -62 -2 -85 0 -24 2 -5 4 42 4 47 0 66 -2 43 -4z m110 0 c-7
-2 -21 -2 -30 0 -10 3 -4 5 12 5 17 0 24 -2 18 -5z m64 -19 c-3 -3 -12 -4 -19
-1 -8 3 -5 6 6 6 11 1 17 -2 13 -5z m-67 -34 c0 -13 -297 -13 -305 0 -4 6 52
10 149 10 95 0 156 -4 156 -10z m167 4 c-3 -3 -12 -4 -19 -1 -8 3 -5 6 6 6 11
1 17 -2 13 -5z m-587 -8 c0 -2 -9 -6 -20 -9 -11 -3 -20 -1 -20 4 0 5 9 9 20 9
11 0 20 -2 20 -4z"/>
<path d="M498 1353 c12 -2 32 -2 45 0 12 2 2 4 -23 4 -25 0 -35 -2 -22 -4z"/>
<path d="M330 1295 c-11 -13 -10 -14 4 -9 9 3 16 10 16 15 0 13 -6 11 -20 -6z"/>
<path d="M1010 1266 c0 -2 7 -7 16 -10 8 -3 12 -2 9 4 -6 10 -25 14 -25 6z"/>
<path d="M1170 1150 c0 -5 5 -10 11 -10 5 0 7 5 4 10 -3 6 -8 10 -11 10 -2 0
-4 -4 -4 -10z"/>
<path d="M417 943 c-13 -12 -7 -33 9 -33 14 0 14 3 4 15 -8 9 -9 15 -2 15 6 0
14 -4 17 -10 3 -5 16 -10 28 -10 20 0 19 2 -7 15 -32 17 -40 18 -49 8z"/>
<path d="M1035 1155 c17 -14 36 -25 44 -25 8 0 -3 11 -23 25 -47 32 -60 32
-21 0z"/>
<path d="M2248 833 c7 -3 16 -2 19 1 4 3 -2 6 -13 5 -11 0 -14 -3 -6 -6z"/>
<path d="M1828 1173 c7 -3 16 -2 19 1 4 3 -2 6 -13 5 -11 0 -14 -3 -6 -6z"/>
<path d="M1761 1004 c0 -11 3 -14 6 -6 3 7 2 16 -1 19 -3 4 -6 -2 -5 -13z"/>
<path d="M1756 965 c-9 -9 -16 -21 -16 -26 0 -6 -4 -8 -9 -5 -5 3 -11 0 -14
-8 -3 -8 2 -16 14 -19 15 -4 19 -2 15 9 -3 7 4 23 16 34 12 11 19 22 16 25 -3
3 -13 -1 -22 -10z"/>
<path d="M2500 1190 c11 -7 11 -10 2 -10 -7 0 -10 -5 -6 -11 4 -8 9 -7 15 2 9
15 3 29 -14 29 -7 0 -6 -4 3 -10z"/>
<path d="M2421 993 c0 -6 -4 -20 -7 -30 -5 -14 -4 -15 5 -7 7 7 11 20 8 30 -3
11 -5 14 -6 7z"/>
<path d="M2460 915 c0 -16 16 -20 24 -6 3 5 -1 11 -9 15 -9 3 -15 0 -15 -9z"/>
<path d="M695 1060 c2 -27 22 -47 34 -34 12 12 -5 54 -22 54 -8 0 -13 -9 -12
-20z"/>
<path d="M1945 1090 c-4 -6 -17 -15 -29 -20 -14 -6 -16 -9 -5 -9 19 -1 56 25
47 34 -3 3 -9 1 -13 -5z"/>
<path d="M1866 1033 c-6 -14 -5 -15 5 -6 7 7 10 15 7 18 -3 3 -9 -2 -12 -12z"/>
<path d="M973 1083 c9 -2 23 -2 30 0 6 3 -1 5 -18 5 -16 0 -22 -2 -12 -5z"/>
<path d="M918 1073 c6 -2 18 -2 25 0 6 3 1 5 -13 5 -14 0 -19 -2 -12 -5z"/>
<path d="M950 996 c0 -2 7 -7 16 -10 8 -3 12 -2 9 4 -6 10 -25 14 -25 6z"/>
<path d="M1211 774 c0 -11 3 -14 6 -6 3 7 2 16 -1 19 -3 4 -6 -2 -5 -13z"/>
<path d="M2157 756 c-7 -17 11 -36 29 -29 10 4 11 9 1 24 -14 23 -23 24 -30 5z"/>
<path d="M1938 643 c7 -3 16 -2 19 1 4 3 -2 6 -13 5 -11 0 -14 -3 -6 -6z"/>
<path d="M2016 642 c-4 -7 -12 -9 -18 -6 -7 4 -8 2 -4 -4 4 -7 -3 -16 -18 -23
-13 -6 -26 -20 -29 -30 -4 -14 4 -11 37 14 22 17 43 33 45 34 1 1 1 7 -1 14
-3 10 -6 10 -12 1z"/>
<path d="M1737 623 c-4 -3 -4 -17 0 -31 3 -14 2 -23 -3 -19 -5 3 -14 -6 -21
-19 -13 -29 0 -32 20 -4 8 11 16 18 18 16 2 -2 5 9 6 25 2 28 -8 44 -20 32z"/>
<path d="M2408 743 c6 -2 18 -2 25 0 6 3 1 5 -13 5 -14 0 -19 -2 -12 -5z"/>
<path d="M2456 621 c-17 -19 -17 -19 1 -15 11 3 20 12 20 20 0 18 0 18 -21 -5z"/>
<path d="M2800 551 c0 -5 6 -14 14 -20 12 -10 13 -8 9 8 -5 21 -23 30 -23 12z"/>
<path d="M702 586 c4 -5 2 -16 -5 -24 -9 -13 -9 -14 1 -8 6 4 12 3 12 -2 0
-12 33 -11 43 2 5 6 5 1 2 -11 -5 -19 -3 -22 12 -16 16 6 17 5 4 -11 -14 -16
-16 -17 -27 -1 -9 12 -13 13 -17 3 -4 -10 -8 -10 -16 2 -6 8 -11 11 -11 5 0
-5 -4 -4 -9 4 -7 10 -9 7 -8 -12 2 -19 5 -23 15 -15 8 7 12 7 12 -2 0 -7 6
-10 14 -7 7 3 18 1 23 -4 10 -10 24 7 53 61 12 23 12 24 -3 11 -16 -12 -21 -9
-18 12 2 11 -27 8 -34 -4 -5 -7 -14 -4 -28 8 -12 10 -19 14 -15 9z"/>
<path d="M1240 568 c0 -7 4 -19 9 -26 7 -11 10 -10 15 3 3 9 4 21 0 26 -8 13
-24 11 -24 -3z"/>
<path d="M2135 590 c6 -10 4 -12 -8 -7 -10 3 -17 2 -17 -3 0 -13 27 -13 35 -1
3 5 0 13 -6 17 -8 5 -9 3 -4 -6z"/>
<path d="M1015 510 c-3 -5 -1 -10 4 -10 6 0 11 5 11 10 0 6 -2 10 -4 10 -3 0
-8 -4 -11 -10z"/>
<path d="M905 440 c-3 -5 1 -10 9 -10 9 0 16 5 16 10 0 6 -4 10 -9 10 -6 0
-13 -4 -16 -10z"/>
<path d="M560 370 c-8 -5 -13 -10 -10 -11 42 -8 60 -8 60 0 0 5 -7 12 -16 15
-19 7 -16 8 -34 -4z"/>
<path d="M858 363 c7 -3 16 -2 19 1 4 3 -2 6 -13 5 -11 0 -14 -3 -6 -6z"/>
<path d="M1139 433 c-13 -16 -12 -17 4 -4 9 7 17 15 17 17 0 8 -8 3 -21 -13z"/>
<path d="M490 430 c0 -5 5 -10 10 -10 6 0 10 5 10 10 0 6 -4 10 -10 10 -5 0
-10 -4 -10 -10z"/>
</g>
</svg>
