<svg xmlns="http://www.w3.org/2000/svg" xmlns:xlink="http://www.w3.org/1999/xlink" width="2272.305" height="350" viewBox="0 0 2272.305 350">
  <defs>
    <clipPath id="clip-path">
      <path id="Path_1329" data-name="Path 1329" d="M83.606,278.763H98.858c19.11,0,31.618-9,37.049-27.613,4.883-16.678,11.63-32.258,22.95-45.608,19.75-23.279,44.6-37.324,74.976-41.018,36.574-4.425,68.229,6.931,94.726,32.057,15.05,14.264,24.761,32.02,30.21,52.118,4.023,14.831,12.088,26.9,28.272,29.259s32.551.713,48.845.64c4.736,0,4.261-3.9,4.188-7.022a177.82,177.82,0,0,0-15.379-69C396.606,140.55,349.261,102,282.312,88.817,194.773,71.682,105.112,120.508,70.787,203a184.845,184.845,0,0,0-15,67.79c-.11,6.145,1.993,8.376,8.046,8.046C70.495,278.508,77.078,278.763,83.606,278.763Z" transform="translate(-55.788 -85.404)" fill="none"/>
    </clipPath>
  </defs>
  <g id="Schoolable_logo" transform="translate(-55.787 0)">
    <g id="Layer_1" data-name="Layer 1" transform="translate(55.788 0)">
      <g id="Group_851" data-name="Group 851" transform="translate(0 0)">
        <g id="Group_849" data-name="Group 849">
          <g id="Group_848" data-name="Group 848" transform="translate(0 156.179)" clip-path="url(#clip-path)">
            <g id="Group_847" data-name="Group 847" transform="translate(-102.019 -80.488)">
              <rect id="Rectangle_323" data-name="Rectangle 323" width="367.641" height="339.297" transform="translate(137.189 18.964)" fill="#5b63fe"/>
              <path id="Path_1327" data-name="Path 1327" d="M479.082,116.659,332.257,41.39,150.21,329.337,324.3,418.6Z" transform="translate(124.478 -41.39)" fill="#f4e55e"/>
              <path id="Path_1328" data-name="Path 1328" d="M132.507,65.45,0,163.779,202.181,436.237l157.1-116.58Z" transform="translate(0 -21.452)" fill="#251f68"/>
            </g>
          </g>
          <path id="Path_1330" data-name="Path 1330" d="M254.522,64.828a64,64,0,1,1-18.543-45.882A64.571,64.571,0,0,1,254.522,64.828Z" transform="translate(1.883 0)" fill="#ff6f08"/>
        </g>
        <g id="Group_850" data-name="Group 850" transform="translate(447.797 36.575)">
          <path id="Path_1331" data-name="Path 1331" d="M322.367,236.441A52.466,52.466,0,0,1,300.66,195.7h42.682a21.8,21.8,0,0,0,9.29,17.245c5.669,4.06,12.947,6.071,21.78,6.071s15.709-1.7,20.573-5.12a16.934,16.934,0,0,0,7.315-14.776c0-5.943-1.938-10.259-5.8-12.984a39.8,39.8,0,0,0-15.05-5.962l-29.259-7.022q-24.45-5.486-35.916-18.47A45.462,45.462,0,0,1,304.811,123.5q0-25.181,19.238-40.359T374.009,68q30.686,0,49.649,15.16a50.856,50.856,0,0,1,19.695,39.994H400.726a20.115,20.115,0,0,0-7.589-16.458q-7.571-6.053-19.9-6.053-11.192,0-17.812,4.828a15.964,15.964,0,0,0-6.6,13.734q0,8.924,5.212,12.417a48.714,48.714,0,0,0,15.251,5.962l33.355,7.589q22.548,5.486,33.447,18.653a48,48,0,0,1,10.972,31.563q0,25.6-19.6,40.926t-52.593,15.343Q342.556,251.6,322.367,236.441Z" transform="translate(-300.66 19.778)" fill="#251f68"/>
          <path id="Path_1332" data-name="Path 1332" d="M406.736,111.677a80.463,80.463,0,0,1,32.4-32.222A97.56,97.56,0,0,1,486.8,68.007q35.642,0,59.323,18.671T573.4,136.6H529.057a38.018,38.018,0,0,0-15.069-22.639q-11.283-7.882-27.558-7.863-21.432,0-34.4,14.5t-12.984,39.317q0,24.066,12.6,38.659t34.4,14.63q17.062,0,28.509-8.339a35.917,35.917,0,0,0,14.5-21.652H573.4a72.068,72.068,0,0,1-27.577,49.539q-23.772,18.872-58.646,18.854-27.1,0-48.04-11.466a79.916,79.916,0,0,1-32.4-32.4q-11.465-20.865-11.466-48.3T406.736,111.677Z" transform="translate(-222.257 19.77)" fill="#251f68"/>
          <path id="Path_1333" data-name="Path 1333" d="M513.4,20h43.4V133.379a52.666,52.666,0,0,1,22.182-18.762,71.814,71.814,0,0,1,31.088-6.821q30.7,0,47.546,18.854t16.879,52.593v107.07H631.095V189.246q0-24.047-10.533-33.154a35.349,35.349,0,0,0-23.773-9.143,46.119,46.119,0,0,0-27.96,9.143q-12.4,9.144-12.4,30.887v99.3H513.4Z" transform="translate(-124.363 -20)" fill="#251f68"/>
          <path id="Path_1334" data-name="Path 1334" d="M632.984,112.629A85.3,85.3,0,0,1,666.522,79.84a107.344,107.344,0,0,1,98.055,0,85.229,85.229,0,0,1,33.648,32.789A93.259,93.259,0,0,1,810.258,159.9a93.067,93.067,0,0,1-12.032,47,85.3,85.3,0,0,1-33.539,32.917,107.728,107.728,0,0,1-98.164,0,85.437,85.437,0,0,1-33.538-32.825A92.737,92.737,0,0,1,621.006,159.9,93.078,93.078,0,0,1,632.984,112.629Zm46.54,85.217Q693.532,212.8,715.531,212.8q22.547,0,36.574-14.959t13.99-38.4q0-23.3-14.008-38.183t-36.574-14.867q-22.182,0-36.1,14.867T665.48,159.443Q665.48,182.832,679.524,197.846Z" transform="translate(-35.202 19.769)" fill="#251f68"/>
          <path id="Path_1335" data-name="Path 1335" d="M751.758,112.629A85.432,85.432,0,0,1,785.3,79.84a107.382,107.382,0,0,1,98.073,0A85.313,85.313,0,0,1,917,112.629,93.083,93.083,0,0,1,929.032,159.9,92.871,92.871,0,0,1,917,206.9a85.289,85.289,0,0,1-33.539,32.917,107.727,107.727,0,0,1-98.164,0,85.549,85.549,0,0,1-33.539-32.825A92.736,92.736,0,0,1,739.725,159.9,93.065,93.065,0,0,1,751.758,112.629Zm46.521,85.217Q812.287,212.8,834.287,212.8q22.547,0,36.574-14.959t14.026-38.4q0-23.3-14.026-38.183t-36.574-14.867q-22.164,0-36.1,14.867t-13.934,38.183Q784.254,182.832,798.279,197.846Z" transform="translate(63.182 19.769)" fill="#251f68"/>
          <path id="Path_1336" data-name="Path 1336" d="M864,20h43.34V286.259H864Z" transform="translate(166.177 -20)" fill="#251f68"/>
          <path id="Path_1337" data-name="Path 1337" d="M1094.425,73.493V246.506h-41.493v-24.45a61.244,61.244,0,0,1-25.492,21.6,84.6,84.6,0,0,1-37.05,7.955,81.068,81.068,0,0,1-42.736-11.265,75.579,75.579,0,0,1-28.894-31.838q-10.24-20.573-10.24-47.857t10.808-48.607a78.284,78.284,0,0,1,30.3-32.587,86.075,86.075,0,0,1,44.546-11.448,84.959,84.959,0,0,1,35.532,7.205,61.019,61.019,0,0,1,25.109,20.225l3.419-21.944Zm-57.7,124.114q13.716-14.794,13.734-38.4t-13.368-38q-13.35-14.319-35.531-14.319t-35.477,14.447q-13.368,14.52-13.35,38.183t13.35,38.329q13.441,14.63,35.056,14.63T1036.729,197.607Z" transform="translate(203.071 19.771)" fill="#251f68"/>
          <path id="Path_1338" data-name="Path 1338" d="M1180.943,119.225a80.006,80.006,0,0,1,30.026,32.222q10.972,20.737,10.973,47.839a103.142,103.142,0,0,1-10.973,48.131,79.483,79.483,0,0,1-30.026,32.5,88.109,88.109,0,0,1-80.464,3.328,60.934,60.934,0,0,1-25.6-22.182l-3.237,25.218H1036V20h43.029V131.441a58.518,58.518,0,0,1,24.067-17.427,87.577,87.577,0,0,1,33.684-6.236,84.286,84.286,0,0,1,44.164,11.448Zm-16.77,118.39q13.367-14.63,13.349-38.293t-13.349-38.183q-13.349-14.483-35.531-14.5-21.8,0-35.167,14.319t-13.349,38q0,24.066,13.458,38.659t35.422,14.63Q1150.806,252.245,1164.174,237.615Z" transform="translate(308.713 -20)" fill="#251f68"/>
          <path id="Path_1339" data-name="Path 1339" d="M1158.36,20h43.394V286.259H1158.36Z" transform="translate(410.111 -20)" fill="#251f68"/>
          <path id="Path_1340" data-name="Path 1340" d="M1348.466,235.324q-23.315,16.294-55.537,16.294-26.718,0-47.089-11.649a81.128,81.128,0,0,1-31.638-32.587q-11.263-20.92-11.283-48.223t11.466-48.04a80.681,80.681,0,0,1,31.655-31.838A92.237,92.237,0,0,1,1291.758,68,90.867,90.867,0,0,1,1336.4,78.714a76.1,76.1,0,0,1,30.027,29.259,84.373,84.373,0,0,1,10.606,42.627,101.293,101.293,0,0,1-1.828,21.414H1245.584q.731,19.713,13.734,31.746t33.63,12.033a55.064,55.064,0,0,0,26.828-6.163,32.257,32.257,0,0,0,15.433-17.153h42.261Q1371.782,219.048,1348.466,235.324Zm-15.544-92.477q-.384-18.177-12.032-28.711t-30.229-10.515q-18.963,0-31.271,10.716t-13.075,28.51Z" transform="translate(447.039 19.761)" fill="#251f68"/>
        </g>
      </g>
    </g>
  </g>
</svg>
