<svg width="186" height="79" viewBox="0 0 186 79" fill="none" xmlns="http://www.w3.org/2000/svg">
<path d="M40.0011 76.8567L32.0323 65.2924V35.1201V4.94783H54.2988L58.0835 11.6761H40.0011V16.5121H60.1861L64.6015 24.0815H40.0011V76.8567Z" fill="black"/>
<path d="M43.4622 78.0098V27.5473H75.0012L71.8473 35.1167H51.8726V39.3219H70.3755L67.6421 46.8913H51.8726V72.543L43.4622 78.0098Z" fill="black"/>
<path fill-rule="evenodd" clip-rule="evenodd" d="M0.505554 21.2985L21.3213 0.693054L29.1009 4.89825V42.5348L21.3213 36.8578V29.0781L10.598 22.9806L6.18256 27.6063L0.505554 21.2985ZM21.111 13.2035V21.6139L14.8032 18.46L21.111 13.2035Z" fill="black"/>
<path d="M102.684 15.7816H99.7862L99.0302 13.7476H93.8822L93.1262 15.7816H90.2282L94.8542 3.77562H98.0582L102.684 15.7816ZM98.3282 11.4976L96.4562 6.33162L94.5842 11.4976H98.3282ZM106.349 15.7816H103.793V3.77562H112.289V6.02562H106.349V8.54562H112.163V10.7956H106.349V15.7816ZM123.814 15.7816H120.862L118.504 11.5156H116.632V15.7816H114.076V3.77562H119.692C120.928 3.77562 121.912 4.13562 122.644 4.85562C123.376 5.57562 123.742 6.50562 123.742 7.64562C123.742 8.62962 123.478 9.42762 122.95 10.0396C122.434 10.6516 121.816 11.0416 121.096 11.2096L123.814 15.7816ZM119.332 9.26562C119.848 9.26562 120.274 9.12162 120.61 8.83362C120.946 8.53362 121.114 8.13162 121.114 7.62762C121.114 7.14762 120.946 6.76362 120.61 6.47562C120.274 6.17562 119.848 6.02562 119.332 6.02562H116.632V9.26562H119.332ZM128.198 15.7816H125.642V3.77562H128.198V15.7816ZM136.414 15.9976C134.578 15.9976 133.048 15.4216 131.824 14.2696C130.612 13.1056 130.006 11.6116 130.006 9.78762C130.006 7.95162 130.612 6.45762 131.824 5.30562C133.048 4.15362 134.578 3.57762 136.414 3.57762C138.658 3.57762 140.326 4.55562 141.418 6.51162L139.222 7.59162C138.958 7.08762 138.568 6.67362 138.052 6.34962C137.548 6.01362 137.002 5.84562 136.414 5.84562C135.322 5.84562 134.416 6.21762 133.696 6.96162C132.988 7.70562 132.634 8.64762 132.634 9.78762C132.634 10.9276 132.988 11.8696 133.696 12.6136C134.416 13.3576 135.322 13.7296 136.414 13.7296C137.002 13.7296 137.548 13.5676 138.052 13.2436C138.568 12.9076 138.958 12.4876 139.222 11.9836L141.418 13.0456C140.302 15.0136 138.634 15.9976 136.414 15.9976ZM154.012 15.7816H151.114L150.358 13.7476H145.21L144.454 15.7816H141.556L146.182 3.77562H149.386L154.012 15.7816ZM149.656 11.4976L147.784 6.33162L145.912 11.4976H149.656Z" fill="black"/>
<path d="M94.0442 43.4411H91.4882V31.4351H99.9842V33.6851H94.0442V36.2051H99.8582V38.4551H94.0442V43.4411ZM104.327 43.4411H101.771V31.4351H104.327V43.4411ZM117.457 43.4411H114.991L109.267 35.6111V43.4411H106.711V31.4351H109.339L114.901 38.9771V31.4351H117.457V43.4411ZM125.17 43.4411H122.596V33.6851H119.086V31.4351H128.662V33.6851H125.17V43.4411ZM138.797 43.4411H130.301V31.4351H138.797V33.6851H132.857V36.2051H138.671V38.4551H132.857V41.1911H138.797V43.4411ZM146.627 43.6571C144.791 43.6571 143.261 43.0811 142.037 41.9291C140.825 40.7651 140.219 39.2711 140.219 37.4471C140.219 35.6111 140.825 34.1171 142.037 32.9651C143.261 31.8131 144.791 31.2371 146.627 31.2371C148.871 31.2371 150.539 32.2151 151.631 34.1711L149.435 35.2511C149.171 34.7471 148.781 34.3331 148.265 34.0091C147.761 33.6731 147.215 33.5051 146.627 33.5051C145.535 33.5051 144.629 33.8771 143.909 34.6211C143.201 35.3651 142.847 36.3071 142.847 37.4471C142.847 38.5871 143.201 39.5291 143.909 40.2731C144.629 41.0171 145.535 41.3891 146.627 41.3891C147.215 41.3891 147.761 41.2271 148.265 40.9031C148.781 40.5671 149.171 40.1471 149.435 39.6431L151.631 40.7051C150.515 42.6731 148.847 43.6571 146.627 43.6571ZM163.952 43.4411H161.378V38.3831H155.708V43.4411H153.152V31.4351H155.708V36.1511H161.378V31.4351H163.952V43.4411Z" fill="black"/>
<path d="M94.0442 71.1006H91.4882V59.0946H99.9842V61.3446H94.0442V63.8646H99.8582V66.1146H94.0442V71.1006ZM107.477 71.3166C105.653 71.3166 104.147 70.7346 102.959 69.5706C101.783 68.4066 101.195 66.9186 101.195 65.1066C101.195 63.2946 101.783 61.8066 102.959 60.6426C104.147 59.4786 105.653 58.8966 107.477 58.8966C109.289 58.8966 110.783 59.4846 111.959 60.6606C113.147 61.8246 113.741 63.3066 113.741 65.1066C113.741 66.9066 113.147 68.3946 111.959 69.5706C110.783 70.7346 109.289 71.3166 107.477 71.3166ZM104.831 67.9326C105.503 68.6766 106.385 69.0486 107.477 69.0486C108.569 69.0486 109.445 68.6766 110.105 67.9326C110.777 67.1886 111.113 66.2466 111.113 65.1066C111.113 63.9666 110.777 63.0246 110.105 62.2806C109.445 61.5366 108.569 61.1646 107.477 61.1646C106.373 61.1646 105.485 61.5366 104.813 62.2806C104.153 63.0246 103.823 63.9666 103.823 65.1066C103.823 66.2466 104.159 67.1886 104.831 67.9326ZM124.985 69.9666C124.073 70.8666 122.729 71.3166 120.953 71.3166C119.177 71.3166 117.827 70.8666 116.903 69.9666C115.991 69.0546 115.535 67.8306 115.535 66.2946V59.0946H118.127V66.2226C118.127 67.0866 118.373 67.7766 118.865 68.2926C119.357 68.7966 120.053 69.0486 120.953 69.0486C121.853 69.0486 122.543 68.7966 123.023 68.2926C123.515 67.7766 123.761 67.0866 123.761 66.2226V59.0946H126.371V66.2946C126.371 67.8306 125.909 69.0546 124.985 69.9666ZM139.5 71.1006H137.034L131.31 63.2706V71.1006H128.754V59.0946H131.382L136.944 66.6366V59.0946H139.5V71.1006ZM146.619 71.1006H141.867V59.0946H146.601C148.485 59.0946 150.015 59.6466 151.191 60.7506C152.379 61.8546 152.973 63.3006 152.973 65.0886C152.973 66.9006 152.385 68.3586 151.209 69.4626C150.033 70.5546 148.503 71.1006 146.619 71.1006ZM146.601 68.8506C147.753 68.8506 148.665 68.4906 149.337 67.7706C150.021 67.0506 150.363 66.1566 150.363 65.0886C150.363 63.9966 150.033 63.1026 149.373 62.4066C148.725 61.6986 147.807 61.3446 146.619 61.3446H144.423V68.8506H146.601ZM164.525 71.1006H161.573L159.215 66.8346H157.343V71.1006H154.787V59.0946H160.403C161.639 59.0946 162.623 59.4546 163.355 60.1746C164.087 60.8946 164.453 61.8246 164.453 62.9646C164.453 63.9486 164.189 64.7466 163.661 65.3586C163.145 65.9706 162.527 66.3606 161.807 66.5286L164.525 71.1006ZM160.043 64.5846C160.559 64.5846 160.985 64.4406 161.321 64.1526C161.657 63.8526 161.825 63.4506 161.825 62.9466C161.825 62.4666 161.657 62.0826 161.321 61.7946C160.985 61.4946 160.559 61.3446 160.043 61.3446H157.343V64.5846H160.043ZM171.941 71.1006H169.385V66.1866L164.777 59.0946H167.693L170.663 63.9006L173.633 59.0946H176.531L171.941 66.1866V71.1006Z" fill="black"/>
</svg>
