<svg id="Layer_1" xmlns="http://www.w3.org/2000/svg" viewBox="0 0 1080 1080"><style>.st0{fill:#3a4195}.st1{fill:#a9ce43}</style><g id="XMLID_14_"><circle id="XMLID_4_" class="st0" cx="107.4" cy="355.5" r="17.7"/><circle id="XMLID_18_" class="st0" cx="224.9" cy="658.6" r="2.9"/><g id="XMLID_7_"><path id="XMLID_16_" class="st1" d="M883.9 578.3h.1-.1z"/><path id="XMLID_39_" class="st1" d="M851.3 443.3c-49.2 0-92 27.9-113.2 68.7l-71.9-21.2-2.9 20.6 66.6 20.4c-4 12.3-6.1 25.5-6.1 39.1 0 70.5 57.1 127.6 127.6 127.6S979 641.4 979 570.9s-57.2-127.6-127.7-127.6zM915.9 653c1.5-3.6 1.9-6 1.9-6-.4-40.3-33.8-66.3-33.8-66.3s-.3-2-.1-2.3h-1.3c8.1-8.3 13.2-19.6 13.2-32.1 0-25.3-20.5-45.8-45.8-45.8-25.3 0-45.8 20.5-45.8 45.8 0 12.5 5 23.8 13.1 32.1-31.3 22.6-37.5 68.5-37.5 68.6-20.2-19-32.9-46.1-32.9-76 0-57.7 46.8-104.4 104.4-104.4 57.7 0 104.4 46.8 104.4 104.4.1 33.2-15.5 62.9-39.8 82z"/></g><path id="XMLID_25_" d="M636.4 586.1c-1.6 0-3.2.1-4.8.1l-4.7-29.1-20 3.7 1.1 2.2 3.8 26.7c-35.7 10.6-61.8 43.7-61.8 82.9 0 47.8 38.7 86.5 86.5 86.5s86.5-38.7 86.5-86.5-38.9-86.5-86.6-86.5zM674.2 718c-1.6-21.1-19.9-34.6-19.9-34.6s-.2-1.1-.1-1.3h-.8c4.8-4.6 7.8-11 7.8-18 0-14.2-12.1-25.7-27.1-25.7S607 649.9 607 664.1c0 7 3 13.4 7.7 18-13.8 9.5-19.3 26.4-21.2 34.2-11.8-11.1-19.3-26.8-19.3-44.3 0-33.4 27.1-60.5 60.5-60.5s60.5 27.1 60.5 60.5c.1 18.4-8.1 34.9-21 46z" fill="#f58733"/><path id="XMLID_36_" d="M737.3 352.4c-25.2 0-45.6 20.4-45.6 45.6 0 4.3.6 8.5 1.8 12.5l-34.6 19.2 4.4 18.4 40-19.8c8.4 9.4 20.5 15.3 34 15.3 25.2 0 45.6-20.4 45.6-45.6 0-25.2-20.4-45.6-45.6-45.6zm17.8 63c-2.6-6.7-8.1-10.8-8.1-10.8s-.1-.5 0-.6h-.4c2.3-2.2 3.7-5.2 3.7-8.5 0-6.7-5.7-12.1-12.7-12.1-7 0-12.7 5.4-12.7 12.1 0 3.3 1.4 6.3 3.6 8.4-4.6 3.1-7.2 8-8.7 11.9-4.6-4.5-7.5-10.8-7.5-17.8 0-13.8 11.2-24.9 24.9-24.9 13.8 0 24.9 11.2 24.9 24.9.1 6.8-2.6 12.9-7 17.4z" fill="#23ade4"/><path id="XMLID_32_" d="M648.2 348.8c0-15.4-12.5-27.9-27.9-27.9-15.4 0-27.9 12.5-27.9 27.9 0 10 5.3 18.8 13.3 23.7l-6.8 28.9 20.3 4 5.4-29.1c13.4-2 23.6-13.5 23.6-27.5zm-21 10.8c-.1-3.8-3.4-6.3-3.4-6.3v-.2h-.1c.8-.8 1.3-1.9 1.3-3 0-2.4-2.1-4.3-4.6-4.3s-4.6 1.9-4.6 4.3c0 1.2.5 2.3 1.3 3-3 2.1-3.7 6.2-3.7 6.5-3.5-2.3-5.9-6.2-5.9-10.8 0-7.1 5.7-12.8 12.8-12.8 7.1 0 12.8 5.7 12.8 12.8 0 4.6-2.3 8.5-5.9 10.8z" fill="#6e508d"/><path id="XMLID_5_" class="st0" d="M123.2 393.4l-31.1 15v168.3l31.1-17.6z"/><path id="XMLID_10_" class="st0" d="M277.4 572.9L277 347l30.5-13.6v78.4s23.8-31.6 67.1-3.9c7.3 4.7 13.4 11.6 18.4 18.8.1.1.2.2.2.3 4.6 6.7 9.1 16 9.1 24.1v107.4l-30.9 14.3V459.1c0-7.5-2.2-14.9-6.6-21-4.8-6.6-12.9-13-26.3-13.1 0 0-29.7 1.1-30.8 28.1l.2 106.1-30.5 13.7z"/><path id="XMLID_11_" class="st0" d="M442 394.5l-31.5 14.7v104.7s.1 2.4.7 6.3c4.3 23.7 22.8 42.3 46.3 47.3 15 3.2 37.4 4.2 55.8-10.5 12.7-10.3 22.9-25.2 23.3-41.5v-121l-31.5 14.3 1.6 102c.1 4.9-.8 9.7-2.8 14.2-3.6 8-11.8 17.6-30.5 17.9 0 0-27.5-.2-31-26-.2-1.6-.3-3.3-.3-4.9l-.1-117.5z"/><path id="XMLID_72_" class="st0" d="M488.3 664.1l-4.4 2.1V681s0 .3.1.9c.6 3.4 3.2 6 6.4 6.7 2.1.5 5.2.6 7.7-1.5 1.8-1.5 3.2-3.6 3.2-5.9v-17.1l-4.4 2 .2 14.4c0 .7-.1 1.4-.4 2-.5 1.1-1.6 2.5-4.2 2.5 0 0-3.8 0-4.3-3.7v-.7l.1-16.5z"/><path id="XMLID_34_" class="st0" d="M607.8 398.6c-3.5-.5-15.4-2.6-32.1 11.7l-.2-77.3-31.2 15v161c0 11.3 2.9 22.5 8.8 32.1 5.5 8.9 14.3 18.1 28.5 23.8 12.8 5.1 26.9 5.8 40.3 2.8.4-.1.9-.2 1.4-.3 26.4-6.2 46.6-28.3 46.6-55.4v-58.3c0-10.7-4.8-21.4-10.9-30.3-7.8-11.4-25.9-23.9-48.6-24.7-.8.1-1.7 0-2.6-.1zM639.5 513c0 18.8-11 27.9-30.3 29.7-17 1.5-33.8-13.8-33.8-30.9v-53.5c0-17.1 12.9-31.7 29.9-33.1 19.1-1.5 33.7 13.9 33.7 32.7l.5 55.1z"/><path id="XMLID_74_" class="st0" d="M517.5 664.5c-.5-.1-2.2-.4-4.5 1.7v-11.3l-4.4 2.2v23.4c0 1.6.4 3.3 1.2 4.7.8 1.3 2 2.6 4 3.5 1.8.7 3.8.8 5.7.4h.2c3.7-.9 6.6-4.1 6.6-8.1v-8.5c0-1.6-.7-3.1-1.5-4.4-1.1-1.7-3.6-3.5-6.8-3.6-.2.1-.3.1-.5 0zm4.5 16.7c0 2.7-1.5 4.1-4.3 4.3-2.4.2-4.8-2-4.8-4.5v-7.8c0-2.5 1.8-4.6 4.2-4.8 2.7-.2 4.7 2 4.7 4.8l.2 8z"/><path id="XMLID_35_" class="st0" d="M259.7 575.5V462.3c0-13.4-1.8-26.6-9-37.9-23.8-37.1-67.1-25.6-67.1-25.6-44.7 12.7-48 51.5-48 51.5v60.3c0 26.2 19.1 49.7 44.5 56.4 6.1 1.6 10.2 1.7 10.2 1.7 32 2.2 39.7-12.1 39.7-12.1v18.8c-.6 13.7-8.2 20.9-15.3 24.7-5.1 2.7-10.9 4-16.6 4h-34.2l-13.2 26.5h49c11.8 0 23.5-3.1 33.6-9.4 26.8-17 26.4-45.7 26.4-45.7zm-29.8-63.9c0 17.9-13.5 31.6-31.5 31.6s-32.6-13.5-32.6-31.4V457c0-17.9 14.7-32.6 32.6-32.6s31.5 14.8 31.5 32.8v54.4z"/><path id="XMLID_15_" class="st0" d="M88.8 655.5l-4.4 2V690l4.4-2.5z"/><path id="XMLID_48_" class="st0" d="M95.8 688.8v-18.3c0-.3.1-.6.2-.9.6-1.4 2.7-5.2 8.3-5.2 0 0 7-.2 8.1 5.7V687l-3.3 1.8.2-17c0-.2 0-.5-.1-.7-.3-.9-.3-3.4-5-3.4 0 0-4 0-4.5 3.6l-.1 15.5-3.8 2z"/><path id="XMLID_49_" class="st0" d="M119.7 688.8v-18.3c0-.4.1-.7.2-1.1.6-1.5 2.8-5.1 8.2-5.1 0 0 7-.2 8.1 5.7v16.9l-3.3 1.8.2-17.3s.3-3.8-5.2-3.8c0 0-4.6 0-4.5 3.6l-.1 15.5-3.6 2.1z"/><path id="XMLID_56_" class="st0" d="M257.2 688.8v-18.2c0-.4.1-.8.2-1.1.7-1.5 2.8-5.1 8.2-5.1 0 0 7-.2 8.1 5.7V687l-3.3 1.8.2-17.3s.4-3.8-5.2-3.8c0 0-4.6 0-4.5 3.6l-.1 15.5-3.6 2z"/><g id="XMLID_86_"><path id="XMLID_87_" class="st0" d="M150.8 688.7c-6.7 0-9.4-3.8-9.4-8.7v-6.7c0-4.8 2.7-8.7 9.4-8.7s9.4 3.8 9.4 8.7v6.7c0 4.9-2.6 8.7-9.4 8.7zm0-20.6c-3.6 0-5.4 1.7-5.4 5.1v7c0 3.4 1.8 5.1 5.4 5.1 3.6 0 5.4-1.7 5.4-5.1v-7c0-3.4-1.8-5.1-5.4-5.1z"/></g><g id="XMLID_82_"><path id="XMLID_83_" class="st0" d="M242.6 688.7c-6.7 0-9.4-3.8-9.4-8.7v-6.7c0-4.8 2.7-8.7 9.4-8.7s9.4 3.8 9.4 8.7v6.7c0 4.9-2.7 8.7-9.4 8.7zm0-20.6c-3.6 0-5.4 1.7-5.4 5.1v7c0 3.4 1.8 5.1 5.4 5.1 3.6 0 5.4-1.7 5.4-5.1v-7c0-3.4-1.8-5.1-5.4-5.1z"/></g><g id="XMLID_50_"><path id="XMLID_73_" class="st0" d="M348.5 688.7c-6.7 0-9.4-3.8-9.4-8.7v-6.7c0-4.8 2.7-8.7 9.4-8.7s9.4 3.8 9.4 8.7v6.7c0 4.9-2.6 8.7-9.4 8.7zm0-20.6c-3.6 0-5.4 1.7-5.4 5.1v7c0 3.4 1.8 5.1 5.4 5.1 3.6 0 5.4-1.7 5.4-5.1v-7c0-3.4-1.8-5.1-5.4-5.1z"/></g><g id="XMLID_70_"><g id="XMLID_101_"><path id="XMLID_102_" class="st0" d="M191.1 674.4c2.8 0 4.9 1 5.7 2v-2.7c0-3.1-2.1-4.8-5.3-4.8-2.7 0-4.9 1-6.4 1.9l-1.3-2.4c1.5-.9 4.4-2.4 8.1-2.4 6 0 8.3 3.3 8.3 8v14.4h-2.9l-.4-1.8c-1.1 1.3-3 2.4-5.9 2.4-4.8 0-8.3-3-8.3-7.3s3.5-7.3 8.4-7.3zm.5 11.7c3.2 0 5.4-1.9 5.4-4.5 0-2.7-2.2-4.5-5.5-4.5s-5.5 1.9-5.5 4.5c.1 2.4 2.2 4.5 5.6 4.5z"/></g></g><path id="XMLID_51_" class="st0" d="M162.3 665.7l3.3-2 6 19.2 6.5-19.1 3.2 2.2-7.1 20.9-4.2 2.6z"/><path id="XMLID_53_" class="st0" d="M213.1 655l-5 2.6v7.8h-3.7l-1.3 3.6h5v20.5l5-3.1v-17.5l3.8.1 1.6-3.7h-5.4z"/><path id="XMLID_58_" class="st0" d="M406.5 655l-5 2.6v7.8h-3.7l-1.2 3.6h4.9v20.5l5-3.1v-17.5l3.8.1 1.6-3.7h-5.3z"/><path id="XMLID_52_" class="st0" d="M227.1 664.4l-4.8 2.3v22.8l5.1-5.1z"/><path id="XMLID_61_" class="st0" d="M314.9 668.1l3.9-2.5s.6-10-10.4-10c0 0-10.4.6-10.4 8.7v17.4s.9 7.1 8.9 7.1c0 0 11.9.3 11.9-8.1v-10.5h-9.7l-2.8 4h8.5v7.1s-2.4 3.7-6.4 3.7c0 0-6 .9-6.8-5.6v-15s.4-4.4 6.8-4.4c0-.1 6.5-1.4 6.5 8.1z"/><path id="XMLID_54_" class="st0" d="M325.8 688.8v-18s.1-3.3 5.1-6.4h6.2l-1.8 4.7h-4.5s-1.6 1.2-1.3 3.2v14.3l-3.7 2.2z"/><path id="XMLID_63_" class="st0" d="M367.3 663.2l-4 2.6v16.6s.6 6.4 8.1 6.4c0 0 3 .4 7.4-3.9 0 0 1.4 3.9 7.9 3.9 0 0 5.5.7 7-6.5v-18.6l-4 1.9v16.8s-.8 2.7-4.3 2.7c0 0-4.6.5-4.7-3.5v-18.4l-4.2 2.2v16.7s-1 2.9-5.4 2.9c0 0-3.4.6-3.6-3.6l-.2-18.2z"/><path id="XMLID_67_" class="st0" d="M420.3 655l-4.3 2.1v32.4l4.8-3v-16.2s2.1-2.1 5.2-2.1c0 0 3.4-.5 3.4 4v17.3l4.3-2.3v-16.6s0-6.3-8.9-6.3c0 0-1-.4-4.1 2.5l-.4-11.8z"/><path id="XMLID_62_" class="st0" d="M460.9 655l-4.7 2.3v32.8l4.7-3.4V674h12v16.1l4.9-3.9V655l-5.1 2.7V670h-11.9z"/></g></svg>