<svg width="1864" height="702" fill="none" xmlns="http://www.w3.org/2000/svg"><path fill-rule="evenodd" clip-rule="evenodd" d="M1301 555h-47c-5 0-10-5-10-11v-59c0-5 5-10 10-10h47c6 0 11 5 11 10v59c0 6-5 11-11 11zM233 555h-48c-6 0-11-6-11-11V372c0-45-8-57-43-57-18 0-39 6-61 18v211c0 5-5 11-11 11H11c-6 0-11-6-11-11V57c0-5 5-10 11-10h48c6 0 11 5 11 10v219c20-12 42-19 79-19 73 0 95 51 95 115v172c0 5-5 11-11 11zM434 387c0-43-19-71-56-71s-57 28-57 71v42c0 43 20 70 57 70s56-27 56-70v-42zm-56 172c-83 0-126-55-126-130v-42c0-75 43-130 126-130 82 0 126 55 126 130v42c0 75-44 130-126 130zm281-4c-13 2-24 4-36 4-60 0-84-13-84-83V312l-49-7c-6-1-11-5-11-11v-23c0-6 5-11 11-11h49v-43c0-5 5-9 11-10l49-8h2c5 0 8 2 8 7v54h48c5 0 10 5 10 11v30c0 6-5 11-10 11h-48v164c0 26 2 29 21 29h28c7 0 11 3 11 8v33c0 5-3 8-10 9zm195-175c0-40-22-64-55-64s-56 23-56 64v2h111v-2zm60 51H742v2c0 30 13 66 63 66 39 0 75-3 97-5h2c5 0 9 3 9 8v34c0 9-1 12-11 14-34 6-54 9-102 9-53 0-127-28-127-131v-39c0-81 45-132 126-132s126 54 126 132v29c0 9-4 13-11 13zm85 228h-49c-6 0-11-6-11-11V168c0-6 5-11 11-11h49c6 0 10 5 10 11v480c0 5-4 11-10 11zm126-100c-20 0-65-3-94-11-7-1-10-5-10-12v-31c0-4 3-8 9-8h2c25 3 73 5 88 5 33 0 38-10 38-25 0-9-6-16-23-26l-73-44a86 86 0 0 1-44-72c0-52 33-78 100-78 43 0 67 4 94 10 7 2 10 6 10 12v30c0 7-3 10-9 10h-2c-15-2-57-6-87-6-25 0-36 6-36 22 0 8 8 13 21 21l69 42c44 27 51 53 51 79 0 46-35 82-104 82zm438-4h-48c-6 0-11-6-11-11V374c0-46-4-59-45-59-18 0-37 7-59 19v210c0 5-5 11-11 11h-48c-6 0-11-6-11-11V271c0-6 5-11 11-11h46c5 0 10 5 10 11v11c31-20 51-25 86-25 76 0 91 50 91 117v170c0 5-5 11-11 11zM1777 357c0-25-11-44-56-44s-57 20-57 44v5c0 19 7 41 57 41 43 0 56-15 56-41v-5zm6 218c0-11-7-18-62-31l-47-11c-8 11-14 18-14 36v5c0 21 14 34 63 34 51 0 60-10 60-29v-4zm67-267l-18 7c9 12 13 23 13 41v4c0 65-45 95-124 95-28 0-47-5-58-9-6 4-9 9-9 14 0 10 6 14 18 17l62 15c72 16 118 27 118 83v4c0 53-39 82-129 82-85 0-131-32-131-87v-5c0-21 10-42 27-57a60 60 0 0 1-23-48v-1c0-16 6-32 21-42-16-16-22-35-22-61v-4c0-52 34-96 126-96h123c8 0 14 7 14 14v22c0 8-2 9-8 12z" fill="#00AEFF"/></svg>