<svg id="Layer_1" data-name="Layer 1" xmlns="http://www.w3.org/2000/svg" viewBox="0 0 719.67 180.91"><defs><style>.cls-1{fill:#322b31}.cls-2{fill:#9c7161}</style></defs><g id="Page-1"><g id="ariga-deliverables"><g id="Group-53"><path id="Fill-40" class="cls-1" d="M146.21 67.45h28.45V38.6h-28.45v28.85z"/><path id="Fill-42" class="cls-1" d="M0 139.19h26.9v-28.85H0v28.85z"/><path id="Fill-43" class="cls-2" d="M34.7 180.91h28.85V75.25H34.7v105.66z"/><path id="Fill-44" class="cls-2" d="M109.56 180.91h28.85v-33.92h-28.85v33.92z"/><path id="Fill-45" class="cls-1" d="M0 67.45h101.76V38.6H0v28.85z"/><path id="Fill-46" class="cls-2" d="M109.56 102.54h28.85V0h-28.85v102.54z"/><path id="Fill-47" class="cls-1" d="M71.35 139.19h103.31v-28.85H71.35v28.85z"/><path id="Fill-48" class="cls-1" d="M465.47 506.35l-12.9-31.49-12.9 31.49zM443 449.19h19.7L504.31 547H482l-8.88-21.78H432L423.15 547h-21.78z" transform="translate(-149.9 -394)"/><path id="Fill-49" class="cls-1" d="M562.3 497.05q7.91 0 12.14-3.75a12.68 12.68 0 0 0 4.23-10v-.3q0-6.94-4.44-10.4t-12.35-3.47h-21.23v27.88zm-43-47.17h44.39q18.45 0 28.3 9.85 8.32 8.32 8.32 22.2v.28q0 11.79-5.76 19.21a33.36 33.36 0 0 1-15.05 10.89L603.22 547h-25l-20.81-31.07h-16.76V547h-21.36z" transform="translate(-149.9 -394)"/><path id="Fill-50" class="cls-1" d="M470.66 152.99h21.36v-97.1h-21.36v97.1z"/><path id="Fill-51" class="cls-1" d="M713 548.66a55.37 55.37 0 0 1-20.74-3.75 47.83 47.83 0 0 1-16.09-10.4 47 47 0 0 1-10.47-15.81 52.26 52.26 0 0 1-3.75-20v-.28a49.64 49.64 0 0 1 30.52-46.27 51.54 51.54 0 0 1 20.39-4 71.58 71.58 0 0 1 11.86.9 56.71 56.71 0 0 1 9.92 2.57 46.26 46.26 0 0 1 8.6 4.16 64.15 64.15 0 0 1 7.77 5.69l-13.46 16.23a54.48 54.48 0 0 0-5.55-4.16 36.35 36.35 0 0 0-5.76-3.05 34 34 0 0 0-6.45-1.94 39.06 39.06 0 0 0-7.63-.69 24.83 24.83 0 0 0-10.89 2.43 29.37 29.37 0 0 0-8.88 6.54 29.94 29.94 0 0 0-6 9.59 31.88 31.88 0 0 0-2.15 11.75v.28a34.16 34.16 0 0 0 2.15 12.31 29.17 29.17 0 0 0 6.1 9.8 27.77 27.77 0 0 0 9.29 6.47 29.74 29.74 0 0 0 11.86 2.29q11.93 0 20.12-5.87v-14h-21.5v-18.36h42.17v42.17a71.08 71.08 0 0 1-17.83 10.89 58.68 58.68 0 0 1-23.6 4.51" transform="translate(-149.9 -394)"/><path id="Fill-52" class="cls-1" d="M830.73 506.35l-12.9-31.49-12.9 31.49zm-22.47-57.15H828l41.57 97.8h-22.33l-8.88-21.78H797.3L788.42 547h-21.78z" transform="translate(-149.9 -394)"/></g></g></g></svg>