<?xml version="1.0" encoding="utf-8"?>
<!-- Generator: Adobe Illustrator 25.4.1, SVG Export Plug-In . SVG Version: 6.00 Build 0)  -->
<svg version="1.1" id="Layer_1" xmlns="http://www.w3.org/2000/svg" xmlns:xlink="http://www.w3.org/1999/xlink" x="0px" y="0px"
	 viewBox="0 0 161 48" style="enable-background:new 0 0 161 48;" xml:space="preserve">
<style type="text/css">
	.st0{fill:#365278;}
	.st1{fill:#D3E6FA;}
	.st2{fill:#34517C;}
	.st3{fill:none;stroke:#34517C;stroke-width:2.2187;stroke-linecap:round;stroke-linejoin:round;}
	.st4{fill:none;stroke:#30517A;stroke-width:0.6369;stroke-linecap:round;stroke-linejoin:round;}
	.st5{fill:none;stroke:#34517C;stroke-width:1.1677;}
	.st6{fill:#31517A;}
</style>
<path class="st0" d="M28.4,14.6c-0.2-0.6-0.3-1.3-0.1-2c0.3-1.6,0.7-3.3,1.1-4.9c0.3-1.1,0-1.8-1.1-2.2c-1.5-0.6-2.1-0.9-2.4-1.1
	c0,0,0,0,0,0c-0.1,0-0.2-0.1-0.4-0.1c-0.5-0.2-1.1,0-1.6,0.1c0,0.2,0.1,0.4,0.1,0.6v0c0.1,0.4,0.2,0.8,0.3,1.1
	c0.1,0.1,0.1,0.1,0.2,0.1c0,0,0.1,0,0.1,0c0,0,0,0,0,0c0.8,0.5,2.2,0.9,2.2,1.5c0.1,1.5-0.3,3-0.8,4.4c-0.1,0.3-1,0.7-1.5,0.7
	c-2.4-0.2-4.8-0.8-7.2-0.8c-3.4,0.1-6.8,0.5-10.2,0.9c-1.5,0.2-2.3,0-2.6-1.7C4.4,10,4,8.8,3.6,7.4C7.3,5.9,11.1,4.3,15,2.9
	c0,0,0,0,0.1,0c1-0.4,1.8,0.2,1.8,0.2c0,0,0,0,0,0c1.2,0.3,2,0.8,2.8,1.2c1,0.6,1.6,1.1,2.2,0.9c0.2-0.1,0.4-0.3,0.6-0.8
	c-0.3-0.5-0.4-1.4-0.9-1.6c-1.6-0.8-3.3-1.5-5-2.2c-0.5-0.2-1.2-0.2-1.7,0C10.9,2.1,7.1,3.8,3.3,5.4C1.8,6,1.4,7.1,1.8,8.6
	C2,9.2,2.1,9.9,2.2,10.5c0.5,2.3,1.3,4.4-0.2,6.8c-0.8,1.3-0.7,3.1-1.1,4.7v6.6c0.4,1.9,0.7,3.8,1.2,5.7c0.7,3,3.2,5,6.4,4.9
	c2.2-0.1,4.5-0.5,6.7-0.6c1.1,0,2.2,0.3,3.3,0.4c1.7,0.1,3.4,0.2,5.1,0.2c2.9-0.1,4.4-2.1,5-4.4C30.6,28.1,30.9,21.3,28.4,14.6z
	 M7.1,14.9c2.7-0.3,5.4-0.9,8.1-1c2.3-0.1,4.5,0.5,6.8,0.7c0.6,0.1,1.2,0.1,1.8,0.2c2.7,0.4,2.7,0.4,2.4,3.3H4.7
	C4.3,15.6,4.7,15.2,7.1,14.9z M22.1,20.8c1.3,0,2,0.5,1.9,2c-0.1,2.8-0.5,5.5-2.8,7.6c-2.9,2.5-7,2.8-10.2,0.7c-3.2-2-4.8-6-3.6-9.4
	c0.2-0.5,1.2-0.9,1.8-1c2.2-0.1,4.4,0,6.6,0v0C17.9,20.8,20,20.8,22.1,20.8z M27.7,22c-0.3,4-0.3,8-0.9,11.9c-0.4,2.8-2.2,3.8-5,3.4
	c-4.1-0.6-8.2-0.6-12.4,0c-3.2,0.4-5.1-1-5.5-4.5c-0.4-3.4-0.3-6.9-0.4-10.4c0-0.2,0-0.5,0.1-0.7c0.3-0.3,0.6-0.6,0.9-0.9
	c0.2,0.4,0.5,0.7,0.5,1.1c0.2,1.9,0,3.9,0.4,5.6c1,3.8,3.7,6.2,7.5,7.1c4.3,1.1,8.1,0,10.9-3.6c1.9-2.4,2.8-5.2,2.7-8.3
	c0-0.7,0-1.4,0-2.2c0.2,0,0.5-0.1,0.7-0.1C27.4,21.1,27.7,21.5,27.7,22z"/>
<path class="st1" d="M27.3,20.6c0.1,0.5,0.4,0.9,0.4,1.4c-0.3,4-0.3,8-0.9,11.9c-0.4,2.8-2.2,3.8-5,3.4c-4.1-0.6-8.2-0.6-12.4,0
	c-3.2,0.4-5.1-1-5.5-4.5c-0.4-3.4-0.3-6.9-0.4-10.4c0-0.2,0-0.5,0.1-0.7c0.3-0.3,0.6-0.6,0.9-0.9c0.2,0.4,0.5,0.7,0.5,1.1
	c0.2,1.9,0,3.9,0.4,5.6c1,3.8,3.7,6.2,7.5,7.1c4.3,1.1,8.1,0,10.9-3.6c1.9-2.4,2.8-5.2,2.7-8.3c0-0.7,0-1.4,0-2.2
	C26.8,20.7,27,20.6,27.3,20.6z"/>
<path class="st1" d="M4.7,18.3c-0.3-2.7,0-3.1,2.5-3.3c2.7-0.3,5.4-0.9,8.1-1c2.3-0.1,4.5,0.5,6.8,0.7c0.6,0.1,1.2,0.1,1.8,0.2
	c2.7,0.4,2.7,0.4,2.4,3.3L4.7,18.3L4.7,18.3z"/>
<path class="st0" d="M17.2,6.9h1.1c0.2,0,0.4,0.2,0.4,0.4v0.8c0,0.2-0.2,0.4-0.4,0.4h-1.1c-0.2,0-0.4,0.2-0.4,0.4v1.4
	c0,0.2-0.2,0.4-0.4,0.4h-1c-0.2,0-0.4-0.2-0.4-0.4V9c0-0.2-0.2-0.4-0.4-0.4h-1.1c-0.2,0-0.4-0.2-0.4-0.4V7.4c0-0.2,0.2-0.4,0.4-0.4
	h1.1c0.2,0,0.4-0.2,0.4-0.4V5.2c0-0.2,0.2-0.4,0.4-0.4h1c0.2,0,0.4,0.2,0.4,0.4v1.3C16.7,6.8,16.9,6.9,17.2,6.9z"/>
<path class="st2" d="M20.9,5.2c0.6,0.3,1.3,0,1.6-0.6s0-1.3-0.6-1.6L20.9,5.2z M16.2,1.5l0.5-1.1L16.2,1.5z M5.5,13.5L4.1,7.6
	L1.7,8.2l1.5,5.9L5.5,13.5z M3.9,7.9l12-5.3l-1-2.2l-12,5.3L3.9,7.9z M15.7,2.6l5.3,2.6L22,3l-5.3-2.6L15.7,2.6z M15.9,2.6
	c-0.1,0-0.2,0-0.2,0l1.1-2.2c-0.6-0.3-1.2-0.3-1.8,0L15.9,2.6z M4.1,7.6c0,0.1,0,0.3-0.2,0.3l-1-2.2c-1,0.4-1.5,1.5-1.2,2.5L4.1,7.6
	z"/>
<path class="st3" d="M24.4,4.9L28.4,7l-1.3,6.9"/>
<path class="st4" d="M10.5,26.2h1l0.3-0.6l0.5,1.5l1.6-3.6l0.5,5.5h0.6l0.8-2.5h0.8l0.3-1l0.2,0.4l0.4-1.1l0.9,1.4h2.7"/>
<path class="st5" d="M2.9,19.3c-3,0-1.2,16.9,0.5,14.4"/>
<path class="st6" d="M58.6,16.2c-1-1.1-2.1-1.9-3-2.2c-1-0.4-1.9-0.6-2.9-0.6c-1.5,0-2.8,0.3-4,0.8c-1.2,0.5-2.2,1.2-3,2.2
	c-0.9,0.9-1.5,2-2,3.2c-0.5,1.2-0.7,2.6-0.7,4c0,1.5,0.2,2.9,0.7,4.2c0.5,1.3,1.2,2.4,2,3.3c0.9,0.9,1.9,1.7,3,2.2
	c1.2,0.5,2.5,0.8,4,0.8c1.2,0,2.3-0.3,3.3-0.8c1.1-0.6,2.1-1.4,3-2.6l4.2,3c-1.3,1.8-2.8,3-4.7,3.9c-1.8,0.8-3.8,1.2-5.9,1.2
	c-2.2,0-4.2-0.3-6.1-1c-1.8-0.7-3.4-1.7-4.7-3c-1.3-1.3-2.3-2.9-3.1-4.7s-1.1-3.8-1.1-6.1c0-2.3,0.4-4.3,1.1-6.2
	c0.7-1.9,1.8-3.5,3.1-4.8c1.3-1.3,2.9-2.3,4.7-3c1.8-0.7,3.9-1.1,6.1-1.1c1.9,0,3.7,0.3,5.3,1c1.7,0.7,3.2,1.8,4.6,3.5L58.6,16.2z
	 M66.2,7.6H71V38h-4.8V7.6z M88.5,35.3h-0.1c-0.7,1.1-1.6,1.9-2.6,2.4c-1.1,0.5-2.2,0.7-3.5,0.7c-0.9,0-1.8-0.1-2.6-0.4
	c-0.8-0.2-1.6-0.6-2.2-1.1c-0.6-0.5-1.2-1.1-1.6-1.8c-0.4-0.7-0.6-1.6-0.6-2.5c0-1,0.2-1.9,0.6-2.6c0.4-0.7,0.9-1.4,1.5-1.8
	c0.6-0.5,1.4-0.9,2.2-1.2c0.8-0.3,1.7-0.5,2.6-0.6c0.9-0.2,1.8-0.3,2.7-0.3c0.9-0.1,1.8-0.1,2.6-0.1h1.2v-0.5c0-1.2-0.4-2.1-1.2-2.7
	c-0.8-0.6-1.9-0.9-3.2-0.9c-1,0-2,0.2-2.8,0.6c-0.9,0.3-1.6,0.8-2.3,1.4l-2.5-2.5c1.1-1.1,2.3-1.9,3.7-2.4c1.4-0.5,2.9-0.7,4.5-0.7
	c1.4,0,2.5,0.2,3.5,0.5c0.9,0.3,1.7,0.7,2.3,1.2c0.6,0.5,1.1,1,1.4,1.7c0.3,0.6,0.6,1.2,0.7,1.9c0.2,0.6,0.3,1.3,0.3,1.9
	c0,0.6,0,1.1,0,1.6V38h-4.3V35.3z M88.3,29.4h-1c-0.7,0-1.4,0-2.2,0.1c-0.8,0.1-1.6,0.2-2.4,0.4c-0.7,0.2-1.3,0.5-1.8,0.9
	c-0.5,0.4-0.8,0.9-0.8,1.6c0,0.5,0.1,0.8,0.3,1.2c0.2,0.3,0.5,0.5,0.8,0.8s0.7,0.4,1.1,0.5c0.4,0.1,0.8,0.1,1.2,0.1
	c1.7,0,2.9-0.4,3.7-1.2c0.8-0.8,1.2-1.9,1.2-3.3V29.4z M99.8,22.8h-4v-4.1h4V16c0-1.3,0.1-2.5,0.3-3.6c0.2-1.1,0.5-2,1-2.8
	c0.5-0.8,1.3-1.4,2.2-1.8c0.9-0.4,2.2-0.6,3.7-0.6c1.1,0,2.1,0.1,3,0.3l-0.3,4.1c-0.3-0.1-0.7-0.1-1-0.2c-0.3-0.1-0.7-0.1-1-0.1
	c-0.7,0-1.2,0.1-1.6,0.3s-0.7,0.5-1,0.9c-0.2,0.3-0.4,0.8-0.4,1.2c-0.1,0.5-0.1,1-0.1,1.5v3.5h4.5v4.1h-4.5V38h-4.8V22.8z
	 M112.2,18.7h4.8V38h-4.8V18.7z M111.5,12.2c0-0.8,0.3-1.4,0.8-2c0.6-0.6,1.3-0.9,2.2-0.9c0.9,0,1.6,0.3,2.2,0.8
	c0.6,0.5,0.9,1.2,0.9,2c0,0.8-0.3,1.5-0.9,2.1c-0.6,0.5-1.3,0.8-2.2,0.8c-0.9,0-1.6-0.3-2.2-0.8C111.8,13.6,111.5,13,111.5,12.2z
	 M119.2,18.7h5.3l5.4,13.4h0.1l4.8-13.4h5l-9.1,23.4c-0.3,0.9-0.7,1.7-1.2,2.4c-0.4,0.7-0.9,1.3-1.4,1.7c-0.6,0.5-1.2,0.8-2,1
	c-0.7,0.2-1.7,0.4-2.7,0.4c-1.3,0-2.5-0.2-3.7-0.5l0.6-4.3c0.4,0.1,0.8,0.2,1.2,0.3c0.4,0.1,0.9,0.2,1.3,0.2c0.6,0,1.1-0.1,1.5-0.2
	c0.4-0.1,0.7-0.3,1-0.5c0.3-0.2,0.5-0.5,0.7-0.9c0.2-0.3,0.4-0.8,0.6-1.3l0.9-2.3L119.2,18.7z M154.7,35.3h-0.1
	c-0.7,1.1-1.6,1.9-2.6,2.4c-1.1,0.5-2.2,0.7-3.5,0.7c-0.9,0-1.8-0.1-2.6-0.4c-0.8-0.2-1.6-0.6-2.2-1.1c-0.6-0.5-1.2-1.1-1.6-1.8
	c-0.4-0.7-0.6-1.6-0.6-2.5c0-1,0.2-1.9,0.6-2.6c0.4-0.7,0.9-1.4,1.5-1.8c0.6-0.5,1.4-0.9,2.2-1.2c0.8-0.3,1.7-0.5,2.6-0.6
	c0.9-0.2,1.8-0.3,2.7-0.3c0.9-0.1,1.8-0.1,2.6-0.1h1.2v-0.5c0-1.2-0.4-2.1-1.2-2.7c-0.8-0.6-1.9-0.9-3.2-0.9c-1,0-2,0.2-2.8,0.6
	c-0.9,0.3-1.6,0.8-2.3,1.4l-2.5-2.5c1.1-1.1,2.3-1.9,3.7-2.4c1.4-0.5,2.9-0.7,4.5-0.7c1.4,0,2.5,0.2,3.5,0.5
	c0.9,0.3,1.7,0.7,2.3,1.2c0.6,0.5,1.1,1,1.4,1.7c0.3,0.6,0.6,1.2,0.7,1.9c0.2,0.6,0.3,1.3,0.3,1.9c0,0.6,0,1.1,0,1.6V38h-4.3V35.3z
	 M154.4,29.4h-1c-0.7,0-1.4,0-2.2,0.1c-0.8,0.1-1.6,0.2-2.4,0.4c-0.7,0.2-1.3,0.5-1.8,0.9c-0.5,0.4-0.8,0.9-0.8,1.6
	c0,0.5,0.1,0.8,0.3,1.2c0.2,0.3,0.5,0.5,0.8,0.8s0.7,0.4,1.1,0.5c0.4,0.1,0.8,0.1,1.2,0.1c1.7,0,2.9-0.4,3.7-1.2
	c0.8-0.8,1.2-1.9,1.2-3.3V29.4z"/>
</svg>
