<svg id="svg" version="1.1" width="400" height="116.72462851723049" viewBox="0 0 400 116.72462851723049" xmlns="http://www.w3.org/2000/svg" xmlns:xlink="http://www.w3.org/1999/xlink" ><g id="svgg"><path id="path0" d="M56.750 0.296 C 56.195 0.615,54.774 2.012,53.750 3.246 C 52.265 5.035,51.782 5.606,51.351 6.083 C 51.102 6.358,50.379 7.221,49.743 8.000 C 49.107 8.779,48.312 9.717,47.977 10.083 C 47.641 10.450,47.070 11.125,46.707 11.583 C 46.343 12.042,45.848 12.627,45.606 12.884 C 45.365 13.140,45.167 13.384,45.167 13.425 C 45.167 13.466,45.035 13.633,44.875 13.796 C 44.715 13.959,44.246 14.497,43.833 14.991 C 43.421 15.485,42.952 16.027,42.792 16.195 C 42.631 16.363,42.500 16.530,42.500 16.567 C 42.500 16.604,42.277 16.886,42.005 17.194 L 41.509 17.754 39.046 17.539 C 37.692 17.421,35.252 17.214,33.625 17.079 C 31.998 16.944,29.335 16.722,27.708 16.586 C 18.937 15.854,19.019 15.855,17.697 16.535 C 17.132 16.826,16.826 17.132,16.535 17.697 C 15.855 19.019,15.854 18.937,16.586 27.708 C 16.722 29.335,16.944 31.998,17.080 33.625 C 17.215 35.252,17.424 37.691,17.544 39.046 C 17.759 41.460,17.757 41.512,17.423 41.742 C 17.236 41.870,16.813 42.225,16.483 42.529 C 15.864 43.102,15.705 43.237,14.164 44.499 C 13.661 44.911,12.950 45.522,12.583 45.857 C 12.217 46.192,11.542 46.764,11.083 47.127 C 10.625 47.490,10.040 47.985,9.783 48.227 C 9.526 48.469,9.245 48.667,9.158 48.667 C 9.071 48.667,8.999 48.723,8.999 48.792 C 8.998 48.860,8.399 49.404,7.667 50.000 C 6.935 50.596,6.335 51.140,6.335 51.208 C 6.334 51.277,6.227 51.333,6.097 51.333 C 5.967 51.333,5.836 51.401,5.806 51.485 C 5.775 51.568,5.189 52.105,4.504 52.677 C 3.818 53.250,3.171 53.801,3.064 53.901 C 2.958 54.001,2.371 54.526,1.760 55.067 C -0.689 57.233,-0.710 59.466,1.699 61.629 C 2.080 61.971,2.509 62.369,2.654 62.514 C 2.798 62.659,3.554 63.295,4.333 63.928 C 5.112 64.560,5.787 65.121,5.833 65.174 C 5.879 65.227,6.704 65.931,7.667 66.738 C 8.629 67.545,9.442 68.271,9.472 68.352 C 9.503 68.434,9.628 68.500,9.750 68.500 C 9.872 68.500,9.997 68.566,10.028 68.648 C 10.058 68.729,10.646 69.260,11.333 69.828 C 12.021 70.396,13.026 71.248,13.567 71.722 C 14.108 72.196,14.752 72.733,14.998 72.917 C 15.244 73.100,15.969 73.718,16.608 74.290 L 17.770 75.330 17.560 77.123 C 17.444 78.110,17.348 79.329,17.346 79.833 C 17.344 80.337,17.229 81.912,17.090 83.333 C 16.951 84.754,16.727 87.267,16.591 88.917 C 16.456 90.567,16.267 92.854,16.171 94.000 C 15.678 99.904,16.703 101.097,21.893 100.662 C 23.006 100.569,25.267 100.381,26.917 100.244 C 29.696 100.013,34.975 99.557,39.457 99.161 C 41.283 99.000,42.000 99.107,42.000 99.540 C 42.000 99.610,42.131 99.803,42.292 99.969 C 42.452 100.135,42.921 100.673,43.333 101.163 C 43.746 101.654,44.233 102.224,44.417 102.429 C 44.869 102.934,45.781 104.029,46.838 105.333 C 47.321 105.929,47.804 106.492,47.913 106.583 C 48.022 106.675,48.625 107.388,49.255 108.167 C 50.321 109.486,50.872 110.133,51.508 110.809 C 51.649 110.960,52.099 111.496,52.507 112.000 C 53.358 113.052,53.247 112.923,54.667 114.512 C 56.996 117.120,59.966 117.546,61.345 115.470 C 61.456 115.303,62.583 113.977,63.075 113.433 C 63.263 113.225,63.754 112.654,64.167 112.163 C 64.579 111.673,65.048 111.135,65.208 110.969 C 65.369 110.803,65.500 110.629,65.500 110.583 C 65.500 110.537,65.631 110.364,65.792 110.198 C 65.952 110.032,66.421 109.493,66.833 109.002 C 67.246 108.510,67.715 107.992,67.875 107.850 C 68.035 107.709,68.167 107.497,68.167 107.380 C 68.167 107.262,68.223 107.166,68.292 107.166 C 68.360 107.166,68.792 106.700,69.250 106.131 C 69.708 105.563,70.271 104.900,70.500 104.658 C 70.927 104.207,71.043 104.070,72.333 102.497 C 72.745 101.995,73.291 101.358,73.547 101.083 C 73.803 100.808,74.291 100.220,74.631 99.776 L 75.250 98.968 76.083 99.067 C 76.542 99.121,77.554 99.207,78.333 99.257 C 79.112 99.306,81.287 99.490,83.167 99.665 C 85.046 99.840,88.046 100.102,89.833 100.247 C 91.621 100.393,93.948 100.587,95.004 100.679 C 100.505 101.157,101.246 99.858,100.431 91.167 C 100.289 89.654,100.058 87.029,99.918 85.333 C 99.778 83.637,99.508 80.685,99.318 78.772 C 99.128 76.859,99.035 75.242,99.111 75.178 C 99.188 75.114,99.662 74.729,100.165 74.323 C 100.668 73.916,101.231 73.429,101.415 73.240 C 101.599 73.051,102.275 72.480,102.917 71.970 C 103.558 71.460,104.274 70.864,104.508 70.646 C 104.741 70.428,105.341 69.913,105.841 69.501 C 106.341 69.089,106.834 68.676,106.937 68.584 C 107.040 68.492,107.483 68.117,107.922 67.750 C 108.360 67.383,108.801 67.008,108.901 66.916 C 109.001 66.824,109.496 66.415,110.000 66.007 C 110.504 65.599,111.037 65.149,111.184 65.008 C 111.648 64.562,112.385 63.941,113.333 63.199 C 118.077 59.487,118.112 57.515,113.500 53.687 C 112.813 53.116,112.063 52.481,111.833 52.274 C 111.604 52.068,110.782 51.378,110.007 50.741 C 109.232 50.104,108.407 49.405,108.174 49.187 C 107.941 48.969,107.263 48.397,106.667 47.917 C 106.071 47.436,105.392 46.864,105.159 46.646 C 104.789 46.301,103.986 45.624,102.516 44.417 C 102.292 44.233,101.972 43.952,101.805 43.792 C 101.637 43.631,101.467 43.500,101.427 43.500 C 101.387 43.500,101.031 43.209,100.636 42.854 C 100.240 42.498,99.703 42.027,99.441 41.806 L 98.965 41.404 99.309 38.077 C 99.497 36.247,99.770 33.250,99.915 31.417 C 100.060 29.583,100.294 26.883,100.435 25.417 C 101.285 16.591,100.594 15.571,94.167 16.160 C 93.204 16.248,90.954 16.437,89.167 16.580 C 85.941 16.837,82.523 17.127,77.782 17.546 L 75.315 17.764 74.537 16.840 C 74.109 16.332,73.594 15.729,73.393 15.500 C 73.191 15.271,72.715 14.708,72.333 14.250 C 71.420 13.153,70.292 11.824,70.083 11.597 C 69.991 11.498,69.578 11.005,69.166 10.503 C 68.754 10.000,68.267 9.406,68.083 9.182 C 67.900 8.959,67.637 8.653,67.500 8.503 C 67.362 8.352,66.840 7.746,66.338 7.156 C 65.837 6.566,65.260 5.896,65.057 5.667 C 64.854 5.438,64.225 4.688,63.659 4.000 C 63.092 3.313,62.562 2.725,62.481 2.694 C 62.400 2.664,62.333 2.575,62.333 2.497 C 62.333 2.268,60.757 0.717,60.146 0.344 C 59.409 -0.105,57.495 -0.132,56.750 0.296 M59.519 15.958 C 60.082 16.669,60.608 17.275,60.688 17.306 C 60.768 17.336,60.833 17.430,60.833 17.514 C 60.833 17.598,60.965 17.804,61.125 17.972 C 61.828 18.708,62.500 19.544,62.500 19.683 C 62.500 19.766,62.561 19.833,62.635 19.833 C 62.709 19.833,63.136 20.333,63.584 20.943 C 65.232 23.188,65.634 23.450,66.438 22.809 C 66.542 22.726,67.330 22.296,68.188 21.853 C 69.047 21.410,70.162 20.803,70.665 20.504 C 71.169 20.206,71.731 19.894,71.915 19.812 C 72.099 19.730,72.850 19.330,73.583 18.924 C 74.317 18.518,74.961 18.181,75.015 18.176 C 75.110 18.167,75.282 18.670,75.778 20.417 C 76.273 22.159,76.554 23.113,76.834 24.000 C 76.993 24.504,77.235 25.292,77.371 25.750 C 77.508 26.208,77.754 27.011,77.918 27.535 L 78.216 28.486 79.566 28.398 C 80.309 28.349,81.701 28.200,82.661 28.067 C 83.620 27.933,85.307 27.752,86.411 27.663 C 87.514 27.575,88.629 27.457,88.888 27.402 L 89.359 27.301 89.258 28.692 C 89.166 29.956,89.065 30.974,88.507 36.250 C 88.244 38.726,88.183 38.539,89.375 38.894 C 89.948 39.064,90.829 39.336,91.333 39.496 C 92.430 39.846,93.470 40.153,95.917 40.851 C 96.925 41.138,97.955 41.447,98.205 41.539 L 98.660 41.705 97.970 42.977 C 97.591 43.677,97.034 44.700,96.734 45.250 C 96.433 45.800,95.993 46.625,95.754 47.083 C 95.516 47.542,95.151 48.217,94.944 48.583 C 94.737 48.950,94.321 49.698,94.019 50.246 L 93.470 51.242 93.943 51.638 C 94.204 51.856,94.576 52.168,94.771 52.332 C 94.966 52.495,95.638 53.031,96.265 53.523 C 96.891 54.014,97.594 54.594,97.827 54.810 C 98.060 55.026,98.569 55.432,98.958 55.713 C 99.348 55.994,99.667 56.285,99.667 56.362 C 99.667 56.438,99.779 56.500,99.917 56.500 C 100.054 56.500,100.167 56.560,100.167 56.634 C 100.167 56.708,100.614 57.101,101.160 57.509 C 102.359 58.403,102.344 58.296,101.373 59.036 C 100.937 59.369,100.393 59.802,100.165 59.998 C 99.233 60.797,99.033 60.962,97.833 61.919 C 97.146 62.468,96.508 62.999,96.417 63.099 C 96.325 63.200,95.777 63.638,95.199 64.074 C 93.373 65.452,93.408 65.369,94.110 66.652 C 94.441 67.256,94.908 68.125,95.148 68.583 C 95.387 69.042,95.625 69.454,95.676 69.500 C 95.727 69.546,95.919 69.883,96.102 70.250 C 96.737 71.520,98.211 74.251,98.438 74.579 C 98.775 75.063,98.730 75.140,98.042 75.265 C 97.698 75.327,97.154 75.472,96.833 75.588 C 96.513 75.703,95.650 75.960,94.917 76.159 C 94.183 76.358,93.321 76.621,93.000 76.743 C 92.679 76.865,91.929 77.094,91.333 77.252 C 90.737 77.410,89.967 77.643,89.622 77.769 C 89.276 77.896,88.845 78.000,88.663 78.000 C 88.274 78.000,88.262 78.175,88.495 80.385 C 88.921 84.419,89.165 86.864,89.261 88.067 L 89.366 89.384 88.475 89.270 C 87.985 89.207,86.758 89.087,85.750 89.004 C 84.742 88.920,83.354 88.777,82.667 88.686 C 81.979 88.595,80.695 88.472,79.813 88.413 L 78.209 88.305 78.003 88.861 C 77.889 89.167,77.737 89.679,77.665 90.000 C 77.592 90.321,77.455 90.808,77.360 91.083 C 77.264 91.358,76.917 92.483,76.587 93.583 C 76.258 94.683,75.887 95.921,75.763 96.333 C 75.639 96.746,75.450 97.406,75.343 97.800 C 75.117 98.631,75.023 98.630,73.500 97.777 C 72.996 97.494,72.321 97.124,72.000 96.953 C 71.679 96.783,70.892 96.354,70.250 96.002 C 69.608 95.649,68.521 95.073,67.833 94.722 C 67.146 94.371,66.544 94.032,66.497 93.969 C 65.900 93.180,65.478 93.422,63.822 95.500 C 63.055 96.462,62.384 97.287,62.330 97.333 C 62.277 97.379,61.787 97.977,61.241 98.661 C 60.696 99.345,60.137 100.022,60.000 100.166 C 59.862 100.310,59.487 100.779,59.167 101.209 C 58.373 102.271,58.422 102.290,56.917 100.333 C 56.458 99.738,55.971 99.136,55.833 98.997 C 55.696 98.858,55.171 98.220,54.668 97.580 C 54.164 96.940,53.639 96.290,53.501 96.135 C 53.363 95.980,52.875 95.367,52.417 94.772 C 51.958 94.177,51.486 93.649,51.367 93.598 C 51.182 93.518,49.576 94.224,49.333 94.492 C 49.288 94.542,48.837 94.800,48.333 95.065 C 47.829 95.330,46.854 95.850,46.167 96.221 C 45.479 96.593,44.617 97.047,44.250 97.230 C 43.883 97.414,43.546 97.606,43.500 97.657 C 43.454 97.708,43.024 97.951,42.545 98.198 L 41.674 98.645 41.483 97.948 C 41.377 97.564,41.198 96.950,41.084 96.583 C 40.854 95.846,40.589 94.942,39.836 92.333 C 39.558 91.371,39.225 90.246,39.096 89.833 C 38.967 89.421,38.814 88.870,38.757 88.610 C 38.687 88.291,38.575 88.166,38.416 88.227 C 38.285 88.277,37.595 88.362,36.881 88.415 C 36.167 88.469,34.608 88.618,33.417 88.748 C 29.417 89.183,27.475 89.364,27.419 89.307 C 27.388 89.276,27.472 88.275,27.605 87.083 C 28.584 78.352,28.607 78.000,28.203 78.000 C 28.032 78.000,27.561 77.896,27.155 77.770 C 26.749 77.643,25.967 77.406,25.417 77.242 C 24.867 77.079,24.004 76.815,23.500 76.656 C 22.996 76.498,22.133 76.237,21.583 76.076 C 21.033 75.916,20.301 75.683,19.955 75.559 C 19.609 75.435,19.192 75.333,19.028 75.333 C 18.422 75.333,18.146 74.964,18.405 74.500 C 18.533 74.271,18.837 73.708,19.081 73.250 C 19.324 72.792,19.694 72.117,19.903 71.750 C 20.111 71.383,20.621 70.446,21.036 69.667 C 22.454 67.003,22.666 66.618,22.820 66.433 C 23.359 65.784,23.220 65.389,22.139 64.500 C 21.558 64.023,20.896 63.472,20.667 63.276 C 20.438 63.079,19.725 62.511,19.083 62.013 C 18.442 61.514,17.819 61.009,17.699 60.889 C 17.579 60.770,17.017 60.319,16.449 59.888 C 14.816 58.647,14.539 58.340,14.845 58.109 C 15.827 57.367,17.280 56.232,17.431 56.089 C 17.530 55.994,17.936 55.654,18.333 55.333 C 18.730 55.012,19.136 54.674,19.236 54.581 C 19.335 54.488,19.754 54.151,20.167 53.832 C 20.579 53.514,21.067 53.114,21.250 52.945 C 21.433 52.775,21.901 52.407,22.289 52.125 C 23.223 51.449,23.272 51.198,22.681 50.141 C 22.407 49.651,21.993 48.875,21.760 48.417 C 21.528 47.958,20.960 46.908,20.498 46.083 C 20.037 45.258,19.544 44.358,19.404 44.083 C 19.263 43.808,18.932 43.175,18.668 42.675 C 18.122 41.642,18.134 41.566,18.877 41.419 C 19.174 41.360,19.754 41.205,20.167 41.074 C 20.579 40.943,21.704 40.609,22.667 40.332 C 23.629 40.056,24.867 39.687,25.417 39.513 C 25.967 39.339,26.887 39.058,27.462 38.890 L 28.508 38.583 28.415 37.417 C 28.302 36.013,27.905 32.165,27.589 29.418 C 27.462 28.319,27.371 27.408,27.388 27.394 C 27.431 27.355,30.216 27.635,33.417 27.998 C 34.975 28.176,36.792 28.361,37.455 28.411 L 38.660 28.502 38.762 28.043 C 38.819 27.790,38.961 27.283,39.078 26.917 C 39.195 26.550,39.410 25.837,39.556 25.333 C 40.050 23.624,40.848 20.920,41.081 20.167 C 41.208 19.754,41.360 19.174,41.419 18.877 C 41.569 18.119,41.697 18.096,42.698 18.650 C 43.185 18.920,44.146 19.424,44.833 19.771 C 45.521 20.118,46.187 20.480,46.314 20.576 C 46.601 20.793,49.119 22.165,50.295 22.746 C 51.324 23.254,51.392 23.230,52.356 22.000 C 52.751 21.496,53.170 21.023,53.287 20.950 C 53.404 20.877,53.500 20.708,53.500 20.575 C 53.500 20.442,53.560 20.333,53.632 20.333 C 53.705 20.333,54.037 19.977,54.369 19.542 C 54.701 19.106,55.167 18.525,55.405 18.250 C 55.643 17.975,56.381 17.061,57.044 16.219 C 58.501 14.369,58.279 14.393,59.519 15.958 M276.745 26.042 C 276.426 26.406,276.415 26.740,276.371 37.294 L 276.326 48.172 275.455 47.520 C 274.533 46.831,272.423 45.771,271.583 45.577 C 271.308 45.513,270.746 45.364,270.333 45.245 C 268.549 44.732,265.742 44.457,263.142 44.541 C 260.306 44.633,258.843 44.887,256.417 45.709 C 253.961 46.541,250.520 48.906,249.305 50.598 C 249.014 51.003,248.715 51.333,248.638 51.333 C 248.562 51.333,248.500 51.446,248.500 51.583 C 248.500 51.721,248.444 51.834,248.375 51.834 C 248.259 51.835,247.942 52.310,247.372 53.333 C 247.026 53.955,245.890 56.689,245.779 57.167 C 245.725 57.396,245.529 58.146,245.342 58.833 C 244.044 63.614,244.180 73.473,245.601 77.589 C 245.729 77.959,245.836 78.371,245.839 78.506 C 245.842 78.640,245.990 79.050,246.167 79.417 C 246.344 79.783,246.491 80.138,246.494 80.205 C 246.513 80.605,248.175 83.664,248.375 83.666 C 248.444 83.666,248.500 83.753,248.500 83.858 C 248.500 85.119,254.801 90.000,256.428 90.000 C 256.571 90.000,256.822 90.071,256.984 90.158 C 258.581 91.013,264.944 91.294,268.417 90.664 C 271.792 90.051,273.338 89.454,275.190 88.048 L 276.297 87.207 276.363 88.229 C 276.479 90.029,276.406 90.000,280.870 90.000 C 284.444 90.000,284.686 89.980,285.000 89.667 C 285.331 89.336,285.333 89.111,285.333 57.500 L 285.333 25.667 281.204 25.667 C 277.130 25.667,277.070 25.672,276.745 26.042 M338.329 26.171 C 337.785 26.715,337.903 81.263,338.452 83.102 C 340.073 88.539,343.351 90.500,350.820 90.500 C 354.712 90.500,354.403 90.844,354.461 86.441 C 354.519 82.021,354.662 82.277,352.079 82.160 C 349.774 82.055,348.860 81.811,348.099 81.095 C 346.918 79.985,347.000 82.116,347.000 52.497 L 347.000 25.833 342.833 25.833 C 338.870 25.833,338.650 25.850,338.329 26.171 M166.053 28.135 C 165.306 28.439,164.167 29.355,164.167 29.652 C 164.167 29.752,164.101 29.833,164.020 29.833 C 163.835 29.833,163.010 31.543,162.251 33.500 C 162.091 33.912,161.898 34.400,161.822 34.583 C 161.747 34.767,161.523 35.329,161.325 35.833 C 161.127 36.337,160.902 36.900,160.825 37.083 C 160.748 37.267,160.522 37.829,160.324 38.333 C 160.126 38.837,159.701 39.887,159.378 40.667 C 159.056 41.446,158.731 42.233,158.655 42.417 C 158.580 42.600,158.356 43.163,158.158 43.667 C 157.961 44.171,157.736 44.733,157.658 44.917 C 157.581 45.100,157.358 45.663,157.163 46.167 C 156.968 46.671,156.712 47.308,156.594 47.583 C 156.402 48.031,155.854 49.351,155.487 50.250 C 155.412 50.433,155.188 50.996,154.989 51.500 C 154.790 52.004,154.523 52.653,154.397 52.942 C 154.270 53.231,154.167 53.543,154.167 53.637 C 154.167 53.730,154.056 54.019,153.921 54.278 C 153.677 54.746,153.542 55.066,152.844 56.833 C 152.645 57.337,152.415 57.900,152.334 58.083 C 152.134 58.533,151.043 61.216,150.640 62.250 C 150.462 62.708,150.253 63.233,150.178 63.417 C 150.102 63.600,149.912 64.087,149.755 64.500 C 149.598 64.912,149.372 65.475,149.254 65.750 C 148.847 66.692,147.864 69.083,147.507 70.000 C 147.310 70.504,147.087 71.067,147.011 71.250 C 146.935 71.433,146.742 71.921,146.582 72.333 C 146.422 72.746,146.194 73.308,146.076 73.583 C 145.733 74.378,144.731 76.832,144.340 77.833 C 144.143 78.337,143.920 78.900,143.844 79.083 C 143.769 79.267,143.576 79.754,143.416 80.167 C 143.256 80.579,143.029 81.142,142.911 81.417 C 142.794 81.692,142.569 82.254,142.412 82.667 C 142.255 83.079,141.994 83.717,141.832 84.083 C 141.670 84.450,141.296 85.350,141.001 86.083 C 140.707 86.817,140.351 87.695,140.211 88.034 C 140.071 88.374,139.947 88.937,139.936 89.284 L 139.917 89.917 144.000 89.964 C 146.246 89.989,148.239 89.972,148.430 89.926 C 148.835 89.827,149.134 89.251,150.423 86.083 C 150.759 85.258,151.097 84.433,151.175 84.250 C 151.252 84.067,151.477 83.504,151.675 83.000 C 151.873 82.496,152.098 81.933,152.176 81.750 C 152.255 81.567,152.513 80.929,152.750 80.333 C 152.987 79.737,153.249 79.100,153.330 78.917 C 153.986 77.448,154.667 75.736,154.667 75.553 C 154.667 75.370,156.913 75.339,167.511 75.374 L 180.354 75.417 180.579 75.833 C 180.702 76.063,181.079 76.925,181.417 77.750 C 181.755 78.575,182.128 79.475,182.245 79.750 C 182.362 80.025,182.589 80.587,182.749 81.000 C 183.220 82.214,183.287 82.380,183.629 83.167 C 183.809 83.579,184.123 84.329,184.328 84.833 C 184.534 85.337,184.797 85.975,184.913 86.250 C 185.029 86.525,185.372 87.350,185.675 88.083 C 186.542 90.185,186.046 90.012,191.070 89.961 C 196.303 89.908,196.109 90.144,194.252 86.083 C 194.126 85.808,193.756 84.900,193.429 84.065 C 193.102 83.229,192.680 82.179,192.490 81.731 C 192.049 80.689,191.937 80.414,191.582 79.500 C 191.422 79.087,191.195 78.525,191.078 78.250 C 190.960 77.975,190.736 77.412,190.579 77.000 C 190.422 76.587,190.231 76.100,190.154 75.917 C 190.078 75.733,189.817 75.096,189.575 74.500 C 189.333 73.904,189.040 73.192,188.923 72.917 C 188.807 72.642,188.580 72.079,188.418 71.667 C 188.257 71.254,188.029 70.692,187.911 70.417 C 187.794 70.142,187.569 69.579,187.412 69.167 C 187.255 68.754,187.065 68.267,186.989 68.083 C 186.914 67.900,186.579 67.075,186.245 66.250 C 185.482 64.367,185.014 63.225,184.743 62.583 C 184.626 62.308,184.402 61.746,184.244 61.333 C 184.087 60.921,183.855 60.340,183.729 60.042 C 183.603 59.744,183.397 59.256,183.271 58.958 C 183.145 58.660,182.912 58.079,182.753 57.667 C 182.417 56.792,181.913 55.561,181.458 54.500 C 181.098 53.659,180.996 53.405,180.588 52.333 C 180.431 51.921,180.206 51.358,180.089 51.083 C 179.971 50.808,179.762 50.283,179.624 49.917 C 179.364 49.229,178.306 46.634,177.924 45.750 C 177.806 45.475,177.580 44.913,177.422 44.500 C 177.265 44.087,177.040 43.525,176.922 43.250 C 176.805 42.975,176.576 42.412,176.415 42.000 C 176.254 41.587,176.028 41.025,175.914 40.750 C 175.800 40.475,175.503 39.730,175.253 39.095 C 175.003 38.460,174.739 37.822,174.667 37.678 C 174.594 37.534,174.405 37.079,174.246 36.667 C 174.088 36.254,173.862 35.692,173.744 35.417 C 173.627 35.142,173.402 34.579,173.245 34.167 C 173.088 33.754,172.897 33.267,172.821 33.083 C 172.744 32.900,172.483 32.264,172.239 31.670 C 170.947 28.516,168.524 27.131,166.053 28.135 M168.058 44.792 C 168.227 45.227,168.466 45.808,168.589 46.083 C 168.713 46.358,169.161 47.446,169.586 48.500 C 170.012 49.554,170.659 51.129,171.025 52.000 C 171.868 54.008,171.851 53.965,172.576 55.750 C 173.437 57.870,174.451 60.322,174.936 61.458 C 175.483 62.741,175.641 63.125,175.913 63.833 C 176.071 64.246,176.277 64.728,176.371 64.905 C 176.464 65.082,176.599 65.420,176.670 65.655 C 176.741 65.891,176.852 66.215,176.917 66.375 C 177.029 66.651,176.524 66.667,167.684 66.667 C 157.642 66.667,158.035 66.701,158.494 65.873 C 158.582 65.714,158.928 64.908,159.263 64.083 C 159.598 63.258,160.231 61.721,160.670 60.667 C 161.109 59.612,161.742 58.075,162.077 57.250 C 162.412 56.425,162.747 55.600,162.823 55.417 C 162.898 55.233,163.092 54.746,163.252 54.333 C 163.413 53.921,163.697 53.246,163.884 52.833 C 164.071 52.421,164.282 51.933,164.353 51.750 C 164.558 51.218,165.680 48.469,165.934 47.875 C 166.436 46.704,166.636 46.221,166.916 45.500 C 167.604 43.725,167.635 43.706,168.058 44.792 M374.417 44.433 C 372.269 44.598,368.550 45.513,366.583 46.361 C 365.142 46.982,363.475 47.815,363.333 47.984 C 363.287 48.039,363.052 48.186,362.811 48.310 C 362.123 48.664,361.209 49.544,361.082 49.975 C 360.969 50.359,361.409 51.831,361.639 51.835 C 361.700 51.836,361.899 52.155,362.081 52.544 C 362.263 52.932,362.458 53.288,362.515 53.333 C 362.572 53.379,362.933 53.993,363.318 54.697 C 364.321 56.532,364.732 56.589,366.884 55.194 C 368.014 54.462,368.407 54.254,369.833 53.638 C 372.025 52.689,374.009 52.344,377.250 52.346 C 378.717 52.347,380.217 52.412,380.583 52.490 C 380.950 52.569,381.642 52.713,382.121 52.811 C 385.799 53.565,388.154 56.662,387.969 60.500 L 387.917 61.583 380.083 61.681 C 370.508 61.801,369.213 62.000,365.194 63.981 C 356.931 68.051,355.686 81.285,362.978 87.527 C 363.494 87.969,363.969 88.331,364.033 88.332 C 364.097 88.333,364.483 88.558,364.891 88.833 C 365.298 89.108,365.688 89.333,365.756 89.333 C 365.824 89.333,366.188 89.474,366.565 89.645 C 370.532 91.452,378.195 91.509,382.417 89.763 C 384.027 89.097,386.333 87.751,386.333 87.477 C 386.333 87.398,386.414 87.333,386.512 87.333 C 386.611 87.333,386.960 87.033,387.290 86.667 C 387.941 85.941,388.167 85.843,388.167 86.287 C 388.167 89.549,390.033 90.508,396.375 90.503 L 400.000 90.500 400.000 87.104 C 400.000 83.207,400.060 83.363,398.502 83.179 C 396.702 82.967,396.848 84.088,396.778 69.917 C 396.711 56.626,396.641 55.710,395.455 52.667 C 392.998 46.366,385.822 43.557,374.417 44.433 M309.500 44.579 C 309.362 44.613,308.650 44.725,307.917 44.829 C 305.153 45.221,301.524 46.491,300.487 47.429 C 300.342 47.560,300.168 47.667,300.099 47.667 C 299.920 47.667,297.987 49.170,297.530 49.665 C 297.317 49.895,296.825 50.421,296.436 50.833 C 295.431 51.899,294.629 53.179,293.407 55.667 C 290.673 61.231,290.410 72.837,292.881 78.917 C 293.728 81.001,295.206 83.667,295.514 83.667 C 295.598 83.667,295.667 83.751,295.667 83.855 C 295.667 84.100,298.400 86.833,298.645 86.833 C 298.749 86.833,298.833 86.899,298.833 86.979 C 298.833 87.459,303.088 89.531,305.500 90.227 C 309.258 91.310,315.188 91.304,319.167 90.214 C 321.386 89.605,324.164 88.505,324.637 88.047 C 324.758 87.929,324.925 87.833,325.007 87.833 C 325.443 87.833,327.965 85.887,329.458 84.398 C 331.773 82.090,331.783 81.918,329.710 80.057 C 328.909 79.338,328.058 78.563,327.819 78.333 C 325.959 76.551,325.662 76.554,323.832 78.372 C 319.632 82.546,312.867 83.860,307.089 81.626 C 306.359 81.343,305.684 81.051,305.589 80.975 C 305.494 80.900,305.181 80.650,304.893 80.419 C 304.604 80.189,304.323 80.000,304.267 80.000 C 303.841 80.000,301.969 77.531,301.417 76.241 C 300.958 75.167,300.321 72.939,300.409 72.711 C 300.473 72.543,303.564 72.500,315.608 72.500 C 326.856 72.500,330.866 72.449,331.273 72.302 C 332.018 72.033,332.051 71.791,331.924 67.530 C 331.785 62.896,331.481 60.709,330.543 57.583 C 330.129 56.201,329.211 54.191,328.551 53.219 C 328.340 52.907,328.167 52.580,328.167 52.493 C 328.167 52.405,328.097 52.333,328.011 52.333 C 327.926 52.333,327.809 52.187,327.753 52.008 C 327.212 50.305,322.173 46.706,318.778 45.598 C 316.468 44.844,310.920 44.235,309.500 44.579 M219.083 44.875 C 215.568 45.351,212.005 47.166,209.930 49.538 L 209.167 50.411 209.167 48.293 L 209.167 46.175 208.657 45.912 C 207.839 45.489,201.179 45.619,200.684 46.067 L 200.333 46.385 200.333 67.917 C 200.333 88.565,200.346 89.460,200.638 89.724 C 201.085 90.128,208.502 90.141,208.905 89.738 C 209.138 89.505,209.167 88.083,209.167 76.601 C 209.167 61.429,209.169 61.403,210.638 58.333 C 213.856 51.608,225.282 51.239,228.491 57.757 C 229.938 60.696,229.988 61.325,229.995 76.505 C 229.999 87.773,230.030 89.302,230.259 89.630 C 230.515 89.995,230.573 90.000,234.468 89.995 L 238.417 89.990 238.714 89.580 C 239.104 89.045,239.070 60.658,238.677 58.583 C 238.136 55.722,237.196 53.270,235.889 51.310 C 235.147 50.197,233.292 48.167,233.017 48.167 C 232.936 48.167,232.826 48.054,232.773 47.917 C 232.720 47.779,232.562 47.667,232.422 47.667 C 232.282 47.667,232.167 47.597,232.167 47.511 C 232.167 47.426,232.017 47.308,231.834 47.250 C 231.652 47.192,231.406 47.056,231.290 46.947 C 230.905 46.590,229.582 46.005,227.667 45.347 C 225.942 44.754,221.698 44.521,219.083 44.875 M268.500 52.713 C 269.096 52.930,269.808 53.227,270.083 53.373 C 270.358 53.520,270.821 53.764,271.112 53.916 C 272.843 54.821,275.102 57.782,276.040 60.376 C 276.611 61.953,276.623 73.288,276.057 75.010 C 272.895 84.618,260.536 86.340,255.208 77.913 C 255.093 77.732,254.923 77.396,254.829 77.167 C 254.736 76.938,254.593 76.600,254.512 76.417 C 253.642 74.453,253.335 72.203,253.340 67.833 C 253.348 61.530,254.276 58.457,257.083 55.441 C 259.740 52.587,264.820 51.373,268.500 52.713 M314.083 52.746 C 319.435 53.601,322.596 57.105,323.160 62.808 C 323.423 65.462,324.850 65.176,311.604 65.126 L 300.250 65.083 300.304 63.750 C 300.385 61.770,301.410 58.445,302.281 57.335 C 305.272 53.529,309.266 51.976,314.083 52.746 M387.736 68.934 C 388.137 69.088,388.126 75.545,387.723 76.750 C 387.092 78.641,385.755 80.474,384.417 81.285 C 383.337 81.940,381.877 82.512,380.306 82.895 C 377.905 83.482,371.893 83.107,371.092 82.322 C 371.005 82.236,370.833 82.167,370.710 82.167 C 370.240 82.167,368.264 80.535,367.985 79.917 C 367.902 79.733,367.768 79.471,367.687 79.333 C 367.150 78.419,367.000 77.733,367.000 76.196 C 367.000 71.553,369.789 69.346,376.083 69.007 C 378.888 68.856,387.394 68.803,387.736 68.934 " stroke="none" fill="#345cdc" fill-rule="evenodd"></path><path id="path1" d="" stroke="none" fill="#385cdc" fill-rule="evenodd"></path><path id="path2" d="" stroke="none" fill="#385cdc" fill-rule="evenodd"></path><path id="path3" d="" stroke="none" fill="#385cdc" fill-rule="evenodd"></path><path id="path4" d="" stroke="none" fill="#385cdc" fill-rule="evenodd"></path></g></svg>