<svg xmlns="http://www.w3.org/2000/svg" viewBox="0 0 1000 1000"><title>Nigeria-Logo</title><path d="M787.44,383.66c0-7.81-6.94-14.75-15.62-14.75H750.1c-8.68,0-15.63,6.94-15.63,14.75l.88,232.75a14.62,14.62,0,0,0,14.75,14.75h21.72c8.68,0,15.62-6.94,15.62-14.75V383.66Z" style="fill:#005695;fill-rule:evenodd"/><path d="M815.24,390.61V401c0,5.2,3.48,8.68,8.68,8.68H976.76a13.35,13.35,0,0,0,13-13V378.45c0-6.95-6.08-13.89-13-13,0,0-147.63,14.75-152.84,15.62-5.21,0-8.68,4.34-8.68,9.55Z" style="fill:#005695;fill-rule:evenodd"/><path d="M691.05,631.16c-38.21,0-61.66-28.65-61.66-60.78V477.45H618.1c-5.21,0-10.43-5.21-10.43-10.42V451.39A10.57,10.57,0,0,1,618.1,441h11.29V383.66a14.63,14.63,0,0,1,14.76-14.76h21.71c7.81,0,13.89,6.94,13.89,14.76V441h33.87A10,10,0,0,1,724,451.39V467a10.56,10.56,0,0,1-10.42,10.42H679.75v86c0,16.49,10.43,28.66,28.66,28.66h3.48a10.94,10.94,0,0,1,11.29,11.29v16.5a11.49,11.49,0,0,1-11.29,11.29H691.05Z" style="fill:#005695;fill-rule:evenodd"/><path d="M430.52,533c0-49.49-29.52-99-96.39-99-61.66,0-95.53,48.62-95.53,99,0,53.84,36.47,101.61,96.39,101.61,40.82,0,80.77-20.84,88.58-56.44.87-4.34-2.6-11.29-8.69-11.29H385.36a13.87,13.87,0,0,0-12.16,6.94C364.51,586,352.36,592.09,335,592.09c-26.05,0-43.42-20-45.16-42.55H414c11.3,0,16.51-6.08,16.51-16.51ZM290.7,512.2c1.74-21.71,20.84-38.21,43.43-38.21,23.45,0,42.55,16.5,45.16,38.21Z" style="fill:#005695;fill-rule:evenodd"/><path d="M995,533c0-49.49-29.52-99-96.4-99-61.66,0-95.52,48.62-95.52,99,0,53.84,36.48,101.61,96.4,101.61,40.81,0,80.75-20.84,88.57-56.44.88-4.34-2.61-11.29-8.68-11.29H949.85a13.88,13.88,0,0,0-12.17,6.94C929,586,916.84,592.09,898.6,592.09c-25.18,0-42.55-20-44.29-42.55H978.5c11.29,0,16.5-6.08,16.5-16.51ZM855.19,512.2C856.92,490.49,876,474,898.6,474c23.45,0,42.56,16.5,44.3,38.21Z" style="fill:#005695;fill-rule:evenodd"/><path d="M587.71,371.5H186.49A16.49,16.49,0,0,0,170,388l.86,158.06s-86-156.32-90.32-164.14a29.88,29.88,0,0,0-26-14.76h-33A16.49,16.49,0,0,0,5,383.67v231c0,9.55,7,16.5,16.5,16.5H42.34c9.55,0,16.5-6.95,16.5-16.5L58,453.15s86.84,157.18,91.19,163.26c4.34,8.68,13,14.76,25.18,14.76h30.39c9.55,0,16.5-6.95,16.5-16.5V410.6H587.71A11.5,11.5,0,0,0,599,399.31V382.8a11.49,11.49,0,0,0-11.28-11.3Z" style="fill:#005695;fill-rule:evenodd"/><path d="M522.57,472.24c17.37,0,30.4,6.08,35.61,17.36,1.74,5.22,6.08,6.09,12.16,6.09h24.32c3.48,0,8.68-3.48,8.68-8.68,0-27.79-33.87-53-80.76-53C474,434,441.82,457.47,441.82,494c0,28.66,22.58,45.17,49.5,53,13,2.61,34.73,7.81,45.15,11.29,10.42,2.61,20.84,6.08,20.84,15.63,0,15.63-15.63,20-33.87,20-16.5,0-33-7-37.34-19.1-2.6-7-7.82-7.81-14.76-7.81H447c-4.34,0-9.55,4.33-9.55,9.54v3.48c0,26.92,36.48,54.71,86.84,54.71,34.74,0,84.24-14.76,84.24-61.67,0-27.79-18.24-46.88-48.63-54.69-11.3-2.61-39.08-10.43-45.16-11.31-11.3-3.47-21.71-6.94-21.71-15.62,0-14.76,13-19.11,29.52-19.11Z" style="fill:#005695;fill-rule:evenodd"/></svg>