<svg version="1.1" id="Layer_1" xmlns="http://www.w3.org/2000/svg" x="0" y="0" viewBox="0 0 107 31" xml:space="preserve">
  <style>
    .st5{fill:#0f0e0e}
  </style>
  <linearGradient id="SVGID_1_" gradientUnits="userSpaceOnUse" x1="95.844" y1="9.03" x2="107" y2="9.03">
    <stop offset="0" stop-color="#eb712a"/>
    <stop offset=".231" stop-color="#ef8528"/>
    <stop offset=".471" stop-color="#f29426"/>
    <stop offset=".624" stop-color="#f39a24"/>
  </linearGradient>
  <path d="M101.4 3.5c-3.1 0-5.6 2.5-5.6 5.6 0 3.1 2.5 5.6 5.6 5.6 3.1 0 5.6-2.5 5.6-5.6 0-3.2-2.5-5.6-5.6-5.6z" fill="url(#SVGID_1_)"/>
  <linearGradient id="SVGID_2_" gradientUnits="userSpaceOnUse" x1="80.483" y1="12.688" x2="103.864" y2="12.688">
    <stop offset="0" stop-color="#343434"/>
    <stop offset=".545" stop-color="#696968"/>
    <stop offset="1" stop-color="#696968"/>
  </linearGradient>
  <path d="M101.7 16.3c-.2.7-.3 1.3-.5 1.7l-.1.2c-.1.5-.5.8-1 .8h-.3c-.2 0-.4-.1-.6-.3-.1-.2-.2-.4-.2-.6l.3-2c0-.1.1-.3.2-.4-2.9-.7-5-3.3-5-6.4 0-.5.1-.9.1-1.4h-8.2c-.5 0-.9-.3-1-.8L85 5.4c-.2-.6-.7-1.1-1.4-1.1h-2.4c-.5 0-.8.4-.8.8 0 .5.4.8.8.8h1.3c.5 0 .9.3 1 .8l3.2 13c.2.6.7 1.1 1.4 1.1h13.1c.7 0 1.2-.4 1.4-1.1l1.1-4.4c-.7.3-1.4.4-2.1.5.2.3.2.4.1.5zM87 12.7c-.1-.5-.3-1-.4-1.4l-.1-.4c-.1-.2 0-.4.1-.6.1-.2.4-.3.6-.3h.9c.5 0 .9.3.9.8l.3 1.8c0 .2 0 .4-.2.6-.1.2-.4.3-.6.3H88c-.5-.1-.9-.4-1-.8zm3.1 6c-.1.2-.4.3-.6.3h-.1c-.5 0-.9-.3-1-.8l-.1-.2c-.1-.5-.3-1.1-.5-1.8-.1-.2 0-.4.1-.6.1-.2.4-.3.6-.3h.5c.5 0 .9.3 1 .8l.3 2c0 .2 0 .5-.2.6zm3.7-.4c0 .4-.3.7-.7.7-.4 0-.8-.3-.8-.7l-.3-2.1c0-.2 0-.4.2-.6.1-.2.4-.3.6-.3h.3c.5 0 .9.4.9.9v2.1zm0-5.7c0 .5-.4.9-.9.9h-.7c-.5 0-.9-.3-1-.8l-.2-1.9c0-.2 0-.4.2-.6.2-.2.4-.3.6-.3H93c.5 0 .8.4.8.9v1.8zm3.8 3.6l-.3 2.1c-.1.4-.4.7-.8.7s-.7-.3-.7-.7v-2.1c0-.5.4-.9.9-.9h.3c.2 0 .4.1.6.3v.6z" fill="url(#SVGID_2_)"/>
  <path fill="#fff" d="M101.4 4.3l1.4 2.8 3.2.5-2.3 2.2.5 3.1-2.8-1.4-2.8 1.4.5-3.1-2.2-2.2 3.1-.5z"/>
  <linearGradient id="SVGID_3_" gradientUnits="userSpaceOnUse" x1="86.606" y1="24.705" x2="91.418" y2="24.705">
    <stop offset="0" stop-color="#343434"/>
    <stop offset=".545" stop-color="#696968"/>
    <stop offset="1" stop-color="#696968"/>
  </linearGradient>
  <ellipse cx="89" cy="24.7" rx="2.4" ry="2.5" fill="url(#SVGID_3_)"/>
  <linearGradient id="SVGID_4_" gradientUnits="userSpaceOnUse" x1="98.168" y1="24.705" x2="102.978" y2="24.705">
    <stop offset="0" stop-color="#343434"/>
    <stop offset=".545" stop-color="#696968"/>
    <stop offset="1" stop-color="#696968"/>
  </linearGradient>
  <ellipse cx="100.6" cy="24.7" rx="2.4" ry="2.5" fill="url(#SVGID_4_)"/>
  <path class="st5" d="M27.2 22.3c-1.1.8-2.8 1.1-5.1 1.1h-4.8c-.5 0-1-.1-1.5-.2s-1-.3-1.4-.4c-.5-.2-.9-.5-1.2-.8-.3-.3-.6-.8-.8-1.3-.2-.5-.3-1.1-.3-1.9V7.4h3v11.3c0 1.2 1.1 1.8 3.4 1.8h4.1c2.2 0 3.3-.6 3.3-1.8V7.4h3v11.5c-.1 1.5-.6 2.7-1.7 3.4zM51.5 23.6V13.1L45 22.7c-.2.3-.5.6-.8.8-.3.2-.6.3-1 .3-.7 0-1.3-.3-1.8-1L34.9 13v10.6h-3V9.1c0-.6.2-1 .5-1.3.3-.3.7-.5 1.2-.5.7 0 1.3.3 1.7.8l8.1 11.6 8-11.5c.4-.6.9-.9 1.6-.9.5 0 .9.2 1.2.5.3.3.5.8.5 1.4v14.3h-3.2zM57.5 23.5V7.4h3v16.1h-3zM80.9 23.6l-2.5-4.4H69l-2.4 4.4H63l9-15.1c.4-.7 1-1.1 1.7-1.1s1.3.4 1.7 1.1l8.8 15.1h-3.3zm-7.2-12.2l-2.9 4.8h5.8l-2.9-4.8zM9.1 16.3c0 4.9-1.8 7-5 7.7-3.1.6-4.1.6-4.1.6v-3.3c1.2-.1 3.1-.3 4.3-.7 1.1-.4 1.9-1.5 1.9-4.3l.1-5.9v-3h3l-.2 8.9z"/>
</svg>
