<svg xmlns="http://www.w3.org/2000/svg" width="462" height="161" viewBox="0 0 462 161">
  <g fill="none" fill-rule="evenodd" transform="rotate(-90 80.5 80)">
    <path fill="#ED342B" d="M79.9417,159.8534 C36.0001,159.8534 0.3786,124.2319 0.3786,80.2903 C0.3786,36.3467 36.0001,0.7242 79.9417,0.7242 C123.8833,0.7242 159.5048,36.3467 159.5048,80.2903 C159.5048,124.2319 123.8833,159.8534 79.9417,159.8534"/>
    <path fill="#FEFEFE" d="M45.8608,80.2892 C86.2011,62.4925 123.8866,49.4435 123.8866,49.4435 L123.8866,22.1612 C123.8866,22.1612 75.5171,38.7665 15.0281,69.6112 L15.0281,90.9673 C75.5171,121.812 123.8866,138.4162 123.8866,138.4162 L123.8866,111.1339 C123.8866,111.1339 86.2011,98.086 45.8608,80.2892"/>
    <path fill="#03435F" d="M84.0912 422.9398C84.0912 407.5169 67.4829 406.3325 67.4829 406.3325L67.4829 439.5441C67.4829 439.5441 84.0912 438.3596 84.0912 422.9398M50.8776 459.7117L50.8776 406.3325C50.8776 406.3325 33.0818 407.5169 33.0818 431.2439 33.0818 443.1044 36.6442 454.9669 36.6442 454.9669L17.665 457.3408C17.665 457.3408 12.9172 445.4783 12.9172 428.87 12.9172 405.146 24.7807 383.7939 57.9943 383.7939 84.0912 383.7939 100.6985 400.4022 100.6985 424.1262 100.6985 459.7117 65.112 462.0826 50.8776 459.7117M78.9061 278.2023L98.492 281.8756C98.492 281.8756 107.098 253.5138 91.1494 230.4615L12.8057 230.4615 12.8057 254.9431 76.4602 254.9431C83.8018 264.7356 78.9061 278.2023 78.9061 278.2023M84.0912 176.1558C84.0912 160.736 67.4829 159.5505 67.4829 159.5505L67.4829 192.7631C67.4829 192.7631 84.0912 191.5787 84.0912 176.1558M50.8776 212.9278L50.8776 159.5505C50.8776 159.5505 33.0818 160.736 33.0818 184.46 33.0818 196.3195 36.6442 208.183 36.6442 208.183L17.665 210.5569C17.665 210.5569 12.9172 198.6934 12.9172 182.0861 12.9172 158.3621 24.7807 137.009 57.9943 137.009 84.0912 137.009 100.6985 153.6173 100.6985 177.3413 100.6985 212.9278 65.112 215.2987 50.8776 212.9278M42.7481 337.948C72.5852 325.5168 100.6842 319.3036 100.6842 319.3036L100.6812 294.4462C100.6812 294.4462 52.6944 306.8764 12.9319 328.0086L12.9319 347.8874C52.6944 369.0206 100.6742 381.4508 100.6742 381.4508L100.6742 356.5923C100.6742 356.5923 72.5852 350.3792 42.7481 337.948"/>
  </g>
</svg>
