<svg xmlns="http://www.w3.org/2000/svg" viewBox="0 0 4917.64 1003.45"><g data-name="Layer 2"><path d="M1212.43 557.3q0-61.2 19.87-115.42t57.44-94.49q37.58-40.27 91.27-63.89t122.41-23.62c30.06 0 82.67 8.05 82.67 8.05l39.73 150.86a405.92 405.92 0 0 0-49.39-15q-26.85-6.44-60.13-6.43-70.86 0-105.76 44t-34.9 116q0 76.25 32.75 118.1t114.35 41.88a391.19 391.19 0 0 0 62.28-5.37 263.76 263.76 0 0 0 61.2-17.18L1599 846.13s-58.7 8.59-92.34 8.59q-77.31 0-133.14-23.08t-91.81-62.82q-36-39.71-52.61-94t-16.67-117.52Zm2216.06 0q0-61.2 19.86-115.42t57.45-94.49q37.56-40.27 91.27-63.89t122.4-23.62c30.06 0 82.67 8.05 82.67 8.05l39.73 150.86a405.38 405.38 0 0 0-49.39-15q-26.85-6.44-60.13-6.43-70.86 0-105.76 44t-34.9 116q0 76.25 32.75 118.1t114.36 41.88a391.07 391.07 0 0 0 62.27-5.37 264 264 0 0 0 61.21-17.18L3815 846.13s-58.7 8.59-92.34 8.59q-77.31 0-133.14-23.08t-91.8-62.82q-36-39.71-52.62-94t-16.61-117.52ZM2219 415.55q-11.25-47.24-38.64-81.55t-73-53.18Q2061.73 262.08 1993 262a260.21 260.21 0 0 0-48.9 4.82c-16.77 3.3-30.51 6.69-41.31 10.26V93.45l-160 78.15v668h160V410.2c10-2.85 21.33-5.53 33.82-8a206.3 206.3 0 0 1 40.33-3.75q53.67 0 73.52 32.21t19.81 109.48v299.5h160.07V520.75q-.01-57.94-11.34-105.2Zm663 140.67q0 66.6-19.33 121.87t-55.83 94.49q-36.52 39.21-87.51 60.67T2605 854.72q-62.3 0-113.28-21.47t-87.51-60.67q-36.51-39.2-56.91-94.49t-20.4-121.87q0-66.56 20.94-121.32t58-93.42q37-38.66 88.05-60.13T2605 259.88q61.2 0 112.2 21.47t87.51 60.13q36.5 38.65 56.91 93.42T2882 556.22Zm-163.21 0q0-74.09-29.52-116.5t-84.27-42.4q-54.77 0-84.83 42.4t-30.06 116.5q0 74.09 30.06 117.57t84.83 43.49q54.76 0 84.29-43.49t29.53-117.57Zm259.87-384.56 160-78.21v166.43h192.2v148.17h-192.2v198.64q0 50.47 17.72 80.53t71.4 30.06a305.76 305.76 0 0 0 53.15-4.83 272.59 272.59 0 0 0 49.91-13.45l22.55 124.55A452.44 452.44 0 0 1 3289 844q-35.44 8.58-87 8.59-65.5 0-108.44-17.72t-68.72-49.39q-25.77-31.65-36-76.77t-10.2-99.86Zm1467.67 648.7q-40.82 11.83-105.23 22a864.66 864.66 0 0 1-135.29 10.2q-72 0-119.72-19.32t-75.7-54.24q-27.93-34.87-39.72-83.21t-11.81-106.3V259.88h160v310.3q0 77.31 20.4 111.67t76.23 34.36q17.16 0 36.51-1.61t34.36-3.76v-451h160Zm96.58-648.7 160-78.21v166.43h192.2v148.17h-192.2v198.64q0 50.47 17.72 80.53t71.4 30.06a305.76 305.76 0 0 0 53.15-4.83 272.8 272.8 0 0 0 49.91-13.45l22.55 124.55a452.18 452.18 0 0 1-64.43 20.4q-35.43 8.58-87 8.59-65.51 0-108.45-17.72t-68.71-49.39q-25.77-31.65-36-76.77t-10.2-99.86ZM939.34 439.15l-123.06-70.24-185.5-106.2L270.23 56.3A499.44 499.44 0 0 1 501.31 0h140.76l230.51 340.62 23.56 34.84ZM490 230.24c-84.32 3.48-158.74 45.43-206.27 108.84L76.51 234.56a505.74 505.74 0 0 1 152.05-154ZM261.32 374.48a267.15 267.15 0 0 0-30.81 106.34H0a498.28 498.28 0 0 1 55.75-210Zm8.77 269.82-206 103.83A498.66 498.66 0 0 1 0 522.63h230.51a266 266 0 0 0 39.58 121.67Zm219.65 128.91L228 922.48A501.7 501.7 0 0 1 86.27 783.67L295 678.44a270.73 270.73 0 0 0 194.74 94.77Zm448.35-207.79L886 642.49l-23.69 35-220.62 326H501.31a500.31 500.31 0 0 1-231.77-56.58L631.2 740.46l167.1-95.33 43.48-24.8Zm-332.26-64.11v.42a105.59 105.59 0 0 1-2.09 21.18 103.07 103.07 0 0 1-6.69 20.77 104.62 104.62 0 0 1-95.74 62.57 102.19 102.19 0 0 1-43.76-9.75 104.17 104.17 0 0 1-46.83-146.76 101.26 101.26 0 0 1 28.85-32.19 103.08 103.08 0 0 1 61.74-20.35 104.36 104.36 0 0 1 101.32 79.44 96.58 96.58 0 0 1 3.2 24.67Z" style="fill:#f11700" data-name="Layer 1"/></g></svg>