<svg height="420pt" preserveAspectRatio="xMidYMid meet" viewBox="0 0 1758 420" width="1758pt" xmlns="http://www.w3.org/2000/svg"><g transform="matrix(.1 0 0 -.1 0 420)"><path d="m0 2100v-2100h985 985v50 50h-940-940v2000 2000h940 940v50 50h-985-985z"/><path d="m15610 4155v-45h940 940v-2010-2010h-940-940v-45-45h985 985v2100 2100h-985-985z"/><path d="m1800 2709c-74-12-185-68-239-121-125-123-125-316-1-437 65-62 148-98 270-117 58-8 134-22 170-30 116-26 180-88 180-173 0-40-5-49-49-92-62-59-129-84-231-83-61 0-87 5-138 28-69 32-120 82-129 127-3 16-8 29-10 29-3 0-36-17-75-37-65-36-69-40-64-67 15-77 135-184 251-221 89-29 257-28 347 3 117 41 207 121 249 222 8 19 14 64 13 100-1 138-90 254-233 305-23 8-110 26-193 40-169 28-220 50-263 113-135 198 287 352 475 173 23-22 43-51 46-69 4-18 11-32 16-32 9 0 68 32 126 67l22 14-24 47c-81 160-293 247-516 211z"/><path d="m5546 2122c-152-329-276-602-276-605 0-4 40-7 88-7h88l50 113 51 112h267 268l48-110 47-110 91-3 91-3-78 178c-43 98-160 367-261 598s-186 424-190 428-131-261-284-591zm370-9 91-208-185-3c-102-1-187 0-190 2-5 6 180 416 188 416 3 0 46-93 96-207z"/><path d="m10326 2122c-152-329-276-602-276-605 0-4 40-7 88-7h88l51 113 51 112h267 268l47-110 47-110 91-3 91-3-78 178c-43 98-160 367-261 598s-186 424-190 428-131-261-284-591zm371-9 91-208-186-3c-101-1-187 0-190 2-5 6 180 415 188 416 3 0 46-93 97-207z"/><path d="m11821 2704c-129-27-233-98-286-195-27-48-30-63-30-139 0-75 3-91 29-138 38-68 92-117 170-153 62-29 90-36 269-64 54-8 115-24 136-34 45-23 98-81 107-116 16-65-30-131-123-177-58-28-77-32-142-32-135 0-232 47-272 132-12 26-23 48-24 50-4 5-134-69-140-79-11-16 43-105 90-148 185-171 527-158 695 26 168 183 58 464-204 523-25 5-94 17-154 26-121 18-182 41-229 86-43 42-58 87-43 133s87 108 151 128c64 21 169 22 236 2 59-18 135-80 153-127 8-18 15-35 16-37 5-7 144 74 144 84 0 5-13 33-30 61-88 155-308 234-519 188z"/><path d="m13141 2704c-133-28-239-103-288-202-23-47-28-70-28-132 0-131 67-229 199-291 62-29 90-36 271-64 125-19 188-52 223-116 47-83 6-162-110-215-82-37-193-39-280-5-55 21-138 95-138 123 0 7-4 19-9 27-7 10-23 5-80-28-39-23-71-44-71-47 0-22 57-108 93-141 187-172 528-161 696 23 142 155 93 386-101 485-64 33-104 43-256 65-59 9-127 25-152 35-96 42-145 123-117 192 20 47 88 101 153 122 73 23 200 17 265-12 56-25 116-85 124-124 4-16 10-29 15-29 4 0 38 17 74 38 58 32 66 40 61 60-9 38-50 97-97 137-109 95-286 135-447 99z"/><path d="m14880 2115v-605h85 85l2 366 3 367 220-287c120-157 222-285 226-284 4 2 107 133 228 292l221 288v-371-371h80 80v606c0 333-4 603-8 600-5-3-141-178-303-390s-296-385-299-385c-3-1-140 175-305 389s-303 389-307 390c-5 0-8-272-8-605z"/><path d="m2810 2105v-595h385 385v80 80h-305-305v175 175h230 230v85 85h-230-230v175 175h305 305v80 80h-385-385z"/><path d="m4050 2106v-596h80 80v515 515h158c188 0 243-12 301-68 76-72 77-162 4-243-49-54-111-71-289-78l-142-6 222-315 223-315 101-3c56-1 102 0 102 3s-74 114-165 247l-166 242 53 11c101 20 206 105 251 203 32 68 31 199-2 264-38 79-95 134-179 175l-76 38-278 3-278 3z"/><path d="m6780 2105v-595h80 80v255 255h285 285v-178c0-99 3-213 6-255l7-77h78 79v595 595h-85-85v-255-255h-285-285v255 255h-80-80z"/><path d="m8740 2090c0-335 3-610 8-609 4 0 85 108 181 240 95 131 176 239 180 238 3 0 86-101 185-225l179-224h103c57 0 104 2 104 4s-103 132-229 289c-125 156-231 289-235 295-5 9 235 349 402 570l24 32h-103l-104-1-265-365-265-366-3 366-2 366h-80-80z"/><path d="m14190 2105v-595h80 80v595 595h-80-80z"/></g></svg>