<svg width="1019" height="244" viewBox="0 0 1019 244" fill="none" xmlns="http://www.w3.org/2000/svg">
<path d="M432.661 108.409C440.567 101.279 450.23 97.7866 461.795 97.7866C473.507 97.7866 483.17 101.279 491.076 108.409C498.981 115.394 502.934 124.561 502.934 135.766C502.934 146.825 498.981 155.992 491.076 162.976C483.316 169.816 473.654 173.308 461.942 173.308C450.23 173.308 440.567 169.816 432.661 162.976C424.902 155.992 420.949 146.825 420.949 135.766C420.949 124.561 424.902 115.394 432.661 108.409ZM461.942 153.082C471.165 153.082 478.485 146.242 478.485 135.766C478.485 125.143 471.165 118.013 461.942 118.013C452.718 118.013 445.398 125.143 445.398 135.766C445.398 146.242 452.865 153.082 461.942 153.082Z" fill="black"/>
<path d="M558.127 97.7866C547.879 97.7866 540.12 102.006 535.142 110.301H534.849L534.996 108.555V107.536C534.996 102.443 531.482 99.3872 524.894 99.3872H503.227V119.759H508.643C510.839 119.759 511.718 120.778 511.718 122.815V171.562H536.167V139.549C536.167 135.911 536.606 132.71 537.631 130.091C539.973 123.251 544.805 119.759 551.978 119.759C557.395 119.759 560.031 122.96 560.031 129.217V161.376C560.031 168.506 563.105 171.562 570.279 171.562H584.333V124.852C584.333 106.663 575.549 97.7866 558.127 97.7866Z" fill="black"/>
<path d="M601.755 71.4473V91.0916H622.251V71.4473H601.755ZM614.053 99.3858H591.507V119.758H596.924C598.973 119.758 599.998 120.776 599.998 122.813V161.374C599.998 168.505 603.073 171.56 610.246 171.56H624.301V109.717C624.301 102.442 621.227 99.3858 614.053 99.3858Z" fill="black"/>
<path d="M643.187 108.555C650.068 101.424 659.292 97.7866 670.711 97.7866C681.105 97.7866 689.304 100.988 695.306 107.536C701.309 113.939 704.383 122.378 704.383 132.564C704.383 134.31 704.237 136.784 703.798 140.131H657.974C659.731 148.571 666.612 153.082 674.957 153.082C680.959 153.082 687.694 150.753 695.014 145.806L704.091 162.831C696.331 169.379 684.326 173.308 673.053 173.308C660.756 173.308 651.093 169.525 643.919 162.103C636.746 154.682 633.232 145.66 633.232 135.474C632.939 124.707 636.306 115.685 643.187 108.555ZM680.227 126.307C680.227 120.196 676.274 115.539 670.272 115.539C664.123 115.539 660.17 119.177 658.559 126.307H680.227Z" fill="black"/>
<path d="M713.02 100.698H725.757V106.955C725.757 109.865 725.318 112.339 725.318 112.339H725.611C730.149 103.753 739.226 98.9515 749.62 98.9515C768.945 98.9515 780.95 114.085 780.95 136.057C780.95 158.612 767.335 173.163 748.596 173.163C739.519 173.163 731.32 168.652 726.489 161.086H726.196C726.196 161.086 726.782 163.559 726.782 167.197V199.501H713.166V100.698H713.02ZM746.546 161.522C757.819 161.522 767.189 152.355 767.189 136.348C767.189 120.924 758.844 111.029 746.985 111.029C736.298 111.029 726.343 118.596 726.343 136.494C726.343 149.008 733.37 161.522 746.546 161.522Z" fill="black"/>
<path d="M825.897 98.9515C847.272 98.9515 864.401 114.521 864.401 135.912C864.401 157.448 847.125 173.163 826.044 173.163C804.669 173.163 787.54 157.448 787.54 135.912C787.54 114.521 804.815 98.9515 825.897 98.9515ZM826.044 161.522C839.512 161.522 850.639 150.9 850.639 136.057C850.639 121.36 839.512 110.884 826.044 110.884C812.428 110.884 801.448 121.36 801.448 136.057C801.595 150.9 812.575 161.522 826.044 161.522Z" fill="black"/>
<path d="M875.087 72.6121H889.142V86.2904H875.087V72.6121ZM875.38 100.696H888.995V171.707H875.38V100.696Z" fill="black"/>
<path d="M904.368 100.698H917.691V110.302C917.691 113.212 917.251 115.686 917.251 115.686H917.544C920.18 109.574 928.964 98.9515 944.629 98.9515C961.465 98.9515 969.078 108.119 969.078 126.162V171.563H955.462V129.218C955.462 119.323 953.559 111.466 941.993 111.466C928.085 111.466 918.13 122.961 918.13 137.512V171.563H904.515V100.698H904.368Z" fill="black"/>
<path d="M986.792 112.485H977.422V101.426H987.084V81.1996H1000.55V101.426H1017.83V112.485H1000.55V144.207C1000.55 158.322 1010.51 160.213 1015.78 160.213C1016.8 160.213 1017.68 160.213 1019 159.922V172C1017.83 172.145 1016.36 172.436 1014.17 172.436C1004.95 172.436 986.792 169.526 986.792 145.808V112.485Z" fill="black"/>
<path d="M413.19 128.779L408.505 71.4473H379.957C379.957 71.4473 358.143 115.683 356.386 121.649H356.093L333.254 71.4473H304.706L300.021 121.213L296.068 171.706H313.49C320.957 171.706 324.031 168.505 324.617 160.647C324.617 160.647 327.545 114.374 327.106 107.68H327.398L328.277 110.736C329.448 114.81 345.699 154.244 345.699 154.244H367.073C367.073 154.244 383.324 115.392 385.373 107.68H385.666L388.155 160.647C388.741 168.505 391.815 171.706 399.282 171.706H416.703L413.19 128.779Z" fill="black"/>
<path d="M122.978 243.589H122.099C65.2953 243.444 27.2308 231.657 19.3251 224.381C10.9801 216.96 0 178.545 0 121.795C0 65.1899 10.9801 26.6289 19.3251 19.2077C27.2308 11.9321 65.4417 0.145513 122.099 0H122.978C179.782 0.145513 217.846 11.9321 225.752 19.2077C234.097 26.6289 245.077 65.1899 245.077 121.795C245.077 178.399 234.097 216.96 225.752 224.381C217.846 231.803 179.782 243.589 122.978 243.589Z" fill="#0357EE"/>
<path d="M179.05 129.066L174.365 72.1703H146.109C146.109 72.1703 124.588 115.97 122.685 121.936H122.392L99.6998 72.1703H71.2979L66.613 121.499L62.6602 171.556H79.9356C87.4021 171.556 90.3301 168.355 90.9157 160.497C90.9157 160.497 93.8437 114.66 93.4045 107.967H93.6973L94.5758 111.022C95.747 115.097 111.851 154.24 111.851 154.24H133.079C133.079 154.24 149.184 115.679 151.233 107.967H151.526L154.015 160.497C154.601 168.355 157.675 171.556 164.995 171.556H182.27L179.05 129.066Z" fill="white"/>
</svg>
