<?xml version="1.0" encoding="utf-8"?>
<!-- Generator: Adobe Illustrator 25.4.1, SVG Export Plug-In . SVG Version: 6.00 Build 0)  -->
<svg version="1.1" id="Layer_1" xmlns="http://www.w3.org/2000/svg" xmlns:xlink="http://www.w3.org/1999/xlink" x="0px" y="0px"
	 viewBox="0 0 2463 1266" style="enable-background:new 0 0 2463 1266;" xml:space="preserve">
<style type="text/css">
	.st0{fill:#004EEA;}
	.st1{fill:#FFFFFF;}
</style>
<desc>Created with Sketch.</desc>
<g>
	<path class="st0" d="M1977.3,517h-146.7v114.9h144.7c22.7,0,27.3-3.2,27.3-21.4v-71.4C2002.6,520.3,1998,517,1977.3,517z"/>
	<path class="st0" d="M2137.6,258.5H328.1c-80.1,0-145,64.9-145,145v605.8h1954.5c80.1,0,145-64.9,145-145V403.4
		C2282.6,323.4,2217.7,258.5,2137.6,258.5z M1475.9,398.3h127.9v127.2h-127.9V398.3z M724.7,753.9c0,73.3-45.4,115.5-130.5,115.5
		h-259V750.7h242.1c15.6,0,20.1-3.9,20.1-14.9v-22.1c0-9.1-4.5-13-19.5-13H461.9c-72,0-126.6-22.1-126.6-105.8v-81.8
		c0-77.9,51.9-114.9,130.5-114.9h221.3V517H480c-12.3,0-17.5,4.5-17.5,15.6v33.7c0,10.4,5.2,14.9,19.5,14.9h118.1
		c79.2,0,124.6,30.5,124.6,115.5V753.9z M1250.1,525.5v49v295h-127.9V750.7H951.5v118.8H824.3V750.7h-50.6V631.3h50.6v-233h127.2
		v233h170.7v-233h127.9V525.5z M1426.9,869.5h-127.9v-295h127.9V869.5z M1426.9,525.5h-127.9V398.3h127.9V525.5z M1603.8,869.5
		h-127.9v-295h127.9V869.5z M2130.4,632.6c0,71.4-37,118.1-133.7,118.1h-166.1v118.8H1704V750.7h-51.3V631.9h51.3V398.3h294.7
		c90.2,0,131.7,35.7,131.7,118.8V632.6z"/>
</g>
<g>
	<rect x="1298.7" y="574.8" class="st1" width="127.1" height="293.2"/>
	<rect x="1298.7" y="399.7" class="st1" width="127.1" height="126.5"/>
	<rect x="1474.5" y="574.8" class="st1" width="127.1" height="293.2"/>
	<path class="st1" d="M603.9,581.6H486.5c-14.2,0-19.4-4.5-19.4-14.8v-33.5c0-11,5.2-15.5,17.4-15.5h205.8V399.7h-220
		c-78.1,0-129.7,36.8-129.7,114.2v81.3c0,83.2,54.2,105.2,125.8,105.2H582c14.8,0,19.4,3.9,19.4,12.9v21.9c0,11-4.5,14.8-20,14.8
		H340.7v118.1h257.4c84.5,0,129.7-41.9,129.7-114.8v-56.8C727.8,611.9,682.6,581.6,603.9,581.6z"/>
	<polygon class="st1" points="1122.9,631.3 953.2,631.3 953.2,399.7 826.8,399.7 826.8,631.3 776.4,631.3 776.4,750 826.8,750 
		826.8,868.1 953.2,868.1 953.2,750 1122.9,750 1122.9,868.1 1250,868.1 1250,574.8 1250,526.1 1250,399.7 1122.9,399.7 	"/>
	<path class="st1" d="M1994.1,399.7h-292.9v232.3h-51V750h51v118.1H1827V750h165.2c96.1,0,132.9-46.4,132.9-117.4V517.7
		C2125.1,435.2,2083.8,399.7,1994.1,399.7z M1998,610.6c0,18.1-4.5,21.3-27.1,21.3H1827V517.7h145.8c20.6,0,25.2,3.2,25.2,21.9
		V610.6z"/>
	<rect x="1474.5" y="399.7" class="st1" width="127.1" height="126.5"/>
</g>
</svg>
