<svg id="Layer_1" data-name="Layer 1" xmlns="http://www.w3.org/2000/svg" viewBox="0 0 841.89 595.28"><defs><style>.cls-1{fill:#f8b004}.cls-2{fill:#90a541}.cls-3,.cls-4{fill:none;stroke:#96aa2f;stroke-miterlimit:10}.cls-3{stroke-width:1.25px}.cls-4{stroke-width:4px}</style></defs><path class="cls-1" d="M237.05 254.91a46.76 46.76 0 0111.75 1.28 22.42 22.42 0 017.9 3.61 13.72 13.72 0 014.46 5.67 19.13 19.13 0 011.39 7.45 14.53 14.53 0 01-.64 4.32 12.6 12.6 0 01-2 3.88 15.61 15.61 0 01-3.52 3.32 22.2 22.2 0 01-5.16 2.6q6.57 1.6 9.73 5.16a13.46 13.46 0 013.16 9.24 19 19 0 01-1.65 7.9 18.17 18.17 0 01-4.82 6.38 22.91 22.91 0 01-7.85 4.28 34.13 34.13 0 01-10.65 1.53h-26.6v-66.62zM228 266.47v16.46h8a25.89 25.89 0 004.62-.37 9.55 9.55 0 003.5-1.28 5.88 5.88 0 002.19-2.51 9.49 9.49 0 00.75-4 11.25 11.25 0 00-.59-4 5.7 5.7 0 00-1.83-2.53 7.56 7.56 0 00-3.13-1.37 21 21 0 00-4.5-.42zm10.88 43.37a13.57 13.57 0 005-.77 7.92 7.92 0 003-2 6.74 6.74 0 001.51-2.79 12.49 12.49 0 00.41-3.15 10.49 10.49 0 00-.48-3.29 5.47 5.47 0 00-1.64-2.47 8.16 8.16 0 00-3.09-1.56 18.21 18.21 0 00-4.84-.54H228v16.58zM316 274.11v47.39h-8.8a3.32 3.32 0 01-3.47-2.38l-.83-2.74a27.46 27.46 0 01-2.83 2.4 16.86 16.86 0 01-3.13 1.83 18.64 18.64 0 01-3.61 1.19 20 20 0 01-4.23.43 16.6 16.6 0 01-6.88-1.35 14.23 14.23 0 01-5.05-3.77 16.41 16.41 0 01-3.1-5.71 23.68 23.68 0 01-1.05-7.22v-30.07h14.16v30.07a8.32 8.32 0 001.6 5.44 5.79 5.79 0 004.71 1.92 9.81 9.81 0 004.36-1 17.24 17.24 0 004-2.67v-33.76zM373.33 274.11L348 333.79a5 5 0 01-1.55 2.08 5.09 5.09 0 01-2.93.66h-10.6l9.14-19.19-18.92-43.23h12.52a3.9 3.9 0 012.54.73 4.29 4.29 0 011.3 1.73l7.78 20.43a40.73 40.73 0 011.78 5.72l1-2.93q.49-1.46 1.05-2.88l7-20.34a3.78 3.78 0 011.46-1.76 4 4 0 012.28-.7z"/><path class="cls-2" d="M404 254.91a38.72 38.72 0 0112.08 1.67 23.16 23.16 0 018.32 4.59 17.83 17.83 0 014.82 6.9 23.35 23.35 0 011.56 8.6 25.43 25.43 0 01-1.6 9.14 18.51 18.51 0 01-4.89 7.13 23.11 23.11 0 01-8.34 4.63 38 38 0 01-11.95 1.67h-8v22.26h-15.5v-66.59zm0 32.68q6 0 8.68-2.88c1.76-1.92 2.65-4.6 2.65-8a11.94 11.94 0 00-.69-4.16 8.41 8.41 0 00-2.08-3.23 9.37 9.37 0 00-3.51-2.07 15.54 15.54 0 00-5.05-.74h-8v21.12zM460.48 273.38a27.33 27.33 0 019.83 1.69 21.54 21.54 0 017.61 4.84 21.84 21.84 0 014.93 7.65 27.74 27.74 0 011.76 10.13 28.14 28.14 0 01-1.76 10.21 21.25 21.25 0 01-12.54 12.62 29.28 29.28 0 01-19.72 0 22.33 22.33 0 01-7.68-4.89 21.65 21.65 0 01-5-7.73 27.93 27.93 0 01-1.76-10.21 27.53 27.53 0 011.76-10.13 21.4 21.4 0 015-7.65 21.93 21.93 0 017.68-4.84 27.59 27.59 0 019.89-1.69zm0 38.34q4.89 0 7.2-3.45t2.32-10.49q0-7-2.31-10.47t-7.2-3.42q-5 0-7.36 3.42t-2.33 10.47q0 7 2.33 10.49t7.35 3.45zM562.85 274.11l-14.72 47.39h-11.51a2.31 2.31 0 01-1.56-.55 3.71 3.71 0 01-1-1.83l-6.76-23.63q-.51-1.59-.9-3.15c-.26-1-.49-2.09-.7-3.15-.22 1.06-.45 2.13-.71 3.2s-.56 2.13-.89 3.2l-6.86 23.53a2.91 2.91 0 01-3 2.38h-11l-14.72-47.39h11.33a4.39 4.39 0 012.54.7 3.51 3.51 0 011.39 1.76l4.76 21.26q.58 2.42 1.05 4.68c.3 1.51.58 3 .82 4.55.4-1.53.82-3 1.26-4.55s.92-3.07 1.44-4.68l5.94-21.3a3.54 3.54 0 011.37-1.76 4 4 0 012.38-.71h6.3a4.39 4.39 0 012.54.71 3.53 3.53 0 011.39 1.76l5.67 21.3q.69 2.42 1.35 4.7c.44 1.53.84 3.06 1.21 4.62.24-1.52.53-3 .87-4.57s.71-3.11 1.14-4.75l5-21.26a3.58 3.58 0 011.37-1.76 4 4 0 012.37-.7zM581.36 300.34q.69 5.94 3.61 8.61a10.7 10.7 0 007.54 2.68 13.36 13.36 0 004.25-.6 21.61 21.61 0 003.18-1.32l2.56-1.33a5.35 5.35 0 012.44-.59 2.93 2.93 0 012.56 1.21l4.11 5.08a21.4 21.4 0 01-4.73 4.09 24.21 24.21 0 01-5.21 2.46 27.86 27.86 0 01-5.34 1.24 40 40 0 01-5.1.34 26.67 26.67 0 01-9.35-1.62 21.49 21.49 0 01-7.63-4.82 22.75 22.75 0 01-5.16-8 29.55 29.55 0 01-1.9-11.06 25.06 25.06 0 011.62-9 21.92 21.92 0 0112-12.52 26.3 26.3 0 0118.38-.41 18.62 18.62 0 016.71 4.25 19.27 19.27 0 014.39 6.83 25.1 25.1 0 011.58 9.16 20.22 20.22 0 01-.14 2.61 4.19 4.19 0 01-.5 1.6 1.93 1.93 0 01-1 .82 4.61 4.61 0 01-1.57.23zm17.82-8.23a12.54 12.54 0 00-.43-3.29 7.87 7.87 0 00-1.42-2.85 7.14 7.14 0 00-2.58-2 8.82 8.82 0 00-3.89-.78 8.49 8.49 0 00-6.3 2.31 12 12 0 00-3 6.65zM634.65 281.42a20 20 0 015.05-6 10.47 10.47 0 016.56-2.2 8.43 8.43 0 015.21 1.51l-.91 10.42a2.17 2.17 0 01-.76 1.37 2.43 2.43 0 01-1.43.37c-.25 0-.57 0-1-.05l-1.24-.11-1.3-.14a10.79 10.79 0 00-1.21-.07 7.18 7.18 0 00-5 1.65 12.76 12.76 0 00-3.13 4.57v28.76H621.4v-47.39h8.41a7.27 7.27 0 011.76.18 3.07 3.07 0 011.19.57 2.45 2.45 0 01.73 1 8.92 8.92 0 01.43 1.55zM650.15 314.32a7.64 7.64 0 01.61-3.06 7.73 7.73 0 011.7-2.47 8.12 8.12 0 015.73-2.28 7.84 7.84 0 013.15.62 8.25 8.25 0 012.56 1.66 7.5 7.5 0 012.33 5.53 7.78 7.78 0 01-.61 3.09 7.5 7.5 0 01-1.72 2.49 7.86 7.86 0 01-2.56 1.64 8.18 8.18 0 01-3.15.6 8.36 8.36 0 01-3.2-.6 7.65 7.65 0 01-4.23-4.13 7.78 7.78 0 01-.61-3.09zM688.54 279.23a31.56 31.56 0 012.83-2.38 16.42 16.42 0 013.13-1.85 18 18 0 013.61-1.19 19.3 19.3 0 014.23-.43 16.52 16.52 0 016.87 1.34 14.24 14.24 0 015 3.75 16.1 16.1 0 013.11 5.71 23.73 23.73 0 011 7.2v30.12h-14.06v-30.12a8.31 8.31 0 00-1.6-5.41 5.75 5.75 0 00-4.71-2 9.81 9.81 0 00-4.36 1 17.24 17.24 0 00-4 2.67v33.86h-14.13v-47.39h8.78a3.33 3.33 0 013.47 2.37zM771.94 275.57v5.16a2.6 2.6 0 01-.66 1.88 4.66 4.66 0 01-2.27 1.05l-3.42.78a19.6 19.6 0 01.43 2.05 14.14 14.14 0 01.16 2.2 13.56 13.56 0 01-1.48 6.39 14.51 14.51 0 01-4.07 4.82 19 19 0 01-6.1 3.07A25.93 25.93 0 01747 304c-.73 0-1.45 0-2.15-.07a17.3 17.3 0 01-2.06-.25 2.67 2.67 0 00-1.55 2.15 1.77 1.77 0 001.28 1.71 12 12 0 003.38.73c1.4.14 3 .23 4.78.28s3.6.15 5.46.32a44.64 44.64 0 015.46.84 15.11 15.11 0 014.77 1.92 10.27 10.27 0 013.39 3.54 11.22 11.22 0 011.28 5.65 13.65 13.65 0 01-1.56 6.26 16.36 16.36 0 01-4.57 5.44 24 24 0 01-7.4 3.81 32.27 32.27 0 01-10.06 1.44 38.71 38.71 0 01-9.62-1.05 23.33 23.33 0 01-6.71-2.76 11.6 11.6 0 01-4-4 9.27 9.27 0 01-1.28-4.66 7.7 7.7 0 011.83-5.25 12.77 12.77 0 015.12-3.38 8 8 0 01-2.74-2.7 8.05 8.05 0 01-1-4.25 7.26 7.26 0 01.37-2.22 8.06 8.06 0 011.16-2.28 11.61 11.61 0 012-2.13 13 13 0 012.83-1.78 15.86 15.86 0 01-5.85-5.19 13.21 13.21 0 01-2.14-7.51 13.64 13.64 0 011.5-6.43 14.57 14.57 0 014.14-4.84 19.27 19.27 0 016.19-3.06 26.55 26.55 0 017.73-1.08 24 24 0 0110.69 2.29zm-14 47.66a2.55 2.55 0 00-1.51-2.44 12.62 12.62 0 00-3.93-1.07 47.51 47.51 0 00-5.42-.39c-2-.05-4-.16-6-.35a9.27 9.27 0 00-2.17 2 4.07 4.07 0 00-.85 2.54 3.82 3.82 0 00.43 1.82 3.58 3.58 0 001.54 1.42 10.06 10.06 0 002.94.94 26.45 26.45 0 004.69.34 27.82 27.82 0 005-.37 10.57 10.57 0 003.13-1 3.89 3.89 0 001.62-1.53 4.28 4.28 0 00.59-1.91zm-11-27.92c2.34 0 4-.58 5.09-1.76a6.56 6.56 0 001.58-4.55 6.28 6.28 0 00-1.58-4.52c-1.05-1.1-2.75-1.64-5.09-1.64s-4 .54-5.1 1.64a6.28 6.28 0 00-1.58 4.52 7.75 7.75 0 00.39 2.52 5.41 5.41 0 001.21 2 5.71 5.71 0 002.08 1.32 8.43 8.43 0 003.06.47z"/><circle class="cls-3" cx="178.53" cy="300.93" r="12.07"/><circle class="cls-3" cx="163.84" cy="301.06" r="12.07"/><rect class="cls-4" x="102.71" y="257.35" width="98.13" height="62.14" rx="2"/><path class="cls-4" d="M103.94 268.87h95.8M103.94 280.58h95.8"/><path fill="#e9ae25" d="M156.38 247.81h-21.57l62.2-67.55-22.2 55.58h22.2l-62.2 66.77 21.57-54.8z"/></svg>