<svg xmlns="http://www.w3.org/2000/svg" xml:space="preserve" width="639.999" height="639.999" version="1.0" style="shape-rendering:geometricPrecision;text-rendering:geometricPrecision;image-rendering:optimizeQuality;fill-rule:evenodd;clip-rule:evenodd" viewBox="0 0 16933.32 16933.32"><defs><style>.str0{stroke:#000;stroke-width:21.16;stroke-linecap:round;stroke-linejoin:round;stroke-miterlimit:22.9256}.fil0{fill:none}.fil2,.fil3{fill:#000}.fil1{fill:#23a4ef}</style></defs><g id="Layer_x0020_1"><path class="fil0" d="M-.01-.01h16933.33v16933.33H-.01z"/><g id="_2116307967488"><path class="fil1" d="M3844.27 7794.76c-146.15-365.53-429.82-730.17-855.85-1087.84-492.2 307.96-773.09 674.29-906.66 1050.89 455.96 191.87 760.04 537.73 910.09 1022.86 145.45-458.96 430.17-791.84 852.42-985.91z"/><path class="fil1" d="M2883.84 10029.01c-43.22-432.77-22.02-812.12 62.7-1134.47C2690.15 7997.07 1923.9 7558.93 660.5 7669.12c-451.13 1959.19 1380.99 2624.57 2228.18 2442.66l-4.84-82.77z"/><path class="fil1" d="M2970.41 10073.26c-167.55-1677.66 630.5-2555.06 2360.83-2404.14 476.42 2069.05-1593.65 2695.14-2360.83 2404.14z"/></g><g id="_2116307968016"><path class="fil2 str0" d="M8060.93 8233.88c-70.68-1240.92-2415.54-1570.97-2468.58 412.79 48.35 1414.26 2077.81 1849.65 2520.7 275.13l-532.17 9.36c-65.1 745.56-1464.33 728.58-1457.49-305.38-134.64-1113.29 1355.37-1157.51 1429.66-392.88 96.15-31.39 329.5 6.57 507.88.98zM8952.53 7318.49l-474.52-6.8-12.97 2512.24 474.69 9.7 24.59-1181.35c58.76-223.79 242.92-345.27 474.28-314.58 271.56 72.26 325.4 139.07 295.62 957.26-1.14 248.82-5.95 321.5-4.85 539.28l482.45 6.48c-26.4-664.59 21.31-990.85-9.12-1225.28 26.33-706.78-876.85-1041.8-1258.6-321.15l8.43-975.8z"/><path class="fil0 str0" d="M11789.8 8688.69c55.46-470.1-465.27-327.33-993.92-337.65l-2.91-387.89 836.54-1.8c491.83 63.71 695.34 323.77 604.85 1232.47 6.26 192.41 5.66 403.51-.94 630.98h-360.76v-326.93c-149.47 252.62-293.45 356.61-416.38 364.7-461.58 83.38-747.27-81.21-826.59-311.33-217.14-723.87 264.12-929.66 1160.11-862.55z"/><path class="fil3 str0" d="m13450.48 8934.92-246.53 23.99 16.48-71.11 48.46-31.87 699.85-887.38h457.97l-611.38 788.88 798.74 1064.98h-532.49l-631.1-887.49z"/><path class="fil3 str0" d="M12772.18 7334.59h448.25V9828.9h-448.25z"/><path class="fil2 str0" d="M11789.8 8688.69c55.46-470.1-465.27-327.33-993.92-337.65l-2.91-387.89 836.54-1.8c491.83 63.71 695.34 323.77 604.85 1232.47 6.26 192.41 5.66 403.51-.94 630.98h-360.76v-326.93c-149.47 252.62-293.45 356.61-416.38 364.7-461.58 83.38-747.27-81.21-826.59-311.33-217.14-723.87 264.12-929.66 1160.11-862.55zm-5.41 282.7c9.7 238.82-32.6 388.15-100.96 472.97-401.71 332.19-905.17-122.47-462.19-449.43 86.78-30.79 214.95-43.99 395.39-29.1 51.8.16 107.65 1.95 167.76 5.56zM15920.61 8688.69c55.47-470.1-465.27-327.33-993.91-337.65l-2.91-387.89 836.54-1.8c491.83 63.71 695.34 323.77 604.85 1232.47 6.25 192.41 5.66 403.51-.94 630.98h-360.76v-326.93c-149.47 252.62-293.45 356.61-416.38 364.7-461.58 83.38-747.27-81.21-826.59-311.33-217.15-723.87 264.12-929.66 1160.1-862.55zm-5.4 282.7c9.7 238.82-32.6 388.15-100.96 472.97-401.71 332.19-905.17-122.47-462.19-449.43 86.78-30.79 214.95-43.99 395.39-29.1 51.8.16 107.64 1.95 167.76 5.56z"/></g></g></svg>