<svg width="2600" height="540" fill="none" xmlns="http://www.w3.org/2000/svg"><path fill-rule="evenodd" clip-rule="evenodd" d="M1497 2a269 269 0 0 0-145 473A269 269 0 1 0 1497 2zm1 6a263 263 0 0 1 56 523 263 263 0 1 1-56-523z" fill="#ACBB16"/><path fill-rule="evenodd" clip-rule="evenodd" d="M1515 19a250 250 0 1 0 120 475 251 251 0 0 0 91-373c-4-7-9-10-14-17a243 243 0 0 0-197-85zm6 221c1 2 1-1 1 3l-5 19-5 24c-8-12-14-38-17-54-4-27 0-41 1-66-4 10-6 24-7 36-10-9-11-17-25-22 14 11 20 24 22 47 1 28 5 36 10 60-9-6-14-12-21-20-35-40-46-13-60-66-1 20 3 22 8 36-11 0-22-2-31 4 23 2 39 5 54 16 32 23 72 88 74 133-10-5-20-27-65-44-15-5-27-7-40-14-7-5-22-19-22-30 0 13 12 29 17 33l-47 2c32 3 47 0 75 11 19 8 41 22 52 33 7 8 29 26 25 37l-19 47c-6 16-5 17-7 35a231 231 0 0 1-195-248 233 233 0 0 1 392-149l6 7a232 232 0 0 1-138 391c-7-30-4-42 4-71 9-31 14-33 34-49 47-36 67-36 112-52-17-1-30 2-46 5 8-14 12-16 14-36-4 37-47 43-86 67l-29 20c-18-36 8-48 35-87 7-10 17-30 20-46 4-25 10-28 25-42-12 4-16 11-23 17l-3-18c-1 29-2 56-30 81 6-37 4-40-8-70 12 37 2 72-22 100l-21 23c-3-17-5-37-5-55 0-9 3-39 9-48 2-13 16-36 22-45l23-28 8-8c-5 3-18 12-21 16v-21l-5-16c2 11 5 17 1 31-8 26-39 52-40 68v-26c-11 4-22 16-16 32l6-14-3 15c9-2 8-1 12-4z" fill="#293737"/><path fill-rule="evenodd" clip-rule="evenodd" d="M1608 164c11-5 23-17 45-18-15 6-33 12-42 23 24 25 47-10 56-17 6-5 12-6 18-11-15-5-31-11-49-7-16 3-30 12-28 30zM1620 371c27-3 30 1 52 5-22-1-27-5-52 1 19 37 42 7 77 8-21-31-72-41-77-14zM1373 162l3 1 1 1 6 2c4 0 6 2 9 3 17 7 34 26 49-3-9-6-29-9-41-9 19-1 25 0 41 4-4-13-17-18-34-15-17 2-23 11-34 16zM1680 313c9-8 10-15 23-22-5 8-16 15-19 27 32 11 25-9 50-44-27-3-60 11-54 39zM1553 124c1-8-10-23-13-28 10 8 11 14 16 21l3 4c4-16-2-24-11-33-8-7-20-14-34-13 17 26 5 56 39 49zM1623 265c10 9 6 1 29 25-2-6-23-18-33-22-10 28 20 30 31 34 7 2 11 6 16 8-2-47-42-53-43-45zM1518 201c2-10 0-19 0-28l1 2c2 5 3 10 3 24 18-11 6-46-18-59 3 27-17 55 14 61zM1346 207c15 8 16 9 27 18 11 10 25 7 31-6l-28-12c12 1 19 5 29 8-4-19-27-21-44-16l-15 8zM1332 292c11 9 12 9 22 23 6 10 17 15 30 4-3-7-17-17-25-20 13 3 19 12 28 16-2-25-31-30-55-23zM1458 427c10-29 34-18 31-45-10 3-21 13-24 21 5-14 16-20 21-25-27-24-41 32-28 49zM1476 350c3-11 3-14 3-27 3 8 2 19 0 28 19-2 21-15 13-31-5-12-16-19-25-25 1 12 4 15 1 29s-3 22 8 26zM1470 254l-2-35 6 34c16-10 7-42-17-55 2 25-17 53 13 56zM1652 215l31-2c-11 2-23 1-31 7 9 26 31 1 51 0-2-5 0-2-5-5l-5-4c-14-9-35-11-41 4zM1482 168c0-7-4-12-6-19l5 6 4 9s3-1 4-7c1-13-17-29-36-31l8 28c2 12 7 15 21 14zM1385 390c7-8 8-12 16-17 8-6 14-7 13-20-7-1-9 3-15 6 4-6 7-7 11-11-23-19-32 20-25 42zM1390 286c9-4 11-8 22-10 11-3 17-3 17-16-11 1-12 3-21 6 9-6 10-5 20-9-5-19-33-10-38 29zM1575 357l12-22c-3 8-6 13-8 24 24 0 16-13 25-43-16 4-36 20-29 41zM1543 303l8-24-5 25c24 3 15-24 19-44-12 4-38 30-22 43zM1587 394l2 1 3 1 14 7c-8-2-11-4-22-5 2 25 20 16 42 22-2-10-8-17-13-22s-18-13-26-4zM1339 254c11-1 15-2 25 2 10 3 16 3 19-5-7-5-12-3-20-5l21 2c0-30-37-10-45 6zM1518 137c2-5-3-11-6-18 3 4 7 11 11 14 5-8-3-18-8-21-6-5-13-7-22-8 10 23 9 36 25 33zM1648 185c8-2 11-5 19-5-6 2-14 4-18 8 5 7 12 11 21 3l20-12c-11-7-37-13-42 6zM1442 393c1-8 1-12 4-19 10-18 2-25-4-12l-3 10c0-9 3-11 5-18-24 0-17 27-2 39zM1537 238h14l-13 6c7 16 18 5 34-3l4-3c-6-3-17-11-31-6l-5 3v1l-1 1-2 1zM1628 248c6-2 11-4 18-4-7 1-13 2-18 7 9 15 20 1 26-3l9-4c-10-6-30-13-35 4zM1521 240l4-4v-26c-11 4-22 16-16 31l6-14-3 16c6-1 5 0 9-3zM1606 195l-4-15 2 3 4 7 3 3c12-15-7-25-25-26l2 4c13 20 5 24 18 24zM1594 141l2-1c10-3 8-22-4-32-7 18-11 29 2 33zM1443 304c5-5 3-7 11-16 2-3 5-4 5-9-2-7-3-3-8 0 3-5 6-7-1-8-4 0-7 3-9 6-4 10 0 19 2 27zM1537 183l5-3 3-5-3 10c19 4 12-25 4-30-7 20-12 16-9 28zM1594 253l6-7-3 8c12-3 15-19 8-29l-1 1c-1 5 0 0-1 2-8 9-20 16-9 25zM1594 304l12-3c-6 2-6 1-11 6 4 5 8 7 16 2l12-8-1-3-5-2-9-1c-8 0-11 3-14 9zM1680 345l10-2c-4 2-6 1-9 6 7 8 10 5 25-5l3-3c-10-3-23-10-29 4zM1440 338l5-9-2 11c16-2 10-12 13-27-9 2-24 14-16 25zM1423 328c3-4 2-4 2-9l1 3 1 2 2 3c3-13-1-23-12-29 1 15-8 27 6 30zM1627 334l2-3 2 5c19-1 5-23-1-27-1 11-8 19-3 25zM1423 209l4 1h4c-7 1-6 1-8 5 5 3 8 5 14 1l13-7c-8-5-21-10-27 0zM1599 216c4-6-1-1 1-4l3-2c-3-8-9-10-18-11 7 16 5 17 14 17zM1570 216l-3-10 6 7c1-10-5-14-15-15 3 11 1 17 12 18zM0 249v-50h39v-9c0-53 25-79 76-79 19 0 33 2 42 8 10 5 15 13 15 23 0 9-3 18-9 28-10-5-22-8-35-8-11 0-19 2-24 7s-8 13-8 23v8l61-1v50l-56-1v159H39V248l-39 1zM351 407h-37c-20 0-32-11-34-33-13 25-35 37-66 37-19 0-34-5-47-16a54 54 0 0 1-20-45c0-47 34-71 103-71h29c0-13-3-22-9-28-6-5-17-8-30-8-26 0-48 6-67 18-6-9-10-19-10-30s4-18 11-22c17-10 41-15 71-15s53 7 70 21c17 15 25 35 25 62v81c1 23 4 38 11 49zm-123-43c20 0 38-8 52-27v-22h-29c-31 0-47 9-47 28 0 6 2 11 7 15s10 6 17 6zM435 234c5-10 14-19 25-27s24-12 37-12c11 0 20 3 28 9 8 7 11 16 11 28 0 13-3 25-8 38a59 59 0 0 0-42-15c-21 0-38 8-52 24v128h-62V199h25c13 0 22 3 28 9 6 5 9 15 10 26zM808 371v-96c0-19-9-29-25-29-9 0-18 3-27 9-8 6-14 13-18 21v131h-61V275c0-19-9-29-25-29-10 0-18 3-27 9-8 6-14 13-19 21v131h-61V199h24c13 0 22 3 28 8 5 6 8 14 9 25 17-24 40-37 71-37 29 0 47 14 56 41a84 84 0 0 1 73-41c20 0 36 6 47 19s16 32 16 55v138h-23c-26 0-38-12-38-36z" fill="#ACBB16"/><path fill-rule="evenodd" clip-rule="evenodd" d="M918 382c-19-19-29-45-29-80 0-33 10-60 29-79 19-20 46-30 80-30 23 0 42 3 57 11 7 3 11 6 13 9 2 4 3 10 3 17 0 11-3 21-8 32-18-11-37-17-59-17-35 0-52 18-52 57 0 18 4 32 13 42s23 15 41 15c20 0 41-6 60-19 6 11 9 22 9 33 0 7-1 12-4 16-2 3-6 7-12 10-15 8-34 12-59 12-35 1-63-9-82-29zM1154 234c6-10 14-19 25-27s24-12 37-12c11 0 21 3 29 9 7 7 11 16 11 28 0 13-4 25-9 38a59 59 0 0 0-42-15c-21 0-38 8-51 24v128h-63V199h25c13 0 22 3 28 9 6 5 9 15 10 26zM1972 313l-26 88h-85l-56-208h69l20 83c8 28 11 55 12 80h2c2-25 8-53 17-83l25-80h67l25 80c8 30 13 59 15 83h1c0-25 4-52 10-81l25-82h69l-62 208h-78l-25-88-12-69h-1c-4 29-7 52-12 69zM2304 318v-50c-12-19-27-28-42-28-13 0-22 5-30 15s-12 24-12 42 4 32 11 42 18 15 31 15c9 0 17-3 25-11 7-7 13-15 17-25zm61-172v207c0 21 3 38 9 48h-38c-20 0-32-11-34-33a65 65 0 0 1-61 38c-25 0-46-10-61-29s-23-46-23-80 8-62 23-81c16-18 37-28 63-28a68 68 0 0 1 59 32V110h24c26 0 39 12 39 36zM2599 193v184c0 35-9 63-28 82-20 19-46 28-81 28-31 0-52-3-64-11-10-8-16-17-16-29 0-15 3-26 10-34 16 15 37 21 62 21 19 0 32-3 42-11 9-7 13-20 13-38v-20a80 80 0 0 1-67 36c-24 0-42-7-55-22s-19-37-19-66V193h25c25 0 38 12 38 36v78c0 27 10 41 31 41 22 0 37-9 48-28V193h61z" fill="#293737"/></svg>