<svg width="392" height="121" viewBox="0 0 392 121" fill="none" xmlns="http://www.w3.org/2000/svg">
<path d="M49.5028 24.2727H67.0455V71.1832C67.0455 76.6046 65.7552 81.3277 63.1747 85.3523C60.5942 89.3532 56.9957 92.4545 52.3793 94.6562C47.7628 96.8343 42.4006 97.9233 36.2926 97.9233C30.1136 97.9233 24.7159 96.8343 20.0994 94.6562C15.483 92.4545 11.8963 89.3532 9.33949 85.3523C6.78267 81.3277 5.50426 76.6046 5.50426 71.1832V24.2727H23.0824V69.6562C23.0824 72.1657 23.6269 74.4029 24.7159 76.3679C25.8286 78.3329 27.3793 79.8717 29.3679 80.9844C31.3565 82.0971 33.6648 82.6534 36.2926 82.6534C38.9205 82.6534 41.2169 82.0971 43.1818 80.9844C45.1705 79.8717 46.7211 78.3329 47.8338 76.3679C48.9465 74.4029 49.5028 72.1657 49.5028 69.6562V24.2727Z" fill="#3A1F64"/>
<path d="M144.52 50.6222H126.764C126.527 48.7992 126.042 47.1539 125.308 45.6861C124.574 44.2183 123.604 42.9635 122.396 41.9219C121.189 40.8802 119.757 40.0871 118.099 39.5426C116.466 38.9744 114.655 38.6903 112.666 38.6903C109.139 38.6903 106.097 39.5544 103.54 41.2827C101.007 43.0109 99.0535 45.5085 97.6804 48.7756C96.331 52.0426 95.6562 55.9962 95.6562 60.6364C95.6562 65.4659 96.3428 69.5142 97.7159 72.7812C99.1127 76.0246 101.066 78.4749 103.575 80.1321C106.108 81.7656 109.103 82.5824 112.56 82.5824C114.501 82.5824 116.265 82.3338 117.851 81.8366C119.461 81.3395 120.869 80.6174 122.077 79.6705C123.308 78.6998 124.314 77.5279 125.095 76.1548C125.9 74.758 126.456 73.1837 126.764 71.4318L144.52 71.5384C144.212 74.758 143.277 77.9304 141.714 81.0554C140.176 84.1804 138.057 87.0331 135.358 89.6136C132.659 92.1705 129.368 94.2064 125.486 95.7216C121.627 97.2367 117.2 97.9943 112.205 97.9943C105.623 97.9943 99.7282 96.5502 94.5199 93.6619C89.3352 90.75 85.2396 86.5123 82.233 80.9489C79.2263 75.3854 77.723 68.6146 77.723 60.6364C77.723 52.6345 79.25 45.8518 82.304 40.2884C85.358 34.7249 89.4891 30.4991 94.6974 27.6108C99.9058 24.7225 105.741 23.2784 112.205 23.2784C116.608 23.2784 120.68 23.8939 124.42 25.125C128.161 26.3324 131.452 28.108 134.293 30.4517C137.134 32.7718 139.442 35.6245 141.217 39.0099C142.993 42.3954 144.094 46.2661 144.52 50.6222Z" fill="#3A1F64"/>
<path d="M205.983 96.7273L189.719 43.4602H189.115L172.851 96.7273L153.178 96.7273L177.716 24H201.118L225.656 96.7273H205.983Z" fill="#3A1F64"/>
<path d="M233.504 97V24.2727H263.547C268.992 24.2727 273.691 25.2552 277.645 27.2202C281.622 29.1615 284.688 31.955 286.842 35.6009C288.997 39.223 290.074 43.5199 290.074 48.4915C290.074 53.5341 288.973 57.8191 286.771 61.3466C284.57 64.8504 281.445 67.5256 277.396 69.3722C273.348 71.1951 268.554 72.1065 263.014 72.1065H244.016V58.2571H259.747C262.399 58.2571 264.612 57.9138 266.388 57.2273C268.187 56.517 269.548 55.4517 270.472 54.0312C271.395 52.5871 271.857 50.7405 271.857 48.4915C271.857 46.2424 271.395 44.384 270.472 42.9162C269.548 41.4247 268.187 40.312 266.388 39.5781C264.589 38.8205 262.375 38.4418 259.747 38.4418H251.082V97H233.504ZM274.449 63.7614L292.56 97H273.384L255.628 63.7614H274.449Z" fill="#3A1F64"/>
<path d="M327.386 97H300.504V24.2727H327.351C334.761 24.2727 341.141 25.7287 346.491 28.6406C351.866 31.5289 356.009 35.6955 358.92 41.1406C361.832 46.562 363.288 53.0488 363.288 60.6009C363.288 68.1766 361.832 74.687 358.92 80.1321C356.032 85.5772 351.901 89.7557 346.527 92.6676C341.153 95.5559 334.773 97 327.386 97ZM318.082 82.0142H326.712C330.784 82.0142 334.228 81.3277 337.045 79.9545C339.886 78.5578 342.029 76.2969 343.473 73.1719C344.941 70.0232 345.675 65.8329 345.675 60.6009C345.675 55.3688 344.941 51.2022 343.473 48.1009C342.005 44.9759 339.839 42.7268 336.974 41.3537C334.134 39.9569 330.63 39.2585 326.463 39.2585H318.082V82.0142Z" fill="#3A1F64"/>
<circle cx="380.5" cy="24.5" r="11.5" fill="#66D2F8"/>
</svg>
