<svg width="570" height="570" fill="none" xmlns="http://www.w3.org/2000/svg"><path fill="#C7001D" d="M0 0h570v570H0z"/><path d="M303.376 432.432c0 .783.092 1.517.275 2.2.2.667.483 1.25.85 1.75.367.483.825.867 1.375 1.15.55.283 1.175.425 1.875.425a4.6 4.6 0 0 0 1.75-.325c.533-.233 1-.567 1.4-1 .4-.433.708-.958.925-1.575.233-.633.35-1.358.35-2.175a8.33 8.33 0 0 0-.2-2.275c-.167-.717-.433-1.342-.8-1.875a3.83 3.83 0 0 0-1.425-1.25c-.567-.317-1.233-.475-2-.475a3.8 3.8 0 0 0-1.85.45 4.204 4.204 0 0 0-1.375 1.175 5.37 5.37 0 0 0-.85 1.725c-.2.65-.3 1.342-.3 2.075zm0 6.525h-1.5v-18h1.5v7.125c.483-.8 1.142-1.4 1.975-1.8a5.945 5.945 0 0 1 2.65-.625c.983 0 1.833.192 2.55.575a4.954 4.954 0 0 1 1.8 1.5 6.19 6.19 0 0 1 1.075 2.175c.233.833.35 1.7.35 2.6 0 .95-.108 1.842-.325 2.675-.217.833-.567 1.558-1.05 2.175a4.931 4.931 0 0 1-1.8 1.425c-.733.35-1.625.525-2.675.525-.417 0-.842-.058-1.275-.175a6.337 6.337 0 0 1-1.275-.5 5.77 5.77 0 0 1-1.125-.8 4.405 4.405 0 0 1-.825-1.15h-.05v2.275zm13.508 3.525l.6.1c.217.033.433.05.65.05.417 0 .758-.133 1.025-.4.267-.267.483-.592.65-.975a6.65 6.65 0 0 0 .45-1.175c.117-.4.25-.742.4-1.025l-5.025-13.05h1.675l4.15 11.125 4.15-11.125h1.625l-4.825 12.775c-.3.817-.592 1.55-.875 2.2-.267.65-.558 1.2-.875 1.65-.3.467-.642.817-1.025 1.05-.367.25-.808.375-1.325.375-.267 0-.525-.017-.775-.05a6.367 6.367 0 0 1-.65-.125v-1.4zm33.908-5.925h.05l3.925-15.6h1.75l-4.725 18h-1.875l-4.175-15.9h-.05l-4.175 15.9h-1.875l-4.65-18h1.7l3.875 15.6h.05l4.175-15.6h1.9l4.1 15.6zm8.092 2.4v-18h11.975v1.45h-10.275v6.5h9.275v1.45h-9.275v7.15h10.525v1.45h-12.225zm15.208 0v-18h2.6l5.9 15.875h.05l5.8-15.875h2.575v18h-1.7v-16.05h-.05l-5.9 16.05h-1.6l-5.925-16.05h-.05v16.05h-1.7zm19.25 0l7.075-18h1.925l6.9 18h-1.75l-2.075-5.65h-8.2l-2.125 5.65h-1.75zm4.45-7.1h7.05l-3.525-9.45-3.525 9.45zM193.056 393.308h-17.012l-2.603 5.649H161v-1.619L181.884 353h5.459l20.661 44.338v1.619h-12.282l-2.666-5.649zm-8.506-20.948l-4.697 10.982h9.426l-4.729-10.982zM249.271 353.444v34.849h16.473v10.664h-28.343v-45.513h11.87zM329.022 393.308h-17.011l-2.603 5.649h-12.441v-1.619L317.851 353h5.459l20.661 44.338v1.619h-12.283l-2.666-5.649zm-8.505-20.948l-4.698 10.982h9.427l-4.729-10.982zM384.914 363.854h-11.172v-10.41h33.801v10.41h-11.108v35.103h-11.521v-35.103zM139 322h151.028c2.973 0 4.907-3.129 3.578-5.789L290.5 310l-6.5-11.5-.335-.558a4 4 0 0 0-3.43-1.942h-95.737c-3.094 0-5.017-3.363-3.446-6.03l62.525-106.159c1.542-2.617 5.324-2.629 6.881-.021l81.378 136.261A4 4 0 0 0 335.27 322h92.801c3.079 0 5.004-3.334 3.464-6l-110.88-192a4 4 0 0 0-3.464-2h-19.882c-3.052 0-4.98 3.281-3.493 5.948l90.368 162.104c1.487 2.667-.441 5.948-3.493 5.948h-29.893a3.997 3.997 0 0 1-3.455-1.986l-96.186-165.028a3.997 3.997 0 0 0-3.455-1.986h-.402a4 4 0 0 0-3.457 1.988l-108.3 186.079a3.995 3.995 0 0 0-.543 2.012V318a4 4 0 0 0 4 4z" fill="#fff"/></svg>