<svg data-name="Layer 1" xmlns="http://www.w3.org/2000/svg" viewBox="0 0 878.83 227.78"><g data-name="Layer_1"><g data-name="2097147669952"><path d="M1.17 227.78h38.16v-61.64h.59a22 22 0 0 0 7.63 7 29.8 29.8 0 0 0 10.57 5.3 51.37 51.37 0 0 0 14.09 1.76 52.55 52.55 0 0 0 31.7-10 54.6 54.6 0 0 0 12.35-13.45c4.11-5.28 6.46-11.15 8.81-18.2 2.35-7.63 2.94-15.26 2.94-24.66s-1.17-18.79-4.11-26.42a52.5 52.5 0 0 0-11.15-19.37 43.52 43.52 0 0 0-16.49-12.91 51.9 51.9 0 0 0-19.37-4.11 53.69 53.69 0 0 0-24.07 5.28 45.54 45.54 0 0 0-17 14.68h-.56l-1.76-17H0c0 5.87.59 11.74.59 18.79.59 7 .59 14.68.59 22.31v132.64zm38.16-120.34v-3.52c.59-1.17.59-2.35 1.17-2.94a28.42 28.42 0 0 1 4.11-10.54 21.13 21.13 0 0 1 8.22-6.46c3.52-1.76 6.46-2.94 10.57-2.94a22.6 22.6 0 0 1 14.09 4.7 24 24 0 0 1 8.77 12.3 55.34 55.34 0 0 1 3 17.62 60.08 60.08 0 0 1-3 18.78 27 27 0 0 1-9.39 11.74 22.6 22.6 0 0 1-14.09 4.7c-4.11 0-7-1.17-10.57-2.35a40.42 40.42 0 0 1-7.63-6.46c-1.76-2.94-3.52-5.87-4.11-9.39-.59-1.17-.59-2.35-1.17-4.11v-21.13zm112.72 70.45h38.75v-67.52c0-1.17.59-2.94.59-4.11a22.54 22.54 0 0 1 8.81-14.09q7-5.28 17.61-5.28h5.87c1.17.59 2.94.59 4.7 1.17v-36.4c-1.76 0-2.94-.59-4.11-.59h-4.11c-2.94 0-6.46 0-9.39 1.17a28.25 28.25 0 0 0-9.39 4.7 27.43 27.43 0 0 0-8.22 8.22c-2.94 2.94-4.7 7-6.46 11.74h-1.17L184.36 54h-32.9a74.85 74.85 0 0 0 .59 11.15v112.73zm135 0V54.01h-38.73v123.87zm30.53 0h38.75v-76.91a8.48 8.48 0 0 1 1.17-4.11c.59-2.35 2.35-4.7 4.11-7a14.35 14.35 0 0 1 6.46-5.28c2.35-1.76 5.28-2.35 8.81-2.35 4.7 0 8.81 1.17 11.74 3.52a21.49 21.49 0 0 1 5.87 9.39c1.76 4.11 2.35 8.81 2.35 14.09v68.69H435V104.5c0-9.39-1.17-17-3.52-23.48-1.76-7-5.28-12.33-8.81-17-4.11-4.11-8.81-7.63-14.09-9.39a44.93 44.93 0 0 0-17.61-3.52 51.37 51.37 0 0 0-14.09 1.76c-4.11 1.76-8.22 2.94-11.15 5.28a44.33 44.33 0 0 0-8.22 6.46c-1.76 2.35-3.52 4.7-4.7 6.46h-1.17l-1.76-17h-33.46c.59 5.28.59 11.74 1.17 18.2v105.61zm152-146.77v22.9h-16.37V82.2h16.44v50.49a79 79 0 0 0 2.94 22.31 38.81 38.81 0 0 0 7.67 14.67 43.64 43.64 0 0 0 12.33 7.63 51.7 51.7 0 0 0 17 2.94 114.37 114.37 0 0 0 14.67-1.18c4.11-.59 7.63-1.17 10-2.35v-28.77a7.45 7.45 0 0 0-3.52.59h-8.22c-3.52 0-6.46-.59-8.81-2.35-2.35-1.17-4.11-3.52-4.7-7q-1.75-4.44-1.75-12.37V82.19h27.59V54.01h-27.59V20.55l-37.57 10.57zm143.83 22.9l45.2 123.87h38.16l45.79-123.87h-40.44l-15.86 57.53c-1.17 5.28-2.35 10-3.52 15.26a108.16 108.16 0 0 0-2.93 14.63h-1.17a129.83 129.83 0 0 0-2.94-14.68 147 147 0 0 0-4.11-15.26l-16.43-57.49h-41.68zm202.54-2.94c-10 0-19.37 1.17-27 4.7a55.52 55.52 0 0 0-21.13 12.92c-5.87 5.87-10.57 12.33-13.5 20.55a82.39 82.39 0 0 0-4.7 27.59 73.14 73.14 0 0 0 4.7 26.42 62.83 62.83 0 0 0 13.5 20 58 58 0 0 0 20.55 12.92c7.63 2.94 16.44 4.11 25.24 4.11 6.46 0 13.5-.59 19.37-2.35a70.47 70.47 0 0 0 18.2-7.63 58.6 58.6 0 0 0 14.09-12.92c4.7-5.28 7.63-11.74 10-18.79a76.84 76.84 0 0 0 3.56-24.16c0-9.39-1.17-18.2-4.7-25.83-2.94-7.63-7-14.68-12.33-20a55.71 55.71 0 0 0-20-12.92c-7.63-3.52-16.44-4.7-25.83-4.7zm-1.17 27.59c4.11 0 8.22.59 11.15 2.94s5.87 4.7 7.63 8.22a38.11 38.11 0 0 1 4.11 12.33 50 50 0 0 1 1.76 13.5c0 7-1.17 14.09-3.52 19.37a26 26 0 0 1-8.22 12.92c-3.52 3.52-8.22 4.7-12.92 4.7a22.6 22.6 0 0 1-14.09-4.7 31 31 0 0 1-8.22-13.5c-2.35-5.28-2.94-11.74-2.94-18.79a96.35 96.35 0 0 1 1.17-13.5c1.17-4.7 2.35-8.22 4.7-11.74a27.64 27.64 0 0 1 7.63-8.81 23.12 23.12 0 0 1 11.74-2.94z"/><path fill="#00afef" d="M558.3 54.6v30.52h39.33V54.6H558.3z"/><path fill="#ec268f" d="M558.3 85.12v31.12h39.33V85.12H558.3z"/><path fill="#fff212" d="M558.3 116.24v30.53h39.33v-30.53H558.3z"/><path d="M558.3 146.77v31.11h39.33v-31.11H558.3zM578.26 0c-11.74 0-21.13 9.39-21.13 20.55a21 21 0 0 0 21.13 21.14c11.15 0 20.55-9.39 20.55-21.13A20.8 20.8 0 0 0 578.26 0zM268.26 0c-11.74 0-21.13 9.39-21.13 20.55a21 21 0 0 0 21.13 21.14c11.15 0 20.55-9.39 20.55-21.13A20.8 20.8 0 0 0 268.26 0z"/></g></g></svg>