<svg width="2045" height="576" fill="none" xmlns="http://www.w3.org/2000/svg"><path fill-rule="evenodd" clip-rule="evenodd" d="M1731.81 487.3c-8.37-2.67-15.67-5.76-21.85-9.28l-29.14 78.1a244.1 244.1 0 0 0 40.38 13.96c14.12 3.52 29.57 5.28 46.35 5.28 26.48 0 49.55-5.54 69.2-16.57 19.66-11.03 35.22-30.05 46.67-56.95L2045 119.18h-119.17l-64.89 188.64-65.53-188.64h-125.83l137.07 309.14-18.53 41.77c-3.57 7.94-7.89 13.42-12.95 16.51-5.06 3.1-11.77 4.64-20.19 4.64-7.03 0-14.76-1.28-23.17-3.94zm-185.24-189.71c6.61-.64 13.27-1.23 19.87-1.65v60.25a76.37 76.37 0 0 1-18.85 10.6c-6.88 2.66-14.44 3.94-22.86 3.94-11.45 0-20.4-2.93-26.8-8.9-6.39-5.96-9.64-13.58-9.64-22.85 0-8.84 2.88-16.88 8.63-24.18 5.76-7.25 15.45-12.04 29.14-14.23a232.75 232.75 0 0 1 20.51-2.98zm27.17 119.5l9.27 25.19h97.33V238.35c0-43.26-12.57-75.17-37.77-95.68-25.14-20.57-58.92-30.8-101.27-30.8-30.47 0-56.63 4.43-78.47 13.27a206 206 0 0 0-59.24 36.39l51.62 57.59a149.14 149.14 0 0 1 32.76-19.88 90.4 90.4 0 0 1 36.12-7.24c11.46 0 21.42 3.09 29.78 9.27 8.37 6.18 12.57 15.87 12.57 29.14v7.94a757.4 757.4 0 0 0-33.45 2.29 607.96 607.96 0 0 0-39.37 5 195.27 195.27 0 0 0-43.68 11.25c-13.7 5.27-25.74 12.14-36.12 20.5a91 91 0 0 0-24.46 30.43c-5.96 11.93-8.95 25.89-8.95 41.76 0 15.45 2.61 29.14 7.94 41.02a90.35 90.35 0 0 0 22.16 30.8c9.49 8.63 20.67 15.13 33.46 19.55 12.78 4.36 26.69 6.6 41.71 6.6 19.87 0 37.29-2.98 52.32-8.95 14.97-5.91 26.9-13.1 35.74-21.52zM865.47 37.55l143.2 404.72h88.06l50.29-169.52 50.99 169.52h88.7l114.59-323.1h-118.54l-47.68 171.48-49.65-171.49h-75.49l-49.65 171.5-82.78-253.1H865.47zm-205.1 81.61v80.77h45.7v141.7c0 16.3 1.66 31.06 4.96 44.33 3.3 13.26 8.95 24.5 16.9 33.77 7.93 9.27 18.42 16.47 31.42 21.53 13.05 5.06 29.04 7.62 48 7.62 22.54 0 42.3-2.67 59.3-7.94 16.99-5.33 32.76-13 47.3-23.18l-29.78-70.21a110.92 110.92 0 0 1-19.55 11.93 51.71 51.71 0 0 1-22.8 5.33c-8.42 0-13.8-3.09-16.25-9.27-2.4-6.18-3.62-14.81-3.62-25.84V199.94h77.72l-28.6-80.77h-49.12V37.72H706.08v81.45h-45.71zm-121.46 81.09c9.05 9.9 14.22 23.5 15.55 40.75H453.83c1.76-16.78 7.62-30.26 17.53-40.43 9.96-10.12 21.52-15.24 34.78-15.24 12.79 0 23.71 5 32.77 14.92zm-66.86 147.67c-11.72-10.81-18-25.94-18.91-45.39h209.9c-.43-64.88-14.87-112.88-43.37-144-28.45-31.1-66.75-46.66-114.86-46.66-23.38 0-45.12 3.73-65.2 11.24-20.09 7.51-37.4 18.54-52 33.13-14.6 14.55-26.05 32.29-34.41 53.28-8.42 20.99-12.58 44.9-12.58 71.86 0 27.81 4.37 52.16 13.21 73.15 8.85 20.93 20.78 38.4 35.8 52.26 14.97 13.96 32.5 24.45 52.64 31.48 20.08 7.04 41.55 10.6 64.51 10.6 18.97 0 36.07-1.54 51.3-4.63 15.24-3.09 28.72-7.51 40.39-13.26a165.79 165.79 0 0 0 31.16-19.5c9.06-7.3 17.1-15.35 24.19-24.19l-70.86-55.62c-8.9 11.03-18.48 19.24-28.82 24.5-10.39 5.34-22.85 7.95-37.4 7.95-18.1 0-33.02-5.38-44.7-16.2zM130.4 363.17c-4.64-.7-9.43-1.65-14.28-3.04V203.88c5.33-1.76 10.6-3.2 15.93-4.26a83.24 83.24 0 0 1 17.2-1.66c18.54 0 33.89 6.61 46.03 19.82 12.1 13.27 18.17 33.78 18.17 61.59 0 28.71-6.18 50.02-18.54 63.93-12.36 13.9-28.45 20.82-48.32 20.82-6.18 0-11.56-.32-16.2-.95zm13.9-249a208.25 208.25 0 0 0-28.18 6.34V.64H.3v422.4c19.82 7.52 41.45 13.8 64.84 18.87 23.44 5.11 49.7 7.67 78.79 7.67 26.47 0 50.87-3.57 73.2-10.6 22.26-7.09 41.6-17.8 57.9-32.18 16.36-14.28 29.04-32.5 38.1-54.6 9.05-22.06 13.58-48.11 13.58-78.1 0-22.54-3.3-43.69-9.96-63.56-6.6-19.87-16.2-37.08-28.77-51.67-12.57-14.55-28.18-26.05-46.72-34.42-18.54-8.36-39.48-12.57-62.86-12.57-12.84 0-24.2.74-34.1 2.29z" fill="#000"/></svg>