<?xml version="1.0" encoding="utf-8"?>
<!-- Generator: Adobe Illustrator 22.1.0, SVG Export Plug-In . SVG Version: 6.00 Build 0)  -->
<svg version="1.1" id="Layer_1" xmlns="http://www.w3.org/2000/svg" xmlns:xlink="http://www.w3.org/1999/xlink" x="0px" y="0px"
	 viewBox="0 0 1000 1000" style="enable-background:new 0 0 1000 1000;" xml:space="preserve">
<style type="text/css">
	.st0{fill:url(#SVGID_1_);}
	.st1{fill:#D04190;}
	.st2{clip-path:url(#SVGID_3_);fill:url(#SVGID_4_);}
	.st3{fill:#772778;}
	.st4{fill:#FFFFFF;}
	.st5{fill:#29ADE3;}
	.st6{clip-path:url(#SVGID_8_);fill:url(#SVGID_9_);}
	.st7{fill:#21ADE4;}
</style>
<g>
	<g>
		
			<radialGradient id="SVGID_1_" cx="454.6952" cy="145.8328" r="105.5344" gradientTransform="matrix(1 0 0 -0.3 0 958.2296)" gradientUnits="userSpaceOnUse">
			<stop  offset="0" style="stop-color:#000000;stop-opacity:0.95"/>
			<stop  offset="0.114" style="stop-color:#030303;stop-opacity:0.86"/>
			<stop  offset="0.2025" style="stop-color:#0D0D0D;stop-opacity:0.7966"/>
			<stop  offset="0.2824" style="stop-color:#1D1D1D;stop-opacity:0.72"/>
			<stop  offset="0.3573" style="stop-color:#353535;stop-opacity:0.64"/>
			<stop  offset="0.4286" style="stop-color:#535353;stop-opacity:0.57"/>
			<stop  offset="0.4973" style="stop-color:#787878;stop-opacity:0.5"/>
			<stop  offset="0.5627" style="stop-color:#A3A3A3;stop-opacity:0.43"/>
			<stop  offset="0.6266" style="stop-color:#BDBDBD;stop-opacity:0.4"/>
			<stop  offset="0.8175" style="stop-color:#BBBBBB;stop-opacity:0.3"/>
			<stop  offset="0.9357" style="stop-color:#B4B4B4;stop-opacity:0.2"/>
			<stop  offset="1" style="stop-color:#B0B0B0;stop-opacity:0.1"/>
		</radialGradient>
		<ellipse class="st0" cx="454.2" cy="914.7" rx="148.6" ry="15.9"/>
		<g>
			<polygon class="st1" points="431.7,155.7 490,155.7 543.1,103.9 586.9,103.9 580.3,808.5 431.7,650.6 			"/>
			<g>
				<g>
					<defs>
						<polygon id="SVGID_2_" points="561.7,16.3 456.9,16.3 456.9,597.5 557.7,766.1 						"/>
					</defs>
					<clipPath id="SVGID_3_">
						<use xlink:href="#SVGID_2_"  style="overflow:visible;"/>
					</clipPath>
					
						<linearGradient id="SVGID_4_" gradientUnits="userSpaceOnUse" x1="509.2889" y1="1043.9941" x2="509.2889" y2="294.2436" gradientTransform="matrix(1 0 0 -1 0 1060.3125)">
						<stop  offset="0" style="stop-color:#29ADE3"/>
						<stop  offset="0.44" style="stop-color:#FFFFFF"/>
						<stop  offset="1" style="stop-color:#FFFFFF"/>
					</linearGradient>
					<rect x="456.9" y="16.3" class="st2" width="104.8" height="749.8"/>
				</g>
			</g>
			<polygon class="st3" points="739.5,99.9 739.5,914.7 336.1,648 336.1,333.5 			"/>
			<polygon class="st4" points="403.8,459.5 403.8,365.3 411.8,365.3 411.8,409.1 478.1,409.1 478.1,365.3 486.1,365.3 486.1,459.5 
				478.1,459.5 478.1,415.7 411.8,415.7 411.8,459.5 			"/>
			<polygon class="st4" points="516.6,426.4 539.1,377.3 557.7,419.7 532.5,419.7 528.5,426.4 561.7,426.4 576.3,459.5 584.3,459.5 
				540.5,364 537.8,364 494,459.5 502,459.5 			"/>
			<polygon class="st4" points="592.2,459.5 592.2,365.3 601.5,365.3 601.5,452.9 648,452.9 648,459.5 			"/>
			<polygon class="st4" points="662.6,459.5 662.6,365.3 670.5,365.3 670.5,452.9 717,452.9 717,459.5 			"/>
			<g>
				<g>
					<defs>
						<rect id="SVGID_5_" x="273.7" y="904.1" width="372.9" height="30.5"/>
					</defs>
					<clipPath id="SVGID_6_">
						<use xlink:href="#SVGID_5_"  style="overflow:visible;"/>
					</clipPath>
				</g>
			</g>
			<polygon class="st5" points="260.5,597.9 260.5,377.2 267.1,373.3 267.1,602.3 			"/>
			<polygon class="st5" points="285.7,614.6 285.7,362.6 292.3,358.7 292.3,619 			"/>
			<polygon class="st5" points="310.9,631.3 310.9,348 317.5,344.1 317.5,635.6 			"/>
			<g>
				<g>
					<defs>
						<path id="SVGID_7_" d="M720.9,532.5v-58.4H403.8c-9.3,19.9-9.3,39.8,0,59.7H636C551.1,636,403.8,742.2,413.1,917.3h74.3
							C470.1,739.5,622.7,648,720.9,532.5"/>
					</defs>
					<clipPath id="SVGID_8_">
						<use xlink:href="#SVGID_7_"  style="overflow:visible;"/>
					</clipPath>
					
						<linearGradient id="SVGID_9_" gradientUnits="userSpaceOnUse" x1="557.0607" y1="142.9664" x2="557.0607" y2="586.1819" gradientTransform="matrix(1 0 0 -1 0 1060.3125)">
						<stop  offset="0" style="stop-color:#AAACAF"/>
						<stop  offset="0.42" style="stop-color:#FFFFFF"/>
						<stop  offset="1" style="stop-color:#FFFFFF"/>
					</linearGradient>
					<rect x="394.5" y="474.1" class="st6" width="325.1" height="443.2"/>
				</g>
			</g>
		</g>
	</g>
	<g>
		<path class="st7" d="M545,955c0,0-4.9-4.4-10.3-3.7c0,0-4.7,1.1-3.1,5.5c1.8,4.8,15.6,8.2,15,17.9c-0.5,6.9-7.6,8.7-7.6,8.7
			s-8.1,1.8-13.1-3.4v-7.1c0,0,4,5.7,10.9,5.4c5.1-0.7,4.1-5.3,4.1-5.3c-2.5-7.5-15.3-8.7-15-17.9c0,0-0.1-8.7,11.1-8.6
			c0,0,5,0,8,2.4V955z"/>
		<path class="st7" d="M276.5,965.9c6.5-2.4,6.1-8.8,6.1-8.8c0-10.2-9.8-10.1-9.8-10.1h-12.3v35.6h5.5v-15.8h1.9
			c5.9,0,13.9,15.8,13.9,15.8h6.3C279.7,969.5,276.5,965.9,276.5,965.9z M269.8,962.7H266v-10.9h3.6c0,0,7.5-0.2,7.5,5.4
			C277.1,963,269.8,962.7,269.8,962.7z"/>
		<polygon class="st7" points="309.6,947.1 331.2,947.1 331.2,951.8 314.6,951.8 314.6,962.4 331.2,962.4 331.2,967.2 314.7,967.2 
			314.7,978 331.2,978 331.2,982.7 309.6,982.7 		"/>
		<polygon class="st7" points="480.5,947.1 502.1,947.1 502.1,951.8 485.5,951.8 485.5,962.4 502.1,962.4 502.1,967.2 485.6,967.2 
			485.6,978 502.1,978 502.1,982.7 480.5,982.7 		"/>
		<polygon class="st7" points="717.9,947.1 739.5,947.1 739.5,951.8 722.9,951.8 722.9,962.4 739.5,962.4 739.5,967.2 723,967.2 
			723,978 739.5,978 739.5,982.7 717.9,982.7 		"/>
		<path class="st7" d="M371.2,947.1h-3.8l-15.2,35.6h5.2l4.5-10.4h14.9l4.7,10.4h5.5L371.2,947.1z M364.2,967.5l5.1-12.5l5.5,12.5
			H364.2z"/>
		<path class="st7" d="M633,947.1h-3.8L614,982.7h5.2l4.5-10.4h14.9l4.7,10.4h5.5L633,947.1z M625.9,967.5l5.1-12.5l5.5,12.5H625.9z
			"/>
		<polygon class="st7" points="409,947.1 414.2,947.1 414.2,978.2 431.1,978.2 431.1,982.7 409,982.7 		"/>
		<polygon class="st7" points="567.7,947.1 599.5,947.1 599.5,952.3 586.3,952.3 586.3,982.9 580.7,982.9 580.7,952.2 567.7,952.2 
					"/>
		<polygon class="st7" points="662.9,947.1 694.7,947.1 694.7,952.3 681.5,952.3 681.5,982.9 675.9,982.9 675.9,952.2 662.9,952.2 
					"/>
	</g>
</g>
</svg>
