<svg id="Layer_1" xmlns="http://www.w3.org/2000/svg" xmlns:xlink="http://www.w3.org/1999/xlink" viewBox="0 0 1000 1000"><style>.st4{fill:#fff}.st5{fill:#29ade3}.st7{fill:#21ade4}</style><radialGradient id="SVGID_1_" cx="454.695" cy="145.833" r="105.534" gradientTransform="matrix(1 0 0 -.3 0 958.23)" gradientUnits="userSpaceOnUse"><stop offset="0" stop-opacity=".95"/><stop offset=".114" stop-color="#030303" stop-opacity=".86"/><stop offset=".203" stop-color="#0d0d0d" stop-opacity=".797"/><stop offset=".282" stop-color="#1d1d1d" stop-opacity=".72"/><stop offset=".357" stop-color="#353535" stop-opacity=".64"/><stop offset=".429" stop-color="#535353" stop-opacity=".57"/><stop offset=".497" stop-color="#787878" stop-opacity=".5"/><stop offset=".563" stop-color="#a3a3a3" stop-opacity=".43"/><stop offset=".627" stop-color="#bdbdbd" stop-opacity=".4"/><stop offset=".818" stop-color="#bbb" stop-opacity=".3"/><stop offset=".936" stop-color="#b4b4b4" stop-opacity=".2"/><stop offset="1" stop-color="#b0b0b0" stop-opacity=".1"/></radialGradient><ellipse cx="454.2" cy="914.7" rx="148.6" ry="15.9" fill="url(#SVGID_1_)"/><path fill="#d04190" d="M431.7 155.7H490l53.1-51.8h43.8l-6.6 704.6-148.6-157.9z"/><defs><path id="SVGID_2_" d="M561.7 16.3H456.9v581.2l100.8 168.6z"/></defs><clipPath id="SVGID_3_"><use xlink:href="#SVGID_2_" overflow="visible"/></clipPath><linearGradient id="SVGID_4_" gradientUnits="userSpaceOnUse" x1="509.289" y1="1043.994" x2="509.289" y2="294.244" gradientTransform="matrix(1 0 0 -1 0 1060.313)"><stop offset="0" stop-color="#29ade3"/><stop offset=".44" stop-color="#fff"/><stop offset="1" stop-color="#fff"/></linearGradient><path clip-path="url(#SVGID_3_)" fill="url(#SVGID_4_)" d="M456.9 16.3h104.8v749.8H456.9z"/><path fill="#772778" d="M739.5 99.9v814.8L336.1 648V333.5z"/><path class="st4" d="M403.8 459.5v-94.2h8v43.8h66.3v-43.8h8v94.2h-8v-43.8h-66.3v43.8zM516.6 426.4l22.5-49.1 18.6 42.4h-25.2l-4 6.7h33.2l14.6 33.1h8L540.5 364h-2.7L494 459.5h8zM592.2 459.5v-94.2h9.3v87.6H648v6.6zM662.6 459.5v-94.2h7.9v87.6H717v6.6z"/><defs><path id="SVGID_5_" d="M273.7 904.1h372.9v30.5H273.7z"/></defs><clipPath id="SVGID_6_"><use xlink:href="#SVGID_5_" overflow="visible"/></clipPath><path class="st5" d="M260.5 597.9V377.2l6.6-3.9v229zM285.7 614.6v-252l6.6-3.9V619zM310.9 631.3V348l6.6-3.9v291.5z"/><g><defs><path id="SVGID_7_" d="M720.9 532.5v-58.4H403.8c-9.3 19.9-9.3 39.8 0 59.7H636C551.1 636 403.8 742.2 413.1 917.3h74.3C470.1 739.5 622.7 648 720.9 532.5"/></defs><clipPath id="SVGID_8_"><use xlink:href="#SVGID_7_" overflow="visible"/></clipPath><linearGradient id="SVGID_9_" gradientUnits="userSpaceOnUse" x1="557.061" y1="142.966" x2="557.061" y2="586.182" gradientTransform="matrix(1 0 0 -1 0 1060.313)"><stop offset="0" stop-color="#aaacaf"/><stop offset=".42" stop-color="#fff"/><stop offset="1" stop-color="#fff"/></linearGradient><path clip-path="url(#SVGID_8_)" fill="url(#SVGID_9_)" d="M394.5 474.1h325.1v443.2H394.5z"/></g><g><path class="st7" d="M545 955s-4.9-4.4-10.3-3.7c0 0-4.7 1.1-3.1 5.5 1.8 4.8 15.6 8.2 15 17.9-.5 6.9-7.6 8.7-7.6 8.7s-8.1 1.8-13.1-3.4v-7.1s4 5.7 10.9 5.4c5.1-.7 4.1-5.3 4.1-5.3-2.5-7.5-15.3-8.7-15-17.9 0 0-.1-8.7 11.1-8.6 0 0 5 0 8 2.4v6.1zM276.5 965.9c6.5-2.4 6.1-8.8 6.1-8.8 0-10.2-9.8-10.1-9.8-10.1h-12.3v35.6h5.5v-15.8h1.9c5.9 0 13.9 15.8 13.9 15.8h6.3c-8.4-13.1-11.6-16.7-11.6-16.7zm-6.7-3.2H266v-10.9h3.6s7.5-.2 7.5 5.4c0 5.8-7.3 5.5-7.3 5.5zM309.6 947.1h21.6v4.7h-16.6v10.6h16.6v4.8h-16.5V978h16.5v4.7h-21.6zM480.5 947.1h21.6v4.7h-16.6v10.6h16.6v4.8h-16.5V978h16.5v4.7h-21.6zM717.9 947.1h21.6v4.7h-16.6v10.6h16.6v4.8H723V978h16.5v4.7h-21.6zM371.2 947.1h-3.8l-15.2 35.6h5.2l4.5-10.4h14.9l4.7 10.4h5.5l-15.8-35.6zm-7 20.4l5.1-12.5 5.5 12.5h-10.6zM633 947.1h-3.8L614 982.7h5.2l4.5-10.4h14.9l4.7 10.4h5.5L633 947.1zm-7.1 20.4L631 955l5.5 12.5h-10.6zM409 947.1h5.2v31.1h16.9v4.5H409zM567.7 947.1h31.8v5.2h-13.2v30.6h-5.6v-30.7h-13zM662.9 947.1h31.8v5.2h-13.2v30.6h-5.6v-30.7h-13z"/></g></svg>