<svg width="275" height="94" viewBox="0 0 275 94" fill="none" xmlns="http://www.w3.org/2000/svg">
<path d="M263.68 93.7134C255.473 89.2188 247.07 85.8967 238.472 82.9655C220.298 77.2984 201.734 75.7351 182.974 76.9076C165.777 78.0801 148.971 81.793 132.556 86.2876C116.141 90.5867 99.3357 93.1271 82.53 92.5409C62.793 92.15 44.033 87.6555 27.6181 76.3214C17.0657 69.091 8.66279 59.711 2.80032 48.3769C2.01866 47.009 1.62782 45.4457 0.846161 43.8823C1.82324 43.4915 1.82324 44.2732 2.01866 44.664C14.3299 62.056 31.5264 71.8268 52.2405 76.126C68.8509 79.448 85.4612 78.6664 102.072 75.9305C113.601 73.9764 124.935 70.4589 136.465 67.7231C154.638 63.6193 173.007 61.6652 191.572 63.4239C217.953 65.9643 241.794 74.9535 262.508 92.15C262.899 92.5409 263.29 92.9317 263.68 93.3225C263.68 93.1271 263.68 93.3225 263.68 93.7134Z" fill="#0054B4"/>
<path d="M167.341 54.4347C173.008 50.331 175.157 45.0548 173.594 38.4106C172.03 31.7665 166.168 27.6628 159.133 27.6628C152.88 27.8582 147.604 32.5482 146.236 39.1923C144.868 45.641 148.19 52.2852 154.052 55.2164C154.638 55.6072 155.225 55.6072 156.006 55.9981C154.834 56.7797 153.466 56.5843 152.293 56.7797C147.799 57.5614 143.304 58.1476 138.81 59.3201C137.637 59.711 137.246 59.1247 136.66 58.3431C124.544 41.1465 134.706 17.6966 155.225 14.3745C170.272 12.0295 183.755 20.8232 187.468 34.8932C189.227 41.1465 188.641 47.5952 186.1 53.6531C185.71 54.6302 185.319 55.021 184.146 55.021C179.456 54.8256 174.766 55.021 170.272 55.021C169.099 54.8256 168.122 55.6072 167.341 54.4347Z" fill="#FE0000"/>
<path d="M56.7351 13.7883C60.448 13.7883 63.3792 13.7883 66.3105 13.7883C67.483 13.7883 68.0692 13.9837 67.8738 15.3516C67.483 22.9728 62.4022 27.6628 54.7809 27.6628C53.413 27.6628 52.0451 27.6628 50.6772 27.6628C42.8606 27.6628 36.4119 33.9161 36.4119 41.9281C36.4119 49.9402 42.6652 56.1935 50.6772 56.1935C52.6314 56.1935 54.7809 56.1935 56.5397 56.1935C62.793 56.5843 68.0692 62.4468 67.6784 68.8955C67.483 70.2634 66.5059 69.8726 66.115 69.6772C61.0342 69.2863 55.9534 68.7001 50.8726 67.723C43.6422 66.1597 36.4119 63.6193 29.5723 60.4926C28.3998 60.1018 27.6181 59.3201 27.0319 58.3431C14.7207 41.7327 25.4686 16.9149 45.9872 14.1791C49.8955 13.7883 53.6084 13.9837 56.7351 13.7883Z" fill="#FE0000"/>
<path d="M238.276 68.3093C231.241 64.9872 224.011 62.056 216.585 59.9064C210.332 58.1477 204.274 56.7798 197.825 55.9981C196.653 55.8027 196.067 55.4118 195.676 54.4348C193.917 51.1127 192.94 47.5952 192.94 43.8823C192.744 30.0078 192.94 15.9379 192.744 1.86792C192.744 0.695426 193.135 0.500009 194.308 0.500009C201.734 0.890841 207.205 6.16707 207.205 13.5929C207.205 22.7774 207.205 31.962 207.205 41.1465C207.205 49.9402 213.263 55.9981 222.057 55.9981C224.597 55.9981 227.138 55.6073 229.678 56.3889C234.759 58.1477 238.276 62.8376 238.276 68.3093Z" fill="#FE0000"/>
<path d="M249.415 45.8365C249.415 45.2502 249.415 44.664 249.415 43.8823C249.22 40.7557 250.588 38.6061 253.128 37.2382C255.668 35.8703 258.404 36.0657 260.749 38.0199C261.531 38.6061 261.922 38.4107 262.703 37.8244C265.048 36.0657 267.589 35.8703 270.129 37.2382C272.67 38.6061 274.037 40.9511 274.037 43.8823C274.037 45.6411 274.037 47.2044 274.037 48.9631C274.037 50.3311 273.451 50.3311 272.474 49.9402C271.106 49.354 270.52 48.3769 270.52 46.8136C270.52 45.6411 270.52 44.4686 270.52 43.4915C270.52 41.3419 269.152 39.974 267.198 39.7786C265.244 39.5832 263.68 41.1465 263.68 43.2961C263.485 45.2502 263.68 47.2044 263.68 48.9631C263.68 50.1356 263.29 50.1356 262.313 49.9402C260.945 49.5494 260.163 48.5723 260.163 47.009C260.163 45.6411 260.163 44.2732 259.968 42.9053C259.772 40.9511 258.209 39.5832 256.645 39.5832C254.691 39.5832 253.323 40.9511 253.323 42.9053C253.323 44.0778 253.323 45.2502 253.323 46.2273C253.323 47.3998 252.933 48.1815 252.151 48.9631C251.565 49.354 250.978 49.9402 250.197 49.7448C249.22 49.354 249.806 48.5723 249.806 47.9861C249.415 47.5952 249.415 46.6182 249.415 45.8365Z" fill="#0054B4"/>
<path d="M237.495 45.8365C237.495 44.8594 237.495 44.0777 237.495 43.2961C237.69 39.5832 240.426 36.8474 243.943 36.4565C244.92 36.4565 245.898 36.2611 246.679 36.4565C247.265 36.4565 248.243 36.0657 248.438 36.8474C248.633 37.629 248.243 38.2153 247.656 38.8015C246.875 39.5832 245.898 39.5832 245.116 39.7786C241.989 39.974 241.012 40.9511 240.817 44.2732C240.817 45.4457 240.817 46.2273 240.817 47.3998C240.817 48.3769 240.426 49.1586 239.644 49.7448C239.058 50.1356 238.276 50.7219 237.69 50.331C237.104 49.9402 237.299 49.1586 237.299 48.5723C237.495 47.5952 237.495 46.6181 237.495 45.8365Z" fill="#0054B4"/>
<path d="M245.702 41.7328C246.093 41.7328 246.288 41.7328 246.875 41.7328C247.461 41.9282 248.633 41.3419 248.829 42.1236C249.024 42.9053 248.438 43.8823 247.656 44.4686C246.093 45.4457 244.334 45.2502 242.771 44.8594C241.989 44.664 241.989 43.8823 241.989 43.1007C242.185 42.319 242.575 41.9282 243.357 41.9282C244.139 41.5373 244.921 41.7328 245.702 41.7328Z" fill="#0054B4"/>
<path d="M167.34 54.4348C168.318 55.2164 169.295 54.4348 170.272 54.8256C169.099 55.2164 167.731 55.021 166.168 55.2164C166.559 54.6302 166.754 54.4348 167.34 54.4348Z" fill="#FE0000"/>
<path fill-rule="evenodd" clip-rule="evenodd" d="M115.555 64.7918C122.981 58.9293 127.085 51.5036 127.085 40.5603C127.085 28.0537 116.532 16.1333 102.267 14.3746C88.1971 12.4204 74.5179 21.4095 71.0005 35.0886C67.483 49.1586 74.7134 63.4239 88.3925 68.7001C90.1512 69.2864 91.5191 69.6772 93.4733 69.2864C100.313 68.3093 107.152 67.1368 113.797 65.5735C114.578 65.3781 115.164 65.1827 115.555 64.7918ZM98.5541 56.3889C106.371 56.3889 112.624 49.9402 112.624 42.1236C112.624 34.1115 106.371 27.8582 98.7495 27.6628C90.9329 27.6628 84.6796 34.1115 84.6796 42.1236C84.6796 50.1356 90.7375 56.3889 98.5541 56.3889Z" fill="#FE0000"/>
</svg>
