<svg xmlns="http://www.w3.org/2000/svg" width="100" height="25" fill="none"><g fill="#00ADEE" clip-path="url(#a)"><path d="M11.915 6.486c0-.585.179-1.066.56-1.447.38-.381.889-.585 1.473-.585.583 0 1.066.204 1.447.585.381.38.585.864.585 1.447 0 .585-.203 1.092-.585 1.473-.38.381-.864.56-1.447.56-.584 0-1.092-.179-1.473-.56-.383-.38-.56-.89-.56-1.473ZM16.011 10.819h-4.096v14.18h4.096v-14.18ZM95.335 10.79s-2.17.034-3.65.034c-1.923 0-3.755.312-5.047 1.73-1.294 1.418-1.923 3.214-1.923 5.325s.63 3.907 1.922 5.326c1.291 1.418 2.8 1.765 4.722 1.765 1.48 0 2.84-.57 3.975-1.452v1.45H99.4V10.79h-4.064Zm-1.028 9.735c-.698.699-1.583 1.024-2.654 1.024-1.072 0-2.002-.325-2.7-1.024-.7-.698-1.026-1.629-1.026-2.7 0-1.072.325-1.955 1.025-2.654.699-.699 1.63-1.072 2.701-1.072 1.071 0 1.956.373 2.654 1.072.698.698 1.071 1.582 1.071 2.654 0 1.071-.373 2.002-1.071 2.7ZM77.385 6.486c0-.585.178-1.066.559-1.447.381-.381.889-.585 1.473-.585.585 0 1.067.204 1.447.585.381.38.585.864.585 1.447 0 .585-.202 1.092-.585 1.473-.38.381-.863.56-1.447.56-.585 0-1.092-.179-1.473-.56-.381-.38-.56-.89-.56-1.473ZM81.48 10.819h-4.096v14.18h4.097v-14.18ZM18.69 10.819h4.096s2.206.004 3.812.004c1.544 0 2.867.153 3.907 1.192 1.04 1.04 1.575 2.332 1.575 3.876v9.107h-4.096v-8.035c0-1.544-1.102-2.71-2.583-2.71-1.482 0-2.615 1.166-2.615 2.71v8.035H18.69v-14.18ZM35.694 10.819V8.076l4.064 2.742h3.309v3.56h-3.309v5.295c0 .85.662 1.481 1.544 1.481h1.765V25H40.64c-1.386 0-2.553-.441-3.53-1.291-.945-.851-1.419-1.923-1.419-3.215v-6.113H33.74v-3.563h1.955ZM49.24 19.321c.45 1.412 1.713 2.373 3.305 2.373 1.112 0 1.983-.42 2.674-1.231l3.756.87C57.773 23.588 55.37 25 52.486 25c-2.103 0-3.846-.661-5.257-2.013-1.412-1.351-2.103-3.064-2.103-5.077 0-2.012.691-3.725 2.043-5.077 1.381-1.351 3.094-2.042 5.107-2.042 2.012 0 3.725.691 5.076 2.042 1.382 1.352 2.073 3.065 2.073 5.077 0 .541-.03 1.022-.12 1.412H49.24Zm6.219-2.914a3.33 3.33 0 0 0-3.155-2.283c-1.351 0-2.613.93-3.064 2.283h6.219ZM62.673 24.999h4.096V6.176l-4.096-3.993v22.816ZM69.958 2.154h-.031v22.845h4.095V6.117l-4.064-3.963ZM4.096 6.976a3.638 3.638 0 0 1 3.57-2.947c.785 0 1.51.251 2.104.674l2.332-3.282A7.62 7.62 0 0 0 7.666 0 7.665 7.665 0 0 0 .037 6.939c-.023.24-.037.482-.037.728V25h4.096V14.922h5.522v-4.097H4.096V6.976Z"/></g><defs><clipPath id="a"><path fill="#fff" d="M0 0h100v25H0z"/></clipPath></defs></svg>