<svg width="76" height="46" viewBox="0 0 76 46" fill="none" xmlns="http://www.w3.org/2000/svg">
<path fill-rule="evenodd" clip-rule="evenodd" d="M40.5289 19.0928C39.8276 19.0954 39.1327 18.9591 38.4844 18.6919C38.3041 18.6192 38.1292 18.5351 37.9605 18.4402C37.4245 19.2898 36.9271 20.3241 36.7468 20.9789C36.5665 21.6338 36.7468 45.7986 36.7468 45.7986H33.6733V42.9854C32.237 44.9949 29.9653 45.9996 27.3597 45.9996C22.1819 45.9996 18.4066 42.3495 18.4066 36.9236C18.4066 31.4978 22.1815 27.8807 27.3597 27.8807C29.8654 27.8807 32.0703 28.8185 33.54 30.7275V22.0264L33.5351 21.6338C33.4107 20.4853 32.9733 19.3984 32.2775 18.4894C31.9733 18.8469 31.6063 19.1477 31.1935 19.3764C30.4879 19.7736 29.6901 19.9784 28.8802 19.9702C28.7912 19.9702 28.7004 19.968 28.6105 19.9634C28.5012 19.9579 28.3938 19.953 28.2889 19.9482C28.2629 19.947 28.237 19.9458 28.2113 19.9446C27.3944 19.9545 26.5813 19.8314 25.8041 19.58C24.9638 19.2648 24.1413 18.6567 23.2158 17.6655C22.5316 16.933 21.8465 16.247 21.0596 15.5061C19.9879 14.497 18.8273 13.5865 17.5917 12.7859C16.6117 12.151 15.5866 11.5885 14.5246 11.1027C13.5528 10.6441 12.5402 10.2771 11.5 10.0065L11.5034 10.003C12.5331 9.15429 13.6415 8.40563 14.8137 7.76722C15.9454 7.139 17.1364 6.62356 18.3692 6.22836C19.7593 5.77747 21.2103 5.54159 22.6718 5.52891C24.5093 5.52109 26.3213 5.95968 27.9513 6.80687C29.4046 7.52079 30.7155 8.49305 31.8199 9.67606C32.5881 10.516 33.148 11.5243 33.4546 12.6197C33.744 13.7267 33.743 14.8894 33.4515 15.9957C33.4013 16.1971 33.3429 16.3959 33.2763 16.5919C33.972 17.4807 34.6 18.4224 35.1547 19.4091C35.512 18.5699 35.9041 17.7464 36.3298 16.9409C35.9888 16.5005 35.6893 16.0285 35.4354 15.531C34.7963 14.3174 34.4811 12.9599 34.5202 11.5893C34.5824 10.2273 34.964 8.89891 35.6342 7.71111C36.6046 6.03192 37.8731 4.54327 39.3777 3.31803C41.9619 1.11619 45.1598 0 48.8799 0C50.2406 0.0063287 51.5976 0.143591 52.932 0.409883C54.0736 0.635102 55.1987 0.93625 56.3 1.31131C57.3829 1.66999 58.4377 2.10829 59.4557 2.62263C58.3141 3.21873 57.2306 3.91998 56.2195 4.71724C55.1104 5.57083 54.0652 6.50415 53.0922 7.50975C51.8646 8.77756 50.7542 10.1535 49.7744 11.6207C49.0547 12.6992 48.4401 13.6851 47.8392 14.7231C47.0257 16.1301 46.2295 17.0608 45.3333 17.6562C44.3759 18.2918 43.2498 18.5488 42.1595 18.8593C41.6294 19.0122 41.0806 19.0908 40.5289 19.0928ZM32.0633 15.1692C32.1832 14.4787 32.15 13.7635 31.9576 13.0758C31.7079 12.186 31.2543 11.3666 30.6326 10.6822C29.7261 9.70305 28.6468 8.89896 27.4487 8.31019C25.9839 7.5551 24.3571 7.16701 22.7086 7.17935C21.7103 7.1844 20.7159 7.30501 19.7455 7.53874C18.916 7.73658 18.1039 8.00082 17.317 8.3289C16.5366 8.64575 15.7855 9.0302 15.0722 9.47786L15.0774 9.47969C15.8266 9.79978 16.5547 10.1672 17.2571 10.5797C18.9873 11.581 20.5971 12.7765 22.0553 14.143C22.6415 14.695 23.1512 15.2056 23.66 15.7501C25.4364 17.6515 26.9062 18.1745 27.8277 18.2774C27.9902 18.2957 28.1536 18.3049 28.3171 18.3051C29.055 18.309 29.7794 18.1069 30.4084 17.7216C30.6601 17.5718 30.8918 17.3925 31.0989 17.1879C31.0937 17.1823 31.0885 17.1767 31.0833 17.1711L31.0826 17.1703C30.3186 16.3472 29.5067 15.4726 28.6947 14.824C27.8282 14.1346 27.2657 13.9292 26.6094 13.6895C26.1597 13.5253 25.6659 13.3449 25 12.9817L26.3227 11.1457C26.3227 11.1457 28.8836 12.0396 31.3316 14.417C31.5815 14.6621 31.8255 14.9129 32.0633 15.1692ZM40.9596 16.9695C40.3282 16.9743 39.7082 16.8494 39.1359 16.6085C39.2833 16.3749 39.441 16.1222 39.6102 15.8468C41.6857 12.4685 44.2114 9.94528 44.2114 9.94528L42.5 8.48804C42.5 8.48804 39.7193 11.3731 37.812 14.417C37.6548 14.6591 37.5009 14.9033 37.3502 15.1494C36.6756 14.1432 36.335 12.9417 36.3909 11.7177C36.4422 10.6113 36.7507 9.53213 37.292 8.56547C38.0861 7.17773 39.1294 5.94793 40.3697 4.93761C41.6395 3.85884 43.1195 3.05476 44.7162 2.57619C46.1277 2.15854 47.5932 1.95151 49.0653 1.96183C50.519 1.96845 51.9676 2.13677 53.384 2.46366C53.9789 2.59626 54.5653 2.76436 55.1401 2.96706C54.3483 3.54216 53.5951 4.16857 52.8855 4.84223C51.135 6.47787 49.5775 8.30799 48.2434 10.297C47.7071 11.1002 47.2496 11.8339 46.8035 12.6057C45.942 14.0959 44.5165 16.0126 42.6183 16.6793C42.0859 16.8693 41.525 16.9675 40.9596 16.9695ZM21.6468 36.9236C21.6468 40.7081 24.2197 43.1864 27.627 43.1864C31.0002 43.1864 33.572 40.7085 33.572 36.9236C33.572 33.1387 31.0009 30.694 27.627 30.694C24.219 30.694 21.6468 33.1391 21.6468 36.9236Z" fill="#03A84E"/>
<path fill-rule="evenodd" clip-rule="evenodd" d="M3.54097 39.3348C4.44292 41.7796 6.64785 43.1864 9.62105 43.1864C11.6923 43.1864 13.4294 42.4831 14.7324 41.0432L16.4694 43.1197C14.8991 44.9952 12.4606 46 9.5208 46C3.80832 46 0 42.2137 0 36.9236C0 31.6663 3.74148 27.8807 8.88584 27.8807C13.7298 27.8807 17.5047 31.2985 17.6049 36.5886L3.54097 39.3348ZM14.4316 34.9472C13.8638 32.402 11.7591 30.5935 8.8862 30.5935C5.51197 30.5935 3.10688 33.0386 3.10688 36.7561V37.0911L14.4316 34.9472Z" fill="#03A84E"/>
<path fill-rule="evenodd" clip-rule="evenodd" d="M42.6932 39.3348C43.5952 41.7796 45.8001 43.1864 48.7733 43.1864C50.8446 43.1864 52.5816 42.4831 53.8842 41.0432L55.6213 43.1197C54.051 44.9952 51.6125 46 48.6727 46C42.9602 46 39.1519 42.2137 39.1519 36.9236C39.1519 31.6653 42.8934 27.8807 48.0381 27.8807C52.882 27.8807 56.6569 31.2985 56.7572 36.5886L42.6932 39.3348ZM53.5838 34.9472C53.0161 32.402 50.9114 30.5935 48.0384 30.5935C44.6642 30.5935 42.2591 33.0386 42.2591 36.7557V37.0908L53.5838 34.9472Z" fill="#03A84E"/>
<path d="M62.2699 30.7275C63.5724 28.9191 65.8441 27.8808 68.65 27.8807C72.9596 27.8807 75.9996 30.3593 76 35.5838V45.799H72.7929V35.9524C72.7929 32.469 71.0558 30.761 68.0158 30.761C64.6085 30.761 62.4035 32.8041 62.4035 36.6556V45.799H59.1964V28.0472H62.2699V30.7275Z" fill="#03A84E"/>
</svg>
