<svg width="362" height="100" fill="none" xmlns="http://www.w3.org/2000/svg"><g opacity=".9" fill="#3657FF"><path opacity=".9" d="M74.14 49.602c-.092 15.78-4.4 27.962-12.921 36.563-8.614 8.693-20.455 13.04-35.535 13.04h-2.898a6.234 6.234 0 0 1-6.23-6.23 6.234 6.234 0 0 1 6.23-6.23h4.583c10.392 0 18.4-3.49 24.024-10.485 5.52-6.901 8.377-15.779 8.562-26.645-.185-10.866-3.043-19.796-8.562-26.776-5.624-6.902-13.618-10.34-24.024-10.34h-4.583a6.234 6.234 0 0 1-6.23-6.23A6.226 6.226 0 0 1 22.786 0h2.897C40.764 0 52.605 4.294 61.22 12.895c8.509 8.692 12.815 20.928 12.92 36.707ZM6.335 99.692c3.5 0 6.336-2.866 6.336-6.401 0-3.536-2.837-6.401-6.336-6.401S0 89.754 0 93.29c0 3.536 2.836 6.402 6.335 6.402Z"/></g><g opacity=".9" fill="#3DDC97"><path opacity=".9" d="M45.81 50.398c.092 15.779 4.399 27.962 12.92 36.563C67.344 95.654 79.185 100 94.266 100h2.897a6.234 6.234 0 0 0 6.23-6.23 6.234 6.234 0 0 0-6.23-6.23H92.58c-10.392 0-18.4-3.49-24.01-10.484-5.52-6.902-8.378-15.779-8.562-26.645.184-10.866 3.042-19.796 8.561-26.777 5.624-6.901 13.619-10.339 24.011-10.339h4.584a6.234 6.234 0 0 0 6.229-6.23 6.234 6.234 0 0 0-6.23-6.23h-2.897C79.185.835 67.344 5.13 58.73 13.73c-8.521 8.653-12.828 20.889-12.92 36.668ZM113.64 13.593c3.499 0 6.335-2.866 6.335-6.402 0-3.535-2.836-6.4-6.335-6.4s-6.336 2.865-6.336 6.4c0 3.536 2.837 6.402 6.336 6.402Z"/></g><path d="M122.777 35.96c-.948.664-2.196.57-3.081-.173-.49-.411-1.011-.79-1.58-1.154-.98-.648-2.165-1.216-3.539-1.706-1.391-.49-2.892-.727-4.519-.727-2.765 0-4.882.6-6.352 1.817-1.469 1.2-2.196 2.544-2.196 4.03 0 1.784.727 3.143 2.196 4.091 1.47.932 3.318 1.77 5.562 2.512 2.244.743 4.645 1.454 7.205 2.165a32.033 32.033 0 0 1 7.204 2.923c2.244 1.248 4.093 2.876 5.562 4.898 1.438 1.975 2.165 4.55 2.196 7.71.016 1.707-.221 3.429-.774 5.056-.98 2.86-2.702 5.34-5.151 7.426-1.912 1.627-4.234 2.923-6.968 3.855-2.733.932-5.767 1.406-9.1 1.406-3.903 0-7.252-.521-10.017-1.58-2.765-1.058-5.088-2.243-6.968-3.539-1.77-1.185-3.334-2.543-4.677-4.092-.869-.995-.948-2.48-.237-3.586.395-.6.98-1.343 1.833-2.197 1.248-1.248 2.228-1.99 3.018-2.417 1.074-.6 2.37-.38 3.239.49a21.357 21.357 0 0 0 3.033 2.512c1.296.837 2.828 1.627 4.582 2.354 1.754.727 3.808 1.09 6.162 1.09 3.413 0 5.909-.663 7.442-1.99 1.548-1.328 2.322-3.002 2.322-5.025 0-1.706-.726-3.05-2.196-4.029-1.469-.98-3.318-1.832-5.561-2.575a155.567 155.567 0 0 0-7.205-2.165 32.03 32.03 0 0 1-7.205-2.923c-2.243-1.248-4.092-2.86-5.561-4.85-1.47-1.991-2.197-4.645-2.197-7.995 0-2.022.506-4.029 1.533-6.02 1.011-1.99 2.45-3.728 4.282-5.261 1.833-1.517 4.013-2.75 6.525-3.681 2.528-.933 5.325-1.407 8.422-1.407 3.175 0 5.94.427 8.31 1.28 2.354.853 4.361 1.77 5.988 2.75a19.533 19.533 0 0 1 3.492 2.67c.727.71.853 1.848.269 2.686a30.346 30.346 0 0 1-2.418 2.954c-.853.916-1.959 1.77-2.875 2.418ZM164.031 80.042c-2.939 0-5.562-.41-7.884-1.217-2.323-.805-4.298-1.706-5.925-2.686-1.959-1.137-3.666-2.48-5.135-4.028v27.444a.442.442 0 0 1-.443.442h-11.328a.441.441 0 0 1-.442-.442V21.74c0-.253.205-.443.442-.443h9.069A2.7 2.7 0 0 1 145.087 24v3.776c0 .38.442.585.727.332 1.295-1.138 2.765-2.165 4.392-3.081 1.627-.932 3.602-1.817 5.925-2.639 2.322-.821 4.945-1.232 7.884-1.232 3.824 0 7.473.758 10.934 2.291 3.46 1.533 6.509 3.602 9.163 6.24 2.639 2.624 4.74 5.752 6.289 9.354 1.548 3.603 2.322 7.458 2.322 11.534 0 4.156-.774 8.027-2.322 11.597-1.549 3.571-3.65 6.668-6.289 9.306a30.496 30.496 0 0 1-9.163 6.241c-3.445 1.565-7.095 2.323-10.918 2.323Zm-1.217-47.873c-2.275 0-4.471.474-6.588 1.437a19.19 19.19 0 0 0-5.672 3.919c-1.675 1.659-2.987 3.586-3.966 5.814-.98 2.228-1.47 4.645-1.47 7.252s.49 5.04 1.47 7.268c.979 2.228 2.307 4.171 3.966 5.814a19.385 19.385 0 0 0 5.672 3.919 15.722 15.722 0 0 0 6.588 1.438c2.275 0 4.472-.475 6.589-1.438a19.19 19.19 0 0 0 5.672-3.919c1.675-1.659 2.986-3.586 3.966-5.814.979-2.228 1.469-4.645 1.469-7.268 0-2.607-.49-5.024-1.469-7.252-.98-2.228-2.307-4.171-3.966-5.814a19.398 19.398 0 0 0-5.672-3.919c-2.117-.948-4.314-1.438-6.589-1.438ZM207.306 79.916h-11.534a.35.35 0 0 1-.347-.348V.348a.35.35 0 0 1 .347-.348h11.534a.35.35 0 0 1 .348.348v79.22a.34.34 0 0 1-.348.348ZM224.717 53.42c-1.121 0-1.975 1.074-1.659 2.164a18.763 18.763 0 0 0 1.533 3.729 18.063 18.063 0 0 0 3.903 5.008c1.579 1.422 3.444 2.56 5.561 3.445 2.117.869 4.392 1.311 6.841 1.311 2.844 0 5.388-.474 7.632-1.406 2.243-.932 4.092-1.975 5.561-3.113a27.436 27.436 0 0 0 3.381-3.255c.648-.726 1.786-.742 2.465-.063l2.149 2.149 3.35 3.35a1.72 1.72 0 0 1 .047 2.37c-1.58 1.77-3.429 3.38-5.53 4.834-2.196 1.549-4.882 2.955-8.058 4.219-3.176 1.264-6.841 1.896-10.997 1.896-4.155 0-8.058-.79-11.723-2.354a31.16 31.16 0 0 1-9.701-6.478 30.962 30.962 0 0 1-6.652-9.543c-1.627-3.618-2.449-7.49-2.449-11.645 0-3.997.79-7.758 2.386-11.25 1.596-3.491 3.729-6.54 6.415-9.116 2.686-2.591 5.846-4.645 9.464-6.178 3.618-1.532 7.505-2.29 11.66-2.29s7.979.679 11.486 2.022c3.508 1.343 6.526 3.239 9.101 5.656a25.742 25.742 0 0 1 5.988 8.611c1.422 3.318 2.133 6.936 2.133 10.855 0 .853-.047 1.627-.126 2.306a31.018 31.018 0 0 1-.253 1.849c-.079.616-.158.916-.237.916h-43.671Zm15.547-21.852c-4.645 0-8.421 1.138-11.36 3.397-2.212 1.706-3.871 3.729-4.961 6.067-.521 1.106.348 2.386 1.58 2.386h29.151c1.232 0 2.038-1.264 1.58-2.402-.948-2.322-2.512-4.344-4.693-6.05-2.891-2.276-6.651-3.398-11.297-3.398ZM272.418 53.42h-.98c-.079 0-.158-.3-.237-.917-.079-.537-.158-1.154-.252-1.849a20.495 20.495 0 0 1-.127-2.306c0-3.935.711-7.553 2.133-10.855 1.422-3.318 3.413-6.178 5.988-8.61 2.56-2.434 5.594-4.314 9.101-5.657 3.508-1.343 7.331-2.023 11.487-2.023 4.155 0 8.042.759 11.66 2.291 3.618 1.533 6.778 3.587 9.464 6.178 2.686 2.591 4.819 5.625 6.415 9.117 1.595 3.491 2.385 7.236 2.385 11.25 0 4.154-.805 8.041-2.449 11.644-1.627 3.602-3.839 6.794-6.651 9.543a31.559 31.559 0 0 1-9.701 6.478c-3.666 1.564-7.568 2.354-11.724 2.354-4.155 0-7.821-.632-10.997-1.896-3.175-1.264-5.861-2.67-8.057-4.219-2.118-1.453-3.95-3.065-5.53-4.834a1.717 1.717 0 0 1 .047-2.37l3.35-3.35 2.148-2.149c.696-.695 1.833-.68 2.465.063a27.507 27.507 0 0 0 3.381 3.255c1.47 1.138 3.318 2.18 5.562 3.113 2.243.932 4.787 1.406 7.631 1.406 2.449 0 4.724-.442 6.842-1.311 2.117-.87 3.965-2.023 5.561-3.445a17.566 17.566 0 0 0 3.903-5.008 20.416 20.416 0 0 0 1.532-3.73c.316-1.073-.537-2.164-1.659-2.164h-42.691Zm15.8-18.455c-2.18 1.706-3.745 3.729-4.693 6.051-.474 1.138.348 2.402 1.58 2.402h29.151c1.232 0 2.101-1.28 1.58-2.386-1.106-2.338-2.749-4.36-4.961-6.067-2.939-2.26-6.715-3.397-11.36-3.397s-8.406 1.122-11.297 3.397Z" fill="#0F0C3D"/><path d="M339.582.664h5.578a2.7 2.7 0 0 1 2.701 2.701V16.494c0 1.501-.448 4.788 4.764 4.788h4.732a2.7 2.7 0 0 1 2.702 2.702v5.577a2.7 2.7 0 0 1-2.702 2.702h-6.794a2.7 2.7 0 0 0-2.702 2.702v26.812c0 2.133.696 3.871 2.07 5.214 1.391 1.343 3.129 2.023 5.246 2.023 1.548 0 2.938-.19 4.155-.585a19.518 19.518 0 0 0 1.959-.584v8.863c0 1.296-.9 2.418-2.164 2.655a8.94 8.94 0 0 0-.269.047c-1.785.41-3.823.616-6.114.616-5.53 0-9.765-1.485-12.704-4.471-2.938-2.986-4.392-7.458-4.392-13.43V34.997a2.7 2.7 0 0 0-2.702-2.702h-5.577a2.7 2.7 0 0 1-2.702-2.702v-5.577a2.7 2.7 0 0 1 2.702-2.702h3.397c1.864 0 3.365-.648 4.456-1.928 1.106-1.295 1.643-3.223 1.643-5.798V3.38c.015-1.5 1.232-2.717 2.717-2.717Z" fill="#0F0C3D"/></svg>