<svg width="146" height="25" fill="none" xmlns="http://www.w3.org/2000/svg"><path d="M8.687 18.16c-.033-.316-.066-.614-.105-.974.383-.023.66-.057.935-.057 1.682-.005 3.362-.036 5.044.005 3.614.09 6.616-2.066 7.793-4.934 1.693-4.119-.596-8.457-4.59-9.922a9.796 9.796 0 00-3.415-.61c-3.934.003-7.866 0-11.8 0-.223 0-.443-.01-.668.008-.612.047-.692.129-.722.71-.008.178 0 .355 0 .534V24.134H.172C-.026 23.407-.068 1.834.125.8.431.764.768.692 1.101.692 5.668.685 10.235.726 14.804.677c4.165-.044 7.797 2.685 8.848 6.241 1.036 3.51.16 6.673-2.75 9.21-1.394 1.22-3.144 1.876-4.997 1.994-2.355.155-4.74.039-7.218.039z" fill="#444854"/><path d="M2.34 24.13V2.763c.325-.026.599-.065.874-.065 3.934-.005 7.864-.008 11.798 0 2.757.005 5.45 1.979 6.381 4.302a6.31 6.31 0 01.276 3.843c-.55 2.331-1.996 4.093-4.518 4.885-.588.186-1.22.32-1.839.333-1.999.04-3.997.02-5.993.015-.308 0-.668.052-.74-.37-.057-.349.163-.628.57-.664.343-.031.697-.013 1.044-.013 1.584-.002 3.173-.034 4.757.005 2.45.06 4.595-1.548 5.29-3.468 1.22-3.379-.132-5.806-2.991-7.325-.547-.29-1.251-.44-1.886-.448-3.805-.044-7.61-.026-11.418-.028-.124 0-.248.028-.484.059-.025.366-.072.738-.072 1.106-.005 5.966-.003 11.93-.003 17.895 0 .209.009.415-.002.625-.032.689-.104.738-1.044.678z" fill="#444854"/><path d="M5.524 24.13H4.471V4.886c.353-.034.687-.095 1.023-.095 3.076-.008 6.156.067 9.23-.026 2.573-.077 4.71 1.927 4.983 4.126.24 1.925-.84 4.31-3.343 4.922a9.775 9.775 0 01-2.045.29c-1.521.045-3.047.014-4.568.014h-.91c-.429-.898-.327-1.07.588-1.076 1.713-.007 3.426-.044 5.139.008 1.888.057 3.384-1.057 3.845-2.509.455-1.433.042-2.894-1.408-4.016-.662-.514-1.438-.738-2.279-.743-2.76-.013-5.518-.008-8.278 0-.275 0-.55.062-.92.106-.004 6.107-.004 12.15-.004 18.245z" fill="#444854"/><path d="M8.651 11.861c-.041-.822.014-.915.737-.92 1.682-.016 3.362-.003 5.044-.008.317 0 .64.002.946-.057.463-.09.805-.34.863-.818.036-.293.069-.593.052-.887-.055-.929-.47-1.294-1.518-1.307-1.617-.016-3.236-.005-4.853-.005h-2.07c-.028.453-.072.828-.072 1.201-.006 4.602-.003 9.203-.003 13.802 0 .209.011.415-.003.625-.044.653-.154.72-1.05.611V6.844c.303-.024.55-.057.794-.057 2.379-.003 4.757.01 7.137-.005 1.152-.008 1.974.44 2.541 1.374.695 1.148.188 3.038-1.022 3.663a1.416 1.416 0 01-.63.144c-2.218.008-4.437.003-6.659-.002-.058-.002-.115-.045-.234-.1zM106.654 5.89l-.626.466c-.185-.142-.364-.258-.512-.397-.684-.64-1.312-1.336-2.046-1.92-1.372-1.095-2.988-1.733-4.743-2.15-1.91-.453-3.787-.379-5.628.118-3.019.818-5.447 2.437-7.02 5.033-1.158 1.906-1.872 3.969-1.641 6.18.457 4.368 2.714 7.604 7.065 9.477 2.28.98 4.661 1.166 7.057.718 2.58-.482 4.777-1.708 6.511-3.596.165-.178.295-.384.46-.56.305-.32.623-.354.904-.099.292.268.154.467-.066.749-1.336 1.707-3.107 2.878-5.13 3.755-2.257.98-4.658 1.197-7.054.844-2.486-.368-4.74-1.374-6.61-3.005a12.102 12.102 0 01-3.635-5.462c-.662-2.014-.756-4.065-.243-6.048.927-3.588 3.126-6.347 6.712-8.063C93.088.651 95.919.32 98.811.87c3.214.612 5.826 2.218 7.759 4.736.029.049.032.116.084.283z" fill="#444854"/><path d="M104.966 18.406c-2.718 3.71-7.528 5.182-12.045 3.844-4.52-1.341-7.47-5.069-7.476-9.615-.003-4.544 2.881-8.168 7.134-9.506 4.722-1.488 9.585-.127 12.448 3.802-.196.162-.394.332-.638.534-.179-.126-.385-.219-.514-.368-.651-.764-1.381-1.441-2.258-1.976-1.138-.694-2.307-1.287-3.704-1.39-.654-.048-1.312-.293-1.949-.24-3.734.32-6.684 1.82-8.421 5.077-.717 1.343-1.166 2.752-1.073 4.247.199 3.183 1.644 5.711 4.537 7.505 2.285 1.416 4.815 1.587 7.347 1.176 2.056-.332 3.821-1.415 5.179-2.969.061-.07.124-.134.185-.203.559-.618.638-.613 1.248.082z" fill="#444854"/><path d="M103.289 8.11c-.308.144-.558.257-.827.383-.954-1.191-2.131-2.102-3.636-2.574-3.024-.947-5.757-.451-8.04 1.65-3.773 3.474-2.67 9.497 2.269 11.596a7.949 7.949 0 008.823-1.759c.063-.064.094-.155.154-.219.526-.555.654-.55 1.207.041-1.477 2.598-5.405 4.013-8.242 3.536-4.902-.826-7.462-4.503-7.503-8.068-.047-4.047 3.054-7.389 6.981-8.096 3.61-.648 7.161.782 8.814 3.51z" fill="#444854"/><path d="M100.862 15.651c.786.53.805.607.305 1.122-3.613 3.727-9.65 2.171-11.25-2.079-1.079-2.86.266-6.447 3.588-7.79 2.623-1.06 5.672-.524 7.618 1.58.569.611.566.632-.316 1.08-1.469-1.76-3.454-2.406-5.8-2.053-1.27.19-2.262.854-3.12 1.754-1.723 1.809-1.77 5.187.32 7.072 1.26 1.135 2.76 1.693 4.523 1.53 1.71-.16 3.013-1.01 4.132-2.216zM112.629.406h.926c.24.69.275 23.241.039 24.154h-.968c.003-8.052.003-16.073.003-24.154zM109.192 24.564c-.273.013-.574.026-.946.041V.402h.937c.237.696.254 23.277.009 24.162zM111.397.454V24.49c-.885.144-.951.105-1.004-.597-.019-.237-.008-.474-.008-.712V1.738c0-.237-.011-.474.011-.712.058-.616.146-.667 1.001-.572zM115.697 24.559c-.799.015-.857-.015-.918-.583-.027-.263-.016-.535-.016-.8V1.748c0-.265-.014-.537.019-.8.069-.544.171-.59.896-.497.185.67.212 23.151.019 24.108zM117.36 24.461c.769-1.787 1.515-3.5 2.238-5.222.582-1.39 1.122-2.797 1.698-4.186.58-1.398 1.185-2.783 1.77-4.178.618-1.475 1.221-2.956 1.837-4.43.786-1.884 1.57-3.767 2.364-5.645.278-.66.877-.414 1.499-.453 3.41 8.027 6.729 16.074 10.157 24.213h-1.24L128.25 2.046c-.242.322-.457.521-.56.76-1.18 2.779-2.351 5.556-3.506 8.344-1.124 2.711-2.219 5.431-3.341 8.145-.642 1.556-1.309 3.1-1.968 4.65-.308.717-.438.766-1.515.517zM134.82.525c.863-.407 1.224-.114 1.486.502 1.055 2.48 2.111 4.963 3.148 7.45 1.116 2.684 2.196 5.375 3.315 8.058.99 2.367 2.013 4.723 3.011 7.088.113.265.148.56.22.833-.965.258-1.034.217-1.331-.487-1.015-2.398-2.054-4.79-3.06-7.19-.72-1.718-1.386-3.453-2.106-5.171-.857-2.048-1.759-4.083-2.618-6.131-.599-1.418-1.158-2.853-1.74-4.276-.089-.215-.199-.419-.325-.676zM141.162 24.577h-1.084L130.001.508c1.078-.34 1.155-.16 1.513.615.588 1.27 1.091 2.574 1.635 3.863.643 1.525 1.298 3.041 1.933 4.567.695 1.67 1.364 3.345 2.062 5.014 1.006 2.401 2.031 4.793 3.046 7.191.297.707.596 1.416.871 2.13.07.183.059.397.101.69zM143.589 24.553h-1.097c-3.367-8.034-6.713-16.02-10.056-24.005.932-.322 1.152-.268 1.466.446.437 1 .835 2.017 1.248 3.025.709 1.726 1.408 3.453 2.131 5.174.585 1.39 1.21 2.763 1.789 4.152.729 1.742 1.417 3.497 2.15 5.238.726 1.724 1.486 3.43 2.214 5.154.099.235.099.503.155.816z" fill="#444854"/><path d="M128.165 4.446c.692.614.83 1.14.463 1.895-.665 1.364-1.191 2.789-1.779 4.186-.744 1.767-1.493 3.533-2.232 5.303-.847 2.024-1.685 4.052-2.522 6.079-.295.71-.574 1.426-.869 2.135-.256.617-.459.674-1.433.405 2.782-6.649 5.564-13.29 8.372-20.003zM122.225 24.411l7.123-17.033c.654.474.869.98.615 1.587-.819 1.97-1.66 3.93-2.488 5.896-.602 1.418-1.205 2.835-1.798 4.255-.692 1.662-1.359 3.332-2.056 4.994-.236.56-.484.609-1.396.301zM124.635 24.419l5.906-14.15c.665.555.835 1.078.56 1.72-1.262 2.97-2.535 5.93-3.799 8.9a167.31 167.31 0 00-1.248 3.035c-.303.756-.438.818-1.419.495zM135.769 21.58h-7.963c.289-.971.322-1.005 1.252-1.007 1.806-.006 3.613-.006 5.419 0 .874.005.874.017 1.292 1.008zM134.686 19.549c-.229.028-.474.08-.718.082a307.18 307.18 0 01-4.357 0c-.902-.007-.941-.074-.646-1.02.278-.019.588-.058.893-.058 1.356-.005 2.715-.018 4.072.008.789.016.863.14.756.988zM133.923 17.453h-4.226c-.105-.936-.036-1.023.866-1.036a79.058 79.058 0 012.464 0c.707.012.901.24.896 1.036zM38.97 23.414V6.552c0-.448-.387-.815-.87-.815h-4.747c-.479 0-.87-.364-.87-.816V1.595c0-.449.387-.816.87-.816h16.953c.479 0 .871.364.871.816V4.92c0 .449-.388.816-.871.816H45.56c-.479 0-.871.363-.871.815v16.863c0 .448-.389.815-.872.815h-3.975c-.48-.001-.871-.367-.871-.816zM71.617 24.23H67.35a.88.88 0 01-.789-.469l-3.517-7.013c-.47-.864-1.22-1.297-2.243-1.297h-.852c-.48 0-.872.364-.872.816v7.15c0 .447-.388.814-.87.814h-3.825c-.479 0-.871-.363-.871-.815V1.598c0-.448.388-.815.871-.815h9.46c2.624 0 4.598.617 5.918 1.847 1.323 1.23 1.982 3.01 1.982 5.338 0 1.775-.451 3.276-1.353 4.506a6.209 6.209 0 01-2.186 1.865c-.523.27-.607.96-.145 1.317.582.451 1.083 1.094 1.501 1.922l2.84 5.48c.282.544-.136 1.172-.782 1.172zm-5.973-14.003c.543-.42.817-1.108.817-2.06 0-.975-.273-1.68-.817-2.112-.543-.433-1.44-.648-2.69-.648H59.89c-.479 0-.87.363-.87.815v3.825c0 .448.387.815.87.815h3.066c1.247-.002 2.146-.21 2.69-.635zM75.256 23.415V1.598c0-.448.388-.815.872-.815h3.917c.48 0 .871.363.871.815v21.817c0 .448-.388.815-.87.815h-3.918c-.482 0-.872-.366-.872-.815zM26.454.608h-3.316a.87.87 0 00-.808.511l-.228.53a.767.767 0 00.167.856c1.387 1.356 2.365 3.08 2.758 4.996.008.038.019.08.035.118l2.337 5.894c.212.532-.209 1.098-.816 1.098H24.1a.894.894 0 00-.723.348c-1.916 2.634-5.143 4.366-8.798 4.366h-.11l-1.558 3.608c-.231.537.19 1.12.808 1.12h3.793c.364 0 .69-.212.817-.53l1.512-3.797a.868.868 0 01.817-.53h8.385c.363 0 .69.212.816.53l1.513 3.797c.127.32.451.53.816.53h3.699c.618 0 1.039-.587.808-1.12L27.252 1.115a.853.853 0 00-.798-.507z" fill="#444854"/><path d="M8.687 18.16c-.033-.316-.066-.614-.105-.974.383-.023.66-.057.935-.057 1.682-.005 3.362-.036 5.044.005 3.614.09 6.616-2.066 7.793-4.934 1.693-4.119-.596-8.457-4.59-9.922a9.796 9.796 0 00-3.415-.61c-3.934.003-7.866 0-11.8 0-.223 0-.443-.01-.668.008-.612.047-.692.129-.722.71-.008.178 0 .355 0 .534V24.134H.172C-.026 23.407-.068 1.834.125.8.431.764.768.692 1.101.692 5.668.685 10.235.726 14.804.677c4.165-.044 7.797 2.685 8.848 6.241 1.036 3.51.16 6.673-2.75 9.21-1.394 1.22-3.144 1.876-4.997 1.994-2.355.155-4.74.039-7.218.039z" fill="#444854"/><path d="M2.34 24.13V2.763c.325-.026.599-.065.874-.065 3.934-.005 7.864-.008 11.798 0 2.757.005 5.45 1.979 6.381 4.302a6.31 6.31 0 01.276 3.843c-.55 2.331-1.996 4.093-4.518 4.885-.588.186-1.22.32-1.839.333-1.999.04-3.997.02-5.993.015-.308 0-.668.052-.74-.37-.057-.349.163-.628.57-.664.343-.031.697-.013 1.044-.013 1.584-.002 3.173-.034 4.757.005 2.45.06 4.595-1.548 5.29-3.468 1.22-3.379-.132-5.806-2.991-7.325-.547-.29-1.251-.44-1.886-.448-3.805-.044-7.61-.026-11.418-.028-.124 0-.248.028-.484.059-.025.366-.072.738-.072 1.106-.005 5.966-.003 11.93-.003 17.895 0 .209.009.415-.002.625-.032.689-.104.738-1.044.678z" fill="#444854"/><path d="M5.524 24.13H4.471V4.886c.353-.034.687-.095 1.023-.095 3.076-.008 6.156.067 9.23-.026 2.573-.077 4.71 1.927 4.983 4.126.24 1.925-.84 4.31-3.343 4.922a9.775 9.775 0 01-2.045.29c-1.521.045-3.047.014-4.568.014h-.91c-.429-.898-.327-1.07.588-1.076 1.713-.007 3.426-.044 5.139.008 1.888.057 3.384-1.057 3.845-2.509.455-1.433.042-2.894-1.408-4.016-.662-.514-1.438-.738-2.279-.743-2.76-.013-5.518-.008-8.278 0-.275 0-.55.062-.92.106-.004 6.107-.004 12.15-.004 18.245z" fill="#444854"/><path d="M8.651 11.861c-.041-.822.014-.915.737-.92 1.682-.016 3.362-.003 5.044-.008.317 0 .64.002.946-.057.463-.09.805-.34.863-.818.036-.293.069-.593.052-.887-.055-.929-.47-1.294-1.518-1.307-1.617-.016-3.236-.005-4.853-.005h-2.07c-.028.453-.072.828-.072 1.201-.006 4.602-.003 9.203-.003 13.802 0 .209.011.415-.003.625-.044.653-.154.72-1.05.611V6.844c.303-.024.55-.057.794-.057 2.379-.003 4.757.01 7.137-.005 1.152-.008 1.974.44 2.541 1.374.695 1.148.188 3.038-1.022 3.663a1.416 1.416 0 01-.63.144c-2.218.008-4.437.003-6.659-.002-.058-.002-.115-.045-.234-.1z" fill="#444854"/></svg>
