<svg xmlns="http://www.w3.org/2000/svg" xml:space="preserve" width="448.7" height="529.3"><g stroke-width="1.7"><g fill="#1a1a1a"><path d="M22 433.2H0v-10.5h56.3v10.5h-22V489H22zM102 467.6H62.1c1.4 7.3 7.6 12 16.4 12a18 18 0 0 0 13.7-5.4l6.4 7.3c-4.6 5.4-11.7 8.2-20.4 8.2-17 0-28-10.9-28-26S61.6 438 76.6 438c14.8 0 25.6 10.3 25.6 26.1l-.2 3.6zm-40-7.9h28.8c-.9-7.3-6.5-12.3-14.3-12.3a14 14 0 0 0-14.4 12.3zM104.6 463.8c0-15.2 11.3-25.8 27.4-25.8 9.8 0 17.7 4 21.6 11.7l-9.2 5.3c-3-4.8-7.5-7-12.5-7-8.8 0-15.4 6-15.4 15.8 0 9.9 6.6 15.8 15.4 15.8 5 0 9.5-2.2 12.5-7l9.2 5.3c-4 7.5-11.8 11.8-21.6 11.8-16 0-27.4-10.7-27.4-25.9zM208.4 460.1v29h-11.8v-27.4c0-9-4.4-13.4-12-13.4-8.5 0-14.2 5.1-14.2 15.2v25.6h-11.8v-70.3h11.8v25.6c3.9-4.2 9.9-6.5 16.9-6.5 12.1 0 21.1 7 21.1 22.2zM272.5 463.8c0 15.8-11 26-25.7 26-6.5 0-12.1-2.2-16.2-6.8v24.5h-11.8v-69H230v6.6c4-4.8 9.9-7.2 16.8-7.2a24.7 24.7 0 0 1 25.7 26zm-12 0c0-9.7-6.5-15.8-15-15.8-8.6 0-15 6.2-15 15.8s6.4 15.8 15 15.8 15-6.2 15-15.8zM274.9 463.8c0-15.2 11.3-25.8 26.8-25.8 15.8 0 27 10.7 27 25.8 0 15.2-11.2 26-27 26-15.5 0-26.8-10.8-26.8-26zm42 0c0-9.7-6.5-15.8-15.1-15.8-8.5 0-15 6.2-15 15.8s6.5 15.8 15 15.8c8.6 0 15-6.2 15-15.8zM333.8 423c0-4 3.2-7 7.5-7s7.6 3 7.6 6.8c0 4.1-3.1 7.4-7.6 7.4-4.3 0-7.5-3.1-7.5-7.1zm1.6 15.5h11.8V489h-11.8zM408 460.1v29h-12v-27.4c0-9-4.4-13.4-12-13.4-8.4 0-14.1 5.1-14.1 15.2v25.6H358v-50.6h11.2v6.6a22 22 0 0 1 17.4-7.1c12.2-.1 21.2 6.8 21.2 22.1zM448.7 486.4a18.7 18.7 0 0 1-11.4 3.4c-11 0-17.4-6-17.4-17.1v-24.4h-8.4V439h8.4v-11.6h11.8V439h13.6v9.4h-13.6v24.1c0 5 2.5 7.6 7 7.6 2.5 0 4.9-.7 6.7-2.1z" class="st0"/></g><path fill="#3199d0" d="M346 523.4v5.4h-5.8v-5.4zM368.2 528.3l-1 .5-1 .3-.6.1h-.4a3.5 3.5 0 0 1-2.5-1l-.8-1c-.3-.4-.4-.8-.6-1.3a11 11 0 0 1-3.5 2.7l-1.6.5a8.4 8.4 0 0 1-4.5-.3c-.8-.3-1.5-.8-2.2-1.3a5.6 5.6 0 0 1-1.4-2c-.4-.8-.5-1.7-.5-2.7 0-.8.1-1.5.5-2.1a5 5 0 0 1 1.5-1.7l2.1-1.1 2.4-.9 2.5-.7 2-.8a6 6 0 0 0 1.5-1c.4-.3.6-.7.6-1.1a2 2 0 0 0-1.2-2c-.3-.1-.7-.3-1.2-.3l-1.3-.1-1.3.1-1.2.6c-.3.2-.6.6-.8 1-.3.4-.4.9-.5 1.4h-5a7 7 0 0 1 .9-3.2 7.8 7.8 0 0 1 4.8-3.7c1-.3 2-.5 3-.5 1.2 0 2.3.2 3.4.4 1.1.3 2 .7 2.8 1.3s1.4 1.2 1.9 2c.5 1 .7 2 .7 3.2V524c0 .3.1.5.3.8s.4.3.8.3h.4c.2 0 .7-.2 1-.5v3.6zm-7.6-9.8c-.3.2-.7.4-1.3.5l-1.6.5-1.9.5-1.7.7c-.5.2-.9.5-1.2.8s-.4.8-.4 1.2c0 .4 0 .8.2 1 .2.4.3.6.6.8l.8.5h.8c1 0 2-.3 3-.9 1-.6 2-1.7 2.8-3v-2.6zM371.6 507.3V503c0-.7.1-1.3.4-1.8a4.8 4.8 0 0 1 3-2.5 7 7 0 0 1 3-.3l1 .1c.4 0 .8.2 1.3.4l1.7.6v4l-1.7-.6-1.1-.3-.7-.1h-.3l-.6.1-.5.3c-.2.1-.3.3-.3.5-.2.1-.2.4-.2.6v3.1h4v4.2h-4v17.4h-5v-17.4h-3.4v-4.1zM382 507.3h3.7l.8 2.6c.6-1 1.3-1.8 2-2.3.7-.5 1.5-.7 2.3-.7l1.3.1 2 .8v4.4l-1.4-.5-.9-.2h-.8c-.7 0-1.2 0-1.7.3l-1.3 1a5.3 5.3 0 0 0-1 3.3V529h-5.1v-21.7zM400 499.3v5h-5v-5Zm0 8v21.5h-5v-21.5zM416.5 515c-.4-1.4-.9-2.5-1.5-3.1-.7-.7-1.5-1-2.6-1-.7 0-1.4.2-2 .6s-1.1.9-1.6 1.5a9.3 9.3 0 0 0-1.3 4.7c0 1 .2 2 .4 2.8a7.3 7.3 0 0 0 2.5 4c.6.5 1.3.7 2 .7.5 0 1-.1 1.5-.4.5-.3.9-.6 1.2-1 .4-.5.7-1 .9-1.6l.5-1.9h5.2c-.2 1.4-.5 2.7-1 3.8a8.4 8.4 0 0 1-4.8 4.6 10.4 10.4 0 0 1-6.7.1 8.3 8.3 0 0 1-4.3-3.2c-.5-.7-1-1.5-1.3-2.3a13.4 13.4 0 0 1-1-5.5c0-1.6.2-3 .7-4.4.5-1.3 1.2-2.5 2-3.5.9-1 2-1.7 3.1-2.2a10.4 10.4 0 0 1 7.7-.2c1 .4 1.9 1 2.7 1.7.7.7 1.4 1.6 1.9 2.6s.8 2 1 3.2h-5.2zM443.8 528.3l-1.1.5-.9.3-.6.1h-.5a3.5 3.5 0 0 1-2.5-1l-.8-1-.6-1.3a11 11 0 0 1-3.4 2.7l-1.7.5a8.4 8.4 0 0 1-4.4-.3c-1-.3-1.6-.8-2.2-1.3a5.6 5.6 0 0 1-1.5-2c-.3-.8-.5-1.7-.5-2.7 0-.8.2-1.5.6-2.1a5 5 0 0 1 1.5-1.7l2-1.1c.9-.4 1.6-.7 2.5-.9l2.4-.7 2-.8a6 6 0 0 0 1.6-1c.3-.3.6-.7.6-1.1a2 2 0 0 0-1.3-2c-.3-.1-.7-.3-1.2-.3l-1.3-.1-1.3.1c-.4.1-.8.3-1.1.6-.4.2-.7.6-.9 1-.2.4-.4.9-.4 1.4h-5.1a7 7 0 0 1 .9-3.2 7.8 7.8 0 0 1 4.8-3.7c1-.3 2-.5 3.1-.5 1.2 0 2.3.2 3.4.4 1 .3 2 .7 2.7 1.3s1.5 1.2 2 2c.4 1 .6 2 .6 3.2V524c0 .3.1.5.3.8s.5.3.8.3h.5c.3 0 .6-.2 1-.5v3.6zm-7.7-9.8-1.2.5-1.7.5-1.8.5-1.7.7c-.5.2-1 .5-1.2.8s-.5.8-.5 1.2c0 .4 0 .8.2 1l.6.8.8.5h.9c1 0 2-.3 3-.9 1-.6 1.9-1.7 2.7-3v-2.6z" class="st1"/></g><g stroke-width=".4"><path fill="#3099cf" d="M385 227.3c0 75.2-54.1 140.7-128.2 155.3a160.3 160.3 0 0 1-190-125.4c-14.6-70.6 23.4-144 90.4-174.6 6.1-3 6.1-3 8 3.9 5.6 20.5 11 41.2 16.9 61.6 1 3.4.7 5.1-2.7 7a84.3 84.3 0 0 0-39 87.3 85.1 85.1 0 0 0 70.9 68.2c48.2 7.3 93-27 98.1-75.3a84.8 84.8 0 0 0-69.4-91.6c-4.9-.7-9.7-1.4-14.6-1.4-2 0-3-.5-3.4-2.7l-18.3-67.5c-1.2-4.1 2.2-3.1 3.7-3.1a137 137 0 0 1 34.6 0c39 4.6 72.3 20.7 99.3 49.2a156.9 156.9 0 0 1 43.6 109z"/><path fill="#3199cf" d="M169.4 222.9c.5-15.1 9-30.5 25.6-41.4 2.6-1.7 3.1-3.2 2.4-6.1-9-33.1-18-66.2-26.8-99.6a8.2 8.2 0 0 0-3.6-4.9l-17.6-9.5a7.4 7.4 0 0 1-4.1-5C142 44 138.9 32.1 135.5 20c-1-2.9 0-3.6 2.7-4.9 4.2-1.4 7-.7 10.5 2.2 6.3 5.6 13.1 10.8 19.7 16.1 3.7 3 5.9 2.2 7.6-2l10-26c1-2.4 7.5-5.8 9.7-5.4 1.2.3 1.2 1.5 1.5 2.5l10.2 38a7 7 0 0 1-1 5.3c-3.6 5.9-7 11.7-10.7 17.3a6.8 6.8 0 0 0-.7 6.1l27 99.9c.7 2.6 1.7 3.6 4.6 3.6a55.2 55.2 0 0 1 53.6 51.2 55 55 0 0 1-47.7 58.2c-33.4 5-63.1-20.7-63.1-59.2z"/></g></svg>