<svg xmlns="http://www.w3.org/2000/svg" xml:space="preserve" id="Layer_1" width="448.665" height="529.307" x="0" y="0" version="1.1"><g id="g861" stroke-width="1.733" transform="translate(-158.75 207.307) scale(.57706)"><g id="g22" fill="#1a1a1a"><path id="path4" fill="#1a1a1a" stroke-width="1.733" d="M313.2 391.4h-38.1v-18.1h97.6v18.1h-38.1v96.9h-21.4z" class="st0"/><path id="path6" fill="#1a1a1a" stroke-width="1.733" d="M451.7 451h-68.8c2.5 12.8 13.1 21 28.4 21 9.9 0 17.6-3.1 23.8-9.5l11 12.6c-7.9 9.4-20.2 14.3-35.3 14.3-29.4 0-48.4-18.9-48.4-45s19.2-44.8 45.3-44.8c25.6 0 44.3 17.9 44.3 45.3 0 1.7-.2 4.2-.3 6.1zm-69-13.6h49.8c-1.6-12.6-11.3-21.3-24.8-21.3-13.3 0-23 8.5-25 21.3z" class="st0"/><path id="path8" fill="#1a1a1a" stroke-width="1.733" d="M456.3 444.5c0-26.3 19.7-44.8 47.5-44.8 17.1 0 30.7 7.1 37.4 20.4l-15.8 9.2c-5.3-8.4-13.1-12.2-21.8-12.2-15.1 0-26.6 10.5-26.6 27.4 0 17.1 11.5 27.4 26.6 27.4 8.7 0 16.6-3.8 21.8-12.2l15.8 9.2c-6.7 13.1-20.4 20.5-37.4 20.5-27.8.1-47.5-18.6-47.5-44.9z" class="st0"/><path id="path10" fill="#1a1a1a" stroke-width="1.733" d="M636.3 438.1v50.3h-20.5v-47.6c0-15.6-7.7-23.2-20.9-23.2-14.6 0-24.5 8.9-24.5 26.4v44.3h-20.5V366.5h20.5v44.3c6.7-7.2 17.1-11.2 29.2-11.2 21.1 0 36.7 12 36.7 38.5z" class="st0"/><path id="path12" fill="#1a1a1a" stroke-width="1.733" d="M747.3 444.5c0 27.3-18.9 45-44.5 45-11.2 0-21-3.8-28.1-11.8v42.5h-20.5V400.6h19.5v11.5c6.9-8.4 17.1-12.5 29.1-12.5 25.6 0 44.5 17.8 44.5 44.9zm-20.9 0c0-16.8-11.2-27.4-25.9-27.4-14.8 0-26.1 10.7-26.1 27.4s11.3 27.4 26.1 27.4 25.9-10.7 25.9-27.4z" class="st0"/><path id="path14" fill="#1a1a1a" stroke-width="1.733" d="M751.4 444.5c0-26.3 19.7-44.8 46.6-44.8 27.3 0 46.8 18.6 46.8 44.8 0 26.3-19.5 45-46.8 45-26.9 0-46.6-18.7-46.6-45zm72.8 0c0-16.8-11.2-27.4-26.1-27.4-14.8 0-25.9 10.7-25.9 27.4s11.2 27.4 25.9 27.4c14.9 0 26.1-10.7 26.1-27.4z" class="st0"/><path id="path16" fill="#1a1a1a" stroke-width="1.733" d="M853.5 373.9c0-6.9 5.6-12.3 13.1-12.3s13.1 5.1 13.1 11.8c0 7.2-5.4 12.8-13.1 12.8-7.5 0-13.1-5.4-13.1-12.3zm2.8 26.7h20.5v87.7h-20.5z" class="st0"/><path id="path18" fill="#1a1a1a" stroke-width="1.733" d="M982 438.1v50.3h-20.5v-47.6c0-15.6-7.7-23.2-20.9-23.2-14.6 0-24.5 8.9-24.5 26.4v44.3h-20.5v-87.7h19.5V412c6.7-8 17.4-12.3 30.2-12.3 21.1-.1 36.7 11.9 36.7 38.4z" class="st0"/><path id="path20" fill="#1a1a1a" stroke-width="1.733" d="M1052.6 483.6c-4.9 3.9-12.3 5.9-19.7 5.9-19.2 0-30.2-10.2-30.2-29.6v-42.2h-14.5v-16.4h14.5v-20h20.5v20h23.5v16.4h-23.5v41.7c0 8.5 4.3 13.1 12.2 13.1 4.3 0 8.4-1.2 11.5-3.6z" class="st0"/></g><g id="g38"><path id="path24" fill="#3199d0" stroke-width="1.733" d="M874.6 547.8v9.4h-10v-9.4z" class="st1"/><path id="path26" fill="#3199d0" stroke-width="1.733" d="M913.2 556.2c-.7.4-1.3.8-1.9 1-.5.2-1 .4-1.5.5-.5.1-.8.2-1.1.2h-.8c-.9 0-1.7-.2-2.4-.5s-1.4-.7-1.9-1.3c-.5-.6-1-1.1-1.4-1.8-.4-.7-.7-1.4-1-2.2-1.1 1.2-2.1 2.1-3.1 2.8-1 .7-1.9 1.3-2.9 1.8s-1.9.7-2.9.9c-1 .2-1.9.3-3 .3-1.7 0-3.3-.3-4.7-.8-1.5-.5-2.7-1.3-3.8-2.2-1.1-1-1.9-2.1-2.5-3.5-.6-1.4-.9-2.9-.9-4.6 0-1.4.3-2.7 1-3.8.6-1.1 1.5-2 2.6-2.8 1.1-.8 2.3-1.5 3.6-2 1.4-.6 2.7-1.1 4.2-1.5 1.4-.5 2.8-.9 4.2-1.3 1.4-.4 2.6-.9 3.6-1.3s1.9-1 2.6-1.6c.6-.6 1-1.3 1-2.1s-.2-1.4-.6-2c-.4-.6-.9-1-1.5-1.3-.6-.3-1.3-.6-2.1-.7-.8-.1-1.5-.2-2.3-.2-.8 0-1.5.1-2.2.3-.7.2-1.4.5-2 1-.6.4-1.1 1-1.5 1.7-.4.7-.7 1.5-.8 2.5h-8.8c.1-2.2.7-4 1.6-5.6.9-1.6 2.1-2.9 3.5-4s3-1.8 4.8-2.4c1.8-.6 3.6-.8 5.4-.8 2 0 3.9.2 5.8.7 1.9.5 3.4 1.1 4.8 2.1s2.5 2.2 3.3 3.7c.8 1.5 1.2 3.3 1.2 5.3V549c0 .5.2.9.5 1.3s.8.6 1.4.6c.1 0 .3 0 .8-.1s1.1-.3 1.8-.7v6.1zM900 539.3c-.6.3-1.3.7-2.2.9-.9.3-1.9.5-2.9.8-1.1.3-2.1.6-3.2.9-1.1.3-2 .7-2.9 1.1-.9.4-1.6.9-2.1 1.5s-.8 1.3-.8 2c0 .8.1 1.4.4 1.9.3.5.6 1 1 1.3.4.3.9.6 1.4.8.5.2 1 .2 1.5.2 1.7 0 3.4-.6 5.2-1.7 1.8-1.1 3.3-2.9 4.7-5.2v-4.5z" class="st1"/><path id="path28" fill="#3199d0" stroke-width="1.733" d="M919.1 519.8v-7.2c0-1.2.2-2.3.7-3.2.5-1 1.1-1.8 2-2.6.9-.7 1.9-1.3 3.1-1.7 1.2-.4 2.5-.6 3.9-.6.4 0 .8 0 1.4.1.5 0 1.1.1 1.7.2.6.1 1.4.3 2.2.6.8.3 1.8.6 2.9 1.1v6.8c-1.1-.4-2-.7-2.8-.9-.8-.2-1.4-.4-2-.5-.5-.1-1-.2-1.2-.2h-.5c-.3 0-.6.1-1 .2s-.6.3-.9.5c-.3.2-.5.5-.6.8-.2.3-.2.7-.2 1.1v5.4h6.8v7.2h-6.8v30.2h-8.7V527h-5.9v-7.2z" class="st1"/><path id="path30" fill="#3199d0" stroke-width="1.733" d="M937.1 519.8h6.4l1.4 4.6c1.1-1.8 2.3-3.1 3.5-4 1.2-.9 2.5-1.3 4-1.3.4 0 1.2.1 2.1.3.9.2 2.2.7 3.5 1.4v7.5c-.9-.3-1.7-.6-2.3-.8-.6-.2-1.2-.3-1.6-.4-.4-.1-.8-.1-1-.1h-.5c-1.1 0-2 .2-2.9.7-.9.5-1.6 1.1-2.2 1.8-.6.7-1 1.6-1.4 2.6-.3 1-.5 2-.5 3.1v22.2h-8.7v-37.6z" class="st1"/><path id="path32" fill="#3199d0" stroke-width="1.733" d="M968.4 506v8.6h-8.7V506Zm0 13.8v37.4h-8.7v-37.4z" class="st1"/><path id="path34" fill="#3199d0" stroke-width="1.733" d="M996.9 533.1c-.7-2.4-1.6-4.2-2.7-5.3-1.1-1.1-2.6-1.6-4.4-1.6-1.3 0-2.5.3-3.6 1s-1.9 1.5-2.6 2.6c-.7 1.1-1.3 2.3-1.6 3.8-.4 1.4-.6 2.9-.6 4.4 0 1.6.2 3.2.6 4.8.4 1.6.9 2.9 1.7 4.1.7 1.2 1.6 2.2 2.6 2.9 1 .7 2.2 1.1 3.4 1.1 1 0 1.9-.2 2.7-.7.8-.5 1.5-1.1 2.1-1.8.6-.8 1.1-1.7 1.5-2.7.4-1 .7-2.1.9-3.3h9c-.3 2.4-.9 4.6-1.8 6.5-.9 1.9-2 3.5-3.4 4.9-1.4 1.3-3 2.4-4.9 3.1-1.9.7-4 1.1-6.3 1.1-1.9 0-3.7-.3-5.3-.8-1.6-.5-3-1.3-4.2-2.2-1.2-.9-2.3-2-3.2-3.3-.9-1.3-1.7-2.7-2.3-4.1-.6-1.5-1-3-1.3-4.7-.3-1.6-.4-3.3-.4-4.9 0-2.7.4-5.3 1.2-7.6.8-2.3 2-4.3 3.5-6 1.5-1.7 3.3-3 5.4-3.9 2.1-.9 4.5-1.4 7.1-1.4 2.3 0 4.3.4 6.1 1.1 1.8.7 3.3 1.7 4.7 3 1.3 1.2 2.4 2.7 3.3 4.4.9 1.7 1.5 3.6 1.9 5.6h-9.1z" class="st1"/><path id="path36" fill="#3199d0" stroke-width="1.733" d="M1044.1 556.2c-.7.4-1.3.8-1.9 1-.5.2-1 .4-1.5.5-.5.1-.8.2-1.1.2h-.8c-.9 0-1.7-.2-2.4-.5s-1.4-.7-1.9-1.3c-.5-.6-1-1.1-1.4-1.8-.4-.7-.7-1.4-1-2.2-1.1 1.2-2.1 2.1-3.1 2.8-1 .7-1.9 1.3-2.9 1.8s-1.9.7-2.9.9c-1 .2-1.9.3-3 .3-1.7 0-3.3-.3-4.7-.8-1.5-.5-2.7-1.3-3.8-2.2-1.1-1-1.9-2.1-2.5-3.5-.6-1.4-.9-2.9-.9-4.6 0-1.4.3-2.7 1-3.8.6-1.1 1.5-2 2.6-2.8 1.1-.8 2.3-1.5 3.6-2 1.4-.6 2.7-1.1 4.2-1.5 1.4-.5 2.8-.9 4.2-1.3 1.4-.4 2.6-.9 3.6-1.3s1.9-1 2.6-1.6c.6-.6 1-1.3 1-2.1s-.2-1.4-.6-2c-.4-.6-.9-1-1.5-1.3-.6-.3-1.3-.6-2.1-.7-.8-.1-1.5-.2-2.3-.2-.8 0-1.5.1-2.2.3-.7.2-1.4.5-2 1-.6.4-1.1 1-1.5 1.7-.4.7-.7 1.5-.8 2.5h-8.8c.1-2.2.7-4 1.6-5.6.9-1.6 2.1-2.9 3.5-4s3-1.8 4.8-2.4c1.8-.6 3.6-.8 5.4-.8 2 0 3.9.2 5.8.7 1.9.5 3.4 1.1 4.8 2.1s2.5 2.2 3.3 3.7c.8 1.5 1.2 3.3 1.2 5.3V549c0 .5.2.9.5 1.3s.8.6 1.4.6c.1 0 .3 0 .8-.1s1.1-.3 1.8-.7v6.1zm-13.2-16.9c-.6.3-1.3.7-2.2.9-.9.3-1.9.5-2.9.8-1.1.3-2.1.6-3.2.9-1.1.3-2 .7-2.9 1.1-.9.4-1.6.9-2.1 1.5s-.8 1.3-.8 2c0 .8.1 1.4.4 1.9.3.5.6 1 1 1.3.4.3.9.6 1.4.8.5.2 1 .2 1.5.2 1.7 0 3.4-.6 5.2-1.7 1.8-1.1 3.3-2.9 4.7-5.2v-4.5z" class="st1"/></g></g><g id="g44" stroke-width=".411" transform="matrix(2.43539 0 0 2.43539 -249.5 -837.239)"><path id="path40" fill="#3099cf" d="M260.5 437.1c0 30.9-22.2 57.8-52.6 63.8-36.3 7.2-70.5-15.5-78-51.5-6-29 9.6-59.1 37.1-71.7 2.5-1.2 2.5-1.2 3.3 1.6 2.3 8.4 4.5 16.9 6.9 25.3.4 1.4.3 2.1-1.1 2.9-12.3 7.6-18.8 22.2-16 35.8 3.1 14.9 14.5 25.8 29.1 28 19.8 3 38.2-11.1 40.3-30.9 1.9-17.8-10.9-34.7-28.5-37.6-2-.3-4-.6-6-.6-.8 0-1.2-.2-1.4-1.1-2.5-9.2-5-18.5-7.5-27.7-.5-1.7.9-1.3 1.5-1.3 4.7-.6 9.5-.6 14.2 0 16 1.9 29.7 8.5 40.8 20.2 10.3 10.9 16.1 23.9 17.6 38.8.2 2 .3 4 .3 6z"/><path id="path42" fill="#3199cf" d="M172 435.3c.2-6.2 3.7-12.5 10.5-17 1.1-.7 1.3-1.3 1-2.5-3.7-13.6-7.4-27.2-11-40.9-.3-.9-.7-1.5-1.5-2l-7.2-3.9c-.9-.5-1.4-1-1.7-2.1-1.3-5-2.6-9.9-4-14.9-.4-1.2 0-1.5 1.1-2 1.7-.6 2.9-.3 4.3.9 2.6 2.3 5.4 4.4 8.1 6.6 1.5 1.2 2.4.9 3.1-.8 1.4-3.6 2.8-7.2 4.1-10.7.4-1 3.1-2.4 4-2.2.5.1.5.6.6 1l4.2 15.6c.2.8 0 1.5-.4 2.2-1.5 2.4-2.9 4.8-4.4 7.1-.5.8-.6 1.6-.3 2.5 3.7 13.7 7.4 27.3 11.1 41 .3 1.1.7 1.5 1.9 1.5 11.8.4 21.3 9.6 22 21 .7 12-7.7 22.2-19.6 23.9-13.7 2.1-25.9-8.5-25.9-24.3z"/></g></svg>