<svg width="572" height="606" fill="none" xmlns="http://www.w3.org/2000/svg"><g clip-path="url(#clip0)" fill-rule="evenodd" clip-rule="evenodd"><path d="M58 167l1-4 1-5L104 0l468 1L55 422l236-285H114l-10 1c-21 1-40 14-46 29" fill="#808285"/><path d="M547 289c0-2-15 89-40 183l-489 3L546 48 309 335h178l10-1c21-1 43-30 50-45" fill="#ED1C24"/><path d="M83 606H0l57-78H19l3-22h79l-57 78h42l-3 22zm16 0l13-100h57l-3 22h-32l-2 17h30l-2 22h-31l-2 17h32l-3 22H99zm74 0l13-100h25l29 52 2 6 4 11a220 220 0 0 1 1-19l6-50h25l-13 100h-24l-29-51-3-7-4-11a237 237 0 0 1-1 20l-6 49h-25zm113 0l13-100h26l-13 100h-26zm60 0l10-76h-21l3-24h68l-3 24h-21l-10 76h-26zm59 0l13-100h26l-5 39h34l5-39h26l-13 100h-26l5-41h-34l-5 41h-26z" fill="#808285"/></g><defs><clipPath id="clip0"><path fill="#fff" d="M0 0h572v606H0z"/></clipPath></defs></svg>