<svg id="Layer_1" data-name="Layer 1" xmlns="http://www.w3.org/2000/svg" viewBox="0 0 1577.31 447"><defs><style>.cls-1{fill:#4a4a4a;}.cls-1,.cls-2{fill-rule:evenodd;}.cls-2{fill:#f05042;}</style></defs><path id="Stears" class="cls-1" d="M905.77,561.46a107.1,107.1,0,0,0,25,26.9q14.94,11.42,40.47,27.18,27.69,17.38,43.72,29.89a114,114,0,0,1,27.16,30.71q11.13,18.21,11.13,42.67,0,27.72-14.39,49.46t-40.74,34q-26.34,12.22-60,12.23a195.24,195.24,0,0,1-47-6q-24.17-6-36.66-14.67-4.89-3.27-5.43-10.33l-3.26-82.62v-.54c0-1.45.91-2.27,2.72-2.45s2.89.46,3.26,1.91q17.92,45.11,41,73.91t58.93,28.81q23.36,0,39.11-12.77t15.75-42.67q0-23.91-10.59-41.85a104.16,104.16,0,0,0-26.07-29.89q-15.48-12-42.09-29.35Q901.7,629.12,887,617.44a106.9,106.9,0,0,1-25-28.81q-10.32-17.11-10.32-40,0-28.26,15.75-47.83t41-29.07a148.83,148.83,0,0,1,53-9.52,195.73,195.73,0,0,1,36.93,3.54q18.48,3.52,31,9,8.14,3.27,8.15,10.33l1.63,73.92c0,1.09-1,1.81-3,2.18s-3.17,0-3.53-1.09A239.9,239.9,0,0,0,1003.53,500Q985.34,473.13,949,473.13q-24.45,0-38.84,14.14t-14.39,38.59Q895.72,546,905.77,561.46Zm323.59,211.7c1.08,0,2.08.73,3,2.18s.81,2.53-.28,3.26q-20.08,19-38,27.44a88.24,88.24,0,0,1-38,8.43q-23.35,0-39.37-11.14t-16-37.23V643.26q0-17.94-5.7-23.92t-22-6q-.54,0-1.35-1.35a5.86,5.86,0,0,1,0-6c.54-.91,1-1.36,1.35-1.36q51.06-2.17,64.09-44,1.1-2.17,4.62-2.17c2.35,0,3.53.72,3.53,2.17v42.94q25.53-.54,72.24-5.43c.72,0,1.54,1.35,2.44,4.07a28.13,28.13,0,0,1,1.36,9,26.76,26.76,0,0,1-1.9,9.78q-1.9,4.89-4.07,4.35-30.42-7.07-70.07-8.69V748.16q0,21.2,10.59,31.25t29.6,10.06q22.82,0,42.91-15.77Zm213.82.54c.72,0,1.54.73,2.44,2.18s1,2.54.28,3.26q-20.1,18.48-40.2,26.9a111.15,111.15,0,0,1-43.45,8.43q-33.13,0-57.3-14.68A99.29,99.29,0,0,1,1268,761.2a108,108,0,0,1-12.77-51.63,113.08,113.08,0,0,1,15.76-58.7,114.78,114.78,0,0,1,43.18-42.13q27.42-15.48,61.1-15.49,32.58,0,50.51,15.77t17.92,46.74q0,15.76-6.51,15.76l-132.53.55a145.73,145.73,0,0,0-.54,14.67q0,47.84,22,75.82t62.74,28q15.21,0,25.52-3.53t27.7-12.77Zm-120.3-154.09q-12.77,15.5-17.11,42.67l86.9-1.63q-1.1-56.52-36.93-56.53Q1335.64,604.12,1322.88,619.61Zm355.59,159c1.45,0,2.36.81,2.72,2.44a2.88,2.88,0,0,1-1.63,3.54l-55.94,26.63a10.85,10.85,0,0,1-4.89,1.09q-8.14,0-15.48-9.52t-9.51-25.27l-25,17.39q-13,9.24-23.63,13.05a69.62,69.62,0,0,1-23.62,3.8q-22.27,0-34-10.6t-11.68-28q0-14.67,7.88-23.91a58.35,58.35,0,0,1,20.1-15q12.21-5.71,36.11-14.4l52.69-19.57V667.72q0-33.71-6.79-49.19T1564.42,603q-17.93,0-25.8,13.31a71.49,71.49,0,0,0-9.51,29.63q-3.25,27.72-27.7,27.72-11.94,0-17.65-5.44a18,18,0,0,1-5.7-13.59q0-15.21,18.19-29.62t44-23.37q25.79-9,45.35-9,23.36,0,37.2,14.68t13.85,44v97.84q0,16.85,5.43,25.54a17.48,17.48,0,0,0,15.75,8.7q8.16,0,19.56-4.89Zm-85.81-9.79V709.57l-32.59,13.59Q1546,728.59,1537,735.93t-9,20.93q0,13,8.42,20.92a28.73,28.73,0,0,0,20.37,7.88q9.78,0,20.64-6.52Zm267.59-163.74q11.41,8.14,11.41,19.56,0,10.33-6.25,16.85T1848.3,648a21.12,21.12,0,0,1-11.68-3,49.48,49.48,0,0,1-9.5-8.43,55.23,55.23,0,0,0-8.69-7.34,16.69,16.69,0,0,0-9.23-2.44q-6,0-12.77,4.62t-20.91,19.29v117.4q0,15.23,4.35,23.1t14.66,11.15q10.32,3.25,30.42,3.26c1.45,0,2.17,1.09,2.17,3.26s-.72,3.26-2.17,3.26q-17.92,0-28.79-.54l-42.91-.55-31.5.55q-7.61.54-21.18.54c-1.09,0-1.63-1.09-1.63-3.26s.54-3.26,1.63-3.26q18.47,0,24.44-7.61t6-29.9V664.31q0-17.38-4.07-25.54t-13.31-8.16q-8.14,0-27.15,8.16h-.55c-1.44,0-2.53-.91-3.25-2.72s-.55-2.9.54-3.26L1754.34,598a23.39,23.39,0,0,1,3.8-1.09q5.43,0,10.86,11.69t6.52,30.71q21.18-23.91,35.31-33.16t25.52-9.24Q1848.85,596.91,1860.25,605.07Zm75.63,49.6q11.68,11.42,33.95,23.92,19.55,10.86,30.14,17.93a66.29,66.29,0,0,1,18.47,19q7.88,12,7.87,28.8a66.64,66.64,0,0,1-9.23,34.25q-9.24,15.75-27.43,25.54t-43.18,9.79a103.54,103.54,0,0,1-54.86-15.22c-2.17-2.18-3.25-4.35-3.25-6.53l-1.09-50c0-1.09,1-1.72,3-1.9s3.16.09,3.53.81q9.23,27.18,28,44.57t39.92,17.4q13.58,0,21.18-7.07t7.61-21.2q0-20.65-12-32.88t-34.76-24.19q-18.48-9.78-28.79-16.58a59.62,59.62,0,0,1-17.65-18.48Q1890,671,1890,653.59q0-31,22.54-46.2t54.58-15.22a125.81,125.81,0,0,1,43.45,8.15q4.89,2.17,4.89,6,0,12.5-.54,19.57l-.55,26.08c0,1.09-1.08,1.64-3.26,1.64s-3.25-.55-3.25-1.64q0-10.86-8.69-22.55a70.08,70.08,0,0,0-22.27-19.3,56.11,56.11,0,0,0-27.7-7.61q-25,0-25,23.92Q1924.2,643.26,1935.88,654.67Z" transform="translate(-449 -410)"/><path id="Combined-Shape" class="cls-2" d="M550.76,641.31a50.83,50.83,0,1,1-26.41-52l63.31-90.2a50.82,50.82,0,1,1,12.67,8.17l-63.85,91a50.3,50.3,0,0,1,14.25,28h142a50.67,50.67,0,1,1,30,53.32L657.6,770.05a50.79,50.79,0,1,1-12.13-8.93l64.45-89.53a50.23,50.23,0,0,1-17-30.28Z" transform="translate(-449 -410)"/></svg>